<?xml version="1.0" encoding="UTF-8" standalone="no"?>
<!DOCTYPE svg PUBLIC "-//W3C//DTD SVG 1.1//EN"
 "http://www.w3.org/Graphics/SVG/1.1/DTD/svg11.dtd">
<!-- Generated by graphviz version 12.2.1 (20241206.2353)
 -->
<!-- Pages: 1 -->
<svg width="601pt" height="116pt"
 viewBox="0.00 0.00 601.26 116.00" xmlns="http://www.w3.org/2000/svg" xmlns:xlink="http://www.w3.org/1999/xlink">
<g id="graph0" class="graph" transform="scale(1 1) rotate(0) translate(4 112)">
<polygon fill="white" stroke="none" points="-4,4 -4,-112 597.26,-112 597.26,4 -4,4"/>
<!-- r2_node_9 -->
<g id="node1" class="node">
<title>r2_node_9</title>
<ellipse fill="none" stroke="black" cx="50.33" cy="-18" rx="50.33" ry="18"/>
<text text-anchor="middle" x="50.33" y="-12.95" font-family="Times,serif" font-size="14.00">r2_node_9</text>
</g>
<!-- r2_node_27 -->
<g id="node2" class="node">
<title>r2_node_27</title>
<ellipse fill="none" stroke="black" cx="173.33" cy="-18" rx="54.93" ry="18"/>
<text text-anchor="middle" x="173.33" y="-12.95" font-family="Times,serif" font-size="14.00">r2_node_27</text>
</g>
<!-- r2_node_26 -->
<g id="node3" class="node">
<title>r2_node_26</title>
<ellipse fill="none" stroke="black" cx="266.33" cy="-90" rx="54.93" ry="18"/>
<text text-anchor="middle" x="266.33" y="-84.95" font-family="Times,serif" font-size="14.00">r2_node_26</text>
</g>
<!-- r2_node_5 -->
<g id="node4" class="node">
<title>r2_node_5</title>
<ellipse fill="none" stroke="black" cx="296.33" cy="-18" rx="50.33" ry="18"/>
<text text-anchor="middle" x="296.33" y="-12.95" font-family="Times,serif" font-size="14.00">r2_node_5</text>
</g>
<!-- r2_node_26&#45;&gt;r2_node_5 -->
<g id="edge1" class="edge">
<title>r2_node_26&#45;&gt;r2_node_5</title>
<path fill="none" stroke="black" d="M273.74,-71.7C276.98,-64.15 280.85,-55.12 284.46,-46.68"/>
<polygon fill="black" stroke="black" points="287.68,-48.07 288.4,-37.5 281.24,-45.31 287.68,-48.07"/>
</g>
<!-- r2_node_1 -->
<g id="node5" class="node">
<title>r2_node_1</title>
<ellipse fill="none" stroke="black" cx="415.33" cy="-18" rx="50.33" ry="18"/>
<text text-anchor="middle" x="415.33" y="-12.95" font-family="Times,serif" font-size="14.00">r2_node_1</text>
</g>
<!-- r2_node_26&#45;&gt;r2_node_1 -->
<g id="edge2" class="edge">
<title>r2_node_26&#45;&gt;r2_node_1</title>
<path fill="none" stroke="black" d="M296.84,-74.67C319.56,-63.99 350.79,-49.32 375.48,-37.72"/>
<polygon fill="black" stroke="black" points="376.69,-41.02 384.25,-33.6 373.71,-34.68 376.69,-41.02"/>
</g>
<!-- r2_node_15 -->
<g id="node6" class="node">
<title>r2_node_15</title>
<ellipse fill="none" stroke="black" cx="538.33" cy="-18" rx="54.93" ry="18"/>
<text text-anchor="middle" x="538.33" y="-12.95" font-family="Times,serif" font-size="14.00">r2_node_15</text>
</g>
<!-- r2_node_26&#45;&gt;r2_node_15 -->
<g id="edge3" class="edge">
<title>r2_node_26&#45;&gt;r2_node_15</title>
<path fill="none" stroke="black" d="M308.98,-78.26C351.05,-67.65 417.17,-50.87 474.33,-36 478.06,-35.03 481.91,-34.02 485.78,-33"/>
<polygon fill="black" stroke="black" points="486.45,-36.45 495.22,-30.51 484.66,-29.68 486.45,-36.45"/>
</g>
<!-- r2_node_22 -->
<g id="node7" class="node">
<title>r2_node_22</title>
<ellipse fill="none" stroke="black" cx="109.33" cy="-90" rx="54.93" ry="18"/>
<text text-anchor="middle" x="109.33" y="-84.95" font-family="Times,serif" font-size="14.00">r2_node_22</text>
</g>
<!-- r2_node_22&#45;&gt;r2_node_9 -->
<g id="edge4" class="edge">
<title>r2_node_22&#45;&gt;r2_node_9</title>
<path fill="none" stroke="black" d="M95.35,-72.41C88.22,-63.95 79.4,-53.49 71.47,-44.08"/>
<polygon fill="black" stroke="black" points="74.31,-42.02 65.19,-36.63 68.95,-46.53 74.31,-42.02"/>
</g>
<!-- r2_node_22&#45;&gt;r2_node_27 -->
<g id="edge5" class="edge">
<title>r2_node_22&#45;&gt;r2_node_27</title>
<path fill="none" stroke="black" d="M124.49,-72.41C132.31,-63.87 141.99,-53.28 150.67,-43.79"/>
<polygon fill="black" stroke="black" points="153.08,-46.33 157.25,-36.59 147.92,-41.61 153.08,-46.33"/>
</g>
</g>
</svg>
