<?xml version="1.0" encoding="UTF-8" standalone="no"?>
<!DOCTYPE svg PUBLIC "-//W3C//DTD SVG 1.1//EN"
 "http://www.w3.org/Graphics/SVG/1.1/DTD/svg11.dtd">
<!-- Generated by graphviz version 12.2.1 (20241206.2353)
 -->
<!-- Pages: 1 -->
<svg width="785pt" height="1196pt"
 viewBox="0.00 0.00 785.09 1196.00" xmlns="http://www.w3.org/2000/svg" xmlns:xlink="http://www.w3.org/1999/xlink">
<g id="graph0" class="graph" transform="scale(1 1) rotate(0) translate(4 1192)">
<polygon fill="white" stroke="none" points="-4,4 -4,-1192 781.09,-1192 781.09,4 -4,4"/>
<!-- r2_node_24 -->
<g id="node1" class="node">
<title>r2_node_24</title>
<ellipse fill="none" stroke="black" cx="54.93" cy="-1170" rx="54.93" ry="18"/>
<text text-anchor="middle" x="54.93" y="-1164.95" font-family="Times,serif" font-size="14.00">r2_node_24</text>
</g>
<!-- r2_node_4 -->
<g id="node2" class="node">
<title>r2_node_4</title>
<ellipse fill="none" stroke="black" cx="99.93" cy="-1098" rx="50.33" ry="18"/>
<text text-anchor="middle" x="99.93" y="-1092.95" font-family="Times,serif" font-size="14.00">r2_node_4</text>
</g>
<!-- r2_node_24&#45;&gt;r2_node_4 -->
<g id="edge1" class="edge">
<title>r2_node_24&#45;&gt;r2_node_4</title>
<path fill="none" stroke="black" d="M60.14,-1151.7C64.57,-1143.49 70.78,-1133.52 77.03,-1124.48"/>
<polygon fill="black" stroke="black" points="79.87,-1126.53 82.88,-1116.37 74.19,-1122.43 79.87,-1126.53"/>
</g>
<!-- r2_node_30 -->
<g id="node3" class="node">
<title>r2_node_30</title>
<ellipse fill="none" stroke="black" cx="286.93" cy="-306" rx="54.93" ry="18"/>
<text text-anchor="middle" x="286.93" y="-300.95" font-family="Times,serif" font-size="14.00">r2_node_30</text>
</g>
<!-- r2_node_24&#45;&gt;r2_node_30 -->
<g id="edge2" class="edge">
<title>r2_node_24&#45;&gt;r2_node_30</title>
<path fill="none" stroke="black" d="M41.63,-1152.51C37.22,-1142.16 33.55,-1128.46 31.93,-1116 29.87,-1100.13 29.48,-1095.81 31.93,-1080 78.86,-777.83 223.15,-432.15 271.38,-334.15"/>
<polygon fill="black" stroke="black" points="274.47,-335.8 275.84,-325.29 268.22,-332.65 274.47,-335.8"/>
</g>
<!-- r2_node_10 -->
<g id="node4" class="node">
<title>r2_node_10</title>
<ellipse fill="none" stroke="black" cx="256.93" cy="-1026" rx="54.93" ry="18"/>
<text text-anchor="middle" x="256.93" y="-1020.95" font-family="Times,serif" font-size="14.00">r2_node_10</text>
</g>
<!-- r2_node_24&#45;&gt;r2_node_10 -->
<g id="edge3" class="edge">
<title>r2_node_24&#45;&gt;r2_node_10</title>
<path fill="none" stroke="black" d="M82.14,-1154C101.78,-1144.4 128.26,-1130.97 149.93,-1116 178.07,-1096.58 206.59,-1069.68 227.32,-1050.55"/>
<polygon fill="black" stroke="black" points="229.58,-1053.23 234.59,-1043.89 224.85,-1048.06 229.58,-1053.23"/>
</g>
<!-- r2_node_8 -->
<g id="node5" class="node">
<title>r2_node_8</title>
<ellipse fill="none" stroke="black" cx="626.93" cy="-378" rx="50.33" ry="18"/>
<text text-anchor="middle" x="626.93" y="-372.95" font-family="Times,serif" font-size="14.00">r2_node_8</text>
</g>
<!-- r2_node_24&#45;&gt;r2_node_8 -->
<g id="edge4" class="edge">
<title>r2_node_24&#45;&gt;r2_node_8</title>
<path fill="none" stroke="black" d="M90.72,-1156.06C119.31,-1146.48 159.83,-1132.3 193.93,-1116 333.53,-1049.28 385.78,-1031.73 466.93,-900 570.64,-731.66 605.8,-489.02 620.06,-407.17"/>
<polygon fill="black" stroke="black" points="623.47,-408.03 621.79,-397.57 616.58,-406.79 623.47,-408.03"/>
</g>
<!-- r2_node_4&#45;&gt;r2_node_24 -->
<g id="edge45" class="edge">
<title>r2_node_4&#45;&gt;r2_node_24</title>
<path fill="none" stroke="black" d="M94.91,-1115.96C90.5,-1124.17 84.26,-1134.22 77.96,-1143.34"/>
<polygon fill="black" stroke="black" points="75.32,-1141.02 72.32,-1151.18 81,-1145.11 75.32,-1141.02"/>
</g>
<!-- r2_node_29 -->
<g id="node12" class="node">
<title>r2_node_29</title>
<ellipse fill="none" stroke="black" cx="128.93" cy="-1026" rx="54.93" ry="18"/>
<text text-anchor="middle" x="128.93" y="-1020.95" font-family="Times,serif" font-size="14.00">r2_node_29</text>
</g>
<!-- r2_node_4&#45;&gt;r2_node_29 -->
<g id="edge44" class="edge">
<title>r2_node_4&#45;&gt;r2_node_29</title>
<path fill="none" stroke="black" d="M101.19,-1079.7C103.62,-1071.87 107.31,-1062.44 111.28,-1053.73"/>
<polygon fill="black" stroke="black" points="114.31,-1055.51 115.54,-1044.98 108.02,-1052.44 114.31,-1055.51"/>
</g>
<!-- r2_node_30&#45;&gt;r2_node_24 -->
<g id="edge69" class="edge">
<title>r2_node_30&#45;&gt;r2_node_24</title>
<path fill="none" stroke="black" d="M282.11,-324.21C252.08,-406.24 98.61,-766.53 49.93,-1080 47.48,-1095.81 47.87,-1100.13 49.93,-1116 50.98,-1124.02 52.87,-1132.56 54.6,-1140.39"/>
<polygon fill="black" stroke="black" points="51.16,-1141.03 56.67,-1150.08 58.01,-1139.57 51.16,-1141.03"/>
</g>
<!-- r2_node_5 -->
<g id="node10" class="node">
<title>r2_node_5</title>
<ellipse fill="none" stroke="black" cx="338.93" cy="-378" rx="50.33" ry="18"/>
<text text-anchor="middle" x="338.93" y="-372.95" font-family="Times,serif" font-size="14.00">r2_node_5</text>
</g>
<!-- r2_node_30&#45;&gt;r2_node_5 -->
<g id="edge68" class="edge">
<title>r2_node_30&#45;&gt;r2_node_5</title>
<path fill="none" stroke="black" d="M304.72,-323.14C311.59,-331.18 319.23,-341.1 325.63,-350.23"/>
<polygon fill="black" stroke="black" points="322.67,-352.1 331.15,-358.44 328.47,-348.19 322.67,-352.1"/>
</g>
<!-- r2_node_18 -->
<g id="node13" class="node">
<title>r2_node_18</title>
<ellipse fill="none" stroke="black" cx="454.93" cy="-234" rx="54.93" ry="18"/>
<text text-anchor="middle" x="454.93" y="-228.95" font-family="Times,serif" font-size="14.00">r2_node_18</text>
</g>
<!-- r2_node_30&#45;&gt;r2_node_18 -->
<g id="edge67" class="edge">
<title>r2_node_30&#45;&gt;r2_node_18</title>
<path fill="none" stroke="black" d="M316.15,-290.5C341.59,-279.3 378.74,-263.78 408.26,-251.99"/>
<polygon fill="black" stroke="black" points="409.34,-255.33 417.35,-248.4 406.77,-248.82 409.34,-255.33"/>
</g>
<!-- r2_node_14 -->
<g id="node15" class="node">
<title>r2_node_14</title>
<ellipse fill="none" stroke="black" cx="318.93" cy="-18" rx="54.93" ry="18"/>
<text text-anchor="middle" x="318.93" y="-12.95" font-family="Times,serif" font-size="14.00">r2_node_14</text>
</g>
<!-- r2_node_30&#45;&gt;r2_node_14 -->
<g id="edge66" class="edge">
<title>r2_node_30&#45;&gt;r2_node_14</title>
<path fill="none" stroke="black" d="M283.99,-287.53C281.41,-269.52 278.57,-240.69 281.93,-216 286.42,-183.09 286.28,-173.29 301.93,-144 311.89,-125.38 325.59,-127.79 332.93,-108 340.21,-88.39 336.07,-64.99 330.45,-47.1"/>
<polygon fill="black" stroke="black" points="333.75,-45.95 327.15,-37.67 327.15,-48.26 333.75,-45.95"/>
</g>
<!-- r2_node_10&#45;&gt;r2_node_24 -->
<g id="edge70" class="edge">
<title>r2_node_10&#45;&gt;r2_node_24</title>
<path fill="none" stroke="black" d="M247.59,-1043.88C231.6,-1062.96 199.52,-1094.19 167.93,-1116 147.82,-1129.89 123.57,-1142.46 102.61,-1151.86"/>
<polygon fill="black" stroke="black" points="101.46,-1148.55 93.69,-1155.75 104.25,-1154.96 101.46,-1148.55"/>
</g>
<!-- r2_node_8&#45;&gt;r2_node_24 -->
<g id="edge20" class="edge">
<title>r2_node_8&#45;&gt;r2_node_24</title>
<path fill="none" stroke="black" d="M628.56,-396.08C627.17,-464.44 593.85,-723.2 484.93,-900 403.78,-1031.73 351.53,-1049.28 211.93,-1116 178.93,-1131.78 139.91,-1145.56 108.94,-1155.12"/>
<polygon fill="black" stroke="black" points="107.93,-1151.76 99.36,-1158 109.95,-1158.47 107.93,-1151.76"/>
</g>
<!-- r2_node_17 -->
<g id="node16" class="node">
<title>r2_node_17</title>
<ellipse fill="none" stroke="black" cx="604.93" cy="-90" rx="54.93" ry="18"/>
<text text-anchor="middle" x="604.93" y="-84.95" font-family="Times,serif" font-size="14.00">r2_node_17</text>
</g>
<!-- r2_node_8&#45;&gt;r2_node_17 -->
<g id="edge18" class="edge">
<title>r2_node_8&#45;&gt;r2_node_17</title>
<path fill="none" stroke="black" d="M598.19,-362.78C583.55,-353.84 567.15,-340.81 558.93,-324 542.65,-290.65 577.8,-219.6 586.93,-180 591.57,-159.91 596.17,-137.11 599.55,-119.62"/>
<polygon fill="black" stroke="black" points="602.96,-120.42 601.41,-109.94 596.09,-119.1 602.96,-120.42"/>
</g>
<!-- r2_node_3 -->
<g id="node19" class="node">
<title>r2_node_3</title>
<ellipse fill="none" stroke="black" cx="448.93" cy="-450" rx="50.33" ry="18"/>
<text text-anchor="middle" x="448.93" y="-444.95" font-family="Times,serif" font-size="14.00">r2_node_3</text>
</g>
<!-- r2_node_8&#45;&gt;r2_node_3 -->
<g id="edge17" class="edge">
<title>r2_node_8&#45;&gt;r2_node_3</title>
<path fill="none" stroke="black" d="M597.06,-392.92C569.2,-404.48 527.43,-420.95 495.28,-433.04"/>
<polygon fill="black" stroke="black" points="494.34,-429.66 486.19,-436.44 496.79,-436.22 494.34,-429.66"/>
</g>
<!-- r2_node_23 -->
<g id="node20" class="node">
<title>r2_node_23</title>
<ellipse fill="none" stroke="black" cx="622.93" cy="-306" rx="54.93" ry="18"/>
<text text-anchor="middle" x="622.93" y="-300.95" font-family="Times,serif" font-size="14.00">r2_node_23</text>
</g>
<!-- r2_node_8&#45;&gt;r2_node_23 -->
<g id="edge19" class="edge">
<title>r2_node_8&#45;&gt;r2_node_23</title>
<path fill="none" stroke="black" d="M620.03,-359.7C618.86,-352.41 618.12,-343.73 617.92,-335.54"/>
<polygon fill="black" stroke="black" points="621.42,-335.65 618,-325.62 614.42,-335.59 621.42,-335.65"/>
</g>
<!-- r2_node_26 -->
<g id="node6" class="node">
<title>r2_node_26</title>
<ellipse fill="none" stroke="black" cx="320.93" cy="-450" rx="54.93" ry="18"/>
<text text-anchor="middle" x="320.93" y="-444.95" font-family="Times,serif" font-size="14.00">r2_node_26</text>
</g>
<!-- r2_node_1 -->
<g id="node7" class="node">
<title>r2_node_1</title>
<ellipse fill="none" stroke="black" cx="165.93" cy="-18" rx="50.33" ry="18"/>
<text text-anchor="middle" x="165.93" y="-12.95" font-family="Times,serif" font-size="14.00">r2_node_1</text>
</g>
<!-- r2_node_26&#45;&gt;r2_node_1 -->
<g id="edge5" class="edge">
<title>r2_node_26&#45;&gt;r2_node_1</title>
<path fill="none" stroke="black" d="M303.68,-432.58C281.32,-410.24 242.82,-367.97 222.93,-324 200.52,-274.45 178,-113.3 169.49,-47.44"/>
<polygon fill="black" stroke="black" points="173,-47.27 168.26,-37.8 166.05,-48.16 173,-47.27"/>
</g>
<!-- r2_node_22 -->
<g id="node8" class="node">
<title>r2_node_22</title>
<ellipse fill="none" stroke="black" cx="365.93" cy="-162" rx="54.93" ry="18"/>
<text text-anchor="middle" x="365.93" y="-156.95" font-family="Times,serif" font-size="14.00">r2_node_22</text>
</g>
<!-- r2_node_26&#45;&gt;r2_node_22 -->
<g id="edge6" class="edge">
<title>r2_node_26&#45;&gt;r2_node_22</title>
<path fill="none" stroke="black" d="M354.17,-435.26C370.51,-426.59 388.65,-413.67 397.93,-396 405.38,-381.84 402.5,-375.34 397.93,-360 387.04,-323.37 373.9,-318.55 350.93,-288 338.25,-271.12 327.28,-271.79 319.93,-252 314.37,-237 314.34,-230.99 319.93,-216 323.92,-205.33 331.13,-195.38 338.68,-187.05"/>
<polygon fill="black" stroke="black" points="341.01,-189.68 345.49,-180.08 336,-184.79 341.01,-189.68"/>
</g>
<!-- r2_node_15 -->
<g id="node9" class="node">
<title>r2_node_15</title>
<ellipse fill="none" stroke="black" cx="291.93" cy="-522" rx="54.93" ry="18"/>
<text text-anchor="middle" x="291.93" y="-516.95" font-family="Times,serif" font-size="14.00">r2_node_15</text>
</g>
<!-- r2_node_26&#45;&gt;r2_node_15 -->
<g id="edge7" class="edge">
<title>r2_node_26&#45;&gt;r2_node_15</title>
<path fill="none" stroke="black" d="M319.69,-468.28C317.31,-475.94 313.72,-485.16 309.84,-493.72"/>
<polygon fill="black" stroke="black" points="306.7,-492.17 305.49,-502.69 313,-495.22 306.7,-492.17"/>
</g>
<!-- r2_node_26&#45;&gt;r2_node_5 -->
<g id="edge8" class="edge">
<title>r2_node_26&#45;&gt;r2_node_5</title>
<path fill="none" stroke="black" d="M319.47,-431.7C320.62,-424.24 322.67,-415.32 325.12,-406.97"/>
<polygon fill="black" stroke="black" points="328.42,-408.14 328.17,-397.54 321.76,-405.97 328.42,-408.14"/>
</g>
<!-- r2_node_15&#45;&gt;r2_node_26 -->
<g id="edge22" class="edge">
<title>r2_node_15&#45;&gt;r2_node_26</title>
<path fill="none" stroke="black" d="M293.19,-503.7C295.62,-495.87 299.31,-486.44 303.28,-477.73"/>
<polygon fill="black" stroke="black" points="306.31,-479.51 307.54,-468.98 300.02,-476.44 306.31,-479.51"/>
</g>
<!-- r2_node_21 -->
<g id="node11" class="node">
<title>r2_node_21</title>
<ellipse fill="none" stroke="black" cx="596.93" cy="-18" rx="54.93" ry="18"/>
<text text-anchor="middle" x="596.93" y="-12.95" font-family="Times,serif" font-size="14.00">r2_node_21</text>
</g>
<!-- r2_node_15&#45;&gt;r2_node_21 -->
<g id="edge24" class="edge">
<title>r2_node_15&#45;&gt;r2_node_21</title>
<path fill="none" stroke="black" d="M337.99,-511.76C382.11,-502.44 450.29,-486.75 507.93,-468 548.12,-454.93 556.76,-447.85 595.93,-432 635.87,-415.84 661.53,-431.51 685.93,-396 713.12,-356.44 709.94,-330.13 686.93,-288 672.76,-262.03 645.11,-277.97 630.93,-252 591.75,-180.24 705.83,-144.97 668.93,-72 662.07,-58.42 649.91,-47.47 637.51,-39.13"/>
<polygon fill="black" stroke="black" points="639.69,-36.37 629.35,-34.06 636,-42.31 639.69,-36.37"/>
</g>
<!-- r2_node_15&#45;&gt;r2_node_3 -->
<g id="edge21" class="edge">
<title>r2_node_15&#45;&gt;r2_node_3</title>
<path fill="none" stroke="black" d="M319.59,-506.15C343.15,-495.03 377.26,-479.78 404.59,-468.14"/>
<polygon fill="black" stroke="black" points="405.83,-471.42 413.68,-464.3 403.11,-464.97 405.83,-471.42"/>
</g>
<!-- r2_node_27 -->
<g id="node21" class="node">
<title>r2_node_27</title>
<ellipse fill="none" stroke="black" cx="414.93" cy="-594" rx="54.93" ry="18"/>
<text text-anchor="middle" x="414.93" y="-588.95" font-family="Times,serif" font-size="14.00">r2_node_27</text>
</g>
<!-- r2_node_15&#45;&gt;r2_node_27 -->
<g id="edge23" class="edge">
<title>r2_node_15&#45;&gt;r2_node_27</title>
<path fill="none" stroke="black" d="M322.36,-537.16C340.81,-546.93 364.21,-560.1 382.93,-571.2"/>
<polygon fill="black" stroke="black" points="381.11,-574.19 391.49,-576.34 384.72,-568.19 381.11,-574.19"/>
</g>
<!-- r2_node_5&#45;&gt;r2_node_30 -->
<g id="edge10" class="edge">
<title>r2_node_5&#45;&gt;r2_node_30</title>
<path fill="none" stroke="black" d="M321.07,-360.76C314.17,-352.7 306.52,-342.74 300.12,-333.6"/>
<polygon fill="black" stroke="black" points="303.08,-331.73 294.6,-325.38 297.27,-335.63 303.08,-331.73"/>
</g>
<!-- r2_node_5&#45;&gt;r2_node_26 -->
<g id="edge9" class="edge">
<title>r2_node_5&#45;&gt;r2_node_26</title>
<path fill="none" stroke="black" d="M340.4,-396.28C339.25,-403.77 337.18,-412.75 334.72,-421.15"/>
<polygon fill="black" stroke="black" points="331.4,-420.02 331.64,-430.62 338.06,-422.19 331.4,-420.02"/>
</g>
<!-- r2_node_29&#45;&gt;r2_node_4 -->
<g id="edge11" class="edge">
<title>r2_node_29&#45;&gt;r2_node_4</title>
<path fill="none" stroke="black" d="M127.64,-1044.45C125.22,-1052.18 121.59,-1061.46 117.68,-1070.06"/>
<polygon fill="black" stroke="black" points="114.54,-1068.53 113.31,-1079.05 120.83,-1071.59 114.54,-1068.53"/>
</g>
<!-- r2_node_29&#45;&gt;r2_node_18 -->
<g id="edge12" class="edge">
<title>r2_node_29&#45;&gt;r2_node_18</title>
<path fill="none" stroke="black" d="M150.51,-1009.07C186.71,-986.41 257.48,-946.45 284.93,-936 349.82,-911.31 392.06,-952.97 436.93,-900 473.21,-857.17 440.44,-702.48 453.93,-648 458.14,-631 463.71,-628.36 469.93,-612 493.84,-549.21 505.59,-534.38 515.93,-468 518.4,-452.19 518.65,-447.77 515.93,-432 505.15,-369.44 476.43,-300.4 462.18,-262.95"/>
<polygon fill="black" stroke="black" points="465.55,-261.96 458.79,-253.8 458.98,-264.39 465.55,-261.96"/>
</g>
<!-- r2_node_11 -->
<g id="node14" class="node">
<title>r2_node_11</title>
<ellipse fill="none" stroke="black" cx="155.93" cy="-954" rx="54.93" ry="18"/>
<text text-anchor="middle" x="155.93" y="-948.95" font-family="Times,serif" font-size="14.00">r2_node_11</text>
</g>
<!-- r2_node_29&#45;&gt;r2_node_11 -->
<g id="edge13" class="edge">
<title>r2_node_29&#45;&gt;r2_node_11</title>
<path fill="none" stroke="black" d="M129.69,-1007.7C131.88,-999.95 135.25,-990.64 138.92,-982.02"/>
<polygon fill="black" stroke="black" points="142.07,-983.55 143.05,-973 135.71,-980.63 142.07,-983.55"/>
</g>
<!-- r2_node_18&#45;&gt;r2_node_30 -->
<g id="edge27" class="edge">
<title>r2_node_18&#45;&gt;r2_node_30</title>
<path fill="none" stroke="black" d="M425.56,-249.57C400.12,-260.77 363.05,-276.25 333.59,-288.01"/>
<polygon fill="black" stroke="black" points="332.53,-284.67 324.52,-291.6 335.11,-291.18 332.53,-284.67"/>
</g>
<!-- r2_node_18&#45;&gt;r2_node_29 -->
<g id="edge26" class="edge">
<title>r2_node_18&#45;&gt;r2_node_29</title>
<path fill="none" stroke="black" d="M468.24,-251.86C487.94,-285.26 521.97,-362.61 533.93,-432 536.65,-447.77 536.4,-452.19 533.93,-468 523.59,-534.38 511.84,-549.21 487.93,-612 481.71,-628.36 476.14,-631 471.93,-648 458.44,-702.48 491.21,-857.17 454.93,-900 410.06,-952.97 367.82,-911.31 302.93,-936 277.01,-945.86 212.46,-982.05 169.56,-1005.13"/>
<polygon fill="black" stroke="black" points="167.92,-1002.03 160.76,-1009.84 171.23,-1008.21 167.92,-1002.03"/>
</g>
<!-- r2_node_6 -->
<g id="node17" class="node">
<title>r2_node_6</title>
<ellipse fill="none" stroke="black" cx="527.93" cy="-162" rx="50.33" ry="18"/>
<text text-anchor="middle" x="527.93" y="-156.95" font-family="Times,serif" font-size="14.00">r2_node_6</text>
</g>
<!-- r2_node_18&#45;&gt;r2_node_6 -->
<g id="edge25" class="edge">
<title>r2_node_18&#45;&gt;r2_node_6</title>
<path fill="none" stroke="black" d="M466.73,-216.05C475.16,-207.05 486.67,-195.85 497.49,-186.07"/>
<polygon fill="black" stroke="black" points="499.64,-188.84 504.81,-179.59 495,-183.59 499.64,-188.84"/>
</g>
<!-- r2_node_11&#45;&gt;r2_node_29 -->
<g id="edge56" class="edge">
<title>r2_node_11&#45;&gt;r2_node_29</title>
<path fill="none" stroke="black" d="M155.18,-972.28C153.02,-979.94 149.69,-989.16 146.06,-997.72"/>
<polygon fill="black" stroke="black" points="142.94,-996.13 141.98,-1006.68 149.31,-999.03 142.94,-996.13"/>
</g>
<!-- r2_node_12 -->
<g id="node24" class="node">
<title>r2_node_12</title>
<ellipse fill="none" stroke="black" cx="268.93" cy="-90" rx="54.93" ry="18"/>
<text text-anchor="middle" x="268.93" y="-84.95" font-family="Times,serif" font-size="14.00">r2_node_12</text>
</g>
<!-- r2_node_11&#45;&gt;r2_node_12 -->
<g id="edge57" class="edge">
<title>r2_node_11&#45;&gt;r2_node_12</title>
<path fill="none" stroke="black" d="M147.21,-935.84C132.46,-893.44 106.63,-780.21 97.93,-684 77.56,-458.45 202.27,-199.38 250.67,-117.33"/>
<polygon fill="black" stroke="black" points="253.6,-119.24 255.79,-108.87 247.61,-115.61 253.6,-119.24"/>
</g>
<!-- r2_node_16 -->
<g id="node28" class="node">
<title>r2_node_16</title>
<ellipse fill="none" stroke="black" cx="381.93" cy="-882" rx="54.93" ry="18"/>
<text text-anchor="middle" x="381.93" y="-876.95" font-family="Times,serif" font-size="14.00">r2_node_16</text>
</g>
<!-- r2_node_11&#45;&gt;r2_node_16 -->
<g id="edge59" class="edge">
<title>r2_node_11&#45;&gt;r2_node_16</title>
<path fill="none" stroke="black" d="M192.27,-940.08C229.5,-928 287.55,-910 329.68,-897.45"/>
<polygon fill="black" stroke="black" points="330.53,-900.85 339.12,-894.66 328.54,-894.14 330.53,-900.85"/>
</g>
<!-- r2_node_20 -->
<g id="node30" class="node">
<title>r2_node_20</title>
<ellipse fill="none" stroke="black" cx="253.93" cy="-882" rx="54.93" ry="18"/>
<text text-anchor="middle" x="253.93" y="-876.95" font-family="Times,serif" font-size="14.00">r2_node_20</text>
</g>
<!-- r2_node_11&#45;&gt;r2_node_20 -->
<g id="edge58" class="edge">
<title>r2_node_11&#45;&gt;r2_node_20</title>
<path fill="none" stroke="black" d="M172.86,-936.76C185.35,-927.07 202.6,-914.64 218.04,-904.17"/>
<polygon fill="black" stroke="black" points="219.72,-907.26 226.09,-898.79 215.83,-901.43 219.72,-907.26"/>
</g>
<!-- r2_node_17&#45;&gt;r2_node_21 -->
<g id="edge16" class="edge">
<title>r2_node_17&#45;&gt;r2_node_21</title>
<path fill="none" stroke="black" d="M602.96,-71.7C602.12,-64.41 601.13,-55.73 600.2,-47.54"/>
<polygon fill="black" stroke="black" points="603.67,-47.15 599.06,-37.61 596.72,-47.94 603.67,-47.15"/>
</g>
<!-- r2_node_17&#45;&gt;r2_node_6 -->
<g id="edge14" class="edge">
<title>r2_node_17&#45;&gt;r2_node_6</title>
<path fill="none" stroke="black" d="M592.49,-107.63C583.34,-116.86 570.73,-128.48 559.02,-138.51"/>
<polygon fill="black" stroke="black" points="556.89,-135.73 551.48,-144.84 561.39,-141.09 556.89,-135.73"/>
</g>
<!-- r2_node_28 -->
<g id="node18" class="node">
<title>r2_node_28</title>
<ellipse fill="none" stroke="black" cx="461.93" cy="-18" rx="54.93" ry="18"/>
<text text-anchor="middle" x="461.93" y="-12.95" font-family="Times,serif" font-size="14.00">r2_node_28</text>
</g>
<!-- r2_node_17&#45;&gt;r2_node_28 -->
<g id="edge15" class="edge">
<title>r2_node_17&#45;&gt;r2_node_28</title>
<path fill="none" stroke="black" d="M571.54,-75.34C549.38,-65.17 520.43,-51.12 497.79,-39.59"/>
<polygon fill="black" stroke="black" points="499.4,-36.49 488.91,-35.02 496.2,-42.71 499.4,-36.49"/>
</g>
<!-- r2_node_6&#45;&gt;r2_node_18 -->
<g id="edge53" class="edge">
<title>r2_node_6&#45;&gt;r2_node_18</title>
<path fill="none" stroke="black" d="M516.28,-179.8C507.92,-188.74 496.49,-199.87 485.7,-209.64"/>
<polygon fill="black" stroke="black" points="483.56,-206.86 478.39,-216.11 488.2,-212.1 483.56,-206.86"/>
</g>
<!-- r2_node_6&#45;&gt;r2_node_17 -->
<g id="edge52" class="edge">
<title>r2_node_6&#45;&gt;r2_node_17</title>
<path fill="none" stroke="black" d="M540.34,-144.41C549.34,-135.33 561.7,-123.93 573.26,-114"/>
<polygon fill="black" stroke="black" points="575.31,-116.84 580.71,-107.72 570.8,-111.49 575.31,-116.84"/>
</g>
<!-- r2_node_6&#45;&gt;r2_node_28 -->
<g id="edge50" class="edge">
<title>r2_node_6&#45;&gt;r2_node_28</title>
<path fill="none" stroke="black" d="M515.55,-144.15C501.82,-120.16 480.91,-75.84 469.41,-46.9"/>
<polygon fill="black" stroke="black" points="472.73,-45.78 465.9,-37.68 466.19,-48.27 472.73,-45.78"/>
</g>
<!-- r2_node_6&#45;&gt;r2_node_12 -->
<g id="edge51" class="edge">
<title>r2_node_6&#45;&gt;r2_node_12</title>
<path fill="none" stroke="black" d="M486.79,-151.19C441.17,-139.46 367.8,-119.71 318.93,-106.04"/>
<polygon fill="black" stroke="black" points="320.01,-102.71 309.44,-103.38 318.12,-109.45 320.01,-102.71"/>
</g>
<!-- r2_node_28&#45;&gt;r2_node_17 -->
<g id="edge61" class="edge">
<title>r2_node_28&#45;&gt;r2_node_17</title>
<path fill="none" stroke="black" d="M495.34,-32.67C517.48,-42.83 546.4,-56.86 569.03,-68.38"/>
<polygon fill="black" stroke="black" points="567.41,-71.49 577.91,-72.95 570.61,-65.26 567.41,-71.49"/>
</g>
<!-- r2_node_28&#45;&gt;r2_node_6 -->
<g id="edge60" class="edge">
<title>r2_node_28&#45;&gt;r2_node_6</title>
<path fill="none" stroke="black" d="M474.22,-35.67C487.91,-59.58 508.84,-103.91 520.39,-132.93"/>
<polygon fill="black" stroke="black" points="517.08,-134.08 523.92,-142.17 523.62,-131.58 517.08,-134.08"/>
</g>
<!-- r2_node_3&#45;&gt;r2_node_8 -->
<g id="edge32" class="edge">
<title>r2_node_3&#45;&gt;r2_node_8</title>
<path fill="none" stroke="black" d="M478.6,-435.17C506.43,-423.61 548.3,-407.11 580.52,-394.98"/>
<polygon fill="black" stroke="black" points="581.49,-398.36 589.63,-391.58 579.04,-391.8 581.49,-398.36"/>
</g>
<!-- r2_node_3&#45;&gt;r2_node_15 -->
<g id="edge34" class="edge">
<title>r2_node_3&#45;&gt;r2_node_15</title>
<path fill="none" stroke="black" d="M421.88,-465.56C398.62,-476.56 364.77,-491.7 337.4,-503.38"/>
<polygon fill="black" stroke="black" points="336.12,-500.12 328.27,-507.24 338.84,-506.57 336.12,-500.12"/>
</g>
<!-- r2_node_3&#45;&gt;r2_node_14 -->
<g id="edge33" class="edge">
<title>r2_node_3&#45;&gt;r2_node_14</title>
<path fill="none" stroke="black" d="M442.01,-431.72C428.88,-397.89 400.78,-320.28 390.93,-252 388.65,-236.16 384.52,-230.66 390.93,-216 400.4,-194.39 420.47,-201.61 429.93,-180 436.35,-165.34 435.62,-158.96 429.93,-144 413.82,-101.59 375.99,-64.36 348.98,-41.8"/>
<polygon fill="black" stroke="black" points="351.42,-39.28 341.46,-35.68 347.01,-44.71 351.42,-39.28"/>
</g>
<!-- r2_node_23&#45;&gt;r2_node_8 -->
<g id="edge43" class="edge">
<title>r2_node_23&#45;&gt;r2_node_8</title>
<path fill="none" stroke="black" d="M629.81,-324.1C630.98,-331.37 631.73,-340.04 631.94,-348.24"/>
<polygon fill="black" stroke="black" points="628.44,-348.16 631.87,-358.18 635.44,-348.21 628.44,-348.16"/>
</g>
<!-- r2_node_27&#45;&gt;r2_node_22 -->
<g id="edge31" class="edge">
<title>r2_node_27&#45;&gt;r2_node_22</title>
<path fill="none" stroke="black" d="M410.64,-575.85C406.86,-556.54 404.02,-525.09 418.93,-504 443.58,-469.17 484.08,-503.38 507.93,-468 516.88,-454.73 512.48,-447.34 507.93,-432 480.82,-340.52 430.29,-338.92 390.93,-252 382.13,-232.54 375.72,-209.27 371.6,-191.4"/>
<polygon fill="black" stroke="black" points="375.04,-190.77 369.49,-181.75 368.21,-192.26 375.04,-190.77"/>
</g>
<!-- r2_node_27&#45;&gt;r2_node_15 -->
<g id="edge30" class="edge">
<title>r2_node_27&#45;&gt;r2_node_15</title>
<path fill="none" stroke="black" d="M384.18,-578.67C365.7,-568.88 342.36,-555.73 323.72,-544.67"/>
<polygon fill="black" stroke="black" points="325.58,-541.71 315.21,-539.56 321.98,-547.71 325.58,-541.71"/>
</g>
<!-- r2_node_9 -->
<g id="node22" class="node">
<title>r2_node_9</title>
<ellipse fill="none" stroke="black" cx="689.93" cy="-234" rx="50.33" ry="18"/>
<text text-anchor="middle" x="689.93" y="-228.95" font-family="Times,serif" font-size="14.00">r2_node_9</text>
</g>
<!-- r2_node_27&#45;&gt;r2_node_9 -->
<g id="edge28" class="edge">
<title>r2_node_27&#45;&gt;r2_node_9</title>
<path fill="none" stroke="black" d="M415.69,-575.58C417.53,-555.39 423.68,-522.55 443.93,-504 496.42,-455.95 534,-494.75 599.93,-468 657.21,-444.76 688.2,-449.64 718.93,-396 742.8,-354.35 732.16,-334.42 719.93,-288 717.51,-278.8 713.08,-269.52 708.36,-261.35"/>
<polygon fill="black" stroke="black" points="711.4,-259.61 703.15,-252.97 705.46,-263.31 711.4,-259.61"/>
</g>
<!-- r2_node_25 -->
<g id="node23" class="node">
<title>r2_node_25</title>
<ellipse fill="none" stroke="black" cx="298.93" cy="-666" rx="54.93" ry="18"/>
<text text-anchor="middle" x="298.93" y="-660.95" font-family="Times,serif" font-size="14.00">r2_node_25</text>
</g>
<!-- r2_node_27&#45;&gt;r2_node_25 -->
<g id="edge29" class="edge">
<title>r2_node_27&#45;&gt;r2_node_25</title>
<path fill="none" stroke="black" d="M394.27,-610.95C378.72,-621.03 357.12,-634.15 338.35,-644.94"/>
<polygon fill="black" stroke="black" points="336.85,-641.77 329.88,-649.75 340.3,-647.85 336.85,-641.77"/>
</g>
<!-- r2_node_25&#45;&gt;r2_node_27 -->
<g id="edge49" class="edge">
<title>r2_node_25&#45;&gt;r2_node_27</title>
<path fill="none" stroke="black" d="M319.77,-648.94C335.22,-638.93 356.58,-625.96 375.21,-615.24"/>
<polygon fill="black" stroke="black" points="376.93,-618.29 383.9,-610.3 373.48,-612.2 376.93,-618.29"/>
</g>
<!-- r2_node_7 -->
<g id="node25" class="node">
<title>r2_node_7</title>
<ellipse fill="none" stroke="black" cx="216.93" cy="-738" rx="50.33" ry="18"/>
<text text-anchor="middle" x="216.93" y="-732.95" font-family="Times,serif" font-size="14.00">r2_node_7</text>
</g>
<!-- r2_node_25&#45;&gt;r2_node_7 -->
<g id="edge48" class="edge">
<title>r2_node_25&#45;&gt;r2_node_7</title>
<path fill="none" stroke="black" d="M285.04,-683.88C275.13,-693.18 261.63,-704.83 249.2,-714.86"/>
<polygon fill="black" stroke="black" points="247.27,-711.92 241.59,-720.87 251.61,-717.42 247.27,-711.92"/>
</g>
<!-- r2_node_12&#45;&gt;r2_node_1 -->
<g id="edge38" class="edge">
<title>r2_node_12&#45;&gt;r2_node_1</title>
<path fill="none" stroke="black" d="M245.82,-73.29C231.67,-63.68 213.37,-51.24 197.86,-40.69"/>
<polygon fill="black" stroke="black" points="200.11,-37.99 189.87,-35.27 196.17,-43.78 200.11,-37.99"/>
</g>
<!-- r2_node_12&#45;&gt;r2_node_11 -->
<g id="edge37" class="edge">
<title>r2_node_12&#45;&gt;r2_node_11</title>
<path fill="none" stroke="black" d="M262.7,-108.05C230.86,-177.83 94.71,-449.1 115.93,-684 123.93,-772.48 146.42,-875.35 154.42,-924.29"/>
<polygon fill="black" stroke="black" points="150.94,-924.67 155.9,-934.03 157.86,-923.62 150.94,-924.67"/>
</g>
<!-- r2_node_12&#45;&gt;r2_node_14 -->
<g id="edge36" class="edge">
<title>r2_node_12&#45;&gt;r2_node_14</title>
<path fill="none" stroke="black" d="M281.04,-72.05C286.81,-63.97 293.85,-54.12 300.28,-45.11"/>
<polygon fill="black" stroke="black" points="303.1,-47.19 306.06,-37.02 297.4,-43.12 303.1,-47.19"/>
</g>
<!-- r2_node_12&#45;&gt;r2_node_6 -->
<g id="edge35" class="edge">
<title>r2_node_12&#45;&gt;r2_node_6</title>
<path fill="none" stroke="black" d="M312.17,-101.35C358.42,-113.26 431.41,-132.93 479.54,-146.41"/>
<polygon fill="black" stroke="black" points="478.58,-149.77 489.15,-149.11 480.47,-143.03 478.58,-149.77"/>
</g>
<!-- r2_node_7&#45;&gt;r2_node_1 -->
<g id="edge39" class="edge">
<title>r2_node_7&#45;&gt;r2_node_1</title>
<path fill="none" stroke="black" d="M215.37,-720.01C208.69,-646.83 182.31,-351.31 168.93,-108 167.83,-87.9 167.07,-65.23 166.59,-47.8"/>
<polygon fill="black" stroke="black" points="170.1,-47.82 166.34,-37.92 163.1,-48 170.1,-47.82"/>
</g>
<!-- r2_node_7&#45;&gt;r2_node_25 -->
<g id="edge42" class="edge">
<title>r2_node_7&#45;&gt;r2_node_25</title>
<path fill="none" stroke="black" d="M230.53,-720.41C240.34,-711.17 253.8,-699.54 266.24,-689.49"/>
<polygon fill="black" stroke="black" points="268.2,-692.4 273.86,-683.45 263.85,-686.92 268.2,-692.4"/>
</g>
<!-- r2_node_19 -->
<g id="node26" class="node">
<title>r2_node_19</title>
<ellipse fill="none" stroke="black" cx="243.93" cy="-810" rx="54.93" ry="18"/>
<text text-anchor="middle" x="243.93" y="-804.95" font-family="Times,serif" font-size="14.00">r2_node_19</text>
</g>
<!-- r2_node_7&#45;&gt;r2_node_19 -->
<g id="edge40" class="edge">
<title>r2_node_7&#45;&gt;r2_node_19</title>
<path fill="none" stroke="black" d="M229.19,-755.62C232.93,-763.19 236.73,-772.35 239.74,-780.93"/>
<polygon fill="black" stroke="black" points="236.34,-781.79 242.72,-790.25 243.01,-779.66 236.34,-781.79"/>
</g>
<!-- r2_node_2 -->
<g id="node27" class="node">
<title>r2_node_2</title>
<ellipse fill="none" stroke="black" cx="289.93" cy="-594" rx="50.33" ry="18"/>
<text text-anchor="middle" x="289.93" y="-588.95" font-family="Times,serif" font-size="14.00">r2_node_2</text>
</g>
<!-- r2_node_7&#45;&gt;r2_node_2 -->
<g id="edge41" class="edge">
<title>r2_node_7&#45;&gt;r2_node_2</title>
<path fill="none" stroke="black" d="M217.42,-719.56C218.61,-700.82 222.5,-670.67 234.93,-648 241.07,-636.81 250.37,-626.54 259.58,-618.09"/>
<polygon fill="black" stroke="black" points="261.86,-620.74 267.14,-611.55 257.28,-615.45 261.86,-620.74"/>
</g>
<!-- r2_node_19&#45;&gt;r2_node_7 -->
<g id="edge64" class="edge">
<title>r2_node_19&#45;&gt;r2_node_7</title>
<path fill="none" stroke="black" d="M231.52,-792.05C227.85,-784.6 224.14,-775.64 221.18,-767.22"/>
<polygon fill="black" stroke="black" points="224.52,-766.18 218.15,-757.72 217.86,-768.31 224.52,-766.18"/>
</g>
<!-- r2_node_19&#45;&gt;r2_node_20 -->
<g id="edge65" class="edge">
<title>r2_node_19&#45;&gt;r2_node_20</title>
<path fill="none" stroke="black" d="M252.27,-828.1C254.07,-835.37 255.56,-844.04 256.48,-852.24"/>
<polygon fill="black" stroke="black" points="252.99,-852.49 257.26,-862.19 259.97,-851.94 252.99,-852.49"/>
</g>
<!-- r2_node_16&#45;&gt;r2_node_11 -->
<g id="edge46" class="edge">
<title>r2_node_16&#45;&gt;r2_node_11</title>
<path fill="none" stroke="black" d="M345.71,-895.88C308.51,-907.95 250.43,-925.96 208.26,-938.52"/>
<polygon fill="black" stroke="black" points="207.4,-935.13 198.81,-941.32 209.39,-941.84 207.4,-935.13"/>
</g>
<!-- r2_node_13 -->
<g id="node29" class="node">
<title>r2_node_13</title>
<ellipse fill="none" stroke="black" cx="360.93" cy="-738" rx="54.93" ry="18"/>
<text text-anchor="middle" x="360.93" y="-732.95" font-family="Times,serif" font-size="14.00">r2_node_13</text>
</g>
<!-- r2_node_16&#45;&gt;r2_node_13 -->
<g id="edge47" class="edge">
<title>r2_node_16&#45;&gt;r2_node_13</title>
<path fill="none" stroke="black" d="M374.82,-863.87C368.76,-839.99 361.99,-796.38 359.62,-767.54"/>
<polygon fill="black" stroke="black" points="363.12,-767.45 358.98,-757.7 356.14,-767.9 363.12,-767.45"/>
</g>
<!-- r2_node_13&#45;&gt;r2_node_21 -->
<g id="edge55" class="edge">
<title>r2_node_13&#45;&gt;r2_node_21</title>
<path fill="none" stroke="black" d="M366.25,-719.61C372.98,-700.06 386.26,-668.4 406.93,-648 432.4,-622.87 448.82,-631.32 478.93,-612 605.66,-530.68 673.58,-531.17 739.93,-396 804.23,-265.02 783.43,-181.45 686.93,-72 674.22,-57.58 656.61,-46.02 640.33,-37.41"/>
<polygon fill="black" stroke="black" points="642.28,-34.48 631.77,-33.12 639.14,-40.74 642.28,-34.48"/>
</g>
<!-- r2_node_13&#45;&gt;r2_node_16 -->
<g id="edge54" class="edge">
<title>r2_node_13&#45;&gt;r2_node_16</title>
<path fill="none" stroke="black" d="M368.05,-756.11C374.09,-779.92 380.84,-823.37 383.23,-852.22"/>
<polygon fill="black" stroke="black" points="379.73,-852.33 383.87,-862.08 386.71,-851.87 379.73,-852.33"/>
</g>
<!-- r2_node_20&#45;&gt;r2_node_11 -->
<g id="edge63" class="edge">
<title>r2_node_20&#45;&gt;r2_node_11</title>
<path fill="none" stroke="black" d="M236.72,-899.46C224.26,-909.12 207.17,-921.43 191.86,-931.81"/>
<polygon fill="black" stroke="black" points="190.25,-928.68 183.87,-937.14 194.13,-934.5 190.25,-928.68"/>
</g>
<!-- r2_node_20&#45;&gt;r2_node_19 -->
<g id="edge62" class="edge">
<title>r2_node_20&#45;&gt;r2_node_19</title>
<path fill="none" stroke="black" d="M245.64,-864.05C243.8,-856.68 242.28,-847.84 241.36,-839.51"/>
<polygon fill="black" stroke="black" points="244.87,-839.48 240.61,-829.78 237.89,-840.03 244.87,-839.48"/>
</g>
</g>
</svg>
