<?xml version="1.0" encoding="UTF-8" standalone="no"?>
<!DOCTYPE svg PUBLIC "-//W3C//DTD SVG 1.1//EN"
 "http://www.w3.org/Graphics/SVG/1.1/DTD/svg11.dtd">
<!-- Generated by graphviz version 12.2.1 (20241206.2353)
 -->
<!-- Pages: 1 -->
<svg width="458pt" height="332pt"
 viewBox="0.00 0.00 457.66 332.00" xmlns="http://www.w3.org/2000/svg" xmlns:xlink="http://www.w3.org/1999/xlink">
<g id="graph0" class="graph" transform="scale(1 1) rotate(0) translate(4 328)">
<polygon fill="white" stroke="none" points="-4,4 -4,-328 453.66,-328 453.66,4 -4,4"/>
<!-- r1_node_4 -->
<g id="node1" class="node">
<title>r1_node_4</title>
<ellipse fill="none" stroke="black" cx="50.33" cy="-306" rx="50.33" ry="18"/>
<text text-anchor="middle" x="50.33" y="-300.95" font-family="Times,serif" font-size="14.00">r1_node_4</text>
</g>
<!-- r1_node_3 -->
<g id="node2" class="node">
<title>r1_node_3</title>
<ellipse fill="none" stroke="black" cx="94.33" cy="-234" rx="50.33" ry="18"/>
<text text-anchor="middle" x="94.33" y="-228.95" font-family="Times,serif" font-size="14.00">r1_node_3</text>
</g>
<!-- r1_node_4&#45;&gt;r1_node_3 -->
<g id="edge1" class="edge">
<title>r1_node_4&#45;&gt;r1_node_3</title>
<path fill="none" stroke="black" d="M55.29,-287.7C59.6,-279.49 65.66,-269.52 71.79,-260.48"/>
<polygon fill="black" stroke="black" points="74.6,-262.57 77.52,-252.38 68.88,-258.53 74.6,-262.57"/>
</g>
<!-- r1_node_8 -->
<g id="node3" class="node">
<title>r1_node_8</title>
<ellipse fill="none" stroke="black" cx="399.33" cy="-162" rx="50.33" ry="18"/>
<text text-anchor="middle" x="399.33" y="-156.95" font-family="Times,serif" font-size="14.00">r1_node_8</text>
</g>
<!-- r1_node_4&#45;&gt;r1_node_8 -->
<g id="edge2" class="edge">
<title>r1_node_4&#45;&gt;r1_node_8</title>
<path fill="none" stroke="black" d="M99.85,-302.27C151.73,-297.65 234.05,-285.25 297.33,-252 327.45,-236.17 354.64,-207.69 373.62,-187.21"/>
<polygon fill="black" stroke="black" points="375.98,-189.8 380.21,-180.09 370.85,-185.05 375.98,-189.8"/>
</g>
<!-- r1_node_9 -->
<g id="node4" class="node">
<title>r1_node_9</title>
<ellipse fill="none" stroke="black" cx="69.33" cy="-18" rx="50.33" ry="18"/>
<text text-anchor="middle" x="69.33" y="-12.95" font-family="Times,serif" font-size="14.00">r1_node_9</text>
</g>
<!-- r1_node_4&#45;&gt;r1_node_9 -->
<g id="edge3" class="edge">
<title>r1_node_4&#45;&gt;r1_node_9</title>
<path fill="none" stroke="black" d="M36.63,-288.54C32,-278.2 28.06,-264.5 26.33,-252 16.01,-177.66 37.98,-90.11 54.55,-46.53"/>
<polygon fill="black" stroke="black" points="57.76,-47.93 58.27,-37.35 51.27,-45.3 57.76,-47.93"/>
</g>
<!-- r1_node_6 -->
<g id="node5" class="node">
<title>r1_node_6</title>
<ellipse fill="none" stroke="black" cx="247.33" cy="-234" rx="50.33" ry="18"/>
<text text-anchor="middle" x="247.33" y="-228.95" font-family="Times,serif" font-size="14.00">r1_node_6</text>
</g>
<!-- r1_node_4&#45;&gt;r1_node_6 -->
<g id="edge4" class="edge">
<title>r1_node_4&#45;&gt;r1_node_6</title>
<path fill="none" stroke="black" d="M82.41,-291.67C114.12,-279.81 162.84,-262.47 199.17,-250.1"/>
<polygon fill="black" stroke="black" points="200.23,-253.43 208.59,-246.91 197.99,-246.8 200.23,-253.43"/>
</g>
<!-- r1_node_3&#45;&gt;r1_node_4 -->
<g id="edge19" class="edge">
<title>r1_node_3&#45;&gt;r1_node_4</title>
<path fill="none" stroke="black" d="M89.46,-252.12C85.16,-260.33 79.09,-270.32 72.95,-279.4"/>
<polygon fill="black" stroke="black" points="70.12,-277.34 67.21,-287.53 75.83,-281.38 70.12,-277.34"/>
</g>
<!-- r1_node_1 -->
<g id="node8" class="node">
<title>r1_node_1</title>
<ellipse fill="none" stroke="black" cx="237.33" cy="-162" rx="50.33" ry="18"/>
<text text-anchor="middle" x="237.33" y="-156.95" font-family="Times,serif" font-size="14.00">r1_node_1</text>
</g>
<!-- r1_node_3&#45;&gt;r1_node_1 -->
<g id="edge20" class="edge">
<title>r1_node_3&#45;&gt;r1_node_1</title>
<path fill="none" stroke="black" d="M119.35,-217.98C140.2,-207.12 170.17,-192.4 194.74,-180.92"/>
<polygon fill="black" stroke="black" points="195.92,-184.23 203.52,-176.86 192.98,-177.88 195.92,-184.23"/>
</g>
<!-- r1_node_2 -->
<g id="node9" class="node">
<title>r1_node_2</title>
<ellipse fill="none" stroke="black" cx="107.33" cy="-162" rx="50.33" ry="18"/>
<text text-anchor="middle" x="107.33" y="-156.95" font-family="Times,serif" font-size="14.00">r1_node_2</text>
</g>
<!-- r1_node_3&#45;&gt;r1_node_2 -->
<g id="edge18" class="edge">
<title>r1_node_3&#45;&gt;r1_node_2</title>
<path fill="none" stroke="black" d="M91.63,-215.7C92.23,-208.32 93.63,-199.52 95.44,-191.25"/>
<polygon fill="black" stroke="black" points="98.83,-192.12 97.89,-181.57 92.05,-190.41 98.83,-192.12"/>
</g>
<!-- r1_node_8&#45;&gt;r1_node_4 -->
<g id="edge10" class="edge">
<title>r1_node_8&#45;&gt;r1_node_4</title>
<path fill="none" stroke="black" d="M392.88,-180.04C379.29,-200.49 349.16,-234.22 315.33,-252 251.24,-285.67 167.63,-297.96 111.53,-302.44"/>
<polygon fill="black" stroke="black" points="111.56,-298.93 101.85,-303.15 112.08,-305.91 111.56,-298.93"/>
</g>
<!-- r1_node_5 -->
<g id="node7" class="node">
<title>r1_node_5</title>
<ellipse fill="none" stroke="black" cx="212.33" cy="-18" rx="50.33" ry="18"/>
<text text-anchor="middle" x="212.33" y="-12.95" font-family="Times,serif" font-size="14.00">r1_node_5</text>
</g>
<!-- r1_node_8&#45;&gt;r1_node_5 -->
<g id="edge11" class="edge">
<title>r1_node_8&#45;&gt;r1_node_5</title>
<path fill="none" stroke="black" d="M392.31,-144.02C383.37,-124.27 366.16,-91.84 342.33,-72 319.89,-53.32 289.99,-40.52 264.52,-32.19"/>
<polygon fill="black" stroke="black" points="265.58,-28.85 254.99,-29.22 263.5,-35.53 265.58,-28.85"/>
</g>
<!-- r1_node_9&#45;&gt;r1_node_4 -->
<g id="edge6" class="edge">
<title>r1_node_9&#45;&gt;r1_node_4</title>
<path fill="none" stroke="black" d="M68.19,-36.23C60.03,-74.84 33.12,-171.22 44.33,-252 45.45,-260.05 47.47,-268.6 49.36,-276.43"/>
<polygon fill="black" stroke="black" points="45.94,-277.18 51.62,-286.12 52.75,-275.59 45.94,-277.18"/>
</g>
<!-- r1_node_7 -->
<g id="node6" class="node">
<title>r1_node_7</title>
<ellipse fill="none" stroke="black" cx="248.33" cy="-90" rx="50.33" ry="18"/>
<text text-anchor="middle" x="248.33" y="-84.95" font-family="Times,serif" font-size="14.00">r1_node_7</text>
</g>
<!-- r1_node_9&#45;&gt;r1_node_7 -->
<g id="edge5" class="edge">
<title>r1_node_9&#45;&gt;r1_node_7</title>
<path fill="none" stroke="black" d="M105.08,-30.94C134.85,-41.9 177.08,-58.32 208.03,-70.9"/>
<polygon fill="black" stroke="black" points="206.49,-74.05 217.07,-74.6 209.14,-67.57 206.49,-74.05"/>
</g>
<!-- r1_node_6&#45;&gt;r1_node_4 -->
<g id="edge15" class="edge">
<title>r1_node_6&#45;&gt;r1_node_4</title>
<path fill="none" stroke="black" d="M215.3,-248.31C183.57,-260.18 134.77,-277.55 98.41,-289.93"/>
<polygon fill="black" stroke="black" points="97.34,-286.59 88.99,-293.11 99.59,-293.22 97.34,-286.59"/>
</g>
<!-- r1_node_6&#45;&gt;r1_node_5 -->
<g id="edge14" class="edge">
<title>r1_node_6&#45;&gt;r1_node_5</title>
<path fill="none" stroke="black" d="M266.61,-217.34C277.12,-207.7 289.37,-194.45 296.33,-180 317.27,-136.53 331.76,-113.61 307.33,-72 297.1,-54.57 278.82,-42.46 261.01,-34.25"/>
<polygon fill="black" stroke="black" points="262.61,-31.13 252.04,-30.46 259.89,-37.58 262.61,-31.13"/>
</g>
<!-- r1_node_7&#45;&gt;r1_node_9 -->
<g id="edge9" class="edge">
<title>r1_node_7&#45;&gt;r1_node_9</title>
<path fill="none" stroke="black" d="M212.31,-76.97C182.52,-65.99 140.39,-49.61 109.52,-37.06"/>
<polygon fill="black" stroke="black" points="111.09,-33.92 100.51,-33.37 108.43,-40.4 111.09,-33.92"/>
</g>
<!-- r1_node_7&#45;&gt;r1_node_5 -->
<g id="edge7" class="edge">
<title>r1_node_7&#45;&gt;r1_node_5</title>
<path fill="none" stroke="black" d="M239.61,-72.05C235.59,-64.23 230.71,-54.75 226.2,-45.98"/>
<polygon fill="black" stroke="black" points="229.34,-44.43 221.65,-37.13 223.12,-47.63 229.34,-44.43"/>
</g>
<!-- r1_node_7&#45;&gt;r1_node_1 -->
<g id="edge8" class="edge">
<title>r1_node_7&#45;&gt;r1_node_1</title>
<path fill="none" stroke="black" d="M251.53,-108.28C251.13,-115.69 249.98,-124.54 248.38,-132.86"/>
<polygon fill="black" stroke="black" points="244.98,-132.05 246.2,-142.58 251.81,-133.59 244.98,-132.05"/>
</g>
<!-- r1_node_1&#45;&gt;r1_node_3 -->
<g id="edge16" class="edge">
<title>r1_node_1&#45;&gt;r1_node_3</title>
<path fill="none" stroke="black" d="M212.24,-178.05C191.36,-188.93 161.36,-203.66 136.79,-215.14"/>
<polygon fill="black" stroke="black" points="135.62,-211.82 128.01,-219.2 138.56,-218.18 135.62,-211.82"/>
</g>
<!-- r1_node_1&#45;&gt;r1_node_7 -->
<g id="edge17" class="edge">
<title>r1_node_1&#45;&gt;r1_node_7</title>
<path fill="none" stroke="black" d="M234.13,-143.7C234.53,-136.32 235.67,-127.52 237.25,-119.25"/>
<polygon fill="black" stroke="black" points="240.65,-120.1 239.41,-109.58 233.82,-118.58 240.65,-120.1"/>
</g>
<!-- r1_node_2&#45;&gt;r1_node_3 -->
<g id="edge13" class="edge">
<title>r1_node_2&#45;&gt;r1_node_3</title>
<path fill="none" stroke="black" d="M110.03,-180.28C109.41,-187.77 107.99,-196.75 106.12,-205.15"/>
<polygon fill="black" stroke="black" points="102.8,-204.03 103.73,-214.59 109.58,-205.76 102.8,-204.03"/>
</g>
<!-- r1_node_10 -->
<g id="node10" class="node">
<title>r1_node_10</title>
<ellipse fill="none" stroke="black" cx="121.33" cy="-90" rx="54.93" ry="18"/>
<text text-anchor="middle" x="121.33" y="-84.95" font-family="Times,serif" font-size="14.00">r1_node_10</text>
</g>
<!-- r1_node_2&#45;&gt;r1_node_10 -->
<g id="edge12" class="edge">
<title>r1_node_2&#45;&gt;r1_node_10</title>
<path fill="none" stroke="black" d="M104.87,-143.7C105.6,-136.24 107.14,-127.32 109.11,-118.97"/>
<polygon fill="black" stroke="black" points="112.42,-120.13 111.62,-109.57 105.66,-118.32 112.42,-120.13"/>
</g>
<!-- r1_node_10&#45;&gt;r1_node_2 -->
<g id="edge21" class="edge">
<title>r1_node_10&#45;&gt;r1_node_2</title>
<path fill="none" stroke="black" d="M123.79,-108.28C123.06,-115.77 121.5,-124.75 119.52,-133.15"/>
<polygon fill="black" stroke="black" points="116.2,-132.03 116.99,-142.59 122.96,-133.84 116.2,-132.03"/>
</g>
</g>
</svg>
