<?xml version="1.0" encoding="UTF-8" standalone="no"?>
<!DOCTYPE svg PUBLIC "-//W3C//DTD SVG 1.1//EN"
 "http://www.w3.org/Graphics/SVG/1.1/DTD/svg11.dtd">
<!-- Generated by graphviz version 12.2.1 (20241206.2353)
 -->
<!-- Pages: 1 -->
<svg width="474pt" height="116pt"
 viewBox="0.00 0.00 473.66 116.00" xmlns="http://www.w3.org/2000/svg" xmlns:xlink="http://www.w3.org/1999/xlink">
<g id="graph0" class="graph" transform="scale(1 1) rotate(0) translate(4 112)">
<polygon fill="white" stroke="none" points="-4,4 -4,-112 469.66,-112 469.66,4 -4,4"/>
<!-- r2_node_8 -->
<g id="node1" class="node">
<title>r2_node_8</title>
<ellipse fill="none" stroke="black" cx="50.33" cy="-18" rx="50.33" ry="18"/>
<text text-anchor="middle" x="50.33" y="-12.95" font-family="Times,serif" font-size="14.00">r2_node_8</text>
</g>
<!-- r2_node_16 -->
<g id="node2" class="node">
<title>r2_node_16</title>
<ellipse fill="none" stroke="black" cx="173.33" cy="-18" rx="54.93" ry="18"/>
<text text-anchor="middle" x="173.33" y="-12.95" font-family="Times,serif" font-size="14.00">r2_node_16</text>
</g>
<!-- r2_node_21 -->
<g id="node3" class="node">
<title>r2_node_21</title>
<ellipse fill="none" stroke="black" cx="111.33" cy="-90" rx="54.93" ry="18"/>
<text text-anchor="middle" x="111.33" y="-84.95" font-family="Times,serif" font-size="14.00">r2_node_21</text>
</g>
<!-- r2_node_21&#45;&gt;r2_node_8 -->
<g id="edge2" class="edge">
<title>r2_node_21&#45;&gt;r2_node_8</title>
<path fill="none" stroke="black" d="M96.87,-72.41C89.5,-63.95 80.39,-53.49 72.18,-44.08"/>
<polygon fill="black" stroke="black" points="74.88,-41.85 65.67,-36.61 69.61,-46.45 74.88,-41.85"/>
</g>
<!-- r2_node_21&#45;&gt;r2_node_16 -->
<g id="edge3" class="edge">
<title>r2_node_21&#45;&gt;r2_node_16</title>
<path fill="none" stroke="black" d="M126.02,-72.41C133.51,-63.95 142.78,-53.49 151.12,-44.08"/>
<polygon fill="black" stroke="black" points="153.73,-46.41 157.74,-36.6 148.49,-41.77 153.73,-46.41"/>
</g>
<!-- r2_node_3 -->
<g id="node4" class="node">
<title>r2_node_3</title>
<ellipse fill="none" stroke="black" cx="296.33" cy="-18" rx="50.33" ry="18"/>
<text text-anchor="middle" x="296.33" y="-12.95" font-family="Times,serif" font-size="14.00">r2_node_3</text>
</g>
<!-- r2_node_21&#45;&gt;r2_node_3 -->
<g id="edge1" class="edge">
<title>r2_node_21&#45;&gt;r2_node_3</title>
<path fill="none" stroke="black" d="M146.12,-75.83C176.12,-64.48 219.6,-48.03 252.07,-35.75"/>
<polygon fill="black" stroke="black" points="253.09,-39.1 261.21,-32.29 250.62,-32.55 253.09,-39.1"/>
</g>
<!-- r2_node_7 -->
<g id="node5" class="node">
<title>r2_node_7</title>
<ellipse fill="none" stroke="black" cx="415.33" cy="-18" rx="50.33" ry="18"/>
<text text-anchor="middle" x="415.33" y="-12.95" font-family="Times,serif" font-size="14.00">r2_node_7</text>
</g>
<!-- r2_node_21&#45;&gt;r2_node_7 -->
<g id="edge4" class="edge">
<title>r2_node_21&#45;&gt;r2_node_7</title>
<path fill="none" stroke="black" d="M157.4,-79.88C206.6,-69.94 286.78,-53.14 355.33,-36 358.9,-35.11 362.58,-34.15 366.28,-33.17"/>
<polygon fill="black" stroke="black" points="367.15,-36.56 375.87,-30.55 365.31,-29.8 367.15,-36.56"/>
</g>
</g>
</svg>
