<?xml version="1.0" encoding="UTF-8" standalone="no"?>
<!DOCTYPE svg PUBLIC "-//W3C//DTD SVG 1.1//EN"
 "http://www.w3.org/Graphics/SVG/1.1/DTD/svg11.dtd">
<!-- Generated by graphviz version 12.2.1 (20241206.2353)
 -->
<!-- Pages: 1 -->
<svg width="825pt" height="548pt"
 viewBox="0.00 0.00 825.26 548.00" xmlns="http://www.w3.org/2000/svg" xmlns:xlink="http://www.w3.org/1999/xlink">
<g id="graph0" class="graph" transform="scale(1 1) rotate(0) translate(4 544)">
<polygon fill="white" stroke="none" points="-4,4 -4,-544 821.26,-544 821.26,4 -4,4"/>
<!-- r1_node_16 -->
<g id="node1" class="node">
<title>r1_node_16</title>
<ellipse fill="none" stroke="black" cx="180.33" cy="-522" rx="54.93" ry="18"/>
<text text-anchor="middle" x="180.33" y="-516.95" font-family="Times,serif" font-size="14.00">r1_node_16</text>
</g>
<!-- r1_node_3 -->
<g id="node2" class="node">
<title>r1_node_3</title>
<ellipse fill="none" stroke="black" cx="180.33" cy="-450" rx="50.33" ry="18"/>
<text text-anchor="middle" x="180.33" y="-444.95" font-family="Times,serif" font-size="14.00">r1_node_3</text>
</g>
<!-- r1_node_16&#45;&gt;r1_node_3 -->
<g id="edge1" class="edge">
<title>r1_node_16&#45;&gt;r1_node_3</title>
<path fill="none" stroke="black" d="M174.41,-503.7C173.66,-496.41 173.42,-487.73 173.68,-479.54"/>
<polygon fill="black" stroke="black" points="177.17,-479.82 174.33,-469.61 170.18,-479.36 177.17,-479.82"/>
</g>
<!-- r1_node_3&#45;&gt;r1_node_16 -->
<g id="edge21" class="edge">
<title>r1_node_3&#45;&gt;r1_node_16</title>
<path fill="none" stroke="black" d="M186.22,-468.1C186.98,-475.37 187.24,-484.04 186.98,-492.24"/>
<polygon fill="black" stroke="black" points="183.49,-491.98 186.34,-502.19 190.48,-492.43 183.49,-491.98"/>
</g>
<!-- r1_node_4 -->
<g id="node20" class="node">
<title>r1_node_4</title>
<ellipse fill="none" stroke="black" cx="180.33" cy="-378" rx="50.33" ry="18"/>
<text text-anchor="middle" x="180.33" y="-372.95" font-family="Times,serif" font-size="14.00">r1_node_4</text>
</g>
<!-- r1_node_3&#45;&gt;r1_node_4 -->
<g id="edge20" class="edge">
<title>r1_node_3&#45;&gt;r1_node_4</title>
<path fill="none" stroke="black" d="M174.41,-431.7C173.66,-424.41 173.42,-415.73 173.68,-407.54"/>
<polygon fill="black" stroke="black" points="177.17,-407.82 174.33,-397.61 170.18,-407.36 177.17,-407.82"/>
</g>
<!-- r1_node_2 -->
<g id="node3" class="node">
<title>r1_node_2</title>
<ellipse fill="none" stroke="black" cx="73.33" cy="-162" rx="50.33" ry="18"/>
<text text-anchor="middle" x="73.33" y="-156.95" font-family="Times,serif" font-size="14.00">r1_node_2</text>
</g>
<!-- r1_node_1 -->
<g id="node4" class="node">
<title>r1_node_1</title>
<ellipse fill="none" stroke="black" cx="50.33" cy="-90" rx="50.33" ry="18"/>
<text text-anchor="middle" x="50.33" y="-84.95" font-family="Times,serif" font-size="14.00">r1_node_1</text>
</g>
<!-- r1_node_2&#45;&gt;r1_node_1 -->
<g id="edge2" class="edge">
<title>r1_node_2&#45;&gt;r1_node_1</title>
<path fill="none" stroke="black" d="M61.88,-144.05C58.64,-136.6 55.44,-127.64 52.96,-119.22"/>
<polygon fill="black" stroke="black" points="56.4,-118.52 50.48,-109.74 49.63,-120.3 56.4,-118.52"/>
</g>
<!-- r1_node_14 -->
<g id="node5" class="node">
<title>r1_node_14</title>
<ellipse fill="none" stroke="black" cx="134.33" cy="-234" rx="54.93" ry="18"/>
<text text-anchor="middle" x="134.33" y="-228.95" font-family="Times,serif" font-size="14.00">r1_node_14</text>
</g>
<!-- r1_node_2&#45;&gt;r1_node_14 -->
<g id="edge3" class="edge">
<title>r1_node_2&#45;&gt;r1_node_14</title>
<path fill="none" stroke="black" d="M92.88,-178.83C101.17,-187.23 110.62,-197.77 118.48,-207.31"/>
<polygon fill="black" stroke="black" points="115.53,-209.23 124.5,-214.87 121,-204.87 115.53,-209.23"/>
</g>
<!-- r1_node_20 -->
<g id="node6" class="node">
<title>r1_node_20</title>
<ellipse fill="none" stroke="black" cx="173.33" cy="-90" rx="54.93" ry="18"/>
<text text-anchor="middle" x="173.33" y="-84.95" font-family="Times,serif" font-size="14.00">r1_node_20</text>
</g>
<!-- r1_node_2&#45;&gt;r1_node_20 -->
<g id="edge4" class="edge">
<title>r1_node_2&#45;&gt;r1_node_20</title>
<path fill="none" stroke="black" d="M90.72,-144.76C103.49,-135.07 121.09,-122.64 136.82,-112.17"/>
<polygon fill="black" stroke="black" points="138.61,-115.19 145.05,-106.78 134.77,-109.33 138.61,-115.19"/>
</g>
<!-- r1_node_1&#45;&gt;r1_node_2 -->
<g id="edge18" class="edge">
<title>r1_node_1&#45;&gt;r1_node_2</title>
<path fill="none" stroke="black" d="M61.63,-107.62C64.9,-115.1 68.14,-124.14 70.65,-132.64"/>
<polygon fill="black" stroke="black" points="67.24,-133.45 73.17,-142.23 74.01,-131.67 67.24,-133.45"/>
</g>
<!-- r1_node_14&#45;&gt;r1_node_2 -->
<g id="edge31" class="edge">
<title>r1_node_14&#45;&gt;r1_node_2</title>
<path fill="none" stroke="black" d="M114.38,-216.76C106.27,-208.53 97.13,-198.32 89.45,-189.02"/>
<polygon fill="black" stroke="black" points="92.27,-186.94 83.3,-181.31 86.8,-191.31 92.27,-186.94"/>
</g>
<!-- r1_node_19 -->
<g id="node8" class="node">
<title>r1_node_19</title>
<ellipse fill="none" stroke="black" cx="230.33" cy="-162" rx="54.93" ry="18"/>
<text text-anchor="middle" x="230.33" y="-156.95" font-family="Times,serif" font-size="14.00">r1_node_19</text>
</g>
<!-- r1_node_14&#45;&gt;r1_node_19 -->
<g id="edge30" class="edge">
<title>r1_node_14&#45;&gt;r1_node_19</title>
<path fill="none" stroke="black" d="M151.24,-216.41C163.3,-206.86 179.75,-194.75 194.59,-184.48"/>
<polygon fill="black" stroke="black" points="196.5,-187.41 202.79,-178.89 192.56,-181.63 196.5,-187.41"/>
</g>
<!-- r1_node_9 -->
<g id="node14" class="node">
<title>r1_node_9</title>
<ellipse fill="none" stroke="black" cx="180.33" cy="-306" rx="50.33" ry="18"/>
<text text-anchor="middle" x="180.33" y="-300.95" font-family="Times,serif" font-size="14.00">r1_node_9</text>
</g>
<!-- r1_node_14&#45;&gt;r1_node_9 -->
<g id="edge32" class="edge">
<title>r1_node_14&#45;&gt;r1_node_9</title>
<path fill="none" stroke="black" d="M151.09,-251.62C157.08,-259.44 163.6,-268.97 169.05,-277.8"/>
<polygon fill="black" stroke="black" points="166.02,-279.55 174.11,-286.39 172.05,-276 166.02,-279.55"/>
</g>
<!-- r1_node_20&#45;&gt;r1_node_2 -->
<g id="edge7" class="edge">
<title>r1_node_20&#45;&gt;r1_node_2</title>
<path fill="none" stroke="black" d="M155.76,-107.37C142.89,-117.14 125.18,-129.63 109.41,-140.11"/>
<polygon fill="black" stroke="black" points="107.62,-137.09 101.17,-145.5 111.46,-142.95 107.62,-137.09"/>
</g>
<!-- r1_node_11 -->
<g id="node7" class="node">
<title>r1_node_11</title>
<ellipse fill="none" stroke="black" cx="260.33" cy="-18" rx="54.93" ry="18"/>
<text text-anchor="middle" x="260.33" y="-12.95" font-family="Times,serif" font-size="14.00">r1_node_11</text>
</g>
<!-- r1_node_11&#45;&gt;r1_node_19 -->
<g id="edge5" class="edge">
<title>r1_node_11&#45;&gt;r1_node_19</title>
<path fill="none" stroke="black" d="M261.29,-36.19C258.74,-60.21 249.78,-104.11 241.77,-132.91"/>
<polygon fill="black" stroke="black" points="238.44,-131.84 238.96,-142.42 245.15,-133.82 238.44,-131.84"/>
</g>
<!-- r1_node_19&#45;&gt;r1_node_14 -->
<g id="edge12" class="edge">
<title>r1_node_19&#45;&gt;r1_node_14</title>
<path fill="none" stroke="black" d="M213.68,-179.38C201.67,-188.91 185.2,-201.03 170.32,-211.34"/>
<polygon fill="black" stroke="black" points="168.38,-208.43 162.09,-216.96 172.32,-214.22 168.38,-208.43"/>
</g>
<!-- r1_node_19&#45;&gt;r1_node_11 -->
<g id="edge13" class="edge">
<title>r1_node_19&#45;&gt;r1_node_11</title>
<path fill="none" stroke="black" d="M229.39,-143.59C231.97,-119.5 240.92,-75.75 248.9,-47.03"/>
<polygon fill="black" stroke="black" points="252.22,-48.14 251.7,-37.56 245.51,-46.16 252.22,-48.14"/>
</g>
<!-- r1_node_15 -->
<g id="node10" class="node">
<title>r1_node_15</title>
<ellipse fill="none" stroke="black" cx="429.33" cy="-90" rx="54.93" ry="18"/>
<text text-anchor="middle" x="429.33" y="-84.95" font-family="Times,serif" font-size="14.00">r1_node_15</text>
</g>
<!-- r1_node_19&#45;&gt;r1_node_15 -->
<g id="edge11" class="edge">
<title>r1_node_19&#45;&gt;r1_node_15</title>
<path fill="none" stroke="black" d="M263.69,-147.34C295.3,-135.65 343.01,-118.84 379.17,-106.63"/>
<polygon fill="black" stroke="black" points="380.19,-109.98 388.56,-103.48 377.96,-103.34 380.19,-109.98"/>
</g>
<!-- r1_node_5 -->
<g id="node11" class="node">
<title>r1_node_5</title>
<ellipse fill="none" stroke="black" cx="588.33" cy="-90" rx="50.33" ry="18"/>
<text text-anchor="middle" x="588.33" y="-84.95" font-family="Times,serif" font-size="14.00">r1_node_5</text>
</g>
<!-- r1_node_19&#45;&gt;r1_node_5 -->
<g id="edge14" class="edge">
<title>r1_node_19&#45;&gt;r1_node_5</title>
<path fill="none" stroke="black" d="M275.26,-151.27C340.75,-137.97 462.08,-114.24 532.98,-100.87"/>
<polygon fill="black" stroke="black" points="533.24,-104.38 542.42,-99.1 531.95,-97.5 533.24,-104.38"/>
</g>
<!-- r1_node_12 -->
<g id="node9" class="node">
<title>r1_node_12</title>
<ellipse fill="none" stroke="black" cx="388.33" cy="-18" rx="54.93" ry="18"/>
<text text-anchor="middle" x="388.33" y="-12.95" font-family="Times,serif" font-size="14.00">r1_node_12</text>
</g>
<!-- r1_node_12&#45;&gt;r1_node_15 -->
<g id="edge6" class="edge">
<title>r1_node_12&#45;&gt;r1_node_15</title>
<path fill="none" stroke="black" d="M403.91,-35.62C409.28,-43.36 415.04,-52.76 419.84,-61.51"/>
<polygon fill="black" stroke="black" points="416.71,-63.08 424.41,-70.35 422.92,-59.86 416.71,-63.08"/>
</g>
<!-- r1_node_15&#45;&gt;r1_node_19 -->
<g id="edge36" class="edge">
<title>r1_node_15&#45;&gt;r1_node_19</title>
<path fill="none" stroke="black" d="M396.1,-104.61C364.4,-116.33 316.4,-133.25 280.15,-145.49"/>
<polygon fill="black" stroke="black" points="279.1,-142.14 270.74,-148.64 281.33,-148.78 279.1,-142.14"/>
</g>
<!-- r1_node_15&#45;&gt;r1_node_12 -->
<g id="edge35" class="edge">
<title>r1_node_15&#45;&gt;r1_node_12</title>
<path fill="none" stroke="black" d="M413.77,-72.41C408.28,-64.51 402.37,-54.85 397.52,-45.94"/>
<polygon fill="black" stroke="black" points="400.76,-44.59 393.07,-37.3 394.54,-47.8 400.76,-44.59"/>
</g>
<!-- r1_node_5&#45;&gt;r1_node_19 -->
<g id="edge9" class="edge">
<title>r1_node_5&#45;&gt;r1_node_19</title>
<path fill="none" stroke="black" d="M546.22,-100.16C482.4,-113.15 361.26,-136.85 288.9,-150.52"/>
<polygon fill="black" stroke="black" points="288.39,-147.06 279.21,-152.35 289.69,-153.93 288.39,-147.06"/>
</g>
<!-- r1_node_6 -->
<g id="node12" class="node">
<title>r1_node_6</title>
<ellipse fill="none" stroke="black" cx="511.33" cy="-18" rx="50.33" ry="18"/>
<text text-anchor="middle" x="511.33" y="-12.95" font-family="Times,serif" font-size="14.00">r1_node_6</text>
</g>
<!-- r1_node_5&#45;&gt;r1_node_6 -->
<g id="edge8" class="edge">
<title>r1_node_5&#45;&gt;r1_node_6</title>
<path fill="none" stroke="black" d="M565.94,-73.81C555.09,-64.93 542.26,-53.5 531.69,-43.39"/>
<polygon fill="black" stroke="black" points="534.45,-41.19 524.85,-36.69 529.54,-46.19 534.45,-41.19"/>
</g>
<!-- r1_node_6&#45;&gt;r1_node_5 -->
<g id="edge15" class="edge">
<title>r1_node_6&#45;&gt;r1_node_5</title>
<path fill="none" stroke="black" d="M534.11,-34.51C544.81,-43.29 557.37,-54.48 567.77,-64.43"/>
<polygon fill="black" stroke="black" points="565.25,-66.85 574.84,-71.35 570.15,-61.85 565.25,-66.85"/>
</g>
<!-- r1_node_13 -->
<g id="node13" class="node">
<title>r1_node_13</title>
<ellipse fill="none" stroke="black" cx="634.33" cy="-18" rx="54.93" ry="18"/>
<text text-anchor="middle" x="634.33" y="-12.95" font-family="Times,serif" font-size="14.00">r1_node_13</text>
</g>
<!-- r1_node_13&#45;&gt;r1_node_9 -->
<g id="edge10" class="edge">
<title>r1_node_13&#45;&gt;r1_node_9</title>
<path fill="none" stroke="black" d="M649.88,-35.5C662.06,-55.09 673.39,-87.66 656.33,-108 597.15,-178.53 539.58,-114.62 452.33,-144 386.02,-166.33 371.95,-179.39 312.33,-216 277.92,-237.13 240.65,-264.84 214.33,-283.69"/>
<polygon fill="black" stroke="black" points="212.52,-280.68 206.39,-289.33 216.57,-286.39 212.52,-280.68"/>
</g>
<!-- r1_node_9&#45;&gt;r1_node_14 -->
<g id="edge23" class="edge">
<title>r1_node_9&#45;&gt;r1_node_14</title>
<path fill="none" stroke="black" d="M163.86,-288.76C157.72,-280.78 151,-270.95 145.41,-261.89"/>
<polygon fill="black" stroke="black" points="148.53,-260.28 140.45,-253.43 142.49,-263.83 148.53,-260.28"/>
</g>
<!-- r1_node_9&#45;&gt;r1_node_13 -->
<g id="edge22" class="edge">
<title>r1_node_9&#45;&gt;r1_node_13</title>
<path fill="none" stroke="black" d="M194.49,-288.56C215.9,-269.89 256.82,-239.03 294.33,-216 353.95,-179.39 368.02,-166.33 434.33,-144 521.58,-114.62 579.15,-178.53 638.33,-108 652.36,-91.28 647.19,-66.28 641.07,-47.03"/>
<polygon fill="black" stroke="black" points="644.41,-45.98 637.89,-37.63 637.78,-48.22 644.41,-45.98"/>
</g>
<!-- r1_node_7 -->
<g id="node16" class="node">
<title>r1_node_7</title>
<ellipse fill="none" stroke="black" cx="362.33" cy="-234" rx="50.33" ry="18"/>
<text text-anchor="middle" x="362.33" y="-228.95" font-family="Times,serif" font-size="14.00">r1_node_7</text>
</g>
<!-- r1_node_9&#45;&gt;r1_node_7 -->
<g id="edge26" class="edge">
<title>r1_node_9&#45;&gt;r1_node_7</title>
<path fill="none" stroke="black" d="M210.37,-291.34C238.98,-279.72 282.28,-263.03 315.41,-250.83"/>
<polygon fill="black" stroke="black" points="316.61,-254.12 324.8,-247.4 314.2,-247.55 316.61,-254.12"/>
</g>
<!-- r1_node_8 -->
<g id="node19" class="node">
<title>r1_node_8</title>
<ellipse fill="none" stroke="black" cx="540.33" cy="-234" rx="50.33" ry="18"/>
<text text-anchor="middle" x="540.33" y="-228.95" font-family="Times,serif" font-size="14.00">r1_node_8</text>
</g>
<!-- r1_node_9&#45;&gt;r1_node_8 -->
<g id="edge25" class="edge">
<title>r1_node_9&#45;&gt;r1_node_8</title>
<path fill="none" stroke="black" d="M222.66,-295.85C287.77,-282.67 412.24,-258.46 484.59,-244.89"/>
<polygon fill="black" stroke="black" points="485.07,-248.36 494.25,-243.08 483.78,-241.48 485.07,-248.36"/>
</g>
<!-- r1_node_9&#45;&gt;r1_node_4 -->
<g id="edge24" class="edge">
<title>r1_node_9&#45;&gt;r1_node_4</title>
<path fill="none" stroke="black" d="M186.22,-324.1C186.98,-331.37 187.24,-340.04 186.98,-348.24"/>
<polygon fill="black" stroke="black" points="183.49,-347.98 186.34,-358.19 190.48,-348.43 183.49,-347.98"/>
</g>
<!-- r1_node_10 -->
<g id="node15" class="node">
<title>r1_node_10</title>
<ellipse fill="none" stroke="black" cx="507.33" cy="-162" rx="54.93" ry="18"/>
<text text-anchor="middle" x="507.33" y="-156.95" font-family="Times,serif" font-size="14.00">r1_node_10</text>
</g>
<!-- r1_node_10&#45;&gt;r1_node_7 -->
<g id="edge16" class="edge">
<title>r1_node_10&#45;&gt;r1_node_7</title>
<path fill="none" stroke="black" d="M481.32,-178.3C460.14,-189.16 429.95,-203.78 405.23,-215.17"/>
<polygon fill="black" stroke="black" points="404.03,-211.87 396.39,-219.21 406.94,-218.24 404.03,-211.87"/>
</g>
<!-- r1_node_7&#45;&gt;r1_node_9 -->
<g id="edge28" class="edge">
<title>r1_node_7&#45;&gt;r1_node_9</title>
<path fill="none" stroke="black" d="M332.1,-248.74C303.48,-260.36 260.27,-277.01 227.21,-289.18"/>
<polygon fill="black" stroke="black" points="226.03,-285.89 217.84,-292.61 228.43,-292.46 226.03,-285.89"/>
</g>
<!-- r1_node_7&#45;&gt;r1_node_10 -->
<g id="edge27" class="edge">
<title>r1_node_7&#45;&gt;r1_node_10</title>
<path fill="none" stroke="black" d="M387.44,-218.15C408.36,-207.41 438.45,-192.82 463.31,-181.34"/>
<polygon fill="black" stroke="black" points="464.59,-184.61 472.23,-177.27 461.68,-178.24 464.59,-184.61"/>
</g>
<!-- r1_node_18 -->
<g id="node17" class="node">
<title>r1_node_18</title>
<ellipse fill="none" stroke="black" cx="650.33" cy="-162" rx="54.93" ry="18"/>
<text text-anchor="middle" x="650.33" y="-156.95" font-family="Times,serif" font-size="14.00">r1_node_18</text>
</g>
<!-- r1_node_7&#45;&gt;r1_node_18 -->
<g id="edge29" class="edge">
<title>r1_node_7&#45;&gt;r1_node_18</title>
<path fill="none" stroke="black" d="M401.36,-222.29C451.29,-209.62 537.86,-188.56 594.67,-175.25"/>
<polygon fill="black" stroke="black" points="595.2,-178.72 604.14,-173.04 593.61,-171.9 595.2,-178.72"/>
</g>
<!-- r1_node_18&#45;&gt;r1_node_7 -->
<g id="edge17" class="edge">
<title>r1_node_18&#45;&gt;r1_node_7</title>
<path fill="none" stroke="black" d="M609.21,-174.24C558.33,-187.13 471.81,-208.16 415.82,-221.26"/>
<polygon fill="black" stroke="black" points="415.13,-217.83 406.18,-223.51 416.72,-224.65 415.13,-217.83"/>
</g>
<!-- r1_node_17 -->
<g id="node18" class="node">
<title>r1_node_17</title>
<ellipse fill="none" stroke="black" cx="762.33" cy="-18" rx="54.93" ry="18"/>
<text text-anchor="middle" x="762.33" y="-12.95" font-family="Times,serif" font-size="14.00">r1_node_17</text>
</g>
<!-- r1_node_17&#45;&gt;r1_node_8 -->
<g id="edge19" class="edge">
<title>r1_node_17&#45;&gt;r1_node_8</title>
<path fill="none" stroke="black" d="M767.39,-36.2C770.14,-68.84 763.01,-140.08 723.33,-180 691.65,-211.87 641.43,-224.68 601.52,-229.78"/>
<polygon fill="black" stroke="black" points="601.35,-226.28 591.81,-230.88 602.14,-233.23 601.35,-226.28"/>
</g>
<!-- r1_node_8&#45;&gt;r1_node_9 -->
<g id="edge38" class="edge">
<title>r1_node_8&#45;&gt;r1_node_9</title>
<path fill="none" stroke="black" d="M498.16,-244.12C433.02,-257.3 308.18,-281.58 235.81,-295.16"/>
<polygon fill="black" stroke="black" points="235.34,-291.69 226.15,-296.96 236.62,-298.57 235.34,-291.69"/>
</g>
<!-- r1_node_8&#45;&gt;r1_node_17 -->
<g id="edge37" class="edge">
<title>r1_node_8&#45;&gt;r1_node_17</title>
<path fill="none" stroke="black" d="M589.19,-229.41C625.74,-224.08 674.38,-211.13 705.33,-180 740.98,-144.13 750.36,-82.99 755.49,-47.27"/>
<polygon fill="black" stroke="black" points="758.91,-48.1 756.89,-37.7 751.98,-47.09 758.91,-48.1"/>
</g>
<!-- r1_node_4&#45;&gt;r1_node_3 -->
<g id="edge33" class="edge">
<title>r1_node_4&#45;&gt;r1_node_3</title>
<path fill="none" stroke="black" d="M186.22,-396.1C186.98,-403.37 187.24,-412.04 186.98,-420.24"/>
<polygon fill="black" stroke="black" points="183.49,-419.98 186.34,-430.19 190.48,-420.43 183.49,-419.98"/>
</g>
<!-- r1_node_4&#45;&gt;r1_node_9 -->
<g id="edge34" class="edge">
<title>r1_node_4&#45;&gt;r1_node_9</title>
<path fill="none" stroke="black" d="M174.41,-359.7C173.66,-352.41 173.42,-343.73 173.68,-335.54"/>
<polygon fill="black" stroke="black" points="177.17,-335.82 174.33,-325.61 170.18,-335.36 177.17,-335.82"/>
</g>
</g>
</svg>
