<?xml version="1.0" encoding="UTF-8" standalone="no"?>
<!DOCTYPE svg PUBLIC "-//W3C//DTD SVG 1.1//EN"
 "http://www.w3.org/Graphics/SVG/1.1/DTD/svg11.dtd">
<!-- Generated by graphviz version 12.2.1 (20241206.2353)
 -->
<!-- Pages: 1 -->
<svg width="1064pt" height="548pt"
 viewBox="0.00 0.00 1064.26 548.00" xmlns="http://www.w3.org/2000/svg" xmlns:xlink="http://www.w3.org/1999/xlink">
<g id="graph0" class="graph" transform="scale(1 1) rotate(0) translate(4 544)">
<polygon fill="white" stroke="none" points="-4,4 -4,-544 1060.26,-544 1060.26,4 -4,4"/>
<!-- r3_node_27 -->
<g id="node1" class="node">
<title>r3_node_27</title>
<ellipse fill="none" stroke="black" cx="192.33" cy="-522" rx="54.93" ry="18"/>
<text text-anchor="middle" x="192.33" y="-516.95" font-family="Times,serif" font-size="14.00">r3_node_27</text>
</g>
<!-- r3_node_1 -->
<g id="node2" class="node">
<title>r3_node_1</title>
<ellipse fill="none" stroke="black" cx="192.33" cy="-450" rx="50.33" ry="18"/>
<text text-anchor="middle" x="192.33" y="-444.95" font-family="Times,serif" font-size="14.00">r3_node_1</text>
</g>
<!-- r3_node_27&#45;&gt;r3_node_1 -->
<g id="edge1" class="edge">
<title>r3_node_27&#45;&gt;r3_node_1</title>
<path fill="none" stroke="black" d="M186.41,-503.7C185.66,-496.41 185.42,-487.73 185.68,-479.54"/>
<polygon fill="black" stroke="black" points="189.17,-479.82 186.33,-469.61 182.18,-479.36 189.17,-479.82"/>
</g>
<!-- r3_node_1&#45;&gt;r3_node_27 -->
<g id="edge3" class="edge">
<title>r3_node_1&#45;&gt;r3_node_27</title>
<path fill="none" stroke="black" d="M198.22,-468.1C198.98,-475.37 199.24,-484.04 198.98,-492.24"/>
<polygon fill="black" stroke="black" points="195.49,-491.98 198.34,-502.19 202.48,-492.43 195.49,-491.98"/>
</g>
<!-- r3_node_9 -->
<g id="node3" class="node">
<title>r3_node_9</title>
<ellipse fill="none" stroke="black" cx="133.33" cy="-378" rx="50.33" ry="18"/>
<text text-anchor="middle" x="133.33" y="-372.95" font-family="Times,serif" font-size="14.00">r3_node_9</text>
</g>
<!-- r3_node_1&#45;&gt;r3_node_9 -->
<g id="edge2" class="edge">
<title>r3_node_1&#45;&gt;r3_node_9</title>
<path fill="none" stroke="black" d="M173.18,-433.12C165.18,-424.77 156.12,-414.32 148.57,-404.84"/>
<polygon fill="black" stroke="black" points="151.41,-402.8 142.54,-397 145.86,-407.06 151.41,-402.8"/>
</g>
<!-- r3_node_6 -->
<g id="node4" class="node">
<title>r3_node_6</title>
<ellipse fill="none" stroke="black" cx="352.33" cy="-378" rx="50.33" ry="18"/>
<text text-anchor="middle" x="352.33" y="-372.95" font-family="Times,serif" font-size="14.00">r3_node_6</text>
</g>
<!-- r3_node_1&#45;&gt;r3_node_6 -->
<g id="edge4" class="edge">
<title>r3_node_1&#45;&gt;r3_node_6</title>
<path fill="none" stroke="black" d="M219.89,-434.5C244.09,-423.28 279.57,-407.71 307.77,-395.92"/>
<polygon fill="black" stroke="black" points="308.88,-399.25 316.78,-392.19 306.2,-392.78 308.88,-399.25"/>
</g>
<!-- r3_node_9&#45;&gt;r3_node_1 -->
<g id="edge57" class="edge">
<title>r3_node_9&#45;&gt;r3_node_1</title>
<path fill="none" stroke="black" d="M152.42,-394.83C160.4,-403.15 169.43,-413.56 176.98,-423.02"/>
<polygon fill="black" stroke="black" points="174.13,-425.06 183,-430.86 179.68,-420.79 174.13,-425.06"/>
</g>
<!-- r3_node_29 -->
<g id="node8" class="node">
<title>r3_node_29</title>
<ellipse fill="none" stroke="black" cx="69.33" cy="-306" rx="54.93" ry="18"/>
<text text-anchor="middle" x="69.33" y="-300.95" font-family="Times,serif" font-size="14.00">r3_node_29</text>
</g>
<!-- r3_node_9&#45;&gt;r3_node_29 -->
<g id="edge56" class="edge">
<title>r3_node_9&#45;&gt;r3_node_29</title>
<path fill="none" stroke="black" d="M113.04,-361.12C104.36,-352.68 94.43,-342.1 86.16,-332.55"/>
<polygon fill="black" stroke="black" points="88.9,-330.37 79.8,-324.96 83.54,-334.87 88.9,-330.37"/>
</g>
<!-- r3_node_11 -->
<g id="node10" class="node">
<title>r3_node_11</title>
<ellipse fill="none" stroke="black" cx="230.33" cy="-306" rx="54.93" ry="18"/>
<text text-anchor="middle" x="230.33" y="-300.95" font-family="Times,serif" font-size="14.00">r3_node_11</text>
</g>
<!-- r3_node_9&#45;&gt;r3_node_11 -->
<g id="edge55" class="edge">
<title>r3_node_9&#45;&gt;r3_node_11</title>
<path fill="none" stroke="black" d="M150.02,-360.76C162.29,-351.13 179.21,-338.81 194.42,-328.39"/>
<polygon fill="black" stroke="black" points="196.02,-331.53 202.35,-323.04 192.1,-325.73 196.02,-331.53"/>
</g>
<!-- r3_node_21 -->
<g id="node11" class="node">
<title>r3_node_21</title>
<ellipse fill="none" stroke="black" cx="384.33" cy="-306" rx="54.93" ry="18"/>
<text text-anchor="middle" x="384.33" y="-300.95" font-family="Times,serif" font-size="14.00">r3_node_21</text>
</g>
<!-- r3_node_9&#45;&gt;r3_node_21 -->
<g id="edge58" class="edge">
<title>r3_node_9&#45;&gt;r3_node_21</title>
<path fill="none" stroke="black" d="M170.15,-365.28C212.44,-352.93 282.01,-333.51 330.39,-320.52"/>
<polygon fill="black" stroke="black" points="331.07,-323.96 339.83,-318 329.26,-317.2 331.07,-323.96"/>
</g>
<!-- r3_node_6&#45;&gt;r3_node_1 -->
<g id="edge42" class="edge">
<title>r3_node_6&#45;&gt;r3_node_1</title>
<path fill="none" stroke="black" d="M324.86,-393.46C300.59,-404.71 264.95,-420.35 236.68,-432.16"/>
<polygon fill="black" stroke="black" points="235.54,-428.84 227.65,-435.91 238.22,-435.31 235.54,-428.84"/>
</g>
<!-- r3_node_20 -->
<g id="node6" class="node">
<title>r3_node_20</title>
<ellipse fill="none" stroke="black" cx="571.33" cy="-306" rx="54.93" ry="18"/>
<text text-anchor="middle" x="571.33" y="-300.95" font-family="Times,serif" font-size="14.00">r3_node_20</text>
</g>
<!-- r3_node_6&#45;&gt;r3_node_20 -->
<g id="edge43" class="edge">
<title>r3_node_6&#45;&gt;r3_node_20</title>
<path fill="none" stroke="black" d="M386.16,-364.49C421.89,-352.49 478.43,-334.38 519.7,-321.71"/>
<polygon fill="black" stroke="black" points="520.65,-325.08 529.19,-318.81 518.61,-318.38 520.65,-325.08"/>
</g>
<!-- r3_node_26 -->
<g id="node20" class="node">
<title>r3_node_26</title>
<ellipse fill="none" stroke="black" cx="739.33" cy="-306" rx="54.93" ry="18"/>
<text text-anchor="middle" x="739.33" y="-300.95" font-family="Times,serif" font-size="14.00">r3_node_26</text>
</g>
<!-- r3_node_6&#45;&gt;r3_node_26 -->
<g id="edge44" class="edge">
<title>r3_node_6&#45;&gt;r3_node_26</title>
<path fill="none" stroke="black" d="M395.54,-368.35C464.98,-355.29 601.28,-330.62 679.84,-316.88"/>
<polygon fill="black" stroke="black" points="680.26,-320.36 689.51,-315.19 679.05,-313.46 680.26,-320.36"/>
</g>
<!-- r3_node_15 -->
<g id="node5" class="node">
<title>r3_node_15</title>
<ellipse fill="none" stroke="black" cx="815.33" cy="-90" rx="54.93" ry="18"/>
<text text-anchor="middle" x="815.33" y="-84.95" font-family="Times,serif" font-size="14.00">r3_node_15</text>
</g>
<!-- r3_node_15&#45;&gt;r3_node_20 -->
<g id="edge5" class="edge">
<title>r3_node_15&#45;&gt;r3_node_20</title>
<path fill="none" stroke="black" d="M829.14,-107.78C838.51,-126.48 846.25,-157.11 834.33,-180 796.11,-253.34 698.4,-284.27 633.36,-296.86"/>
<polygon fill="black" stroke="black" points="633.11,-293.35 623.9,-298.59 634.37,-300.23 633.11,-293.35"/>
</g>
<!-- r3_node_20&#45;&gt;r3_node_6 -->
<g id="edge30" class="edge">
<title>r3_node_20&#45;&gt;r3_node_6</title>
<path fill="none" stroke="black" d="M535.86,-320.06C499.45,-332.26 442.71,-350.41 401.9,-362.93"/>
<polygon fill="black" stroke="black" points="401.1,-359.51 392.55,-365.77 403.14,-366.21 401.1,-359.51"/>
</g>
<!-- r3_node_20&#45;&gt;r3_node_15 -->
<g id="edge28" class="edge">
<title>r3_node_20&#45;&gt;r3_node_15</title>
<path fill="none" stroke="black" d="M619.69,-297.02C679.55,-284.54 777.95,-253.66 816.33,-180 825.99,-161.45 822.74,-137.82 818.78,-119.57"/>
<polygon fill="black" stroke="black" points="822.21,-118.89 816.55,-109.93 815.4,-120.47 822.21,-118.89"/>
</g>
<!-- r3_node_14 -->
<g id="node22" class="node">
<title>r3_node_14</title>
<ellipse fill="none" stroke="black" cx="727.33" cy="-18" rx="54.93" ry="18"/>
<text text-anchor="middle" x="727.33" y="-12.95" font-family="Times,serif" font-size="14.00">r3_node_14</text>
</g>
<!-- r3_node_20&#45;&gt;r3_node_14 -->
<g id="edge29" class="edge">
<title>r3_node_20&#45;&gt;r3_node_14</title>
<path fill="none" stroke="black" d="M619.08,-296.77C674.42,-287.23 761.33,-270.46 789.33,-252 822.5,-230.13 823.18,-214.82 842.33,-180 866.22,-136.55 899.04,-112.43 870.33,-72 851.96,-46.14 820,-32.79 790.9,-25.95"/>
<polygon fill="black" stroke="black" points="791.9,-22.58 781.4,-23.94 790.46,-29.43 791.9,-22.58"/>
</g>
<!-- r3_node_4 -->
<g id="node7" class="node">
<title>r3_node_4</title>
<ellipse fill="none" stroke="black" cx="50.33" cy="-18" rx="50.33" ry="18"/>
<text text-anchor="middle" x="50.33" y="-12.95" font-family="Times,serif" font-size="14.00">r3_node_4</text>
</g>
<!-- r3_node_4&#45;&gt;r3_node_29 -->
<g id="edge6" class="edge">
<title>r3_node_4&#45;&gt;r3_node_29</title>
<path fill="none" stroke="black" d="M53.25,-36.41C53.84,-75.36 47.01,-172.41 60.33,-252 61.71,-260.24 64.19,-268.93 66.54,-276.83"/>
<polygon fill="black" stroke="black" points="63.13,-277.65 69.32,-286.25 69.85,-275.67 63.13,-277.65"/>
</g>
<!-- r3_node_29&#45;&gt;r3_node_9 -->
<g id="edge20" class="edge">
<title>r3_node_29&#45;&gt;r3_node_9</title>
<path fill="none" stroke="black" d="M89.55,-322.83C98.21,-331.23 108.11,-341.77 116.38,-351.31"/>
<polygon fill="black" stroke="black" points="113.63,-353.49 122.74,-358.9 118.99,-348.99 113.63,-353.49"/>
</g>
<!-- r3_node_29&#45;&gt;r3_node_4 -->
<g id="edge21" class="edge">
<title>r3_node_29&#45;&gt;r3_node_4</title>
<path fill="none" stroke="black" d="M54.47,-288.65C49.16,-278.35 44.45,-264.65 42.33,-252 30.12,-179.06 34.84,-91.48 41.81,-47.36"/>
<polygon fill="black" stroke="black" points="45.24,-48.07 43.56,-37.61 38.35,-46.83 45.24,-48.07"/>
</g>
<!-- r3_node_23 -->
<g id="node17" class="node">
<title>r3_node_23</title>
<ellipse fill="none" stroke="black" cx="115.33" cy="-234" rx="54.93" ry="18"/>
<text text-anchor="middle" x="115.33" y="-228.95" font-family="Times,serif" font-size="14.00">r3_node_23</text>
</g>
<!-- r3_node_29&#45;&gt;r3_node_23 -->
<g id="edge23" class="edge">
<title>r3_node_29&#45;&gt;r3_node_23</title>
<path fill="none" stroke="black" d="M74.78,-287.7C79.26,-279.61 85.49,-269.81 91.79,-260.87"/>
<polygon fill="black" stroke="black" points="94.58,-262.98 97.67,-252.84 88.93,-258.84 94.58,-262.98"/>
</g>
<!-- r3_node_12 -->
<g id="node23" class="node">
<title>r3_node_12</title>
<ellipse fill="none" stroke="black" cx="320.33" cy="-18" rx="54.93" ry="18"/>
<text text-anchor="middle" x="320.33" y="-12.95" font-family="Times,serif" font-size="14.00">r3_node_12</text>
</g>
<!-- r3_node_29&#45;&gt;r3_node_12 -->
<g id="edge22" class="edge">
<title>r3_node_29&#45;&gt;r3_node_12</title>
<path fill="none" stroke="black" d="M103.16,-291.47C124.25,-282.77 150.8,-269.75 170.33,-252 236.54,-191.81 281.92,-93.27 304.71,-45.98"/>
<polygon fill="black" stroke="black" points="307.72,-47.79 308.96,-37.26 301.43,-44.72 307.72,-47.79"/>
</g>
<!-- r3_node_3 -->
<g id="node9" class="node">
<title>r3_node_3</title>
<ellipse fill="none" stroke="black" cx="364.33" cy="-90" rx="50.33" ry="18"/>
<text text-anchor="middle" x="364.33" y="-84.95" font-family="Times,serif" font-size="14.00">r3_node_3</text>
</g>
<!-- r3_node_3&#45;&gt;r3_node_11 -->
<g id="edge7" class="edge">
<title>r3_node_3&#45;&gt;r3_node_11</title>
<path fill="none" stroke="black" d="M357.38,-108.31C337.47,-145.79 282.06,-234.66 251.23,-278.96"/>
<polygon fill="black" stroke="black" points="248.48,-276.79 245.56,-286.97 254.2,-280.83 248.48,-276.79"/>
</g>
<!-- r3_node_11&#45;&gt;r3_node_9 -->
<g id="edge53" class="edge">
<title>r3_node_11&#45;&gt;r3_node_9</title>
<path fill="none" stroke="black" d="M213.24,-323.54C200.86,-333.24 183.88,-345.6 168.7,-355.98"/>
<polygon fill="black" stroke="black" points="167.13,-352.82 160.79,-361.31 171.04,-358.63 167.13,-352.82"/>
</g>
<!-- r3_node_11&#45;&gt;r3_node_3 -->
<g id="edge52" class="edge">
<title>r3_node_11&#45;&gt;r3_node_3</title>
<path fill="none" stroke="black" d="M237.19,-287.85C257.06,-250.41 312.69,-161.19 343.53,-116.88"/>
<polygon fill="black" stroke="black" points="346.28,-119.06 349.2,-108.88 340.57,-115.01 346.28,-119.06"/>
</g>
<!-- r3_node_18 -->
<g id="node27" class="node">
<title>r3_node_18</title>
<ellipse fill="none" stroke="black" cx="454.33" cy="-18" rx="54.93" ry="18"/>
<text text-anchor="middle" x="454.33" y="-12.95" font-family="Times,serif" font-size="14.00">r3_node_18</text>
</g>
<!-- r3_node_11&#45;&gt;r3_node_18 -->
<g id="edge54" class="edge">
<title>r3_node_11&#45;&gt;r3_node_18</title>
<path fill="none" stroke="black" d="M246.03,-288.39C258.43,-278.43 275.43,-265.18 289.33,-252 350.82,-193.68 371.85,-181.33 414.33,-108 425.48,-88.75 433.53,-64.83 439.98,-46.64"/>
<polygon fill="black" stroke="black" points="443.25,-47.9 443.38,-37.31 436.67,-45.51 443.25,-47.9"/>
</g>
<!-- r3_node_21&#45;&gt;r3_node_9 -->
<g id="edge8" class="edge">
<title>r3_node_21&#45;&gt;r3_node_9</title>
<path fill="none" stroke="black" d="M346.01,-319.15C302.9,-331.72 232.87,-351.26 184.98,-364.09"/>
<polygon fill="black" stroke="black" points="184.13,-360.7 175.37,-366.66 185.94,-367.46 184.13,-360.7"/>
</g>
<!-- r3_node_28 -->
<g id="node12" class="node">
<title>r3_node_28</title>
<ellipse fill="none" stroke="black" cx="429.33" cy="-234" rx="54.93" ry="18"/>
<text text-anchor="middle" x="429.33" y="-228.95" font-family="Times,serif" font-size="14.00">r3_node_28</text>
</g>
<!-- r3_node_21&#45;&gt;r3_node_28 -->
<g id="edge9" class="edge">
<title>r3_node_21&#45;&gt;r3_node_28</title>
<path fill="none" stroke="black" d="M389.54,-287.7C393.9,-279.61 399.99,-269.81 406.16,-260.87"/>
<polygon fill="black" stroke="black" points="408.92,-263.02 411.92,-252.85 403.24,-258.93 408.92,-263.02"/>
</g>
<!-- r3_node_19 -->
<g id="node13" class="node">
<title>r3_node_19</title>
<ellipse fill="none" stroke="black" cx="658.33" cy="-234" rx="54.93" ry="18"/>
<text text-anchor="middle" x="658.33" y="-228.95" font-family="Times,serif" font-size="14.00">r3_node_19</text>
</g>
<!-- r3_node_21&#45;&gt;r3_node_19 -->
<g id="edge10" class="edge">
<title>r3_node_21&#45;&gt;r3_node_19</title>
<path fill="none" stroke="black" d="M424.7,-293.36C471.96,-280.77 550.28,-260.75 603.12,-247.74"/>
<polygon fill="black" stroke="black" points="603.64,-251.21 612.52,-245.43 601.97,-244.42 603.64,-251.21"/>
</g>
<!-- r3_node_28&#45;&gt;r3_node_21 -->
<g id="edge34" class="edge">
<title>r3_node_28&#45;&gt;r3_node_21</title>
<path fill="none" stroke="black" d="M424.31,-251.96C419.9,-260.17 413.66,-270.22 407.35,-279.34"/>
<polygon fill="black" stroke="black" points="404.71,-277.02 401.72,-287.18 410.4,-281.11 404.71,-277.02"/>
</g>
<!-- r3_node_10 -->
<g id="node14" class="node">
<title>r3_node_10</title>
<ellipse fill="none" stroke="black" cx="556.33" cy="-90" rx="54.93" ry="18"/>
<text text-anchor="middle" x="556.33" y="-84.95" font-family="Times,serif" font-size="14.00">r3_node_10</text>
</g>
<!-- r3_node_28&#45;&gt;r3_node_10 -->
<g id="edge33" class="edge">
<title>r3_node_28&#45;&gt;r3_node_10</title>
<path fill="none" stroke="black" d="M425.07,-215.78C425.89,-196.4 433.71,-164.89 451.33,-144 465.21,-127.55 485.55,-115.29 504.72,-106.73"/>
<polygon fill="black" stroke="black" points="505.92,-110.02 513.8,-102.94 503.23,-103.56 505.92,-110.02"/>
</g>
<!-- r3_node_30 -->
<g id="node24" class="node">
<title>r3_node_30</title>
<ellipse fill="none" stroke="black" cx="524.33" cy="-162" rx="54.93" ry="18"/>
<text text-anchor="middle" x="524.33" y="-156.95" font-family="Times,serif" font-size="14.00">r3_node_30</text>
</g>
<!-- r3_node_28&#45;&gt;r3_node_30 -->
<g id="edge35" class="edge">
<title>r3_node_28&#45;&gt;r3_node_30</title>
<path fill="none" stroke="black" d="M446,-216.41C457.92,-206.86 474.21,-194.75 488.9,-184.48"/>
<polygon fill="black" stroke="black" points="490.76,-187.45 497.01,-178.9 486.79,-181.68 490.76,-187.45"/>
</g>
<!-- r3_node_7 -->
<g id="node26" class="node">
<title>r3_node_7</title>
<ellipse fill="none" stroke="black" cx="647.33" cy="-162" rx="50.33" ry="18"/>
<text text-anchor="middle" x="647.33" y="-156.95" font-family="Times,serif" font-size="14.00">r3_node_7</text>
</g>
<!-- r3_node_28&#45;&gt;r3_node_7 -->
<g id="edge32" class="edge">
<title>r3_node_28&#45;&gt;r3_node_7</title>
<path fill="none" stroke="black" d="M464.92,-219.83C501.06,-207.67 557.14,-189.65 597.63,-177.17"/>
<polygon fill="black" stroke="black" points="598.63,-180.53 607.17,-174.26 596.58,-173.84 598.63,-180.53"/>
</g>
<!-- r3_node_19&#45;&gt;r3_node_21 -->
<g id="edge40" class="edge">
<title>r3_node_19&#45;&gt;r3_node_21</title>
<path fill="none" stroke="black" d="M617.93,-246.64C570.61,-259.25 492.18,-279.3 439.35,-292.31"/>
<polygon fill="black" stroke="black" points="438.84,-288.83 429.96,-294.61 440.5,-295.63 438.84,-288.83"/>
</g>
<!-- r3_node_8 -->
<g id="node28" class="node">
<title>r3_node_8</title>
<ellipse fill="none" stroke="black" cx="766.33" cy="-162" rx="50.33" ry="18"/>
<text text-anchor="middle" x="766.33" y="-156.95" font-family="Times,serif" font-size="14.00">r3_node_8</text>
</g>
<!-- r3_node_19&#45;&gt;r3_node_8 -->
<g id="edge39" class="edge">
<title>r3_node_19&#45;&gt;r3_node_8</title>
<path fill="none" stroke="black" d="M677.58,-216.76C692.01,-206.68 712,-193.64 729.42,-182.93"/>
<polygon fill="black" stroke="black" points="730.75,-186.21 737.49,-178.03 727.12,-180.23 730.75,-186.21"/>
</g>
<!-- r3_node_10&#45;&gt;r3_node_28 -->
<g id="edge11" class="edge">
<title>r3_node_10&#45;&gt;r3_node_28</title>
<path fill="none" stroke="black" d="M524.84,-104.98C506.44,-113.59 484.18,-126.39 469.33,-144 454.74,-161.3 446.86,-185.88 441.29,-204.83"/>
<polygon fill="black" stroke="black" points="437.96,-203.75 438.5,-214.33 444.68,-205.72 437.96,-203.75"/>
</g>
<!-- r3_node_13 -->
<g id="node15" class="node">
<title>r3_node_13</title>
<ellipse fill="none" stroke="black" cx="116.33" cy="-162" rx="54.93" ry="18"/>
<text text-anchor="middle" x="116.33" y="-156.95" font-family="Times,serif" font-size="14.00">r3_node_13</text>
</g>
<!-- r3_node_5 -->
<g id="node16" class="node">
<title>r3_node_5</title>
<ellipse fill="none" stroke="black" cx="113.33" cy="-90" rx="50.33" ry="18"/>
<text text-anchor="middle" x="113.33" y="-84.95" font-family="Times,serif" font-size="14.00">r3_node_5</text>
</g>
<!-- r3_node_13&#45;&gt;r3_node_5 -->
<g id="edge12" class="edge">
<title>r3_node_13&#45;&gt;r3_node_5</title>
<path fill="none" stroke="black" d="M109.67,-143.7C108.61,-136.41 107.99,-127.73 107.9,-119.54"/>
<polygon fill="black" stroke="black" points="111.4,-119.69 108.13,-109.62 104.4,-119.53 111.4,-119.69"/>
</g>
<!-- r3_node_13&#45;&gt;r3_node_23 -->
<g id="edge13" class="edge">
<title>r3_node_13&#45;&gt;r3_node_23</title>
<path fill="none" stroke="black" d="M121.98,-180.1C122.64,-187.37 122.76,-196.04 122.39,-204.24"/>
<polygon fill="black" stroke="black" points="118.9,-203.94 121.61,-214.19 125.88,-204.49 118.9,-203.94"/>
</g>
<!-- r3_node_5&#45;&gt;r3_node_13 -->
<g id="edge51" class="edge">
<title>r3_node_5&#45;&gt;r3_node_13</title>
<path fill="none" stroke="black" d="M119.96,-108.1C121.03,-115.37 121.65,-124.04 121.75,-132.24"/>
<polygon fill="black" stroke="black" points="118.25,-132.11 121.53,-142.18 125.25,-132.26 118.25,-132.11"/>
</g>
<!-- r3_node_23&#45;&gt;r3_node_29 -->
<g id="edge15" class="edge">
<title>r3_node_23&#45;&gt;r3_node_29</title>
<path fill="none" stroke="black" d="M110.06,-251.96C105.54,-260.17 99.15,-270.22 92.72,-279.34"/>
<polygon fill="black" stroke="black" points="90.06,-277.06 86.96,-287.19 95.7,-281.2 90.06,-277.06"/>
</g>
<!-- r3_node_23&#45;&gt;r3_node_13 -->
<g id="edge14" class="edge">
<title>r3_node_23&#45;&gt;r3_node_13</title>
<path fill="none" stroke="black" d="M109.66,-215.7C109.01,-208.41 108.89,-199.73 109.27,-191.54"/>
<polygon fill="black" stroke="black" points="112.76,-191.86 110.07,-181.61 105.78,-191.3 112.76,-191.86"/>
</g>
<!-- r3_node_2 -->
<g id="node18" class="node">
<title>r3_node_2</title>
<ellipse fill="none" stroke="black" cx="185.33" cy="-18" rx="50.33" ry="18"/>
<text text-anchor="middle" x="185.33" y="-12.95" font-family="Times,serif" font-size="14.00">r3_node_2</text>
</g>
<!-- r3_node_23&#45;&gt;r3_node_2 -->
<g id="edge16" class="edge">
<title>r3_node_23&#45;&gt;r3_node_2</title>
<path fill="none" stroke="black" d="M136.56,-217.06C149.07,-208.08 163.65,-195.53 171.33,-180 192.29,-137.57 187.72,-80.89 184.82,-47.33"/>
<polygon fill="black" stroke="black" points="188.33,-47.27 184,-37.6 181.35,-47.85 188.33,-47.27"/>
</g>
<!-- r3_node_2&#45;&gt;r3_node_23 -->
<g id="edge45" class="edge">
<title>r3_node_2&#45;&gt;r3_node_23</title>
<path fill="none" stroke="black" d="M194.52,-36.09C204.22,-66.75 212.86,-132.36 189.33,-180 182.65,-193.52 170.73,-204.78 158.31,-213.39"/>
<polygon fill="black" stroke="black" points="156.62,-210.32 150.07,-218.64 160.38,-216.22 156.62,-210.32"/>
</g>
<!-- r3_node_25 -->
<g id="node19" class="node">
<title>r3_node_25</title>
<ellipse fill="none" stroke="black" cx="987.33" cy="-234" rx="54.93" ry="18"/>
<text text-anchor="middle" x="987.33" y="-228.95" font-family="Times,serif" font-size="14.00">r3_node_25</text>
</g>
<!-- r3_node_25&#45;&gt;r3_node_26 -->
<g id="edge17" class="edge">
<title>r3_node_25&#45;&gt;r3_node_26</title>
<path fill="none" stroke="black" d="M949.15,-247.27C907.29,-259.62 840.03,-278.62 792.92,-291.42"/>
<polygon fill="black" stroke="black" points="792.2,-287.98 783.46,-293.97 794.03,-294.74 792.2,-287.98"/>
</g>
<!-- r3_node_16 -->
<g id="node21" class="node">
<title>r3_node_16</title>
<ellipse fill="none" stroke="black" cx="1001.33" cy="-162" rx="54.93" ry="18"/>
<text text-anchor="middle" x="1001.33" y="-156.95" font-family="Times,serif" font-size="14.00">r3_node_16</text>
</g>
<!-- r3_node_25&#45;&gt;r3_node_16 -->
<g id="edge18" class="edge">
<title>r3_node_25&#45;&gt;r3_node_16</title>
<path fill="none" stroke="black" d="M984.87,-215.7C985.6,-208.24 987.14,-199.32 989.11,-190.97"/>
<polygon fill="black" stroke="black" points="992.42,-192.13 991.62,-181.57 985.66,-190.32 992.42,-192.13"/>
</g>
<!-- r3_node_26&#45;&gt;r3_node_6 -->
<g id="edge26" class="edge">
<title>r3_node_26&#45;&gt;r3_node_6</title>
<path fill="none" stroke="black" d="M693.29,-316.18C621.94,-329.57 485.16,-354.32 408.25,-367.74"/>
<polygon fill="black" stroke="black" points="408.09,-364.22 398.84,-369.38 409.29,-371.12 408.09,-364.22"/>
</g>
<!-- r3_node_26&#45;&gt;r3_node_25 -->
<g id="edge25" class="edge">
<title>r3_node_26&#45;&gt;r3_node_25</title>
<path fill="none" stroke="black" d="M777.53,-292.73C819.36,-280.38 886.56,-261.4 933.65,-248.6"/>
<polygon fill="black" stroke="black" points="934.37,-252.04 943.11,-246.05 932.54,-245.28 934.37,-252.04"/>
</g>
<!-- r3_node_16&#45;&gt;r3_node_25 -->
<g id="edge48" class="edge">
<title>r3_node_16&#45;&gt;r3_node_25</title>
<path fill="none" stroke="black" d="M1003.79,-180.28C1003.06,-187.77 1001.5,-196.75 999.52,-205.15"/>
<polygon fill="black" stroke="black" points="996.2,-204.03 996.99,-214.59 1002.96,-205.84 996.2,-204.03"/>
</g>
<!-- r3_node_17 -->
<g id="node30" class="node">
<title>r3_node_17</title>
<ellipse fill="none" stroke="black" cx="1000.33" cy="-90" rx="54.93" ry="18"/>
<text text-anchor="middle" x="1000.33" y="-84.95" font-family="Times,serif" font-size="14.00">r3_node_17</text>
</g>
<!-- r3_node_16&#45;&gt;r3_node_17 -->
<g id="edge47" class="edge">
<title>r3_node_16&#45;&gt;r3_node_17</title>
<path fill="none" stroke="black" d="M995.16,-143.7C994.31,-136.41 993.94,-127.73 994.09,-119.54"/>
<polygon fill="black" stroke="black" points="997.58,-119.78 994.6,-109.62 990.59,-119.42 997.58,-119.78"/>
</g>
<!-- r3_node_14&#45;&gt;r3_node_20 -->
<g id="edge19" class="edge">
<title>r3_node_14&#45;&gt;r3_node_20</title>
<path fill="none" stroke="black" d="M781.64,-21.52C818.58,-26.18 864.7,-38.74 888.33,-72 917.04,-112.43 884.22,-136.55 860.33,-180 841.18,-214.82 840.5,-230.13 807.33,-252 779.43,-270.39 693.1,-287.1 632.89,-296.65"/>
<polygon fill="black" stroke="black" points="632.44,-293.18 623.09,-298.18 633.51,-300.1 632.44,-293.18"/>
</g>
<!-- r3_node_12&#45;&gt;r3_node_29 -->
<g id="edge31" class="edge">
<title>r3_node_12&#45;&gt;r3_node_29</title>
<path fill="none" stroke="black" d="M318.43,-36.21C306.63,-78.22 259.52,-187.28 188.33,-252 169.73,-268.91 144.75,-281.53 122.41,-290.2"/>
<polygon fill="black" stroke="black" points="121.29,-286.88 113.11,-293.62 123.7,-293.45 121.29,-286.88"/>
</g>
<!-- r3_node_30&#45;&gt;r3_node_28 -->
<g id="edge24" class="edge">
<title>r3_node_30&#45;&gt;r3_node_28</title>
<path fill="none" stroke="black" d="M507.61,-179.63C495.74,-189.13 479.56,-201.16 464.94,-211.39"/>
<polygon fill="black" stroke="black" points="463.12,-208.4 456.87,-216.95 467.09,-214.16 463.12,-208.4"/>
</g>
<!-- r3_node_22 -->
<g id="node25" class="node">
<title>r3_node_22</title>
<ellipse fill="none" stroke="black" cx="686.33" cy="-90" rx="54.93" ry="18"/>
<text text-anchor="middle" x="686.33" y="-84.95" font-family="Times,serif" font-size="14.00">r3_node_22</text>
</g>
<!-- r3_node_22&#45;&gt;r3_node_7 -->
<g id="edge27" class="edge">
<title>r3_node_22&#45;&gt;r3_node_7</title>
<path fill="none" stroke="black" d="M682.54,-108.45C678.9,-116.44 673.73,-126.08 668.41,-134.92"/>
<polygon fill="black" stroke="black" points="665.6,-132.81 663.22,-143.13 671.52,-136.55 665.6,-132.81"/>
</g>
<!-- r3_node_7&#45;&gt;r3_node_28 -->
<g id="edge37" class="edge">
<title>r3_node_7&#45;&gt;r3_node_28</title>
<path fill="none" stroke="black" d="M613.2,-175.67C577.72,-187.64 521.95,-205.57 481.08,-218.19"/>
<polygon fill="black" stroke="black" points="480.22,-214.79 471.68,-221.08 482.27,-221.49 480.22,-214.79"/>
</g>
<!-- r3_node_7&#45;&gt;r3_node_22 -->
<g id="edge36" class="edge">
<title>r3_node_7&#45;&gt;r3_node_22</title>
<path fill="none" stroke="black" d="M651.05,-143.7C654.68,-135.7 659.86,-126.02 665.2,-117.15"/>
<polygon fill="black" stroke="black" points="668.03,-119.23 670.41,-108.9 662.11,-115.49 668.03,-119.23"/>
</g>
<!-- r3_node_18&#45;&gt;r3_node_11 -->
<g id="edge38" class="edge">
<title>r3_node_18&#45;&gt;r3_node_11</title>
<path fill="none" stroke="black" d="M457.04,-36.23C454.72,-54.79 445.78,-84.78 432.33,-108 389.85,-181.33 368.82,-193.68 307.33,-252 295.44,-263.27 281.29,-274.59 268.28,-283.86"/>
<polygon fill="black" stroke="black" points="266.55,-280.8 260.31,-289.36 270.53,-286.56 266.55,-280.8"/>
</g>
<!-- r3_node_8&#45;&gt;r3_node_19 -->
<g id="edge46" class="edge">
<title>r3_node_8&#45;&gt;r3_node_19</title>
<path fill="none" stroke="black" d="M747.35,-179.04C733.3,-188.88 713.85,-201.58 696.67,-212.19"/>
<polygon fill="black" stroke="black" points="694.88,-209.18 688.16,-217.37 698.52,-215.16 694.88,-209.18"/>
</g>
<!-- r3_node_24 -->
<g id="node29" class="node">
<title>r3_node_24</title>
<ellipse fill="none" stroke="black" cx="927.33" cy="-18" rx="54.93" ry="18"/>
<text text-anchor="middle" x="927.33" y="-12.95" font-family="Times,serif" font-size="14.00">r3_node_24</text>
</g>
<!-- r3_node_24&#45;&gt;r3_node_17 -->
<g id="edge41" class="edge">
<title>r3_node_24&#45;&gt;r3_node_17</title>
<path fill="none" stroke="black" d="M949.59,-34.83C959.53,-43.41 971.04,-54.21 980.66,-63.9"/>
<polygon fill="black" stroke="black" points="978.02,-66.21 987.48,-70.97 983.05,-61.34 978.02,-66.21"/>
</g>
<!-- r3_node_17&#45;&gt;r3_node_16 -->
<g id="edge50" class="edge">
<title>r3_node_17&#45;&gt;r3_node_16</title>
<path fill="none" stroke="black" d="M1006.47,-108.1C1007.33,-115.37 1007.71,-124.04 1007.57,-132.24"/>
<polygon fill="black" stroke="black" points="1004.08,-132.02 1007.07,-142.18 1011.07,-132.37 1004.08,-132.02"/>
</g>
<!-- r3_node_17&#45;&gt;r3_node_24 -->
<g id="edge49" class="edge">
<title>r3_node_17&#45;&gt;r3_node_24</title>
<path fill="none" stroke="black" d="M978,-73.12C968.03,-64.51 956.48,-53.67 946.86,-43.96"/>
<polygon fill="black" stroke="black" points="949.5,-41.65 940.03,-36.89 944.46,-46.51 949.5,-41.65"/>
</g>
</g>
</svg>
