<?xml version="1.0" encoding="UTF-8" standalone="no"?>
<!DOCTYPE svg PUBLIC "-//W3C//DTD SVG 1.1//EN"
 "http://www.w3.org/Graphics/SVG/1.1/DTD/svg11.dtd">
<!-- Generated by graphviz version 12.2.1 (20241206.2353)
 -->
<!-- Pages: 1 -->
<svg width="570pt" height="476pt"
 viewBox="0.00 0.00 569.87 476.00" xmlns="http://www.w3.org/2000/svg" xmlns:xlink="http://www.w3.org/1999/xlink">
<g id="graph0" class="graph" transform="scale(1 1) rotate(0) translate(4 472)">
<polygon fill="white" stroke="none" points="-4,4 -4,-472 565.87,-472 565.87,4 -4,4"/>
<!-- r2_node_26 -->
<g id="node1" class="node">
<title>r2_node_26</title>
<ellipse fill="none" stroke="black" cx="54.93" cy="-450" rx="54.93" ry="18"/>
<text text-anchor="middle" x="54.93" y="-444.95" font-family="Times,serif" font-size="14.00">r2_node_26</text>
</g>
<!-- r2_node_15 -->
<g id="node2" class="node">
<title>r2_node_15</title>
<ellipse fill="none" stroke="black" cx="115.93" cy="-378" rx="54.93" ry="18"/>
<text text-anchor="middle" x="115.93" y="-372.95" font-family="Times,serif" font-size="14.00">r2_node_15</text>
</g>
<!-- r2_node_26&#45;&gt;r2_node_15 -->
<g id="edge1" class="edge">
<title>r2_node_26&#45;&gt;r2_node_15</title>
<path fill="none" stroke="black" d="M63.82,-432.05C70.46,-423.38 79.6,-412.67 88.44,-403.15"/>
<polygon fill="black" stroke="black" points="90.96,-405.57 95.34,-395.92 85.9,-400.74 90.96,-405.57"/>
</g>
<!-- r2_node_8 -->
<g id="node3" class="node">
<title>r2_node_8</title>
<ellipse fill="none" stroke="black" cx="434.93" cy="-90" rx="50.33" ry="18"/>
<text text-anchor="middle" x="434.93" y="-84.95" font-family="Times,serif" font-size="14.00">r2_node_8</text>
</g>
<!-- r2_node_26&#45;&gt;r2_node_8 -->
<g id="edge2" class="edge">
<title>r2_node_26&#45;&gt;r2_node_8</title>
<path fill="none" stroke="black" d="M104.94,-442.11C141.04,-435.32 189.33,-421.99 224.93,-396 327.16,-321.38 392.16,-177.73 420.11,-118.04"/>
<polygon fill="black" stroke="black" points="423.14,-119.81 424.25,-109.28 416.81,-116.82 423.14,-119.81"/>
</g>
<!-- r2_node_24 -->
<g id="node4" class="node">
<title>r2_node_24</title>
<ellipse fill="none" stroke="black" cx="132.93" cy="-18" rx="54.93" ry="18"/>
<text text-anchor="middle" x="132.93" y="-12.95" font-family="Times,serif" font-size="14.00">r2_node_24</text>
</g>
<!-- r2_node_26&#45;&gt;r2_node_24 -->
<g id="edge3" class="edge">
<title>r2_node_26&#45;&gt;r2_node_24</title>
<path fill="none" stroke="black" d="M53.72,-431.82C53.04,-421.46 52.27,-407.98 51.93,-396 51.48,-380.01 51.66,-376 51.93,-360 53.05,-295.97 44.12,-278.74 56.93,-216 69.85,-152.74 100.97,-83.29 119.12,-46.1"/>
<polygon fill="black" stroke="black" points="122.12,-47.94 123.42,-37.42 115.85,-44.83 122.12,-47.94"/>
</g>
<!-- r2_node_20 -->
<g id="node5" class="node">
<title>r2_node_20</title>
<ellipse fill="none" stroke="black" cx="257.93" cy="-234" rx="54.93" ry="18"/>
<text text-anchor="middle" x="257.93" y="-228.95" font-family="Times,serif" font-size="14.00">r2_node_20</text>
</g>
<!-- r2_node_26&#45;&gt;r2_node_20 -->
<g id="edge4" class="edge">
<title>r2_node_26&#45;&gt;r2_node_20</title>
<path fill="none" stroke="black" d="M93.91,-437.07C141.59,-421.02 219.03,-386.92 246.93,-324 255.32,-305.08 255.48,-281.61 255.02,-263.52"/>
<polygon fill="black" stroke="black" points="258.52,-263.65 254.74,-253.76 251.53,-263.85 258.52,-263.65"/>
</g>
<!-- r2_node_15&#45;&gt;r2_node_26 -->
<g id="edge16" class="edge">
<title>r2_node_15&#45;&gt;r2_node_26</title>
<path fill="none" stroke="black" d="M106.91,-396.12C100.35,-404.67 91.4,-415.17 82.71,-424.55"/>
<polygon fill="black" stroke="black" points="80.29,-422.01 75.93,-431.67 85.36,-426.84 80.29,-422.01"/>
</g>
<!-- r2_node_17 -->
<g id="node7" class="node">
<title>r2_node_17</title>
<ellipse fill="none" stroke="black" cx="191.93" cy="-306" rx="54.93" ry="18"/>
<text text-anchor="middle" x="191.93" y="-300.95" font-family="Times,serif" font-size="14.00">r2_node_17</text>
</g>
<!-- r2_node_15&#45;&gt;r2_node_17 -->
<g id="edge18" class="edge">
<title>r2_node_15&#45;&gt;r2_node_17</title>
<path fill="none" stroke="black" d="M128.45,-360.05C137.21,-351.12 149.09,-340.01 160.26,-330.28"/>
<polygon fill="black" stroke="black" points="162.5,-332.96 167.84,-323.81 157.96,-327.64 162.5,-332.96"/>
</g>
<!-- r2_node_4 -->
<g id="node10" class="node">
<title>r2_node_4</title>
<ellipse fill="none" stroke="black" cx="255.93" cy="-18" rx="50.33" ry="18"/>
<text text-anchor="middle" x="255.93" y="-12.95" font-family="Times,serif" font-size="14.00">r2_node_4</text>
</g>
<!-- r2_node_15&#45;&gt;r2_node_4 -->
<g id="edge17" class="edge">
<title>r2_node_15&#45;&gt;r2_node_4</title>
<path fill="none" stroke="black" d="M103.49,-359.99C83.53,-330.52 48.3,-268.12 65.93,-216 72.39,-196.93 161.23,-85.75 175.93,-72 188.99,-59.8 205.14,-48.52 219.51,-39.53"/>
<polygon fill="black" stroke="black" points="221.1,-42.66 227.82,-34.47 217.46,-36.68 221.1,-42.66"/>
</g>
<!-- r2_node_18 -->
<g id="node11" class="node">
<title>r2_node_18</title>
<ellipse fill="none" stroke="black" cx="129.93" cy="-234" rx="54.93" ry="18"/>
<text text-anchor="middle" x="129.93" y="-228.95" font-family="Times,serif" font-size="14.00">r2_node_18</text>
</g>
<!-- r2_node_15&#45;&gt;r2_node_18 -->
<g id="edge19" class="edge">
<title>r2_node_15&#45;&gt;r2_node_18</title>
<path fill="none" stroke="black" d="M117.65,-359.59C120.01,-335.61 124.3,-292.14 127.13,-263.42"/>
<polygon fill="black" stroke="black" points="130.6,-263.91 128.1,-253.62 123.63,-263.23 130.6,-263.91"/>
</g>
<!-- r2_node_8&#45;&gt;r2_node_26 -->
<g id="edge10" class="edge">
<title>r2_node_8&#45;&gt;r2_node_26</title>
<path fill="none" stroke="black" d="M432.57,-108.28C417.79,-160.33 351.27,-316.92 242.93,-396 206.84,-422.35 157.7,-435.69 118.63,-442.39"/>
<polygon fill="black" stroke="black" points="118.19,-438.92 108.87,-443.95 119.29,-445.83 118.19,-438.92"/>
</g>
<!-- r2_node_12 -->
<g id="node6" class="node">
<title>r2_node_12</title>
<ellipse fill="none" stroke="black" cx="223.93" cy="-162" rx="54.93" ry="18"/>
<text text-anchor="middle" x="223.93" y="-156.95" font-family="Times,serif" font-size="14.00">r2_node_12</text>
</g>
<!-- r2_node_8&#45;&gt;r2_node_12 -->
<g id="edge11" class="edge">
<title>r2_node_8&#45;&gt;r2_node_12</title>
<path fill="none" stroke="black" d="M401.56,-103.85C367.52,-115.72 314.47,-133.35 275.15,-145.89"/>
<polygon fill="black" stroke="black" points="274.11,-142.55 265.64,-148.91 276.23,-149.22 274.11,-142.55"/>
</g>
<!-- r2_node_21 -->
<g id="node8" class="node">
<title>r2_node_21</title>
<ellipse fill="none" stroke="black" cx="506.93" cy="-18" rx="54.93" ry="18"/>
<text text-anchor="middle" x="506.93" y="-12.95" font-family="Times,serif" font-size="14.00">r2_node_21</text>
</g>
<!-- r2_node_8&#45;&gt;r2_node_21 -->
<g id="edge12" class="edge">
<title>r2_node_8&#45;&gt;r2_node_21</title>
<path fill="none" stroke="black" d="M451.63,-72.76C460.72,-63.93 472.14,-52.83 482.23,-43.01"/>
<polygon fill="black" stroke="black" points="484.51,-45.68 489.24,-36.2 479.63,-40.66 484.51,-45.68"/>
</g>
<!-- r2_node_20&#45;&gt;r2_node_26 -->
<g id="edge7" class="edge">
<title>r2_node_20&#45;&gt;r2_node_26</title>
<path fill="none" stroke="black" d="M267.87,-251.91C273.12,-270.45 275.27,-300.69 264.93,-324 237.64,-385.55 162.95,-419.52 110.35,-435.99"/>
<polygon fill="black" stroke="black" points="109.51,-432.59 100.94,-438.82 111.52,-439.3 109.51,-432.59"/>
</g>
<!-- r2_node_20&#45;&gt;r2_node_12 -->
<g id="edge5" class="edge">
<title>r2_node_20&#45;&gt;r2_node_12</title>
<path fill="none" stroke="black" d="M244.04,-216.41C239.5,-208.79 234.75,-199.55 230.86,-190.9"/>
<polygon fill="black" stroke="black" points="234.16,-189.71 227.06,-181.84 227.7,-192.42 234.16,-189.71"/>
</g>
<!-- r2_node_20&#45;&gt;r2_node_17 -->
<g id="edge6" class="edge">
<title>r2_node_20&#45;&gt;r2_node_17</title>
<path fill="none" stroke="black" d="M247.96,-251.8C240.56,-260.65 230.38,-271.65 220.66,-281.35"/>
<polygon fill="black" stroke="black" points="218.49,-278.58 213.76,-288.06 223.37,-283.6 218.49,-278.58"/>
</g>
<!-- r2_node_12&#45;&gt;r2_node_8 -->
<g id="edge13" class="edge">
<title>r2_node_12&#45;&gt;r2_node_8</title>
<path fill="none" stroke="black" d="M258.68,-147.67C293.41,-135.58 346.91,-117.82 385.92,-105.41"/>
<polygon fill="black" stroke="black" points="386.84,-108.79 395.32,-102.44 384.73,-102.11 386.84,-108.79"/>
</g>
<!-- r2_node_12&#45;&gt;r2_node_20 -->
<g id="edge14" class="edge">
<title>r2_node_12&#45;&gt;r2_node_20</title>
<path fill="none" stroke="black" d="M237.85,-179.62C242.4,-187.27 247.17,-196.55 251.06,-205.22"/>
<polygon fill="black" stroke="black" points="247.77,-206.43 254.86,-214.3 254.23,-203.72 247.77,-206.43"/>
</g>
<!-- r2_node_28 -->
<g id="node9" class="node">
<title>r2_node_28</title>
<ellipse fill="none" stroke="black" cx="239.93" cy="-90" rx="54.93" ry="18"/>
<text text-anchor="middle" x="239.93" y="-84.95" font-family="Times,serif" font-size="14.00">r2_node_28</text>
</g>
<!-- r2_node_12&#45;&gt;r2_node_28 -->
<g id="edge15" class="edge">
<title>r2_node_12&#45;&gt;r2_node_28</title>
<path fill="none" stroke="black" d="M221.97,-143.7C222.91,-136.24 224.71,-127.32 226.91,-118.97"/>
<polygon fill="black" stroke="black" points="230.22,-120.14 229.7,-109.56 223.51,-118.15 230.22,-120.14"/>
</g>
<!-- r2_node_17&#45;&gt;r2_node_15 -->
<g id="edge9" class="edge">
<title>r2_node_17&#45;&gt;r2_node_15</title>
<path fill="none" stroke="black" d="M179.4,-323.96C170.48,-333.07 158.32,-344.42 146.97,-354.28"/>
<polygon fill="black" stroke="black" points="145.02,-351.34 139.67,-360.48 149.56,-356.67 145.02,-351.34"/>
</g>
<!-- r2_node_17&#45;&gt;r2_node_20 -->
<g id="edge8" class="edge">
<title>r2_node_17&#45;&gt;r2_node_20</title>
<path fill="none" stroke="black" d="M202.03,-288.05C209.31,-279.35 219.26,-268.61 228.8,-259.06"/>
<polygon fill="black" stroke="black" points="231.2,-261.61 235.92,-252.12 226.31,-256.6 231.2,-261.61"/>
</g>
<!-- r2_node_28&#45;&gt;r2_node_24 -->
<g id="edge20" class="edge">
<title>r2_node_28&#45;&gt;r2_node_24</title>
<path fill="none" stroke="black" d="M216.19,-73.46C201.36,-63.77 182.07,-51.15 165.79,-40.5"/>
<polygon fill="black" stroke="black" points="168.17,-37.87 157.88,-35.32 164.33,-43.72 168.17,-37.87"/>
</g>
<!-- r2_node_28&#45;&gt;r2_node_12 -->
<g id="edge22" class="edge">
<title>r2_node_28&#45;&gt;r2_node_12</title>
<path fill="none" stroke="black" d="M241.9,-108.28C240.96,-115.77 239.15,-124.75 236.92,-133.15"/>
<polygon fill="black" stroke="black" points="233.61,-132.02 234.12,-142.6 240.32,-134.01 233.61,-132.02"/>
</g>
<!-- r2_node_28&#45;&gt;r2_node_4 -->
<g id="edge21" class="edge">
<title>r2_node_28&#45;&gt;r2_node_4</title>
<path fill="none" stroke="black" d="M243.89,-71.7C245.57,-64.32 247.59,-55.52 249.48,-47.25"/>
<polygon fill="black" stroke="black" points="252.87,-48.11 251.69,-37.58 246.05,-46.55 252.87,-48.11"/>
</g>
<!-- r2_node_11 -->
<g id="node12" class="node">
<title>r2_node_11</title>
<ellipse fill="none" stroke="black" cx="378.93" cy="-18" rx="54.93" ry="18"/>
<text text-anchor="middle" x="378.93" y="-12.95" font-family="Times,serif" font-size="14.00">r2_node_11</text>
</g>
<!-- r2_node_28&#45;&gt;r2_node_11 -->
<g id="edge23" class="edge">
<title>r2_node_28&#45;&gt;r2_node_11</title>
<path fill="none" stroke="black" d="M269.07,-74.33C289.55,-64.01 317.19,-50.1 339.62,-38.8"/>
<polygon fill="black" stroke="black" points="341.12,-41.96 348.48,-34.34 337.98,-35.71 341.12,-41.96"/>
</g>
</g>
</svg>
