<?xml version="1.0" encoding="UTF-8" standalone="no"?>
<!DOCTYPE svg PUBLIC "-//W3C//DTD SVG 1.1//EN"
 "http://www.w3.org/Graphics/SVG/1.1/DTD/svg11.dtd">
<!-- Generated by graphviz version 12.2.1 (20241206.2353)
 -->
<!-- Pages: 1 -->
<svg width="998pt" height="1052pt"
 viewBox="0.00 0.00 997.87 1052.00" xmlns="http://www.w3.org/2000/svg" xmlns:xlink="http://www.w3.org/1999/xlink">
<g id="graph0" class="graph" transform="scale(1 1) rotate(0) translate(4 1048)">
<polygon fill="white" stroke="none" points="-4,4 -4,-1048 993.87,-1048 993.87,4 -4,4"/>
<!-- r2_node_19 -->
<g id="node1" class="node">
<title>r2_node_19</title>
<ellipse fill="none" stroke="black" cx="263.93" cy="-1026" rx="54.93" ry="18"/>
<text text-anchor="middle" x="263.93" y="-1020.95" font-family="Times,serif" font-size="14.00">r2_node_19</text>
</g>
<!-- r2_node_7 -->
<g id="node2" class="node">
<title>r2_node_7</title>
<ellipse fill="none" stroke="black" cx="220.93" cy="-954" rx="50.33" ry="18"/>
<text text-anchor="middle" x="220.93" y="-948.95" font-family="Times,serif" font-size="14.00">r2_node_7</text>
</g>
<!-- r2_node_19&#45;&gt;r2_node_7 -->
<g id="edge1" class="edge">
<title>r2_node_19&#45;&gt;r2_node_7</title>
<path fill="none" stroke="black" d="M247.9,-1008.41C242.19,-1000.51 236.01,-990.85 230.89,-981.94"/>
<polygon fill="black" stroke="black" points="234.04,-980.4 226.19,-973.29 227.89,-983.74 234.04,-980.4"/>
</g>
<!-- r2_node_18 -->
<g id="node3" class="node">
<title>r2_node_18</title>
<ellipse fill="none" stroke="black" cx="352.93" cy="-738" rx="54.93" ry="18"/>
<text text-anchor="middle" x="352.93" y="-732.95" font-family="Times,serif" font-size="14.00">r2_node_18</text>
</g>
<!-- r2_node_19&#45;&gt;r2_node_18 -->
<g id="edge2" class="edge">
<title>r2_node_19&#45;&gt;r2_node_18</title>
<path fill="none" stroke="black" d="M269.79,-1007.71C286.41,-974.48 329.54,-898.73 344.93,-828 349.24,-808.22 348.88,-785.38 348.7,-767.79"/>
<polygon fill="black" stroke="black" points="352.2,-767.8 348.68,-757.81 345.2,-767.81 352.2,-767.8"/>
</g>
<!-- r2_node_29 -->
<g id="node4" class="node">
<title>r2_node_29</title>
<ellipse fill="none" stroke="black" cx="934.93" cy="-162" rx="54.93" ry="18"/>
<text text-anchor="middle" x="934.93" y="-156.95" font-family="Times,serif" font-size="14.00">r2_node_29</text>
</g>
<!-- r2_node_19&#45;&gt;r2_node_29 -->
<g id="edge3" class="edge">
<title>r2_node_19&#45;&gt;r2_node_29</title>
<path fill="none" stroke="black" d="M285.48,-1009.22C298.44,-999.24 314.89,-985.68 327.93,-972 594.66,-692.16 851.57,-295.28 918.26,-189.66"/>
<polygon fill="black" stroke="black" points="921.12,-191.7 923.48,-181.38 915.19,-187.97 921.12,-191.7"/>
</g>
<!-- r2_node_7&#45;&gt;r2_node_19 -->
<g id="edge35" class="edge">
<title>r2_node_7&#45;&gt;r2_node_19</title>
<path fill="none" stroke="black" d="M236.64,-971.14C242.36,-979.01 248.57,-988.68 253.73,-997.64"/>
<polygon fill="black" stroke="black" points="250.63,-999.27 258.5,-1006.37 256.78,-995.91 250.63,-999.27"/>
</g>
<!-- r2_node_23 -->
<g id="node24" class="node">
<title>r2_node_23</title>
<ellipse fill="none" stroke="black" cx="218.93" cy="-882" rx="54.93" ry="18"/>
<text text-anchor="middle" x="218.93" y="-876.95" font-family="Times,serif" font-size="14.00">r2_node_23</text>
</g>
<!-- r2_node_7&#45;&gt;r2_node_23 -->
<g id="edge34" class="edge">
<title>r2_node_7&#45;&gt;r2_node_23</title>
<path fill="none" stroke="black" d="M214.52,-935.7C213.56,-928.41 213.07,-919.73 213.1,-911.54"/>
<polygon fill="black" stroke="black" points="216.6,-911.74 213.47,-901.62 209.6,-911.48 216.6,-911.74"/>
</g>
<!-- r2_node_18&#45;&gt;r2_node_19 -->
<g id="edge17" class="edge">
<title>r2_node_18&#45;&gt;r2_node_19</title>
<path fill="none" stroke="black" d="M362.03,-755.96C366.42,-774.04 368.29,-803.39 362.93,-828 348.76,-893.15 311.04,-962.57 286.2,-999.08"/>
<polygon fill="black" stroke="black" points="283.35,-997.05 280.44,-1007.24 289.07,-1001.09 283.35,-997.05"/>
</g>
<!-- r2_node_15 -->
<g id="node12" class="node">
<title>r2_node_15</title>
<ellipse fill="none" stroke="black" cx="238.93" cy="-18" rx="54.93" ry="18"/>
<text text-anchor="middle" x="238.93" y="-12.95" font-family="Times,serif" font-size="14.00">r2_node_15</text>
</g>
<!-- r2_node_18&#45;&gt;r2_node_15 -->
<g id="edge19" class="edge">
<title>r2_node_18&#45;&gt;r2_node_15</title>
<path fill="none" stroke="black" d="M337.81,-720.25C308.05,-679.23 244.74,-569.64 222.93,-468 189.46,-312 213.98,-118.46 229.76,-47.11"/>
<polygon fill="black" stroke="black" points="233.15,-47.99 232.05,-37.46 226.34,-46.38 233.15,-47.99"/>
</g>
<!-- r2_node_25 -->
<g id="node19" class="node">
<title>r2_node_25</title>
<ellipse fill="none" stroke="black" cx="289.93" cy="-810" rx="54.93" ry="18"/>
<text text-anchor="middle" x="289.93" y="-804.95" font-family="Times,serif" font-size="14.00">r2_node_25</text>
</g>
<!-- r2_node_18&#45;&gt;r2_node_25 -->
<g id="edge18" class="edge">
<title>r2_node_18&#45;&gt;r2_node_25</title>
<path fill="none" stroke="black" d="M343.68,-755.8C336.73,-764.56 327.14,-775.43 317.92,-785.06"/>
<polygon fill="black" stroke="black" points="315.57,-782.46 311.05,-792.04 320.56,-787.37 315.57,-782.46"/>
</g>
<!-- r2_node_6 -->
<g id="node20" class="node">
<title>r2_node_6</title>
<ellipse fill="none" stroke="black" cx="457.93" cy="-666" rx="50.33" ry="18"/>
<text text-anchor="middle" x="457.93" y="-660.95" font-family="Times,serif" font-size="14.00">r2_node_6</text>
</g>
<!-- r2_node_18&#45;&gt;r2_node_6 -->
<g id="edge20" class="edge">
<title>r2_node_18&#45;&gt;r2_node_6</title>
<path fill="none" stroke="black" d="M371.49,-720.76C385.26,-710.84 404.31,-698.05 421.07,-687.44"/>
<polygon fill="black" stroke="black" points="422.7,-690.55 429.34,-682.28 419,-684.61 422.7,-690.55"/>
</g>
<!-- r2_node_21 -->
<g id="node5" class="node">
<title>r2_node_21</title>
<ellipse fill="none" stroke="black" cx="54.93" cy="-594" rx="54.93" ry="18"/>
<text text-anchor="middle" x="54.93" y="-588.95" font-family="Times,serif" font-size="14.00">r2_node_21</text>
</g>
<!-- r2_node_16 -->
<g id="node6" class="node">
<title>r2_node_16</title>
<ellipse fill="none" stroke="black" cx="154.93" cy="-810" rx="54.93" ry="18"/>
<text text-anchor="middle" x="154.93" y="-804.95" font-family="Times,serif" font-size="14.00">r2_node_16</text>
</g>
<!-- r2_node_21&#45;&gt;r2_node_16 -->
<g id="edge4" class="edge">
<title>r2_node_21&#45;&gt;r2_node_16</title>
<path fill="none" stroke="black" d="M98.73,-605.11C145.84,-617.45 214.67,-637.9 221.93,-648 252.67,-690.73 213.08,-751.43 182.81,-784.76"/>
<polygon fill="black" stroke="black" points="180.36,-782.25 176.01,-791.91 185.44,-787.07 180.36,-782.25"/>
</g>
<!-- r2_node_16&#45;&gt;r2_node_21 -->
<g id="edge30" class="edge">
<title>r2_node_16&#45;&gt;r2_node_21</title>
<path fill="none" stroke="black" d="M165.4,-792.04C188.47,-761.01 237.07,-694.07 203.93,-648 197.65,-639.26 145.25,-622.76 104.27,-610.49"/>
<polygon fill="black" stroke="black" points="105.36,-607.16 94.77,-607.66 103.36,-613.87 105.36,-607.16"/>
</g>
<!-- r2_node_10 -->
<g id="node15" class="node">
<title>r2_node_10</title>
<ellipse fill="none" stroke="black" cx="115.93" cy="-522" rx="54.93" ry="18"/>
<text text-anchor="middle" x="115.93" y="-516.95" font-family="Times,serif" font-size="14.00">r2_node_10</text>
</g>
<!-- r2_node_16&#45;&gt;r2_node_10 -->
<g id="edge29" class="edge">
<title>r2_node_16&#45;&gt;r2_node_10</title>
<path fill="none" stroke="black" d="M179.62,-793.52C193.93,-784.65 210.85,-772.07 220.93,-756 246.6,-715.09 251.5,-692.58 232.93,-648 214.73,-604.3 173,-568.03 144.48,-546.01"/>
<polygon fill="black" stroke="black" points="146.65,-543.27 136.57,-540.02 142.42,-548.85 146.65,-543.27"/>
</g>
<!-- r2_node_11 -->
<g id="node16" class="node">
<title>r2_node_11</title>
<ellipse fill="none" stroke="black" cx="148.93" cy="-666" rx="54.93" ry="18"/>
<text text-anchor="middle" x="148.93" y="-660.95" font-family="Times,serif" font-size="14.00">r2_node_11</text>
</g>
<!-- r2_node_16&#45;&gt;r2_node_11 -->
<g id="edge28" class="edge">
<title>r2_node_16&#45;&gt;r2_node_11</title>
<path fill="none" stroke="black" d="M149.58,-791.59C146.07,-767.61 143.93,-724.14 144.61,-695.42"/>
<polygon fill="black" stroke="black" points="148.1,-695.76 145.01,-685.62 141.1,-695.47 148.1,-695.76"/>
</g>
<!-- r2_node_16&#45;&gt;r2_node_23 -->
<g id="edge27" class="edge">
<title>r2_node_16&#45;&gt;r2_node_23</title>
<path fill="none" stroke="black" d="M175.16,-826.83C183.82,-835.23 193.71,-845.77 201.98,-855.31"/>
<polygon fill="black" stroke="black" points="199.24,-857.49 208.35,-862.9 204.6,-852.99 199.24,-857.49"/>
</g>
<!-- r2_node_17 -->
<g id="node7" class="node">
<title>r2_node_17</title>
<ellipse fill="none" stroke="black" cx="426.93" cy="-18" rx="54.93" ry="18"/>
<text text-anchor="middle" x="426.93" y="-12.95" font-family="Times,serif" font-size="14.00">r2_node_17</text>
</g>
<!-- r2_node_20 -->
<g id="node8" class="node">
<title>r2_node_20</title>
<ellipse fill="none" stroke="black" cx="406.93" cy="-306" rx="54.93" ry="18"/>
<text text-anchor="middle" x="406.93" y="-300.95" font-family="Times,serif" font-size="14.00">r2_node_20</text>
</g>
<!-- r2_node_17&#45;&gt;r2_node_20 -->
<g id="edge5" class="edge">
<title>r2_node_17&#45;&gt;r2_node_20</title>
<path fill="none" stroke="black" d="M473.68,-27.76C498.5,-35.27 526.59,-48.7 540.93,-72 549.32,-85.63 543.5,-92.21 540.93,-108 529.99,-175.47 528.96,-198.09 486.93,-252 476.81,-264.98 462.74,-276.37 449.14,-285.23"/>
<polygon fill="black" stroke="black" points="447.36,-282.22 440.67,-290.43 451.03,-288.19 447.36,-282.22"/>
</g>
<!-- r2_node_20&#45;&gt;r2_node_17 -->
<g id="edge63" class="edge">
<title>r2_node_20&#45;&gt;r2_node_17</title>
<path fill="none" stroke="black" d="M427.09,-289.03C440.46,-279.74 457.3,-266.92 468.93,-252 510.96,-198.09 511.99,-175.47 522.93,-108 525.5,-92.21 531.32,-85.63 522.93,-72 512.42,-54.92 494.52,-43.14 476.95,-35.12"/>
<polygon fill="black" stroke="black" points="478.68,-32.04 468.1,-31.4 475.97,-38.5 478.68,-32.04"/>
</g>
<!-- r2_node_26 -->
<g id="node13" class="node">
<title>r2_node_26</title>
<ellipse fill="none" stroke="black" cx="304.93" cy="-378" rx="54.93" ry="18"/>
<text text-anchor="middle" x="304.93" y="-372.95" font-family="Times,serif" font-size="14.00">r2_node_26</text>
</g>
<!-- r2_node_20&#45;&gt;r2_node_26 -->
<g id="edge64" class="edge">
<title>r2_node_20&#45;&gt;r2_node_26</title>
<path fill="none" stroke="black" d="M388.78,-323.46C375.76,-333.12 357.97,-345.43 342.07,-355.81"/>
<polygon fill="black" stroke="black" points="340.26,-352.81 333.75,-361.16 344.05,-358.7 340.26,-352.81"/>
</g>
<!-- r2_node_12 -->
<g id="node26" class="node">
<title>r2_node_12</title>
<ellipse fill="none" stroke="black" cx="413.93" cy="-234" rx="54.93" ry="18"/>
<text text-anchor="middle" x="413.93" y="-228.95" font-family="Times,serif" font-size="14.00">r2_node_12</text>
</g>
<!-- r2_node_20&#45;&gt;r2_node_12 -->
<g id="edge62" class="edge">
<title>r2_node_20&#45;&gt;r2_node_12</title>
<path fill="none" stroke="black" d="M402.75,-287.7C402.73,-280.32 403.36,-271.52 404.47,-263.25"/>
<polygon fill="black" stroke="black" points="407.89,-264.04 406.08,-253.6 400.98,-262.89 407.89,-264.04"/>
</g>
<!-- r2_node_30 -->
<g id="node9" class="node">
<title>r2_node_30</title>
<ellipse fill="none" stroke="black" cx="624.93" cy="-306" rx="54.93" ry="18"/>
<text text-anchor="middle" x="624.93" y="-300.95" font-family="Times,serif" font-size="14.00">r2_node_30</text>
</g>
<!-- r2_node_30&#45;&gt;r2_node_29 -->
<g id="edge7" class="edge">
<title>r2_node_30&#45;&gt;r2_node_29</title>
<path fill="none" stroke="black" d="M656.08,-290.73C712.25,-265 830.52,-210.83 893.46,-182"/>
<polygon fill="black" stroke="black" points="894.8,-185.23 902.44,-177.89 891.89,-178.87 894.8,-185.23"/>
</g>
<!-- r2_node_22 -->
<g id="node10" class="node">
<title>r2_node_22</title>
<ellipse fill="none" stroke="black" cx="465.93" cy="-378" rx="54.93" ry="18"/>
<text text-anchor="middle" x="465.93" y="-372.95" font-family="Times,serif" font-size="14.00">r2_node_22</text>
</g>
<!-- r2_node_30&#45;&gt;r2_node_22 -->
<g id="edge6" class="edge">
<title>r2_node_30&#45;&gt;r2_node_22</title>
<path fill="none" stroke="black" d="M596.94,-321.8C573.36,-332.79 539.34,-347.81 511.83,-359.41"/>
<polygon fill="black" stroke="black" points="510.52,-356.16 502.65,-363.25 513.22,-362.62 510.52,-356.16"/>
</g>
<!-- r2_node_1 -->
<g id="node11" class="node">
<title>r2_node_1</title>
<ellipse fill="none" stroke="black" cx="661.93" cy="-234" rx="50.33" ry="18"/>
<text text-anchor="middle" x="661.93" y="-228.95" font-family="Times,serif" font-size="14.00">r2_node_1</text>
</g>
<!-- r2_node_30&#45;&gt;r2_node_1 -->
<g id="edge8" class="edge">
<title>r2_node_30&#45;&gt;r2_node_1</title>
<path fill="none" stroke="black" d="M628.16,-287.7C631.53,-279.78 636.36,-270.23 641.39,-261.44"/>
<polygon fill="black" stroke="black" points="644.36,-263.29 646.52,-252.92 638.37,-259.68 644.36,-263.29"/>
</g>
<!-- r2_node_22&#45;&gt;r2_node_30 -->
<g id="edge33" class="edge">
<title>r2_node_22&#45;&gt;r2_node_30</title>
<path fill="none" stroke="black" d="M494.02,-362.15C517.59,-351.17 551.56,-336.17 579.04,-324.59"/>
<polygon fill="black" stroke="black" points="580.33,-327.84 588.21,-320.76 577.63,-321.38 580.33,-327.84"/>
</g>
<!-- r2_node_24 -->
<g id="node17" class="node">
<title>r2_node_24</title>
<ellipse fill="none" stroke="black" cx="295.93" cy="-450" rx="54.93" ry="18"/>
<text text-anchor="middle" x="295.93" y="-444.95" font-family="Times,serif" font-size="14.00">r2_node_24</text>
</g>
<!-- r2_node_22&#45;&gt;r2_node_24 -->
<g id="edge32" class="edge">
<title>r2_node_22&#45;&gt;r2_node_24</title>
<path fill="none" stroke="black" d="M436.15,-393.57C410.39,-404.77 372.87,-420.25 343.07,-432.01"/>
<polygon fill="black" stroke="black" points="341.92,-428.7 333.89,-435.61 344.48,-435.22 341.92,-428.7"/>
</g>
<!-- r2_node_14 -->
<g id="node21" class="node">
<title>r2_node_14</title>
<ellipse fill="none" stroke="black" cx="584.93" cy="-18" rx="54.93" ry="18"/>
<text text-anchor="middle" x="584.93" y="-12.95" font-family="Times,serif" font-size="14.00">r2_node_14</text>
</g>
<!-- r2_node_22&#45;&gt;r2_node_14 -->
<g id="edge31" class="edge">
<title>r2_node_22&#45;&gt;r2_node_14</title>
<path fill="none" stroke="black" d="M468.73,-359.64C480.1,-325.68 514.02,-247.85 535.93,-180 550.76,-134.11 563.3,-79.38 572.73,-47"/>
<polygon fill="black" stroke="black" points="576.03,-48.17 575.61,-37.58 569.33,-46.12 576.03,-48.17"/>
</g>
<!-- r2_node_1&#45;&gt;r2_node_29 -->
<g id="edge51" class="edge">
<title>r2_node_1&#45;&gt;r2_node_29</title>
<path fill="none" stroke="black" d="M701.92,-222.75C749.39,-210.58 828.73,-190.23 881.44,-176.72"/>
<polygon fill="black" stroke="black" points="882.31,-180.11 891.13,-174.23 880.57,-173.33 882.31,-180.11"/>
</g>
<!-- r2_node_1&#45;&gt;r2_node_30 -->
<g id="edge48" class="edge">
<title>r2_node_1&#45;&gt;r2_node_30</title>
<path fill="none" stroke="black" d="M658.64,-252.45C655.27,-260.36 650.45,-269.88 645.44,-278.63"/>
<polygon fill="black" stroke="black" points="642.49,-276.74 640.32,-287.11 648.48,-280.36 642.49,-276.74"/>
</g>
<!-- r2_node_1&#45;&gt;r2_node_14 -->
<g id="edge49" class="edge">
<title>r2_node_1&#45;&gt;r2_node_14</title>
<path fill="none" stroke="black" d="M657.64,-215.96C655.09,-185.37 654.15,-119.87 629.93,-72 624.57,-61.39 616.24,-51.65 608.12,-43.5"/>
<polygon fill="black" stroke="black" points="610.6,-41.03 600.95,-36.65 605.76,-46.09 610.6,-41.03"/>
</g>
<!-- r2_node_9 -->
<g id="node28" class="node">
<title>r2_node_9</title>
<ellipse fill="none" stroke="black" cx="752.93" cy="-162" rx="50.33" ry="18"/>
<text text-anchor="middle" x="752.93" y="-156.95" font-family="Times,serif" font-size="14.00">r2_node_9</text>
</g>
<!-- r2_node_1&#45;&gt;r2_node_9 -->
<g id="edge50" class="edge">
<title>r2_node_1&#45;&gt;r2_node_9</title>
<path fill="none" stroke="black" d="M677.66,-216.41C689.03,-206.86 704.63,-194.75 718.73,-184.48"/>
<polygon fill="black" stroke="black" points="720.4,-187.59 726.49,-178.92 716.33,-181.9 720.4,-187.59"/>
</g>
<!-- r2_node_15&#45;&gt;r2_node_18 -->
<g id="edge11" class="edge">
<title>r2_node_15&#45;&gt;r2_node_18</title>
<path fill="none" stroke="black" d="M239.48,-36.4C234.88,-96.9 205.61,-303.35 240.93,-468 261.07,-561.83 316.56,-662.44 341.33,-709.62"/>
<polygon fill="black" stroke="black" points="338.12,-711.03 345.83,-718.3 344.34,-707.81 338.12,-711.03"/>
</g>
<!-- r2_node_15&#45;&gt;r2_node_26 -->
<g id="edge9" class="edge">
<title>r2_node_15&#45;&gt;r2_node_26</title>
<path fill="none" stroke="black" d="M245.18,-36.09C260.3,-93.14 294.52,-277.37 303.55,-348.56"/>
<polygon fill="black" stroke="black" points="300.05,-348.7 304.68,-358.23 307,-347.89 300.05,-348.7"/>
</g>
<!-- r2_node_4 -->
<g id="node14" class="node">
<title>r2_node_4</title>
<ellipse fill="none" stroke="black" cx="472.93" cy="-90" rx="50.33" ry="18"/>
<text text-anchor="middle" x="472.93" y="-84.95" font-family="Times,serif" font-size="14.00">r2_node_4</text>
</g>
<!-- r2_node_15&#45;&gt;r2_node_4 -->
<g id="edge10" class="edge">
<title>r2_node_15&#45;&gt;r2_node_4</title>
<path fill="none" stroke="black" d="M280.84,-30.02C321.87,-41.7 384.07,-60.24 426.55,-73.41"/>
<polygon fill="black" stroke="black" points="425.41,-76.72 436,-76.36 427.49,-70.04 425.41,-76.72"/>
</g>
<!-- r2_node_26&#45;&gt;r2_node_20 -->
<g id="edge60" class="edge">
<title>r2_node_26&#45;&gt;r2_node_20</title>
<path fill="none" stroke="black" d="M322.79,-360.76C335.84,-351.07 353.79,-338.64 369.83,-328.17"/>
<polygon fill="black" stroke="black" points="371.71,-331.12 378.22,-322.77 367.92,-325.24 371.71,-331.12"/>
</g>
<!-- r2_node_26&#45;&gt;r2_node_15 -->
<g id="edge61" class="edge">
<title>r2_node_26&#45;&gt;r2_node_15</title>
<path fill="none" stroke="black" d="M298.64,-359.73C283.48,-302.43 249.27,-118.18 240.29,-47.22"/>
<polygon fill="black" stroke="black" points="243.8,-47.12 239.16,-37.6 236.85,-47.94 243.8,-47.12"/>
</g>
<!-- r2_node_26&#45;&gt;r2_node_24 -->
<g id="edge59" class="edge">
<title>r2_node_26&#45;&gt;r2_node_24</title>
<path fill="none" stroke="black" d="M308.63,-396.28C308.44,-403.69 307.54,-412.54 306.19,-420.86"/>
<polygon fill="black" stroke="black" points="302.77,-420.08 304.28,-430.57 309.64,-421.43 302.77,-420.08"/>
</g>
<!-- r2_node_8 -->
<g id="node25" class="node">
<title>r2_node_8</title>
<ellipse fill="none" stroke="black" cx="353.93" cy="-90" rx="50.33" ry="18"/>
<text text-anchor="middle" x="353.93" y="-84.95" font-family="Times,serif" font-size="14.00">r2_node_8</text>
</g>
<!-- r2_node_26&#45;&gt;r2_node_8 -->
<g id="edge58" class="edge">
<title>r2_node_26&#45;&gt;r2_node_8</title>
<path fill="none" stroke="black" d="M304.48,-359.54C308.56,-311.66 331.2,-177.95 344.87,-119.24"/>
<polygon fill="black" stroke="black" points="348.22,-120.25 347.19,-109.7 341.42,-118.59 348.22,-120.25"/>
</g>
<!-- r2_node_4&#45;&gt;r2_node_15 -->
<g id="edge56" class="edge">
<title>r2_node_4&#45;&gt;r2_node_15</title>
<path fill="none" stroke="black" d="M433.19,-78.6C392.71,-67.1 330.11,-48.46 286.91,-35.08"/>
<polygon fill="black" stroke="black" points="288.14,-31.8 277.55,-32.17 286.06,-38.48 288.14,-31.8"/>
</g>
<!-- r2_node_28 -->
<g id="node27" class="node">
<title>r2_node_28</title>
<ellipse fill="none" stroke="black" cx="443.93" cy="-162" rx="54.93" ry="18"/>
<text text-anchor="middle" x="443.93" y="-156.95" font-family="Times,serif" font-size="14.00">r2_node_28</text>
</g>
<!-- r2_node_4&#45;&gt;r2_node_28 -->
<g id="edge57" class="edge">
<title>r2_node_4&#45;&gt;r2_node_28</title>
<path fill="none" stroke="black" d="M471.69,-108.28C469.31,-115.94 465.72,-125.16 461.84,-133.72"/>
<polygon fill="black" stroke="black" points="458.7,-132.17 457.49,-142.69 465,-135.22 458.7,-132.17"/>
</g>
<!-- r2_node_10&#45;&gt;r2_node_16 -->
<g id="edge12" class="edge">
<title>r2_node_10&#45;&gt;r2_node_16</title>
<path fill="none" stroke="black" d="M145.41,-537.5C178.64,-557.86 230.14,-598.08 250.93,-648 269.5,-692.58 264.6,-715.09 238.93,-756 229.91,-770.37 215.43,-781.96 200.94,-790.59"/>
<polygon fill="black" stroke="black" points="199.36,-787.46 192.29,-795.35 202.74,-793.59 199.36,-787.46"/>
</g>
<!-- r2_node_11&#45;&gt;r2_node_16 -->
<g id="edge13" class="edge">
<title>r2_node_11&#45;&gt;r2_node_16</title>
<path fill="none" stroke="black" d="M154.24,-684.11C157.77,-707.92 159.92,-751.37 159.27,-780.22"/>
<polygon fill="black" stroke="black" points="155.78,-779.94 158.87,-790.08 162.77,-780.22 155.78,-779.94"/>
</g>
<!-- r2_node_24&#45;&gt;r2_node_22 -->
<g id="edge16" class="edge">
<title>r2_node_24&#45;&gt;r2_node_22</title>
<path fill="none" stroke="black" d="M325.57,-434.5C351.32,-423.3 388.92,-407.78 418.78,-395.99"/>
<polygon fill="black" stroke="black" points="419.95,-399.3 427.98,-392.39 417.4,-392.78 419.95,-399.3"/>
</g>
<!-- r2_node_24&#45;&gt;r2_node_26 -->
<g id="edge15" class="edge">
<title>r2_node_24&#45;&gt;r2_node_26</title>
<path fill="none" stroke="black" d="M292.24,-431.7C292.43,-424.32 293.32,-415.52 294.66,-407.25"/>
<polygon fill="black" stroke="black" points="298.07,-408.08 296.55,-397.59 291.2,-406.73 298.07,-408.08"/>
</g>
<!-- r2_node_3 -->
<g id="node18" class="node">
<title>r2_node_3</title>
<ellipse fill="none" stroke="black" cx="355.93" cy="-522" rx="50.33" ry="18"/>
<text text-anchor="middle" x="355.93" y="-516.95" font-family="Times,serif" font-size="14.00">r2_node_3</text>
</g>
<!-- r2_node_24&#45;&gt;r2_node_3 -->
<g id="edge14" class="edge">
<title>r2_node_24&#45;&gt;r2_node_3</title>
<path fill="none" stroke="black" d="M315.26,-466.83C323.35,-475.15 332.53,-485.56 340.21,-495.02"/>
<polygon fill="black" stroke="black" points="337.43,-497.15 346.35,-502.86 342.94,-492.83 337.43,-497.15"/>
</g>
<!-- r2_node_3&#45;&gt;r2_node_24 -->
<g id="edge26" class="edge">
<title>r2_node_3&#45;&gt;r2_node_24</title>
<path fill="none" stroke="black" d="M336.56,-505.12C328.44,-496.77 319.23,-486.32 311.54,-476.84"/>
<polygon fill="black" stroke="black" points="314.32,-474.71 305.4,-468.99 308.81,-479.02 314.32,-474.71"/>
</g>
<!-- r2_node_5 -->
<g id="node23" class="node">
<title>r2_node_5</title>
<ellipse fill="none" stroke="black" cx="449.93" cy="-594" rx="50.33" ry="18"/>
<text text-anchor="middle" x="449.93" y="-588.95" font-family="Times,serif" font-size="14.00">r2_node_5</text>
</g>
<!-- r2_node_3&#45;&gt;r2_node_5 -->
<g id="edge25" class="edge">
<title>r2_node_3&#45;&gt;r2_node_5</title>
<path fill="none" stroke="black" d="M381.66,-537.95C395.26,-547.22 411.75,-559.32 425.19,-569.81"/>
<polygon fill="black" stroke="black" points="422.74,-572.34 432.75,-575.82 427.1,-566.86 422.74,-572.34"/>
</g>
<!-- r2_node_25&#45;&gt;r2_node_18 -->
<g id="edge47" class="edge">
<title>r2_node_25&#45;&gt;r2_node_18</title>
<path fill="none" stroke="black" d="M299.31,-792.05C306.26,-783.29 315.83,-772.45 325.03,-762.86"/>
<polygon fill="black" stroke="black" points="327.35,-765.49 331.87,-755.91 322.36,-760.58 327.35,-765.49"/>
</g>
<!-- r2_node_25&#45;&gt;r2_node_23 -->
<g id="edge46" class="edge">
<title>r2_node_25&#45;&gt;r2_node_23</title>
<path fill="none" stroke="black" d="M278.76,-827.8C270.65,-836.74 259.54,-847.87 249.03,-857.64"/>
<polygon fill="black" stroke="black" points="246.97,-854.78 241.93,-864.1 251.68,-859.96 246.97,-854.78"/>
</g>
<!-- r2_node_6&#45;&gt;r2_node_18 -->
<g id="edge54" class="edge">
<title>r2_node_6&#45;&gt;r2_node_18</title>
<path fill="none" stroke="black" d="M439.65,-683.04C426.01,-692.88 407.11,-705.58 390.38,-716.19"/>
<polygon fill="black" stroke="black" points="388.75,-713.08 382.12,-721.35 392.46,-719.02 388.75,-713.08"/>
</g>
<!-- r2_node_6&#45;&gt;r2_node_5 -->
<g id="edge55" class="edge">
<title>r2_node_6&#45;&gt;r2_node_5</title>
<path fill="none" stroke="black" d="M450.12,-648.05C448.49,-640.68 447.23,-631.84 446.55,-623.51"/>
<polygon fill="black" stroke="black" points="450.06,-623.6 446.07,-613.79 443.06,-623.95 450.06,-623.6"/>
</g>
<!-- r2_node_14&#45;&gt;r2_node_22 -->
<g id="edge23" class="edge">
<title>r2_node_14&#45;&gt;r2_node_22</title>
<path fill="none" stroke="black" d="M586.93,-36.14C584.35,-65.8 570.58,-128.48 553.93,-180 533.88,-242.07 503.79,-312.5 484.15,-350.05"/>
<polygon fill="black" stroke="black" points="481.07,-348.37 479.38,-358.83 487.23,-351.71 481.07,-348.37"/>
</g>
<!-- r2_node_14&#45;&gt;r2_node_1 -->
<g id="edge21" class="edge">
<title>r2_node_14&#45;&gt;r2_node_1</title>
<path fill="none" stroke="black" d="M613.52,-33.8C626.42,-43.33 640.23,-56.76 647.93,-72 669.5,-114.63 672.61,-171.25 669.63,-204.74"/>
<polygon fill="black" stroke="black" points="666.18,-204.11 668.47,-214.46 673.13,-204.95 666.18,-204.11"/>
</g>
<!-- r2_node_2 -->
<g id="node22" class="node">
<title>r2_node_2</title>
<ellipse fill="none" stroke="black" cx="758.93" cy="-90" rx="50.33" ry="18"/>
<text text-anchor="middle" x="758.93" y="-84.95" font-family="Times,serif" font-size="14.00">r2_node_2</text>
</g>
<!-- r2_node_14&#45;&gt;r2_node_2 -->
<g id="edge22" class="edge">
<title>r2_node_14&#45;&gt;r2_node_2</title>
<path fill="none" stroke="black" d="M621.79,-31.68C650.46,-42.56 690.04,-58.39 719.36,-70.66"/>
<polygon fill="black" stroke="black" points="717.7,-73.76 728.27,-74.41 720.42,-67.31 717.7,-73.76"/>
</g>
<!-- r2_node_14&#45;&gt;r2_node_5 -->
<g id="edge24" class="edge">
<title>r2_node_14&#45;&gt;r2_node_5</title>
<path fill="none" stroke="black" d="M638.11,-22.91C702.28,-29.07 804.13,-43.43 826.93,-72 856.92,-109.57 839.43,-135.63 820.93,-180 788.54,-257.69 760.13,-267.29 697.93,-324 636.43,-380.08 600.54,-370.07 544.93,-432 508.26,-472.85 481.83,-532.15 465.8,-566.21"/>
<polygon fill="black" stroke="black" points="462.77,-564.44 461.61,-574.97 469.08,-567.46 462.77,-564.44"/>
</g>
<!-- r2_node_2&#45;&gt;r2_node_14 -->
<g id="edge68" class="edge">
<title>r2_node_2&#45;&gt;r2_node_14</title>
<path fill="none" stroke="black" d="M723.36,-76.81C694.99,-66.06 655.39,-50.24 625.75,-37.86"/>
<polygon fill="black" stroke="black" points="627.29,-34.71 616.71,-34.06 624.57,-41.16 627.29,-34.71"/>
</g>
<!-- r2_node_2&#45;&gt;r2_node_9 -->
<g id="edge67" class="edge">
<title>r2_node_2&#45;&gt;r2_node_9</title>
<path fill="none" stroke="black" d="M763.37,-108.28C763.5,-115.69 762.98,-124.54 761.98,-132.86"/>
<polygon fill="black" stroke="black" points="758.55,-132.14 760.49,-142.56 765.47,-133.2 758.55,-132.14"/>
</g>
<!-- r2_node_5&#45;&gt;r2_node_29 -->
<g id="edge39" class="edge">
<title>r2_node_5&#45;&gt;r2_node_29</title>
<path fill="none" stroke="black" d="M464.91,-576.68C474.14,-566.39 486.06,-552.7 495.93,-540 531.81,-493.87 526.76,-470.26 570.93,-432 597.98,-408.58 612.19,-414.3 642.93,-396 753.58,-330.15 771.48,-298.98 869.93,-216 881.71,-206.08 894.84,-195.31 906.21,-186.09"/>
<polygon fill="black" stroke="black" points="908.13,-189.03 913.71,-180.02 903.73,-183.59 908.13,-189.03"/>
</g>
<!-- r2_node_5&#45;&gt;r2_node_3 -->
<g id="edge38" class="edge">
<title>r2_node_5&#45;&gt;r2_node_3</title>
<path fill="none" stroke="black" d="M424.36,-578.15C410.77,-568.89 394.24,-556.78 380.77,-546.26"/>
<polygon fill="black" stroke="black" points="383.19,-543.72 373.19,-540.23 378.84,-549.2 383.19,-543.72"/>
</g>
<!-- r2_node_5&#45;&gt;r2_node_6 -->
<g id="edge37" class="edge">
<title>r2_node_5&#45;&gt;r2_node_6</title>
<path fill="none" stroke="black" d="M457.78,-612.1C459.38,-619.37 460.62,-628.04 461.3,-636.24"/>
<polygon fill="black" stroke="black" points="457.8,-636.37 461.8,-646.18 464.79,-636.02 457.8,-636.37"/>
</g>
<!-- r2_node_5&#45;&gt;r2_node_14 -->
<g id="edge40" class="edge">
<title>r2_node_5&#45;&gt;r2_node_14</title>
<path fill="none" stroke="black" d="M450.67,-575.84C458.53,-544.49 486.5,-477.04 526.93,-432 582.54,-370.07 618.43,-380.08 679.93,-324 742.13,-267.29 770.54,-257.69 802.93,-180 821.43,-135.63 838.92,-109.57 808.93,-72 788.82,-46.79 707.19,-32.65 648.21,-25.44"/>
<polygon fill="black" stroke="black" points="648.95,-22 638.61,-24.31 648.13,-28.95 648.95,-22"/>
</g>
<!-- r2_node_23&#45;&gt;r2_node_7 -->
<g id="edge43" class="edge">
<title>r2_node_23&#45;&gt;r2_node_7</title>
<path fill="none" stroke="black" d="M225.32,-900.1C226.29,-907.37 226.79,-916.04 226.77,-924.24"/>
<polygon fill="black" stroke="black" points="223.27,-924.07 226.41,-934.18 230.27,-924.32 223.27,-924.07"/>
</g>
<!-- r2_node_23&#45;&gt;r2_node_16 -->
<g id="edge45" class="edge">
<title>r2_node_23&#45;&gt;r2_node_16</title>
<path fill="none" stroke="black" d="M198.65,-865.12C189.96,-856.68 180.04,-846.1 171.76,-836.55"/>
<polygon fill="black" stroke="black" points="174.51,-834.37 165.4,-828.96 169.14,-838.87 174.51,-834.37"/>
</g>
<!-- r2_node_23&#45;&gt;r2_node_25 -->
<g id="edge44" class="edge">
<title>r2_node_23&#45;&gt;r2_node_25</title>
<path fill="none" stroke="black" d="M230.24,-864.05C238.28,-855.2 249.23,-844.23 259.61,-834.57"/>
<polygon fill="black" stroke="black" points="261.96,-837.16 267,-827.85 257.25,-831.98 261.96,-837.16"/>
</g>
<!-- r2_node_8&#45;&gt;r2_node_26 -->
<g id="edge36" class="edge">
<title>r2_node_8&#45;&gt;r2_node_26</title>
<path fill="none" stroke="black" d="M354.41,-108.31C350.36,-156.11 327.62,-290.32 313.95,-348.97"/>
<polygon fill="black" stroke="black" points="310.6,-347.95 311.62,-358.5 317.4,-349.61 310.6,-347.95"/>
</g>
<!-- r2_node_12&#45;&gt;r2_node_20 -->
<g id="edge41" class="edge">
<title>r2_node_12&#45;&gt;r2_node_20</title>
<path fill="none" stroke="black" d="M418.12,-252.1C418.15,-259.45 417.52,-268.24 416.43,-276.53"/>
<polygon fill="black" stroke="black" points="413,-275.77 414.83,-286.2 419.91,-276.91 413,-275.77"/>
</g>
<!-- r2_node_12&#45;&gt;r2_node_28 -->
<g id="edge42" class="edge">
<title>r2_node_12&#45;&gt;r2_node_28</title>
<path fill="none" stroke="black" d="M415.43,-215.7C417.98,-207.87 421.8,-198.44 425.9,-189.73"/>
<polygon fill="black" stroke="black" points="428.93,-191.48 430.29,-180.98 422.68,-188.35 428.93,-191.48"/>
</g>
<!-- r2_node_28&#45;&gt;r2_node_4 -->
<g id="edge53" class="edge">
<title>r2_node_28&#45;&gt;r2_node_4</title>
<path fill="none" stroke="black" d="M445.19,-143.7C447.62,-135.87 451.31,-126.44 455.28,-117.73"/>
<polygon fill="black" stroke="black" points="458.31,-119.51 459.54,-108.98 452.02,-116.44 458.31,-119.51"/>
</g>
<!-- r2_node_28&#45;&gt;r2_node_12 -->
<g id="edge52" class="edge">
<title>r2_node_28&#45;&gt;r2_node_12</title>
<path fill="none" stroke="black" d="M442.44,-180.28C439.92,-188.03 436.15,-197.36 432.09,-206.01"/>
<polygon fill="black" stroke="black" points="429.09,-204.19 427.75,-214.7 435.35,-207.32 429.09,-204.19"/>
</g>
<!-- r2_node_9&#45;&gt;r2_node_1 -->
<g id="edge66" class="edge">
<title>r2_node_9&#45;&gt;r2_node_1</title>
<path fill="none" stroke="black" d="M737.27,-179.54C725.83,-189.15 710.1,-201.36 695.91,-211.69"/>
<polygon fill="black" stroke="black" points="694.2,-208.61 688.1,-217.27 698.27,-214.3 694.2,-208.61"/>
</g>
<!-- r2_node_9&#45;&gt;r2_node_2 -->
<g id="edge65" class="edge">
<title>r2_node_9&#45;&gt;r2_node_2</title>
<path fill="none" stroke="black" d="M748.5,-143.7C748.37,-136.32 748.89,-127.52 749.88,-119.25"/>
<polygon fill="black" stroke="black" points="753.3,-120.01 751.35,-109.6 746.38,-118.96 753.3,-120.01"/>
</g>
</g>
</svg>
