<?xml version="1.0" encoding="UTF-8" standalone="no"?>
<!DOCTYPE svg PUBLIC "-//W3C//DTD SVG 1.1//EN"
 "http://www.w3.org/Graphics/SVG/1.1/DTD/svg11.dtd">
<!-- Generated by graphviz version 12.2.1 (20241206.2353)
 -->
<!-- Pages: 1 -->
<svg width="552pt" height="404pt"
 viewBox="0.00 0.00 552.10 404.00" xmlns="http://www.w3.org/2000/svg" xmlns:xlink="http://www.w3.org/1999/xlink">
<g id="graph0" class="graph" transform="scale(1 1) rotate(0) translate(4 400)">
<polygon fill="white" stroke="none" points="-4,4 -4,-400 548.1,-400 548.1,4 -4,4"/>
<!-- r2_node_21 -->
<g id="node1" class="node">
<title>r2_node_21</title>
<ellipse fill="none" stroke="black" cx="54.93" cy="-306" rx="54.93" ry="18"/>
<text text-anchor="middle" x="54.93" y="-300.95" font-family="Times,serif" font-size="14.00">r2_node_21</text>
</g>
<!-- r2_node_1 -->
<g id="node2" class="node">
<title>r2_node_1</title>
<ellipse fill="none" stroke="black" cx="187.93" cy="-90" rx="50.33" ry="18"/>
<text text-anchor="middle" x="187.93" y="-84.95" font-family="Times,serif" font-size="14.00">r2_node_1</text>
</g>
<!-- r2_node_19 -->
<g id="node3" class="node">
<title>r2_node_19</title>
<ellipse fill="none" stroke="black" cx="152.93" cy="-162" rx="54.93" ry="18"/>
<text text-anchor="middle" x="152.93" y="-156.95" font-family="Times,serif" font-size="14.00">r2_node_19</text>
</g>
<!-- r2_node_30 -->
<g id="node4" class="node">
<title>r2_node_30</title>
<ellipse fill="none" stroke="black" cx="280.93" cy="-162" rx="54.93" ry="18"/>
<text text-anchor="middle" x="280.93" y="-156.95" font-family="Times,serif" font-size="14.00">r2_node_30</text>
</g>
<!-- r2_node_15 -->
<g id="node5" class="node">
<title>r2_node_15</title>
<ellipse fill="none" stroke="black" cx="95.93" cy="-378" rx="54.93" ry="18"/>
<text text-anchor="middle" x="95.93" y="-372.95" font-family="Times,serif" font-size="14.00">r2_node_15</text>
</g>
<!-- r2_node_15&#45;&gt;r2_node_21 -->
<g id="edge2" class="edge">
<title>r2_node_15&#45;&gt;r2_node_21</title>
<path fill="none" stroke="black" d="M86.01,-360.05C81.38,-352.14 75.75,-342.54 70.57,-333.69"/>
<polygon fill="black" stroke="black" points="73.61,-331.95 65.53,-325.1 67.57,-335.49 73.61,-331.95"/>
</g>
<!-- r2_node_3 -->
<g id="node6" class="node">
<title>r2_node_3</title>
<ellipse fill="none" stroke="black" cx="91.93" cy="-18" rx="50.33" ry="18"/>
<text text-anchor="middle" x="91.93" y="-12.95" font-family="Times,serif" font-size="14.00">r2_node_3</text>
</g>
<!-- r2_node_15&#45;&gt;r2_node_3 -->
<g id="edge1" class="edge">
<title>r2_node_15&#45;&gt;r2_node_3</title>
<path fill="none" stroke="black" d="M107.01,-360.21C117.67,-341.76 130.59,-311.61 118.93,-288 107.29,-264.41 83.58,-275.59 71.93,-252 38.55,-184.37 64.14,-92.21 80.7,-46.72"/>
<polygon fill="black" stroke="black" points="83.88,-48.22 84.14,-37.63 77.33,-45.74 83.88,-48.22"/>
</g>
<!-- r2_node_26 -->
<g id="node7" class="node">
<title>r2_node_26</title>
<ellipse fill="none" stroke="black" cx="300.93" cy="-306" rx="54.93" ry="18"/>
<text text-anchor="middle" x="300.93" y="-300.95" font-family="Times,serif" font-size="14.00">r2_node_26</text>
</g>
<!-- r2_node_15&#45;&gt;r2_node_26 -->
<g id="edge3" class="edge">
<title>r2_node_15&#45;&gt;r2_node_26</title>
<path fill="none" stroke="black" d="M130,-363.5C162.88,-351.72 212.89,-334.61 250.38,-322.32"/>
<polygon fill="black" stroke="black" points="251.23,-325.72 259.66,-319.29 249.06,-319.07 251.23,-325.72"/>
</g>
<!-- r2_node_27 -->
<g id="node8" class="node">
<title>r2_node_27</title>
<ellipse fill="none" stroke="black" cx="438.93" cy="-90" rx="54.93" ry="18"/>
<text text-anchor="middle" x="438.93" y="-84.95" font-family="Times,serif" font-size="14.00">r2_node_27</text>
</g>
<!-- r2_node_15&#45;&gt;r2_node_27 -->
<g id="edge4" class="edge">
<title>r2_node_15&#45;&gt;r2_node_27</title>
<path fill="none" stroke="black" d="M148.89,-372.66C202.88,-366.89 287.88,-353.71 355.93,-324 405.79,-302.23 414.77,-288.7 454.93,-252 495.96,-214.51 545.27,-192.38 517.93,-144 509.67,-129.38 495.59,-118.35 481.52,-110.24"/>
<polygon fill="black" stroke="black" points="483.18,-107.15 472.71,-105.55 479.89,-113.34 483.18,-107.15"/>
</g>
<!-- r2_node_26&#45;&gt;r2_node_1 -->
<g id="edge10" class="edge">
<title>r2_node_26&#45;&gt;r2_node_1</title>
<path fill="none" stroke="black" d="M307.83,-287.74C319.27,-258.74 341.29,-201.32 344.93,-180 347.63,-164.23 354.26,-157 344.93,-144 338.39,-134.89 281.58,-117.22 238.15,-104.79"/>
<polygon fill="black" stroke="black" points="239.19,-101.45 228.62,-102.08 237.28,-108.18 239.19,-101.45"/>
</g>
<!-- r2_node_26&#45;&gt;r2_node_15 -->
<g id="edge12" class="edge">
<title>r2_node_26&#45;&gt;r2_node_15</title>
<path fill="none" stroke="black" d="M267.05,-320.43C234.08,-332.25 183.77,-349.46 146.17,-361.79"/>
<polygon fill="black" stroke="black" points="145.3,-358.39 136.88,-364.81 147.47,-365.04 145.3,-358.39"/>
</g>
<!-- r2_node_22 -->
<g id="node12" class="node">
<title>r2_node_22</title>
<ellipse fill="none" stroke="black" cx="399.93" cy="-234" rx="54.93" ry="18"/>
<text text-anchor="middle" x="399.93" y="-228.95" font-family="Times,serif" font-size="14.00">r2_node_22</text>
</g>
<!-- r2_node_26&#45;&gt;r2_node_22 -->
<g id="edge11" class="edge">
<title>r2_node_26&#45;&gt;r2_node_22</title>
<path fill="none" stroke="black" d="M318.09,-288.76C330.72,-279.07 348.15,-266.64 363.73,-256.17"/>
<polygon fill="black" stroke="black" points="365.46,-259.22 371.88,-250.79 361.6,-253.38 365.46,-259.22"/>
</g>
<!-- r2_node_5 -->
<g id="node14" class="node">
<title>r2_node_5</title>
<ellipse fill="none" stroke="black" cx="130.93" cy="-234" rx="50.33" ry="18"/>
<text text-anchor="middle" x="130.93" y="-228.95" font-family="Times,serif" font-size="14.00">r2_node_5</text>
</g>
<!-- r2_node_26&#45;&gt;r2_node_5 -->
<g id="edge9" class="edge">
<title>r2_node_26&#45;&gt;r2_node_5</title>
<path fill="none" stroke="black" d="M264.39,-292.16C236.63,-281.38 198.65,-265.84 170.25,-253.68"/>
<polygon fill="black" stroke="black" points="171.83,-250.55 161.26,-249.8 169.06,-256.98 171.83,-250.55"/>
</g>
<!-- r2_node_27&#45;&gt;r2_node_15 -->
<g id="edge6" class="edge">
<title>r2_node_27&#45;&gt;r2_node_15</title>
<path fill="none" stroke="black" d="M480.96,-102.02C501.67,-110.26 524.44,-123.66 535.93,-144 563.27,-192.38 513.96,-214.51 472.93,-252 432.77,-288.7 423.79,-302.23 373.93,-324 305.23,-354 219.24,-367.15 161.15,-372.82"/>
<polygon fill="black" stroke="black" points="161.06,-369.32 151.42,-373.72 161.7,-376.29 161.06,-369.32"/>
</g>
<!-- r2_node_25 -->
<g id="node11" class="node">
<title>r2_node_25</title>
<ellipse fill="none" stroke="black" cx="414.93" cy="-18" rx="54.93" ry="18"/>
<text text-anchor="middle" x="414.93" y="-12.95" font-family="Times,serif" font-size="14.00">r2_node_25</text>
</g>
<!-- r2_node_27&#45;&gt;r2_node_25 -->
<g id="edge5" class="edge">
<title>r2_node_27&#45;&gt;r2_node_25</title>
<path fill="none" stroke="black" d="M433,-71.7C430.44,-64.24 427.39,-55.32 424.52,-46.97"/>
<polygon fill="black" stroke="black" points="427.84,-45.86 421.29,-37.54 421.22,-48.13 427.84,-45.86"/>
</g>
<!-- r2_node_27&#45;&gt;r2_node_22 -->
<g id="edge7" class="edge">
<title>r2_node_27&#45;&gt;r2_node_22</title>
<path fill="none" stroke="black" d="M471.43,-104.73C486.36,-113.87 502.23,-127.28 509.93,-144 516.63,-158.53 518.21,-166.31 509.93,-180 498.33,-199.19 477.23,-211.78 456.52,-219.84"/>
<polygon fill="black" stroke="black" points="455.45,-216.51 447.2,-223.15 457.8,-223.1 455.45,-216.51"/>
</g>
<!-- r2_node_9 -->
<g id="node13" class="node">
<title>r2_node_9</title>
<ellipse fill="none" stroke="black" cx="441.93" cy="-162" rx="50.33" ry="18"/>
<text text-anchor="middle" x="441.93" y="-156.95" font-family="Times,serif" font-size="14.00">r2_node_9</text>
</g>
<!-- r2_node_27&#45;&gt;r2_node_9 -->
<g id="edge8" class="edge">
<title>r2_node_27&#45;&gt;r2_node_9</title>
<path fill="none" stroke="black" d="M445.56,-108.1C446.63,-115.37 447.26,-124.04 447.36,-132.24"/>
<polygon fill="black" stroke="black" points="443.86,-132.11 447.14,-142.18 450.86,-132.26 443.86,-132.11"/>
</g>
<!-- r2_node_13 -->
<g id="node9" class="node">
<title>r2_node_13</title>
<ellipse fill="none" stroke="black" cx="262.93" cy="-18" rx="54.93" ry="18"/>
<text text-anchor="middle" x="262.93" y="-12.95" font-family="Times,serif" font-size="14.00">r2_node_13</text>
</g>
<!-- r2_node_2 -->
<g id="node10" class="node">
<title>r2_node_2</title>
<ellipse fill="none" stroke="black" cx="312.93" cy="-90" rx="50.33" ry="18"/>
<text text-anchor="middle" x="312.93" y="-84.95" font-family="Times,serif" font-size="14.00">r2_node_2</text>
</g>
<!-- r2_node_22&#45;&gt;r2_node_26 -->
<g id="edge15" class="edge">
<title>r2_node_22&#45;&gt;r2_node_26</title>
<path fill="none" stroke="black" d="M382.48,-251.46C369.88,-261.12 352.62,-273.43 337.16,-283.81"/>
<polygon fill="black" stroke="black" points="335.5,-280.71 329.09,-289.15 339.36,-286.55 335.5,-280.71"/>
</g>
<!-- r2_node_22&#45;&gt;r2_node_27 -->
<g id="edge13" class="edge">
<title>r2_node_22&#45;&gt;r2_node_27</title>
<path fill="none" stroke="black" d="M438.19,-220.63C457.82,-212.6 479.95,-199.83 491.93,-180 500.21,-166.31 498.63,-158.53 491.93,-144 486.59,-132.4 477.32,-122.4 467.94,-114.3"/>
<polygon fill="black" stroke="black" points="470.21,-111.64 460.22,-108.09 465.82,-117.09 470.21,-111.64"/>
</g>
<!-- r2_node_22&#45;&gt;r2_node_9 -->
<g id="edge14" class="edge">
<title>r2_node_22&#45;&gt;r2_node_9</title>
<path fill="none" stroke="black" d="M404.4,-215.7C408.48,-207.49 414.26,-197.52 420.13,-188.48"/>
<polygon fill="black" stroke="black" points="422.89,-190.64 425.61,-180.4 417.1,-186.71 422.89,-190.64"/>
</g>
<!-- r2_node_9&#45;&gt;r2_node_27 -->
<g id="edge22" class="edge">
<title>r2_node_9&#45;&gt;r2_node_27</title>
<path fill="none" stroke="black" d="M435.28,-143.7C434.21,-136.41 433.6,-127.73 433.51,-119.54"/>
<polygon fill="black" stroke="black" points="437.01,-119.69 433.74,-109.62 430.01,-119.53 437.01,-119.69"/>
</g>
<!-- r2_node_9&#45;&gt;r2_node_2 -->
<g id="edge20" class="edge">
<title>r2_node_9&#45;&gt;r2_node_2</title>
<path fill="none" stroke="black" d="M415.21,-146.5C396.27,-136.22 370.62,-122.3 349.74,-110.97"/>
<polygon fill="black" stroke="black" points="351.42,-107.9 340.96,-106.21 348.08,-114.05 351.42,-107.9"/>
</g>
<!-- r2_node_9&#45;&gt;r2_node_22 -->
<g id="edge21" class="edge">
<title>r2_node_9&#45;&gt;r2_node_22</title>
<path fill="none" stroke="black" d="M437.64,-179.96C433.62,-188.09 427.89,-198.01 422.05,-207.06"/>
<polygon fill="black" stroke="black" points="419.27,-204.91 416.57,-215.16 425.07,-208.83 419.27,-204.91"/>
</g>
<!-- r2_node_5&#45;&gt;r2_node_19 -->
<g id="edge18" class="edge">
<title>r2_node_5&#45;&gt;r2_node_19</title>
<path fill="none" stroke="black" d="M136.37,-215.7C138.72,-208.24 141.52,-199.32 144.15,-190.97"/>
<polygon fill="black" stroke="black" points="147.45,-192.14 147.1,-181.55 140.77,-190.04 147.45,-192.14"/>
</g>
<!-- r2_node_5&#45;&gt;r2_node_30 -->
<g id="edge16" class="edge">
<title>r2_node_5&#45;&gt;r2_node_30</title>
<path fill="none" stroke="black" d="M160.57,-219.17C183.28,-208.57 214.88,-193.82 240,-182.1"/>
<polygon fill="black" stroke="black" points="241.38,-185.32 248.96,-177.92 238.42,-178.98 241.38,-185.32"/>
</g>
<!-- r2_node_5&#45;&gt;r2_node_26 -->
<g id="edge19" class="edge">
<title>r2_node_5&#45;&gt;r2_node_26</title>
<path fill="none" stroke="black" d="M166,-247.27C193.61,-257.96 231.95,-273.63 260.77,-285.96"/>
<polygon fill="black" stroke="black" points="259.34,-289.15 269.91,-289.9 262.11,-282.73 259.34,-289.15"/>
</g>
<!-- r2_node_5&#45;&gt;r2_node_13 -->
<g id="edge17" class="edge">
<title>r2_node_5&#45;&gt;r2_node_13</title>
<path fill="none" stroke="black" d="M113.21,-216.69C104.05,-207.03 93.8,-193.97 88.93,-180 72.1,-131.66 90.46,-105.76 128.93,-72 150.98,-52.65 180.94,-39.91 206.94,-31.78"/>
<polygon fill="black" stroke="black" points="207.76,-35.19 216.36,-29 205.78,-28.48 207.76,-35.19"/>
</g>
</g>
</svg>
