<?xml version="1.0" encoding="UTF-8" standalone="no"?>
<!DOCTYPE svg PUBLIC "-//W3C//DTD SVG 1.1//EN"
 "http://www.w3.org/Graphics/SVG/1.1/DTD/svg11.dtd">
<!-- Generated by graphviz version 12.2.1 (20241206.2353)
 -->
<!-- Pages: 1 -->
<svg width="506pt" height="332pt"
 viewBox="0.00 0.00 505.66 332.00" xmlns="http://www.w3.org/2000/svg" xmlns:xlink="http://www.w3.org/1999/xlink">
<g id="graph0" class="graph" transform="scale(1 1) rotate(0) translate(4 328)">
<polygon fill="white" stroke="none" points="-4,4 -4,-328 501.66,-328 501.66,4 -4,4"/>
<!-- r4_node_11 -->
<g id="node1" class="node">
<title>r4_node_11</title>
<ellipse fill="none" stroke="black" cx="109.33" cy="-306" rx="54.93" ry="18"/>
<text text-anchor="middle" x="109.33" y="-300.95" font-family="Times,serif" font-size="14.00">r4_node_11</text>
</g>
<!-- r4_node_4 -->
<g id="node2" class="node">
<title>r4_node_4</title>
<ellipse fill="none" stroke="black" cx="50.33" cy="-234" rx="50.33" ry="18"/>
<text text-anchor="middle" x="50.33" y="-228.95" font-family="Times,serif" font-size="14.00">r4_node_4</text>
</g>
<!-- r4_node_11&#45;&gt;r4_node_4 -->
<g id="edge1" class="edge">
<title>r4_node_11&#45;&gt;r4_node_4</title>
<path fill="none" stroke="black" d="M89.84,-288.76C81.97,-280.53 73.12,-270.32 65.71,-261.02"/>
<polygon fill="black" stroke="black" points="68.66,-259.11 59.79,-253.32 63.11,-263.38 68.66,-259.11"/>
</g>
<!-- r4_node_2 -->
<g id="node3" class="node">
<title>r4_node_2</title>
<ellipse fill="none" stroke="black" cx="178.33" cy="-234" rx="50.33" ry="18"/>
<text text-anchor="middle" x="178.33" y="-228.95" font-family="Times,serif" font-size="14.00">r4_node_2</text>
</g>
<!-- r4_node_11&#45;&gt;r4_node_2 -->
<g id="edge2" class="edge">
<title>r4_node_11&#45;&gt;r4_node_2</title>
<path fill="none" stroke="black" d="M120.15,-288.05C127.99,-279.14 138.73,-268.07 148.9,-258.36"/>
<polygon fill="black" stroke="black" points="151.19,-261 156.12,-251.62 146.42,-255.88 151.19,-261"/>
</g>
<!-- r4_node_17 -->
<g id="node4" class="node">
<title>r4_node_17</title>
<ellipse fill="none" stroke="black" cx="305.33" cy="-234" rx="54.93" ry="18"/>
<text text-anchor="middle" x="305.33" y="-228.95" font-family="Times,serif" font-size="14.00">r4_node_17</text>
</g>
<!-- r4_node_11&#45;&gt;r4_node_17 -->
<g id="edge3" class="edge">
<title>r4_node_11&#45;&gt;r4_node_17</title>
<path fill="none" stroke="black" d="M142.1,-291.34C173.21,-279.65 220.2,-262.84 255.84,-250.63"/>
<polygon fill="black" stroke="black" points="256.74,-254.02 265.07,-247.48 254.48,-247.39 256.74,-254.02"/>
</g>
<!-- r4_node_8 -->
<g id="node5" class="node">
<title>r4_node_8</title>
<ellipse fill="none" stroke="black" cx="343.33" cy="-18" rx="50.33" ry="18"/>
<text text-anchor="middle" x="343.33" y="-12.95" font-family="Times,serif" font-size="14.00">r4_node_8</text>
</g>
<!-- r4_node_11&#45;&gt;r4_node_8 -->
<g id="edge4" class="edge">
<title>r4_node_11&#45;&gt;r4_node_8</title>
<path fill="none" stroke="black" d="M158.17,-297.4C227.41,-286.85 346.87,-267.35 360.33,-252 410.99,-194.18 372.75,-94.86 352.82,-46.74"/>
<polygon fill="black" stroke="black" points="356.09,-45.49 349.02,-37.6 349.63,-48.18 356.09,-45.49"/>
</g>
<!-- r4_node_4&#45;&gt;r4_node_11 -->
<g id="edge6" class="edge">
<title>r4_node_4&#45;&gt;r4_node_11</title>
<path fill="none" stroke="black" d="M69.42,-250.83C77.4,-259.15 86.43,-269.56 93.98,-279.02"/>
<polygon fill="black" stroke="black" points="91.13,-281.06 100,-286.86 96.68,-276.79 91.13,-281.06"/>
</g>
<!-- r4_node_9 -->
<g id="node6" class="node">
<title>r4_node_9</title>
<ellipse fill="none" stroke="black" cx="60.33" cy="-18" rx="50.33" ry="18"/>
<text text-anchor="middle" x="60.33" y="-12.95" font-family="Times,serif" font-size="14.00">r4_node_9</text>
</g>
<!-- r4_node_4&#45;&gt;r4_node_9 -->
<g id="edge5" class="edge">
<title>r4_node_4&#45;&gt;r4_node_9</title>
<path fill="none" stroke="black" d="M50.51,-215.6C50.74,-197.65 51.25,-168.86 52.33,-144 53.76,-110.95 56.31,-73.05 58.15,-47.72"/>
<polygon fill="black" stroke="black" points="61.63,-48.12 58.88,-37.89 54.65,-47.6 61.63,-48.12"/>
</g>
<!-- r4_node_19 -->
<g id="node7" class="node">
<title>r4_node_19</title>
<ellipse fill="none" stroke="black" cx="116.33" cy="-162" rx="54.93" ry="18"/>
<text text-anchor="middle" x="116.33" y="-156.95" font-family="Times,serif" font-size="14.00">r4_node_19</text>
</g>
<!-- r4_node_4&#45;&gt;r4_node_19 -->
<g id="edge7" class="edge">
<title>r4_node_4&#45;&gt;r4_node_19</title>
<path fill="none" stroke="black" d="M65.97,-216.41C74.02,-207.87 84.01,-197.28 92.96,-187.79"/>
<polygon fill="black" stroke="black" points="95.45,-190.25 99.76,-180.57 90.35,-185.45 95.45,-190.25"/>
</g>
<!-- r4_node_2&#45;&gt;r4_node_11 -->
<g id="edge17" class="edge">
<title>r4_node_2&#45;&gt;r4_node_11</title>
<path fill="none" stroke="black" d="M167.63,-251.8C159.86,-260.65 149.2,-271.65 139.06,-281.35"/>
<polygon fill="black" stroke="black" points="136.77,-278.7 131.85,-288.08 141.55,-283.82 136.77,-278.7"/>
</g>
<!-- r4_node_2&#45;&gt;r4_node_9 -->
<g id="edge16" class="edge">
<title>r4_node_2&#45;&gt;r4_node_9</title>
<path fill="none" stroke="black" d="M182.58,-215.89C186.31,-197.43 189.79,-167.52 180.33,-144 162.7,-100.18 121.56,-63.09 92.37,-40.96"/>
<polygon fill="black" stroke="black" points="94.71,-38.33 84.58,-35.21 90.55,-43.96 94.71,-38.33"/>
</g>
<!-- r4_node_1 -->
<g id="node9" class="node">
<title>r4_node_1</title>
<ellipse fill="none" stroke="black" cx="209.33" cy="-18" rx="50.33" ry="18"/>
<text text-anchor="middle" x="209.33" y="-12.95" font-family="Times,serif" font-size="14.00">r4_node_1</text>
</g>
<!-- r4_node_2&#45;&gt;r4_node_1 -->
<g id="edge15" class="edge">
<title>r4_node_2&#45;&gt;r4_node_1</title>
<path fill="none" stroke="black" d="M192.78,-216.64C200.52,-206.77 209.27,-193.52 213.33,-180 217.93,-164.68 217.96,-159.31 213.33,-144 207.76,-125.6 194.9,-126.4 189.33,-108 184.69,-92.69 186.46,-87.74 189.33,-72 190.86,-63.58 193.66,-54.77 196.69,-46.79"/>
<polygon fill="black" stroke="black" points="199.9,-48.19 200.45,-37.61 193.42,-45.54 199.9,-48.19"/>
</g>
<!-- r4_node_17&#45;&gt;r4_node_11 -->
<g id="edge21" class="edge">
<title>r4_node_17&#45;&gt;r4_node_11</title>
<path fill="none" stroke="black" d="M272.2,-248.8C241.11,-260.46 194.39,-277.18 158.89,-289.35"/>
<polygon fill="black" stroke="black" points="158.03,-285.94 149.7,-292.48 160.29,-292.57 158.03,-285.94"/>
</g>
<!-- r4_node_7 -->
<g id="node8" class="node">
<title>r4_node_7</title>
<ellipse fill="none" stroke="black" cx="315.33" cy="-162" rx="50.33" ry="18"/>
<text text-anchor="middle" x="315.33" y="-156.95" font-family="Times,serif" font-size="14.00">r4_node_7</text>
</g>
<!-- r4_node_17&#45;&gt;r4_node_7 -->
<g id="edge20" class="edge">
<title>r4_node_17&#45;&gt;r4_node_7</title>
<path fill="none" stroke="black" d="M301.88,-215.7C302.18,-208.32 303.19,-199.52 304.65,-191.25"/>
<polygon fill="black" stroke="black" points="308.05,-192.09 306.68,-181.59 301.2,-190.66 308.05,-192.09"/>
</g>
<!-- r4_node_3 -->
<g id="node12" class="node">
<title>r4_node_3</title>
<ellipse fill="none" stroke="black" cx="447.33" cy="-90" rx="50.33" ry="18"/>
<text text-anchor="middle" x="447.33" y="-84.95" font-family="Times,serif" font-size="14.00">r4_node_3</text>
</g>
<!-- r4_node_17&#45;&gt;r4_node_3 -->
<g id="edge19" class="edge">
<title>r4_node_17&#45;&gt;r4_node_3</title>
<path fill="none" stroke="black" d="M328.45,-217.28C342.38,-207.32 360.11,-193.77 374.33,-180 394.62,-160.35 414.76,-135.26 428.73,-116.73"/>
<polygon fill="black" stroke="black" points="431.38,-119.04 434.54,-108.92 425.76,-114.86 431.38,-119.04"/>
</g>
<!-- r4_node_8&#45;&gt;r4_node_11 -->
<g id="edge14" class="edge">
<title>r4_node_8&#45;&gt;r4_node_11</title>
<path fill="none" stroke="black" d="M356.94,-35.59C383.56,-77.58 433.32,-189.24 378.33,-252 364.95,-267.26 246.81,-286.62 171.53,-297.21"/>
<polygon fill="black" stroke="black" points="171.22,-293.72 161.79,-298.56 172.18,-300.65 171.22,-293.72"/>
</g>
<!-- r4_node_16 -->
<g id="node10" class="node">
<title>r4_node_16</title>
<ellipse fill="none" stroke="black" cx="265.33" cy="-90" rx="54.93" ry="18"/>
<text text-anchor="middle" x="265.33" y="-84.95" font-family="Times,serif" font-size="14.00">r4_node_16</text>
</g>
<!-- r4_node_8&#45;&gt;r4_node_16 -->
<g id="edge13" class="edge">
<title>r4_node_8&#45;&gt;r4_node_16</title>
<path fill="none" stroke="black" d="M330.81,-35.47C321.61,-44.62 308.95,-56.15 297.14,-66.17"/>
<polygon fill="black" stroke="black" points="294.98,-63.42 289.52,-72.5 299.45,-68.8 294.98,-63.42"/>
</g>
<!-- r4_node_7&#45;&gt;r4_node_17 -->
<g id="edge8" class="edge">
<title>r4_node_7&#45;&gt;r4_node_17</title>
<path fill="none" stroke="black" d="M318.77,-180.28C318.48,-187.69 317.46,-196.54 315.98,-204.86"/>
<polygon fill="black" stroke="black" points="312.57,-204.07 313.94,-214.57 319.42,-205.51 312.57,-204.07"/>
</g>
<!-- r4_node_7&#45;&gt;r4_node_1 -->
<g id="edge9" class="edge">
<title>r4_node_7&#45;&gt;r4_node_1</title>
<path fill="none" stroke="black" d="M279.18,-149C249.27,-138.26 210.31,-122.08 201.33,-108 189.86,-90.02 193.01,-65.69 198.39,-47.01"/>
<polygon fill="black" stroke="black" points="201.67,-48.25 201.45,-37.65 195.02,-46.07 201.67,-48.25"/>
</g>
<!-- r4_node_7&#45;&gt;r4_node_16 -->
<g id="edge10" class="edge">
<title>r4_node_7&#45;&gt;r4_node_16</title>
<path fill="none" stroke="black" d="M297.93,-144.76C291.26,-136.7 283.89,-126.74 277.75,-117.6"/>
<polygon fill="black" stroke="black" points="280.83,-115.92 272.48,-109.4 274.94,-119.7 280.83,-115.92"/>
</g>
<!-- r4_node_16&#45;&gt;r4_node_8 -->
<g id="edge11" class="edge">
<title>r4_node_16&#45;&gt;r4_node_8</title>
<path fill="none" stroke="black" d="M278.33,-72.05C287.56,-62.9 300.14,-51.47 311.82,-41.57"/>
<polygon fill="black" stroke="black" points="313.89,-44.4 319.35,-35.32 309.42,-39.01 313.89,-44.4"/>
</g>
<!-- r4_node_16&#45;&gt;r4_node_7 -->
<g id="edge12" class="edge">
<title>r4_node_16&#45;&gt;r4_node_7</title>
<path fill="none" stroke="black" d="M282.65,-107.14C289.3,-115.18 296.65,-125.1 302.79,-134.23"/>
<polygon fill="black" stroke="black" points="299.71,-135.91 308.06,-142.42 305.59,-132.12 299.71,-135.91"/>
</g>
<!-- r4_node_15 -->
<g id="node11" class="node">
<title>r4_node_15</title>
<ellipse fill="none" stroke="black" cx="334.33" cy="-306" rx="54.93" ry="18"/>
<text text-anchor="middle" x="334.33" y="-300.95" font-family="Times,serif" font-size="14.00">r4_node_15</text>
</g>
<!-- r4_node_15&#45;&gt;r4_node_3 -->
<g id="edge18" class="edge">
<title>r4_node_15&#45;&gt;r4_node_3</title>
<path fill="none" stroke="black" d="M370.11,-292.11C388.63,-283.58 409.9,-270.51 422.33,-252 449.27,-211.88 451.39,-153.6 449.81,-119.27"/>
<polygon fill="black" stroke="black" points="453.33,-119.47 449.23,-109.7 446.34,-119.9 453.33,-119.47"/>
</g>
</g>
</svg>
