<?xml version="1.0" encoding="UTF-8" standalone="no"?>
<!DOCTYPE svg PUBLIC "-//W3C//DTD SVG 1.1//EN"
 "http://www.w3.org/Graphics/SVG/1.1/DTD/svg11.dtd">
<!-- Generated by graphviz version 12.2.1 (20241206.2353)
 -->
<!-- Pages: 1 -->
<svg width="1190pt" height="476pt"
 viewBox="0.00 0.00 1190.44 476.00" xmlns="http://www.w3.org/2000/svg" xmlns:xlink="http://www.w3.org/1999/xlink">
<g id="graph0" class="graph" transform="scale(1 1) rotate(0) translate(4 472)">
<polygon fill="white" stroke="none" points="-4,4 -4,-472 1186.44,-472 1186.44,4 -4,4"/>
<!-- r2_node_16 -->
<g id="node1" class="node">
<title>r2_node_16</title>
<ellipse fill="none" stroke="black" cx="912.93" cy="-18" rx="54.93" ry="18"/>
<text text-anchor="middle" x="912.93" y="-12.95" font-family="Times,serif" font-size="14.00">r2_node_16</text>
</g>
<!-- r2_node_7 -->
<g id="node2" class="node">
<title>r2_node_7</title>
<ellipse fill="none" stroke="black" cx="228.93" cy="-378" rx="50.33" ry="18"/>
<text text-anchor="middle" x="228.93" y="-372.95" font-family="Times,serif" font-size="14.00">r2_node_7</text>
</g>
<!-- r2_node_12 -->
<g id="node3" class="node">
<title>r2_node_12</title>
<ellipse fill="none" stroke="black" cx="264.93" cy="-450" rx="54.93" ry="18"/>
<text text-anchor="middle" x="264.93" y="-444.95" font-family="Times,serif" font-size="14.00">r2_node_12</text>
</g>
<!-- r2_node_7&#45;&gt;r2_node_12 -->
<g id="edge1" class="edge">
<title>r2_node_7&#45;&gt;r2_node_12</title>
<path fill="none" stroke="black" d="M243.33,-395.62C248.09,-403.27 253.13,-412.55 257.27,-421.22"/>
<polygon fill="black" stroke="black" points="254.06,-422.61 261.33,-430.31 260.45,-419.76 254.06,-422.61"/>
</g>
<!-- r2_node_15 -->
<g id="node4" class="node">
<title>r2_node_15</title>
<ellipse fill="none" stroke="black" cx="395.93" cy="-18" rx="54.93" ry="18"/>
<text text-anchor="middle" x="395.93" y="-12.95" font-family="Times,serif" font-size="14.00">r2_node_15</text>
</g>
<!-- r2_node_7&#45;&gt;r2_node_15 -->
<g id="edge2" class="edge">
<title>r2_node_7&#45;&gt;r2_node_15</title>
<path fill="none" stroke="black" d="M232.84,-359.56C240.7,-327.75 261.12,-259.57 299.93,-216 363.01,-145.19 436.82,-190.29 483.93,-108 491.88,-94.11 491.81,-85.93 483.93,-72 475.01,-56.21 459.28,-44.6 443.57,-36.34"/>
<polygon fill="black" stroke="black" points="445.21,-33.24 434.68,-32.04 442.16,-39.54 445.21,-33.24"/>
</g>
<!-- r2_node_5 -->
<g id="node5" class="node">
<title>r2_node_5</title>
<ellipse fill="none" stroke="black" cx="424.93" cy="-90" rx="50.33" ry="18"/>
<text text-anchor="middle" x="424.93" y="-84.95" font-family="Times,serif" font-size="14.00">r2_node_5</text>
</g>
<!-- r2_node_7&#45;&gt;r2_node_5 -->
<g id="edge3" class="edge">
<title>r2_node_7&#45;&gt;r2_node_5</title>
<path fill="none" stroke="black" d="M222.47,-359.83C217.39,-328.46 218.61,-260.98 248.93,-216 282.08,-166.83 341.15,-129.42 381.77,-108.84"/>
<polygon fill="black" stroke="black" points="383.14,-112.07 390.57,-104.52 380.05,-105.79 383.14,-112.07"/>
</g>
<!-- r2_node_9 -->
<g id="node6" class="node">
<title>r2_node_9</title>
<ellipse fill="none" stroke="black" cx="330.93" cy="-306" rx="50.33" ry="18"/>
<text text-anchor="middle" x="330.93" y="-300.95" font-family="Times,serif" font-size="14.00">r2_node_9</text>
</g>
<!-- r2_node_7&#45;&gt;r2_node_9 -->
<g id="edge4" class="edge">
<title>r2_node_7&#45;&gt;r2_node_9</title>
<path fill="none" stroke="black" d="M246.79,-360.76C260.14,-350.84 278.64,-338.05 294.95,-327.44"/>
<polygon fill="black" stroke="black" points="296.44,-330.64 302.97,-322.3 292.66,-324.75 296.44,-330.64"/>
</g>
<!-- r2_node_12&#45;&gt;r2_node_16 -->
<g id="edge32" class="edge">
<title>r2_node_12&#45;&gt;r2_node_16</title>
<path fill="none" stroke="black" d="M316.92,-443.72C372.45,-436.97 462.4,-422.8 535.93,-396 582.48,-379.04 686.86,-310.61 730.93,-288 797.44,-253.87 812.75,-241.74 882.93,-216 941.23,-194.62 965.33,-213 1017.93,-180 1064.82,-150.59 1112.62,-116.67 1079.93,-72 1056.82,-40.41 1014.74,-27.19 978.61,-21.85"/>
<polygon fill="black" stroke="black" points="979.48,-18.43 969.12,-20.63 978.59,-25.37 979.48,-18.43"/>
</g>
<!-- r2_node_12&#45;&gt;r2_node_7 -->
<g id="edge31" class="edge">
<title>r2_node_12&#45;&gt;r2_node_7</title>
<path fill="none" stroke="black" d="M250.56,-432.41C245.81,-424.79 240.8,-415.55 236.66,-406.9"/>
<polygon fill="black" stroke="black" points="239.88,-405.52 232.59,-397.83 233.49,-408.39 239.88,-405.52"/>
</g>
<!-- r2_node_19 -->
<g id="node8" class="node">
<title>r2_node_19</title>
<ellipse fill="none" stroke="black" cx="687.93" cy="-18" rx="54.93" ry="18"/>
<text text-anchor="middle" x="687.93" y="-12.95" font-family="Times,serif" font-size="14.00">r2_node_19</text>
</g>
<!-- r2_node_12&#45;&gt;r2_node_19 -->
<g id="edge30" class="edge">
<title>r2_node_12&#45;&gt;r2_node_19</title>
<path fill="none" stroke="black" d="M286.31,-432.99C327.28,-402.67 420.24,-335.65 503.93,-288 637.08,-212.19 742.39,-250.79 797.93,-108 803.73,-93.09 806.45,-85.55 797.93,-72 785.83,-52.74 764.55,-40.31 743.91,-32.38"/>
<polygon fill="black" stroke="black" points="745.25,-29.14 734.66,-29.13 742.93,-35.74 745.25,-29.14"/>
</g>
<!-- r2_node_5&#45;&gt;r2_node_7 -->
<g id="edge13" class="edge">
<title>r2_node_5&#45;&gt;r2_node_7</title>
<path fill="none" stroke="black" d="M400,-106.03C364.8,-125.9 301.65,-164.5 266.93,-216 239.81,-256.24 235.97,-314.48 233.75,-348.77"/>
<polygon fill="black" stroke="black" points="230.28,-348.11 233.09,-358.32 237.27,-348.58 230.28,-348.11"/>
</g>
<!-- r2_node_5&#45;&gt;r2_node_15 -->
<g id="edge14" class="edge">
<title>r2_node_5&#45;&gt;r2_node_15</title>
<path fill="none" stroke="black" d="M417.77,-71.7C414.64,-64.15 410.9,-55.12 407.4,-46.68"/>
<polygon fill="black" stroke="black" points="410.66,-45.4 403.6,-37.5 404.19,-48.08 410.66,-45.4"/>
</g>
<!-- r2_node_3 -->
<g id="node13" class="node">
<title>r2_node_3</title>
<ellipse fill="none" stroke="black" cx="201.93" cy="-162" rx="50.33" ry="18"/>
<text text-anchor="middle" x="201.93" y="-156.95" font-family="Times,serif" font-size="14.00">r2_node_3</text>
</g>
<!-- r2_node_5&#45;&gt;r2_node_3 -->
<g id="edge12" class="edge">
<title>r2_node_5&#45;&gt;r2_node_3</title>
<path fill="none" stroke="black" d="M390.49,-103.48C353.37,-115.71 294.17,-134.32 251.95,-147.03"/>
<polygon fill="black" stroke="black" points="251.09,-143.64 242.52,-149.86 253.1,-150.34 251.09,-143.64"/>
</g>
<!-- r2_node_9&#45;&gt;r2_node_7 -->
<g id="edge17" class="edge">
<title>r2_node_9&#45;&gt;r2_node_7</title>
<path fill="none" stroke="black" d="M313.23,-323.12C299.95,-333 281.52,-345.75 265.23,-356.36"/>
<polygon fill="black" stroke="black" points="263.73,-353.16 257.2,-361.51 267.51,-359.05 263.73,-353.16"/>
</g>
<!-- r2_node_9&#45;&gt;r2_node_19 -->
<g id="edge15" class="edge">
<title>r2_node_9&#45;&gt;r2_node_19</title>
<path fill="none" stroke="black" d="M370.42,-294.55C472.68,-266.53 740.98,-186.47 780.93,-108 788.19,-93.74 788.97,-85.83 780.93,-72 771.35,-55.5 754.49,-43.71 737.73,-35.51"/>
<polygon fill="black" stroke="black" points="739.31,-32.38 728.76,-31.47 736.44,-38.76 739.31,-32.38"/>
</g>
<!-- r2_node_20 -->
<g id="node9" class="node">
<title>r2_node_20</title>
<ellipse fill="none" stroke="black" cx="547.93" cy="-18" rx="54.93" ry="18"/>
<text text-anchor="middle" x="547.93" y="-12.95" font-family="Times,serif" font-size="14.00">r2_node_20</text>
</g>
<!-- r2_node_9&#45;&gt;r2_node_20 -->
<g id="edge16" class="edge">
<title>r2_node_9&#45;&gt;r2_node_20</title>
<path fill="none" stroke="black" d="M357.12,-290.24C390.58,-271.69 450.58,-239.42 503.93,-216 561.22,-190.86 729.84,-160.46 763.93,-108 772.65,-94.58 773.81,-84.59 763.93,-72 761.39,-68.76 666.15,-46.26 603,-31.64"/>
<polygon fill="black" stroke="black" points="604,-28.28 593.47,-29.44 602.42,-35.1 604,-28.28"/>
</g>
<!-- r2_node_14 -->
<g id="node10" class="node">
<title>r2_node_14</title>
<ellipse fill="none" stroke="black" cx="363.93" cy="-234" rx="54.93" ry="18"/>
<text text-anchor="middle" x="363.93" y="-228.95" font-family="Times,serif" font-size="14.00">r2_node_14</text>
</g>
<!-- r2_node_9&#45;&gt;r2_node_14 -->
<g id="edge18" class="edge">
<title>r2_node_9&#45;&gt;r2_node_14</title>
<path fill="none" stroke="black" d="M333.18,-287.7C336.06,-279.87 340.28,-270.44 344.75,-261.73"/>
<polygon fill="black" stroke="black" points="347.82,-263.41 349.53,-252.95 341.68,-260.06 347.82,-263.41"/>
</g>
<!-- r2_node_11 -->
<g id="node7" class="node">
<title>r2_node_11</title>
<ellipse fill="none" stroke="black" cx="465.93" cy="-450" rx="54.93" ry="18"/>
<text text-anchor="middle" x="465.93" y="-444.95" font-family="Times,serif" font-size="14.00">r2_node_11</text>
</g>
<!-- r2_node_11&#45;&gt;r2_node_16 -->
<g id="edge5" class="edge">
<title>r2_node_11&#45;&gt;r2_node_16</title>
<path fill="none" stroke="black" d="M500.87,-435.87C553.01,-415.55 653.36,-373.6 730.93,-324 751.93,-310.57 752.15,-300.11 773.93,-288 841,-250.7 1043.59,-229.85 1101.93,-180 1140.51,-147.04 1170.45,-111.76 1138.93,-72 1118.97,-46.82 1036.18,-32.44 976.58,-25.18"/>
<polygon fill="black" stroke="black" points="977.22,-21.73 966.88,-24.04 976.4,-28.68 977.22,-21.73"/>
</g>
<!-- r2_node_11&#45;&gt;r2_node_19 -->
<g id="edge6" class="edge">
<title>r2_node_11&#45;&gt;r2_node_19</title>
<path fill="none" stroke="black" d="M486.78,-433.22C554.42,-382.06 764.38,-223.65 780.93,-216 845.14,-186.35 877.22,-219.43 935.93,-180 968.49,-158.14 975.04,-145.37 986.93,-108 991.79,-92.75 997.21,-84.26 986.93,-72 971.91,-54.08 834.12,-35.55 750.93,-25.85"/>
<polygon fill="black" stroke="black" points="751.41,-22.38 741.07,-24.72 750.61,-29.34 751.41,-22.38"/>
</g>
<!-- r2_node_11&#45;&gt;r2_node_20 -->
<g id="edge7" class="edge">
<title>r2_node_11&#45;&gt;r2_node_20</title>
<path fill="none" stroke="black" d="M445.72,-433.17C435.28,-423.66 423.56,-410.59 417.93,-396 412.18,-381.07 412.19,-374.93 417.93,-360 433.41,-319.76 449.06,-314.66 482.93,-288 604.52,-192.3 710.72,-245.88 780.93,-108 788.19,-93.74 790.91,-84.51 780.93,-72 780.23,-71.12 672.18,-46.8 603.49,-31.42"/>
<polygon fill="black" stroke="black" points="604.41,-28.04 593.88,-29.27 602.88,-34.87 604.41,-28.04"/>
</g>
<!-- r2_node_14&#45;&gt;r2_node_9 -->
<g id="edge9" class="edge">
<title>r2_node_14&#45;&gt;r2_node_9</title>
<path fill="none" stroke="black" d="M361.64,-252.45C358.75,-260.27 354.53,-269.67 350.08,-278.34"/>
<polygon fill="black" stroke="black" points="347.03,-276.63 345.32,-287.08 353.17,-279.97 347.03,-276.63"/>
</g>
<!-- r2_node_4 -->
<g id="node11" class="node">
<title>r2_node_4</title>
<ellipse fill="none" stroke="black" cx="542.93" cy="-162" rx="50.33" ry="18"/>
<text text-anchor="middle" x="542.93" y="-156.95" font-family="Times,serif" font-size="14.00">r2_node_4</text>
</g>
<!-- r2_node_14&#45;&gt;r2_node_4 -->
<g id="edge8" class="edge">
<title>r2_node_14&#45;&gt;r2_node_4</title>
<path fill="none" stroke="black" d="M394.61,-218.83C422.72,-207.24 464.56,-190.85 496.7,-178.83"/>
<polygon fill="black" stroke="black" points="497.62,-182.22 505.78,-175.46 495.18,-175.66 497.62,-182.22"/>
</g>
<!-- r2_node_17 -->
<g id="node12" class="node">
<title>r2_node_17</title>
<ellipse fill="none" stroke="black" cx="239.93" cy="-18" rx="54.93" ry="18"/>
<text text-anchor="middle" x="239.93" y="-12.95" font-family="Times,serif" font-size="14.00">r2_node_17</text>
</g>
<!-- r2_node_14&#45;&gt;r2_node_17 -->
<g id="edge10" class="edge">
<title>r2_node_14&#45;&gt;r2_node_17</title>
<path fill="none" stroke="black" d="M390.19,-217.84C436.98,-188.95 526.05,-124.25 483.93,-72 478.03,-64.68 368.09,-42.95 297.82,-29.69"/>
<polygon fill="black" stroke="black" points="298.87,-26.33 288.39,-27.92 297.58,-33.21 298.87,-26.33"/>
</g>
<!-- r2_node_14&#45;&gt;r2_node_3 -->
<g id="edge11" class="edge">
<title>r2_node_14&#45;&gt;r2_node_3</title>
<path fill="none" stroke="black" d="M328.45,-220C302.19,-209.32 266.6,-194.04 239.8,-181.99"/>
<polygon fill="black" stroke="black" points="241.57,-178.95 231.02,-178.01 238.68,-185.32 241.57,-178.95"/>
</g>
<!-- r2_node_4&#45;&gt;r2_node_16 -->
<g id="edge27" class="edge">
<title>r2_node_4&#45;&gt;r2_node_16</title>
<path fill="none" stroke="black" d="M590.61,-155.71C639.85,-149.03 718.13,-135.01 780.93,-108 820.06,-91.17 859.9,-62.36 885.43,-42.09"/>
<polygon fill="black" stroke="black" points="887.4,-45 892.98,-35.99 883,-39.55 887.4,-45"/>
</g>
<!-- r2_node_4&#45;&gt;r2_node_15 -->
<g id="edge26" class="edge">
<title>r2_node_4&#45;&gt;r2_node_15</title>
<path fill="none" stroke="black" d="M563.02,-145.06C583.85,-126.58 611.05,-95.63 592.93,-72 584.22,-60.63 507.78,-42.45 452.73,-30.62"/>
<polygon fill="black" stroke="black" points="453.68,-27.24 443.17,-28.58 452.22,-34.09 453.68,-27.24"/>
</g>
<!-- r2_node_4&#45;&gt;r2_node_19 -->
<g id="edge29" class="edge">
<title>r2_node_4&#45;&gt;r2_node_19</title>
<path fill="none" stroke="black" d="M591.15,-156.32C649.57,-149.54 742.83,-134.76 763.93,-108 773.84,-95.44 771.34,-86.19 763.93,-72 756.57,-57.88 743.54,-46.76 730.32,-38.43"/>
<polygon fill="black" stroke="black" points="732.46,-35.62 722.06,-33.61 728.93,-41.67 732.46,-35.62"/>
</g>
<!-- r2_node_4&#45;&gt;r2_node_14 -->
<g id="edge25" class="edge">
<title>r2_node_4&#45;&gt;r2_node_14</title>
<path fill="none" stroke="black" d="M513.04,-176.85C485.38,-188.26 444,-204.49 411.79,-216.56"/>
<polygon fill="black" stroke="black" points="410.82,-213.19 402.67,-219.96 413.26,-219.75 410.82,-213.19"/>
</g>
<!-- r2_node_18 -->
<g id="node15" class="node">
<title>r2_node_18</title>
<ellipse fill="none" stroke="black" cx="54.93" cy="-18" rx="54.93" ry="18"/>
<text text-anchor="middle" x="54.93" y="-12.95" font-family="Times,serif" font-size="14.00">r2_node_18</text>
</g>
<!-- r2_node_4&#45;&gt;r2_node_18 -->
<g id="edge28" class="edge">
<title>r2_node_4&#45;&gt;r2_node_18</title>
<path fill="none" stroke="black" d="M536.82,-143.93C528.4,-123.13 511.1,-88.69 483.93,-72 425.22,-35.93 244.28,-44.79 175.93,-36 156.33,-33.48 134.96,-30.54 115.72,-27.82"/>
<polygon fill="black" stroke="black" points="116.24,-24.36 105.85,-26.42 115.26,-31.29 116.24,-24.36"/>
</g>
<!-- r2_node_13 -->
<g id="node18" class="node">
<title>r2_node_13</title>
<ellipse fill="none" stroke="black" cx="699.93" cy="-90" rx="54.93" ry="18"/>
<text text-anchor="middle" x="699.93" y="-84.95" font-family="Times,serif" font-size="14.00">r2_node_13</text>
</g>
<!-- r2_node_4&#45;&gt;r2_node_13 -->
<g id="edge24" class="edge">
<title>r2_node_4&#45;&gt;r2_node_13</title>
<path fill="none" stroke="black" d="M569.87,-146.5C593.12,-135.5 627,-120.34 654.41,-108.64"/>
<polygon fill="black" stroke="black" points="655.71,-111.9 663.55,-104.77 652.98,-105.45 655.71,-111.9"/>
</g>
<!-- r2_node_3&#45;&gt;r2_node_5 -->
<g id="edge37" class="edge">
<title>r2_node_3&#45;&gt;r2_node_5</title>
<path fill="none" stroke="black" d="M236.49,-148.49C273.63,-136.25 332.81,-117.65 374.99,-104.94"/>
<polygon fill="black" stroke="black" points="375.84,-108.34 384.42,-102.12 373.83,-101.64 375.84,-108.34"/>
</g>
<!-- r2_node_3&#45;&gt;r2_node_14 -->
<g id="edge36" class="edge">
<title>r2_node_3&#45;&gt;r2_node_14</title>
<path fill="none" stroke="black" d="M236.29,-175.55C262.41,-186.14 298.2,-201.5 325.3,-213.67"/>
<polygon fill="black" stroke="black" points="323.66,-216.76 334.21,-217.7 326.54,-210.39 323.66,-216.76"/>
</g>
<!-- r2_node_3&#45;&gt;r2_node_17 -->
<g id="edge34" class="edge">
<title>r2_node_3&#45;&gt;r2_node_17</title>
<path fill="none" stroke="black" d="M247.33,-153.73C274.24,-146.84 306.24,-133.53 322.93,-108 331.69,-94.61 330.62,-86.03 322.93,-72 314.72,-57.02 300.27,-45.65 285.71,-37.37"/>
<polygon fill="black" stroke="black" points="287.51,-34.36 277.02,-32.82 284.26,-40.56 287.51,-34.36"/>
</g>
<!-- r2_node_3&#45;&gt;r2_node_18 -->
<g id="edge35" class="edge">
<title>r2_node_3&#45;&gt;r2_node_18</title>
<path fill="none" stroke="black" d="M237.96,-149.21C257.05,-140.92 278.79,-127.72 289.93,-108 297.81,-94.07 299.93,-84.5 289.93,-72 278.93,-58.24 180.6,-39.63 114.67,-28.52"/>
<polygon fill="black" stroke="black" points="115.51,-25.11 105.07,-26.92 114.36,-32.02 115.51,-25.11"/>
</g>
<!-- r2_node_6 -->
<g id="node19" class="node">
<title>r2_node_6</title>
<ellipse fill="none" stroke="black" cx="230.93" cy="-90" rx="50.33" ry="18"/>
<text text-anchor="middle" x="230.93" y="-84.95" font-family="Times,serif" font-size="14.00">r2_node_6</text>
</g>
<!-- r2_node_3&#45;&gt;r2_node_6 -->
<g id="edge33" class="edge">
<title>r2_node_3&#45;&gt;r2_node_6</title>
<path fill="none" stroke="black" d="M203.19,-143.7C205.62,-135.87 209.31,-126.44 213.28,-117.73"/>
<polygon fill="black" stroke="black" points="216.31,-119.51 217.54,-108.98 210.02,-116.44 216.31,-119.51"/>
</g>
<!-- r2_node_10 -->
<g id="node14" class="node">
<title>r2_node_10</title>
<ellipse fill="none" stroke="black" cx="77.93" cy="-234" rx="54.93" ry="18"/>
<text text-anchor="middle" x="77.93" y="-228.95" font-family="Times,serif" font-size="14.00">r2_node_10</text>
</g>
<!-- r2_node_10&#45;&gt;r2_node_17 -->
<g id="edge19" class="edge">
<title>r2_node_10&#45;&gt;r2_node_17</title>
<path fill="none" stroke="black" d="M85.17,-216.13C98.94,-185.25 131.24,-118.53 171.93,-72 181.96,-60.53 194.77,-49.8 206.56,-41.04"/>
<polygon fill="black" stroke="black" points="208.41,-44.02 214.49,-35.34 204.33,-38.33 208.41,-44.02"/>
</g>
<!-- r2_node_10&#45;&gt;r2_node_18 -->
<g id="edge20" class="edge">
<title>r2_node_10&#45;&gt;r2_node_18</title>
<path fill="none" stroke="black" d="M76.09,-215.85C72.15,-179.14 62.85,-92.66 58,-47.53"/>
<polygon fill="black" stroke="black" points="61.5,-47.31 56.95,-37.74 54.54,-48.05 61.5,-47.31"/>
</g>
<!-- r2_node_2 -->
<g id="node16" class="node">
<title>r2_node_2</title>
<ellipse fill="none" stroke="black" cx="476.93" cy="-378" rx="50.33" ry="18"/>
<text text-anchor="middle" x="476.93" y="-372.95" font-family="Times,serif" font-size="14.00">r2_node_2</text>
</g>
<!-- r2_node_2&#45;&gt;r2_node_16 -->
<g id="edge21" class="edge">
<title>r2_node_2&#45;&gt;r2_node_16</title>
<path fill="none" stroke="black" d="M517.21,-366.74C547.37,-358.02 588.94,-343.76 621.93,-324 683.78,-286.97 678.23,-247.78 742.93,-216 877.66,-149.83 987.37,-237.7 1062.93,-108 1070.99,-94.18 1072.17,-85.06 1062.93,-72 1043.55,-44.59 1008.74,-31.26 977.54,-24.82"/>
<polygon fill="black" stroke="black" points="978.2,-21.38 967.73,-23.02 976.94,-28.26 978.2,-21.38"/>
</g>
<!-- r2_node_2&#45;&gt;r2_node_15 -->
<g id="edge23" class="edge">
<title>r2_node_2&#45;&gt;r2_node_15</title>
<path fill="none" stroke="black" d="M478.74,-359.77C481.48,-340.65 488.15,-309.66 503.93,-288 592.43,-166.6 863.16,-184.8 763.93,-72 722.5,-24.9 545.87,-45.95 483.93,-36 473.78,-34.37 463,-32.45 452.6,-30.49"/>
<polygon fill="black" stroke="black" points="453.48,-27.1 443,-28.66 452.16,-33.97 453.48,-27.1"/>
</g>
<!-- r2_node_1 -->
<g id="node17" class="node">
<title>r2_node_1</title>
<ellipse fill="none" stroke="black" cx="562.93" cy="-306" rx="50.33" ry="18"/>
<text text-anchor="middle" x="562.93" y="-300.95" font-family="Times,serif" font-size="14.00">r2_node_1</text>
</g>
<!-- r2_node_2&#45;&gt;r2_node_1 -->
<g id="edge22" class="edge">
<title>r2_node_2&#45;&gt;r2_node_1</title>
<path fill="none" stroke="black" d="M491.47,-360.41C502.07,-350.95 516.62,-338.98 529.88,-328.77"/>
<polygon fill="black" stroke="black" points="531.72,-331.77 537.59,-322.95 527.5,-326.18 531.72,-331.77"/>
</g>
<!-- r2_node_1&#45;&gt;r2_node_2 -->
<g id="edge46" class="edge">
<title>r2_node_1&#45;&gt;r2_node_2</title>
<path fill="none" stroke="black" d="M548.35,-323.63C537.81,-333.04 523.36,-344.93 510.15,-355.1"/>
<polygon fill="black" stroke="black" points="508.35,-352.08 502.48,-360.9 512.57,-357.66 508.35,-352.08"/>
</g>
<!-- r2_node_13&#45;&gt;r2_node_19 -->
<g id="edge43" class="edge">
<title>r2_node_13&#45;&gt;r2_node_19</title>
<path fill="none" stroke="black" d="M696.97,-71.7C695.7,-64.32 694.2,-55.52 692.78,-47.25"/>
<polygon fill="black" stroke="black" points="696.26,-46.86 691.12,-37.6 689.36,-48.04 696.26,-46.86"/>
</g>
<!-- r2_node_13&#45;&gt;r2_node_20 -->
<g id="edge44" class="edge">
<title>r2_node_13&#45;&gt;r2_node_20</title>
<path fill="none" stroke="black" d="M669.17,-74.83C646.18,-64.24 614.49,-49.65 589.27,-38.04"/>
<polygon fill="black" stroke="black" points="590.83,-34.9 580.28,-33.9 587.9,-41.26 590.83,-34.9"/>
</g>
<!-- r2_node_13&#45;&gt;r2_node_4 -->
<g id="edge40" class="edge">
<title>r2_node_13&#45;&gt;r2_node_4</title>
<path fill="none" stroke="black" d="M672.18,-105.89C648.6,-117.02 614.49,-132.27 587.18,-143.9"/>
<polygon fill="black" stroke="black" points="585.95,-140.62 578.1,-147.73 588.67,-147.07 585.95,-140.62"/>
</g>
<!-- r2_node_13&#45;&gt;r2_node_17 -->
<g id="edge41" class="edge">
<title>r2_node_13&#45;&gt;r2_node_17</title>
<path fill="none" stroke="black" d="M651.5,-81.09C633.16,-78.15 612.1,-74.84 592.93,-72 477.1,-54.81 447.54,-54.64 331.93,-36 320.75,-34.2 308.83,-32.11 297.41,-30.04"/>
<polygon fill="black" stroke="black" points="298.15,-26.62 287.68,-28.25 296.88,-33.5 298.15,-26.62"/>
</g>
<!-- r2_node_13&#45;&gt;r2_node_18 -->
<g id="edge42" class="edge">
<title>r2_node_13&#45;&gt;r2_node_18</title>
<path fill="none" stroke="black" d="M652.1,-80.65C633.65,-77.63 612.35,-74.38 592.93,-72 408.29,-49.39 360.77,-56.95 175.93,-36 156.11,-33.75 134.52,-30.86 115.14,-28.11"/>
<polygon fill="black" stroke="black" points="115.91,-24.68 105.51,-26.72 114.91,-31.61 115.91,-24.68"/>
</g>
<!-- r2_node_6&#45;&gt;r2_node_3 -->
<g id="edge38" class="edge">
<title>r2_node_6&#45;&gt;r2_node_3</title>
<path fill="none" stroke="black" d="M229.64,-108.45C227.22,-116.18 223.59,-125.46 219.68,-134.06"/>
<polygon fill="black" stroke="black" points="216.54,-132.53 215.31,-143.05 222.83,-135.59 216.54,-132.53"/>
</g>
<!-- r2_node_6&#45;&gt;r2_node_18 -->
<g id="edge39" class="edge">
<title>r2_node_6&#45;&gt;r2_node_18</title>
<path fill="none" stroke="black" d="M198.24,-76C170.41,-64.93 130.16,-48.92 99.4,-36.69"/>
<polygon fill="black" stroke="black" points="100.94,-33.53 90.36,-33.09 98.36,-40.04 100.94,-33.53"/>
</g>
<!-- r2_node_8 -->
<g id="node20" class="node">
<title>r2_node_8</title>
<ellipse fill="none" stroke="black" cx="832.93" cy="-306" rx="50.33" ry="18"/>
<text text-anchor="middle" x="832.93" y="-300.95" font-family="Times,serif" font-size="14.00">r2_node_8</text>
</g>
<!-- r2_node_8&#45;&gt;r2_node_16 -->
<g id="edge45" class="edge">
<title>r2_node_8&#45;&gt;r2_node_16</title>
<path fill="none" stroke="black" d="M878.29,-297.71C944.49,-284.9 1067.92,-252.48 1143.93,-180 1169.41,-155.71 1169.43,-142.39 1176.93,-108 1180.35,-92.37 1187.07,-84.38 1176.93,-72 1152.27,-41.9 1048.04,-28.53 978.15,-22.87"/>
<polygon fill="black" stroke="black" points="978.57,-19.39 968.33,-22.11 978.03,-26.37 978.57,-19.39"/>
</g>
</g>
</svg>
