<?xml version="1.0" encoding="UTF-8" standalone="no"?>
<!DOCTYPE svg PUBLIC "-//W3C//DTD SVG 1.1//EN"
 "http://www.w3.org/Graphics/SVG/1.1/DTD/svg11.dtd">
<!-- Generated by graphviz version 12.2.1 (20241206.2353)
 -->
<!-- Pages: 1 -->
<svg width="1057pt" height="332pt"
 viewBox="0.00 0.00 1056.87 332.00" xmlns="http://www.w3.org/2000/svg" xmlns:xlink="http://www.w3.org/1999/xlink">
<g id="graph0" class="graph" transform="scale(1 1) rotate(0) translate(4 328)">
<polygon fill="white" stroke="none" points="-4,4 -4,-328 1052.87,-328 1052.87,4 -4,4"/>
<!-- r3_node_11 -->
<g id="node1" class="node">
<title>r3_node_11</title>
<ellipse fill="none" stroke="black" cx="54.93" cy="-18" rx="54.93" ry="18"/>
<text text-anchor="middle" x="54.93" y="-12.95" font-family="Times,serif" font-size="14.00">r3_node_11</text>
</g>
<!-- r3_node_17 -->
<g id="node2" class="node">
<title>r3_node_17</title>
<ellipse fill="none" stroke="black" cx="253.93" cy="-90" rx="54.93" ry="18"/>
<text text-anchor="middle" x="253.93" y="-84.95" font-family="Times,serif" font-size="14.00">r3_node_17</text>
</g>
<!-- r3_node_3 -->
<g id="node3" class="node">
<title>r3_node_3</title>
<ellipse fill="none" stroke="black" cx="86.93" cy="-306" rx="50.33" ry="18"/>
<text text-anchor="middle" x="86.93" y="-300.95" font-family="Times,serif" font-size="14.00">r3_node_3</text>
</g>
<!-- r3_node_3&#45;&gt;r3_node_11 -->
<g id="edge5" class="edge">
<title>r3_node_3&#45;&gt;r3_node_11</title>
<path fill="none" stroke="black" d="M84.98,-287.54C79.63,-239.76 64.73,-106.51 58.14,-47.61"/>
<polygon fill="black" stroke="black" points="61.62,-47.28 57.03,-37.74 54.66,-48.06 61.62,-47.28"/>
</g>
<!-- r3_node_3&#45;&gt;r3_node_17 -->
<g id="edge6" class="edge">
<title>r3_node_3&#45;&gt;r3_node_17</title>
<path fill="none" stroke="black" d="M100.04,-288.21C129.12,-250.94 199.23,-161.11 233.87,-116.71"/>
<polygon fill="black" stroke="black" points="236.57,-118.94 239.96,-108.91 231.05,-114.64 236.57,-118.94"/>
</g>
<!-- r3_node_19 -->
<g id="node4" class="node">
<title>r3_node_19</title>
<ellipse fill="none" stroke="black" cx="241.93" cy="-18" rx="54.93" ry="18"/>
<text text-anchor="middle" x="241.93" y="-12.95" font-family="Times,serif" font-size="14.00">r3_node_19</text>
</g>
<!-- r3_node_3&#45;&gt;r3_node_19 -->
<g id="edge1" class="edge">
<title>r3_node_3&#45;&gt;r3_node_19</title>
<path fill="none" stroke="black" d="M92.11,-287.82C104.7,-247.67 139.62,-145.56 189.93,-72 196.99,-61.68 206.17,-51.57 214.84,-43"/>
<polygon fill="black" stroke="black" points="217.01,-45.77 221.83,-36.33 212.18,-40.7 217.01,-45.77"/>
</g>
<!-- r3_node_7 -->
<g id="node5" class="node">
<title>r3_node_7</title>
<ellipse fill="none" stroke="black" cx="239.93" cy="-234" rx="50.33" ry="18"/>
<text text-anchor="middle" x="239.93" y="-228.95" font-family="Times,serif" font-size="14.00">r3_node_7</text>
</g>
<!-- r3_node_3&#45;&gt;r3_node_7 -->
<g id="edge2" class="edge">
<title>r3_node_3&#45;&gt;r3_node_7</title>
<path fill="none" stroke="black" d="M113.39,-290.33C136.2,-279.25 169.4,-264.01 196.13,-252.33"/>
<polygon fill="black" stroke="black" points="197.22,-255.68 205,-248.49 194.43,-249.25 197.22,-255.68"/>
</g>
<!-- r3_node_1 -->
<g id="node6" class="node">
<title>r3_node_1</title>
<ellipse fill="none" stroke="black" cx="422.93" cy="-234" rx="50.33" ry="18"/>
<text text-anchor="middle" x="422.93" y="-228.95" font-family="Times,serif" font-size="14.00">r3_node_1</text>
</g>
<!-- r3_node_3&#45;&gt;r3_node_1 -->
<g id="edge3" class="edge">
<title>r3_node_3&#45;&gt;r3_node_1</title>
<path fill="none" stroke="black" d="M129.58,-296.12C181.26,-286.18 270.55,-269.2 346.93,-252 354.17,-250.37 361.82,-248.54 369.38,-246.69"/>
<polygon fill="black" stroke="black" points="370,-250.14 378.88,-244.37 368.34,-243.35 370,-250.14"/>
</g>
<!-- r3_node_6 -->
<g id="node7" class="node">
<title>r3_node_6</title>
<ellipse fill="none" stroke="black" cx="465.93" cy="-162" rx="50.33" ry="18"/>
<text text-anchor="middle" x="465.93" y="-156.95" font-family="Times,serif" font-size="14.00">r3_node_6</text>
</g>
<!-- r3_node_3&#45;&gt;r3_node_6 -->
<g id="edge4" class="edge">
<title>r3_node_3&#45;&gt;r3_node_6</title>
<path fill="none" stroke="black" d="M129.79,-296.33C171.6,-287.86 236.28,-273.14 289.93,-252 320.66,-239.89 325.84,-231.61 354.93,-216 377.2,-204.05 402.39,-190.96 423.25,-180.78"/>
<polygon fill="black" stroke="black" points="424.57,-184.03 432.06,-176.54 421.53,-177.72 424.57,-184.03"/>
</g>
<!-- r3_node_7&#45;&gt;r3_node_17 -->
<g id="edge20" class="edge">
<title>r3_node_7&#45;&gt;r3_node_17</title>
<path fill="none" stroke="black" d="M239.3,-215.53C238.89,-197.53 238.89,-168.7 241.93,-144 242.94,-135.82 244.66,-127.05 246.48,-119.05"/>
<polygon fill="black" stroke="black" points="249.84,-120.05 248.81,-109.5 243.04,-118.39 249.84,-120.05"/>
</g>
<!-- r3_node_7&#45;&gt;r3_node_3 -->
<g id="edge21" class="edge">
<title>r3_node_7&#45;&gt;r3_node_3</title>
<path fill="none" stroke="black" d="M213.43,-249.7C190.59,-260.79 157.35,-276.04 130.62,-287.72"/>
<polygon fill="black" stroke="black" points="129.54,-284.37 121.75,-291.56 132.32,-290.8 129.54,-284.37"/>
</g>
<!-- r3_node_8 -->
<g id="node17" class="node">
<title>r3_node_8</title>
<ellipse fill="none" stroke="black" cx="300.93" cy="-162" rx="50.33" ry="18"/>
<text text-anchor="middle" x="300.93" y="-156.95" font-family="Times,serif" font-size="14.00">r3_node_8</text>
</g>
<!-- r3_node_7&#45;&gt;r3_node_8 -->
<g id="edge19" class="edge">
<title>r3_node_7&#45;&gt;r3_node_8</title>
<path fill="none" stroke="black" d="M254.39,-216.41C261.76,-207.95 270.87,-197.49 279.08,-188.08"/>
<polygon fill="black" stroke="black" points="281.66,-190.45 285.59,-180.61 276.38,-185.85 281.66,-190.45"/>
</g>
<!-- r3_node_2 -->
<g id="node18" class="node">
<title>r3_node_2</title>
<ellipse fill="none" stroke="black" cx="540.93" cy="-18" rx="50.33" ry="18"/>
<text text-anchor="middle" x="540.93" y="-12.95" font-family="Times,serif" font-size="14.00">r3_node_2</text>
</g>
<!-- r3_node_7&#45;&gt;r3_node_2 -->
<g id="edge22" class="edge">
<title>r3_node_7&#45;&gt;r3_node_2</title>
<path fill="none" stroke="black" d="M276.85,-221.44C308.29,-210.78 349.92,-194.47 359.93,-180 387.28,-140.46 336.23,-109.8 365.93,-72 373.78,-62.01 440.21,-43.8 488.9,-31.55"/>
<polygon fill="black" stroke="black" points="489.6,-34.98 498.46,-29.17 487.91,-28.19 489.6,-34.98"/>
</g>
<!-- r3_node_1&#45;&gt;r3_node_3 -->
<g id="edge36" class="edge">
<title>r3_node_1&#45;&gt;r3_node_3</title>
<path fill="none" stroke="black" d="M386.49,-246.85C379.37,-248.64 371.96,-250.42 364.93,-252 288.91,-269.12 200.1,-286.02 143.6,-295.98"/>
<polygon fill="black" stroke="black" points="143.14,-292.51 133.89,-297.68 144.35,-299.4 143.14,-292.51"/>
</g>
<!-- r3_node_1&#45;&gt;r3_node_6 -->
<g id="edge38" class="edge">
<title>r3_node_1&#45;&gt;r3_node_6</title>
<path fill="none" stroke="black" d="M427.65,-215.7C431.84,-207.49 437.76,-197.52 443.76,-188.48"/>
<polygon fill="black" stroke="black" points="446.55,-190.6 449.36,-180.39 440.79,-186.62 446.55,-190.6"/>
</g>
<!-- r3_node_5 -->
<g id="node9" class="node">
<title>r3_node_5</title>
<ellipse fill="none" stroke="black" cx="624.93" cy="-162" rx="50.33" ry="18"/>
<text text-anchor="middle" x="624.93" y="-156.95" font-family="Times,serif" font-size="14.00">r3_node_5</text>
</g>
<!-- r3_node_1&#45;&gt;r3_node_5 -->
<g id="edge37" class="edge">
<title>r3_node_1&#45;&gt;r3_node_5</title>
<path fill="none" stroke="black" d="M455.52,-219.83C488.34,-207.87 539.17,-190.23 576.65,-177.78"/>
<polygon fill="black" stroke="black" points="577.49,-181.19 585.89,-174.73 575.3,-174.54 577.49,-181.19"/>
</g>
<!-- r3_node_18 -->
<g id="node10" class="node">
<title>r3_node_18</title>
<ellipse fill="none" stroke="black" cx="685.93" cy="-90" rx="54.93" ry="18"/>
<text text-anchor="middle" x="685.93" y="-84.95" font-family="Times,serif" font-size="14.00">r3_node_18</text>
</g>
<!-- r3_node_1&#45;&gt;r3_node_18 -->
<g id="edge35" class="edge">
<title>r3_node_1&#45;&gt;r3_node_18</title>
<path fill="none" stroke="black" d="M453.48,-219.51C474.34,-209.73 502.2,-195.55 524.93,-180 544.95,-166.31 545.5,-157.05 565.93,-144 588.64,-129.5 615.98,-117.09 638.82,-107.93"/>
<polygon fill="black" stroke="black" points="639.85,-111.28 647.89,-104.38 637.3,-104.76 639.85,-111.28"/>
</g>
<!-- r3_node_15 -->
<g id="node13" class="node">
<title>r3_node_15</title>
<ellipse fill="none" stroke="black" cx="993.93" cy="-18" rx="54.93" ry="18"/>
<text text-anchor="middle" x="993.93" y="-12.95" font-family="Times,serif" font-size="14.00">r3_node_15</text>
</g>
<!-- r3_node_1&#45;&gt;r3_node_15 -->
<g id="edge34" class="edge">
<title>r3_node_1&#45;&gt;r3_node_15</title>
<path fill="none" stroke="black" d="M473.02,-231.04C552.76,-226.97 712.94,-214.82 843.93,-180 924.42,-158.61 970.72,-177.29 1016.93,-108 1029.35,-89.38 1021.26,-64.45 1011.4,-45.71"/>
<polygon fill="black" stroke="black" points="1014.46,-44 1006.46,-37.07 1008.39,-47.48 1014.46,-44"/>
</g>
<!-- r3_node_12 -->
<g id="node19" class="node">
<title>r3_node_12</title>
<ellipse fill="none" stroke="black" cx="805.93" cy="-18" rx="54.93" ry="18"/>
<text text-anchor="middle" x="805.93" y="-12.95" font-family="Times,serif" font-size="14.00">r3_node_12</text>
</g>
<!-- r3_node_1&#45;&gt;r3_node_12 -->
<g id="edge39" class="edge">
<title>r3_node_1&#45;&gt;r3_node_12</title>
<path fill="none" stroke="black" d="M469.19,-226.34C599.87,-207.05 964.56,-149.9 997.93,-108 1036.91,-59.07 939.1,-35.86 869.22,-25.8"/>
<polygon fill="black" stroke="black" points="869.72,-22.33 859.34,-24.44 868.77,-29.27 869.72,-22.33"/>
</g>
<!-- r3_node_6&#45;&gt;r3_node_17 -->
<g id="edge15" class="edge">
<title>r3_node_6&#45;&gt;r3_node_17</title>
<path fill="none" stroke="black" d="M429.97,-149.13C394.77,-137.5 340.91,-119.72 302.04,-106.88"/>
<polygon fill="black" stroke="black" points="303.53,-103.69 292.94,-103.88 301.34,-110.34 303.53,-103.69"/>
</g>
<!-- r3_node_6&#45;&gt;r3_node_3 -->
<g id="edge18" class="edge">
<title>r3_node_6&#45;&gt;r3_node_3</title>
<path fill="none" stroke="black" d="M443.54,-178.33C424.54,-188.8 397.02,-203.07 372.93,-216 343.84,-231.61 338.66,-239.89 307.93,-252 254.24,-273.16 189.51,-287.88 143.93,-296.35"/>
<polygon fill="black" stroke="black" points="143.47,-292.88 134.26,-298.1 144.72,-299.77 143.47,-292.88"/>
</g>
<!-- r3_node_6&#45;&gt;r3_node_1 -->
<g id="edge17" class="edge">
<title>r3_node_6&#45;&gt;r3_node_1</title>
<path fill="none" stroke="black" d="M461.31,-180.12C457.13,-188.33 451.21,-198.32 445.19,-207.4"/>
<polygon fill="black" stroke="black" points="442.38,-205.31 439.57,-215.52 448.14,-209.29 442.38,-205.31"/>
</g>
<!-- r3_node_6&#45;&gt;r3_node_18 -->
<g id="edge16" class="edge">
<title>r3_node_6&#45;&gt;r3_node_18</title>
<path fill="none" stroke="black" d="M502.76,-149.28C539.51,-137.59 596.21,-119.55 636.78,-106.64"/>
<polygon fill="black" stroke="black" points="637.6,-110.05 646.07,-103.68 635.48,-103.38 637.6,-110.05"/>
</g>
<!-- r3_node_9 -->
<g id="node11" class="node">
<title>r3_node_9</title>
<ellipse fill="none" stroke="black" cx="559.93" cy="-90" rx="50.33" ry="18"/>
<text text-anchor="middle" x="559.93" y="-84.95" font-family="Times,serif" font-size="14.00">r3_node_9</text>
</g>
<!-- r3_node_6&#45;&gt;r3_node_9 -->
<g id="edge14" class="edge">
<title>r3_node_6&#45;&gt;r3_node_9</title>
<path fill="none" stroke="black" d="M486.8,-145.46C499.49,-136.02 515.9,-123.79 529.97,-113.32"/>
<polygon fill="black" stroke="black" points="531.66,-116.42 537.59,-107.64 527.48,-110.8 531.66,-116.42"/>
</g>
<!-- r3_node_10 -->
<g id="node14" class="node">
<title>r3_node_10</title>
<ellipse fill="none" stroke="black" cx="429.93" cy="-90" rx="54.93" ry="18"/>
<text text-anchor="middle" x="429.93" y="-84.95" font-family="Times,serif" font-size="14.00">r3_node_10</text>
</g>
<!-- r3_node_6&#45;&gt;r3_node_10 -->
<g id="edge13" class="edge">
<title>r3_node_6&#45;&gt;r3_node_10</title>
<path fill="none" stroke="black" d="M451.56,-144.41C446.81,-136.79 441.8,-127.55 437.66,-118.9"/>
<polygon fill="black" stroke="black" points="440.88,-117.52 433.59,-109.83 434.49,-120.39 440.88,-117.52"/>
</g>
<!-- r3_node_16 -->
<g id="node8" class="node">
<title>r3_node_16</title>
<ellipse fill="none" stroke="black" cx="933.93" cy="-90" rx="54.93" ry="18"/>
<text text-anchor="middle" x="933.93" y="-84.95" font-family="Times,serif" font-size="14.00">r3_node_16</text>
</g>
<!-- r3_node_5&#45;&gt;r3_node_1 -->
<g id="edge8" class="edge">
<title>r3_node_5&#45;&gt;r3_node_1</title>
<path fill="none" stroke="black" d="M592.46,-176.13C559.63,-188.1 508.72,-205.77 471.19,-218.23"/>
<polygon fill="black" stroke="black" points="470.34,-214.82 461.94,-221.28 472.53,-221.47 470.34,-214.82"/>
</g>
<!-- r3_node_5&#45;&gt;r3_node_16 -->
<g id="edge12" class="edge">
<title>r3_node_5&#45;&gt;r3_node_16</title>
<path fill="none" stroke="black" d="M668,-152.32C717.04,-142.28 799.49,-124.97 869.93,-108 873.74,-107.08 877.66,-106.11 881.61,-105.11"/>
<polygon fill="black" stroke="black" points="882.42,-108.52 891.23,-102.63 880.67,-101.74 882.42,-108.52"/>
</g>
<!-- r3_node_5&#45;&gt;r3_node_18 -->
<g id="edge7" class="edge">
<title>r3_node_5&#45;&gt;r3_node_18</title>
<path fill="none" stroke="black" d="M639.39,-144.41C646.76,-135.95 655.87,-125.49 664.08,-116.08"/>
<polygon fill="black" stroke="black" points="666.66,-118.45 670.59,-108.61 661.38,-113.85 666.66,-118.45"/>
</g>
<!-- r3_node_5&#45;&gt;r3_node_9 -->
<g id="edge9" class="edge">
<title>r3_node_5&#45;&gt;r3_node_9</title>
<path fill="none" stroke="black" d="M609.53,-144.41C601.6,-135.87 591.76,-125.28 582.95,-115.79"/>
<polygon fill="black" stroke="black" points="585.63,-113.53 576.26,-108.58 580.5,-118.29 585.63,-113.53"/>
</g>
<!-- r3_node_4 -->
<g id="node12" class="node">
<title>r3_node_4</title>
<ellipse fill="none" stroke="black" cx="810.93" cy="-90" rx="50.33" ry="18"/>
<text text-anchor="middle" x="810.93" y="-84.95" font-family="Times,serif" font-size="14.00">r3_node_4</text>
</g>
<!-- r3_node_5&#45;&gt;r3_node_4 -->
<g id="edge10" class="edge">
<title>r3_node_5&#45;&gt;r3_node_4</title>
<path fill="none" stroke="black" d="M655.76,-147.34C685.25,-135.63 729.95,-118.78 763.87,-106.56"/>
<polygon fill="black" stroke="black" points="764.8,-109.94 773.04,-103.28 762.45,-103.35 764.8,-109.94"/>
</g>
<!-- r3_node_5&#45;&gt;r3_node_15 -->
<g id="edge11" class="edge">
<title>r3_node_5&#45;&gt;r3_node_15</title>
<path fill="none" stroke="black" d="M675.5,-161.61C767.54,-161.52 956.78,-155.42 997.93,-108 1012.19,-91.58 1009.58,-66.34 1004.33,-46.93"/>
<polygon fill="black" stroke="black" points="1007.69,-45.97 1001.39,-37.46 1001.01,-48.04 1007.69,-45.97"/>
</g>
<!-- r3_node_4&#45;&gt;r3_node_5 -->
<g id="edge30" class="edge">
<title>r3_node_4&#45;&gt;r3_node_5</title>
<path fill="none" stroke="black" d="M780.07,-104.68C750.54,-116.4 705.78,-133.27 671.86,-145.49"/>
<polygon fill="black" stroke="black" points="670.92,-142.11 662.68,-148.77 673.28,-148.7 670.92,-142.11"/>
</g>
<!-- r3_node_4&#45;&gt;r3_node_15 -->
<g id="edge33" class="edge">
<title>r3_node_4&#45;&gt;r3_node_15</title>
<path fill="none" stroke="black" d="M844.5,-76.16C873.7,-64.99 916.28,-48.7 948.52,-36.37"/>
<polygon fill="black" stroke="black" points="949.52,-39.74 957.61,-32.89 947.02,-33.2 949.52,-39.74"/>
</g>
<!-- r3_node_13 -->
<g id="node15" class="node">
<title>r3_node_13</title>
<ellipse fill="none" stroke="black" cx="672.93" cy="-18" rx="54.93" ry="18"/>
<text text-anchor="middle" x="672.93" y="-12.95" font-family="Times,serif" font-size="14.00">r3_node_13</text>
</g>
<!-- r3_node_4&#45;&gt;r3_node_13 -->
<g id="edge32" class="edge">
<title>r3_node_4&#45;&gt;r3_node_13</title>
<path fill="none" stroke="black" d="M782.67,-74.67C762.25,-64.31 734.41,-50.18 711.88,-38.76"/>
<polygon fill="black" stroke="black" points="713.48,-35.64 702.98,-34.24 710.31,-41.89 713.48,-35.64"/>
</g>
<!-- r3_node_4&#45;&gt;r3_node_2 -->
<g id="edge29" class="edge">
<title>r3_node_4&#45;&gt;r3_node_2</title>
<path fill="none" stroke="black" d="M772.25,-78.07C764.85,-76.02 757.16,-73.92 749.93,-72 720.53,-64.18 644.19,-44.91 592.38,-31.9"/>
<polygon fill="black" stroke="black" points="593.42,-28.55 582.87,-29.51 591.71,-35.34 593.42,-28.55"/>
</g>
<!-- r3_node_4&#45;&gt;r3_node_12 -->
<g id="edge31" class="edge">
<title>r3_node_4&#45;&gt;r3_node_12</title>
<path fill="none" stroke="black" d="M809.7,-71.7C809.18,-64.41 808.56,-55.73 807.97,-47.54"/>
<polygon fill="black" stroke="black" points="811.47,-47.34 807.26,-37.61 804.49,-47.84 811.47,-47.34"/>
</g>
<!-- r3_node_10&#45;&gt;r3_node_11 -->
<g id="edge24" class="edge">
<title>r3_node_10&#45;&gt;r3_node_11</title>
<path fill="none" stroke="black" d="M383.2,-80.28C314.75,-67.5 187.34,-43.71 112.98,-29.84"/>
<polygon fill="black" stroke="black" points="113.92,-26.45 103.45,-28.06 112.64,-33.33 113.92,-26.45"/>
</g>
<!-- r3_node_10&#45;&gt;r3_node_19 -->
<g id="edge27" class="edge">
<title>r3_node_10&#45;&gt;r3_node_19</title>
<path fill="none" stroke="black" d="M394.57,-75.83C364.37,-64.59 320.73,-48.34 287.84,-36.09"/>
<polygon fill="black" stroke="black" points="289.15,-32.84 278.56,-32.64 286.71,-39.41 289.15,-32.84"/>
</g>
<!-- r3_node_10&#45;&gt;r3_node_6 -->
<g id="edge23" class="edge">
<title>r3_node_10&#45;&gt;r3_node_6</title>
<path fill="none" stroke="black" d="M444.33,-107.62C449.09,-115.27 454.13,-124.55 458.27,-133.22"/>
<polygon fill="black" stroke="black" points="455.06,-134.61 462.33,-142.31 461.45,-131.76 455.06,-134.61"/>
</g>
<!-- r3_node_10&#45;&gt;r3_node_13 -->
<g id="edge25" class="edge">
<title>r3_node_10&#45;&gt;r3_node_13</title>
<path fill="none" stroke="black" d="M470.33,-77.36C511.89,-65.39 576.73,-46.71 621.83,-33.72"/>
<polygon fill="black" stroke="black" points="622.75,-37.1 631.39,-30.97 620.81,-30.37 622.75,-37.1"/>
</g>
<!-- r3_node_14 -->
<g id="node16" class="node">
<title>r3_node_14</title>
<ellipse fill="none" stroke="black" cx="399.93" cy="-18" rx="54.93" ry="18"/>
<text text-anchor="middle" x="399.93" y="-12.95" font-family="Times,serif" font-size="14.00">r3_node_14</text>
</g>
<!-- r3_node_10&#45;&gt;r3_node_14 -->
<g id="edge26" class="edge">
<title>r3_node_10&#45;&gt;r3_node_14</title>
<path fill="none" stroke="black" d="M422.52,-71.7C419.29,-64.15 415.41,-55.12 411.8,-46.68"/>
<polygon fill="black" stroke="black" points="415.02,-45.31 407.86,-37.5 408.58,-48.07 415.02,-45.31"/>
</g>
<!-- r3_node_10&#45;&gt;r3_node_2 -->
<g id="edge28" class="edge">
<title>r3_node_10&#45;&gt;r3_node_2</title>
<path fill="none" stroke="black" d="M454.57,-73.46C470.05,-63.7 490.24,-50.97 507.2,-40.28"/>
<polygon fill="black" stroke="black" points="508.88,-43.35 515.47,-35.06 505.14,-37.43 508.88,-43.35"/>
</g>
</g>
</svg>
