<?xml version="1.0" encoding="UTF-8" standalone="no"?>
<!DOCTYPE svg PUBLIC "-//W3C//DTD SVG 1.1//EN"
 "http://www.w3.org/Graphics/SVG/1.1/DTD/svg11.dtd">
<!-- Generated by graphviz version 12.2.1 (20241206.2353)
 -->
<!-- Pages: 1 -->
<svg width="753pt" height="620pt"
 viewBox="0.00 0.00 752.87 620.00" xmlns="http://www.w3.org/2000/svg" xmlns:xlink="http://www.w3.org/1999/xlink">
<g id="graph0" class="graph" transform="scale(1 1) rotate(0) translate(4 616)">
<polygon fill="white" stroke="none" points="-4,4 -4,-616 748.87,-616 748.87,4 -4,4"/>
<!-- r2_node_6 -->
<g id="node1" class="node">
<title>r2_node_6</title>
<ellipse fill="none" stroke="black" cx="182.93" cy="-594" rx="50.33" ry="18"/>
<text text-anchor="middle" x="182.93" y="-588.95" font-family="Times,serif" font-size="14.00">r2_node_6</text>
</g>
<!-- r2_node_18 -->
<g id="node2" class="node">
<title>r2_node_18</title>
<ellipse fill="none" stroke="black" cx="182.93" cy="-522" rx="54.93" ry="18"/>
<text text-anchor="middle" x="182.93" y="-516.95" font-family="Times,serif" font-size="14.00">r2_node_18</text>
</g>
<!-- r2_node_6&#45;&gt;r2_node_18 -->
<g id="edge1" class="edge">
<title>r2_node_6&#45;&gt;r2_node_18</title>
<path fill="none" stroke="black" d="M177.02,-575.7C176.27,-568.41 176.02,-559.73 176.29,-551.54"/>
<polygon fill="black" stroke="black" points="179.78,-551.82 176.94,-541.61 172.79,-551.36 179.78,-551.82"/>
</g>
<!-- r2_node_18&#45;&gt;r2_node_6 -->
<g id="edge28" class="edge">
<title>r2_node_18&#45;&gt;r2_node_6</title>
<path fill="none" stroke="black" d="M188.83,-540.1C189.59,-547.37 189.84,-556.04 189.59,-564.24"/>
<polygon fill="black" stroke="black" points="186.1,-563.98 188.95,-574.19 193.08,-564.43 186.1,-563.98"/>
</g>
<!-- r2_node_15 -->
<g id="node4" class="node">
<title>r2_node_15</title>
<ellipse fill="none" stroke="black" cx="118.93" cy="-450" rx="54.93" ry="18"/>
<text text-anchor="middle" x="118.93" y="-444.95" font-family="Times,serif" font-size="14.00">r2_node_15</text>
</g>
<!-- r2_node_18&#45;&gt;r2_node_15 -->
<g id="edge27" class="edge">
<title>r2_node_18&#45;&gt;r2_node_15</title>
<path fill="none" stroke="black" d="M162.65,-505.12C153.96,-496.68 144.04,-486.1 135.76,-476.55"/>
<polygon fill="black" stroke="black" points="138.51,-474.37 129.4,-468.96 133.14,-478.87 138.51,-474.37"/>
</g>
<!-- r2_node_19 -->
<g id="node21" class="node">
<title>r2_node_19</title>
<ellipse fill="none" stroke="black" cx="337.93" cy="-450" rx="54.93" ry="18"/>
<text text-anchor="middle" x="337.93" y="-444.95" font-family="Times,serif" font-size="14.00">r2_node_19</text>
</g>
<!-- r2_node_18&#45;&gt;r2_node_19 -->
<g id="edge25" class="edge">
<title>r2_node_18&#45;&gt;r2_node_19</title>
<path fill="none" stroke="black" d="M210.53,-505.98C233.37,-495.06 266.1,-480.23 292.72,-468.73"/>
<polygon fill="black" stroke="black" points="293.76,-472.09 301.57,-464.93 291,-465.66 293.76,-472.09"/>
</g>
<!-- r2_node_25 -->
<g id="node24" class="node">
<title>r2_node_25</title>
<ellipse fill="none" stroke="black" cx="689.93" cy="-18" rx="54.93" ry="18"/>
<text text-anchor="middle" x="689.93" y="-12.95" font-family="Times,serif" font-size="14.00">r2_node_25</text>
</g>
<!-- r2_node_18&#45;&gt;r2_node_25 -->
<g id="edge26" class="edge">
<title>r2_node_18&#45;&gt;r2_node_25</title>
<path fill="none" stroke="black" d="M235.75,-516.5C315.95,-507.25 468.97,-479.35 565.93,-396 651.08,-322.81 666.71,-288.13 696.93,-180 709.6,-134.7 698.85,-79.79 692.42,-47.21"/>
<polygon fill="black" stroke="black" points="695.93,-46.91 690.58,-37.76 689.05,-48.25 695.93,-46.91"/>
</g>
<!-- r2_node_17 -->
<g id="node3" class="node">
<title>r2_node_17</title>
<ellipse fill="none" stroke="black" cx="54.93" cy="-378" rx="54.93" ry="18"/>
<text text-anchor="middle" x="54.93" y="-372.95" font-family="Times,serif" font-size="14.00">r2_node_17</text>
</g>
<!-- r2_node_17&#45;&gt;r2_node_15 -->
<g id="edge2" class="edge">
<title>r2_node_17&#45;&gt;r2_node_15</title>
<path fill="none" stroke="black" d="M75.16,-394.83C83.82,-403.23 93.71,-413.77 101.98,-423.31"/>
<polygon fill="black" stroke="black" points="99.24,-425.49 108.35,-430.9 104.6,-420.99 99.24,-425.49"/>
</g>
<!-- r2_node_20 -->
<g id="node5" class="node">
<title>r2_node_20</title>
<ellipse fill="none" stroke="black" cx="118.93" cy="-90" rx="54.93" ry="18"/>
<text text-anchor="middle" x="118.93" y="-84.95" font-family="Times,serif" font-size="14.00">r2_node_20</text>
</g>
<!-- r2_node_17&#45;&gt;r2_node_20 -->
<g id="edge3" class="edge">
<title>r2_node_17&#45;&gt;r2_node_20</title>
<path fill="none" stroke="black" d="M40.06,-360.65C34.74,-350.35 30.02,-336.66 27.93,-324 20.1,-276.54 21.12,-262.07 34.93,-216 46.34,-177.95 71.95,-139.57 92.14,-115.57"/>
<polygon fill="black" stroke="black" points="94.6,-118.07 98.57,-108.24 89.34,-113.45 94.6,-118.07"/>
</g>
<!-- r2_node_12 -->
<g id="node6" class="node">
<title>r2_node_12</title>
<ellipse fill="none" stroke="black" cx="100.93" cy="-306" rx="54.93" ry="18"/>
<text text-anchor="middle" x="100.93" y="-300.95" font-family="Times,serif" font-size="14.00">r2_node_12</text>
</g>
<!-- r2_node_17&#45;&gt;r2_node_12 -->
<g id="edge4" class="edge">
<title>r2_node_17&#45;&gt;r2_node_12</title>
<path fill="none" stroke="black" d="M60.39,-359.7C64.87,-351.61 71.1,-341.81 77.39,-332.87"/>
<polygon fill="black" stroke="black" points="80.19,-334.98 83.27,-324.84 74.54,-330.84 80.19,-334.98"/>
</g>
<!-- r2_node_15&#45;&gt;r2_node_18 -->
<g id="edge40" class="edge">
<title>r2_node_15&#45;&gt;r2_node_18</title>
<path fill="none" stroke="black" d="M139.16,-466.83C147.82,-475.23 157.71,-485.77 165.98,-495.31"/>
<polygon fill="black" stroke="black" points="163.24,-497.49 172.35,-502.9 168.6,-492.99 163.24,-497.49"/>
</g>
<!-- r2_node_15&#45;&gt;r2_node_17 -->
<g id="edge39" class="edge">
<title>r2_node_15&#45;&gt;r2_node_17</title>
<path fill="none" stroke="black" d="M98.65,-433.12C89.96,-424.68 80.04,-414.1 71.76,-404.55"/>
<polygon fill="black" stroke="black" points="74.51,-402.37 65.4,-396.96 69.14,-406.87 74.51,-402.37"/>
</g>
<!-- r2_node_26 -->
<g id="node9" class="node">
<title>r2_node_26</title>
<ellipse fill="none" stroke="black" cx="205.93" cy="-378" rx="54.93" ry="18"/>
<text text-anchor="middle" x="205.93" y="-372.95" font-family="Times,serif" font-size="14.00">r2_node_26</text>
</g>
<!-- r2_node_15&#45;&gt;r2_node_26 -->
<g id="edge37" class="edge">
<title>r2_node_15&#45;&gt;r2_node_26</title>
<path fill="none" stroke="black" d="M133.71,-432.41C144.29,-423.08 158.75,-411.31 172.01,-401.2"/>
<polygon fill="black" stroke="black" points="173.82,-404.22 179.73,-395.42 169.63,-398.61 173.82,-404.22"/>
</g>
<!-- r2_node_4 -->
<g id="node12" class="node">
<title>r2_node_4</title>
<ellipse fill="none" stroke="black" cx="367.93" cy="-378" rx="50.33" ry="18"/>
<text text-anchor="middle" x="367.93" y="-372.95" font-family="Times,serif" font-size="14.00">r2_node_4</text>
</g>
<!-- r2_node_15&#45;&gt;r2_node_4 -->
<g id="edge38" class="edge">
<title>r2_node_15&#45;&gt;r2_node_4</title>
<path fill="none" stroke="black" d="M157.31,-436.73C200.06,-424.17 269.18,-404.73 316.55,-391.93"/>
<polygon fill="black" stroke="black" points="317.29,-395.36 326.04,-389.38 315.47,-388.6 317.29,-395.36"/>
</g>
<!-- r2_node_20&#45;&gt;r2_node_17 -->
<g id="edge53" class="edge">
<title>r2_node_20&#45;&gt;r2_node_17</title>
<path fill="none" stroke="black" d="M110.85,-108.28C95.68,-131.23 65.58,-173.82 52.93,-216 39.12,-262.07 38.1,-276.54 45.93,-324 47.3,-332.25 49.77,-340.93 52.12,-348.83"/>
<polygon fill="black" stroke="black" points="48.72,-349.65 54.9,-358.25 55.43,-347.67 48.72,-349.65"/>
</g>
<!-- r2_node_12&#45;&gt;r2_node_17 -->
<g id="edge33" class="edge">
<title>r2_node_12&#45;&gt;r2_node_17</title>
<path fill="none" stroke="black" d="M95.67,-323.96C91.14,-332.17 84.76,-342.22 78.32,-351.34"/>
<polygon fill="black" stroke="black" points="75.66,-349.06 72.57,-359.19 81.31,-353.2 75.66,-349.06"/>
</g>
<!-- r2_node_24 -->
<g id="node7" class="node">
<title>r2_node_24</title>
<ellipse fill="none" stroke="black" cx="228.93" cy="-306" rx="54.93" ry="18"/>
<text text-anchor="middle" x="228.93" y="-300.95" font-family="Times,serif" font-size="14.00">r2_node_24</text>
</g>
<!-- r2_node_3 -->
<g id="node8" class="node">
<title>r2_node_3</title>
<ellipse fill="none" stroke="black" cx="102.93" cy="-234" rx="50.33" ry="18"/>
<text text-anchor="middle" x="102.93" y="-228.95" font-family="Times,serif" font-size="14.00">r2_node_3</text>
</g>
<!-- r2_node_24&#45;&gt;r2_node_3 -->
<g id="edge5" class="edge">
<title>r2_node_24&#45;&gt;r2_node_3</title>
<path fill="none" stroke="black" d="M197.89,-290.83C178.78,-280.95 154.46,-267.57 135.16,-256.39"/>
<polygon fill="black" stroke="black" points="137,-253.41 126.6,-251.37 133.46,-259.45 137,-253.41"/>
</g>
<!-- r2_node_24&#45;&gt;r2_node_26 -->
<g id="edge6" class="edge">
<title>r2_node_24&#45;&gt;r2_node_26</title>
<path fill="none" stroke="black" d="M229.17,-324.28C227.46,-331.86 224.71,-340.95 221.6,-349.43"/>
<polygon fill="black" stroke="black" points="218.38,-348.06 217.94,-358.65 224.89,-350.65 218.38,-348.06"/>
</g>
<!-- r2_node_3&#45;&gt;r2_node_24 -->
<g id="edge35" class="edge">
<title>r2_node_3&#45;&gt;r2_node_24</title>
<path fill="none" stroke="black" d="M133.2,-248.76C152.42,-258.69 177.13,-272.27 196.69,-283.6"/>
<polygon fill="black" stroke="black" points="194.69,-286.49 205.09,-288.53 198.23,-280.45 194.69,-286.49"/>
</g>
<!-- r2_node_21 -->
<g id="node14" class="node">
<title>r2_node_21</title>
<ellipse fill="none" stroke="black" cx="145.93" cy="-162" rx="54.93" ry="18"/>
<text text-anchor="middle" x="145.93" y="-156.95" font-family="Times,serif" font-size="14.00">r2_node_21</text>
</g>
<!-- r2_node_3&#45;&gt;r2_node_21 -->
<g id="edge34" class="edge">
<title>r2_node_3&#45;&gt;r2_node_21</title>
<path fill="none" stroke="black" d="M107.65,-215.7C111.78,-207.61 117.59,-197.81 123.5,-188.87"/>
<polygon fill="black" stroke="black" points="126.22,-191.09 129.02,-180.87 120.46,-187.11 126.22,-191.09"/>
</g>
<!-- r2_node_5 -->
<g id="node27" class="node">
<title>r2_node_5</title>
<ellipse fill="none" stroke="black" cx="311.93" cy="-162" rx="50.33" ry="18"/>
<text text-anchor="middle" x="311.93" y="-156.95" font-family="Times,serif" font-size="14.00">r2_node_5</text>
</g>
<!-- r2_node_3&#45;&gt;r2_node_5 -->
<g id="edge36" class="edge">
<title>r2_node_3&#45;&gt;r2_node_5</title>
<path fill="none" stroke="black" d="M135.9,-220.16C170.14,-208.1 223.88,-190.08 263.04,-177.5"/>
<polygon fill="black" stroke="black" points="264.02,-180.86 272.48,-174.49 261.89,-174.2 264.02,-180.86"/>
</g>
<!-- r2_node_26&#45;&gt;r2_node_15 -->
<g id="edge11" class="edge">
<title>r2_node_26&#45;&gt;r2_node_15</title>
<path fill="none" stroke="black" d="M191.11,-395.63C180.44,-405.04 165.81,-416.93 152.46,-427.1"/>
<polygon fill="black" stroke="black" points="150.61,-424.11 144.7,-432.9 154.81,-429.72 150.61,-424.11"/>
</g>
<!-- r2_node_26&#45;&gt;r2_node_24 -->
<g id="edge10" class="edge">
<title>r2_node_26&#45;&gt;r2_node_24</title>
<path fill="none" stroke="black" d="M205.7,-359.7C207.43,-352.04 210.22,-342.85 213.36,-334.3"/>
<polygon fill="black" stroke="black" points="216.61,-335.61 217.07,-325.03 210.11,-333.01 216.61,-335.61"/>
</g>
<!-- r2_node_8 -->
<g id="node13" class="node">
<title>r2_node_8</title>
<ellipse fill="none" stroke="black" cx="529.93" cy="-18" rx="50.33" ry="18"/>
<text text-anchor="middle" x="529.93" y="-12.95" font-family="Times,serif" font-size="14.00">r2_node_8</text>
</g>
<!-- r2_node_26&#45;&gt;r2_node_8 -->
<g id="edge9" class="edge">
<title>r2_node_26&#45;&gt;r2_node_8</title>
<path fill="none" stroke="black" d="M237.92,-363.05C254.76,-354.66 273.8,-342.04 283.93,-324 291.77,-310.05 292.38,-301.59 283.93,-288 264.83,-257.28 230.04,-282.72 210.93,-252 202.49,-238.41 201.02,-228.56 210.93,-216 253.69,-161.85 296.21,-200.99 361.93,-180 402.58,-167.02 410.07,-156.28 450.93,-144 528.23,-120.77 577.83,-170.47 628.93,-108 639.06,-95.62 637.4,-85.58 628.93,-72 617.66,-53.91 598.22,-41.82 579.48,-33.82"/>
<polygon fill="black" stroke="black" points="580.89,-30.62 570.3,-30.23 578.34,-37.14 580.89,-30.62"/>
</g>
<!-- r2_node_11 -->
<g id="node10" class="node">
<title>r2_node_11</title>
<ellipse fill="none" stroke="black" cx="412.93" cy="-306" rx="54.93" ry="18"/>
<text text-anchor="middle" x="412.93" y="-300.95" font-family="Times,serif" font-size="14.00">r2_node_11</text>
</g>
<!-- r2_node_28 -->
<g id="node11" class="node">
<title>r2_node_28</title>
<ellipse fill="none" stroke="black" cx="283.93" cy="-234" rx="54.93" ry="18"/>
<text text-anchor="middle" x="283.93" y="-228.95" font-family="Times,serif" font-size="14.00">r2_node_28</text>
</g>
<!-- r2_node_11&#45;&gt;r2_node_28 -->
<g id="edge7" class="edge">
<title>r2_node_11&#45;&gt;r2_node_28</title>
<path fill="none" stroke="black" d="M381.28,-290.83C361.66,-280.9 336.63,-267.45 316.8,-256.23"/>
<polygon fill="black" stroke="black" points="318.7,-253.29 308.28,-251.36 315.22,-259.36 318.7,-253.29"/>
</g>
<!-- r2_node_11&#45;&gt;r2_node_4 -->
<g id="edge8" class="edge">
<title>r2_node_11&#45;&gt;r2_node_4</title>
<path fill="none" stroke="black" d="M407.82,-324.12C403.36,-332.41 397.06,-342.53 390.72,-351.69"/>
<polygon fill="black" stroke="black" points="388.07,-349.38 385.06,-359.54 393.75,-353.48 388.07,-349.38"/>
</g>
<!-- r2_node_28&#45;&gt;r2_node_11 -->
<g id="edge47" class="edge">
<title>r2_node_28&#45;&gt;r2_node_11</title>
<path fill="none" stroke="black" d="M315.25,-249C334.85,-258.91 359.94,-272.39 379.84,-283.64"/>
<polygon fill="black" stroke="black" points="377.99,-286.61 388.41,-288.54 381.47,-280.54 377.99,-286.61"/>
</g>
<!-- r2_node_4&#45;&gt;r2_node_15 -->
<g id="edge44" class="edge">
<title>r2_node_4&#45;&gt;r2_node_15</title>
<path fill="none" stroke="black" d="M331.21,-390.79C289.36,-403.11 220.76,-422.42 172.86,-435.38"/>
<polygon fill="black" stroke="black" points="171.97,-431.99 163.22,-437.97 173.79,-438.75 171.97,-431.99"/>
</g>
<!-- r2_node_4&#45;&gt;r2_node_11 -->
<g id="edge43" class="edge">
<title>r2_node_4&#45;&gt;r2_node_11</title>
<path fill="none" stroke="black" d="M373.14,-359.7C377.51,-351.61 383.6,-341.81 389.76,-332.87"/>
<polygon fill="black" stroke="black" points="392.53,-335.02 395.52,-324.85 386.84,-330.93 392.53,-335.02"/>
</g>
<!-- r2_node_8&#45;&gt;r2_node_26 -->
<g id="edge21" class="edge">
<title>r2_node_8&#45;&gt;r2_node_26</title>
<path fill="none" stroke="black" d="M574.65,-26.58C600.84,-33.76 631.52,-47.27 646.93,-72 655.4,-85.58 657.06,-95.62 646.93,-108 595.83,-170.47 546.23,-120.77 468.93,-144 428.07,-156.28 420.58,-167.02 379.93,-180 314.21,-200.99 271.69,-161.85 228.93,-216 219.02,-228.56 220.49,-238.41 228.93,-252 248.04,-282.72 282.83,-257.28 301.93,-288 310.38,-301.59 309.77,-310.05 301.93,-324 292.45,-340.89 275.16,-353.02 257.77,-361.39"/>
<polygon fill="black" stroke="black" points="256.7,-358.03 248.97,-365.27 259.53,-364.44 256.7,-358.03"/>
</g>
<!-- r2_node_21&#45;&gt;r2_node_3 -->
<g id="edge14" class="edge">
<title>r2_node_21&#45;&gt;r2_node_3</title>
<path fill="none" stroke="black" d="M141.31,-180.12C137.13,-188.33 131.21,-198.32 125.19,-207.4"/>
<polygon fill="black" stroke="black" points="122.38,-205.31 119.57,-215.52 128.14,-209.29 122.38,-205.31"/>
</g>
<!-- r2_node_16 -->
<g id="node15" class="node">
<title>r2_node_16</title>
<ellipse fill="none" stroke="black" cx="292.93" cy="-90" rx="54.93" ry="18"/>
<text text-anchor="middle" x="292.93" y="-84.95" font-family="Times,serif" font-size="14.00">r2_node_16</text>
</g>
<!-- r2_node_21&#45;&gt;r2_node_16 -->
<g id="edge12" class="edge">
<title>r2_node_21&#45;&gt;r2_node_16</title>
<path fill="none" stroke="black" d="M172.15,-145.81C193.45,-135.04 223.78,-120.55 248.78,-109.17"/>
<polygon fill="black" stroke="black" points="250.06,-112.43 257.74,-105.13 247.18,-106.05 250.06,-112.43"/>
</g>
<!-- r2_node_7 -->
<g id="node16" class="node">
<title>r2_node_7</title>
<ellipse fill="none" stroke="black" cx="438.93" cy="-90" rx="50.33" ry="18"/>
<text text-anchor="middle" x="438.93" y="-84.95" font-family="Times,serif" font-size="14.00">r2_node_7</text>
</g>
<!-- r2_node_21&#45;&gt;r2_node_7 -->
<g id="edge13" class="edge">
<title>r2_node_21&#45;&gt;r2_node_7</title>
<path fill="none" stroke="black" d="M187.58,-149.83C239.63,-136.88 328.56,-115.63 385.55,-102.52"/>
<polygon fill="black" stroke="black" points="386.05,-106 395.02,-100.35 384.49,-99.17 386.05,-106"/>
</g>
<!-- r2_node_16&#45;&gt;r2_node_21 -->
<g id="edge30" class="edge">
<title>r2_node_16&#45;&gt;r2_node_21</title>
<path fill="none" stroke="black" d="M266.78,-106.16C245.48,-116.93 215.11,-131.44 190.09,-142.83"/>
<polygon fill="black" stroke="black" points="188.79,-139.58 181.11,-146.88 191.67,-145.96 188.79,-139.58"/>
</g>
<!-- r2_node_10 -->
<g id="node25" class="node">
<title>r2_node_10</title>
<ellipse fill="none" stroke="black" cx="204.93" cy="-18" rx="54.93" ry="18"/>
<text text-anchor="middle" x="204.93" y="-12.95" font-family="Times,serif" font-size="14.00">r2_node_10</text>
</g>
<!-- r2_node_16&#45;&gt;r2_node_10 -->
<g id="edge32" class="edge">
<title>r2_node_16&#45;&gt;r2_node_10</title>
<path fill="none" stroke="black" d="M268.16,-73.81C255.67,-64.75 240.71,-53.05 228.41,-42.79"/>
<polygon fill="black" stroke="black" points="231.03,-40.42 221.15,-36.61 226.49,-45.76 231.03,-40.42"/>
</g>
<!-- r2_node_23 -->
<g id="node26" class="node">
<title>r2_node_23</title>
<ellipse fill="none" stroke="black" cx="332.93" cy="-18" rx="54.93" ry="18"/>
<text text-anchor="middle" x="332.93" y="-12.95" font-family="Times,serif" font-size="14.00">r2_node_23</text>
</g>
<!-- r2_node_16&#45;&gt;r2_node_23 -->
<g id="edge31" class="edge">
<title>r2_node_16&#45;&gt;r2_node_23</title>
<path fill="none" stroke="black" d="M296.91,-71.7C300.65,-63.7 305.97,-54.02 311.43,-45.15"/>
<polygon fill="black" stroke="black" points="314.28,-47.19 316.77,-36.89 308.4,-43.39 314.28,-47.19"/>
</g>
<!-- r2_node_7&#45;&gt;r2_node_21 -->
<g id="edge45" class="edge">
<title>r2_node_7&#45;&gt;r2_node_21</title>
<path fill="none" stroke="black" d="M399.61,-101.59C348.82,-114.26 260.3,-135.43 202.36,-148.78"/>
<polygon fill="black" stroke="black" points="201.64,-145.35 192.67,-151 203.2,-152.18 201.64,-145.35"/>
</g>
<!-- r2_node_1 -->
<g id="node17" class="node">
<title>r2_node_1</title>
<ellipse fill="none" stroke="black" cx="535.93" cy="-306" rx="50.33" ry="18"/>
<text text-anchor="middle" x="535.93" y="-300.95" font-family="Times,serif" font-size="14.00">r2_node_1</text>
</g>
<!-- r2_node_9 -->
<g id="node18" class="node">
<title>r2_node_9</title>
<ellipse fill="none" stroke="black" cx="406.93" cy="-234" rx="50.33" ry="18"/>
<text text-anchor="middle" x="406.93" y="-228.95" font-family="Times,serif" font-size="14.00">r2_node_9</text>
</g>
<!-- r2_node_1&#45;&gt;r2_node_9 -->
<g id="edge15" class="edge">
<title>r2_node_1&#45;&gt;r2_node_9</title>
<path fill="none" stroke="black" d="M505.27,-291.34C485.32,-281.26 459.48,-267.37 439.22,-255.91"/>
<polygon fill="black" stroke="black" points="441.22,-253.02 430.81,-251.08 437.74,-259.09 441.22,-253.02"/>
</g>
<!-- r2_node_29 -->
<g id="node19" class="node">
<title>r2_node_29</title>
<ellipse fill="none" stroke="black" cx="510.93" cy="-378" rx="54.93" ry="18"/>
<text text-anchor="middle" x="510.93" y="-372.95" font-family="Times,serif" font-size="14.00">r2_node_29</text>
</g>
<!-- r2_node_1&#45;&gt;r2_node_29 -->
<g id="edge16" class="edge">
<title>r2_node_1&#45;&gt;r2_node_29</title>
<path fill="none" stroke="black" d="M535.68,-324.28C533.73,-331.94 530.67,-341.16 527.28,-349.72"/>
<polygon fill="black" stroke="black" points="524.17,-348.09 523.46,-358.66 530.61,-350.84 524.17,-348.09"/>
</g>
<!-- r2_node_30 -->
<g id="node20" class="node">
<title>r2_node_30</title>
<ellipse fill="none" stroke="black" cx="529.93" cy="-234" rx="54.93" ry="18"/>
<text text-anchor="middle" x="529.93" y="-228.95" font-family="Times,serif" font-size="14.00">r2_node_30</text>
</g>
<!-- r2_node_1&#45;&gt;r2_node_30 -->
<g id="edge17" class="edge">
<title>r2_node_1&#45;&gt;r2_node_30</title>
<path fill="none" stroke="black" d="M528.6,-288.05C527.19,-280.68 526.18,-271.84 525.73,-263.51"/>
<polygon fill="black" stroke="black" points="529.24,-263.71 525.53,-253.79 522.24,-263.86 529.24,-263.71"/>
</g>
<!-- r2_node_9&#45;&gt;r2_node_1 -->
<g id="edge46" class="edge">
<title>r2_node_9&#45;&gt;r2_node_1</title>
<path fill="none" stroke="black" d="M437.6,-248.67C457.54,-258.73 483.36,-272.61 503.6,-284.07"/>
<polygon fill="black" stroke="black" points="501.59,-286.95 512.01,-288.89 505.07,-280.88 501.59,-286.95"/>
</g>
<!-- r2_node_29&#45;&gt;r2_node_1 -->
<g id="edge18" class="edge">
<title>r2_node_29&#45;&gt;r2_node_1</title>
<path fill="none" stroke="black" d="M511.2,-359.7C513.16,-351.95 516.26,-342.64 519.69,-334.02"/>
<polygon fill="black" stroke="black" points="522.83,-335.58 523.56,-325.01 516.4,-332.82 522.83,-335.58"/>
</g>
<!-- r2_node_29&#45;&gt;r2_node_19 -->
<g id="edge19" class="edge">
<title>r2_node_29&#45;&gt;r2_node_19</title>
<path fill="none" stroke="black" d="M480.94,-393.39C454.47,-404.7 415.63,-420.45 385.04,-432.31"/>
<polygon fill="black" stroke="black" points="384.09,-428.92 376.02,-435.78 386.61,-435.46 384.09,-428.92"/>
</g>
<!-- r2_node_30&#45;&gt;r2_node_1 -->
<g id="edge22" class="edge">
<title>r2_node_30&#45;&gt;r2_node_1</title>
<path fill="none" stroke="black" d="M537.3,-252.1C538.68,-259.37 539.68,-268.04 540.12,-276.24"/>
<polygon fill="black" stroke="black" points="536.62,-276.26 540.33,-286.18 543.62,-276.11 536.62,-276.26"/>
</g>
<!-- r2_node_2 -->
<g id="node22" class="node">
<title>r2_node_2</title>
<ellipse fill="none" stroke="black" cx="518.93" cy="-162" rx="50.33" ry="18"/>
<text text-anchor="middle" x="518.93" y="-156.95" font-family="Times,serif" font-size="14.00">r2_node_2</text>
</g>
<!-- r2_node_30&#45;&gt;r2_node_2 -->
<g id="edge24" class="edge">
<title>r2_node_30&#45;&gt;r2_node_2</title>
<path fill="none" stroke="black" d="M521.39,-216.05C519.45,-208.68 517.81,-199.84 516.77,-191.51"/>
<polygon fill="black" stroke="black" points="520.28,-191.42 515.87,-181.78 513.3,-192.06 520.28,-191.42"/>
</g>
<!-- r2_node_22 -->
<g id="node23" class="node">
<title>r2_node_22</title>
<ellipse fill="none" stroke="black" cx="641.93" cy="-162" rx="54.93" ry="18"/>
<text text-anchor="middle" x="641.93" y="-156.95" font-family="Times,serif" font-size="14.00">r2_node_22</text>
</g>
<!-- r2_node_30&#45;&gt;r2_node_22 -->
<g id="edge23" class="edge">
<title>r2_node_30&#45;&gt;r2_node_22</title>
<path fill="none" stroke="black" d="M549.85,-216.94C564.73,-206.93 585.35,-193.96 603.36,-183.24"/>
<polygon fill="black" stroke="black" points="604.89,-186.4 611.74,-178.32 601.35,-180.37 604.89,-186.4"/>
</g>
<!-- r2_node_19&#45;&gt;r2_node_18 -->
<g id="edge48" class="edge">
<title>r2_node_19&#45;&gt;r2_node_18</title>
<path fill="none" stroke="black" d="M310.42,-465.98C287.57,-476.91 254.79,-491.76 228.14,-503.28"/>
<polygon fill="black" stroke="black" points="227.09,-499.92 219.28,-507.07 229.85,-506.35 227.09,-499.92"/>
</g>
<!-- r2_node_19&#45;&gt;r2_node_29 -->
<g id="edge49" class="edge">
<title>r2_node_19&#45;&gt;r2_node_29</title>
<path fill="none" stroke="black" d="M367.79,-434.67C394.18,-423.39 432.94,-407.67 463.53,-395.81"/>
<polygon fill="black" stroke="black" points="464.49,-399.19 472.57,-392.33 461.98,-392.66 464.49,-399.19"/>
</g>
<!-- r2_node_2&#45;&gt;r2_node_30 -->
<g id="edge20" class="edge">
<title>r2_node_2&#45;&gt;r2_node_30</title>
<path fill="none" stroke="black" d="M527.52,-180.1C529.42,-187.37 531.04,-196.04 532.07,-204.24"/>
<polygon fill="black" stroke="black" points="528.58,-204.56 532.99,-214.19 535.55,-203.91 528.58,-204.56"/>
</g>
<!-- r2_node_22&#45;&gt;r2_node_30 -->
<g id="edge54" class="edge">
<title>r2_node_22&#45;&gt;r2_node_30</title>
<path fill="none" stroke="black" d="M621.93,-179.12C607.17,-189.05 586.8,-201.87 568.92,-212.51"/>
<polygon fill="black" stroke="black" points="567.18,-209.47 560.33,-217.56 570.73,-215.51 567.18,-209.47"/>
</g>
<!-- r2_node_25&#45;&gt;r2_node_18 -->
<g id="edge50" class="edge">
<title>r2_node_25&#45;&gt;r2_node_18</title>
<path fill="none" stroke="black" d="M700.96,-35.81C713.69,-65.48 729.23,-128.87 714.93,-180 684.71,-288.13 669.08,-322.81 583.93,-396 487.12,-479.22 334.42,-507.17 248,-516.45"/>
<polygon fill="black" stroke="black" points="247.87,-512.95 238.27,-517.44 248.58,-519.91 247.87,-512.95"/>
</g>
<!-- r2_node_10&#45;&gt;r2_node_16 -->
<g id="edge29" class="edge">
<title>r2_node_10&#45;&gt;r2_node_16</title>
<path fill="none" stroke="black" d="M229.82,-34.27C242.19,-43.25 256.96,-54.8 269.17,-64.97"/>
<polygon fill="black" stroke="black" points="266.88,-67.62 276.77,-71.43 271.42,-62.29 266.88,-67.62"/>
</g>
<!-- r2_node_23&#45;&gt;r2_node_16 -->
<g id="edge52" class="edge">
<title>r2_node_23&#45;&gt;r2_node_16</title>
<path fill="none" stroke="black" d="M328.89,-36.45C325.14,-44.44 319.84,-54.08 314.39,-62.92"/>
<polygon fill="black" stroke="black" points="311.56,-60.84 309.08,-71.14 317.44,-64.64 311.56,-60.84"/>
</g>
<!-- r2_node_5&#45;&gt;r2_node_3 -->
<g id="edge42" class="edge">
<title>r2_node_5&#45;&gt;r2_node_3</title>
<path fill="none" stroke="black" d="M278.67,-175.94C244.47,-187.99 191.02,-205.91 151.99,-218.44"/>
<polygon fill="black" stroke="black" points="151.04,-215.07 142.58,-221.45 153.17,-221.74 151.04,-215.07"/>
</g>
<!-- r2_node_14 -->
<g id="node28" class="node">
<title>r2_node_14</title>
<ellipse fill="none" stroke="black" cx="573.93" cy="-90" rx="54.93" ry="18"/>
<text text-anchor="middle" x="573.93" y="-84.95" font-family="Times,serif" font-size="14.00">r2_node_14</text>
</g>
<!-- r2_node_5&#45;&gt;r2_node_14 -->
<g id="edge41" class="edge">
<title>r2_node_5&#45;&gt;r2_node_14</title>
<path fill="none" stroke="black" d="M349.47,-149.6C394.06,-137.14 468.58,-117.2 519.48,-104.11"/>
<polygon fill="black" stroke="black" points="520.31,-107.5 529.13,-101.63 518.58,-100.72 520.31,-107.5"/>
</g>
<!-- r2_node_14&#45;&gt;r2_node_5 -->
<g id="edge51" class="edge">
<title>r2_node_14&#45;&gt;r2_node_5</title>
<path fill="none" stroke="black" d="M534.72,-102.87C489.29,-115.54 414.49,-135.54 364.18,-148.46"/>
<polygon fill="black" stroke="black" points="363.5,-145.02 354.68,-150.89 365.23,-151.81 363.5,-145.02"/>
</g>
</g>
</svg>
