<?xml version="1.0" encoding="UTF-8" standalone="no"?>
<!DOCTYPE svg PUBLIC "-//W3C//DTD SVG 1.1//EN"
 "http://www.w3.org/Graphics/SVG/1.1/DTD/svg11.dtd">
<!-- Generated by graphviz version 12.2.1 (20241206.2353)
 -->
<!-- Pages: 1 -->
<svg width="228pt" height="188pt"
 viewBox="0.00 0.00 227.66 188.00" xmlns="http://www.w3.org/2000/svg" xmlns:xlink="http://www.w3.org/1999/xlink">
<g id="graph0" class="graph" transform="scale(1 1) rotate(0) translate(4 184)">
<polygon fill="white" stroke="none" points="-4,4 -4,-184 223.66,-184 223.66,4 -4,4"/>
<!-- r4_node_18 -->
<g id="node1" class="node">
<title>r4_node_18</title>
<ellipse fill="none" stroke="black" cx="109.33" cy="-162" rx="54.93" ry="18"/>
<text text-anchor="middle" x="109.33" y="-156.95" font-family="Times,serif" font-size="14.00">r4_node_18</text>
</g>
<!-- r4_node_9 -->
<g id="node2" class="node">
<title>r4_node_9</title>
<ellipse fill="none" stroke="black" cx="109.33" cy="-90" rx="50.33" ry="18"/>
<text text-anchor="middle" x="109.33" y="-84.95" font-family="Times,serif" font-size="14.00">r4_node_9</text>
</g>
<!-- r4_node_18&#45;&gt;r4_node_9 -->
<g id="edge1" class="edge">
<title>r4_node_18&#45;&gt;r4_node_9</title>
<path fill="none" stroke="black" d="M103.41,-143.7C102.66,-136.41 102.42,-127.73 102.68,-119.54"/>
<polygon fill="black" stroke="black" points="106.17,-119.82 103.33,-109.61 99.18,-119.36 106.17,-119.82"/>
</g>
<!-- r4_node_9&#45;&gt;r4_node_18 -->
<g id="edge3" class="edge">
<title>r4_node_9&#45;&gt;r4_node_18</title>
<path fill="none" stroke="black" d="M115.22,-108.1C115.98,-115.37 116.24,-124.04 115.98,-132.24"/>
<polygon fill="black" stroke="black" points="112.49,-131.98 115.34,-142.19 119.48,-132.43 112.49,-131.98"/>
</g>
<!-- r4_node_4 -->
<g id="node3" class="node">
<title>r4_node_4</title>
<ellipse fill="none" stroke="black" cx="50.33" cy="-18" rx="50.33" ry="18"/>
<text text-anchor="middle" x="50.33" y="-12.95" font-family="Times,serif" font-size="14.00">r4_node_4</text>
</g>
<!-- r4_node_9&#45;&gt;r4_node_4 -->
<g id="edge2" class="edge">
<title>r4_node_9&#45;&gt;r4_node_4</title>
<path fill="none" stroke="black" d="M95.35,-72.41C88.22,-63.95 79.4,-53.49 71.47,-44.08"/>
<polygon fill="black" stroke="black" points="74.31,-42.02 65.19,-36.63 68.95,-46.53 74.31,-42.02"/>
</g>
<!-- r4_node_2 -->
<g id="node4" class="node">
<title>r4_node_2</title>
<ellipse fill="none" stroke="black" cx="169.33" cy="-18" rx="50.33" ry="18"/>
<text text-anchor="middle" x="169.33" y="-12.95" font-family="Times,serif" font-size="14.00">r4_node_2</text>
</g>
<!-- r4_node_9&#45;&gt;r4_node_2 -->
<g id="edge4" class="edge">
<title>r4_node_9&#45;&gt;r4_node_2</title>
<path fill="none" stroke="black" d="M123.55,-72.41C130.8,-63.95 139.76,-53.49 147.83,-44.08"/>
<polygon fill="black" stroke="black" points="150.38,-46.49 154.23,-36.62 145.06,-41.93 150.38,-46.49"/>
</g>
</g>
</svg>
