<?xml version="1.0" encoding="UTF-8" standalone="no"?>
<!DOCTYPE svg PUBLIC "-//W3C//DTD SVG 1.1//EN"
 "http://www.w3.org/Graphics/SVG/1.1/DTD/svg11.dtd">
<!-- Generated by graphviz version 12.2.1 (20241206.2353)
 -->
<!-- Pages: 1 -->
<svg width="729pt" height="116pt"
 viewBox="0.00 0.00 729.26 116.00" xmlns="http://www.w3.org/2000/svg" xmlns:xlink="http://www.w3.org/1999/xlink">
<g id="graph0" class="graph" transform="scale(1 1) rotate(0) translate(4 112)">
<polygon fill="white" stroke="none" points="-4,4 -4,-112 725.26,-112 725.26,4 -4,4"/>
<!-- r1_node_18 -->
<g id="node1" class="node">
<title>r1_node_18</title>
<ellipse fill="none" stroke="black" cx="54.93" cy="-18" rx="54.93" ry="18"/>
<text text-anchor="middle" x="54.93" y="-12.95" font-family="Times,serif" font-size="14.00">r1_node_18</text>
</g>
<!-- r1_node_19 -->
<g id="node2" class="node">
<title>r1_node_19</title>
<ellipse fill="none" stroke="black" cx="182.93" cy="-18" rx="54.93" ry="18"/>
<text text-anchor="middle" x="182.93" y="-12.95" font-family="Times,serif" font-size="14.00">r1_node_19</text>
</g>
<!-- r1_node_5 -->
<g id="node3" class="node">
<title>r1_node_5</title>
<ellipse fill="none" stroke="black" cx="305.93" cy="-18" rx="50.33" ry="18"/>
<text text-anchor="middle" x="305.93" y="-12.95" font-family="Times,serif" font-size="14.00">r1_node_5</text>
</g>
<!-- r1_node_8 -->
<g id="node4" class="node">
<title>r1_node_8</title>
<ellipse fill="none" stroke="black" cx="424.93" cy="-18" rx="50.33" ry="18"/>
<text text-anchor="middle" x="424.93" y="-12.95" font-family="Times,serif" font-size="14.00">r1_node_8</text>
</g>
<!-- r1_node_16 -->
<g id="node5" class="node">
<title>r1_node_16</title>
<ellipse fill="none" stroke="black" cx="547.93" cy="-18" rx="54.93" ry="18"/>
<text text-anchor="middle" x="547.93" y="-12.95" font-family="Times,serif" font-size="14.00">r1_node_16</text>
</g>
<!-- r1_node_17 -->
<g id="node6" class="node">
<title>r1_node_17</title>
<ellipse fill="none" stroke="black" cx="118.93" cy="-90" rx="54.93" ry="18"/>
<text text-anchor="middle" x="118.93" y="-84.95" font-family="Times,serif" font-size="14.00">r1_node_17</text>
</g>
<!-- r1_node_17&#45;&gt;r1_node_18 -->
<g id="edge5" class="edge">
<title>r1_node_17&#45;&gt;r1_node_18</title>
<path fill="none" stroke="black" d="M103.77,-72.41C95.96,-63.87 86.27,-53.28 77.6,-43.79"/>
<polygon fill="black" stroke="black" points="80.34,-41.61 71.01,-36.59 75.18,-46.33 80.34,-41.61"/>
</g>
<!-- r1_node_17&#45;&gt;r1_node_19 -->
<g id="edge6" class="edge">
<title>r1_node_17&#45;&gt;r1_node_19</title>
<path fill="none" stroke="black" d="M134.1,-72.41C141.91,-63.87 151.59,-53.28 160.27,-43.79"/>
<polygon fill="black" stroke="black" points="162.69,-46.33 166.85,-36.59 157.52,-41.61 162.69,-46.33"/>
</g>
<!-- r1_node_17&#45;&gt;r1_node_5 -->
<g id="edge1" class="edge">
<title>r1_node_17&#45;&gt;r1_node_5</title>
<path fill="none" stroke="black" d="M154.11,-75.83C184.52,-64.45 228.65,-47.93 261.51,-35.63"/>
<polygon fill="black" stroke="black" points="262.62,-38.95 270.76,-32.17 260.17,-32.39 262.62,-38.95"/>
</g>
<!-- r1_node_17&#45;&gt;r1_node_8 -->
<g id="edge2" class="edge">
<title>r1_node_17&#45;&gt;r1_node_8</title>
<path fill="none" stroke="black" d="M165.38,-79.91C215,-69.99 295.83,-53.21 364.93,-36 368.51,-35.11 372.19,-34.16 375.89,-33.17"/>
<polygon fill="black" stroke="black" points="376.76,-36.56 385.48,-30.56 374.91,-29.81 376.76,-36.56"/>
</g>
<!-- r1_node_17&#45;&gt;r1_node_16 -->
<g id="edge3" class="edge">
<title>r1_node_17&#45;&gt;r1_node_16</title>
<path fill="none" stroke="black" d="M170.64,-83.4C241.66,-75.27 373.21,-58.67 483.93,-36 488,-35.17 492.2,-34.23 496.4,-33.24"/>
<polygon fill="black" stroke="black" points="497.13,-36.66 506,-30.87 495.46,-29.87 497.13,-36.66"/>
</g>
<!-- r1_node_4 -->
<g id="node7" class="node">
<title>r1_node_4</title>
<ellipse fill="none" stroke="black" cx="670.93" cy="-18" rx="50.33" ry="18"/>
<text text-anchor="middle" x="670.93" y="-12.95" font-family="Times,serif" font-size="14.00">r1_node_4</text>
</g>
<!-- r1_node_17&#45;&gt;r1_node_4 -->
<g id="edge4" class="edge">
<title>r1_node_17&#45;&gt;r1_node_4</title>
<path fill="none" stroke="black" d="M173.01,-86.26C264.23,-80.96 454.18,-66.96 611.93,-36 615.54,-35.29 619.25,-34.47 622.96,-33.57"/>
<polygon fill="black" stroke="black" points="623.77,-36.97 632.57,-31.07 622.01,-30.2 623.77,-36.97"/>
</g>
</g>
</svg>
