<?xml version="1.0" encoding="UTF-8" standalone="no"?>
<!DOCTYPE svg PUBLIC "-//W3C//DTD SVG 1.1//EN"
 "http://www.w3.org/Graphics/SVG/1.1/DTD/svg11.dtd">
<!-- Generated by graphviz version 12.2.1 (20241206.2353)
 -->
<!-- Pages: 1 -->
<svg width="940pt" height="548pt"
 viewBox="0.00 0.00 940.30 548.00" xmlns="http://www.w3.org/2000/svg" xmlns:xlink="http://www.w3.org/1999/xlink">
<g id="graph0" class="graph" transform="scale(1 1) rotate(0) translate(4 544)">
<polygon fill="white" stroke="none" points="-4,4 -4,-544 936.3,-544 936.3,4 -4,4"/>
<!-- r3_node_24 -->
<g id="node1" class="node">
<title>r3_node_24</title>
<ellipse fill="none" stroke="black" cx="257.93" cy="-306" rx="54.93" ry="18"/>
<text text-anchor="middle" x="257.93" y="-300.95" font-family="Times,serif" font-size="14.00">r3_node_24</text>
</g>
<!-- r3_node_14 -->
<g id="node2" class="node">
<title>r3_node_14</title>
<ellipse fill="none" stroke="black" cx="54.93" cy="-450" rx="54.93" ry="18"/>
<text text-anchor="middle" x="54.93" y="-444.95" font-family="Times,serif" font-size="14.00">r3_node_14</text>
</g>
<!-- r3_node_8 -->
<g id="node3" class="node">
<title>r3_node_8</title>
<ellipse fill="none" stroke="black" cx="85.93" cy="-522" rx="50.33" ry="18"/>
<text text-anchor="middle" x="85.93" y="-516.95" font-family="Times,serif" font-size="14.00">r3_node_8</text>
</g>
<!-- r3_node_14&#45;&gt;r3_node_8 -->
<g id="edge1" class="edge">
<title>r3_node_14&#45;&gt;r3_node_8</title>
<path fill="none" stroke="black" d="M68.14,-467.62C72.31,-475.19 76.63,-484.35 80.13,-492.93"/>
<polygon fill="black" stroke="black" points="76.86,-494.15 83.65,-502.28 83.41,-491.69 76.86,-494.15"/>
</g>
<!-- r3_node_20 -->
<g id="node4" class="node">
<title>r3_node_20</title>
<ellipse fill="none" stroke="black" cx="98.93" cy="-18" rx="54.93" ry="18"/>
<text text-anchor="middle" x="98.93" y="-12.95" font-family="Times,serif" font-size="14.00">r3_node_20</text>
</g>
<!-- r3_node_14&#45;&gt;r3_node_20 -->
<g id="edge2" class="edge">
<title>r3_node_14&#45;&gt;r3_node_20</title>
<path fill="none" stroke="black" d="M90.26,-435.78C107.65,-427.26 126.97,-414.31 136.93,-396 144.58,-381.95 138.33,-375.94 136.93,-360 132.7,-311.45 124.14,-300.34 117.93,-252 108.5,-178.59 102.87,-91.54 100.41,-47.53"/>
<polygon fill="black" stroke="black" points="103.92,-47.61 99.88,-37.81 96.93,-47.99 103.92,-47.61"/>
</g>
<!-- r3_node_27 -->
<g id="node5" class="node">
<title>r3_node_27</title>
<ellipse fill="none" stroke="black" cx="72.93" cy="-378" rx="54.93" ry="18"/>
<text text-anchor="middle" x="72.93" y="-372.95" font-family="Times,serif" font-size="14.00">r3_node_27</text>
</g>
<!-- r3_node_14&#45;&gt;r3_node_27 -->
<g id="edge3" class="edge">
<title>r3_node_14&#45;&gt;r3_node_27</title>
<path fill="none" stroke="black" d="M59.38,-431.7C61.28,-424.32 63.54,-415.52 65.67,-407.25"/>
<polygon fill="black" stroke="black" points="69.06,-408.13 68.16,-397.57 62.28,-406.38 69.06,-408.13"/>
</g>
<!-- r3_node_30 -->
<g id="node6" class="node">
<title>r3_node_30</title>
<ellipse fill="none" stroke="black" cx="181.93" cy="-234" rx="54.93" ry="18"/>
<text text-anchor="middle" x="181.93" y="-228.95" font-family="Times,serif" font-size="14.00">r3_node_30</text>
</g>
<!-- r3_node_14&#45;&gt;r3_node_30 -->
<g id="edge4" class="edge">
<title>r3_node_14&#45;&gt;r3_node_30</title>
<path fill="none" stroke="black" d="M105.65,-442.6C134.67,-436.05 168.82,-422.8 186.93,-396 195.9,-382.75 191.86,-375.22 186.93,-360 180.86,-341.22 167.01,-342.78 160.93,-324 156.01,-308.78 157.93,-303.72 160.93,-288 162.55,-279.54 165.49,-270.71 168.67,-262.74"/>
<polygon fill="black" stroke="black" points="171.89,-264.13 172.62,-253.56 165.45,-261.36 171.89,-264.13"/>
</g>
<!-- r3_node_8&#45;&gt;r3_node_24 -->
<g id="edge7" class="edge">
<title>r3_node_8&#45;&gt;r3_node_24</title>
<path fill="none" stroke="black" d="M123.4,-509.79C169.98,-493.49 246.78,-458.18 274.93,-396 283.75,-376.54 278.42,-352.68 271.48,-334.56"/>
<polygon fill="black" stroke="black" points="274.77,-333.36 267.65,-325.51 268.33,-336.08 274.77,-333.36"/>
</g>
<!-- r3_node_8&#45;&gt;r3_node_14 -->
<g id="edge5" class="edge">
<title>r3_node_8&#45;&gt;r3_node_14</title>
<path fill="none" stroke="black" d="M72.75,-504.41C68.59,-496.88 64.28,-487.75 60.78,-479.19"/>
<polygon fill="black" stroke="black" points="64.07,-477.98 57.26,-469.86 57.52,-480.45 64.07,-477.98"/>
</g>
<!-- r3_node_8&#45;&gt;r3_node_30 -->
<g id="edge8" class="edge">
<title>r3_node_8&#45;&gt;r3_node_30</title>
<path fill="none" stroke="black" d="M108.6,-505.59C137.13,-484.66 184.76,-444.26 203.93,-396 209.84,-381.13 206.1,-375.85 203.93,-360 201.69,-343.55 197.27,-340.27 193.93,-324 189.81,-303.9 186.75,-280.94 184.76,-263.38"/>
<polygon fill="black" stroke="black" points="188.26,-263.25 183.71,-253.68 181.3,-264 188.26,-263.25"/>
</g>
<!-- r3_node_19 -->
<g id="node14" class="node">
<title>r3_node_19</title>
<ellipse fill="none" stroke="black" cx="291.93" cy="-90" rx="54.93" ry="18"/>
<text text-anchor="middle" x="291.93" y="-84.95" font-family="Times,serif" font-size="14.00">r3_node_19</text>
</g>
<!-- r3_node_8&#45;&gt;r3_node_19 -->
<g id="edge6" class="edge">
<title>r3_node_8&#45;&gt;r3_node_19</title>
<path fill="none" stroke="black" d="M131.62,-514C165.42,-506.97 211.09,-493.39 243.93,-468 274.17,-444.63 272.87,-429.67 290.93,-396 314.54,-352 334.72,-336.27 321.93,-288 312.51,-252.4 300.85,-246.97 280.93,-216 270.26,-199.4 261.01,-198.78 254.93,-180 250.01,-164.78 250.13,-159.26 254.93,-144 257.98,-134.31 263.51,-124.84 269.37,-116.65"/>
<polygon fill="black" stroke="black" points="272.02,-118.94 275.36,-108.88 266.48,-114.67 272.02,-118.94"/>
</g>
<!-- r3_node_11 -->
<g id="node7" class="node">
<title>r3_node_11</title>
<ellipse fill="none" stroke="black" cx="669.93" cy="-450" rx="54.93" ry="18"/>
<text text-anchor="middle" x="669.93" y="-444.95" font-family="Times,serif" font-size="14.00">r3_node_11</text>
</g>
<!-- r3_node_17 -->
<g id="node8" class="node">
<title>r3_node_17</title>
<ellipse fill="none" stroke="black" cx="318.93" cy="-162" rx="54.93" ry="18"/>
<text text-anchor="middle" x="318.93" y="-156.95" font-family="Times,serif" font-size="14.00">r3_node_17</text>
</g>
<!-- r3_node_29 -->
<g id="node9" class="node">
<title>r3_node_29</title>
<ellipse fill="none" stroke="black" cx="702.93" cy="-90" rx="54.93" ry="18"/>
<text text-anchor="middle" x="702.93" y="-84.95" font-family="Times,serif" font-size="14.00">r3_node_29</text>
</g>
<!-- r3_node_21 -->
<g id="node10" class="node">
<title>r3_node_21</title>
<ellipse fill="none" stroke="black" cx="541.93" cy="-450" rx="54.93" ry="18"/>
<text text-anchor="middle" x="541.93" y="-444.95" font-family="Times,serif" font-size="14.00">r3_node_21</text>
</g>
<!-- r3_node_18 -->
<g id="node11" class="node">
<title>r3_node_18</title>
<ellipse fill="none" stroke="black" cx="735.93" cy="-234" rx="54.93" ry="18"/>
<text text-anchor="middle" x="735.93" y="-228.95" font-family="Times,serif" font-size="14.00">r3_node_18</text>
</g>
<!-- r3_node_22 -->
<g id="node12" class="node">
<title>r3_node_22</title>
<ellipse fill="none" stroke="black" cx="256.93" cy="-18" rx="54.93" ry="18"/>
<text text-anchor="middle" x="256.93" y="-12.95" font-family="Times,serif" font-size="14.00">r3_node_22</text>
</g>
<!-- r3_node_16 -->
<g id="node13" class="node">
<title>r3_node_16</title>
<ellipse fill="none" stroke="black" cx="549.93" cy="-18" rx="54.93" ry="18"/>
<text text-anchor="middle" x="549.93" y="-12.95" font-family="Times,serif" font-size="14.00">r3_node_16</text>
</g>
<!-- r3_node_2 -->
<g id="node15" class="node">
<title>r3_node_2</title>
<ellipse fill="none" stroke="black" cx="790.93" cy="-522" rx="50.33" ry="18"/>
<text text-anchor="middle" x="790.93" y="-516.95" font-family="Times,serif" font-size="14.00">r3_node_2</text>
</g>
<!-- r3_node_23 -->
<g id="node16" class="node">
<title>r3_node_23</title>
<ellipse fill="none" stroke="black" cx="835.93" cy="-90" rx="54.93" ry="18"/>
<text text-anchor="middle" x="835.93" y="-84.95" font-family="Times,serif" font-size="14.00">r3_node_23</text>
</g>
<!-- r3_node_2&#45;&gt;r3_node_23 -->
<g id="edge9" class="edge">
<title>r3_node_2&#45;&gt;r3_node_23</title>
<path fill="none" stroke="black" d="M826.17,-509C844.83,-500.64 866.08,-487.45 876.93,-468 884.73,-454.03 878.43,-447.93 876.93,-432 869.35,-350.94 852.28,-332.88 842.93,-252 837.61,-205.92 836.24,-151.98 835.95,-119.71"/>
<polygon fill="black" stroke="black" points="839.45,-119.95 835.89,-109.97 832.45,-119.99 839.45,-119.95"/>
</g>
<!-- r3_node_25 -->
<g id="node17" class="node">
<title>r3_node_25</title>
<ellipse fill="none" stroke="black" cx="797.93" cy="-18" rx="54.93" ry="18"/>
<text text-anchor="middle" x="797.93" y="-12.95" font-family="Times,serif" font-size="14.00">r3_node_25</text>
</g>
<!-- r3_node_2&#45;&gt;r3_node_25 -->
<g id="edge10" class="edge">
<title>r3_node_2&#45;&gt;r3_node_25</title>
<path fill="none" stroke="black" d="M831.31,-510.96C853.56,-503.16 879.36,-489.87 892.93,-468 977.33,-332.03 898.38,-268.02 899.93,-108 900.09,-92 908.24,-85.68 899.93,-72 889.06,-54.09 869.95,-41.96 851.19,-33.88"/>
<polygon fill="black" stroke="black" points="852.55,-30.65 841.96,-30.24 849.98,-37.16 852.55,-30.65"/>
</g>
<!-- r3_node_15 -->
<g id="node18" class="node">
<title>r3_node_15</title>
<ellipse fill="none" stroke="black" cx="413.93" cy="-450" rx="54.93" ry="18"/>
<text text-anchor="middle" x="413.93" y="-444.95" font-family="Times,serif" font-size="14.00">r3_node_15</text>
</g>
<!-- r3_node_15&#45;&gt;r3_node_20 -->
<g id="edge11" class="edge">
<title>r3_node_15&#45;&gt;r3_node_20</title>
<path fill="none" stroke="black" d="M410.26,-431.92C403.13,-401.27 385.38,-335.67 354.93,-288 318.4,-230.79 289.8,-232.63 246.93,-180 210.66,-135.46 216.12,-113.05 175.93,-72 164.06,-59.87 149.03,-48.8 135.41,-39.96"/>
<polygon fill="black" stroke="black" points="137.42,-37.08 127.09,-34.73 133.69,-43.01 137.42,-37.08"/>
</g>
<!-- r3_node_12 -->
<g id="node19" class="node">
<title>r3_node_12</title>
<ellipse fill="none" stroke="black" cx="499.93" cy="-378" rx="54.93" ry="18"/>
<text text-anchor="middle" x="499.93" y="-372.95" font-family="Times,serif" font-size="14.00">r3_node_12</text>
</g>
<!-- r3_node_15&#45;&gt;r3_node_12 -->
<g id="edge12" class="edge">
<title>r3_node_15&#45;&gt;r3_node_12</title>
<path fill="none" stroke="black" d="M428.47,-432.41C438.92,-423.08 453.21,-411.31 466.33,-401.2"/>
<polygon fill="black" stroke="black" points="468.1,-404.25 473.95,-395.42 463.87,-398.67 468.1,-404.25"/>
</g>
<!-- r3_node_12&#45;&gt;r3_node_17 -->
<g id="edge31" class="edge">
<title>r3_node_12&#45;&gt;r3_node_17</title>
<path fill="none" stroke="black" d="M489.23,-360.05C477.42,-341.72 457.46,-311.92 437.93,-288 407.76,-251.04 369.09,-211.7 344.16,-187.24"/>
<polygon fill="black" stroke="black" points="346.64,-184.77 337.03,-180.29 341.75,-189.78 346.64,-184.77"/>
</g>
<!-- r3_node_12&#45;&gt;r3_node_29 -->
<g id="edge33" class="edge">
<title>r3_node_12&#45;&gt;r3_node_29</title>
<path fill="none" stroke="black" d="M542.67,-366.22C566.01,-358.24 593.61,-345.01 610.93,-324 642.48,-285.74 606.46,-253.47 638.93,-216 666.07,-184.69 701.98,-214.5 724.93,-180 737.3,-161.42 729.51,-136.48 719.94,-117.73"/>
<polygon fill="black" stroke="black" points="723.06,-116.13 715.14,-109.09 716.94,-119.53 723.06,-116.13"/>
</g>
<!-- r3_node_12&#45;&gt;r3_node_15 -->
<g id="edge32" class="edge">
<title>r3_node_12&#45;&gt;r3_node_15</title>
<path fill="none" stroke="black" d="M485.25,-395.71C474.92,-404.93 460.87,-416.51 447.91,-426.51"/>
<polygon fill="black" stroke="black" points="445.8,-423.72 439.95,-432.55 450.03,-429.3 445.8,-423.72"/>
</g>
<!-- r3_node_10 -->
<g id="node20" class="node">
<title>r3_node_10</title>
<ellipse fill="none" stroke="black" cx="546.93" cy="-306" rx="54.93" ry="18"/>
<text text-anchor="middle" x="546.93" y="-300.95" font-family="Times,serif" font-size="14.00">r3_node_10</text>
</g>
<!-- r3_node_12&#45;&gt;r3_node_10 -->
<g id="edge34" class="edge">
<title>r3_node_12&#45;&gt;r3_node_10</title>
<path fill="none" stroke="black" d="M505.64,-359.7C510.35,-351.4 516.93,-341.31 523.51,-332.19"/>
<polygon fill="black" stroke="black" points="526.19,-334.45 529.39,-324.35 520.59,-330.25 526.19,-334.45"/>
</g>
<!-- r3_node_10&#45;&gt;r3_node_22 -->
<g id="edge13" class="edge">
<title>r3_node_10&#45;&gt;r3_node_22</title>
<path fill="none" stroke="black" d="M512.98,-291.55C493.6,-282.57 469.86,-269.25 452.93,-252 389.29,-187.13 420.28,-136.17 355.93,-72 341.05,-57.15 321.14,-45.41 303.07,-36.79"/>
<polygon fill="black" stroke="black" points="304.64,-33.66 294.08,-32.7 301.74,-40.03 304.64,-33.66"/>
</g>
<!-- r3_node_10&#45;&gt;r3_node_12 -->
<g id="edge16" class="edge">
<title>r3_node_10&#45;&gt;r3_node_12</title>
<path fill="none" stroke="black" d="M541.43,-323.96C536.78,-332.17 530.26,-342.22 523.69,-351.34"/>
<polygon fill="black" stroke="black" points="521,-349.09 517.82,-359.2 526.61,-353.29 521,-349.09"/>
</g>
<!-- r3_node_28 -->
<g id="node21" class="node">
<title>r3_node_28</title>
<ellipse fill="none" stroke="black" cx="399.93" cy="-18" rx="54.93" ry="18"/>
<text text-anchor="middle" x="399.93" y="-12.95" font-family="Times,serif" font-size="14.00">r3_node_28</text>
</g>
<!-- r3_node_10&#45;&gt;r3_node_28 -->
<g id="edge14" class="edge">
<title>r3_node_10&#45;&gt;r3_node_28</title>
<path fill="none" stroke="black" d="M520.17,-289.87C505.87,-280.58 488.98,-267.5 477.93,-252 432.01,-187.6 411.69,-94.25 403.98,-47.67"/>
<polygon fill="black" stroke="black" points="407.45,-47.19 402.44,-37.86 400.53,-48.28 407.45,-47.19"/>
</g>
<!-- r3_node_5 -->
<g id="node22" class="node">
<title>r3_node_5</title>
<ellipse fill="none" stroke="black" cx="536.93" cy="-234" rx="50.33" ry="18"/>
<text text-anchor="middle" x="536.93" y="-228.95" font-family="Times,serif" font-size="14.00">r3_node_5</text>
</g>
<!-- r3_node_10&#45;&gt;r3_node_5 -->
<g id="edge15" class="edge">
<title>r3_node_10&#45;&gt;r3_node_5</title>
<path fill="none" stroke="black" d="M538.64,-288.05C536.8,-280.68 535.28,-271.84 534.36,-263.51"/>
<polygon fill="black" stroke="black" points="537.87,-263.48 533.61,-253.78 530.89,-264.03 537.87,-263.48"/>
</g>
<!-- r3_node_5&#45;&gt;r3_node_25 -->
<g id="edge38" class="edge">
<title>r3_node_5&#45;&gt;r3_node_25</title>
<path fill="none" stroke="black" d="M575.83,-222.2C625.02,-208.36 703.89,-185.49 707.93,-180 717.43,-167.12 716.23,-157.68 707.93,-144 690,-114.42 656.86,-137.58 638.93,-108 630.64,-94.32 629.58,-84.98 638.93,-72 660.26,-42.42 698.81,-29.1 732.62,-23.21"/>
<polygon fill="black" stroke="black" points="733.01,-26.69 742.37,-21.71 731.95,-19.77 733.01,-26.69"/>
</g>
<!-- r3_node_5&#45;&gt;r3_node_10 -->
<g id="edge36" class="edge">
<title>r3_node_5&#45;&gt;r3_node_10</title>
<path fill="none" stroke="black" d="M545.27,-252.1C547.07,-259.37 548.56,-268.04 549.48,-276.24"/>
<polygon fill="black" stroke="black" points="545.99,-276.49 550.26,-286.19 552.97,-275.94 545.99,-276.49"/>
</g>
<!-- r3_node_13 -->
<g id="node26" class="node">
<title>r3_node_13</title>
<ellipse fill="none" stroke="black" cx="643.93" cy="-162" rx="54.93" ry="18"/>
<text text-anchor="middle" x="643.93" y="-156.95" font-family="Times,serif" font-size="14.00">r3_node_13</text>
</g>
<!-- r3_node_5&#45;&gt;r3_node_13 -->
<g id="edge37" class="edge">
<title>r3_node_5&#45;&gt;r3_node_13</title>
<path fill="none" stroke="black" d="M555.45,-217.12C569.37,-207.27 588.71,-194.51 605.82,-183.86"/>
<polygon fill="black" stroke="black" points="607.6,-186.87 614.29,-178.66 603.93,-180.91 607.6,-186.87"/>
</g>
<!-- r3_node_4 -->
<g id="node29" class="node">
<title>r3_node_4</title>
<ellipse fill="none" stroke="black" cx="520.93" cy="-162" rx="50.33" ry="18"/>
<text text-anchor="middle" x="520.93" y="-156.95" font-family="Times,serif" font-size="14.00">r3_node_4</text>
</g>
<!-- r3_node_5&#45;&gt;r3_node_4 -->
<g id="edge35" class="edge">
<title>r3_node_5&#45;&gt;r3_node_4</title>
<path fill="none" stroke="black" d="M527.18,-216.05C524.72,-208.68 522.44,-199.84 520.8,-191.51"/>
<polygon fill="black" stroke="black" points="524.28,-191.07 519.21,-181.77 517.37,-192.2 524.28,-191.07"/>
</g>
<!-- r3_node_6 -->
<g id="node23" class="node">
<title>r3_node_6</title>
<ellipse fill="none" stroke="black" cx="598.93" cy="-522" rx="50.33" ry="18"/>
<text text-anchor="middle" x="598.93" y="-516.95" font-family="Times,serif" font-size="14.00">r3_node_6</text>
</g>
<!-- r3_node_6&#45;&gt;r3_node_20 -->
<g id="edge17" class="edge">
<title>r3_node_6&#45;&gt;r3_node_20</title>
<path fill="none" stroke="black" d="M550.11,-517.09C485.56,-510.87 376.82,-496.41 349.93,-468 294.29,-409.19 360.91,-358.96 321.93,-288 310.26,-266.75 298,-269.23 280.93,-252 213.1,-183.51 146.85,-90.12 116.36,-45.22"/>
<polygon fill="black" stroke="black" points="119.41,-43.48 110.92,-37.15 113.61,-47.4 119.41,-43.48"/>
</g>
<!-- r3_node_6&#45;&gt;r3_node_18 -->
<g id="edge20" class="edge">
<title>r3_node_6&#45;&gt;r3_node_18</title>
<path fill="none" stroke="black" d="M645.48,-514.77C716.83,-504.75 846.44,-484.51 859.93,-468 870.06,-455.61 862.84,-447.73 859.93,-432 856.83,-415.16 815.17,-301.73 804.93,-288 795.89,-275.86 783.35,-265.1 771.45,-256.51"/>
<polygon fill="black" stroke="black" points="773.58,-253.73 763.35,-250.95 769.61,-259.5 773.58,-253.73"/>
</g>
<!-- r3_node_26 -->
<g id="node24" class="node">
<title>r3_node_26</title>
<ellipse fill="none" stroke="black" cx="741.93" cy="-378" rx="54.93" ry="18"/>
<text text-anchor="middle" x="741.93" y="-372.95" font-family="Times,serif" font-size="14.00">r3_node_26</text>
</g>
<!-- r3_node_6&#45;&gt;r3_node_26 -->
<g id="edge18" class="edge">
<title>r3_node_6&#45;&gt;r3_node_26</title>
<path fill="none" stroke="black" d="M644.93,-514.17C712.13,-503.72 830.54,-483.38 842.93,-468 852.98,-455.54 851.21,-445.69 842.93,-432 832.22,-414.28 813.41,-402.19 794.9,-394.1"/>
<polygon fill="black" stroke="black" points="796.4,-390.92 785.81,-390.45 793.79,-397.42 796.4,-390.92"/>
</g>
<!-- r3_node_1 -->
<g id="node25" class="node">
<title>r3_node_1</title>
<ellipse fill="none" stroke="black" cx="745.93" cy="-306" rx="50.33" ry="18"/>
<text text-anchor="middle" x="745.93" y="-300.95" font-family="Times,serif" font-size="14.00">r3_node_1</text>
</g>
<!-- r3_node_6&#45;&gt;r3_node_1 -->
<g id="edge19" class="edge">
<title>r3_node_6&#45;&gt;r3_node_1</title>
<path fill="none" stroke="black" d="M646.07,-515.54C700.67,-508.13 785.64,-492.88 804.93,-468 865.8,-389.49 716.4,-446.88 677.93,-396 668.29,-383.24 670.91,-374.38 677.93,-360 684.41,-346.73 695.99,-335.82 707.78,-327.42"/>
<polygon fill="black" stroke="black" points="709.5,-330.48 715.93,-322.06 705.65,-324.64 709.5,-330.48"/>
</g>
<!-- r3_node_13&#45;&gt;r3_node_16 -->
<g id="edge21" class="edge">
<title>r3_node_13&#45;&gt;r3_node_16</title>
<path fill="none" stroke="black" d="M627.18,-144.76C617.37,-134.72 605.13,-121.26 595.93,-108 582.47,-88.59 570.34,-64.73 561.93,-46.6"/>
<polygon fill="black" stroke="black" points="565.13,-45.18 557.81,-37.52 558.75,-48.07 565.13,-45.18"/>
</g>
<!-- r3_node_13&#45;&gt;r3_node_23 -->
<g id="edge23" class="edge">
<title>r3_node_13&#45;&gt;r3_node_23</title>
<path fill="none" stroke="black" d="M679.6,-148C710.62,-136.69 755.77,-120.23 789.59,-107.9"/>
<polygon fill="black" stroke="black" points="790.52,-111.28 798.71,-104.57 788.12,-104.71 790.52,-111.28"/>
</g>
<!-- r3_node_13&#45;&gt;r3_node_5 -->
<g id="edge22" class="edge">
<title>r3_node_13&#45;&gt;r3_node_5</title>
<path fill="none" stroke="black" d="M624.86,-179.28C610.74,-189.24 591.25,-202.08 574.15,-212.7"/>
<polygon fill="black" stroke="black" points="572.41,-209.67 565.71,-217.87 576.06,-215.64 572.41,-209.67"/>
</g>
<!-- r3_node_9 -->
<g id="node27" class="node">
<title>r3_node_9</title>
<ellipse fill="none" stroke="black" cx="333.93" cy="-522" rx="50.33" ry="18"/>
<text text-anchor="middle" x="333.93" y="-516.95" font-family="Times,serif" font-size="14.00">r3_node_9</text>
</g>
<!-- r3_node_9&#45;&gt;r3_node_11 -->
<g id="edge27" class="edge">
<title>r3_node_9&#45;&gt;r3_node_11</title>
<path fill="none" stroke="black" d="M378.41,-513.28C432.43,-503.69 526.23,-486.33 605.93,-468 609.92,-467.08 614.04,-466.09 618.17,-465.07"/>
<polygon fill="black" stroke="black" points="618.77,-468.52 627.6,-462.67 617.04,-461.74 618.77,-468.52"/>
</g>
<!-- r3_node_9&#45;&gt;r3_node_29 -->
<g id="edge24" class="edge">
<title>r3_node_9&#45;&gt;r3_node_29</title>
<path fill="none" stroke="black" d="M382.1,-516.31C485.93,-505.99 722.42,-481.14 733.93,-468 785.46,-409.2 662.5,-403.22 657.93,-396 646.8,-378.41 637.31,-267.01 671.93,-216 691.58,-187.05 723.71,-209.86 741.93,-180 754.41,-159.55 741.05,-134.4 726.67,-116.06"/>
<polygon fill="black" stroke="black" points="729.49,-113.98 720.39,-108.56 724.13,-118.48 729.49,-113.98"/>
</g>
<!-- r3_node_9&#45;&gt;r3_node_21 -->
<g id="edge26" class="edge">
<title>r3_node_9&#45;&gt;r3_node_21</title>
<path fill="none" stroke="black" d="M369.69,-508.97C403.94,-497.44 455.88,-479.96 493.76,-467.21"/>
<polygon fill="black" stroke="black" points="494.75,-470.57 503.11,-464.07 492.51,-463.94 494.75,-470.57"/>
</g>
<!-- r3_node_9&#45;&gt;r3_node_1 -->
<g id="edge25" class="edge">
<title>r3_node_9&#45;&gt;r3_node_1</title>
<path fill="none" stroke="black" d="M382.32,-516.8C492.64,-506.98 754.28,-482.3 766.93,-468 824.91,-402.49 690.56,-428.3 667.93,-396 658.75,-382.89 660.45,-374.14 667.93,-360 675.7,-345.33 689.55,-333.97 703.45,-325.59"/>
<polygon fill="black" stroke="black" points="705.12,-328.67 712.16,-320.75 701.72,-322.55 705.12,-328.67"/>
</g>
<!-- r3_node_7 -->
<g id="node28" class="node">
<title>r3_node_7</title>
<ellipse fill="none" stroke="black" cx="493.93" cy="-90" rx="50.33" ry="18"/>
<text text-anchor="middle" x="493.93" y="-84.95" font-family="Times,serif" font-size="14.00">r3_node_7</text>
</g>
<!-- r3_node_7&#45;&gt;r3_node_22 -->
<g id="edge28" class="edge">
<title>r3_node_7&#45;&gt;r3_node_22</title>
<path fill="none" stroke="black" d="M455.86,-77.75C415.69,-65.89 352.18,-47.13 307.75,-34.01"/>
<polygon fill="black" stroke="black" points="308.93,-30.71 298.35,-31.23 306.95,-37.42 308.93,-30.71"/>
</g>
<!-- r3_node_7&#45;&gt;r3_node_28 -->
<g id="edge30" class="edge">
<title>r3_node_7&#45;&gt;r3_node_28</title>
<path fill="none" stroke="black" d="M473.07,-73.46C460.59,-64.17 444.5,-52.19 430.6,-41.83"/>
<polygon fill="black" stroke="black" points="432.71,-39.05 422.6,-35.88 428.53,-44.66 432.71,-39.05"/>
</g>
<!-- r3_node_7&#45;&gt;r3_node_4 -->
<g id="edge29" class="edge">
<title>r3_node_7&#45;&gt;r3_node_4</title>
<path fill="none" stroke="black" d="M506.19,-107.62C509.93,-115.19 513.73,-124.35 516.74,-132.93"/>
<polygon fill="black" stroke="black" points="513.34,-133.79 519.72,-142.25 520.01,-131.66 513.34,-133.79"/>
</g>
<!-- r3_node_4&#45;&gt;r3_node_29 -->
<g id="edge42" class="edge">
<title>r3_node_4&#45;&gt;r3_node_29</title>
<path fill="none" stroke="black" d="M554.32,-148.16C583.36,-136.99 625.7,-120.7 657.77,-108.37"/>
<polygon fill="black" stroke="black" points="658.73,-111.75 666.8,-104.9 656.21,-105.22 658.73,-111.75"/>
</g>
<!-- r3_node_4&#45;&gt;r3_node_19 -->
<g id="edge40" class="edge">
<title>r3_node_4&#45;&gt;r3_node_19</title>
<path fill="none" stroke="black" d="M483.63,-149.6C445.12,-137.83 384.81,-119.39 342.13,-106.34"/>
<polygon fill="black" stroke="black" points="343.17,-103 332.59,-103.43 341.13,-109.7 343.17,-103"/>
</g>
<!-- r3_node_4&#45;&gt;r3_node_5 -->
<g id="edge39" class="edge">
<title>r3_node_4&#45;&gt;r3_node_5</title>
<path fill="none" stroke="black" d="M530.74,-180.1C533.19,-187.45 535.45,-196.24 537.07,-204.53"/>
<polygon fill="black" stroke="black" points="533.58,-204.9 538.65,-214.2 540.49,-203.77 533.58,-204.9"/>
</g>
<!-- r3_node_4&#45;&gt;r3_node_7 -->
<g id="edge41" class="edge">
<title>r3_node_4&#45;&gt;r3_node_7</title>
<path fill="none" stroke="black" d="M508.7,-144.41C504.97,-136.88 501.18,-127.75 498.17,-119.19"/>
<polygon fill="black" stroke="black" points="501.58,-118.35 495.19,-109.89 494.91,-120.48 501.58,-118.35"/>
</g>
</g>
</svg>
