<?xml version="1.0" encoding="UTF-8" standalone="no"?>
<!DOCTYPE svg PUBLIC "-//W3C//DTD SVG 1.1//EN"
 "http://www.w3.org/Graphics/SVG/1.1/DTD/svg11.dtd">
<!-- Generated by graphviz version 12.2.1 (20241206.2353)
 -->
<!-- Pages: 1 -->
<svg width="1178pt" height="548pt"
 viewBox="0.00 0.00 1177.87 548.00" xmlns="http://www.w3.org/2000/svg" xmlns:xlink="http://www.w3.org/1999/xlink">
<g id="graph0" class="graph" transform="scale(1 1) rotate(0) translate(4 544)">
<polygon fill="white" stroke="none" points="-4,4 -4,-544 1173.87,-544 1173.87,4 -4,4"/>
<!-- r3_node_19 -->
<g id="node1" class="node">
<title>r3_node_19</title>
<ellipse fill="none" stroke="black" cx="989.93" cy="-90" rx="54.93" ry="18"/>
<text text-anchor="middle" x="989.93" y="-84.95" font-family="Times,serif" font-size="14.00">r3_node_19</text>
</g>
<!-- r3_node_13 -->
<g id="node2" class="node">
<title>r3_node_13</title>
<ellipse fill="none" stroke="black" cx="340.93" cy="-234" rx="54.93" ry="18"/>
<text text-anchor="middle" x="340.93" y="-228.95" font-family="Times,serif" font-size="14.00">r3_node_13</text>
</g>
<!-- r3_node_4 -->
<g id="node3" class="node">
<title>r3_node_4</title>
<ellipse fill="none" stroke="black" cx="159.93" cy="-306" rx="50.33" ry="18"/>
<text text-anchor="middle" x="159.93" y="-300.95" font-family="Times,serif" font-size="14.00">r3_node_4</text>
</g>
<!-- r3_node_13&#45;&gt;r3_node_4 -->
<g id="edge1" class="edge">
<title>r3_node_13&#45;&gt;r3_node_4</title>
<path fill="none" stroke="black" d="M309.69,-249.23C281.2,-260.84 238.89,-277.23 206.45,-289.23"/>
<polygon fill="black" stroke="black" points="205.46,-285.87 197.28,-292.6 207.87,-292.44 205.46,-285.87"/>
</g>
<!-- r3_node_15 -->
<g id="node4" class="node">
<title>r3_node_15</title>
<ellipse fill="none" stroke="black" cx="436.93" cy="-90" rx="54.93" ry="18"/>
<text text-anchor="middle" x="436.93" y="-84.95" font-family="Times,serif" font-size="14.00">r3_node_15</text>
</g>
<!-- r3_node_13&#45;&gt;r3_node_15 -->
<g id="edge2" class="edge">
<title>r3_node_13&#45;&gt;r3_node_15</title>
<path fill="none" stroke="black" d="M347.83,-215.75C355.66,-197.17 369.5,-167.16 385.93,-144 393.21,-133.74 402.44,-123.53 411.04,-114.85"/>
<polygon fill="black" stroke="black" points="413.24,-117.6 417.93,-108.1 408.34,-112.6 413.24,-117.6"/>
</g>
<!-- r3_node_16 -->
<g id="node5" class="node">
<title>r3_node_16</title>
<ellipse fill="none" stroke="black" cx="247.93" cy="-18" rx="54.93" ry="18"/>
<text text-anchor="middle" x="247.93" y="-12.95" font-family="Times,serif" font-size="14.00">r3_node_16</text>
</g>
<!-- r3_node_13&#45;&gt;r3_node_16 -->
<g id="edge3" class="edge">
<title>r3_node_13&#45;&gt;r3_node_16</title>
<path fill="none" stroke="black" d="M337.05,-215.85C329.81,-185.64 312.62,-121.45 286.93,-72 282.04,-62.57 275.55,-53 269.28,-44.63"/>
<polygon fill="black" stroke="black" points="272.21,-42.7 263.31,-36.96 266.69,-47 272.21,-42.7"/>
</g>
<!-- r3_node_17 -->
<g id="node6" class="node">
<title>r3_node_17</title>
<ellipse fill="none" stroke="black" cx="54.93" cy="-18" rx="54.93" ry="18"/>
<text text-anchor="middle" x="54.93" y="-12.95" font-family="Times,serif" font-size="14.00">r3_node_17</text>
</g>
<!-- r3_node_13&#45;&gt;r3_node_17 -->
<g id="edge4" class="edge">
<title>r3_node_13&#45;&gt;r3_node_17</title>
<path fill="none" stroke="black" d="M331.45,-215.87C309.5,-176.46 256.1,-81.99 242.93,-72 207.17,-44.84 158.1,-31.6 119.06,-25.14"/>
<polygon fill="black" stroke="black" points="119.72,-21.7 109.31,-23.65 118.66,-28.62 119.72,-21.7"/>
</g>
<!-- r3_node_4&#45;&gt;r3_node_13 -->
<g id="edge23" class="edge">
<title>r3_node_4&#45;&gt;r3_node_13</title>
<path fill="none" stroke="black" d="M190.19,-291.17C218.17,-279.75 260.04,-263.52 292.62,-251.43"/>
<polygon fill="black" stroke="black" points="293.68,-254.77 301.85,-248.03 291.26,-248.2 293.68,-254.77"/>
</g>
<!-- r3_node_4&#45;&gt;r3_node_15 -->
<g id="edge24" class="edge">
<title>r3_node_4&#45;&gt;r3_node_15</title>
<path fill="none" stroke="black" d="M205.48,-297.9C272.43,-287.06 391.01,-266.16 404.93,-252 439.58,-216.77 441.97,-155.4 439.91,-119.46"/>
<polygon fill="black" stroke="black" points="443.43,-119.55 439.19,-109.84 436.45,-120.07 443.43,-119.55"/>
</g>
<!-- r3_node_5 -->
<g id="node11" class="node">
<title>r3_node_5</title>
<ellipse fill="none" stroke="black" cx="578.93" cy="-234" rx="50.33" ry="18"/>
<text text-anchor="middle" x="578.93" y="-228.95" font-family="Times,serif" font-size="14.00">r3_node_5</text>
</g>
<!-- r3_node_4&#45;&gt;r3_node_5 -->
<g id="edge26" class="edge">
<title>r3_node_4&#45;&gt;r3_node_5</title>
<path fill="none" stroke="black" d="M203.9,-296.9C280.35,-283.64 437.39,-257.39 522.03,-243.73"/>
<polygon fill="black" stroke="black" points="522.42,-247.21 531.74,-242.17 521.31,-240.3 522.42,-247.21"/>
</g>
<!-- r3_node_12 -->
<g id="node18" class="node">
<title>r3_node_12</title>
<ellipse fill="none" stroke="black" cx="170.93" cy="-234" rx="54.93" ry="18"/>
<text text-anchor="middle" x="170.93" y="-228.95" font-family="Times,serif" font-size="14.00">r3_node_12</text>
</g>
<!-- r3_node_4&#45;&gt;r3_node_12 -->
<g id="edge22" class="edge">
<title>r3_node_4&#45;&gt;r3_node_12</title>
<path fill="none" stroke="black" d="M156.74,-287.7C157.14,-280.32 158.28,-271.52 159.86,-263.25"/>
<polygon fill="black" stroke="black" points="163.25,-264.1 162.02,-253.58 156.42,-262.58 163.25,-264.1"/>
</g>
<!-- r3_node_2 -->
<g id="node19" class="node">
<title>r3_node_2</title>
<ellipse fill="none" stroke="black" cx="311.93" cy="-378" rx="50.33" ry="18"/>
<text text-anchor="middle" x="311.93" y="-372.95" font-family="Times,serif" font-size="14.00">r3_node_2</text>
</g>
<!-- r3_node_4&#45;&gt;r3_node_2 -->
<g id="edge25" class="edge">
<title>r3_node_4&#45;&gt;r3_node_2</title>
<path fill="none" stroke="black" d="M193.29,-319.89C217.64,-330.39 250.47,-345.4 275.49,-357.39"/>
<polygon fill="black" stroke="black" points="273.8,-360.46 284.32,-361.67 276.85,-354.16 273.8,-360.46"/>
</g>
<!-- r3_node_3 -->
<g id="node7" class="node">
<title>r3_node_3</title>
<ellipse fill="none" stroke="black" cx="53.93" cy="-522" rx="50.33" ry="18"/>
<text text-anchor="middle" x="53.93" y="-516.95" font-family="Times,serif" font-size="14.00">r3_node_3</text>
</g>
<!-- r3_node_3&#45;&gt;r3_node_19 -->
<g id="edge6" class="edge">
<title>r3_node_3&#45;&gt;r3_node_19</title>
<path fill="none" stroke="black" d="M96.1,-511.9C132.93,-503.15 187.31,-488.27 231.93,-468 259.21,-455.61 261.22,-443.4 288.93,-432 357.54,-403.77 382.81,-422.95 451.93,-396 481.62,-384.43 484.04,-371.04 513.93,-360 597.01,-329.31 626.43,-353.51 709.93,-324 836.32,-279.34 897.05,-289.09 974.93,-180 987.33,-162.63 990.78,-138.56 991.3,-119.83"/>
<polygon fill="black" stroke="black" points="994.8,-119.92 991.28,-109.93 987.8,-119.94 994.8,-119.92"/>
</g>
<!-- r3_node_3&#45;&gt;r3_node_17 -->
<g id="edge5" class="edge">
<title>r3_node_3&#45;&gt;r3_node_17</title>
<path fill="none" stroke="black" d="M48.66,-504.01C45.74,-493.7 42.41,-480.23 40.93,-468 39.01,-452.12 40.66,-448 40.93,-432 43.38,-287.49 50.65,-114.65 53.63,-47.57"/>
<polygon fill="black" stroke="black" points="57.12,-47.97 54.07,-37.82 50.12,-47.65 57.12,-47.97"/>
</g>
<!-- r3_node_7 -->
<g id="node8" class="node">
<title>r3_node_7</title>
<ellipse fill="none" stroke="black" cx="99.93" cy="-450" rx="50.33" ry="18"/>
<text text-anchor="middle" x="99.93" y="-444.95" font-family="Times,serif" font-size="14.00">r3_node_7</text>
</g>
<!-- r3_node_3&#45;&gt;r3_node_7 -->
<g id="edge7" class="edge">
<title>r3_node_3&#45;&gt;r3_node_7</title>
<path fill="none" stroke="black" d="M59.39,-503.7C63.98,-495.4 70.42,-485.31 76.87,-476.19"/>
<polygon fill="black" stroke="black" points="79.52,-478.49 82.64,-468.36 73.89,-474.34 79.52,-478.49"/>
</g>
<!-- r3_node_1 -->
<g id="node9" class="node">
<title>r3_node_1</title>
<ellipse fill="none" stroke="black" cx="915.93" cy="-162" rx="50.33" ry="18"/>
<text text-anchor="middle" x="915.93" y="-156.95" font-family="Times,serif" font-size="14.00">r3_node_1</text>
</g>
<!-- r3_node_3&#45;&gt;r3_node_1 -->
<g id="edge8" class="edge">
<title>r3_node_3&#45;&gt;r3_node_1</title>
<path fill="none" stroke="black" d="M77.85,-505.85C113.33,-487.02 181.47,-454.61 241.93,-432 294.09,-412.49 308.7,-412.32 361.93,-396 413.14,-380.3 425.16,-373.72 476.93,-360 549.49,-340.77 571.7,-350.46 641.93,-324 703.74,-300.71 715.43,-286.2 771.93,-252 808.78,-229.7 849.94,-202.16 878.96,-183.68"/>
<polygon fill="black" stroke="black" points="880.82,-186.64 887.41,-178.35 877.08,-180.72 880.82,-186.64"/>
</g>
<!-- r3_node_7&#45;&gt;r3_node_17 -->
<g id="edge30" class="edge">
<title>r3_node_7&#45;&gt;r3_node_17</title>
<path fill="none" stroke="black" d="M99.08,-431.63C96.28,-377.92 86.38,-209.81 65.93,-72 64.73,-63.88 63.07,-55.13 61.4,-47.13"/>
<polygon fill="black" stroke="black" points="64.87,-46.61 59.32,-37.58 58.03,-48.09 64.87,-46.61"/>
</g>
<!-- r3_node_7&#45;&gt;r3_node_3 -->
<g id="edge27" class="edge">
<title>r3_node_7&#45;&gt;r3_node_3</title>
<path fill="none" stroke="black" d="M94.58,-468.12C90,-476.41 83.56,-486.53 77.08,-495.69"/>
<polygon fill="black" stroke="black" points="74.41,-493.42 71.3,-503.55 80.05,-497.57 74.41,-493.42"/>
</g>
<!-- r3_node_8 -->
<g id="node14" class="node">
<title>r3_node_8</title>
<ellipse fill="none" stroke="black" cx="345.93" cy="-306" rx="50.33" ry="18"/>
<text text-anchor="middle" x="345.93" y="-300.95" font-family="Times,serif" font-size="14.00">r3_node_8</text>
</g>
<!-- r3_node_7&#45;&gt;r3_node_8 -->
<g id="edge29" class="edge">
<title>r3_node_7&#45;&gt;r3_node_8</title>
<path fill="none" stroke="black" d="M120.43,-433.17C148.52,-415.32 199.73,-385.45 243.93,-360 263.77,-348.58 286.05,-335.88 304.83,-325.77"/>
<polygon fill="black" stroke="black" points="306.34,-328.93 313.53,-321.16 303.06,-322.75 306.34,-328.93"/>
</g>
<!-- r3_node_7&#45;&gt;r3_node_2 -->
<g id="edge28" class="edge">
<title>r3_node_7&#45;&gt;r3_node_2</title>
<path fill="none" stroke="black" d="M133.45,-436.16C168.29,-424.07 222.95,-406 262.67,-393.42"/>
<polygon fill="black" stroke="black" points="263.52,-396.83 272.01,-390.48 261.42,-390.15 263.52,-396.83"/>
</g>
<!-- r3_node_1&#45;&gt;r3_node_15 -->
<g id="edge32" class="edge">
<title>r3_node_1&#45;&gt;r3_node_15</title>
<path fill="none" stroke="black" d="M869.15,-154.81C797.83,-145.29 657.67,-126.24 538.93,-108 525,-105.86 510.02,-103.43 495.95,-101.1"/>
<polygon fill="black" stroke="black" points="496.82,-97.7 486.38,-99.5 495.67,-104.6 496.82,-97.7"/>
</g>
<!-- r3_node_1&#45;&gt;r3_node_3 -->
<g id="edge31" class="edge">
<title>r3_node_1&#45;&gt;r3_node_3</title>
<path fill="none" stroke="black" d="M898.94,-179.32C874.73,-197.61 829.8,-227.87 789.93,-252 733.43,-286.2 721.74,-300.71 659.93,-324 589.7,-350.46 567.49,-340.77 494.93,-360 443.16,-373.72 431.14,-380.3 379.93,-396 326.7,-412.32 312.09,-412.49 259.93,-432 202.37,-453.53 137.85,-483.93 96.47,-503.04"/>
<polygon fill="black" stroke="black" points="95.2,-499.77 87.58,-507.13 98.13,-506.13 95.2,-499.77"/>
</g>
<!-- r3_node_18 -->
<g id="node15" class="node">
<title>r3_node_18</title>
<ellipse fill="none" stroke="black" cx="486.93" cy="-18" rx="54.93" ry="18"/>
<text text-anchor="middle" x="486.93" y="-12.95" font-family="Times,serif" font-size="14.00">r3_node_18</text>
</g>
<!-- r3_node_1&#45;&gt;r3_node_18 -->
<g id="edge33" class="edge">
<title>r3_node_1&#45;&gt;r3_node_18</title>
<path fill="none" stroke="black" d="M964.08,-156.2C995.34,-150.31 1033.88,-137.19 1053.93,-108 1063,-94.81 1064.71,-83.83 1053.93,-72 1020.75,-35.57 695.42,-23.74 553.06,-20.29"/>
<polygon fill="black" stroke="black" points="553.5,-16.8 543.42,-20.06 553.34,-23.79 553.5,-16.8"/>
</g>
<!-- r3_node_9 -->
<g id="node10" class="node">
<title>r3_node_9</title>
<ellipse fill="none" stroke="black" cx="598.93" cy="-162" rx="50.33" ry="18"/>
<text text-anchor="middle" x="598.93" y="-156.95" font-family="Times,serif" font-size="14.00">r3_node_9</text>
</g>
<!-- r3_node_9&#45;&gt;r3_node_19 -->
<g id="edge13" class="edge">
<title>r3_node_9&#45;&gt;r3_node_19</title>
<path fill="none" stroke="black" d="M643.03,-153.11C713.74,-140.45 852.57,-115.59 931.47,-101.47"/>
<polygon fill="black" stroke="black" points="931.95,-104.94 941.17,-99.73 930.71,-98.05 931.95,-104.94"/>
</g>
<!-- r3_node_9&#45;&gt;r3_node_15 -->
<g id="edge11" class="edge">
<title>r3_node_9&#45;&gt;r3_node_15</title>
<path fill="none" stroke="black" d="M567.7,-147.5C542.7,-136.7 507.37,-121.44 479.74,-109.5"/>
<polygon fill="black" stroke="black" points="481.14,-106.29 470.57,-105.53 478.36,-112.71 481.14,-106.29"/>
</g>
<!-- r3_node_9&#45;&gt;r3_node_16 -->
<g id="edge12" class="edge">
<title>r3_node_9&#45;&gt;r3_node_16</title>
<path fill="none" stroke="black" d="M621.18,-145.59C645.26,-127.07 677.63,-95.55 656.93,-72 645.64,-59.15 423.1,-35.93 311.14,-25"/>
<polygon fill="black" stroke="black" points="311.81,-21.55 301.52,-24.06 311.13,-28.52 311.81,-21.55"/>
</g>
<!-- r3_node_9&#45;&gt;r3_node_5 -->
<g id="edge9" class="edge">
<title>r3_node_9&#45;&gt;r3_node_5</title>
<path fill="none" stroke="black" d="M599.91,-180.28C598.53,-187.86 596.16,-196.95 593.42,-205.43"/>
<polygon fill="black" stroke="black" points="590.21,-204.03 590.16,-214.63 596.8,-206.37 590.21,-204.03"/>
</g>
<!-- r3_node_6 -->
<g id="node12" class="node">
<title>r3_node_6</title>
<ellipse fill="none" stroke="black" cx="597.93" cy="-90" rx="50.33" ry="18"/>
<text text-anchor="middle" x="597.93" y="-84.95" font-family="Times,serif" font-size="14.00">r3_node_6</text>
</g>
<!-- r3_node_9&#45;&gt;r3_node_6 -->
<g id="edge10" class="edge">
<title>r3_node_9&#45;&gt;r3_node_6</title>
<path fill="none" stroke="black" d="M592.77,-143.7C591.92,-136.41 591.55,-127.73 591.7,-119.54"/>
<polygon fill="black" stroke="black" points="595.19,-119.78 592.21,-109.62 588.2,-119.42 595.19,-119.78"/>
</g>
<!-- r3_node_5&#45;&gt;r3_node_4 -->
<g id="edge52" class="edge">
<title>r3_node_5&#45;&gt;r3_node_4</title>
<path fill="none" stroke="black" d="M534.76,-243.13C458.18,-256.42 301.19,-282.65 216.66,-296.3"/>
<polygon fill="black" stroke="black" points="216.29,-292.81 206.98,-297.86 217.41,-299.72 216.29,-292.81"/>
</g>
<!-- r3_node_5&#45;&gt;r3_node_15 -->
<g id="edge48" class="edge">
<title>r3_node_5&#45;&gt;r3_node_15</title>
<path fill="none" stroke="black" d="M554.98,-217.77C540.33,-207.9 521.65,-194.25 506.93,-180 487.07,-160.76 467.89,-135.78 454.65,-117.18"/>
<polygon fill="black" stroke="black" points="457.58,-115.27 448.98,-109.09 451.85,-119.29 457.58,-115.27"/>
</g>
<!-- r3_node_5&#45;&gt;r3_node_16 -->
<g id="edge49" class="edge">
<title>r3_node_5&#45;&gt;r3_node_16</title>
<path fill="none" stroke="black" d="M564.97,-216.64C556.88,-206.56 546.93,-193.1 539.93,-180 515.9,-134.98 539.46,-105.47 500.93,-72 473.17,-47.88 377.24,-32.92 311.82,-25.28"/>
<polygon fill="black" stroke="black" points="312.22,-21.8 301.89,-24.15 311.43,-28.75 312.22,-21.8"/>
</g>
<!-- r3_node_5&#45;&gt;r3_node_9 -->
<g id="edge51" class="edge">
<title>r3_node_5&#45;&gt;r3_node_9</title>
<path fill="none" stroke="black" d="M577.96,-215.7C579.36,-208.04 581.76,-198.85 584.53,-190.3"/>
<polygon fill="black" stroke="black" points="587.77,-191.64 587.83,-181.05 581.18,-189.29 587.77,-191.64"/>
</g>
<!-- r3_node_5&#45;&gt;r3_node_18 -->
<g id="edge50" class="edge">
<title>r3_node_5&#45;&gt;r3_node_18</title>
<path fill="none" stroke="black" d="M609.88,-219.38C626.57,-210.5 646.1,-197.32 657.93,-180 685.3,-139.93 703.2,-110.71 673.93,-72 658.55,-51.65 596.09,-36.85 547.54,-28.14"/>
<polygon fill="black" stroke="black" points="548.42,-24.74 537.97,-26.48 547.22,-31.64 548.42,-24.74"/>
</g>
<!-- r3_node_6&#45;&gt;r3_node_17 -->
<g id="edge43" class="edge">
<title>r3_node_6&#45;&gt;r3_node_17</title>
<path fill="none" stroke="black" d="M554.08,-80.74C537.47,-77.76 518.36,-74.51 500.93,-72 360.59,-51.75 324.67,-53.26 183.93,-36 161.89,-33.3 137.75,-30.16 116.37,-27.33"/>
<polygon fill="black" stroke="black" points="117.02,-23.88 106.64,-26.03 116.09,-30.82 117.02,-23.88"/>
</g>
<!-- r3_node_6&#45;&gt;r3_node_9 -->
<g id="edge42" class="edge">
<title>r3_node_6&#45;&gt;r3_node_9</title>
<path fill="none" stroke="black" d="M604.07,-108.1C604.94,-115.37 605.32,-124.04 605.18,-132.24"/>
<polygon fill="black" stroke="black" points="601.68,-132.02 604.68,-142.18 608.67,-132.37 601.68,-132.02"/>
</g>
<!-- r3_node_6&#45;&gt;r3_node_18 -->
<g id="edge44" class="edge">
<title>r3_node_6&#45;&gt;r3_node_18</title>
<path fill="none" stroke="black" d="M573.85,-73.81C558.39,-64.06 538.09,-51.26 520.99,-40.48"/>
<polygon fill="black" stroke="black" points="522.96,-37.58 512.64,-35.21 519.23,-43.5 522.96,-37.58"/>
</g>
<!-- r3_node_14 -->
<g id="node13" class="node">
<title>r3_node_14</title>
<ellipse fill="none" stroke="black" cx="1114.93" cy="-162" rx="54.93" ry="18"/>
<text text-anchor="middle" x="1114.93" y="-156.95" font-family="Times,serif" font-size="14.00">r3_node_14</text>
</g>
<!-- r3_node_8&#45;&gt;r3_node_19 -->
<g id="edge15" class="edge">
<title>r3_node_8&#45;&gt;r3_node_19</title>
<path fill="none" stroke="black" d="M396.32,-303.89C461.92,-300.88 579.04,-290.08 670.93,-252 746.83,-220.55 747.47,-180.76 820.93,-144 857,-125.95 900.48,-112.48 934.3,-103.64"/>
<polygon fill="black" stroke="black" points="935.09,-107.05 943.91,-101.19 933.36,-100.27 935.09,-107.05"/>
</g>
<!-- r3_node_8&#45;&gt;r3_node_15 -->
<g id="edge17" class="edge">
<title>r3_node_8&#45;&gt;r3_node_15</title>
<path fill="none" stroke="black" d="M393.01,-299.22C422.48,-292.9 458.28,-279.67 476.93,-252 491.54,-230.33 465.35,-158.5 448.85,-118.5"/>
<polygon fill="black" stroke="black" points="452.18,-117.39 445.09,-109.53 445.73,-120.1 452.18,-117.39"/>
</g>
<!-- r3_node_8&#45;&gt;r3_node_16 -->
<g id="edge18" class="edge">
<title>r3_node_8&#45;&gt;r3_node_16</title>
<path fill="none" stroke="black" d="M370.96,-289.92C383.69,-280.72 397.92,-267.72 404.93,-252 411.45,-237.39 409.57,-231.31 404.93,-216 382.47,-141.79 315.82,-75.89 276.96,-42.37"/>
<polygon fill="black" stroke="black" points="279.24,-39.72 269.34,-35.93 274.72,-45.06 279.24,-39.72"/>
</g>
<!-- r3_node_8&#45;&gt;r3_node_17 -->
<g id="edge19" class="edge">
<title>r3_node_8&#45;&gt;r3_node_17</title>
<path fill="none" stroke="black" d="M323.02,-289.62C309,-279.68 291.1,-266.03 276.93,-252 204.74,-180.48 210.78,-140.74 135.93,-72 122.76,-59.9 106.54,-48.7 92.08,-39.74"/>
<polygon fill="black" stroke="black" points="94.08,-36.86 83.71,-34.7 90.47,-42.86 94.08,-36.86"/>
</g>
<!-- r3_node_8&#45;&gt;r3_node_7 -->
<g id="edge16" class="edge">
<title>r3_node_8&#45;&gt;r3_node_7</title>
<path fill="none" stroke="black" d="M325.5,-322.94C308.35,-333.43 283.68,-347.48 261.93,-360 220.3,-383.97 172.46,-411.85 139.47,-429.93"/>
<polygon fill="black" stroke="black" points="138.19,-426.65 131.06,-434.49 141.52,-432.8 138.19,-426.65"/>
</g>
<!-- r3_node_8&#45;&gt;r3_node_18 -->
<g id="edge14" class="edge">
<title>r3_node_8&#45;&gt;r3_node_18</title>
<path fill="none" stroke="black" d="M394.7,-300.93C467.19,-294.09 599.02,-278.39 637.93,-252 669.17,-230.82 669.57,-215.29 682.93,-180 700.03,-134.83 724.57,-110.13 694.93,-72 677.11,-49.06 603.85,-34.41 549.28,-26.45"/>
<polygon fill="black" stroke="black" points="549.84,-22.99 539.45,-25.07 548.86,-29.93 549.84,-22.99"/>
</g>
<!-- r3_node_11 -->
<g id="node16" class="node">
<title>r3_node_11</title>
<ellipse fill="none" stroke="black" cx="242.93" cy="-522" rx="54.93" ry="18"/>
<text text-anchor="middle" x="242.93" y="-516.95" font-family="Times,serif" font-size="14.00">r3_node_11</text>
</g>
<!-- r3_node_11&#45;&gt;r3_node_14 -->
<g id="edge21" class="edge">
<title>r3_node_11&#45;&gt;r3_node_14</title>
<path fill="none" stroke="black" d="M294.45,-515.37C418.65,-500.13 741.75,-450.34 977.93,-324 1020.7,-301.12 1028.62,-289.04 1059.93,-252 1076.11,-232.87 1090.82,-208.52 1100.95,-190.12"/>
<polygon fill="black" stroke="black" points="1103.99,-191.86 1105.64,-181.4 1097.82,-188.55 1103.99,-191.86"/>
</g>
<!-- r3_node_10 -->
<g id="node17" class="node">
<title>r3_node_10</title>
<ellipse fill="none" stroke="black" cx="352.93" cy="-450" rx="54.93" ry="18"/>
<text text-anchor="middle" x="352.93" y="-444.95" font-family="Times,serif" font-size="14.00">r3_node_10</text>
</g>
<!-- r3_node_11&#45;&gt;r3_node_10 -->
<g id="edge20" class="edge">
<title>r3_node_11&#45;&gt;r3_node_10</title>
<path fill="none" stroke="black" d="M262.65,-504.76C277.17,-494.81 297.19,-481.99 314.74,-471.36"/>
<polygon fill="black" stroke="black" points="316.1,-474.63 322.89,-466.49 312.51,-468.62 316.1,-474.63"/>
</g>
<!-- r3_node_10&#45;&gt;r3_node_19 -->
<g id="edge47" class="edge">
<title>r3_node_10&#45;&gt;r3_node_19</title>
<path fill="none" stroke="black" d="M396.9,-438.8C430.21,-430.08 476.46,-415.79 513.93,-396 537.2,-383.71 536.5,-369.77 560.93,-360 699.98,-304.41 762.29,-391.54 895.93,-324 932.12,-305.71 996.56,-218.91 1007.93,-180 1013.81,-159.89 1008.73,-136.68 1002.49,-119"/>
<polygon fill="black" stroke="black" points="1005.76,-117.74 998.88,-109.68 999.23,-120.27 1005.76,-117.74"/>
</g>
<!-- r3_node_10&#45;&gt;r3_node_14 -->
<g id="edge46" class="edge">
<title>r3_node_10&#45;&gt;r3_node_14</title>
<path fill="none" stroke="black" d="M396.3,-438.76C452.71,-425.31 545.88,-402.62 560.93,-396 587.67,-384.23 588.44,-369.89 615.93,-360 751.85,-311.11 807.4,-383.68 938.93,-324 974.32,-307.95 1052.39,-228.92 1091.56,-187.87"/>
<polygon fill="black" stroke="black" points="1093.91,-190.48 1098.26,-180.82 1088.83,-185.66 1093.91,-190.48"/>
</g>
<!-- r3_node_10&#45;&gt;r3_node_11 -->
<g id="edge45" class="edge">
<title>r3_node_10&#45;&gt;r3_node_11</title>
<path fill="none" stroke="black" d="M333.39,-467.12C318.85,-477.09 298.72,-489.99 281.09,-500.66"/>
<polygon fill="black" stroke="black" points="279.7,-497.42 272.91,-505.55 283.29,-503.42 279.7,-497.42"/>
</g>
<!-- r3_node_12&#45;&gt;r3_node_4 -->
<g id="edge39" class="edge">
<title>r3_node_12&#45;&gt;r3_node_4</title>
<path fill="none" stroke="black" d="M174.13,-252.28C173.73,-259.69 172.58,-268.54 170.99,-276.86"/>
<polygon fill="black" stroke="black" points="167.58,-276.05 168.81,-286.58 174.41,-277.59 167.58,-276.05"/>
</g>
<!-- r3_node_12&#45;&gt;r3_node_16 -->
<g id="edge40" class="edge">
<title>r3_node_12&#45;&gt;r3_node_16</title>
<path fill="none" stroke="black" d="M177.11,-215.85C190.37,-178.99 221.7,-91.92 237.87,-46.96"/>
<polygon fill="black" stroke="black" points="241.13,-48.25 241.22,-37.66 234.54,-45.88 241.13,-48.25"/>
</g>
<!-- r3_node_12&#45;&gt;r3_node_17 -->
<g id="edge41" class="edge">
<title>r3_node_12&#45;&gt;r3_node_17</title>
<path fill="none" stroke="black" d="M167.43,-215.81C160.57,-184.98 143.24,-119.11 111.93,-72 104.66,-61.06 94.69,-50.78 85.12,-42.24"/>
<polygon fill="black" stroke="black" points="87.57,-39.73 77.68,-35.9 83.02,-45.06 87.57,-39.73"/>
</g>
<!-- r3_node_2&#45;&gt;r3_node_19 -->
<g id="edge37" class="edge">
<title>r3_node_2&#45;&gt;r3_node_19</title>
<path fill="none" stroke="black" d="M356.09,-369.07C428.15,-356.05 565.23,-330.87 586.93,-324 661.28,-300.46 682.55,-296 746.93,-252 803.5,-213.34 799.54,-181.42 856.93,-144 881.99,-127.67 912.87,-114.98 938.56,-106.12"/>
<polygon fill="black" stroke="black" points="939.42,-109.53 947.79,-103.04 937.2,-102.89 939.42,-109.53"/>
</g>
<!-- r3_node_2&#45;&gt;r3_node_4 -->
<g id="edge38" class="edge">
<title>r3_node_2&#45;&gt;r3_node_4</title>
<path fill="none" stroke="black" d="M278.69,-364.16C254.35,-353.66 221.49,-338.64 196.44,-326.64"/>
<polygon fill="black" stroke="black" points="198.12,-323.56 187.59,-322.35 195.07,-329.86 198.12,-323.56"/>
</g>
<!-- r3_node_2&#45;&gt;r3_node_7 -->
<g id="edge34" class="edge">
<title>r3_node_2&#45;&gt;r3_node_7</title>
<path fill="none" stroke="black" d="M278.65,-391.76C243.75,-403.87 188.75,-422.05 148.92,-434.66"/>
<polygon fill="black" stroke="black" points="148.05,-431.27 139.57,-437.61 150.15,-437.95 148.05,-431.27"/>
</g>
<!-- r3_node_2&#45;&gt;r3_node_14 -->
<g id="edge35" class="edge">
<title>r3_node_2&#45;&gt;r3_node_14</title>
<path fill="none" stroke="black" d="M356.17,-369.05C373.53,-366.05 393.64,-362.7 411.93,-360 539.11,-341.22 574.28,-355.43 698.93,-324 841.72,-287.99 1001.9,-216.65 1074.86,-182.33"/>
<polygon fill="black" stroke="black" points="1076.07,-185.63 1083.61,-178.19 1073.08,-179.3 1076.07,-185.63"/>
</g>
<!-- r3_node_2&#45;&gt;r3_node_18 -->
<g id="edge36" class="edge">
<title>r3_node_2&#45;&gt;r3_node_18</title>
<path fill="none" stroke="black" d="M349.44,-365.56C435.76,-339 643,-273.73 667.93,-252 695.06,-228.36 693.85,-214.23 704.93,-180 719.8,-134.1 745.96,-109.77 715.93,-72 695.63,-46.45 611.31,-32.14 550.89,-25"/>
<polygon fill="black" stroke="black" points="551.36,-21.53 541.03,-23.87 550.57,-28.48 551.36,-21.53"/>
</g>
</g>
</svg>
