<?xml version="1.0" encoding="UTF-8" standalone="no"?>
<!DOCTYPE svg PUBLIC "-//W3C//DTD SVG 1.1//EN"
 "http://www.w3.org/Graphics/SVG/1.1/DTD/svg11.dtd">
<!-- Generated by graphviz version 12.2.1 (20241206.2353)
 -->
<!-- Pages: 1 -->
<svg width="980pt" height="620pt"
 viewBox="0.00 0.00 979.51 620.00" xmlns="http://www.w3.org/2000/svg" xmlns:xlink="http://www.w3.org/1999/xlink">
<g id="graph0" class="graph" transform="scale(1 1) rotate(0) translate(4 616)">
<polygon fill="white" stroke="none" points="-4,4 -4,-616 975.51,-616 975.51,4 -4,4"/>
<!-- r2_node_19 -->
<g id="node1" class="node">
<title>r2_node_19</title>
<ellipse fill="none" stroke="black" cx="262.93" cy="-18" rx="54.93" ry="18"/>
<text text-anchor="middle" x="262.93" y="-12.95" font-family="Times,serif" font-size="14.00">r2_node_19</text>
</g>
<!-- r2_node_11 -->
<g id="node2" class="node">
<title>r2_node_11</title>
<ellipse fill="none" stroke="black" cx="54.93" cy="-594" rx="54.93" ry="18"/>
<text text-anchor="middle" x="54.93" y="-588.95" font-family="Times,serif" font-size="14.00">r2_node_11</text>
</g>
<!-- r2_node_11&#45;&gt;r2_node_19 -->
<g id="edge2" class="edge">
<title>r2_node_11&#45;&gt;r2_node_19</title>
<path fill="none" stroke="black" d="M52.77,-575.94C44.78,-505.45 23.51,-233.05 147.93,-72 156.92,-60.37 187.91,-46.42 215.45,-35.76"/>
<polygon fill="black" stroke="black" points="216.65,-39.05 224.76,-32.23 214.17,-32.5 216.65,-39.05"/>
</g>
<!-- r2_node_14 -->
<g id="node3" class="node">
<title>r2_node_14</title>
<ellipse fill="none" stroke="black" cx="134.93" cy="-522" rx="54.93" ry="18"/>
<text text-anchor="middle" x="134.93" y="-516.95" font-family="Times,serif" font-size="14.00">r2_node_14</text>
</g>
<!-- r2_node_11&#45;&gt;r2_node_14 -->
<g id="edge1" class="edge">
<title>r2_node_11&#45;&gt;r2_node_14</title>
<path fill="none" stroke="black" d="M68.05,-576.41C77.6,-567.17 90.73,-555.54 102.88,-545.49"/>
<polygon fill="black" stroke="black" points="104.75,-548.48 110.31,-539.46 100.34,-543.04 104.75,-548.48"/>
</g>
<!-- r2_node_20 -->
<g id="node4" class="node">
<title>r2_node_20</title>
<ellipse fill="none" stroke="black" cx="571.93" cy="-18" rx="54.93" ry="18"/>
<text text-anchor="middle" x="571.93" y="-12.95" font-family="Times,serif" font-size="14.00">r2_node_20</text>
</g>
<!-- r2_node_11&#45;&gt;r2_node_20 -->
<g id="edge3" class="edge">
<title>r2_node_11&#45;&gt;r2_node_20</title>
<path fill="none" stroke="black" d="M109.62,-591.42C188.69,-587.89 338.87,-576.54 460.93,-540 566.24,-508.48 847.6,-417.16 905.93,-324 972.6,-217.53 878.92,-146.72 777.93,-72 737.06,-41.75 680.56,-28.71 637.07,-23.12"/>
<polygon fill="black" stroke="black" points="637.58,-19.65 627.24,-21.96 636.77,-26.61 637.58,-19.65"/>
</g>
<!-- r2_node_6 -->
<g id="node5" class="node">
<title>r2_node_6</title>
<ellipse fill="none" stroke="black" cx="846.93" cy="-306" rx="50.33" ry="18"/>
<text text-anchor="middle" x="846.93" y="-300.95" font-family="Times,serif" font-size="14.00">r2_node_6</text>
</g>
<!-- r2_node_11&#45;&gt;r2_node_6 -->
<g id="edge4" class="edge">
<title>r2_node_11&#45;&gt;r2_node_6</title>
<path fill="none" stroke="black" d="M107.64,-588.45C191.44,-580.98 350.43,-564.46 401.93,-540 444.85,-519.62 455.7,-508.25 480.93,-468 507.52,-425.58 475,-392.67 512.93,-360 556.63,-322.37 713.33,-335.01 769.93,-324 777.57,-322.52 785.62,-320.71 793.56,-318.84"/>
<polygon fill="black" stroke="black" points="794.26,-322.28 803.17,-316.54 792.63,-315.47 794.26,-322.28"/>
</g>
<!-- r2_node_14&#45;&gt;r2_node_11 -->
<g id="edge38" class="edge">
<title>r2_node_14&#45;&gt;r2_node_11</title>
<path fill="none" stroke="black" d="M121.69,-539.71C112.24,-548.85 99.33,-560.29 87.34,-570.22"/>
<polygon fill="black" stroke="black" points="85.14,-567.49 79.58,-576.51 89.55,-572.93 85.14,-567.49"/>
</g>
<!-- r2_node_8 -->
<g id="node7" class="node">
<title>r2_node_8</title>
<ellipse fill="none" stroke="black" cx="675.93" cy="-234" rx="50.33" ry="18"/>
<text text-anchor="middle" x="675.93" y="-228.95" font-family="Times,serif" font-size="14.00">r2_node_8</text>
</g>
<!-- r2_node_14&#45;&gt;r2_node_8 -->
<g id="edge37" class="edge">
<title>r2_node_14&#45;&gt;r2_node_8</title>
<path fill="none" stroke="black" d="M162.95,-506.28C181.54,-497.11 205.57,-484.02 223.93,-468 268.74,-428.9 255.06,-395.28 302.93,-360 399.58,-288.79 539.86,-255.96 618.03,-242.72"/>
<polygon fill="black" stroke="black" points="618.31,-246.22 627.61,-241.15 617.17,-239.31 618.31,-246.22"/>
</g>
<!-- r2_node_9 -->
<g id="node15" class="node">
<title>r2_node_9</title>
<ellipse fill="none" stroke="black" cx="359.93" cy="-450" rx="50.33" ry="18"/>
<text text-anchor="middle" x="359.93" y="-444.95" font-family="Times,serif" font-size="14.00">r2_node_9</text>
</g>
<!-- r2_node_14&#45;&gt;r2_node_9 -->
<g id="edge34" class="edge">
<title>r2_node_14&#45;&gt;r2_node_9</title>
<path fill="none" stroke="black" d="M171.09,-508.08C208.7,-495.82 267.68,-477.46 309.77,-464.89"/>
<polygon fill="black" stroke="black" points="310.58,-468.3 319.17,-462.1 308.59,-461.59 310.58,-468.3"/>
</g>
<!-- r2_node_17 -->
<g id="node18" class="node">
<title>r2_node_17</title>
<ellipse fill="none" stroke="black" cx="211.93" cy="-90" rx="54.93" ry="18"/>
<text text-anchor="middle" x="211.93" y="-84.95" font-family="Times,serif" font-size="14.00">r2_node_17</text>
</g>
<!-- r2_node_14&#45;&gt;r2_node_17 -->
<g id="edge35" class="edge">
<title>r2_node_14&#45;&gt;r2_node_17</title>
<path fill="none" stroke="black" d="M119.28,-504.73C113.51,-494.46 108.26,-480.77 105.93,-468 103.06,-452.26 105.38,-447.99 105.93,-432 107.05,-399.94 104.58,-391.44 110.93,-360 129.4,-268.66 170.66,-165.74 194.67,-118"/>
<polygon fill="black" stroke="black" points="197.73,-119.71 199.25,-109.22 191.52,-116.47 197.73,-119.71"/>
</g>
<!-- r2_node_3 -->
<g id="node19" class="node">
<title>r2_node_3</title>
<ellipse fill="none" stroke="black" cx="173.93" cy="-450" rx="50.33" ry="18"/>
<text text-anchor="middle" x="173.93" y="-444.95" font-family="Times,serif" font-size="14.00">r2_node_3</text>
</g>
<!-- r2_node_14&#45;&gt;r2_node_3 -->
<g id="edge36" class="edge">
<title>r2_node_14&#45;&gt;r2_node_3</title>
<path fill="none" stroke="black" d="M138.66,-503.7C142.29,-495.7 147.47,-486.02 152.81,-477.15"/>
<polygon fill="black" stroke="black" points="155.64,-479.23 158.02,-468.9 149.72,-475.49 155.64,-479.23"/>
</g>
<!-- r2_node_6&#45;&gt;r2_node_11 -->
<g id="edge19" class="edge">
<title>r2_node_6&#45;&gt;r2_node_11</title>
<path fill="none" stroke="black" d="M810.96,-318.92C803.4,-320.76 795.46,-322.54 787.93,-324 731.33,-335.01 574.63,-322.37 530.93,-360 493,-392.67 525.52,-425.58 498.93,-468 473.7,-508.25 462.85,-519.62 419.93,-540 368.51,-564.42 209.95,-580.93 119.56,-588.42"/>
<polygon fill="black" stroke="black" points="119.54,-584.91 109.86,-589.2 120.11,-591.88 119.54,-584.91"/>
</g>
<!-- r2_node_13 -->
<g id="node6" class="node">
<title>r2_node_13</title>
<ellipse fill="none" stroke="black" cx="346.93" cy="-522" rx="54.93" ry="18"/>
<text text-anchor="middle" x="346.93" y="-516.95" font-family="Times,serif" font-size="14.00">r2_node_13</text>
</g>
<!-- r2_node_13&#45;&gt;r2_node_19 -->
<g id="edge6" class="edge">
<title>r2_node_13&#45;&gt;r2_node_19</title>
<path fill="none" stroke="black" d="M377.13,-506.66C392.36,-497.76 409.54,-484.8 418.93,-468 442.43,-425.96 395.45,-395.57 427.93,-360 490.31,-291.69 545.72,-354.83 632.93,-324 695.2,-301.99 723.05,-304.64 762.93,-252 792.28,-213.27 803.39,-186.56 779.93,-144 751.01,-91.52 722.29,-92.38 665.93,-72 605.13,-50.01 424.89,-32.35 327.35,-24.08"/>
<polygon fill="black" stroke="black" points="327.93,-20.62 317.67,-23.27 327.35,-27.59 327.93,-20.62"/>
</g>
<!-- r2_node_13&#45;&gt;r2_node_20 -->
<g id="edge5" class="edge">
<title>r2_node_13&#45;&gt;r2_node_20</title>
<path fill="none" stroke="black" d="M378.9,-507.02C397.19,-497.86 419.66,-484.53 435.93,-468 474.76,-428.55 452.75,-391.96 497.93,-360 570.24,-308.85 612.98,-359.92 693.93,-324 742.04,-302.65 760.83,-297.11 787.93,-252 830.36,-181.41 811.7,-118.8 743.93,-72 710.87,-49.17 667.63,-35.9 632.77,-28.35"/>
<polygon fill="black" stroke="black" points="633.76,-24.98 623.26,-26.4 632.35,-31.84 633.76,-24.98"/>
</g>
<!-- r2_node_8&#45;&gt;r2_node_14 -->
<g id="edge8" class="edge">
<title>r2_node_8&#45;&gt;r2_node_14</title>
<path fill="none" stroke="black" d="M631.11,-242.48C559.55,-255.57 418.16,-288.36 320.93,-360 273.06,-395.28 286.74,-428.9 241.93,-468 224.89,-482.88 202.96,-495.22 183.31,-504.25"/>
<polygon fill="black" stroke="black" points="182.11,-500.95 174.36,-508.18 184.92,-507.36 182.11,-500.95"/>
</g>
<!-- r2_node_1 -->
<g id="node8" class="node">
<title>r2_node_1</title>
<ellipse fill="none" stroke="black" cx="299.93" cy="-306" rx="50.33" ry="18"/>
<text text-anchor="middle" x="299.93" y="-300.95" font-family="Times,serif" font-size="14.00">r2_node_1</text>
</g>
<!-- r2_node_8&#45;&gt;r2_node_1 -->
<g id="edge7" class="edge">
<title>r2_node_8&#45;&gt;r2_node_1</title>
<path fill="none" stroke="black" d="M636.01,-245.17C625,-247.46 613.06,-249.86 601.93,-252 517.05,-268.37 418.04,-285.97 357.07,-296.2"/>
<polygon fill="black" stroke="black" points="356.55,-292.74 347.26,-297.84 357.7,-299.65 356.55,-292.74"/>
</g>
<!-- r2_node_16 -->
<g id="node9" class="node">
<title>r2_node_16</title>
<ellipse fill="none" stroke="black" cx="694.93" cy="-162" rx="54.93" ry="18"/>
<text text-anchor="middle" x="694.93" y="-156.95" font-family="Times,serif" font-size="14.00">r2_node_16</text>
</g>
<!-- r2_node_8&#45;&gt;r2_node_16 -->
<g id="edge9" class="edge">
<title>r2_node_8&#45;&gt;r2_node_16</title>
<path fill="none" stroke="black" d="M674.71,-215.7C675.97,-208.24 678.15,-199.32 680.72,-190.97"/>
<polygon fill="black" stroke="black" points="684.02,-192.13 683.91,-181.54 677.39,-189.89 684.02,-192.13"/>
</g>
<!-- r2_node_1&#45;&gt;r2_node_8 -->
<g id="edge11" class="edge">
<title>r2_node_1&#45;&gt;r2_node_8</title>
<path fill="none" stroke="black" d="M342.81,-296.44C398.53,-286.24 498.41,-268.49 583.93,-252 595.54,-249.76 608.03,-247.26 619.99,-244.87"/>
<polygon fill="black" stroke="black" points="620.64,-248.31 629.76,-242.92 619.27,-241.44 620.64,-248.31"/>
</g>
<!-- r2_node_7 -->
<g id="node10" class="node">
<title>r2_node_7</title>
<ellipse fill="none" stroke="black" cx="449.93" cy="-90" rx="50.33" ry="18"/>
<text text-anchor="middle" x="449.93" y="-84.95" font-family="Times,serif" font-size="14.00">r2_node_7</text>
</g>
<!-- r2_node_1&#45;&gt;r2_node_7 -->
<g id="edge10" class="edge">
<title>r2_node_1&#45;&gt;r2_node_7</title>
<path fill="none" stroke="black" d="M347.25,-299.4C411.41,-289.09 522.6,-260.16 565.93,-180 573.54,-165.93 574.77,-157.34 565.93,-144 557.34,-131.02 524.32,-117.32 495.61,-107.1"/>
<polygon fill="black" stroke="black" points="496.91,-103.84 486.31,-103.86 494.61,-110.46 496.91,-103.84"/>
</g>
<!-- r2_node_10 -->
<g id="node11" class="node">
<title>r2_node_10</title>
<ellipse fill="none" stroke="black" cx="354.93" cy="-234" rx="54.93" ry="18"/>
<text text-anchor="middle" x="354.93" y="-228.95" font-family="Times,serif" font-size="14.00">r2_node_10</text>
</g>
<!-- r2_node_1&#45;&gt;r2_node_10 -->
<g id="edge12" class="edge">
<title>r2_node_1&#45;&gt;r2_node_10</title>
<path fill="none" stroke="black" d="M307.37,-288.05C313.12,-279.59 321.09,-269.19 328.92,-259.84"/>
<polygon fill="black" stroke="black" points="331.42,-262.3 335.32,-252.45 326.13,-257.72 331.42,-262.3"/>
</g>
<!-- r2_node_12 -->
<g id="node12" class="node">
<title>r2_node_12</title>
<ellipse fill="none" stroke="black" cx="183.93" cy="-378" rx="54.93" ry="18"/>
<text text-anchor="middle" x="183.93" y="-372.95" font-family="Times,serif" font-size="14.00">r2_node_12</text>
</g>
<!-- r2_node_1&#45;&gt;r2_node_12 -->
<g id="edge13" class="edge">
<title>r2_node_1&#45;&gt;r2_node_12</title>
<path fill="none" stroke="black" d="M279.65,-322.7C264.09,-332.81 242.32,-346.03 223.42,-356.9"/>
<polygon fill="black" stroke="black" points="221.85,-353.77 214.88,-361.75 225.3,-359.85 221.85,-353.77"/>
</g>
<!-- r2_node_2 -->
<g id="node13" class="node">
<title>r2_node_2</title>
<ellipse fill="none" stroke="black" cx="515.93" cy="-162" rx="50.33" ry="18"/>
<text text-anchor="middle" x="515.93" y="-156.95" font-family="Times,serif" font-size="14.00">r2_node_2</text>
</g>
<!-- r2_node_1&#45;&gt;r2_node_2 -->
<g id="edge14" class="edge">
<title>r2_node_1&#45;&gt;r2_node_2</title>
<path fill="none" stroke="black" d="M331.05,-291.38C353.88,-282.06 384.88,-268.44 409.93,-252 438.52,-233.24 466.83,-206.01 487.21,-186.61"/>
<polygon fill="black" stroke="black" points="489.48,-189.28 494.34,-179.87 484.67,-184.2 489.48,-189.28"/>
</g>
<!-- r2_node_5 -->
<g id="node14" class="node">
<title>r2_node_5</title>
<ellipse fill="none" stroke="black" cx="139.93" cy="-18" rx="50.33" ry="18"/>
<text text-anchor="middle" x="139.93" y="-12.95" font-family="Times,serif" font-size="14.00">r2_node_5</text>
</g>
<!-- r2_node_1&#45;&gt;r2_node_5 -->
<g id="edge15" class="edge">
<title>r2_node_1&#45;&gt;r2_node_5</title>
<path fill="none" stroke="black" d="M288.97,-288.34C285.82,-277.93 283.48,-264.22 281.93,-252 271.87,-172.36 314.95,-136.33 266.93,-72 261.39,-64.57 217.73,-48.31 183.03,-35.75"/>
<polygon fill="black" stroke="black" points="184.62,-32.6 174.03,-32.5 182.25,-39.19 184.62,-32.6"/>
</g>
<!-- r2_node_16&#45;&gt;r2_node_8 -->
<g id="edge32" class="edge">
<title>r2_node_16&#45;&gt;r2_node_8</title>
<path fill="none" stroke="black" d="M696.16,-180.28C694.88,-187.86 692.65,-196.95 690.03,-205.43"/>
<polygon fill="black" stroke="black" points="686.81,-204.03 686.9,-214.62 693.44,-206.28 686.81,-204.03"/>
</g>
<!-- r2_node_4 -->
<g id="node20" class="node">
<title>r2_node_4</title>
<ellipse fill="none" stroke="black" cx="570.93" cy="-90" rx="50.33" ry="18"/>
<text text-anchor="middle" x="570.93" y="-84.95" font-family="Times,serif" font-size="14.00">r2_node_4</text>
</g>
<!-- r2_node_16&#45;&gt;r2_node_4 -->
<g id="edge33" class="edge">
<title>r2_node_16&#45;&gt;r2_node_4</title>
<path fill="none" stroke="black" d="M663.97,-146.67C645.14,-136.77 621.29,-123.43 602.38,-112.29"/>
<polygon fill="black" stroke="black" points="604.41,-109.42 594.03,-107.31 600.82,-115.44 604.41,-109.42"/>
</g>
<!-- r2_node_7&#45;&gt;r2_node_1 -->
<g id="edge42" class="edge">
<title>r2_node_7&#45;&gt;r2_node_1</title>
<path fill="none" stroke="black" d="M490.9,-100.85C526.43,-111.19 573.43,-128.13 583.93,-144 592.77,-157.34 591.54,-165.93 583.93,-180 540.64,-260.08 429.62,-289.03 359.82,-299.38"/>
<polygon fill="black" stroke="black" points="359.49,-295.89 350.06,-300.73 360.45,-302.82 359.49,-295.89"/>
</g>
<!-- r2_node_10&#45;&gt;r2_node_1 -->
<g id="edge25" class="edge">
<title>r2_node_10&#45;&gt;r2_node_1</title>
<path fill="none" stroke="black" d="M347.26,-252.29C341.44,-260.83 333.41,-271.27 325.57,-280.61"/>
<polygon fill="black" stroke="black" points="323.08,-278.13 319.17,-287.97 328.37,-282.72 323.08,-278.13"/>
</g>
<!-- r2_node_18 -->
<g id="node16" class="node">
<title>r2_node_18</title>
<ellipse fill="none" stroke="black" cx="392.93" cy="-162" rx="54.93" ry="18"/>
<text text-anchor="middle" x="392.93" y="-156.95" font-family="Times,serif" font-size="14.00">r2_node_18</text>
</g>
<!-- r2_node_10&#45;&gt;r2_node_18 -->
<g id="edge26" class="edge">
<title>r2_node_10&#45;&gt;r2_node_18</title>
<path fill="none" stroke="black" d="M358.41,-215.7C361.93,-207.7 366.97,-198.02 372.18,-189.15"/>
<polygon fill="black" stroke="black" points="375,-191.26 377.27,-180.91 369.04,-187.58 375,-191.26"/>
</g>
<!-- r2_node_12&#45;&gt;r2_node_19 -->
<g id="edge29" class="edge">
<title>r2_node_12&#45;&gt;r2_node_19</title>
<path fill="none" stroke="black" d="M192.02,-359.89C211.28,-318.07 259.5,-206.84 275.93,-108 279.32,-87.63 275.74,-64.55 271.48,-47"/>
<polygon fill="black" stroke="black" points="274.93,-46.32 268.97,-37.56 268.16,-48.12 274.93,-46.32"/>
</g>
<!-- r2_node_12&#45;&gt;r2_node_1 -->
<g id="edge28" class="edge">
<title>r2_node_12&#45;&gt;r2_node_1</title>
<path fill="none" stroke="black" d="M204.77,-360.94C220.5,-350.74 242.37,-337.48 261.22,-326.66"/>
<polygon fill="black" stroke="black" points="262.76,-329.81 269.73,-321.83 259.31,-323.72 262.76,-329.81"/>
</g>
<!-- r2_node_12&#45;&gt;r2_node_3 -->
<g id="edge27" class="edge">
<title>r2_node_12&#45;&gt;r2_node_3</title>
<path fill="none" stroke="black" d="M187.38,-396.28C187.09,-403.69 186.06,-412.54 184.59,-420.86"/>
<polygon fill="black" stroke="black" points="181.18,-420.07 182.54,-430.57 188.03,-421.51 181.18,-420.07"/>
</g>
<!-- r2_node_2&#45;&gt;r2_node_1 -->
<g id="edge24" class="edge">
<title>r2_node_2&#45;&gt;r2_node_1</title>
<path fill="none" stroke="black" d="M506.99,-180.2C491.4,-199.57 459.84,-231.06 427.93,-252 403.8,-267.83 374.16,-281.05 349.38,-290.33"/>
<polygon fill="black" stroke="black" points="348.37,-286.97 340.16,-293.67 350.75,-293.55 348.37,-286.97"/>
</g>
<!-- r2_node_5&#45;&gt;r2_node_1 -->
<g id="edge41" class="edge">
<title>r2_node_5&#45;&gt;r2_node_1</title>
<path fill="none" stroke="black" d="M178.77,-29.67C219.61,-42.47 278.44,-63.29 284.93,-72 332.95,-136.33 289.87,-172.36 299.93,-252 300.94,-259.99 302.3,-268.62 303.3,-276.55"/>
<polygon fill="black" stroke="black" points="299.8,-276.77 304.31,-286.36 306.77,-276.06 299.8,-276.77"/>
</g>
<!-- r2_node_9&#45;&gt;r2_node_19 -->
<g id="edge17" class="edge">
<title>r2_node_9&#45;&gt;r2_node_19</title>
<path fill="none" stroke="black" d="M351.89,-432.05C343.98,-412.63 335.18,-380.8 350.93,-360 377.7,-324.67 702.86,-282.59 734.93,-252 770.52,-218.07 786.09,-184.99 758.93,-144 736.28,-109.8 709.06,-129.2 673.93,-108 652.3,-94.94 653.06,-82.18 629.93,-72 577.01,-48.71 417.67,-32.01 327.31,-24.12"/>
<polygon fill="black" stroke="black" points="327.61,-20.63 317.34,-23.26 327.01,-27.61 327.61,-20.63"/>
</g>
<!-- r2_node_9&#45;&gt;r2_node_14 -->
<g id="edge16" class="edge">
<title>r2_node_9&#45;&gt;r2_node_14</title>
<path fill="none" stroke="black" d="M325.38,-463.4C288.47,-475.45 229.73,-493.76 187.19,-506.48"/>
<polygon fill="black" stroke="black" points="186.24,-503.12 177.65,-509.32 188.23,-509.82 186.24,-503.12"/>
</g>
<!-- r2_node_9&#45;&gt;r2_node_20 -->
<g id="edge18" class="edge">
<title>r2_node_9&#45;&gt;r2_node_20</title>
<path fill="none" stroke="black" d="M360.89,-431.55C362.96,-411.34 369.49,-378.48 389.93,-360 443.37,-311.71 478.59,-343.46 547.93,-324 596.45,-310.39 728.97,-289.22 762.93,-252 795.69,-216.11 803.39,-186.56 779.93,-144 747.44,-85.05 674.48,-50.99 624.23,-33.72"/>
<polygon fill="black" stroke="black" points="625.59,-30.48 615,-30.66 623.39,-37.13 625.59,-30.48"/>
</g>
<!-- r2_node_18&#45;&gt;r2_node_10 -->
<g id="edge20" class="edge">
<title>r2_node_18&#45;&gt;r2_node_10</title>
<path fill="none" stroke="black" d="M389.39,-180.45C385.91,-188.36 380.95,-197.88 375.81,-206.63"/>
<polygon fill="black" stroke="black" points="372.85,-204.77 370.57,-215.12 378.8,-208.45 372.85,-204.77"/>
</g>
<!-- r2_node_15 -->
<g id="node17" class="node">
<title>r2_node_15</title>
<ellipse fill="none" stroke="black" cx="389.93" cy="-594" rx="54.93" ry="18"/>
<text text-anchor="middle" x="389.93" y="-588.95" font-family="Times,serif" font-size="14.00">r2_node_15</text>
</g>
<!-- r2_node_15&#45;&gt;r2_node_20 -->
<g id="edge21" class="edge">
<title>r2_node_15&#45;&gt;r2_node_20</title>
<path fill="none" stroke="black" d="M440.5,-586.44C554.7,-568.55 831.12,-507.32 940.93,-324 982.05,-255.36 980.24,-215.3 943.93,-144 919.25,-95.52 894.82,-93.7 844.93,-72 777.52,-42.68 693.73,-29.49 636.88,-23.61"/>
<polygon fill="black" stroke="black" points="637.33,-20.14 627.04,-22.65 636.65,-27.11 637.33,-20.14"/>
</g>
<!-- r2_node_17&#45;&gt;r2_node_19 -->
<g id="edge22" class="edge">
<title>r2_node_17&#45;&gt;r2_node_19</title>
<path fill="none" stroke="black" d="M224.28,-72.05C230.23,-63.89 237.5,-53.91 244.12,-44.82"/>
<polygon fill="black" stroke="black" points="246.75,-47.16 249.81,-37.01 241.09,-43.03 246.75,-47.16"/>
</g>
<!-- r2_node_17&#45;&gt;r2_node_14 -->
<g id="edge23" class="edge">
<title>r2_node_17&#45;&gt;r2_node_14</title>
<path fill="none" stroke="black" d="M208.8,-108.19C195,-150.19 148.78,-261.79 128.93,-360 122.58,-391.44 125.05,-399.94 123.93,-432 123.38,-447.99 121.06,-452.26 123.93,-468 125.45,-476.32 128.21,-485.03 130.86,-492.93"/>
<polygon fill="black" stroke="black" points="127.52,-493.99 134.02,-502.35 134.15,-491.76 127.52,-493.99"/>
</g>
<!-- r2_node_3&#45;&gt;r2_node_14 -->
<g id="edge31" class="edge">
<title>r2_node_3&#45;&gt;r2_node_14</title>
<path fill="none" stroke="black" d="M170.14,-468.45C166.51,-476.44 161.34,-486.08 156.02,-494.92"/>
<polygon fill="black" stroke="black" points="153.21,-492.81 150.83,-503.13 159.13,-496.55 153.21,-492.81"/>
</g>
<!-- r2_node_3&#45;&gt;r2_node_12 -->
<g id="edge30" class="edge">
<title>r2_node_3&#45;&gt;r2_node_12</title>
<path fill="none" stroke="black" d="M170.49,-431.7C170.78,-424.32 171.8,-415.52 173.26,-407.25"/>
<polygon fill="black" stroke="black" points="176.66,-408.09 175.29,-397.59 169.81,-406.66 176.66,-408.09"/>
</g>
<!-- r2_node_4&#45;&gt;r2_node_19 -->
<g id="edge40" class="edge">
<title>r2_node_4&#45;&gt;r2_node_19</title>
<path fill="none" stroke="black" d="M532.32,-78.06C524.6,-75.97 516.52,-73.86 508.93,-72 444.56,-56.25 370.11,-40.56 320.12,-30.39"/>
<polygon fill="black" stroke="black" points="320.88,-26.97 310.38,-28.41 319.49,-33.83 320.88,-26.97"/>
</g>
<!-- r2_node_4&#45;&gt;r2_node_16 -->
<g id="edge39" class="edge">
<title>r2_node_4&#45;&gt;r2_node_16</title>
<path fill="none" stroke="black" d="M600.68,-104.7C619.44,-114.53 643.55,-127.98 662.74,-139.27"/>
<polygon fill="black" stroke="black" points="660.87,-142.23 671.26,-144.34 664.46,-136.22 660.87,-142.23"/>
</g>
</g>
</svg>
