<?xml version="1.0" encoding="UTF-8" standalone="no"?>
<!DOCTYPE svg PUBLIC "-//W3C//DTD SVG 1.1//EN"
 "http://www.w3.org/Graphics/SVG/1.1/DTD/svg11.dtd">
<!-- Generated by graphviz version 12.2.1 (20241206.2353)
 -->
<!-- Pages: 1 -->
<svg width="1058pt" height="476pt"
 viewBox="0.00 0.00 1058.46 476.00" xmlns="http://www.w3.org/2000/svg" xmlns:xlink="http://www.w3.org/1999/xlink">
<g id="graph0" class="graph" transform="scale(1 1) rotate(0) translate(4 472)">
<polygon fill="white" stroke="none" points="-4,4 -4,-472 1054.46,-472 1054.46,4 -4,4"/>
<!-- r1_node_3 -->
<g id="node1" class="node">
<title>r1_node_3</title>
<ellipse fill="none" stroke="black" cx="169.33" cy="-450" rx="50.33" ry="18"/>
<text text-anchor="middle" x="169.33" y="-444.95" font-family="Times,serif" font-size="14.00">r1_node_3</text>
</g>
<!-- r1_node_18 -->
<g id="node2" class="node">
<title>r1_node_18</title>
<ellipse fill="none" stroke="black" cx="514.33" cy="-18" rx="54.93" ry="18"/>
<text text-anchor="middle" x="514.33" y="-12.95" font-family="Times,serif" font-size="14.00">r1_node_18</text>
</g>
<!-- r1_node_3&#45;&gt;r1_node_18 -->
<g id="edge1" class="edge">
<title>r1_node_3&#45;&gt;r1_node_18</title>
<path fill="none" stroke="black" d="M194.5,-434.15C228.92,-412.96 291.19,-371.32 333.33,-324 354.51,-300.22 459.66,-115.69 499.23,-45.75"/>
<polygon fill="black" stroke="black" points="502.17,-47.67 504.04,-37.24 496.08,-44.22 502.17,-47.67"/>
</g>
<!-- r1_node_20 -->
<g id="node3" class="node">
<title>r1_node_20</title>
<ellipse fill="none" stroke="black" cx="698.33" cy="-18" rx="54.93" ry="18"/>
<text text-anchor="middle" x="698.33" y="-12.95" font-family="Times,serif" font-size="14.00">r1_node_20</text>
</g>
<!-- r1_node_3&#45;&gt;r1_node_20 -->
<g id="edge2" class="edge">
<title>r1_node_3&#45;&gt;r1_node_20</title>
<path fill="none" stroke="black" d="M206.18,-437.26C213.77,-435.21 221.75,-433.32 229.33,-432 527.35,-380.14 668.29,-516.87 901.33,-324 988.69,-251.7 1033.39,-138.22 941.33,-72 889.73,-34.88 817.13,-22.93 764.74,-19.47"/>
<polygon fill="black" stroke="black" points="765.24,-15.99 755.06,-18.92 764.85,-22.98 765.24,-15.99"/>
</g>
<!-- r1_node_4 -->
<g id="node4" class="node">
<title>r1_node_4</title>
<ellipse fill="none" stroke="black" cx="158.33" cy="-378" rx="50.33" ry="18"/>
<text text-anchor="middle" x="158.33" y="-372.95" font-family="Times,serif" font-size="14.00">r1_node_4</text>
</g>
<!-- r1_node_3&#45;&gt;r1_node_4 -->
<g id="edge3" class="edge">
<title>r1_node_3&#45;&gt;r1_node_4</title>
<path fill="none" stroke="black" d="M160.79,-432.05C158.85,-424.68 157.2,-415.84 156.16,-407.51"/>
<polygon fill="black" stroke="black" points="159.67,-407.42 155.27,-397.78 152.7,-408.06 159.67,-407.42"/>
</g>
<!-- r1_node_4&#45;&gt;r1_node_3 -->
<g id="edge18" class="edge">
<title>r1_node_4&#45;&gt;r1_node_3</title>
<path fill="none" stroke="black" d="M166.91,-396.1C168.81,-403.37 170.43,-412.04 171.46,-420.24"/>
<polygon fill="black" stroke="black" points="167.98,-420.56 172.38,-430.19 174.95,-419.91 167.98,-420.56"/>
</g>
<!-- r1_node_19 -->
<g id="node6" class="node">
<title>r1_node_19</title>
<ellipse fill="none" stroke="black" cx="361.33" cy="-18" rx="54.93" ry="18"/>
<text text-anchor="middle" x="361.33" y="-12.95" font-family="Times,serif" font-size="14.00">r1_node_19</text>
</g>
<!-- r1_node_4&#45;&gt;r1_node_19 -->
<g id="edge21" class="edge">
<title>r1_node_4&#45;&gt;r1_node_19</title>
<path fill="none" stroke="black" d="M207.05,-372.82C241.09,-367.24 284.84,-354.23 310.33,-324 345.43,-282.37 356.93,-115.18 360.19,-47.58"/>
<polygon fill="black" stroke="black" points="363.68,-47.82 360.63,-37.68 356.68,-47.51 363.68,-47.82"/>
</g>
<!-- r1_node_7 -->
<g id="node8" class="node">
<title>r1_node_7</title>
<ellipse fill="none" stroke="black" cx="515.33" cy="-306" rx="50.33" ry="18"/>
<text text-anchor="middle" x="515.33" y="-300.95" font-family="Times,serif" font-size="14.00">r1_node_7</text>
</g>
<!-- r1_node_4&#45;&gt;r1_node_7 -->
<g id="edge19" class="edge">
<title>r1_node_4&#45;&gt;r1_node_7</title>
<path fill="none" stroke="black" d="M200.62,-367.78C265.21,-354.6 388.19,-330.47 459.85,-316.92"/>
<polygon fill="black" stroke="black" points="460.23,-320.41 469.41,-315.12 458.93,-313.53 460.23,-320.41"/>
</g>
<!-- r1_node_11 -->
<g id="node17" class="node">
<title>r1_node_11</title>
<ellipse fill="none" stroke="black" cx="246.33" cy="-306" rx="54.93" ry="18"/>
<text text-anchor="middle" x="246.33" y="-300.95" font-family="Times,serif" font-size="14.00">r1_node_11</text>
</g>
<!-- r1_node_4&#45;&gt;r1_node_11 -->
<g id="edge20" class="edge">
<title>r1_node_4&#45;&gt;r1_node_11</title>
<path fill="none" stroke="black" d="M173.34,-360.41C184.13,-351.02 198.89,-339.15 212.37,-328.99"/>
<polygon fill="black" stroke="black" points="214.27,-331.94 220.22,-323.17 210.1,-326.31 214.27,-331.94"/>
</g>
<!-- r1_node_5 -->
<g id="node5" class="node">
<title>r1_node_5</title>
<ellipse fill="none" stroke="black" cx="50.33" cy="-450" rx="50.33" ry="18"/>
<text text-anchor="middle" x="50.33" y="-444.95" font-family="Times,serif" font-size="14.00">r1_node_5</text>
</g>
<!-- r1_node_5&#45;&gt;r1_node_19 -->
<g id="edge4" class="edge">
<title>r1_node_5&#45;&gt;r1_node_19</title>
<path fill="none" stroke="black" d="M56.01,-431.77C75.8,-374.05 146.84,-184.81 262.33,-72 277.48,-57.2 297.61,-45.41 315.76,-36.75"/>
<polygon fill="black" stroke="black" points="317.14,-39.97 324.79,-32.64 314.24,-33.6 317.14,-39.97"/>
</g>
<!-- r1_node_1 -->
<g id="node7" class="node">
<title>r1_node_1</title>
<ellipse fill="none" stroke="black" cx="407.33" cy="-450" rx="50.33" ry="18"/>
<text text-anchor="middle" x="407.33" y="-444.95" font-family="Times,serif" font-size="14.00">r1_node_1</text>
</g>
<!-- r1_node_7&#45;&gt;r1_node_18 -->
<g id="edge7" class="edge">
<title>r1_node_7&#45;&gt;r1_node_18</title>
<path fill="none" stroke="black" d="M503.73,-288.2C497.53,-278.18 490.53,-264.93 487.33,-252 469.34,-179.43 491.04,-91.11 504.75,-46.96"/>
<polygon fill="black" stroke="black" points="508.01,-48.25 507.74,-37.66 501.35,-46.11 508.01,-48.25"/>
</g>
<!-- r1_node_7&#45;&gt;r1_node_4 -->
<g id="edge8" class="edge">
<title>r1_node_7&#45;&gt;r1_node_4</title>
<path fill="none" stroke="black" d="M473.09,-316.21C408.49,-329.39 285.41,-353.54 213.73,-367.09"/>
<polygon fill="black" stroke="black" points="213.36,-363.6 204.18,-368.89 214.65,-370.48 213.36,-363.6"/>
</g>
<!-- r1_node_10 -->
<g id="node9" class="node">
<title>r1_node_10</title>
<ellipse fill="none" stroke="black" cx="551.33" cy="-234" rx="54.93" ry="18"/>
<text text-anchor="middle" x="551.33" y="-228.95" font-family="Times,serif" font-size="14.00">r1_node_10</text>
</g>
<!-- r1_node_7&#45;&gt;r1_node_10 -->
<g id="edge5" class="edge">
<title>r1_node_7&#45;&gt;r1_node_10</title>
<path fill="none" stroke="black" d="M518.31,-287.7C521.57,-279.78 526.26,-270.23 531.16,-261.44"/>
<polygon fill="black" stroke="black" points="534.12,-263.32 536.17,-252.93 528.08,-259.77 534.12,-263.32"/>
</g>
<!-- r1_node_9 -->
<g id="node10" class="node">
<title>r1_node_9</title>
<ellipse fill="none" stroke="black" cx="762.33" cy="-162" rx="50.33" ry="18"/>
<text text-anchor="middle" x="762.33" y="-156.95" font-family="Times,serif" font-size="14.00">r1_node_9</text>
</g>
<!-- r1_node_7&#45;&gt;r1_node_9 -->
<g id="edge6" class="edge">
<title>r1_node_7&#45;&gt;r1_node_9</title>
<path fill="none" stroke="black" d="M537.67,-289.67C556.31,-279.32 583.08,-265.18 606.33,-252 646.72,-229.09 692.34,-201.14 723.92,-182.74"/>
<polygon fill="black" stroke="black" points="725.43,-185.91 732.34,-177.88 721.93,-179.85 725.43,-185.91"/>
</g>
<!-- r1_node_8 -->
<g id="node11" class="node">
<title>r1_node_8</title>
<ellipse fill="none" stroke="black" cx="794.33" cy="-234" rx="50.33" ry="18"/>
<text text-anchor="middle" x="794.33" y="-228.95" font-family="Times,serif" font-size="14.00">r1_node_8</text>
</g>
<!-- r1_node_7&#45;&gt;r1_node_8 -->
<g id="edge9" class="edge">
<title>r1_node_7&#45;&gt;r1_node_8</title>
<path fill="none" stroke="black" d="M553.86,-294.06C602.71,-281.26 686.9,-260.12 741.64,-246.91"/>
<polygon fill="black" stroke="black" points="742.14,-250.39 751.05,-244.65 740.51,-243.58 742.14,-250.39"/>
</g>
<!-- r1_node_10&#45;&gt;r1_node_19 -->
<g id="edge34" class="edge">
<title>r1_node_10&#45;&gt;r1_node_19</title>
<path fill="none" stroke="black" d="M536.42,-216.21C503.19,-178.78 422.9,-88.35 383.66,-44.16"/>
<polygon fill="black" stroke="black" points="386.43,-42 377.17,-36.85 381.19,-46.65 386.43,-42"/>
</g>
<!-- r1_node_10&#45;&gt;r1_node_7 -->
<g id="edge32" class="edge">
<title>r1_node_10&#45;&gt;r1_node_7</title>
<path fill="none" stroke="black" d="M548.29,-252.45C545.02,-260.36 540.34,-269.88 535.45,-278.63"/>
<polygon fill="black" stroke="black" points="532.52,-276.71 530.47,-287.11 538.55,-280.26 532.52,-276.71"/>
</g>
<!-- r1_node_13 -->
<g id="node16" class="node">
<title>r1_node_13</title>
<ellipse fill="none" stroke="black" cx="569.33" cy="-162" rx="54.93" ry="18"/>
<text text-anchor="middle" x="569.33" y="-156.95" font-family="Times,serif" font-size="14.00">r1_node_13</text>
</g>
<!-- r1_node_10&#45;&gt;r1_node_13 -->
<g id="edge33" class="edge">
<title>r1_node_10&#45;&gt;r1_node_13</title>
<path fill="none" stroke="black" d="M549.86,-215.7C551.01,-208.24 553.07,-199.32 555.51,-190.97"/>
<polygon fill="black" stroke="black" points="558.81,-192.14 558.57,-181.54 552.15,-189.97 558.81,-192.14"/>
</g>
<!-- r1_node_9&#45;&gt;r1_node_20 -->
<g id="edge31" class="edge">
<title>r1_node_9&#45;&gt;r1_node_20</title>
<path fill="none" stroke="black" d="M756.98,-143.91C751.06,-125.72 740.82,-96.28 729.33,-72 725.11,-63.1 719.9,-53.71 714.96,-45.36"/>
<polygon fill="black" stroke="black" points="718.12,-43.81 709.94,-37.07 712.13,-47.44 718.12,-43.81"/>
</g>
<!-- r1_node_9&#45;&gt;r1_node_7 -->
<g id="edge30" class="edge">
<title>r1_node_9&#45;&gt;r1_node_7</title>
<path fill="none" stroke="black" d="M743.6,-178.88C717.02,-197.04 667.67,-227.42 624.33,-252 602.93,-264.13 578.55,-277.07 558.17,-287.13"/>
<polygon fill="black" stroke="black" points="556.74,-283.93 549.27,-291.45 559.79,-290.23 556.74,-283.93"/>
</g>
<!-- r1_node_9&#45;&gt;r1_node_8 -->
<g id="edge29" class="edge">
<title>r1_node_9&#45;&gt;r1_node_8</title>
<path fill="none" stroke="black" d="M775.77,-179.62C780.1,-187.27 784.6,-196.55 788.25,-205.22"/>
<polygon fill="black" stroke="black" points="784.89,-206.24 791.78,-214.29 791.41,-203.7 784.89,-206.24"/>
</g>
<!-- r1_node_8&#45;&gt;r1_node_20 -->
<g id="edge35" class="edge">
<title>r1_node_8&#45;&gt;r1_node_20</title>
<path fill="none" stroke="black" d="M806.17,-216.27C817.46,-198.14 831.36,-168.51 821.33,-144 803.32,-100.02 761.54,-63.19 731.67,-41.15"/>
<polygon fill="black" stroke="black" points="733.83,-38.4 723.67,-35.41 729.75,-44.08 733.83,-38.4"/>
</g>
<!-- r1_node_8&#45;&gt;r1_node_7 -->
<g id="edge36" class="edge">
<title>r1_node_8&#45;&gt;r1_node_7</title>
<path fill="none" stroke="black" d="M755.76,-245.95C706.9,-258.76 622.74,-279.89 568.01,-293.09"/>
<polygon fill="black" stroke="black" points="567.51,-289.61 558.61,-295.35 569.15,-296.42 567.51,-289.61"/>
</g>
<!-- r1_node_8&#45;&gt;r1_node_9 -->
<g id="edge37" class="edge">
<title>r1_node_8&#45;&gt;r1_node_9</title>
<path fill="none" stroke="black" d="M780.9,-216.41C776.59,-208.79 772.1,-199.55 768.46,-190.9"/>
<polygon fill="black" stroke="black" points="771.82,-189.9 764.92,-181.86 765.3,-192.44 771.82,-189.9"/>
</g>
<!-- r1_node_17 -->
<g id="node14" class="node">
<title>r1_node_17</title>
<ellipse fill="none" stroke="black" cx="877.33" cy="-90" rx="54.93" ry="18"/>
<text text-anchor="middle" x="877.33" y="-84.95" font-family="Times,serif" font-size="14.00">r1_node_17</text>
</g>
<!-- r1_node_8&#45;&gt;r1_node_17 -->
<g id="edge38" class="edge">
<title>r1_node_8&#45;&gt;r1_node_17</title>
<path fill="none" stroke="black" d="M817.65,-217.65C830.26,-208.21 845.1,-195.05 854.33,-180 865.62,-161.59 871.4,-137.76 874.34,-119.4"/>
<polygon fill="black" stroke="black" points="877.78,-120.12 875.69,-109.73 870.84,-119.16 877.78,-120.12"/>
</g>
<!-- r1_node_2 -->
<g id="node12" class="node">
<title>r1_node_2</title>
<ellipse fill="none" stroke="black" cx="288.33" cy="-450" rx="50.33" ry="18"/>
<text text-anchor="middle" x="288.33" y="-444.95" font-family="Times,serif" font-size="14.00">r1_node_2</text>
</g>
<!-- r1_node_2&#45;&gt;r1_node_20 -->
<g id="edge10" class="edge">
<title>r1_node_2&#45;&gt;r1_node_20</title>
<path fill="none" stroke="black" d="M325.18,-437.27C332.77,-435.22 340.76,-433.32 348.33,-432 461.12,-412.29 757.51,-442.08 862.33,-396 944.33,-359.96 950.85,-324.59 1003.33,-252 1024.9,-222.16 1034.9,-215.6 1044.33,-180 1057.24,-131.22 1049.69,-102.28 1009.33,-72 971.48,-43.61 843.09,-29.4 763.59,-23.16"/>
<polygon fill="black" stroke="black" points="763.98,-19.68 753.74,-22.41 763.45,-26.66 763.98,-19.68"/>
</g>
<!-- r1_node_16 -->
<g id="node13" class="node">
<title>r1_node_16</title>
<ellipse fill="none" stroke="black" cx="507.33" cy="-378" rx="54.93" ry="18"/>
<text text-anchor="middle" x="507.33" y="-372.95" font-family="Times,serif" font-size="14.00">r1_node_16</text>
</g>
<!-- r1_node_2&#45;&gt;r1_node_16 -->
<g id="edge11" class="edge">
<title>r1_node_2&#45;&gt;r1_node_16</title>
<path fill="none" stroke="black" d="M322.16,-436.49C357.89,-424.49 414.43,-406.38 455.7,-393.71"/>
<polygon fill="black" stroke="black" points="456.65,-397.08 465.19,-390.81 454.61,-390.38 456.65,-397.08"/>
</g>
<!-- r1_node_16&#45;&gt;r1_node_18 -->
<g id="edge12" class="edge">
<title>r1_node_16&#45;&gt;r1_node_18</title>
<path fill="none" stroke="black" d="M531.23,-361.53C544.95,-351.86 561.86,-338.51 574.33,-324 614.68,-277.02 730.38,-121.62 693.33,-72 678.86,-52.63 620.46,-37.83 574.24,-28.86"/>
<polygon fill="black" stroke="black" points="575.05,-25.45 564.58,-27.04 573.76,-32.33 575.05,-25.45"/>
</g>
<!-- r1_node_16&#45;&gt;r1_node_2 -->
<g id="edge13" class="edge">
<title>r1_node_16&#45;&gt;r1_node_2</title>
<path fill="none" stroke="black" d="M471.86,-392.06C435.45,-404.26 378.71,-422.41 337.9,-434.93"/>
<polygon fill="black" stroke="black" points="337.1,-431.51 328.55,-437.77 339.14,-438.21 337.1,-431.51"/>
</g>
<!-- r1_node_16&#45;&gt;r1_node_17 -->
<g id="edge14" class="edge">
<title>r1_node_16&#45;&gt;r1_node_17</title>
<path fill="none" stroke="black" d="M541.26,-363.44C567.94,-352.77 606.03,-337.5 639.33,-324 678.49,-308.13 687.4,-301.83 727.33,-288 782.36,-268.95 811.77,-292.81 853.33,-252 888.38,-217.58 886.89,-155.66 882.33,-119.46"/>
<polygon fill="black" stroke="black" points="885.82,-119.15 880.93,-109.75 878.89,-120.15 885.82,-119.15"/>
</g>
<!-- r1_node_14 -->
<g id="node15" class="node">
<title>r1_node_14</title>
<ellipse fill="none" stroke="black" cx="629.33" cy="-90" rx="54.93" ry="18"/>
<text text-anchor="middle" x="629.33" y="-84.95" font-family="Times,serif" font-size="14.00">r1_node_14</text>
</g>
<!-- r1_node_14&#45;&gt;r1_node_18 -->
<g id="edge15" class="edge">
<title>r1_node_14&#45;&gt;r1_node_18</title>
<path fill="none" stroke="black" d="M604.09,-73.64C587.91,-63.79 566.7,-50.88 548.95,-40.08"/>
<polygon fill="black" stroke="black" points="551.16,-37.32 540.8,-35.11 547.52,-43.3 551.16,-37.32"/>
</g>
<!-- r1_node_14&#45;&gt;r1_node_19 -->
<g id="edge16" class="edge">
<title>r1_node_14&#45;&gt;r1_node_19</title>
<path fill="none" stroke="black" d="M587.45,-78.06C540.78,-65.87 465.21,-46.13 414.42,-32.87"/>
<polygon fill="black" stroke="black" points="415.37,-29.5 404.81,-30.36 413.61,-36.27 415.37,-29.5"/>
</g>
<!-- r1_node_14&#45;&gt;r1_node_13 -->
<g id="edge17" class="edge">
<title>r1_node_14&#45;&gt;r1_node_13</title>
<path fill="none" stroke="black" d="M620.55,-108.12C614.11,-116.67 605.31,-127.17 596.75,-136.55"/>
<polygon fill="black" stroke="black" points="594.37,-133.97 590.08,-143.66 599.48,-138.76 594.37,-133.97"/>
</g>
<!-- r1_node_13&#45;&gt;r1_node_10 -->
<g id="edge40" class="edge">
<title>r1_node_13&#45;&gt;r1_node_10</title>
<path fill="none" stroke="black" d="M570.8,-180.28C569.65,-187.77 567.57,-196.75 565.11,-205.15"/>
<polygon fill="black" stroke="black" points="561.8,-204.02 562.03,-214.62 568.45,-206.19 561.8,-204.02"/>
</g>
<!-- r1_node_13&#45;&gt;r1_node_17 -->
<g id="edge42" class="edge">
<title>r1_node_13&#45;&gt;r1_node_17</title>
<path fill="none" stroke="black" d="M613.46,-150.97C668.38,-138.49 762.22,-117.16 821.93,-103.59"/>
<polygon fill="black" stroke="black" points="822.58,-107.03 831.56,-101.4 821.03,-100.21 822.58,-107.03"/>
</g>
<!-- r1_node_13&#45;&gt;r1_node_14 -->
<g id="edge41" class="edge">
<title>r1_node_13&#45;&gt;r1_node_14</title>
<path fill="none" stroke="black" d="M577.97,-144.05C584.49,-135.38 593.48,-124.67 602.18,-115.15"/>
<polygon fill="black" stroke="black" points="604.66,-117.61 608.97,-107.93 599.57,-112.82 604.66,-117.61"/>
</g>
<!-- r1_node_11&#45;&gt;r1_node_18 -->
<g id="edge27" class="edge">
<title>r1_node_11&#45;&gt;r1_node_18</title>
<path fill="none" stroke="black" d="M254.48,-287.89C275.11,-246.12 333.2,-137.56 409.33,-72 426.56,-57.16 448.67,-45.2 468.16,-36.42"/>
<polygon fill="black" stroke="black" points="469.49,-39.66 477.27,-32.48 466.71,-33.24 469.49,-39.66"/>
</g>
<!-- r1_node_11&#45;&gt;r1_node_4 -->
<g id="edge26" class="edge">
<title>r1_node_11&#45;&gt;r1_node_4</title>
<path fill="none" stroke="black" d="M231.37,-323.54C220.45,-333.06 205.42,-345.13 191.78,-355.39"/>
<polygon fill="black" stroke="black" points="189.81,-352.5 183.84,-361.26 193.97,-358.13 189.81,-352.5"/>
</g>
<!-- r1_node_11&#45;&gt;r1_node_19 -->
<g id="edge28" class="edge">
<title>r1_node_11&#45;&gt;r1_node_19</title>
<path fill="none" stroke="black" d="M244.65,-287.6C241.58,-246.54 238.98,-141.85 283.33,-72 292.16,-58.1 306.09,-46.94 319.75,-38.51"/>
<polygon fill="black" stroke="black" points="321.34,-41.64 328.26,-33.61 317.85,-35.57 321.34,-41.64"/>
</g>
<!-- r1_node_6 -->
<g id="node20" class="node">
<title>r1_node_6</title>
<ellipse fill="none" stroke="black" cx="217.33" cy="-18" rx="50.33" ry="18"/>
<text text-anchor="middle" x="217.33" y="-12.95" font-family="Times,serif" font-size="14.00">r1_node_6</text>
</g>
<!-- r1_node_11&#45;&gt;r1_node_6 -->
<g id="edge25" class="edge">
<title>r1_node_11&#45;&gt;r1_node_6</title>
<path fill="none" stroke="black" d="M235.61,-287.87C218.65,-249.46 190.71,-153.47 198.33,-72 199.11,-63.64 200.57,-54.62 202.53,-46.45"/>
<polygon fill="black" stroke="black" points="205.83,-47.63 205.19,-37.05 199.1,-45.72 205.83,-47.63"/>
</g>
<!-- r1_node_15 -->
<g id="node18" class="node">
<title>r1_node_15</title>
<ellipse fill="none" stroke="black" cx="690.33" cy="-378" rx="54.93" ry="18"/>
<text text-anchor="middle" x="690.33" y="-372.95" font-family="Times,serif" font-size="14.00">r1_node_15</text>
</g>
<!-- r1_node_15&#45;&gt;r1_node_19 -->
<g id="edge23" class="edge">
<title>r1_node_15&#45;&gt;r1_node_19</title>
<path fill="none" stroke="black" d="M642.46,-368.79C578.06,-357.35 469.96,-336.6 456.33,-324 414.92,-285.75 379.37,-115.91 366.48,-47.6"/>
<polygon fill="black" stroke="black" points="369.96,-47.12 364.69,-37.93 363.07,-48.4 369.96,-47.12"/>
</g>
<!-- r1_node_15&#45;&gt;r1_node_17 -->
<g id="edge24" class="edge">
<title>r1_node_15&#45;&gt;r1_node_17</title>
<path fill="none" stroke="black" d="M701.84,-360.09C716.3,-340.1 742.93,-307.13 773.33,-288 818.65,-259.47 846.45,-285.39 888.33,-252 928.6,-219.9 950.04,-191.58 930.33,-144 925.65,-132.7 917.26,-122.56 908.52,-114.24"/>
<polygon fill="black" stroke="black" points="911.09,-111.84 901.28,-107.85 906.46,-117.09 911.09,-111.84"/>
</g>
<!-- r1_node_12 -->
<g id="node19" class="node">
<title>r1_node_12</title>
<ellipse fill="none" stroke="black" cx="837.33" cy="-306" rx="54.93" ry="18"/>
<text text-anchor="middle" x="837.33" y="-300.95" font-family="Times,serif" font-size="14.00">r1_node_12</text>
</g>
<!-- r1_node_15&#45;&gt;r1_node_12 -->
<g id="edge22" class="edge">
<title>r1_node_15&#45;&gt;r1_node_12</title>
<path fill="none" stroke="black" d="M716.55,-361.81C737.84,-351.04 768.18,-336.55 793.17,-325.17"/>
<polygon fill="black" stroke="black" points="794.46,-328.43 802.13,-321.13 791.58,-322.05 794.46,-328.43"/>
</g>
<!-- r1_node_12&#45;&gt;r1_node_17 -->
<g id="edge43" class="edge">
<title>r1_node_12&#45;&gt;r1_node_17</title>
<path fill="none" stroke="black" d="M869.68,-291.11C888.18,-281.99 910.91,-268.66 927.33,-252 953.18,-225.77 958.9,-215.6 968.33,-180 972.42,-164.53 976.3,-157.87 968.33,-144 958.97,-127.72 942.48,-115.98 926.08,-107.75"/>
<polygon fill="black" stroke="black" points="927.87,-104.72 917.32,-103.7 924.93,-111.07 927.87,-104.72"/>
</g>
<!-- r1_node_12&#45;&gt;r1_node_15 -->
<g id="edge44" class="edge">
<title>r1_node_12&#45;&gt;r1_node_15</title>
<path fill="none" stroke="black" d="M811.17,-322.16C789.87,-332.93 759.5,-347.44 734.48,-358.83"/>
<polygon fill="black" stroke="black" points="733.18,-355.58 725.51,-362.88 736.06,-361.96 733.18,-355.58"/>
</g>
<!-- r1_node_6&#45;&gt;r1_node_11 -->
<g id="edge39" class="edge">
<title>r1_node_6&#45;&gt;r1_node_11</title>
<path fill="none" stroke="black" d="M221.09,-36.07C220.02,-46.4 217.46,-59.88 216.33,-72 209.38,-146.28 232,-232.64 242.44,-276.41"/>
<polygon fill="black" stroke="black" points="239.02,-277.15 244.69,-286.1 245.84,-275.57 239.02,-277.15"/>
</g>
</g>
</svg>
