<?xml version="1.0" encoding="UTF-8" standalone="no"?>
<!DOCTYPE svg PUBLIC "-//W3C//DTD SVG 1.1//EN"
 "http://www.w3.org/Graphics/SVG/1.1/DTD/svg11.dtd">
<!-- Generated by graphviz version 12.2.1 (20241206.2353)
 -->
<!-- Pages: 1 -->
<svg width="393pt" height="620pt"
 viewBox="0.00 0.00 392.50 620.00" xmlns="http://www.w3.org/2000/svg" xmlns:xlink="http://www.w3.org/1999/xlink">
<g id="graph0" class="graph" transform="scale(1 1) rotate(0) translate(4 616)">
<polygon fill="white" stroke="none" points="-4,4 -4,-616 388.5,-616 388.5,4 -4,4"/>
<!-- r4_node_11 -->
<g id="node1" class="node">
<title>r4_node_11</title>
<ellipse fill="none" stroke="black" cx="129.93" cy="-594" rx="54.93" ry="18"/>
<text text-anchor="middle" x="129.93" y="-588.95" font-family="Times,serif" font-size="14.00">r4_node_11</text>
</g>
<!-- r4_node_4 -->
<g id="node2" class="node">
<title>r4_node_4</title>
<ellipse fill="none" stroke="black" cx="86.93" cy="-522" rx="50.33" ry="18"/>
<text text-anchor="middle" x="86.93" y="-516.95" font-family="Times,serif" font-size="14.00">r4_node_4</text>
</g>
<!-- r4_node_11&#45;&gt;r4_node_4 -->
<g id="edge1" class="edge">
<title>r4_node_11&#45;&gt;r4_node_4</title>
<path fill="none" stroke="black" d="M113.9,-576.41C108.19,-568.51 102.01,-558.85 96.89,-549.94"/>
<polygon fill="black" stroke="black" points="100.04,-548.4 92.19,-541.29 93.89,-551.74 100.04,-548.4"/>
</g>
<!-- r4_node_2 -->
<g id="node3" class="node">
<title>r4_node_2</title>
<ellipse fill="none" stroke="black" cx="149.93" cy="-378" rx="50.33" ry="18"/>
<text text-anchor="middle" x="149.93" y="-372.95" font-family="Times,serif" font-size="14.00">r4_node_2</text>
</g>
<!-- r4_node_11&#45;&gt;r4_node_2 -->
<g id="edge2" class="edge">
<title>r4_node_11&#45;&gt;r4_node_2</title>
<path fill="none" stroke="black" d="M136.54,-575.93C149.98,-552.86 177.44,-509.79 187.93,-468 191.83,-452.48 193.61,-446.96 187.93,-432 184.07,-421.81 177.24,-412.32 170.35,-404.27"/>
<polygon fill="black" stroke="black" points="173.01,-402 163.7,-396.95 167.83,-406.71 173.01,-402"/>
</g>
<!-- r4_node_17 -->
<g id="node4" class="node">
<title>r4_node_17</title>
<ellipse fill="none" stroke="black" cx="298.93" cy="-90" rx="54.93" ry="18"/>
<text text-anchor="middle" x="298.93" y="-84.95" font-family="Times,serif" font-size="14.00">r4_node_17</text>
</g>
<!-- r4_node_11&#45;&gt;r4_node_17 -->
<g id="edge3" class="edge">
<title>r4_node_11&#45;&gt;r4_node_17</title>
<path fill="none" stroke="black" d="M147.35,-576.5C159.92,-566.88 176.43,-553.92 188.93,-540 264.44,-455.97 281.35,-429.04 322.93,-324 352.76,-248.66 385.84,-217.6 351.93,-144 346.59,-132.4 337.32,-122.4 327.94,-114.3"/>
<polygon fill="black" stroke="black" points="330.21,-111.64 320.22,-108.09 325.82,-117.09 330.21,-111.64"/>
</g>
<!-- r4_node_4&#45;&gt;r4_node_11 -->
<g id="edge7" class="edge">
<title>r4_node_4&#45;&gt;r4_node_11</title>
<path fill="none" stroke="black" d="M102.64,-539.14C108.36,-547.01 114.57,-556.68 119.73,-565.64"/>
<polygon fill="black" stroke="black" points="116.63,-567.27 124.5,-574.37 122.78,-563.91 116.63,-567.27"/>
</g>
<!-- r4_node_19 -->
<g id="node6" class="node">
<title>r4_node_19</title>
<ellipse fill="none" stroke="black" cx="54.93" cy="-18" rx="54.93" ry="18"/>
<text text-anchor="middle" x="54.93" y="-12.95" font-family="Times,serif" font-size="14.00">r4_node_19</text>
</g>
<!-- r4_node_4&#45;&gt;r4_node_19 -->
<g id="edge8" class="edge">
<title>r4_node_4&#45;&gt;r4_node_19</title>
<path fill="none" stroke="black" d="M82.38,-503.79C68.79,-450.53 30.04,-283.59 38.93,-144 41.05,-110.79 46.3,-72.91 50.21,-47.64"/>
<polygon fill="black" stroke="black" points="53.66,-48.24 51.77,-37.82 46.75,-47.15 53.66,-48.24"/>
</g>
<!-- r4_node_9 -->
<g id="node7" class="node">
<title>r4_node_9</title>
<ellipse fill="none" stroke="black" cx="137.93" cy="-450" rx="50.33" ry="18"/>
<text text-anchor="middle" x="137.93" y="-444.95" font-family="Times,serif" font-size="14.00">r4_node_9</text>
</g>
<!-- r4_node_4&#45;&gt;r4_node_9 -->
<g id="edge6" class="edge">
<title>r4_node_4&#45;&gt;r4_node_9</title>
<path fill="none" stroke="black" d="M93.63,-503.7C98.87,-495.32 106.12,-485.1 113.3,-475.9"/>
<polygon fill="black" stroke="black" points="115.86,-478.3 119.43,-468.32 110.42,-473.9 115.86,-478.3"/>
</g>
<!-- r4_node_2&#45;&gt;r4_node_11 -->
<g id="edge22" class="edge">
<title>r4_node_2&#45;&gt;r4_node_11</title>
<path fill="none" stroke="black" d="M176.31,-393.8C188.04,-403.41 200.22,-416.94 205.93,-432 211.61,-446.96 209.83,-452.48 205.93,-468 196.56,-505.32 173.67,-543.65 155.21,-567.85"/>
<polygon fill="black" stroke="black" points="152.58,-565.53 149.08,-575.53 158.05,-569.9 152.58,-565.53"/>
</g>
<!-- r4_node_1 -->
<g id="node5" class="node">
<title>r4_node_1</title>
<ellipse fill="none" stroke="black" cx="153.93" cy="-306" rx="50.33" ry="18"/>
<text text-anchor="middle" x="153.93" y="-300.95" font-family="Times,serif" font-size="14.00">r4_node_1</text>
</g>
<!-- r4_node_2&#45;&gt;r4_node_1 -->
<g id="edge24" class="edge">
<title>r4_node_2&#45;&gt;r4_node_1</title>
<path fill="none" stroke="black" d="M145.01,-359.7C144.67,-352.32 144.93,-343.52 145.68,-335.25"/>
<polygon fill="black" stroke="black" points="149.12,-335.96 146.88,-325.61 142.17,-335.1 149.12,-335.96"/>
</g>
<!-- r4_node_2&#45;&gt;r4_node_9 -->
<g id="edge25" class="edge">
<title>r4_node_2&#45;&gt;r4_node_9</title>
<path fill="none" stroke="black" d="M152.89,-396.28C152.38,-403.69 151.1,-412.54 149.39,-420.86"/>
<polygon fill="black" stroke="black" points="145.99,-420.04 147.07,-430.58 152.8,-421.67 145.99,-420.04"/>
</g>
<!-- r4_node_8 -->
<g id="node11" class="node">
<title>r4_node_8</title>
<ellipse fill="none" stroke="black" cx="272.93" cy="-306" rx="50.33" ry="18"/>
<text text-anchor="middle" x="272.93" y="-300.95" font-family="Times,serif" font-size="14.00">r4_node_8</text>
</g>
<!-- r4_node_2&#45;&gt;r4_node_8 -->
<g id="edge23" class="edge">
<title>r4_node_2&#45;&gt;r4_node_8</title>
<path fill="none" stroke="black" d="M171.51,-361.46C188.56,-351.06 212.64,-337.29 233.11,-326.2"/>
<polygon fill="black" stroke="black" points="234.63,-329.35 241.79,-321.55 231.32,-323.18 234.63,-329.35"/>
</g>
<!-- r4_node_17&#45;&gt;r4_node_11 -->
<g id="edge10" class="edge">
<title>r4_node_17&#45;&gt;r4_node_11</title>
<path fill="none" stroke="black" d="M331.43,-104.73C346.36,-113.87 362.23,-127.28 369.93,-144 403.84,-217.6 370.76,-248.66 340.93,-324 299.35,-429.04 282.44,-455.97 206.93,-540 196.15,-552.01 182.38,-563.3 169.39,-572.35"/>
<polygon fill="black" stroke="black" points="167.76,-569.23 161.38,-577.69 171.64,-575.06 167.76,-569.23"/>
</g>
<!-- r4_node_7 -->
<g id="node8" class="node">
<title>r4_node_7</title>
<ellipse fill="none" stroke="black" cx="301.93" cy="-162" rx="50.33" ry="18"/>
<text text-anchor="middle" x="301.93" y="-156.95" font-family="Times,serif" font-size="14.00">r4_node_7</text>
</g>
<!-- r4_node_17&#45;&gt;r4_node_7 -->
<g id="edge9" class="edge">
<title>r4_node_17&#45;&gt;r4_node_7</title>
<path fill="none" stroke="black" d="M305.56,-108.1C306.63,-115.37 307.26,-124.04 307.36,-132.24"/>
<polygon fill="black" stroke="black" points="303.86,-132.11 307.14,-142.18 310.86,-132.26 303.86,-132.11"/>
</g>
<!-- r4_node_3 -->
<g id="node9" class="node">
<title>r4_node_3</title>
<ellipse fill="none" stroke="black" cx="237.93" cy="-18" rx="50.33" ry="18"/>
<text text-anchor="middle" x="237.93" y="-12.95" font-family="Times,serif" font-size="14.00">r4_node_3</text>
</g>
<!-- r4_node_17&#45;&gt;r4_node_3 -->
<g id="edge11" class="edge">
<title>r4_node_17&#45;&gt;r4_node_3</title>
<path fill="none" stroke="black" d="M284.48,-72.41C277.11,-63.95 267.99,-53.49 259.79,-44.08"/>
<polygon fill="black" stroke="black" points="262.49,-41.85 253.28,-36.61 257.21,-46.45 262.49,-41.85"/>
</g>
<!-- r4_node_1&#45;&gt;r4_node_2 -->
<g id="edge4" class="edge">
<title>r4_node_1&#45;&gt;r4_node_2</title>
<path fill="none" stroke="black" d="M158.85,-324.1C159.2,-331.45 158.95,-340.24 158.21,-348.53"/>
<polygon fill="black" stroke="black" points="154.76,-347.84 157.02,-358.19 161.71,-348.69 154.76,-347.84"/>
</g>
<!-- r4_node_1&#45;&gt;r4_node_19 -->
<g id="edge5" class="edge">
<title>r4_node_1&#45;&gt;r4_node_19</title>
<path fill="none" stroke="black" d="M161.19,-288.11C173.27,-257.19 193.66,-190.42 166.93,-144 151.04,-116.39 127.3,-130.69 104.93,-108 87.56,-90.38 74.27,-65.51 65.77,-46.54"/>
<polygon fill="black" stroke="black" points="69.07,-45.36 61.92,-37.54 62.64,-48.11 69.07,-45.36"/>
</g>
<!-- r4_node_9&#45;&gt;r4_node_4 -->
<g id="edge18" class="edge">
<title>r4_node_9&#45;&gt;r4_node_4</title>
<path fill="none" stroke="black" d="M131.36,-468.12C126.13,-476.5 118.87,-486.74 111.67,-495.98"/>
<polygon fill="black" stroke="black" points="109.08,-493.61 105.51,-503.59 114.52,-498.01 109.08,-493.61"/>
</g>
<!-- r4_node_9&#45;&gt;r4_node_2 -->
<g id="edge17" class="edge">
<title>r4_node_9&#45;&gt;r4_node_2</title>
<path fill="none" stroke="black" d="M134.98,-431.7C135.49,-424.32 136.76,-415.52 138.45,-407.25"/>
<polygon fill="black" stroke="black" points="141.85,-408.12 140.76,-397.58 135.04,-406.49 141.85,-408.12"/>
</g>
<!-- r4_node_18 -->
<g id="node13" class="node">
<title>r4_node_18</title>
<ellipse fill="none" stroke="black" cx="102.93" cy="-162" rx="54.93" ry="18"/>
<text text-anchor="middle" x="102.93" y="-156.95" font-family="Times,serif" font-size="14.00">r4_node_18</text>
</g>
<!-- r4_node_9&#45;&gt;r4_node_18 -->
<g id="edge19" class="edge">
<title>r4_node_9&#45;&gt;r4_node_18</title>
<path fill="none" stroke="black" d="M118.14,-433.09C107.9,-423.55 96.43,-410.49 90.93,-396 64.48,-326.3 82.27,-236.39 94.36,-191.35"/>
<polygon fill="black" stroke="black" points="97.69,-192.43 97.02,-181.86 90.95,-190.54 97.69,-192.43"/>
</g>
<!-- r4_node_7&#45;&gt;r4_node_17 -->
<g id="edge21" class="edge">
<title>r4_node_7&#45;&gt;r4_node_17</title>
<path fill="none" stroke="black" d="M295.28,-143.7C294.21,-136.41 293.6,-127.73 293.51,-119.54"/>
<polygon fill="black" stroke="black" points="297.01,-119.69 293.74,-109.62 290.01,-119.53 297.01,-119.69"/>
</g>
<!-- r4_node_16 -->
<g id="node12" class="node">
<title>r4_node_16</title>
<ellipse fill="none" stroke="black" cx="264.93" cy="-234" rx="54.93" ry="18"/>
<text text-anchor="middle" x="264.93" y="-228.95" font-family="Times,serif" font-size="14.00">r4_node_16</text>
</g>
<!-- r4_node_7&#45;&gt;r4_node_16 -->
<g id="edge20" class="edge">
<title>r4_node_7&#45;&gt;r4_node_16</title>
<path fill="none" stroke="black" d="M298.64,-180.45C295.27,-188.36 290.45,-197.88 285.44,-206.63"/>
<polygon fill="black" stroke="black" points="282.49,-204.74 280.32,-215.11 288.48,-208.36 282.49,-204.74"/>
</g>
<!-- r4_node_15 -->
<g id="node10" class="node">
<title>r4_node_15</title>
<ellipse fill="none" stroke="black" cx="168.93" cy="-90" rx="54.93" ry="18"/>
<text text-anchor="middle" x="168.93" y="-84.95" font-family="Times,serif" font-size="14.00">r4_node_15</text>
</g>
<!-- r4_node_8&#45;&gt;r4_node_2 -->
<g id="edge12" class="edge">
<title>r4_node_8&#45;&gt;r4_node_2</title>
<path fill="none" stroke="black" d="M251.4,-322.51C234.35,-332.92 210.25,-346.7 189.76,-357.8"/>
<polygon fill="black" stroke="black" points="188.24,-354.65 181.07,-362.46 191.54,-360.82 188.24,-354.65"/>
</g>
<!-- r4_node_8&#45;&gt;r4_node_15 -->
<g id="edge14" class="edge">
<title>r4_node_8&#45;&gt;r4_node_15</title>
<path fill="none" stroke="black" d="M242.98,-291.35C227.42,-282.52 209.84,-269.41 200.93,-252 179.08,-209.26 212.7,-190.27 199.93,-144 197.38,-134.75 192.79,-125.46 187.91,-117.29"/>
<polygon fill="black" stroke="black" points="190.88,-115.43 182.53,-108.91 184.99,-119.21 190.88,-115.43"/>
</g>
<!-- r4_node_8&#45;&gt;r4_node_16 -->
<g id="edge13" class="edge">
<title>r4_node_8&#45;&gt;r4_node_16</title>
<path fill="none" stroke="black" d="M265.12,-288.05C263.49,-280.68 262.23,-271.84 261.55,-263.51"/>
<polygon fill="black" stroke="black" points="265.06,-263.6 261.07,-253.79 258.06,-263.95 265.06,-263.6"/>
</g>
<!-- r4_node_16&#45;&gt;r4_node_7 -->
<g id="edge15" class="edge">
<title>r4_node_16&#45;&gt;r4_node_7</title>
<path fill="none" stroke="black" d="M268.16,-215.7C271.53,-207.78 276.36,-198.23 281.39,-189.44"/>
<polygon fill="black" stroke="black" points="284.36,-191.29 286.52,-180.92 278.37,-187.68 284.36,-191.29"/>
</g>
<!-- r4_node_16&#45;&gt;r4_node_8 -->
<g id="edge16" class="edge">
<title>r4_node_16&#45;&gt;r4_node_8</title>
<path fill="none" stroke="black" d="M272.78,-252.1C274.38,-259.37 275.62,-268.04 276.3,-276.24"/>
<polygon fill="black" stroke="black" points="272.8,-276.37 276.8,-286.18 279.79,-276.02 272.8,-276.37"/>
</g>
</g>
</svg>
