<?xml version="1.0" encoding="UTF-8" standalone="no"?>
<!DOCTYPE svg PUBLIC "-//W3C//DTD SVG 1.1//EN"
 "http://www.w3.org/Graphics/SVG/1.1/DTD/svg11.dtd">
<!-- Generated by graphviz version 12.2.1 (20241206.2353)
 -->
<!-- Pages: 1 -->
<svg width="536pt" height="404pt"
 viewBox="0.00 0.00 535.69 404.00" xmlns="http://www.w3.org/2000/svg" xmlns:xlink="http://www.w3.org/1999/xlink">
<g id="graph0" class="graph" transform="scale(1 1) rotate(0) translate(4 400)">
<polygon fill="white" stroke="none" points="-4,4 -4,-400 531.69,-400 531.69,4 -4,4"/>
<!-- r4_node_3 -->
<g id="node1" class="node">
<title>r4_node_3</title>
<ellipse fill="none" stroke="black" cx="50.33" cy="-90" rx="50.33" ry="18"/>
<text text-anchor="middle" x="50.33" y="-84.95" font-family="Times,serif" font-size="14.00">r4_node_3</text>
</g>
<!-- r4_node_2 -->
<g id="node2" class="node">
<title>r4_node_2</title>
<ellipse fill="none" stroke="black" cx="140.33" cy="-234" rx="50.33" ry="18"/>
<text text-anchor="middle" x="140.33" y="-228.95" font-family="Times,serif" font-size="14.00">r4_node_2</text>
</g>
<!-- r4_node_9 -->
<g id="node3" class="node">
<title>r4_node_9</title>
<ellipse fill="none" stroke="black" cx="230.33" cy="-90" rx="50.33" ry="18"/>
<text text-anchor="middle" x="230.33" y="-84.95" font-family="Times,serif" font-size="14.00">r4_node_9</text>
</g>
<!-- r4_node_2&#45;&gt;r4_node_9 -->
<g id="edge1" class="edge">
<title>r4_node_2&#45;&gt;r4_node_9</title>
<path fill="none" stroke="black" d="M140.49,-215.58C141.43,-196.58 145.26,-165.95 159.33,-144 167.73,-130.89 180.58,-119.87 193.06,-111.32"/>
<polygon fill="black" stroke="black" points="194.66,-114.46 201.17,-106.1 190.87,-108.57 194.66,-114.46"/>
</g>
<!-- r4_node_11 -->
<g id="node4" class="node">
<title>r4_node_11</title>
<ellipse fill="none" stroke="black" cx="221.33" cy="-306" rx="54.93" ry="18"/>
<text text-anchor="middle" x="221.33" y="-300.95" font-family="Times,serif" font-size="14.00">r4_node_11</text>
</g>
<!-- r4_node_2&#45;&gt;r4_node_11 -->
<g id="edge2" class="edge">
<title>r4_node_2&#45;&gt;r4_node_11</title>
<path fill="none" stroke="black" d="M163.69,-250.27C175.05,-259.16 188.51,-270.57 199.63,-280.67"/>
<polygon fill="black" stroke="black" points="197.15,-283.14 206.86,-287.38 201.92,-278.01 197.15,-283.14"/>
</g>
<!-- r4_node_1 -->
<g id="node5" class="node">
<title>r4_node_1</title>
<ellipse fill="none" stroke="black" cx="160.33" cy="-18" rx="50.33" ry="18"/>
<text text-anchor="middle" x="160.33" y="-12.95" font-family="Times,serif" font-size="14.00">r4_node_1</text>
</g>
<!-- r4_node_2&#45;&gt;r4_node_1 -->
<g id="edge3" class="edge">
<title>r4_node_2&#45;&gt;r4_node_1</title>
<path fill="none" stroke="black" d="M139.81,-215.57C139.44,-197.61 139.31,-168.8 141.33,-144 144.03,-110.72 150.23,-72.86 154.82,-47.61"/>
<polygon fill="black" stroke="black" points="158.25,-48.26 156.64,-37.79 151.37,-46.98 158.25,-48.26"/>
</g>
<!-- r4_node_11&#45;&gt;r4_node_2 -->
<g id="edge17" class="edge">
<title>r4_node_11&#45;&gt;r4_node_2</title>
<path fill="none" stroke="black" d="M197.63,-289.46C186.36,-280.63 173.08,-269.37 162.07,-259.38"/>
<polygon fill="black" stroke="black" points="164.63,-256.98 154.92,-252.74 159.87,-262.11 164.63,-256.98"/>
</g>
<!-- r4_node_4 -->
<g id="node6" class="node">
<title>r4_node_4</title>
<ellipse fill="none" stroke="black" cx="287.33" cy="-234" rx="50.33" ry="18"/>
<text text-anchor="middle" x="287.33" y="-228.95" font-family="Times,serif" font-size="14.00">r4_node_4</text>
</g>
<!-- r4_node_11&#45;&gt;r4_node_4 -->
<g id="edge16" class="edge">
<title>r4_node_11&#45;&gt;r4_node_4</title>
<path fill="none" stroke="black" d="M231.43,-288.05C238.76,-279.29 248.79,-268.45 258.4,-258.86"/>
<polygon fill="black" stroke="black" points="260.84,-261.37 265.56,-251.88 255.96,-256.35 260.84,-261.37"/>
</g>
<!-- r4_node_8 -->
<g id="node10" class="node">
<title>r4_node_8</title>
<ellipse fill="none" stroke="black" cx="423.33" cy="-234" rx="50.33" ry="18"/>
<text text-anchor="middle" x="423.33" y="-228.95" font-family="Times,serif" font-size="14.00">r4_node_8</text>
</g>
<!-- r4_node_11&#45;&gt;r4_node_8 -->
<g id="edge18" class="edge">
<title>r4_node_11&#45;&gt;r4_node_8</title>
<path fill="none" stroke="black" d="M254.82,-291.5C287.69,-279.53 337.98,-262.09 375.13,-249.75"/>
<polygon fill="black" stroke="black" points="375.88,-253.19 384.28,-246.74 373.68,-246.54 375.88,-253.19"/>
</g>
<!-- r4_node_17 -->
<g id="node12" class="node">
<title>r4_node_17</title>
<ellipse fill="none" stroke="black" cx="114.33" cy="-378" rx="54.93" ry="18"/>
<text text-anchor="middle" x="114.33" y="-372.95" font-family="Times,serif" font-size="14.00">r4_node_17</text>
</g>
<!-- r4_node_11&#45;&gt;r4_node_17 -->
<g id="edge15" class="edge">
<title>r4_node_11&#45;&gt;r4_node_17</title>
<path fill="none" stroke="black" d="M202.23,-323.29C188.32,-333.11 169.21,-345.71 152.3,-356.23"/>
<polygon fill="black" stroke="black" points="150.64,-353.15 143.95,-361.36 154.3,-359.11 150.64,-353.15"/>
</g>
<!-- r4_node_4&#45;&gt;r4_node_9 -->
<g id="edge4" class="edge">
<title>r4_node_4&#45;&gt;r4_node_9</title>
<path fill="none" stroke="black" d="M291.25,-215.78C294.6,-197.22 297.45,-167.23 287.33,-144 282.16,-132.14 272.89,-121.75 263.31,-113.37"/>
<polygon fill="black" stroke="black" points="265.68,-110.79 255.71,-107.22 261.28,-116.23 265.68,-110.79"/>
</g>
<!-- r4_node_4&#45;&gt;r4_node_11 -->
<g id="edge6" class="edge">
<title>r4_node_4&#45;&gt;r4_node_11</title>
<path fill="none" stroke="black" d="M277.35,-251.8C269.96,-260.65 259.77,-271.65 250.05,-281.35"/>
<polygon fill="black" stroke="black" points="247.88,-278.58 243.15,-288.06 252.76,-283.6 247.88,-278.58"/>
</g>
<!-- r4_node_19 -->
<g id="node7" class="node">
<title>r4_node_19</title>
<ellipse fill="none" stroke="black" cx="223.33" cy="-162" rx="54.93" ry="18"/>
<text text-anchor="middle" x="223.33" y="-156.95" font-family="Times,serif" font-size="14.00">r4_node_19</text>
</g>
<!-- r4_node_4&#45;&gt;r4_node_19 -->
<g id="edge5" class="edge">
<title>r4_node_4&#45;&gt;r4_node_19</title>
<path fill="none" stroke="black" d="M272.16,-216.41C264.35,-207.87 254.67,-197.28 245.99,-187.79"/>
<polygon fill="black" stroke="black" points="248.74,-185.61 239.41,-180.59 243.57,-190.33 248.74,-185.61"/>
</g>
<!-- r4_node_16 -->
<g id="node8" class="node">
<title>r4_node_16</title>
<ellipse fill="none" stroke="black" cx="441.33" cy="-162" rx="54.93" ry="18"/>
<text text-anchor="middle" x="441.33" y="-156.95" font-family="Times,serif" font-size="14.00">r4_node_16</text>
</g>
<!-- r4_node_7 -->
<g id="node9" class="node">
<title>r4_node_7</title>
<ellipse fill="none" stroke="black" cx="395.33" cy="-90" rx="50.33" ry="18"/>
<text text-anchor="middle" x="395.33" y="-84.95" font-family="Times,serif" font-size="14.00">r4_node_7</text>
</g>
<!-- r4_node_16&#45;&gt;r4_node_7 -->
<g id="edge7" class="edge">
<title>r4_node_16&#45;&gt;r4_node_7</title>
<path fill="none" stroke="black" d="M424.59,-144.41C418.46,-136.42 411.79,-126.64 406.26,-117.64"/>
<polygon fill="black" stroke="black" points="409.43,-116.13 401.36,-109.26 403.39,-119.66 409.43,-116.13"/>
</g>
<!-- r4_node_16&#45;&gt;r4_node_8 -->
<g id="edge8" class="edge">
<title>r4_node_16&#45;&gt;r4_node_8</title>
<path fill="none" stroke="black" d="M442.8,-180.28C441.65,-187.77 439.57,-196.75 437.11,-205.15"/>
<polygon fill="black" stroke="black" points="433.8,-204.02 434.03,-214.62 440.45,-206.19 433.8,-204.02"/>
</g>
<!-- r4_node_7&#45;&gt;r4_node_1 -->
<g id="edge9" class="edge">
<title>r4_node_7&#45;&gt;r4_node_1</title>
<path fill="none" stroke="black" d="M357.57,-77.75C317.14,-65.71 252.87,-46.57 208.75,-33.42"/>
<polygon fill="black" stroke="black" points="210.02,-30.15 199.44,-30.65 208.03,-36.86 210.02,-30.15"/>
</g>
<!-- r4_node_7&#45;&gt;r4_node_16 -->
<g id="edge10" class="edge">
<title>r4_node_7&#45;&gt;r4_node_16</title>
<path fill="none" stroke="black" d="M411.73,-107.14C417.85,-115.09 424.55,-124.89 430.14,-133.94"/>
<polygon fill="black" stroke="black" points="427.02,-135.54 435.11,-142.39 433.06,-132 427.02,-135.54"/>
</g>
<!-- r4_node_7&#45;&gt;r4_node_17 -->
<g id="edge11" class="edge">
<title>r4_node_7&#45;&gt;r4_node_17</title>
<path fill="none" stroke="black" d="M440.42,-98.3C467.12,-105.37 498.54,-118.87 514.33,-144 540.43,-185.56 525.31,-216.59 491.33,-252 408.56,-338.25 264.1,-364.99 180,-373.28"/>
<polygon fill="black" stroke="black" points="179.69,-369.79 170.05,-374.19 180.33,-376.76 179.69,-369.79"/>
</g>
<!-- r4_node_8&#45;&gt;r4_node_11 -->
<g id="edge21" class="edge">
<title>r4_node_8&#45;&gt;r4_node_11</title>
<path fill="none" stroke="black" d="M390.86,-248.13C358.58,-259.9 308.81,-277.18 271.47,-289.6"/>
<polygon fill="black" stroke="black" points="270.64,-286.19 262.25,-292.65 272.84,-292.83 270.64,-286.19"/>
</g>
<!-- r4_node_8&#45;&gt;r4_node_16 -->
<g id="edge19" class="edge">
<title>r4_node_8&#45;&gt;r4_node_16</title>
<path fill="none" stroke="black" d="M421.86,-215.7C423.01,-208.24 425.07,-199.32 427.51,-190.97"/>
<polygon fill="black" stroke="black" points="430.81,-192.14 430.57,-181.54 424.15,-189.97 430.81,-192.14"/>
</g>
<!-- r4_node_15 -->
<g id="node11" class="node">
<title>r4_node_15</title>
<ellipse fill="none" stroke="black" cx="291.33" cy="-18" rx="54.93" ry="18"/>
<text text-anchor="middle" x="291.33" y="-12.95" font-family="Times,serif" font-size="14.00">r4_node_15</text>
</g>
<!-- r4_node_8&#45;&gt;r4_node_15 -->
<g id="edge20" class="edge">
<title>r4_node_8&#45;&gt;r4_node_15</title>
<path fill="none" stroke="black" d="M407.52,-216.51C398.2,-206.39 386.48,-192.93 377.33,-180 346.23,-136.09 318.55,-79.59 303.43,-46.53"/>
<polygon fill="black" stroke="black" points="306.73,-45.32 299.43,-37.65 300.35,-48.2 306.73,-45.32"/>
</g>
<!-- r4_node_17&#45;&gt;r4_node_3 -->
<g id="edge13" class="edge">
<title>r4_node_17&#45;&gt;r4_node_3</title>
<path fill="none" stroke="black" d="M109.36,-359.7C102.55,-335.66 90.16,-290.73 81.33,-252 70.78,-205.74 60.82,-151.45 55.16,-119.21"/>
<polygon fill="black" stroke="black" points="58.63,-118.74 53.47,-109.49 51.74,-119.94 58.63,-118.74"/>
</g>
<!-- r4_node_17&#45;&gt;r4_node_11 -->
<g id="edge14" class="edge">
<title>r4_node_17&#45;&gt;r4_node_11</title>
<path fill="none" stroke="black" d="M133.34,-360.76C147.31,-350.91 166.55,-338.23 183.53,-327.66"/>
<polygon fill="black" stroke="black" points="185.23,-330.72 191.92,-322.51 181.57,-324.76 185.23,-330.72"/>
</g>
<!-- r4_node_17&#45;&gt;r4_node_7 -->
<g id="edge12" class="edge">
<title>r4_node_17&#45;&gt;r4_node_7</title>
<path fill="none" stroke="black" d="M167.85,-373.29C245.96,-365.01 390.52,-338.29 473.33,-252 507.31,-216.59 522.43,-185.56 496.33,-144 484.77,-125.6 464.83,-113.44 445.65,-105.47"/>
<polygon fill="black" stroke="black" points="447.14,-102.29 436.54,-102 444.64,-108.83 447.14,-102.29"/>
</g>
</g>
</svg>
