<?xml version="1.0" encoding="UTF-8" standalone="no"?>
<!DOCTYPE svg PUBLIC "-//W3C//DTD SVG 1.1//EN"
 "http://www.w3.org/Graphics/SVG/1.1/DTD/svg11.dtd">
<!-- Generated by graphviz version 12.2.1 (20241206.2353)
 -->
<!-- Pages: 1 -->
<svg width="379pt" height="188pt"
 viewBox="0.00 0.00 378.66 188.00" xmlns="http://www.w3.org/2000/svg" xmlns:xlink="http://www.w3.org/1999/xlink">
<g id="graph0" class="graph" transform="scale(1 1) rotate(0) translate(4 184)">
<polygon fill="white" stroke="none" points="-4,4 -4,-184 374.66,-184 374.66,4 -4,4"/>
<!-- r4_node_3 -->
<g id="node1" class="node">
<title>r4_node_3</title>
<ellipse fill="none" stroke="black" cx="296.33" cy="-18" rx="50.33" ry="18"/>
<text text-anchor="middle" x="296.33" y="-12.95" font-family="Times,serif" font-size="14.00">r4_node_3</text>
</g>
<!-- r4_node_1 -->
<g id="node2" class="node">
<title>r4_node_1</title>
<ellipse fill="none" stroke="black" cx="320.33" cy="-90" rx="50.33" ry="18"/>
<text text-anchor="middle" x="320.33" y="-84.95" font-family="Times,serif" font-size="14.00">r4_node_1</text>
</g>
<!-- r4_node_4 -->
<g id="node3" class="node">
<title>r4_node_4</title>
<ellipse fill="none" stroke="black" cx="111.33" cy="-90" rx="50.33" ry="18"/>
<text text-anchor="middle" x="111.33" y="-84.95" font-family="Times,serif" font-size="14.00">r4_node_4</text>
</g>
<!-- r4_node_9 -->
<g id="node4" class="node">
<title>r4_node_9</title>
<ellipse fill="none" stroke="black" cx="50.33" cy="-18" rx="50.33" ry="18"/>
<text text-anchor="middle" x="50.33" y="-12.95" font-family="Times,serif" font-size="14.00">r4_node_9</text>
</g>
<!-- r4_node_4&#45;&gt;r4_node_9 -->
<g id="edge1" class="edge">
<title>r4_node_4&#45;&gt;r4_node_9</title>
<path fill="none" stroke="black" d="M96.87,-72.41C89.5,-63.95 80.39,-53.49 72.18,-44.08"/>
<polygon fill="black" stroke="black" points="74.88,-41.85 65.67,-36.61 69.61,-46.45 74.88,-41.85"/>
</g>
<!-- r4_node_11 -->
<g id="node5" class="node">
<title>r4_node_11</title>
<ellipse fill="none" stroke="black" cx="173.33" cy="-18" rx="54.93" ry="18"/>
<text text-anchor="middle" x="173.33" y="-12.95" font-family="Times,serif" font-size="14.00">r4_node_11</text>
</g>
<!-- r4_node_4&#45;&gt;r4_node_11 -->
<g id="edge2" class="edge">
<title>r4_node_4&#45;&gt;r4_node_11</title>
<path fill="none" stroke="black" d="M126.02,-72.41C133.51,-63.95 142.78,-53.49 151.12,-44.08"/>
<polygon fill="black" stroke="black" points="153.73,-46.41 157.74,-36.6 148.49,-41.77 153.73,-46.41"/>
</g>
<!-- r4_node_19 -->
<g id="node6" class="node">
<title>r4_node_19</title>
<ellipse fill="none" stroke="black" cx="150.33" cy="-162" rx="54.93" ry="18"/>
<text text-anchor="middle" x="150.33" y="-156.95" font-family="Times,serif" font-size="14.00">r4_node_19</text>
</g>
<!-- r4_node_4&#45;&gt;r4_node_19 -->
<g id="edge3" class="edge">
<title>r4_node_4&#45;&gt;r4_node_19</title>
<path fill="none" stroke="black" d="M126.43,-107.62C131.58,-115.36 137.08,-124.76 141.62,-133.51"/>
<polygon fill="black" stroke="black" points="138.4,-134.89 145.94,-142.34 144.69,-131.82 138.4,-134.89"/>
</g>
<!-- r4_node_19&#45;&gt;r4_node_3 -->
<g id="edge4" class="edge">
<title>r4_node_19&#45;&gt;r4_node_3</title>
<path fill="none" stroke="black" d="M167.36,-144.43C193.1,-119.4 242.05,-71.79 271.68,-42.97"/>
<polygon fill="black" stroke="black" points="274.04,-45.56 278.77,-36.08 269.16,-40.54 274.04,-45.56"/>
</g>
<!-- r4_node_19&#45;&gt;r4_node_1 -->
<g id="edge5" class="edge">
<title>r4_node_19&#45;&gt;r4_node_1</title>
<path fill="none" stroke="black" d="M183.51,-147.34C210.45,-136.25 248.61,-120.53 277.79,-108.52"/>
<polygon fill="black" stroke="black" points="278.78,-111.89 286.7,-104.85 276.12,-105.42 278.78,-111.89"/>
</g>
<!-- r4_node_19&#45;&gt;r4_node_4 -->
<g id="edge6" class="edge">
<title>r4_node_19&#45;&gt;r4_node_4</title>
<path fill="none" stroke="black" d="M135.25,-144.41C130.11,-136.71 124.64,-127.34 120.1,-118.62"/>
<polygon fill="black" stroke="black" points="123.33,-117.25 115.78,-109.81 117.04,-120.33 123.33,-117.25"/>
</g>
</g>
</svg>
