<?xml version="1.0" encoding="UTF-8" standalone="no"?>
<!DOCTYPE svg PUBLIC "-//W3C//DTD SVG 1.1//EN"
 "http://www.w3.org/Graphics/SVG/1.1/DTD/svg11.dtd">
<!-- Generated by graphviz version 12.2.1 (20241206.2353)
 -->
<!-- Pages: 1 -->
<svg width="502pt" height="116pt"
 viewBox="0.00 0.00 501.87 116.00" xmlns="http://www.w3.org/2000/svg" xmlns:xlink="http://www.w3.org/1999/xlink">
<g id="graph0" class="graph" transform="scale(1 1) rotate(0) translate(4 112)">
<polygon fill="white" stroke="none" points="-4,4 -4,-112 497.87,-112 497.87,4 -4,4"/>
<!-- r3_node_17 -->
<g id="node1" class="node">
<title>r3_node_17</title>
<ellipse fill="none" stroke="black" cx="54.93" cy="-18" rx="54.93" ry="18"/>
<text text-anchor="middle" x="54.93" y="-12.95" font-family="Times,serif" font-size="14.00">r3_node_17</text>
</g>
<!-- r3_node_25 -->
<g id="node2" class="node">
<title>r3_node_25</title>
<ellipse fill="none" stroke="black" cx="182.93" cy="-18" rx="54.93" ry="18"/>
<text text-anchor="middle" x="182.93" y="-12.95" font-family="Times,serif" font-size="14.00">r3_node_25</text>
</g>
<!-- r3_node_30 -->
<g id="node3" class="node">
<title>r3_node_30</title>
<ellipse fill="none" stroke="black" cx="310.93" cy="-18" rx="54.93" ry="18"/>
<text text-anchor="middle" x="310.93" y="-12.95" font-family="Times,serif" font-size="14.00">r3_node_30</text>
</g>
<!-- r3_node_16 -->
<g id="node4" class="node">
<title>r3_node_16</title>
<ellipse fill="none" stroke="black" cx="118.93" cy="-90" rx="54.93" ry="18"/>
<text text-anchor="middle" x="118.93" y="-84.95" font-family="Times,serif" font-size="14.00">r3_node_16</text>
</g>
<!-- r3_node_16&#45;&gt;r3_node_17 -->
<g id="edge2" class="edge">
<title>r3_node_16&#45;&gt;r3_node_17</title>
<path fill="none" stroke="black" d="M103.77,-72.41C95.96,-63.87 86.27,-53.28 77.6,-43.79"/>
<polygon fill="black" stroke="black" points="80.34,-41.61 71.01,-36.59 75.18,-46.33 80.34,-41.61"/>
</g>
<!-- r3_node_16&#45;&gt;r3_node_25 -->
<g id="edge3" class="edge">
<title>r3_node_16&#45;&gt;r3_node_25</title>
<path fill="none" stroke="black" d="M134.1,-72.41C141.91,-63.87 151.59,-53.28 160.27,-43.79"/>
<polygon fill="black" stroke="black" points="162.69,-46.33 166.85,-36.59 157.52,-41.61 162.69,-46.33"/>
</g>
<!-- r3_node_16&#45;&gt;r3_node_30 -->
<g id="edge4" class="edge">
<title>r3_node_16&#45;&gt;r3_node_30</title>
<path fill="none" stroke="black" d="M154.6,-76C185.62,-64.69 230.77,-48.23 264.59,-35.9"/>
<polygon fill="black" stroke="black" points="265.52,-39.28 273.71,-32.57 263.12,-32.71 265.52,-39.28"/>
</g>
<!-- r3_node_13 -->
<g id="node5" class="node">
<title>r3_node_13</title>
<ellipse fill="none" stroke="black" cx="438.93" cy="-18" rx="54.93" ry="18"/>
<text text-anchor="middle" x="438.93" y="-12.95" font-family="Times,serif" font-size="14.00">r3_node_13</text>
</g>
<!-- r3_node_16&#45;&gt;r3_node_13 -->
<g id="edge1" class="edge">
<title>r3_node_16&#45;&gt;r3_node_13</title>
<path fill="none" stroke="black" d="M165.35,-80.19C216.77,-70.25 302.05,-53.21 374.93,-36 378.74,-35.1 382.67,-34.14 386.61,-33.15"/>
<polygon fill="black" stroke="black" points="387.42,-36.56 396.24,-30.69 385.68,-29.78 387.42,-36.56"/>
</g>
</g>
</svg>
