<?xml version="1.0" encoding="UTF-8" standalone="no"?>
<!DOCTYPE svg PUBLIC "-//W3C//DTD SVG 1.1//EN"
 "http://www.w3.org/Graphics/SVG/1.1/DTD/svg11.dtd">
<!-- Generated by graphviz version 12.2.1 (20241206.2353)
 -->
<!-- Pages: 1 -->
<svg width="533pt" height="404pt"
 viewBox="0.00 0.00 533.26 404.00" xmlns="http://www.w3.org/2000/svg" xmlns:xlink="http://www.w3.org/1999/xlink">
<g id="graph0" class="graph" transform="scale(1 1) rotate(0) translate(4 400)">
<polygon fill="white" stroke="none" points="-4,4 -4,-400 529.26,-400 529.26,4 -4,4"/>
<!-- r4_node_3 -->
<g id="node1" class="node">
<title>r4_node_3</title>
<ellipse fill="none" stroke="black" cx="50.33" cy="-18" rx="50.33" ry="18"/>
<text text-anchor="middle" x="50.33" y="-12.95" font-family="Times,serif" font-size="14.00">r4_node_3</text>
</g>
<!-- r4_node_8 -->
<g id="node2" class="node">
<title>r4_node_8</title>
<ellipse fill="none" stroke="black" cx="132.33" cy="-306" rx="50.33" ry="18"/>
<text text-anchor="middle" x="132.33" y="-300.95" font-family="Times,serif" font-size="14.00">r4_node_8</text>
</g>
<!-- r4_node_16 -->
<g id="node3" class="node">
<title>r4_node_16</title>
<ellipse fill="none" stroke="black" cx="140.33" cy="-234" rx="54.93" ry="18"/>
<text text-anchor="middle" x="140.33" y="-228.95" font-family="Times,serif" font-size="14.00">r4_node_16</text>
</g>
<!-- r4_node_8&#45;&gt;r4_node_16 -->
<g id="edge1" class="edge">
<title>r4_node_8&#45;&gt;r4_node_16</title>
<path fill="none" stroke="black" d="M128.39,-287.7C128.47,-280.32 129.24,-271.52 130.46,-263.25"/>
<polygon fill="black" stroke="black" points="133.87,-264.06 132.21,-253.59 126.98,-262.81 133.87,-264.06"/>
</g>
<!-- r4_node_2 -->
<g id="node4" class="node">
<title>r4_node_2</title>
<ellipse fill="none" stroke="black" cx="248.33" cy="-162" rx="50.33" ry="18"/>
<text text-anchor="middle" x="248.33" y="-156.95" font-family="Times,serif" font-size="14.00">r4_node_2</text>
</g>
<!-- r4_node_8&#45;&gt;r4_node_2 -->
<g id="edge2" class="edge">
<title>r4_node_8&#45;&gt;r4_node_2</title>
<path fill="none" stroke="black" d="M152.18,-289.02C165.68,-279.64 182.96,-266.75 195.33,-252 210.79,-233.56 222.47,-208.77 231.36,-190.03"/>
<polygon fill="black" stroke="black" points="234.44,-191.69 235.62,-181.16 228.14,-188.66 234.44,-191.69"/>
</g>
<!-- r4_node_15 -->
<g id="node5" class="node">
<title>r4_node_15</title>
<ellipse fill="none" stroke="black" cx="92.33" cy="-378" rx="54.93" ry="18"/>
<text text-anchor="middle" x="92.33" y="-372.95" font-family="Times,serif" font-size="14.00">r4_node_15</text>
</g>
<!-- r4_node_8&#45;&gt;r4_node_15 -->
<g id="edge3" class="edge">
<title>r4_node_8&#45;&gt;r4_node_15</title>
<path fill="none" stroke="black" d="M128.52,-323.96C124.77,-332 119.4,-341.79 113.88,-350.77"/>
<polygon fill="black" stroke="black" points="110.95,-348.84 108.47,-359.14 116.83,-352.64 110.95,-348.84"/>
</g>
<!-- r4_node_11 -->
<g id="node6" class="node">
<title>r4_node_11</title>
<ellipse fill="none" stroke="black" cx="342.33" cy="-234" rx="54.93" ry="18"/>
<text text-anchor="middle" x="342.33" y="-228.95" font-family="Times,serif" font-size="14.00">r4_node_11</text>
</g>
<!-- r4_node_8&#45;&gt;r4_node_11 -->
<g id="edge4" class="edge">
<title>r4_node_8&#45;&gt;r4_node_11</title>
<path fill="none" stroke="black" d="M165.48,-292.16C199.38,-280.28 252.28,-262.61 291.46,-250.07"/>
<polygon fill="black" stroke="black" points="292.46,-253.42 300.93,-247.05 290.34,-246.75 292.46,-253.42"/>
</g>
<!-- r4_node_16&#45;&gt;r4_node_8 -->
<g id="edge14" class="edge">
<title>r4_node_16&#45;&gt;r4_node_8</title>
<path fill="none" stroke="black" d="M144.27,-252.28C144.19,-259.69 143.41,-268.54 142.18,-276.86"/>
<polygon fill="black" stroke="black" points="138.76,-276.1 140.41,-286.57 145.65,-277.35 138.76,-276.1"/>
</g>
<!-- r4_node_7 -->
<g id="node11" class="node">
<title>r4_node_7</title>
<ellipse fill="none" stroke="black" cx="125.33" cy="-162" rx="50.33" ry="18"/>
<text text-anchor="middle" x="125.33" y="-156.95" font-family="Times,serif" font-size="14.00">r4_node_7</text>
</g>
<!-- r4_node_16&#45;&gt;r4_node_7 -->
<g id="edge13" class="edge">
<title>r4_node_16&#45;&gt;r4_node_7</title>
<path fill="none" stroke="black" d="M130.82,-216.05C128.46,-208.68 126.31,-199.84 124.79,-191.51"/>
<polygon fill="black" stroke="black" points="128.28,-191.15 123.34,-181.77 121.35,-192.18 128.28,-191.15"/>
</g>
<!-- r4_node_2&#45;&gt;r4_node_8 -->
<g id="edge19" class="edge">
<title>r4_node_2&#45;&gt;r4_node_8</title>
<path fill="none" stroke="black" d="M249.12,-180.48C244.6,-199.53 231.6,-230.21 213.33,-252 202.31,-265.14 187.39,-276.81 173.26,-285.84"/>
<polygon fill="black" stroke="black" points="171.71,-282.69 164.96,-290.86 175.33,-288.68 171.71,-282.69"/>
</g>
<!-- r4_node_9 -->
<g id="node9" class="node">
<title>r4_node_9</title>
<ellipse fill="none" stroke="black" cx="332.33" cy="-18" rx="50.33" ry="18"/>
<text text-anchor="middle" x="332.33" y="-12.95" font-family="Times,serif" font-size="14.00">r4_node_9</text>
</g>
<!-- r4_node_2&#45;&gt;r4_node_9 -->
<g id="edge18" class="edge">
<title>r4_node_2&#45;&gt;r4_node_9</title>
<path fill="none" stroke="black" d="M262.56,-144.47C270.92,-134.33 281.37,-120.86 289.33,-108 301.52,-88.3 312.81,-64.63 320.76,-46.66"/>
<polygon fill="black" stroke="black" points="323.89,-48.24 324.65,-37.68 317.46,-45.46 323.89,-48.24"/>
</g>
<!-- r4_node_1 -->
<g id="node10" class="node">
<title>r4_node_1</title>
<ellipse fill="none" stroke="black" cx="198.33" cy="-18" rx="50.33" ry="18"/>
<text text-anchor="middle" x="198.33" y="-12.95" font-family="Times,serif" font-size="14.00">r4_node_1</text>
</g>
<!-- r4_node_2&#45;&gt;r4_node_1 -->
<g id="edge17" class="edge">
<title>r4_node_2&#45;&gt;r4_node_1</title>
<path fill="none" stroke="black" d="M260.17,-144.17C271.6,-125.69 285.5,-95.52 273.33,-72 265.89,-57.64 252.58,-46.35 239.22,-37.94"/>
<polygon fill="black" stroke="black" points="241.27,-35.08 230.87,-33.08 237.75,-41.13 241.27,-35.08"/>
</g>
<!-- r4_node_15&#45;&gt;r4_node_3 -->
<g id="edge20" class="edge">
<title>r4_node_15&#45;&gt;r4_node_3</title>
<path fill="none" stroke="black" d="M84.78,-359.68C80.68,-349.49 75.93,-336.24 73.33,-324 52.1,-224.26 49.78,-102.53 49.94,-47.92"/>
<polygon fill="black" stroke="black" points="53.44,-47.96 50.01,-37.94 46.44,-47.92 53.44,-47.96"/>
</g>
<!-- r4_node_15&#45;&gt;r4_node_8 -->
<g id="edge21" class="edge">
<title>r4_node_15&#45;&gt;r4_node_8</title>
<path fill="none" stroke="black" d="M96.3,-359.7C100.05,-351.7 105.36,-342.02 110.83,-333.15"/>
<polygon fill="black" stroke="black" points="113.68,-335.19 116.16,-324.89 107.8,-331.39 113.68,-335.19"/>
</g>
<!-- r4_node_11&#45;&gt;r4_node_8 -->
<g id="edge9" class="edge">
<title>r4_node_11&#45;&gt;r4_node_8</title>
<path fill="none" stroke="black" d="M307.83,-248.31C273.31,-260.39 220.08,-278.14 181.24,-290.56"/>
<polygon fill="black" stroke="black" points="180.61,-287.09 172.13,-293.45 182.72,-293.76 180.61,-287.09"/>
</g>
<!-- r4_node_4 -->
<g id="node7" class="node">
<title>r4_node_4</title>
<ellipse fill="none" stroke="black" cx="389.33" cy="-162" rx="50.33" ry="18"/>
<text text-anchor="middle" x="389.33" y="-156.95" font-family="Times,serif" font-size="14.00">r4_node_4</text>
</g>
<!-- r4_node_11&#45;&gt;r4_node_4 -->
<g id="edge8" class="edge">
<title>r4_node_11&#45;&gt;r4_node_4</title>
<path fill="none" stroke="black" d="M348.03,-215.7C352.74,-207.4 359.32,-197.31 365.91,-188.19"/>
<polygon fill="black" stroke="black" points="368.58,-190.45 371.79,-180.35 362.99,-186.25 368.58,-190.45"/>
</g>
<!-- r4_node_4&#45;&gt;r4_node_11 -->
<g id="edge5" class="edge">
<title>r4_node_4&#45;&gt;r4_node_11</title>
<path fill="none" stroke="black" d="M383.82,-179.96C379.18,-188.17 372.65,-198.22 366.09,-207.34"/>
<polygon fill="black" stroke="black" points="363.4,-205.09 360.21,-215.2 369,-209.29 363.4,-205.09"/>
</g>
<!-- r4_node_19 -->
<g id="node8" class="node">
<title>r4_node_19</title>
<ellipse fill="none" stroke="black" cx="470.33" cy="-90" rx="54.93" ry="18"/>
<text text-anchor="middle" x="470.33" y="-84.95" font-family="Times,serif" font-size="14.00">r4_node_19</text>
</g>
<!-- r4_node_4&#45;&gt;r4_node_19 -->
<g id="edge6" class="edge">
<title>r4_node_4&#45;&gt;r4_node_19</title>
<path fill="none" stroke="black" d="M407.71,-145.12C418.12,-136.12 431.35,-124.68 442.97,-114.65"/>
<polygon fill="black" stroke="black" points="445.04,-117.48 450.31,-108.3 440.46,-112.19 445.04,-117.48"/>
</g>
<!-- r4_node_4&#45;&gt;r4_node_9 -->
<g id="edge7" class="edge">
<title>r4_node_4&#45;&gt;r4_node_9</title>
<path fill="none" stroke="black" d="M384.93,-143.58C380.09,-125.37 371.61,-96.14 361.33,-72 357.57,-63.18 352.8,-53.9 348.22,-45.62"/>
<polygon fill="black" stroke="black" points="351.34,-44.03 343.35,-37.08 345.26,-47.5 351.34,-44.03"/>
</g>
<!-- r4_node_7&#45;&gt;r4_node_16 -->
<g id="edge11" class="edge">
<title>r4_node_7&#45;&gt;r4_node_16</title>
<path fill="none" stroke="black" d="M134.89,-180.1C137.23,-187.45 139.37,-196.24 140.87,-204.53"/>
<polygon fill="black" stroke="black" points="137.38,-204.82 142.31,-214.2 144.3,-203.79 137.38,-204.82"/>
</g>
<!-- r4_node_7&#45;&gt;r4_node_1 -->
<g id="edge10" class="edge">
<title>r4_node_7&#45;&gt;r4_node_1</title>
<path fill="none" stroke="black" d="M165.35,-150.75C187.16,-142.9 212.31,-129.63 225.33,-108 236.99,-88.62 227.81,-63.81 217.1,-45.31"/>
<polygon fill="black" stroke="black" points="220.19,-43.65 211.92,-37.03 214.26,-47.37 220.19,-43.65"/>
</g>
<!-- r4_node_17 -->
<g id="node12" class="node">
<title>r4_node_17</title>
<ellipse fill="none" stroke="black" cx="161.33" cy="-90" rx="54.93" ry="18"/>
<text text-anchor="middle" x="161.33" y="-84.95" font-family="Times,serif" font-size="14.00">r4_node_17</text>
</g>
<!-- r4_node_7&#45;&gt;r4_node_17 -->
<g id="edge12" class="edge">
<title>r4_node_7&#45;&gt;r4_node_17</title>
<path fill="none" stroke="black" d="M128.31,-143.7C131.57,-135.78 136.26,-126.23 141.16,-117.44"/>
<polygon fill="black" stroke="black" points="144.12,-119.32 146.17,-108.93 138.08,-115.77 144.12,-119.32"/>
</g>
<!-- r4_node_17&#45;&gt;r4_node_3 -->
<g id="edge16" class="edge">
<title>r4_node_17&#45;&gt;r4_node_3</title>
<path fill="none" stroke="black" d="M136.69,-73.46C121.21,-63.7 101.03,-50.97 84.07,-40.28"/>
<polygon fill="black" stroke="black" points="86.12,-37.43 75.79,-35.06 82.38,-43.35 86.12,-37.43"/>
</g>
<!-- r4_node_17&#45;&gt;r4_node_7 -->
<g id="edge15" class="edge">
<title>r4_node_17&#45;&gt;r4_node_7</title>
<path fill="none" stroke="black" d="M158.29,-108.45C155.02,-116.36 150.34,-125.88 145.45,-134.63"/>
<polygon fill="black" stroke="black" points="142.52,-132.71 140.47,-143.11 148.55,-136.26 142.52,-132.71"/>
</g>
</g>
</svg>
