<?xml version="1.0" encoding="UTF-8" standalone="no"?>
<!DOCTYPE svg PUBLIC "-//W3C//DTD SVG 1.1//EN"
 "http://www.w3.org/Graphics/SVG/1.1/DTD/svg11.dtd">
<!-- Generated by graphviz version 12.2.1 (20241206.2353)
 -->
<!-- Pages: 1 -->
<svg width="492pt" height="116pt"
 viewBox="0.00 0.00 491.87 116.00" xmlns="http://www.w3.org/2000/svg" xmlns:xlink="http://www.w3.org/1999/xlink">
<g id="graph0" class="graph" transform="scale(1 1) rotate(0) translate(4 112)">
<polygon fill="white" stroke="none" points="-4,4 -4,-112 487.87,-112 487.87,4 -4,4"/>
<!-- r3_node_28 -->
<g id="node1" class="node">
<title>r3_node_28</title>
<ellipse fill="none" stroke="black" cx="54.93" cy="-18" rx="54.93" ry="18"/>
<text text-anchor="middle" x="54.93" y="-12.95" font-family="Times,serif" font-size="14.00">r3_node_28</text>
</g>
<!-- r3_node_10 -->
<g id="node2" class="node">
<title>r3_node_10</title>
<ellipse fill="none" stroke="black" cx="115.93" cy="-90" rx="54.93" ry="18"/>
<text text-anchor="middle" x="115.93" y="-84.95" font-family="Times,serif" font-size="14.00">r3_node_10</text>
</g>
<!-- r3_node_10&#45;&gt;r3_node_28 -->
<g id="edge4" class="edge">
<title>r3_node_10&#45;&gt;r3_node_28</title>
<path fill="none" stroke="black" d="M101.48,-72.41C94.11,-63.95 84.99,-53.49 76.79,-44.08"/>
<polygon fill="black" stroke="black" points="79.49,-41.85 70.28,-36.61 74.21,-46.45 79.49,-41.85"/>
</g>
<!-- r3_node_5 -->
<g id="node3" class="node">
<title>r3_node_5</title>
<ellipse fill="none" stroke="black" cx="177.93" cy="-18" rx="50.33" ry="18"/>
<text text-anchor="middle" x="177.93" y="-12.95" font-family="Times,serif" font-size="14.00">r3_node_5</text>
</g>
<!-- r3_node_10&#45;&gt;r3_node_5 -->
<g id="edge1" class="edge">
<title>r3_node_10&#45;&gt;r3_node_5</title>
<path fill="none" stroke="black" d="M130.63,-72.41C138.12,-63.95 147.38,-53.49 155.72,-44.08"/>
<polygon fill="black" stroke="black" points="158.33,-46.41 162.34,-36.6 153.09,-41.77 158.33,-46.41"/>
</g>
<!-- r3_node_12 -->
<g id="node4" class="node">
<title>r3_node_12</title>
<ellipse fill="none" stroke="black" cx="300.93" cy="-18" rx="54.93" ry="18"/>
<text text-anchor="middle" x="300.93" y="-12.95" font-family="Times,serif" font-size="14.00">r3_node_12</text>
</g>
<!-- r3_node_10&#45;&gt;r3_node_12 -->
<g id="edge2" class="edge">
<title>r3_node_10&#45;&gt;r3_node_12</title>
<path fill="none" stroke="black" d="M150.73,-75.83C180.35,-64.63 223.12,-48.44 255.45,-36.21"/>
<polygon fill="black" stroke="black" points="256.45,-39.57 264.56,-32.76 253.97,-33.03 256.45,-39.57"/>
</g>
<!-- r3_node_22 -->
<g id="node5" class="node">
<title>r3_node_22</title>
<ellipse fill="none" stroke="black" cx="428.93" cy="-18" rx="54.93" ry="18"/>
<text text-anchor="middle" x="428.93" y="-12.95" font-family="Times,serif" font-size="14.00">r3_node_22</text>
</g>
<!-- r3_node_10&#45;&gt;r3_node_22 -->
<g id="edge3" class="edge">
<title>r3_node_10&#45;&gt;r3_node_22</title>
<path fill="none" stroke="black" d="M161.98,-79.92C212.07,-69.87 294.44,-52.85 364.93,-36 368.74,-35.09 372.66,-34.12 376.61,-33.13"/>
<polygon fill="black" stroke="black" points="377.42,-36.53 386.23,-30.65 375.68,-29.75 377.42,-36.53"/>
</g>
</g>
</svg>
