<?xml version="1.0" encoding="UTF-8" standalone="no"?>
<!DOCTYPE svg PUBLIC "-//W3C//DTD SVG 1.1//EN"
 "http://www.w3.org/Graphics/SVG/1.1/DTD/svg11.dtd">
<!-- Generated by graphviz version 12.2.1 (20241206.2353)
 -->
<!-- Pages: 1 -->
<svg width="1294pt" height="404pt"
 viewBox="0.00 0.00 1294.43 404.00" xmlns="http://www.w3.org/2000/svg" xmlns:xlink="http://www.w3.org/1999/xlink">
<g id="graph0" class="graph" transform="scale(1 1) rotate(0) translate(4 400)">
<polygon fill="white" stroke="none" points="-4,4 -4,-400 1290.43,-400 1290.43,4 -4,4"/>
<!-- r2_node_8 -->
<g id="node1" class="node">
<title>r2_node_8</title>
<ellipse fill="none" stroke="black" cx="131.93" cy="-378" rx="50.33" ry="18"/>
<text text-anchor="middle" x="131.93" y="-372.95" font-family="Times,serif" font-size="14.00">r2_node_8</text>
</g>
<!-- r2_node_14 -->
<g id="node2" class="node">
<title>r2_node_14</title>
<ellipse fill="none" stroke="black" cx="455.93" cy="-90" rx="54.93" ry="18"/>
<text text-anchor="middle" x="455.93" y="-84.95" font-family="Times,serif" font-size="14.00">r2_node_14</text>
</g>
<!-- r2_node_8&#45;&gt;r2_node_14 -->
<g id="edge1" class="edge">
<title>r2_node_8&#45;&gt;r2_node_14</title>
<path fill="none" stroke="black" d="M161.14,-363.17C225.68,-332.5 375.45,-260.83 383.93,-252 420.43,-214.01 440.39,-154.37 449.56,-119.33"/>
<polygon fill="black" stroke="black" points="452.88,-120.48 451.9,-109.93 446.09,-118.79 452.88,-120.48"/>
</g>
<!-- r2_node_16 -->
<g id="node3" class="node">
<title>r2_node_16</title>
<ellipse fill="none" stroke="black" cx="867.93" cy="-90" rx="54.93" ry="18"/>
<text text-anchor="middle" x="867.93" y="-84.95" font-family="Times,serif" font-size="14.00">r2_node_16</text>
</g>
<!-- r2_node_8&#45;&gt;r2_node_16 -->
<g id="edge2" class="edge">
<title>r2_node_8&#45;&gt;r2_node_16</title>
<path fill="none" stroke="black" d="M170.31,-366.01C177.49,-363.99 184.94,-361.91 191.93,-360 312.97,-326.9 342.63,-316.06 464.93,-288 546.15,-269.37 568.38,-273.33 648.93,-252 745.94,-226.31 802.11,-259.82 862.93,-180 875.85,-163.06 876.32,-138.6 874,-119.62"/>
<polygon fill="black" stroke="black" points="877.47,-119.17 872.46,-109.83 870.55,-120.26 877.47,-119.17"/>
</g>
<!-- r2_node_9 -->
<g id="node4" class="node">
<title>r2_node_9</title>
<ellipse fill="none" stroke="black" cx="250.93" cy="-378" rx="50.33" ry="18"/>
<text text-anchor="middle" x="250.93" y="-372.95" font-family="Times,serif" font-size="14.00">r2_node_9</text>
</g>
<!-- r2_node_9&#45;&gt;r2_node_14 -->
<g id="edge3" class="edge">
<title>r2_node_9&#45;&gt;r2_node_14</title>
<path fill="none" stroke="black" d="M271.96,-361.19C295.71,-343.35 335.53,-313.5 369.93,-288 391.64,-271.91 404.09,-274.58 418.93,-252 445.73,-211.23 453.25,-153.55 455.28,-119.44"/>
<polygon fill="black" stroke="black" points="458.78,-119.68 455.74,-109.53 451.78,-119.36 458.78,-119.68"/>
</g>
<!-- r2_node_19 -->
<g id="node5" class="node">
<title>r2_node_19</title>
<ellipse fill="none" stroke="black" cx="54.93" cy="-18" rx="54.93" ry="18"/>
<text text-anchor="middle" x="54.93" y="-12.95" font-family="Times,serif" font-size="14.00">r2_node_19</text>
</g>
<!-- r2_node_9&#45;&gt;r2_node_19 -->
<g id="edge4" class="edge">
<title>r2_node_9&#45;&gt;r2_node_19</title>
<path fill="none" stroke="black" d="M241.74,-360.21C210.5,-303.15 108.2,-116.29 69.73,-46.03"/>
<polygon fill="black" stroke="black" points="72.93,-44.59 65.06,-37.49 66.79,-47.95 72.93,-44.59"/>
</g>
<!-- r2_node_20 -->
<g id="node6" class="node">
<title>r2_node_20</title>
<ellipse fill="none" stroke="black" cx="332.93" cy="-18" rx="54.93" ry="18"/>
<text text-anchor="middle" x="332.93" y="-12.95" font-family="Times,serif" font-size="14.00">r2_node_20</text>
</g>
<!-- r2_node_9&#45;&gt;r2_node_20 -->
<g id="edge5" class="edge">
<title>r2_node_9&#45;&gt;r2_node_20</title>
<path fill="none" stroke="black" d="M283.65,-363.84C305.97,-354.22 335.75,-340.07 359.93,-324 459.43,-257.87 490.58,-223.81 519.93,-108 523.86,-92.49 529.58,-84.76 519.93,-72 504.55,-51.65 442.09,-36.85 393.54,-28.14"/>
<polygon fill="black" stroke="black" points="394.42,-24.74 383.97,-26.48 393.22,-31.64 394.42,-24.74"/>
</g>
<!-- r2_node_7 -->
<g id="node7" class="node">
<title>r2_node_7</title>
<ellipse fill="none" stroke="black" cx="523.93" cy="-306" rx="50.33" ry="18"/>
<text text-anchor="middle" x="523.93" y="-300.95" font-family="Times,serif" font-size="14.00">r2_node_7</text>
</g>
<!-- r2_node_9&#45;&gt;r2_node_7 -->
<g id="edge6" class="edge">
<title>r2_node_9&#45;&gt;r2_node_7</title>
<path fill="none" stroke="black" d="M289.1,-365.91C336.64,-353.17 417.84,-332.33 471.26,-319.16"/>
<polygon fill="black" stroke="black" points="471.87,-322.61 480.74,-316.83 470.2,-315.81 471.87,-322.61"/>
</g>
<!-- r2_node_7&#45;&gt;r2_node_9 -->
<g id="edge17" class="edge">
<title>r2_node_7&#45;&gt;r2_node_9</title>
<path fill="none" stroke="black" d="M485.6,-318.14C438.01,-330.89 356.83,-351.72 303.48,-364.87"/>
<polygon fill="black" stroke="black" points="302.89,-361.42 294.01,-367.2 304.56,-368.21 302.89,-361.42"/>
</g>
<!-- r2_node_12 -->
<g id="node9" class="node">
<title>r2_node_12</title>
<ellipse fill="none" stroke="black" cx="584.93" cy="-234" rx="54.93" ry="18"/>
<text text-anchor="middle" x="584.93" y="-228.95" font-family="Times,serif" font-size="14.00">r2_node_12</text>
</g>
<!-- r2_node_7&#45;&gt;r2_node_12 -->
<g id="edge18" class="edge">
<title>r2_node_7&#45;&gt;r2_node_12</title>
<path fill="none" stroke="black" d="M532.82,-288.05C539.46,-279.38 548.6,-268.67 557.44,-259.15"/>
<polygon fill="black" stroke="black" points="559.96,-261.57 564.34,-251.92 554.9,-256.74 559.96,-261.57"/>
</g>
<!-- r2_node_5 -->
<g id="node12" class="node">
<title>r2_node_5</title>
<ellipse fill="none" stroke="black" cx="1202.93" cy="-90" rx="50.33" ry="18"/>
<text text-anchor="middle" x="1202.93" y="-84.95" font-family="Times,serif" font-size="14.00">r2_node_5</text>
</g>
<!-- r2_node_7&#45;&gt;r2_node_5 -->
<g id="edge16" class="edge">
<title>r2_node_7&#45;&gt;r2_node_5</title>
<path fill="none" stroke="black" d="M572.48,-300.86C671.75,-291.25 902.81,-261.69 1077.93,-180 1113.63,-163.35 1148.67,-134.18 1172.74,-113.79"/>
<polygon fill="black" stroke="black" points="1174.89,-116.56 1180.25,-107.43 1170.36,-111.22 1174.89,-116.56"/>
</g>
<!-- r2_node_15 -->
<g id="node14" class="node">
<title>r2_node_15</title>
<ellipse fill="none" stroke="black" cx="1015.93" cy="-18" rx="54.93" ry="18"/>
<text text-anchor="middle" x="1015.93" y="-12.95" font-family="Times,serif" font-size="14.00">r2_node_15</text>
</g>
<!-- r2_node_7&#45;&gt;r2_node_15 -->
<g id="edge19" class="edge">
<title>r2_node_7&#45;&gt;r2_node_15</title>
<path fill="none" stroke="black" d="M572.49,-300.78C670.58,-291.98 889.19,-270.91 961.93,-252 1043.73,-230.73 1062.1,-217.31 1137.93,-180 1195.12,-151.87 1230.14,-163.23 1261.93,-108 1302.16,-38.12 1168.29,-22.36 1082.44,-19.26"/>
<polygon fill="black" stroke="black" points="1082.81,-15.77 1072.7,-18.97 1082.59,-22.77 1082.81,-15.77"/>
</g>
<!-- r2_node_3 -->
<g id="node8" class="node">
<title>r2_node_3</title>
<ellipse fill="none" stroke="black" cx="1027.93" cy="-162" rx="50.33" ry="18"/>
<text text-anchor="middle" x="1027.93" y="-156.95" font-family="Times,serif" font-size="14.00">r2_node_3</text>
</g>
<!-- r2_node_3&#45;&gt;r2_node_14 -->
<g id="edge10" class="edge">
<title>r2_node_3&#45;&gt;r2_node_14</title>
<path fill="none" stroke="black" d="M981.12,-155.27C878.46,-142.71 633.48,-112.73 518.08,-98.6"/>
<polygon fill="black" stroke="black" points="518.51,-95.13 508.16,-97.39 517.66,-102.08 518.51,-95.13"/>
</g>
<!-- r2_node_3&#45;&gt;r2_node_12 -->
<g id="edge7" class="edge">
<title>r2_node_3&#45;&gt;r2_node_12</title>
<path fill="none" stroke="black" d="M983.4,-170.74C903.51,-183.84 736.07,-210.31 645.71,-224.13"/>
<polygon fill="black" stroke="black" points="645.41,-220.64 636.05,-225.61 646.46,-227.56 645.41,-220.64"/>
</g>
<!-- r2_node_17 -->
<g id="node10" class="node">
<title>r2_node_17</title>
<ellipse fill="none" stroke="black" cx="700.93" cy="-18" rx="54.93" ry="18"/>
<text text-anchor="middle" x="700.93" y="-12.95" font-family="Times,serif" font-size="14.00">r2_node_17</text>
</g>
<!-- r2_node_3&#45;&gt;r2_node_17 -->
<g id="edge8" class="edge">
<title>r2_node_3&#45;&gt;r2_node_17</title>
<path fill="none" stroke="black" d="M1058.36,-147.48C1074.15,-138.7 1091.97,-125.58 1100.93,-108 1108.2,-93.75 1111.48,-84.03 1100.93,-72 1079.25,-47.25 873.9,-30.28 766.18,-23"/>
<polygon fill="black" stroke="black" points="766.53,-19.52 756.32,-22.35 766.07,-26.5 766.53,-19.52"/>
</g>
<!-- r2_node_18 -->
<g id="node11" class="node">
<title>r2_node_18</title>
<ellipse fill="none" stroke="black" cx="535.93" cy="-18" rx="54.93" ry="18"/>
<text text-anchor="middle" x="535.93" y="-12.95" font-family="Times,serif" font-size="14.00">r2_node_18</text>
</g>
<!-- r2_node_3&#45;&gt;r2_node_18 -->
<g id="edge9" class="edge">
<title>r2_node_3&#45;&gt;r2_node_18</title>
<path fill="none" stroke="black" d="M1045.04,-144.79C1063.39,-125.49 1087.43,-93.19 1067.93,-72 1035.4,-36.63 684.61,-41.99 636.93,-36 622.94,-34.24 607.93,-31.94 593.87,-29.6"/>
<polygon fill="black" stroke="black" points="594.77,-26.21 584.32,-27.98 593.6,-33.11 594.77,-26.21"/>
</g>
<!-- r2_node_3&#45;&gt;r2_node_5 -->
<g id="edge11" class="edge">
<title>r2_node_3&#45;&gt;r2_node_5</title>
<path fill="none" stroke="black" d="M1057.4,-147C1084.59,-135.51 1125.22,-119.22 1156.7,-107.18"/>
<polygon fill="black" stroke="black" points="1157.9,-110.47 1166,-103.64 1155.41,-103.92 1157.9,-110.47"/>
</g>
<!-- r2_node_6 -->
<g id="node13" class="node">
<title>r2_node_6</title>
<ellipse fill="none" stroke="black" cx="1008.93" cy="-90" rx="50.33" ry="18"/>
<text text-anchor="middle" x="1008.93" y="-84.95" font-family="Times,serif" font-size="14.00">r2_node_6</text>
</g>
<!-- r2_node_3&#45;&gt;r2_node_6 -->
<g id="edge12" class="edge">
<title>r2_node_3&#45;&gt;r2_node_6</title>
<path fill="none" stroke="black" d="M1017.46,-144.05C1014.67,-136.68 1012.02,-127.84 1010.03,-119.51"/>
<polygon fill="black" stroke="black" points="1013.46,-118.84 1008.02,-109.76 1006.61,-120.26 1013.46,-118.84"/>
</g>
<!-- r2_node_12&#45;&gt;r2_node_16 -->
<g id="edge29" class="edge">
<title>r2_node_12&#45;&gt;r2_node_16</title>
<path fill="none" stroke="black" d="M637.44,-228.22C702.9,-221.24 809.75,-206.16 838.93,-180 855.97,-164.73 863.04,-139.34 865.95,-119.58"/>
<polygon fill="black" stroke="black" points="869.43,-119.98 867.11,-109.64 862.48,-119.17 869.43,-119.98"/>
</g>
<!-- r2_node_12&#45;&gt;r2_node_19 -->
<g id="edge30" class="edge">
<title>r2_node_12&#45;&gt;r2_node_19</title>
<path fill="none" stroke="black" d="M572.7,-215.99C565.87,-205.9 557.62,-192.65 551.93,-180 531.41,-134.34 558.28,-104.18 519.93,-72 504.75,-59.26 242.48,-35.14 118.67,-24.4"/>
<polygon fill="black" stroke="black" points="119.27,-20.94 109,-23.56 118.66,-27.91 119.27,-20.94"/>
</g>
<!-- r2_node_12&#45;&gt;r2_node_7 -->
<g id="edge31" class="edge">
<title>r2_node_12&#45;&gt;r2_node_7</title>
<path fill="none" stroke="black" d="M576.16,-251.8C569.46,-260.56 560.18,-271.43 551.24,-281.06"/>
<polygon fill="black" stroke="black" points="548.96,-278.37 544.58,-288.02 554.02,-283.21 548.96,-278.37"/>
</g>
<!-- r2_node_12&#45;&gt;r2_node_3 -->
<g id="edge32" class="edge">
<title>r2_node_12&#45;&gt;r2_node_3</title>
<path fill="none" stroke="black" d="M632.52,-224.76C714.59,-211.33 882.18,-184.85 970.56,-171.34"/>
<polygon fill="black" stroke="black" points="970.86,-174.84 980.22,-169.87 969.8,-167.92 970.86,-174.84"/>
</g>
<!-- r2_node_11 -->
<g id="node15" class="node">
<title>r2_node_11</title>
<ellipse fill="none" stroke="black" cx="615.93" cy="-162" rx="54.93" ry="18"/>
<text text-anchor="middle" x="615.93" y="-156.95" font-family="Times,serif" font-size="14.00">r2_node_11</text>
</g>
<!-- r2_node_12&#45;&gt;r2_node_11 -->
<g id="edge33" class="edge">
<title>r2_node_12&#45;&gt;r2_node_11</title>
<path fill="none" stroke="black" d="M586.68,-215.7C589.34,-207.87 593.3,-198.44 597.52,-189.73"/>
<polygon fill="black" stroke="black" points="600.56,-191.46 602.04,-180.97 594.34,-188.25 600.56,-191.46"/>
</g>
<!-- r2_node_1 -->
<g id="node17" class="node">
<title>r2_node_1</title>
<ellipse fill="none" stroke="black" cx="743.93" cy="-162" rx="50.33" ry="18"/>
<text text-anchor="middle" x="743.93" y="-156.95" font-family="Times,serif" font-size="14.00">r2_node_1</text>
</g>
<!-- r2_node_12&#45;&gt;r2_node_1 -->
<g id="edge28" class="edge">
<title>r2_node_12&#45;&gt;r2_node_1</title>
<path fill="none" stroke="black" d="M613.02,-218.15C636.97,-206.99 671.66,-191.69 699.37,-180.03"/>
<polygon fill="black" stroke="black" points="700.71,-183.26 708.59,-176.18 698.02,-176.8 700.71,-183.26"/>
</g>
<!-- r2_node_5&#45;&gt;r2_node_7 -->
<g id="edge14" class="edge">
<title>r2_node_5&#45;&gt;r2_node_7</title>
<path fill="none" stroke="black" d="M1192.39,-107.85C1173.81,-128.1 1135.27,-161.65 1095.93,-180 921.72,-261.27 692.13,-290.95 584.43,-300.71"/>
<polygon fill="black" stroke="black" points="584.32,-297.2 574.66,-301.56 584.93,-304.18 584.32,-297.2"/>
</g>
<!-- r2_node_5&#45;&gt;r2_node_3 -->
<g id="edge13" class="edge">
<title>r2_node_5&#45;&gt;r2_node_3</title>
<path fill="none" stroke="black" d="M1173.36,-105.04C1146.11,-116.56 1105.44,-132.86 1073.97,-144.9"/>
<polygon fill="black" stroke="black" points="1072.78,-141.61 1064.67,-148.43 1075.27,-148.15 1072.78,-141.61"/>
</g>
<!-- r2_node_5&#45;&gt;r2_node_15 -->
<g id="edge15" class="edge">
<title>r2_node_5&#45;&gt;r2_node_15</title>
<path fill="none" stroke="black" d="M1169.07,-76.32C1138.96,-65.05 1094.7,-48.48 1061.49,-36.05"/>
<polygon fill="black" stroke="black" points="1063.14,-32.93 1052.55,-32.71 1060.69,-39.49 1063.14,-32.93"/>
</g>
<!-- r2_node_6&#45;&gt;r2_node_3 -->
<g id="edge34" class="edge">
<title>r2_node_6&#45;&gt;r2_node_3</title>
<path fill="none" stroke="black" d="M1019.29,-107.62C1022.13,-115.1 1024.85,-124.14 1026.88,-132.64"/>
<polygon fill="black" stroke="black" points="1023.4,-133.13 1028.85,-142.21 1030.26,-131.71 1023.4,-133.13"/>
</g>
<!-- r2_node_6&#45;&gt;r2_node_18 -->
<g id="edge35" class="edge">
<title>r2_node_6&#45;&gt;r2_node_18</title>
<path fill="none" stroke="black" d="M967.92,-79.18C956.33,-76.61 943.67,-74.01 931.93,-72 801.74,-49.74 767.65,-54.97 636.93,-36 623.12,-34 608.28,-31.62 594.34,-29.29"/>
<polygon fill="black" stroke="black" points="595.33,-25.91 584.88,-27.7 594.16,-32.81 595.33,-25.91"/>
</g>
<!-- r2_node_11&#45;&gt;r2_node_14 -->
<g id="edge20" class="edge">
<title>r2_node_11&#45;&gt;r2_node_14</title>
<path fill="none" stroke="black" d="M583.94,-147C559.3,-136.22 525.03,-121.23 498.15,-109.47"/>
<polygon fill="black" stroke="black" points="499.82,-106.38 489.26,-105.58 497.02,-112.79 499.82,-106.38"/>
</g>
<!-- r2_node_11&#45;&gt;r2_node_16 -->
<g id="edge21" class="edge">
<title>r2_node_11&#45;&gt;r2_node_16</title>
<path fill="none" stroke="black" d="M656.98,-149.6C700.37,-137.55 768.9,-118.51 816.01,-105.42"/>
<polygon fill="black" stroke="black" points="816.75,-108.85 825.44,-102.8 814.87,-102.11 816.75,-108.85"/>
</g>
<!-- r2_node_11&#45;&gt;r2_node_19 -->
<g id="edge22" class="edge">
<title>r2_node_11&#45;&gt;r2_node_19</title>
<path fill="none" stroke="black" d="M616.44,-143.55C616.01,-123.03 611.84,-89.53 590.93,-72 581.97,-64.49 259.47,-36.33 119.11,-24.4"/>
<polygon fill="black" stroke="black" points="119.49,-20.92 109.22,-23.56 118.89,-27.89 119.49,-20.92"/>
</g>
<!-- r2_node_11&#45;&gt;r2_node_20 -->
<g id="edge23" class="edge">
<title>r2_node_11&#45;&gt;r2_node_20</title>
<path fill="none" stroke="black" d="M625.45,-143.81C634.91,-124.16 645.77,-92.12 628.93,-72 621.4,-62.99 478.16,-40.45 393.75,-27.86"/>
<polygon fill="black" stroke="black" points="394.4,-24.42 384,-26.41 393.37,-31.35 394.4,-24.42"/>
</g>
<!-- r2_node_11&#45;&gt;r2_node_12 -->
<g id="edge24" class="edge">
<title>r2_node_11&#45;&gt;r2_node_12</title>
<path fill="none" stroke="black" d="M614.2,-180.28C611.56,-188.03 607.66,-197.36 603.48,-206.01"/>
<polygon fill="black" stroke="black" points="600.46,-204.21 599.01,-214.71 606.69,-207.41 600.46,-204.21"/>
</g>
<!-- r2_node_10 -->
<g id="node16" class="node">
<title>r2_node_10</title>
<ellipse fill="none" stroke="black" cx="738.93" cy="-90" rx="54.93" ry="18"/>
<text text-anchor="middle" x="738.93" y="-84.95" font-family="Times,serif" font-size="14.00">r2_node_10</text>
</g>
<!-- r2_node_10&#45;&gt;r2_node_17 -->
<g id="edge26" class="edge">
<title>r2_node_10&#45;&gt;r2_node_17</title>
<path fill="none" stroke="black" d="M729.74,-72.05C725.44,-64.14 720.23,-54.54 715.42,-45.69"/>
<polygon fill="black" stroke="black" points="718.62,-44.24 710.77,-37.12 712.47,-47.58 718.62,-44.24"/>
</g>
<!-- r2_node_10&#45;&gt;r2_node_18 -->
<g id="edge27" class="edge">
<title>r2_node_10&#45;&gt;r2_node_18</title>
<path fill="none" stroke="black" d="M702.17,-76.32C668.93,-64.86 619.8,-47.92 583.56,-35.42"/>
<polygon fill="black" stroke="black" points="584.79,-32.14 574.2,-32.19 582.51,-38.76 584.79,-32.14"/>
</g>
<!-- r2_node_10&#45;&gt;r2_node_1 -->
<g id="edge25" class="edge">
<title>r2_node_10&#45;&gt;r2_node_1</title>
<path fill="none" stroke="black" d="M746.05,-108.1C747.33,-115.37 748.2,-124.04 748.53,-132.24"/>
<polygon fill="black" stroke="black" points="745.03,-132.21 748.6,-142.18 752.03,-132.16 745.03,-132.21"/>
</g>
<!-- r2_node_1&#45;&gt;r2_node_12 -->
<g id="edge43" class="edge">
<title>r2_node_1&#45;&gt;r2_node_12</title>
<path fill="none" stroke="black" d="M716.47,-177.56C692.79,-188.6 658.31,-203.83 630.53,-215.54"/>
<polygon fill="black" stroke="black" points="629.53,-212.16 621.65,-219.25 632.22,-218.62 629.53,-212.16"/>
</g>
<!-- r2_node_1&#45;&gt;r2_node_10 -->
<g id="edge44" class="edge">
<title>r2_node_1&#45;&gt;r2_node_10</title>
<path fill="none" stroke="black" d="M736.78,-143.7C735.51,-136.41 734.65,-127.73 734.33,-119.54"/>
<polygon fill="black" stroke="black" points="737.83,-119.6 734.27,-109.62 730.83,-119.64 737.83,-119.6"/>
</g>
<!-- r2_node_4 -->
<g id="node18" class="node">
<title>r2_node_4</title>
<ellipse fill="none" stroke="black" cx="324.93" cy="-234" rx="50.33" ry="18"/>
<text text-anchor="middle" x="324.93" y="-228.95" font-family="Times,serif" font-size="14.00">r2_node_4</text>
</g>
<!-- r2_node_4&#45;&gt;r2_node_14 -->
<g id="edge37" class="edge">
<title>r2_node_4&#45;&gt;r2_node_14</title>
<path fill="none" stroke="black" d="M339.25,-216.38C354.9,-198.33 380.82,-168.77 403.93,-144 412.73,-134.57 422.59,-124.42 431.35,-115.55"/>
<polygon fill="black" stroke="black" points="433.7,-118.14 438.26,-108.58 428.73,-113.21 433.7,-118.14"/>
</g>
<!-- r2_node_4&#45;&gt;r2_node_16 -->
<g id="edge39" class="edge">
<title>r2_node_4&#45;&gt;r2_node_16</title>
<path fill="none" stroke="black" d="M373.37,-228.69C491.2,-218.06 784.49,-190.69 802.93,-180 815.84,-172.52 837.14,-141.13 851.82,-117.74"/>
<polygon fill="black" stroke="black" points="854.77,-119.61 857.06,-109.27 848.82,-115.93 854.77,-119.61"/>
</g>
<!-- r2_node_4&#45;&gt;r2_node_19 -->
<g id="edge36" class="edge">
<title>r2_node_4&#45;&gt;r2_node_19</title>
<path fill="none" stroke="black" d="M305.08,-217.26C257.99,-179.94 139.38,-85.93 84.11,-42.13"/>
<polygon fill="black" stroke="black" points="86.38,-39.46 76.37,-35.99 82.03,-44.94 86.38,-39.46"/>
</g>
<!-- r2_node_4&#45;&gt;r2_node_18 -->
<g id="edge40" class="edge">
<title>r2_node_4&#45;&gt;r2_node_18</title>
<path fill="none" stroke="black" d="M323.72,-215.82C323.04,-205.46 322.27,-191.98 321.93,-180 320.5,-129.28 319.92,-104.43 358.93,-72 390.9,-45.43 435.86,-32.18 472.47,-25.57"/>
<polygon fill="black" stroke="black" points="472.76,-29.07 482.05,-23.97 471.61,-22.16 472.76,-29.07"/>
</g>
<!-- r2_node_4&#45;&gt;r2_node_15 -->
<g id="edge38" class="edge">
<title>r2_node_4&#45;&gt;r2_node_15</title>
<path fill="none" stroke="black" d="M326.44,-215.6C330.41,-181.62 344.37,-106.72 391.93,-72 403.14,-63.82 793.73,-34.95 951.15,-23.62"/>
<polygon fill="black" stroke="black" points="951.29,-27.12 961.01,-22.91 950.79,-20.13 951.29,-27.12"/>
</g>
<!-- r2_node_2 -->
<g id="node19" class="node">
<title>r2_node_2</title>
<ellipse fill="none" stroke="black" cx="530.93" cy="-378" rx="50.33" ry="18"/>
<text text-anchor="middle" x="530.93" y="-372.95" font-family="Times,serif" font-size="14.00">r2_node_2</text>
</g>
<!-- r2_node_2&#45;&gt;r2_node_16 -->
<g id="edge42" class="edge">
<title>r2_node_2&#45;&gt;r2_node_16</title>
<path fill="none" stroke="black" d="M560.83,-363.07C650.77,-321.02 913.31,-197.21 923.93,-180 932.34,-166.39 930.26,-158.7 923.93,-144 918.96,-132.45 910.09,-122.23 900.86,-113.93"/>
<polygon fill="black" stroke="black" points="903.1,-111.25 893.18,-107.55 898.63,-116.63 903.1,-111.25"/>
</g>
<!-- r2_node_2&#45;&gt;r2_node_15 -->
<g id="edge41" class="edge">
<title>r2_node_2&#45;&gt;r2_node_15</title>
<path fill="none" stroke="black" d="M575.57,-369.31C727.48,-341.99 1218.39,-243.94 1279.93,-108 1286.53,-93.42 1290.07,-84.38 1279.93,-72 1255.27,-41.9 1151.04,-28.53 1081.15,-22.87"/>
<polygon fill="black" stroke="black" points="1081.57,-19.39 1071.33,-22.11 1081.03,-26.37 1081.57,-19.39"/>
</g>
<!-- r2_node_13 -->
<g id="node20" class="node">
<title>r2_node_13</title>
<ellipse fill="none" stroke="black" cx="79.93" cy="-306" rx="54.93" ry="18"/>
<text text-anchor="middle" x="79.93" y="-300.95" font-family="Times,serif" font-size="14.00">r2_node_13</text>
</g>
<!-- r2_node_13&#45;&gt;r2_node_19 -->
<g id="edge48" class="edge">
<title>r2_node_13&#45;&gt;r2_node_19</title>
<path fill="none" stroke="black" d="M78.41,-287.54C74.23,-239.76 62.58,-106.51 57.44,-47.61"/>
<polygon fill="black" stroke="black" points="60.93,-47.4 56.57,-37.74 53.96,-48.01 60.93,-47.4"/>
</g>
<!-- r2_node_13&#45;&gt;r2_node_20 -->
<g id="edge45" class="edge">
<title>r2_node_13&#45;&gt;r2_node_20</title>
<path fill="none" stroke="black" d="M83.82,-287.78C92.33,-251.18 113.25,-167.11 130.93,-144 171.19,-91.39 240.45,-55.59 286.47,-36.22"/>
<polygon fill="black" stroke="black" points="287.74,-39.48 295.67,-32.45 285.09,-33 287.74,-39.48"/>
</g>
<!-- r2_node_13&#45;&gt;r2_node_17 -->
<g id="edge46" class="edge">
<title>r2_node_13&#45;&gt;r2_node_17</title>
<path fill="none" stroke="black" d="M98.81,-288.89C159.97,-236.7 349.25,-75.46 356.93,-72 456.48,-27.16 492.1,-53.06 599.93,-36 613.52,-33.85 628.11,-31.45 641.87,-29.14"/>
<polygon fill="black" stroke="black" points="642.41,-32.6 651.69,-27.49 641.25,-25.7 642.41,-32.6"/>
</g>
<!-- r2_node_13&#45;&gt;r2_node_18 -->
<g id="edge47" class="edge">
<title>r2_node_13&#45;&gt;r2_node_18</title>
<path fill="none" stroke="black" d="M90.61,-287.86C110.72,-256.55 156.82,-189.15 207.93,-144 253.98,-103.33 269.29,-95.79 325.93,-72 374.79,-51.49 433.48,-37.5 476.39,-29.07"/>
<polygon fill="black" stroke="black" points="476.84,-32.54 486,-27.22 475.52,-25.67 476.84,-32.54"/>
</g>
</g>
</svg>
