<?xml version="1.0" encoding="UTF-8" standalone="no"?>
<!DOCTYPE svg PUBLIC "-//W3C//DTD SVG 1.1//EN"
 "http://www.w3.org/Graphics/SVG/1.1/DTD/svg11.dtd">
<!-- Generated by graphviz version 12.2.1 (20241206.2353)
 -->
<!-- Pages: 1 -->
<svg width="246pt" height="260pt"
 viewBox="0.00 0.00 245.87 260.00" xmlns="http://www.w3.org/2000/svg" xmlns:xlink="http://www.w3.org/1999/xlink">
<g id="graph0" class="graph" transform="scale(1 1) rotate(0) translate(4 256)">
<polygon fill="white" stroke="none" points="-4,4 -4,-256 241.87,-256 241.87,4 -4,4"/>
<!-- r1_node_10 -->
<g id="node1" class="node">
<title>r1_node_10</title>
<ellipse fill="none" stroke="black" cx="118.93" cy="-234" rx="54.93" ry="18"/>
<text text-anchor="middle" x="118.93" y="-228.95" font-family="Times,serif" font-size="14.00">r1_node_10</text>
</g>
<!-- r1_node_20 -->
<g id="node2" class="node">
<title>r1_node_20</title>
<ellipse fill="none" stroke="black" cx="118.93" cy="-162" rx="54.93" ry="18"/>
<text text-anchor="middle" x="118.93" y="-156.95" font-family="Times,serif" font-size="14.00">r1_node_20</text>
</g>
<!-- r1_node_10&#45;&gt;r1_node_20 -->
<g id="edge1" class="edge">
<title>r1_node_10&#45;&gt;r1_node_20</title>
<path fill="none" stroke="black" d="M113.02,-215.7C112.27,-208.41 112.02,-199.73 112.29,-191.54"/>
<polygon fill="black" stroke="black" points="115.78,-191.82 112.94,-181.61 108.79,-191.36 115.78,-191.82"/>
</g>
<!-- r1_node_20&#45;&gt;r1_node_10 -->
<g id="edge4" class="edge">
<title>r1_node_20&#45;&gt;r1_node_10</title>
<path fill="none" stroke="black" d="M124.83,-180.1C125.59,-187.37 125.84,-196.04 125.59,-204.24"/>
<polygon fill="black" stroke="black" points="122.1,-203.98 124.95,-214.19 129.08,-204.43 122.1,-203.98"/>
</g>
<!-- r1_node_14 -->
<g id="node3" class="node">
<title>r1_node_14</title>
<ellipse fill="none" stroke="black" cx="54.93" cy="-90" rx="54.93" ry="18"/>
<text text-anchor="middle" x="54.93" y="-84.95" font-family="Times,serif" font-size="14.00">r1_node_14</text>
</g>
<!-- r1_node_20&#45;&gt;r1_node_14 -->
<g id="edge2" class="edge">
<title>r1_node_20&#45;&gt;r1_node_14</title>
<path fill="none" stroke="black" d="M98.65,-145.12C89.96,-136.68 80.04,-126.1 71.76,-116.55"/>
<polygon fill="black" stroke="black" points="74.51,-114.37 65.4,-108.96 69.14,-118.87 74.51,-114.37"/>
</g>
<!-- r1_node_12 -->
<g id="node4" class="node">
<title>r1_node_12</title>
<ellipse fill="none" stroke="black" cx="182.93" cy="-90" rx="54.93" ry="18"/>
<text text-anchor="middle" x="182.93" y="-84.95" font-family="Times,serif" font-size="14.00">r1_node_12</text>
</g>
<!-- r1_node_20&#45;&gt;r1_node_12 -->
<g id="edge3" class="edge">
<title>r1_node_20&#45;&gt;r1_node_12</title>
<path fill="none" stroke="black" d="M128.55,-144.05C135.63,-135.29 145.36,-124.45 154.69,-114.86"/>
<polygon fill="black" stroke="black" points="157.04,-117.45 161.64,-107.9 152.09,-112.5 157.04,-117.45"/>
</g>
<!-- r1_node_14&#45;&gt;r1_node_20 -->
<g id="edge7" class="edge">
<title>r1_node_14&#45;&gt;r1_node_20</title>
<path fill="none" stroke="black" d="M75.16,-106.83C83.82,-115.23 93.71,-125.77 101.98,-135.31"/>
<polygon fill="black" stroke="black" points="99.24,-137.49 108.35,-142.9 104.6,-132.99 99.24,-137.49"/>
</g>
<!-- r1_node_13 -->
<g id="node5" class="node">
<title>r1_node_13</title>
<ellipse fill="none" stroke="black" cx="56.93" cy="-18" rx="54.93" ry="18"/>
<text text-anchor="middle" x="56.93" y="-12.95" font-family="Times,serif" font-size="14.00">r1_node_13</text>
</g>
<!-- r1_node_14&#45;&gt;r1_node_13 -->
<g id="edge6" class="edge">
<title>r1_node_14&#45;&gt;r1_node_13</title>
<path fill="none" stroke="black" d="M49.51,-71.7C48.97,-64.41 48.97,-55.73 49.47,-47.54"/>
<polygon fill="black" stroke="black" points="52.95,-47.9 50.41,-37.61 45.98,-47.24 52.95,-47.9"/>
</g>
<!-- r1_node_12&#45;&gt;r1_node_20 -->
<g id="edge10" class="edge">
<title>r1_node_12&#45;&gt;r1_node_20</title>
<path fill="none" stroke="black" d="M173.44,-107.8C166.37,-116.56 156.62,-127.43 147.26,-137.06"/>
<polygon fill="black" stroke="black" points="144.88,-134.5 140.29,-144.04 149.83,-139.44 144.88,-134.5"/>
</g>
<!-- r1_node_7 -->
<g id="node6" class="node">
<title>r1_node_7</title>
<ellipse fill="none" stroke="black" cx="180.93" cy="-18" rx="50.33" ry="18"/>
<text text-anchor="middle" x="180.93" y="-12.95" font-family="Times,serif" font-size="14.00">r1_node_7</text>
</g>
<!-- r1_node_12&#45;&gt;r1_node_7 -->
<g id="edge9" class="edge">
<title>r1_node_12&#45;&gt;r1_node_7</title>
<path fill="none" stroke="black" d="M176.52,-71.7C175.56,-64.41 175.07,-55.73 175.1,-47.54"/>
<polygon fill="black" stroke="black" points="178.6,-47.74 175.47,-37.62 171.6,-47.48 178.6,-47.74"/>
</g>
<!-- r1_node_13&#45;&gt;r1_node_14 -->
<g id="edge5" class="edge">
<title>r1_node_13&#45;&gt;r1_node_14</title>
<path fill="none" stroke="black" d="M62.34,-36.1C62.89,-43.37 62.9,-52.04 62.41,-60.24"/>
<polygon fill="black" stroke="black" points="58.93,-59.91 61.48,-70.19 65.9,-60.56 58.93,-59.91"/>
</g>
<!-- r1_node_7&#45;&gt;r1_node_12 -->
<g id="edge8" class="edge">
<title>r1_node_7&#45;&gt;r1_node_12</title>
<path fill="none" stroke="black" d="M187.32,-36.1C188.29,-43.37 188.79,-52.04 188.77,-60.24"/>
<polygon fill="black" stroke="black" points="185.27,-60.07 188.41,-70.18 192.27,-60.32 185.27,-60.07"/>
</g>
</g>
</svg>
