<?xml version="1.0" encoding="UTF-8" standalone="no"?>
<!DOCTYPE svg PUBLIC "-//W3C//DTD SVG 1.1//EN"
 "http://www.w3.org/Graphics/SVG/1.1/DTD/svg11.dtd">
<!-- Generated by graphviz version 12.2.1 (20241206.2353)
 -->
<!-- Pages: 1 -->
<svg width="739pt" height="116pt"
 viewBox="0.00 0.00 739.26 116.00" xmlns="http://www.w3.org/2000/svg" xmlns:xlink="http://www.w3.org/1999/xlink">
<g id="graph0" class="graph" transform="scale(1 1) rotate(0) translate(4 112)">
<polygon fill="white" stroke="none" points="-4,4 -4,-112 735.26,-112 735.26,4 -4,4"/>
<!-- r1_node_9 -->
<g id="node1" class="node">
<title>r1_node_9</title>
<ellipse fill="none" stroke="black" cx="50.33" cy="-18" rx="50.33" ry="18"/>
<text text-anchor="middle" x="50.33" y="-12.95" font-family="Times,serif" font-size="14.00">r1_node_9</text>
</g>
<!-- r1_node_20 -->
<g id="node2" class="node">
<title>r1_node_20</title>
<ellipse fill="none" stroke="black" cx="109.33" cy="-90" rx="54.93" ry="18"/>
<text text-anchor="middle" x="109.33" y="-84.95" font-family="Times,serif" font-size="14.00">r1_node_20</text>
</g>
<!-- r1_node_20&#45;&gt;r1_node_9 -->
<g id="edge1" class="edge">
<title>r1_node_20&#45;&gt;r1_node_9</title>
<path fill="none" stroke="black" d="M95.35,-72.41C88.22,-63.95 79.4,-53.49 71.47,-44.08"/>
<polygon fill="black" stroke="black" points="74.31,-42.02 65.19,-36.63 68.95,-46.53 74.31,-42.02"/>
</g>
<!-- r1_node_7 -->
<g id="node3" class="node">
<title>r1_node_7</title>
<ellipse fill="none" stroke="black" cx="169.33" cy="-18" rx="50.33" ry="18"/>
<text text-anchor="middle" x="169.33" y="-12.95" font-family="Times,serif" font-size="14.00">r1_node_7</text>
</g>
<!-- r1_node_20&#45;&gt;r1_node_7 -->
<g id="edge2" class="edge">
<title>r1_node_20&#45;&gt;r1_node_7</title>
<path fill="none" stroke="black" d="M123.55,-72.41C130.8,-63.95 139.76,-53.49 147.83,-44.08"/>
<polygon fill="black" stroke="black" points="150.38,-46.49 154.23,-36.62 145.06,-41.93 150.38,-46.49"/>
</g>
<!-- r1_node_17 -->
<g id="node4" class="node">
<title>r1_node_17</title>
<ellipse fill="none" stroke="black" cx="292.33" cy="-18" rx="54.93" ry="18"/>
<text text-anchor="middle" x="292.33" y="-12.95" font-family="Times,serif" font-size="14.00">r1_node_17</text>
</g>
<!-- r1_node_20&#45;&gt;r1_node_17 -->
<g id="edge3" class="edge">
<title>r1_node_20&#45;&gt;r1_node_17</title>
<path fill="none" stroke="black" d="M144.18,-75.67C173.43,-64.48 215.43,-48.42 247.24,-36.25"/>
<polygon fill="black" stroke="black" points="248.1,-39.66 256.19,-32.82 245.6,-33.13 248.1,-39.66"/>
</g>
<!-- r1_node_10 -->
<g id="node5" class="node">
<title>r1_node_10</title>
<ellipse fill="none" stroke="black" cx="420.33" cy="-18" rx="54.93" ry="18"/>
<text text-anchor="middle" x="420.33" y="-12.95" font-family="Times,serif" font-size="14.00">r1_node_10</text>
</g>
<!-- r1_node_20&#45;&gt;r1_node_10 -->
<g id="edge4" class="edge">
<title>r1_node_20&#45;&gt;r1_node_10</title>
<path fill="none" stroke="black" d="M155.46,-79.8C205.19,-69.71 286.6,-52.73 356.33,-36 360.13,-35.09 364.06,-34.12 368,-33.12"/>
<polygon fill="black" stroke="black" points="368.81,-36.53 377.62,-30.64 367.07,-29.75 368.81,-36.53"/>
</g>
<!-- r1_node_13 -->
<g id="node6" class="node">
<title>r1_node_13</title>
<ellipse fill="none" stroke="black" cx="548.33" cy="-18" rx="54.93" ry="18"/>
<text text-anchor="middle" x="548.33" y="-12.95" font-family="Times,serif" font-size="14.00">r1_node_13</text>
</g>
<!-- r1_node_20&#45;&gt;r1_node_13 -->
<g id="edge5" class="edge">
<title>r1_node_20&#45;&gt;r1_node_13</title>
<path fill="none" stroke="black" d="M161.22,-83.65C233.9,-75.7 369.95,-59.19 484.33,-36 488.4,-35.17 492.59,-34.24 496.8,-33.25"/>
<polygon fill="black" stroke="black" points="497.53,-36.68 506.4,-30.89 495.86,-29.88 497.53,-36.68"/>
</g>
<!-- r1_node_18 -->
<g id="node7" class="node">
<title>r1_node_18</title>
<ellipse fill="none" stroke="black" cx="676.33" cy="-18" rx="54.93" ry="18"/>
<text text-anchor="middle" x="676.33" y="-12.95" font-family="Times,serif" font-size="14.00">r1_node_18</text>
</g>
<!-- r1_node_20&#45;&gt;r1_node_18 -->
<g id="edge6" class="edge">
<title>r1_node_20&#45;&gt;r1_node_18</title>
<path fill="none" stroke="black" d="M163.32,-86.06C255.85,-80.41 450.41,-65.85 612.33,-36 616.59,-35.21 620.99,-34.29 625.39,-33.29"/>
<polygon fill="black" stroke="black" points="625.89,-36.77 634.79,-31.01 624.24,-29.96 625.89,-36.77"/>
</g>
</g>
</svg>
