<?xml version="1.0" encoding="UTF-8" standalone="no"?>
<!DOCTYPE svg PUBLIC "-//W3C//DTD SVG 1.1//EN"
 "http://www.w3.org/Graphics/SVG/1.1/DTD/svg11.dtd">
<!-- Generated by graphviz version 12.2.1 (20241206.2353)
 -->
<!-- Pages: 1 -->
<svg width="730pt" height="116pt"
 viewBox="0.00 0.00 730.26 116.00" xmlns="http://www.w3.org/2000/svg" xmlns:xlink="http://www.w3.org/1999/xlink">
<g id="graph0" class="graph" transform="scale(1 1) rotate(0) translate(4 112)">
<polygon fill="white" stroke="none" points="-4,4 -4,-112 726.26,-112 726.26,4 -4,4"/>
<!-- r1_node_18 -->
<g id="node1" class="node">
<title>r1_node_18</title>
<ellipse fill="none" stroke="black" cx="109.33" cy="-90" rx="54.93" ry="18"/>
<text text-anchor="middle" x="109.33" y="-84.95" font-family="Times,serif" font-size="14.00">r1_node_18</text>
</g>
<!-- r1_node_1 -->
<g id="node2" class="node">
<title>r1_node_1</title>
<ellipse fill="none" stroke="black" cx="50.33" cy="-18" rx="50.33" ry="18"/>
<text text-anchor="middle" x="50.33" y="-12.95" font-family="Times,serif" font-size="14.00">r1_node_1</text>
</g>
<!-- r1_node_18&#45;&gt;r1_node_1 -->
<g id="edge1" class="edge">
<title>r1_node_18&#45;&gt;r1_node_1</title>
<path fill="none" stroke="black" d="M95.35,-72.41C88.22,-63.95 79.4,-53.49 71.47,-44.08"/>
<polygon fill="black" stroke="black" points="74.31,-42.02 65.19,-36.63 68.95,-46.53 74.31,-42.02"/>
</g>
<!-- r1_node_3 -->
<g id="node3" class="node">
<title>r1_node_3</title>
<ellipse fill="none" stroke="black" cx="169.33" cy="-18" rx="50.33" ry="18"/>
<text text-anchor="middle" x="169.33" y="-12.95" font-family="Times,serif" font-size="14.00">r1_node_3</text>
</g>
<!-- r1_node_18&#45;&gt;r1_node_3 -->
<g id="edge2" class="edge">
<title>r1_node_18&#45;&gt;r1_node_3</title>
<path fill="none" stroke="black" d="M123.55,-72.41C130.8,-63.95 139.76,-53.49 147.83,-44.08"/>
<polygon fill="black" stroke="black" points="150.38,-46.49 154.23,-36.62 145.06,-41.93 150.38,-46.49"/>
</g>
<!-- r1_node_7 -->
<g id="node4" class="node">
<title>r1_node_7</title>
<ellipse fill="none" stroke="black" cx="288.33" cy="-18" rx="50.33" ry="18"/>
<text text-anchor="middle" x="288.33" y="-12.95" font-family="Times,serif" font-size="14.00">r1_node_7</text>
</g>
<!-- r1_node_18&#45;&gt;r1_node_7 -->
<g id="edge3" class="edge">
<title>r1_node_18&#45;&gt;r1_node_7</title>
<path fill="none" stroke="black" d="M143.42,-75.67C172.18,-64.42 213.53,-48.25 244.71,-36.06"/>
<polygon fill="black" stroke="black" points="245.82,-39.38 253.86,-32.48 243.27,-32.86 245.82,-39.38"/>
</g>
<!-- r1_node_14 -->
<g id="node5" class="node">
<title>r1_node_14</title>
<ellipse fill="none" stroke="black" cx="411.33" cy="-18" rx="54.93" ry="18"/>
<text text-anchor="middle" x="411.33" y="-12.95" font-family="Times,serif" font-size="14.00">r1_node_14</text>
</g>
<!-- r1_node_18&#45;&gt;r1_node_14 -->
<g id="edge4" class="edge">
<title>r1_node_18&#45;&gt;r1_node_14</title>
<path fill="none" stroke="black" d="M154.64,-79.48C202.62,-69.27 280.5,-52.31 347.33,-36 351.13,-35.07 355.05,-34.09 358.99,-33.09"/>
<polygon fill="black" stroke="black" points="359.81,-36.49 368.61,-30.6 358.05,-29.71 359.81,-36.49"/>
</g>
<!-- r1_node_19 -->
<g id="node6" class="node">
<title>r1_node_19</title>
<ellipse fill="none" stroke="black" cx="539.33" cy="-18" rx="54.93" ry="18"/>
<text text-anchor="middle" x="539.33" y="-12.95" font-family="Times,serif" font-size="14.00">r1_node_19</text>
</g>
<!-- r1_node_18&#45;&gt;r1_node_19 -->
<g id="edge5" class="edge">
<title>r1_node_18&#45;&gt;r1_node_19</title>
<path fill="none" stroke="black" d="M160.87,-83.44C232.02,-75.34 364.15,-58.74 475.33,-36 479.4,-35.17 483.59,-34.23 487.8,-33.24"/>
<polygon fill="black" stroke="black" points="488.53,-36.66 497.4,-30.87 486.85,-29.87 488.53,-36.66"/>
</g>
<!-- r1_node_20 -->
<g id="node7" class="node">
<title>r1_node_20</title>
<ellipse fill="none" stroke="black" cx="667.33" cy="-18" rx="54.93" ry="18"/>
<text text-anchor="middle" x="667.33" y="-12.95" font-family="Times,serif" font-size="14.00">r1_node_20</text>
</g>
<!-- r1_node_18&#45;&gt;r1_node_20 -->
<g id="edge6" class="edge">
<title>r1_node_18&#45;&gt;r1_node_20</title>
<path fill="none" stroke="black" d="M163.08,-85.93C254.24,-80.12 444.73,-65.39 603.33,-36 607.59,-35.21 611.99,-34.28 616.39,-33.28"/>
<polygon fill="black" stroke="black" points="616.89,-36.76 625.78,-31 615.24,-29.95 616.89,-36.76"/>
</g>
</g>
</svg>
