<?xml version="1.0" encoding="UTF-8" standalone="no"?>
<!DOCTYPE svg PUBLIC "-//W3C//DTD SVG 1.1//EN"
 "http://www.w3.org/Graphics/SVG/1.1/DTD/svg11.dtd">
<!-- Generated by graphviz version 12.2.1 (20241206.2353)
 -->
<!-- Pages: 1 -->
<svg width="560pt" height="332pt"
 viewBox="0.00 0.00 559.87 332.00" xmlns="http://www.w3.org/2000/svg" xmlns:xlink="http://www.w3.org/1999/xlink">
<g id="graph0" class="graph" transform="scale(1 1) rotate(0) translate(4 328)">
<polygon fill="white" stroke="none" points="-4,4 -4,-328 555.87,-328 555.87,4 -4,4"/>
<!-- r2_node_28 -->
<g id="node1" class="node">
<title>r2_node_28</title>
<ellipse fill="none" stroke="black" cx="115.93" cy="-306" rx="54.93" ry="18"/>
<text text-anchor="middle" x="115.93" y="-300.95" font-family="Times,serif" font-size="14.00">r2_node_28</text>
</g>
<!-- r2_node_24 -->
<g id="node2" class="node">
<title>r2_node_24</title>
<ellipse fill="none" stroke="black" cx="54.93" cy="-162" rx="54.93" ry="18"/>
<text text-anchor="middle" x="54.93" y="-156.95" font-family="Times,serif" font-size="14.00">r2_node_24</text>
</g>
<!-- r2_node_28&#45;&gt;r2_node_24 -->
<g id="edge1" class="edge">
<title>r2_node_28&#45;&gt;r2_node_24</title>
<path fill="none" stroke="black" d="M108.58,-287.87C98.18,-263.67 79.08,-219.21 66.7,-190.39"/>
<polygon fill="black" stroke="black" points="70.08,-189.39 62.92,-181.58 63.65,-192.15 70.08,-189.39"/>
</g>
<!-- r2_node_4 -->
<g id="node3" class="node">
<title>r2_node_4</title>
<ellipse fill="none" stroke="black" cx="177.93" cy="-162" rx="50.33" ry="18"/>
<text text-anchor="middle" x="177.93" y="-156.95" font-family="Times,serif" font-size="14.00">r2_node_4</text>
</g>
<!-- r2_node_28&#45;&gt;r2_node_4 -->
<g id="edge2" class="edge">
<title>r2_node_28&#45;&gt;r2_node_4</title>
<path fill="none" stroke="black" d="M123.41,-287.87C133.98,-263.67 153.39,-219.21 165.97,-190.39"/>
<polygon fill="black" stroke="black" points="169.03,-192.14 169.82,-181.58 162.61,-189.34 169.03,-192.14"/>
</g>
<!-- r2_node_12 -->
<g id="node4" class="node">
<title>r2_node_12</title>
<ellipse fill="none" stroke="black" cx="251.93" cy="-234" rx="54.93" ry="18"/>
<text text-anchor="middle" x="251.93" y="-228.95" font-family="Times,serif" font-size="14.00">r2_node_12</text>
</g>
<!-- r2_node_28&#45;&gt;r2_node_12 -->
<g id="edge3" class="edge">
<title>r2_node_28&#45;&gt;r2_node_12</title>
<path fill="none" stroke="black" d="M140.4,-289.46C159.64,-278.92 186.74,-264.91 209.47,-253.74"/>
<polygon fill="black" stroke="black" points="210.73,-257.02 218.19,-249.49 207.67,-250.72 210.73,-257.02"/>
</g>
<!-- r2_node_11 -->
<g id="node5" class="node">
<title>r2_node_11</title>
<ellipse fill="none" stroke="black" cx="379.93" cy="-234" rx="54.93" ry="18"/>
<text text-anchor="middle" x="379.93" y="-228.95" font-family="Times,serif" font-size="14.00">r2_node_11</text>
</g>
<!-- r2_node_28&#45;&gt;r2_node_11 -->
<g id="edge4" class="edge">
<title>r2_node_28&#45;&gt;r2_node_11</title>
<path fill="none" stroke="black" d="M157.69,-293.94C198.15,-283.23 261.25,-266.51 315.93,-252 319.66,-251.01 323.5,-249.99 327.38,-248.96"/>
<polygon fill="black" stroke="black" points="328.05,-252.41 336.82,-246.46 326.25,-245.64 328.05,-252.41"/>
</g>
<!-- r2_node_12&#45;&gt;r2_node_28 -->
<g id="edge8" class="edge">
<title>r2_node_12&#45;&gt;r2_node_28</title>
<path fill="none" stroke="black" d="M227.52,-250.51C208.28,-261.06 181.15,-275.08 158.4,-286.26"/>
<polygon fill="black" stroke="black" points="157.13,-282.99 149.67,-290.51 160.19,-289.28 157.13,-282.99"/>
</g>
<!-- r2_node_8 -->
<g id="node9" class="node">
<title>r2_node_8</title>
<ellipse fill="none" stroke="black" cx="426.93" cy="-90" rx="50.33" ry="18"/>
<text text-anchor="middle" x="426.93" y="-84.95" font-family="Times,serif" font-size="14.00">r2_node_8</text>
</g>
<!-- r2_node_12&#45;&gt;r2_node_8 -->
<g id="edge5" class="edge">
<title>r2_node_12&#45;&gt;r2_node_8</title>
<path fill="none" stroke="black" d="M289.46,-220.5C295.29,-218.96 301.25,-217.43 306.93,-216 374.27,-199.09 415.87,-234.45 458.93,-180 474.01,-160.94 459.49,-135.43 445.28,-116.61"/>
<polygon fill="black" stroke="black" points="448.13,-114.58 439.18,-108.9 442.63,-118.92 448.13,-114.58"/>
</g>
<!-- r2_node_20 -->
<g id="node10" class="node">
<title>r2_node_20</title>
<ellipse fill="none" stroke="black" cx="240.93" cy="-90" rx="54.93" ry="18"/>
<text text-anchor="middle" x="240.93" y="-84.95" font-family="Times,serif" font-size="14.00">r2_node_20</text>
</g>
<!-- r2_node_12&#45;&gt;r2_node_20 -->
<g id="edge6" class="edge">
<title>r2_node_12&#45;&gt;r2_node_20</title>
<path fill="none" stroke="black" d="M246.02,-215.87C241.65,-191.99 237.95,-148.38 237.61,-119.54"/>
<polygon fill="black" stroke="black" points="241.11,-119.72 237.67,-109.7 234.11,-119.68 241.11,-119.72"/>
</g>
<!-- r2_node_17 -->
<g id="node11" class="node">
<title>r2_node_17</title>
<ellipse fill="none" stroke="black" cx="403.93" cy="-162" rx="54.93" ry="18"/>
<text text-anchor="middle" x="403.93" y="-156.95" font-family="Times,serif" font-size="14.00">r2_node_17</text>
</g>
<!-- r2_node_12&#45;&gt;r2_node_17 -->
<g id="edge7" class="edge">
<title>r2_node_12&#45;&gt;r2_node_17</title>
<path fill="none" stroke="black" d="M278.88,-217.98C301.16,-207.11 333.07,-192.36 359.14,-180.88"/>
<polygon fill="black" stroke="black" points="360.39,-184.15 368.15,-176.94 357.58,-177.74 360.39,-184.15"/>
</g>
<!-- r2_node_21 -->
<g id="node6" class="node">
<title>r2_node_21</title>
<ellipse fill="none" stroke="black" cx="496.93" cy="-18" rx="54.93" ry="18"/>
<text text-anchor="middle" x="496.93" y="-12.95" font-family="Times,serif" font-size="14.00">r2_node_21</text>
</g>
<!-- r2_node_26 -->
<g id="node7" class="node">
<title>r2_node_26</title>
<ellipse fill="none" stroke="black" cx="368.93" cy="-18" rx="54.93" ry="18"/>
<text text-anchor="middle" x="368.93" y="-12.95" font-family="Times,serif" font-size="14.00">r2_node_26</text>
</g>
<!-- r2_node_15 -->
<g id="node8" class="node">
<title>r2_node_15</title>
<ellipse fill="none" stroke="black" cx="240.93" cy="-18" rx="54.93" ry="18"/>
<text text-anchor="middle" x="240.93" y="-12.95" font-family="Times,serif" font-size="14.00">r2_node_15</text>
</g>
<!-- r2_node_8&#45;&gt;r2_node_12 -->
<g id="edge15" class="edge">
<title>r2_node_8&#45;&gt;r2_node_12</title>
<path fill="none" stroke="black" d="M449.78,-106.37C470.62,-125.14 494.98,-157.18 476.93,-180 433.87,-234.45 392.27,-199.09 324.93,-216 319.43,-217.38 313.67,-218.86 307.89,-220.35"/>
<polygon fill="black" stroke="black" points="307.1,-216.95 298.29,-222.83 308.84,-223.72 307.1,-216.95"/>
</g>
<!-- r2_node_8&#45;&gt;r2_node_21 -->
<g id="edge13" class="edge">
<title>r2_node_8&#45;&gt;r2_node_21</title>
<path fill="none" stroke="black" d="M443.17,-72.76C451.79,-64.14 462.57,-53.36 472.21,-43.73"/>
<polygon fill="black" stroke="black" points="474.63,-46.25 479.23,-36.7 469.68,-41.3 474.63,-46.25"/>
</g>
<!-- r2_node_8&#45;&gt;r2_node_26 -->
<g id="edge14" class="edge">
<title>r2_node_8&#45;&gt;r2_node_26</title>
<path fill="none" stroke="black" d="M413.19,-72.41C406.18,-63.95 397.52,-53.49 389.71,-44.08"/>
<polygon fill="black" stroke="black" points="392.62,-42.1 383.55,-36.64 387.23,-46.57 392.62,-42.1"/>
</g>
<!-- r2_node_8&#45;&gt;r2_node_17 -->
<g id="edge16" class="edge">
<title>r2_node_8&#45;&gt;r2_node_17</title>
<path fill="none" stroke="black" d="M427.17,-108.28C425.46,-115.86 422.71,-124.95 419.6,-133.43"/>
<polygon fill="black" stroke="black" points="416.38,-132.06 415.94,-142.65 422.89,-134.65 416.38,-132.06"/>
</g>
<!-- r2_node_20&#45;&gt;r2_node_12 -->
<g id="edge17" class="edge">
<title>r2_node_20&#45;&gt;r2_node_12</title>
<path fill="none" stroke="black" d="M246.84,-108.11C251.21,-131.92 254.89,-175.37 255.26,-204.22"/>
<polygon fill="black" stroke="black" points="251.76,-204.06 255.21,-214.07 258.76,-204.09 251.76,-204.06"/>
</g>
<!-- r2_node_20&#45;&gt;r2_node_26 -->
<g id="edge19" class="edge">
<title>r2_node_20&#45;&gt;r2_node_26</title>
<path fill="none" stroke="black" d="M268.39,-73.98C286.87,-63.88 311.45,-50.43 331.69,-39.37"/>
<polygon fill="black" stroke="black" points="333.1,-42.59 340.19,-34.72 329.74,-36.45 333.1,-42.59"/>
</g>
<!-- r2_node_20&#45;&gt;r2_node_17 -->
<g id="edge18" class="edge">
<title>r2_node_20&#45;&gt;r2_node_17</title>
<path fill="none" stroke="black" d="M276.61,-104C302.82,-114.6 338.26,-129.72 365.16,-141.73"/>
<polygon fill="black" stroke="black" points="363.44,-144.79 374,-145.7 366.32,-138.41 363.44,-144.79"/>
</g>
<!-- r2_node_17&#45;&gt;r2_node_12 -->
<g id="edge12" class="edge">
<title>r2_node_17&#45;&gt;r2_node_12</title>
<path fill="none" stroke="black" d="M376.8,-178.1C354.53,-188.98 322.7,-203.68 296.69,-215.14"/>
<polygon fill="black" stroke="black" points="295.47,-211.85 287.7,-219.06 298.27,-218.27 295.47,-211.85"/>
</g>
<!-- r2_node_17&#45;&gt;r2_node_15 -->
<g id="edge10" class="edge">
<title>r2_node_17&#45;&gt;r2_node_15</title>
<path fill="none" stroke="black" d="M386.24,-144.7C366.59,-126.68 333.81,-96.91 304.93,-72 293.5,-62.13 280.71,-51.47 269.6,-42.32"/>
<polygon fill="black" stroke="black" points="271.84,-39.63 261.88,-35.99 267.4,-45.04 271.84,-39.63"/>
</g>
<!-- r2_node_17&#45;&gt;r2_node_8 -->
<g id="edge9" class="edge">
<title>r2_node_17&#45;&gt;r2_node_8</title>
<path fill="none" stroke="black" d="M403.7,-143.7C405.43,-136.04 408.22,-126.85 411.36,-118.3"/>
<polygon fill="black" stroke="black" points="414.61,-119.61 415.07,-109.03 408.11,-117.01 414.61,-119.61"/>
</g>
<!-- r2_node_17&#45;&gt;r2_node_20 -->
<g id="edge11" class="edge">
<title>r2_node_17&#45;&gt;r2_node_20</title>
<path fill="none" stroke="black" d="M368.27,-148C342.11,-137.42 306.75,-122.34 279.87,-110.35"/>
<polygon fill="black" stroke="black" points="281.59,-107.28 271.04,-106.37 278.72,-113.67 281.59,-107.28"/>
</g>
</g>
</svg>
