<?xml version="1.0" encoding="UTF-8" standalone="no"?>
<!DOCTYPE svg PUBLIC "-//W3C//DTD SVG 1.1//EN"
 "http://www.w3.org/Graphics/SVG/1.1/DTD/svg11.dtd">
<!-- Generated by graphviz version 12.2.1 (20241206.2353)
 -->
<!-- Pages: 1 -->
<svg width="1057pt" height="404pt"
 viewBox="0.00 0.00 1056.99 404.00" xmlns="http://www.w3.org/2000/svg" xmlns:xlink="http://www.w3.org/1999/xlink">
<g id="graph0" class="graph" transform="scale(1 1) rotate(0) translate(4 400)">
<polygon fill="white" stroke="none" points="-4,4 -4,-400 1052.99,-400 1052.99,4 -4,4"/>
<!-- r1_node_5 -->
<g id="node1" class="node">
<title>r1_node_5</title>
<ellipse fill="none" stroke="black" cx="229.93" cy="-378" rx="50.33" ry="18"/>
<text text-anchor="middle" x="229.93" y="-372.95" font-family="Times,serif" font-size="14.00">r1_node_5</text>
</g>
<!-- r1_node_14 -->
<g id="node2" class="node">
<title>r1_node_14</title>
<ellipse fill="none" stroke="black" cx="419.93" cy="-234" rx="54.93" ry="18"/>
<text text-anchor="middle" x="419.93" y="-228.95" font-family="Times,serif" font-size="14.00">r1_node_14</text>
</g>
<!-- r1_node_5&#45;&gt;r1_node_14 -->
<g id="edge1" class="edge">
<title>r1_node_5&#45;&gt;r1_node_14</title>
<path fill="none" stroke="black" d="M237.75,-360.05C247.62,-340.31 266.32,-307.9 290.93,-288 312.91,-270.23 341.67,-257.65 366.45,-249.21"/>
<polygon fill="black" stroke="black" points="367.29,-252.62 375.72,-246.21 365.12,-245.97 367.29,-252.62"/>
</g>
<!-- r1_node_16 -->
<g id="node3" class="node">
<title>r1_node_16</title>
<ellipse fill="none" stroke="black" cx="282.93" cy="-162" rx="54.93" ry="18"/>
<text text-anchor="middle" x="282.93" y="-156.95" font-family="Times,serif" font-size="14.00">r1_node_16</text>
</g>
<!-- r1_node_6 -->
<g id="node4" class="node">
<title>r1_node_6</title>
<ellipse fill="none" stroke="black" cx="360.93" cy="-378" rx="50.33" ry="18"/>
<text text-anchor="middle" x="360.93" y="-372.95" font-family="Times,serif" font-size="14.00">r1_node_6</text>
</g>
<!-- r1_node_6&#45;&gt;r1_node_16 -->
<g id="edge5" class="edge">
<title>r1_node_6&#45;&gt;r1_node_16</title>
<path fill="none" stroke="black" d="M355.81,-359.65C351.19,-340.14 347.27,-308.52 362.93,-288 396.98,-243.4 450.39,-296.98 483.93,-252 493.5,-239.17 493.7,-228.67 483.93,-216 466.95,-193.96 397.51,-179.24 344.97,-171.02"/>
<polygon fill="black" stroke="black" points="345.61,-167.58 335.2,-169.55 344.56,-174.5 345.61,-167.58"/>
</g>
<!-- r1_node_17 -->
<g id="node5" class="node">
<title>r1_node_17</title>
<ellipse fill="none" stroke="black" cx="262.93" cy="-18" rx="54.93" ry="18"/>
<text text-anchor="middle" x="262.93" y="-12.95" font-family="Times,serif" font-size="14.00">r1_node_17</text>
</g>
<!-- r1_node_6&#45;&gt;r1_node_17 -->
<g id="edge2" class="edge">
<title>r1_node_6&#45;&gt;r1_node_17</title>
<path fill="none" stroke="black" d="M399.88,-366.3C408.73,-364.06 418.13,-361.82 426.93,-360 528.26,-339.07 562.25,-365.72 656.93,-324 714.11,-298.81 778.48,-269.94 746.93,-216 712.01,-156.28 535.89,-95.8 470.93,-72 443.14,-61.82 369.76,-43.87 318.06,-31.71"/>
<polygon fill="black" stroke="black" points="319.07,-28.35 308.53,-29.48 317.47,-35.16 319.07,-28.35"/>
</g>
<!-- r1_node_12 -->
<g id="node6" class="node">
<title>r1_node_12</title>
<ellipse fill="none" stroke="black" cx="426.93" cy="-306" rx="54.93" ry="18"/>
<text text-anchor="middle" x="426.93" y="-300.95" font-family="Times,serif" font-size="14.00">r1_node_12</text>
</g>
<!-- r1_node_6&#45;&gt;r1_node_12 -->
<g id="edge3" class="edge">
<title>r1_node_6&#45;&gt;r1_node_12</title>
<path fill="none" stroke="black" d="M371.03,-360.05C378.31,-351.35 388.26,-340.61 397.8,-331.06"/>
<polygon fill="black" stroke="black" points="400.2,-333.61 404.92,-324.12 395.31,-328.6 400.2,-333.61"/>
</g>
<!-- r1_node_13 -->
<g id="node7" class="node">
<title>r1_node_13</title>
<ellipse fill="none" stroke="black" cx="875.93" cy="-234" rx="54.93" ry="18"/>
<text text-anchor="middle" x="875.93" y="-228.95" font-family="Times,serif" font-size="14.00">r1_node_13</text>
</g>
<!-- r1_node_6&#45;&gt;r1_node_13 -->
<g id="edge4" class="edge">
<title>r1_node_6&#45;&gt;r1_node_13</title>
<path fill="none" stroke="black" d="M399.48,-366.15C408.44,-363.89 417.98,-361.68 426.93,-360 559.35,-335.14 604.58,-378.18 727.93,-324 750.44,-314.11 749.45,-301.6 769.93,-288 789.69,-274.88 813.15,-262.83 832.97,-253.54"/>
<polygon fill="black" stroke="black" points="834.26,-256.8 841.89,-249.45 831.34,-250.44 834.26,-256.8"/>
</g>
<!-- r1_node_12&#45;&gt;r1_node_6 -->
<g id="edge6" class="edge">
<title>r1_node_12&#45;&gt;r1_node_6</title>
<path fill="none" stroke="black" d="M416.96,-323.8C409.56,-332.65 399.38,-343.65 389.66,-353.35"/>
<polygon fill="black" stroke="black" points="387.49,-350.58 382.76,-360.06 392.37,-355.6 387.49,-350.58"/>
</g>
<!-- r1_node_19 -->
<g id="node9" class="node">
<title>r1_node_19</title>
<ellipse fill="none" stroke="black" cx="590.93" cy="-234" rx="54.93" ry="18"/>
<text text-anchor="middle" x="590.93" y="-228.95" font-family="Times,serif" font-size="14.00">r1_node_19</text>
</g>
<!-- r1_node_12&#45;&gt;r1_node_19 -->
<g id="edge7" class="edge">
<title>r1_node_12&#45;&gt;r1_node_19</title>
<path fill="none" stroke="black" d="M459.34,-291.17C484.63,-280.37 520.02,-265.27 547.73,-253.44"/>
<polygon fill="black" stroke="black" points="549.1,-256.66 556.93,-249.51 546.36,-250.22 549.1,-256.66"/>
</g>
<!-- r1_node_15 -->
<g id="node8" class="node">
<title>r1_node_15</title>
<ellipse fill="none" stroke="black" cx="408.93" cy="-18" rx="54.93" ry="18"/>
<text text-anchor="middle" x="408.93" y="-12.95" font-family="Times,serif" font-size="14.00">r1_node_15</text>
</g>
<!-- r1_node_1 -->
<g id="node10" class="node">
<title>r1_node_1</title>
<ellipse fill="none" stroke="black" cx="239.93" cy="-234" rx="50.33" ry="18"/>
<text text-anchor="middle" x="239.93" y="-228.95" font-family="Times,serif" font-size="14.00">r1_node_1</text>
</g>
<!-- r1_node_10 -->
<g id="node11" class="node">
<title>r1_node_10</title>
<ellipse fill="none" stroke="black" cx="220.93" cy="-90" rx="54.93" ry="18"/>
<text text-anchor="middle" x="220.93" y="-84.95" font-family="Times,serif" font-size="14.00">r1_node_10</text>
</g>
<!-- r1_node_1&#45;&gt;r1_node_10 -->
<g id="edge8" class="edge">
<title>r1_node_1&#45;&gt;r1_node_10</title>
<path fill="none" stroke="black" d="M223.88,-216.77C217.89,-206.52 212.38,-192.83 209.93,-180 206.12,-160.02 206.76,-137.06 209.5,-119.46"/>
<polygon fill="black" stroke="black" points="212.92,-120.21 211.41,-109.72 206.05,-118.86 212.92,-120.21"/>
</g>
<!-- r1_node_18 -->
<g id="node12" class="node">
<title>r1_node_18</title>
<ellipse fill="none" stroke="black" cx="54.93" cy="-162" rx="54.93" ry="18"/>
<text text-anchor="middle" x="54.93" y="-156.95" font-family="Times,serif" font-size="14.00">r1_node_18</text>
</g>
<!-- r1_node_1&#45;&gt;r1_node_18 -->
<g id="edge9" class="edge">
<title>r1_node_1&#45;&gt;r1_node_18</title>
<path fill="none" stroke="black" d="M206.43,-220.32C176.87,-209.14 133.51,-192.73 100.75,-180.33"/>
<polygon fill="black" stroke="black" points="102.08,-177.1 91.49,-176.83 99.6,-183.64 102.08,-177.1"/>
</g>
<!-- r1_node_7 -->
<g id="node13" class="node">
<title>r1_node_7</title>
<ellipse fill="none" stroke="black" cx="142.93" cy="-306" rx="50.33" ry="18"/>
<text text-anchor="middle" x="142.93" y="-300.95" font-family="Times,serif" font-size="14.00">r1_node_7</text>
</g>
<!-- r1_node_1&#45;&gt;r1_node_7 -->
<g id="edge10" class="edge">
<title>r1_node_1&#45;&gt;r1_node_7</title>
<path fill="none" stroke="black" d="M223.17,-251.29C210.78,-261.02 193.67,-273.47 178.37,-283.94"/>
<polygon fill="black" stroke="black" points="176.73,-280.82 170.4,-289.31 180.65,-286.62 176.73,-280.82"/>
</g>
<!-- r1_node_10&#45;&gt;r1_node_17 -->
<g id="edge13" class="edge">
<title>r1_node_10&#45;&gt;r1_node_17</title>
<path fill="none" stroke="black" d="M231.1,-72.05C235.9,-64.06 241.74,-54.33 247.09,-45.4"/>
<polygon fill="black" stroke="black" points="249.94,-47.46 252.08,-37.09 243.94,-43.86 249.94,-47.46"/>
</g>
<!-- r1_node_10&#45;&gt;r1_node_15 -->
<g id="edge16" class="edge">
<title>r1_node_10&#45;&gt;r1_node_15</title>
<path fill="none" stroke="black" d="M256.3,-75.83C286.49,-64.59 330.13,-48.34 363.02,-36.09"/>
<polygon fill="black" stroke="black" points="364.16,-39.41 372.31,-32.64 361.72,-32.84 364.16,-39.41"/>
</g>
<!-- r1_node_10&#45;&gt;r1_node_1 -->
<g id="edge15" class="edge">
<title>r1_node_10&#45;&gt;r1_node_1</title>
<path fill="none" stroke="black" d="M225.14,-108.24C225.29,-126.3 223.24,-155.41 227.93,-180 229.55,-188.46 232.49,-197.29 235.32,-205.26"/>
<polygon fill="black" stroke="black" points="231.93,-206.16 238.58,-214.41 238.52,-203.81 231.93,-206.16"/>
</g>
<!-- r1_node_20 -->
<g id="node16" class="node">
<title>r1_node_20</title>
<ellipse fill="none" stroke="black" cx="123.93" cy="-18" rx="54.93" ry="18"/>
<text text-anchor="middle" x="123.93" y="-12.95" font-family="Times,serif" font-size="14.00">r1_node_20</text>
</g>
<!-- r1_node_10&#45;&gt;r1_node_20 -->
<g id="edge14" class="edge">
<title>r1_node_10&#45;&gt;r1_node_20</title>
<path fill="none" stroke="black" d="M198.92,-73.12C185.9,-63.72 169.2,-51.67 154.87,-41.33"/>
<polygon fill="black" stroke="black" points="157.24,-38.72 147.09,-35.71 153.15,-44.4 157.24,-38.72"/>
</g>
<!-- r1_node_7&#45;&gt;r1_node_16 -->
<g id="edge36" class="edge">
<title>r1_node_7&#45;&gt;r1_node_16</title>
<path fill="none" stroke="black" d="M181.91,-294.31C225.78,-281.89 291.88,-261.85 298.93,-252 311.7,-234.18 305.78,-209.33 297.77,-190.42"/>
<polygon fill="black" stroke="black" points="300.97,-189.01 293.57,-181.43 294.63,-191.98 300.97,-189.01"/>
</g>
<!-- r1_node_7&#45;&gt;r1_node_19 -->
<g id="edge32" class="edge">
<title>r1_node_7&#45;&gt;r1_node_19</title>
<path fill="none" stroke="black" d="M188.45,-297.98C253.83,-287.87 378.14,-268.63 483.93,-252 499.26,-249.59 515.82,-246.97 531.22,-244.52"/>
<polygon fill="black" stroke="black" points="531.38,-248.04 540.71,-243.02 530.28,-241.13 531.38,-248.04"/>
</g>
<!-- r1_node_7&#45;&gt;r1_node_1 -->
<g id="edge35" class="edge">
<title>r1_node_7&#45;&gt;r1_node_1</title>
<path fill="none" stroke="black" d="M159.63,-288.76C172.07,-279 189.29,-266.46 204.65,-255.96"/>
<polygon fill="black" stroke="black" points="206.32,-259.05 212.67,-250.56 202.42,-253.24 206.32,-259.05"/>
</g>
<!-- r1_node_7&#45;&gt;r1_node_18 -->
<g id="edge37" class="edge">
<title>r1_node_7&#45;&gt;r1_node_18</title>
<path fill="none" stroke="black" d="M132.49,-288.15C117.34,-263.71 89.12,-218.17 71.22,-189.29"/>
<polygon fill="black" stroke="black" points="74.4,-187.77 66.16,-181.11 68.45,-191.46 74.4,-187.77"/>
</g>
<!-- r1_node_7&#45;&gt;r1_node_20 -->
<g id="edge33" class="edge">
<title>r1_node_7&#45;&gt;r1_node_20</title>
<path fill="none" stroke="black" d="M141.77,-287.54C138.6,-239.76 129.75,-106.51 125.83,-47.61"/>
<polygon fill="black" stroke="black" points="129.33,-47.49 125.18,-37.74 122.35,-47.95 129.33,-47.49"/>
</g>
<!-- r1_node_3 -->
<g id="node17" class="node">
<title>r1_node_3</title>
<ellipse fill="none" stroke="black" cx="91.93" cy="-378" rx="50.33" ry="18"/>
<text text-anchor="middle" x="91.93" y="-372.95" font-family="Times,serif" font-size="14.00">r1_node_3</text>
</g>
<!-- r1_node_7&#45;&gt;r1_node_3 -->
<g id="edge34" class="edge">
<title>r1_node_7&#45;&gt;r1_node_3</title>
<path fill="none" stroke="black" d="M136.36,-324.12C131.13,-332.5 123.87,-342.74 116.67,-351.98"/>
<polygon fill="black" stroke="black" points="114.08,-349.61 110.51,-359.59 119.52,-354.01 114.08,-349.61"/>
</g>
<!-- r1_node_4 -->
<g id="node14" class="node">
<title>r1_node_4</title>
<ellipse fill="none" stroke="black" cx="943.93" cy="-90" rx="50.33" ry="18"/>
<text text-anchor="middle" x="943.93" y="-84.95" font-family="Times,serif" font-size="14.00">r1_node_4</text>
</g>
<!-- r1_node_4&#45;&gt;r1_node_15 -->
<g id="edge12" class="edge">
<title>r1_node_4&#45;&gt;r1_node_15</title>
<path fill="none" stroke="black" d="M897.39,-82.91C800.87,-70.28 578.91,-41.24 470.62,-27.07"/>
<polygon fill="black" stroke="black" points="471.11,-23.61 460.74,-25.78 470.2,-30.55 471.11,-23.61"/>
</g>
<!-- r1_node_2 -->
<g id="node15" class="node">
<title>r1_node_2</title>
<ellipse fill="none" stroke="black" cx="485.93" cy="-378" rx="50.33" ry="18"/>
<text text-anchor="middle" x="485.93" y="-372.95" font-family="Times,serif" font-size="14.00">r1_node_2</text>
</g>
<!-- r1_node_4&#45;&gt;r1_node_2 -->
<g id="edge11" class="edge">
<title>r1_node_4&#45;&gt;r1_node_2</title>
<path fill="none" stroke="black" d="M967.56,-106.14C993.91,-127.68 1033.68,-169.72 1045.93,-216 1062.75,-279.53 1006.25,-300.34 944.93,-324 874.21,-351.29 654.93,-367.53 547.01,-373.89"/>
<polygon fill="black" stroke="black" points="546.96,-370.39 537.18,-374.46 547.37,-377.37 546.96,-370.39"/>
</g>
<!-- r1_node_2&#45;&gt;r1_node_13 -->
<g id="edge30" class="edge">
<title>r1_node_2&#45;&gt;r1_node_13</title>
<path fill="none" stroke="black" d="M536.01,-375.31C594.66,-371.65 693.52,-360.11 769.93,-324 778.99,-319.72 821.22,-283.25 849.57,-258.35"/>
<polygon fill="black" stroke="black" points="851.54,-261.28 856.73,-252.04 846.91,-256.02 851.54,-261.28"/>
</g>
<!-- r1_node_2&#45;&gt;r1_node_19 -->
<g id="edge31" class="edge">
<title>r1_node_2&#45;&gt;r1_node_19</title>
<path fill="none" stroke="black" d="M491.82,-359.76C498.78,-340.91 511.65,-310.42 528.93,-288 537.49,-276.9 548.71,-266.46 559.24,-257.82"/>
<polygon fill="black" stroke="black" points="561.36,-260.61 567.05,-251.67 557.03,-255.11 561.36,-260.61"/>
</g>
<!-- r1_node_2&#45;&gt;r1_node_4 -->
<g id="edge28" class="edge">
<title>r1_node_2&#45;&gt;r1_node_4</title>
<path fill="none" stroke="black" d="M535.49,-373.96C635.17,-367.66 855.93,-351.4 926.93,-324 988.25,-300.34 1044.75,-279.53 1027.93,-216 1017.31,-175.89 986.03,-138.96 964.59,-115.81"/>
<polygon fill="black" stroke="black" points="967.35,-113.64 957.96,-108.74 962.25,-118.43 967.35,-113.64"/>
</g>
<!-- r1_node_9 -->
<g id="node20" class="node">
<title>r1_node_9</title>
<ellipse fill="none" stroke="black" cx="876.93" cy="-306" rx="50.33" ry="18"/>
<text text-anchor="middle" x="876.93" y="-300.95" font-family="Times,serif" font-size="14.00">r1_node_9</text>
</g>
<!-- r1_node_2&#45;&gt;r1_node_9 -->
<g id="edge29" class="edge">
<title>r1_node_2&#45;&gt;r1_node_9</title>
<path fill="none" stroke="black" d="M531.5,-369.92C593.01,-360.84 705.52,-343.87 800.93,-324 808.28,-322.47 816.02,-320.68 823.68,-318.84"/>
<polygon fill="black" stroke="black" points="824.4,-322.26 833.29,-316.49 822.74,-315.46 824.4,-322.26"/>
</g>
<!-- r1_node_3&#45;&gt;r1_node_14 -->
<g id="edge20" class="edge">
<title>r1_node_3&#45;&gt;r1_node_14</title>
<path fill="none" stroke="black" d="M122.87,-363.49C145.24,-353.39 175.97,-338.81 201.93,-324 226.99,-309.71 229.96,-300.55 255.93,-288 291.15,-270.98 333.16,-257.52 365.85,-248.42"/>
<polygon fill="black" stroke="black" points="366.37,-251.91 375.09,-245.91 364.53,-245.16 366.37,-251.91"/>
</g>
<!-- r1_node_3&#45;&gt;r1_node_13 -->
<g id="edge19" class="edge">
<title>r1_node_3&#45;&gt;r1_node_13</title>
<path fill="none" stroke="black" d="M132.74,-367.1C144.96,-364.43 158.44,-361.8 170.93,-360 385.32,-329.14 448.99,-384.58 656.93,-324 689.39,-314.54 692.99,-301.61 723.93,-288 757.2,-273.37 795.89,-259.93 825.91,-250.24"/>
<polygon fill="black" stroke="black" points="826.64,-253.68 835.11,-247.31 824.52,-247.01 826.64,-253.68"/>
</g>
<!-- r1_node_3&#45;&gt;r1_node_19 -->
<g id="edge17" class="edge">
<title>r1_node_3&#45;&gt;r1_node_19</title>
<path fill="none" stroke="black" d="M126.28,-364.63C177.44,-346.45 276.86,-312.09 362.93,-288 420.78,-271.81 487.84,-256.65 534.18,-246.72"/>
<polygon fill="black" stroke="black" points="534.68,-250.2 543.73,-244.69 533.22,-243.35 534.68,-250.2"/>
</g>
<!-- r1_node_3&#45;&gt;r1_node_18 -->
<g id="edge21" class="edge">
<title>r1_node_3&#45;&gt;r1_node_18</title>
<path fill="none" stroke="black" d="M88.97,-359.85C82.62,-323.14 67.67,-236.66 59.87,-191.53"/>
<polygon fill="black" stroke="black" points="63.32,-190.98 58.17,-181.72 56.43,-192.17 63.32,-190.98"/>
</g>
<!-- r1_node_3&#45;&gt;r1_node_7 -->
<g id="edge18" class="edge">
<title>r1_node_3&#45;&gt;r1_node_7</title>
<path fill="none" stroke="black" d="M98.63,-359.7C103.87,-351.32 111.12,-341.1 118.3,-331.9"/>
<polygon fill="black" stroke="black" points="120.86,-334.3 124.43,-324.32 115.42,-329.9 120.86,-334.3"/>
</g>
<!-- r1_node_11 -->
<g id="node18" class="node">
<title>r1_node_11</title>
<ellipse fill="none" stroke="black" cx="592.93" cy="-306" rx="54.93" ry="18"/>
<text text-anchor="middle" x="592.93" y="-300.95" font-family="Times,serif" font-size="14.00">r1_node_11</text>
</g>
<!-- r1_node_11&#45;&gt;r1_node_14 -->
<g id="edge23" class="edge">
<title>r1_node_11&#45;&gt;r1_node_14</title>
<path fill="none" stroke="black" d="M559.17,-291.34C532.02,-280.35 493.66,-264.83 464.08,-252.86"/>
<polygon fill="black" stroke="black" points="465.6,-249.7 455.02,-249.2 462.98,-256.19 465.6,-249.7"/>
</g>
<!-- r1_node_11&#45;&gt;r1_node_16 -->
<g id="edge25" class="edge">
<title>r1_node_11&#45;&gt;r1_node_16</title>
<path fill="none" stroke="black" d="M616.78,-289.48C642.09,-271.13 675.79,-240.04 654.93,-216 635.12,-193.17 448.98,-175.61 347.76,-167.66"/>
<polygon fill="black" stroke="black" points="348.2,-164.19 337.96,-166.9 347.66,-171.17 348.2,-164.19"/>
</g>
<!-- r1_node_11&#45;&gt;r1_node_17 -->
<g id="edge26" class="edge">
<title>r1_node_11&#45;&gt;r1_node_17</title>
<path fill="none" stroke="black" d="M627.01,-291.46C643.76,-282.86 662.37,-269.92 671.93,-252 679.46,-237.88 680.45,-229.55 671.93,-216 630.61,-150.23 410.45,-68.95 311.35,-35.04"/>
<polygon fill="black" stroke="black" points="312.75,-31.82 302.16,-31.91 310.5,-38.45 312.75,-31.82"/>
</g>
<!-- r1_node_11&#45;&gt;r1_node_15 -->
<g id="edge24" class="edge">
<title>r1_node_11&#45;&gt;r1_node_15</title>
<path fill="none" stroke="black" d="M631.01,-292.73C669.46,-279.95 724.02,-260.62 729.93,-252 738.98,-238.8 737.75,-229.96 729.93,-216 672.26,-112.94 536.18,-57.24 461.04,-33.38"/>
<polygon fill="black" stroke="black" points="462.45,-30.15 451.86,-30.53 460.38,-36.83 462.45,-30.15"/>
</g>
<!-- r1_node_11&#45;&gt;r1_node_19 -->
<g id="edge22" class="edge">
<title>r1_node_11&#45;&gt;r1_node_19</title>
<path fill="none" stroke="black" d="M592.44,-287.7C592.23,-280.41 591.98,-271.73 591.75,-263.54"/>
<polygon fill="black" stroke="black" points="595.25,-263.51 591.47,-253.62 588.25,-263.71 595.25,-263.51"/>
</g>
<!-- r1_node_8 -->
<g id="node19" class="node">
<title>r1_node_8</title>
<ellipse fill="none" stroke="black" cx="936.93" cy="-162" rx="50.33" ry="18"/>
<text text-anchor="middle" x="936.93" y="-156.95" font-family="Times,serif" font-size="14.00">r1_node_8</text>
</g>
<!-- r1_node_8&#45;&gt;r1_node_9 -->
<g id="edge27" class="edge">
<title>r1_node_8&#45;&gt;r1_node_9</title>
<path fill="none" stroke="black" d="M972.85,-175C990.73,-183.73 1010.33,-197.31 1019.93,-216 1027.25,-230.23 1028.93,-238.77 1019.93,-252 1001.58,-278.99 967.13,-292.24 936.56,-298.74"/>
<polygon fill="black" stroke="black" points="936.17,-295.25 927,-300.56 937.48,-302.13 936.17,-295.25"/>
</g>
<!-- r1_node_9&#45;&gt;r1_node_13 -->
<g id="edge41" class="edge">
<title>r1_node_9&#45;&gt;r1_node_13</title>
<path fill="none" stroke="black" d="M876.69,-287.7C876.58,-280.41 876.46,-271.73 876.34,-263.54"/>
<polygon fill="black" stroke="black" points="879.84,-263.57 876.2,-253.62 872.84,-263.67 879.84,-263.57"/>
</g>
<!-- r1_node_9&#45;&gt;r1_node_15 -->
<g id="edge42" class="edge">
<title>r1_node_9&#45;&gt;r1_node_15</title>
<path fill="none" stroke="black" d="M915.64,-294.24C936.55,-286.24 960.55,-272.99 972.93,-252 981.07,-238.22 982.02,-229.17 972.93,-216 947.28,-178.84 919.69,-197.18 877.93,-180 841.5,-165.01 833.48,-158.71 796.93,-144 709.68,-108.88 687.5,-100.72 597.93,-72 552.45,-57.42 500.11,-42.91 462.07,-32.78"/>
<polygon fill="black" stroke="black" points="463.26,-29.47 452.7,-30.29 461.47,-36.24 463.26,-29.47"/>
</g>
<!-- r1_node_9&#45;&gt;r1_node_2 -->
<g id="edge39" class="edge">
<title>r1_node_9&#45;&gt;r1_node_2</title>
<path fill="none" stroke="black" d="M840.89,-318.97C833.66,-320.76 826.1,-322.51 818.93,-324 723.59,-343.86 611.18,-360.82 544.29,-369.9"/>
<polygon fill="black" stroke="black" points="544.09,-366.4 534.65,-371.2 545.03,-373.33 544.09,-366.4"/>
</g>
<!-- r1_node_9&#45;&gt;r1_node_20 -->
<g id="edge38" class="edge">
<title>r1_node_9&#45;&gt;r1_node_20</title>
<path fill="none" stroke="black" d="M903.62,-290.29C917.2,-281.21 932.39,-268.2 939.93,-252 946.69,-237.49 949.83,-228.57 939.93,-216 938.42,-214.07 361.2,-75.79 178.62,-32.08"/>
<polygon fill="black" stroke="black" points="179.44,-28.68 168.9,-29.76 177.81,-35.49 179.44,-28.68"/>
</g>
<!-- r1_node_9&#45;&gt;r1_node_8 -->
<g id="edge40" class="edge">
<title>r1_node_9&#45;&gt;r1_node_8</title>
<path fill="none" stroke="black" d="M922.88,-298.28C950.69,-291.63 984,-278.38 1001.93,-252 1010.93,-238.77 1009.25,-230.23 1001.93,-216 995.15,-202.8 983.39,-192.16 971.66,-183.96"/>
<polygon fill="black" stroke="black" points="973.91,-181.26 963.62,-178.74 970.1,-187.13 973.91,-181.26"/>
</g>
</g>
</svg>
