<?xml version="1.0" encoding="UTF-8" standalone="no"?>
<!DOCTYPE svg PUBLIC "-//W3C//DTD SVG 1.1//EN"
 "http://www.w3.org/Graphics/SVG/1.1/DTD/svg11.dtd">
<!-- Generated by graphviz version 12.2.1 (20241206.2353)
 -->
<!-- Pages: 1 -->
<svg width="455pt" height="188pt"
 viewBox="0.00 0.00 455.26 188.00" xmlns="http://www.w3.org/2000/svg" xmlns:xlink="http://www.w3.org/1999/xlink">
<g id="graph0" class="graph" transform="scale(1 1) rotate(0) translate(4 184)">
<polygon fill="white" stroke="none" points="-4,4 -4,-184 451.26,-184 451.26,4 -4,4"/>
<!-- r4_node_8 -->
<g id="node1" class="node">
<title>r4_node_8</title>
<ellipse fill="none" stroke="black" cx="118.93" cy="-162" rx="50.33" ry="18"/>
<text text-anchor="middle" x="118.93" y="-156.95" font-family="Times,serif" font-size="14.00">r4_node_8</text>
</g>
<!-- r4_node_16 -->
<g id="node2" class="node">
<title>r4_node_16</title>
<ellipse fill="none" stroke="black" cx="54.93" cy="-18" rx="54.93" ry="18"/>
<text text-anchor="middle" x="54.93" y="-12.95" font-family="Times,serif" font-size="14.00">r4_node_16</text>
</g>
<!-- r4_node_8&#45;&gt;r4_node_16 -->
<g id="edge1" class="edge">
<title>r4_node_8&#45;&gt;r4_node_16</title>
<path fill="none" stroke="black" d="M111.21,-143.87C100.31,-119.67 80.27,-75.21 67.28,-46.39"/>
<polygon fill="black" stroke="black" points="70.6,-45.25 63.3,-37.57 64.22,-48.12 70.6,-45.25"/>
</g>
<!-- r4_node_11 -->
<g id="node3" class="node">
<title>r4_node_11</title>
<ellipse fill="none" stroke="black" cx="182.93" cy="-18" rx="54.93" ry="18"/>
<text text-anchor="middle" x="182.93" y="-12.95" font-family="Times,serif" font-size="14.00">r4_node_11</text>
</g>
<!-- r4_node_8&#45;&gt;r4_node_11 -->
<g id="edge2" class="edge">
<title>r4_node_8&#45;&gt;r4_node_11</title>
<path fill="none" stroke="black" d="M126.65,-143.87C137.56,-119.67 157.6,-75.21 170.59,-46.39"/>
<polygon fill="black" stroke="black" points="173.65,-48.12 174.56,-37.57 167.26,-45.25 173.65,-48.12"/>
</g>
<!-- r4_node_15 -->
<g id="node4" class="node">
<title>r4_node_15</title>
<ellipse fill="none" stroke="black" cx="273.93" cy="-90" rx="54.93" ry="18"/>
<text text-anchor="middle" x="273.93" y="-84.95" font-family="Times,serif" font-size="14.00">r4_node_15</text>
</g>
<!-- r4_node_8&#45;&gt;r4_node_15 -->
<g id="edge3" class="edge">
<title>r4_node_8&#45;&gt;r4_node_15</title>
<path fill="none" stroke="black" d="M145.81,-146.33C168.72,-135.35 201.93,-120.3 228.85,-108.67"/>
<polygon fill="black" stroke="black" points="230,-111.99 237.81,-104.83 227.24,-105.55 230,-111.99"/>
</g>
<!-- r4_node_2 -->
<g id="node5" class="node">
<title>r4_node_2</title>
<ellipse fill="none" stroke="black" cx="396.93" cy="-90" rx="50.33" ry="18"/>
<text text-anchor="middle" x="396.93" y="-84.95" font-family="Times,serif" font-size="14.00">r4_node_2</text>
</g>
<!-- r4_node_8&#45;&gt;r4_node_2 -->
<g id="edge4" class="edge">
<title>r4_node_8&#45;&gt;r4_node_2</title>
<path fill="none" stroke="black" d="M160.65,-151.47C204.81,-141.25 276.49,-124.28 337.93,-108 341.23,-107.13 344.62,-106.21 348.03,-105.27"/>
<polygon fill="black" stroke="black" points="348.77,-108.69 357.46,-102.62 346.88,-101.95 348.77,-108.69"/>
</g>
<!-- r4_node_15&#45;&gt;r4_node_8 -->
<g id="edge6" class="edge">
<title>r4_node_15&#45;&gt;r4_node_8</title>
<path fill="none" stroke="black" d="M246.34,-106.01C223.08,-117.14 189.54,-132.32 162.66,-143.92"/>
<polygon fill="black" stroke="black" points="161.56,-140.58 153.74,-147.73 164.31,-147.02 161.56,-140.58"/>
</g>
<!-- r4_node_3 -->
<g id="node6" class="node">
<title>r4_node_3</title>
<ellipse fill="none" stroke="black" cx="305.93" cy="-18" rx="50.33" ry="18"/>
<text text-anchor="middle" x="305.93" y="-12.95" font-family="Times,serif" font-size="14.00">r4_node_3</text>
</g>
<!-- r4_node_15&#45;&gt;r4_node_3 -->
<g id="edge5" class="edge">
<title>r4_node_15&#45;&gt;r4_node_3</title>
<path fill="none" stroke="black" d="M281.84,-71.7C285.33,-64.07 289.52,-54.92 293.41,-46.4"/>
<polygon fill="black" stroke="black" points="296.51,-48.03 297.49,-37.48 290.14,-45.12 296.51,-48.03"/>
</g>
</g>
</svg>
