<?xml version="1.0" encoding="UTF-8" standalone="no"?>
<!DOCTYPE svg PUBLIC "-//W3C//DTD SVG 1.1//EN"
 "http://www.w3.org/Graphics/SVG/1.1/DTD/svg11.dtd">
<!-- Generated by graphviz version 12.2.1 (20241206.2353)
 -->
<!-- Pages: 1 -->
<svg width="1193pt" height="404pt"
 viewBox="0.00 0.00 1192.60 404.00" xmlns="http://www.w3.org/2000/svg" xmlns:xlink="http://www.w3.org/1999/xlink">
<g id="graph0" class="graph" transform="scale(1 1) rotate(0) translate(4 400)">
<polygon fill="white" stroke="none" points="-4,4 -4,-400 1188.6,-400 1188.6,4 -4,4"/>
<!-- r2_node_4 -->
<g id="node1" class="node">
<title>r2_node_4</title>
<ellipse fill="none" stroke="black" cx="229.93" cy="-378" rx="50.33" ry="18"/>
<text text-anchor="middle" x="229.93" y="-372.95" font-family="Times,serif" font-size="14.00">r2_node_4</text>
</g>
<!-- r2_node_11 -->
<g id="node2" class="node">
<title>r2_node_11</title>
<ellipse fill="none" stroke="black" cx="559.93" cy="-234" rx="54.93" ry="18"/>
<text text-anchor="middle" x="559.93" y="-228.95" font-family="Times,serif" font-size="14.00">r2_node_11</text>
</g>
<!-- r2_node_4&#45;&gt;r2_node_11 -->
<g id="edge1" class="edge">
<title>r2_node_4&#45;&gt;r2_node_11</title>
<path fill="none" stroke="black" d="M258.54,-362.87C315.99,-336.76 445.3,-281.07 514.45,-252.58"/>
<polygon fill="black" stroke="black" points="515.69,-255.85 523.62,-248.82 513.04,-249.38 515.69,-255.85"/>
</g>
<!-- r2_node_25 -->
<g id="node3" class="node">
<title>r2_node_25</title>
<ellipse fill="none" stroke="black" cx="383.93" cy="-18" rx="54.93" ry="18"/>
<text text-anchor="middle" x="383.93" y="-12.95" font-family="Times,serif" font-size="14.00">r2_node_25</text>
</g>
<!-- r2_node_4&#45;&gt;r2_node_25 -->
<g id="edge2" class="edge">
<title>r2_node_4&#45;&gt;r2_node_25</title>
<path fill="none" stroke="black" d="M237.86,-360.1C249.04,-336.15 269.97,-290.92 286.93,-252 319.07,-178.29 354.98,-90.52 372.74,-46.73"/>
<polygon fill="black" stroke="black" points="375.87,-48.31 376.38,-37.73 369.39,-45.69 375.87,-48.31"/>
</g>
<!-- r2_node_28 -->
<g id="node4" class="node">
<title>r2_node_28</title>
<ellipse fill="none" stroke="black" cx="454.93" cy="-162" rx="54.93" ry="18"/>
<text text-anchor="middle" x="454.93" y="-156.95" font-family="Times,serif" font-size="14.00">r2_node_28</text>
</g>
<!-- r2_node_4&#45;&gt;r2_node_28 -->
<g id="edge3" class="edge">
<title>r2_node_4&#45;&gt;r2_node_28</title>
<path fill="none" stroke="black" d="M254.92,-362.13C271.13,-352.08 292.42,-338.11 309.93,-324 345.66,-295.2 353.12,-286 383.93,-252 402.47,-231.55 421.91,-206.92 435.76,-188.76"/>
<polygon fill="black" stroke="black" points="438.29,-191.21 441.54,-181.12 432.71,-186.99 438.29,-191.21"/>
</g>
<!-- r2_node_11&#45;&gt;r2_node_4 -->
<g id="edge34" class="edge">
<title>r2_node_11&#45;&gt;r2_node_4</title>
<path fill="none" stroke="black" d="M530.69,-249.43C472.52,-275.83 342.57,-331.79 274.03,-359.99"/>
<polygon fill="black" stroke="black" points="272.9,-356.67 264.97,-363.7 275.55,-363.15 272.9,-356.67"/>
</g>
<!-- r2_node_11&#45;&gt;r2_node_28 -->
<g id="edge36" class="edge">
<title>r2_node_11&#45;&gt;r2_node_28</title>
<path fill="none" stroke="black" d="M536.37,-217.29C522.05,-207.74 503.55,-195.41 487.81,-184.91"/>
<polygon fill="black" stroke="black" points="489.94,-182.13 479.68,-179.5 486.06,-187.96 489.94,-182.13"/>
</g>
<!-- r2_node_16 -->
<g id="node20" class="node">
<title>r2_node_16</title>
<ellipse fill="none" stroke="black" cx="486.93" cy="-90" rx="54.93" ry="18"/>
<text text-anchor="middle" x="486.93" y="-84.95" font-family="Times,serif" font-size="14.00">r2_node_16</text>
</g>
<!-- r2_node_11&#45;&gt;r2_node_16 -->
<g id="edge35" class="edge">
<title>r2_node_11&#45;&gt;r2_node_16</title>
<path fill="none" stroke="black" d="M546.28,-216.33C536.15,-198.24 523,-168.65 509.93,-144 505.45,-135.55 500.22,-126.57 495.68,-118.45"/>
<polygon fill="black" stroke="black" points="498.79,-116.84 490.95,-109.71 492.63,-120.17 498.79,-116.84"/>
</g>
<!-- r2_node_5 -->
<g id="node5" class="node">
<title>r2_node_5</title>
<ellipse fill="none" stroke="black" cx="528.93" cy="-378" rx="50.33" ry="18"/>
<text text-anchor="middle" x="528.93" y="-372.95" font-family="Times,serif" font-size="14.00">r2_node_5</text>
</g>
<!-- r2_node_3 -->
<g id="node6" class="node">
<title>r2_node_3</title>
<ellipse fill="none" stroke="black" cx="871.93" cy="-306" rx="50.33" ry="18"/>
<text text-anchor="middle" x="871.93" y="-300.95" font-family="Times,serif" font-size="14.00">r2_node_3</text>
</g>
<!-- r2_node_5&#45;&gt;r2_node_3 -->
<g id="edge4" class="edge">
<title>r2_node_5&#45;&gt;r2_node_3</title>
<path fill="none" stroke="black" d="M570.75,-367.49C632.57,-354.35 748.16,-330.75 816.82,-317.24"/>
<polygon fill="black" stroke="black" points="817.21,-320.73 826.35,-315.37 815.87,-313.86 817.21,-320.73"/>
</g>
<!-- r2_node_29 -->
<g id="node7" class="node">
<title>r2_node_29</title>
<ellipse fill="none" stroke="black" cx="798.93" cy="-90" rx="54.93" ry="18"/>
<text text-anchor="middle" x="798.93" y="-84.95" font-family="Times,serif" font-size="14.00">r2_node_29</text>
</g>
<!-- r2_node_5&#45;&gt;r2_node_29 -->
<g id="edge5" class="edge">
<title>r2_node_5&#45;&gt;r2_node_29</title>
<path fill="none" stroke="black" d="M567.72,-366.15C604.28,-355.78 660.53,-339.49 708.93,-324 755.52,-309.09 765.73,-300.83 812.93,-288 891.66,-266.61 941.21,-315.09 992.93,-252 1004.78,-237.55 1003.91,-163.6 987.93,-144 950.32,-97.87 916.24,-124.11 858.93,-108 856.2,-107.23 853.39,-106.44 850.56,-105.64"/>
<polygon fill="black" stroke="black" points="851.63,-102.31 841.05,-102.96 849.72,-109.04 851.63,-102.31"/>
</g>
<!-- r2_node_14 -->
<g id="node8" class="node">
<title>r2_node_14</title>
<ellipse fill="none" stroke="black" cx="644.93" cy="-306" rx="54.93" ry="18"/>
<text text-anchor="middle" x="644.93" y="-300.95" font-family="Times,serif" font-size="14.00">r2_node_14</text>
</g>
<!-- r2_node_5&#45;&gt;r2_node_14 -->
<g id="edge6" class="edge">
<title>r2_node_5&#45;&gt;r2_node_14</title>
<path fill="none" stroke="black" d="M549.5,-361.12C565.1,-350.99 586.84,-337.8 605.68,-326.97"/>
<polygon fill="black" stroke="black" points="607.22,-330.12 614.19,-322.14 603.76,-324.03 607.22,-330.12"/>
</g>
<!-- r2_node_3&#45;&gt;r2_node_5 -->
<g id="edge50" class="edge">
<title>r2_node_3&#45;&gt;r2_node_5</title>
<path fill="none" stroke="black" d="M830.32,-316.47C768.58,-329.59 652.9,-353.21 584.15,-366.74"/>
<polygon fill="black" stroke="black" points="583.75,-363.25 574.61,-368.61 585.1,-370.12 583.75,-363.25"/>
</g>
<!-- r2_node_24 -->
<g id="node18" class="node">
<title>r2_node_24</title>
<ellipse fill="none" stroke="black" cx="1097.93" cy="-234" rx="54.93" ry="18"/>
<text text-anchor="middle" x="1097.93" y="-228.95" font-family="Times,serif" font-size="14.00">r2_node_24</text>
</g>
<!-- r2_node_3&#45;&gt;r2_node_24 -->
<g id="edge49" class="edge">
<title>r2_node_3&#45;&gt;r2_node_24</title>
<path fill="none" stroke="black" d="M909.25,-293.44C947.23,-281.68 1006.32,-263.38 1048.24,-250.39"/>
<polygon fill="black" stroke="black" points="1049.08,-253.8 1057.6,-247.49 1047.01,-247.11 1049.08,-253.8"/>
</g>
<!-- r2_node_21 -->
<g id="node21" class="node">
<title>r2_node_21</title>
<ellipse fill="none" stroke="black" cx="898.93" cy="-18" rx="54.93" ry="18"/>
<text text-anchor="middle" x="898.93" y="-12.95" font-family="Times,serif" font-size="14.00">r2_node_21</text>
</g>
<!-- r2_node_3&#45;&gt;r2_node_21 -->
<g id="edge48" class="edge">
<title>r2_node_3&#45;&gt;r2_node_21</title>
<path fill="none" stroke="black" d="M909.21,-293.49C916.38,-291.5 923.86,-289.56 930.93,-288 981.66,-276.79 1127.6,-290.99 1161.93,-252 1193.66,-215.97 1189.64,-184.55 1163.93,-144 1119.23,-73.48 1022.9,-42 959.54,-28.49"/>
<polygon fill="black" stroke="black" points="960.48,-25.11 949.98,-26.55 959.08,-31.97 960.48,-25.11"/>
</g>
<!-- r2_node_14&#45;&gt;r2_node_5 -->
<g id="edge15" class="edge">
<title>r2_node_14&#45;&gt;r2_node_5</title>
<path fill="none" stroke="black" d="M624.03,-323.1C608.33,-333.27 586.56,-346.48 567.76,-357.28"/>
<polygon fill="black" stroke="black" points="566.25,-354.11 559.27,-362.09 569.7,-360.2 566.25,-354.11"/>
</g>
<!-- r2_node_2 -->
<g id="node16" class="node">
<title>r2_node_2</title>
<ellipse fill="none" stroke="black" cx="933.93" cy="-234" rx="50.33" ry="18"/>
<text text-anchor="middle" x="933.93" y="-228.95" font-family="Times,serif" font-size="14.00">r2_node_2</text>
</g>
<!-- r2_node_14&#45;&gt;r2_node_2 -->
<g id="edge13" class="edge">
<title>r2_node_14&#45;&gt;r2_node_2</title>
<path fill="none" stroke="black" d="M685.6,-293.59C728.16,-282.91 796.58,-266.46 855.93,-252 863.51,-250.15 871.55,-248.18 879.5,-246.26"/>
<polygon fill="black" stroke="black" points="880.25,-249.68 889.15,-243.95 878.61,-242.88 880.25,-249.68"/>
</g>
<!-- r2_node_22 -->
<g id="node17" class="node">
<title>r2_node_22</title>
<ellipse fill="none" stroke="black" cx="905.93" cy="-162" rx="54.93" ry="18"/>
<text text-anchor="middle" x="905.93" y="-156.95" font-family="Times,serif" font-size="14.00">r2_node_22</text>
</g>
<!-- r2_node_14&#45;&gt;r2_node_22 -->
<g id="edge14" class="edge">
<title>r2_node_14&#45;&gt;r2_node_22</title>
<path fill="none" stroke="black" d="M693.96,-297.44C731.17,-290.08 782.48,-276.33 821.93,-252 848.35,-235.71 871.98,-209.02 887.39,-189.12"/>
<polygon fill="black" stroke="black" points="890.15,-191.27 893.36,-181.17 884.56,-187.06 890.15,-191.27"/>
</g>
<!-- r2_node_10 -->
<g id="node9" class="node">
<title>r2_node_10</title>
<ellipse fill="none" stroke="black" cx="382.93" cy="-378" rx="54.93" ry="18"/>
<text text-anchor="middle" x="382.93" y="-372.95" font-family="Times,serif" font-size="14.00">r2_node_10</text>
</g>
<!-- r2_node_19 -->
<g id="node10" class="node">
<title>r2_node_19</title>
<ellipse fill="none" stroke="black" cx="537.93" cy="-18" rx="54.93" ry="18"/>
<text text-anchor="middle" x="537.93" y="-12.95" font-family="Times,serif" font-size="14.00">r2_node_19</text>
</g>
<!-- r2_node_10&#45;&gt;r2_node_19 -->
<g id="edge7" class="edge">
<title>r2_node_10&#45;&gt;r2_node_19</title>
<path fill="none" stroke="black" d="M399.08,-360.44C419.44,-340.49 456.33,-307.24 493.93,-288 547.3,-260.69 587.64,-299.72 623.93,-252 649.51,-218.38 585.56,-99.73 554.14,-45.91"/>
<polygon fill="black" stroke="black" points="557.19,-44.19 549.09,-37.35 551.16,-47.75 557.19,-44.19"/>
</g>
<!-- r2_node_9 -->
<g id="node11" class="node">
<title>r2_node_9</title>
<ellipse fill="none" stroke="black" cx="762.93" cy="-234" rx="50.33" ry="18"/>
<text text-anchor="middle" x="762.93" y="-228.95" font-family="Times,serif" font-size="14.00">r2_node_9</text>
</g>
<!-- r2_node_10&#45;&gt;r2_node_9 -->
<g id="edge8" class="edge">
<title>r2_node_10&#45;&gt;r2_node_9</title>
<path fill="none" stroke="black" d="M407.61,-361.45C443.43,-342.5 511.46,-310.27 571.93,-288 617.19,-271.33 670.27,-256.38 709.07,-246.64"/>
<polygon fill="black" stroke="black" points="709.79,-250.07 718.66,-244.28 708.11,-243.27 709.79,-250.07"/>
</g>
<!-- r2_node_9&#45;&gt;r2_node_10 -->
<g id="edge17" class="edge">
<title>r2_node_9&#45;&gt;r2_node_10</title>
<path fill="none" stroke="black" d="M725.11,-246.25C689.69,-255.98 635.79,-271.11 589.93,-288 532.35,-309.21 467.92,-339.44 426.33,-358.64"/>
<polygon fill="black" stroke="black" points="425,-355.4 417.38,-362.76 427.93,-361.76 425,-355.4"/>
</g>
<!-- r2_node_1 -->
<g id="node19" class="node">
<title>r2_node_1</title>
<ellipse fill="none" stroke="black" cx="782.93" cy="-162" rx="50.33" ry="18"/>
<text text-anchor="middle" x="782.93" y="-156.95" font-family="Times,serif" font-size="14.00">r2_node_1</text>
</g>
<!-- r2_node_9&#45;&gt;r2_node_1 -->
<g id="edge16" class="edge">
<title>r2_node_9&#45;&gt;r2_node_1</title>
<path fill="none" stroke="black" d="M761.96,-215.7C763.36,-208.04 765.76,-198.85 768.53,-190.3"/>
<polygon fill="black" stroke="black" points="771.77,-191.64 771.83,-181.05 765.18,-189.29 771.77,-191.64"/>
</g>
<!-- r2_node_12 -->
<g id="node12" class="node">
<title>r2_node_12</title>
<ellipse fill="none" stroke="black" cx="54.93" cy="-378" rx="54.93" ry="18"/>
<text text-anchor="middle" x="54.93" y="-372.95" font-family="Times,serif" font-size="14.00">r2_node_12</text>
</g>
<!-- r2_node_12&#45;&gt;r2_node_28 -->
<g id="edge12" class="edge">
<title>r2_node_12&#45;&gt;r2_node_28</title>
<path fill="none" stroke="black" d="M101.64,-368.16C139.24,-359.92 192.75,-345.62 235.93,-324 307.47,-288.18 315.26,-263.09 379.93,-216 393.94,-205.81 409.56,-194.72 422.91,-185.33"/>
<polygon fill="black" stroke="black" points="424.75,-188.31 430.93,-179.71 420.73,-182.58 424.75,-188.31"/>
</g>
<!-- r2_node_8 -->
<g id="node13" class="node">
<title>r2_node_8</title>
<ellipse fill="none" stroke="black" cx="176.93" cy="-306" rx="50.33" ry="18"/>
<text text-anchor="middle" x="176.93" y="-300.95" font-family="Times,serif" font-size="14.00">r2_node_8</text>
</g>
<!-- r2_node_12&#45;&gt;r2_node_8 -->
<g id="edge9" class="edge">
<title>r2_node_12&#45;&gt;r2_node_8</title>
<path fill="none" stroke="black" d="M76.86,-361.12C93.63,-350.81 117.03,-337.32 137.04,-326.38"/>
<polygon fill="black" stroke="black" points="138.68,-329.48 145.81,-321.65 135.35,-323.32 138.68,-329.48"/>
</g>
<!-- r2_node_20 -->
<g id="node14" class="node">
<title>r2_node_20</title>
<ellipse fill="none" stroke="black" cx="85.93" cy="-18" rx="54.93" ry="18"/>
<text text-anchor="middle" x="85.93" y="-12.95" font-family="Times,serif" font-size="14.00">r2_node_20</text>
</g>
<!-- r2_node_12&#45;&gt;r2_node_20 -->
<g id="edge10" class="edge">
<title>r2_node_12&#45;&gt;r2_node_20</title>
<path fill="none" stroke="black" d="M56.43,-359.73C61.39,-302.43 77.35,-118.18 83.49,-47.22"/>
<polygon fill="black" stroke="black" points="86.95,-47.87 84.32,-37.6 79.97,-47.26 86.95,-47.87"/>
</g>
<!-- r2_node_17 -->
<g id="node15" class="node">
<title>r2_node_17</title>
<ellipse fill="none" stroke="black" cx="155.93" cy="-234" rx="54.93" ry="18"/>
<text text-anchor="middle" x="155.93" y="-228.95" font-family="Times,serif" font-size="14.00">r2_node_17</text>
</g>
<!-- r2_node_12&#45;&gt;r2_node_17 -->
<g id="edge11" class="edge">
<title>r2_node_12&#45;&gt;r2_node_17</title>
<path fill="none" stroke="black" d="M60.26,-359.92C70.64,-341.98 91.14,-312.98 108.93,-288 115.47,-278.83 122.66,-268.78 129.54,-259.93"/>
<polygon fill="black" stroke="black" points="132.06,-262.38 135.61,-252.4 126.61,-257.99 132.06,-262.38"/>
</g>
<!-- r2_node_8&#45;&gt;r2_node_12 -->
<g id="edge37" class="edge">
<title>r2_node_8&#45;&gt;r2_node_12</title>
<path fill="none" stroke="black" d="M155.58,-322.53C138.92,-332.79 115.48,-346.32 95.36,-357.33"/>
<polygon fill="black" stroke="black" points="93.95,-354.11 86.82,-361.95 97.28,-360.27 93.95,-354.11"/>
</g>
<!-- r2_node_8&#45;&gt;r2_node_17 -->
<g id="edge38" class="edge">
<title>r2_node_8&#45;&gt;r2_node_17</title>
<path fill="none" stroke="black" d="M165.97,-288.05C162.94,-280.6 160,-271.64 157.76,-263.22"/>
<polygon fill="black" stroke="black" points="161.23,-262.69 155.55,-253.75 154.42,-264.28 161.23,-262.69"/>
</g>
<!-- r2_node_8&#45;&gt;r2_node_21 -->
<g id="edge39" class="edge">
<title>r2_node_8&#45;&gt;r2_node_21</title>
<path fill="none" stroke="black" d="M191.48,-288.59C235.21,-239.71 365.94,-96.94 422.93,-72 577.14,-4.53 633.09,-58.26 799.93,-36 813.24,-34.23 827.49,-31.98 840.91,-29.71"/>
<polygon fill="black" stroke="black" points="841.21,-33.21 850.47,-28.06 840.02,-26.31 841.21,-33.21"/>
</g>
<!-- r2_node_26 -->
<g id="node25" class="node">
<title>r2_node_26</title>
<ellipse fill="none" stroke="black" cx="241.93" cy="-18" rx="54.93" ry="18"/>
<text text-anchor="middle" x="241.93" y="-12.95" font-family="Times,serif" font-size="14.00">r2_node_26</text>
</g>
<!-- r2_node_8&#45;&gt;r2_node_26 -->
<g id="edge40" class="edge">
<title>r2_node_8&#45;&gt;r2_node_26</title>
<path fill="none" stroke="black" d="M208.72,-291.85C226.63,-282.98 248.1,-269.66 261.93,-252 303.44,-199 298.36,-174.49 308.93,-108 311.45,-92.2 315.9,-86.4 308.93,-72 302.73,-59.17 291.74,-48.51 280.43,-40.19"/>
<polygon fill="black" stroke="black" points="282.45,-37.33 272.21,-34.61 278.52,-43.12 282.45,-37.33"/>
</g>
<!-- r2_node_17&#45;&gt;r2_node_12 -->
<g id="edge44" class="edge">
<title>r2_node_17&#45;&gt;r2_node_12</title>
<path fill="none" stroke="black" d="M151.41,-252.17C145.14,-262.53 135.47,-276.01 126.93,-288 111.59,-309.53 94.24,-334.06 80.18,-351.9"/>
<polygon fill="black" stroke="black" points="77.68,-349.43 74.1,-359.4 83.12,-353.83 77.68,-349.43"/>
</g>
<!-- r2_node_17&#45;&gt;r2_node_8 -->
<g id="edge41" class="edge">
<title>r2_node_17&#45;&gt;r2_node_8</title>
<path fill="none" stroke="black" d="M166.96,-252.1C169.94,-259.45 172.82,-268.24 175.04,-276.53"/>
<polygon fill="black" stroke="black" points="171.62,-277.29 177.31,-286.22 178.43,-275.69 171.62,-277.29"/>
</g>
<!-- r2_node_17&#45;&gt;r2_node_20 -->
<g id="edge43" class="edge">
<title>r2_node_17&#45;&gt;r2_node_20</title>
<path fill="none" stroke="black" d="M150.32,-215.85C138.27,-178.99 109.79,-91.92 95.08,-46.96"/>
<polygon fill="black" stroke="black" points="98.48,-46.09 92.04,-37.67 91.82,-48.26 98.48,-46.09"/>
</g>
<!-- r2_node_15 -->
<g id="node24" class="node">
<title>r2_node_15</title>
<ellipse fill="none" stroke="black" cx="205.93" cy="-162" rx="54.93" ry="18"/>
<text text-anchor="middle" x="205.93" y="-156.95" font-family="Times,serif" font-size="14.00">r2_node_15</text>
</g>
<!-- r2_node_17&#45;&gt;r2_node_15 -->
<g id="edge42" class="edge">
<title>r2_node_17&#45;&gt;r2_node_15</title>
<path fill="none" stroke="black" d="M162.38,-215.7C167.5,-207.32 174.61,-197.1 181.66,-187.9"/>
<polygon fill="black" stroke="black" points="184.19,-190.34 187.67,-180.33 178.71,-185.98 184.19,-190.34"/>
</g>
<!-- r2_node_2&#45;&gt;r2_node_14 -->
<g id="edge47" class="edge">
<title>r2_node_2&#45;&gt;r2_node_14</title>
<path fill="none" stroke="black" d="M896.43,-246.46C888.99,-248.32 881.25,-250.22 873.93,-252 815.4,-266.26 748.04,-282.46 701.51,-293.15"/>
<polygon fill="black" stroke="black" points="700.89,-289.7 691.92,-295.34 702.44,-296.53 700.89,-289.7"/>
</g>
<!-- r2_node_7 -->
<g id="node26" class="node">
<title>r2_node_7</title>
<ellipse fill="none" stroke="black" cx="1104.93" cy="-162" rx="50.33" ry="18"/>
<text text-anchor="middle" x="1104.93" y="-156.95" font-family="Times,serif" font-size="14.00">r2_node_7</text>
</g>
<!-- r2_node_2&#45;&gt;r2_node_7 -->
<g id="edge46" class="edge">
<title>r2_node_2&#45;&gt;r2_node_7</title>
<path fill="none" stroke="black" d="M962.99,-218.83C989.42,-207.4 1028.66,-191.3 1059.25,-179.32"/>
<polygon fill="black" stroke="black" points="1060.21,-182.71 1068.26,-175.82 1057.67,-176.18 1060.21,-182.71"/>
</g>
<!-- r2_node_30 -->
<g id="node27" class="node">
<title>r2_node_30</title>
<ellipse fill="none" stroke="black" cx="652.93" cy="-90" rx="54.93" ry="18"/>
<text text-anchor="middle" x="652.93" y="-84.95" font-family="Times,serif" font-size="14.00">r2_node_30</text>
</g>
<!-- r2_node_2&#45;&gt;r2_node_30 -->
<g id="edge45" class="edge">
<title>r2_node_2&#45;&gt;r2_node_30</title>
<path fill="none" stroke="black" d="M949.94,-216.55C966.72,-197.31 988.28,-165.37 969.93,-144 935.52,-103.91 786.93,-117.37 734.93,-108 726.58,-106.49 717.76,-104.79 709.14,-103.06"/>
<polygon fill="black" stroke="black" points="709.95,-99.65 699.45,-101.08 708.55,-106.51 709.95,-99.65"/>
</g>
<!-- r2_node_1&#45;&gt;r2_node_29 -->
<g id="edge31" class="edge">
<title>r2_node_1&#45;&gt;r2_node_29</title>
<path fill="none" stroke="black" d="M786.89,-143.7C788.57,-136.32 790.59,-127.52 792.48,-119.25"/>
<polygon fill="black" stroke="black" points="795.87,-120.11 794.69,-109.58 789.05,-118.55 795.87,-120.11"/>
</g>
<!-- r2_node_1&#45;&gt;r2_node_9 -->
<g id="edge33" class="edge">
<title>r2_node_1&#45;&gt;r2_node_9</title>
<path fill="none" stroke="black" d="M783.91,-180.28C782.53,-187.86 780.16,-196.95 777.42,-205.43"/>
<polygon fill="black" stroke="black" points="774.21,-204.03 774.16,-214.63 780.8,-206.37 774.21,-204.03"/>
</g>
<!-- r2_node_1&#45;&gt;r2_node_30 -->
<g id="edge32" class="edge">
<title>r2_node_1&#45;&gt;r2_node_30</title>
<path fill="none" stroke="black" d="M756,-146.5C737.08,-136.31 711.52,-122.55 690.59,-111.27"/>
<polygon fill="black" stroke="black" points="692.53,-108.35 682.07,-106.69 689.21,-114.51 692.53,-108.35"/>
</g>
<!-- r2_node_16&#45;&gt;r2_node_11 -->
<g id="edge20" class="edge">
<title>r2_node_16&#45;&gt;r2_node_11</title>
<path fill="none" stroke="black" d="M505.27,-107.43C512.99,-117.77 521.29,-131.46 527.93,-144 538.52,-163.97 549.17,-187.19 555.7,-204.91"/>
<polygon fill="black" stroke="black" points="552.33,-205.89 558.86,-214.23 558.96,-203.64 552.33,-205.89"/>
</g>
<!-- r2_node_16&#45;&gt;r2_node_21 -->
<g id="edge18" class="edge">
<title>r2_node_16&#45;&gt;r2_node_21</title>
<path fill="none" stroke="black" d="M534.93,-80.91C596.36,-70.54 706.08,-52 799.93,-36 812.83,-33.8 826.67,-31.43 839.79,-29.18"/>
<polygon fill="black" stroke="black" points="840.35,-32.64 849.61,-27.49 839.16,-25.74 840.35,-32.64"/>
</g>
<!-- r2_node_23 -->
<g id="node22" class="node">
<title>r2_node_23</title>
<ellipse fill="none" stroke="black" cx="735.93" cy="-18" rx="54.93" ry="18"/>
<text text-anchor="middle" x="735.93" y="-12.95" font-family="Times,serif" font-size="14.00">r2_node_23</text>
</g>
<!-- r2_node_16&#45;&gt;r2_node_23 -->
<g id="edge19" class="edge">
<title>r2_node_16&#45;&gt;r2_node_23</title>
<path fill="none" stroke="black" d="M527.77,-77.52C570.47,-65.52 637.61,-46.64 684.04,-33.59"/>
<polygon fill="black" stroke="black" points="684.94,-36.97 693.62,-30.9 683.04,-30.23 684.94,-36.97"/>
</g>
<!-- r2_node_18 -->
<g id="node23" class="node">
<title>r2_node_18</title>
<ellipse fill="none" stroke="black" cx="244.93" cy="-90" rx="54.93" ry="18"/>
<text text-anchor="middle" x="244.93" y="-84.95" font-family="Times,serif" font-size="14.00">r2_node_18</text>
</g>
<!-- r2_node_18&#45;&gt;r2_node_25 -->
<g id="edge22" class="edge">
<title>r2_node_18&#45;&gt;r2_node_25</title>
<path fill="none" stroke="black" d="M274.07,-74.33C294.55,-64.01 322.19,-50.1 344.62,-38.8"/>
<polygon fill="black" stroke="black" points="346.12,-41.96 353.48,-34.34 342.98,-35.71 346.12,-41.96"/>
</g>
<!-- r2_node_18&#45;&gt;r2_node_19 -->
<g id="edge21" class="edge">
<title>r2_node_18&#45;&gt;r2_node_19</title>
<path fill="none" stroke="black" d="M287.62,-78.42C296.32,-76.28 305.42,-74.06 313.93,-72 371.59,-58.08 437.69,-42.48 483.05,-31.84"/>
<polygon fill="black" stroke="black" points="483.71,-35.28 492.65,-29.59 482.12,-28.46 483.71,-35.28"/>
</g>
<!-- r2_node_18&#45;&gt;r2_node_15 -->
<g id="edge23" class="edge">
<title>r2_node_18&#45;&gt;r2_node_15</title>
<path fill="none" stroke="black" d="M241.14,-108.45C237.51,-116.44 232.34,-126.08 227.02,-134.92"/>
<polygon fill="black" stroke="black" points="224.21,-132.81 221.83,-143.13 230.13,-136.55 224.21,-132.81"/>
</g>
<!-- r2_node_15&#45;&gt;r2_node_17 -->
<g id="edge24" class="edge">
<title>r2_node_15&#45;&gt;r2_node_17</title>
<path fill="none" stroke="black" d="M199.6,-180.12C194.49,-188.5 187.38,-198.74 180.31,-207.98"/>
<polygon fill="black" stroke="black" points="177.75,-205.57 174.27,-215.58 183.23,-209.92 177.75,-205.57"/>
</g>
<!-- r2_node_15&#45;&gt;r2_node_18 -->
<g id="edge25" class="edge">
<title>r2_node_15&#45;&gt;r2_node_18</title>
<path fill="none" stroke="black" d="M209.66,-143.7C213.29,-135.7 218.47,-126.02 223.81,-117.15"/>
<polygon fill="black" stroke="black" points="226.64,-119.23 229.02,-108.9 220.72,-115.49 226.64,-119.23"/>
</g>
<!-- r2_node_15&#45;&gt;r2_node_26 -->
<g id="edge26" class="edge">
<title>r2_node_15&#45;&gt;r2_node_26</title>
<path fill="none" stroke="black" d="M194.34,-144.06C183.35,-125.74 170.02,-95.95 180.93,-72 186.52,-59.76 196.48,-49.25 206.75,-40.89"/>
<polygon fill="black" stroke="black" points="208.66,-43.84 214.55,-35.03 204.46,-38.24 208.66,-43.84"/>
</g>
<!-- r2_node_7&#45;&gt;r2_node_19 -->
<g id="edge28" class="edge">
<title>r2_node_7&#45;&gt;r2_node_19</title>
<path fill="none" stroke="black" d="M1065.33,-150.48C1057.26,-148.33 1048.82,-146.09 1040.93,-144 980.5,-127.97 960.29,-137.08 904.93,-108 883.17,-96.57 885.23,-82.36 862.93,-72 839.49,-61.1 686.93,-39.15 599.41,-27.2"/>
<polygon fill="black" stroke="black" points="599.91,-23.73 589.53,-25.85 598.97,-30.67 599.91,-23.73"/>
</g>
<!-- r2_node_7&#45;&gt;r2_node_2 -->
<g id="edge27" class="edge">
<title>r2_node_7&#45;&gt;r2_node_2</title>
<path fill="none" stroke="black" d="M1076.03,-177.1C1049.55,-188.56 1010.11,-204.74 979.44,-216.75"/>
<polygon fill="black" stroke="black" points="978.45,-213.38 970.4,-220.26 980.99,-219.9 978.45,-213.38"/>
</g>
<!-- r2_node_7&#45;&gt;r2_node_21 -->
<g id="edge29" class="edge">
<title>r2_node_7&#45;&gt;r2_node_21</title>
<path fill="none" stroke="black" d="M1079.03,-146.09C1061.51,-135.8 1038,-121.57 1017.93,-108 986.43,-86.69 951.74,-60.41 927.99,-41.95"/>
<polygon fill="black" stroke="black" points="930.37,-39.37 920.33,-35.97 926.06,-44.88 930.37,-39.37"/>
</g>
<!-- r2_node_7&#45;&gt;r2_node_23 -->
<g id="edge30" class="edge">
<title>r2_node_7&#45;&gt;r2_node_23</title>
<path fill="none" stroke="black" d="M1068.22,-149.32C1039.29,-139.62 998.25,-124.73 963.93,-108 936.32,-94.54 932.91,-84.69 904.93,-72 867.95,-55.22 824.15,-41.65 790.4,-32.44"/>
<polygon fill="black" stroke="black" points="791.4,-29.08 780.83,-29.88 789.59,-35.85 791.4,-29.08"/>
</g>
<!-- r2_node_6 -->
<g id="node28" class="node">
<title>r2_node_6</title>
<ellipse fill="none" stroke="black" cx="680.93" cy="-378" rx="50.33" ry="18"/>
<text text-anchor="middle" x="680.93" y="-372.95" font-family="Times,serif" font-size="14.00">r2_node_6</text>
</g>
<!-- r2_node_13 -->
<g id="node29" class="node">
<title>r2_node_13</title>
<ellipse fill="none" stroke="black" cx="819.93" cy="-378" rx="54.93" ry="18"/>
<text text-anchor="middle" x="819.93" y="-372.95" font-family="Times,serif" font-size="14.00">r2_node_13</text>
</g>
<!-- r2_node_27 -->
<g id="node30" class="node">
<title>r2_node_27</title>
<ellipse fill="none" stroke="black" cx="994.93" cy="-306" rx="54.93" ry="18"/>
<text text-anchor="middle" x="994.93" y="-300.95" font-family="Times,serif" font-size="14.00">r2_node_27</text>
</g>
<!-- r2_node_13&#45;&gt;r2_node_27 -->
<g id="edge51" class="edge">
<title>r2_node_13&#45;&gt;r2_node_27</title>
<path fill="none" stroke="black" d="M853.68,-363.5C881.19,-352.5 920.27,-336.86 950.36,-324.83"/>
<polygon fill="black" stroke="black" points="951.61,-328.1 959.59,-321.14 949.01,-321.6 951.61,-328.1"/>
</g>
</g>
</svg>
