<?xml version="1.0" encoding="UTF-8" standalone="no"?>
<!DOCTYPE svg PUBLIC "-//W3C//DTD SVG 1.1//EN"
 "http://www.w3.org/Graphics/SVG/1.1/DTD/svg11.dtd">
<!-- Generated by graphviz version 12.2.1 (20241206.2353)
 -->
<!-- Pages: 1 -->
<svg width="628pt" height="1340pt"
 viewBox="0.00 0.00 628.42 1340.00" xmlns="http://www.w3.org/2000/svg" xmlns:xlink="http://www.w3.org/1999/xlink">
<g id="graph0" class="graph" transform="scale(1 1) rotate(0) translate(4 1336)">
<polygon fill="white" stroke="none" points="-4,4 -4,-1336 624.42,-1336 624.42,4 -4,4"/>
<!-- r3_node_16 -->
<g id="node1" class="node">
<title>r3_node_16</title>
<ellipse fill="none" stroke="black" cx="207.93" cy="-1314" rx="54.93" ry="18"/>
<text text-anchor="middle" x="207.93" y="-1308.95" font-family="Times,serif" font-size="14.00">r3_node_16</text>
</g>
<!-- r3_node_2 -->
<g id="node2" class="node">
<title>r3_node_2</title>
<ellipse fill="none" stroke="black" cx="164.93" cy="-1242" rx="50.33" ry="18"/>
<text text-anchor="middle" x="164.93" y="-1236.95" font-family="Times,serif" font-size="14.00">r3_node_2</text>
</g>
<!-- r3_node_16&#45;&gt;r3_node_2 -->
<g id="edge1" class="edge">
<title>r3_node_16&#45;&gt;r3_node_2</title>
<path fill="none" stroke="black" d="M191.9,-1296.41C186.19,-1288.51 180.01,-1278.85 174.89,-1269.94"/>
<polygon fill="black" stroke="black" points="178.04,-1268.4 170.19,-1261.29 171.89,-1271.74 178.04,-1268.4"/>
</g>
<!-- r3_node_21 -->
<g id="node3" class="node">
<title>r3_node_21</title>
<ellipse fill="none" stroke="black" cx="513.93" cy="-594" rx="54.93" ry="18"/>
<text text-anchor="middle" x="513.93" y="-588.95" font-family="Times,serif" font-size="14.00">r3_node_21</text>
</g>
<!-- r3_node_16&#45;&gt;r3_node_21 -->
<g id="edge2" class="edge">
<title>r3_node_16&#45;&gt;r3_node_21</title>
<path fill="none" stroke="black" d="M221.65,-1296.34C265.01,-1250.29 396.99,-1115.19 448.93,-972 494.09,-847.53 502.87,-687.3 508.85,-623.27"/>
<polygon fill="black" stroke="black" points="512.3,-623.93 509.82,-613.63 505.33,-623.22 512.3,-623.93"/>
</g>
<!-- r3_node_2&#45;&gt;r3_node_16 -->
<g id="edge65" class="edge">
<title>r3_node_2&#45;&gt;r3_node_16</title>
<path fill="none" stroke="black" d="M180.64,-1259.14C186.36,-1267.01 192.57,-1276.68 197.73,-1285.64"/>
<polygon fill="black" stroke="black" points="194.63,-1287.27 202.5,-1294.37 200.78,-1283.91 194.63,-1287.27"/>
</g>
<!-- r3_node_15 -->
<g id="node7" class="node">
<title>r3_node_15</title>
<ellipse fill="none" stroke="black" cx="231.93" cy="-378" rx="54.93" ry="18"/>
<text text-anchor="middle" x="231.93" y="-372.95" font-family="Times,serif" font-size="14.00">r3_node_15</text>
</g>
<!-- r3_node_2&#45;&gt;r3_node_15 -->
<g id="edge68" class="edge">
<title>r3_node_2&#45;&gt;r3_node_15</title>
<path fill="none" stroke="black" d="M150.06,-1224.65C144.74,-1214.35 140.02,-1200.66 137.93,-1188 135.33,-1172.21 137.46,-1167.99 137.93,-1152 144.6,-927.7 138.72,-870.49 167.93,-648 179.6,-559.15 203.79,-455.72 219.39,-407.05"/>
<polygon fill="black" stroke="black" points="222.7,-408.19 222.57,-397.6 216.06,-405.96 222.7,-408.19"/>
</g>
<!-- r3_node_27 -->
<g id="node12" class="node">
<title>r3_node_27</title>
<ellipse fill="none" stroke="black" cx="492.93" cy="-378" rx="54.93" ry="18"/>
<text text-anchor="middle" x="492.93" y="-372.95" font-family="Times,serif" font-size="14.00">r3_node_27</text>
</g>
<!-- r3_node_2&#45;&gt;r3_node_27 -->
<g id="edge67" class="edge">
<title>r3_node_2&#45;&gt;r3_node_27</title>
<path fill="none" stroke="black" d="M197.76,-1227.89C219.01,-1219.2 246.1,-1206.05 265.93,-1188 431.87,-1037.05 414.45,-950.08 526.93,-756 562.33,-694.93 581.34,-681.46 593.93,-612 608.51,-531.64 606.81,-496.68 556.93,-432 547.82,-420.18 535.37,-409.81 523.8,-401.46"/>
<polygon fill="black" stroke="black" points="525.84,-398.61 515.63,-395.79 521.85,-404.36 525.84,-398.61"/>
</g>
<!-- r3_node_19 -->
<g id="node23" class="node">
<title>r3_node_19</title>
<ellipse fill="none" stroke="black" cx="210.93" cy="-1170" rx="54.93" ry="18"/>
<text text-anchor="middle" x="210.93" y="-1164.95" font-family="Times,serif" font-size="14.00">r3_node_19</text>
</g>
<!-- r3_node_2&#45;&gt;r3_node_19 -->
<g id="edge66" class="edge">
<title>r3_node_2&#45;&gt;r3_node_19</title>
<path fill="none" stroke="black" d="M170.39,-1223.7C174.87,-1215.61 181.1,-1205.81 187.39,-1196.87"/>
<polygon fill="black" stroke="black" points="190.19,-1198.98 193.27,-1188.84 184.54,-1194.84 190.19,-1198.98"/>
</g>
<!-- r3_node_21&#45;&gt;r3_node_16 -->
<g id="edge44" class="edge">
<title>r3_node_21&#45;&gt;r3_node_16</title>
<path fill="none" stroke="black" d="M517.61,-612.12C521.85,-666.5 515,-839.51 466.93,-972 417.39,-1108.57 295.03,-1237.79 237.9,-1289.39"/>
<polygon fill="black" stroke="black" points="235.61,-1286.74 230.44,-1295.99 240.25,-1291.98 235.61,-1286.74"/>
</g>
<!-- r3_node_4 -->
<g id="node9" class="node">
<title>r3_node_4</title>
<ellipse fill="none" stroke="black" cx="322.93" cy="-666" rx="50.33" ry="18"/>
<text text-anchor="middle" x="322.93" y="-660.95" font-family="Times,serif" font-size="14.00">r3_node_4</text>
</g>
<!-- r3_node_21&#45;&gt;r3_node_4 -->
<g id="edge47" class="edge">
<title>r3_node_21&#45;&gt;r3_node_4</title>
<path fill="none" stroke="black" d="M481.61,-608.87C451.09,-620.63 405.13,-637.5 370.47,-649.67"/>
<polygon fill="black" stroke="black" points="369.36,-646.35 361.07,-652.94 371.66,-652.96 369.36,-646.35"/>
</g>
<!-- r3_node_21&#45;&gt;r3_node_27 -->
<g id="edge46" class="edge">
<title>r3_node_21&#45;&gt;r3_node_27</title>
<path fill="none" stroke="black" d="M508.96,-575.87C509.35,-565.52 511.14,-552.04 511.93,-540 512.98,-524.03 513.69,-519.9 511.93,-504 508.21,-470.38 499.03,-432.58 494.08,-407.44"/>
<polygon fill="black" stroke="black" points="497.53,-406.89 492.3,-397.68 490.65,-408.14 497.53,-406.89"/>
</g>
<!-- r3_node_6 -->
<g id="node17" class="node">
<title>r3_node_6</title>
<ellipse fill="none" stroke="black" cx="461.93" cy="-522" rx="50.33" ry="18"/>
<text text-anchor="middle" x="461.93" y="-516.95" font-family="Times,serif" font-size="14.00">r3_node_6</text>
</g>
<!-- r3_node_21&#45;&gt;r3_node_6 -->
<g id="edge45" class="edge">
<title>r3_node_21&#45;&gt;r3_node_6</title>
<path fill="none" stroke="black" d="M496.07,-576.76C489.17,-568.7 481.52,-558.74 475.12,-549.6"/>
<polygon fill="black" stroke="black" points="478.08,-547.73 469.6,-541.38 472.27,-551.63 478.08,-547.73"/>
</g>
<!-- r3_node_18 -->
<g id="node4" class="node">
<title>r3_node_18</title>
<ellipse fill="none" stroke="black" cx="274.93" cy="-954" rx="54.93" ry="18"/>
<text text-anchor="middle" x="274.93" y="-948.95" font-family="Times,serif" font-size="14.00">r3_node_18</text>
</g>
<!-- r3_node_7 -->
<g id="node5" class="node">
<title>r3_node_7</title>
<ellipse fill="none" stroke="black" cx="339.93" cy="-882" rx="50.33" ry="18"/>
<text text-anchor="middle" x="339.93" y="-876.95" font-family="Times,serif" font-size="14.00">r3_node_7</text>
</g>
<!-- r3_node_18&#45;&gt;r3_node_7 -->
<g id="edge3" class="edge">
<title>r3_node_18&#45;&gt;r3_node_7</title>
<path fill="none" stroke="black" d="M284.79,-936.05C292,-927.29 301.88,-916.45 311.35,-906.86"/>
<polygon fill="black" stroke="black" points="313.74,-909.41 318.4,-899.89 308.83,-904.42 313.74,-909.41"/>
</g>
<!-- r3_node_8 -->
<g id="node6" class="node">
<title>r3_node_8</title>
<ellipse fill="none" stroke="black" cx="249.93" cy="-1026" rx="50.33" ry="18"/>
<text text-anchor="middle" x="249.93" y="-1020.95" font-family="Times,serif" font-size="14.00">r3_node_8</text>
</g>
<!-- r3_node_18&#45;&gt;r3_node_8 -->
<g id="edge4" class="edge">
<title>r3_node_18&#45;&gt;r3_node_8</title>
<path fill="none" stroke="black" d="M274.68,-972.28C272.73,-979.94 269.67,-989.16 266.28,-997.72"/>
<polygon fill="black" stroke="black" points="263.17,-996.09 262.46,-1006.66 269.61,-998.84 263.17,-996.09"/>
</g>
<!-- r3_node_7&#45;&gt;r3_node_18 -->
<g id="edge19" class="edge">
<title>r3_node_7&#45;&gt;r3_node_18</title>
<path fill="none" stroke="black" d="M330.2,-899.8C323,-908.56 313.1,-919.43 303.61,-929.06"/>
<polygon fill="black" stroke="black" points="301.18,-926.54 296.52,-936.05 306.1,-931.52 301.18,-926.54"/>
</g>
<!-- r3_node_7&#45;&gt;r3_node_6 -->
<g id="edge18" class="edge">
<title>r3_node_7&#45;&gt;r3_node_6</title>
<path fill="none" stroke="black" d="M352.86,-864.16C362.66,-854.53 375.37,-841.67 383.93,-828 444.91,-730.7 420.85,-689.06 440.93,-576 442.41,-567.67 444.33,-558.66 446.58,-550.49"/>
<polygon fill="black" stroke="black" points="449.88,-551.66 449.53,-541.07 443.2,-549.57 449.88,-551.66"/>
</g>
<!-- r3_node_20 -->
<g id="node18" class="node">
<title>r3_node_20</title>
<ellipse fill="none" stroke="black" cx="74.93" cy="-162" rx="54.93" ry="18"/>
<text text-anchor="middle" x="74.93" y="-156.95" font-family="Times,serif" font-size="14.00">r3_node_20</text>
</g>
<!-- r3_node_7&#45;&gt;r3_node_20 -->
<g id="edge20" class="edge">
<title>r3_node_7&#45;&gt;r3_node_20</title>
<path fill="none" stroke="black" d="M335.65,-863.64C335.35,-845.48 336.95,-816.3 330.93,-792 322.23,-756.88 314.8,-748.83 292.93,-720 278.87,-701.47 267.65,-703.48 254.93,-684 134.09,-498.97 164.98,-422.76 86.93,-216 83.85,-207.82 80.39,-198.97 77.55,-190.89"/>
<polygon fill="black" stroke="black" points="80.94,-190 74.53,-181.57 74.29,-192.16 80.94,-190"/>
</g>
<!-- r3_node_3 -->
<g id="node19" class="node">
<title>r3_node_3</title>
<ellipse fill="none" stroke="black" cx="280.93" cy="-810" rx="50.33" ry="18"/>
<text text-anchor="middle" x="280.93" y="-804.95" font-family="Times,serif" font-size="14.00">r3_node_3</text>
</g>
<!-- r3_node_7&#45;&gt;r3_node_3 -->
<g id="edge21" class="edge">
<title>r3_node_7&#45;&gt;r3_node_3</title>
<path fill="none" stroke="black" d="M320.79,-865.12C312.78,-856.77 303.72,-846.32 296.18,-836.84"/>
<polygon fill="black" stroke="black" points="299.02,-834.8 290.15,-829 293.47,-839.06 299.02,-834.8"/>
</g>
<!-- r3_node_8&#45;&gt;r3_node_18 -->
<g id="edge10" class="edge">
<title>r3_node_8&#45;&gt;r3_node_18</title>
<path fill="none" stroke="black" d="M250.2,-1007.7C252.16,-999.95 255.26,-990.64 258.69,-982.02"/>
<polygon fill="black" stroke="black" points="261.83,-983.58 262.56,-973.01 255.4,-980.82 261.83,-983.58"/>
</g>
<!-- r3_node_12 -->
<g id="node11" class="node">
<title>r3_node_12</title>
<ellipse fill="none" stroke="black" cx="226.93" cy="-1098" rx="54.93" ry="18"/>
<text text-anchor="middle" x="226.93" y="-1092.95" font-family="Times,serif" font-size="14.00">r3_node_12</text>
</g>
<!-- r3_node_8&#45;&gt;r3_node_12 -->
<g id="edge9" class="edge">
<title>r3_node_8&#45;&gt;r3_node_12</title>
<path fill="none" stroke="black" d="M250.17,-1044.28C248.46,-1051.86 245.71,-1060.95 242.6,-1069.43"/>
<polygon fill="black" stroke="black" points="239.38,-1068.06 238.94,-1078.65 245.89,-1070.65 239.38,-1068.06"/>
</g>
<!-- r3_node_8&#45;&gt;r3_node_27 -->
<g id="edge11" class="edge">
<title>r3_node_8&#45;&gt;r3_node_27</title>
<path fill="none" stroke="black" d="M273.43,-1009.71C290.18,-1000.19 312.43,-986.94 329.93,-972 431.84,-885.01 559.76,-644.13 568.93,-612 586.19,-551.54 536.07,-451.46 525.93,-432 521.02,-422.57 514.33,-413.18 508.13,-404.98"/>
<polygon fill="black" stroke="black" points="511,-402.97 502.13,-397.17 505.45,-407.23 511,-402.97"/>
</g>
<!-- r3_node_15&#45;&gt;r3_node_2 -->
<g id="edge8" class="edge">
<title>r3_node_15&#45;&gt;r3_node_2</title>
<path fill="none" stroke="black" d="M231.97,-396.48C225.73,-439.13 198.53,-552.06 185.93,-648 156.72,-870.49 162.6,-927.7 155.93,-1152 155.46,-1167.99 153.33,-1172.21 155.93,-1188 157.3,-1196.25 159.77,-1204.93 162.12,-1212.83"/>
<polygon fill="black" stroke="black" points="158.72,-1213.65 164.9,-1222.25 165.43,-1211.67 158.72,-1213.65"/>
</g>
<!-- r3_node_14 -->
<g id="node8" class="node">
<title>r3_node_14</title>
<ellipse fill="none" stroke="black" cx="404.93" cy="-450" rx="54.93" ry="18"/>
<text text-anchor="middle" x="404.93" y="-444.95" font-family="Times,serif" font-size="14.00">r3_node_14</text>
</g>
<!-- r3_node_15&#45;&gt;r3_node_14 -->
<g id="edge5" class="edge">
<title>r3_node_15&#45;&gt;r3_node_14</title>
<path fill="none" stroke="black" d="M268.89,-391.79C297.02,-402.53 335.56,-418.03 364.5,-430.19"/>
<polygon fill="black" stroke="black" points="363.11,-433.4 373.68,-434.08 365.84,-426.95 363.11,-433.4"/>
</g>
<!-- r3_node_15&#45;&gt;r3_node_4 -->
<g id="edge6" class="edge">
<title>r3_node_15&#45;&gt;r3_node_4</title>
<path fill="none" stroke="black" d="M244.8,-395.81C257.46,-419.64 275.22,-464.74 287.93,-504 302.82,-549.95 316.98,-604.33 322.56,-636.67"/>
<polygon fill="black" stroke="black" points="319.08,-637.07 324.03,-646.43 326,-636.02 319.08,-637.07"/>
</g>
<!-- r3_node_5 -->
<g id="node10" class="node">
<title>r3_node_5</title>
<ellipse fill="none" stroke="black" cx="212.93" cy="-306" rx="50.33" ry="18"/>
<text text-anchor="middle" x="212.93" y="-300.95" font-family="Times,serif" font-size="14.00">r3_node_5</text>
</g>
<!-- r3_node_15&#45;&gt;r3_node_5 -->
<g id="edge7" class="edge">
<title>r3_node_15&#45;&gt;r3_node_5</title>
<path fill="none" stroke="black" d="M221.46,-360.05C218.67,-352.68 216.02,-343.84 214.03,-335.51"/>
<polygon fill="black" stroke="black" points="217.46,-334.84 212.02,-325.76 210.61,-336.26 217.46,-334.84"/>
</g>
<!-- r3_node_14&#45;&gt;r3_node_15 -->
<g id="edge22" class="edge">
<title>r3_node_14&#45;&gt;r3_node_15</title>
<path fill="none" stroke="black" d="M368.26,-436.32C340.04,-425.55 301.21,-409.94 272.15,-397.72"/>
<polygon fill="black" stroke="black" points="273.89,-394.66 263.32,-393.98 271.16,-401.11 273.89,-394.66"/>
</g>
<!-- r3_node_14&#45;&gt;r3_node_6 -->
<g id="edge25" class="edge">
<title>r3_node_14&#45;&gt;r3_node_6</title>
<path fill="none" stroke="black" d="M424.02,-467.31C431.6,-475.5 440.1,-485.62 447.2,-494.86"/>
<polygon fill="black" stroke="black" points="444.35,-496.89 453.11,-502.84 449.97,-492.72 444.35,-496.89"/>
</g>
<!-- r3_node_14&#45;&gt;r3_node_3 -->
<g id="edge24" class="edge">
<title>r3_node_14&#45;&gt;r3_node_3</title>
<path fill="none" stroke="black" d="M407.77,-468.23C409.42,-518.74 399.07,-664.16 390.93,-684 374.11,-725.05 339.21,-763.34 313.03,-786.45"/>
<polygon fill="black" stroke="black" points="311.03,-783.56 305.68,-792.71 315.56,-788.89 311.03,-783.56"/>
</g>
<!-- r3_node_17 -->
<g id="node20" class="node">
<title>r3_node_17</title>
<ellipse fill="none" stroke="black" cx="246.93" cy="-90" rx="54.93" ry="18"/>
<text text-anchor="middle" x="246.93" y="-84.95" font-family="Times,serif" font-size="14.00">r3_node_17</text>
</g>
<!-- r3_node_14&#45;&gt;r3_node_17 -->
<g id="edge23" class="edge">
<title>r3_node_14&#45;&gt;r3_node_17</title>
<path fill="none" stroke="black" d="M388.48,-432.36C367.1,-409.76 330.12,-367.22 309.93,-324 275.22,-249.66 293.86,-222.17 268.93,-144 266.23,-135.52 262.73,-126.5 259.32,-118.35"/>
<polygon fill="black" stroke="black" points="262.59,-117.09 255.42,-109.3 256.17,-119.87 262.59,-117.09"/>
</g>
<!-- r3_node_4&#45;&gt;r3_node_21 -->
<g id="edge37" class="edge">
<title>r3_node_4&#45;&gt;r3_node_21</title>
<path fill="none" stroke="black" d="M354.3,-651.5C384.42,-639.87 430.16,-623.07 465.03,-610.82"/>
<polygon fill="black" stroke="black" points="465.75,-614.27 474.04,-607.67 463.45,-607.66 465.75,-614.27"/>
</g>
<!-- r3_node_4&#45;&gt;r3_node_15 -->
<g id="edge36" class="edge">
<title>r3_node_4&#45;&gt;r3_node_15</title>
<path fill="none" stroke="black" d="M313.39,-647.93C302.58,-618.36 286.72,-555.83 269.93,-504 259.02,-470.3 244.39,-432.29 236.28,-407.13"/>
<polygon fill="black" stroke="black" points="239.66,-406.21 233.4,-397.66 232.96,-408.24 239.66,-406.21"/>
</g>
<!-- r3_node_24 -->
<g id="node21" class="node">
<title>r3_node_24</title>
<ellipse fill="none" stroke="black" cx="237.93" cy="-738" rx="54.93" ry="18"/>
<text text-anchor="middle" x="237.93" y="-732.95" font-family="Times,serif" font-size="14.00">r3_node_24</text>
</g>
<!-- r3_node_4&#45;&gt;r3_node_24 -->
<g id="edge38" class="edge">
<title>r3_node_4&#45;&gt;r3_node_24</title>
<path fill="none" stroke="black" d="M308.49,-683.71C298.29,-692.93 284.4,-704.51 271.59,-714.51"/>
<polygon fill="black" stroke="black" points="269.53,-711.68 263.72,-720.54 273.79,-717.24 269.53,-711.68"/>
</g>
<!-- r3_node_5&#45;&gt;r3_node_15 -->
<g id="edge12" class="edge">
<title>r3_node_5&#45;&gt;r3_node_15</title>
<path fill="none" stroke="black" d="M223.29,-323.62C226.13,-331.1 228.85,-340.14 230.88,-348.64"/>
<polygon fill="black" stroke="black" points="227.4,-349.13 232.85,-358.21 234.26,-347.71 227.4,-349.13"/>
</g>
<!-- r3_node_9 -->
<g id="node13" class="node">
<title>r3_node_9</title>
<ellipse fill="none" stroke="black" cx="212.93" cy="-234" rx="50.33" ry="18"/>
<text text-anchor="middle" x="212.93" y="-228.95" font-family="Times,serif" font-size="14.00">r3_node_9</text>
</g>
<!-- r3_node_5&#45;&gt;r3_node_9 -->
<g id="edge13" class="edge">
<title>r3_node_5&#45;&gt;r3_node_9</title>
<path fill="none" stroke="black" d="M207.02,-287.7C206.27,-280.41 206.02,-271.73 206.29,-263.54"/>
<polygon fill="black" stroke="black" points="209.78,-263.82 206.94,-253.61 202.79,-263.36 209.78,-263.82"/>
</g>
<!-- r3_node_12&#45;&gt;r3_node_8 -->
<g id="edge48" class="edge">
<title>r3_node_12&#45;&gt;r3_node_8</title>
<path fill="none" stroke="black" d="M226.7,-1079.7C228.43,-1072.04 231.22,-1062.85 234.36,-1054.3"/>
<polygon fill="black" stroke="black" points="237.61,-1055.61 238.07,-1045.03 231.11,-1053.01 237.61,-1055.61"/>
</g>
<!-- r3_node_12&#45;&gt;r3_node_24 -->
<g id="edge50" class="edge">
<title>r3_node_12&#45;&gt;r3_node_24</title>
<path fill="none" stroke="black" d="M204.62,-1081.17C195.4,-1071.27 186.18,-1057.82 181.93,-1044 177.23,-1028.71 180.79,-1023.96 181.93,-1008 188.84,-911.26 191.97,-886.69 212.93,-792 214.82,-783.48 217.38,-774.35 220.3,-766.1"/>
<polygon fill="black" stroke="black" points="223.49,-767.53 223.92,-756.95 216.98,-764.96 223.49,-767.53"/>
</g>
<!-- r3_node_12&#45;&gt;r3_node_19 -->
<g id="edge49" class="edge">
<title>r3_node_12&#45;&gt;r3_node_19</title>
<path fill="none" stroke="black" d="M228.9,-1116.28C227.96,-1123.77 226.15,-1132.75 223.92,-1141.15"/>
<polygon fill="black" stroke="black" points="220.61,-1140.02 221.12,-1150.6 227.32,-1142.01 220.61,-1140.02"/>
</g>
<!-- r3_node_27&#45;&gt;r3_node_2 -->
<g id="edge16" class="edge">
<title>r3_node_27&#45;&gt;r3_node_2</title>
<path fill="none" stroke="black" d="M526.23,-392.52C543.01,-401.84 562.21,-415.5 574.93,-432 624.81,-496.68 626.51,-531.64 611.93,-612 599.34,-681.46 580.33,-694.93 544.93,-756 432.45,-950.08 449.87,-1037.05 283.93,-1188 264.71,-1205.49 238.68,-1218.38 215.77,-1227.07"/>
<polygon fill="black" stroke="black" points="214.81,-1223.69 206.59,-1230.37 217.18,-1230.28 214.81,-1223.69"/>
</g>
<!-- r3_node_27&#45;&gt;r3_node_21 -->
<g id="edge17" class="edge">
<title>r3_node_27&#45;&gt;r3_node_21</title>
<path fill="none" stroke="black" d="M503.91,-395.78C513.74,-419.59 525.58,-464.65 529.93,-504 531.69,-519.9 530.98,-524.03 529.93,-540 529.4,-548.09 528.42,-556.83 527,-564.83"/>
<polygon fill="black" stroke="black" points="523.62,-563.88 524.92,-574.39 530.46,-565.36 523.62,-563.88"/>
</g>
<!-- r3_node_27&#45;&gt;r3_node_8 -->
<g id="edge15" class="edge">
<title>r3_node_27&#45;&gt;r3_node_8</title>
<path fill="none" stroke="black" d="M515.68,-394.58C525.83,-404.59 536.78,-418.26 543.93,-432 554.07,-451.46 604.19,-551.54 586.93,-612 577.76,-644.13 449.84,-885.01 347.93,-972 331.93,-985.66 311.95,-997.91 294.13,-1007.18"/>
<polygon fill="black" stroke="black" points="292.66,-1004 285.28,-1011.61 295.79,-1010.26 292.66,-1004"/>
</g>
<!-- r3_node_9&#45;&gt;r3_node_5 -->
<g id="edge56" class="edge">
<title>r3_node_9&#45;&gt;r3_node_5</title>
<path fill="none" stroke="black" d="M218.83,-252.1C219.59,-259.37 219.84,-268.04 219.59,-276.24"/>
<polygon fill="black" stroke="black" points="216.1,-275.98 218.95,-286.19 223.08,-276.43 216.1,-275.98"/>
</g>
<!-- r3_node_9&#45;&gt;r3_node_20 -->
<g id="edge54" class="edge">
<title>r3_node_9&#45;&gt;r3_node_20</title>
<path fill="none" stroke="black" d="M181.22,-219.67C159.81,-209.53 131.68,-195.4 109.68,-183.78"/>
<polygon fill="black" stroke="black" points="111.54,-180.81 101.07,-179.19 108.25,-186.99 111.54,-180.81"/>
</g>
<!-- r3_node_23 -->
<g id="node25" class="node">
<title>r3_node_23</title>
<ellipse fill="none" stroke="black" cx="204.93" cy="-162" rx="54.93" ry="18"/>
<text text-anchor="middle" x="204.93" y="-156.95" font-family="Times,serif" font-size="14.00">r3_node_23</text>
</g>
<!-- r3_node_9&#45;&gt;r3_node_23 -->
<g id="edge55" class="edge">
<title>r3_node_9&#45;&gt;r3_node_23</title>
<path fill="none" stroke="black" d="M205.12,-216.05C203.49,-208.68 202.23,-199.84 201.55,-191.51"/>
<polygon fill="black" stroke="black" points="205.06,-191.6 201.07,-181.79 198.06,-191.95 205.06,-191.6"/>
</g>
<!-- r3_node_1 -->
<g id="node14" class="node">
<title>r3_node_1</title>
<ellipse fill="none" stroke="black" cx="368.93" cy="-306" rx="50.33" ry="18"/>
<text text-anchor="middle" x="368.93" y="-300.95" font-family="Times,serif" font-size="14.00">r3_node_1</text>
</g>
<!-- r3_node_10 -->
<g id="node15" class="node">
<title>r3_node_10</title>
<ellipse fill="none" stroke="black" cx="54.93" cy="-18" rx="54.93" ry="18"/>
<text text-anchor="middle" x="54.93" y="-12.95" font-family="Times,serif" font-size="14.00">r3_node_10</text>
</g>
<!-- r3_node_22 -->
<g id="node16" class="node">
<title>r3_node_22</title>
<ellipse fill="none" stroke="black" cx="118.93" cy="-90" rx="54.93" ry="18"/>
<text text-anchor="middle" x="118.93" y="-84.95" font-family="Times,serif" font-size="14.00">r3_node_22</text>
</g>
<!-- r3_node_10&#45;&gt;r3_node_22 -->
<g id="edge14" class="edge">
<title>r3_node_10&#45;&gt;r3_node_22</title>
<path fill="none" stroke="black" d="M75.16,-34.83C83.82,-43.23 93.71,-53.77 101.98,-63.31"/>
<polygon fill="black" stroke="black" points="99.24,-65.49 108.35,-70.9 104.6,-60.99 99.24,-65.49"/>
</g>
<!-- r3_node_22&#45;&gt;r3_node_10 -->
<g id="edge60" class="edge">
<title>r3_node_22&#45;&gt;r3_node_10</title>
<path fill="none" stroke="black" d="M98.65,-73.12C89.96,-64.68 80.04,-54.1 71.76,-44.55"/>
<polygon fill="black" stroke="black" points="74.51,-42.37 65.4,-36.96 69.14,-46.87 74.51,-42.37"/>
</g>
<!-- r3_node_11 -->
<g id="node22" class="node">
<title>r3_node_11</title>
<ellipse fill="none" stroke="black" cx="182.93" cy="-18" rx="54.93" ry="18"/>
<text text-anchor="middle" x="182.93" y="-12.95" font-family="Times,serif" font-size="14.00">r3_node_11</text>
</g>
<!-- r3_node_22&#45;&gt;r3_node_11 -->
<g id="edge57" class="edge">
<title>r3_node_22&#45;&gt;r3_node_11</title>
<path fill="none" stroke="black" d="M128.55,-72.05C135.63,-63.29 145.36,-52.45 154.69,-42.86"/>
<polygon fill="black" stroke="black" points="157.04,-45.45 161.64,-35.9 152.09,-40.5 157.04,-45.45"/>
</g>
<!-- r3_node_28 -->
<g id="node24" class="node">
<title>r3_node_28</title>
<ellipse fill="none" stroke="black" cx="310.93" cy="-18" rx="54.93" ry="18"/>
<text text-anchor="middle" x="310.93" y="-12.95" font-family="Times,serif" font-size="14.00">r3_node_28</text>
</g>
<!-- r3_node_22&#45;&gt;r3_node_28 -->
<g id="edge59" class="edge">
<title>r3_node_22&#45;&gt;r3_node_28</title>
<path fill="none" stroke="black" d="M151.36,-75.17C181.55,-63.59 226.79,-47.07 261.46,-34.94"/>
<polygon fill="black" stroke="black" points="262.58,-38.25 270.88,-31.66 260.28,-31.64 262.58,-38.25"/>
</g>
<!-- r3_node_22&#45;&gt;r3_node_23 -->
<g id="edge58" class="edge">
<title>r3_node_22&#45;&gt;r3_node_23</title>
<path fill="none" stroke="black" d="M143.71,-106.51C155.78,-115.47 170.09,-126.93 181.92,-137.02"/>
<polygon fill="black" stroke="black" points="179.41,-139.48 189.25,-143.42 184.02,-134.21 179.41,-139.48"/>
</g>
<!-- r3_node_6&#45;&gt;r3_node_21 -->
<g id="edge42" class="edge">
<title>r3_node_6&#45;&gt;r3_node_21</title>
<path fill="none" stroke="black" d="M479.72,-539.14C486.59,-547.18 494.23,-557.1 500.63,-566.23"/>
<polygon fill="black" stroke="black" points="497.67,-568.1 506.15,-574.44 503.47,-564.19 497.67,-568.1"/>
</g>
<!-- r3_node_6&#45;&gt;r3_node_7 -->
<g id="edge41" class="edge">
<title>r3_node_6&#45;&gt;r3_node_7</title>
<path fill="none" stroke="black" d="M465.45,-540.1C464.14,-550.45 461.08,-563.92 458.93,-576 438.85,-689.06 462.91,-730.7 401.93,-828 394.83,-839.34 384.87,-850.13 374.92,-858.97"/>
<polygon fill="black" stroke="black" points="372.85,-856.14 367.42,-865.24 377.34,-861.52 372.85,-856.14"/>
</g>
<!-- r3_node_6&#45;&gt;r3_node_14 -->
<g id="edge40" class="edge">
<title>r3_node_6&#45;&gt;r3_node_14</title>
<path fill="none" stroke="black" d="M443.24,-505.12C435.59,-496.89 426.97,-486.62 419.75,-477.26"/>
<polygon fill="black" stroke="black" points="422.77,-475.45 414,-469.51 417.15,-479.62 422.77,-475.45"/>
</g>
<!-- r3_node_6&#45;&gt;r3_node_1 -->
<g id="edge39" class="edge">
<title>r3_node_6&#45;&gt;r3_node_1</title>
<path fill="none" stroke="black" d="M468,-503.77C473.49,-485.21 479.28,-455.22 468.93,-432 459.2,-410.15 444.63,-414.05 428.93,-396 411.99,-376.51 395.81,-352.04 384.53,-333.7"/>
<polygon fill="black" stroke="black" points="387.59,-331.99 379.42,-325.24 381.6,-335.61 387.59,-331.99"/>
</g>
<!-- r3_node_20&#45;&gt;r3_node_7 -->
<g id="edge31" class="edge">
<title>r3_node_20&#45;&gt;r3_node_7</title>
<path fill="none" stroke="black" d="M89.46,-179.66C94.88,-190.07 100.32,-203.78 104.93,-216 182.98,-422.76 152.09,-498.97 272.93,-684 285.65,-703.48 296.87,-701.47 310.93,-720 332.8,-748.83 340.23,-756.88 348.93,-792 353.85,-811.86 353.68,-834.99 351.13,-852.7"/>
<polygon fill="black" stroke="black" points="347.69,-852.01 349.29,-862.49 354.57,-853.31 347.69,-852.01"/>
</g>
<!-- r3_node_20&#45;&gt;r3_node_9 -->
<g id="edge30" class="edge">
<title>r3_node_20&#45;&gt;r3_node_9</title>
<path fill="none" stroke="black" d="M107.5,-176.74C128.92,-186.89 156.77,-200.9 178.53,-212.4"/>
<polygon fill="black" stroke="black" points="176.86,-215.47 187.33,-217.1 180.16,-209.3 176.86,-215.47"/>
</g>
<!-- r3_node_20&#45;&gt;r3_node_24 -->
<g id="edge32" class="edge">
<title>r3_node_20&#45;&gt;r3_node_24</title>
<path fill="none" stroke="black" d="M78.22,-180.26C80.98,-227.38 78.42,-361.81 107.93,-468 134.37,-563.12 196.82,-663.44 224.67,-710.15"/>
<polygon fill="black" stroke="black" points="221.5,-711.66 229.59,-718.5 227.53,-708.1 221.5,-711.66"/>
</g>
<!-- r3_node_3&#45;&gt;r3_node_18 -->
<g id="edge63" class="edge">
<title>r3_node_3&#45;&gt;r3_node_18</title>
<path fill="none" stroke="black" d="M280.21,-828.11C279.2,-851.92 277.37,-895.37 276.15,-924.22"/>
<polygon fill="black" stroke="black" points="272.66,-923.94 275.73,-934.08 279.65,-924.23 272.66,-923.94"/>
</g>
<!-- r3_node_3&#45;&gt;r3_node_7 -->
<g id="edge62" class="edge">
<title>r3_node_3&#45;&gt;r3_node_7</title>
<path fill="none" stroke="black" d="M300.03,-826.83C308.01,-835.15 317.04,-845.56 324.58,-855.02"/>
<polygon fill="black" stroke="black" points="321.74,-857.06 330.61,-862.86 327.29,-852.79 321.74,-857.06"/>
</g>
<!-- r3_node_3&#45;&gt;r3_node_14 -->
<g id="edge64" class="edge">
<title>r3_node_3&#45;&gt;r3_node_14</title>
<path fill="none" stroke="black" d="M293.91,-792.19C314.94,-770.05 354.63,-728.66 372.93,-684 380.53,-665.48 390.05,-537.5 398.14,-479.48"/>
<polygon fill="black" stroke="black" points="401.58,-480.14 399.62,-469.72 394.66,-479.09 401.58,-480.14"/>
</g>
<!-- r3_node_3&#45;&gt;r3_node_24 -->
<g id="edge61" class="edge">
<title>r3_node_3&#45;&gt;r3_node_24</title>
<path fill="none" stroke="black" d="M265.16,-792.76C259.42,-784.87 253.2,-775.16 248.03,-766.18"/>
<polygon fill="black" stroke="black" points="251.14,-764.56 243.28,-757.45 244.99,-767.91 251.14,-764.56"/>
</g>
<!-- r3_node_24&#45;&gt;r3_node_4 -->
<g id="edge27" class="edge">
<title>r3_node_24&#45;&gt;r3_node_4</title>
<path fill="none" stroke="black" d="M252.24,-720.41C262.69,-710.95 277.07,-698.98 290.19,-688.77"/>
<polygon fill="black" stroke="black" points="291.99,-691.81 297.81,-682.96 287.74,-686.24 291.99,-691.81"/>
</g>
<!-- r3_node_24&#45;&gt;r3_node_12 -->
<g id="edge29" class="edge">
<title>r3_node_24&#45;&gt;r3_node_12</title>
<path fill="none" stroke="black" d="M239.91,-756.01C237.72,-766.32 233.63,-779.8 230.93,-792 209.97,-886.69 206.84,-911.26 199.93,-1008 198.79,-1023.96 195.23,-1028.71 199.93,-1044 202.78,-1053.27 207.87,-1062.37 212.98,-1070.35"/>
<polygon fill="black" stroke="black" points="209.98,-1072.16 218.46,-1078.52 215.8,-1068.26 209.98,-1072.16"/>
</g>
<!-- r3_node_24&#45;&gt;r3_node_20 -->
<g id="edge26" class="edge">
<title>r3_node_24&#45;&gt;r3_node_20</title>
<path fill="none" stroke="black" d="M221.69,-720.41C189.17,-679.72 118.51,-570.82 89.93,-468 62.5,-369.28 62.78,-246.15 68.44,-191.45"/>
<polygon fill="black" stroke="black" points="71.89,-192.11 69.62,-181.76 64.94,-191.26 71.89,-192.11"/>
</g>
<!-- r3_node_24&#45;&gt;r3_node_3 -->
<g id="edge28" class="edge">
<title>r3_node_24&#45;&gt;r3_node_3</title>
<path fill="none" stroke="black" d="M253.99,-755.62C259.64,-763.44 265.75,-772.97 270.82,-781.8"/>
<polygon fill="black" stroke="black" points="267.64,-783.26 275.5,-790.37 273.78,-779.91 267.64,-783.26"/>
</g>
<!-- r3_node_11&#45;&gt;r3_node_22 -->
<g id="edge33" class="edge">
<title>r3_node_11&#45;&gt;r3_node_22</title>
<path fill="none" stroke="black" d="M173.44,-35.8C166.37,-44.56 156.62,-55.43 147.26,-65.06"/>
<polygon fill="black" stroke="black" points="144.88,-62.5 140.29,-72.04 149.83,-67.44 144.88,-62.5"/>
</g>
<!-- r3_node_19&#45;&gt;r3_node_2 -->
<g id="edge34" class="edge">
<title>r3_node_19&#45;&gt;r3_node_2</title>
<path fill="none" stroke="black" d="M205.58,-1188.12C201,-1196.41 194.56,-1206.53 188.08,-1215.69"/>
<polygon fill="black" stroke="black" points="185.41,-1213.42 182.3,-1223.55 191.05,-1217.57 185.41,-1213.42"/>
</g>
<!-- r3_node_19&#45;&gt;r3_node_12 -->
<g id="edge35" class="edge">
<title>r3_node_19&#45;&gt;r3_node_12</title>
<path fill="none" stroke="black" d="M208.97,-1151.7C209.91,-1144.24 211.71,-1135.32 213.91,-1126.97"/>
<polygon fill="black" stroke="black" points="217.22,-1128.14 216.7,-1117.56 210.51,-1126.15 217.22,-1128.14"/>
</g>
<!-- r3_node_28&#45;&gt;r3_node_22 -->
<g id="edge43" class="edge">
<title>r3_node_28&#45;&gt;r3_node_22</title>
<path fill="none" stroke="black" d="M278.44,-32.85C248.28,-44.42 203.12,-60.92 168.49,-73.04"/>
<polygon fill="black" stroke="black" points="167.37,-69.72 159.07,-76.31 169.67,-76.33 167.37,-69.72"/>
</g>
<!-- r3_node_23&#45;&gt;r3_node_9 -->
<g id="edge53" class="edge">
<title>r3_node_23&#45;&gt;r3_node_9</title>
<path fill="none" stroke="black" d="M212.78,-180.1C214.38,-187.37 215.62,-196.04 216.3,-204.24"/>
<polygon fill="black" stroke="black" points="212.8,-204.37 216.8,-214.18 219.79,-204.02 212.8,-204.37"/>
</g>
<!-- r3_node_23&#45;&gt;r3_node_22 -->
<g id="edge52" class="edge">
<title>r3_node_23&#45;&gt;r3_node_22</title>
<path fill="none" stroke="black" d="M180.13,-145.46C168.11,-136.54 153.86,-125.14 142.07,-115.08"/>
<polygon fill="black" stroke="black" points="144.59,-112.64 134.76,-108.71 140,-117.92 144.59,-112.64"/>
</g>
<!-- r3_node_23&#45;&gt;r3_node_17 -->
<g id="edge51" class="edge">
<title>r3_node_23&#45;&gt;r3_node_17</title>
<path fill="none" stroke="black" d="M215.1,-144.05C219.9,-136.06 225.74,-126.33 231.09,-117.4"/>
<polygon fill="black" stroke="black" points="233.94,-119.46 236.08,-109.09 227.94,-115.86 233.94,-119.46"/>
</g>
</g>
</svg>
