<?xml version="1.0" encoding="UTF-8" standalone="no"?>
<!DOCTYPE svg PUBLIC "-//W3C//DTD SVG 1.1//EN"
 "http://www.w3.org/Graphics/SVG/1.1/DTD/svg11.dtd">
<!-- Generated by graphviz version 12.2.1 (20241206.2353)
 -->
<!-- Pages: 1 -->
<svg width="808pt" height="836pt"
 viewBox="0.00 0.00 808.07 836.00" xmlns="http://www.w3.org/2000/svg" xmlns:xlink="http://www.w3.org/1999/xlink">
<g id="graph0" class="graph" transform="scale(1 1) rotate(0) translate(4 832)">
<polygon fill="white" stroke="none" points="-4,4 -4,-832 804.07,-832 804.07,4 -4,4"/>
<!-- r2_node_20 -->
<g id="node1" class="node">
<title>r2_node_20</title>
<ellipse fill="none" stroke="black" cx="118.93" cy="-810" rx="54.93" ry="18"/>
<text text-anchor="middle" x="118.93" y="-804.95" font-family="Times,serif" font-size="14.00">r2_node_20</text>
</g>
<!-- r2_node_18 -->
<g id="node2" class="node">
<title>r2_node_18</title>
<ellipse fill="none" stroke="black" cx="54.93" cy="-738" rx="54.93" ry="18"/>
<text text-anchor="middle" x="54.93" y="-732.95" font-family="Times,serif" font-size="14.00">r2_node_18</text>
</g>
<!-- r2_node_20&#45;&gt;r2_node_18 -->
<g id="edge1" class="edge">
<title>r2_node_20&#45;&gt;r2_node_18</title>
<path fill="none" stroke="black" d="M98.65,-793.12C89.96,-784.68 80.04,-774.1 71.76,-764.55"/>
<polygon fill="black" stroke="black" points="74.51,-762.37 65.4,-756.96 69.14,-766.87 74.51,-762.37"/>
</g>
<!-- r2_node_11 -->
<g id="node3" class="node">
<title>r2_node_11</title>
<ellipse fill="none" stroke="black" cx="201.93" cy="-738" rx="54.93" ry="18"/>
<text text-anchor="middle" x="201.93" y="-732.95" font-family="Times,serif" font-size="14.00">r2_node_11</text>
</g>
<!-- r2_node_20&#45;&gt;r2_node_11 -->
<g id="edge2" class="edge">
<title>r2_node_20&#45;&gt;r2_node_11</title>
<path fill="none" stroke="black" d="M132.76,-792.41C142.71,-783.17 156.33,-771.54 168.92,-761.49"/>
<polygon fill="black" stroke="black" points="170.92,-764.37 176.63,-755.44 166.6,-758.86 170.92,-764.37"/>
</g>
<!-- r2_node_18&#45;&gt;r2_node_20 -->
<g id="edge10" class="edge">
<title>r2_node_18&#45;&gt;r2_node_20</title>
<path fill="none" stroke="black" d="M75.16,-754.83C83.82,-763.23 93.71,-773.77 101.98,-783.31"/>
<polygon fill="black" stroke="black" points="99.24,-785.49 108.35,-790.9 104.6,-780.99 99.24,-785.49"/>
</g>
<!-- r2_node_29 -->
<g id="node11" class="node">
<title>r2_node_29</title>
<ellipse fill="none" stroke="black" cx="510.93" cy="-234" rx="54.93" ry="18"/>
<text text-anchor="middle" x="510.93" y="-228.95" font-family="Times,serif" font-size="14.00">r2_node_29</text>
</g>
<!-- r2_node_18&#45;&gt;r2_node_29 -->
<g id="edge7" class="edge">
<title>r2_node_18&#45;&gt;r2_node_29</title>
<path fill="none" stroke="black" d="M86.72,-722.98C137.33,-700.82 234.13,-659.05 269.93,-648 344.56,-624.96 376.05,-653.94 441.93,-612 537.84,-550.96 554.69,-507.07 578.93,-396 589.48,-347.66 576.03,-331.21 551.93,-288 546.67,-278.55 539.81,-268.97 533.23,-260.61"/>
<polygon fill="black" stroke="black" points="535.99,-258.45 526.95,-252.92 530.56,-262.88 535.99,-258.45"/>
</g>
<!-- r2_node_30 -->
<g id="node12" class="node">
<title>r2_node_30</title>
<ellipse fill="none" stroke="black" cx="108.93" cy="-666" rx="54.93" ry="18"/>
<text text-anchor="middle" x="108.93" y="-660.95" font-family="Times,serif" font-size="14.00">r2_node_30</text>
</g>
<!-- r2_node_18&#45;&gt;r2_node_30 -->
<g id="edge8" class="edge">
<title>r2_node_18&#45;&gt;r2_node_30</title>
<path fill="none" stroke="black" d="M62.37,-719.7C67.97,-711.32 75.66,-701.1 83.23,-691.9"/>
<polygon fill="black" stroke="black" points="85.89,-694.18 89.71,-684.3 80.56,-689.64 85.89,-694.18"/>
</g>
<!-- r2_node_6 -->
<g id="node13" class="node">
<title>r2_node_6</title>
<ellipse fill="none" stroke="black" cx="146.93" cy="-90" rx="50.33" ry="18"/>
<text text-anchor="middle" x="146.93" y="-84.95" font-family="Times,serif" font-size="14.00">r2_node_6</text>
</g>
<!-- r2_node_18&#45;&gt;r2_node_6 -->
<g id="edge9" class="edge">
<title>r2_node_18&#45;&gt;r2_node_6</title>
<path fill="none" stroke="black" d="M48.42,-719.89C30.26,-668.96 -15,-516.65 57.93,-432 91.79,-392.71 121.23,-416.36 168.93,-396 200.03,-382.73 205.2,-374.07 235.93,-360 276.61,-341.37 304.58,-360.86 329.93,-324 339,-310.82 340.09,-300.36 329.93,-288 277.59,-224.29 200.28,-315.71 147.93,-252 137.78,-239.64 141.71,-230.74 147.93,-216 156.86,-194.86 176.01,-201.14 184.93,-180 191.16,-165.26 189.83,-159.23 184.93,-144 181.71,-133.98 175.82,-124.24 169.61,-115.91"/>
<polygon fill="black" stroke="black" points="172.53,-113.95 163.55,-108.33 167.07,-118.33 172.53,-113.95"/>
</g>
<!-- r2_node_11&#45;&gt;r2_node_20 -->
<g id="edge45" class="edge">
<title>r2_node_11&#45;&gt;r2_node_20</title>
<path fill="none" stroke="black" d="M187.97,-755.71C178.03,-764.93 164.47,-776.51 151.95,-786.51"/>
<polygon fill="black" stroke="black" points="149.98,-783.61 144.27,-792.53 154.3,-789.12 149.98,-783.61"/>
</g>
<!-- r2_node_11&#45;&gt;r2_node_29 -->
<g id="edge47" class="edge">
<title>r2_node_11&#45;&gt;r2_node_29</title>
<path fill="none" stroke="black" d="M221.63,-720.84C247.27,-700.66 294.23,-666.53 339.93,-648 415.54,-617.35 452.59,-658.05 519.93,-612 551.28,-590.56 546.37,-572.54 565.93,-540 594.34,-492.75 598.07,-478.97 626.93,-432 637,-415.62 641.1,-412.52 650.93,-396 669.44,-364.91 680.23,-359.12 688.93,-324 692.78,-308.47 698.5,-300.83 688.93,-288 685.03,-282.76 614.7,-262.91 563.63,-249.05"/>
<polygon fill="black" stroke="black" points="564.76,-245.73 554.19,-246.49 562.93,-252.48 564.76,-245.73"/>
</g>
<!-- r2_node_12 -->
<g id="node27" class="node">
<title>r2_node_12</title>
<ellipse fill="none" stroke="black" cx="678.93" cy="-522" rx="54.93" ry="18"/>
<text text-anchor="middle" x="678.93" y="-516.95" font-family="Times,serif" font-size="14.00">r2_node_12</text>
</g>
<!-- r2_node_11&#45;&gt;r2_node_12 -->
<g id="edge44" class="edge">
<title>r2_node_11&#45;&gt;r2_node_12</title>
<path fill="none" stroke="black" d="M238.35,-724.11C266.41,-713.92 306,-698.96 339.93,-684 372.67,-669.57 378.15,-659.76 411.93,-648 485.69,-622.32 514.64,-648.04 583.93,-612 613.84,-596.45 641.15,-568.8 658.73,-548.44"/>
<polygon fill="black" stroke="black" points="661.38,-550.73 665.13,-540.82 656.02,-546.23 661.38,-550.73"/>
</g>
<!-- r2_node_16 -->
<g id="node28" class="node">
<title>r2_node_16</title>
<ellipse fill="none" stroke="black" cx="638.93" cy="-234" rx="54.93" ry="18"/>
<text text-anchor="middle" x="638.93" y="-228.95" font-family="Times,serif" font-size="14.00">r2_node_16</text>
</g>
<!-- r2_node_11&#45;&gt;r2_node_16 -->
<g id="edge46" class="edge">
<title>r2_node_11&#45;&gt;r2_node_16</title>
<path fill="none" stroke="black" d="M257.07,-737.63C372.63,-735.1 637.04,-709.7 733.93,-540 765.92,-483.99 839.58,-528.37 696.93,-288 689.91,-276.16 679.17,-265.94 668.76,-257.72"/>
<polygon fill="black" stroke="black" points="671.12,-255.12 661.02,-251.93 666.93,-260.72 671.12,-255.12"/>
</g>
<!-- r2_node_13 -->
<g id="node4" class="node">
<title>r2_node_13</title>
<ellipse fill="none" stroke="black" cx="602.93" cy="-90" rx="54.93" ry="18"/>
<text text-anchor="middle" x="602.93" y="-84.95" font-family="Times,serif" font-size="14.00">r2_node_13</text>
</g>
<!-- r2_node_7 -->
<g id="node5" class="node">
<title>r2_node_7</title>
<ellipse fill="none" stroke="black" cx="109.93" cy="-378" rx="50.33" ry="18"/>
<text text-anchor="middle" x="109.93" y="-372.95" font-family="Times,serif" font-size="14.00">r2_node_7</text>
</g>
<!-- r2_node_19 -->
<g id="node6" class="node">
<title>r2_node_19</title>
<ellipse fill="none" stroke="black" cx="265.93" cy="-306" rx="54.93" ry="18"/>
<text text-anchor="middle" x="265.93" y="-300.95" font-family="Times,serif" font-size="14.00">r2_node_19</text>
</g>
<!-- r2_node_7&#45;&gt;r2_node_19 -->
<g id="edge3" class="edge">
<title>r2_node_7&#45;&gt;r2_node_19</title>
<path fill="none" stroke="black" d="M136.66,-362.5C159.68,-351.54 193.21,-336.44 220.4,-324.76"/>
<polygon fill="black" stroke="black" points="221.64,-328.03 229.47,-320.89 218.9,-321.59 221.64,-328.03"/>
</g>
<!-- r2_node_2 -->
<g id="node7" class="node">
<title>r2_node_2</title>
<ellipse fill="none" stroke="black" cx="142.93" cy="-306" rx="50.33" ry="18"/>
<text text-anchor="middle" x="142.93" y="-300.95" font-family="Times,serif" font-size="14.00">r2_node_2</text>
</g>
<!-- r2_node_7&#45;&gt;r2_node_2 -->
<g id="edge4" class="edge">
<title>r2_node_7&#45;&gt;r2_node_2</title>
<path fill="none" stroke="black" d="M117.92,-360.05C121.61,-352.23 126.08,-342.75 130.22,-333.98"/>
<polygon fill="black" stroke="black" points="133.28,-335.7 134.37,-325.16 126.94,-332.71 133.28,-335.7"/>
</g>
<!-- r2_node_25 -->
<g id="node8" class="node">
<title>r2_node_25</title>
<ellipse fill="none" stroke="black" cx="121.93" cy="-450" rx="54.93" ry="18"/>
<text text-anchor="middle" x="121.93" y="-444.95" font-family="Times,serif" font-size="14.00">r2_node_25</text>
</g>
<!-- r2_node_7&#45;&gt;r2_node_25 -->
<g id="edge5" class="edge">
<title>r2_node_7&#45;&gt;r2_node_25</title>
<path fill="none" stroke="black" d="M118.76,-396.1C120.79,-403.45 122.55,-412.24 123.7,-420.53"/>
<polygon fill="black" stroke="black" points="120.19,-420.62 124.72,-430.19 127.15,-419.88 120.19,-420.62"/>
</g>
<!-- r2_node_1 -->
<g id="node9" class="node">
<title>r2_node_1</title>
<ellipse fill="none" stroke="black" cx="125.93" cy="-162" rx="50.33" ry="18"/>
<text text-anchor="middle" x="125.93" y="-156.95" font-family="Times,serif" font-size="14.00">r2_node_1</text>
</g>
<!-- r2_node_7&#45;&gt;r2_node_1 -->
<g id="edge6" class="edge">
<title>r2_node_7&#45;&gt;r2_node_1</title>
<path fill="none" stroke="black" d="M99.16,-360.08C93.4,-350.03 86.9,-336.78 83.93,-324 72.9,-276.47 94.71,-221.57 110.83,-189.72"/>
<polygon fill="black" stroke="black" points="113.76,-191.67 115.32,-181.19 107.56,-188.41 113.76,-191.67"/>
</g>
<!-- r2_node_19&#45;&gt;r2_node_7 -->
<g id="edge32" class="edge">
<title>r2_node_19&#45;&gt;r2_node_7</title>
<path fill="none" stroke="black" d="M238.39,-321.89C214.97,-333.02 181.08,-348.27 153.94,-359.9"/>
<polygon fill="black" stroke="black" points="152.75,-356.6 144.92,-363.73 155.49,-363.04 152.75,-356.6"/>
</g>
<!-- r2_node_25&#45;&gt;r2_node_7 -->
<g id="edge34" class="edge">
<title>r2_node_25&#45;&gt;r2_node_7</title>
<path fill="none" stroke="black" d="M113.15,-432.05C111.11,-424.68 109.33,-415.84 108.18,-407.51"/>
<polygon fill="black" stroke="black" points="111.68,-407.35 107.14,-397.78 104.72,-408.09 111.68,-407.35"/>
</g>
<!-- r2_node_23 -->
<g id="node18" class="node">
<title>r2_node_23</title>
<ellipse fill="none" stroke="black" cx="299.93" cy="-378" rx="54.93" ry="18"/>
<text text-anchor="middle" x="299.93" y="-372.95" font-family="Times,serif" font-size="14.00">r2_node_23</text>
</g>
<!-- r2_node_25&#45;&gt;r2_node_23 -->
<g id="edge33" class="edge">
<title>r2_node_25&#45;&gt;r2_node_23</title>
<path fill="none" stroke="black" d="M152.81,-434.67C180.18,-423.32 220.4,-407.47 251.93,-395.58"/>
<polygon fill="black" stroke="black" points="253.13,-398.87 261.27,-392.09 250.68,-392.31 253.13,-398.87"/>
</g>
<!-- r2_node_27 -->
<g id="node23" class="node">
<title>r2_node_27</title>
<ellipse fill="none" stroke="black" cx="93.93" cy="-18" rx="54.93" ry="18"/>
<text text-anchor="middle" x="93.93" y="-12.95" font-family="Times,serif" font-size="14.00">r2_node_27</text>
</g>
<!-- r2_node_25&#45;&gt;r2_node_27 -->
<g id="edge36" class="edge">
<title>r2_node_25&#45;&gt;r2_node_27</title>
<path fill="none" stroke="black" d="M91.22,-434.64C76.14,-425.81 59.41,-412.91 50.93,-396 -8.8,-276.87 52.72,-110.6 81.17,-46.08"/>
<polygon fill="black" stroke="black" points="84.2,-47.87 85.12,-37.32 77.82,-44.99 84.2,-47.87"/>
</g>
<!-- r2_node_10 -->
<g id="node25" class="node">
<title>r2_node_10</title>
<ellipse fill="none" stroke="black" cx="343.93" cy="-522" rx="54.93" ry="18"/>
<text text-anchor="middle" x="343.93" y="-516.95" font-family="Times,serif" font-size="14.00">r2_node_10</text>
</g>
<!-- r2_node_25&#45;&gt;r2_node_10 -->
<g id="edge35" class="edge">
<title>r2_node_25&#45;&gt;r2_node_10</title>
<path fill="none" stroke="black" d="M162.94,-462.31C201.04,-473.73 257.56,-491.48 297.34,-504.47"/>
<polygon fill="black" stroke="black" points="296.05,-507.73 306.65,-507.53 298.24,-501.08 296.05,-507.73"/>
</g>
<!-- r2_node_26 -->
<g id="node10" class="node">
<title>r2_node_26</title>
<ellipse fill="none" stroke="black" cx="434.93" cy="-18" rx="54.93" ry="18"/>
<text text-anchor="middle" x="434.93" y="-12.95" font-family="Times,serif" font-size="14.00">r2_node_26</text>
</g>
<!-- r2_node_30&#45;&gt;r2_node_18 -->
<g id="edge54" class="edge">
<title>r2_node_30&#45;&gt;r2_node_18</title>
<path fill="none" stroke="black" d="M101.62,-684.12C95.98,-692.59 88.17,-702.96 80.5,-712.26"/>
<polygon fill="black" stroke="black" points="78.06,-709.73 74.24,-719.61 83.39,-714.27 78.06,-709.73"/>
</g>
<!-- r2_node_24 -->
<g id="node15" class="node">
<title>r2_node_24</title>
<ellipse fill="none" stroke="black" cx="190.93" cy="-594" rx="54.93" ry="18"/>
<text text-anchor="middle" x="190.93" y="-588.95" font-family="Times,serif" font-size="14.00">r2_node_24</text>
</g>
<!-- r2_node_30&#45;&gt;r2_node_24 -->
<g id="edge56" class="edge">
<title>r2_node_30&#45;&gt;r2_node_24</title>
<path fill="none" stroke="black" d="M122.53,-648.41C132.34,-639.17 145.8,-627.54 158.24,-617.49"/>
<polygon fill="black" stroke="black" points="160.2,-620.4 165.86,-611.45 155.85,-614.92 160.2,-620.4"/>
</g>
<!-- r2_node_14 -->
<g id="node21" class="node">
<title>r2_node_14</title>
<ellipse fill="none" stroke="black" cx="109.93" cy="-522" rx="54.93" ry="18"/>
<text text-anchor="middle" x="109.93" y="-516.95" font-family="Times,serif" font-size="14.00">r2_node_14</text>
</g>
<!-- r2_node_30&#45;&gt;r2_node_14 -->
<g id="edge57" class="edge">
<title>r2_node_30&#45;&gt;r2_node_14</title>
<path fill="none" stroke="black" d="M109.06,-647.59C109.23,-623.61 109.53,-580.14 109.73,-551.42"/>
<polygon fill="black" stroke="black" points="113.23,-551.65 109.8,-541.62 106.23,-551.6 113.23,-551.65"/>
</g>
<!-- r2_node_5 -->
<g id="node26" class="node">
<title>r2_node_5</title>
<ellipse fill="none" stroke="black" cx="382.93" cy="-594" rx="50.33" ry="18"/>
<text text-anchor="middle" x="382.93" y="-588.95" font-family="Times,serif" font-size="14.00">r2_node_5</text>
</g>
<!-- r2_node_30&#45;&gt;r2_node_5 -->
<g id="edge55" class="edge">
<title>r2_node_30&#45;&gt;r2_node_5</title>
<path fill="none" stroke="black" d="M149.31,-653.36C197.29,-640.58 277.27,-620.14 330.11,-607.15"/>
<polygon fill="black" stroke="black" points="330.93,-610.55 339.81,-604.78 329.27,-603.75 330.93,-610.55"/>
</g>
<!-- r2_node_8 -->
<g id="node14" class="node">
<title>r2_node_8</title>
<ellipse fill="none" stroke="black" cx="426.93" cy="-306" rx="50.33" ry="18"/>
<text text-anchor="middle" x="426.93" y="-300.95" font-family="Times,serif" font-size="14.00">r2_node_8</text>
</g>
<!-- r2_node_8&#45;&gt;r2_node_24 -->
<g id="edge11" class="edge">
<title>r2_node_8&#45;&gt;r2_node_24</title>
<path fill="none" stroke="black" d="M425.39,-324.28C417.91,-344.33 398.71,-377.04 372.93,-396 331.16,-426.73 299.58,-396.33 261.93,-432 224.23,-467.72 209.16,-528.92 200.56,-564.69"/>
<polygon fill="black" stroke="black" points="197.19,-563.76 198.23,-574.3 203.99,-565.41 197.19,-563.76"/>
</g>
<!-- r2_node_3 -->
<g id="node16" class="node">
<title>r2_node_3</title>
<ellipse fill="none" stroke="black" cx="245.93" cy="-18" rx="50.33" ry="18"/>
<text text-anchor="middle" x="245.93" y="-12.95" font-family="Times,serif" font-size="14.00">r2_node_3</text>
</g>
<!-- r2_node_8&#45;&gt;r2_node_3 -->
<g id="edge12" class="edge">
<title>r2_node_8&#45;&gt;r2_node_3</title>
<path fill="none" stroke="black" d="M406.81,-289.34C385.5,-270.85 357.3,-239.63 375.93,-216 418.38,-162.16 483.49,-233.84 525.93,-180 535.84,-167.44 534.64,-157.42 525.93,-144 499.38,-103.06 367.25,-56.65 294.38,-33.6"/>
<polygon fill="black" stroke="black" points="295.68,-30.34 285.1,-30.69 293.59,-37.02 295.68,-30.34"/>
</g>
<!-- r2_node_17 -->
<g id="node17" class="node">
<title>r2_node_17</title>
<ellipse fill="none" stroke="black" cx="211.93" cy="-234" rx="54.93" ry="18"/>
<text text-anchor="middle" x="211.93" y="-228.95" font-family="Times,serif" font-size="14.00">r2_node_17</text>
</g>
<!-- r2_node_8&#45;&gt;r2_node_17 -->
<g id="edge13" class="edge">
<title>r2_node_8&#45;&gt;r2_node_17</title>
<path fill="none" stroke="black" d="M388.28,-294.06C351.58,-282.74 296.57,-264.92 257.71,-251.81"/>
<polygon fill="black" stroke="black" points="259.23,-248.63 248.64,-248.74 256.98,-255.26 259.23,-248.63"/>
</g>
<!-- r2_node_8&#45;&gt;r2_node_23 -->
<g id="edge14" class="edge">
<title>r2_node_8&#45;&gt;r2_node_23</title>
<path fill="none" stroke="black" d="M404.77,-322.36C387.2,-332.73 362.37,-346.49 341.22,-357.61"/>
<polygon fill="black" stroke="black" points="339.78,-354.42 332.53,-362.14 343.01,-360.63 339.78,-354.42"/>
</g>
<!-- r2_node_24&#45;&gt;r2_node_30 -->
<g id="edge43" class="edge">
<title>r2_node_24&#45;&gt;r2_node_30</title>
<path fill="none" stroke="black" d="M177.21,-611.71C167.4,-620.93 154.01,-632.51 141.63,-642.51"/>
<polygon fill="black" stroke="black" points="139.7,-639.57 134.04,-648.52 144.05,-645.06 139.7,-639.57"/>
</g>
<!-- r2_node_24&#45;&gt;r2_node_8 -->
<g id="edge42" class="edge">
<title>r2_node_24&#45;&gt;r2_node_8</title>
<path fill="none" stroke="black" d="M187.58,-575.77C188.04,-543.08 201.97,-471.76 243.93,-432 281.58,-396.33 313.16,-426.73 354.93,-396 377.14,-379.67 394.47,-353.12 406.94,-333.26"/>
<polygon fill="black" stroke="black" points="409.86,-335.19 412.21,-324.86 403.93,-331.47 409.86,-335.19"/>
</g>
<!-- r2_node_24&#45;&gt;r2_node_10 -->
<g id="edge41" class="edge">
<title>r2_node_24&#45;&gt;r2_node_10</title>
<path fill="none" stroke="black" d="M218.1,-577.98C240.53,-567.11 272.65,-552.36 298.88,-540.88"/>
<polygon fill="black" stroke="black" points="300.18,-544.13 307.96,-536.94 297.39,-537.71 300.18,-544.13"/>
</g>
<!-- r2_node_17&#45;&gt;r2_node_6 -->
<g id="edge15" class="edge">
<title>r2_node_17&#45;&gt;r2_node_6</title>
<path fill="none" stroke="black" d="M219.62,-215.89C226.81,-197.16 234.82,-166.77 222.93,-144 215.39,-129.54 201.9,-118.22 188.36,-109.82"/>
<polygon fill="black" stroke="black" points="190.3,-106.9 179.88,-104.97 186.82,-112.98 190.3,-106.9"/>
</g>
<!-- r2_node_17&#45;&gt;r2_node_8 -->
<g id="edge16" class="edge">
<title>r2_node_17&#45;&gt;r2_node_8</title>
<path fill="none" stroke="black" d="M252.53,-246.54C289.65,-258.01 344.27,-275.72 382.52,-288.65"/>
<polygon fill="black" stroke="black" points="381.31,-291.93 391.91,-291.84 383.56,-285.3 381.31,-291.93"/>
</g>
<!-- r2_node_21 -->
<g id="node19" class="node">
<title>r2_node_21</title>
<ellipse fill="none" stroke="black" cx="461.93" cy="-162" rx="54.93" ry="18"/>
<text text-anchor="middle" x="461.93" y="-156.95" font-family="Times,serif" font-size="14.00">r2_node_21</text>
</g>
<!-- r2_node_17&#45;&gt;r2_node_21 -->
<g id="edge17" class="edge">
<title>r2_node_17&#45;&gt;r2_node_21</title>
<path fill="none" stroke="black" d="M250.49,-220.73C292.8,-208.35 360.81,-189.29 408.29,-176.49"/>
<polygon fill="black" stroke="black" points="409.08,-179.91 417.83,-173.93 407.26,-173.14 409.08,-179.91"/>
</g>
<!-- r2_node_28 -->
<g id="node20" class="node">
<title>r2_node_28</title>
<ellipse fill="none" stroke="black" cx="332.93" cy="-162" rx="54.93" ry="18"/>
<text text-anchor="middle" x="332.93" y="-156.95" font-family="Times,serif" font-size="14.00">r2_node_28</text>
</g>
<!-- r2_node_17&#45;&gt;r2_node_28 -->
<g id="edge18" class="edge">
<title>r2_node_17&#45;&gt;r2_node_28</title>
<path fill="none" stroke="black" d="M233.63,-217.12C250.03,-206.95 272.85,-193.68 292.52,-182.82"/>
<polygon fill="black" stroke="black" points="294.04,-185.98 301.15,-178.12 290.69,-179.83 294.04,-185.98"/>
</g>
<!-- r2_node_23&#45;&gt;r2_node_25 -->
<g id="edge40" class="edge">
<title>r2_node_23&#45;&gt;r2_node_25</title>
<path fill="none" stroke="black" d="M269.05,-393.34C241.65,-404.69 201.37,-420.57 169.83,-432.46"/>
<polygon fill="black" stroke="black" points="168.63,-429.17 160.49,-435.95 171.08,-435.73 168.63,-429.17"/>
</g>
<!-- r2_node_23&#45;&gt;r2_node_8 -->
<g id="edge39" class="edge">
<title>r2_node_23&#45;&gt;r2_node_8</title>
<path fill="none" stroke="black" d="M322.69,-361.29C340.45,-350.83 365.39,-337.02 386.47,-325.95"/>
<polygon fill="black" stroke="black" points="387.86,-329.18 395.12,-321.46 384.64,-322.96 387.86,-329.18"/>
</g>
<!-- r2_node_21&#45;&gt;r2_node_13 -->
<g id="edge27" class="edge">
<title>r2_node_21&#45;&gt;r2_node_13</title>
<path fill="none" stroke="black" d="M491.15,-146.5C512.13,-136.08 540.65,-121.92 563.63,-110.51"/>
<polygon fill="black" stroke="black" points="565,-113.74 572.4,-106.16 561.89,-107.47 565,-113.74"/>
</g>
<!-- r2_node_21&#45;&gt;r2_node_17 -->
<g id="edge28" class="edge">
<title>r2_node_21&#45;&gt;r2_node_17</title>
<path fill="none" stroke="black" d="M423.4,-175.27C381.2,-187.62 313.39,-206.62 265.92,-219.42"/>
<polygon fill="black" stroke="black" points="265.13,-216 256.37,-221.98 266.94,-222.77 265.13,-216"/>
</g>
<!-- r2_node_15 -->
<g id="node22" class="node">
<title>r2_node_15</title>
<ellipse fill="none" stroke="black" cx="275.93" cy="-90" rx="54.93" ry="18"/>
<text text-anchor="middle" x="275.93" y="-84.95" font-family="Times,serif" font-size="14.00">r2_node_15</text>
</g>
<!-- r2_node_21&#45;&gt;r2_node_15 -->
<g id="edge25" class="edge">
<title>r2_node_21&#45;&gt;r2_node_15</title>
<path fill="none" stroke="black" d="M423.82,-148.65C393.01,-137.68 349.82,-121.51 318.01,-109.09"/>
<polygon fill="black" stroke="black" points="319.69,-105.99 309.1,-105.59 317.13,-112.5 319.69,-105.99"/>
</g>
<!-- r2_node_21&#45;&gt;r2_node_10 -->
<g id="edge26" class="edge">
<title>r2_node_21&#45;&gt;r2_node_10</title>
<path fill="none" stroke="black" d="M430.39,-177.06C413.76,-185.47 394.94,-198.08 384.93,-216 377.13,-229.97 375.54,-239.05 384.93,-252 415.13,-293.65 464.74,-246.35 494.93,-288 504.32,-300.95 501.53,-309.42 494.93,-324 474.93,-368.18 453.46,-369.36 412.93,-396 381.7,-416.53 356.92,-400.42 336.93,-432 325.46,-450.13 330.8,-474.26 336.89,-492.82"/>
<polygon fill="black" stroke="black" points="333.54,-493.84 340.15,-502.13 340.15,-491.53 333.54,-493.84"/>
</g>
<!-- r2_node_28&#45;&gt;r2_node_6 -->
<g id="edge37" class="edge">
<title>r2_node_28&#45;&gt;r2_node_6</title>
<path fill="none" stroke="black" d="M297.95,-147.83C267.79,-136.48 224.07,-120.03 191.43,-107.75"/>
<polygon fill="black" stroke="black" points="192.83,-104.53 182.24,-104.29 190.36,-111.08 192.83,-104.53"/>
</g>
<!-- r2_node_28&#45;&gt;r2_node_17 -->
<g id="edge38" class="edge">
<title>r2_node_28&#45;&gt;r2_node_17</title>
<path fill="none" stroke="black" d="M311.41,-178.78C294.97,-188.97 272.04,-202.32 252.28,-213.22"/>
<polygon fill="black" stroke="black" points="250.72,-210.08 243.61,-217.94 254.07,-216.23 250.72,-210.08"/>
</g>
<!-- r2_node_15&#45;&gt;r2_node_26 -->
<g id="edge20" class="edge">
<title>r2_node_15&#45;&gt;r2_node_26</title>
<path fill="none" stroke="black" d="M307.73,-75C332.13,-64.26 366.05,-49.33 392.72,-37.58"/>
<polygon fill="black" stroke="black" points="393.8,-40.94 401.54,-33.7 390.98,-34.53 393.8,-40.94"/>
</g>
<!-- r2_node_15&#45;&gt;r2_node_3 -->
<g id="edge22" class="edge">
<title>r2_node_15&#45;&gt;r2_node_3</title>
<path fill="none" stroke="black" d="M268.52,-71.7C265.29,-64.15 261.41,-55.12 257.8,-46.68"/>
<polygon fill="black" stroke="black" points="261.02,-45.31 253.86,-37.5 254.58,-48.07 261.02,-45.31"/>
</g>
<!-- r2_node_15&#45;&gt;r2_node_21 -->
<g id="edge19" class="edge">
<title>r2_node_15&#45;&gt;r2_node_21</title>
<path fill="none" stroke="black" d="M313.99,-103.33C344.84,-114.31 388.11,-130.51 419.94,-142.94"/>
<polygon fill="black" stroke="black" points="418.27,-146.05 428.86,-146.45 420.83,-139.53 418.27,-146.05"/>
</g>
<!-- r2_node_15&#45;&gt;r2_node_27 -->
<g id="edge21" class="edge">
<title>r2_node_15&#45;&gt;r2_node_27</title>
<path fill="none" stroke="black" d="M241.27,-75.67C212.3,-64.53 170.78,-48.55 139.19,-36.41"/>
<polygon fill="black" stroke="black" points="140.47,-33.15 129.88,-32.82 137.96,-39.68 140.47,-33.15"/>
</g>
<!-- r2_node_4 -->
<g id="node24" class="node">
<title>r2_node_4</title>
<ellipse fill="none" stroke="black" cx="386.93" cy="-450" rx="50.33" ry="18"/>
<text text-anchor="middle" x="386.93" y="-444.95" font-family="Times,serif" font-size="14.00">r2_node_4</text>
</g>
<!-- r2_node_4&#45;&gt;r2_node_29 -->
<g id="edge23" class="edge">
<title>r2_node_4&#45;&gt;r2_node_29</title>
<path fill="none" stroke="black" d="M417.79,-435.52C455.63,-416.89 517.2,-379.22 536.93,-324 544.28,-303.44 536.55,-279.69 527.65,-261.89"/>
<polygon fill="black" stroke="black" points="530.8,-260.37 522.95,-253.25 524.65,-263.71 530.8,-260.37"/>
</g>
<!-- r2_node_4&#45;&gt;r2_node_10 -->
<g id="edge24" class="edge">
<title>r2_node_4&#45;&gt;r2_node_10</title>
<path fill="none" stroke="black" d="M382.4,-467.96C378.27,-476.09 372.39,-486.01 366.42,-495.06"/>
<polygon fill="black" stroke="black" points="363.62,-492.95 360.82,-503.17 369.38,-496.92 363.62,-492.95"/>
</g>
<!-- r2_node_10&#45;&gt;r2_node_25 -->
<g id="edge52" class="edge">
<title>r2_node_10&#45;&gt;r2_node_25</title>
<path fill="none" stroke="black" d="M302.89,-509.68C264.76,-498.25 208.21,-480.49 168.44,-467.5"/>
<polygon fill="black" stroke="black" points="169.73,-464.24 159.13,-464.45 167.54,-470.89 169.73,-464.24"/>
</g>
<!-- r2_node_10&#45;&gt;r2_node_24 -->
<g id="edge51" class="edge">
<title>r2_node_10&#45;&gt;r2_node_24</title>
<path fill="none" stroke="black" d="M316.84,-537.98C294.41,-548.86 262.24,-563.63 235.98,-575.12"/>
<polygon fill="black" stroke="black" points="234.68,-571.87 226.9,-579.07 237.46,-578.3 234.68,-571.87"/>
</g>
<!-- r2_node_10&#45;&gt;r2_node_21 -->
<g id="edge50" class="edge">
<title>r2_node_10&#45;&gt;r2_node_21</title>
<path fill="none" stroke="black" d="M328.11,-504.58C316.13,-485.65 304.83,-454.29 318.93,-432 338.92,-400.42 363.7,-416.53 394.93,-396 435.46,-369.36 456.93,-368.18 476.93,-324 483.53,-309.42 486.32,-300.95 476.93,-288 446.74,-246.35 397.13,-293.65 366.93,-252 357.54,-239.05 359.13,-229.97 366.93,-216 376.3,-199.23 393.39,-187.11 410.58,-178.73"/>
<polygon fill="black" stroke="black" points="411.58,-182.12 419.28,-174.84 408.72,-175.73 411.58,-182.12"/>
</g>
<!-- r2_node_10&#45;&gt;r2_node_4 -->
<g id="edge53" class="edge">
<title>r2_node_10&#45;&gt;r2_node_4</title>
<path fill="none" stroke="black" d="M348.65,-503.7C352.84,-495.49 358.76,-485.52 364.76,-476.48"/>
<polygon fill="black" stroke="black" points="367.55,-478.6 370.36,-468.39 361.79,-474.62 367.55,-478.6"/>
</g>
<!-- r2_node_5&#45;&gt;r2_node_13 -->
<g id="edge30" class="edge">
<title>r2_node_5&#45;&gt;r2_node_13</title>
<path fill="none" stroke="black" d="M411.7,-578.81C428.81,-569.42 450.17,-555.91 465.93,-540 519.04,-486.38 525.97,-465.27 555.93,-396 575.29,-351.27 604.36,-326.85 574.93,-288 539.25,-240.89 482.62,-299.11 446.93,-252 437.27,-239.25 437.03,-228.56 446.93,-216 489.38,-162.16 552.7,-232.38 596.93,-180 610.84,-163.54 611.4,-138.68 609.02,-119.42"/>
<polygon fill="black" stroke="black" points="612.51,-119.09 607.48,-109.77 605.6,-120.19 612.51,-119.09"/>
</g>
<!-- r2_node_5&#45;&gt;r2_node_26 -->
<g id="edge31" class="edge">
<title>r2_node_5&#45;&gt;r2_node_26</title>
<path fill="none" stroke="black" d="M394.55,-576.09C421.87,-535.14 489.57,-426.47 511.93,-324 515.35,-308.37 520.49,-301.52 511.93,-288 491.95,-256.42 455.92,-283.58 435.93,-252 427.38,-238.48 426.6,-228.99 435.93,-216 465.21,-175.25 513.65,-220.75 542.93,-180 552.27,-167.01 548.51,-159 542.93,-144 527.3,-101.98 490.48,-64.67 464.19,-41.98"/>
<polygon fill="black" stroke="black" points="466.79,-39.59 456.88,-35.84 462.28,-44.95 466.79,-39.59"/>
</g>
<!-- r2_node_5&#45;&gt;r2_node_30 -->
<g id="edge29" class="edge">
<title>r2_node_5&#45;&gt;r2_node_30</title>
<path fill="none" stroke="black" d="M344.76,-606.05C297.76,-618.6 217.79,-639.05 164.12,-652.27"/>
<polygon fill="black" stroke="black" points="163.44,-648.83 154.56,-654.61 165.11,-655.63 163.44,-648.83"/>
</g>
<!-- r2_node_16&#45;&gt;r2_node_11 -->
<g id="edge49" class="edge">
<title>r2_node_16&#45;&gt;r2_node_11</title>
<path fill="none" stroke="black" d="M671.96,-248.62C687.71,-257.8 705.02,-271.29 714.93,-288 857.58,-528.37 783.92,-483.99 751.93,-540 655.33,-709.19 392.21,-734.95 268.17,-737.6"/>
<polygon fill="black" stroke="black" points="268.42,-734.1 258.48,-737.76 268.54,-741.1 268.42,-734.1"/>
</g>
<!-- r2_node_16&#45;&gt;r2_node_13 -->
<g id="edge48" class="edge">
<title>r2_node_16&#45;&gt;r2_node_13</title>
<path fill="none" stroke="black" d="M640.65,-215.51C641.87,-197.25 642.2,-167.98 634.93,-144 632.1,-134.64 627.24,-125.24 622.15,-117"/>
<polygon fill="black" stroke="black" points="625.21,-115.3 616.78,-108.89 619.37,-119.16 625.21,-115.3"/>
</g>
</g>
</svg>
