<?xml version="1.0" encoding="UTF-8" standalone="no"?>
<!DOCTYPE svg PUBLIC "-//W3C//DTD SVG 1.1//EN"
 "http://www.w3.org/Graphics/SVG/1.1/DTD/svg11.dtd">
<!-- Generated by graphviz version 12.2.1 (20241206.2353)
 -->
<!-- Pages: 1 -->
<svg width="986pt" height="692pt"
 viewBox="0.00 0.00 986.26 692.00" xmlns="http://www.w3.org/2000/svg" xmlns:xlink="http://www.w3.org/1999/xlink">
<g id="graph0" class="graph" transform="scale(1 1) rotate(0) translate(4 688)">
<polygon fill="white" stroke="none" points="-4,4 -4,-688 982.26,-688 982.26,4 -4,4"/>
<!-- r2_node_26 -->
<g id="node1" class="node">
<title>r2_node_26</title>
<ellipse fill="none" stroke="black" cx="54.93" cy="-18" rx="54.93" ry="18"/>
<text text-anchor="middle" x="54.93" y="-12.95" font-family="Times,serif" font-size="14.00">r2_node_26</text>
</g>
<!-- r2_node_21 -->
<g id="node2" class="node">
<title>r2_node_21</title>
<ellipse fill="none" stroke="black" cx="237.93" cy="-594" rx="54.93" ry="18"/>
<text text-anchor="middle" x="237.93" y="-588.95" font-family="Times,serif" font-size="14.00">r2_node_21</text>
</g>
<!-- r2_node_15 -->
<g id="node3" class="node">
<title>r2_node_15</title>
<ellipse fill="none" stroke="black" cx="69.93" cy="-666" rx="54.93" ry="18"/>
<text text-anchor="middle" x="69.93" y="-660.95" font-family="Times,serif" font-size="14.00">r2_node_15</text>
</g>
<!-- r2_node_21&#45;&gt;r2_node_15 -->
<g id="edge1" class="edge">
<title>r2_node_21&#45;&gt;r2_node_15</title>
<path fill="none" stroke="black" d="M208.56,-609.57C183.12,-620.77 146.05,-636.25 116.59,-648.01"/>
<polygon fill="black" stroke="black" points="115.53,-644.67 107.52,-651.6 118.11,-651.18 115.53,-644.67"/>
</g>
<!-- r2_node_10 -->
<g id="node4" class="node">
<title>r2_node_10</title>
<ellipse fill="none" stroke="black" cx="453.93" cy="-522" rx="54.93" ry="18"/>
<text text-anchor="middle" x="453.93" y="-516.95" font-family="Times,serif" font-size="14.00">r2_node_10</text>
</g>
<!-- r2_node_21&#45;&gt;r2_node_10 -->
<g id="edge2" class="edge">
<title>r2_node_21&#45;&gt;r2_node_10</title>
<path fill="none" stroke="black" d="M273.15,-579.83C308.31,-567.89 362.53,-550.29 402.48,-537.85"/>
<polygon fill="black" stroke="black" points="403.38,-541.23 411.9,-534.93 401.31,-534.55 403.38,-541.23"/>
</g>
<!-- r2_node_13 -->
<g id="node5" class="node">
<title>r2_node_13</title>
<ellipse fill="none" stroke="black" cx="270.93" cy="-18" rx="54.93" ry="18"/>
<text text-anchor="middle" x="270.93" y="-12.95" font-family="Times,serif" font-size="14.00">r2_node_13</text>
</g>
<!-- r2_node_21&#45;&gt;r2_node_13 -->
<g id="edge3" class="edge">
<title>r2_node_21&#45;&gt;r2_node_13</title>
<path fill="none" stroke="black" d="M230.68,-575.87C208.71,-521.46 147.25,-348.37 193.93,-216 200.77,-196.62 213.37,-198.19 222.93,-180 245.78,-136.54 259.33,-80.63 265.94,-47.42"/>
<polygon fill="black" stroke="black" points="269.34,-48.25 267.78,-37.77 262.47,-46.94 269.34,-48.25"/>
</g>
<!-- r2_node_17 -->
<g id="node6" class="node">
<title>r2_node_17</title>
<ellipse fill="none" stroke="black" cx="306.93" cy="-522" rx="54.93" ry="18"/>
<text text-anchor="middle" x="306.93" y="-516.95" font-family="Times,serif" font-size="14.00">r2_node_17</text>
</g>
<!-- r2_node_21&#45;&gt;r2_node_17 -->
<g id="edge4" class="edge">
<title>r2_node_21&#45;&gt;r2_node_17</title>
<path fill="none" stroke="black" d="M248.76,-576.05C256.54,-567.2 267.18,-556.23 277.29,-546.57"/>
<polygon fill="black" stroke="black" points="279.55,-549.24 284.47,-539.86 274.77,-544.13 279.55,-549.24"/>
</g>
<!-- r2_node_15&#45;&gt;r2_node_26 -->
<g id="edge31" class="edge">
<title>r2_node_15&#45;&gt;r2_node_26</title>
<path fill="none" stroke="black" d="M75.71,-647.66C101.7,-568.4 205.05,-240.41 167.93,-144 151.5,-101.32 113,-64.15 85.51,-41.68"/>
<polygon fill="black" stroke="black" points="87.85,-39.07 77.84,-35.58 83.49,-44.55 87.85,-39.07"/>
</g>
<!-- r2_node_15&#45;&gt;r2_node_21 -->
<g id="edge30" class="edge">
<title>r2_node_15&#45;&gt;r2_node_21</title>
<path fill="none" stroke="black" d="M99.15,-650.5C124.59,-639.3 161.74,-623.78 191.26,-611.99"/>
<polygon fill="black" stroke="black" points="192.34,-615.33 200.35,-608.4 189.77,-608.82 192.34,-615.33"/>
</g>
<!-- r2_node_27 -->
<g id="node14" class="node">
<title>r2_node_27</title>
<ellipse fill="none" stroke="black" cx="518.93" cy="-18" rx="54.93" ry="18"/>
<text text-anchor="middle" x="518.93" y="-12.95" font-family="Times,serif" font-size="14.00">r2_node_27</text>
</g>
<!-- r2_node_15&#45;&gt;r2_node_27 -->
<g id="edge32" class="edge">
<title>r2_node_15&#45;&gt;r2_node_27</title>
<path fill="none" stroke="black" d="M83.53,-648.09C91.14,-638.04 100.39,-624.79 106.93,-612 135.9,-555.41 248.72,-114.57 295.93,-72 319.38,-50.86 399.43,-35.56 456.91,-26.99"/>
<polygon fill="black" stroke="black" points="457.19,-30.49 466.59,-25.58 456.19,-23.56 457.19,-30.49"/>
</g>
<!-- r2_node_3 -->
<g id="node23" class="node">
<title>r2_node_3</title>
<ellipse fill="none" stroke="black" cx="108.93" cy="-162" rx="50.33" ry="18"/>
<text text-anchor="middle" x="108.93" y="-156.95" font-family="Times,serif" font-size="14.00">r2_node_3</text>
</g>
<!-- r2_node_15&#45;&gt;r2_node_3 -->
<g id="edge29" class="edge">
<title>r2_node_15&#45;&gt;r2_node_3</title>
<path fill="none" stroke="black" d="M71.28,-647.72C77.01,-573.88 99.5,-284.42 106.7,-191.72"/>
<polygon fill="black" stroke="black" points="110.17,-192.22 107.46,-181.98 103.2,-191.67 110.17,-192.22"/>
</g>
<!-- r2_node_10&#45;&gt;r2_node_21 -->
<g id="edge36" class="edge">
<title>r2_node_10&#45;&gt;r2_node_21</title>
<path fill="none" stroke="black" d="M418.74,-536.16C383.59,-548.1 329.34,-565.71 289.38,-578.15"/>
<polygon fill="black" stroke="black" points="288.48,-574.77 279.96,-581.07 290.55,-581.46 288.48,-574.77"/>
</g>
<!-- r2_node_25 -->
<g id="node12" class="node">
<title>r2_node_25</title>
<ellipse fill="none" stroke="black" cx="516.93" cy="-450" rx="54.93" ry="18"/>
<text text-anchor="middle" x="516.93" y="-444.95" font-family="Times,serif" font-size="14.00">r2_node_25</text>
</g>
<!-- r2_node_10&#45;&gt;r2_node_25 -->
<g id="edge38" class="edge">
<title>r2_node_10&#45;&gt;r2_node_25</title>
<path fill="none" stroke="black" d="M463.31,-504.05C470.26,-495.29 479.83,-484.45 489.03,-474.86"/>
<polygon fill="black" stroke="black" points="491.35,-477.49 495.87,-467.91 486.36,-472.58 491.35,-477.49"/>
</g>
<!-- r2_node_24 -->
<g id="node17" class="node">
<title>r2_node_24</title>
<ellipse fill="none" stroke="black" cx="335.93" cy="-450" rx="54.93" ry="18"/>
<text text-anchor="middle" x="335.93" y="-444.95" font-family="Times,serif" font-size="14.00">r2_node_24</text>
</g>
<!-- r2_node_10&#45;&gt;r2_node_24 -->
<g id="edge37" class="edge">
<title>r2_node_10&#45;&gt;r2_node_24</title>
<path fill="none" stroke="black" d="M423.89,-506.5C406.24,-496.76 384.09,-483.77 366.38,-472.8"/>
<polygon fill="black" stroke="black" points="368.67,-470.1 358.33,-467.75 364.95,-476.03 368.67,-470.1"/>
</g>
<!-- r2_node_17&#45;&gt;r2_node_21 -->
<g id="edge22" class="edge">
<title>r2_node_17&#45;&gt;r2_node_21</title>
<path fill="none" stroke="black" d="M296.24,-539.8C288.46,-548.65 277.81,-559.65 267.67,-569.35"/>
<polygon fill="black" stroke="black" points="265.38,-566.7 260.46,-576.08 270.16,-571.82 265.38,-566.7"/>
</g>
<!-- r2_node_8 -->
<g id="node7" class="node">
<title>r2_node_8</title>
<ellipse fill="none" stroke="black" cx="382.93" cy="-162" rx="50.33" ry="18"/>
<text text-anchor="middle" x="382.93" y="-156.95" font-family="Times,serif" font-size="14.00">r2_node_8</text>
</g>
<!-- r2_node_17&#45;&gt;r2_node_8 -->
<g id="edge21" class="edge">
<title>r2_node_17&#45;&gt;r2_node_8</title>
<path fill="none" stroke="black" d="M292.48,-504.64C284.74,-494.77 275.99,-481.52 271.93,-468 251.25,-399.13 195.42,-367.28 291.93,-216 302.36,-199.66 319.75,-187.77 336.55,-179.44"/>
<polygon fill="black" stroke="black" points="337.87,-182.69 345.5,-175.33 334.95,-176.32 337.87,-182.69"/>
</g>
<!-- r2_node_6 -->
<g id="node20" class="node">
<title>r2_node_6</title>
<ellipse fill="none" stroke="black" cx="625.93" cy="-234" rx="50.33" ry="18"/>
<text text-anchor="middle" x="625.93" y="-228.95" font-family="Times,serif" font-size="14.00">r2_node_6</text>
</g>
<!-- r2_node_17&#45;&gt;r2_node_6 -->
<g id="edge20" class="edge">
<title>r2_node_17&#45;&gt;r2_node_6</title>
<path fill="none" stroke="black" d="M336.02,-506.56C354.89,-496.68 379.64,-482.75 399.93,-468 475.73,-412.91 490.54,-393.01 553.93,-324 572.83,-303.43 592.67,-278.63 606.73,-260.44"/>
<polygon fill="black" stroke="black" points="609.29,-262.85 612.6,-252.79 603.73,-258.59 609.29,-262.85"/>
</g>
<!-- r2_node_4 -->
<g id="node8" class="node">
<title>r2_node_4</title>
<ellipse fill="none" stroke="black" cx="242.93" cy="-666" rx="50.33" ry="18"/>
<text text-anchor="middle" x="242.93" y="-660.95" font-family="Times,serif" font-size="14.00">r2_node_4</text>
</g>
<!-- r2_node_4&#45;&gt;r2_node_10 -->
<g id="edge6" class="edge">
<title>r2_node_4&#45;&gt;r2_node_10</title>
<path fill="none" stroke="black" d="M265.92,-649.53C303.47,-624.26 378.12,-574.02 421.2,-545.03"/>
<polygon fill="black" stroke="black" points="423.06,-548 429.4,-539.51 419.15,-542.19 423.06,-548"/>
</g>
<!-- r2_node_29 -->
<g id="node9" class="node">
<title>r2_node_29</title>
<ellipse fill="none" stroke="black" cx="624.93" cy="-90" rx="54.93" ry="18"/>
<text text-anchor="middle" x="624.93" y="-84.95" font-family="Times,serif" font-size="14.00">r2_node_29</text>
</g>
<!-- r2_node_4&#45;&gt;r2_node_29 -->
<g id="edge5" class="edge">
<title>r2_node_4&#45;&gt;r2_node_29</title>
<path fill="none" stroke="black" d="M289.66,-658.89C407.94,-641 722.01,-577.96 894.93,-396 972.21,-314.69 998.89,-211.02 908.93,-144 874.95,-118.69 762.12,-103.7 689.32,-96.43"/>
<polygon fill="black" stroke="black" points="689.79,-92.96 679.5,-95.48 689.11,-99.93 689.79,-92.96"/>
</g>
<!-- r2_node_19 -->
<g id="node10" class="node">
<title>r2_node_19</title>
<ellipse fill="none" stroke="black" cx="865.93" cy="-234" rx="54.93" ry="18"/>
<text text-anchor="middle" x="865.93" y="-228.95" font-family="Times,serif" font-size="14.00">r2_node_19</text>
</g>
<!-- r2_node_7 -->
<g id="node11" class="node">
<title>r2_node_7</title>
<ellipse fill="none" stroke="black" cx="835.93" cy="-378" rx="50.33" ry="18"/>
<text text-anchor="middle" x="835.93" y="-372.95" font-family="Times,serif" font-size="14.00">r2_node_7</text>
</g>
<!-- r2_node_19&#45;&gt;r2_node_7 -->
<g id="edge7" class="edge">
<title>r2_node_19&#45;&gt;r2_node_7</title>
<path fill="none" stroke="black" d="M866.89,-252.19C864.35,-276.21 855.38,-320.11 847.37,-348.91"/>
<polygon fill="black" stroke="black" points="844.04,-347.84 844.57,-358.42 850.76,-349.82 844.04,-347.84"/>
</g>
<!-- r2_node_7&#45;&gt;r2_node_19 -->
<g id="edge25" class="edge">
<title>r2_node_7&#45;&gt;r2_node_19</title>
<path fill="none" stroke="black" d="M835,-359.59C837.57,-335.5 846.52,-291.75 854.51,-263.03"/>
<polygon fill="black" stroke="black" points="857.83,-264.14 857.31,-253.56 851.12,-262.16 857.83,-264.14"/>
</g>
<!-- r2_node_7&#45;&gt;r2_node_25 -->
<g id="edge23" class="edge">
<title>r2_node_7&#45;&gt;r2_node_25</title>
<path fill="none" stroke="black" d="M797.42,-389.97C788.73,-392 779.55,-394.08 770.93,-396 704.2,-410.88 627.09,-427.46 575.4,-438.05"/>
<polygon fill="black" stroke="black" points="574.71,-434.62 565.61,-440.04 576.11,-441.48 574.71,-434.62"/>
</g>
<!-- r2_node_1 -->
<g id="node22" class="node">
<title>r2_node_1</title>
<ellipse fill="none" stroke="black" cx="849.93" cy="-162" rx="50.33" ry="18"/>
<text text-anchor="middle" x="849.93" y="-156.95" font-family="Times,serif" font-size="14.00">r2_node_1</text>
</g>
<!-- r2_node_7&#45;&gt;r2_node_1 -->
<g id="edge24" class="edge">
<title>r2_node_7&#45;&gt;r2_node_1</title>
<path fill="none" stroke="black" d="M853.69,-360.91C876.48,-338.93 914.88,-297.07 929.93,-252 935,-236.82 937.5,-230.1 929.93,-216 921.86,-200.97 907.46,-189.49 893.07,-181.12"/>
<polygon fill="black" stroke="black" points="894.99,-178.18 884.52,-176.53 891.68,-184.34 894.99,-178.18"/>
</g>
<!-- r2_node_2 -->
<g id="node24" class="node">
<title>r2_node_2</title>
<ellipse fill="none" stroke="black" cx="927.93" cy="-90" rx="50.33" ry="18"/>
<text text-anchor="middle" x="927.93" y="-84.95" font-family="Times,serif" font-size="14.00">r2_node_2</text>
</g>
<!-- r2_node_7&#45;&gt;r2_node_2 -->
<g id="edge26" class="edge">
<title>r2_node_7&#45;&gt;r2_node_2</title>
<path fill="none" stroke="black" d="M864.48,-362.78C880.69,-353.54 900.39,-340.21 913.93,-324 936.39,-297.13 938.66,-286.26 945.93,-252 955.71,-205.93 945,-151.25 936.42,-118.93"/>
<polygon fill="black" stroke="black" points="939.86,-118.25 933.8,-109.55 933.12,-120.13 939.86,-118.25"/>
</g>
<!-- r2_node_25&#45;&gt;r2_node_10 -->
<g id="edge10" class="edge">
<title>r2_node_25&#45;&gt;r2_node_10</title>
<path fill="none" stroke="black" d="M507.68,-467.8C500.73,-476.56 491.14,-487.43 481.92,-497.06"/>
<polygon fill="black" stroke="black" points="479.57,-494.46 475.05,-504.04 484.56,-499.37 479.57,-494.46"/>
</g>
<!-- r2_node_25&#45;&gt;r2_node_7 -->
<g id="edge9" class="edge">
<title>r2_node_25&#45;&gt;r2_node_7</title>
<path fill="none" stroke="black" d="M559.87,-438.43C607.24,-427.86 685.4,-411.06 752.93,-396 762,-393.98 771.67,-391.78 781.13,-389.66"/>
<polygon fill="black" stroke="black" points="781.6,-393.14 790.6,-387.55 780.08,-386.31 781.6,-393.14"/>
</g>
<!-- r2_node_23 -->
<g id="node13" class="node">
<title>r2_node_23</title>
<ellipse fill="none" stroke="black" cx="644.93" cy="-378" rx="54.93" ry="18"/>
<text text-anchor="middle" x="644.93" y="-372.95" font-family="Times,serif" font-size="14.00">r2_node_23</text>
</g>
<!-- r2_node_25&#45;&gt;r2_node_23 -->
<g id="edge8" class="edge">
<title>r2_node_25&#45;&gt;r2_node_23</title>
<path fill="none" stroke="black" d="M539.92,-433.29C557.71,-422.9 582.63,-409.21 603.78,-398.17"/>
<polygon fill="black" stroke="black" points="605.19,-401.39 612.47,-393.69 601.98,-395.16 605.19,-401.39"/>
</g>
<!-- r2_node_25&#45;&gt;r2_node_27 -->
<g id="edge11" class="edge">
<title>r2_node_25&#45;&gt;r2_node_27</title>
<path fill="none" stroke="black" d="M569.18,-443.96C635.79,-434.21 746.36,-405.85 779.93,-324 816.83,-234.04 801.6,-174.29 688.93,-72 659.81,-45.56 617.65,-32.31 582.6,-25.67"/>
<polygon fill="black" stroke="black" points="583.43,-22.26 572.98,-24 582.23,-29.16 583.43,-22.26"/>
</g>
<!-- r2_node_23&#45;&gt;r2_node_8 -->
<g id="edge44" class="edge">
<title>r2_node_23&#45;&gt;r2_node_8</title>
<path fill="none" stroke="black" d="M692.52,-368.52C718.05,-361.28 747.38,-348.04 762.93,-324 771.63,-310.57 769.35,-302.66 762.93,-288 744.01,-244.78 727.22,-236.93 684.93,-216 663.35,-205.32 521.34,-183.25 439.97,-171.23"/>
<polygon fill="black" stroke="black" points="440.81,-167.82 430.4,-169.83 439.79,-174.74 440.81,-167.82"/>
</g>
<!-- r2_node_23&#45;&gt;r2_node_25 -->
<g id="edge45" class="edge">
<title>r2_node_23&#45;&gt;r2_node_25</title>
<path fill="none" stroke="black" d="M622.13,-394.61C604.42,-404.96 579.58,-418.61 558.43,-429.65"/>
<polygon fill="black" stroke="black" points="557.01,-426.44 549.73,-434.14 560.22,-432.66 557.01,-426.44"/>
</g>
<!-- r2_node_28 -->
<g id="node28" class="node">
<title>r2_node_28</title>
<ellipse fill="none" stroke="black" cx="698.93" cy="-306" rx="54.93" ry="18"/>
<text text-anchor="middle" x="698.93" y="-300.95" font-family="Times,serif" font-size="14.00">r2_node_28</text>
</g>
<!-- r2_node_23&#45;&gt;r2_node_28 -->
<g id="edge46" class="edge">
<title>r2_node_23&#45;&gt;r2_node_28</title>
<path fill="none" stroke="black" d="M652.37,-359.7C657.97,-351.32 665.66,-341.1 673.23,-331.9"/>
<polygon fill="black" stroke="black" points="675.89,-334.18 679.71,-324.3 670.56,-329.64 675.89,-334.18"/>
</g>
<!-- r2_node_14 -->
<g id="node15" class="node">
<title>r2_node_14</title>
<ellipse fill="none" stroke="black" cx="706.93" cy="-18" rx="54.93" ry="18"/>
<text text-anchor="middle" x="706.93" y="-12.95" font-family="Times,serif" font-size="14.00">r2_node_14</text>
</g>
<!-- r2_node_30 -->
<g id="node16" class="node">
<title>r2_node_30</title>
<ellipse fill="none" stroke="black" cx="414.93" cy="-378" rx="54.93" ry="18"/>
<text text-anchor="middle" x="414.93" y="-372.95" font-family="Times,serif" font-size="14.00">r2_node_30</text>
</g>
<!-- r2_node_30&#45;&gt;r2_node_14 -->
<g id="edge13" class="edge">
<title>r2_node_30&#45;&gt;r2_node_14</title>
<path fill="none" stroke="black" d="M452.09,-364.41C480.42,-354.44 520.18,-339.62 553.93,-324 584.08,-310.05 666.7,-279.76 684.93,-252 726.49,-188.74 719.22,-94.17 712.17,-47.35"/>
<polygon fill="black" stroke="black" points="715.67,-47.07 710.61,-37.76 708.76,-48.19 715.67,-47.07"/>
</g>
<!-- r2_node_30&#45;&gt;r2_node_24 -->
<g id="edge12" class="edge">
<title>r2_node_30&#45;&gt;r2_node_24</title>
<path fill="none" stroke="black" d="M401.67,-395.96C392.36,-405.07 379.71,-416.42 367.95,-426.28"/>
<polygon fill="black" stroke="black" points="365.87,-423.46 360.36,-432.5 370.31,-428.87 365.87,-423.46"/>
</g>
<!-- r2_node_18 -->
<g id="node18" class="node">
<title>r2_node_18</title>
<ellipse fill="none" stroke="black" cx="489.93" cy="-306" rx="54.93" ry="18"/>
<text text-anchor="middle" x="489.93" y="-300.95" font-family="Times,serif" font-size="14.00">r2_node_18</text>
</g>
<!-- r2_node_30&#45;&gt;r2_node_18 -->
<g id="edge14" class="edge">
<title>r2_node_30&#45;&gt;r2_node_18</title>
<path fill="none" stroke="black" d="M427.21,-360.05C435.84,-351.12 447.56,-340.01 458.59,-330.28"/>
<polygon fill="black" stroke="black" points="460.79,-333 466.07,-323.82 456.22,-327.7 460.79,-333"/>
</g>
<!-- r2_node_5 -->
<g id="node19" class="node">
<title>r2_node_5</title>
<ellipse fill="none" stroke="black" cx="361.93" cy="-306" rx="50.33" ry="18"/>
<text text-anchor="middle" x="361.93" y="-300.95" font-family="Times,serif" font-size="14.00">r2_node_5</text>
</g>
<!-- r2_node_30&#45;&gt;r2_node_5 -->
<g id="edge15" class="edge">
<title>r2_node_30&#45;&gt;r2_node_5</title>
<path fill="none" stroke="black" d="M396.84,-360.76C389.83,-352.7 382.03,-342.74 375.5,-333.6"/>
<polygon fill="black" stroke="black" points="378.4,-331.64 369.86,-325.37 372.63,-335.6 378.4,-331.64"/>
</g>
<!-- r2_node_24&#45;&gt;r2_node_10 -->
<g id="edge40" class="edge">
<title>r2_node_24&#45;&gt;r2_node_10</title>
<path fill="none" stroke="black" d="M365.64,-465.32C383.28,-475.03 405.48,-488.06 423.27,-499.07"/>
<polygon fill="black" stroke="black" points="421.03,-501.79 431.36,-504.14 424.75,-495.86 421.03,-501.79"/>
</g>
<!-- r2_node_24&#45;&gt;r2_node_8 -->
<g id="edge41" class="edge">
<title>r2_node_24&#45;&gt;r2_node_8</title>
<path fill="none" stroke="black" d="M327.42,-431.82C308.62,-391.25 268.33,-287.54 308.93,-216 316.77,-202.2 329.84,-191.07 342.83,-182.64"/>
<polygon fill="black" stroke="black" points="344.61,-185.66 351.37,-177.5 341,-179.66 344.61,-185.66"/>
</g>
<!-- r2_node_24&#45;&gt;r2_node_30 -->
<g id="edge39" class="edge">
<title>r2_node_24&#45;&gt;r2_node_30</title>
<path fill="none" stroke="black" d="M349.18,-432.05C358.48,-422.96 371.1,-411.63 382.86,-401.78"/>
<polygon fill="black" stroke="black" points="384.93,-404.6 390.44,-395.55 380.49,-399.19 384.93,-404.6"/>
</g>
<!-- r2_node_18&#45;&gt;r2_node_29 -->
<g id="edge18" class="edge">
<title>r2_node_18&#45;&gt;r2_node_29</title>
<path fill="none" stroke="black" d="M501.2,-287.93C514.82,-268.38 539.36,-236.44 566.93,-216 598.58,-192.54 626.47,-213.03 647.93,-180 660.06,-161.34 652.16,-136.61 642.44,-117.96"/>
<polygon fill="black" stroke="black" points="645.54,-116.32 637.56,-109.35 639.45,-119.77 645.54,-116.32"/>
</g>
<!-- r2_node_18&#45;&gt;r2_node_30 -->
<g id="edge19" class="edge">
<title>r2_node_18&#45;&gt;r2_node_30</title>
<path fill="none" stroke="black" d="M477.64,-323.96C468.94,-332.98 457.09,-344.19 445.98,-353.99"/>
<polygon fill="black" stroke="black" points="443.74,-351.3 438.45,-360.48 448.31,-356.6 443.74,-351.3"/>
</g>
<!-- r2_node_18&#45;&gt;r2_node_6 -->
<g id="edge16" class="edge">
<title>r2_node_18&#45;&gt;r2_node_6</title>
<path fill="none" stroke="black" d="M518.44,-290.33C538.62,-279.94 565.88,-265.91 587.91,-254.57"/>
<polygon fill="black" stroke="black" points="589.29,-257.8 596.58,-250.11 586.09,-251.57 589.29,-257.8"/>
</g>
<!-- r2_node_20 -->
<g id="node21" class="node">
<title>r2_node_20</title>
<ellipse fill="none" stroke="black" cx="455.93" cy="-234" rx="54.93" ry="18"/>
<text text-anchor="middle" x="455.93" y="-228.95" font-family="Times,serif" font-size="14.00">r2_node_20</text>
</g>
<!-- r2_node_18&#45;&gt;r2_node_20 -->
<g id="edge17" class="edge">
<title>r2_node_18&#45;&gt;r2_node_20</title>
<path fill="none" stroke="black" d="M476.04,-288.41C471.5,-280.79 466.75,-271.55 462.86,-262.9"/>
<polygon fill="black" stroke="black" points="466.16,-261.71 459.06,-253.84 459.7,-264.42 466.16,-261.71"/>
</g>
<!-- r2_node_5&#45;&gt;r2_node_26 -->
<g id="edge34" class="edge">
<title>r2_node_5&#45;&gt;r2_node_26</title>
<path fill="none" stroke="black" d="M358.31,-287.64C355.31,-268.41 353.57,-237.32 367.93,-216 388.36,-185.66 422.54,-211.01 441.93,-180 450.42,-166.44 452.01,-156.43 441.93,-144 393.31,-84 345.74,-130.75 271.93,-108 208.8,-88.54 138.53,-58 95.52,-38.24"/>
<polygon fill="black" stroke="black" points="97.12,-35.12 86.57,-34.09 94.18,-41.47 97.12,-35.12"/>
</g>
<!-- r2_node_5&#45;&gt;r2_node_13 -->
<g id="edge33" class="edge">
<title>r2_node_5&#45;&gt;r2_node_13</title>
<path fill="none" stroke="black" d="M363.54,-287.82C366.24,-268.17 373.35,-236.13 391.93,-216 419.49,-186.16 453.57,-213.91 475.93,-180 484.74,-166.64 486.08,-156.37 475.93,-144 424.21,-80.91 355.79,-163.44 295.93,-108 279.46,-92.74 273.52,-67.56 271.53,-47.87"/>
<polygon fill="black" stroke="black" points="275.03,-47.71 270.84,-37.97 268.04,-48.19 275.03,-47.71"/>
</g>
<!-- r2_node_5&#45;&gt;r2_node_30 -->
<g id="edge35" class="edge">
<title>r2_node_5&#45;&gt;r2_node_30</title>
<path fill="none" stroke="black" d="M379.95,-323.14C386.94,-331.18 394.71,-341.1 401.25,-350.23"/>
<polygon fill="black" stroke="black" points="398.35,-352.19 406.89,-358.45 404.12,-348.22 398.35,-352.19"/>
</g>
<!-- r2_node_20&#45;&gt;r2_node_18 -->
<g id="edge43" class="edge">
<title>r2_node_20&#45;&gt;r2_node_18</title>
<path fill="none" stroke="black" d="M469.85,-251.62C474.4,-259.27 479.17,-268.55 483.06,-277.22"/>
<polygon fill="black" stroke="black" points="479.77,-278.43 486.86,-286.3 486.23,-275.72 479.77,-278.43"/>
</g>
<!-- r2_node_11 -->
<g id="node26" class="node">
<title>r2_node_11</title>
<ellipse fill="none" stroke="black" cx="583.93" cy="-162" rx="54.93" ry="18"/>
<text text-anchor="middle" x="583.93" y="-156.95" font-family="Times,serif" font-size="14.00">r2_node_11</text>
</g>
<!-- r2_node_20&#45;&gt;r2_node_11 -->
<g id="edge42" class="edge">
<title>r2_node_20&#45;&gt;r2_node_11</title>
<path fill="none" stroke="black" d="M478.92,-217.29C496.71,-206.9 521.63,-193.21 542.78,-182.17"/>
<polygon fill="black" stroke="black" points="544.19,-185.39 551.47,-177.69 540.98,-179.16 544.19,-185.39"/>
</g>
<!-- r2_node_16 -->
<g id="node25" class="node">
<title>r2_node_16</title>
<ellipse fill="none" stroke="black" cx="359.93" cy="-90" rx="54.93" ry="18"/>
<text text-anchor="middle" x="359.93" y="-84.95" font-family="Times,serif" font-size="14.00">r2_node_16</text>
</g>
<!-- r2_node_16&#45;&gt;r2_node_13 -->
<g id="edge27" class="edge">
<title>r2_node_16&#45;&gt;r2_node_13</title>
<path fill="none" stroke="black" d="M339.74,-73.12C328.1,-63.96 313.26,-52.29 300.35,-42.13"/>
<polygon fill="black" stroke="black" points="302.57,-39.43 292.55,-36 298.24,-44.93 302.57,-39.43"/>
</g>
<!-- r2_node_16&#45;&gt;r2_node_11 -->
<g id="edge28" class="edge">
<title>r2_node_16&#45;&gt;r2_node_11</title>
<path fill="none" stroke="black" d="M401.26,-102.31C439.69,-113.73 496.72,-131.48 536.87,-144.47"/>
<polygon fill="black" stroke="black" points="535.68,-147.76 546.27,-147.53 537.85,-141.11 535.68,-147.76"/>
</g>
<!-- r2_node_11&#45;&gt;r2_node_29 -->
<g id="edge50" class="edge">
<title>r2_node_11&#45;&gt;r2_node_29</title>
<path fill="none" stroke="black" d="M593.86,-144.05C598.49,-136.14 604.12,-126.54 609.3,-117.69"/>
<polygon fill="black" stroke="black" points="612.3,-119.49 614.34,-109.1 606.26,-115.95 612.3,-119.49"/>
</g>
<!-- r2_node_11&#45;&gt;r2_node_20 -->
<g id="edge52" class="edge">
<title>r2_node_11&#45;&gt;r2_node_20</title>
<path fill="none" stroke="black" d="M561.13,-178.61C543.42,-188.96 518.58,-202.61 497.43,-213.65"/>
<polygon fill="black" stroke="black" points="496.01,-210.44 488.73,-218.14 499.22,-216.66 496.01,-210.44"/>
</g>
<!-- r2_node_11&#45;&gt;r2_node_16 -->
<g id="edge49" class="edge">
<title>r2_node_11&#45;&gt;r2_node_16</title>
<path fill="none" stroke="black" d="M542.83,-149.75C504.29,-138.31 446.9,-120.45 406.65,-107.42"/>
<polygon fill="black" stroke="black" points="407.82,-104.12 397.23,-104.35 405.65,-110.77 407.82,-104.12"/>
</g>
<!-- r2_node_12 -->
<g id="node27" class="node">
<title>r2_node_12</title>
<ellipse fill="none" stroke="black" cx="493.93" cy="-90" rx="54.93" ry="18"/>
<text text-anchor="middle" x="493.93" y="-84.95" font-family="Times,serif" font-size="14.00">r2_node_12</text>
</g>
<!-- r2_node_11&#45;&gt;r2_node_12 -->
<g id="edge51" class="edge">
<title>r2_node_11&#45;&gt;r2_node_12</title>
<path fill="none" stroke="black" d="M563.51,-145.12C551.63,-135.87 536.45,-124.07 523.3,-113.84"/>
<polygon fill="black" stroke="black" points="525.82,-111.37 515.78,-107.99 521.53,-116.89 525.82,-111.37"/>
</g>
<!-- r2_node_28&#45;&gt;r2_node_23 -->
<g id="edge48" class="edge">
<title>r2_node_28&#45;&gt;r2_node_23</title>
<path fill="none" stroke="black" d="M691.62,-324.12C685.98,-332.59 678.17,-342.96 670.5,-352.26"/>
<polygon fill="black" stroke="black" points="668.06,-349.73 664.24,-359.61 673.39,-354.27 668.06,-349.73"/>
</g>
<!-- r2_node_28&#45;&gt;r2_node_6 -->
<g id="edge47" class="edge">
<title>r2_node_28&#45;&gt;r2_node_6</title>
<path fill="none" stroke="black" d="M682,-288.76C672.86,-279.99 661.38,-268.99 651.2,-259.22"/>
<polygon fill="black" stroke="black" points="653.76,-256.83 644.12,-252.44 648.91,-261.88 653.76,-256.83"/>
</g>
</g>
</svg>
