<?xml version="1.0" encoding="UTF-8" standalone="no"?>
<!DOCTYPE svg PUBLIC "-//W3C//DTD SVG 1.1//EN"
 "http://www.w3.org/Graphics/SVG/1.1/DTD/svg11.dtd">
<!-- Generated by graphviz version 12.2.1 (20241206.2353)
 -->
<!-- Pages: 1 -->
<svg width="911pt" height="404pt"
 viewBox="0.00 0.00 911.06 404.00" xmlns="http://www.w3.org/2000/svg" xmlns:xlink="http://www.w3.org/1999/xlink">
<g id="graph0" class="graph" transform="scale(1 1) rotate(0) translate(4 400)">
<polygon fill="white" stroke="none" points="-4,4 -4,-400 907.06,-400 907.06,4 -4,4"/>
<!-- r1_node_19 -->
<g id="node1" class="node">
<title>r1_node_19</title>
<ellipse fill="none" stroke="black" cx="847.93" cy="-18" rx="54.93" ry="18"/>
<text text-anchor="middle" x="847.93" y="-12.95" font-family="Times,serif" font-size="14.00">r1_node_19</text>
</g>
<!-- r1_node_20 -->
<g id="node2" class="node">
<title>r1_node_20</title>
<ellipse fill="none" stroke="black" cx="683.93" cy="-18" rx="54.93" ry="18"/>
<text text-anchor="middle" x="683.93" y="-12.95" font-family="Times,serif" font-size="14.00">r1_node_20</text>
</g>
<!-- r1_node_14 -->
<g id="node3" class="node">
<title>r1_node_14</title>
<ellipse fill="none" stroke="black" cx="432.93" cy="-306" rx="54.93" ry="18"/>
<text text-anchor="middle" x="432.93" y="-300.95" font-family="Times,serif" font-size="14.00">r1_node_14</text>
</g>
<!-- r1_node_18 -->
<g id="node4" class="node">
<title>r1_node_18</title>
<ellipse fill="none" stroke="black" cx="763.93" cy="-90" rx="54.93" ry="18"/>
<text text-anchor="middle" x="763.93" y="-84.95" font-family="Times,serif" font-size="14.00">r1_node_18</text>
</g>
<!-- r1_node_14&#45;&gt;r1_node_18 -->
<g id="edge1" class="edge">
<title>r1_node_14&#45;&gt;r1_node_18</title>
<path fill="none" stroke="black" d="M459.22,-289.92C473.2,-280.65 489.6,-267.57 499.93,-252 527.49,-210.5 493.69,-178.18 529.93,-144 585.17,-91.91 623.01,-125.34 696.93,-108 701.47,-106.94 706.17,-105.8 710.88,-104.65"/>
<polygon fill="black" stroke="black" points="711.49,-108.11 720.35,-102.3 709.8,-101.31 711.49,-108.11"/>
</g>
<!-- r1_node_11 -->
<g id="node5" class="node">
<title>r1_node_11</title>
<ellipse fill="none" stroke="black" cx="316.93" cy="-234" rx="54.93" ry="18"/>
<text text-anchor="middle" x="316.93" y="-228.95" font-family="Times,serif" font-size="14.00">r1_node_11</text>
</g>
<!-- r1_node_14&#45;&gt;r1_node_11 -->
<g id="edge2" class="edge">
<title>r1_node_14&#45;&gt;r1_node_11</title>
<path fill="none" stroke="black" d="M407.48,-289.64C391.16,-279.79 369.76,-266.88 351.86,-256.08"/>
<polygon fill="black" stroke="black" points="354,-253.28 343.63,-251.11 350.38,-259.27 354,-253.28"/>
</g>
<!-- r1_node_3 -->
<g id="node6" class="node">
<title>r1_node_3</title>
<ellipse fill="none" stroke="black" cx="247.93" cy="-378" rx="50.33" ry="18"/>
<text text-anchor="middle" x="247.93" y="-372.95" font-family="Times,serif" font-size="14.00">r1_node_3</text>
</g>
<!-- r1_node_14&#45;&gt;r1_node_3 -->
<g id="edge3" class="edge">
<title>r1_node_14&#45;&gt;r1_node_3</title>
<path fill="none" stroke="black" d="M401.34,-321.05C371.94,-332.76 327.94,-349.44 294.53,-361.53"/>
<polygon fill="black" stroke="black" points="293.74,-358.09 285.51,-364.77 296.11,-364.68 293.74,-358.09"/>
</g>
<!-- r1_node_5 -->
<g id="node7" class="node">
<title>r1_node_5</title>
<ellipse fill="none" stroke="black" cx="440.93" cy="-234" rx="50.33" ry="18"/>
<text text-anchor="middle" x="440.93" y="-228.95" font-family="Times,serif" font-size="14.00">r1_node_5</text>
</g>
<!-- r1_node_14&#45;&gt;r1_node_5 -->
<g id="edge4" class="edge">
<title>r1_node_14&#45;&gt;r1_node_5</title>
<path fill="none" stroke="black" d="M429,-287.7C429.08,-280.32 429.84,-271.52 431.07,-263.25"/>
<polygon fill="black" stroke="black" points="434.48,-264.06 432.81,-253.59 427.59,-262.81 434.48,-264.06"/>
</g>
<!-- r1_node_16 -->
<g id="node8" class="node">
<title>r1_node_16</title>
<ellipse fill="none" stroke="black" cx="593.93" cy="-162" rx="54.93" ry="18"/>
<text text-anchor="middle" x="593.93" y="-156.95" font-family="Times,serif" font-size="14.00">r1_node_16</text>
</g>
<!-- r1_node_14&#45;&gt;r1_node_16 -->
<g id="edge5" class="edge">
<title>r1_node_14&#45;&gt;r1_node_16</title>
<path fill="none" stroke="black" d="M467.44,-291.69C487.99,-282.62 513.73,-269.14 532.93,-252 552.63,-234.42 569.12,-209.23 579.97,-190.14"/>
<polygon fill="black" stroke="black" points="582.93,-192.02 584.68,-181.57 576.8,-188.65 582.93,-192.02"/>
</g>
<!-- r1_node_3&#45;&gt;r1_node_19 -->
<g id="edge10" class="edge">
<title>r1_node_3&#45;&gt;r1_node_19</title>
<path fill="none" stroke="black" d="M295.94,-372.01C372.14,-363.57 516.95,-345.32 563.93,-324 701.99,-261.36 748.3,-237 827.93,-108 839.19,-89.76 844.14,-65.93 846.3,-47.52"/>
<polygon fill="black" stroke="black" points="849.76,-48.1 847.21,-37.82 842.79,-47.45 849.76,-48.1"/>
</g>
<!-- r1_node_3&#45;&gt;r1_node_14 -->
<g id="edge8" class="edge">
<title>r1_node_3&#45;&gt;r1_node_14</title>
<path fill="none" stroke="black" d="M278.56,-363.34C307.44,-351.81 350.98,-335.3 384.53,-323.13"/>
<polygon fill="black" stroke="black" points="385.39,-326.54 393.61,-319.85 383.02,-319.95 385.39,-326.54"/>
</g>
<!-- r1_node_3&#45;&gt;r1_node_18 -->
<g id="edge9" class="edge">
<title>r1_node_3&#45;&gt;r1_node_18</title>
<path fill="none" stroke="black" d="M295.4,-371.56C364.98,-363.01 490.75,-345.19 530.93,-324 543.81,-317.21 683.44,-173.99 740.17,-115.53"/>
<polygon fill="black" stroke="black" points="742.41,-118.25 746.86,-108.63 737.39,-113.37 742.41,-118.25"/>
</g>
<!-- r1_node_3&#45;&gt;r1_node_5 -->
<g id="edge6" class="edge">
<title>r1_node_3&#45;&gt;r1_node_5</title>
<path fill="none" stroke="black" d="M265.58,-360.71C297.68,-335.02 365.4,-285.06 406.76,-256.47"/>
<polygon fill="black" stroke="black" points="408.64,-259.42 414.91,-250.88 404.68,-253.64 408.64,-259.42"/>
</g>
<!-- r1_node_13 -->
<g id="node9" class="node">
<title>r1_node_13</title>
<ellipse fill="none" stroke="black" cx="194.93" cy="-18" rx="54.93" ry="18"/>
<text text-anchor="middle" x="194.93" y="-12.95" font-family="Times,serif" font-size="14.00">r1_node_13</text>
</g>
<!-- r1_node_3&#45;&gt;r1_node_13 -->
<g id="edge7" class="edge">
<title>r1_node_3&#45;&gt;r1_node_13</title>
<path fill="none" stroke="black" d="M221.66,-362.2C208.3,-353.09 193.34,-340.08 185.93,-324 142.78,-230.35 170.46,-102.78 186.2,-47.01"/>
<polygon fill="black" stroke="black" points="189.48,-48.28 188.92,-37.7 182.76,-46.31 189.48,-48.28"/>
</g>
<!-- r1_node_5&#45;&gt;r1_node_14 -->
<g id="edge28" class="edge">
<title>r1_node_5&#45;&gt;r1_node_14</title>
<path fill="none" stroke="black" d="M444.87,-252.1C444.8,-259.45 444.05,-268.24 442.83,-276.53"/>
<polygon fill="black" stroke="black" points="439.42,-275.75 441.09,-286.21 446.31,-276.98 439.42,-275.75"/>
</g>
<!-- r1_node_5&#45;&gt;r1_node_3 -->
<g id="edge25" class="edge">
<title>r1_node_5&#45;&gt;r1_node_3</title>
<path fill="none" stroke="black" d="M423.34,-251.25C391.23,-276.96 323.33,-327.04 281.97,-355.63"/>
<polygon fill="black" stroke="black" points="280.09,-352.68 273.81,-361.22 284.04,-358.46 280.09,-352.68"/>
</g>
<!-- r1_node_1 -->
<g id="node11" class="node">
<title>r1_node_1</title>
<ellipse fill="none" stroke="black" cx="432.93" cy="-162" rx="50.33" ry="18"/>
<text text-anchor="middle" x="432.93" y="-156.95" font-family="Times,serif" font-size="14.00">r1_node_1</text>
</g>
<!-- r1_node_5&#45;&gt;r1_node_1 -->
<g id="edge27" class="edge">
<title>r1_node_5&#45;&gt;r1_node_1</title>
<path fill="none" stroke="black" d="M433.12,-216.05C431.49,-208.68 430.23,-199.84 429.55,-191.51"/>
<polygon fill="black" stroke="black" points="433.06,-191.6 429.07,-181.79 426.06,-191.95 433.06,-191.6"/>
</g>
<!-- r1_node_8 -->
<g id="node17" class="node">
<title>r1_node_8</title>
<ellipse fill="none" stroke="black" cx="276.93" cy="-162" rx="50.33" ry="18"/>
<text text-anchor="middle" x="276.93" y="-156.95" font-family="Times,serif" font-size="14.00">r1_node_8</text>
</g>
<!-- r1_node_5&#45;&gt;r1_node_8 -->
<g id="edge26" class="edge">
<title>r1_node_5&#45;&gt;r1_node_8</title>
<path fill="none" stroke="black" d="M406.3,-220.49C379.64,-209.79 342.95,-194.24 315.4,-182.01"/>
<polygon fill="black" stroke="black" points="316.89,-178.85 306.33,-177.96 314.03,-185.24 316.89,-178.85"/>
</g>
<!-- r1_node_2 -->
<g id="node10" class="node">
<title>r1_node_2</title>
<ellipse fill="none" stroke="black" cx="637.93" cy="-90" rx="50.33" ry="18"/>
<text text-anchor="middle" x="637.93" y="-84.95" font-family="Times,serif" font-size="14.00">r1_node_2</text>
</g>
<!-- r1_node_2&#45;&gt;r1_node_19 -->
<g id="edge11" class="edge">
<title>r1_node_2&#45;&gt;r1_node_19</title>
<path fill="none" stroke="black" d="M673.56,-77.13C708.32,-65.54 761.45,-47.83 799.93,-35"/>
<polygon fill="black" stroke="black" points="800.55,-38.49 808.93,-32 798.33,-31.84 800.55,-38.49"/>
</g>
<!-- r1_node_2&#45;&gt;r1_node_13 -->
<g id="edge13" class="edge">
<title>r1_node_2&#45;&gt;r1_node_13</title>
<path fill="none" stroke="black" d="M599.64,-78.04C590.91,-75.8 581.65,-73.64 572.93,-72 437.49,-46.5 400.59,-60.31 264.93,-36 259.31,-34.99 253.46,-33.8 247.65,-32.53"/>
<polygon fill="black" stroke="black" points="248.59,-29.15 238.06,-30.33 247.03,-35.98 248.59,-29.15"/>
</g>
<!-- r1_node_2&#45;&gt;r1_node_1 -->
<g id="edge12" class="edge">
<title>r1_node_2&#45;&gt;r1_node_1</title>
<path fill="none" stroke="black" d="M605.24,-104C571.92,-115.97 520.05,-133.71 481.86,-146.21"/>
<polygon fill="black" stroke="black" points="480.85,-142.86 472.42,-149.29 483.02,-149.52 480.85,-142.86"/>
</g>
<!-- r1_node_1&#45;&gt;r1_node_18 -->
<g id="edge41" class="edge">
<title>r1_node_1&#45;&gt;r1_node_18</title>
<path fill="none" stroke="black" d="M471.73,-150.15C480.02,-147.99 488.74,-145.82 496.93,-144 585.1,-124.39 608.66,-127.12 696.93,-108 701.55,-107 706.33,-105.91 711.12,-104.77"/>
<polygon fill="black" stroke="black" points="711.87,-108.19 720.75,-102.42 710.21,-101.39 711.87,-108.19"/>
</g>
<!-- r1_node_1&#45;&gt;r1_node_5 -->
<g id="edge39" class="edge">
<title>r1_node_1&#45;&gt;r1_node_5</title>
<path fill="none" stroke="black" d="M440.78,-180.1C442.38,-187.37 443.62,-196.04 444.3,-204.24"/>
<polygon fill="black" stroke="black" points="440.8,-204.37 444.8,-214.18 447.79,-204.02 440.8,-204.37"/>
</g>
<!-- r1_node_1&#45;&gt;r1_node_2 -->
<g id="edge38" class="edge">
<title>r1_node_1&#45;&gt;r1_node_2</title>
<path fill="none" stroke="black" d="M465.62,-148C498.98,-136.01 550.94,-118.25 589.14,-105.74"/>
<polygon fill="black" stroke="black" points="590.16,-109.09 598.58,-102.67 587.99,-102.43 590.16,-109.09"/>
</g>
<!-- r1_node_10 -->
<g id="node15" class="node">
<title>r1_node_10</title>
<ellipse fill="none" stroke="black" cx="508.93" cy="-90" rx="54.93" ry="18"/>
<text text-anchor="middle" x="508.93" y="-84.95" font-family="Times,serif" font-size="14.00">r1_node_10</text>
</g>
<!-- r1_node_1&#45;&gt;r1_node_10 -->
<g id="edge40" class="edge">
<title>r1_node_1&#45;&gt;r1_node_10</title>
<path fill="none" stroke="black" d="M445.11,-144.41C453.98,-135.33 466.17,-123.93 477.58,-114"/>
<polygon fill="black" stroke="black" points="479.6,-116.88 484.94,-107.73 475.06,-111.55 479.6,-116.88"/>
</g>
<!-- r1_node_4 -->
<g id="node12" class="node">
<title>r1_node_4</title>
<ellipse fill="none" stroke="black" cx="244.93" cy="-306" rx="50.33" ry="18"/>
<text text-anchor="middle" x="244.93" y="-300.95" font-family="Times,serif" font-size="14.00">r1_node_4</text>
</g>
<!-- r1_node_4&#45;&gt;r1_node_11 -->
<g id="edge15" class="edge">
<title>r1_node_4&#45;&gt;r1_node_11</title>
<path fill="none" stroke="black" d="M261.63,-288.76C270.72,-279.93 282.14,-268.83 292.23,-259.01"/>
<polygon fill="black" stroke="black" points="294.51,-261.68 299.24,-252.2 289.63,-256.66 294.51,-261.68"/>
</g>
<!-- r1_node_15 -->
<g id="node13" class="node">
<title>r1_node_15</title>
<ellipse fill="none" stroke="black" cx="482.93" cy="-18" rx="54.93" ry="18"/>
<text text-anchor="middle" x="482.93" y="-12.95" font-family="Times,serif" font-size="14.00">r1_node_15</text>
</g>
<!-- r1_node_4&#45;&gt;r1_node_15 -->
<g id="edge14" class="edge">
<title>r1_node_4&#45;&gt;r1_node_15</title>
<path fill="none" stroke="black" d="M241.66,-287.82C238.98,-268.48 237.76,-237 252.93,-216 276.48,-183.41 303.21,-203.36 335.93,-180 350.49,-169.61 423.72,-86.76 461.02,-44.14"/>
<polygon fill="black" stroke="black" points="463.46,-46.67 467.4,-36.84 458.19,-42.06 463.46,-46.67"/>
</g>
<!-- r1_node_12 -->
<g id="node14" class="node">
<title>r1_node_12</title>
<ellipse fill="none" stroke="black" cx="328.93" cy="-18" rx="54.93" ry="18"/>
<text text-anchor="middle" x="328.93" y="-12.95" font-family="Times,serif" font-size="14.00">r1_node_12</text>
</g>
<!-- r1_node_4&#45;&gt;r1_node_12 -->
<g id="edge16" class="edge">
<title>r1_node_4&#45;&gt;r1_node_12</title>
<path fill="none" stroke="black" d="M234.22,-288.07C228.49,-278.01 221.99,-264.76 218.93,-252 207.76,-205.32 204.02,-189.94 217.93,-144 231.01,-100.83 269.12,-64 297.05,-41.73"/>
<polygon fill="black" stroke="black" points="299.12,-44.56 304.89,-35.67 294.84,-39.02 299.12,-44.56"/>
</g>
<!-- r1_node_10&#45;&gt;r1_node_20 -->
<g id="edge20" class="edge">
<title>r1_node_10&#45;&gt;r1_node_20</title>
<path fill="none" stroke="black" d="M542.68,-75.5C570.19,-64.5 609.27,-48.86 639.36,-36.83"/>
<polygon fill="black" stroke="black" points="640.61,-40.1 648.59,-33.14 638.01,-33.6 640.61,-40.1"/>
</g>
<!-- r1_node_10&#45;&gt;r1_node_1 -->
<g id="edge17" class="edge">
<title>r1_node_10&#45;&gt;r1_node_1</title>
<path fill="none" stroke="black" d="M496.4,-107.96C487.48,-117.07 475.32,-128.42 463.97,-138.28"/>
<polygon fill="black" stroke="black" points="462.02,-135.34 456.67,-144.48 466.56,-140.67 462.02,-135.34"/>
</g>
<!-- r1_node_10&#45;&gt;r1_node_15 -->
<g id="edge18" class="edge">
<title>r1_node_10&#45;&gt;r1_node_15</title>
<path fill="none" stroke="black" d="M502.51,-71.7C499.7,-64.15 496.35,-55.12 493.22,-46.68"/>
<polygon fill="black" stroke="black" points="496.58,-45.68 489.81,-37.52 490.02,-48.12 496.58,-45.68"/>
</g>
<!-- r1_node_10&#45;&gt;r1_node_12 -->
<g id="edge21" class="edge">
<title>r1_node_10&#45;&gt;r1_node_12</title>
<path fill="none" stroke="black" d="M474.65,-75.67C446.09,-64.56 405.19,-48.66 373.99,-36.52"/>
<polygon fill="black" stroke="black" points="375.39,-33.31 364.8,-32.95 372.85,-39.84 375.39,-33.31"/>
</g>
<!-- r1_node_17 -->
<g id="node16" class="node">
<title>r1_node_17</title>
<ellipse fill="none" stroke="black" cx="54.93" cy="-18" rx="54.93" ry="18"/>
<text text-anchor="middle" x="54.93" y="-12.95" font-family="Times,serif" font-size="14.00">r1_node_17</text>
</g>
<!-- r1_node_10&#45;&gt;r1_node_17 -->
<g id="edge19" class="edge">
<title>r1_node_10&#45;&gt;r1_node_17</title>
<path fill="none" stroke="black" d="M459.85,-81.54C439.74,-78.52 416.23,-75.04 394.93,-72 277.7,-55.27 247.49,-56.94 130.93,-36 123.95,-34.74 116.63,-33.29 109.41,-31.77"/>
<polygon fill="black" stroke="black" points="110.2,-28.36 99.69,-29.66 108.72,-35.2 110.2,-28.36"/>
</g>
<!-- r1_node_8&#45;&gt;r1_node_5 -->
<g id="edge24" class="edge">
<title>r1_node_8&#45;&gt;r1_node_5</title>
<path fill="none" stroke="black" d="M311.39,-175.44C338.06,-186.13 374.84,-201.72 402.45,-213.98"/>
<polygon fill="black" stroke="black" points="400.98,-217.16 411.54,-218.05 403.84,-210.77 400.98,-217.16"/>
</g>
<!-- r1_node_8&#45;&gt;r1_node_12 -->
<g id="edge23" class="edge">
<title>r1_node_8&#45;&gt;r1_node_12</title>
<path fill="none" stroke="black" d="M273.22,-143.87C270.04,-125.39 267.35,-95.46 276.93,-72 281.51,-60.81 289.7,-50.71 298.26,-42.4"/>
<polygon fill="black" stroke="black" points="300.59,-45.01 305.68,-35.73 295.91,-39.81 300.59,-45.01"/>
</g>
<!-- r1_node_9 -->
<g id="node18" class="node">
<title>r1_node_9</title>
<ellipse fill="none" stroke="black" cx="335.93" cy="-90" rx="50.33" ry="18"/>
<text text-anchor="middle" x="335.93" y="-84.95" font-family="Times,serif" font-size="14.00">r1_node_9</text>
</g>
<!-- r1_node_8&#45;&gt;r1_node_9 -->
<g id="edge22" class="edge">
<title>r1_node_8&#45;&gt;r1_node_9</title>
<path fill="none" stroke="black" d="M285.34,-144.05C291.73,-135.38 300.57,-124.67 309.13,-115.15"/>
<polygon fill="black" stroke="black" points="311.58,-117.65 315.81,-107.94 306.44,-112.89 311.58,-117.65"/>
</g>
<!-- r1_node_9&#45;&gt;r1_node_20 -->
<g id="edge33" class="edge">
<title>r1_node_9&#45;&gt;r1_node_20</title>
<path fill="none" stroke="black" d="M378.95,-80.35C441.4,-67.79 557.26,-44.48 626.81,-30.49"/>
<polygon fill="black" stroke="black" points="627.38,-33.95 636.49,-28.54 626,-27.08 627.38,-33.95"/>
</g>
<!-- r1_node_9&#45;&gt;r1_node_13 -->
<g id="edge36" class="edge">
<title>r1_node_9&#45;&gt;r1_node_13</title>
<path fill="none" stroke="black" d="M307.4,-74.83C286.47,-64.44 257.77,-50.19 234.6,-38.69"/>
<polygon fill="black" stroke="black" points="236.26,-35.61 225.75,-34.3 233.15,-41.88 236.26,-35.61"/>
</g>
<!-- r1_node_9&#45;&gt;r1_node_15 -->
<g id="edge37" class="edge">
<title>r1_node_9&#45;&gt;r1_node_15</title>
<path fill="none" stroke="black" d="M365.33,-75C387.37,-64.51 417.81,-50.01 442.2,-38.4"/>
<polygon fill="black" stroke="black" points="443.69,-41.56 451.21,-34.11 440.68,-35.24 443.69,-41.56"/>
</g>
<!-- r1_node_9&#45;&gt;r1_node_12 -->
<g id="edge35" class="edge">
<title>r1_node_9&#45;&gt;r1_node_12</title>
<path fill="none" stroke="black" d="M334.2,-71.7C333.47,-64.41 332.61,-55.73 331.79,-47.54"/>
<polygon fill="black" stroke="black" points="335.27,-47.21 330.8,-37.61 328.31,-47.91 335.27,-47.21"/>
</g>
<!-- r1_node_9&#45;&gt;r1_node_8 -->
<g id="edge34" class="edge">
<title>r1_node_9&#45;&gt;r1_node_8</title>
<path fill="none" stroke="black" d="M327.64,-107.8C321.26,-116.47 312.4,-127.21 303.82,-136.77"/>
<polygon fill="black" stroke="black" points="301.34,-134.29 297.11,-144.01 306.47,-139.05 301.34,-134.29"/>
</g>
<!-- r1_node_7 -->
<g id="node19" class="node">
<title>r1_node_7</title>
<ellipse fill="none" stroke="black" cx="467.93" cy="-378" rx="50.33" ry="18"/>
<text text-anchor="middle" x="467.93" y="-372.95" font-family="Times,serif" font-size="14.00">r1_node_7</text>
</g>
<!-- r1_node_7&#45;&gt;r1_node_19 -->
<g id="edge32" class="edge">
<title>r1_node_7&#45;&gt;r1_node_19</title>
<path fill="none" stroke="black" d="M516.4,-372.45C587.35,-365.05 715.27,-348.72 753.93,-324 783.67,-304.99 885.02,-154.77 898.93,-108 903.5,-92.66 904.91,-86.84 898.93,-72 894.46,-60.9 886.42,-50.82 878.03,-42.5"/>
<polygon fill="black" stroke="black" points="880.49,-40.01 870.76,-35.82 875.76,-45.17 880.49,-40.01"/>
</g>
<!-- r1_node_7&#45;&gt;r1_node_20 -->
<g id="edge29" class="edge">
<title>r1_node_7&#45;&gt;r1_node_20</title>
<path fill="none" stroke="black" d="M515.76,-372C580.49,-364.42 691.65,-348.27 723.93,-324 772.36,-287.59 862.59,-121.69 827.93,-72 809.76,-45.94 777.26,-32.66 747.74,-25.91"/>
<polygon fill="black" stroke="black" points="748.58,-22.51 738.09,-23.93 747.18,-29.36 748.58,-22.51"/>
</g>
<!-- r1_node_7&#45;&gt;r1_node_18 -->
<g id="edge31" class="edge">
<title>r1_node_7&#45;&gt;r1_node_18</title>
<path fill="none" stroke="black" d="M515.44,-371.69C574.64,-364.14 671.18,-348.44 696.93,-324 754.5,-269.38 763.61,-168.85 764.42,-119.65"/>
<polygon fill="black" stroke="black" points="767.92,-119.83 764.46,-109.82 760.92,-119.8 767.92,-119.83"/>
</g>
<!-- r1_node_7&#45;&gt;r1_node_16 -->
<g id="edge30" class="edge">
<title>r1_node_7&#45;&gt;r1_node_16</title>
<path fill="none" stroke="black" d="M496.64,-362.86C531.91,-343.54 589.45,-305.14 608.93,-252 616.18,-232.24 611.69,-208.7 605.79,-190.8"/>
<polygon fill="black" stroke="black" points="609.15,-189.82 602.44,-181.63 602.58,-192.22 609.15,-189.82"/>
</g>
<!-- r1_node_6 -->
<g id="node20" class="node">
<title>r1_node_6</title>
<ellipse fill="none" stroke="black" cx="57.93" cy="-378" rx="50.33" ry="18"/>
<text text-anchor="middle" x="57.93" y="-372.95" font-family="Times,serif" font-size="14.00">r1_node_6</text>
</g>
<!-- r1_node_6&#45;&gt;r1_node_16 -->
<g id="edge43" class="edge">
<title>r1_node_6&#45;&gt;r1_node_16</title>
<path fill="none" stroke="black" d="M104.6,-370.8C129.6,-367.51 160.94,-363.45 188.93,-360 325.72,-343.13 374.46,-387.2 496.93,-324 548.57,-297.35 575.31,-229.87 586.8,-191.26"/>
<polygon fill="black" stroke="black" points="590.14,-192.31 589.47,-181.74 583.4,-190.42 590.14,-192.31"/>
</g>
<!-- r1_node_6&#45;&gt;r1_node_13 -->
<g id="edge42" class="edge">
<title>r1_node_6&#45;&gt;r1_node_13</title>
<path fill="none" stroke="black" d="M60.74,-359.66C68.5,-312.62 90.79,-183.47 107.93,-144 124.37,-106.15 153.1,-68 173.03,-43.97"/>
<polygon fill="black" stroke="black" points="175.44,-46.54 179.21,-36.64 170.09,-42.03 175.44,-46.54"/>
</g>
<!-- r1_node_6&#45;&gt;r1_node_12 -->
<g id="edge45" class="edge">
<title>r1_node_6&#45;&gt;r1_node_12</title>
<path fill="none" stroke="black" d="M66.89,-359.95C98.95,-299.13 207.29,-95.17 230.93,-72 245.95,-57.29 265.87,-45.52 283.84,-36.84"/>
<polygon fill="black" stroke="black" points="285.15,-40.09 292.76,-32.72 282.21,-33.73 285.15,-40.09"/>
</g>
<!-- r1_node_6&#45;&gt;r1_node_17 -->
<g id="edge44" class="edge">
<title>r1_node_6&#45;&gt;r1_node_17</title>
<path fill="none" stroke="black" d="M57.79,-359.73C57.31,-302.43 55.77,-118.18 55.17,-47.22"/>
<polygon fill="black" stroke="black" points="58.67,-47.58 55.09,-37.61 51.67,-47.64 58.67,-47.58"/>
</g>
</g>
</svg>
