<?xml version="1.0" encoding="UTF-8" standalone="no"?>
<!DOCTYPE svg PUBLIC "-//W3C//DTD SVG 1.1//EN"
 "http://www.w3.org/Graphics/SVG/1.1/DTD/svg11.dtd">
<!-- Generated by graphviz version 12.2.1 (20241206.2353)
 -->
<!-- Pages: 1 -->
<svg width="355pt" height="116pt"
 viewBox="0.00 0.00 354.66 116.00" xmlns="http://www.w3.org/2000/svg" xmlns:xlink="http://www.w3.org/1999/xlink">
<g id="graph0" class="graph" transform="scale(1 1) rotate(0) translate(4 112)">
<polygon fill="white" stroke="none" points="-4,4 -4,-112 350.66,-112 350.66,4 -4,4"/>
<!-- r2_node_12 -->
<g id="node1" class="node">
<title>r2_node_12</title>
<ellipse fill="none" stroke="black" cx="111.33" cy="-90" rx="54.93" ry="18"/>
<text text-anchor="middle" x="111.33" y="-84.95" font-family="Times,serif" font-size="14.00">r2_node_12</text>
</g>
<!-- r2_node_4 -->
<g id="node2" class="node">
<title>r2_node_4</title>
<ellipse fill="none" stroke="black" cx="50.33" cy="-18" rx="50.33" ry="18"/>
<text text-anchor="middle" x="50.33" y="-12.95" font-family="Times,serif" font-size="14.00">r2_node_4</text>
</g>
<!-- r2_node_12&#45;&gt;r2_node_4 -->
<g id="edge1" class="edge">
<title>r2_node_12&#45;&gt;r2_node_4</title>
<path fill="none" stroke="black" d="M96.87,-72.41C89.5,-63.95 80.39,-53.49 72.18,-44.08"/>
<polygon fill="black" stroke="black" points="74.88,-41.85 65.67,-36.61 69.61,-46.45 74.88,-41.85"/>
</g>
<!-- r2_node_15 -->
<g id="node3" class="node">
<title>r2_node_15</title>
<ellipse fill="none" stroke="black" cx="173.33" cy="-18" rx="54.93" ry="18"/>
<text text-anchor="middle" x="173.33" y="-12.95" font-family="Times,serif" font-size="14.00">r2_node_15</text>
</g>
<!-- r2_node_12&#45;&gt;r2_node_15 -->
<g id="edge2" class="edge">
<title>r2_node_12&#45;&gt;r2_node_15</title>
<path fill="none" stroke="black" d="M126.02,-72.41C133.51,-63.95 142.78,-53.49 151.12,-44.08"/>
<polygon fill="black" stroke="black" points="153.73,-46.41 157.74,-36.6 148.49,-41.77 153.73,-46.41"/>
</g>
<!-- r2_node_6 -->
<g id="node4" class="node">
<title>r2_node_6</title>
<ellipse fill="none" stroke="black" cx="296.33" cy="-18" rx="50.33" ry="18"/>
<text text-anchor="middle" x="296.33" y="-12.95" font-family="Times,serif" font-size="14.00">r2_node_6</text>
</g>
<!-- r2_node_12&#45;&gt;r2_node_6 -->
<g id="edge3" class="edge">
<title>r2_node_12&#45;&gt;r2_node_6</title>
<path fill="none" stroke="black" d="M146.12,-75.83C176.12,-64.48 219.6,-48.03 252.07,-35.75"/>
<polygon fill="black" stroke="black" points="253.09,-39.1 261.21,-32.29 250.62,-32.55 253.09,-39.1"/>
</g>
</g>
</svg>
