<?xml version="1.0" encoding="UTF-8" standalone="no"?>
<!DOCTYPE svg PUBLIC "-//W3C//DTD SVG 1.1//EN"
 "http://www.w3.org/Graphics/SVG/1.1/DTD/svg11.dtd">
<!-- Generated by graphviz version 12.2.1 (20241206.2353)
 -->
<!-- Pages: 1 -->
<svg width="963pt" height="476pt"
 viewBox="0.00 0.00 963.14 476.00" xmlns="http://www.w3.org/2000/svg" xmlns:xlink="http://www.w3.org/1999/xlink">
<g id="graph0" class="graph" transform="scale(1 1) rotate(0) translate(4 472)">
<polygon fill="white" stroke="none" points="-4,4 -4,-472 959.14,-472 959.14,4 -4,4"/>
<!-- r3_node_8 -->
<g id="node1" class="node">
<title>r3_node_8</title>
<ellipse fill="none" stroke="black" cx="87.93" cy="-450" rx="50.33" ry="18"/>
<text text-anchor="middle" x="87.93" y="-444.95" font-family="Times,serif" font-size="14.00">r3_node_8</text>
</g>
<!-- r3_node_7 -->
<g id="node2" class="node">
<title>r3_node_7</title>
<ellipse fill="none" stroke="black" cx="140.93" cy="-378" rx="50.33" ry="18"/>
<text text-anchor="middle" x="140.93" y="-372.95" font-family="Times,serif" font-size="14.00">r3_node_7</text>
</g>
<!-- r3_node_8&#45;&gt;r3_node_7 -->
<g id="edge1" class="edge">
<title>r3_node_8&#45;&gt;r3_node_7</title>
<path fill="none" stroke="black" d="M95.12,-431.7C100.6,-423.32 108.14,-413.1 115.59,-403.9"/>
<polygon fill="black" stroke="black" points="118.21,-406.22 121.95,-396.3 112.84,-401.72 118.21,-406.22"/>
</g>
<!-- r3_node_16 -->
<g id="node3" class="node">
<title>r3_node_16</title>
<ellipse fill="none" stroke="black" cx="343.93" cy="-18" rx="54.93" ry="18"/>
<text text-anchor="middle" x="343.93" y="-12.95" font-family="Times,serif" font-size="14.00">r3_node_16</text>
</g>
<!-- r3_node_8&#45;&gt;r3_node_16 -->
<g id="edge2" class="edge">
<title>r3_node_8&#45;&gt;r3_node_16</title>
<path fill="none" stroke="black" d="M133.16,-441.67C172.13,-434.08 229.03,-419.91 273.93,-396 290.36,-387.26 385.53,-296.79 401.93,-288 452.52,-260.91 471.43,-269.95 525.93,-252 613.68,-223.1 641.28,-226.8 720.93,-180 763.33,-155.09 784.39,-152.67 804.93,-108 811.62,-93.46 815.58,-83.94 804.93,-72 779.09,-43.02 530.74,-27.63 409.66,-21.8"/>
<polygon fill="black" stroke="black" points="410.02,-18.31 399.86,-21.33 409.69,-25.3 410.02,-18.31"/>
</g>
<!-- r3_node_17 -->
<g id="node4" class="node">
<title>r3_node_17</title>
<ellipse fill="none" stroke="black" cx="54.93" cy="-18" rx="54.93" ry="18"/>
<text text-anchor="middle" x="54.93" y="-12.95" font-family="Times,serif" font-size="14.00">r3_node_17</text>
</g>
<!-- r3_node_8&#45;&gt;r3_node_17 -->
<g id="edge3" class="edge">
<title>r3_node_8&#45;&gt;r3_node_17</title>
<path fill="none" stroke="black" d="M85.81,-431.83C84.58,-421.47 83.05,-407.99 81.93,-396 70.05,-268.21 69.92,-236.03 60.93,-108 59.52,-87.89 58,-65.22 56.83,-47.79"/>
<polygon fill="black" stroke="black" points="60.33,-47.65 56.18,-37.91 53.35,-48.12 60.33,-47.65"/>
</g>
<!-- r3_node_18 -->
<g id="node5" class="node">
<title>r3_node_18</title>
<ellipse fill="none" stroke="black" cx="204.93" cy="-18" rx="54.93" ry="18"/>
<text text-anchor="middle" x="204.93" y="-12.95" font-family="Times,serif" font-size="14.00">r3_node_18</text>
</g>
<!-- r3_node_8&#45;&gt;r3_node_18 -->
<g id="edge4" class="edge">
<title>r3_node_8&#45;&gt;r3_node_18</title>
<path fill="none" stroke="black" d="M127.85,-438.74C158.58,-429.9 201.49,-415.48 235.93,-396 301.91,-358.68 301.82,-325.07 367.93,-288 452.53,-240.57 482.11,-247.21 573.93,-216 622.24,-199.58 639.79,-207.22 682.93,-180 720.42,-156.35 735.41,-149.13 751.93,-108 801.57,15.54 610.01,-85.72 279.93,-36 273,-34.96 265.76,-33.63 258.63,-32.17"/>
<polygon fill="black" stroke="black" points="259.55,-28.79 249.04,-30.12 258.09,-35.63 259.55,-28.79"/>
</g>
<!-- r3_node_19 -->
<g id="node6" class="node">
<title>r3_node_19</title>
<ellipse fill="none" stroke="black" cx="687.93" cy="-90" rx="54.93" ry="18"/>
<text text-anchor="middle" x="687.93" y="-84.95" font-family="Times,serif" font-size="14.00">r3_node_19</text>
</g>
<!-- r3_node_8&#45;&gt;r3_node_19 -->
<g id="edge5" class="edge">
<title>r3_node_8&#45;&gt;r3_node_19</title>
<path fill="none" stroke="black" d="M121.06,-436.18C144.05,-426.61 174.92,-412.39 199.93,-396 250.78,-362.68 350.68,-241.34 405.93,-216 508.77,-168.83 570.95,-252.35 657.93,-180 675.67,-165.25 682.96,-139.63 685.94,-119.65"/>
<polygon fill="black" stroke="black" points="689.4,-120.23 687.09,-109.89 682.45,-119.41 689.4,-120.23"/>
</g>
<!-- r3_node_7&#45;&gt;r3_node_8 -->
<g id="edge30" class="edge">
<title>r3_node_7&#45;&gt;r3_node_8</title>
<path fill="none" stroke="black" d="M133.87,-396.12C128.4,-404.5 120.85,-414.74 113.38,-423.98"/>
<polygon fill="black" stroke="black" points="110.73,-421.69 107,-431.6 116.1,-426.18 110.73,-421.69"/>
</g>
<!-- r3_node_7&#45;&gt;r3_node_17 -->
<g id="edge31" class="edge">
<title>r3_node_7&#45;&gt;r3_node_17</title>
<path fill="none" stroke="black" d="M125.64,-360.63C117.29,-350.75 107.54,-337.5 101.93,-324 91.4,-298.63 67.57,-118.08 58.52,-47.33"/>
<polygon fill="black" stroke="black" points="62.03,-47.19 57.29,-37.71 55.08,-48.07 62.03,-47.19"/>
</g>
<!-- r3_node_3 -->
<g id="node15" class="node">
<title>r3_node_3</title>
<ellipse fill="none" stroke="black" cx="211.93" cy="-306" rx="50.33" ry="18"/>
<text text-anchor="middle" x="211.93" y="-300.95" font-family="Times,serif" font-size="14.00">r3_node_3</text>
</g>
<!-- r3_node_7&#45;&gt;r3_node_3 -->
<g id="edge32" class="edge">
<title>r3_node_7&#45;&gt;r3_node_3</title>
<path fill="none" stroke="black" d="M152.24,-360.05C160.42,-351.05 171.61,-339.85 182.15,-330.07"/>
<polygon fill="black" stroke="black" points="184.21,-332.92 189.27,-323.61 179.51,-327.73 184.21,-332.92"/>
</g>
<!-- r3_node_14 -->
<g id="node7" class="node">
<title>r3_node_14</title>
<ellipse fill="none" stroke="black" cx="722.93" cy="-234" rx="54.93" ry="18"/>
<text text-anchor="middle" x="722.93" y="-228.95" font-family="Times,serif" font-size="14.00">r3_node_14</text>
</g>
<!-- r3_node_2 -->
<g id="node8" class="node">
<title>r3_node_2</title>
<ellipse fill="none" stroke="black" cx="460.93" cy="-306" rx="50.33" ry="18"/>
<text text-anchor="middle" x="460.93" y="-300.95" font-family="Times,serif" font-size="14.00">r3_node_2</text>
</g>
<!-- r3_node_14&#45;&gt;r3_node_2 -->
<g id="edge6" class="edge">
<title>r3_node_14&#45;&gt;r3_node_2</title>
<path fill="none" stroke="black" d="M683.72,-246.87C638.29,-259.54 563.49,-279.54 513.18,-292.46"/>
<polygon fill="black" stroke="black" points="512.5,-289.02 503.68,-294.89 514.23,-295.81 512.5,-289.02"/>
</g>
<!-- r3_node_2&#45;&gt;r3_node_18 -->
<g id="edge23" class="edge">
<title>r3_node_2&#45;&gt;r3_node_18</title>
<path fill="none" stroke="black" d="M491.15,-291.43C555.75,-262.31 703.01,-195.22 722.93,-180 766.91,-146.39 822.65,-112.5 784.93,-72 746.6,-30.83 335.58,-44.24 279.93,-36 272.91,-34.96 265.58,-33.62 258.35,-32.15"/>
<polygon fill="black" stroke="black" points="259.15,-28.74 248.64,-30.07 257.69,-35.58 259.15,-28.74"/>
</g>
<!-- r3_node_2&#45;&gt;r3_node_19 -->
<g id="edge24" class="edge">
<title>r3_node_2&#45;&gt;r3_node_19</title>
<path fill="none" stroke="black" d="M471.75,-288.01C485.67,-267.62 511.8,-233.93 542.93,-216 606.85,-179.19 658.78,-237.53 704.93,-180 718.82,-162.69 712.24,-137.42 703.53,-118.23"/>
<polygon fill="black" stroke="black" points="706.71,-116.76 699.12,-109.37 700.44,-119.88 706.71,-116.76"/>
</g>
<!-- r3_node_2&#45;&gt;r3_node_14 -->
<g id="edge22" class="edge">
<title>r3_node_2&#45;&gt;r3_node_14</title>
<path fill="none" stroke="black" d="M498.47,-293.6C543.06,-281.14 617.58,-261.2 668.48,-248.11"/>
<polygon fill="black" stroke="black" points="669.31,-251.5 678.13,-245.63 667.58,-244.72 669.31,-251.5"/>
</g>
<!-- r3_node_4 -->
<g id="node10" class="node">
<title>r3_node_4</title>
<ellipse fill="none" stroke="black" cx="424.93" cy="-378" rx="50.33" ry="18"/>
<text text-anchor="middle" x="424.93" y="-372.95" font-family="Times,serif" font-size="14.00">r3_node_4</text>
</g>
<!-- r3_node_2&#45;&gt;r3_node_4 -->
<g id="edge25" class="edge">
<title>r3_node_2&#45;&gt;r3_node_4</title>
<path fill="none" stroke="black" d="M457.89,-324.45C454.63,-332.36 449.95,-341.88 445.06,-350.63"/>
<polygon fill="black" stroke="black" points="442.13,-348.71 440.07,-359.11 448.16,-352.26 442.13,-348.71"/>
</g>
<!-- r3_node_13 -->
<g id="node9" class="node">
<title>r3_node_13</title>
<ellipse fill="none" stroke="black" cx="264.93" cy="-450" rx="54.93" ry="18"/>
<text text-anchor="middle" x="264.93" y="-444.95" font-family="Times,serif" font-size="14.00">r3_node_13</text>
</g>
<!-- r3_node_13&#45;&gt;r3_node_16 -->
<g id="edge8" class="edge">
<title>r3_node_13&#45;&gt;r3_node_16</title>
<path fill="none" stroke="black" d="M313.92,-441.56C451.84,-419.52 838.27,-349.96 912.93,-252 927.53,-232.85 926.81,-82.83 916.93,-72 900.02,-53.45 556.24,-31.34 409.45,-22.71"/>
<polygon fill="black" stroke="black" points="409.67,-19.22 399.48,-22.13 409.26,-26.21 409.67,-19.22"/>
</g>
<!-- r3_node_13&#45;&gt;r3_node_17 -->
<g id="edge9" class="edge">
<title>r3_node_13&#45;&gt;r3_node_17</title>
<path fill="none" stroke="black" d="M254.71,-432.16C242.87,-413.39 222.13,-382.71 199.93,-360 181.54,-341.18 167.86,-345.67 152.93,-324 86.64,-227.77 117.93,-181.8 77.93,-72 74.87,-63.58 71.14,-54.58 67.58,-46.43"/>
<polygon fill="black" stroke="black" points="70.81,-45.06 63.54,-37.36 64.41,-47.92 70.81,-45.06"/>
</g>
<!-- r3_node_13&#45;&gt;r3_node_4 -->
<g id="edge7" class="edge">
<title>r3_node_13&#45;&gt;r3_node_4</title>
<path fill="none" stroke="black" d="M293.23,-434.15C317.45,-422.95 352.56,-407.55 380.49,-395.87"/>
<polygon fill="black" stroke="black" points="381.51,-399.24 389.41,-392.18 378.83,-392.77 381.51,-399.24"/>
</g>
<!-- r3_node_4&#45;&gt;r3_node_2 -->
<g id="edge13" class="edge">
<title>r3_node_4&#45;&gt;r3_node_2</title>
<path fill="none" stroke="black" d="M427.92,-359.7C431.17,-351.78 435.87,-342.23 440.77,-333.44"/>
<polygon fill="black" stroke="black" points="443.72,-335.32 445.77,-324.93 437.69,-331.77 443.72,-335.32"/>
</g>
<!-- r3_node_4&#45;&gt;r3_node_13 -->
<g id="edge15" class="edge">
<title>r3_node_4&#45;&gt;r3_node_13</title>
<path fill="none" stroke="black" d="M397.52,-393.43C373.69,-404.49 338.86,-419.78 310.82,-431.52"/>
<polygon fill="black" stroke="black" points="309.73,-428.18 301.84,-435.25 312.42,-434.65 309.73,-428.18"/>
</g>
<!-- r3_node_5 -->
<g id="node14" class="node">
<title>r3_node_5</title>
<ellipse fill="none" stroke="black" cx="853.93" cy="-234" rx="50.33" ry="18"/>
<text text-anchor="middle" x="853.93" y="-228.95" font-family="Times,serif" font-size="14.00">r3_node_5</text>
</g>
<!-- r3_node_4&#45;&gt;r3_node_5 -->
<g id="edge14" class="edge">
<title>r3_node_4&#45;&gt;r3_node_5</title>
<path fill="none" stroke="black" d="M458.96,-364.4C534.79,-338.13 717.41,-277.66 805.26,-249.69"/>
<polygon fill="black" stroke="black" points="806.08,-253.1 814.55,-246.74 803.96,-246.43 806.08,-253.1"/>
</g>
<!-- r3_node_1 -->
<g id="node11" class="node">
<title>r3_node_1</title>
<ellipse fill="none" stroke="black" cx="316.93" cy="-162" rx="50.33" ry="18"/>
<text text-anchor="middle" x="316.93" y="-156.95" font-family="Times,serif" font-size="14.00">r3_node_1</text>
</g>
<!-- r3_node_1&#45;&gt;r3_node_18 -->
<g id="edge11" class="edge">
<title>r3_node_1&#45;&gt;r3_node_18</title>
<path fill="none" stroke="black" d="M357.86,-151.16C380.37,-143.43 406.42,-130.15 419.93,-108 428.27,-94.34 429.8,-84.6 419.93,-72 417.41,-68.77 322.86,-46.33 260,-31.7"/>
<polygon fill="black" stroke="black" points="261.06,-28.36 250.52,-29.5 259.47,-35.17 261.06,-28.36"/>
</g>
<!-- r3_node_12 -->
<g id="node12" class="node">
<title>r3_node_12</title>
<ellipse fill="none" stroke="black" cx="355.93" cy="-90" rx="54.93" ry="18"/>
<text text-anchor="middle" x="355.93" y="-84.95" font-family="Times,serif" font-size="14.00">r3_node_12</text>
</g>
<!-- r3_node_1&#45;&gt;r3_node_12 -->
<g id="edge10" class="edge">
<title>r3_node_1&#45;&gt;r3_node_12</title>
<path fill="none" stroke="black" d="M320.66,-143.7C324.29,-135.7 329.47,-126.02 334.81,-117.15"/>
<polygon fill="black" stroke="black" points="337.64,-119.23 340.02,-108.9 331.72,-115.49 337.64,-119.23"/>
</g>
<!-- r3_node_6 -->
<g id="node13" class="node">
<title>r3_node_6</title>
<ellipse fill="none" stroke="black" cx="250.93" cy="-234" rx="50.33" ry="18"/>
<text text-anchor="middle" x="250.93" y="-228.95" font-family="Times,serif" font-size="14.00">r3_node_6</text>
</g>
<!-- r3_node_1&#45;&gt;r3_node_6 -->
<g id="edge12" class="edge">
<title>r3_node_1&#45;&gt;r3_node_6</title>
<path fill="none" stroke="black" d="M306.96,-179.8C299.56,-188.65 289.38,-199.65 279.66,-209.35"/>
<polygon fill="black" stroke="black" points="277.49,-206.58 272.76,-216.06 282.37,-211.6 277.49,-206.58"/>
</g>
<!-- r3_node_12&#45;&gt;r3_node_16 -->
<g id="edge46" class="edge">
<title>r3_node_12&#45;&gt;r3_node_16</title>
<path fill="none" stroke="black" d="M352.97,-71.7C351.7,-64.32 350.2,-55.52 348.78,-47.25"/>
<polygon fill="black" stroke="black" points="352.26,-46.86 347.12,-37.6 345.36,-48.04 352.26,-46.86"/>
</g>
<!-- r3_node_12&#45;&gt;r3_node_17 -->
<g id="edge47" class="edge">
<title>r3_node_12&#45;&gt;r3_node_17</title>
<path fill="none" stroke="black" d="M312.17,-78.82C258.67,-66.38 168.09,-45.32 109.93,-31.79"/>
<polygon fill="black" stroke="black" points="110.76,-28.39 100.23,-29.53 109.18,-35.21 110.76,-28.39"/>
</g>
<!-- r3_node_12&#45;&gt;r3_node_1 -->
<g id="edge45" class="edge">
<title>r3_node_12&#45;&gt;r3_node_1</title>
<path fill="none" stroke="black" d="M352.14,-108.45C348.51,-116.44 343.34,-126.08 338.02,-134.92"/>
<polygon fill="black" stroke="black" points="335.21,-132.81 332.83,-143.13 341.13,-136.55 335.21,-132.81"/>
</g>
<!-- r3_node_6&#45;&gt;r3_node_17 -->
<g id="edge21" class="edge">
<title>r3_node_6&#45;&gt;r3_node_17</title>
<path fill="none" stroke="black" d="M251.19,-215.97C250.73,-183.63 245.1,-112.88 206.93,-72 193.26,-57.36 147.24,-42.5 109.39,-32.25"/>
<polygon fill="black" stroke="black" points="110.48,-28.92 99.92,-29.74 108.69,-35.69 110.48,-28.92"/>
</g>
<!-- r3_node_6&#45;&gt;r3_node_18 -->
<g id="edge16" class="edge">
<title>r3_node_6&#45;&gt;r3_node_18</title>
<path fill="none" stroke="black" d="M251.88,-215.69C253.61,-179.69 256.34,-97.96 246.93,-72 243.27,-61.89 236.86,-52.24 230.13,-44"/>
<polygon fill="black" stroke="black" points="232.76,-41.69 223.53,-36.5 227.51,-46.32 232.76,-41.69"/>
</g>
<!-- r3_node_6&#45;&gt;r3_node_1 -->
<g id="edge17" class="edge">
<title>r3_node_6&#45;&gt;r3_node_1</title>
<path fill="none" stroke="black" d="M261.03,-216.05C268.36,-207.29 278.4,-196.45 288,-186.86"/>
<polygon fill="black" stroke="black" points="290.44,-189.37 295.17,-179.88 285.56,-184.35 290.44,-189.37"/>
</g>
<!-- r3_node_6&#45;&gt;r3_node_3 -->
<g id="edge18" class="edge">
<title>r3_node_6&#45;&gt;r3_node_3</title>
<path fill="none" stroke="black" d="M247.14,-252.45C243.51,-260.44 238.34,-270.08 233.02,-278.92"/>
<polygon fill="black" stroke="black" points="230.21,-276.81 227.83,-287.13 236.13,-280.55 230.21,-276.81"/>
</g>
<!-- r3_node_10 -->
<g id="node16" class="node">
<title>r3_node_10</title>
<ellipse fill="none" stroke="black" cx="442.93" cy="-162" rx="54.93" ry="18"/>
<text text-anchor="middle" x="442.93" y="-156.95" font-family="Times,serif" font-size="14.00">r3_node_10</text>
</g>
<!-- r3_node_6&#45;&gt;r3_node_10 -->
<g id="edge19" class="edge">
<title>r3_node_6&#45;&gt;r3_node_10</title>
<path fill="none" stroke="black" d="M282.5,-219.5C312.78,-207.87 358.76,-191.07 393.8,-178.82"/>
<polygon fill="black" stroke="black" points="394.57,-182.25 402.87,-175.66 392.27,-175.64 394.57,-182.25"/>
</g>
<!-- r3_node_9 -->
<g id="node17" class="node">
<title>r3_node_9</title>
<ellipse fill="none" stroke="black" cx="566.93" cy="-162" rx="50.33" ry="18"/>
<text text-anchor="middle" x="566.93" y="-156.95" font-family="Times,serif" font-size="14.00">r3_node_9</text>
</g>
<!-- r3_node_6&#45;&gt;r3_node_9 -->
<g id="edge20" class="edge">
<title>r3_node_6&#45;&gt;r3_node_9</title>
<path fill="none" stroke="black" d="M288.77,-221.88C297.35,-219.87 306.41,-217.83 314.93,-216 395.98,-198.6 417.32,-199.31 497.93,-180 503.39,-178.69 509.09,-177.22 514.79,-175.7"/>
<polygon fill="black" stroke="black" points="515.49,-179.14 524.23,-173.15 513.67,-172.38 515.49,-179.14"/>
</g>
<!-- r3_node_5&#45;&gt;r3_node_16 -->
<g id="edge43" class="edge">
<title>r3_node_5&#45;&gt;r3_node_16</title>
<path fill="none" stroke="black" d="M873.32,-217C883.34,-207.45 894.56,-194.38 899.93,-180 906.54,-162.31 910.59,-84.64 898.93,-72 882.51,-54.18 551.94,-31.79 408.94,-22.9"/>
<polygon fill="black" stroke="black" points="409.45,-19.43 399.25,-22.3 409.02,-26.41 409.45,-19.43"/>
</g>
<!-- r3_node_5&#45;&gt;r3_node_18 -->
<g id="edge44" class="edge">
<title>r3_node_5&#45;&gt;r3_node_18</title>
<path fill="none" stroke="black" d="M856.64,-215.68C860.79,-182.16 864.33,-108.55 822.93,-72 777.61,-31.98 339.77,-44.71 279.93,-36 272.91,-34.98 265.57,-33.65 258.35,-32.18"/>
<polygon fill="black" stroke="black" points="259.15,-28.77 248.64,-30.1 257.68,-35.62 259.15,-28.77"/>
</g>
<!-- r3_node_5&#45;&gt;r3_node_4 -->
<g id="edge41" class="edge">
<title>r3_node_5&#45;&gt;r3_node_4</title>
<path fill="none" stroke="black" d="M820,-247.57C744.19,-273.83 561.41,-334.36 473.55,-362.33"/>
<polygon fill="black" stroke="black" points="472.73,-358.92 464.26,-365.28 474.85,-365.59 472.73,-358.92"/>
</g>
<!-- r3_node_15 -->
<g id="node19" class="node">
<title>r3_node_15</title>
<ellipse fill="none" stroke="black" cx="753.93" cy="-18" rx="54.93" ry="18"/>
<text text-anchor="middle" x="753.93" y="-12.95" font-family="Times,serif" font-size="14.00">r3_node_15</text>
</g>
<!-- r3_node_5&#45;&gt;r3_node_15 -->
<g id="edge42" class="edge">
<title>r3_node_5&#45;&gt;r3_node_15</title>
<path fill="none" stroke="black" d="M883.75,-219.15C900.18,-210.68 919.03,-197.97 928.93,-180 936.94,-165.48 942.4,-90.97 927.93,-72 913.47,-53.03 857.18,-38.6 812.42,-29.63"/>
<polygon fill="black" stroke="black" points="813.29,-26.24 802.81,-27.76 811.96,-33.11 813.29,-26.24"/>
</g>
<!-- r3_node_3&#45;&gt;r3_node_7 -->
<g id="edge36" class="edge">
<title>r3_node_3&#45;&gt;r3_node_7</title>
<path fill="none" stroke="black" d="M200.61,-323.96C192.42,-332.98 181.21,-344.19 170.66,-353.99"/>
<polygon fill="black" stroke="black" points="168.59,-351.14 163.53,-360.45 173.29,-356.33 168.59,-351.14"/>
</g>
<!-- r3_node_3&#45;&gt;r3_node_17 -->
<g id="edge34" class="edge">
<title>r3_node_3&#45;&gt;r3_node_17</title>
<path fill="none" stroke="black" d="M204.54,-288.11C200.3,-277.84 195.19,-264.36 191.93,-252 171.31,-173.71 212.04,-137.12 163.93,-72 150.53,-53.85 129.23,-41.61 109,-33.51"/>
<polygon fill="black" stroke="black" points="110.26,-30.24 99.67,-30.06 107.83,-36.81 110.26,-30.24"/>
</g>
<!-- r3_node_3&#45;&gt;r3_node_19 -->
<g id="edge35" class="edge">
<title>r3_node_3&#45;&gt;r3_node_19</title>
<path fill="none" stroke="black" d="M239.7,-290.7C259.5,-280.33 286.62,-265.77 309.93,-252 335.41,-236.95 338.19,-226.27 365.93,-216 475.34,-175.51 526.48,-240.97 625.93,-180 649.2,-165.73 666,-139.09 676.19,-118.66"/>
<polygon fill="black" stroke="black" points="679.31,-120.26 680.4,-109.72 672.97,-117.28 679.31,-120.26"/>
</g>
<!-- r3_node_3&#45;&gt;r3_node_6 -->
<g id="edge33" class="edge">
<title>r3_node_3&#45;&gt;r3_node_6</title>
<path fill="none" stroke="black" d="M215.66,-287.7C219.29,-279.7 224.47,-270.02 229.81,-261.15"/>
<polygon fill="black" stroke="black" points="232.64,-263.23 235.02,-252.9 226.72,-259.49 232.64,-263.23"/>
</g>
<!-- r3_node_10&#45;&gt;r3_node_19 -->
<g id="edge28" class="edge">
<title>r3_node_10&#45;&gt;r3_node_19</title>
<path fill="none" stroke="black" d="M483.39,-149.44C525.33,-137.46 591.01,-118.69 636.58,-105.67"/>
<polygon fill="black" stroke="black" points="637.31,-109.1 645.96,-102.99 635.39,-102.37 637.31,-109.1"/>
</g>
<!-- r3_node_10&#45;&gt;r3_node_6 -->
<g id="edge26" class="edge">
<title>r3_node_10&#45;&gt;r3_node_6</title>
<path fill="none" stroke="black" d="M410.41,-176.87C379.59,-188.68 333.13,-205.64 298.23,-217.83"/>
<polygon fill="black" stroke="black" points="297.54,-214.36 289.24,-220.95 299.83,-220.98 297.54,-214.36"/>
</g>
<!-- r3_node_11 -->
<g id="node18" class="node">
<title>r3_node_11</title>
<ellipse fill="none" stroke="black" cx="521.93" cy="-90" rx="54.93" ry="18"/>
<text text-anchor="middle" x="521.93" y="-84.95" font-family="Times,serif" font-size="14.00">r3_node_11</text>
</g>
<!-- r3_node_10&#45;&gt;r3_node_11 -->
<g id="edge27" class="edge">
<title>r3_node_10&#45;&gt;r3_node_11</title>
<path fill="none" stroke="black" d="M456.18,-144.05C465.48,-134.96 478.1,-123.63 489.86,-113.78"/>
<polygon fill="black" stroke="black" points="491.93,-116.6 497.44,-107.55 487.49,-111.19 491.93,-116.6"/>
</g>
<!-- r3_node_9&#45;&gt;r3_node_16 -->
<g id="edge39" class="edge">
<title>r3_node_9&#45;&gt;r3_node_16</title>
<path fill="none" stroke="black" d="M578.02,-144.01C589.19,-124.55 602.57,-92.68 585.93,-72 564.03,-44.78 472.43,-30.76 408.44,-24.15"/>
<polygon fill="black" stroke="black" points="409.04,-20.69 398.74,-23.19 408.34,-27.66 409.04,-20.69"/>
</g>
<!-- r3_node_9&#45;&gt;r3_node_19 -->
<g id="edge40" class="edge">
<title>r3_node_9&#45;&gt;r3_node_19</title>
<path fill="none" stroke="black" d="M592.6,-146.15C609.88,-136.15 632.93,-122.82 652.03,-111.77"/>
<polygon fill="black" stroke="black" points="653.68,-114.86 660.58,-106.82 650.17,-108.8 653.68,-114.86"/>
</g>
<!-- r3_node_9&#45;&gt;r3_node_6 -->
<g id="edge38" class="edge">
<title>r3_node_9&#45;&gt;r3_node_6</title>
<path fill="none" stroke="black" d="M533.03,-175.59C527.36,-177.15 521.51,-178.66 515.93,-180 435.32,-199.31 413.98,-198.6 332.93,-216 324.07,-217.9 314.62,-220.03 305.39,-222.12"/>
<polygon fill="black" stroke="black" points="304.74,-218.68 295.75,-224.29 306.28,-225.5 304.74,-218.68"/>
</g>
<!-- r3_node_11&#45;&gt;r3_node_10 -->
<g id="edge29" class="edge">
<title>r3_node_11&#45;&gt;r3_node_10</title>
<path fill="none" stroke="black" d="M508.67,-107.96C499.36,-117.07 486.71,-128.42 474.95,-138.28"/>
<polygon fill="black" stroke="black" points="472.87,-135.46 467.36,-144.5 477.31,-140.87 472.87,-135.46"/>
</g>
<!-- r3_node_15&#45;&gt;r3_node_5 -->
<g id="edge37" class="edge">
<title>r3_node_15&#45;&gt;r3_node_5</title>
<path fill="none" stroke="black" d="M803.97,-25.58C855.1,-33.89 929.04,-49.84 945.93,-72 960.4,-90.97 954.94,-165.48 946.93,-180 937.54,-197.04 920.1,-209.36 902.77,-217.8"/>
<polygon fill="black" stroke="black" points="901.72,-214.44 894.02,-221.72 904.58,-220.83 901.72,-214.44"/>
</g>
</g>
</svg>
