<?xml version="1.0" encoding="UTF-8" standalone="no"?>
<!DOCTYPE svg PUBLIC "-//W3C//DTD SVG 1.1//EN"
 "http://www.w3.org/Graphics/SVG/1.1/DTD/svg11.dtd">
<!-- Generated by graphviz version 12.2.1 (20241206.2353)
 -->
<!-- Pages: 1 -->
<svg width="448pt" height="548pt"
 viewBox="0.00 0.00 447.95 548.00" xmlns="http://www.w3.org/2000/svg" xmlns:xlink="http://www.w3.org/1999/xlink">
<g id="graph0" class="graph" transform="scale(1 1) rotate(0) translate(4 544)">
<polygon fill="white" stroke="none" points="-4,4 -4,-544 443.95,-544 443.95,4 -4,4"/>
<!-- r4_node_19 -->
<g id="node1" class="node">
<title>r4_node_19</title>
<ellipse fill="none" stroke="black" cx="107.93" cy="-522" rx="54.93" ry="18"/>
<text text-anchor="middle" x="107.93" y="-516.95" font-family="Times,serif" font-size="14.00">r4_node_19</text>
</g>
<!-- r4_node_4 -->
<g id="node2" class="node">
<title>r4_node_4</title>
<ellipse fill="none" stroke="black" cx="158.93" cy="-450" rx="50.33" ry="18"/>
<text text-anchor="middle" x="158.93" y="-444.95" font-family="Times,serif" font-size="14.00">r4_node_4</text>
</g>
<!-- r4_node_19&#45;&gt;r4_node_4 -->
<g id="edge1" class="edge">
<title>r4_node_19&#45;&gt;r4_node_4</title>
<path fill="none" stroke="black" d="M114.63,-503.7C119.87,-495.32 127.12,-485.1 134.3,-475.9"/>
<polygon fill="black" stroke="black" points="136.86,-478.3 140.43,-468.32 131.42,-473.9 136.86,-478.3"/>
</g>
<!-- r4_node_3 -->
<g id="node3" class="node">
<title>r4_node_3</title>
<ellipse fill="none" stroke="black" cx="258.93" cy="-18" rx="50.33" ry="18"/>
<text text-anchor="middle" x="258.93" y="-12.95" font-family="Times,serif" font-size="14.00">r4_node_3</text>
</g>
<!-- r4_node_19&#45;&gt;r4_node_3 -->
<g id="edge2" class="edge">
<title>r4_node_19&#45;&gt;r4_node_3</title>
<path fill="none" stroke="black" d="M148.41,-509.47C171.34,-501.16 199.13,-487.85 217.93,-468 241.77,-442.83 236.24,-428.63 247.93,-396 293.04,-270.12 315.39,-240.28 334.93,-108 337.27,-92.17 342.34,-86.19 334.93,-72 327.39,-57.54 313.9,-46.22 300.36,-37.82"/>
<polygon fill="black" stroke="black" points="302.3,-34.9 291.88,-32.97 298.82,-40.98 302.3,-34.9"/>
</g>
<!-- r4_node_1 -->
<g id="node4" class="node">
<title>r4_node_1</title>
<ellipse fill="none" stroke="black" cx="75.93" cy="-234" rx="50.33" ry="18"/>
<text text-anchor="middle" x="75.93" y="-228.95" font-family="Times,serif" font-size="14.00">r4_node_1</text>
</g>
<!-- r4_node_19&#45;&gt;r4_node_1 -->
<g id="edge3" class="edge">
<title>r4_node_19&#45;&gt;r4_node_1</title>
<path fill="none" stroke="black" d="M97.31,-503.84C94.5,-493.48 92.46,-480 90.93,-468 81.62,-394.59 73.42,-307.82 72.69,-263.77"/>
<polygon fill="black" stroke="black" points="76.19,-263.79 72.69,-253.79 69.19,-263.79 76.19,-263.79"/>
</g>
<!-- r4_node_4&#45;&gt;r4_node_19 -->
<g id="edge5" class="edge">
<title>r4_node_4&#45;&gt;r4_node_19</title>
<path fill="none" stroke="black" d="M152.36,-468.12C147.13,-476.5 139.87,-486.74 132.67,-495.98"/>
<polygon fill="black" stroke="black" points="130.08,-493.61 126.51,-503.59 135.52,-498.01 130.08,-493.61"/>
</g>
<!-- r4_node_11 -->
<g id="node5" class="node">
<title>r4_node_11</title>
<ellipse fill="none" stroke="black" cx="161.93" cy="-378" rx="54.93" ry="18"/>
<text text-anchor="middle" x="161.93" y="-372.95" font-family="Times,serif" font-size="14.00">r4_node_11</text>
</g>
<!-- r4_node_4&#45;&gt;r4_node_11 -->
<g id="edge4" class="edge">
<title>r4_node_4&#45;&gt;r4_node_11</title>
<path fill="none" stroke="black" d="M153.76,-431.7C153.32,-424.41 153.45,-415.73 154.06,-407.54"/>
<polygon fill="black" stroke="black" points="157.54,-407.93 155.14,-397.61 150.58,-407.17 157.54,-407.93"/>
</g>
<!-- r4_node_9 -->
<g id="node6" class="node">
<title>r4_node_9</title>
<ellipse fill="none" stroke="black" cx="275.93" cy="-90" rx="50.33" ry="18"/>
<text text-anchor="middle" x="275.93" y="-84.95" font-family="Times,serif" font-size="14.00">r4_node_9</text>
</g>
<!-- r4_node_4&#45;&gt;r4_node_9 -->
<g id="edge6" class="edge">
<title>r4_node_4&#45;&gt;r4_node_9</title>
<path fill="none" stroke="black" d="M186.07,-434.45C200.32,-425.34 216.7,-412.24 225.93,-396 265.83,-325.84 236.37,-295.56 249.93,-216 255.62,-182.61 263.78,-144.55 269.44,-119.29"/>
<polygon fill="black" stroke="black" points="272.79,-120.32 271.58,-109.79 265.97,-118.77 272.79,-120.32"/>
</g>
<!-- r4_node_1&#45;&gt;r4_node_19 -->
<g id="edge19" class="edge">
<title>r4_node_1&#45;&gt;r4_node_19</title>
<path fill="none" stroke="black" d="M82.17,-252.28C89.85,-290.97 98.72,-387.52 108.93,-468 109.95,-475.97 111.18,-484.59 112.04,-492.52"/>
<polygon fill="black" stroke="black" points="108.54,-492.65 112.83,-502.33 115.51,-492.08 108.54,-492.65"/>
</g>
<!-- r4_node_1&#45;&gt;r4_node_3 -->
<g id="edge17" class="edge">
<title>r4_node_1&#45;&gt;r4_node_3</title>
<path fill="none" stroke="black" d="M89.99,-216.56C121.79,-179.37 199.44,-88.57 237.37,-44.22"/>
<polygon fill="black" stroke="black" points="240.01,-46.52 243.85,-36.64 234.69,-41.97 240.01,-46.52"/>
</g>
<!-- r4_node_7 -->
<g id="node8" class="node">
<title>r4_node_7</title>
<ellipse fill="none" stroke="black" cx="56.93" cy="-162" rx="50.33" ry="18"/>
<text text-anchor="middle" x="56.93" y="-156.95" font-family="Times,serif" font-size="14.00">r4_node_7</text>
</g>
<!-- r4_node_1&#45;&gt;r4_node_7 -->
<g id="edge18" class="edge">
<title>r4_node_1&#45;&gt;r4_node_7</title>
<path fill="none" stroke="black" d="M65.46,-216.05C62.67,-208.68 60.02,-199.84 58.03,-191.51"/>
<polygon fill="black" stroke="black" points="61.46,-190.84 56.02,-181.76 54.61,-192.26 61.46,-190.84"/>
</g>
<!-- r4_node_2 -->
<g id="node12" class="node">
<title>r4_node_2</title>
<ellipse fill="none" stroke="black" cx="159.93" cy="-306" rx="50.33" ry="18"/>
<text text-anchor="middle" x="159.93" y="-300.95" font-family="Times,serif" font-size="14.00">r4_node_2</text>
</g>
<!-- r4_node_1&#45;&gt;r4_node_2 -->
<g id="edge16" class="edge">
<title>r4_node_1&#45;&gt;r4_node_2</title>
<path fill="none" stroke="black" d="M99.95,-250.27C111.81,-259.25 125.92,-270.8 137.54,-280.97"/>
<polygon fill="black" stroke="black" points="134.95,-283.35 144.74,-287.4 139.62,-278.13 134.95,-283.35"/>
</g>
<!-- r4_node_11&#45;&gt;r4_node_4 -->
<g id="edge14" class="edge">
<title>r4_node_11&#45;&gt;r4_node_4</title>
<path fill="none" stroke="black" d="M167.1,-396.1C167.55,-403.45 167.42,-412.24 166.8,-420.53"/>
<polygon fill="black" stroke="black" points="163.35,-419.87 165.75,-430.19 170.31,-420.63 163.35,-419.87"/>
</g>
<!-- r4_node_11&#45;&gt;r4_node_2 -->
<g id="edge15" class="edge">
<title>r4_node_11&#45;&gt;r4_node_2</title>
<path fill="none" stroke="black" d="M155.52,-359.7C154.56,-352.41 154.07,-343.73 154.1,-335.54"/>
<polygon fill="black" stroke="black" points="157.6,-335.74 154.47,-325.62 150.6,-335.48 157.6,-335.74"/>
</g>
<!-- r4_node_16 -->
<g id="node7" class="node">
<title>r4_node_16</title>
<ellipse fill="none" stroke="black" cx="54.93" cy="-90" rx="54.93" ry="18"/>
<text text-anchor="middle" x="54.93" y="-84.95" font-family="Times,serif" font-size="14.00">r4_node_16</text>
</g>
<!-- r4_node_16&#45;&gt;r4_node_7 -->
<g id="edge7" class="edge">
<title>r4_node_16&#45;&gt;r4_node_7</title>
<path fill="none" stroke="black" d="M61.32,-108.1C62.29,-115.37 62.79,-124.04 62.77,-132.24"/>
<polygon fill="black" stroke="black" points="59.27,-132.07 62.41,-142.18 66.27,-132.32 59.27,-132.07"/>
</g>
<!-- r4_node_8 -->
<g id="node9" class="node">
<title>r4_node_8</title>
<ellipse fill="none" stroke="black" cx="105.93" cy="-18" rx="50.33" ry="18"/>
<text text-anchor="middle" x="105.93" y="-12.95" font-family="Times,serif" font-size="14.00">r4_node_8</text>
</g>
<!-- r4_node_16&#45;&gt;r4_node_8 -->
<g id="edge8" class="edge">
<title>r4_node_16&#45;&gt;r4_node_8</title>
<path fill="none" stroke="black" d="M61.63,-71.7C66.87,-63.32 74.12,-53.1 81.3,-43.9"/>
<polygon fill="black" stroke="black" points="83.86,-46.3 87.43,-36.32 78.42,-41.9 83.86,-46.3"/>
</g>
<!-- r4_node_7&#45;&gt;r4_node_1 -->
<g id="edge22" class="edge">
<title>r4_node_7&#45;&gt;r4_node_1</title>
<path fill="none" stroke="black" d="M67.29,-179.62C70.13,-187.1 72.85,-196.14 74.88,-204.64"/>
<polygon fill="black" stroke="black" points="71.4,-205.13 76.85,-214.21 78.26,-203.71 71.4,-205.13"/>
</g>
<!-- r4_node_7&#45;&gt;r4_node_16 -->
<g id="edge21" class="edge">
<title>r4_node_7&#45;&gt;r4_node_16</title>
<path fill="none" stroke="black" d="M50.52,-143.7C49.56,-136.41 49.07,-127.73 49.1,-119.54"/>
<polygon fill="black" stroke="black" points="52.6,-119.74 49.47,-109.62 45.6,-119.48 52.6,-119.74"/>
</g>
<!-- r4_node_8&#45;&gt;r4_node_16 -->
<g id="edge20" class="edge">
<title>r4_node_8&#45;&gt;r4_node_16</title>
<path fill="none" stroke="black" d="M99.36,-36.12C94.13,-44.5 86.87,-54.74 79.67,-63.98"/>
<polygon fill="black" stroke="black" points="77.08,-61.61 73.51,-71.59 82.52,-66.01 77.08,-61.61"/>
</g>
<!-- r4_node_15 -->
<g id="node10" class="node">
<title>r4_node_15</title>
<ellipse fill="none" stroke="black" cx="254.93" cy="-522" rx="54.93" ry="18"/>
<text text-anchor="middle" x="254.93" y="-516.95" font-family="Times,serif" font-size="14.00">r4_node_15</text>
</g>
<!-- r4_node_15&#45;&gt;r4_node_3 -->
<g id="edge9" class="edge">
<title>r4_node_15&#45;&gt;r4_node_3</title>
<path fill="none" stroke="black" d="M261.66,-503.66C282.99,-447.57 348.8,-265.55 367.93,-108 369.86,-92.12 376.42,-85.56 367.93,-72 355.58,-52.25 333.53,-39.67 312.47,-31.76"/>
<polygon fill="black" stroke="black" points="313.64,-28.45 303.04,-28.52 311.36,-35.08 313.64,-28.45"/>
</g>
<!-- r4_node_17 -->
<g id="node11" class="node">
<title>r4_node_17</title>
<ellipse fill="none" stroke="black" cx="357.93" cy="-450" rx="54.93" ry="18"/>
<text text-anchor="middle" x="357.93" y="-444.95" font-family="Times,serif" font-size="14.00">r4_node_17</text>
</g>
<!-- r4_node_17&#45;&gt;r4_node_3 -->
<g id="edge10" class="edge">
<title>r4_node_17&#45;&gt;r4_node_3</title>
<path fill="none" stroke="black" d="M367.51,-432.02C398.2,-375.09 487.48,-188.08 405.93,-72 386.35,-44.12 350.61,-30.84 319.27,-24.55"/>
<polygon fill="black" stroke="black" points="319.91,-21.1 309.45,-22.79 318.68,-28 319.91,-21.1"/>
</g>
<!-- r4_node_2&#45;&gt;r4_node_1 -->
<g id="edge11" class="edge">
<title>r4_node_2&#45;&gt;r4_node_1</title>
<path fill="none" stroke="black" d="M136.03,-289.81C124.17,-280.84 110.04,-269.28 98.39,-259.09"/>
<polygon fill="black" stroke="black" points="100.96,-256.69 91.17,-252.64 96.3,-261.91 100.96,-256.69"/>
</g>
<!-- r4_node_2&#45;&gt;r4_node_11 -->
<g id="edge13" class="edge">
<title>r4_node_2&#45;&gt;r4_node_11</title>
<path fill="none" stroke="black" d="M166.32,-324.1C167.29,-331.37 167.79,-340.04 167.77,-348.24"/>
<polygon fill="black" stroke="black" points="164.27,-348.07 167.41,-358.18 171.27,-348.32 164.27,-348.07"/>
</g>
<!-- r4_node_2&#45;&gt;r4_node_9 -->
<g id="edge12" class="edge">
<title>r4_node_2&#45;&gt;r4_node_9</title>
<path fill="none" stroke="black" d="M167.11,-288C174.9,-269.9 187.98,-240.52 200.93,-216 219.33,-181.19 243.06,-142.53 258.85,-117.55"/>
<polygon fill="black" stroke="black" points="261.67,-119.64 264.08,-109.33 255.76,-115.89 261.67,-119.64"/>
</g>
</g>
</svg>
