<?xml version="1.0" encoding="UTF-8" standalone="no"?>
<!DOCTYPE svg PUBLIC "-//W3C//DTD SVG 1.1//EN"
 "http://www.w3.org/Graphics/SVG/1.1/DTD/svg11.dtd">
<!-- Generated by graphviz version 12.2.1 (20241206.2353)
 -->
<!-- Pages: 1 -->
<svg width="1434pt" height="332pt"
 viewBox="0.00 0.00 1433.91 332.00" xmlns="http://www.w3.org/2000/svg" xmlns:xlink="http://www.w3.org/1999/xlink">
<g id="graph0" class="graph" transform="scale(1 1) rotate(0) translate(4 328)">
<polygon fill="white" stroke="none" points="-4,4 -4,-328 1429.91,-328 1429.91,4 -4,4"/>
<!-- r1_node_2 -->
<g id="node1" class="node">
<title>r1_node_2</title>
<ellipse fill="none" stroke="black" cx="294.33" cy="-306" rx="50.33" ry="18"/>
<text text-anchor="middle" x="294.33" y="-300.95" font-family="Times,serif" font-size="14.00">r1_node_2</text>
</g>
<!-- r1_node_16 -->
<g id="node2" class="node">
<title>r1_node_16</title>
<ellipse fill="none" stroke="black" cx="885.33" cy="-18" rx="54.93" ry="18"/>
<text text-anchor="middle" x="885.33" y="-12.95" font-family="Times,serif" font-size="14.00">r1_node_16</text>
</g>
<!-- r1_node_2&#45;&gt;r1_node_16 -->
<g id="edge1" class="edge">
<title>r1_node_2&#45;&gt;r1_node_16</title>
<path fill="none" stroke="black" d="M342.84,-300.9C542.21,-283.82 1289.49,-217.49 1322.33,-180 1332.87,-167.96 1331.62,-157.03 1322.33,-144 1299.82,-112.44 1054.39,-55.68 941.52,-31"/>
<polygon fill="black" stroke="black" points="942.37,-27.61 931.86,-28.9 940.88,-34.45 942.37,-27.61"/>
</g>
<!-- r1_node_12 -->
<g id="node3" class="node">
<title>r1_node_12</title>
<ellipse fill="none" stroke="black" cx="955.33" cy="-162" rx="54.93" ry="18"/>
<text text-anchor="middle" x="955.33" y="-156.95" font-family="Times,serif" font-size="14.00">r1_node_12</text>
</g>
<!-- r1_node_2&#45;&gt;r1_node_12 -->
<g id="edge2" class="edge">
<title>r1_node_2&#45;&gt;r1_node_12</title>
<path fill="none" stroke="black" d="M328.55,-292.6C392.86,-269.37 527.24,-221.16 549.33,-216 675.8,-186.43 710.62,-197.42 839.33,-180 857.45,-177.55 877.14,-174.72 895.06,-172.09"/>
<polygon fill="black" stroke="black" points="895.38,-175.58 904.76,-170.66 894.35,-168.66 895.38,-175.58"/>
</g>
<!-- r1_node_20 -->
<g id="node4" class="node">
<title>r1_node_20</title>
<ellipse fill="none" stroke="black" cx="619.33" cy="-90" rx="54.93" ry="18"/>
<text text-anchor="middle" x="619.33" y="-84.95" font-family="Times,serif" font-size="14.00">r1_node_20</text>
</g>
<!-- r1_node_2&#45;&gt;r1_node_20 -->
<g id="edge3" class="edge">
<title>r1_node_2&#45;&gt;r1_node_20</title>
<path fill="none" stroke="black" d="M338.5,-296.95C383.08,-288.2 453.53,-272.66 512.33,-252 547.97,-239.48 552.71,-225.29 589.33,-216 654.71,-199.42 1149.07,-229.09 1195.33,-180 1206.3,-168.36 1206.21,-155.73 1195.33,-144 1159.11,-104.95 770.18,-114.56 717.33,-108 704.07,-106.36 689.88,-104.15 676.53,-101.88"/>
<polygon fill="black" stroke="black" points="677.5,-98.49 667.04,-100.22 676.29,-105.39 677.5,-98.49"/>
</g>
<!-- r1_node_1 -->
<g id="node5" class="node">
<title>r1_node_1</title>
<ellipse fill="none" stroke="black" cx="721.33" cy="-234" rx="50.33" ry="18"/>
<text text-anchor="middle" x="721.33" y="-228.95" font-family="Times,serif" font-size="14.00">r1_node_1</text>
</g>
<!-- r1_node_2&#45;&gt;r1_node_1 -->
<g id="edge4" class="edge">
<title>r1_node_2&#45;&gt;r1_node_1</title>
<path fill="none" stroke="black" d="M341.28,-299.09C409.24,-290.78 538.4,-274.15 647.33,-252 654.15,-250.61 661.33,-248.95 668.44,-247.21"/>
<polygon fill="black" stroke="black" points="669.17,-250.63 678.03,-244.81 667.48,-243.84 669.17,-250.63"/>
</g>
<!-- r1_node_14 -->
<g id="node6" class="node">
<title>r1_node_14</title>
<ellipse fill="none" stroke="black" cx="515.33" cy="-18" rx="54.93" ry="18"/>
<text text-anchor="middle" x="515.33" y="-12.95" font-family="Times,serif" font-size="14.00">r1_node_14</text>
</g>
<!-- r1_node_2&#45;&gt;r1_node_14 -->
<g id="edge5" class="edge">
<title>r1_node_2&#45;&gt;r1_node_14</title>
<path fill="none" stroke="black" d="M344.53,-303.48C408.67,-300.01 522.05,-288.71 611.33,-252 636.99,-241.45 636.15,-225.2 662.33,-216 723.76,-194.4 1202.72,-227.44 1247.33,-180 1344.49,-76.67 1306.46,-184.89 1069.33,-108 1032.62,-96.1 1027.54,-82.19 990.33,-72 845.9,-32.45 804.1,-53.03 655.33,-36 629.81,-33.08 601.7,-29.7 577.41,-26.72"/>
<polygon fill="black" stroke="black" points="578.03,-23.28 567.68,-25.53 577.18,-30.22 578.03,-23.28"/>
</g>
<!-- r1_node_15 -->
<g id="node7" class="node">
<title>r1_node_15</title>
<ellipse fill="none" stroke="black" cx="926.33" cy="-90" rx="54.93" ry="18"/>
<text text-anchor="middle" x="926.33" y="-84.95" font-family="Times,serif" font-size="14.00">r1_node_15</text>
</g>
<!-- r1_node_2&#45;&gt;r1_node_15 -->
<g id="edge6" class="edge">
<title>r1_node_2&#45;&gt;r1_node_15</title>
<path fill="none" stroke="black" d="M342.61,-300.36C397.83,-293.96 490.29,-279.91 565.33,-252 595.55,-240.76 597.43,-225.23 628.33,-216 690.73,-197.36 1168.72,-227.44 1213.33,-180 1327.6,-58.47 1383.9,-182.59 1003.33,-108 996.19,-106.6 988.7,-105.05 981.31,-103.47"/>
<polygon fill="black" stroke="black" points="982.22,-100.09 971.71,-101.39 980.74,-106.93 982.22,-100.09"/>
</g>
<!-- r1_node_1&#45;&gt;r1_node_2 -->
<g id="edge19" class="edge">
<title>r1_node_1&#45;&gt;r1_node_2</title>
<path fill="none" stroke="black" d="M685.96,-247.27C679.16,-248.99 672.07,-250.63 665.33,-252 556.62,-274.1 427.74,-290.72 353.96,-299.04"/>
<polygon fill="black" stroke="black" points="353.66,-295.55 344.11,-300.14 354.44,-302.51 353.66,-295.55"/>
</g>
<!-- r1_node_1&#45;&gt;r1_node_16 -->
<g id="edge20" class="edge">
<title>r1_node_1&#45;&gt;r1_node_16</title>
<path fill="none" stroke="black" d="M758.97,-221.73C767.57,-219.51 776.71,-217.43 785.33,-216 842.35,-206.54 1264.89,-222.27 1304.33,-180 1315.24,-168.3 1314.47,-156.37 1304.33,-144 1252.6,-80.91 1199.28,-140.22 1124.33,-108 1098.84,-97.04 1098.37,-83.94 1073.33,-72 1031.81,-52.22 981.53,-38.52 943.41,-30.01"/>
<polygon fill="black" stroke="black" points="944.49,-26.67 933.98,-27.97 943.01,-33.51 944.49,-26.67"/>
</g>
<!-- r1_node_19 -->
<g id="node8" class="node">
<title>r1_node_19</title>
<ellipse fill="none" stroke="black" cx="781.33" cy="-90" rx="54.93" ry="18"/>
<text text-anchor="middle" x="781.33" y="-84.95" font-family="Times,serif" font-size="14.00">r1_node_19</text>
</g>
<!-- r1_node_8 -->
<g id="node9" class="node">
<title>r1_node_8</title>
<ellipse fill="none" stroke="black" cx="256.33" cy="-162" rx="50.33" ry="18"/>
<text text-anchor="middle" x="256.33" y="-156.95" font-family="Times,serif" font-size="14.00">r1_node_8</text>
</g>
<!-- r1_node_8&#45;&gt;r1_node_20 -->
<g id="edge8" class="edge">
<title>r1_node_8&#45;&gt;r1_node_20</title>
<path fill="none" stroke="black" d="M299.75,-152.63C365.04,-140.04 488.59,-116.21 561.46,-102.16"/>
<polygon fill="black" stroke="black" points="562.06,-105.61 571.22,-100.28 560.73,-98.73 562.06,-105.61"/>
</g>
<!-- r1_node_17 -->
<g id="node10" class="node">
<title>r1_node_17</title>
<ellipse fill="none" stroke="black" cx="719.33" cy="-18" rx="54.93" ry="18"/>
<text text-anchor="middle" x="719.33" y="-12.95" font-family="Times,serif" font-size="14.00">r1_node_17</text>
</g>
<!-- r1_node_8&#45;&gt;r1_node_17 -->
<g id="edge7" class="edge">
<title>r1_node_8&#45;&gt;r1_node_17</title>
<path fill="none" stroke="black" d="M270.07,-144.37C288.19,-123.68 322.15,-89.02 359.33,-72 372.74,-65.86 558.36,-40.45 657.66,-27.17"/>
<polygon fill="black" stroke="black" points="658.08,-30.64 667.53,-25.85 657.15,-23.7 658.08,-30.64"/>
</g>
<!-- r1_node_7 -->
<g id="node11" class="node">
<title>r1_node_7</title>
<ellipse fill="none" stroke="black" cx="185.33" cy="-90" rx="50.33" ry="18"/>
<text text-anchor="middle" x="185.33" y="-84.95" font-family="Times,serif" font-size="14.00">r1_node_7</text>
</g>
<!-- r1_node_8&#45;&gt;r1_node_7 -->
<g id="edge9" class="edge">
<title>r1_node_8&#45;&gt;r1_node_7</title>
<path fill="none" stroke="black" d="M234.85,-145.46C225.11,-136.87 213.8,-125.97 204.37,-116.19"/>
<polygon fill="black" stroke="black" points="207.08,-113.97 197.69,-109.07 201.98,-118.75 207.08,-113.97"/>
</g>
<!-- r1_node_4 -->
<g id="node12" class="node">
<title>r1_node_4</title>
<ellipse fill="none" stroke="black" cx="175.33" cy="-234" rx="50.33" ry="18"/>
<text text-anchor="middle" x="175.33" y="-228.95" font-family="Times,serif" font-size="14.00">r1_node_4</text>
</g>
<!-- r1_node_8&#45;&gt;r1_node_4 -->
<g id="edge10" class="edge">
<title>r1_node_8&#45;&gt;r1_node_4</title>
<path fill="none" stroke="black" d="M242.93,-179.63C233.16,-188.95 219.72,-200.7 207.34,-210.81"/>
<polygon fill="black" stroke="black" points="205.39,-207.89 199.76,-216.87 209.76,-213.35 205.39,-207.89"/>
</g>
<!-- r1_node_9 -->
<g id="node13" class="node">
<title>r1_node_9</title>
<ellipse fill="none" stroke="black" cx="240.33" cy="-18" rx="50.33" ry="18"/>
<text text-anchor="middle" x="240.33" y="-12.95" font-family="Times,serif" font-size="14.00">r1_node_9</text>
</g>
<!-- r1_node_8&#45;&gt;r1_node_9 -->
<g id="edge11" class="edge">
<title>r1_node_8&#45;&gt;r1_node_9</title>
<path fill="none" stroke="black" d="M254.37,-143.59C251.66,-119.61 246.77,-76.14 243.53,-47.42"/>
<polygon fill="black" stroke="black" points="247.02,-47.16 242.43,-37.61 240.07,-47.94 247.02,-47.16"/>
</g>
<!-- r1_node_11 -->
<g id="node14" class="node">
<title>r1_node_11</title>
<ellipse fill="none" stroke="black" cx="423.33" cy="-90" rx="54.93" ry="18"/>
<text text-anchor="middle" x="423.33" y="-84.95" font-family="Times,serif" font-size="14.00">r1_node_11</text>
</g>
<!-- r1_node_8&#45;&gt;r1_node_11 -->
<g id="edge12" class="edge">
<title>r1_node_8&#45;&gt;r1_node_11</title>
<path fill="none" stroke="black" d="M288.13,-147.67C314.15,-136.76 351.2,-121.23 379.93,-109.19"/>
<polygon fill="black" stroke="black" points="381.24,-112.44 389.1,-105.35 378.53,-105.98 381.24,-112.44"/>
</g>
<!-- r1_node_7&#45;&gt;r1_node_8 -->
<g id="edge34" class="edge">
<title>r1_node_7&#45;&gt;r1_node_8</title>
<path fill="none" stroke="black" d="M206.87,-106.59C216.6,-115.19 227.9,-126.07 237.32,-135.84"/>
<polygon fill="black" stroke="black" points="234.59,-138.05 243.98,-142.95 239.7,-133.26 234.59,-138.05"/>
</g>
<!-- r1_node_7&#45;&gt;r1_node_4 -->
<g id="edge33" class="edge">
<title>r1_node_7&#45;&gt;r1_node_4</title>
<path fill="none" stroke="black" d="M188.71,-108.19C189.54,-132.1 186.79,-175.72 182.86,-204.53"/>
<polygon fill="black" stroke="black" points="179.41,-203.96 181.35,-214.38 186.33,-205.02 179.41,-203.96"/>
</g>
<!-- r1_node_7&#45;&gt;r1_node_9 -->
<g id="edge35" class="edge">
<title>r1_node_7&#45;&gt;r1_node_9</title>
<path fill="none" stroke="black" d="M198.36,-72.41C204.94,-64.04 213.06,-53.71 220.39,-44.37"/>
<polygon fill="black" stroke="black" points="223.03,-46.69 226.45,-36.66 217.52,-42.36 223.03,-46.69"/>
</g>
<!-- r1_node_18 -->
<g id="node19" class="node">
<title>r1_node_18</title>
<ellipse fill="none" stroke="black" cx="99.33" cy="-18" rx="54.93" ry="18"/>
<text text-anchor="middle" x="99.33" y="-12.95" font-family="Times,serif" font-size="14.00">r1_node_18</text>
</g>
<!-- r1_node_7&#45;&gt;r1_node_18 -->
<g id="edge36" class="edge">
<title>r1_node_7&#45;&gt;r1_node_18</title>
<path fill="none" stroke="black" d="M165.81,-73.12C154.57,-63.96 140.23,-52.29 127.75,-42.13"/>
<polygon fill="black" stroke="black" points="130.2,-39.62 120.24,-36.02 125.78,-45.05 130.2,-39.62"/>
</g>
<!-- r1_node_4&#45;&gt;r1_node_19 -->
<g id="edge21" class="edge">
<title>r1_node_4&#45;&gt;r1_node_19</title>
<path fill="none" stroke="black" d="M216.5,-223.35C322.83,-198.44 606.62,-131.94 726.58,-103.83"/>
<polygon fill="black" stroke="black" points="727.25,-107.27 736.19,-101.58 725.66,-100.45 727.25,-107.27"/>
</g>
<!-- r1_node_4&#45;&gt;r1_node_8 -->
<g id="edge24" class="edge">
<title>r1_node_4&#45;&gt;r1_node_8</title>
<path fill="none" stroke="black" d="M188.68,-216.41C198.43,-207.11 211.84,-195.38 224.21,-185.28"/>
<polygon fill="black" stroke="black" points="226.16,-188.2 231.78,-179.22 221.79,-182.73 226.16,-188.2"/>
</g>
<!-- r1_node_4&#45;&gt;r1_node_7 -->
<g id="edge23" class="edge">
<title>r1_node_4&#45;&gt;r1_node_7</title>
<path fill="none" stroke="black" d="M171.94,-215.59C171.13,-191.61 173.88,-148.14 177.8,-119.42"/>
<polygon fill="black" stroke="black" points="181.25,-120.02 179.31,-109.61 174.33,-118.96 181.25,-120.02"/>
</g>
<!-- r1_node_4&#45;&gt;r1_node_9 -->
<g id="edge25" class="edge">
<title>r1_node_4&#45;&gt;r1_node_9</title>
<path fill="none" stroke="black" d="M223.81,-228.47C255.57,-222.7 294.87,-209.62 315.33,-180 346.26,-135.21 298.87,-75.63 266.46,-42.96"/>
<polygon fill="black" stroke="black" points="269.28,-40.82 259.68,-36.32 264.38,-45.82 269.28,-40.82"/>
</g>
<!-- r1_node_4&#45;&gt;r1_node_11 -->
<g id="edge26" class="edge">
<title>r1_node_4&#45;&gt;r1_node_11</title>
<path fill="none" stroke="black" d="M219.71,-225.27C270.43,-215.73 349.51,-198.5 373.33,-180 393.31,-164.48 406.56,-138.59 414.37,-118.72"/>
<polygon fill="black" stroke="black" points="417.57,-120.14 417.73,-109.55 411,-117.73 417.57,-120.14"/>
</g>
<!-- r1_node_3 -->
<g id="node17" class="node">
<title>r1_node_3</title>
<ellipse fill="none" stroke="black" cx="50.33" cy="-306" rx="50.33" ry="18"/>
<text text-anchor="middle" x="50.33" y="-300.95" font-family="Times,serif" font-size="14.00">r1_node_3</text>
</g>
<!-- r1_node_4&#45;&gt;r1_node_3 -->
<g id="edge22" class="edge">
<title>r1_node_4&#45;&gt;r1_node_3</title>
<path fill="none" stroke="black" d="M153.35,-250.51C136,-260.92 111.51,-274.7 90.71,-285.8"/>
<polygon fill="black" stroke="black" points="89.08,-282.7 81.87,-290.46 92.34,-288.9 89.08,-282.7"/>
</g>
<!-- r1_node_6 -->
<g id="node15" class="node">
<title>r1_node_6</title>
<ellipse fill="none" stroke="black" cx="379.33" cy="-234" rx="50.33" ry="18"/>
<text text-anchor="middle" x="379.33" y="-228.95" font-family="Times,serif" font-size="14.00">r1_node_6</text>
</g>
<!-- r1_node_6&#45;&gt;r1_node_12 -->
<g id="edge13" class="edge">
<title>r1_node_6&#45;&gt;r1_node_12</title>
<path fill="none" stroke="black" d="M420.78,-223.31C433.42,-220.63 447.39,-217.92 460.33,-216 639.51,-189.35 686.91,-205.03 866.33,-180 876.97,-178.52 888.26,-176.61 899.11,-174.62"/>
<polygon fill="black" stroke="black" points="899.53,-178.1 908.71,-172.81 898.23,-171.23 899.53,-178.1"/>
</g>
<!-- r1_node_6&#45;&gt;r1_node_15 -->
<g id="edge14" class="edge">
<title>r1_node_6&#45;&gt;r1_node_15</title>
<path fill="none" stroke="black" d="M420.81,-223.47C433.45,-220.79 447.41,-218.05 460.33,-216 606.91,-192.73 652.76,-230.49 792.33,-180 833.26,-165.19 874.02,-135.42 899.65,-114.4"/>
<polygon fill="black" stroke="black" points="901.79,-117.17 907.21,-108.07 897.3,-111.8 901.79,-117.17"/>
</g>
<!-- r1_node_6&#45;&gt;r1_node_11 -->
<g id="edge17" class="edge">
<title>r1_node_6&#45;&gt;r1_node_11</title>
<path fill="none" stroke="black" d="M398.3,-216.92C408.1,-207.34 419.08,-194.28 424.33,-180 431.42,-160.7 430.87,-137.41 428.7,-119.5"/>
<polygon fill="black" stroke="black" points="432.2,-119.23 427.29,-109.84 425.27,-120.24 432.2,-119.23"/>
</g>
<!-- r1_node_5 -->
<g id="node16" class="node">
<title>r1_node_5</title>
<ellipse fill="none" stroke="black" cx="733.33" cy="-162" rx="50.33" ry="18"/>
<text text-anchor="middle" x="733.33" y="-156.95" font-family="Times,serif" font-size="14.00">r1_node_5</text>
</g>
<!-- r1_node_6&#45;&gt;r1_node_5 -->
<g id="edge15" class="edge">
<title>r1_node_6&#45;&gt;r1_node_5</title>
<path fill="none" stroke="black" d="M419.35,-222.63C429.74,-220.41 440.91,-218.11 451.33,-216 529.25,-200.26 619.87,-182.84 677.02,-172.42"/>
<polygon fill="black" stroke="black" points="677.63,-175.86 686.85,-170.63 676.38,-168.97 677.63,-175.86"/>
</g>
<!-- r1_node_6&#45;&gt;r1_node_3 -->
<g id="edge16" class="edge">
<title>r1_node_6&#45;&gt;r1_node_3</title>
<path fill="none" stroke="black" d="M338.34,-244.75C279.33,-257.84 170.59,-280.98 104.87,-294.46"/>
<polygon fill="black" stroke="black" points="104.5,-290.96 95.4,-296.39 105.9,-297.82 104.5,-290.96"/>
</g>
<!-- r1_node_13 -->
<g id="node18" class="node">
<title>r1_node_13</title>
<ellipse fill="none" stroke="black" cx="1131.33" cy="-162" rx="54.93" ry="18"/>
<text text-anchor="middle" x="1131.33" y="-156.95" font-family="Times,serif" font-size="14.00">r1_node_13</text>
</g>
<!-- r1_node_6&#45;&gt;r1_node_13 -->
<g id="edge18" class="edge">
<title>r1_node_6&#45;&gt;r1_node_13</title>
<path fill="none" stroke="black" d="M427.3,-227.9C461.33,-224.36 508.11,-219.64 549.33,-216 758.02,-197.58 811.18,-203.74 1019.33,-180 1036.56,-178.04 1055.21,-175.41 1072.26,-172.81"/>
<polygon fill="black" stroke="black" points="1072.35,-176.33 1081.7,-171.34 1071.28,-169.41 1072.35,-176.33"/>
</g>
<!-- r1_node_5&#45;&gt;r1_node_15 -->
<g id="edge40" class="edge">
<title>r1_node_5&#45;&gt;r1_node_15</title>
<path fill="none" stroke="black" d="M767.83,-148.49C799.04,-137.17 845.26,-120.4 879.74,-107.9"/>
<polygon fill="black" stroke="black" points="880.86,-111.22 889.06,-104.52 878.47,-104.63 880.86,-111.22"/>
</g>
<!-- r1_node_5&#45;&gt;r1_node_19 -->
<g id="edge37" class="edge">
<title>r1_node_5&#45;&gt;r1_node_19</title>
<path fill="none" stroke="black" d="M744.95,-144.05C750.49,-135.97 757.24,-126.12 763.42,-117.11"/>
<polygon fill="black" stroke="black" points="766.19,-119.26 768.96,-109.04 760.42,-115.31 766.19,-119.26"/>
</g>
<!-- r1_node_5&#45;&gt;r1_node_11 -->
<g id="edge39" class="edge">
<title>r1_node_5&#45;&gt;r1_node_11</title>
<path fill="none" stroke="black" d="M691.52,-151.56C636.52,-139.14 539.72,-117.28 478.69,-103.5"/>
<polygon fill="black" stroke="black" points="479.73,-100.15 469.2,-101.36 478.18,-106.98 479.73,-100.15"/>
</g>
<!-- r1_node_5&#45;&gt;r1_node_6 -->
<g id="edge38" class="edge">
<title>r1_node_5&#45;&gt;r1_node_6</title>
<path fill="none" stroke="black" d="M691.03,-172.26C638.8,-182.66 547.65,-200.18 469.33,-216 458.34,-218.22 446.53,-220.66 435.16,-222.99"/>
<polygon fill="black" stroke="black" points="434.57,-219.54 425.47,-224.96 435.97,-226.4 434.57,-219.54"/>
</g>
<!-- r1_node_3&#45;&gt;r1_node_16 -->
<g id="edge30" class="edge">
<title>r1_node_3&#45;&gt;r1_node_16</title>
<path fill="none" stroke="black" d="M97.26,-298.95C170.27,-289.46 315.43,-270.27 438.33,-252 538.07,-237.18 562.34,-229.06 662.33,-216 701.86,-210.83 992.59,-209.57 1019.33,-180 1043.77,-152.97 998.38,-80.76 990.33,-72 975.41,-55.76 954.39,-43.79 935.07,-35.38"/>
<polygon fill="black" stroke="black" points="936.54,-32.2 925.96,-31.64 933.89,-38.67 936.54,-32.2"/>
</g>
<!-- r1_node_3&#45;&gt;r1_node_20 -->
<g id="edge32" class="edge">
<title>r1_node_3&#45;&gt;r1_node_20</title>
<path fill="none" stroke="black" d="M90.59,-294.84C128.15,-285.03 185.57,-269.16 234.33,-252 273.41,-238.24 282.1,-231.99 320.33,-216 411.46,-177.88 518.23,-133.25 576.32,-108.97"/>
<polygon fill="black" stroke="black" points="577.31,-112.35 585.19,-105.27 574.61,-105.89 577.31,-112.35"/>
</g>
<!-- r1_node_3&#45;&gt;r1_node_14 -->
<g id="edge29" class="edge">
<title>r1_node_3&#45;&gt;r1_node_14</title>
<path fill="none" stroke="black" d="M53.55,-287.56C63,-238.42 92.11,-100.56 126.33,-72 150.79,-51.58 347.06,-32.72 451.1,-24.03"/>
<polygon fill="black" stroke="black" points="451.21,-27.53 460.89,-23.22 450.63,-20.55 451.21,-27.53"/>
</g>
<!-- r1_node_3&#45;&gt;r1_node_4 -->
<g id="edge27" class="edge">
<title>r1_node_3&#45;&gt;r1_node_4</title>
<path fill="none" stroke="black" d="M72.35,-289.46C89.7,-279.06 114.17,-265.29 134.95,-254.2"/>
<polygon fill="black" stroke="black" points="136.57,-257.3 143.78,-249.54 133.31,-251.11 136.57,-257.3"/>
</g>
<!-- r1_node_3&#45;&gt;r1_node_6 -->
<g id="edge28" class="edge">
<title>r1_node_3&#45;&gt;r1_node_6</title>
<path fill="none" stroke="black" d="M91.56,-295.19C150.61,-282.1 259.08,-259.01 324.72,-245.56"/>
<polygon fill="black" stroke="black" points="325.09,-249.05 334.18,-243.62 323.69,-242.19 325.09,-249.05"/>
</g>
<!-- r1_node_3&#45;&gt;r1_node_18 -->
<g id="edge31" class="edge">
<title>r1_node_3&#45;&gt;r1_node_18</title>
<path fill="none" stroke="black" d="M50.47,-287.52C50.81,-269.52 51.9,-240.68 55.33,-216 63.8,-154.97 81.39,-84.85 91.57,-46.91"/>
<polygon fill="black" stroke="black" points="94.84,-48.25 94.08,-37.68 88.08,-46.41 94.84,-48.25"/>
</g>
<!-- r1_node_10 -->
<g id="node20" class="node">
<title>r1_node_10</title>
<ellipse fill="none" stroke="black" cx="572.33" cy="-306" rx="54.93" ry="18"/>
<text text-anchor="middle" x="572.33" y="-300.95" font-family="Times,serif" font-size="14.00">r1_node_10</text>
</g>
<!-- r1_node_10&#45;&gt;r1_node_16 -->
<g id="edge42" class="edge">
<title>r1_node_10&#45;&gt;r1_node_16</title>
<path fill="none" stroke="black" d="M627.54,-305.79C798.82,-306.96 1315.85,-300.3 1418.33,-180 1428.7,-167.82 1428.05,-156.71 1418.33,-144 1361.63,-69.91 1078.42,-35.94 949.47,-24.13"/>
<polygon fill="black" stroke="black" points="950.01,-20.67 939.73,-23.26 949.38,-27.64 950.01,-20.67"/>
</g>
<!-- r1_node_10&#45;&gt;r1_node_19 -->
<g id="edge43" class="edge">
<title>r1_node_10&#45;&gt;r1_node_19</title>
<path fill="none" stroke="black" d="M619.99,-296.68C678.18,-286.46 779.57,-268.45 866.33,-252 871.36,-251.05 1225.08,-183.96 1228.33,-180 1306.37,-84.9 1407.66,-191.79 862.33,-108 853.93,-106.71 845.1,-105.11 836.47,-103.41"/>
<polygon fill="black" stroke="black" points="837.29,-100.01 826.79,-101.44 835.89,-106.87 837.29,-100.01"/>
</g>
<!-- r1_node_10&#45;&gt;r1_node_13 -->
<g id="edge41" class="edge">
<title>r1_node_10&#45;&gt;r1_node_13</title>
<path fill="none" stroke="black" d="M614.8,-294.21C715.3,-268.68 967.53,-204.61 1078.04,-176.54"/>
<polygon fill="black" stroke="black" points="1078.62,-180 1087.45,-174.15 1076.9,-173.22 1078.62,-180"/>
</g>
</g>
</svg>
