<?xml version="1.0" encoding="UTF-8" standalone="no"?>
<!DOCTYPE svg PUBLIC "-//W3C//DTD SVG 1.1//EN"
 "http://www.w3.org/Graphics/SVG/1.1/DTD/svg11.dtd">
<!-- Generated by graphviz version 12.2.1 (20241206.2353)
 -->
<!-- Pages: 1 -->
<svg width="1087pt" height="332pt"
 viewBox="0.00 0.00 1086.87 332.00" xmlns="http://www.w3.org/2000/svg" xmlns:xlink="http://www.w3.org/1999/xlink">
<g id="graph0" class="graph" transform="scale(1 1) rotate(0) translate(4 328)">
<polygon fill="white" stroke="none" points="-4,4 -4,-328 1082.87,-328 1082.87,4 -4,4"/>
<!-- r2_node_7 -->
<g id="node1" class="node">
<title>r2_node_7</title>
<ellipse fill="none" stroke="black" cx="77.93" cy="-306" rx="50.33" ry="18"/>
<text text-anchor="middle" x="77.93" y="-300.95" font-family="Times,serif" font-size="14.00">r2_node_7</text>
</g>
<!-- r2_node_10 -->
<g id="node2" class="node">
<title>r2_node_10</title>
<ellipse fill="none" stroke="black" cx="54.93" cy="-18" rx="54.93" ry="18"/>
<text text-anchor="middle" x="54.93" y="-12.95" font-family="Times,serif" font-size="14.00">r2_node_10</text>
</g>
<!-- r2_node_7&#45;&gt;r2_node_10 -->
<g id="edge1" class="edge">
<title>r2_node_7&#45;&gt;r2_node_10</title>
<path fill="none" stroke="black" d="M64.8,-288.49C60.46,-278.13 56.79,-264.42 54.93,-252 44.02,-178.99 44.09,-91.77 48.28,-47.63"/>
<polygon fill="black" stroke="black" points="51.74,-48.2 49.4,-37.87 44.78,-47.41 51.74,-48.2"/>
</g>
<!-- r2_node_9 -->
<g id="node3" class="node">
<title>r2_node_9</title>
<ellipse fill="none" stroke="black" cx="122.93" cy="-234" rx="50.33" ry="18"/>
<text text-anchor="middle" x="122.93" y="-228.95" font-family="Times,serif" font-size="14.00">r2_node_9</text>
</g>
<!-- r2_node_7&#45;&gt;r2_node_9 -->
<g id="edge2" class="edge">
<title>r2_node_7&#45;&gt;r2_node_9</title>
<path fill="none" stroke="black" d="M83.14,-287.7C87.57,-279.49 93.78,-269.52 100.03,-260.48"/>
<polygon fill="black" stroke="black" points="102.87,-262.53 105.88,-252.37 97.19,-258.43 102.87,-262.53"/>
</g>
<!-- r2_node_12 -->
<g id="node4" class="node">
<title>r2_node_12</title>
<ellipse fill="none" stroke="black" cx="245.93" cy="-234" rx="54.93" ry="18"/>
<text text-anchor="middle" x="245.93" y="-228.95" font-family="Times,serif" font-size="14.00">r2_node_12</text>
</g>
<!-- r2_node_7&#45;&gt;r2_node_12 -->
<g id="edge3" class="edge">
<title>r2_node_7&#45;&gt;r2_node_12</title>
<path fill="none" stroke="black" d="M106.38,-290.83C131.8,-279.63 169.34,-263.94 199.14,-252.04"/>
<polygon fill="black" stroke="black" points="200.32,-255.34 208.33,-248.41 197.74,-248.83 200.32,-255.34"/>
</g>
<!-- r2_node_10&#45;&gt;r2_node_7 -->
<g id="edge8" class="edge">
<title>r2_node_10&#45;&gt;r2_node_7</title>
<path fill="none" stroke="black" d="M59.05,-36.37C62.2,-75.24 60.99,-172.13 72.93,-252 74.13,-260 76.08,-268.53 77.81,-276.36"/>
<polygon fill="black" stroke="black" points="74.37,-276.99 79.85,-286.05 81.22,-275.55 74.37,-276.99"/>
</g>
<!-- r2_node_9&#45;&gt;r2_node_7 -->
<g id="edge35" class="edge">
<title>r2_node_9&#45;&gt;r2_node_7</title>
<path fill="none" stroke="black" d="M117.82,-252.12C113.36,-260.41 107.06,-270.53 100.72,-279.69"/>
<polygon fill="black" stroke="black" points="98.07,-277.38 95.06,-287.54 103.75,-281.48 98.07,-277.38"/>
</g>
<!-- r2_node_14 -->
<g id="node5" class="node">
<title>r2_node_14</title>
<ellipse fill="none" stroke="black" cx="152.93" cy="-162" rx="54.93" ry="18"/>
<text text-anchor="middle" x="152.93" y="-156.95" font-family="Times,serif" font-size="14.00">r2_node_14</text>
</g>
<!-- r2_node_9&#45;&gt;r2_node_14 -->
<g id="edge31" class="edge">
<title>r2_node_9&#45;&gt;r2_node_14</title>
<path fill="none" stroke="black" d="M124.43,-215.7C126.98,-207.87 130.8,-198.44 134.9,-189.73"/>
<polygon fill="black" stroke="black" points="137.93,-191.48 139.29,-180.98 131.68,-188.35 137.93,-191.48"/>
</g>
<!-- r2_node_19 -->
<g id="node7" class="node">
<title>r2_node_19</title>
<ellipse fill="none" stroke="black" cx="376.93" cy="-18" rx="54.93" ry="18"/>
<text text-anchor="middle" x="376.93" y="-12.95" font-family="Times,serif" font-size="14.00">r2_node_19</text>
</g>
<!-- r2_node_9&#45;&gt;r2_node_19 -->
<g id="edge32" class="edge">
<title>r2_node_9&#45;&gt;r2_node_19</title>
<path fill="none" stroke="black" d="M150.86,-218.8C168.87,-209.88 191.67,-196.85 207.93,-180 245.49,-141.1 225.57,-110.1 263.93,-72 280.65,-55.4 303.63,-42.95 324.58,-34.3"/>
<polygon fill="black" stroke="black" points="325.84,-37.56 333.89,-30.67 323.3,-31.04 325.84,-37.56"/>
</g>
<!-- r2_node_13 -->
<g id="node9" class="node">
<title>r2_node_13</title>
<ellipse fill="none" stroke="black" cx="357.93" cy="-162" rx="54.93" ry="18"/>
<text text-anchor="middle" x="357.93" y="-156.95" font-family="Times,serif" font-size="14.00">r2_node_13</text>
</g>
<!-- r2_node_9&#45;&gt;r2_node_13 -->
<g id="edge30" class="edge">
<title>r2_node_9&#45;&gt;r2_node_13</title>
<path fill="none" stroke="black" d="M158.35,-220.89C197.38,-208.69 260.38,-189.9 305.2,-177.06"/>
<polygon fill="black" stroke="black" points="306.07,-180.45 314.72,-174.34 304.15,-173.72 306.07,-180.45"/>
</g>
<!-- r2_node_2 -->
<g id="node11" class="node">
<title>r2_node_2</title>
<ellipse fill="none" stroke="black" cx="486.93" cy="-162" rx="50.33" ry="18"/>
<text text-anchor="middle" x="486.93" y="-156.95" font-family="Times,serif" font-size="14.00">r2_node_2</text>
</g>
<!-- r2_node_9&#45;&gt;r2_node_2 -->
<g id="edge34" class="edge">
<title>r2_node_9&#45;&gt;r2_node_2</title>
<path fill="none" stroke="black" d="M156.38,-220.07C161.87,-218.58 167.52,-217.18 172.93,-216 278.32,-193.02 307.27,-201.68 412.93,-180 419.76,-178.6 426.93,-176.93 434.04,-175.19"/>
<polygon fill="black" stroke="black" points="434.78,-178.61 443.63,-172.79 433.08,-171.82 434.78,-178.61"/>
</g>
<!-- r2_node_20 -->
<g id="node12" class="node">
<title>r2_node_20</title>
<ellipse fill="none" stroke="black" cx="701.93" cy="-162" rx="54.93" ry="18"/>
<text text-anchor="middle" x="701.93" y="-156.95" font-family="Times,serif" font-size="14.00">r2_node_20</text>
</g>
<!-- r2_node_9&#45;&gt;r2_node_20 -->
<g id="edge33" class="edge">
<title>r2_node_9&#45;&gt;r2_node_20</title>
<path fill="none" stroke="black" d="M155.69,-219.98C161.39,-218.47 167.28,-217.08 172.93,-216 332.59,-185.37 375.24,-196.81 536.93,-180 570.21,-176.54 607.46,-172.49 638.21,-169.21"/>
<polygon fill="black" stroke="black" points="638.58,-172.69 648.15,-168.15 637.84,-165.73 638.58,-172.69"/>
</g>
<!-- r2_node_12&#45;&gt;r2_node_7 -->
<g id="edge20" class="edge">
<title>r2_node_12&#45;&gt;r2_node_7</title>
<path fill="none" stroke="black" d="M216.66,-249.53C190.88,-260.88 153.09,-276.66 123.41,-288.48"/>
<polygon fill="black" stroke="black" points="122.29,-285.16 114.28,-292.09 124.87,-291.67 122.29,-285.16"/>
</g>
<!-- r2_node_14&#45;&gt;r2_node_9 -->
<g id="edge5" class="edge">
<title>r2_node_14&#45;&gt;r2_node_9</title>
<path fill="none" stroke="black" d="M151.39,-180.45C148.83,-188.27 145.02,-197.67 140.93,-206.34"/>
<polygon fill="black" stroke="black" points="137.92,-204.55 136.56,-215.06 144.18,-207.69 137.92,-204.55"/>
</g>
<!-- r2_node_8 -->
<g id="node6" class="node">
<title>r2_node_8</title>
<ellipse fill="none" stroke="black" cx="228.93" cy="-18" rx="50.33" ry="18"/>
<text text-anchor="middle" x="228.93" y="-12.95" font-family="Times,serif" font-size="14.00">r2_node_8</text>
</g>
<!-- r2_node_14&#45;&gt;r2_node_8 -->
<g id="edge4" class="edge">
<title>r2_node_14&#45;&gt;r2_node_8</title>
<path fill="none" stroke="black" d="M136.6,-144.45C124.36,-125.68 112.65,-94.73 125.93,-72 136.83,-53.35 156.97,-40.75 176.65,-32.53"/>
<polygon fill="black" stroke="black" points="177.65,-35.9 185.74,-29.06 175.15,-29.36 177.65,-35.9"/>
</g>
<!-- r2_node_8&#45;&gt;r2_node_14 -->
<g id="edge36" class="edge">
<title>r2_node_8&#45;&gt;r2_node_14</title>
<path fill="none" stroke="black" d="M195.21,-31.55C176.64,-39.73 155.27,-52.59 143.93,-72 133.07,-90.6 138.93,-114.7 145.39,-133.13"/>
<polygon fill="black" stroke="black" points="142.05,-134.2 148.82,-142.35 148.61,-131.76 142.05,-134.2"/>
</g>
<!-- r2_node_19&#45;&gt;r2_node_9 -->
<g id="edge6" class="edge">
<title>r2_node_19&#45;&gt;r2_node_9</title>
<path fill="none" stroke="black" d="M344.21,-32.83C324.32,-41.52 299.62,-54.44 281.93,-72 243.57,-110.1 263.49,-141.1 225.93,-180 210.67,-195.81 189.66,-208.25 170.51,-217.1"/>
<polygon fill="black" stroke="black" points="169.26,-213.83 161.5,-221.04 172.07,-220.24 169.26,-213.83"/>
</g>
<!-- r2_node_18 -->
<g id="node8" class="node">
<title>r2_node_18</title>
<ellipse fill="none" stroke="black" cx="517.93" cy="-18" rx="54.93" ry="18"/>
<text text-anchor="middle" x="517.93" y="-12.95" font-family="Times,serif" font-size="14.00">r2_node_18</text>
</g>
<!-- r2_node_18&#45;&gt;r2_node_13 -->
<g id="edge7" class="edge">
<title>r2_node_18&#45;&gt;r2_node_13</title>
<path fill="none" stroke="black" d="M475.46,-29.74C410.34,-44.97 293.67,-71.08 292.93,-72 282.95,-84.5 285.62,-93.77 292.93,-108 299.59,-120.96 311.05,-131.46 322.57,-139.59"/>
<polygon fill="black" stroke="black" points="320.6,-142.48 330.89,-145.03 324.44,-136.63 320.6,-142.48"/>
</g>
<!-- r2_node_13&#45;&gt;r2_node_9 -->
<g id="edge22" class="edge">
<title>r2_node_13&#45;&gt;r2_node_9</title>
<path fill="none" stroke="black" d="M320.98,-175.6C281.25,-187.98 218.03,-206.83 173.68,-219.51"/>
<polygon fill="black" stroke="black" points="172.95,-216.08 164.29,-222.18 174.86,-222.81 172.95,-216.08"/>
</g>
<!-- r2_node_13&#45;&gt;r2_node_18 -->
<g id="edge24" class="edge">
<title>r2_node_13&#45;&gt;r2_node_18</title>
<path fill="none" stroke="black" d="M320.8,-148.4C303.26,-139.65 284.32,-126.27 274.93,-108 267.62,-93.77 264.95,-84.5 274.93,-72 275.66,-71.09 388.78,-45.76 460.49,-30.45"/>
<polygon fill="black" stroke="black" points="461.09,-33.91 470.14,-28.4 459.63,-27.06 461.09,-33.91"/>
</g>
<!-- r2_node_4 -->
<g id="node17" class="node">
<title>r2_node_4</title>
<ellipse fill="none" stroke="black" cx="342.93" cy="-90" rx="50.33" ry="18"/>
<text text-anchor="middle" x="342.93" y="-84.95" font-family="Times,serif" font-size="14.00">r2_node_4</text>
</g>
<!-- r2_node_13&#45;&gt;r2_node_4 -->
<g id="edge21" class="edge">
<title>r2_node_13&#45;&gt;r2_node_4</title>
<path fill="none" stroke="black" d="M348.42,-144.05C346.06,-136.68 343.91,-127.84 342.4,-119.51"/>
<polygon fill="black" stroke="black" points="345.88,-119.15 340.95,-109.77 338.96,-120.18 345.88,-119.15"/>
</g>
<!-- r2_node_17 -->
<g id="node19" class="node">
<title>r2_node_17</title>
<ellipse fill="none" stroke="black" cx="465.93" cy="-90" rx="54.93" ry="18"/>
<text text-anchor="middle" x="465.93" y="-84.95" font-family="Times,serif" font-size="14.00">r2_node_17</text>
</g>
<!-- r2_node_13&#45;&gt;r2_node_17 -->
<g id="edge23" class="edge">
<title>r2_node_13&#45;&gt;r2_node_17</title>
<path fill="none" stroke="black" d="M377.18,-144.76C391.29,-134.91 410.71,-122.23 427.84,-111.66"/>
<polygon fill="black" stroke="black" points="429.59,-114.69 436.32,-106.5 425.95,-108.71 429.59,-114.69"/>
</g>
<!-- r2_node_16 -->
<g id="node10" class="node">
<title>r2_node_16</title>
<ellipse fill="none" stroke="black" cx="593.93" cy="-90" rx="54.93" ry="18"/>
<text text-anchor="middle" x="593.93" y="-84.95" font-family="Times,serif" font-size="14.00">r2_node_16</text>
</g>
<!-- r2_node_16&#45;&gt;r2_node_2 -->
<g id="edge9" class="edge">
<title>r2_node_16&#45;&gt;r2_node_2</title>
<path fill="none" stroke="black" d="M574.86,-107.28C560.74,-117.24 541.25,-130.08 524.15,-140.7"/>
<polygon fill="black" stroke="black" points="522.41,-137.67 515.71,-145.87 526.06,-143.64 522.41,-137.67"/>
</g>
<!-- r2_node_2&#45;&gt;r2_node_9 -->
<g id="edge15" class="edge">
<title>r2_node_2&#45;&gt;r2_node_9</title>
<path fill="none" stroke="black" d="M451.57,-175.25C444.76,-176.97 437.68,-178.62 430.93,-180 325.27,-201.68 296.32,-193.02 190.93,-216 185.54,-217.18 179.91,-218.57 174.29,-220.05"/>
<polygon fill="black" stroke="black" points="173.76,-216.57 165.02,-222.57 175.59,-223.33 173.76,-216.57"/>
</g>
<!-- r2_node_2&#45;&gt;r2_node_16 -->
<g id="edge16" class="edge">
<title>r2_node_2&#45;&gt;r2_node_16</title>
<path fill="none" stroke="black" d="M505.45,-145.12C519.37,-135.27 538.71,-122.51 555.82,-111.86"/>
<polygon fill="black" stroke="black" points="557.6,-114.87 564.29,-106.66 553.93,-108.91 557.6,-114.87"/>
</g>
<!-- r2_node_1 -->
<g id="node15" class="node">
<title>r2_node_1</title>
<ellipse fill="none" stroke="black" cx="646.93" cy="-18" rx="50.33" ry="18"/>
<text text-anchor="middle" x="646.93" y="-12.95" font-family="Times,serif" font-size="14.00">r2_node_1</text>
</g>
<!-- r2_node_2&#45;&gt;r2_node_1 -->
<g id="edge13" class="edge">
<title>r2_node_2&#45;&gt;r2_node_1</title>
<path fill="none" stroke="black" d="M537.02,-159.79C574.4,-155.59 623.12,-143.03 648.93,-108 661.71,-90.67 657.47,-66.09 652.29,-47.15"/>
<polygon fill="black" stroke="black" points="655.68,-46.27 649.51,-37.65 648.96,-48.24 655.68,-46.27"/>
</g>
<!-- r2_node_5 -->
<g id="node16" class="node">
<title>r2_node_5</title>
<ellipse fill="none" stroke="black" cx="772.93" cy="-90" rx="50.33" ry="18"/>
<text text-anchor="middle" x="772.93" y="-84.95" font-family="Times,serif" font-size="14.00">r2_node_5</text>
</g>
<!-- r2_node_2&#45;&gt;r2_node_5 -->
<g id="edge14" class="edge">
<title>r2_node_2&#45;&gt;r2_node_5</title>
<path fill="none" stroke="black" d="M526.05,-150.38C568.89,-139.91 639.23,-123.31 699.93,-108 706.22,-106.42 712.84,-104.7 719.44,-103"/>
<polygon fill="black" stroke="black" points="720.19,-106.42 729,-100.54 718.44,-99.64 720.19,-106.42"/>
</g>
<!-- r2_node_20&#45;&gt;r2_node_9 -->
<g id="edge10" class="edge">
<title>r2_node_20&#45;&gt;r2_node_9</title>
<path fill="none" stroke="black" d="M651.52,-169.52C623.16,-172.74 587.18,-176.65 554.93,-180 393.24,-196.81 350.59,-185.37 190.93,-216 185.45,-217.05 179.74,-218.39 174.04,-219.84"/>
<polygon fill="black" stroke="black" points="173.4,-216.39 164.64,-222.36 175.21,-223.15 173.4,-216.39"/>
</g>
<!-- r2_node_11 -->
<g id="node13" class="node">
<title>r2_node_11</title>
<ellipse fill="none" stroke="black" cx="895.93" cy="-90" rx="54.93" ry="18"/>
<text text-anchor="middle" x="895.93" y="-84.95" font-family="Times,serif" font-size="14.00">r2_node_11</text>
</g>
<!-- r2_node_20&#45;&gt;r2_node_11 -->
<g id="edge11" class="edge">
<title>r2_node_20&#45;&gt;r2_node_11</title>
<path fill="none" stroke="black" d="M734.76,-147.17C765.5,-135.51 811.67,-118.82 846.78,-106.67"/>
<polygon fill="black" stroke="black" points="847.54,-110.11 855.86,-103.54 845.27,-103.49 847.54,-110.11"/>
</g>
<!-- r2_node_15 -->
<g id="node14" class="node">
<title>r2_node_15</title>
<ellipse fill="none" stroke="black" cx="1023.93" cy="-90" rx="54.93" ry="18"/>
<text text-anchor="middle" x="1023.93" y="-84.95" font-family="Times,serif" font-size="14.00">r2_node_15</text>
</g>
<!-- r2_node_20&#45;&gt;r2_node_15 -->
<g id="edge12" class="edge">
<title>r2_node_20&#45;&gt;r2_node_15</title>
<path fill="none" stroke="black" d="M746.72,-151.3C796.74,-141.27 879.72,-124.76 950.93,-108 956.67,-106.65 962.67,-105.16 968.68,-103.64"/>
<polygon fill="black" stroke="black" points="969.15,-107.13 977.97,-101.27 967.42,-100.35 969.15,-107.13"/>
</g>
<!-- r2_node_11&#45;&gt;r2_node_20 -->
<g id="edge26" class="edge">
<title>r2_node_11&#45;&gt;r2_node_20</title>
<path fill="none" stroke="black" d="M863.2,-104.8C832.45,-116.46 786.2,-133.18 751.05,-145.35"/>
<polygon fill="black" stroke="black" points="750.27,-141.91 741.96,-148.47 752.55,-148.53 750.27,-141.91"/>
</g>
<!-- r2_node_6 -->
<g id="node20" class="node">
<title>r2_node_6</title>
<ellipse fill="none" stroke="black" cx="891.93" cy="-18" rx="50.33" ry="18"/>
<text text-anchor="middle" x="891.93" y="-12.95" font-family="Times,serif" font-size="14.00">r2_node_6</text>
</g>
<!-- r2_node_11&#45;&gt;r2_node_6 -->
<g id="edge27" class="edge">
<title>r2_node_11&#45;&gt;r2_node_6</title>
<path fill="none" stroke="black" d="M889.03,-71.7C887.86,-64.41 887.12,-55.73 886.92,-47.54"/>
<polygon fill="black" stroke="black" points="890.42,-47.65 887,-37.62 883.42,-47.59 890.42,-47.65"/>
</g>
<!-- r2_node_15&#45;&gt;r2_node_20 -->
<g id="edge29" class="edge">
<title>r2_node_15&#45;&gt;r2_node_20</title>
<path fill="none" stroke="black" d="M986.79,-103.57C980.85,-105.12 974.75,-106.63 968.93,-108 898.29,-124.62 816.08,-141.01 761.65,-151.06"/>
<polygon fill="black" stroke="black" points="761.16,-147.59 751.96,-152.83 762.42,-154.47 761.16,-147.59"/>
</g>
<!-- r2_node_1&#45;&gt;r2_node_2 -->
<g id="edge25" class="edge">
<title>r2_node_1&#45;&gt;r2_node_2</title>
<path fill="none" stroke="black" d="M661.7,-35.51C672.75,-54.82 682.54,-86.82 666.93,-108 640.39,-144.02 589.62,-156.29 548.67,-160.13"/>
<polygon fill="black" stroke="black" points="548.61,-156.62 538.91,-160.88 549.15,-163.6 548.61,-156.62"/>
</g>
<!-- r2_node_5&#45;&gt;r2_node_2 -->
<g id="edge18" class="edge">
<title>r2_node_5&#45;&gt;r2_node_2</title>
<path fill="none" stroke="black" d="M737.12,-103.03C730.75,-104.73 724.18,-106.43 717.93,-108 657.95,-123.13 588.56,-139.51 541.5,-150"/>
<polygon fill="black" stroke="black" points="540.82,-146.57 531.82,-152.14 542.34,-153.4 540.82,-146.57"/>
</g>
<!-- r2_node_3 -->
<g id="node18" class="node">
<title>r2_node_3</title>
<ellipse fill="none" stroke="black" cx="768.93" cy="-18" rx="50.33" ry="18"/>
<text text-anchor="middle" x="768.93" y="-12.95" font-family="Times,serif" font-size="14.00">r2_node_3</text>
</g>
<!-- r2_node_5&#45;&gt;r2_node_3 -->
<g id="edge19" class="edge">
<title>r2_node_5&#45;&gt;r2_node_3</title>
<path fill="none" stroke="black" d="M766.03,-71.7C764.86,-64.41 764.12,-55.73 763.92,-47.54"/>
<polygon fill="black" stroke="black" points="767.42,-47.65 764,-37.62 760.42,-47.59 767.42,-47.65"/>
</g>
<!-- r2_node_4&#45;&gt;r2_node_13 -->
<g id="edge17" class="edge">
<title>r2_node_4&#45;&gt;r2_node_13</title>
<path fill="none" stroke="black" d="M352.49,-108.1C354.84,-115.45 356.97,-124.24 358.48,-132.53"/>
<polygon fill="black" stroke="black" points="354.98,-132.82 359.92,-142.2 361.91,-131.79 354.98,-132.82"/>
</g>
<!-- r2_node_3&#45;&gt;r2_node_5 -->
<g id="edge38" class="edge">
<title>r2_node_3&#45;&gt;r2_node_5</title>
<path fill="none" stroke="black" d="M775.81,-36.1C776.98,-43.37 777.73,-52.04 777.94,-60.24"/>
<polygon fill="black" stroke="black" points="774.44,-60.16 777.87,-70.18 781.44,-60.21 774.44,-60.16"/>
</g>
<!-- r2_node_17&#45;&gt;r2_node_13 -->
<g id="edge37" class="edge">
<title>r2_node_17&#45;&gt;r2_node_13</title>
<path fill="none" stroke="black" d="M446.61,-107.29C432.56,-117.11 413.26,-129.71 396.2,-140.23"/>
<polygon fill="black" stroke="black" points="394.49,-137.18 387.77,-145.37 398.13,-143.16 394.49,-137.18"/>
</g>
<!-- r2_node_6&#45;&gt;r2_node_11 -->
<g id="edge28" class="edge">
<title>r2_node_6&#45;&gt;r2_node_11</title>
<path fill="none" stroke="black" d="M898.81,-36.1C899.98,-43.37 900.73,-52.04 900.94,-60.24"/>
<polygon fill="black" stroke="black" points="897.44,-60.16 900.87,-70.18 904.44,-60.21 897.44,-60.16"/>
</g>
</g>
</svg>
