<?xml version="1.0" encoding="UTF-8" standalone="no"?>
<!DOCTYPE svg PUBLIC "-//W3C//DTD SVG 1.1//EN"
 "http://www.w3.org/Graphics/SVG/1.1/DTD/svg11.dtd">
<!-- Generated by graphviz version 12.2.1 (20241206.2353)
 -->
<!-- Pages: 1 -->
<svg width="1177pt" height="332pt"
 viewBox="0.00 0.00 1176.50 332.00" xmlns="http://www.w3.org/2000/svg" xmlns:xlink="http://www.w3.org/1999/xlink">
<g id="graph0" class="graph" transform="scale(1 1) rotate(0) translate(4 328)">
<polygon fill="white" stroke="none" points="-4,4 -4,-328 1172.5,-328 1172.5,4 -4,4"/>
<!-- r1_node_11 -->
<g id="node1" class="node">
<title>r1_node_11</title>
<ellipse fill="none" stroke="black" cx="512.93" cy="-306" rx="54.93" ry="18"/>
<text text-anchor="middle" x="512.93" y="-300.95" font-family="Times,serif" font-size="14.00">r1_node_11</text>
</g>
<!-- r1_node_6 -->
<g id="node2" class="node">
<title>r1_node_6</title>
<ellipse fill="none" stroke="black" cx="412.93" cy="-234" rx="50.33" ry="18"/>
<text text-anchor="middle" x="412.93" y="-228.95" font-family="Times,serif" font-size="14.00">r1_node_6</text>
</g>
<!-- r1_node_11&#45;&gt;r1_node_6 -->
<g id="edge1" class="edge">
<title>r1_node_11&#45;&gt;r1_node_6</title>
<path fill="none" stroke="black" d="M485.82,-289.98C471.3,-280.62 453.59,-268.4 439.21,-257.85"/>
<polygon fill="black" stroke="black" points="441.62,-255.29 431.51,-252.12 437.44,-260.9 441.62,-255.29"/>
</g>
<!-- r1_node_8 -->
<g id="node3" class="node">
<title>r1_node_8</title>
<ellipse fill="none" stroke="black" cx="751.93" cy="-234" rx="50.33" ry="18"/>
<text text-anchor="middle" x="751.93" y="-228.95" font-family="Times,serif" font-size="14.00">r1_node_8</text>
</g>
<!-- r1_node_11&#45;&gt;r1_node_8 -->
<g id="edge2" class="edge">
<title>r1_node_11&#45;&gt;r1_node_8</title>
<path fill="none" stroke="black" d="M550.35,-292.49C590.93,-280.05 655.77,-261.05 700.97,-248.34"/>
<polygon fill="black" stroke="black" points="701.87,-251.72 710.55,-245.65 699.98,-244.98 701.87,-251.72"/>
</g>
<!-- r1_node_4 -->
<g id="node4" class="node">
<title>r1_node_4</title>
<ellipse fill="none" stroke="black" cx="239.93" cy="-234" rx="50.33" ry="18"/>
<text text-anchor="middle" x="239.93" y="-228.95" font-family="Times,serif" font-size="14.00">r1_node_4</text>
</g>
<!-- r1_node_11&#45;&gt;r1_node_4 -->
<g id="edge3" class="edge">
<title>r1_node_11&#45;&gt;r1_node_4</title>
<path fill="none" stroke="black" d="M468.61,-294.9C419.3,-282.82 340.06,-262.55 288.94,-248.98"/>
<polygon fill="black" stroke="black" points="289.88,-245.61 279.32,-246.41 288.08,-252.37 289.88,-245.61"/>
</g>
<!-- r1_node_18 -->
<g id="node5" class="node">
<title>r1_node_18</title>
<ellipse fill="none" stroke="black" cx="683.93" cy="-18" rx="54.93" ry="18"/>
<text text-anchor="middle" x="683.93" y="-12.95" font-family="Times,serif" font-size="14.00">r1_node_18</text>
</g>
<!-- r1_node_11&#45;&gt;r1_node_18 -->
<g id="edge4" class="edge">
<title>r1_node_11&#45;&gt;r1_node_18</title>
<path fill="none" stroke="black" d="M567.56,-302.87C707.88,-296.12 1075.11,-270.03 1147.93,-180 1256.51,-45.77 903.08,-23.16 750.54,-19.57"/>
<polygon fill="black" stroke="black" points="750.63,-16.07 740.56,-19.36 750.48,-23.07 750.63,-16.07"/>
</g>
<!-- r1_node_19 -->
<g id="node6" class="node">
<title>r1_node_19</title>
<ellipse fill="none" stroke="black" cx="200.93" cy="-90" rx="54.93" ry="18"/>
<text text-anchor="middle" x="200.93" y="-84.95" font-family="Times,serif" font-size="14.00">r1_node_19</text>
</g>
<!-- r1_node_11&#45;&gt;r1_node_19 -->
<g id="edge5" class="edge">
<title>r1_node_11&#45;&gt;r1_node_19</title>
<path fill="none" stroke="black" d="M471.66,-293.71C431.49,-282.29 373.7,-264.57 353.93,-252 296.38,-215.41 245.32,-152.53 219.25,-117.15"/>
<polygon fill="black" stroke="black" points="222.17,-115.21 213.47,-109.17 216.51,-119.32 222.17,-115.21"/>
</g>
<!-- r1_node_6&#45;&gt;r1_node_11 -->
<g id="edge19" class="edge">
<title>r1_node_6&#45;&gt;r1_node_11</title>
<path fill="none" stroke="black" d="M439.58,-249.72C454.15,-259.09 472.03,-271.42 486.55,-282.07"/>
<polygon fill="black" stroke="black" points="484.22,-284.69 494.33,-287.86 488.4,-279.08 484.22,-284.69"/>
</g>
<!-- r1_node_3 -->
<g id="node10" class="node">
<title>r1_node_3</title>
<ellipse fill="none" stroke="black" cx="747.93" cy="-90" rx="50.33" ry="18"/>
<text text-anchor="middle" x="747.93" y="-84.95" font-family="Times,serif" font-size="14.00">r1_node_3</text>
</g>
<!-- r1_node_6&#45;&gt;r1_node_3 -->
<g id="edge18" class="edge">
<title>r1_node_6&#45;&gt;r1_node_3</title>
<path fill="none" stroke="black" d="M460.88,-228.22C567,-217.96 812.86,-193.69 824.93,-180 835.52,-168 832.73,-157.97 824.93,-144 816.75,-129.34 802.65,-118.23 788.68,-110.07"/>
<polygon fill="black" stroke="black" points="790.42,-107.02 779.96,-105.35 787.09,-113.18 790.42,-107.02"/>
</g>
<!-- r1_node_15 -->
<g id="node12" class="node">
<title>r1_node_15</title>
<ellipse fill="none" stroke="black" cx="513.93" cy="-162" rx="54.93" ry="18"/>
<text text-anchor="middle" x="513.93" y="-156.95" font-family="Times,serif" font-size="14.00">r1_node_15</text>
</g>
<!-- r1_node_6&#45;&gt;r1_node_15 -->
<g id="edge16" class="edge">
<title>r1_node_6&#45;&gt;r1_node_15</title>
<path fill="none" stroke="black" d="M430.56,-216.76C443.47,-207.07 461.25,-194.64 477.13,-184.17"/>
<polygon fill="black" stroke="black" points="478.96,-187.16 485.44,-178.78 475.15,-181.28 478.96,-187.16"/>
</g>
<!-- r1_node_5 -->
<g id="node13" class="node">
<title>r1_node_5</title>
<ellipse fill="none" stroke="black" cx="390.93" cy="-162" rx="50.33" ry="18"/>
<text text-anchor="middle" x="390.93" y="-156.95" font-family="Times,serif" font-size="14.00">r1_node_5</text>
</g>
<!-- r1_node_6&#45;&gt;r1_node_5 -->
<g id="edge17" class="edge">
<title>r1_node_6&#45;&gt;r1_node_5</title>
<path fill="none" stroke="black" d="M401.73,-216.05C398.6,-208.6 395.53,-199.64 393.17,-191.22"/>
<polygon fill="black" stroke="black" points="396.62,-190.61 390.82,-181.74 389.83,-192.29 396.62,-190.61"/>
</g>
<!-- r1_node_13 -->
<g id="node14" class="node">
<title>r1_node_13</title>
<ellipse fill="none" stroke="black" cx="769.93" cy="-162" rx="54.93" ry="18"/>
<text text-anchor="middle" x="769.93" y="-156.95" font-family="Times,serif" font-size="14.00">r1_node_13</text>
</g>
<!-- r1_node_6&#45;&gt;r1_node_13 -->
<g id="edge20" class="edge">
<title>r1_node_6&#45;&gt;r1_node_13</title>
<path fill="none" stroke="black" d="M457.24,-225.09C513.36,-215.66 612.55,-198.81 696.93,-180 702.68,-178.72 708.7,-177.27 714.71,-175.77"/>
<polygon fill="black" stroke="black" points="715.17,-179.26 724.01,-173.41 713.45,-172.48 715.17,-179.26"/>
</g>
<!-- r1_node_12 -->
<g id="node15" class="node">
<title>r1_node_12</title>
<ellipse fill="none" stroke="black" cx="641.93" cy="-162" rx="54.93" ry="18"/>
<text text-anchor="middle" x="641.93" y="-156.95" font-family="Times,serif" font-size="14.00">r1_node_12</text>
</g>
<!-- r1_node_6&#45;&gt;r1_node_12 -->
<g id="edge21" class="edge">
<title>r1_node_6&#45;&gt;r1_node_12</title>
<path fill="none" stroke="black" d="M448.06,-220.65C485.89,-208.51 546.3,-190.02 589.69,-177.27"/>
<polygon fill="black" stroke="black" points="590.54,-180.67 599.16,-174.5 588.58,-173.95 590.54,-180.67"/>
</g>
<!-- r1_node_8&#45;&gt;r1_node_11 -->
<g id="edge28" class="edge">
<title>r1_node_8&#45;&gt;r1_node_11</title>
<path fill="none" stroke="black" d="M716,-247.06C676.13,-259.3 611.6,-278.22 565.95,-291.09"/>
<polygon fill="black" stroke="black" points="565.21,-287.66 556.52,-293.73 567.1,-294.4 565.21,-287.66"/>
</g>
<!-- r1_node_9 -->
<g id="node7" class="node">
<title>r1_node_9</title>
<ellipse fill="none" stroke="black" cx="1062.93" cy="-162" rx="50.33" ry="18"/>
<text text-anchor="middle" x="1062.93" y="-156.95" font-family="Times,serif" font-size="14.00">r1_node_9</text>
</g>
<!-- r1_node_8&#45;&gt;r1_node_9 -->
<g id="edge27" class="edge">
<title>r1_node_8&#45;&gt;r1_node_9</title>
<path fill="none" stroke="black" d="M793.16,-223.42C840.78,-213.29 921.06,-196.53 989.93,-180 996.31,-178.47 1003.02,-176.78 1009.7,-175.07"/>
<polygon fill="black" stroke="black" points="1010.56,-178.47 1019.38,-172.59 1008.82,-171.69 1010.56,-178.47"/>
</g>
<!-- r1_node_7 -->
<g id="node8" class="node">
<title>r1_node_7</title>
<ellipse fill="none" stroke="black" cx="1042.93" cy="-90" rx="50.33" ry="18"/>
<text text-anchor="middle" x="1042.93" y="-84.95" font-family="Times,serif" font-size="14.00">r1_node_7</text>
</g>
<!-- r1_node_8&#45;&gt;r1_node_7 -->
<g id="edge31" class="edge">
<title>r1_node_8&#45;&gt;r1_node_7</title>
<path fill="none" stroke="black" d="M800.72,-229.13C894.61,-221.58 1092.53,-203.53 1112.93,-180 1123.42,-167.91 1120.46,-158.12 1112.93,-144 1105.56,-130.18 1092.81,-119.33 1080.14,-111.14"/>
<polygon fill="black" stroke="black" points="1082.23,-108.31 1071.85,-106.17 1078.63,-114.31 1082.23,-108.31"/>
</g>
<!-- r1_node_20 -->
<g id="node9" class="node">
<title>r1_node_20</title>
<ellipse fill="none" stroke="black" cx="491.93" cy="-18" rx="54.93" ry="18"/>
<text text-anchor="middle" x="491.93" y="-12.95" font-family="Times,serif" font-size="14.00">r1_node_20</text>
</g>
<!-- r1_node_8&#45;&gt;r1_node_20 -->
<g id="edge30" class="edge">
<title>r1_node_8&#45;&gt;r1_node_20</title>
<path fill="none" stroke="black" d="M802.58,-232.47C842.4,-229.04 895.55,-217.15 922.93,-180 932.43,-167.12 929.44,-158.62 922.93,-144 922.93,-144 842.93,-72 842.93,-72 829.97,-65.88 650.31,-40.64 553.2,-27.32"/>
<polygon fill="black" stroke="black" points="553.95,-23.89 543.57,-26 553,-30.83 553.95,-23.89"/>
</g>
<!-- r1_node_17 -->
<g id="node16" class="node">
<title>r1_node_17</title>
<ellipse fill="none" stroke="black" cx="282.93" cy="-18" rx="54.93" ry="18"/>
<text text-anchor="middle" x="282.93" y="-12.95" font-family="Times,serif" font-size="14.00">r1_node_17</text>
</g>
<!-- r1_node_8&#45;&gt;r1_node_17 -->
<g id="edge29" class="edge">
<title>r1_node_8&#45;&gt;r1_node_17</title>
<path fill="none" stroke="black" d="M794.23,-223.87C817.95,-216.35 845.57,-203.04 859.93,-180 868.4,-166.42 864.93,-159.2 859.93,-144 853.74,-125.12 824.22,-81.79 806.93,-72 733.33,-30.3 512.06,-44.93 427.93,-36 400.83,-33.12 370.91,-29.67 345.33,-26.62"/>
<polygon fill="black" stroke="black" points="345.75,-23.15 335.41,-25.43 344.92,-30.1 345.75,-23.15"/>
</g>
<!-- r1_node_4&#45;&gt;r1_node_11 -->
<g id="edge45" class="edge">
<title>r1_node_4&#45;&gt;r1_node_11</title>
<path fill="none" stroke="black" d="M281.45,-244.42C329.83,-256.23 409.55,-276.6 461.71,-290.43"/>
<polygon fill="black" stroke="black" points="460.7,-293.78 471.26,-292.97 462.5,-287.02 460.7,-293.78"/>
</g>
<!-- r1_node_4&#45;&gt;r1_node_19 -->
<g id="edge46" class="edge">
<title>r1_node_4&#45;&gt;r1_node_19</title>
<path fill="none" stroke="black" d="M235.15,-215.59C228.54,-191.5 216.52,-147.75 208.63,-119.03"/>
<polygon fill="black" stroke="black" points="212.06,-118.29 206.03,-109.57 205.31,-120.14 212.06,-118.29"/>
</g>
<!-- r1_node_9&#45;&gt;r1_node_8 -->
<g id="edge8" class="edge">
<title>r1_node_9&#45;&gt;r1_node_8</title>
<path fill="none" stroke="black" d="M1027.49,-175.08C1021.01,-176.78 1014.31,-178.47 1007.93,-180 939.4,-196.45 859.57,-213.13 807.41,-223.27"/>
<polygon fill="black" stroke="black" points="807.03,-219.78 797.88,-225.11 808.36,-226.65 807.03,-219.78"/>
</g>
<!-- r1_node_9&#45;&gt;r1_node_7 -->
<g id="edge6" class="edge">
<title>r1_node_9&#45;&gt;r1_node_7</title>
<path fill="none" stroke="black" d="M1052.21,-144.05C1049.33,-136.68 1046.54,-127.84 1044.43,-119.51"/>
<polygon fill="black" stroke="black" points="1047.85,-118.77 1042.28,-109.75 1041.02,-120.27 1047.85,-118.77"/>
</g>
<!-- r1_node_9&#45;&gt;r1_node_20 -->
<g id="edge7" class="edge">
<title>r1_node_9&#45;&gt;r1_node_20</title>
<path fill="none" stroke="black" d="M1038.66,-145.79C1005.04,-125.49 941.77,-90 882.93,-72 879.01,-70.8 662.22,-41.75 553.19,-27.18"/>
<polygon fill="black" stroke="black" points="553.91,-23.74 543.53,-25.89 552.98,-30.68 553.91,-23.74"/>
</g>
<!-- r1_node_7&#45;&gt;r1_node_8 -->
<g id="edge9" class="edge">
<title>r1_node_7&#45;&gt;r1_node_8</title>
<path fill="none" stroke="black" d="M1080.27,-102.33C1099.36,-110.87 1120.52,-124.47 1130.93,-144 1138.46,-158.12 1141.42,-167.91 1130.93,-180 1110.62,-203.43 914.39,-221.42 812.5,-229.03"/>
<polygon fill="black" stroke="black" points="812.39,-225.53 802.67,-229.75 812.9,-232.51 812.39,-225.53"/>
</g>
<!-- r1_node_7&#45;&gt;r1_node_18 -->
<g id="edge11" class="edge">
<title>r1_node_7&#45;&gt;r1_node_18</title>
<path fill="none" stroke="black" d="M1000.3,-80.16C987.35,-77.51 973.06,-74.61 959.93,-72 884.71,-57.07 797.82,-40.5 741.94,-29.92"/>
<polygon fill="black" stroke="black" points="742.81,-26.53 732.34,-28.11 741.51,-33.41 742.81,-26.53"/>
</g>
<!-- r1_node_7&#45;&gt;r1_node_9 -->
<g id="edge10" class="edge">
<title>r1_node_7&#45;&gt;r1_node_9</title>
<path fill="none" stroke="black" d="M1053.53,-107.62C1056.48,-115.1 1059.33,-124.14 1061.47,-132.64"/>
<polygon fill="black" stroke="black" points="1058.01,-133.2 1063.58,-142.22 1064.85,-131.7 1058.01,-133.2"/>
</g>
<!-- r1_node_3&#45;&gt;r1_node_6 -->
<g id="edge13" class="edge">
<title>r1_node_3&#45;&gt;r1_node_6</title>
<path fill="none" stroke="black" d="M787.35,-101.47C808.11,-109.72 831.39,-123.33 842.93,-144 850.73,-157.97 853.52,-168 842.93,-180 830.95,-193.59 588.73,-217.59 473.15,-227.98"/>
<polygon fill="black" stroke="black" points="472.86,-224.49 463.21,-228.87 473.48,-231.46 472.86,-224.49"/>
</g>
<!-- r1_node_3&#45;&gt;r1_node_18 -->
<g id="edge15" class="edge">
<title>r1_node_3&#45;&gt;r1_node_18</title>
<path fill="none" stroke="black" d="M732.77,-72.41C724.96,-63.87 715.27,-53.28 706.6,-43.79"/>
<polygon fill="black" stroke="black" points="709.34,-41.61 700.01,-36.59 704.18,-46.33 709.34,-41.61"/>
</g>
<!-- r1_node_3&#45;&gt;r1_node_20 -->
<g id="edge12" class="edge">
<title>r1_node_3&#45;&gt;r1_node_20</title>
<path fill="none" stroke="black" d="M708.77,-78.29C664.72,-66.25 592.97,-46.63 544.17,-33.28"/>
<polygon fill="black" stroke="black" points="545.24,-29.95 534.67,-30.69 543.39,-36.7 545.24,-29.95"/>
</g>
<!-- r1_node_16 -->
<g id="node11" class="node">
<title>r1_node_16</title>
<ellipse fill="none" stroke="black" cx="54.93" cy="-18" rx="54.93" ry="18"/>
<text text-anchor="middle" x="54.93" y="-12.95" font-family="Times,serif" font-size="14.00">r1_node_16</text>
</g>
<!-- r1_node_3&#45;&gt;r1_node_16 -->
<g id="edge14" class="edge">
<title>r1_node_3&#45;&gt;r1_node_16</title>
<path fill="none" stroke="black" d="M702.68,-81.67C681.53,-78.41 655.99,-74.7 632.93,-72 449.5,-50.49 402.8,-53.52 218.93,-36 185.58,-32.82 148.44,-29 117.95,-25.78"/>
<polygon fill="black" stroke="black" points="118.43,-22.31 108.12,-24.74 117.7,-29.27 118.43,-22.31"/>
</g>
<!-- r1_node_15&#45;&gt;r1_node_6 -->
<g id="edge39" class="edge">
<title>r1_node_15&#45;&gt;r1_node_6</title>
<path fill="none" stroke="black" d="M496.13,-179.37C483.12,-189.14 465.23,-201.63 449.31,-212.11"/>
<polygon fill="black" stroke="black" points="447.48,-209.13 440.99,-217.5 451.29,-215 447.48,-209.13"/>
</g>
<!-- r1_node_15&#45;&gt;r1_node_19 -->
<g id="edge40" class="edge">
<title>r1_node_15&#45;&gt;r1_node_19</title>
<path fill="none" stroke="black" d="M472.7,-149.72C465.14,-147.75 457.31,-145.76 449.93,-144 384.39,-128.33 308.6,-112.53 258.01,-102.31"/>
<polygon fill="black" stroke="black" points="258.96,-98.93 248.47,-100.38 257.58,-105.79 258.96,-98.93"/>
</g>
<!-- r1_node_15&#45;&gt;r1_node_17 -->
<g id="edge41" class="edge">
<title>r1_node_15&#45;&gt;r1_node_17</title>
<path fill="none" stroke="black" d="M488.77,-145.53C447.38,-120.09 364.81,-69.33 317.81,-40.44"/>
<polygon fill="black" stroke="black" points="319.71,-37.5 309.35,-35.24 316.04,-43.46 319.71,-37.5"/>
</g>
<!-- r1_node_5&#45;&gt;r1_node_6 -->
<g id="edge37" class="edge">
<title>r1_node_5&#45;&gt;r1_node_6</title>
<path fill="none" stroke="black" d="M402,-179.62C405.17,-187.1 408.27,-196.14 410.66,-204.64"/>
<polygon fill="black" stroke="black" points="407.24,-205.37 413.05,-214.23 414.03,-203.68 407.24,-205.37"/>
</g>
<!-- r1_node_5&#45;&gt;r1_node_19 -->
<g id="edge38" class="edge">
<title>r1_node_5&#45;&gt;r1_node_19</title>
<path fill="none" stroke="black" d="M356.97,-148.49C326.34,-137.2 281.03,-120.51 247.12,-108.02"/>
<polygon fill="black" stroke="black" points="248.56,-104.82 237.96,-104.64 246.14,-111.38 248.56,-104.82"/>
</g>
<!-- r1_node_13&#45;&gt;r1_node_6 -->
<g id="edge32" class="edge">
<title>r1_node_13&#45;&gt;r1_node_6</title>
<path fill="none" stroke="black" d="M732.82,-175.7C726.87,-177.23 720.77,-178.7 714.93,-180 630.8,-198.75 531.95,-215.56 470.77,-225"/>
<polygon fill="black" stroke="black" points="470.28,-221.54 460.92,-226.51 471.34,-228.46 470.28,-221.54"/>
</g>
<!-- r1_node_13&#45;&gt;r1_node_17 -->
<g id="edge33" class="edge">
<title>r1_node_13&#45;&gt;r1_node_17</title>
<path fill="none" stroke="black" d="M746.09,-145.42C707.26,-120.06 634.49,-72.59 632.93,-72 606.57,-61.98 438.01,-39.07 344.77,-26.92"/>
<polygon fill="black" stroke="black" points="345.38,-23.47 335.01,-25.65 344.47,-30.41 345.38,-23.47"/>
</g>
<!-- r1_node_12&#45;&gt;r1_node_6 -->
<g id="edge25" class="edge">
<title>r1_node_12&#45;&gt;r1_node_6</title>
<path fill="none" stroke="black" d="M605.47,-175.78C566.99,-188.1 506.27,-206.67 463.26,-219.29"/>
<polygon fill="black" stroke="black" points="462.53,-215.86 453.91,-222.02 464.49,-222.58 462.53,-215.86"/>
</g>
<!-- r1_node_12&#45;&gt;r1_node_17 -->
<g id="edge24" class="edge">
<title>r1_node_12&#45;&gt;r1_node_17</title>
<path fill="none" stroke="black" d="M607.84,-147.51C542.66,-121.73 400.42,-65.47 327.7,-36.71"/>
<polygon fill="black" stroke="black" points="329.06,-33.48 318.47,-33.06 326.49,-39.99 329.06,-33.48"/>
</g>
<!-- r1_node_2 -->
<g id="node18" class="node">
<title>r1_node_2</title>
<ellipse fill="none" stroke="black" cx="573.93" cy="-90" rx="50.33" ry="18"/>
<text text-anchor="middle" x="573.93" y="-84.95" font-family="Times,serif" font-size="14.00">r1_node_2</text>
</g>
<!-- r1_node_12&#45;&gt;r1_node_2 -->
<g id="edge26" class="edge">
<title>r1_node_12&#45;&gt;r1_node_2</title>
<path fill="none" stroke="black" d="M620.74,-145.12C611.48,-136.59 600.83,-125.89 591.95,-116.25"/>
<polygon fill="black" stroke="black" points="594.67,-114.04 585.4,-108.93 589.46,-118.71 594.67,-114.04"/>
</g>
<!-- r1_node_14 -->
<g id="node17" class="node">
<title>r1_node_14</title>
<ellipse fill="none" stroke="black" cx="375.93" cy="-306" rx="54.93" ry="18"/>
<text text-anchor="middle" x="375.93" y="-300.95" font-family="Times,serif" font-size="14.00">r1_node_14</text>
</g>
<!-- r1_node_14&#45;&gt;r1_node_18 -->
<g id="edge22" class="edge">
<title>r1_node_14&#45;&gt;r1_node_18</title>
<path fill="none" stroke="black" d="M415.26,-293.12C474.98,-275.27 592.23,-240.97 692.93,-216 766.63,-197.73 812.24,-239.08 859.93,-180 894.13,-137.64 811.72,-75.8 806.93,-72 785.88,-55.26 758.73,-42.83 735.31,-34.23"/>
<polygon fill="black" stroke="black" points="736.52,-30.95 725.92,-30.93 734.2,-37.55 736.52,-30.95"/>
</g>
<!-- r1_node_14&#45;&gt;r1_node_19 -->
<g id="edge23" class="edge">
<title>r1_node_14&#45;&gt;r1_node_19</title>
<path fill="none" stroke="black" d="M330.16,-295.6C275.47,-283.91 190.12,-264.02 180.93,-252 151.3,-213.23 170.93,-153.2 186.73,-118.44"/>
<polygon fill="black" stroke="black" points="189.86,-120 191,-109.47 183.54,-116.99 189.86,-120"/>
</g>
<!-- r1_node_2&#45;&gt;r1_node_20 -->
<g id="edge44" class="edge">
<title>r1_node_2&#45;&gt;r1_node_20</title>
<path fill="none" stroke="black" d="M555.33,-73.12C544.78,-64.12 531.39,-52.68 519.63,-42.65"/>
<polygon fill="black" stroke="black" points="522.07,-40.12 512.19,-36.29 517.52,-45.44 522.07,-40.12"/>
</g>
<!-- r1_node_2&#45;&gt;r1_node_16 -->
<g id="edge42" class="edge">
<title>r1_node_2&#45;&gt;r1_node_16</title>
<path fill="none" stroke="black" d="M527.42,-82.73C433.53,-70.06 221.38,-41.45 116.3,-27.28"/>
<polygon fill="black" stroke="black" points="116.82,-23.82 106.44,-25.95 115.88,-30.75 116.82,-23.82"/>
</g>
<!-- r1_node_2&#45;&gt;r1_node_12 -->
<g id="edge43" class="edge">
<title>r1_node_2&#45;&gt;r1_node_12</title>
<path fill="none" stroke="black" d="M594.81,-106.59C604.08,-115.1 614.79,-125.85 623.73,-135.55"/>
<polygon fill="black" stroke="black" points="621.06,-137.81 630.34,-142.93 626.28,-133.14 621.06,-137.81"/>
</g>
<!-- r1_node_1 -->
<g id="node19" class="node">
<title>r1_node_1</title>
<ellipse fill="none" stroke="black" cx="72.93" cy="-306" rx="50.33" ry="18"/>
<text text-anchor="middle" x="72.93" y="-300.95" font-family="Times,serif" font-size="14.00">r1_node_1</text>
</g>
<!-- r1_node_1&#45;&gt;r1_node_16 -->
<g id="edge34" class="edge">
<title>r1_node_1&#45;&gt;r1_node_16</title>
<path fill="none" stroke="black" d="M62.16,-288.08C56.4,-278.03 49.9,-264.78 46.93,-252 30.21,-179.92 41.45,-91.97 49.24,-47.57"/>
<polygon fill="black" stroke="black" points="52.69,-48.21 51.05,-37.74 45.8,-46.94 52.69,-48.21"/>
</g>
<!-- r1_node_10 -->
<g id="node20" class="node">
<title>r1_node_10</title>
<ellipse fill="none" stroke="black" cx="230.93" cy="-306" rx="54.93" ry="18"/>
<text text-anchor="middle" x="230.93" y="-300.95" font-family="Times,serif" font-size="14.00">r1_node_10</text>
</g>
<!-- r1_node_10&#45;&gt;r1_node_19 -->
<g id="edge36" class="edge">
<title>r1_node_10&#45;&gt;r1_node_19</title>
<path fill="none" stroke="black" d="M187.37,-294.74C164.86,-286.99 139.37,-273.83 125.93,-252 112.76,-230.59 134.8,-152.88 139.93,-144 146.72,-132.25 157.08,-121.82 167.34,-113.39"/>
<polygon fill="black" stroke="black" points="169.28,-116.31 175.05,-107.43 165,-110.77 169.28,-116.31"/>
</g>
<!-- r1_node_10&#45;&gt;r1_node_16 -->
<g id="edge35" class="edge">
<title>r1_node_10&#45;&gt;r1_node_16</title>
<path fill="none" stroke="black" d="M187.81,-294.43C164.01,-286.5 135.76,-273.25 117.93,-252 91.71,-220.75 68.93,-102.24 59.53,-47.29"/>
<polygon fill="black" stroke="black" points="63.04,-47.06 57.93,-37.78 56.13,-48.22 63.04,-47.06"/>
</g>
</g>
</svg>
