<?xml version="1.0" encoding="UTF-8" standalone="no"?>
<!DOCTYPE svg PUBLIC "-//W3C//DTD SVG 1.1//EN"
 "http://www.w3.org/Graphics/SVG/1.1/DTD/svg11.dtd">
<!-- Generated by graphviz version 12.2.1 (20241206.2353)
 -->
<!-- Pages: 1 -->
<svg width="895pt" height="476pt"
 viewBox="0.00 0.00 894.50 476.00" xmlns="http://www.w3.org/2000/svg" xmlns:xlink="http://www.w3.org/1999/xlink">
<g id="graph0" class="graph" transform="scale(1 1) rotate(0) translate(4 472)">
<polygon fill="white" stroke="none" points="-4,4 -4,-472 890.5,-472 890.5,4 -4,4"/>
<!-- r2_node_14 -->
<g id="node1" class="node">
<title>r2_node_14</title>
<ellipse fill="none" stroke="black" cx="315.33" cy="-378" rx="54.93" ry="18"/>
<text text-anchor="middle" x="315.33" y="-372.95" font-family="Times,serif" font-size="14.00">r2_node_14</text>
</g>
<!-- r2_node_18 -->
<g id="node2" class="node">
<title>r2_node_18</title>
<ellipse fill="none" stroke="black" cx="317.33" cy="-18" rx="54.93" ry="18"/>
<text text-anchor="middle" x="317.33" y="-12.95" font-family="Times,serif" font-size="14.00">r2_node_18</text>
</g>
<!-- r2_node_1 -->
<g id="node3" class="node">
<title>r2_node_1</title>
<ellipse fill="none" stroke="black" cx="90.33" cy="-378" rx="50.33" ry="18"/>
<text text-anchor="middle" x="90.33" y="-372.95" font-family="Times,serif" font-size="14.00">r2_node_1</text>
</g>
<!-- r2_node_7 -->
<g id="node4" class="node">
<title>r2_node_7</title>
<ellipse fill="none" stroke="black" cx="222.33" cy="-306" rx="50.33" ry="18"/>
<text text-anchor="middle" x="222.33" y="-300.95" font-family="Times,serif" font-size="14.00">r2_node_7</text>
</g>
<!-- r2_node_1&#45;&gt;r2_node_7 -->
<g id="edge1" class="edge">
<title>r2_node_1&#45;&gt;r2_node_7</title>
<path fill="none" stroke="black" d="M113.6,-361.64C132.37,-351.01 159.04,-336.8 181.33,-325.54"/>
<polygon fill="black" stroke="black" points="182.81,-328.71 190.19,-321.11 179.68,-322.45 182.81,-328.71"/>
</g>
<!-- r2_node_8 -->
<g id="node5" class="node">
<title>r2_node_8</title>
<ellipse fill="none" stroke="black" cx="111.33" cy="-450" rx="50.33" ry="18"/>
<text text-anchor="middle" x="111.33" y="-444.95" font-family="Times,serif" font-size="14.00">r2_node_8</text>
</g>
<!-- r2_node_1&#45;&gt;r2_node_8 -->
<g id="edge2" class="edge">
<title>r2_node_1&#45;&gt;r2_node_8</title>
<path fill="none" stroke="black" d="M101.16,-395.62C104.22,-403.1 107.19,-412.14 109.46,-420.64"/>
<polygon fill="black" stroke="black" points="106.02,-421.29 111.71,-430.22 112.83,-419.69 106.02,-421.29"/>
</g>
<!-- r2_node_10 -->
<g id="node6" class="node">
<title>r2_node_10</title>
<ellipse fill="none" stroke="black" cx="476.33" cy="-234" rx="54.93" ry="18"/>
<text text-anchor="middle" x="476.33" y="-228.95" font-family="Times,serif" font-size="14.00">r2_node_10</text>
</g>
<!-- r2_node_1&#45;&gt;r2_node_10 -->
<g id="edge3" class="edge">
<title>r2_node_1&#45;&gt;r2_node_10</title>
<path fill="none" stroke="black" d="M134.04,-368.65C203.62,-356.16 333.35,-333.1 353.33,-324 388.58,-307.93 422.75,-278.9 446.31,-258.37"/>
<polygon fill="black" stroke="black" points="448.42,-261.17 453.65,-251.96 443.82,-255.9 448.42,-261.17"/>
</g>
<!-- r2_node_12 -->
<g id="node7" class="node">
<title>r2_node_12</title>
<ellipse fill="none" stroke="black" cx="153.33" cy="-234" rx="54.93" ry="18"/>
<text text-anchor="middle" x="153.33" y="-228.95" font-family="Times,serif" font-size="14.00">r2_node_12</text>
</g>
<!-- r2_node_1&#45;&gt;r2_node_12 -->
<g id="edge4" class="edge">
<title>r2_node_1&#45;&gt;r2_node_12</title>
<path fill="none" stroke="black" d="M97.93,-359.87C108.66,-335.67 128.39,-291.21 141.17,-262.39"/>
<polygon fill="black" stroke="black" points="144.23,-264.13 145.09,-253.57 137.83,-261.29 144.23,-264.13"/>
</g>
<!-- r2_node_2 -->
<g id="node8" class="node">
<title>r2_node_2</title>
<ellipse fill="none" stroke="black" cx="284.33" cy="-162" rx="50.33" ry="18"/>
<text text-anchor="middle" x="284.33" y="-156.95" font-family="Times,serif" font-size="14.00">r2_node_2</text>
</g>
<!-- r2_node_1&#45;&gt;r2_node_2 -->
<g id="edge5" class="edge">
<title>r2_node_1&#45;&gt;r2_node_2</title>
<path fill="none" stroke="black" d="M131.96,-367.61C178.39,-357.44 249.61,-340.45 272.33,-324 314.87,-293.19 338.44,-265.31 320.33,-216 316.58,-205.79 309.89,-196.2 303.2,-188.07"/>
<polygon fill="black" stroke="black" points="305.98,-185.93 296.78,-180.68 300.7,-190.52 305.98,-185.93"/>
</g>
<!-- r2_node_5 -->
<g id="node9" class="node">
<title>r2_node_5</title>
<ellipse fill="none" stroke="black" cx="51.33" cy="-90" rx="50.33" ry="18"/>
<text text-anchor="middle" x="51.33" y="-84.95" font-family="Times,serif" font-size="14.00">r2_node_5</text>
</g>
<!-- r2_node_1&#45;&gt;r2_node_5 -->
<g id="edge6" class="edge">
<title>r2_node_1&#45;&gt;r2_node_5</title>
<path fill="none" stroke="black" d="M84.59,-359.97C73.98,-312.59 55.47,-178.87 50.99,-119.73"/>
<polygon fill="black" stroke="black" points="54.48,-119.57 50.35,-109.82 47.5,-120.02 54.48,-119.57"/>
</g>
<!-- r2_node_7&#45;&gt;r2_node_1 -->
<g id="edge11" class="edge">
<title>r2_node_7&#45;&gt;r2_node_1</title>
<path fill="none" stroke="black" d="M198.98,-322.41C180.24,-333.02 153.66,-347.17 131.43,-358.41"/>
<polygon fill="black" stroke="black" points="129.97,-355.22 122.59,-362.83 133.1,-361.49 129.97,-355.22"/>
</g>
<!-- r2_node_7&#45;&gt;r2_node_10 -->
<g id="edge12" class="edge">
<title>r2_node_7&#45;&gt;r2_node_10</title>
<path fill="none" stroke="black" d="M259.38,-293.36C302.27,-280.99 373.07,-261.45 422.12,-248.44"/>
<polygon fill="black" stroke="black" points="422.93,-251.84 431.7,-245.91 421.14,-245.08 422.93,-251.84"/>
</g>
<!-- r2_node_7&#45;&gt;r2_node_12 -->
<g id="edge8" class="edge">
<title>r2_node_7&#45;&gt;r2_node_12</title>
<path fill="none" stroke="black" d="M206.32,-288.76C197.83,-280.14 187.2,-269.36 177.7,-259.73"/>
<polygon fill="black" stroke="black" points="180.3,-257.38 170.79,-252.71 175.31,-262.29 180.3,-257.38"/>
</g>
<!-- r2_node_7&#45;&gt;r2_node_5 -->
<g id="edge10" class="edge">
<title>r2_node_7&#45;&gt;r2_node_5</title>
<path fill="none" stroke="black" d="M219.45,-287.79C220.08,-268.69 222.06,-237.71 208.33,-216 190.47,-187.76 169.65,-199.23 142.33,-180 115.09,-160.83 87.01,-135.23 69.15,-116.41"/>
<polygon fill="black" stroke="black" points="71.83,-114.16 62.49,-109.15 66.67,-118.89 71.83,-114.16"/>
</g>
<!-- r2_node_9 -->
<g id="node11" class="node">
<title>r2_node_9</title>
<ellipse fill="none" stroke="black" cx="254.33" cy="-90" rx="50.33" ry="18"/>
<text text-anchor="middle" x="254.33" y="-84.95" font-family="Times,serif" font-size="14.00">r2_node_9</text>
</g>
<!-- r2_node_7&#45;&gt;r2_node_9 -->
<g id="edge7" class="edge">
<title>r2_node_7&#45;&gt;r2_node_9</title>
<path fill="none" stroke="black" d="M259.15,-293.42C278.66,-285.19 300.9,-271.99 312.33,-252 320.27,-238.11 321.22,-229.3 312.33,-216 289.07,-181.21 248.58,-214.79 225.33,-180 212.54,-160.87 222.77,-135.69 234.46,-116.99"/>
<polygon fill="black" stroke="black" points="237.25,-119.11 239.94,-108.87 231.44,-115.2 237.25,-119.11"/>
</g>
<!-- r2_node_15 -->
<g id="node12" class="node">
<title>r2_node_15</title>
<ellipse fill="none" stroke="black" cx="184.33" cy="-18" rx="54.93" ry="18"/>
<text text-anchor="middle" x="184.33" y="-12.95" font-family="Times,serif" font-size="14.00">r2_node_15</text>
</g>
<!-- r2_node_7&#45;&gt;r2_node_15 -->
<g id="edge9" class="edge">
<title>r2_node_7&#45;&gt;r2_node_15</title>
<path fill="none" stroke="black" d="M232.73,-287.98C242.44,-269.85 254.18,-240.46 245.33,-216 238.24,-196.42 225,-198.45 215.33,-180 199.91,-150.59 201.83,-140.57 195.33,-108 191.34,-88 188.55,-65.17 186.78,-47.63"/>
<polygon fill="black" stroke="black" points="190.27,-47.31 185.83,-37.69 183.3,-47.98 190.27,-47.31"/>
</g>
<!-- r2_node_8&#45;&gt;r2_node_14 -->
<g id="edge19" class="edge">
<title>r2_node_8&#45;&gt;r2_node_14</title>
<path fill="none" stroke="black" d="M146.86,-436.81C180.42,-425.29 230.98,-407.94 267.96,-395.25"/>
<polygon fill="black" stroke="black" points="268.73,-398.69 277.05,-392.13 266.45,-392.07 268.73,-398.69"/>
</g>
<!-- r2_node_8&#45;&gt;r2_node_1 -->
<g id="edge18" class="edge">
<title>r2_node_8&#45;&gt;r2_node_1</title>
<path fill="none" stroke="black" d="M100.37,-432.05C97.34,-424.6 94.4,-415.64 92.16,-407.22"/>
<polygon fill="black" stroke="black" points="95.63,-406.69 89.94,-397.75 88.81,-408.28 95.63,-406.69"/>
</g>
<!-- r2_node_16 -->
<g id="node10" class="node">
<title>r2_node_16</title>
<ellipse fill="none" stroke="black" cx="615.33" cy="-90" rx="54.93" ry="18"/>
<text text-anchor="middle" x="615.33" y="-84.95" font-family="Times,serif" font-size="14.00">r2_node_16</text>
</g>
<!-- r2_node_8&#45;&gt;r2_node_16 -->
<g id="edge20" class="edge">
<title>r2_node_8&#45;&gt;r2_node_16</title>
<path fill="none" stroke="black" d="M131.42,-433.01C157.54,-413 205.29,-379.06 251.33,-360 319.48,-331.79 344.49,-350.48 413.33,-324 473.89,-300.71 496.31,-299.67 540.33,-252 576.32,-213.02 597.81,-153.71 608.03,-119.01"/>
<polygon fill="black" stroke="black" points="611.31,-120.28 610.66,-109.7 604.57,-118.38 611.31,-120.28"/>
</g>
<!-- r2_node_10&#45;&gt;r2_node_18 -->
<g id="edge14" class="edge">
<title>r2_node_10&#45;&gt;r2_node_18</title>
<path fill="none" stroke="black" d="M489.52,-216.22C502.29,-197.77 517.99,-167.63 505.33,-144 475.93,-89.15 410.68,-54.26 365.36,-35.66"/>
<polygon fill="black" stroke="black" points="366.87,-32.49 356.28,-32.06 364.29,-39 366.87,-32.49"/>
</g>
<!-- r2_node_10&#45;&gt;r2_node_1 -->
<g id="edge16" class="edge">
<title>r2_node_10&#45;&gt;r2_node_1</title>
<path fill="none" stroke="black" d="M466.21,-252.03C448.14,-272.46 410.4,-306.19 371.33,-324 351.52,-333.03 223.81,-355.77 147.45,-368.33"/>
<polygon fill="black" stroke="black" points="146.92,-364.88 137.62,-369.94 148.05,-371.78 146.92,-364.88"/>
</g>
<!-- r2_node_10&#45;&gt;r2_node_7 -->
<g id="edge17" class="edge">
<title>r2_node_10&#45;&gt;r2_node_7</title>
<path fill="none" stroke="black" d="M437.81,-247.06C394.02,-259.67 322.54,-279.38 273.96,-292.24"/>
<polygon fill="black" stroke="black" points="273.3,-288.8 264.52,-294.73 275.08,-295.57 273.3,-288.8"/>
</g>
<!-- r2_node_10&#45;&gt;r2_node_2 -->
<g id="edge15" class="edge">
<title>r2_node_10&#45;&gt;r2_node_2</title>
<path fill="none" stroke="black" d="M437.62,-220.81C405.4,-209.69 359.74,-193.12 326.59,-180.57"/>
<polygon fill="black" stroke="black" points="327.87,-177.32 317.28,-177.03 325.37,-183.86 327.87,-177.32"/>
</g>
<!-- r2_node_17 -->
<g id="node14" class="node">
<title>r2_node_17</title>
<ellipse fill="none" stroke="black" cx="441.33" cy="-162" rx="54.93" ry="18"/>
<text text-anchor="middle" x="441.33" y="-156.95" font-family="Times,serif" font-size="14.00">r2_node_17</text>
</g>
<!-- r2_node_10&#45;&gt;r2_node_17 -->
<g id="edge13" class="edge">
<title>r2_node_10&#45;&gt;r2_node_17</title>
<path fill="none" stroke="black" d="M467.86,-216.05C463.94,-208.23 459.2,-198.75 454.82,-189.98"/>
<polygon fill="black" stroke="black" points="458,-188.52 450.4,-181.14 451.74,-191.65 458,-188.52"/>
</g>
<!-- r2_node_2&#45;&gt;r2_node_1 -->
<g id="edge29" class="edge">
<title>r2_node_2&#45;&gt;r2_node_1</title>
<path fill="none" stroke="black" d="M309.93,-177.95C321.22,-187.63 332.88,-201.16 338.33,-216 356.44,-265.31 332.87,-293.19 290.33,-324 267.78,-340.32 197.47,-357.18 146.48,-367.38"/>
<polygon fill="black" stroke="black" points="145.9,-363.93 136.76,-369.28 147.25,-370.8 145.9,-363.93"/>
</g>
<!-- r2_node_2&#45;&gt;r2_node_10 -->
<g id="edge32" class="edge">
<title>r2_node_2&#45;&gt;r2_node_10</title>
<path fill="none" stroke="black" d="M321.31,-174.6C353.41,-185.65 399.73,-202.44 433.43,-215.19"/>
<polygon fill="black" stroke="black" points="431.89,-218.34 442.48,-218.63 434.38,-211.8 431.89,-218.34"/>
</g>
<!-- r2_node_2&#45;&gt;r2_node_5 -->
<g id="edge30" class="edge">
<title>r2_node_2&#45;&gt;r2_node_5</title>
<path fill="none" stroke="black" d="M244.73,-150.6C203.92,-138.96 140.56,-120 97.51,-106.6"/>
<polygon fill="black" stroke="black" points="98.8,-103.33 88.21,-103.68 96.71,-110.01 98.8,-103.33"/>
</g>
<!-- r2_node_2&#45;&gt;r2_node_16 -->
<g id="edge28" class="edge">
<title>r2_node_2&#45;&gt;r2_node_16</title>
<path fill="none" stroke="black" d="M326.92,-151.99C386.1,-139.48 493.29,-116.81 559.01,-102.91"/>
<polygon fill="black" stroke="black" points="559.44,-106.4 568.5,-100.9 557.99,-99.55 559.44,-106.4"/>
</g>
<!-- r2_node_2&#45;&gt;r2_node_9 -->
<g id="edge31" class="edge">
<title>r2_node_2&#45;&gt;r2_node_9</title>
<path fill="none" stroke="black" d="M277.07,-144.05C273.8,-136.43 269.86,-127.23 266.18,-118.65"/>
<polygon fill="black" stroke="black" points="269.48,-117.48 262.33,-109.67 263.05,-120.24 269.48,-117.48"/>
</g>
<!-- r2_node_2&#45;&gt;r2_node_15 -->
<g id="edge27" class="edge">
<title>r2_node_2&#45;&gt;r2_node_15</title>
<path fill="none" stroke="black" d="M297.88,-144.38C311.49,-125.55 328.44,-94.54 313.33,-72 304.1,-58.24 267.87,-44.04 236.15,-33.81"/>
<polygon fill="black" stroke="black" points="237.2,-30.47 226.61,-30.82 235.1,-37.15 237.2,-30.47"/>
</g>
<!-- r2_node_5&#45;&gt;r2_node_1 -->
<g id="edge34" class="edge">
<title>r2_node_5&#45;&gt;r2_node_1</title>
<path fill="none" stroke="black" d="M57.11,-108.23C67.71,-155.74 86.16,-288.97 90.66,-348.1"/>
<polygon fill="black" stroke="black" points="87.16,-348.28 91.3,-358.03 94.15,-347.82 87.16,-348.28"/>
</g>
<!-- r2_node_5&#45;&gt;r2_node_7 -->
<g id="edge36" class="edge">
<title>r2_node_5&#45;&gt;r2_node_7</title>
<path fill="none" stroke="black" d="M73.03,-106.68C94.52,-125.47 128.02,-157.26 160.33,-180 187.65,-199.23 208.47,-187.76 226.33,-216 237.71,-234 238.3,-258.38 235.01,-277.07"/>
<polygon fill="black" stroke="black" points="231.64,-276.12 232.79,-286.65 238.46,-277.7 231.64,-276.12"/>
</g>
<!-- r2_node_5&#45;&gt;r2_node_2 -->
<g id="edge33" class="edge">
<title>r2_node_5&#45;&gt;r2_node_2</title>
<path fill="none" stroke="black" d="M91.11,-101.46C131.96,-113.1 195.29,-132.06 238.28,-145.45"/>
<polygon fill="black" stroke="black" points="236.98,-148.71 247.56,-148.35 239.07,-142.03 236.98,-148.71"/>
</g>
<!-- r2_node_5&#45;&gt;r2_node_15 -->
<g id="edge37" class="edge">
<title>r2_node_5&#45;&gt;r2_node_15</title>
<path fill="none" stroke="black" d="M78.89,-74.5C98.37,-64.24 124.74,-50.36 146.24,-39.05"/>
<polygon fill="black" stroke="black" points="147.79,-42.19 155.01,-34.43 144.53,-35.99 147.79,-42.19"/>
</g>
<!-- r2_node_3 -->
<g id="node13" class="node">
<title>r2_node_3</title>
<ellipse fill="none" stroke="black" cx="50.33" cy="-18" rx="50.33" ry="18"/>
<text text-anchor="middle" x="50.33" y="-12.95" font-family="Times,serif" font-size="14.00">r2_node_3</text>
</g>
<!-- r2_node_5&#45;&gt;r2_node_3 -->
<g id="edge35" class="edge">
<title>r2_node_5&#45;&gt;r2_node_3</title>
<path fill="none" stroke="black" d="M51.08,-71.7C50.98,-64.41 50.85,-55.73 50.74,-47.54"/>
<polygon fill="black" stroke="black" points="54.24,-47.57 50.59,-37.62 47.24,-47.67 54.24,-47.57"/>
</g>
<!-- r2_node_13 -->
<g id="node15" class="node">
<title>r2_node_13</title>
<ellipse fill="none" stroke="black" cx="647.33" cy="-306" rx="54.93" ry="18"/>
<text text-anchor="middle" x="647.33" y="-300.95" font-family="Times,serif" font-size="14.00">r2_node_13</text>
</g>
<!-- r2_node_4 -->
<g id="node16" class="node">
<title>r2_node_4</title>
<ellipse fill="none" stroke="black" cx="240.33" cy="-450" rx="50.33" ry="18"/>
<text text-anchor="middle" x="240.33" y="-444.95" font-family="Times,serif" font-size="14.00">r2_node_4</text>
</g>
<!-- r2_node_4&#45;&gt;r2_node_14 -->
<g id="edge24" class="edge">
<title>r2_node_4&#45;&gt;r2_node_14</title>
<path fill="none" stroke="black" d="M257.72,-432.76C267.12,-423.99 278.91,-412.99 289.37,-403.22"/>
<polygon fill="black" stroke="black" points="291.74,-405.8 296.66,-396.42 286.96,-400.69 291.74,-405.8"/>
</g>
<!-- r2_node_4&#45;&gt;r2_node_18 -->
<g id="edge21" class="edge">
<title>r2_node_4&#45;&gt;r2_node_18</title>
<path fill="none" stroke="black" d="M290.58,-447.25C426.29,-441.31 794.45,-416.78 861.33,-324 938.35,-217.14 823.43,-130.34 705.33,-72 649.98,-44.66 477.88,-29.43 382.54,-22.9"/>
<polygon fill="black" stroke="black" points="383.03,-19.42 372.82,-22.24 382.56,-26.41 383.03,-19.42"/>
</g>
<!-- r2_node_4&#45;&gt;r2_node_16 -->
<g id="edge26" class="edge">
<title>r2_node_4&#45;&gt;r2_node_16</title>
<path fill="none" stroke="black" d="M286.64,-442.55C348.76,-433.62 462.35,-416.25 558.33,-396 566.21,-394.34 834.39,-330.37 839.33,-324 906.48,-237.47 741,-147.44 658.6,-109.55"/>
<polygon fill="black" stroke="black" points="660.2,-106.43 649.65,-105.49 657.32,-112.81 660.2,-106.43"/>
</g>
<!-- r2_node_4&#45;&gt;r2_node_15 -->
<g id="edge25" class="edge">
<title>r2_node_4&#45;&gt;r2_node_15</title>
<path fill="none" stroke="black" d="M278.69,-438.05C307.47,-428.98 347.26,-414.58 379.33,-396 401.19,-383.34 403.44,-375.58 423.33,-360 558.13,-254.38 795.21,-198.09 679.33,-72 647.18,-37.03 300.2,-43.71 253.33,-36 247.76,-35.09 241.99,-33.96 236.25,-32.72"/>
<polygon fill="black" stroke="black" points="237.34,-29.38 226.81,-30.56 235.78,-36.2 237.34,-29.38"/>
</g>
<!-- r2_node_4&#45;&gt;r2_node_13 -->
<g id="edge23" class="edge">
<title>r2_node_4&#45;&gt;r2_node_13</title>
<path fill="none" stroke="black" d="M280.3,-438.62C317.6,-428.64 374.67,-412.67 423.33,-396 487.33,-374.07 559.83,-344.35 604.57,-325.42"/>
<polygon fill="black" stroke="black" points="605.82,-328.69 613.66,-321.56 603.08,-322.24 605.82,-328.69"/>
</g>
<!-- r2_node_19 -->
<g id="node17" class="node">
<title>r2_node_19</title>
<ellipse fill="none" stroke="black" cx="775.33" cy="-306" rx="54.93" ry="18"/>
<text text-anchor="middle" x="775.33" y="-300.95" font-family="Times,serif" font-size="14.00">r2_node_19</text>
</g>
<!-- r2_node_4&#45;&gt;r2_node_19 -->
<g id="edge22" class="edge">
<title>r2_node_4&#45;&gt;r2_node_19</title>
<path fill="none" stroke="black" d="M283.78,-440.69C332.78,-431.06 414.7,-414.18 484.33,-396 570.59,-373.48 669.57,-341.98 727.02,-323.12"/>
<polygon fill="black" stroke="black" points="728.1,-326.45 736.5,-320 725.91,-319.8 728.1,-326.45"/>
</g>
</g>
</svg>
