<?xml version="1.0" encoding="UTF-8" standalone="no"?>
<!DOCTYPE svg PUBLIC "-//W3C//DTD SVG 1.1//EN"
 "http://www.w3.org/Graphics/SVG/1.1/DTD/svg11.dtd">
<!-- Generated by graphviz version 12.2.1 (20241206.2353)
 -->
<!-- Pages: 1 -->
<svg width="1505pt" height="332pt"
 viewBox="0.00 0.00 1505.26 332.00" xmlns="http://www.w3.org/2000/svg" xmlns:xlink="http://www.w3.org/1999/xlink">
<g id="graph0" class="graph" transform="scale(1 1) rotate(0) translate(4 328)">
<polygon fill="white" stroke="none" points="-4,4 -4,-328 1501.26,-328 1501.26,4 -4,4"/>
<!-- r3_node_7 -->
<g id="node1" class="node">
<title>r3_node_7</title>
<ellipse fill="none" stroke="black" cx="260.93" cy="-306" rx="50.33" ry="18"/>
<text text-anchor="middle" x="260.93" y="-300.95" font-family="Times,serif" font-size="14.00">r3_node_7</text>
</g>
<!-- r3_node_22 -->
<g id="node2" class="node">
<title>r3_node_22</title>
<ellipse fill="none" stroke="black" cx="73.93" cy="-18" rx="54.93" ry="18"/>
<text text-anchor="middle" x="73.93" y="-12.95" font-family="Times,serif" font-size="14.00">r3_node_22</text>
</g>
<!-- r3_node_7&#45;&gt;r3_node_22 -->
<g id="edge1" class="edge">
<title>r3_node_7&#45;&gt;r3_node_22</title>
<path fill="none" stroke="black" d="M234.07,-290.32C218.76,-280.92 200.07,-267.59 186.93,-252 132.84,-187.83 97.55,-93.35 82.4,-46.89"/>
<polygon fill="black" stroke="black" points="85.82,-46.06 79.45,-37.6 79.15,-48.19 85.82,-46.06"/>
</g>
<!-- r3_node_4 -->
<g id="node3" class="node">
<title>r3_node_4</title>
<ellipse fill="none" stroke="black" cx="602.93" cy="-234" rx="50.33" ry="18"/>
<text text-anchor="middle" x="602.93" y="-228.95" font-family="Times,serif" font-size="14.00">r3_node_4</text>
</g>
<!-- r3_node_7&#45;&gt;r3_node_4 -->
<g id="edge2" class="edge">
<title>r3_node_7&#45;&gt;r3_node_4</title>
<path fill="none" stroke="black" d="M302.61,-295.49C364.25,-282.35 479.5,-258.75 547.97,-245.24"/>
<polygon fill="black" stroke="black" points="548.33,-248.74 557.47,-243.37 546.98,-241.87 548.33,-248.74"/>
</g>
<!-- r3_node_28 -->
<g id="node4" class="node">
<title>r3_node_28</title>
<ellipse fill="none" stroke="black" cx="207.93" cy="-18" rx="54.93" ry="18"/>
<text text-anchor="middle" x="207.93" y="-12.95" font-family="Times,serif" font-size="14.00">r3_node_28</text>
</g>
<!-- r3_node_7&#45;&gt;r3_node_28 -->
<g id="edge3" class="edge">
<title>r3_node_7&#45;&gt;r3_node_28</title>
<path fill="none" stroke="black" d="M235.9,-289.92C223.17,-280.72 208.94,-267.72 201.93,-252 171.53,-183.81 188.07,-92.88 199.68,-47.41"/>
<polygon fill="black" stroke="black" points="203.04,-48.38 202.24,-37.82 196.28,-46.57 203.04,-48.38"/>
</g>
<!-- r3_node_4&#45;&gt;r3_node_7 -->
<g id="edge27" class="edge">
<title>r3_node_4&#45;&gt;r3_node_7</title>
<path fill="none" stroke="black" d="M561.18,-244.53C499.56,-257.66 384.44,-281.24 315.99,-294.74"/>
<polygon fill="black" stroke="black" points="315.63,-291.25 306.49,-296.61 316.98,-298.11 315.63,-291.25"/>
</g>
<!-- r3_node_29 -->
<g id="node13" class="node">
<title>r3_node_29</title>
<ellipse fill="none" stroke="black" cx="947.93" cy="-162" rx="54.93" ry="18"/>
<text text-anchor="middle" x="947.93" y="-156.95" font-family="Times,serif" font-size="14.00">r3_node_29</text>
</g>
<!-- r3_node_4&#45;&gt;r3_node_29 -->
<g id="edge28" class="edge">
<title>r3_node_4&#45;&gt;r3_node_29</title>
<path fill="none" stroke="black" d="M645.93,-224.28C707.87,-211.71 822.31,-188.49 891.14,-174.52"/>
<polygon fill="black" stroke="black" points="891.61,-178 900.71,-172.58 890.22,-171.14 891.61,-178"/>
</g>
<!-- r3_node_19 -->
<g id="node16" class="node">
<title>r3_node_19</title>
<ellipse fill="none" stroke="black" cx="624.93" cy="-162" rx="54.93" ry="18"/>
<text text-anchor="middle" x="624.93" y="-156.95" font-family="Times,serif" font-size="14.00">r3_node_19</text>
</g>
<!-- r3_node_4&#45;&gt;r3_node_19 -->
<g id="edge26" class="edge">
<title>r3_node_4&#45;&gt;r3_node_19</title>
<path fill="none" stroke="black" d="M608.37,-215.7C610.72,-208.24 613.52,-199.32 616.15,-190.97"/>
<polygon fill="black" stroke="black" points="619.45,-192.14 619.1,-181.55 612.77,-190.04 619.45,-192.14"/>
</g>
<!-- r3_node_5 -->
<g id="node5" class="node">
<title>r3_node_5</title>
<ellipse fill="none" stroke="black" cx="260.93" cy="-234" rx="50.33" ry="18"/>
<text text-anchor="middle" x="260.93" y="-228.95" font-family="Times,serif" font-size="14.00">r3_node_5</text>
</g>
<!-- r3_node_13 -->
<g id="node6" class="node">
<title>r3_node_13</title>
<ellipse fill="none" stroke="black" cx="344.93" cy="-162" rx="54.93" ry="18"/>
<text text-anchor="middle" x="344.93" y="-156.95" font-family="Times,serif" font-size="14.00">r3_node_13</text>
</g>
<!-- r3_node_5&#45;&gt;r3_node_13 -->
<g id="edge4" class="edge">
<title>r3_node_5&#45;&gt;r3_node_13</title>
<path fill="none" stroke="black" d="M275,-216.41C285.08,-207.17 298.87,-195.54 311.59,-185.49"/>
<polygon fill="black" stroke="black" points="313.65,-188.33 319.41,-179.44 309.36,-182.8 313.65,-188.33"/>
</g>
<!-- r3_node_25 -->
<g id="node7" class="node">
<title>r3_node_25</title>
<ellipse fill="none" stroke="black" cx="338.93" cy="-18" rx="54.93" ry="18"/>
<text text-anchor="middle" x="338.93" y="-12.95" font-family="Times,serif" font-size="14.00">r3_node_25</text>
</g>
<!-- r3_node_5&#45;&gt;r3_node_25 -->
<g id="edge5" class="edge">
<title>r3_node_5&#45;&gt;r3_node_25</title>
<path fill="none" stroke="black" d="M258.31,-215.83C254.46,-185.03 250.18,-119.21 274.93,-72 281.42,-59.62 292.17,-49.02 303.01,-40.63"/>
<polygon fill="black" stroke="black" points="304.77,-43.68 310.83,-34.99 300.67,-38 304.77,-43.68"/>
</g>
<!-- r3_node_10 -->
<g id="node8" class="node">
<title>r3_node_10</title>
<ellipse fill="none" stroke="black" cx="54.93" cy="-306" rx="54.93" ry="18"/>
<text text-anchor="middle" x="54.93" y="-300.95" font-family="Times,serif" font-size="14.00">r3_node_10</text>
</g>
<!-- r3_node_5&#45;&gt;r3_node_10 -->
<g id="edge6" class="edge">
<title>r3_node_5&#45;&gt;r3_node_10</title>
<path fill="none" stroke="black" d="M228.22,-247.94C195.16,-259.76 143.81,-277.24 105.53,-289.74"/>
<polygon fill="black" stroke="black" points="104.48,-286.4 96.05,-292.82 106.64,-293.06 104.48,-286.4"/>
</g>
<!-- r3_node_13&#45;&gt;r3_node_5 -->
<g id="edge43" class="edge">
<title>r3_node_13&#45;&gt;r3_node_5</title>
<path fill="none" stroke="black" d="M330.82,-179.63C320.65,-188.95 306.71,-200.7 293.9,-210.81"/>
<polygon fill="black" stroke="black" points="291.81,-208 286.04,-216.89 296.09,-213.54 291.81,-208"/>
</g>
<!-- r3_node_16 -->
<g id="node25" class="node">
<title>r3_node_16</title>
<ellipse fill="none" stroke="black" cx="349.93" cy="-90" rx="54.93" ry="18"/>
<text text-anchor="middle" x="349.93" y="-84.95" font-family="Times,serif" font-size="14.00">r3_node_16</text>
</g>
<!-- r3_node_13&#45;&gt;r3_node_16 -->
<g id="edge42" class="edge">
<title>r3_node_13&#45;&gt;r3_node_16</title>
<path fill="none" stroke="black" d="M340.25,-143.7C340.02,-136.32 340.41,-127.52 341.28,-119.25"/>
<polygon fill="black" stroke="black" points="344.71,-119.99 342.61,-109.6 337.78,-119.03 344.71,-119.99"/>
</g>
<!-- r3_node_23 -->
<g id="node27" class="node">
<title>r3_node_23</title>
<ellipse fill="none" stroke="black" cx="477.93" cy="-90" rx="54.93" ry="18"/>
<text text-anchor="middle" x="477.93" y="-84.95" font-family="Times,serif" font-size="14.00">r3_node_23</text>
</g>
<!-- r3_node_13&#45;&gt;r3_node_23 -->
<g id="edge44" class="edge">
<title>r3_node_13&#45;&gt;r3_node_23</title>
<path fill="none" stroke="black" d="M373.14,-146.15C392.54,-135.95 418.53,-122.27 439.77,-111.09"/>
<polygon fill="black" stroke="black" points="441.21,-114.28 448.43,-106.53 437.95,-108.09 441.21,-114.28"/>
</g>
<!-- r3_node_10&#45;&gt;r3_node_22 -->
<g id="edge11" class="edge">
<title>r3_node_10&#45;&gt;r3_node_22</title>
<path fill="none" stroke="black" d="M56.09,-287.54C59.27,-239.76 68.12,-106.51 72.03,-47.61"/>
<polygon fill="black" stroke="black" points="75.52,-47.95 72.69,-37.74 68.53,-47.49 75.52,-47.95"/>
</g>
<!-- r3_node_10&#45;&gt;r3_node_28 -->
<g id="edge12" class="edge">
<title>r3_node_10&#45;&gt;r3_node_28</title>
<path fill="none" stroke="black" d="M64.05,-287.97C89.66,-240.08 162.47,-103.98 193.57,-45.85"/>
<polygon fill="black" stroke="black" points="196.52,-47.75 198.16,-37.28 190.35,-44.45 196.52,-47.75"/>
</g>
<!-- r3_node_10&#45;&gt;r3_node_5 -->
<g id="edge10" class="edge">
<title>r3_node_10&#45;&gt;r3_node_5</title>
<path fill="none" stroke="black" d="M89.19,-291.5C122.85,-279.5 174.35,-261.98 212.23,-249.64"/>
<polygon fill="black" stroke="black" points="213.15,-253.03 221.58,-246.62 210.99,-246.37 213.15,-253.03"/>
</g>
<!-- r3_node_14 -->
<g id="node9" class="node">
<title>r3_node_14</title>
<ellipse fill="none" stroke="black" cx="827.93" cy="-306" rx="54.93" ry="18"/>
<text text-anchor="middle" x="827.93" y="-300.95" font-family="Times,serif" font-size="14.00">r3_node_14</text>
</g>
<!-- r3_node_27 -->
<g id="node10" class="node">
<title>r3_node_27</title>
<ellipse fill="none" stroke="black" cx="681.93" cy="-90" rx="54.93" ry="18"/>
<text text-anchor="middle" x="681.93" y="-84.95" font-family="Times,serif" font-size="14.00">r3_node_27</text>
</g>
<!-- r3_node_14&#45;&gt;r3_node_27 -->
<g id="edge7" class="edge">
<title>r3_node_14&#45;&gt;r3_node_27</title>
<path fill="none" stroke="black" d="M872.83,-295.27C896.25,-287.67 922.87,-274.48 936.93,-252 945.42,-238.44 945.88,-229.27 936.93,-216 913.08,-180.62 886.45,-198.37 847.93,-180 818.13,-165.78 812,-159.67 782.93,-144 762.34,-132.9 739.25,-120.76 720.35,-110.9"/>
<polygon fill="black" stroke="black" points="722.15,-107.89 711.67,-106.38 718.92,-114.1 722.15,-107.89"/>
</g>
<!-- r3_node_30 -->
<g id="node11" class="node">
<title>r3_node_30</title>
<ellipse fill="none" stroke="black" cx="502.93" cy="-18" rx="54.93" ry="18"/>
<text text-anchor="middle" x="502.93" y="-12.95" font-family="Times,serif" font-size="14.00">r3_node_30</text>
</g>
<!-- r3_node_14&#45;&gt;r3_node_30 -->
<g id="edge8" class="edge">
<title>r3_node_14&#45;&gt;r3_node_30</title>
<path fill="none" stroke="black" d="M860.75,-291.15C876.88,-282.46 894.78,-269.54 903.93,-252 911.34,-237.81 913.5,-228.83 903.93,-216 870.39,-171.02 835.63,-199.26 782.93,-180 745.36,-166.27 652.35,-128.4 617.93,-108 585.68,-88.88 552.14,-61.99 529.66,-42.78"/>
<polygon fill="black" stroke="black" points="532.03,-40.2 522.18,-36.3 527.45,-45.49 532.03,-40.2"/>
</g>
<!-- r3_node_20 -->
<g id="node12" class="node">
<title>r3_node_20</title>
<ellipse fill="none" stroke="black" cx="785.93" cy="-18" rx="54.93" ry="18"/>
<text text-anchor="middle" x="785.93" y="-12.95" font-family="Times,serif" font-size="14.00">r3_node_20</text>
</g>
<!-- r3_node_14&#45;&gt;r3_node_20 -->
<g id="edge9" class="edge">
<title>r3_node_14&#45;&gt;r3_node_20</title>
<path fill="none" stroke="black" d="M877.37,-297.72C904.89,-290.86 936.93,-277.6 953.93,-252 962.79,-238.67 962.27,-229.66 953.93,-216 935.71,-186.14 910.96,-202.22 883.93,-180 852.41,-154.08 848.29,-142.78 826.93,-108 814.97,-88.52 804.28,-64.98 796.81,-47"/>
<polygon fill="black" stroke="black" points="800.06,-45.7 793.06,-37.75 793.57,-48.33 800.06,-45.7"/>
</g>
<!-- r3_node_11 -->
<g id="node14" class="node">
<title>r3_node_11</title>
<ellipse fill="none" stroke="black" cx="1285.93" cy="-234" rx="54.93" ry="18"/>
<text text-anchor="middle" x="1285.93" y="-228.95" font-family="Times,serif" font-size="14.00">r3_node_11</text>
</g>
<!-- r3_node_18 -->
<g id="node15" class="node">
<title>r3_node_18</title>
<ellipse fill="none" stroke="black" cx="1051.93" cy="-90" rx="54.93" ry="18"/>
<text text-anchor="middle" x="1051.93" y="-84.95" font-family="Times,serif" font-size="14.00">r3_node_18</text>
</g>
<!-- r3_node_11&#45;&gt;r3_node_18 -->
<g id="edge13" class="edge">
<title>r3_node_11&#45;&gt;r3_node_18</title>
<path fill="none" stroke="black" d="M1250.79,-219.73C1226.75,-210.05 1194.54,-195.89 1167.93,-180 1135.56,-160.67 1101.7,-133.81 1078.98,-114.66"/>
<polygon fill="black" stroke="black" points="1081.29,-112.03 1071.41,-108.21 1076.75,-117.36 1081.29,-112.03"/>
</g>
<!-- r3_node_11&#45;&gt;r3_node_19 -->
<g id="edge14" class="edge">
<title>r3_node_11&#45;&gt;r3_node_19</title>
<path fill="none" stroke="black" d="M1235.42,-226.63C1208.81,-223.33 1175.62,-219.31 1145.93,-216 981.01,-197.6 786.42,-178.5 688.3,-169.04"/>
<polygon fill="black" stroke="black" points="688.9,-165.59 678.61,-168.11 688.23,-172.55 688.9,-165.59"/>
</g>
<!-- r3_node_9 -->
<g id="node17" class="node">
<title>r3_node_9</title>
<ellipse fill="none" stroke="black" cx="1171.93" cy="-306" rx="50.33" ry="18"/>
<text text-anchor="middle" x="1171.93" y="-300.95" font-family="Times,serif" font-size="14.00">r3_node_9</text>
</g>
<!-- r3_node_11&#45;&gt;r3_node_9 -->
<g id="edge15" class="edge">
<title>r3_node_11&#45;&gt;r3_node_9</title>
<path fill="none" stroke="black" d="M1265.49,-251.1C1250.16,-261.23 1228.89,-274.36 1210.45,-285.13"/>
<polygon fill="black" stroke="black" points="1208.78,-282.05 1201.86,-290.08 1212.28,-288.12 1208.78,-282.05"/>
</g>
<!-- r3_node_9&#45;&gt;r3_node_29 -->
<g id="edge29" class="edge">
<title>r3_node_9&#45;&gt;r3_node_29</title>
<path fill="none" stroke="black" d="M1171.71,-287.74C1170.49,-267.71 1165.39,-235.02 1145.93,-216 1111.13,-181.98 1056.99,-169.18 1014.12,-164.64"/>
<polygon fill="black" stroke="black" points="1014.7,-161.18 1004.43,-163.75 1014.06,-168.15 1014.7,-161.18"/>
</g>
<!-- r3_node_9&#45;&gt;r3_node_11 -->
<g id="edge32" class="edge">
<title>r3_node_9&#45;&gt;r3_node_11</title>
<path fill="none" stroke="black" d="M1192.04,-289.12C1207.18,-279.11 1228.23,-266.1 1246.62,-255.34"/>
<polygon fill="black" stroke="black" points="1248.28,-258.42 1255.19,-250.38 1244.78,-252.36 1248.28,-258.42"/>
</g>
<!-- r3_node_1 -->
<g id="node19" class="node">
<title>r3_node_1</title>
<ellipse fill="none" stroke="black" cx="1446.93" cy="-234" rx="50.33" ry="18"/>
<text text-anchor="middle" x="1446.93" y="-228.95" font-family="Times,serif" font-size="14.00">r3_node_1</text>
</g>
<!-- r3_node_9&#45;&gt;r3_node_1 -->
<g id="edge30" class="edge">
<title>r3_node_9&#45;&gt;r3_node_1</title>
<path fill="none" stroke="black" d="M1209.9,-293.91C1250.59,-283.3 1316.7,-266.79 1373.93,-252 1380.21,-250.38 1386.82,-248.65 1393.42,-246.93"/>
<polygon fill="black" stroke="black" points="1394.17,-250.35 1402.98,-244.46 1392.42,-243.58 1394.17,-250.35"/>
</g>
<!-- r3_node_21 -->
<g id="node21" class="node">
<title>r3_node_21</title>
<ellipse fill="none" stroke="black" cx="1231.93" cy="-162" rx="54.93" ry="18"/>
<text text-anchor="middle" x="1231.93" y="-156.95" font-family="Times,serif" font-size="14.00">r3_node_21</text>
</g>
<!-- r3_node_9&#45;&gt;r3_node_21 -->
<g id="edge31" class="edge">
<title>r3_node_9&#45;&gt;r3_node_21</title>
<path fill="none" stroke="black" d="M1217.39,-297.75C1264.68,-289.18 1334.03,-273.33 1349.93,-252 1359.5,-239.17 1358.63,-229.43 1349.93,-216 1336.57,-195.34 1313.02,-182.66 1290.47,-174.91"/>
<polygon fill="black" stroke="black" points="1291.56,-171.58 1280.97,-171.94 1289.47,-178.26 1291.56,-171.58"/>
</g>
<!-- r3_node_6 -->
<g id="node18" class="node">
<title>r3_node_6</title>
<ellipse fill="none" stroke="black" cx="1396.93" cy="-162" rx="50.33" ry="18"/>
<text text-anchor="middle" x="1396.93" y="-156.95" font-family="Times,serif" font-size="14.00">r3_node_6</text>
</g>
<!-- r3_node_6&#45;&gt;r3_node_20 -->
<g id="edge18" class="edge">
<title>r3_node_6&#45;&gt;r3_node_20</title>
<path fill="none" stroke="black" d="M1362.79,-148.38C1310.35,-129.42 1206.55,-93.5 1115.93,-72 1023.87,-50.15 915.2,-34.63 848.43,-26.25"/>
<polygon fill="black" stroke="black" points="849.13,-22.81 838.77,-25.05 848.27,-29.75 849.13,-22.81"/>
</g>
<!-- r3_node_6&#45;&gt;r3_node_18 -->
<g id="edge17" class="edge">
<title>r3_node_6&#45;&gt;r3_node_18</title>
<path fill="none" stroke="black" d="M1357.86,-150.31C1349.34,-148.12 1340.35,-145.9 1331.93,-144 1256.3,-126.97 1168.34,-110.93 1111.49,-101.05"/>
<polygon fill="black" stroke="black" points="1112.14,-97.61 1101.69,-99.36 1110.95,-104.51 1112.14,-97.61"/>
</g>
<!-- r3_node_6&#45;&gt;r3_node_1 -->
<g id="edge16" class="edge">
<title>r3_node_6&#45;&gt;r3_node_1</title>
<path fill="none" stroke="black" d="M1414.26,-179.14C1420.9,-187.18 1428.25,-197.1 1434.39,-206.23"/>
<polygon fill="black" stroke="black" points="1431.31,-207.91 1439.67,-214.42 1437.2,-204.12 1431.31,-207.91"/>
</g>
<!-- r3_node_26 -->
<g id="node20" class="node">
<title>r3_node_26</title>
<ellipse fill="none" stroke="black" cx="923.93" cy="-90" rx="54.93" ry="18"/>
<text text-anchor="middle" x="923.93" y="-84.95" font-family="Times,serif" font-size="14.00">r3_node_26</text>
</g>
<!-- r3_node_6&#45;&gt;r3_node_26 -->
<g id="edge19" class="edge">
<title>r3_node_6&#45;&gt;r3_node_26</title>
<path fill="none" stroke="black" d="M1358.65,-149.96C1349.93,-147.73 1340.66,-145.59 1331.93,-144 1180.69,-116.47 1139.12,-135.82 987.93,-108 983.67,-107.22 979.27,-106.29 974.87,-105.29"/>
<polygon fill="black" stroke="black" points="976.02,-101.97 965.47,-103.02 974.37,-108.77 976.02,-101.97"/>
</g>
<!-- r3_node_1&#45;&gt;r3_node_27 -->
<g id="edge35" class="edge">
<title>r3_node_1&#45;&gt;r3_node_27</title>
<path fill="none" stroke="black" d="M1414.77,-219.96C1392.42,-210.29 1362.39,-196.04 1337.93,-180 1317.38,-166.51 1318.62,-153.47 1295.93,-144 1206.22,-106.54 956.77,-116.62 859.93,-108 821.87,-104.61 779.26,-100.55 745.28,-97.25"/>
<polygon fill="black" stroke="black" points="745.9,-93.79 735.61,-96.31 745.22,-100.76 745.9,-93.79"/>
</g>
<!-- r3_node_1&#45;&gt;r3_node_9 -->
<g id="edge36" class="edge">
<title>r3_node_1&#45;&gt;r3_node_9</title>
<path fill="none" stroke="black" d="M1411.1,-246.97C1404.74,-248.67 1398.17,-250.39 1391.93,-252 1335.47,-266.59 1270.35,-282.86 1225.59,-293.48"/>
<polygon fill="black" stroke="black" points="1225.07,-290.01 1216.14,-295.7 1226.68,-296.82 1225.07,-290.01"/>
</g>
<!-- r3_node_1&#45;&gt;r3_node_6 -->
<g id="edge33" class="edge">
<title>r3_node_1&#45;&gt;r3_node_6</title>
<path fill="none" stroke="black" d="M1429.54,-216.76C1422.87,-208.7 1415.5,-198.74 1409.36,-189.6"/>
<polygon fill="black" stroke="black" points="1412.44,-187.92 1404.09,-181.4 1406.55,-191.7 1412.44,-187.92"/>
</g>
<!-- r3_node_1&#45;&gt;r3_node_21 -->
<g id="edge34" class="edge">
<title>r3_node_1&#45;&gt;r3_node_21</title>
<path fill="none" stroke="black" d="M1410.46,-221.13C1374.84,-209.53 1320.38,-191.8 1280.98,-178.97"/>
<polygon fill="black" stroke="black" points="1282.07,-175.64 1271.47,-175.87 1279.9,-182.3 1282.07,-175.64"/>
</g>
<!-- r3_node_24 -->
<g id="node22" class="node">
<title>r3_node_24</title>
<ellipse fill="none" stroke="black" cx="839.93" cy="-234" rx="54.93" ry="18"/>
<text text-anchor="middle" x="839.93" y="-228.95" font-family="Times,serif" font-size="14.00">r3_node_24</text>
</g>
<!-- r3_node_15 -->
<g id="node23" class="node">
<title>r3_node_15</title>
<ellipse fill="none" stroke="black" cx="1017.93" cy="-306" rx="54.93" ry="18"/>
<text text-anchor="middle" x="1017.93" y="-300.95" font-family="Times,serif" font-size="14.00">r3_node_15</text>
</g>
<!-- r3_node_15&#45;&gt;r3_node_20 -->
<g id="edge21" class="edge">
<title>r3_node_15&#45;&gt;r3_node_20</title>
<path fill="none" stroke="black" d="M1067.81,-298.01C1095.82,-291.26 1128.56,-278 1145.93,-252 1154.82,-238.7 1153.26,-230.22 1145.93,-216 1133.31,-191.5 1070.26,-154.88 1044.93,-144 967.97,-110.94 932.01,-150.68 859.93,-108 852.96,-103.87 825.37,-69.58 805.93,-44.79"/>
<polygon fill="black" stroke="black" points="808.78,-42.76 799.87,-37.04 803.27,-47.07 808.78,-42.76"/>
</g>
<!-- r3_node_12 -->
<g id="node24" class="node">
<title>r3_node_12</title>
<ellipse fill="none" stroke="black" cx="1081.93" cy="-234" rx="54.93" ry="18"/>
<text text-anchor="middle" x="1081.93" y="-228.95" font-family="Times,serif" font-size="14.00">r3_node_12</text>
</g>
<!-- r3_node_15&#45;&gt;r3_node_12 -->
<g id="edge20" class="edge">
<title>r3_node_15&#45;&gt;r3_node_12</title>
<path fill="none" stroke="black" d="M1027.55,-288.05C1034.63,-279.29 1044.36,-268.45 1053.69,-258.86"/>
<polygon fill="black" stroke="black" points="1056.04,-261.45 1060.64,-251.9 1051.09,-256.5 1056.04,-261.45"/>
</g>
<!-- r3_node_12&#45;&gt;r3_node_29 -->
<g id="edge49" class="edge">
<title>r3_node_12&#45;&gt;r3_node_29</title>
<path fill="none" stroke="black" d="M1053.52,-218.15C1033.97,-207.95 1007.79,-194.27 986.38,-183.09"/>
<polygon fill="black" stroke="black" points="988.14,-180.05 977.65,-178.52 984.9,-186.26 988.14,-180.05"/>
</g>
<!-- r3_node_12&#45;&gt;r3_node_15 -->
<g id="edge48" class="edge">
<title>r3_node_12&#45;&gt;r3_node_15</title>
<path fill="none" stroke="black" d="M1072.44,-251.8C1065.37,-260.56 1055.62,-271.43 1046.26,-281.06"/>
<polygon fill="black" stroke="black" points="1043.88,-278.5 1039.29,-288.04 1048.83,-283.44 1043.88,-278.5"/>
</g>
<!-- r3_node_17 -->
<g id="node26" class="node">
<title>r3_node_17</title>
<ellipse fill="none" stroke="black" cx="648.93" cy="-18" rx="54.93" ry="18"/>
<text text-anchor="middle" x="648.93" y="-12.95" font-family="Times,serif" font-size="14.00">r3_node_17</text>
</g>
<!-- r3_node_12&#45;&gt;r3_node_17 -->
<g id="edge50" class="edge">
<title>r3_node_12&#45;&gt;r3_node_17</title>
<path fill="none" stroke="black" d="M1073.4,-215.87C1062.22,-195.34 1040.62,-161.52 1011.93,-144 940.45,-100.34 906.24,-134.98 826.93,-108 799.15,-98.55 729.86,-62.45 686.38,-39.23"/>
<polygon fill="black" stroke="black" points="688.26,-36.27 677.79,-34.63 684.95,-42.44 688.26,-36.27"/>
</g>
<!-- r3_node_16&#45;&gt;r3_node_13 -->
<g id="edge25" class="edge">
<title>r3_node_16&#45;&gt;r3_node_13</title>
<path fill="none" stroke="black" d="M354.61,-108.1C354.85,-115.45 354.47,-124.24 353.61,-132.53"/>
<polygon fill="black" stroke="black" points="350.18,-131.82 352.29,-142.2 357.11,-132.76 350.18,-131.82"/>
</g>
<!-- r3_node_16&#45;&gt;r3_node_25 -->
<g id="edge23" class="edge">
<title>r3_node_16&#45;&gt;r3_node_25</title>
<path fill="none" stroke="black" d="M347.21,-71.7C346.06,-64.32 344.67,-55.52 343.37,-47.25"/>
<polygon fill="black" stroke="black" points="346.87,-46.93 341.86,-37.6 339.95,-48.02 346.87,-46.93"/>
</g>
<!-- r3_node_16&#45;&gt;r3_node_30 -->
<g id="edge24" class="edge">
<title>r3_node_16&#45;&gt;r3_node_30</title>
<path fill="none" stroke="black" d="M380.9,-74.83C404.05,-64.24 435.94,-49.65 461.32,-38.04"/>
<polygon fill="black" stroke="black" points="462.74,-41.24 470.38,-33.89 459.83,-34.87 462.74,-41.24"/>
</g>
<!-- r3_node_16&#45;&gt;r3_node_17 -->
<g id="edge22" class="edge">
<title>r3_node_16&#45;&gt;r3_node_17</title>
<path fill="none" stroke="black" d="M391.19,-77.8C398.74,-75.82 406.57,-73.81 413.93,-72 474.85,-57.05 545.05,-41.42 592.74,-31.05"/>
<polygon fill="black" stroke="black" points="593.25,-34.52 602.29,-28.98 591.77,-27.68 593.25,-34.52"/>
</g>
<!-- r3_node_2 -->
<g id="node28" class="node">
<title>r3_node_2</title>
<ellipse fill="none" stroke="black" cx="383.93" cy="-234" rx="50.33" ry="18"/>
<text text-anchor="middle" x="383.93" y="-228.95" font-family="Times,serif" font-size="14.00">r3_node_2</text>
</g>
<!-- r3_node_2&#45;&gt;r3_node_25 -->
<g id="edge38" class="edge">
<title>r3_node_2&#45;&gt;r3_node_25</title>
<path fill="none" stroke="black" d="M343.01,-223.16C320.49,-215.43 294.44,-202.15 280.93,-180 272.4,-166 276.59,-92.52 285.93,-72 291.04,-60.78 299.63,-50.61 308.42,-42.24"/>
<polygon fill="black" stroke="black" points="310.51,-45.06 315.67,-35.81 305.87,-39.83 310.51,-45.06"/>
</g>
<!-- r3_node_2&#45;&gt;r3_node_23 -->
<g id="edge37" class="edge">
<title>r3_node_2&#45;&gt;r3_node_23</title>
<path fill="none" stroke="black" d="M395.09,-216.15C411.27,-191.71 441.41,-146.17 460.53,-117.29"/>
<polygon fill="black" stroke="black" points="463.36,-119.36 465.96,-109.09 457.52,-115.49 463.36,-119.36"/>
</g>
<!-- r3_node_3 -->
<g id="node29" class="node">
<title>r3_node_3</title>
<ellipse fill="none" stroke="black" cx="421.93" cy="-306" rx="50.33" ry="18"/>
<text text-anchor="middle" x="421.93" y="-300.95" font-family="Times,serif" font-size="14.00">r3_node_3</text>
</g>
<!-- r3_node_3&#45;&gt;r3_node_27 -->
<g id="edge41" class="edge">
<title>r3_node_3&#45;&gt;r3_node_27</title>
<path fill="none" stroke="black" d="M434.93,-288.13C463.44,-251.43 531.29,-165.87 560.93,-144 582.44,-128.13 609.44,-115.73 632.48,-106.92"/>
<polygon fill="black" stroke="black" points="633.5,-110.28 641.67,-103.53 631.08,-103.71 633.5,-110.28"/>
</g>
<!-- r3_node_3&#45;&gt;r3_node_26 -->
<g id="edge40" class="edge">
<title>r3_node_3&#45;&gt;r3_node_26</title>
<path fill="none" stroke="black" d="M468.87,-299.35C518.27,-292.34 597.65,-277.99 661.93,-252 752.69,-215.31 847.86,-148.58 894.55,-113.67"/>
<polygon fill="black" stroke="black" points="896.4,-116.65 902.28,-107.83 892.19,-111.06 896.4,-116.65"/>
</g>
<!-- r3_node_3&#45;&gt;r3_node_23 -->
<g id="edge39" class="edge">
<title>r3_node_3&#45;&gt;r3_node_23</title>
<path fill="none" stroke="black" d="M429.46,-288.07C433.83,-277.78 439.19,-264.31 442.93,-252 456.83,-206.38 467.47,-151.91 473.2,-119.45"/>
<polygon fill="black" stroke="black" points="476.64,-120.1 474.9,-109.65 469.74,-118.9 476.64,-120.1"/>
</g>
<!-- r3_node_8 -->
<g id="node30" class="node">
<title>r3_node_8</title>
<ellipse fill="none" stroke="black" cx="610.93" cy="-306" rx="50.33" ry="18"/>
<text text-anchor="middle" x="610.93" y="-300.95" font-family="Times,serif" font-size="14.00">r3_node_8</text>
</g>
<!-- r3_node_8&#45;&gt;r3_node_30 -->
<g id="edge47" class="edge">
<title>r3_node_8&#45;&gt;r3_node_30</title>
<path fill="none" stroke="black" d="M630.98,-289.35C651.82,-271.14 679.18,-240.45 661.93,-216 634.47,-177.05 591.68,-216.41 560.93,-180 529.49,-142.76 561.1,-116.81 541.93,-72 537.76,-62.23 531.47,-52.57 525.15,-44.22"/>
<polygon fill="black" stroke="black" points="528.04,-42.23 519.06,-36.6 522.57,-46.6 528.04,-42.23"/>
</g>
<!-- r3_node_8&#45;&gt;r3_node_19 -->
<g id="edge45" class="edge">
<title>r3_node_8&#45;&gt;r3_node_19</title>
<path fill="none" stroke="black" d="M645.8,-292.6C663.93,-284.16 684.44,-271.03 694.93,-252 702.66,-237.99 702.06,-230.33 694.93,-216 688.35,-202.75 676.69,-191.93 664.76,-183.6"/>
<polygon fill="black" stroke="black" points="666.8,-180.75 656.5,-178.28 663.01,-186.64 666.8,-180.75"/>
</g>
<!-- r3_node_8&#45;&gt;r3_node_24 -->
<g id="edge46" class="edge">
<title>r3_node_8&#45;&gt;r3_node_24</title>
<path fill="none" stroke="black" d="M648.24,-293.6C686.75,-281.83 747.06,-263.39 789.74,-250.34"/>
<polygon fill="black" stroke="black" points="790.74,-253.7 799.28,-247.43 788.7,-247 790.74,-253.7"/>
</g>
</g>
</svg>
