<?xml version="1.0" encoding="UTF-8" standalone="no"?>
<!DOCTYPE svg PUBLIC "-//W3C//DTD SVG 1.1//EN"
 "http://www.w3.org/Graphics/SVG/1.1/DTD/svg11.dtd">
<!-- Generated by graphviz version 12.2.1 (20241206.2353)
 -->
<!-- Pages: 1 -->
<svg width="806pt" height="332pt"
 viewBox="0.00 0.00 806.10 332.00" xmlns="http://www.w3.org/2000/svg" xmlns:xlink="http://www.w3.org/1999/xlink">
<g id="graph0" class="graph" transform="scale(1 1) rotate(0) translate(4 328)">
<polygon fill="white" stroke="none" points="-4,4 -4,-328 802.1,-328 802.1,4 -4,4"/>
<!-- r3_node_10 -->
<g id="node1" class="node">
<title>r3_node_10</title>
<ellipse fill="none" stroke="black" cx="54.93" cy="-306" rx="54.93" ry="18"/>
<text text-anchor="middle" x="54.93" y="-300.95" font-family="Times,serif" font-size="14.00">r3_node_10</text>
</g>
<!-- r3_node_5 -->
<g id="node2" class="node">
<title>r3_node_5</title>
<ellipse fill="none" stroke="black" cx="54.93" cy="-18" rx="50.33" ry="18"/>
<text text-anchor="middle" x="54.93" y="-12.95" font-family="Times,serif" font-size="14.00">r3_node_5</text>
</g>
<!-- r3_node_10&#45;&gt;r3_node_5 -->
<g id="edge1" class="edge">
<title>r3_node_10&#45;&gt;r3_node_5</title>
<path fill="none" stroke="black" d="M42.82,-288.43C39.09,-278.05 36.2,-264.34 34.93,-252 27.39,-178.54 36.18,-91.51 45.11,-47.51"/>
<polygon fill="black" stroke="black" points="48.52,-48.29 47.29,-37.77 41.69,-46.77 48.52,-48.29"/>
</g>
<!-- r3_node_18 -->
<g id="node3" class="node">
<title>r3_node_18</title>
<ellipse fill="none" stroke="black" cx="580.93" cy="-18" rx="54.93" ry="18"/>
<text text-anchor="middle" x="580.93" y="-12.95" font-family="Times,serif" font-size="14.00">r3_node_18</text>
</g>
<!-- r3_node_10&#45;&gt;r3_node_18 -->
<g id="edge2" class="edge">
<title>r3_node_10&#45;&gt;r3_node_18</title>
<path fill="none" stroke="black" d="M109.18,-302.36C256.48,-294.12 659.45,-264.21 756.93,-180 794.3,-147.73 813.09,-111.09 782.93,-72 765.81,-49.8 695.66,-35.08 642.79,-26.91"/>
<polygon fill="black" stroke="black" points="643.37,-23.45 632.96,-25.44 642.33,-30.38 643.37,-23.45"/>
</g>
<!-- r3_node_7 -->
<g id="node4" class="node">
<title>r3_node_7</title>
<ellipse fill="none" stroke="black" cx="223.93" cy="-234" rx="50.33" ry="18"/>
<text text-anchor="middle" x="223.93" y="-228.95" font-family="Times,serif" font-size="14.00">r3_node_7</text>
</g>
<!-- r3_node_10&#45;&gt;r3_node_7 -->
<g id="edge3" class="edge">
<title>r3_node_10&#45;&gt;r3_node_7</title>
<path fill="none" stroke="black" d="M84.36,-290.5C110.36,-279.12 148.53,-263.28 178.43,-251.43"/>
<polygon fill="black" stroke="black" points="179.61,-254.73 187.63,-247.82 177.05,-248.22 179.61,-254.73"/>
</g>
<!-- r3_node_3 -->
<g id="node5" class="node">
<title>r3_node_3</title>
<ellipse fill="none" stroke="black" cx="102.93" cy="-234" rx="50.33" ry="18"/>
<text text-anchor="middle" x="102.93" y="-228.95" font-family="Times,serif" font-size="14.00">r3_node_3</text>
</g>
<!-- r3_node_10&#45;&gt;r3_node_3 -->
<g id="edge4" class="edge">
<title>r3_node_10&#45;&gt;r3_node_3</title>
<path fill="none" stroke="black" d="M60.88,-287.7C65.71,-279.4 72.44,-269.31 79.15,-260.19"/>
<polygon fill="black" stroke="black" points="81.86,-262.42 85.15,-252.35 76.3,-258.16 81.86,-262.42"/>
</g>
<!-- r3_node_8 -->
<g id="node6" class="node">
<title>r3_node_8</title>
<ellipse fill="none" stroke="black" cx="343.93" cy="-234" rx="50.33" ry="18"/>
<text text-anchor="middle" x="343.93" y="-228.95" font-family="Times,serif" font-size="14.00">r3_node_8</text>
</g>
<!-- r3_node_10&#45;&gt;r3_node_8 -->
<g id="edge5" class="edge">
<title>r3_node_10&#45;&gt;r3_node_8</title>
<path fill="none" stroke="black" d="M97.47,-294.14C141.74,-283.83 212.71,-267.64 273.93,-252 279.66,-250.54 285.67,-248.94 291.68,-247.33"/>
<polygon fill="black" stroke="black" points="292.21,-250.81 300.96,-244.83 290.39,-244.05 292.21,-250.81"/>
</g>
<!-- r3_node_5&#45;&gt;r3_node_10 -->
<g id="edge15" class="edge">
<title>r3_node_5&#45;&gt;r3_node_10</title>
<path fill="none" stroke="black" d="M57.1,-36.29C55.97,-75.02 44.68,-171.63 52.93,-252 53.76,-260.07 55.28,-268.72 56.59,-276.65"/>
<polygon fill="black" stroke="black" points="53.12,-277.09 58.07,-286.46 60.04,-276.05 53.12,-277.09"/>
</g>
<!-- r3_node_7&#45;&gt;r3_node_10 -->
<g id="edge10" class="edge">
<title>r3_node_7&#45;&gt;r3_node_10</title>
<path fill="none" stroke="black" d="M195.2,-249.2C169.61,-260.41 131.88,-276.09 101.94,-287.97"/>
<polygon fill="black" stroke="black" points="100.73,-284.69 92.7,-291.61 103.29,-291.2 100.73,-284.69"/>
</g>
<!-- r3_node_12 -->
<g id="node7" class="node">
<title>r3_node_12</title>
<ellipse fill="none" stroke="black" cx="188.93" cy="-162" rx="54.93" ry="18"/>
<text text-anchor="middle" x="188.93" y="-156.95" font-family="Times,serif" font-size="14.00">r3_node_12</text>
</g>
<!-- r3_node_7&#45;&gt;r3_node_12 -->
<g id="edge9" class="edge">
<title>r3_node_7&#45;&gt;r3_node_12</title>
<path fill="none" stroke="black" d="M209.8,-216.41C205.16,-208.79 200.27,-199.55 196.26,-190.9"/>
<polygon fill="black" stroke="black" points="199.52,-189.62 192.33,-181.84 193.1,-192.4 199.52,-189.62"/>
</g>
<!-- r3_node_3&#45;&gt;r3_node_10 -->
<g id="edge34" class="edge">
<title>r3_node_3&#45;&gt;r3_node_10</title>
<path fill="none" stroke="black" d="M97.09,-252.12C92.27,-260.41 85.54,-270.53 78.81,-279.69"/>
<polygon fill="black" stroke="black" points="76.08,-277.49 72.79,-287.56 81.64,-281.74 76.08,-277.49"/>
</g>
<!-- r3_node_9 -->
<g id="node17" class="node">
<title>r3_node_9</title>
<ellipse fill="none" stroke="black" cx="193.93" cy="-18" rx="50.33" ry="18"/>
<text text-anchor="middle" x="193.93" y="-12.95" font-family="Times,serif" font-size="14.00">r3_node_9</text>
</g>
<!-- r3_node_3&#45;&gt;r3_node_9 -->
<g id="edge35" class="edge">
<title>r3_node_3&#45;&gt;r3_node_9</title>
<path fill="none" stroke="black" d="M99.11,-215.86C100.14,-197.63 106.47,-168.16 115.93,-144 130.14,-107.73 152.91,-68.89 170.45,-44.3"/>
<polygon fill="black" stroke="black" points="173.08,-46.63 176.23,-36.52 167.46,-42.46 173.08,-46.63"/>
</g>
<!-- r3_node_8&#45;&gt;r3_node_10 -->
<g id="edge28" class="edge">
<title>r3_node_8&#45;&gt;r3_node_10</title>
<path fill="none" stroke="black" d="M309.26,-247.4C303.5,-248.98 297.58,-250.56 291.93,-252 231.24,-267.5 160.98,-283.55 112.71,-293.87"/>
<polygon fill="black" stroke="black" points="112.07,-290.42 103.02,-295.92 113.53,-297.27 112.07,-290.42"/>
</g>
<!-- r3_node_4 -->
<g id="node9" class="node">
<title>r3_node_4</title>
<ellipse fill="none" stroke="black" cx="381.93" cy="-162" rx="50.33" ry="18"/>
<text text-anchor="middle" x="381.93" y="-156.95" font-family="Times,serif" font-size="14.00">r3_node_4</text>
</g>
<!-- r3_node_8&#45;&gt;r3_node_4 -->
<g id="edge27" class="edge">
<title>r3_node_8&#45;&gt;r3_node_4</title>
<path fill="none" stroke="black" d="M347.41,-215.7C350.93,-207.7 355.97,-198.02 361.18,-189.15"/>
<polygon fill="black" stroke="black" points="364,-191.26 366.27,-180.91 358.04,-187.58 364,-191.26"/>
</g>
<!-- r3_node_14 -->
<g id="node12" class="node">
<title>r3_node_14</title>
<ellipse fill="none" stroke="black" cx="563.93" cy="-162" rx="54.93" ry="18"/>
<text text-anchor="middle" x="563.93" y="-156.95" font-family="Times,serif" font-size="14.00">r3_node_14</text>
</g>
<!-- r3_node_8&#45;&gt;r3_node_14 -->
<g id="edge24" class="edge">
<title>r3_node_8&#45;&gt;r3_node_14</title>
<path fill="none" stroke="black" d="M377.95,-220.49C413.84,-208.49 470.65,-190.38 512.1,-177.71"/>
<polygon fill="black" stroke="black" points="513.09,-181.06 521.64,-174.8 511.05,-174.37 513.09,-181.06"/>
</g>
<!-- r3_node_16 -->
<g id="node14" class="node">
<title>r3_node_16</title>
<ellipse fill="none" stroke="black" cx="692.93" cy="-162" rx="54.93" ry="18"/>
<text text-anchor="middle" x="692.93" y="-156.95" font-family="Times,serif" font-size="14.00">r3_node_16</text>
</g>
<!-- r3_node_8&#45;&gt;r3_node_16 -->
<g id="edge25" class="edge">
<title>r3_node_8&#45;&gt;r3_node_16</title>
<path fill="none" stroke="black" d="M387.39,-224.78C441.82,-215.17 537.44,-198.24 618.93,-180 624.84,-178.68 631.02,-177.19 637.2,-175.67"/>
<polygon fill="black" stroke="black" points="637.93,-179.09 646.78,-173.27 636.23,-172.3 637.93,-179.09"/>
</g>
<!-- r3_node_2 -->
<g id="node15" class="node">
<title>r3_node_2</title>
<ellipse fill="none" stroke="black" cx="422.93" cy="-90" rx="50.33" ry="18"/>
<text text-anchor="middle" x="422.93" y="-84.95" font-family="Times,serif" font-size="14.00">r3_node_2</text>
</g>
<!-- r3_node_8&#45;&gt;r3_node_2 -->
<g id="edge26" class="edge">
<title>r3_node_8&#45;&gt;r3_node_2</title>
<path fill="none" stroke="black" d="M378.96,-220.79C398.14,-212.69 420.19,-199.81 431.93,-180 442.92,-161.47 437.05,-137.37 430.56,-118.92"/>
<polygon fill="black" stroke="black" points="433.89,-117.82 427.11,-109.68 427.33,-120.27 433.89,-117.82"/>
</g>
<!-- r3_node_11 -->
<g id="node16" class="node">
<title>r3_node_11</title>
<ellipse fill="none" stroke="black" cx="326.93" cy="-18" rx="54.93" ry="18"/>
<text text-anchor="middle" x="326.93" y="-12.95" font-family="Times,serif" font-size="14.00">r3_node_11</text>
</g>
<!-- r3_node_8&#45;&gt;r3_node_11 -->
<g id="edge29" class="edge">
<title>r3_node_8&#45;&gt;r3_node_11</title>
<path fill="none" stroke="black" d="M322.79,-217.4C287.56,-186.99 221.36,-121.56 215.93,-108 209.99,-93.14 207.63,-85.68 215.93,-72 227.76,-52.52 249.34,-39.87 270.41,-31.84"/>
<polygon fill="black" stroke="black" points="271.27,-35.24 279.57,-28.65 268.97,-28.63 271.27,-35.24"/>
</g>
<!-- r3_node_12&#45;&gt;r3_node_7 -->
<g id="edge6" class="edge">
<title>r3_node_12&#45;&gt;r3_node_7</title>
<path fill="none" stroke="black" d="M203.09,-179.62C207.75,-187.27 212.65,-196.55 216.66,-205.22"/>
<polygon fill="black" stroke="black" points="213.41,-206.52 220.6,-214.31 219.84,-203.74 213.41,-206.52"/>
</g>
<!-- r3_node_13 -->
<g id="node8" class="node">
<title>r3_node_13</title>
<ellipse fill="none" stroke="black" cx="299.93" cy="-90" rx="54.93" ry="18"/>
<text text-anchor="middle" x="299.93" y="-84.95" font-family="Times,serif" font-size="14.00">r3_node_13</text>
</g>
<!-- r3_node_13&#45;&gt;r3_node_18 -->
<g id="edge8" class="edge">
<title>r3_node_13&#45;&gt;r3_node_18</title>
<path fill="none" stroke="black" d="M341.55,-77.79C349,-75.83 356.69,-73.83 363.93,-72 430.4,-55.2 447.37,-52.43 513.93,-36 518.46,-34.88 523.15,-33.72 527.85,-32.54"/>
<polygon fill="black" stroke="black" points="528.47,-35.99 537.31,-30.15 526.76,-29.2 528.47,-35.99"/>
</g>
<!-- r3_node_13&#45;&gt;r3_node_4 -->
<g id="edge7" class="edge">
<title>r3_node_13&#45;&gt;r3_node_4</title>
<path fill="none" stroke="black" d="M323.82,-106.51C335.26,-115.38 348.77,-126.7 359.96,-136.72"/>
<polygon fill="black" stroke="black" points="357.49,-139.21 367.23,-143.39 362.22,-134.05 357.49,-139.21"/>
</g>
<!-- r3_node_4&#45;&gt;r3_node_8 -->
<g id="edge16" class="edge">
<title>r3_node_4&#45;&gt;r3_node_8</title>
<path fill="none" stroke="black" d="M378.39,-180.45C374.91,-188.36 369.95,-197.88 364.81,-206.63"/>
<polygon fill="black" stroke="black" points="361.85,-204.77 359.57,-215.12 367.8,-208.45 361.85,-204.77"/>
</g>
<!-- r3_node_4&#45;&gt;r3_node_13 -->
<g id="edge17" class="edge">
<title>r3_node_4&#45;&gt;r3_node_13</title>
<path fill="none" stroke="black" d="M358.46,-145.81C347.06,-136.99 333.52,-125.67 322.28,-115.6"/>
<polygon fill="black" stroke="black" points="324.69,-113.07 314.95,-108.9 319.96,-118.23 324.69,-113.07"/>
</g>
<!-- r3_node_1 -->
<g id="node10" class="node">
<title>r3_node_1</title>
<ellipse fill="none" stroke="black" cx="454.93" cy="-18" rx="50.33" ry="18"/>
<text text-anchor="middle" x="454.93" y="-12.95" font-family="Times,serif" font-size="14.00">r3_node_1</text>
</g>
<!-- r3_node_4&#45;&gt;r3_node_1 -->
<g id="edge18" class="edge">
<title>r3_node_4&#45;&gt;r3_node_1</title>
<path fill="none" stroke="black" d="M341.73,-150.91C297.95,-138.4 233.63,-117.55 226.93,-108 217.75,-94.9 216.98,-84.53 226.93,-72 270.92,-16.62 313.31,-53.08 381.93,-36 388.29,-34.42 395,-32.7 401.67,-30.98"/>
<polygon fill="black" stroke="black" points="402.54,-34.37 411.35,-28.49 400.79,-27.59 402.54,-34.37"/>
</g>
<!-- r3_node_1&#45;&gt;r3_node_4 -->
<g id="edge11" class="edge">
<title>r3_node_1&#45;&gt;r3_node_4</title>
<path fill="none" stroke="black" d="M419.13,-31.07C412.76,-32.76 406.18,-34.45 399.93,-36 331.31,-53.08 288.92,-16.62 244.93,-72 234.98,-84.53 235.75,-94.9 244.93,-108 250.67,-116.19 298.79,-132.69 336.49,-145.11"/>
<polygon fill="black" stroke="black" points="335.27,-148.39 345.86,-148.19 337.46,-141.74 335.27,-148.39"/>
</g>
<!-- r3_node_15 -->
<g id="node11" class="node">
<title>r3_node_15</title>
<ellipse fill="none" stroke="black" cx="583.93" cy="-90" rx="54.93" ry="18"/>
<text text-anchor="middle" x="583.93" y="-84.95" font-family="Times,serif" font-size="14.00">r3_node_15</text>
</g>
<!-- r3_node_15&#45;&gt;r3_node_18 -->
<g id="edge13" class="edge">
<title>r3_node_15&#45;&gt;r3_node_18</title>
<path fill="none" stroke="black" d="M583.19,-71.7C582.88,-64.41 582.51,-55.73 582.16,-47.54"/>
<polygon fill="black" stroke="black" points="585.66,-47.46 581.73,-37.62 578.66,-47.76 585.66,-47.46"/>
</g>
<!-- r3_node_15&#45;&gt;r3_node_14 -->
<g id="edge12" class="edge">
<title>r3_node_15&#45;&gt;r3_node_14</title>
<path fill="none" stroke="black" d="M584.91,-108.28C583.53,-115.86 581.16,-124.95 578.42,-133.43"/>
<polygon fill="black" stroke="black" points="575.21,-132.03 575.16,-142.63 581.8,-134.37 575.21,-132.03"/>
</g>
<!-- r3_node_14&#45;&gt;r3_node_18 -->
<g id="edge21" class="edge">
<title>r3_node_14&#45;&gt;r3_node_18</title>
<path fill="none" stroke="black" d="M545.38,-144.84C535.79,-135.23 525.05,-122.17 519.93,-108 514.5,-92.95 513.3,-86.56 519.93,-72 525.52,-59.76 535.48,-49.25 545.75,-40.89"/>
<polygon fill="black" stroke="black" points="547.66,-43.84 553.55,-35.03 543.46,-38.24 547.66,-43.84"/>
</g>
<!-- r3_node_14&#45;&gt;r3_node_8 -->
<g id="edge19" class="edge">
<title>r3_node_14&#45;&gt;r3_node_8</title>
<path fill="none" stroke="black" d="M528.28,-176.06C491.7,-188.26 434.7,-206.41 393.71,-218.93"/>
<polygon fill="black" stroke="black" points="392.86,-215.52 384.31,-221.78 394.9,-222.22 392.86,-215.52"/>
</g>
<!-- r3_node_14&#45;&gt;r3_node_15 -->
<g id="edge20" class="edge">
<title>r3_node_14&#45;&gt;r3_node_15</title>
<path fill="none" stroke="black" d="M562.96,-143.7C564.34,-136.15 566.69,-127.12 569.41,-118.68"/>
<polygon fill="black" stroke="black" points="572.61,-120.13 572.65,-109.53 566.01,-117.79 572.61,-120.13"/>
</g>
<!-- r3_node_6 -->
<g id="node13" class="node">
<title>r3_node_6</title>
<ellipse fill="none" stroke="black" cx="706.93" cy="-90" rx="50.33" ry="18"/>
<text text-anchor="middle" x="706.93" y="-84.95" font-family="Times,serif" font-size="14.00">r3_node_6</text>
</g>
<!-- r3_node_6&#45;&gt;r3_node_16 -->
<g id="edge14" class="edge">
<title>r3_node_6&#45;&gt;r3_node_16</title>
<path fill="none" stroke="black" d="M709.39,-108.28C708.67,-115.77 707.11,-124.75 705.13,-133.15"/>
<polygon fill="black" stroke="black" points="701.8,-132.03 702.59,-142.59 708.57,-133.84 701.8,-132.03"/>
</g>
<!-- r3_node_16&#45;&gt;r3_node_18 -->
<g id="edge32" class="edge">
<title>r3_node_16&#45;&gt;r3_node_18</title>
<path fill="none" stroke="black" d="M724.49,-146.85C739.99,-138.07 757.19,-125.16 765.93,-108 773.2,-93.75 775.56,-84.78 765.93,-72 750.76,-51.87 689.19,-37.06 641.2,-28.29"/>
<polygon fill="black" stroke="black" points="641.9,-24.85 631.44,-26.56 640.68,-31.75 641.9,-24.85"/>
</g>
<!-- r3_node_16&#45;&gt;r3_node_8 -->
<g id="edge30" class="edge">
<title>r3_node_16&#45;&gt;r3_node_8</title>
<path fill="none" stroke="black" d="M655.44,-175.57C649.29,-177.13 642.97,-178.65 636.93,-180 555.77,-198.16 460.6,-215.03 401.18,-224.66"/>
<polygon fill="black" stroke="black" points="400.96,-221.15 391.64,-226.19 402.07,-228.07 400.96,-221.15"/>
</g>
<!-- r3_node_16&#45;&gt;r3_node_6 -->
<g id="edge31" class="edge">
<title>r3_node_16&#45;&gt;r3_node_6</title>
<path fill="none" stroke="black" d="M690.48,-143.7C691.2,-136.24 692.75,-127.32 694.71,-118.97"/>
<polygon fill="black" stroke="black" points="698.02,-120.13 697.23,-109.57 691.26,-118.32 698.02,-120.13"/>
</g>
<!-- r3_node_2&#45;&gt;r3_node_18 -->
<g id="edge22" class="edge">
<title>r3_node_2&#45;&gt;r3_node_18</title>
<path fill="none" stroke="black" d="M453.77,-75.34C478.03,-64.59 512.09,-49.5 538.86,-37.64"/>
<polygon fill="black" stroke="black" points="539.98,-40.97 547.71,-33.72 537.15,-34.57 539.98,-40.97"/>
</g>
<!-- r3_node_2&#45;&gt;r3_node_8 -->
<g id="edge23" class="edge">
<title>r3_node_2&#45;&gt;r3_node_8</title>
<path fill="none" stroke="black" d="M439.1,-107.24C451.47,-126.01 463.44,-157.22 449.93,-180 438.51,-199.26 417.36,-211.97 396.86,-220.1"/>
<polygon fill="black" stroke="black" points="395.88,-216.73 387.68,-223.43 398.27,-223.31 395.88,-216.73"/>
</g>
<!-- r3_node_11&#45;&gt;r3_node_8 -->
<g id="edge33" class="edge">
<title>r3_node_11&#45;&gt;r3_node_8</title>
<path fill="none" stroke="black" d="M288.49,-31.15C268.59,-39.15 246.11,-51.96 233.93,-72 225.63,-85.68 227.99,-93.14 233.93,-108 238.86,-120.32 293.96,-175.46 324.45,-208.25"/>
<polygon fill="black" stroke="black" points="321.62,-210.34 330.96,-215.34 326.78,-205.6 321.62,-210.34"/>
</g>
<!-- r3_node_9&#45;&gt;r3_node_3 -->
<g id="edge36" class="edge">
<title>r3_node_9&#45;&gt;r3_node_3</title>
<path fill="none" stroke="black" d="M188.67,-36.09C176.49,-59.53 149.85,-103.38 133.93,-144 126.17,-163.82 120.52,-187.21 115.6,-205.04"/>
<polygon fill="black" stroke="black" points="112.31,-203.83 112.89,-214.41 119.03,-205.78 112.31,-203.83"/>
</g>
</g>
</svg>
