<?xml version="1.0" encoding="UTF-8" standalone="no"?>
<!DOCTYPE svg PUBLIC "-//W3C//DTD SVG 1.1//EN"
 "http://www.w3.org/Graphics/SVG/1.1/DTD/svg11.dtd">
<!-- Generated by graphviz version 12.2.1 (20241206.2353)
 -->
<!-- Pages: 1 -->
<svg width="1211pt" height="404pt"
 viewBox="0.00 0.00 1210.87 404.00" xmlns="http://www.w3.org/2000/svg" xmlns:xlink="http://www.w3.org/1999/xlink">
<g id="graph0" class="graph" transform="scale(1 1) rotate(0) translate(4 400)">
<polygon fill="white" stroke="none" points="-4,4 -4,-400 1206.87,-400 1206.87,4 -4,4"/>
<!-- r2_node_2 -->
<g id="node1" class="node">
<title>r2_node_2</title>
<ellipse fill="none" stroke="black" cx="61.93" cy="-378" rx="50.33" ry="18"/>
<text text-anchor="middle" x="61.93" y="-372.95" font-family="Times,serif" font-size="14.00">r2_node_2</text>
</g>
<!-- r2_node_30 -->
<g id="node2" class="node">
<title>r2_node_30</title>
<ellipse fill="none" stroke="black" cx="370.93" cy="-90" rx="54.93" ry="18"/>
<text text-anchor="middle" x="370.93" y="-84.95" font-family="Times,serif" font-size="14.00">r2_node_30</text>
</g>
<!-- r2_node_2&#45;&gt;r2_node_30 -->
<g id="edge1" class="edge">
<title>r2_node_2&#45;&gt;r2_node_30</title>
<path fill="none" stroke="black" d="M51.59,-360.13C41.38,-341.07 29.25,-309.85 43.93,-288 52.8,-274.81 296.52,-189.93 308.93,-180 329.9,-163.23 346.75,-137.53 357.56,-118.05"/>
<polygon fill="black" stroke="black" points="360.61,-119.77 362.22,-109.3 354.43,-116.48 360.61,-119.77"/>
</g>
<!-- r2_node_9 -->
<g id="node3" class="node">
<title>r2_node_9</title>
<ellipse fill="none" stroke="black" cx="102.93" cy="-306" rx="50.33" ry="18"/>
<text text-anchor="middle" x="102.93" y="-300.95" font-family="Times,serif" font-size="14.00">r2_node_9</text>
</g>
<!-- r2_node_2&#45;&gt;r2_node_9 -->
<g id="edge2" class="edge">
<title>r2_node_2&#45;&gt;r2_node_9</title>
<path fill="none" stroke="black" d="M66.15,-359.7C70.11,-351.49 75.75,-341.52 81.49,-332.48"/>
<polygon fill="black" stroke="black" points="84.23,-334.67 86.85,-324.41 78.4,-330.8 84.23,-334.67"/>
</g>
<!-- r2_node_14 -->
<g id="node4" class="node">
<title>r2_node_14</title>
<ellipse fill="none" stroke="black" cx="477.93" cy="-18" rx="54.93" ry="18"/>
<text text-anchor="middle" x="477.93" y="-12.95" font-family="Times,serif" font-size="14.00">r2_node_14</text>
</g>
<!-- r2_node_2&#45;&gt;r2_node_14 -->
<g id="edge3" class="edge">
<title>r2_node_2&#45;&gt;r2_node_14</title>
<path fill="none" stroke="black" d="M99.68,-365.65C173.92,-342.78 335.5,-290.07 378.93,-252 441.25,-197.39 465.47,-96.85 473.91,-47.65"/>
<polygon fill="black" stroke="black" points="477.37,-48.22 475.49,-37.8 470.45,-47.12 477.37,-48.22"/>
</g>
<!-- r2_node_9&#45;&gt;r2_node_2 -->
<g id="edge35" class="edge">
<title>r2_node_9&#45;&gt;r2_node_2</title>
<path fill="none" stroke="black" d="M98.88,-323.96C94.98,-332.09 89.39,-342.01 83.67,-351.06"/>
<polygon fill="black" stroke="black" points="80.92,-348.88 78.33,-359.15 86.76,-352.74 80.92,-348.88"/>
</g>
<!-- r2_node_10 -->
<g id="node18" class="node">
<title>r2_node_10</title>
<ellipse fill="none" stroke="black" cx="57.93" cy="-234" rx="54.93" ry="18"/>
<text text-anchor="middle" x="57.93" y="-228.95" font-family="Times,serif" font-size="14.00">r2_node_10</text>
</g>
<!-- r2_node_9&#45;&gt;r2_node_10 -->
<g id="edge37" class="edge">
<title>r2_node_9&#45;&gt;r2_node_10</title>
<path fill="none" stroke="black" d="M86.7,-288.76C80.67,-280.78 74.09,-270.95 68.63,-261.89"/>
<polygon fill="black" stroke="black" points="71.8,-260.38 63.8,-253.44 65.73,-263.86 71.8,-260.38"/>
</g>
<!-- r2_node_1 -->
<g id="node21" class="node">
<title>r2_node_1</title>
<ellipse fill="none" stroke="black" cx="319.93" cy="-234" rx="50.33" ry="18"/>
<text text-anchor="middle" x="319.93" y="-228.95" font-family="Times,serif" font-size="14.00">r2_node_1</text>
</g>
<!-- r2_node_9&#45;&gt;r2_node_1 -->
<g id="edge36" class="edge">
<title>r2_node_9&#45;&gt;r2_node_1</title>
<path fill="none" stroke="black" d="M136.89,-292.32C172.79,-280.16 229.55,-261.83 270.41,-249.18"/>
<polygon fill="black" stroke="black" points="271.25,-252.59 279.77,-246.3 269.19,-245.9 271.25,-252.59"/>
</g>
<!-- r2_node_20 -->
<g id="node5" class="node">
<title>r2_node_20</title>
<ellipse fill="none" stroke="black" cx="729.93" cy="-18" rx="54.93" ry="18"/>
<text text-anchor="middle" x="729.93" y="-12.95" font-family="Times,serif" font-size="14.00">r2_node_20</text>
</g>
<!-- r2_node_21 -->
<g id="node6" class="node">
<title>r2_node_21</title>
<ellipse fill="none" stroke="black" cx="779.93" cy="-90" rx="54.93" ry="18"/>
<text text-anchor="middle" x="779.93" y="-84.95" font-family="Times,serif" font-size="14.00">r2_node_21</text>
</g>
<!-- r2_node_28 -->
<g id="node7" class="node">
<title>r2_node_28</title>
<ellipse fill="none" stroke="black" cx="343.93" cy="-18" rx="54.93" ry="18"/>
<text text-anchor="middle" x="343.93" y="-12.95" font-family="Times,serif" font-size="14.00">r2_node_28</text>
</g>
<!-- r2_node_17 -->
<g id="node8" class="node">
<title>r2_node_17</title>
<ellipse fill="none" stroke="black" cx="853.93" cy="-306" rx="54.93" ry="18"/>
<text text-anchor="middle" x="853.93" y="-300.95" font-family="Times,serif" font-size="14.00">r2_node_17</text>
</g>
<!-- r2_node_27 -->
<g id="node9" class="node">
<title>r2_node_27</title>
<ellipse fill="none" stroke="black" cx="1147.93" cy="-306" rx="54.93" ry="18"/>
<text text-anchor="middle" x="1147.93" y="-300.95" font-family="Times,serif" font-size="14.00">r2_node_27</text>
</g>
<!-- r2_node_23 -->
<g id="node10" class="node">
<title>r2_node_23</title>
<ellipse fill="none" stroke="black" cx="469.93" cy="-306" rx="54.93" ry="18"/>
<text text-anchor="middle" x="469.93" y="-300.95" font-family="Times,serif" font-size="14.00">r2_node_23</text>
</g>
<!-- r2_node_26 -->
<g id="node11" class="node">
<title>r2_node_26</title>
<ellipse fill="none" stroke="black" cx="1019.93" cy="-306" rx="54.93" ry="18"/>
<text text-anchor="middle" x="1019.93" y="-300.95" font-family="Times,serif" font-size="14.00">r2_node_26</text>
</g>
<!-- r2_node_12 -->
<g id="node12" class="node">
<title>r2_node_12</title>
<ellipse fill="none" stroke="black" cx="353.93" cy="-378" rx="54.93" ry="18"/>
<text text-anchor="middle" x="353.93" y="-372.95" font-family="Times,serif" font-size="14.00">r2_node_12</text>
</g>
<!-- r2_node_12&#45;&gt;r2_node_20 -->
<g id="edge4" class="edge">
<title>r2_node_12&#45;&gt;r2_node_20</title>
<path fill="none" stroke="black" d="M404.96,-371.05C507.31,-358.98 729.22,-332.07 743.93,-324 780.71,-303.84 785.43,-289.13 804.93,-252 843,-179.53 887.95,-141.01 843.93,-72 831.18,-52.01 808.72,-39.44 787.09,-31.59"/>
<polygon fill="black" stroke="black" points="788.28,-28.3 777.68,-28.48 786.08,-34.95 788.28,-28.3"/>
</g>
<!-- r2_node_12&#45;&gt;r2_node_28 -->
<g id="edge6" class="edge">
<title>r2_node_12&#45;&gt;r2_node_28</title>
<path fill="none" stroke="black" d="M402.53,-369.36C450.25,-360.74 518.13,-345.13 533.93,-324 543.52,-311.19 539.85,-302.87 533.93,-288 525.8,-267.55 511.47,-270.74 499.93,-252 455.35,-179.56 489.4,-137.33 434.93,-72 422.62,-57.23 405.07,-45.65 388.65,-37.13"/>
<polygon fill="black" stroke="black" points="390.52,-34.15 380,-32.89 387.44,-40.44 390.52,-34.15"/>
</g>
<!-- r2_node_12&#45;&gt;r2_node_17 -->
<g id="edge5" class="edge">
<title>r2_node_12&#45;&gt;r2_node_17</title>
<path fill="none" stroke="black" d="M405.51,-371.4C503.31,-360.66 712.34,-337.06 783.93,-324 789.48,-322.99 795.25,-321.8 800.98,-320.54"/>
<polygon fill="black" stroke="black" points="801.46,-324.02 810.43,-318.38 799.9,-317.2 801.46,-324.02"/>
</g>
<!-- r2_node_18 -->
<g id="node13" class="node">
<title>r2_node_18</title>
<ellipse fill="none" stroke="black" cx="613.93" cy="-90" rx="54.93" ry="18"/>
<text text-anchor="middle" x="613.93" y="-84.95" font-family="Times,serif" font-size="14.00">r2_node_18</text>
</g>
<!-- r2_node_13 -->
<g id="node14" class="node">
<title>r2_node_13</title>
<ellipse fill="none" stroke="black" cx="823.93" cy="-378" rx="54.93" ry="18"/>
<text text-anchor="middle" x="823.93" y="-372.95" font-family="Times,serif" font-size="14.00">r2_node_13</text>
</g>
<!-- r2_node_13&#45;&gt;r2_node_27 -->
<g id="edge7" class="edge">
<title>r2_node_13&#45;&gt;r2_node_27</title>
<path fill="none" stroke="black" d="M870.61,-368.34C922.79,-358.46 1009.71,-341.41 1083.93,-324 1087.74,-323.11 1091.67,-322.15 1095.62,-321.16"/>
<polygon fill="black" stroke="black" points="1096.42,-324.57 1105.24,-318.7 1094.69,-317.79 1096.42,-324.57"/>
</g>
<!-- r2_node_25 -->
<g id="node15" class="node">
<title>r2_node_25</title>
<ellipse fill="none" stroke="black" cx="54.93" cy="-18" rx="54.93" ry="18"/>
<text text-anchor="middle" x="54.93" y="-12.95" font-family="Times,serif" font-size="14.00">r2_node_25</text>
</g>
<!-- r2_node_7 -->
<g id="node16" class="node">
<title>r2_node_7</title>
<ellipse fill="none" stroke="black" cx="199.93" cy="-378" rx="50.33" ry="18"/>
<text text-anchor="middle" x="199.93" y="-372.95" font-family="Times,serif" font-size="14.00">r2_node_7</text>
</g>
<!-- r2_node_7&#45;&gt;r2_node_21 -->
<g id="edge9" class="edge">
<title>r2_node_7&#45;&gt;r2_node_21</title>
<path fill="none" stroke="black" d="M242.37,-368.07C257.34,-365.17 274.34,-362.14 289.93,-360 382.3,-347.33 623.14,-362.76 707.93,-324 728.8,-314.46 769.5,-271.28 781.93,-252 800.37,-223.41 802.07,-213.51 807.93,-180 810.69,-164.24 811.78,-159.53 807.93,-144 805.71,-135.01 801.64,-125.87 797.29,-117.76"/>
<polygon fill="black" stroke="black" points="800.32,-116.02 792.29,-109.11 794.27,-119.52 800.32,-116.02"/>
</g>
<!-- r2_node_7&#45;&gt;r2_node_23 -->
<g id="edge10" class="edge">
<title>r2_node_7&#45;&gt;r2_node_23</title>
<path fill="none" stroke="black" d="M239.77,-366.67C286.65,-354.52 364.67,-334.29 416.69,-320.8"/>
<polygon fill="black" stroke="black" points="417.44,-324.23 426.24,-318.33 415.68,-317.45 417.44,-324.23"/>
</g>
<!-- r2_node_19 -->
<g id="node17" class="node">
<title>r2_node_19</title>
<ellipse fill="none" stroke="black" cx="244.93" cy="-162" rx="54.93" ry="18"/>
<text text-anchor="middle" x="244.93" y="-156.95" font-family="Times,serif" font-size="14.00">r2_node_19</text>
</g>
<!-- r2_node_7&#45;&gt;r2_node_19 -->
<g id="edge8" class="edge">
<title>r2_node_7&#45;&gt;r2_node_19</title>
<path fill="none" stroke="black" d="M203.54,-359.85C211.28,-323.07 229.52,-236.29 238.99,-191.24"/>
<polygon fill="black" stroke="black" points="242.37,-192.22 241,-181.71 235.52,-190.78 242.37,-192.22"/>
</g>
<!-- r2_node_10&#45;&gt;r2_node_9 -->
<g id="edge11" class="edge">
<title>r2_node_10&#45;&gt;r2_node_9</title>
<path fill="none" stroke="black" d="M74.46,-251.62C80.34,-259.44 86.72,-268.97 92.04,-277.8"/>
<polygon fill="black" stroke="black" points="88.96,-279.45 96.97,-286.38 95.03,-275.97 88.96,-279.45"/>
</g>
<!-- r2_node_10&#45;&gt;r2_node_19 -->
<g id="edge14" class="edge">
<title>r2_node_10&#45;&gt;r2_node_19</title>
<path fill="none" stroke="black" d="M93.11,-219.83C123.05,-208.63 166.28,-192.44 198.96,-180.21"/>
<polygon fill="black" stroke="black" points="200.05,-183.54 208.18,-176.76 197.59,-176.98 200.05,-183.54"/>
</g>
<!-- r2_node_11 -->
<g id="node19" class="node">
<title>r2_node_11</title>
<ellipse fill="none" stroke="black" cx="64.93" cy="-162" rx="54.93" ry="18"/>
<text text-anchor="middle" x="64.93" y="-156.95" font-family="Times,serif" font-size="14.00">r2_node_11</text>
</g>
<!-- r2_node_10&#45;&gt;r2_node_11 -->
<g id="edge12" class="edge">
<title>r2_node_10&#45;&gt;r2_node_11</title>
<path fill="none" stroke="black" d="M53.75,-215.7C53.73,-208.32 54.36,-199.52 55.47,-191.25"/>
<polygon fill="black" stroke="black" points="58.89,-192.04 57.08,-181.6 51.98,-190.89 58.89,-192.04"/>
</g>
<!-- r2_node_16 -->
<g id="node20" class="node">
<title>r2_node_16</title>
<ellipse fill="none" stroke="black" cx="241.93" cy="-90" rx="54.93" ry="18"/>
<text text-anchor="middle" x="241.93" y="-84.95" font-family="Times,serif" font-size="14.00">r2_node_16</text>
</g>
<!-- r2_node_10&#45;&gt;r2_node_16 -->
<g id="edge13" class="edge">
<title>r2_node_10&#45;&gt;r2_node_16</title>
<path fill="none" stroke="black" d="M79.48,-217.14C93.61,-206.68 112.46,-192.64 128.93,-180 157.85,-157.83 190.51,-132.02 213.25,-113.92"/>
<polygon fill="black" stroke="black" points="215.23,-116.82 220.87,-107.86 210.87,-111.35 215.23,-116.82"/>
</g>
<!-- r2_node_11&#45;&gt;r2_node_28 -->
<g id="edge41" class="edge">
<title>r2_node_11&#45;&gt;r2_node_28</title>
<path fill="none" stroke="black" d="M85.52,-145.06C99.03,-134.58 117.08,-120.52 132.93,-108 153.04,-92.13 155.36,-84.1 177.93,-72 212.55,-53.45 254.75,-40.08 287.94,-31.42"/>
<polygon fill="black" stroke="black" points="288.52,-34.88 297.36,-29.03 286.8,-28.09 288.52,-34.88"/>
</g>
<!-- r2_node_11&#45;&gt;r2_node_10 -->
<g id="edge38" class="edge">
<title>r2_node_11&#45;&gt;r2_node_10</title>
<path fill="none" stroke="black" d="M69.12,-180.1C69.15,-187.45 68.52,-196.24 67.43,-204.53"/>
<polygon fill="black" stroke="black" points="64,-203.77 65.83,-214.2 70.91,-204.91 64,-203.77"/>
</g>
<!-- r2_node_11&#45;&gt;r2_node_16 -->
<g id="edge40" class="edge">
<title>r2_node_11&#45;&gt;r2_node_16</title>
<path fill="none" stroke="black" d="M99.06,-147.5C127.1,-136.42 167.02,-120.63 197.54,-108.56"/>
<polygon fill="black" stroke="black" points="198.49,-111.94 206.5,-105.01 195.92,-105.43 198.49,-111.94"/>
</g>
<!-- r2_node_4 -->
<g id="node29" class="node">
<title>r2_node_4</title>
<ellipse fill="none" stroke="black" cx="73.93" cy="-90" rx="50.33" ry="18"/>
<text text-anchor="middle" x="73.93" y="-84.95" font-family="Times,serif" font-size="14.00">r2_node_4</text>
</g>
<!-- r2_node_11&#45;&gt;r2_node_4 -->
<g id="edge39" class="edge">
<title>r2_node_11&#45;&gt;r2_node_4</title>
<path fill="none" stroke="black" d="M61.24,-143.7C61.43,-136.32 62.32,-127.52 63.66,-119.25"/>
<polygon fill="black" stroke="black" points="67.07,-120.08 65.55,-109.59 60.2,-118.73 67.07,-120.08"/>
</g>
<!-- r2_node_1&#45;&gt;r2_node_30 -->
<g id="edge17" class="edge">
<title>r2_node_1&#45;&gt;r2_node_30</title>
<path fill="none" stroke="black" d="M328.29,-216.05C333.19,-205.77 339.31,-192.29 343.93,-180 351.45,-160.01 358.41,-136.92 363.38,-119.27"/>
<polygon fill="black" stroke="black" points="366.72,-120.31 366.01,-109.74 359.97,-118.45 366.72,-120.31"/>
</g>
<!-- r2_node_1&#45;&gt;r2_node_9 -->
<g id="edge15" class="edge">
<title>r2_node_1&#45;&gt;r2_node_9</title>
<path fill="none" stroke="black" d="M285.92,-247.69C249.95,-259.88 193.06,-278.25 152.21,-290.89"/>
<polygon fill="black" stroke="black" points="151.38,-287.49 142.85,-293.77 153.43,-294.18 151.38,-287.49"/>
</g>
<!-- r2_node_1&#45;&gt;r2_node_14 -->
<g id="edge18" class="edge">
<title>r2_node_1&#45;&gt;r2_node_14</title>
<path fill="none" stroke="black" d="M337.65,-216.97C361.85,-194.4 405.6,-151.17 434.93,-108 448.03,-88.72 459.34,-64.85 467.06,-46.69"/>
<polygon fill="black" stroke="black" points="470.23,-48.18 470.82,-37.6 463.76,-45.51 470.23,-48.18"/>
</g>
<!-- r2_node_29 -->
<g id="node22" class="node">
<title>r2_node_29</title>
<ellipse fill="none" stroke="black" cx="577.93" cy="-162" rx="54.93" ry="18"/>
<text text-anchor="middle" x="577.93" y="-156.95" font-family="Times,serif" font-size="14.00">r2_node_29</text>
</g>
<!-- r2_node_1&#45;&gt;r2_node_29 -->
<g id="edge16" class="edge">
<title>r2_node_1&#45;&gt;r2_node_29</title>
<path fill="none" stroke="black" d="M359.12,-222.37C403.58,-210.3 476.31,-190.57 525.6,-177.2"/>
<polygon fill="black" stroke="black" points="526.47,-180.59 535.21,-174.59 524.64,-173.83 526.47,-180.59"/>
</g>
<!-- r2_node_8 -->
<g id="node23" class="node">
<title>r2_node_8</title>
<ellipse fill="none" stroke="black" cx="568.93" cy="-378" rx="50.33" ry="18"/>
<text text-anchor="middle" x="568.93" y="-372.95" font-family="Times,serif" font-size="14.00">r2_node_8</text>
</g>
<!-- r2_node_8&#45;&gt;r2_node_21 -->
<g id="edge19" class="edge">
<title>r2_node_8&#45;&gt;r2_node_21</title>
<path fill="none" stroke="black" d="M617.73,-373.09C709.11,-365.26 898.61,-346.48 917.93,-324 954.29,-281.71 952.05,-246.61 868.93,-144 857.14,-129.44 840.21,-117.96 824.27,-109.45"/>
<polygon fill="black" stroke="black" points="825.86,-106.34 815.36,-104.97 822.72,-112.59 825.86,-106.34"/>
</g>
<!-- r2_node_8&#45;&gt;r2_node_17 -->
<g id="edge21" class="edge">
<title>r2_node_8&#45;&gt;r2_node_17</title>
<path fill="none" stroke="black" d="M609.46,-367.05C659.5,-354.76 744.75,-333.82 800.2,-320.2"/>
<polygon fill="black" stroke="black" points="800.87,-323.64 809.75,-317.85 799.2,-316.84 800.87,-323.64"/>
</g>
<!-- r2_node_8&#45;&gt;r2_node_26 -->
<g id="edge20" class="edge">
<title>r2_node_8&#45;&gt;r2_node_26</title>
<path fill="none" stroke="black" d="M616.84,-371.97C689.46,-363.98 831.59,-346.92 950.93,-324 956.19,-322.99 961.64,-321.84 967.07,-320.62"/>
<polygon fill="black" stroke="black" points="967.71,-324.06 976.65,-318.38 966.12,-317.24 967.71,-324.06"/>
</g>
<!-- r2_node_24 -->
<g id="node24" class="node">
<title>r2_node_24</title>
<ellipse fill="none" stroke="black" cx="563.93" cy="-234" rx="54.93" ry="18"/>
<text text-anchor="middle" x="563.93" y="-228.95" font-family="Times,serif" font-size="14.00">r2_node_24</text>
</g>
<!-- r2_node_3 -->
<g id="node25" class="node">
<title>r2_node_3</title>
<ellipse fill="none" stroke="black" cx="648.93" cy="-306" rx="50.33" ry="18"/>
<text text-anchor="middle" x="648.93" y="-300.95" font-family="Times,serif" font-size="14.00">r2_node_3</text>
</g>
<!-- r2_node_3&#45;&gt;r2_node_21 -->
<g id="edge24" class="edge">
<title>r2_node_3&#45;&gt;r2_node_21</title>
<path fill="none" stroke="black" d="M684.46,-293.01C706.22,-284.29 733.54,-270.71 752.93,-252 789.77,-216.46 799.08,-194.82 792.93,-144 791.94,-135.78 790.11,-127.01 788.13,-119"/>
<polygon fill="black" stroke="black" points="791.55,-118.22 785.6,-109.46 784.78,-120.02 791.55,-118.22"/>
</g>
<!-- r2_node_3&#45;&gt;r2_node_24 -->
<g id="edge22" class="edge">
<title>r2_node_3&#45;&gt;r2_node_24</title>
<path fill="none" stroke="black" d="M629.65,-289.12C618.53,-279.96 604.36,-268.29 592.03,-258.13"/>
<polygon fill="black" stroke="black" points="594.55,-255.68 584.61,-252.03 590.1,-261.08 594.55,-255.68"/>
</g>
<!-- r2_node_5 -->
<g id="node26" class="node">
<title>r2_node_5</title>
<ellipse fill="none" stroke="black" cx="693.93" cy="-234" rx="50.33" ry="18"/>
<text text-anchor="middle" x="693.93" y="-228.95" font-family="Times,serif" font-size="14.00">r2_node_5</text>
</g>
<!-- r2_node_3&#45;&gt;r2_node_5 -->
<g id="edge23" class="edge">
<title>r2_node_3&#45;&gt;r2_node_5</title>
<path fill="none" stroke="black" d="M654.14,-287.7C658.57,-279.49 664.78,-269.52 671.03,-260.48"/>
<polygon fill="black" stroke="black" points="673.87,-262.53 676.88,-252.37 668.19,-258.43 673.87,-262.53"/>
</g>
<!-- r2_node_5&#45;&gt;r2_node_14 -->
<g id="edge25" class="edge">
<title>r2_node_5&#45;&gt;r2_node_14</title>
<path fill="none" stroke="black" d="M721.85,-218.58C736.07,-209.59 751.99,-196.56 759.93,-180 766.85,-165.57 766.79,-158.46 759.93,-144 749.11,-121.17 734.9,-124.7 715.93,-108 698.48,-92.62 698.25,-83.33 677.93,-72 635.06,-48.09 580.97,-34.61 539.86,-27.23"/>
<polygon fill="black" stroke="black" points="540.56,-23.8 530.12,-25.56 539.38,-30.7 540.56,-23.8"/>
</g>
<!-- r2_node_5&#45;&gt;r2_node_29 -->
<g id="edge28" class="edge">
<title>r2_node_5&#45;&gt;r2_node_29</title>
<path fill="none" stroke="black" d="M669.05,-217.98C652.65,-208.09 630.93,-194.98 612.82,-184.05"/>
<polygon fill="black" stroke="black" points="614.84,-181.19 604.47,-179.02 611.23,-187.18 614.84,-181.19"/>
</g>
<!-- r2_node_5&#45;&gt;r2_node_3 -->
<g id="edge27" class="edge">
<title>r2_node_5&#45;&gt;r2_node_3</title>
<path fill="none" stroke="black" d="M688.82,-252.12C684.36,-260.41 678.06,-270.53 671.72,-279.69"/>
<polygon fill="black" stroke="black" points="669.07,-277.38 666.06,-287.54 674.75,-281.48 669.07,-277.38"/>
</g>
<!-- r2_node_6 -->
<g id="node28" class="node">
<title>r2_node_6</title>
<ellipse fill="none" stroke="black" cx="700.93" cy="-162" rx="50.33" ry="18"/>
<text text-anchor="middle" x="700.93" y="-156.95" font-family="Times,serif" font-size="14.00">r2_node_6</text>
</g>
<!-- r2_node_5&#45;&gt;r2_node_6 -->
<g id="edge26" class="edge">
<title>r2_node_5&#45;&gt;r2_node_6</title>
<path fill="none" stroke="black" d="M689.75,-215.7C689.73,-208.32 690.36,-199.52 691.47,-191.25"/>
<polygon fill="black" stroke="black" points="694.89,-192.04 693.08,-181.6 687.98,-190.89 694.89,-192.04"/>
</g>
<!-- r2_node_15 -->
<g id="node27" class="node">
<title>r2_node_15</title>
<ellipse fill="none" stroke="black" cx="204.93" cy="-18" rx="54.93" ry="18"/>
<text text-anchor="middle" x="204.93" y="-12.95" font-family="Times,serif" font-size="14.00">r2_node_15</text>
</g>
<!-- r2_node_6&#45;&gt;r2_node_18 -->
<g id="edge29" class="edge">
<title>r2_node_6&#45;&gt;r2_node_18</title>
<path fill="none" stroke="black" d="M681.19,-145.12C669.82,-135.96 655.31,-124.29 642.69,-114.13"/>
<polygon fill="black" stroke="black" points="645.06,-111.55 635.08,-108.01 640.68,-117.01 645.06,-111.55"/>
</g>
<!-- r2_node_6&#45;&gt;r2_node_5 -->
<g id="edge30" class="edge">
<title>r2_node_6&#45;&gt;r2_node_5</title>
<path fill="none" stroke="black" d="M705.12,-180.28C705.14,-187.69 704.5,-196.54 703.38,-204.86"/>
<polygon fill="black" stroke="black" points="699.96,-204.12 701.76,-214.56 706.86,-205.28 699.96,-204.12"/>
</g>
<!-- r2_node_4&#45;&gt;r2_node_28 -->
<g id="edge34" class="edge">
<title>r2_node_4&#45;&gt;r2_node_28</title>
<path fill="none" stroke="black" d="M113.77,-78.67C160.65,-66.52 238.67,-46.29 290.69,-32.8"/>
<polygon fill="black" stroke="black" points="291.44,-36.23 300.24,-30.33 289.68,-29.45 291.44,-36.23"/>
</g>
<!-- r2_node_4&#45;&gt;r2_node_25 -->
<g id="edge33" class="edge">
<title>r2_node_4&#45;&gt;r2_node_25</title>
<path fill="none" stroke="black" d="M69.24,-71.7C67.21,-64.24 64.79,-55.32 62.52,-46.97"/>
<polygon fill="black" stroke="black" points="65.97,-46.3 59.97,-37.57 59.21,-48.13 65.97,-46.3"/>
</g>
<!-- r2_node_4&#45;&gt;r2_node_11 -->
<g id="edge31" class="edge">
<title>r2_node_4&#45;&gt;r2_node_11</title>
<path fill="none" stroke="black" d="M77.63,-108.28C77.44,-115.69 76.54,-124.54 75.19,-132.86"/>
<polygon fill="black" stroke="black" points="71.77,-132.08 73.28,-142.57 78.64,-133.43 71.77,-132.08"/>
</g>
<!-- r2_node_4&#45;&gt;r2_node_15 -->
<g id="edge32" class="edge">
<title>r2_node_4&#45;&gt;r2_node_15</title>
<path fill="none" stroke="black" d="M101.08,-74.5C120.27,-64.24 146.25,-50.36 167.42,-39.05"/>
<polygon fill="black" stroke="black" points="168.87,-42.24 176.04,-34.44 165.57,-36.07 168.87,-42.24"/>
</g>
</g>
</svg>
