<?xml version="1.0" encoding="UTF-8" standalone="no"?>
<!DOCTYPE svg PUBLIC "-//W3C//DTD SVG 1.1//EN"
 "http://www.w3.org/Graphics/SVG/1.1/DTD/svg11.dtd">
<!-- Generated by graphviz version 12.2.1 (20241206.2353)
 -->
<!-- Pages: 1 -->
<svg width="806pt" height="404pt"
 viewBox="0.00 0.00 805.66 404.00" xmlns="http://www.w3.org/2000/svg" xmlns:xlink="http://www.w3.org/1999/xlink">
<g id="graph0" class="graph" transform="scale(1 1) rotate(0) translate(4 400)">
<polygon fill="white" stroke="none" points="-4,4 -4,-400 801.66,-400 801.66,4 -4,4"/>
<!-- r2_node_4 -->
<g id="node1" class="node">
<title>r2_node_4</title>
<ellipse fill="none" stroke="black" cx="50.33" cy="-378" rx="50.33" ry="18"/>
<text text-anchor="middle" x="50.33" y="-372.95" font-family="Times,serif" font-size="14.00">r2_node_4</text>
</g>
<!-- r2_node_18 -->
<g id="node2" class="node">
<title>r2_node_18</title>
<ellipse fill="none" stroke="black" cx="737.33" cy="-18" rx="54.93" ry="18"/>
<text text-anchor="middle" x="737.33" y="-12.95" font-family="Times,serif" font-size="14.00">r2_node_18</text>
</g>
<!-- r2_node_4&#45;&gt;r2_node_18 -->
<g id="edge1" class="edge">
<title>r2_node_4&#45;&gt;r2_node_18</title>
<path fill="none" stroke="black" d="M88,-365.78C95.07,-363.78 102.41,-361.77 109.33,-360 180.37,-341.84 202.48,-351.79 270.33,-324 364.26,-285.53 617.52,-105.53 706.17,-41.6"/>
<polygon fill="black" stroke="black" points="708.15,-44.49 714.2,-35.8 704.05,-38.82 708.15,-44.49"/>
</g>
<!-- r2_node_19 -->
<g id="node3" class="node">
<title>r2_node_19</title>
<ellipse fill="none" stroke="black" cx="437.33" cy="-162" rx="54.93" ry="18"/>
<text text-anchor="middle" x="437.33" y="-156.95" font-family="Times,serif" font-size="14.00">r2_node_19</text>
</g>
<!-- r2_node_4&#45;&gt;r2_node_19 -->
<g id="edge2" class="edge">
<title>r2_node_4&#45;&gt;r2_node_19</title>
<path fill="none" stroke="black" d="M88.56,-365.84C135.86,-351.96 211.71,-329.42 224.33,-324 226.19,-323.2 349.72,-253.24 351.33,-252 364.67,-241.66 394.04,-210.48 414.73,-187.94"/>
<polygon fill="black" stroke="black" points="417.27,-190.35 421.43,-180.61 412.1,-185.63 417.27,-190.35"/>
</g>
<!-- r2_node_13 -->
<g id="node4" class="node">
<title>r2_node_13</title>
<ellipse fill="none" stroke="black" cx="160.33" cy="-306" rx="54.93" ry="18"/>
<text text-anchor="middle" x="160.33" y="-300.95" font-family="Times,serif" font-size="14.00">r2_node_13</text>
</g>
<!-- r2_node_4&#45;&gt;r2_node_13 -->
<g id="edge3" class="edge">
<title>r2_node_4&#45;&gt;r2_node_13</title>
<path fill="none" stroke="black" d="M69.78,-360.94C84.28,-351 104.35,-338.13 121.97,-327.46"/>
<polygon fill="black" stroke="black" points="123.37,-330.7 130.16,-322.57 119.78,-324.69 123.37,-330.7"/>
</g>
<!-- r2_node_13&#45;&gt;r2_node_4 -->
<g id="edge35" class="edge">
<title>r2_node_13&#45;&gt;r2_node_4</title>
<path fill="none" stroke="black" d="M140.56,-323.28C125.88,-333.33 105.59,-346.32 87.92,-357"/>
<polygon fill="black" stroke="black" points="86.52,-353.76 79.72,-361.89 90.11,-359.77 86.52,-353.76"/>
</g>
<!-- r2_node_13&#45;&gt;r2_node_18 -->
<g id="edge32" class="edge">
<title>r2_node_13&#45;&gt;r2_node_18</title>
<path fill="none" stroke="black" d="M195.92,-291.95C218.65,-282.69 248.11,-268.91 271.33,-252 324.69,-213.12 318.21,-180.35 373.33,-144 412.06,-118.45 430.91,-130.79 471.33,-108 493.64,-95.42 493.27,-83.14 516.33,-72 580.79,-40.86 603.83,-53.19 673.33,-36 677.13,-35.06 681.04,-34.07 684.99,-33.06"/>
<polygon fill="black" stroke="black" points="685.8,-36.46 694.6,-30.56 684.04,-29.69 685.8,-36.46"/>
</g>
<!-- r2_node_13&#45;&gt;r2_node_19 -->
<g id="edge33" class="edge">
<title>r2_node_13&#45;&gt;r2_node_19</title>
<path fill="none" stroke="black" d="M202.69,-294.16C234.25,-285.19 277.83,-270.86 313.33,-252 336.88,-239.49 339.72,-231.63 361.33,-216 375.49,-205.76 391.31,-194.66 404.84,-185.29"/>
<polygon fill="black" stroke="black" points="406.75,-188.22 412.99,-179.66 402.77,-182.46 406.75,-188.22"/>
</g>
<!-- r2_node_17 -->
<g id="node8" class="node">
<title>r2_node_17</title>
<ellipse fill="none" stroke="black" cx="609.33" cy="-18" rx="54.93" ry="18"/>
<text text-anchor="middle" x="609.33" y="-12.95" font-family="Times,serif" font-size="14.00">r2_node_17</text>
</g>
<!-- r2_node_13&#45;&gt;r2_node_17 -->
<g id="edge37" class="edge">
<title>r2_node_13&#45;&gt;r2_node_17</title>
<path fill="none" stroke="black" d="M186.68,-289.8C202.86,-279.93 223.61,-266.28 240.33,-252 289.84,-209.7 285.36,-180.43 339.33,-144 377.1,-118.5 395.96,-130.95 435.33,-108 456.86,-95.45 456.96,-84.83 478.33,-72 503.8,-56.71 534.48,-44.03 559.74,-34.9"/>
<polygon fill="black" stroke="black" points="560.87,-38.22 569.14,-31.59 558.55,-31.61 560.87,-38.22"/>
</g>
<!-- r2_node_20 -->
<g id="node12" class="node">
<title>r2_node_20</title>
<ellipse fill="none" stroke="black" cx="85.33" cy="-18" rx="54.93" ry="18"/>
<text text-anchor="middle" x="85.33" y="-12.95" font-family="Times,serif" font-size="14.00">r2_node_20</text>
</g>
<!-- r2_node_13&#45;&gt;r2_node_20 -->
<g id="edge34" class="edge">
<title>r2_node_13&#45;&gt;r2_node_20</title>
<path fill="none" stroke="black" d="M145.46,-288.55C137.33,-278.66 127.83,-265.41 122.33,-252 107.31,-215.45 93.91,-101.61 88.22,-47.77"/>
<polygon fill="black" stroke="black" points="91.71,-47.44 87.19,-37.85 84.74,-48.16 91.71,-47.44"/>
</g>
<!-- r2_node_9 -->
<g id="node19" class="node">
<title>r2_node_9</title>
<ellipse fill="none" stroke="black" cx="181.33" cy="-234" rx="50.33" ry="18"/>
<text text-anchor="middle" x="181.33" y="-228.95" font-family="Times,serif" font-size="14.00">r2_node_9</text>
</g>
<!-- r2_node_13&#45;&gt;r2_node_9 -->
<g id="edge36" class="edge">
<title>r2_node_13&#45;&gt;r2_node_9</title>
<path fill="none" stroke="black" d="M159.6,-287.7C161.11,-280.04 163.64,-270.85 166.53,-262.3"/>
<polygon fill="black" stroke="black" points="169.77,-263.63 169.97,-253.04 163.21,-261.2 169.77,-263.63"/>
</g>
<!-- r2_node_3 -->
<g id="node5" class="node">
<title>r2_node_3</title>
<ellipse fill="none" stroke="black" cx="695.33" cy="-234" rx="50.33" ry="18"/>
<text text-anchor="middle" x="695.33" y="-228.95" font-family="Times,serif" font-size="14.00">r2_node_3</text>
</g>
<!-- r2_node_3&#45;&gt;r2_node_18 -->
<g id="edge4" class="edge">
<title>r2_node_3&#45;&gt;r2_node_18</title>
<path fill="none" stroke="black" d="M692.49,-215.87C690.91,-205.52 689.12,-192.04 688.33,-180 687.28,-164.03 685.36,-159.72 688.33,-144 694.96,-108.89 711.23,-71 723.2,-46.25"/>
<polygon fill="black" stroke="black" points="726.22,-48.05 727.52,-37.54 719.95,-44.94 726.22,-48.05"/>
</g>
<!-- r2_node_14 -->
<g id="node6" class="node">
<title>r2_node_14</title>
<ellipse fill="none" stroke="black" cx="606.33" cy="-306" rx="54.93" ry="18"/>
<text text-anchor="middle" x="606.33" y="-300.95" font-family="Times,serif" font-size="14.00">r2_node_14</text>
</g>
<!-- r2_node_3&#45;&gt;r2_node_14 -->
<g id="edge5" class="edge">
<title>r2_node_3&#45;&gt;r2_node_14</title>
<path fill="none" stroke="black" d="M680.03,-251.63C669.08,-261.04 654.12,-272.93 640.48,-283.1"/>
<polygon fill="black" stroke="black" points="638.54,-280.19 632.54,-288.92 642.68,-285.83 638.54,-280.19"/>
</g>
<!-- r2_node_6 -->
<g id="node7" class="node">
<title>r2_node_6</title>
<ellipse fill="none" stroke="black" cx="747.33" cy="-162" rx="50.33" ry="18"/>
<text text-anchor="middle" x="747.33" y="-156.95" font-family="Times,serif" font-size="14.00">r2_node_6</text>
</g>
<!-- r2_node_3&#45;&gt;r2_node_6 -->
<g id="edge6" class="edge">
<title>r2_node_3&#45;&gt;r2_node_6</title>
<path fill="none" stroke="black" d="M702.27,-215.7C707.63,-207.32 715.02,-197.1 722.34,-187.9"/>
<polygon fill="black" stroke="black" points="724.93,-190.26 728.58,-180.31 719.52,-185.81 724.93,-190.26"/>
</g>
<!-- r2_node_3&#45;&gt;r2_node_17 -->
<g id="edge7" class="edge">
<title>r2_node_3&#45;&gt;r2_node_17</title>
<path fill="none" stroke="black" d="M688.44,-215.85C673.59,-178.91 638.48,-91.55 620.45,-46.67"/>
<polygon fill="black" stroke="black" points="623.79,-45.61 616.82,-37.64 617.3,-48.22 623.79,-45.61"/>
</g>
<!-- r2_node_14&#45;&gt;r2_node_3 -->
<g id="edge16" class="edge">
<title>r2_node_14&#45;&gt;r2_node_3</title>
<path fill="none" stroke="black" d="M621.58,-288.41C632.58,-278.95 647.64,-266.98 661.34,-256.77"/>
<polygon fill="black" stroke="black" points="663.32,-259.66 669.33,-250.93 659.19,-254.01 663.32,-259.66"/>
</g>
<!-- r2_node_14&#45;&gt;r2_node_17 -->
<g id="edge15" class="edge">
<title>r2_node_14&#45;&gt;r2_node_17</title>
<path fill="none" stroke="black" d="M606.51,-287.54C607.01,-239.76 608.41,-106.51 609.03,-47.61"/>
<polygon fill="black" stroke="black" points="612.53,-47.78 609.13,-37.74 605.53,-47.71 612.53,-47.78"/>
</g>
<!-- r2_node_11 -->
<g id="node9" class="node">
<title>r2_node_11</title>
<ellipse fill="none" stroke="black" cx="173.33" cy="-378" rx="54.93" ry="18"/>
<text text-anchor="middle" x="173.33" y="-372.95" font-family="Times,serif" font-size="14.00">r2_node_11</text>
</g>
<!-- r2_node_14&#45;&gt;r2_node_11 -->
<g id="edge14" class="edge">
<title>r2_node_14&#45;&gt;r2_node_11</title>
<path fill="none" stroke="black" d="M567.93,-319.29C560.48,-321.02 552.71,-322.66 545.33,-324 413.62,-347.84 377.77,-334.76 246.33,-360 240.4,-361.14 234.21,-362.52 228.04,-364.01"/>
<polygon fill="black" stroke="black" points="227.34,-360.58 218.49,-366.39 229.03,-367.37 227.34,-360.58"/>
</g>
<!-- r2_node_6&#45;&gt;r2_node_18 -->
<g id="edge46" class="edge">
<title>r2_node_6&#45;&gt;r2_node_18</title>
<path fill="none" stroke="black" d="M746.1,-143.59C744.41,-119.61 741.35,-76.14 739.33,-47.42"/>
<polygon fill="black" stroke="black" points="742.83,-47.35 738.64,-37.62 735.85,-47.84 742.83,-47.35"/>
</g>
<!-- r2_node_6&#45;&gt;r2_node_3 -->
<g id="edge47" class="edge">
<title>r2_node_6&#45;&gt;r2_node_3</title>
<path fill="none" stroke="black" d="M740.5,-180.12C735.16,-188.5 727.75,-198.74 720.42,-207.98"/>
<polygon fill="black" stroke="black" points="717.8,-205.65 714.15,-215.6 723.21,-210.1 717.8,-205.65"/>
</g>
<!-- r2_node_6&#45;&gt;r2_node_11 -->
<g id="edge45" class="edge">
<title>r2_node_6&#45;&gt;r2_node_11</title>
<path fill="none" stroke="black" d="M759.85,-179.6C767.94,-198.14 774.08,-228.63 763.33,-252 742.78,-296.67 724.7,-305.04 679.33,-324 501.15,-398.45 436.61,-327.08 246.33,-360 240.31,-361.04 234.03,-362.38 227.78,-363.85"/>
<polygon fill="black" stroke="black" points="226.97,-360.45 218.1,-366.24 228.64,-367.25 226.97,-360.45"/>
</g>
<!-- r2_node_11&#45;&gt;r2_node_19 -->
<g id="edge11" class="edge">
<title>r2_node_11&#45;&gt;r2_node_19</title>
<path fill="none" stroke="black" d="M208.26,-363.88C254.51,-345.06 336.37,-306.57 389.33,-252 406.32,-234.49 419,-209.77 427.05,-190.83"/>
<polygon fill="black" stroke="black" points="430.29,-192.15 430.79,-181.57 423.8,-189.53 430.29,-192.15"/>
</g>
<!-- r2_node_11&#45;&gt;r2_node_14 -->
<g id="edge9" class="edge">
<title>r2_node_11&#45;&gt;r2_node_14</title>
<path fill="none" stroke="black" d="M209.68,-364.14C215.86,-362.6 222.23,-361.17 228.33,-360 359.77,-334.76 395.62,-347.84 527.33,-324 534.69,-322.67 542.43,-321.03 550.08,-319.3"/>
<polygon fill="black" stroke="black" points="550.76,-322.74 559.71,-317.08 549.18,-315.92 550.76,-322.74"/>
</g>
<!-- r2_node_11&#45;&gt;r2_node_6 -->
<g id="edge13" class="edge">
<title>r2_node_11&#45;&gt;r2_node_6</title>
<path fill="none" stroke="black" d="M209.3,-364.01C215.59,-362.48 222.1,-361.08 228.33,-360 418.61,-327.08 483.15,-398.45 661.33,-324 706.7,-305.04 724.78,-296.67 745.33,-252 754,-233.15 751.69,-209.67 748.79,-191.56"/>
<polygon fill="black" stroke="black" points="752.25,-191.04 747.13,-181.77 745.35,-192.21 752.25,-191.04"/>
</g>
<!-- r2_node_12 -->
<g id="node10" class="node">
<title>r2_node_12</title>
<ellipse fill="none" stroke="black" cx="534.33" cy="-234" rx="54.93" ry="18"/>
<text text-anchor="middle" x="534.33" y="-228.95" font-family="Times,serif" font-size="14.00">r2_node_12</text>
</g>
<!-- r2_node_11&#45;&gt;r2_node_12 -->
<g id="edge8" class="edge">
<title>r2_node_11&#45;&gt;r2_node_12</title>
<path fill="none" stroke="black" d="M210.06,-364.2C216.12,-362.67 222.36,-361.23 228.33,-360 336.13,-337.84 382.12,-385.59 473.33,-324 494.95,-309.4 508.81,-282.56 518.4,-262.16"/>
<polygon fill="black" stroke="black" points="521.49,-263.81 522.54,-253.27 515.14,-260.86 521.49,-263.81"/>
</g>
<!-- r2_node_16 -->
<g id="node11" class="node">
<title>r2_node_16</title>
<ellipse fill="none" stroke="black" cx="418.33" cy="-306" rx="54.93" ry="18"/>
<text text-anchor="middle" x="418.33" y="-300.95" font-family="Times,serif" font-size="14.00">r2_node_16</text>
</g>
<!-- r2_node_11&#45;&gt;r2_node_16 -->
<g id="edge10" class="edge">
<title>r2_node_11&#45;&gt;r2_node_16</title>
<path fill="none" stroke="black" d="M211.27,-364.65C252.42,-352.35 318.23,-333.53 364.65,-320.77"/>
<polygon fill="black" stroke="black" points="365.53,-324.15 374.25,-318.14 363.68,-317.4 365.53,-324.15"/>
</g>
<!-- r2_node_11&#45;&gt;r2_node_20 -->
<g id="edge12" class="edge">
<title>r2_node_11&#45;&gt;r2_node_20</title>
<path fill="none" stroke="black" d="M140.75,-363.33C124.38,-354.63 106.01,-341.64 96.33,-324 46.58,-233.37 66.28,-103.71 78.46,-47.17"/>
<polygon fill="black" stroke="black" points="81.8,-48.25 80.58,-37.73 74.97,-46.71 81.8,-48.25"/>
</g>
<!-- r2_node_12&#45;&gt;r2_node_19 -->
<g id="edge19" class="edge">
<title>r2_node_12&#45;&gt;r2_node_19</title>
<path fill="none" stroke="black" d="M512.32,-217.12C499.29,-207.72 482.6,-195.67 468.27,-185.33"/>
<polygon fill="black" stroke="black" points="470.64,-182.72 460.48,-179.71 466.54,-188.4 470.64,-182.72"/>
</g>
<!-- r2_node_12&#45;&gt;r2_node_11 -->
<g id="edge18" class="edge">
<title>r2_node_12&#45;&gt;r2_node_11</title>
<path fill="none" stroke="black" d="M535.64,-252.26C531.37,-272.92 516.69,-306.87 491.33,-324 400.12,-385.59 354.13,-337.84 246.33,-360 240.49,-361.2 234.38,-362.61 228.29,-364.1"/>
<polygon fill="black" stroke="black" points="227.71,-360.64 218.86,-366.47 229.41,-367.43 227.71,-360.64"/>
</g>
<!-- r2_node_16&#45;&gt;r2_node_11 -->
<g id="edge20" class="edge">
<title>r2_node_16&#45;&gt;r2_node_11</title>
<path fill="none" stroke="black" d="M380.36,-319.36C339.18,-331.66 273.3,-350.5 226.89,-363.27"/>
<polygon fill="black" stroke="black" points="226.01,-359.88 217.29,-365.89 227.86,-366.63 226.01,-359.88"/>
</g>
<!-- r2_node_5 -->
<g id="node13" class="node">
<title>r2_node_5</title>
<ellipse fill="none" stroke="black" cx="357.33" cy="-18" rx="50.33" ry="18"/>
<text text-anchor="middle" x="357.33" y="-12.95" font-family="Times,serif" font-size="14.00">r2_node_5</text>
</g>
<!-- r2_node_15 -->
<g id="node14" class="node">
<title>r2_node_15</title>
<ellipse fill="none" stroke="black" cx="242.33" cy="-90" rx="54.93" ry="18"/>
<text text-anchor="middle" x="242.33" y="-84.95" font-family="Times,serif" font-size="14.00">r2_node_15</text>
</g>
<!-- r2_node_5&#45;&gt;r2_node_15 -->
<g id="edge17" class="edge">
<title>r2_node_5&#45;&gt;r2_node_15</title>
<path fill="none" stroke="black" d="M337.27,-34.7C321.85,-44.81 300.28,-58.03 281.53,-68.9"/>
<polygon fill="black" stroke="black" points="280,-65.74 273.06,-73.74 283.48,-71.81 280,-65.74"/>
</g>
<!-- r2_node_15&#45;&gt;r2_node_17 -->
<g id="edge40" class="edge">
<title>r2_node_15&#45;&gt;r2_node_17</title>
<path fill="none" stroke="black" d="M283.09,-77.65C291.09,-75.62 299.45,-73.63 307.33,-72 410.8,-50.6 438.78,-57.02 542.33,-36 547.16,-35.02 552.16,-33.92 557.15,-32.76"/>
<polygon fill="black" stroke="black" points="557.64,-36.24 566.54,-30.5 556,-29.43 557.64,-36.24"/>
</g>
<!-- r2_node_15&#45;&gt;r2_node_20 -->
<g id="edge42" class="edge">
<title>r2_node_15&#45;&gt;r2_node_20</title>
<path fill="none" stroke="black" d="M210.93,-75C186.95,-64.31 153.64,-49.46 127.36,-37.74"/>
<polygon fill="black" stroke="black" points="128.88,-34.58 118.32,-33.71 126.03,-40.98 128.88,-34.58"/>
</g>
<!-- r2_node_15&#45;&gt;r2_node_5 -->
<g id="edge43" class="edge">
<title>r2_node_15&#45;&gt;r2_node_5</title>
<path fill="none" stroke="black" d="M262.93,-72.94C278.52,-62.74 300.19,-49.48 318.9,-38.66"/>
<polygon fill="black" stroke="black" points="320.38,-41.84 327.33,-33.84 316.91,-35.76 320.38,-41.84"/>
</g>
<!-- r2_node_7 -->
<g id="node17" class="node">
<title>r2_node_7</title>
<ellipse fill="none" stroke="black" cx="231.33" cy="-162" rx="50.33" ry="18"/>
<text text-anchor="middle" x="231.33" y="-156.95" font-family="Times,serif" font-size="14.00">r2_node_7</text>
</g>
<!-- r2_node_15&#45;&gt;r2_node_7 -->
<g id="edge41" class="edge">
<title>r2_node_15&#45;&gt;r2_node_7</title>
<path fill="none" stroke="black" d="M245.53,-108.28C245.13,-115.69 243.98,-124.54 242.38,-132.86"/>
<polygon fill="black" stroke="black" points="238.98,-132.05 240.2,-142.58 245.81,-133.59 238.98,-132.05"/>
</g>
<!-- r2_node_2 -->
<g id="node20" class="node">
<title>r2_node_2</title>
<ellipse fill="none" stroke="black" cx="225.33" cy="-18" rx="50.33" ry="18"/>
<text text-anchor="middle" x="225.33" y="-12.95" font-family="Times,serif" font-size="14.00">r2_node_2</text>
</g>
<!-- r2_node_15&#45;&gt;r2_node_2 -->
<g id="edge44" class="edge">
<title>r2_node_15&#45;&gt;r2_node_2</title>
<path fill="none" stroke="black" d="M232.33,-72.05C229.76,-64.68 227.36,-55.84 225.61,-47.51"/>
<polygon fill="black" stroke="black" points="229.07,-47 223.88,-37.77 222.18,-48.22 229.07,-47"/>
</g>
<!-- r2_node_8 -->
<g id="node15" class="node">
<title>r2_node_8</title>
<ellipse fill="none" stroke="black" cx="296.33" cy="-378" rx="50.33" ry="18"/>
<text text-anchor="middle" x="296.33" y="-372.95" font-family="Times,serif" font-size="14.00">r2_node_8</text>
</g>
<!-- r2_node_10 -->
<g id="node16" class="node">
<title>r2_node_10</title>
<ellipse fill="none" stroke="black" cx="371.33" cy="-90" rx="54.93" ry="18"/>
<text text-anchor="middle" x="371.33" y="-84.95" font-family="Times,serif" font-size="14.00">r2_node_10</text>
</g>
<!-- r2_node_10&#45;&gt;r2_node_18 -->
<g id="edge23" class="edge">
<title>r2_node_10&#45;&gt;r2_node_18</title>
<path fill="none" stroke="black" d="M419.69,-81.03C492.24,-68.99 625.82,-46.46 673.33,-36 677.32,-35.12 681.45,-34.16 685.58,-33.15"/>
<polygon fill="black" stroke="black" points="686.17,-36.61 695.02,-30.78 684.47,-29.82 686.17,-36.61"/>
</g>
<!-- r2_node_10&#45;&gt;r2_node_17 -->
<g id="edge22" class="edge">
<title>r2_node_10&#45;&gt;r2_node_17</title>
<path fill="none" stroke="black" d="M411.16,-77.28C451.58,-65.4 514.29,-46.95 558.32,-34"/>
<polygon fill="black" stroke="black" points="559.3,-37.36 567.91,-31.18 557.33,-30.65 559.3,-37.36"/>
</g>
<!-- r2_node_10&#45;&gt;r2_node_7 -->
<g id="edge21" class="edge">
<title>r2_node_10&#45;&gt;r2_node_7</title>
<path fill="none" stroke="black" d="M346.55,-106.23C326.33,-117 297.46,-131.48 273.63,-142.85"/>
<polygon fill="black" stroke="black" points="272.34,-139.59 264.79,-147.02 275.33,-145.92 272.34,-139.59"/>
</g>
<!-- r2_node_1 -->
<g id="node18" class="node">
<title>r2_node_1</title>
<ellipse fill="none" stroke="black" cx="483.33" cy="-18" rx="50.33" ry="18"/>
<text text-anchor="middle" x="483.33" y="-12.95" font-family="Times,serif" font-size="14.00">r2_node_1</text>
</g>
<!-- r2_node_10&#45;&gt;r2_node_1 -->
<g id="edge24" class="edge">
<title>r2_node_10&#45;&gt;r2_node_1</title>
<path fill="none" stroke="black" d="M391.24,-72.94C406.22,-62.86 427.02,-49.78 445.12,-39.02"/>
<polygon fill="black" stroke="black" points="446.68,-42.17 453.54,-34.09 443.14,-36.13 446.68,-42.17"/>
</g>
<!-- r2_node_7&#45;&gt;r2_node_15 -->
<g id="edge26" class="edge">
<title>r2_node_7&#45;&gt;r2_node_15</title>
<path fill="none" stroke="black" d="M228.13,-143.7C228.53,-136.32 229.67,-127.52 231.25,-119.25"/>
<polygon fill="black" stroke="black" points="234.65,-120.1 233.41,-109.58 227.82,-118.58 234.65,-120.1"/>
</g>
<!-- r2_node_7&#45;&gt;r2_node_10 -->
<g id="edge27" class="edge">
<title>r2_node_7&#45;&gt;r2_node_10</title>
<path fill="none" stroke="black" d="M255.7,-145.98C275.67,-135.35 304.22,-121 328.01,-109.63"/>
<polygon fill="black" stroke="black" points="329.31,-112.89 336.85,-105.45 326.32,-106.57 329.31,-112.89"/>
</g>
<!-- r2_node_7&#45;&gt;r2_node_9 -->
<g id="edge25" class="edge">
<title>r2_node_7&#45;&gt;r2_node_9</title>
<path fill="none" stroke="black" d="M224.99,-180.12C219.89,-188.5 212.77,-198.74 205.7,-207.98"/>
<polygon fill="black" stroke="black" points="203.14,-205.57 199.67,-215.58 208.63,-209.92 203.14,-205.57"/>
</g>
<!-- r2_node_1&#45;&gt;r2_node_10 -->
<g id="edge38" class="edge">
<title>r2_node_1&#45;&gt;r2_node_10</title>
<path fill="none" stroke="black" d="M463.69,-34.87C448.85,-44.87 428.21,-57.86 410.14,-68.62"/>
<polygon fill="black" stroke="black" points="408.58,-65.48 401.73,-73.56 412.12,-71.51 408.58,-65.48"/>
</g>
<!-- r2_node_9&#45;&gt;r2_node_19 -->
<g id="edge30" class="edge">
<title>r2_node_9&#45;&gt;r2_node_19</title>
<path fill="none" stroke="black" d="M220.49,-222.29C264.54,-210.25 336.29,-190.63 385.09,-177.28"/>
<polygon fill="black" stroke="black" points="385.87,-180.7 394.59,-174.69 384.02,-173.95 385.87,-180.7"/>
</g>
<!-- r2_node_9&#45;&gt;r2_node_13 -->
<g id="edge29" class="edge">
<title>r2_node_9&#45;&gt;r2_node_13</title>
<path fill="none" stroke="black" d="M182.06,-252.28C180.57,-259.86 178.07,-268.95 175.21,-277.43"/>
<polygon fill="black" stroke="black" points="171.99,-276.04 171.81,-286.64 178.56,-278.47 171.99,-276.04"/>
</g>
<!-- r2_node_9&#45;&gt;r2_node_20 -->
<g id="edge31" class="edge">
<title>r2_node_9&#45;&gt;r2_node_20</title>
<path fill="none" stroke="black" d="M178.56,-215.59C173.16,-184.97 159.31,-120.18 132.33,-72 126.62,-61.81 118.68,-51.88 110.94,-43.43"/>
<polygon fill="black" stroke="black" points="113.55,-41.09 104.11,-36.29 108.5,-45.93 113.55,-41.09"/>
</g>
<!-- r2_node_9&#45;&gt;r2_node_7 -->
<g id="edge28" class="edge">
<title>r2_node_9&#45;&gt;r2_node_7</title>
<path fill="none" stroke="black" d="M187.77,-215.7C192.89,-207.32 200,-197.1 207.05,-187.9"/>
<polygon fill="black" stroke="black" points="209.58,-190.34 213.06,-180.33 204.1,-185.98 209.58,-190.34"/>
</g>
<!-- r2_node_2&#45;&gt;r2_node_15 -->
<g id="edge39" class="edge">
<title>r2_node_2&#45;&gt;r2_node_15</title>
<path fill="none" stroke="black" d="M235.38,-36.1C237.93,-43.45 240.32,-52.24 242.06,-60.53"/>
<polygon fill="black" stroke="black" points="238.58,-60.97 243.78,-70.21 245.47,-59.75 238.58,-60.97"/>
</g>
</g>
</svg>
