<?xml version="1.0" encoding="UTF-8" standalone="no"?>
<!DOCTYPE svg PUBLIC "-//W3C//DTD SVG 1.1//EN"
 "http://www.w3.org/Graphics/SVG/1.1/DTD/svg11.dtd">
<!-- Generated by graphviz version 12.2.1 (20241206.2353)
 -->
<!-- Pages: 1 -->
<svg width="620pt" height="260pt"
 viewBox="0.00 0.00 619.87 260.00" xmlns="http://www.w3.org/2000/svg" xmlns:xlink="http://www.w3.org/1999/xlink">
<g id="graph0" class="graph" transform="scale(1 1) rotate(0) translate(4 256)">
<polygon fill="white" stroke="none" points="-4,4 -4,-256 615.87,-256 615.87,4 -4,4"/>
<!-- r2_node_21 -->
<g id="node1" class="node">
<title>r2_node_21</title>
<ellipse fill="none" stroke="black" cx="54.93" cy="-18" rx="54.93" ry="18"/>
<text text-anchor="middle" x="54.93" y="-12.95" font-family="Times,serif" font-size="14.00">r2_node_21</text>
</g>
<!-- r2_node_7 -->
<g id="node2" class="node">
<title>r2_node_7</title>
<ellipse fill="none" stroke="black" cx="97.93" cy="-234" rx="50.33" ry="18"/>
<text text-anchor="middle" x="97.93" y="-228.95" font-family="Times,serif" font-size="14.00">r2_node_7</text>
</g>
<!-- r2_node_7&#45;&gt;r2_node_21 -->
<g id="edge1" class="edge">
<title>r2_node_7&#45;&gt;r2_node_21</title>
<path fill="none" stroke="black" d="M89.63,-216.21C84.9,-205.98 79.28,-192.51 75.93,-180 63.78,-134.61 58.55,-80.06 56.38,-47.53"/>
<polygon fill="black" stroke="black" points="59.89,-47.49 55.78,-37.72 52.9,-47.91 59.89,-47.49"/>
</g>
<!-- r2_node_23 -->
<g id="node3" class="node">
<title>r2_node_23</title>
<ellipse fill="none" stroke="black" cx="139.93" cy="-162" rx="54.93" ry="18"/>
<text text-anchor="middle" x="139.93" y="-156.95" font-family="Times,serif" font-size="14.00">r2_node_23</text>
</g>
<!-- r2_node_7&#45;&gt;r2_node_23 -->
<g id="edge2" class="edge">
<title>r2_node_7&#45;&gt;r2_node_23</title>
<path fill="none" stroke="black" d="M102.4,-215.7C106.38,-207.7 111.97,-198.02 117.69,-189.15"/>
<polygon fill="black" stroke="black" points="120.58,-191.12 123.27,-180.88 114.78,-187.21 120.58,-191.12"/>
</g>
<!-- r2_node_2 -->
<g id="node4" class="node">
<title>r2_node_2</title>
<ellipse fill="none" stroke="black" cx="483.93" cy="-90" rx="50.33" ry="18"/>
<text text-anchor="middle" x="483.93" y="-84.95" font-family="Times,serif" font-size="14.00">r2_node_2</text>
</g>
<!-- r2_node_7&#45;&gt;r2_node_2 -->
<g id="edge3" class="edge">
<title>r2_node_7&#45;&gt;r2_node_2</title>
<path fill="none" stroke="black" d="M130.22,-219.83C174.23,-202 255.63,-169.5 325.93,-144 362.92,-130.59 405.19,-116.47 436.69,-106.18"/>
<polygon fill="black" stroke="black" points="437.5,-109.6 445.92,-103.18 435.33,-102.95 437.5,-109.6"/>
</g>
<!-- r2_node_19 -->
<g id="node5" class="node">
<title>r2_node_19</title>
<ellipse fill="none" stroke="black" cx="389.93" cy="-162" rx="54.93" ry="18"/>
<text text-anchor="middle" x="389.93" y="-156.95" font-family="Times,serif" font-size="14.00">r2_node_19</text>
</g>
<!-- r2_node_7&#45;&gt;r2_node_19 -->
<g id="edge4" class="edge">
<title>r2_node_7&#45;&gt;r2_node_19</title>
<path fill="none" stroke="black" d="M139.06,-223.33C183.82,-212.78 257.5,-195.35 320.93,-180 325.86,-178.81 330.97,-177.56 336.1,-176.31"/>
<polygon fill="black" stroke="black" points="336.9,-179.72 345.78,-173.93 335.24,-172.92 336.9,-179.72"/>
</g>
<!-- r2_node_23&#45;&gt;r2_node_7 -->
<g id="edge10" class="edge">
<title>r2_node_23&#45;&gt;r2_node_7</title>
<path fill="none" stroke="black" d="M135.56,-180.12C131.49,-188.33 125.71,-198.32 119.82,-207.4"/>
<polygon fill="black" stroke="black" points="117.04,-205.27 114.33,-215.51 122.83,-209.2 117.04,-205.27"/>
</g>
<!-- r2_node_16 -->
<g id="node6" class="node">
<title>r2_node_16</title>
<ellipse fill="none" stroke="black" cx="160.93" cy="-90" rx="54.93" ry="18"/>
<text text-anchor="middle" x="160.93" y="-84.95" font-family="Times,serif" font-size="14.00">r2_node_16</text>
</g>
<!-- r2_node_23&#45;&gt;r2_node_16 -->
<g id="edge9" class="edge">
<title>r2_node_23&#45;&gt;r2_node_16</title>
<path fill="none" stroke="black" d="M139.21,-143.7C140.69,-136.15 143.17,-127.12 146.01,-118.68"/>
<polygon fill="black" stroke="black" points="149.21,-120.12 149.38,-109.52 142.64,-117.7 149.21,-120.12"/>
</g>
<!-- r2_node_25 -->
<g id="node9" class="node">
<title>r2_node_25</title>
<ellipse fill="none" stroke="black" cx="360.93" cy="-90" rx="54.93" ry="18"/>
<text text-anchor="middle" x="360.93" y="-84.95" font-family="Times,serif" font-size="14.00">r2_node_25</text>
</g>
<!-- r2_node_23&#45;&gt;r2_node_25 -->
<g id="edge11" class="edge">
<title>r2_node_23&#45;&gt;r2_node_25</title>
<path fill="none" stroke="black" d="M175.6,-148C211.82,-135.97 268.1,-118.12 309.2,-105.61"/>
<polygon fill="black" stroke="black" points="310.08,-109 318.64,-102.75 308.06,-102.3 310.08,-109"/>
</g>
<!-- r2_node_16&#45;&gt;r2_node_21 -->
<g id="edge5" class="edge">
<title>r2_node_16&#45;&gt;r2_node_21</title>
<path fill="none" stroke="black" d="M137.15,-73.29C122.69,-63.74 104.01,-51.41 88.12,-40.91"/>
<polygon fill="black" stroke="black" points="90.18,-38.08 79.91,-35.49 86.32,-43.92 90.18,-38.08"/>
</g>
<!-- r2_node_16&#45;&gt;r2_node_23 -->
<g id="edge6" class="edge">
<title>r2_node_16&#45;&gt;r2_node_23</title>
<path fill="none" stroke="black" d="M161.66,-108.28C160.17,-115.86 157.68,-124.95 154.82,-133.43"/>
<polygon fill="black" stroke="black" points="151.6,-132.04 151.42,-142.64 158.17,-134.47 151.6,-132.04"/>
</g>
<!-- r2_node_11 -->
<g id="node7" class="node">
<title>r2_node_11</title>
<ellipse fill="none" stroke="black" cx="182.93" cy="-18" rx="54.93" ry="18"/>
<text text-anchor="middle" x="182.93" y="-12.95" font-family="Times,serif" font-size="14.00">r2_node_11</text>
</g>
<!-- r2_node_16&#45;&gt;r2_node_11 -->
<g id="edge7" class="edge">
<title>r2_node_16&#45;&gt;r2_node_11</title>
<path fill="none" stroke="black" d="M166.37,-71.7C168.72,-64.24 171.52,-55.32 174.15,-46.97"/>
<polygon fill="black" stroke="black" points="177.45,-48.14 177.1,-37.55 170.77,-46.04 177.45,-48.14"/>
</g>
<!-- r2_node_10 -->
<g id="node8" class="node">
<title>r2_node_10</title>
<ellipse fill="none" stroke="black" cx="310.93" cy="-18" rx="54.93" ry="18"/>
<text text-anchor="middle" x="310.93" y="-12.95" font-family="Times,serif" font-size="14.00">r2_node_10</text>
</g>
<!-- r2_node_16&#45;&gt;r2_node_10 -->
<g id="edge8" class="edge">
<title>r2_node_16&#45;&gt;r2_node_10</title>
<path fill="none" stroke="black" d="M191.65,-74.67C214.3,-64.1 245.34,-49.61 270.08,-38.06"/>
<polygon fill="black" stroke="black" points="271.31,-41.36 278.89,-33.96 268.34,-35.01 271.31,-41.36"/>
</g>
<!-- r2_node_25&#45;&gt;r2_node_23 -->
<g id="edge13" class="edge">
<title>r2_node_25&#45;&gt;r2_node_23</title>
<path fill="none" stroke="black" d="M325.36,-103.97C289.15,-115.99 232.84,-133.85 191.72,-146.37"/>
<polygon fill="black" stroke="black" points="190.82,-142.99 182.26,-149.24 192.85,-149.69 190.82,-142.99"/>
</g>
<!-- r2_node_4 -->
<g id="node10" class="node">
<title>r2_node_4</title>
<ellipse fill="none" stroke="black" cx="433.93" cy="-18" rx="50.33" ry="18"/>
<text text-anchor="middle" x="433.93" y="-12.95" font-family="Times,serif" font-size="14.00">r2_node_4</text>
</g>
<!-- r2_node_25&#45;&gt;r2_node_4 -->
<g id="edge12" class="edge">
<title>r2_node_25&#45;&gt;r2_node_4</title>
<path fill="none" stroke="black" d="M377.87,-72.76C387.01,-63.99 398.49,-52.99 408.67,-43.22"/>
<polygon fill="black" stroke="black" points="410.95,-45.88 415.75,-36.44 406.11,-40.83 410.95,-45.88"/>
</g>
<!-- r2_node_18 -->
<g id="node11" class="node">
<title>r2_node_18</title>
<ellipse fill="none" stroke="black" cx="556.93" cy="-18" rx="54.93" ry="18"/>
<text text-anchor="middle" x="556.93" y="-12.95" font-family="Times,serif" font-size="14.00">r2_node_18</text>
</g>
<!-- r2_node_25&#45;&gt;r2_node_18 -->
<g id="edge14" class="edge">
<title>r2_node_25&#45;&gt;r2_node_18</title>
<path fill="none" stroke="black" d="M396.88,-76.16C428.69,-64.8 475.32,-48.15 510.06,-35.74"/>
<polygon fill="black" stroke="black" points="511.22,-39.04 519.46,-32.39 508.86,-32.45 511.22,-39.04"/>
</g>
</g>
</svg>
