<?xml version="1.0" encoding="UTF-8" standalone="no"?>
<!DOCTYPE svg PUBLIC "-//W3C//DTD SVG 1.1//EN"
 "http://www.w3.org/Graphics/SVG/1.1/DTD/svg11.dtd">
<!-- Generated by graphviz version 12.2.1 (20241206.2353)
 -->
<!-- Pages: 1 -->
<svg width="883pt" height="476pt"
 viewBox="0.00 0.00 882.66 476.00" xmlns="http://www.w3.org/2000/svg" xmlns:xlink="http://www.w3.org/1999/xlink">
<g id="graph0" class="graph" transform="scale(1 1) rotate(0) translate(4 472)">
<polygon fill="white" stroke="none" points="-4,4 -4,-472 878.66,-472 878.66,4 -4,4"/>
<!-- r1_node_19 -->
<g id="node1" class="node">
<title>r1_node_19</title>
<ellipse fill="none" stroke="black" cx="124.33" cy="-90" rx="54.93" ry="18"/>
<text text-anchor="middle" x="124.33" y="-84.95" font-family="Times,serif" font-size="14.00">r1_node_19</text>
</g>
<!-- r1_node_5 -->
<g id="node2" class="node">
<title>r1_node_5</title>
<ellipse fill="none" stroke="black" cx="50.33" cy="-450" rx="50.33" ry="18"/>
<text text-anchor="middle" x="50.33" y="-444.95" font-family="Times,serif" font-size="14.00">r1_node_5</text>
</g>
<!-- r1_node_5&#45;&gt;r1_node_19 -->
<g id="edge2" class="edge">
<title>r1_node_5&#45;&gt;r1_node_19</title>
<path fill="none" stroke="black" d="M50.81,-431.92C51.89,-402.35 55.26,-339.81 65.33,-288 77.27,-226.54 100.54,-156.84 114.01,-119.03"/>
<polygon fill="black" stroke="black" points="117.24,-120.38 117.34,-109.79 110.66,-118.01 117.24,-120.38"/>
</g>
<!-- r1_node_15 -->
<g id="node3" class="node">
<title>r1_node_15</title>
<ellipse fill="none" stroke="black" cx="129.33" cy="-306" rx="54.93" ry="18"/>
<text text-anchor="middle" x="129.33" y="-300.95" font-family="Times,serif" font-size="14.00">r1_node_15</text>
</g>
<!-- r1_node_5&#45;&gt;r1_node_15 -->
<g id="edge1" class="edge">
<title>r1_node_5&#45;&gt;r1_node_15</title>
<path fill="none" stroke="black" d="M59.86,-431.87C73.38,-407.56 98.27,-362.82 114.3,-334.01"/>
<polygon fill="black" stroke="black" points="117.23,-335.95 119.03,-325.51 111.11,-332.55 117.23,-335.95"/>
</g>
<!-- r1_node_6 -->
<g id="node4" class="node">
<title>r1_node_6</title>
<ellipse fill="none" stroke="black" cx="202.33" cy="-378" rx="50.33" ry="18"/>
<text text-anchor="middle" x="202.33" y="-372.95" font-family="Times,serif" font-size="14.00">r1_node_6</text>
</g>
<!-- r1_node_5&#45;&gt;r1_node_6 -->
<g id="edge3" class="edge">
<title>r1_node_5&#45;&gt;r1_node_6</title>
<path fill="none" stroke="black" d="M76.58,-434.33C99.13,-423.3 131.92,-408.15 158.42,-396.49"/>
<polygon fill="black" stroke="black" points="159.81,-399.7 167.58,-392.49 157.01,-393.28 159.81,-399.7"/>
</g>
<!-- r1_node_11 -->
<g id="node5" class="node">
<title>r1_node_11</title>
<ellipse fill="none" stroke="black" cx="512.33" cy="-378" rx="54.93" ry="18"/>
<text text-anchor="middle" x="512.33" y="-372.95" font-family="Times,serif" font-size="14.00">r1_node_11</text>
</g>
<!-- r1_node_5&#45;&gt;r1_node_11 -->
<g id="edge4" class="edge">
<title>r1_node_5&#45;&gt;r1_node_11</title>
<path fill="none" stroke="black" d="M95.25,-441.41C115.7,-438.43 140.15,-435.01 162.33,-432 284.03,-415.46 315.7,-419.14 436.33,-396 442.98,-394.72 449.95,-393.18 456.88,-391.56"/>
<polygon fill="black" stroke="black" points="457.31,-395.06 466.21,-389.31 455.67,-388.25 457.31,-395.06"/>
</g>
<!-- r1_node_6&#45;&gt;r1_node_5 -->
<g id="edge24" class="edge">
<title>r1_node_6&#45;&gt;r1_node_5</title>
<path fill="none" stroke="black" d="M176.03,-393.7C153.45,-404.74 120.63,-419.9 94.12,-431.56"/>
<polygon fill="black" stroke="black" points="92.73,-428.35 84.96,-435.56 95.52,-434.77 92.73,-428.35"/>
</g>
<!-- r1_node_6&#45;&gt;r1_node_15 -->
<g id="edge25" class="edge">
<title>r1_node_6&#45;&gt;r1_node_15</title>
<path fill="none" stroke="black" d="M185.4,-360.76C176.25,-351.99 164.77,-340.99 154.59,-331.22"/>
<polygon fill="black" stroke="black" points="157.15,-328.83 147.51,-324.44 152.31,-333.88 157.15,-328.83"/>
</g>
<!-- r1_node_11&#45;&gt;r1_node_19 -->
<g id="edge28" class="edge">
<title>r1_node_11&#45;&gt;r1_node_19</title>
<path fill="none" stroke="black" d="M470.22,-366.03C461.98,-363.96 453.39,-361.87 445.33,-360 369.24,-342.39 346.62,-350.99 273.33,-324 257.65,-318.23 150.6,-265.9 141.33,-252 114.68,-212.05 116.03,-153.71 119.87,-119.33"/>
<polygon fill="black" stroke="black" points="123.3,-120.1 121.1,-109.73 116.36,-119.21 123.3,-120.1"/>
</g>
<!-- r1_node_11&#45;&gt;r1_node_5 -->
<g id="edge30" class="edge">
<title>r1_node_11&#45;&gt;r1_node_5</title>
<path fill="none" stroke="black" d="M474.89,-391.51C468.09,-393.15 461.05,-394.71 454.33,-396 333.7,-419.14 302.03,-415.46 180.33,-432 157.15,-435.15 131.48,-438.74 109.06,-441.81"/>
<polygon fill="black" stroke="black" points="108.6,-438.34 99.16,-443.16 109.54,-445.28 108.6,-438.34"/>
</g>
<!-- r1_node_8 -->
<g id="node11" class="node">
<title>r1_node_8</title>
<ellipse fill="none" stroke="black" cx="394.33" cy="-306" rx="50.33" ry="18"/>
<text text-anchor="middle" x="394.33" y="-300.95" font-family="Times,serif" font-size="14.00">r1_node_8</text>
</g>
<!-- r1_node_11&#45;&gt;r1_node_8 -->
<g id="edge29" class="edge">
<title>r1_node_11&#45;&gt;r1_node_8</title>
<path fill="none" stroke="black" d="M482.29,-362.5C464.51,-352.7 442.18,-339.59 424.41,-328.57"/>
<polygon fill="black" stroke="black" points="426.67,-325.86 416.34,-323.51 422.95,-331.79 426.67,-325.86"/>
</g>
<!-- r1_node_18 -->
<g id="node14" class="node">
<title>r1_node_18</title>
<ellipse fill="none" stroke="black" cx="507.33" cy="-18" rx="54.93" ry="18"/>
<text text-anchor="middle" x="507.33" y="-12.95" font-family="Times,serif" font-size="14.00">r1_node_18</text>
</g>
<!-- r1_node_11&#45;&gt;r1_node_18 -->
<g id="edge27" class="edge">
<title>r1_node_11&#45;&gt;r1_node_18</title>
<path fill="none" stroke="black" d="M514.15,-359.72C518.54,-317.05 529.62,-203.25 533.33,-108 533.95,-92.01 536.94,-87.59 533.33,-72 531.27,-63.11 527.49,-54 523.45,-45.89"/>
<polygon fill="black" stroke="black" points="526.63,-44.41 518.82,-37.25 520.46,-47.72 526.63,-44.41"/>
</g>
<!-- r1_node_4 -->
<g id="node17" class="node">
<title>r1_node_4</title>
<ellipse fill="none" stroke="black" cx="200.33" cy="-234" rx="50.33" ry="18"/>
<text text-anchor="middle" x="200.33" y="-228.95" font-family="Times,serif" font-size="14.00">r1_node_4</text>
</g>
<!-- r1_node_11&#45;&gt;r1_node_4 -->
<g id="edge26" class="edge">
<title>r1_node_11&#45;&gt;r1_node_4</title>
<path fill="none" stroke="black" d="M467.82,-366.98C420.98,-355.12 351.03,-335.54 326.33,-324 305.58,-314.31 256.46,-280.83 225.88,-257.82"/>
<polygon fill="black" stroke="black" points="228.3,-255.27 218.24,-251.97 224.05,-260.83 228.3,-255.27"/>
</g>
<!-- r1_node_10 -->
<g id="node6" class="node">
<title>r1_node_10</title>
<ellipse fill="none" stroke="black" cx="319.33" cy="-162" rx="54.93" ry="18"/>
<text text-anchor="middle" x="319.33" y="-156.95" font-family="Times,serif" font-size="14.00">r1_node_10</text>
</g>
<!-- r1_node_10&#45;&gt;r1_node_19 -->
<g id="edge5" class="edge">
<title>r1_node_10&#45;&gt;r1_node_19</title>
<path fill="none" stroke="black" d="M283.11,-148C251.5,-136.65 205.45,-120.12 171.07,-107.78"/>
<polygon fill="black" stroke="black" points="172.37,-104.53 161.78,-104.44 170.01,-111.12 172.37,-104.53"/>
</g>
<!-- r1_node_7 -->
<g id="node7" class="node">
<title>r1_node_7</title>
<ellipse fill="none" stroke="black" cx="395.33" cy="-234" rx="50.33" ry="18"/>
<text text-anchor="middle" x="395.33" y="-228.95" font-family="Times,serif" font-size="14.00">r1_node_7</text>
</g>
<!-- r1_node_10&#45;&gt;r1_node_7 -->
<g id="edge6" class="edge">
<title>r1_node_10&#45;&gt;r1_node_7</title>
<path fill="none" stroke="black" d="M342.17,-178.75C352.71,-187.51 365,-198.61 375.18,-208.48"/>
<polygon fill="black" stroke="black" points="372.52,-210.78 382.08,-215.34 377.46,-205.81 372.52,-210.78"/>
</g>
<!-- r1_node_13 -->
<g id="node8" class="node">
<title>r1_node_13</title>
<ellipse fill="none" stroke="black" cx="346.33" cy="-90" rx="54.93" ry="18"/>
<text text-anchor="middle" x="346.33" y="-84.95" font-family="Times,serif" font-size="14.00">r1_node_13</text>
</g>
<!-- r1_node_10&#45;&gt;r1_node_13 -->
<g id="edge7" class="edge">
<title>r1_node_10&#45;&gt;r1_node_13</title>
<path fill="none" stroke="black" d="M320.09,-143.7C322.27,-135.95 325.64,-126.64 329.32,-118.02"/>
<polygon fill="black" stroke="black" points="332.46,-119.55 333.44,-109 326.1,-116.63 332.46,-119.55"/>
</g>
<!-- r1_node_16 -->
<g id="node9" class="node">
<title>r1_node_16</title>
<ellipse fill="none" stroke="black" cx="780.33" cy="-90" rx="54.93" ry="18"/>
<text text-anchor="middle" x="780.33" y="-84.95" font-family="Times,serif" font-size="14.00">r1_node_16</text>
</g>
<!-- r1_node_10&#45;&gt;r1_node_16 -->
<g id="edge8" class="edge">
<title>r1_node_10&#45;&gt;r1_node_16</title>
<path fill="none" stroke="black" d="M359.77,-149.43C367.55,-147.44 375.66,-145.52 383.33,-144 500.01,-120.81 638.05,-104.95 716.78,-96.97"/>
<polygon fill="black" stroke="black" points="716.85,-100.48 726.45,-96 716.15,-93.52 716.85,-100.48"/>
</g>
<!-- r1_node_7&#45;&gt;r1_node_10 -->
<g id="edge14" class="edge">
<title>r1_node_7&#45;&gt;r1_node_10</title>
<path fill="none" stroke="black" d="M372.74,-217.46C362.28,-208.78 350.05,-197.75 339.86,-187.89"/>
<polygon fill="black" stroke="black" points="342.5,-185.58 332.94,-181.03 337.57,-190.55 342.5,-185.58"/>
</g>
<!-- r1_node_9 -->
<g id="node10" class="node">
<title>r1_node_9</title>
<ellipse fill="none" stroke="black" cx="442.33" cy="-162" rx="50.33" ry="18"/>
<text text-anchor="middle" x="442.33" y="-156.95" font-family="Times,serif" font-size="14.00">r1_node_9</text>
</g>
<!-- r1_node_7&#45;&gt;r1_node_9 -->
<g id="edge15" class="edge">
<title>r1_node_7&#45;&gt;r1_node_9</title>
<path fill="none" stroke="black" d="M401.03,-215.7C405.74,-207.4 412.32,-197.31 418.91,-188.19"/>
<polygon fill="black" stroke="black" points="421.58,-190.45 424.79,-180.35 415.99,-186.25 421.58,-190.45"/>
</g>
<!-- r1_node_7&#45;&gt;r1_node_8 -->
<g id="edge13" class="edge">
<title>r1_node_7&#45;&gt;r1_node_8</title>
<path fill="none" stroke="black" d="M400.98,-252.1C401.64,-259.37 401.76,-268.04 401.39,-276.24"/>
<polygon fill="black" stroke="black" points="397.9,-275.94 400.61,-286.19 404.88,-276.49 397.9,-275.94"/>
</g>
<!-- r1_node_7&#45;&gt;r1_node_18 -->
<g id="edge16" class="edge">
<title>r1_node_7&#45;&gt;r1_node_18</title>
<path fill="none" stroke="black" d="M436.83,-223.37C459.94,-215.7 486.9,-202.4 501.33,-180 527.21,-139.82 521.21,-81.56 514.37,-47.25"/>
<polygon fill="black" stroke="black" points="517.83,-46.69 512.28,-37.66 510.99,-48.18 517.83,-46.69"/>
</g>
<!-- r1_node_13&#45;&gt;r1_node_10 -->
<g id="edge31" class="edge">
<title>r1_node_13&#45;&gt;r1_node_10</title>
<path fill="none" stroke="black" d="M345.58,-108.28C343.41,-115.94 340.09,-125.16 336.45,-133.72"/>
<polygon fill="black" stroke="black" points="333.33,-132.13 332.37,-142.68 339.7,-135.03 333.33,-132.13"/>
</g>
<!-- r1_node_14 -->
<g id="node12" class="node">
<title>r1_node_14</title>
<ellipse fill="none" stroke="black" cx="324.33" cy="-18" rx="54.93" ry="18"/>
<text text-anchor="middle" x="324.33" y="-12.95" font-family="Times,serif" font-size="14.00">r1_node_14</text>
</g>
<!-- r1_node_13&#45;&gt;r1_node_14 -->
<g id="edge32" class="edge">
<title>r1_node_13&#45;&gt;r1_node_14</title>
<path fill="none" stroke="black" d="M340.89,-71.7C338.55,-64.24 335.74,-55.32 333.12,-46.97"/>
<polygon fill="black" stroke="black" points="336.49,-46.04 330.16,-37.55 329.82,-48.14 336.49,-46.04"/>
</g>
<!-- r1_node_17 -->
<g id="node18" class="node">
<title>r1_node_17</title>
<ellipse fill="none" stroke="black" cx="56.33" cy="-18" rx="54.93" ry="18"/>
<text text-anchor="middle" x="56.33" y="-12.95" font-family="Times,serif" font-size="14.00">r1_node_17</text>
</g>
<!-- r1_node_13&#45;&gt;r1_node_17 -->
<g id="edge33" class="edge">
<title>r1_node_13&#45;&gt;r1_node_17</title>
<path fill="none" stroke="black" d="M302.91,-78.52C251.62,-66.14 166.24,-45.53 110.62,-32.1"/>
<polygon fill="black" stroke="black" points="111.58,-28.74 101.04,-29.79 109.94,-35.54 111.58,-28.74"/>
</g>
<!-- r1_node_9&#45;&gt;r1_node_7 -->
<g id="edge10" class="edge">
<title>r1_node_9&#45;&gt;r1_node_7</title>
<path fill="none" stroke="black" d="M436.73,-180.12C432.03,-188.41 425.44,-198.53 418.84,-207.69"/>
<polygon fill="black" stroke="black" points="416.14,-205.45 412.94,-215.55 421.74,-209.65 416.14,-205.45"/>
</g>
<!-- r1_node_9&#45;&gt;r1_node_8 -->
<g id="edge9" class="edge">
<title>r1_node_9&#45;&gt;r1_node_8</title>
<path fill="none" stroke="black" d="M456.23,-179.52C465.76,-197.99 473.97,-228.41 463.33,-252 457.38,-265.2 446.34,-276.43 434.73,-285.11"/>
<polygon fill="black" stroke="black" points="432.9,-282.12 426.63,-290.66 436.86,-287.89 432.9,-282.12"/>
</g>
<!-- r1_node_9&#45;&gt;r1_node_14 -->
<g id="edge11" class="edge">
<title>r1_node_9&#45;&gt;r1_node_14</title>
<path fill="none" stroke="black" d="M448.09,-143.7C453.33,-124.54 458.33,-93.5 444.33,-72 430.59,-50.91 406.35,-38.16 383.24,-30.47"/>
<polygon fill="black" stroke="black" points="384.43,-27.17 373.84,-27.62 382.4,-33.87 384.43,-27.17"/>
</g>
<!-- r1_node_20 -->
<g id="node13" class="node">
<title>r1_node_20</title>
<ellipse fill="none" stroke="black" cx="192.33" cy="-18" rx="54.93" ry="18"/>
<text text-anchor="middle" x="192.33" y="-12.95" font-family="Times,serif" font-size="14.00">r1_node_20</text>
</g>
<!-- r1_node_9&#45;&gt;r1_node_20 -->
<g id="edge12" class="edge">
<title>r1_node_9&#45;&gt;r1_node_20</title>
<path fill="none" stroke="black" d="M440.91,-143.57C438.32,-123.37 431,-90.52 410.33,-72 359.27,-26.25 326.92,-52.31 260.33,-36 255.54,-34.83 250.57,-33.6 245.6,-32.37"/>
<polygon fill="black" stroke="black" points="246.77,-29.05 236.22,-30.04 245.08,-35.85 246.77,-29.05"/>
</g>
<!-- r1_node_8&#45;&gt;r1_node_11 -->
<g id="edge40" class="edge">
<title>r1_node_8&#45;&gt;r1_node_11</title>
<path fill="none" stroke="black" d="M423.62,-321.09C441.22,-330.77 463.47,-343.81 481.35,-354.87"/>
<polygon fill="black" stroke="black" points="479.42,-357.79 489.75,-360.14 483.14,-351.86 479.42,-357.79"/>
</g>
<!-- r1_node_8&#45;&gt;r1_node_7 -->
<g id="edge43" class="edge">
<title>r1_node_8&#45;&gt;r1_node_7</title>
<path fill="none" stroke="black" d="M388.66,-287.7C388.01,-280.41 387.89,-271.73 388.27,-263.54"/>
<polygon fill="black" stroke="black" points="391.76,-263.86 389.07,-253.61 384.78,-263.3 391.76,-263.86"/>
</g>
<!-- r1_node_8&#45;&gt;r1_node_9 -->
<g id="edge39" class="edge">
<title>r1_node_8&#45;&gt;r1_node_9</title>
<path fill="none" stroke="black" d="M413.26,-288.89C424.86,-279.8 438.47,-267.2 445.33,-252 453.95,-232.88 450.2,-209.28 446,-191.18"/>
<polygon fill="black" stroke="black" points="449.44,-190.54 443.66,-181.66 442.65,-192.21 449.44,-190.54"/>
</g>
<!-- r1_node_8&#45;&gt;r1_node_20 -->
<g id="edge42" class="edge">
<title>r1_node_8&#45;&gt;r1_node_20</title>
<path fill="none" stroke="black" d="M376.19,-288.94C338.98,-255.98 257.35,-183.46 255.33,-180 230.53,-137.54 251.67,-116.77 231.33,-72 226.93,-62.33 220.58,-52.69 214.28,-44.33"/>
<polygon fill="black" stroke="black" points="217.19,-42.36 208.23,-36.7 211.7,-46.71 217.19,-42.36"/>
</g>
<!-- r1_node_8&#45;&gt;r1_node_17 -->
<g id="edge41" class="edge">
<title>r1_node_8&#45;&gt;r1_node_17</title>
<path fill="none" stroke="black" d="M361.19,-292.02C340.33,-282.83 313.61,-269.11 293.33,-252 262.55,-226.03 259.13,-214.48 238.33,-180 211,-134.71 226.69,-108.42 188.33,-72 167.49,-52.21 138.32,-39.46 112.7,-31.44"/>
<polygon fill="black" stroke="black" points="114,-28.18 103.42,-28.71 112.03,-34.89 114,-28.18"/>
</g>
<!-- r1_node_2 -->
<g id="node15" class="node">
<title>r1_node_2</title>
<ellipse fill="none" stroke="black" cx="230.33" cy="-450" rx="50.33" ry="18"/>
<text text-anchor="middle" x="230.33" y="-444.95" font-family="Times,serif" font-size="14.00">r1_node_2</text>
</g>
<!-- r1_node_2&#45;&gt;r1_node_15 -->
<g id="edge18" class="edge">
<title>r1_node_2&#45;&gt;r1_node_15</title>
<path fill="none" stroke="black" d="M244.51,-432.42C258.78,-413.61 276.63,-382.64 261.33,-360 251.79,-345.89 214.22,-331.6 181.59,-321.42"/>
<polygon fill="black" stroke="black" points="182.79,-318.13 172.21,-318.57 180.76,-324.83 182.79,-318.13"/>
</g>
<!-- r1_node_2&#45;&gt;r1_node_16 -->
<g id="edge19" class="edge">
<title>r1_node_2&#45;&gt;r1_node_16</title>
<path fill="none" stroke="black" d="M279.6,-445.47C383.6,-437.62 618.35,-417.73 647.33,-396 689.21,-364.6 673.41,-335.99 694.33,-288 720.72,-227.44 751.74,-156.43 768.36,-118.39"/>
<polygon fill="black" stroke="black" points="771.44,-120.08 772.24,-109.51 765.03,-117.27 771.44,-120.08"/>
</g>
<!-- r1_node_2&#45;&gt;r1_node_14 -->
<g id="edge17" class="edge">
<title>r1_node_2&#45;&gt;r1_node_14</title>
<path fill="none" stroke="black" d="M279.24,-445.38C373.54,-437.9 573.05,-419.46 593.33,-396 694.81,-278.63 589.22,-162.69 463.33,-72 438.1,-53.82 405.85,-41.02 378.77,-32.56"/>
<polygon fill="black" stroke="black" points="379.93,-29.25 369.35,-29.74 377.93,-35.96 379.93,-29.25"/>
</g>
<!-- r1_node_2&#45;&gt;r1_node_20 -->
<g id="edge21" class="edge">
<title>r1_node_2&#45;&gt;r1_node_20</title>
<path fill="none" stroke="black" d="M279.06,-445.02C369.79,-437.12 557.2,-418.28 576.33,-396 586.75,-383.86 582.35,-374.82 576.33,-360 567.93,-339.32 551.93,-343.64 541.33,-324 502.4,-251.88 539.19,-216.68 501.33,-144 481.27,-105.5 473.09,-93.41 435.33,-72 366.25,-32.83 337.75,-53.63 260.33,-36 255.53,-34.91 250.54,-33.73 245.56,-32.53"/>
<polygon fill="black" stroke="black" points="246.72,-29.21 236.17,-30.25 245.06,-36.02 246.72,-29.21"/>
</g>
<!-- r1_node_12 -->
<g id="node16" class="node">
<title>r1_node_12</title>
<ellipse fill="none" stroke="black" cx="381.33" cy="-378" rx="54.93" ry="18"/>
<text text-anchor="middle" x="381.33" y="-372.95" font-family="Times,serif" font-size="14.00">r1_node_12</text>
</g>
<!-- r1_node_2&#45;&gt;r1_node_12 -->
<g id="edge20" class="edge">
<title>r1_node_2&#45;&gt;r1_node_12</title>
<path fill="none" stroke="black" d="M256.37,-434.33C278.4,-423.47 310.29,-408.63 336.4,-397.05"/>
<polygon fill="black" stroke="black" points="337.69,-400.31 345.43,-393.08 334.87,-393.9 337.69,-400.31"/>
</g>
<!-- r1_node_12&#45;&gt;r1_node_15 -->
<g id="edge44" class="edge">
<title>r1_node_12&#45;&gt;r1_node_15</title>
<path fill="none" stroke="black" d="M340.28,-365.6C296.9,-353.55 228.36,-334.51 181.25,-321.42"/>
<polygon fill="black" stroke="black" points="182.39,-318.11 171.82,-318.8 180.52,-324.85 182.39,-318.11"/>
</g>
<!-- r1_node_12&#45;&gt;r1_node_2 -->
<g id="edge45" class="edge">
<title>r1_node_12&#45;&gt;r1_node_2</title>
<path fill="none" stroke="black" d="M354.49,-394.07C332.06,-405.09 299.83,-420.08 273.77,-431.61"/>
<polygon fill="black" stroke="black" points="272.53,-428.33 264.77,-435.55 275.34,-434.74 272.53,-428.33"/>
</g>
<!-- r1_node_12&#45;&gt;r1_node_17 -->
<g id="edge46" class="edge">
<title>r1_node_12&#45;&gt;r1_node_17</title>
<path fill="none" stroke="black" d="M348.94,-363.01C291.14,-337.59 173.26,-283.52 141.33,-252 89.07,-200.42 80.53,-178.6 60.33,-108 54.73,-88.43 53.83,-65.45 54.28,-47.75"/>
<polygon fill="black" stroke="black" points="57.77,-48.1 54.7,-37.95 50.77,-47.8 57.77,-48.1"/>
</g>
<!-- r1_node_4&#45;&gt;r1_node_19 -->
<g id="edge22" class="edge">
<title>r1_node_4&#45;&gt;r1_node_19</title>
<path fill="none" stroke="black" d="M191.16,-215.87C178.15,-191.56 154.2,-146.82 138.79,-118.01"/>
<polygon fill="black" stroke="black" points="142.05,-116.69 134.24,-109.52 135.87,-119.99 142.05,-116.69"/>
</g>
<!-- r1_node_4&#45;&gt;r1_node_11 -->
<g id="edge23" class="edge">
<title>r1_node_4&#45;&gt;r1_node_11</title>
<path fill="none" stroke="black" d="M226.75,-249.75C261.75,-272.1 320.99,-313.1 344.33,-324 365.69,-333.98 420.9,-349.98 462.32,-361.79"/>
<polygon fill="black" stroke="black" points="461.3,-365.14 471.87,-364.51 463.21,-358.4 461.3,-365.14"/>
</g>
<!-- r1_node_1 -->
<g id="node19" class="node">
<title>r1_node_1</title>
<ellipse fill="none" stroke="black" cx="824.33" cy="-306" rx="50.33" ry="18"/>
<text text-anchor="middle" x="824.33" y="-300.95" font-family="Times,serif" font-size="14.00">r1_node_1</text>
</g>
<!-- r1_node_1&#45;&gt;r1_node_16 -->
<g id="edge34" class="edge">
<title>r1_node_1&#45;&gt;r1_node_16</title>
<path fill="none" stroke="black" d="M826.05,-287.55C828.42,-257.41 830.7,-194.04 814.33,-144 811.23,-134.55 806.04,-125.12 800.64,-116.89"/>
<polygon fill="black" stroke="black" points="803.55,-114.94 794.93,-108.76 797.82,-118.96 803.55,-114.94"/>
</g>
<!-- r1_node_3 -->
<g id="node20" class="node">
<title>r1_node_3</title>
<ellipse fill="none" stroke="black" cx="529.33" cy="-450" rx="50.33" ry="18"/>
<text text-anchor="middle" x="529.33" y="-444.95" font-family="Times,serif" font-size="14.00">r1_node_3</text>
</g>
<!-- r1_node_3&#45;&gt;r1_node_16 -->
<g id="edge36" class="edge">
<title>r1_node_3&#45;&gt;r1_node_16</title>
<path fill="none" stroke="black" d="M577.91,-444.75C638.89,-438.3 738.34,-423.76 761.33,-396 765.16,-391.38 764.91,-293.99 765.33,-288 768.67,-239.87 772.8,-228.12 776.33,-180 777.8,-159.92 778.81,-137.25 779.45,-119.81"/>
<polygon fill="black" stroke="black" points="782.94,-120.04 779.78,-109.92 775.94,-119.8 782.94,-120.04"/>
</g>
<!-- r1_node_3&#45;&gt;r1_node_14 -->
<g id="edge35" class="edge">
<title>r1_node_3&#45;&gt;r1_node_14</title>
<path fill="none" stroke="black" d="M576.03,-442.78C627.54,-434.85 705.53,-419.31 723.33,-396 750.26,-360.72 764.69,-325.81 695.33,-216 624.42,-103.74 466.7,-51.51 381.53,-30.71"/>
<polygon fill="black" stroke="black" points="382.52,-27.35 371.98,-28.45 380.91,-34.16 382.52,-27.35"/>
</g>
<!-- r1_node_3&#45;&gt;r1_node_20 -->
<g id="edge38" class="edge">
<title>r1_node_3&#45;&gt;r1_node_20</title>
<path fill="none" stroke="black" d="M578.39,-445.32C611.73,-439.96 653.58,-427.03 675.33,-396 684.51,-382.9 680.18,-375.25 675.33,-360 651.54,-285.27 537.7,-113.78 471.33,-72 390.81,-21.33 353.43,-55.55 260.33,-36 255.44,-34.97 250.37,-33.84 245.3,-32.66"/>
<polygon fill="black" stroke="black" points="246.3,-29.3 235.76,-30.37 244.67,-36.11 246.3,-29.3"/>
</g>
<!-- r1_node_3&#45;&gt;r1_node_18 -->
<g id="edge37" class="edge">
<title>r1_node_3&#45;&gt;r1_node_18</title>
<path fill="none" stroke="black" d="M577.91,-444.75C638.89,-438.3 738.34,-423.76 761.33,-396 791.96,-359 754.6,-334.82 765.33,-288 788.16,-188.36 910.76,-149.69 844.33,-72 810.26,-32.15 662.12,-22.07 573.99,-19.64"/>
<polygon fill="black" stroke="black" points="574.1,-16.14 564.01,-19.4 573.92,-23.14 574.1,-16.14"/>
</g>
</g>
</svg>
