<?xml version="1.0" encoding="UTF-8" standalone="no"?>
<!DOCTYPE svg PUBLIC "-//W3C//DTD SVG 1.1//EN"
 "http://www.w3.org/Graphics/SVG/1.1/DTD/svg11.dtd">
<!-- Generated by graphviz version 12.2.1 (20241206.2353)
 -->
<!-- Pages: 1 -->
<svg width="1136pt" height="404pt"
 viewBox="0.00 0.00 1135.88 404.00" xmlns="http://www.w3.org/2000/svg" xmlns:xlink="http://www.w3.org/1999/xlink">
<g id="graph0" class="graph" transform="scale(1 1) rotate(0) translate(4 400)">
<polygon fill="white" stroke="none" points="-4,4 -4,-400 1131.88,-400 1131.88,4 -4,4"/>
<!-- r2_node_20 -->
<g id="node1" class="node">
<title>r2_node_20</title>
<ellipse fill="none" stroke="black" cx="436.33" cy="-90" rx="54.93" ry="18"/>
<text text-anchor="middle" x="436.33" y="-84.95" font-family="Times,serif" font-size="14.00">r2_node_20</text>
</g>
<!-- r2_node_2 -->
<g id="node2" class="node">
<title>r2_node_2</title>
<ellipse fill="none" stroke="black" cx="895.33" cy="-90" rx="50.33" ry="18"/>
<text text-anchor="middle" x="895.33" y="-84.95" font-family="Times,serif" font-size="14.00">r2_node_2</text>
</g>
<!-- r2_node_1 -->
<g id="node3" class="node">
<title>r2_node_1</title>
<ellipse fill="none" stroke="black" cx="1048.33" cy="-162" rx="50.33" ry="18"/>
<text text-anchor="middle" x="1048.33" y="-156.95" font-family="Times,serif" font-size="14.00">r2_node_1</text>
</g>
<!-- r2_node_2&#45;&gt;r2_node_1 -->
<g id="edge1" class="edge">
<title>r2_node_2&#45;&gt;r2_node_1</title>
<path fill="none" stroke="black" d="M928.87,-103.89C953.37,-114.39 986.42,-129.4 1011.6,-141.39"/>
<polygon fill="black" stroke="black" points="1009.98,-144.49 1020.5,-145.67 1013.01,-138.18 1009.98,-144.49"/>
</g>
<!-- r2_node_1&#45;&gt;r2_node_2 -->
<g id="edge39" class="edge">
<title>r2_node_1&#45;&gt;r2_node_2</title>
<path fill="none" stroke="black" d="M1014.9,-148.16C990.41,-137.66 957.33,-122.64 932.11,-110.64"/>
<polygon fill="black" stroke="black" points="933.72,-107.53 923.2,-106.35 930.69,-113.84 933.72,-107.53"/>
</g>
<!-- r2_node_7 -->
<g id="node7" class="node">
<title>r2_node_7</title>
<ellipse fill="none" stroke="black" cx="562.33" cy="-234" rx="50.33" ry="18"/>
<text text-anchor="middle" x="562.33" y="-228.95" font-family="Times,serif" font-size="14.00">r2_node_7</text>
</g>
<!-- r2_node_1&#45;&gt;r2_node_7 -->
<g id="edge37" class="edge">
<title>r2_node_1&#45;&gt;r2_node_7</title>
<path fill="none" stroke="black" d="M1005.57,-171.84C989.81,-174.56 971.83,-177.49 955.33,-180 837.31,-197.98 698.46,-216.49 621.33,-226.16"/>
<polygon fill="black" stroke="black" points="620.94,-222.68 611.45,-227.39 621.81,-229.63 620.94,-222.68"/>
</g>
<!-- r2_node_8 -->
<g id="node17" class="node">
<title>r2_node_8</title>
<ellipse fill="none" stroke="black" cx="768.33" cy="-18" rx="50.33" ry="18"/>
<text text-anchor="middle" x="768.33" y="-12.95" font-family="Times,serif" font-size="14.00">r2_node_8</text>
</g>
<!-- r2_node_1&#45;&gt;r2_node_8 -->
<g id="edge38" class="edge">
<title>r2_node_1&#45;&gt;r2_node_8</title>
<path fill="none" stroke="black" d="M1029.52,-145.07C1010.16,-125.12 979.11,-91.25 945.33,-72 907.39,-50.39 859.99,-37.05 823.72,-29.17"/>
<polygon fill="black" stroke="black" points="824.83,-25.82 814.33,-27.2 823.4,-32.68 824.83,-25.82"/>
</g>
<!-- r2_node_10 -->
<g id="node4" class="node">
<title>r2_node_10</title>
<ellipse fill="none" stroke="black" cx="831.33" cy="-162" rx="54.93" ry="18"/>
<text text-anchor="middle" x="831.33" y="-156.95" font-family="Times,serif" font-size="14.00">r2_node_10</text>
</g>
<!-- r2_node_17 -->
<g id="node5" class="node">
<title>r2_node_17</title>
<ellipse fill="none" stroke="black" cx="674.33" cy="-90" rx="54.93" ry="18"/>
<text text-anchor="middle" x="674.33" y="-84.95" font-family="Times,serif" font-size="14.00">r2_node_17</text>
</g>
<!-- r2_node_10&#45;&gt;r2_node_17 -->
<g id="edge2" class="edge">
<title>r2_node_10&#45;&gt;r2_node_17</title>
<path fill="none" stroke="black" d="M796.39,-147.83C771.39,-137.36 737.9,-122.53 712.27,-110.65"/>
<polygon fill="black" stroke="black" points="714.07,-107.63 703.53,-106.57 711.11,-113.97 714.07,-107.63"/>
</g>
<!-- r2_node_18 -->
<g id="node6" class="node">
<title>r2_node_18</title>
<ellipse fill="none" stroke="black" cx="95.33" cy="-18" rx="54.93" ry="18"/>
<text text-anchor="middle" x="95.33" y="-12.95" font-family="Times,serif" font-size="14.00">r2_node_18</text>
</g>
<!-- r2_node_10&#45;&gt;r2_node_18 -->
<g id="edge3" class="edge">
<title>r2_node_10&#45;&gt;r2_node_18</title>
<path fill="none" stroke="black" d="M790.07,-149.82C782.52,-147.83 774.69,-145.82 767.33,-144 697.83,-126.81 679.31,-127.15 610.33,-108 560.76,-94.24 550.62,-82.81 500.33,-72 353.92,-40.54 312.85,-61.73 165.33,-36 159.7,-35.02 153.85,-33.84 148.03,-32.58"/>
<polygon fill="black" stroke="black" points="148.97,-29.2 138.44,-30.4 147.42,-36.03 148.97,-29.2"/>
</g>
<!-- r2_node_10&#45;&gt;r2_node_7 -->
<g id="edge4" class="edge">
<title>r2_node_10&#45;&gt;r2_node_7</title>
<path fill="none" stroke="black" d="M793.43,-175.48C787.72,-177.01 781.89,-178.54 776.33,-180 721.81,-194.29 659.08,-210.47 615.58,-221.15"/>
<polygon fill="black" stroke="black" points="614.76,-217.75 605.87,-223.52 616.42,-224.55 614.76,-217.75"/>
</g>
<!-- r2_node_17&#45;&gt;r2_node_10 -->
<g id="edge35" class="edge">
<title>r2_node_17&#45;&gt;r2_node_10</title>
<path fill="none" stroke="black" d="M709.28,-104.17C734.33,-114.67 767.91,-129.54 793.56,-141.43"/>
<polygon fill="black" stroke="black" points="791.76,-144.45 802.3,-145.51 794.72,-138.11 791.76,-144.45"/>
</g>
<!-- r2_node_19 -->
<g id="node10" class="node">
<title>r2_node_19</title>
<ellipse fill="none" stroke="black" cx="229.33" cy="-18" rx="54.93" ry="18"/>
<text text-anchor="middle" x="229.33" y="-12.95" font-family="Times,serif" font-size="14.00">r2_node_19</text>
</g>
<!-- r2_node_17&#45;&gt;r2_node_19 -->
<g id="edge36" class="edge">
<title>r2_node_17&#45;&gt;r2_node_19</title>
<path fill="none" stroke="black" d="M631.41,-78.5C621.25,-76.19 610.44,-73.88 600.33,-72 492.55,-51.96 365.94,-35.34 291.97,-26.32"/>
<polygon fill="black" stroke="black" points="292.41,-22.85 282.06,-25.12 291.57,-29.8 292.41,-22.85"/>
</g>
<!-- r2_node_7&#45;&gt;r2_node_1 -->
<g id="edge20" class="edge">
<title>r2_node_7&#45;&gt;r2_node_1</title>
<path fill="none" stroke="black" d="M608.29,-226.3C679.12,-216.67 818.74,-198.06 937.33,-180 954.73,-177.35 973.76,-174.24 991.12,-171.4"/>
<polygon fill="black" stroke="black" points="991.46,-174.9 1000.77,-169.83 990.33,-167.99 991.46,-174.9"/>
</g>
<!-- r2_node_7&#45;&gt;r2_node_10 -->
<g id="edge21" class="edge">
<title>r2_node_7&#45;&gt;r2_node_10</title>
<path fill="none" stroke="black" d="M599.75,-221.61C639.28,-210.93 703.03,-194.49 758.33,-180 763.82,-178.56 769.57,-177.05 775.34,-175.54"/>
<polygon fill="black" stroke="black" points="776.14,-178.94 784.94,-173.04 774.38,-172.17 776.14,-178.94"/>
</g>
<!-- r2_node_12 -->
<g id="node9" class="node">
<title>r2_node_12</title>
<ellipse fill="none" stroke="black" cx="398.33" cy="-306" rx="54.93" ry="18"/>
<text text-anchor="middle" x="398.33" y="-300.95" font-family="Times,serif" font-size="14.00">r2_node_12</text>
</g>
<!-- r2_node_7&#45;&gt;r2_node_12 -->
<g id="edge17" class="edge">
<title>r2_node_7&#45;&gt;r2_node_12</title>
<path fill="none" stroke="black" d="M534.21,-249.38C509.64,-260.48 473.66,-275.89 444.83,-287.68"/>
<polygon fill="black" stroke="black" points="443.53,-284.43 435.58,-291.43 446.16,-290.91 443.53,-284.43"/>
</g>
<!-- r2_node_15 -->
<g id="node14" class="node">
<title>r2_node_15</title>
<ellipse fill="none" stroke="black" cx="585.33" cy="-162" rx="54.93" ry="18"/>
<text text-anchor="middle" x="585.33" y="-156.95" font-family="Times,serif" font-size="14.00">r2_node_15</text>
</g>
<!-- r2_node_7&#45;&gt;r2_node_15 -->
<g id="edge18" class="edge">
<title>r2_node_7&#45;&gt;r2_node_15</title>
<path fill="none" stroke="black" d="M562.1,-215.7C563.82,-208.04 566.61,-198.85 569.75,-190.3"/>
<polygon fill="black" stroke="black" points="573,-191.61 573.46,-181.03 566.5,-189.01 573,-191.61"/>
</g>
<!-- r2_node_5 -->
<g id="node15" class="node">
<title>r2_node_5</title>
<ellipse fill="none" stroke="black" cx="541.33" cy="-18" rx="50.33" ry="18"/>
<text text-anchor="middle" x="541.33" y="-12.95" font-family="Times,serif" font-size="14.00">r2_node_5</text>
</g>
<!-- r2_node_7&#45;&gt;r2_node_5 -->
<g id="edge19" class="edge">
<title>r2_node_7&#45;&gt;r2_node_5</title>
<path fill="none" stroke="black" d="M610.43,-228.27C696.34,-219.8 868.42,-200.98 886.33,-180 896.71,-167.83 894.97,-157.47 886.33,-144 875.96,-127.85 747.38,-78.52 729.33,-72 683.7,-55.53 630.49,-41.51 592.27,-32.04"/>
<polygon fill="black" stroke="black" points="593.42,-28.72 582.88,-29.73 591.75,-35.51 593.42,-28.72"/>
</g>
<!-- r2_node_9 -->
<g id="node16" class="node">
<title>r2_node_9</title>
<ellipse fill="none" stroke="black" cx="708.33" cy="-162" rx="50.33" ry="18"/>
<text text-anchor="middle" x="708.33" y="-156.95" font-family="Times,serif" font-size="14.00">r2_node_9</text>
</g>
<!-- r2_node_7&#45;&gt;r2_node_9 -->
<g id="edge22" class="edge">
<title>r2_node_7&#45;&gt;r2_node_9</title>
<path fill="none" stroke="black" d="M587.65,-218.15C609.07,-207.23 640.02,-192.34 665.27,-180.78"/>
<polygon fill="black" stroke="black" points="666.66,-184 674.32,-176.68 663.77,-177.62 666.66,-184"/>
</g>
<!-- r2_node_11 -->
<g id="node8" class="node">
<title>r2_node_11</title>
<ellipse fill="none" stroke="black" cx="273.33" cy="-378" rx="54.93" ry="18"/>
<text text-anchor="middle" x="273.33" y="-372.95" font-family="Times,serif" font-size="14.00">r2_node_11</text>
</g>
<!-- r2_node_11&#45;&gt;r2_node_20 -->
<g id="edge7" class="edge">
<title>r2_node_11&#45;&gt;r2_node_20</title>
<path fill="none" stroke="black" d="M282.15,-360.08C292.7,-340.96 311.8,-309.7 334.33,-288 355.91,-267.21 369.78,-272.82 391.33,-252 419.16,-225.1 428.93,-216.99 440.33,-180 446.36,-160.42 445.08,-137.28 442.44,-119.5"/>
<polygon fill="black" stroke="black" points="445.89,-118.91 440.73,-109.65 438.99,-120.11 445.89,-118.91"/>
</g>
<!-- r2_node_11&#45;&gt;r2_node_12 -->
<g id="edge5" class="edge">
<title>r2_node_11&#45;&gt;r2_node_12</title>
<path fill="none" stroke="black" d="M295.93,-361.12C313.11,-350.83 337.02,-337.37 357.48,-326.45"/>
<polygon fill="black" stroke="black" points="358.95,-329.63 366.16,-321.87 355.68,-323.44 358.95,-329.63"/>
</g>
<!-- r2_node_11&#45;&gt;r2_node_19 -->
<g id="edge6" class="edge">
<title>r2_node_11&#45;&gt;r2_node_19</title>
<path fill="none" stroke="black" d="M285.22,-360.2C313.32,-320.08 382.35,-219.14 393.33,-180 397.65,-164.59 399.01,-158.96 393.33,-144 373.31,-91.36 315.97,-56.21 274.73,-36.94"/>
<polygon fill="black" stroke="black" points="276.3,-33.81 265.75,-32.89 273.42,-40.19 276.3,-33.81"/>
</g>
<!-- r2_node_12&#45;&gt;r2_node_7 -->
<g id="edge16" class="edge">
<title>r2_node_12&#45;&gt;r2_node_7</title>
<path fill="none" stroke="black" d="M427.09,-290.33C452.07,-279.06 488.47,-263.49 517.27,-251.73"/>
<polygon fill="black" stroke="black" points="518.54,-255 526.49,-248 515.91,-248.51 518.54,-255"/>
</g>
<!-- r2_node_12&#45;&gt;r2_node_11 -->
<g id="edge13" class="edge">
<title>r2_node_12&#45;&gt;r2_node_11</title>
<path fill="none" stroke="black" d="M375.77,-322.85C358.6,-333.14 334.67,-346.61 314.2,-357.54"/>
<polygon fill="black" stroke="black" points="312.72,-354.36 305.51,-362.13 315.99,-360.55 312.72,-354.36"/>
</g>
<!-- r2_node_12&#45;&gt;r2_node_19 -->
<g id="edge15" class="edge">
<title>r2_node_12&#45;&gt;r2_node_19</title>
<path fill="none" stroke="black" d="M442.41,-294.85C487.45,-284.4 559.37,-267.5 621.33,-252 748.31,-220.23 966.01,-254.17 895.33,-144 884.96,-127.85 756.84,-77.06 738.33,-72 656.22,-49.55 411.85,-31.01 294.13,-23.11"/>
<polygon fill="black" stroke="black" points="294.53,-19.63 284.32,-22.46 294.06,-26.61 294.53,-19.63"/>
</g>
<!-- r2_node_16 -->
<g id="node11" class="node">
<title>r2_node_16</title>
<ellipse fill="none" stroke="black" cx="945.33" cy="-18" rx="54.93" ry="18"/>
<text text-anchor="middle" x="945.33" y="-12.95" font-family="Times,serif" font-size="14.00">r2_node_16</text>
</g>
<!-- r2_node_12&#45;&gt;r2_node_16 -->
<g id="edge14" class="edge">
<title>r2_node_12&#45;&gt;r2_node_16</title>
<path fill="none" stroke="black" d="M453.38,-304.05C604.05,-300.15 1016.84,-280.37 1098.33,-180 1143.36,-124.53 1044.75,-67.39 985.53,-38.41"/>
<polygon fill="black" stroke="black" points="987.22,-35.33 976.69,-34.15 984.18,-41.64 987.22,-35.33"/>
</g>
<!-- r2_node_3 -->
<g id="node13" class="node">
<title>r2_node_3</title>
<ellipse fill="none" stroke="black" cx="229.33" cy="-234" rx="50.33" ry="18"/>
<text text-anchor="middle" x="229.33" y="-228.95" font-family="Times,serif" font-size="14.00">r2_node_3</text>
</g>
<!-- r2_node_12&#45;&gt;r2_node_3 -->
<g id="edge12" class="edge">
<title>r2_node_12&#45;&gt;r2_node_3</title>
<path fill="none" stroke="black" d="M361.97,-292.16C334.36,-281.38 296.61,-265.84 268.38,-253.68"/>
<polygon fill="black" stroke="black" points="270.02,-250.58 259.45,-249.81 267.23,-257 270.02,-250.58"/>
</g>
<!-- r2_node_16&#45;&gt;r2_node_12 -->
<g id="edge8" class="edge">
<title>r2_node_16&#45;&gt;r2_node_12</title>
<path fill="none" stroke="black" d="M981.86,-31.84C1045.56,-57.98 1165.06,-119.97 1116.33,-180 1035.31,-279.79 626.78,-299.92 464.66,-303.98"/>
<polygon fill="black" stroke="black" points="464.85,-300.47 454.94,-304.21 465.02,-307.47 464.85,-300.47"/>
</g>
<!-- r2_node_13 -->
<g id="node12" class="node">
<title>r2_node_13</title>
<ellipse fill="none" stroke="black" cx="145.33" cy="-378" rx="54.93" ry="18"/>
<text text-anchor="middle" x="145.33" y="-372.95" font-family="Times,serif" font-size="14.00">r2_node_13</text>
</g>
<!-- r2_node_13&#45;&gt;r2_node_20 -->
<g id="edge9" class="edge">
<title>r2_node_13&#45;&gt;r2_node_20</title>
<path fill="none" stroke="black" d="M175.53,-362.57C216.5,-342.01 290.51,-301.25 342.33,-252 382.97,-213.37 411.66,-153.29 425.95,-118.48"/>
<polygon fill="black" stroke="black" points="429.07,-120.12 429.53,-109.53 422.57,-117.52 429.07,-120.12"/>
</g>
<!-- r2_node_13&#45;&gt;r2_node_18 -->
<g id="edge10" class="edge">
<title>r2_node_13&#45;&gt;r2_node_18</title>
<path fill="none" stroke="black" d="M142.92,-359.73C134.91,-302.43 109.18,-118.18 99.27,-47.22"/>
<polygon fill="black" stroke="black" points="102.77,-47.01 97.92,-37.59 95.84,-47.98 102.77,-47.01"/>
</g>
<!-- r2_node_13&#45;&gt;r2_node_19 -->
<g id="edge11" class="edge">
<title>r2_node_13&#45;&gt;r2_node_19</title>
<path fill="none" stroke="black" d="M162.48,-360.5C181.58,-342.31 213.56,-312.39 242.33,-288 292.22,-245.7 321.64,-242.06 342.33,-180 361.03,-123.88 302.69,-70 263,-41.01"/>
<polygon fill="black" stroke="black" points="265.04,-38.17 254.85,-35.24 260.99,-43.88 265.04,-38.17"/>
</g>
<!-- r2_node_3&#45;&gt;r2_node_18 -->
<g id="edge40" class="edge">
<title>r2_node_3&#45;&gt;r2_node_18</title>
<path fill="none" stroke="black" d="M220.35,-216.15C204.31,-186.41 169.23,-122.92 135.33,-72 129.29,-62.94 122.27,-53.35 115.8,-44.85"/>
<polygon fill="black" stroke="black" points="118.63,-42.79 109.75,-37.01 113.09,-47.07 118.63,-42.79"/>
</g>
<!-- r2_node_3&#45;&gt;r2_node_12 -->
<g id="edge42" class="edge">
<title>r2_node_3&#45;&gt;r2_node_12</title>
<path fill="none" stroke="black" d="M264.22,-247.27C291.67,-257.96 329.79,-273.63 358.43,-285.96"/>
<polygon fill="black" stroke="black" points="356.95,-289.13 367.51,-289.89 359.73,-282.7 356.95,-289.13"/>
</g>
<!-- r2_node_14 -->
<g id="node19" class="node">
<title>r2_node_14</title>
<ellipse fill="none" stroke="black" cx="278.33" cy="-162" rx="54.93" ry="18"/>
<text text-anchor="middle" x="278.33" y="-156.95" font-family="Times,serif" font-size="14.00">r2_node_14</text>
</g>
<!-- r2_node_3&#45;&gt;r2_node_14 -->
<g id="edge41" class="edge">
<title>r2_node_3&#45;&gt;r2_node_14</title>
<path fill="none" stroke="black" d="M235.52,-215.7C240.47,-207.4 247.34,-197.31 254.19,-188.19"/>
<polygon fill="black" stroke="black" points="256.92,-190.38 260.31,-180.34 251.4,-186.07 256.92,-190.38"/>
</g>
<!-- r2_node_15&#45;&gt;r2_node_20 -->
<g id="edge31" class="edge">
<title>r2_node_15&#45;&gt;r2_node_20</title>
<path fill="none" stroke="black" d="M554.82,-146.67C532.32,-136.1 501.48,-121.61 476.91,-110.06"/>
<polygon fill="black" stroke="black" points="478.71,-107.04 468.17,-105.96 475.73,-113.38 478.71,-107.04"/>
</g>
<!-- r2_node_15&#45;&gt;r2_node_7 -->
<g id="edge30" class="edge">
<title>r2_node_15&#45;&gt;r2_node_7</title>
<path fill="none" stroke="black" d="M585.56,-180.28C583.86,-187.86 581.1,-196.95 578,-205.43"/>
<polygon fill="black" stroke="black" points="574.78,-204.06 574.33,-214.65 581.28,-206.65 574.78,-204.06"/>
</g>
<!-- r2_node_5&#45;&gt;r2_node_7 -->
<g id="edge43" class="edge">
<title>r2_node_5&#45;&gt;r2_node_7</title>
<path fill="none" stroke="black" d="M585.22,-27.06C627.61,-36.17 692.86,-52.34 747.33,-72 765.38,-78.52 893.96,-127.85 904.33,-144 912.97,-157.47 914.71,-167.83 904.33,-180 886.5,-200.89 715.85,-219.64 622.48,-228.15"/>
<polygon fill="black" stroke="black" points="622.37,-224.65 612.72,-229.03 622.99,-231.62 622.37,-224.65"/>
</g>
<!-- r2_node_9&#45;&gt;r2_node_20 -->
<g id="edge25" class="edge">
<title>r2_node_9&#45;&gt;r2_node_20</title>
<path fill="none" stroke="black" d="M670.3,-149.82C663.34,-147.84 656.12,-145.82 649.33,-144 595.61,-129.58 533.91,-114.38 490.79,-103.97"/>
<polygon fill="black" stroke="black" points="491.7,-100.59 481.16,-101.65 490.06,-107.39 491.7,-100.59"/>
</g>
<!-- r2_node_9&#45;&gt;r2_node_7 -->
<g id="edge23" class="edge">
<title>r2_node_9&#45;&gt;r2_node_7</title>
<path fill="none" stroke="black" d="M682.94,-177.87C661.5,-188.81 630.52,-203.72 605.26,-215.27"/>
<polygon fill="black" stroke="black" points="603.88,-212.06 596.21,-219.37 606.77,-218.43 603.88,-212.06"/>
</g>
<!-- r2_node_9&#45;&gt;r2_node_19 -->
<g id="edge24" class="edge">
<title>r2_node_9&#45;&gt;r2_node_19</title>
<path fill="none" stroke="black" d="M680.11,-146.65C640.77,-127.17 566.77,-92.46 500.33,-72 429.92,-50.32 346.4,-35.57 290.87,-27.24"/>
<polygon fill="black" stroke="black" points="291.71,-23.83 281.3,-25.83 290.69,-30.75 291.71,-23.83"/>
</g>
<!-- r2_node_8&#45;&gt;r2_node_1 -->
<g id="edge26" class="edge">
<title>r2_node_8&#45;&gt;r2_node_1</title>
<path fill="none" stroke="black" d="M815.46,-24.74C856.8,-31.62 917.09,-45.66 963.33,-72 991.86,-88.25 1018.44,-114.94 1034.33,-134.86"/>
<polygon fill="black" stroke="black" points="1031.51,-136.93 1040.32,-142.81 1037.1,-132.72 1031.51,-136.93"/>
</g>
<!-- r2_node_4 -->
<g id="node18" class="node">
<title>r2_node_4</title>
<ellipse fill="none" stroke="black" cx="237.33" cy="-90" rx="50.33" ry="18"/>
<text text-anchor="middle" x="237.33" y="-84.95" font-family="Times,serif" font-size="14.00">r2_node_4</text>
</g>
<!-- r2_node_4&#45;&gt;r2_node_18 -->
<g id="edge28" class="edge">
<title>r2_node_4&#45;&gt;r2_node_18</title>
<path fill="none" stroke="black" d="M208.59,-74.83C187.51,-64.44 158.61,-50.19 135.28,-38.69"/>
<polygon fill="black" stroke="black" points="136.87,-35.58 126.36,-34.3 133.78,-41.86 136.87,-35.58"/>
</g>
<!-- r2_node_4&#45;&gt;r2_node_19 -->
<g id="edge29" class="edge">
<title>r2_node_4&#45;&gt;r2_node_19</title>
<path fill="none" stroke="black" d="M235.35,-71.7C234.52,-64.41 233.53,-55.73 232.59,-47.54"/>
<polygon fill="black" stroke="black" points="236.07,-47.15 231.45,-37.61 229.11,-47.94 236.07,-47.15"/>
</g>
<!-- r2_node_4&#45;&gt;r2_node_14 -->
<g id="edge27" class="edge">
<title>r2_node_4&#45;&gt;r2_node_14</title>
<path fill="none" stroke="black" d="M252.57,-107.14C258.07,-115.01 264,-124.68 268.91,-133.64"/>
<polygon fill="black" stroke="black" points="265.71,-135.08 273.41,-142.35 271.93,-131.86 265.71,-135.08"/>
</g>
<!-- r2_node_14&#45;&gt;r2_node_3 -->
<g id="edge33" class="edge">
<title>r2_node_14&#45;&gt;r2_node_3</title>
<path fill="none" stroke="black" d="M272.24,-180.12C267.3,-188.41 260.43,-198.53 253.56,-207.69"/>
<polygon fill="black" stroke="black" points="250.81,-205.53 247.42,-215.57 256.33,-209.83 250.81,-205.53"/>
</g>
<!-- r2_node_14&#45;&gt;r2_node_4 -->
<g id="edge32" class="edge">
<title>r2_node_14&#45;&gt;r2_node_4</title>
<path fill="none" stroke="black" d="M262.77,-144.41C257.28,-136.51 251.37,-126.85 246.52,-117.94"/>
<polygon fill="black" stroke="black" points="249.76,-116.59 242.07,-109.3 243.54,-119.8 249.76,-116.59"/>
</g>
<!-- r2_node_6 -->
<g id="node20" class="node">
<title>r2_node_6</title>
<ellipse fill="none" stroke="black" cx="50.33" cy="-306" rx="50.33" ry="18"/>
<text text-anchor="middle" x="50.33" y="-300.95" font-family="Times,serif" font-size="14.00">r2_node_6</text>
</g>
<!-- r2_node_6&#45;&gt;r2_node_18 -->
<g id="edge34" class="edge">
<title>r2_node_6&#45;&gt;r2_node_18</title>
<path fill="none" stroke="black" d="M53.08,-287.54C60.61,-239.66 81.65,-105.95 90.88,-47.24"/>
<polygon fill="black" stroke="black" points="94.28,-48.15 92.38,-37.73 87.37,-47.06 94.28,-48.15"/>
</g>
</g>
</svg>
