<?xml version="1.0" encoding="UTF-8" standalone="no"?>
<!DOCTYPE svg PUBLIC "-//W3C//DTD SVG 1.1//EN"
 "http://www.w3.org/Graphics/SVG/1.1/DTD/svg11.dtd">
<!-- Generated by graphviz version 12.2.1 (20241206.2353)
 -->
<!-- Pages: 1 -->
<svg width="610pt" height="332pt"
 viewBox="0.00 0.00 609.66 332.00" xmlns="http://www.w3.org/2000/svg" xmlns:xlink="http://www.w3.org/1999/xlink">
<g id="graph0" class="graph" transform="scale(1 1) rotate(0) translate(4 328)">
<polygon fill="white" stroke="none" points="-4,4 -4,-328 605.66,-328 605.66,4 -4,4"/>
<!-- r1_node_6 -->
<g id="node1" class="node">
<title>r1_node_6</title>
<ellipse fill="none" stroke="black" cx="50.33" cy="-306" rx="50.33" ry="18"/>
<text text-anchor="middle" x="50.33" y="-300.95" font-family="Times,serif" font-size="14.00">r1_node_6</text>
</g>
<!-- r1_node_9 -->
<g id="node2" class="node">
<title>r1_node_9</title>
<ellipse fill="none" stroke="black" cx="122.33" cy="-18" rx="50.33" ry="18"/>
<text text-anchor="middle" x="122.33" y="-12.95" font-family="Times,serif" font-size="14.00">r1_node_9</text>
</g>
<!-- r1_node_6&#45;&gt;r1_node_9 -->
<g id="edge1" class="edge">
<title>r1_node_6&#45;&gt;r1_node_9</title>
<path fill="none" stroke="black" d="M51.64,-287.56C55.03,-248.13 65.77,-149.52 93.33,-72 96.49,-63.11 101.01,-53.91 105.55,-45.73"/>
<polygon fill="black" stroke="black" points="108.44,-47.73 110.44,-37.32 102.39,-44.21 108.44,-47.73"/>
</g>
<!-- r1_node_10 -->
<g id="node3" class="node">
<title>r1_node_10</title>
<ellipse fill="none" stroke="black" cx="304.33" cy="-234" rx="54.93" ry="18"/>
<text text-anchor="middle" x="304.33" y="-228.95" font-family="Times,serif" font-size="14.00">r1_node_10</text>
</g>
<!-- r1_node_6&#45;&gt;r1_node_10 -->
<g id="edge2" class="edge">
<title>r1_node_6&#45;&gt;r1_node_10</title>
<path fill="none" stroke="black" d="M87.38,-293.36C130.27,-280.99 201.07,-261.45 250.12,-248.44"/>
<polygon fill="black" stroke="black" points="250.93,-251.84 259.7,-245.91 249.14,-245.08 250.93,-251.84"/>
</g>
<!-- r1_node_19 -->
<g id="node4" class="node">
<title>r1_node_19</title>
<ellipse fill="none" stroke="black" cx="344.33" cy="-162" rx="54.93" ry="18"/>
<text text-anchor="middle" x="344.33" y="-156.95" font-family="Times,serif" font-size="14.00">r1_node_19</text>
</g>
<!-- r1_node_6&#45;&gt;r1_node_19 -->
<g id="edge3" class="edge">
<title>r1_node_6&#45;&gt;r1_node_19</title>
<path fill="none" stroke="black" d="M76.64,-290.21C127.62,-264.08 239.74,-209.87 301.55,-181.39"/>
<polygon fill="black" stroke="black" points="302.74,-184.69 310.37,-177.34 299.82,-178.33 302.74,-184.69"/>
</g>
<!-- r1_node_18 -->
<g id="node5" class="node">
<title>r1_node_18</title>
<ellipse fill="none" stroke="black" cx="195.33" cy="-162" rx="54.93" ry="18"/>
<text text-anchor="middle" x="195.33" y="-156.95" font-family="Times,serif" font-size="14.00">r1_node_18</text>
</g>
<!-- r1_node_6&#45;&gt;r1_node_18 -->
<g id="edge4" class="edge">
<title>r1_node_6&#45;&gt;r1_node_18</title>
<path fill="none" stroke="black" d="M62.98,-288.15C86.05,-262.9 134.6,-215.16 166.16,-186.5"/>
<polygon fill="black" stroke="black" points="168.34,-189.24 173.45,-179.96 163.67,-184.03 168.34,-189.24"/>
</g>
<!-- r1_node_8 -->
<g id="node6" class="node">
<title>r1_node_8</title>
<ellipse fill="none" stroke="black" cx="551.33" cy="-90" rx="50.33" ry="18"/>
<text text-anchor="middle" x="551.33" y="-84.95" font-family="Times,serif" font-size="14.00">r1_node_8</text>
</g>
<!-- r1_node_6&#45;&gt;r1_node_8 -->
<g id="edge5" class="edge">
<title>r1_node_6&#45;&gt;r1_node_8</title>
<path fill="none" stroke="black" d="M98.87,-300.58C214.19,-289.38 498.3,-255.21 550.33,-180 562.4,-162.54 559.29,-138.32 555.14,-119.56"/>
<polygon fill="black" stroke="black" points="558.56,-118.8 552.84,-109.89 551.75,-120.42 558.56,-118.8"/>
</g>
<!-- r1_node_2 -->
<g id="node7" class="node">
<title>r1_node_2</title>
<ellipse fill="none" stroke="black" cx="152.33" cy="-90" rx="50.33" ry="18"/>
<text text-anchor="middle" x="152.33" y="-84.95" font-family="Times,serif" font-size="14.00">r1_node_2</text>
</g>
<!-- r1_node_6&#45;&gt;r1_node_2 -->
<g id="edge6" class="edge">
<title>r1_node_6&#45;&gt;r1_node_2</title>
<path fill="none" stroke="black" d="M58.5,-287.85C76.15,-250.83 117.92,-163.18 139.27,-118.39"/>
<polygon fill="black" stroke="black" points="142.32,-120.13 143.46,-109.6 136,-117.12 142.32,-120.13"/>
</g>
<!-- r1_node_10&#45;&gt;r1_node_6 -->
<g id="edge15" class="edge">
<title>r1_node_10&#45;&gt;r1_node_6</title>
<path fill="none" stroke="black" d="M265.81,-247.06C222.02,-259.67 150.54,-279.38 101.96,-292.24"/>
<polygon fill="black" stroke="black" points="101.3,-288.8 92.52,-294.73 103.08,-295.57 101.3,-288.8"/>
</g>
<!-- r1_node_10&#45;&gt;r1_node_19 -->
<g id="edge17" class="edge">
<title>r1_node_10&#45;&gt;r1_node_19</title>
<path fill="none" stroke="black" d="M308.3,-215.7C312.05,-207.7 317.36,-198.02 322.83,-189.15"/>
<polygon fill="black" stroke="black" points="325.68,-191.19 328.16,-180.89 319.8,-187.39 325.68,-191.19"/>
</g>
<!-- r1_node_10&#45;&gt;r1_node_18 -->
<g id="edge13" class="edge">
<title>r1_node_10&#45;&gt;r1_node_18</title>
<path fill="none" stroke="black" d="M275.86,-218.33C259.87,-208.83 240.09,-196.28 224.06,-185.54"/>
<polygon fill="black" stroke="black" points="226.13,-182.71 215.89,-179.97 222.19,-188.49 226.13,-182.71"/>
</g>
<!-- r1_node_10&#45;&gt;r1_node_8 -->
<g id="edge16" class="edge">
<title>r1_node_10&#45;&gt;r1_node_8</title>
<path fill="none" stroke="black" d="M354.28,-226.07C409.64,-217.89 493.94,-202.48 517.33,-180 533.6,-164.36 539.54,-139.05 543.08,-119.41"/>
<polygon fill="black" stroke="black" points="546.48,-120.28 544.73,-109.83 539.58,-119.09 546.48,-120.28"/>
</g>
<!-- r1_node_4 -->
<g id="node11" class="node">
<title>r1_node_4</title>
<ellipse fill="none" stroke="black" cx="467.33" cy="-162" rx="50.33" ry="18"/>
<text text-anchor="middle" x="467.33" y="-156.95" font-family="Times,serif" font-size="14.00">r1_node_4</text>
</g>
<!-- r1_node_10&#45;&gt;r1_node_4 -->
<g id="edge14" class="edge">
<title>r1_node_10&#45;&gt;r1_node_4</title>
<path fill="none" stroke="black" d="M336.53,-219.17C362,-208.23 397.77,-192.87 425.46,-180.98"/>
<polygon fill="black" stroke="black" points="426.82,-184.2 434.63,-177.04 424.06,-177.77 426.82,-184.2"/>
</g>
<!-- r1_node_19&#45;&gt;r1_node_6 -->
<g id="edge23" class="edge">
<title>r1_node_19&#45;&gt;r1_node_6</title>
<path fill="none" stroke="black" d="M317.37,-178.13C265.85,-204.5 153.61,-258.76 92.25,-287.01"/>
<polygon fill="black" stroke="black" points="91.14,-283.67 83.51,-291.01 94.06,-290.03 91.14,-283.67"/>
</g>
<!-- r1_node_19&#45;&gt;r1_node_9 -->
<g id="edge27" class="edge">
<title>r1_node_19&#45;&gt;r1_node_9</title>
<path fill="none" stroke="black" d="M366.56,-145.06C389.65,-126.57 419.88,-95.63 400.33,-72 386.41,-55.18 257.78,-36.16 180.46,-26.11"/>
<polygon fill="black" stroke="black" points="181.31,-22.69 170.94,-24.89 180.42,-29.64 181.31,-22.69"/>
</g>
<!-- r1_node_19&#45;&gt;r1_node_10 -->
<g id="edge26" class="edge">
<title>r1_node_19&#45;&gt;r1_node_10</title>
<path fill="none" stroke="black" d="M340.29,-180.45C336.54,-188.44 331.23,-198.08 325.78,-206.92"/>
<polygon fill="black" stroke="black" points="322.96,-204.84 320.47,-215.14 328.84,-208.64 322.96,-204.84"/>
</g>
<!-- r1_node_19&#45;&gt;r1_node_8 -->
<g id="edge24" class="edge">
<title>r1_node_19&#45;&gt;r1_node_8</title>
<path fill="none" stroke="black" d="M378.32,-147.67C412.17,-135.65 464.3,-118 502.55,-105.6"/>
<polygon fill="black" stroke="black" points="503.55,-108.95 512,-102.56 501.4,-102.29 503.55,-108.95"/>
</g>
<!-- r1_node_7 -->
<g id="node9" class="node">
<title>r1_node_7</title>
<ellipse fill="none" stroke="black" cx="334.33" cy="-18" rx="50.33" ry="18"/>
<text text-anchor="middle" x="334.33" y="-12.95" font-family="Times,serif" font-size="14.00">r1_node_7</text>
</g>
<!-- r1_node_19&#45;&gt;r1_node_7 -->
<g id="edge25" class="edge">
<title>r1_node_19&#45;&gt;r1_node_7</title>
<path fill="none" stroke="black" d="M385.58,-149.79C406.48,-141.79 430,-128.69 442.33,-108 450.52,-94.26 450.79,-85.58 442.33,-72 430.1,-52.38 408.25,-39.81 387.39,-31.88"/>
<polygon fill="black" stroke="black" points="388.65,-28.61 378.06,-28.63 386.35,-35.22 388.65,-28.61"/>
</g>
<!-- r1_node_12 -->
<g id="node10" class="node">
<title>r1_node_12</title>
<ellipse fill="none" stroke="black" cx="336.33" cy="-90" rx="54.93" ry="18"/>
<text text-anchor="middle" x="336.33" y="-84.95" font-family="Times,serif" font-size="14.00">r1_node_12</text>
</g>
<!-- r1_node_19&#45;&gt;r1_node_12 -->
<g id="edge28" class="edge">
<title>r1_node_19&#45;&gt;r1_node_12</title>
<path fill="none" stroke="black" d="M342.35,-143.7C341.52,-136.41 340.53,-127.73 339.59,-119.54"/>
<polygon fill="black" stroke="black" points="343.07,-119.15 338.45,-109.61 336.11,-119.94 343.07,-119.15"/>
</g>
<!-- r1_node_18&#45;&gt;r1_node_6 -->
<g id="edge18" class="edge">
<title>r1_node_18&#45;&gt;r1_node_6</title>
<path fill="none" stroke="black" d="M182.83,-179.69C159.75,-204.96 110.88,-253.02 79.26,-281.71"/>
<polygon fill="black" stroke="black" points="77.07,-278.97 71.96,-288.25 81.74,-284.19 77.07,-278.97"/>
</g>
<!-- r1_node_18&#45;&gt;r1_node_9 -->
<g id="edge20" class="edge">
<title>r1_node_18&#45;&gt;r1_node_9</title>
<path fill="none" stroke="black" d="M204.81,-143.79C213.78,-124.98 224.13,-94.52 211.33,-72 201.98,-55.56 185.29,-43.68 168.87,-35.39"/>
<polygon fill="black" stroke="black" points="170.67,-32.37 160.12,-31.32 167.72,-38.71 170.67,-32.37"/>
</g>
<!-- r1_node_18&#45;&gt;r1_node_10 -->
<g id="edge19" class="edge">
<title>r1_node_18&#45;&gt;r1_node_10</title>
<path fill="none" stroke="black" d="M223.86,-177.72C239.79,-187.18 259.48,-199.66 275.45,-210.37"/>
<polygon fill="black" stroke="black" points="273.36,-213.18 283.6,-215.91 277.3,-207.39 273.36,-213.18"/>
</g>
<!-- r1_node_18&#45;&gt;r1_node_2 -->
<g id="edge22" class="edge">
<title>r1_node_18&#45;&gt;r1_node_2</title>
<path fill="none" stroke="black" d="M184.92,-144.05C180.01,-136.06 174.03,-126.33 168.54,-117.4"/>
<polygon fill="black" stroke="black" points="171.65,-115.77 163.43,-109.08 165.69,-119.43 171.65,-115.77"/>
</g>
<!-- r1_node_18&#45;&gt;r1_node_12 -->
<g id="edge21" class="edge">
<title>r1_node_18&#45;&gt;r1_node_12</title>
<path fill="none" stroke="black" d="M224.54,-146.5C245.53,-136.08 274.05,-121.92 297.03,-110.51"/>
<polygon fill="black" stroke="black" points="298.39,-113.74 305.79,-106.16 295.28,-107.47 298.39,-113.74"/>
</g>
<!-- r1_node_8&#45;&gt;r1_node_6 -->
<g id="edge10" class="edge">
<title>r1_node_8&#45;&gt;r1_node_6</title>
<path fill="none" stroke="black" d="M565.23,-107.72C575.08,-126.93 583.15,-158.57 568.33,-180 516.62,-254.75 235.68,-288.95 110.46,-300.37"/>
<polygon fill="black" stroke="black" points="110.36,-296.87 100.71,-301.24 110.98,-303.84 110.36,-296.87"/>
</g>
<!-- r1_node_8&#45;&gt;r1_node_9 -->
<g id="edge8" class="edge">
<title>r1_node_8&#45;&gt;r1_node_9</title>
<path fill="none" stroke="black" d="M506.23,-81.64C427.38,-68.77 264.67,-42.23 178.58,-28.18"/>
<polygon fill="black" stroke="black" points="179.39,-24.77 168.96,-26.61 178.27,-31.67 179.39,-24.77"/>
</g>
<!-- r1_node_8&#45;&gt;r1_node_10 -->
<g id="edge11" class="edge">
<title>r1_node_8&#45;&gt;r1_node_10</title>
<path fill="none" stroke="black" d="M557.81,-108.34C559.51,-128.44 554.88,-161.2 535.33,-180 511.91,-202.51 427.45,-217.92 367.36,-226.1"/>
<polygon fill="black" stroke="black" points="367.03,-222.61 357.57,-227.39 367.95,-229.55 367.03,-222.61"/>
</g>
<!-- r1_node_8&#45;&gt;r1_node_19 -->
<g id="edge12" class="edge">
<title>r1_node_8&#45;&gt;r1_node_19</title>
<path fill="none" stroke="black" d="M518.43,-103.94C485.06,-115.81 433.16,-133.39 394.65,-145.9"/>
<polygon fill="black" stroke="black" points="394.05,-142.42 385.61,-148.82 396.2,-149.08 394.05,-142.42"/>
</g>
<!-- r1_node_20 -->
<g id="node8" class="node">
<title>r1_node_20</title>
<ellipse fill="none" stroke="black" cx="504.33" cy="-18" rx="54.93" ry="18"/>
<text text-anchor="middle" x="504.33" y="-12.95" font-family="Times,serif" font-size="14.00">r1_node_20</text>
</g>
<!-- r1_node_8&#45;&gt;r1_node_20 -->
<g id="edge7" class="edge">
<title>r1_node_8&#45;&gt;r1_node_20</title>
<path fill="none" stroke="black" d="M539.95,-72.05C534.52,-63.97 527.91,-54.12 521.86,-45.11"/>
<polygon fill="black" stroke="black" points="524.92,-43.4 516.44,-37.05 519.11,-47.3 524.92,-43.4"/>
</g>
<!-- r1_node_8&#45;&gt;r1_node_7 -->
<g id="edge9" class="edge">
<title>r1_node_8&#45;&gt;r1_node_7</title>
<path fill="none" stroke="black" d="M515.01,-77.28C478.39,-65.47 421.71,-47.19 381.61,-34.25"/>
<polygon fill="black" stroke="black" points="382.8,-30.96 372.21,-31.22 380.65,-37.62 382.8,-30.96"/>
</g>
</g>
</svg>
