<?xml version="1.0" encoding="UTF-8" standalone="no"?>
<!DOCTYPE svg PUBLIC "-//W3C//DTD SVG 1.1//EN"
 "http://www.w3.org/Graphics/SVG/1.1/DTD/svg11.dtd">
<!-- Generated by graphviz version 12.2.1 (20241206.2353)
 -->
<!-- Pages: 1 -->
<svg width="808pt" height="332pt"
 viewBox="0.00 0.00 808.26 332.00" xmlns="http://www.w3.org/2000/svg" xmlns:xlink="http://www.w3.org/1999/xlink">
<g id="graph0" class="graph" transform="scale(1 1) rotate(0) translate(4 328)">
<polygon fill="white" stroke="none" points="-4,4 -4,-328 804.26,-328 804.26,4 -4,4"/>
<!-- r3_node_4 -->
<g id="node1" class="node">
<title>r3_node_4</title>
<ellipse fill="none" stroke="black" cx="50.33" cy="-234" rx="50.33" ry="18"/>
<text text-anchor="middle" x="50.33" y="-228.95" font-family="Times,serif" font-size="14.00">r3_node_4</text>
</g>
<!-- r3_node_10 -->
<g id="node2" class="node">
<title>r3_node_10</title>
<ellipse fill="none" stroke="black" cx="173.33" cy="-234" rx="54.93" ry="18"/>
<text text-anchor="middle" x="173.33" y="-228.95" font-family="Times,serif" font-size="14.00">r3_node_10</text>
</g>
<!-- r3_node_23 -->
<g id="node3" class="node">
<title>r3_node_23</title>
<ellipse fill="none" stroke="black" cx="685.33" cy="-234" rx="54.93" ry="18"/>
<text text-anchor="middle" x="685.33" y="-228.95" font-family="Times,serif" font-size="14.00">r3_node_23</text>
</g>
<!-- r3_node_29 -->
<g id="node4" class="node">
<title>r3_node_29</title>
<ellipse fill="none" stroke="black" cx="541.33" cy="-90" rx="54.93" ry="18"/>
<text text-anchor="middle" x="541.33" y="-84.95" font-family="Times,serif" font-size="14.00">r3_node_29</text>
</g>
<!-- r3_node_26 -->
<g id="node5" class="node">
<title>r3_node_26</title>
<ellipse fill="none" stroke="black" cx="708.33" cy="-90" rx="54.93" ry="18"/>
<text text-anchor="middle" x="708.33" y="-84.95" font-family="Times,serif" font-size="14.00">r3_node_26</text>
</g>
<!-- r3_node_1 -->
<g id="node6" class="node">
<title>r3_node_1</title>
<ellipse fill="none" stroke="black" cx="418.33" cy="-90" rx="50.33" ry="18"/>
<text text-anchor="middle" x="418.33" y="-84.95" font-family="Times,serif" font-size="14.00">r3_node_1</text>
</g>
<!-- r3_node_27 -->
<g id="node7" class="node">
<title>r3_node_27</title>
<ellipse fill="none" stroke="black" cx="745.33" cy="-18" rx="54.93" ry="18"/>
<text text-anchor="middle" x="745.33" y="-12.95" font-family="Times,serif" font-size="14.00">r3_node_27</text>
</g>
<!-- r3_node_1&#45;&gt;r3_node_27 -->
<g id="edge1" class="edge">
<title>r3_node_1&#45;&gt;r3_node_27</title>
<path fill="none" stroke="black" d="M455.97,-77.64C463.04,-75.65 470.39,-73.68 477.33,-72 548.76,-54.68 631.92,-38.91 686.43,-29.15"/>
<polygon fill="black" stroke="black" points="686.89,-32.63 696.13,-27.43 685.67,-25.74 686.89,-32.63"/>
</g>
<!-- r3_node_9 -->
<g id="node8" class="node">
<title>r3_node_9</title>
<ellipse fill="none" stroke="black" cx="434.33" cy="-162" rx="50.33" ry="18"/>
<text text-anchor="middle" x="434.33" y="-156.95" font-family="Times,serif" font-size="14.00">r3_node_9</text>
</g>
<!-- r3_node_1&#45;&gt;r3_node_9 -->
<g id="edge2" class="edge">
<title>r3_node_1&#45;&gt;r3_node_9</title>
<path fill="none" stroke="black" d="M428.13,-108.1C430.58,-115.45 432.84,-124.24 434.46,-132.53"/>
<polygon fill="black" stroke="black" points="430.98,-132.9 436.04,-142.2 437.89,-131.77 430.98,-132.9"/>
</g>
<!-- r3_node_6 -->
<g id="node9" class="node">
<title>r3_node_6</title>
<ellipse fill="none" stroke="black" cx="576.33" cy="-18" rx="50.33" ry="18"/>
<text text-anchor="middle" x="576.33" y="-12.95" font-family="Times,serif" font-size="14.00">r3_node_6</text>
</g>
<!-- r3_node_1&#45;&gt;r3_node_6 -->
<g id="edge3" class="edge">
<title>r3_node_1&#45;&gt;r3_node_6</title>
<path fill="none" stroke="black" d="M449.17,-75.34C473.74,-64.45 508.38,-49.1 535.3,-37.18"/>
<polygon fill="black" stroke="black" points="536.46,-40.49 544.18,-33.24 533.62,-34.09 536.46,-40.49"/>
</g>
<!-- r3_node_21 -->
<g id="node10" class="node">
<title>r3_node_21</title>
<ellipse fill="none" stroke="black" cx="362.33" cy="-18" rx="54.93" ry="18"/>
<text text-anchor="middle" x="362.33" y="-12.95" font-family="Times,serif" font-size="14.00">r3_node_21</text>
</g>
<!-- r3_node_1&#45;&gt;r3_node_21 -->
<g id="edge4" class="edge">
<title>r3_node_1&#45;&gt;r3_node_21</title>
<path fill="none" stroke="black" d="M405.06,-72.41C398.36,-64.04 390.1,-53.71 382.62,-44.37"/>
<polygon fill="black" stroke="black" points="385.43,-42.27 376.45,-36.65 379.96,-46.65 385.43,-42.27"/>
</g>
<!-- r3_node_9&#45;&gt;r3_node_29 -->
<g id="edge12" class="edge">
<title>r3_node_9&#45;&gt;r3_node_29</title>
<path fill="none" stroke="black" d="M457.81,-145.64C472.62,-135.95 491.97,-123.29 508.31,-112.6"/>
<polygon fill="black" stroke="black" points="509.81,-115.8 516.26,-107.4 505.98,-109.94 509.81,-115.8"/>
</g>
<!-- r3_node_9&#45;&gt;r3_node_1 -->
<g id="edge9" class="edge">
<title>r3_node_9&#45;&gt;r3_node_1</title>
<path fill="none" stroke="black" d="M424.58,-144.05C422.11,-136.68 419.83,-127.84 418.2,-119.51"/>
<polygon fill="black" stroke="black" points="421.67,-119.07 416.61,-109.77 414.77,-120.2 421.67,-119.07"/>
</g>
<!-- r3_node_9&#45;&gt;r3_node_21 -->
<g id="edge10" class="edge">
<title>r3_node_9&#45;&gt;r3_node_21</title>
<path fill="none" stroke="black" d="M403.1,-147.68C386.88,-138.96 368.57,-125.84 359.33,-108 349.71,-89.42 351.1,-65.61 354.55,-47.29"/>
<polygon fill="black" stroke="black" points="357.94,-48.15 356.69,-37.63 351.1,-46.64 357.94,-48.15"/>
</g>
<!-- r3_node_11 -->
<g id="node11" class="node">
<title>r3_node_11</title>
<ellipse fill="none" stroke="black" cx="557.33" cy="-234" rx="54.93" ry="18"/>
<text text-anchor="middle" x="557.33" y="-228.95" font-family="Times,serif" font-size="14.00">r3_node_11</text>
</g>
<!-- r3_node_9&#45;&gt;r3_node_11 -->
<g id="edge11" class="edge">
<title>r3_node_9&#45;&gt;r3_node_11</title>
<path fill="none" stroke="black" d="M464.32,-176.93C482.9,-186.75 506.62,-200.1 525.51,-211.31"/>
<polygon fill="black" stroke="black" points="523.51,-214.19 533.88,-216.34 527.11,-208.19 523.51,-214.19"/>
</g>
<!-- r3_node_11&#45;&gt;r3_node_9 -->
<g id="edge5" class="edge">
<title>r3_node_11&#45;&gt;r3_node_9</title>
<path fill="none" stroke="black" d="M526.57,-218.67C507.97,-208.81 484.43,-195.55 465.73,-184.44"/>
<polygon fill="black" stroke="black" points="467.57,-181.47 457.2,-179.31 463.96,-187.46 467.57,-181.47"/>
</g>
<!-- r3_node_3 -->
<g id="node12" class="node">
<title>r3_node_3</title>
<ellipse fill="none" stroke="black" cx="393.33" cy="-306" rx="50.33" ry="18"/>
<text text-anchor="middle" x="393.33" y="-300.95" font-family="Times,serif" font-size="14.00">r3_node_3</text>
</g>
<!-- r3_node_11&#45;&gt;r3_node_3 -->
<g id="edge6" class="edge">
<title>r3_node_11&#45;&gt;r3_node_3</title>
<path fill="none" stroke="black" d="M528.48,-249.71C503.57,-260.95 467.32,-276.46 438.57,-288.19"/>
<polygon fill="black" stroke="black" points="437.32,-284.92 429.37,-291.92 439.95,-291.41 437.32,-284.92"/>
</g>
<!-- r3_node_18 -->
<g id="node13" class="node">
<title>r3_node_18</title>
<ellipse fill="none" stroke="black" cx="599.33" cy="-162" rx="54.93" ry="18"/>
<text text-anchor="middle" x="599.33" y="-156.95" font-family="Times,serif" font-size="14.00">r3_node_18</text>
</g>
<!-- r3_node_11&#45;&gt;r3_node_18 -->
<g id="edge7" class="edge">
<title>r3_node_11&#45;&gt;r3_node_18</title>
<path fill="none" stroke="black" d="M567.49,-216.05C572.29,-208.06 578.13,-198.33 583.49,-189.4"/>
<polygon fill="black" stroke="black" points="586.33,-191.46 588.48,-181.09 580.33,-187.86 586.33,-191.46"/>
</g>
<!-- r3_node_19 -->
<g id="node14" class="node">
<title>r3_node_19</title>
<ellipse fill="none" stroke="black" cx="311.33" cy="-162" rx="54.93" ry="18"/>
<text text-anchor="middle" x="311.33" y="-156.95" font-family="Times,serif" font-size="14.00">r3_node_19</text>
</g>
<!-- r3_node_11&#45;&gt;r3_node_19 -->
<g id="edge8" class="edge">
<title>r3_node_11&#45;&gt;r3_node_19</title>
<path fill="none" stroke="black" d="M516.71,-221.44C474.47,-209.42 408.26,-190.58 362.48,-177.56"/>
<polygon fill="black" stroke="black" points="363.63,-174.24 353.06,-174.87 361.72,-180.98 363.63,-174.24"/>
</g>
<!-- r3_node_3&#45;&gt;r3_node_23 -->
<g id="edge16" class="edge">
<title>r3_node_3&#45;&gt;r3_node_23</title>
<path fill="none" stroke="black" d="M435.03,-295.72C480.81,-285.43 556.46,-268.15 621.33,-252 625.12,-251.05 629.04,-250.06 632.98,-249.05"/>
<polygon fill="black" stroke="black" points="633.8,-252.45 642.6,-246.54 632.04,-245.68 633.8,-252.45"/>
</g>
<!-- r3_node_3&#45;&gt;r3_node_26 -->
<g id="edge13" class="edge">
<title>r3_node_3&#45;&gt;r3_node_26</title>
<path fill="none" stroke="black" d="M444.03,-305.22C532.77,-304.4 710.51,-297.02 749.33,-252 766.46,-232.13 738.54,-159.21 720.95,-118.67"/>
<polygon fill="black" stroke="black" points="724.16,-117.27 716.92,-109.54 717.76,-120.1 724.16,-117.27"/>
</g>
<!-- r3_node_3&#45;&gt;r3_node_27 -->
<g id="edge14" class="edge">
<title>r3_node_3&#45;&gt;r3_node_27</title>
<path fill="none" stroke="black" d="M444.07,-305.45C535.94,-305.07 724.25,-298.49 766.33,-252 820.04,-192.66 791.01,-149.83 772.33,-72 770.18,-63.06 766.27,-53.93 762.07,-45.83"/>
<polygon fill="black" stroke="black" points="765.18,-44.21 757.25,-37.18 759.06,-47.62 765.18,-44.21"/>
</g>
<!-- r3_node_3&#45;&gt;r3_node_11 -->
<g id="edge15" class="edge">
<title>r3_node_3&#45;&gt;r3_node_11</title>
<path fill="none" stroke="black" d="M421.34,-290.67C445.9,-279.56 481.92,-264.14 510.77,-252.34"/>
<polygon fill="black" stroke="black" points="512.09,-255.59 520.04,-248.59 509.46,-249.1 512.09,-255.59"/>
</g>
<!-- r3_node_13 -->
<g id="node15" class="node">
<title>r3_node_13</title>
<ellipse fill="none" stroke="black" cx="301.33" cy="-234" rx="54.93" ry="18"/>
<text text-anchor="middle" x="301.33" y="-228.95" font-family="Times,serif" font-size="14.00">r3_node_13</text>
</g>
<!-- r3_node_25 -->
<g id="node16" class="node">
<title>r3_node_25</title>
<ellipse fill="none" stroke="black" cx="429.33" cy="-234" rx="54.93" ry="18"/>
<text text-anchor="middle" x="429.33" y="-228.95" font-family="Times,serif" font-size="14.00">r3_node_25</text>
</g>
<!-- r3_node_5 -->
<g id="node17" class="node">
<title>r3_node_5</title>
<ellipse fill="none" stroke="black" cx="111.33" cy="-306" rx="50.33" ry="18"/>
<text text-anchor="middle" x="111.33" y="-300.95" font-family="Times,serif" font-size="14.00">r3_node_5</text>
</g>
<!-- r3_node_5&#45;&gt;r3_node_4 -->
<g id="edge17" class="edge">
<title>r3_node_5&#45;&gt;r3_node_4</title>
<path fill="none" stroke="black" d="M96.87,-288.41C89.5,-279.95 80.39,-269.49 72.18,-260.08"/>
<polygon fill="black" stroke="black" points="74.88,-257.85 65.67,-252.61 69.61,-262.45 74.88,-257.85"/>
</g>
<!-- r3_node_5&#45;&gt;r3_node_10 -->
<g id="edge18" class="edge">
<title>r3_node_5&#45;&gt;r3_node_10</title>
<path fill="none" stroke="black" d="M126.02,-288.41C133.51,-279.95 142.78,-269.49 151.12,-260.08"/>
<polygon fill="black" stroke="black" points="153.73,-262.41 157.74,-252.6 148.49,-257.77 153.73,-262.41"/>
</g>
<!-- r3_node_5&#45;&gt;r3_node_13 -->
<g id="edge19" class="edge">
<title>r3_node_5&#45;&gt;r3_node_13</title>
<path fill="none" stroke="black" d="M145.3,-292.49C175.92,-281.2 221.23,-264.51 255.14,-252.02"/>
<polygon fill="black" stroke="black" points="256.13,-255.38 264.3,-248.64 253.71,-248.82 256.13,-255.38"/>
</g>
<!-- r3_node_5&#45;&gt;r3_node_25 -->
<g id="edge20" class="edge">
<title>r3_node_5&#45;&gt;r3_node_25</title>
<path fill="none" stroke="black" d="M155.08,-296.61C205.83,-286.72 291.91,-269.4 365.33,-252 369.13,-251.1 373.06,-250.14 377.01,-249.14"/>
<polygon fill="black" stroke="black" points="377.81,-252.55 386.63,-246.68 376.07,-245.77 377.81,-252.55"/>
</g>
</g>
</svg>
