<?xml version="1.0" encoding="UTF-8" standalone="no"?>
<!DOCTYPE svg PUBLIC "-//W3C//DTD SVG 1.1//EN"
 "http://www.w3.org/Graphics/SVG/1.1/DTD/svg11.dtd">
<!-- Generated by graphviz version 12.2.1 (20241206.2353)
 -->
<!-- Pages: 1 -->
<svg width="118pt" height="188pt"
 viewBox="0.00 0.00 117.87 188.00" xmlns="http://www.w3.org/2000/svg" xmlns:xlink="http://www.w3.org/1999/xlink">
<g id="graph0" class="graph" transform="scale(1 1) rotate(0) translate(4 184)">
<polygon fill="white" stroke="none" points="-4,4 -4,-184 113.87,-184 113.87,4 -4,4"/>
<!-- r3_node_6 -->
<g id="node1" class="node">
<title>r3_node_6</title>
<ellipse fill="none" stroke="black" cx="54.93" cy="-162" rx="50.33" ry="18"/>
<text text-anchor="middle" x="54.93" y="-156.95" font-family="Times,serif" font-size="14.00">r3_node_6</text>
</g>
<!-- r3_node_12 -->
<g id="node2" class="node">
<title>r3_node_12</title>
<ellipse fill="none" stroke="black" cx="54.93" cy="-90" rx="54.93" ry="18"/>
<text text-anchor="middle" x="54.93" y="-84.95" font-family="Times,serif" font-size="14.00">r3_node_12</text>
</g>
<!-- r3_node_6&#45;&gt;r3_node_12 -->
<g id="edge1" class="edge">
<title>r3_node_6&#45;&gt;r3_node_12</title>
<path fill="none" stroke="black" d="M49.02,-143.7C48.27,-136.41 48.02,-127.73 48.29,-119.54"/>
<polygon fill="black" stroke="black" points="51.78,-119.82 48.94,-109.61 44.79,-119.36 51.78,-119.82"/>
</g>
<!-- r3_node_12&#45;&gt;r3_node_6 -->
<g id="edge3" class="edge">
<title>r3_node_12&#45;&gt;r3_node_6</title>
<path fill="none" stroke="black" d="M60.83,-108.1C61.59,-115.37 61.84,-124.04 61.59,-132.24"/>
<polygon fill="black" stroke="black" points="58.1,-131.98 60.95,-142.19 65.08,-132.43 58.1,-131.98"/>
</g>
<!-- r3_node_1 -->
<g id="node3" class="node">
<title>r3_node_1</title>
<ellipse fill="none" stroke="black" cx="54.93" cy="-18" rx="50.33" ry="18"/>
<text text-anchor="middle" x="54.93" y="-12.95" font-family="Times,serif" font-size="14.00">r3_node_1</text>
</g>
<!-- r3_node_12&#45;&gt;r3_node_1 -->
<g id="edge4" class="edge">
<title>r3_node_12&#45;&gt;r3_node_1</title>
<path fill="none" stroke="black" d="M49.02,-71.7C48.27,-64.41 48.02,-55.73 48.29,-47.54"/>
<polygon fill="black" stroke="black" points="51.78,-47.82 48.94,-37.61 44.79,-47.36 51.78,-47.82"/>
</g>
<!-- r3_node_1&#45;&gt;r3_node_12 -->
<g id="edge2" class="edge">
<title>r3_node_1&#45;&gt;r3_node_12</title>
<path fill="none" stroke="black" d="M60.83,-36.1C61.59,-43.37 61.84,-52.04 61.59,-60.24"/>
<polygon fill="black" stroke="black" points="58.1,-59.98 60.95,-70.19 65.08,-60.43 58.1,-59.98"/>
</g>
</g>
</svg>
