<?xml version="1.0" encoding="UTF-8" standalone="no"?>
<!DOCTYPE svg PUBLIC "-//W3C//DTD SVG 1.1//EN"
 "http://www.w3.org/Graphics/SVG/1.1/DTD/svg11.dtd">
<!-- Generated by graphviz version 12.2.1 (20241206.2353)
 -->
<!-- Pages: 1 -->
<svg width="1105pt" height="1556pt"
 viewBox="0.00 0.00 1105.12 1556.00" xmlns="http://www.w3.org/2000/svg" xmlns:xlink="http://www.w3.org/1999/xlink">
<g id="graph0" class="graph" transform="scale(1 1) rotate(0) translate(4 1552)">
<polygon fill="white" stroke="none" points="-4,4 -4,-1552 1101.12,-1552 1101.12,4 -4,4"/>
<!-- r3_node_11 -->
<g id="node1" class="node">
<title>r3_node_11</title>
<ellipse fill="none" stroke="black" cx="54.93" cy="-1530" rx="54.93" ry="18"/>
<text text-anchor="middle" x="54.93" y="-1524.95" font-family="Times,serif" font-size="14.00">r3_node_11</text>
</g>
<!-- r3_node_3 -->
<g id="node2" class="node">
<title>r3_node_3</title>
<ellipse fill="none" stroke="black" cx="205.93" cy="-1458" rx="50.33" ry="18"/>
<text text-anchor="middle" x="205.93" y="-1452.95" font-family="Times,serif" font-size="14.00">r3_node_3</text>
</g>
<!-- r3_node_11&#45;&gt;r3_node_3 -->
<g id="edge1" class="edge">
<title>r3_node_11&#45;&gt;r3_node_3</title>
<path fill="none" stroke="black" d="M81.67,-1513.98C104.07,-1502.97 136.31,-1487.98 162.4,-1476.43"/>
<polygon fill="black" stroke="black" points="163.65,-1479.71 171.4,-1472.49 160.84,-1473.3 163.65,-1479.71"/>
</g>
<!-- r3_node_18 -->
<g id="node3" class="node">
<title>r3_node_18</title>
<ellipse fill="none" stroke="black" cx="202.93" cy="-18" rx="54.93" ry="18"/>
<text text-anchor="middle" x="202.93" y="-12.95" font-family="Times,serif" font-size="14.00">r3_node_18</text>
</g>
<!-- r3_node_11&#45;&gt;r3_node_18 -->
<g id="edge2" class="edge">
<title>r3_node_11&#45;&gt;r3_node_18</title>
<path fill="none" stroke="black" d="M55.04,-1511.52C63.37,-1358.01 172.75,-240.6 198.13,-47.42"/>
<polygon fill="black" stroke="black" points="201.56,-48.16 199.44,-37.78 194.62,-47.22 201.56,-48.16"/>
</g>
<!-- r3_node_19 -->
<g id="node4" class="node">
<title>r3_node_19</title>
<ellipse fill="none" stroke="black" cx="910.93" cy="-666" rx="54.93" ry="18"/>
<text text-anchor="middle" x="910.93" y="-660.95" font-family="Times,serif" font-size="14.00">r3_node_19</text>
</g>
<!-- r3_node_11&#45;&gt;r3_node_19 -->
<g id="edge3" class="edge">
<title>r3_node_11&#45;&gt;r3_node_19</title>
<path fill="none" stroke="black" d="M103.1,-1521.02C144.95,-1513.35 206.27,-1499.4 255.93,-1476 304.82,-1452.96 312.02,-1438.12 353.93,-1404 625.91,-1182.61 835.06,-797.61 894.28,-693.56"/>
<polygon fill="black" stroke="black" points="897.16,-695.58 899.09,-685.17 891.08,-692.1 897.16,-695.58"/>
</g>
<!-- r3_node_9 -->
<g id="node5" class="node">
<title>r3_node_9</title>
<ellipse fill="none" stroke="black" cx="721.93" cy="-378" rx="50.33" ry="18"/>
<text text-anchor="middle" x="721.93" y="-372.95" font-family="Times,serif" font-size="14.00">r3_node_9</text>
</g>
<!-- r3_node_11&#45;&gt;r3_node_9 -->
<g id="edge4" class="edge">
<title>r3_node_11&#45;&gt;r3_node_9</title>
<path fill="none" stroke="black" d="M59.3,-1511.85C94.8,-1405.04 332.53,-822.74 650.93,-432 660.46,-420.31 672.8,-409.17 684.6,-400.15"/>
<polygon fill="black" stroke="black" points="686.63,-403 692.66,-394.29 682.52,-397.33 686.63,-403"/>
</g>
<!-- r3_node_3&#45;&gt;r3_node_11 -->
<g id="edge62" class="edge">
<title>r3_node_3&#45;&gt;r3_node_11</title>
<path fill="none" stroke="black" d="M179.77,-1473.73C157.65,-1484.63 125.66,-1499.51 99.54,-1511.09"/>
<polygon fill="black" stroke="black" points="98.26,-1507.83 90.51,-1515.06 101.08,-1514.24 98.26,-1507.83"/>
</g>
<!-- r3_node_26 -->
<g id="node13" class="node">
<title>r3_node_26</title>
<ellipse fill="none" stroke="black" cx="287.93" cy="-306" rx="54.93" ry="18"/>
<text text-anchor="middle" x="287.93" y="-300.95" font-family="Times,serif" font-size="14.00">r3_node_26</text>
</g>
<!-- r3_node_3&#45;&gt;r3_node_26 -->
<g id="edge64" class="edge">
<title>r3_node_3&#45;&gt;r3_node_26</title>
<path fill="none" stroke="black" d="M191.34,-1440.55C186.05,-1430.21 181.1,-1416.51 177.93,-1404 154.1,-1309.86 152.29,-1284.84 144.93,-1188 119.22,-849.38 236.12,-443.75 275.64,-334.97"/>
<polygon fill="black" stroke="black" points="278.89,-336.29 279.12,-325.69 272.33,-333.83 278.89,-336.29"/>
</g>
<!-- r3_node_23 -->
<g id="node25" class="node">
<title>r3_node_23</title>
<ellipse fill="none" stroke="black" cx="539.93" cy="-882" rx="54.93" ry="18"/>
<text text-anchor="middle" x="539.93" y="-876.95" font-family="Times,serif" font-size="14.00">r3_node_23</text>
</g>
<!-- r3_node_3&#45;&gt;r3_node_23 -->
<g id="edge63" class="edge">
<title>r3_node_3&#45;&gt;r3_node_23</title>
<path fill="none" stroke="black" d="M234.63,-1442.82C255.41,-1433.42 283.43,-1419.92 305.93,-1404 380.35,-1351.38 399.97,-1334.87 451.93,-1260 531.9,-1144.78 551.62,-1109.16 580.93,-972 584.28,-956.35 586.84,-950.87 580.93,-936 576.75,-925.47 569.37,-915.82 561.93,-907.72"/>
<polygon fill="black" stroke="black" points="564.53,-905.37 555.04,-900.66 559.52,-910.26 564.53,-905.37"/>
</g>
<!-- r3_node_27 -->
<g id="node29" class="node">
<title>r3_node_27</title>
<ellipse fill="none" stroke="black" cx="250.93" cy="-1386" rx="54.93" ry="18"/>
<text text-anchor="middle" x="250.93" y="-1380.95" font-family="Times,serif" font-size="14.00">r3_node_27</text>
</g>
<!-- r3_node_3&#45;&gt;r3_node_27 -->
<g id="edge65" class="edge">
<title>r3_node_3&#45;&gt;r3_node_27</title>
<path fill="none" stroke="black" d="M211.14,-1439.7C215.51,-1431.61 221.6,-1421.81 227.76,-1412.87"/>
<polygon fill="black" stroke="black" points="230.53,-1415.02 233.52,-1404.85 224.84,-1410.93 230.53,-1415.02"/>
</g>
<!-- r3_node_18&#45;&gt;r3_node_11 -->
<g id="edge55" class="edge">
<title>r3_node_18&#45;&gt;r3_node_11</title>
<path fill="none" stroke="black" d="M202.84,-36.3C194.58,-189.13 85.1,-1307.6 59.73,-1500.66"/>
<polygon fill="black" stroke="black" points="56.3,-1499.9 58.42,-1510.28 63.24,-1500.85 56.3,-1499.9"/>
</g>
<!-- r3_node_20 -->
<g id="node12" class="node">
<title>r3_node_20</title>
<ellipse fill="none" stroke="black" cx="319.93" cy="-162" rx="54.93" ry="18"/>
<text text-anchor="middle" x="319.93" y="-156.95" font-family="Times,serif" font-size="14.00">r3_node_20</text>
</g>
<!-- r3_node_18&#45;&gt;r3_node_20 -->
<g id="edge56" class="edge">
<title>r3_node_18&#45;&gt;r3_node_20</title>
<path fill="none" stroke="black" d="M233,-33.34C248.28,-43.07 266.03,-56.89 278.93,-72 294.66,-90.42 307.84,-114.53 315.35,-133.01"/>
<polygon fill="black" stroke="black" points="312.01,-134.08 318.74,-142.27 318.59,-131.67 312.01,-134.08"/>
</g>
<!-- r3_node_18&#45;&gt;r3_node_26 -->
<g id="edge57" class="edge">
<title>r3_node_18&#45;&gt;r3_node_26</title>
<path fill="none" stroke="black" d="M208.79,-36.38C216.3,-76.09 227.21,-175.93 259.93,-252 263.91,-261.23 269.63,-270.49 275.01,-278.63"/>
<polygon fill="black" stroke="black" points="271.92,-280.32 280.41,-286.67 277.73,-276.42 271.92,-280.32"/>
</g>
<!-- r3_node_19&#45;&gt;r3_node_11 -->
<g id="edge7" class="edge">
<title>r3_node_19&#45;&gt;r3_node_11</title>
<path fill="none" stroke="black" d="M905.09,-684.14C866.88,-771.86 652.94,-1175.26 371.93,-1404 330.02,-1438.12 322.82,-1452.96 273.93,-1476 224.08,-1499.5 162.47,-1513.46 117.22,-1521.11"/>
<polygon fill="black" stroke="black" points="116.89,-1517.62 107.58,-1522.67 118.01,-1524.52 116.89,-1517.62"/>
</g>
<!-- r3_node_4 -->
<g id="node9" class="node">
<title>r3_node_4</title>
<ellipse fill="none" stroke="black" cx="719.93" cy="-738" rx="50.33" ry="18"/>
<text text-anchor="middle" x="719.93" y="-732.95" font-family="Times,serif" font-size="14.00">r3_node_4</text>
</g>
<!-- r3_node_19&#45;&gt;r3_node_4 -->
<g id="edge8" class="edge">
<title>r3_node_19&#45;&gt;r3_node_4</title>
<path fill="none" stroke="black" d="M878.61,-680.87C848.09,-692.63 802.13,-709.5 767.47,-721.67"/>
<polygon fill="black" stroke="black" points="766.36,-718.35 758.07,-724.94 768.66,-724.96 766.36,-718.35"/>
</g>
<!-- r3_node_21 -->
<g id="node10" class="node">
<title>r3_node_21</title>
<ellipse fill="none" stroke="black" cx="969.93" cy="-594" rx="54.93" ry="18"/>
<text text-anchor="middle" x="969.93" y="-588.95" font-family="Times,serif" font-size="14.00">r3_node_21</text>
</g>
<!-- r3_node_19&#45;&gt;r3_node_21 -->
<g id="edge9" class="edge">
<title>r3_node_19&#45;&gt;r3_node_21</title>
<path fill="none" stroke="black" d="M919.34,-648.05C925.64,-639.5 934.31,-628.97 942.76,-619.56"/>
<polygon fill="black" stroke="black" points="945.14,-622.14 949.35,-612.42 940,-617.39 945.14,-622.14"/>
</g>
<!-- r3_node_9&#45;&gt;r3_node_11 -->
<g id="edge39" class="edge">
<title>r3_node_9&#45;&gt;r3_node_11</title>
<path fill="none" stroke="black" d="M706.85,-395.42C695.4,-405.11 680.21,-418.17 668.93,-432 359.54,-811.67 126.33,-1372.21 68.55,-1501.65"/>
<polygon fill="black" stroke="black" points="65.49,-1499.92 64.57,-1510.47 71.87,-1502.8 65.49,-1499.92"/>
</g>
<!-- r3_node_29 -->
<g id="node21" class="node">
<title>r3_node_29</title>
<ellipse fill="none" stroke="black" cx="603.93" cy="-810" rx="54.93" ry="18"/>
<text text-anchor="middle" x="603.93" y="-804.95" font-family="Times,serif" font-size="14.00">r3_node_29</text>
</g>
<!-- r3_node_9&#45;&gt;r3_node_29 -->
<g id="edge38" class="edge">
<title>r3_node_9&#45;&gt;r3_node_29</title>
<path fill="none" stroke="black" d="M714.82,-396.09C700.58,-419.17 671.25,-462.25 656.93,-504 623.45,-601.62 615.44,-725.31 609.68,-780.35"/>
<polygon fill="black" stroke="black" points="606.22,-779.78 608.57,-790.11 613.18,-780.57 606.22,-779.78"/>
</g>
<!-- r3_node_24 -->
<g id="node6" class="node">
<title>r3_node_24</title>
<ellipse fill="none" stroke="black" cx="362.93" cy="-1242" rx="54.93" ry="18"/>
<text text-anchor="middle" x="362.93" y="-1236.95" font-family="Times,serif" font-size="14.00">r3_node_24</text>
</g>
<!-- r3_node_17 -->
<g id="node7" class="node">
<title>r3_node_17</title>
<ellipse fill="none" stroke="black" cx="287.93" cy="-1314" rx="54.93" ry="18"/>
<text text-anchor="middle" x="287.93" y="-1308.95" font-family="Times,serif" font-size="14.00">r3_node_17</text>
</g>
<!-- r3_node_24&#45;&gt;r3_node_17 -->
<g id="edge5" class="edge">
<title>r3_node_24&#45;&gt;r3_node_17</title>
<path fill="none" stroke="black" d="M350.64,-1259.96C341.94,-1268.98 330.09,-1280.19 318.98,-1289.99"/>
<polygon fill="black" stroke="black" points="316.74,-1287.3 311.45,-1296.48 321.31,-1292.6 316.74,-1287.3"/>
</g>
<!-- r3_node_8 -->
<g id="node8" class="node">
<title>r3_node_8</title>
<ellipse fill="none" stroke="black" cx="341.93" cy="-1170" rx="50.33" ry="18"/>
<text text-anchor="middle" x="341.93" y="-1164.95" font-family="Times,serif" font-size="14.00">r3_node_8</text>
</g>
<!-- r3_node_24&#45;&gt;r3_node_8 -->
<g id="edge6" class="edge">
<title>r3_node_24&#45;&gt;r3_node_8</title>
<path fill="none" stroke="black" d="M351.97,-1224.05C348.94,-1216.6 346,-1207.64 343.76,-1199.22"/>
<polygon fill="black" stroke="black" points="347.23,-1198.69 341.55,-1189.75 340.42,-1200.28 347.23,-1198.69"/>
</g>
<!-- r3_node_17&#45;&gt;r3_node_24 -->
<g id="edge60" class="edge">
<title>r3_node_17&#45;&gt;r3_node_24</title>
<path fill="none" stroke="black" d="M300.21,-1296.05C308.84,-1287.12 320.56,-1276.01 331.59,-1266.28"/>
<polygon fill="black" stroke="black" points="333.79,-1269 339.07,-1259.82 329.22,-1263.7 333.79,-1269"/>
</g>
<!-- r3_node_12 -->
<g id="node24" class="node">
<title>r3_node_12</title>
<ellipse fill="none" stroke="black" cx="366.93" cy="-18" rx="54.93" ry="18"/>
<text text-anchor="middle" x="366.93" y="-12.95" font-family="Times,serif" font-size="14.00">r3_node_12</text>
</g>
<!-- r3_node_17&#45;&gt;r3_node_12 -->
<g id="edge58" class="edge">
<title>r3_node_17&#45;&gt;r3_node_12</title>
<path fill="none" stroke="black" d="M281.29,-1296.08C275.79,-1266.75 272.35,-1204.55 273.93,-1152 279.71,-959.74 286.17,-911.85 299.93,-720 311.66,-556.52 301.87,-504.12 379.93,-360 438.92,-251.12 477.18,-239.57 555.93,-144 569.18,-127.93 578.84,-127.58 585.93,-108 591.38,-92.96 595.88,-84.53 585.93,-72 566.42,-47.42 487.46,-33.21 429.86,-25.8"/>
<polygon fill="black" stroke="black" points="430.51,-22.35 420.15,-24.6 429.64,-29.3 430.51,-22.35"/>
</g>
<!-- r3_node_16 -->
<g id="node28" class="node">
<title>r3_node_16</title>
<ellipse fill="none" stroke="black" cx="468.93" cy="-1026" rx="54.93" ry="18"/>
<text text-anchor="middle" x="468.93" y="-1020.95" font-family="Times,serif" font-size="14.00">r3_node_16</text>
</g>
<!-- r3_node_17&#45;&gt;r3_node_16 -->
<g id="edge59" class="edge">
<title>r3_node_17&#45;&gt;r3_node_16</title>
<path fill="none" stroke="black" d="M335.94,-1304.89C363.8,-1297.82 397.24,-1284.61 417.93,-1260 467.46,-1201.11 467.01,-1103.75 466.71,-1055.68"/>
<polygon fill="black" stroke="black" points="470.22,-1055.8 466.68,-1045.82 463.22,-1055.83 470.22,-1055.8"/>
</g>
<!-- r3_node_17&#45;&gt;r3_node_27 -->
<g id="edge61" class="edge">
<title>r3_node_17&#45;&gt;r3_node_27</title>
<path fill="none" stroke="black" d="M284.64,-1332.45C281.27,-1340.36 276.45,-1349.88 271.44,-1358.63"/>
<polygon fill="black" stroke="black" points="268.49,-1356.74 266.32,-1367.11 274.48,-1360.36 268.49,-1356.74"/>
</g>
<!-- r3_node_8&#45;&gt;r3_node_24 -->
<g id="edge87" class="edge">
<title>r3_node_8&#45;&gt;r3_node_24</title>
<path fill="none" stroke="black" d="M352.76,-1187.62C355.82,-1195.1 358.8,-1204.14 361.07,-1212.64"/>
<polygon fill="black" stroke="black" points="357.62,-1213.29 363.31,-1222.22 364.44,-1211.69 357.62,-1213.29"/>
</g>
<!-- r3_node_14 -->
<g id="node11" class="node">
<title>r3_node_14</title>
<ellipse fill="none" stroke="black" cx="530.93" cy="-90" rx="54.93" ry="18"/>
<text text-anchor="middle" x="530.93" y="-84.95" font-family="Times,serif" font-size="14.00">r3_node_14</text>
</g>
<!-- r3_node_8&#45;&gt;r3_node_14 -->
<g id="edge89" class="edge">
<title>r3_node_8&#45;&gt;r3_node_14</title>
<path fill="none" stroke="black" d="M328.52,-1152.5C323.99,-1142.14 320.07,-1128.44 317.93,-1116 301.63,-1021.19 307.05,-996.15 303.93,-900 296.06,-656.74 320.72,-591.79 394.93,-360 424.79,-266.75 480.08,-164.08 510.41,-117.09"/>
<polygon fill="black" stroke="black" points="513.21,-119.2 515.83,-108.93 507.38,-115.33 513.21,-119.2"/>
</g>
<!-- r3_node_30 -->
<g id="node19" class="node">
<title>r3_node_30</title>
<ellipse fill="none" stroke="black" cx="390.93" cy="-1098" rx="54.93" ry="18"/>
<text text-anchor="middle" x="390.93" y="-1092.95" font-family="Times,serif" font-size="14.00">r3_node_30</text>
</g>
<!-- r3_node_8&#45;&gt;r3_node_30 -->
<g id="edge88" class="edge">
<title>r3_node_8&#45;&gt;r3_node_30</title>
<path fill="none" stroke="black" d="M348.13,-1151.7C353.08,-1143.4 359.95,-1133.31 366.79,-1124.19"/>
<polygon fill="black" stroke="black" points="369.53,-1126.38 372.91,-1116.34 364,-1122.07 369.53,-1126.38"/>
</g>
<!-- r3_node_4&#45;&gt;r3_node_19 -->
<g id="edge20" class="edge">
<title>r3_node_4&#45;&gt;r3_node_19</title>
<path fill="none" stroke="black" d="M751.3,-723.5C781.42,-711.87 827.16,-695.07 862.03,-682.82"/>
<polygon fill="black" stroke="black" points="862.75,-686.27 871.04,-679.67 860.45,-679.66 862.75,-686.27"/>
</g>
<!-- r3_node_7 -->
<g id="node18" class="node">
<title>r3_node_7</title>
<ellipse fill="none" stroke="black" cx="736.93" cy="-666" rx="50.33" ry="18"/>
<text text-anchor="middle" x="736.93" y="-660.95" font-family="Times,serif" font-size="14.00">r3_node_7</text>
</g>
<!-- r3_node_4&#45;&gt;r3_node_7 -->
<g id="edge21" class="edge">
<title>r3_node_4&#45;&gt;r3_node_7</title>
<path fill="none" stroke="black" d="M718.22,-719.7C719.26,-712.24 721.19,-703.32 723.52,-694.97"/>
<polygon fill="black" stroke="black" points="726.82,-696.14 726.44,-685.55 720.13,-694.06 726.82,-696.14"/>
</g>
<!-- r3_node_5 -->
<g id="node20" class="node">
<title>r3_node_5</title>
<ellipse fill="none" stroke="black" cx="747.93" cy="-450" rx="50.33" ry="18"/>
<text text-anchor="middle" x="747.93" y="-444.95" font-family="Times,serif" font-size="14.00">r3_node_5</text>
</g>
<!-- r3_node_4&#45;&gt;r3_node_5 -->
<g id="edge19" class="edge">
<title>r3_node_4&#45;&gt;r3_node_5</title>
<path fill="none" stroke="black" d="M696.13,-721.9C685.57,-712.07 674.58,-698.43 668.93,-684 639.71,-609.37 619.81,-574.5 657.93,-504 666.8,-487.6 683.2,-475.45 699.67,-466.96"/>
<polygon fill="black" stroke="black" points="700.96,-470.23 708.5,-462.79 697.96,-463.9 700.96,-470.23"/>
</g>
<!-- r3_node_4&#45;&gt;r3_node_29 -->
<g id="edge22" class="edge">
<title>r3_node_4&#45;&gt;r3_node_29</title>
<path fill="none" stroke="black" d="M699.65,-754.7C684.09,-764.81 662.32,-778.03 643.42,-788.9"/>
<polygon fill="black" stroke="black" points="641.85,-785.77 634.88,-793.75 645.3,-791.85 641.85,-785.77"/>
</g>
<!-- r3_node_21&#45;&gt;r3_node_19 -->
<g id="edge24" class="edge">
<title>r3_node_21&#45;&gt;r3_node_19</title>
<path fill="none" stroke="black" d="M961.4,-612.12C955.09,-620.67 946.43,-631.17 938.01,-640.55"/>
<polygon fill="black" stroke="black" points="935.66,-637.93 931.45,-647.65 940.8,-642.69 935.66,-637.93"/>
</g>
<!-- r3_node_1 -->
<g id="node22" class="node">
<title>r3_node_1</title>
<ellipse fill="none" stroke="black" cx="921.93" cy="-234" rx="50.33" ry="18"/>
<text text-anchor="middle" x="921.93" y="-228.95" font-family="Times,serif" font-size="14.00">r3_node_1</text>
</g>
<!-- r3_node_21&#45;&gt;r3_node_1 -->
<g id="edge23" class="edge">
<title>r3_node_21&#45;&gt;r3_node_1</title>
<path fill="none" stroke="black" d="M970.68,-575.75C976.79,-556.89 992.13,-526.39 1010.93,-504 1027.18,-484.65 1044.11,-490.83 1054.93,-468 1062.28,-452.49 1067.08,-377 1053.93,-360 1017,-312.23 962.17,-369.9 922.93,-324 908.8,-307.46 907.13,-282.4 909.99,-263.09"/>
<polygon fill="black" stroke="black" points="913.39,-263.91 911.98,-253.41 906.54,-262.5 913.39,-263.91"/>
</g>
<!-- r3_node_14&#45;&gt;r3_node_8 -->
<g id="edge10" class="edge">
<title>r3_node_14&#45;&gt;r3_node_8</title>
<path fill="none" stroke="black" d="M525.34,-108.28C505.73,-150.06 444.82,-260.4 412.93,-360 338.72,-591.79 314.06,-656.74 321.93,-900 325.05,-996.15 319.63,-1021.19 335.93,-1116 337.31,-1124.01 339.43,-1132.54 341.31,-1140.37"/>
<polygon fill="black" stroke="black" points="337.89,-1141.1 343.53,-1150.07 344.71,-1139.54 337.89,-1141.1"/>
</g>
<!-- r3_node_14&#45;&gt;r3_node_20 -->
<g id="edge11" class="edge">
<title>r3_node_14&#45;&gt;r3_node_20</title>
<path fill="none" stroke="black" d="M496.16,-104.34C461.97,-116.24 409.59,-133.64 370.76,-146.01"/>
<polygon fill="black" stroke="black" points="370.11,-142.55 361.64,-148.91 372.23,-149.22 370.11,-142.55"/>
</g>
<!-- r3_node_20&#45;&gt;r3_node_18 -->
<g id="edge86" class="edge">
<title>r3_node_20&#45;&gt;r3_node_18</title>
<path fill="none" stroke="black" d="M306.47,-144.37C295.57,-125.52 280.15,-94.51 260.93,-72 251.62,-61.1 239.79,-50.87 229.15,-42.36"/>
<polygon fill="black" stroke="black" points="231.43,-39.7 221.39,-36.29 227.11,-45.21 231.43,-39.7"/>
</g>
<!-- r3_node_20&#45;&gt;r3_node_14 -->
<g id="edge84" class="edge">
<title>r3_node_20&#45;&gt;r3_node_14</title>
<path fill="none" stroke="black" d="M354.68,-147.67C388.86,-135.78 441.22,-118.38 480.05,-106"/>
<polygon fill="black" stroke="black" points="480.7,-109.47 489.18,-103.11 478.59,-102.8 480.7,-109.47"/>
</g>
<!-- r3_node_6 -->
<g id="node14" class="node">
<title>r3_node_6</title>
<ellipse fill="none" stroke="black" cx="309.93" cy="-234" rx="50.33" ry="18"/>
<text text-anchor="middle" x="309.93" y="-228.95" font-family="Times,serif" font-size="14.00">r3_node_6</text>
</g>
<!-- r3_node_20&#45;&gt;r3_node_6 -->
<g id="edge85" class="edge">
<title>r3_node_20&#45;&gt;r3_node_6</title>
<path fill="none" stroke="black" d="M323.38,-180.28C323.09,-187.69 322.06,-196.54 320.59,-204.86"/>
<polygon fill="black" stroke="black" points="317.18,-204.07 318.54,-214.57 324.03,-205.51 317.18,-204.07"/>
</g>
<!-- r3_node_15 -->
<g id="node27" class="node">
<title>r3_node_15</title>
<ellipse fill="none" stroke="black" cx="402.93" cy="-90" rx="54.93" ry="18"/>
<text text-anchor="middle" x="402.93" y="-84.95" font-family="Times,serif" font-size="14.00">r3_node_15</text>
</g>
<!-- r3_node_20&#45;&gt;r3_node_15 -->
<g id="edge83" class="edge">
<title>r3_node_20&#45;&gt;r3_node_15</title>
<path fill="none" stroke="black" d="M333.76,-144.41C343.71,-135.17 357.33,-123.54 369.92,-113.49"/>
<polygon fill="black" stroke="black" points="371.92,-116.37 377.63,-107.44 367.6,-110.86 371.92,-116.37"/>
</g>
<!-- r3_node_26&#45;&gt;r3_node_3 -->
<g id="edge14" class="edge">
<title>r3_node_26&#45;&gt;r3_node_3</title>
<path fill="none" stroke="black" d="M285.01,-324.28C262.82,-414.1 136.28,-837.04 162.93,-1188 170.29,-1284.84 172.1,-1309.86 195.93,-1404 198,-1412.15 200.82,-1420.8 203.31,-1428.71"/>
<polygon fill="black" stroke="black" points="199.92,-1429.59 206.17,-1438.15 206.62,-1427.56 199.92,-1429.59"/>
</g>
<!-- r3_node_26&#45;&gt;r3_node_18 -->
<g id="edge15" class="edge">
<title>r3_node_26&#45;&gt;r3_node_18</title>
<path fill="none" stroke="black" d="M266.66,-289.32C257.44,-279.27 247.79,-265.61 241.93,-252 211.95,-182.32 200.29,-92.7 199.41,-47.61"/>
<polygon fill="black" stroke="black" points="202.91,-47.9 199.43,-37.89 195.91,-47.89 202.91,-47.9"/>
</g>
<!-- r3_node_26&#45;&gt;r3_node_6 -->
<g id="edge12" class="edge">
<title>r3_node_26&#45;&gt;r3_node_6</title>
<path fill="none" stroke="black" d="M287.46,-287.7C289.07,-280.04 291.73,-270.85 294.75,-262.3"/>
<polygon fill="black" stroke="black" points="297.99,-263.62 298.32,-253.03 291.46,-261.11 297.99,-263.62"/>
</g>
<!-- r3_node_25 -->
<g id="node15" class="node">
<title>r3_node_25</title>
<ellipse fill="none" stroke="black" cx="467.93" cy="-378" rx="54.93" ry="18"/>
<text text-anchor="middle" x="467.93" y="-372.95" font-family="Times,serif" font-size="14.00">r3_node_25</text>
</g>
<!-- r3_node_26&#45;&gt;r3_node_25 -->
<g id="edge13" class="edge">
<title>r3_node_26&#45;&gt;r3_node_25</title>
<path fill="none" stroke="black" d="M325.4,-319.5C355.02,-330.39 396.2,-346.31 426.74,-358.64"/>
<polygon fill="black" stroke="black" points="425.07,-361.74 435.65,-362.26 427.71,-355.25 425.07,-361.74"/>
</g>
<!-- r3_node_6&#45;&gt;r3_node_20 -->
<g id="edge29" class="edge">
<title>r3_node_6&#45;&gt;r3_node_20</title>
<path fill="none" stroke="black" d="M306.49,-215.7C306.78,-208.32 307.8,-199.52 309.26,-191.25"/>
<polygon fill="black" stroke="black" points="312.66,-192.09 311.29,-181.59 305.81,-190.66 312.66,-192.09"/>
</g>
<!-- r3_node_6&#45;&gt;r3_node_26 -->
<g id="edge30" class="edge">
<title>r3_node_6&#45;&gt;r3_node_26</title>
<path fill="none" stroke="black" d="M310.42,-252.28C308.82,-259.86 306.19,-268.95 303.21,-277.43"/>
<polygon fill="black" stroke="black" points="299.99,-276.05 299.68,-286.64 306.53,-278.56 299.99,-276.05"/>
</g>
<!-- r3_node_25&#45;&gt;r3_node_26 -->
<g id="edge54" class="edge">
<title>r3_node_25&#45;&gt;r3_node_26</title>
<path fill="none" stroke="black" d="M430.44,-364.49C400.85,-353.62 359.76,-337.73 329.24,-325.41"/>
<polygon fill="black" stroke="black" points="330.91,-322.31 320.33,-321.78 328.28,-328.79 330.91,-322.31"/>
</g>
<!-- r3_node_25&#45;&gt;r3_node_5 -->
<g id="edge52" class="edge">
<title>r3_node_25&#45;&gt;r3_node_5</title>
<path fill="none" stroke="black" d="M512.18,-388.84C562.8,-400.93 645.3,-421.5 698.12,-435.17"/>
<polygon fill="black" stroke="black" points="697.22,-438.55 707.78,-437.68 698.98,-431.78 697.22,-438.55"/>
</g>
<!-- r3_node_2 -->
<g id="node23" class="node">
<title>r3_node_2</title>
<ellipse fill="none" stroke="black" cx="579.93" cy="-18" rx="50.33" ry="18"/>
<text text-anchor="middle" x="579.93" y="-12.95" font-family="Times,serif" font-size="14.00">r3_node_2</text>
</g>
<!-- r3_node_25&#45;&gt;r3_node_2 -->
<g id="edge53" class="edge">
<title>r3_node_25&#45;&gt;r3_node_2</title>
<path fill="none" stroke="black" d="M472.11,-359.85C480.15,-329.08 499.88,-263.32 531.93,-216 571.08,-158.22 618.36,-172.11 645.93,-108 652.26,-93.3 652.85,-86.43 645.93,-72 639.73,-59.06 628.65,-48.28 617.33,-39.89"/>
<polygon fill="black" stroke="black" points="619.34,-37.03 609.1,-34.27 615.38,-42.81 619.34,-37.03"/>
</g>
<!-- r3_node_25&#45;&gt;r3_node_16 -->
<g id="edge51" class="edge">
<title>r3_node_25&#45;&gt;r3_node_16</title>
<path fill="none" stroke="black" d="M466.68,-396.39C458.37,-430.39 431.71,-508.3 417.93,-576 411.51,-607.55 411.94,-615.87 409.93,-648 407.94,-679.94 409.16,-688 408.93,-720 408.82,-736 406.93,-740.13 408.93,-756 420.23,-845.52 451.88,-947.91 464.58,-996.51"/>
<polygon fill="black" stroke="black" points="461.18,-997.35 467.01,-1006.2 467.97,-995.65 461.18,-997.35"/>
</g>
<!-- r3_node_28 -->
<g id="node16" class="node">
<title>r3_node_28</title>
<ellipse fill="none" stroke="black" cx="711.93" cy="-162" rx="54.93" ry="18"/>
<text text-anchor="middle" x="711.93" y="-156.95" font-family="Times,serif" font-size="14.00">r3_node_28</text>
</g>
<!-- r3_node_10 -->
<g id="node17" class="node">
<title>r3_node_10</title>
<ellipse fill="none" stroke="black" cx="782.93" cy="-522" rx="54.93" ry="18"/>
<text text-anchor="middle" x="782.93" y="-516.95" font-family="Times,serif" font-size="14.00">r3_node_10</text>
</g>
<!-- r3_node_28&#45;&gt;r3_node_10 -->
<g id="edge16" class="edge">
<title>r3_node_28&#45;&gt;r3_node_10</title>
<path fill="none" stroke="black" d="M714.82,-180.3C715.44,-213.13 713.59,-284.65 751.93,-324 804.01,-377.45 866.4,-304.18 915.93,-360 928.57,-374.24 934.64,-450.64 922.93,-468 913.05,-482.66 872.79,-497.6 837.88,-507.87"/>
<polygon fill="black" stroke="black" points="837.36,-504.38 828.71,-510.49 839.28,-511.11 837.36,-504.38"/>
</g>
<!-- r3_node_28&#45;&gt;r3_node_7 -->
<g id="edge17" class="edge">
<title>r3_node_28&#45;&gt;r3_node_7</title>
<path fill="none" stroke="black" d="M723.73,-179.92C743.91,-217.13 782.97,-304.34 807.93,-324 857.06,-362.68 904.1,-311.8 943.93,-360 964.37,-384.73 947.82,-399.94 948.93,-432 949.49,-447.99 954.62,-453.04 948.93,-468 948.93,-468 820.93,-612 820.93,-612 807.38,-624.12 791.02,-635.96 776.25,-645.36"/>
<polygon fill="black" stroke="black" points="774.79,-642.15 768.11,-650.37 778.46,-648.11 774.79,-642.15"/>
</g>
<!-- r3_node_28&#45;&gt;r3_node_30 -->
<g id="edge18" class="edge">
<title>r3_node_28&#45;&gt;r3_node_30</title>
<path fill="none" stroke="black" d="M712.24,-180.29C708.03,-211.86 696.16,-279.66 725.93,-324 744.13,-351.09 768.85,-335.09 789.93,-360 791.29,-361.61 835.43,-438.96 815.93,-468 792.38,-503.08 760.72,-477.34 727.93,-504 690.49,-534.45 509.16,-822.26 484.93,-864 449.11,-925.71 435.5,-939.98 413.93,-1008 407.64,-1027.84 404.11,-1051.1 400.9,-1068.87"/>
<polygon fill="black" stroke="black" points="397.52,-1067.95 399.05,-1078.43 404.39,-1069.28 397.52,-1067.95"/>
</g>
<!-- r3_node_10&#45;&gt;r3_node_28 -->
<g id="edge74" class="edge">
<title>r3_node_10&#45;&gt;r3_node_28</title>
<path fill="none" stroke="black" d="M820.85,-508.59C852.87,-498.31 894.82,-483 904.93,-468 916.64,-450.64 910.57,-374.24 897.93,-360 848.4,-304.18 786.01,-377.45 733.93,-324 699.49,-288.65 697.48,-227.32 702.57,-191.43"/>
<polygon fill="black" stroke="black" points="705.98,-192.25 704.27,-181.79 699.09,-191.03 705.98,-192.25"/>
</g>
<!-- r3_node_10&#45;&gt;r3_node_5 -->
<g id="edge75" class="edge">
<title>r3_node_10&#45;&gt;r3_node_5</title>
<path fill="none" stroke="black" d="M768.8,-504.41C764.16,-496.79 759.27,-487.55 755.26,-478.9"/>
<polygon fill="black" stroke="black" points="758.52,-477.62 751.33,-469.84 752.1,-480.4 758.52,-477.62"/>
</g>
<!-- r3_node_10&#45;&gt;r3_node_12 -->
<g id="edge76" class="edge">
<title>r3_node_10&#45;&gt;r3_node_12</title>
<path fill="none" stroke="black" d="M809.16,-505.97C823.67,-497.27 840.28,-484.71 848.93,-468 856.29,-453.79 855.3,-446.68 848.93,-432 830.28,-389.02 809.73,-387.68 771.93,-360 745.6,-340.72 730.24,-347.82 707.93,-324 659.42,-272.2 654.66,-249.2 638.93,-180 635.39,-164.4 629.91,-157.22 638.93,-144 663.69,-107.73 706.18,-144.27 730.93,-108 739.95,-94.78 741.42,-84.08 730.93,-72 721.03,-60.58 530.9,-38.02 429.41,-26.36"/>
<polygon fill="black" stroke="black" points="429.92,-22.89 419.59,-25.23 429.12,-29.85 429.92,-22.89"/>
</g>
<!-- r3_node_22 -->
<g id="node26" class="node">
<title>r3_node_22</title>
<ellipse fill="none" stroke="black" cx="747.93" cy="-594" rx="54.93" ry="18"/>
<text text-anchor="middle" x="747.93" y="-588.95" font-family="Times,serif" font-size="14.00">r3_node_22</text>
</g>
<!-- r3_node_10&#45;&gt;r3_node_22 -->
<g id="edge73" class="edge">
<title>r3_node_10&#45;&gt;r3_node_22</title>
<path fill="none" stroke="black" d="M780.14,-540.45C776.99,-548.36 772.44,-557.88 767.68,-566.63"/>
<polygon fill="black" stroke="black" points="764.77,-564.68 762.82,-575.1 770.84,-568.17 764.77,-564.68"/>
</g>
<!-- r3_node_7&#45;&gt;r3_node_4 -->
<g id="edge49" class="edge">
<title>r3_node_7&#45;&gt;r3_node_4</title>
<path fill="none" stroke="black" d="M738.65,-684.28C737.61,-691.77 735.66,-700.75 733.32,-709.15"/>
<polygon fill="black" stroke="black" points="730.01,-708.02 730.38,-718.61 736.69,-710.1 730.01,-708.02"/>
</g>
<!-- r3_node_7&#45;&gt;r3_node_28 -->
<g id="edge50" class="edge">
<title>r3_node_7&#45;&gt;r3_node_28</title>
<path fill="none" stroke="black" d="M754.83,-648.93C768.68,-639.06 787.6,-625.71 802.93,-612 802.93,-612 930.93,-468 930.93,-468 936.62,-453.04 931.49,-447.99 930.93,-432 929.82,-399.94 946.37,-384.73 925.93,-360 886.1,-311.8 839.06,-362.68 789.93,-324 767.18,-306.08 732.7,-232 717.99,-190.86"/>
<polygon fill="black" stroke="black" points="721.4,-189.99 714.88,-181.63 714.76,-192.23 721.4,-189.99"/>
</g>
<!-- r3_node_7&#45;&gt;r3_node_2 -->
<g id="edge47" class="edge">
<title>r3_node_7&#45;&gt;r3_node_2</title>
<path fill="none" stroke="black" d="M772.87,-652.98C796.31,-644.02 826.76,-630.2 849.93,-612 946.48,-536.2 1019.13,-469.13 962.93,-360 950.56,-335.97 932.88,-343.27 913.93,-324 886.45,-296.03 884.5,-284.75 862.93,-252 842.31,-220.68 836.87,-212.94 818.93,-180 793.46,-133.21 807.71,-106.28 766.93,-72 731.48,-42.19 680.28,-29.11 640.41,-23.39"/>
<polygon fill="black" stroke="black" points="641.1,-19.95 630.73,-22.13 640.19,-26.89 641.1,-19.95"/>
</g>
<!-- r3_node_7&#45;&gt;r3_node_22 -->
<g id="edge48" class="edge">
<title>r3_node_7&#45;&gt;r3_node_22</title>
<path fill="none" stroke="black" d="M733.74,-647.7C734.14,-640.32 735.28,-631.52 736.86,-623.25"/>
<polygon fill="black" stroke="black" points="740.25,-624.1 739.02,-613.58 733.42,-622.58 740.25,-624.1"/>
</g>
<!-- r3_node_30&#45;&gt;r3_node_8 -->
<g id="edge45" class="edge">
<title>r3_node_30&#45;&gt;r3_node_8</title>
<path fill="none" stroke="black" d="M384.84,-1116.12C379.91,-1124.41 373.03,-1134.53 366.17,-1143.69"/>
<polygon fill="black" stroke="black" points="363.41,-1141.53 360.03,-1151.57 368.93,-1145.83 363.41,-1141.53"/>
</g>
<!-- r3_node_30&#45;&gt;r3_node_28 -->
<g id="edge46" class="edge">
<title>r3_node_30&#45;&gt;r3_node_28</title>
<path fill="none" stroke="black" d="M385.41,-1079.92C384.66,-1061.74 388.23,-1032.3 395.93,-1008 417.5,-939.98 431.11,-925.71 466.93,-864 491.16,-822.26 672.49,-534.45 709.93,-504 742.72,-477.34 774.38,-503.08 797.93,-468 817.43,-438.96 773.29,-361.61 771.93,-360 750.85,-335.09 726.13,-351.09 707.93,-324 681.04,-283.95 688.12,-224.77 698.35,-190.43"/>
<polygon fill="black" stroke="black" points="701.58,-191.83 701.42,-181.23 694.94,-189.61 701.58,-191.83"/>
</g>
<!-- r3_node_30&#45;&gt;r3_node_16 -->
<g id="edge44" class="edge">
<title>r3_node_30&#45;&gt;r3_node_16</title>
<path fill="none" stroke="black" d="M403.94,-1080.05C413.1,-1070.96 425.57,-1059.63 437.18,-1049.78"/>
<polygon fill="black" stroke="black" points="439.21,-1052.64 444.67,-1043.56 434.74,-1047.26 439.21,-1052.64"/>
</g>
<!-- r3_node_5&#45;&gt;r3_node_4 -->
<g id="edge33" class="edge">
<title>r3_node_5&#45;&gt;r3_node_4</title>
<path fill="none" stroke="black" d="M719.44,-465.18C703.62,-473.72 685.45,-486.41 675.93,-504 637.81,-574.5 657.71,-609.37 686.93,-684 690.75,-693.74 697,-703.13 703.14,-711.22"/>
<polygon fill="black" stroke="black" points="700.27,-713.22 709.22,-718.88 705.75,-708.87 700.27,-713.22"/>
</g>
<!-- r3_node_5&#45;&gt;r3_node_25 -->
<g id="edge35" class="edge">
<title>r3_node_5&#45;&gt;r3_node_25</title>
<path fill="none" stroke="black" d="M705.99,-439.7C656.14,-427.83 573.19,-407.16 519.49,-393.28"/>
<polygon fill="black" stroke="black" points="520.52,-389.93 509.96,-390.81 518.76,-396.71 520.52,-389.93"/>
</g>
<!-- r3_node_5&#45;&gt;r3_node_10 -->
<g id="edge34" class="edge">
<title>r3_node_5&#45;&gt;r3_node_10</title>
<path fill="none" stroke="black" d="M762.09,-467.62C766.75,-475.27 771.65,-484.55 775.66,-493.22"/>
<polygon fill="black" stroke="black" points="772.41,-494.52 779.6,-502.31 778.84,-491.74 772.41,-494.52"/>
</g>
<!-- r3_node_29&#45;&gt;r3_node_9 -->
<g id="edge25" class="edge">
<title>r3_node_29&#45;&gt;r3_node_9</title>
<path fill="none" stroke="black" d="M599.99,-791.61C596.38,-744.17 602.91,-609.01 638.93,-504 651.85,-466.35 676.97,-427.61 696.44,-403.44"/>
<polygon fill="black" stroke="black" points="698.87,-405.99 702.62,-396.08 693.51,-401.48 698.87,-405.99"/>
</g>
<!-- r3_node_29&#45;&gt;r3_node_4 -->
<g id="edge26" class="edge">
<title>r3_node_29&#45;&gt;r3_node_4</title>
<path fill="none" stroke="black" d="M624.77,-792.94C640.5,-782.74 662.37,-769.48 681.22,-758.66"/>
<polygon fill="black" stroke="black" points="682.76,-761.81 689.73,-753.83 679.31,-755.72 682.76,-761.81"/>
</g>
<!-- r3_node_29&#45;&gt;r3_node_12 -->
<g id="edge27" class="edge">
<title>r3_node_29&#45;&gt;r3_node_12</title>
<path fill="none" stroke="black" d="M579.38,-793.47C532.82,-758.29 438.89,-668.41 455.93,-576 459.04,-559.16 559.74,-303.97 565.93,-288 597.05,-207.83 620.87,-192.49 636.93,-108 639.92,-92.28 647.14,-84.32 636.93,-72 623.51,-55.79 503.89,-37.63 428.37,-27.33"/>
<polygon fill="black" stroke="black" points="428.99,-23.88 418.61,-26.01 428.05,-30.82 428.99,-23.88"/>
</g>
<!-- r3_node_29&#45;&gt;r3_node_23 -->
<g id="edge28" class="edge">
<title>r3_node_29&#45;&gt;r3_node_23</title>
<path fill="none" stroke="black" d="M594.44,-827.8C587.37,-836.56 577.62,-847.43 568.26,-857.06"/>
<polygon fill="black" stroke="black" points="565.88,-854.5 561.29,-864.04 570.83,-859.44 565.88,-854.5"/>
</g>
<!-- r3_node_1&#45;&gt;r3_node_21 -->
<g id="edge66" class="edge">
<title>r3_node_1&#45;&gt;r3_node_21</title>
<path fill="none" stroke="black" d="M925.11,-252.28C924.96,-272.02 923.96,-304.14 940.93,-324 980.17,-369.9 1035,-312.23 1071.93,-360 1085.08,-377 1080.28,-452.49 1072.93,-468 1062.11,-490.83 1045.18,-484.65 1028.93,-504 1013.05,-522.92 999.63,-547.63 989.26,-566.21"/>
<polygon fill="black" stroke="black" points="986.29,-564.35 984.41,-574.77 992.38,-567.8 986.29,-564.35"/>
</g>
<!-- r3_node_12&#45;&gt;r3_node_17 -->
<g id="edge41" class="edge">
<title>r3_node_12&#45;&gt;r3_node_17</title>
<path fill="none" stroke="black" d="M419.91,-23.14C482.83,-29.53 581.76,-44.08 603.93,-72 613.88,-84.53 609.38,-92.96 603.93,-108 596.84,-127.58 587.18,-127.93 573.93,-144 495.18,-239.57 456.92,-251.12 397.93,-360 319.87,-504.12 329.66,-556.52 317.93,-720 304.17,-911.85 297.71,-959.74 291.93,-1152 290.54,-1198.35 293.05,-1252.2 292.55,-1284.39"/>
<polygon fill="black" stroke="black" points="289.06,-1283.99 292.24,-1294.1 296.05,-1284.21 289.06,-1283.99"/>
</g>
<!-- r3_node_12&#45;&gt;r3_node_10 -->
<g id="edge40" class="edge">
<title>r3_node_12&#45;&gt;r3_node_10</title>
<path fill="none" stroke="black" d="M418.9,-24.05C521,-34.76 738.32,-59.77 748.93,-72 759.42,-84.08 757.95,-94.78 748.93,-108 724.18,-144.27 681.69,-107.73 656.93,-144 647.91,-157.22 653.39,-164.4 656.93,-180 672.66,-249.2 677.42,-272.2 725.93,-324 748.24,-347.82 763.6,-340.72 789.93,-360 827.73,-387.68 848.28,-389.02 866.93,-432 873.3,-446.68 874.29,-453.79 866.93,-468 859.19,-482.95 845.07,-494.59 830.52,-503.1"/>
<polygon fill="black" stroke="black" points="828.95,-499.97 821.78,-507.78 832.25,-506.14 828.95,-499.97"/>
</g>
<!-- r3_node_12&#45;&gt;r3_node_29 -->
<g id="edge43" class="edge">
<title>r3_node_12&#45;&gt;r3_node_29</title>
<path fill="none" stroke="black" d="M418.47,-24.53C497.38,-34.04 640.2,-54.2 654.93,-72 665.14,-84.32 657.92,-92.28 654.93,-108 638.87,-192.49 615.05,-207.83 583.93,-288 577.74,-303.97 477.04,-559.16 473.93,-576 458.18,-661.41 537.23,-744.66 579.32,-784.55"/>
<polygon fill="black" stroke="black" points="576.9,-787.08 586.59,-791.36 581.69,-781.97 576.9,-787.08"/>
</g>
<!-- r3_node_12&#45;&gt;r3_node_15 -->
<g id="edge42" class="edge">
<title>r3_node_12&#45;&gt;r3_node_15</title>
<path fill="none" stroke="black" d="M381.33,-35.62C386.09,-43.27 391.13,-52.55 395.27,-61.22"/>
<polygon fill="black" stroke="black" points="392.06,-62.61 399.33,-70.31 398.45,-59.76 392.06,-62.61"/>
</g>
<!-- r3_node_23&#45;&gt;r3_node_3 -->
<g id="edge79" class="edge">
<title>r3_node_23&#45;&gt;r3_node_3</title>
<path fill="none" stroke="black" d="M567.76,-897.77C580.06,-907.29 592.86,-920.72 598.93,-936 604.84,-950.87 602.28,-956.35 598.93,-972 569.62,-1109.16 549.9,-1144.78 469.93,-1260 417.97,-1334.87 398.35,-1351.38 323.93,-1404 302.6,-1419.09 276.32,-1432.01 253.88,-1441.32"/>
<polygon fill="black" stroke="black" points="252.6,-1438.06 244.61,-1445.02 255.2,-1444.56 252.6,-1438.06"/>
</g>
<!-- r3_node_23&#45;&gt;r3_node_29 -->
<g id="edge80" class="edge">
<title>r3_node_23&#45;&gt;r3_node_29</title>
<path fill="none" stroke="black" d="M549.55,-864.05C556.63,-855.29 566.36,-844.45 575.69,-834.86"/>
<polygon fill="black" stroke="black" points="578.04,-837.45 582.64,-827.9 573.09,-832.5 578.04,-837.45"/>
</g>
<!-- r3_node_23&#45;&gt;r3_node_2 -->
<g id="edge77" class="edge">
<title>r3_node_23&#45;&gt;r3_node_2</title>
<path fill="none" stroke="black" d="M580.84,-869.6C662.22,-845.47 847.53,-783.18 974.93,-684 1060.76,-617.19 1069.88,-574.89 1089.93,-468 1130.4,-252.3 992.53,-167.51 794.93,-72 744.78,-47.76 682.53,-33.98 637.94,-26.59"/>
<polygon fill="black" stroke="black" points="638.64,-23.15 628.21,-25.04 637.54,-30.07 638.64,-23.15"/>
</g>
<!-- r3_node_13 -->
<g id="node30" class="node">
<title>r3_node_13</title>
<ellipse fill="none" stroke="black" cx="525.93" cy="-954" rx="54.93" ry="18"/>
<text text-anchor="middle" x="525.93" y="-948.95" font-family="Times,serif" font-size="14.00">r3_node_13</text>
</g>
<!-- r3_node_23&#45;&gt;r3_node_13 -->
<g id="edge78" class="edge">
<title>r3_node_23&#45;&gt;r3_node_13</title>
<path fill="none" stroke="black" d="M542.39,-900.28C541.67,-907.77 540.11,-916.75 538.13,-925.15"/>
<polygon fill="black" stroke="black" points="534.8,-924.03 535.59,-934.59 541.57,-925.84 534.8,-924.03"/>
</g>
<!-- r3_node_22&#45;&gt;r3_node_10 -->
<g id="edge31" class="edge">
<title>r3_node_22&#45;&gt;r3_node_10</title>
<path fill="none" stroke="black" d="M750.67,-575.7C753.81,-567.78 758.37,-558.23 763.15,-549.44"/>
<polygon fill="black" stroke="black" points="766.09,-551.35 768.03,-540.94 760.01,-547.87 766.09,-551.35"/>
</g>
<!-- r3_node_22&#45;&gt;r3_node_7 -->
<g id="edge32" class="edge">
<title>r3_node_22&#45;&gt;r3_node_7</title>
<path fill="none" stroke="black" d="M751.13,-612.28C750.73,-619.69 749.58,-628.54 747.99,-636.86"/>
<polygon fill="black" stroke="black" points="744.58,-636.05 745.81,-646.58 751.41,-637.59 744.58,-636.05"/>
</g>
<!-- r3_node_15&#45;&gt;r3_node_20 -->
<g id="edge37" class="edge">
<title>r3_node_15&#45;&gt;r3_node_20</title>
<path fill="none" stroke="black" d="M388.97,-107.71C379.03,-116.93 365.47,-128.51 352.95,-138.51"/>
<polygon fill="black" stroke="black" points="350.98,-135.61 345.27,-144.53 355.3,-141.12 350.98,-135.61"/>
</g>
<!-- r3_node_15&#45;&gt;r3_node_12 -->
<g id="edge36" class="edge">
<title>r3_node_15&#45;&gt;r3_node_12</title>
<path fill="none" stroke="black" d="M388.56,-72.41C383.81,-64.79 378.8,-55.55 374.66,-46.9"/>
<polygon fill="black" stroke="black" points="377.88,-45.52 370.59,-37.83 371.49,-48.39 377.88,-45.52"/>
</g>
<!-- r3_node_16&#45;&gt;r3_node_17 -->
<g id="edge67" class="edge">
<title>r3_node_16&#45;&gt;r3_node_17</title>
<path fill="none" stroke="black" d="M475.63,-1044.3C484.56,-1086.51 489.77,-1195.99 435.93,-1260 414.91,-1285 380.74,-1298.23 350.45,-1305.22"/>
<polygon fill="black" stroke="black" points="350.04,-1301.73 340.98,-1307.22 351.49,-1308.58 350.04,-1301.73"/>
</g>
<!-- r3_node_16&#45;&gt;r3_node_25 -->
<g id="edge68" class="edge">
<title>r3_node_16&#45;&gt;r3_node_25</title>
<path fill="none" stroke="black" d="M458.49,-1007.98C439.57,-965.91 403.22,-853.34 390.93,-756 388.93,-740.13 390.82,-736 390.93,-720 391.16,-688 389.94,-679.94 391.93,-648 393.94,-615.87 393.51,-607.55 399.93,-576 412.54,-514.07 435.93,-443.59 452.13,-406"/>
<polygon fill="black" stroke="black" points="455.16,-407.8 456.08,-397.24 448.77,-404.92 455.16,-407.8"/>
</g>
<!-- r3_node_16&#45;&gt;r3_node_30 -->
<g id="edge69" class="edge">
<title>r3_node_16&#45;&gt;r3_node_30</title>
<path fill="none" stroke="black" d="M455.91,-1043.96C446.73,-1053.07 434.25,-1064.42 422.62,-1074.28"/>
<polygon fill="black" stroke="black" points="420.59,-1071.42 415.13,-1080.5 425.06,-1076.8 420.59,-1071.42"/>
</g>
<!-- r3_node_16&#45;&gt;r3_node_13 -->
<g id="edge70" class="edge">
<title>r3_node_16&#45;&gt;r3_node_13</title>
<path fill="none" stroke="black" d="M476.85,-1008.05C482.85,-999.59 491.11,-989.19 499.21,-979.84"/>
<polygon fill="black" stroke="black" points="501.78,-982.22 505.84,-972.44 496.56,-977.56 501.78,-982.22"/>
</g>
<!-- r3_node_27&#45;&gt;r3_node_3 -->
<g id="edge81" class="edge">
<title>r3_node_27&#45;&gt;r3_node_3</title>
<path fill="none" stroke="black" d="M245.82,-1404.12C241.36,-1412.41 235.06,-1422.53 228.72,-1431.69"/>
<polygon fill="black" stroke="black" points="226.07,-1429.38 223.06,-1439.54 231.75,-1433.48 226.07,-1429.38"/>
</g>
<!-- r3_node_27&#45;&gt;r3_node_17 -->
<g id="edge82" class="edge">
<title>r3_node_27&#45;&gt;r3_node_17</title>
<path fill="none" stroke="black" d="M254.16,-1367.7C257.53,-1359.78 262.36,-1350.23 267.39,-1341.44"/>
<polygon fill="black" stroke="black" points="270.36,-1343.29 272.52,-1332.92 264.37,-1339.68 270.36,-1343.29"/>
</g>
<!-- r3_node_13&#45;&gt;r3_node_23 -->
<g id="edge72" class="edge">
<title>r3_node_13&#45;&gt;r3_node_23</title>
<path fill="none" stroke="black" d="M523.48,-935.7C524.2,-928.24 525.75,-919.32 527.71,-910.97"/>
<polygon fill="black" stroke="black" points="531.02,-912.13 530.23,-901.57 524.26,-910.32 531.02,-912.13"/>
</g>
<!-- r3_node_13&#45;&gt;r3_node_16 -->
<g id="edge71" class="edge">
<title>r3_node_13&#45;&gt;r3_node_16</title>
<path fill="none" stroke="black" d="M517.89,-972.12C511.88,-980.59 503.63,-990.96 495.56,-1000.26"/>
<polygon fill="black" stroke="black" points="493.02,-997.85 488.96,-1007.64 498.24,-1002.52 493.02,-997.85"/>
</g>
</g>
</svg>
