<?xml version="1.0" encoding="UTF-8" standalone="no"?>
<!DOCTYPE svg PUBLIC "-//W3C//DTD SVG 1.1//EN"
 "http://www.w3.org/Graphics/SVG/1.1/DTD/svg11.dtd">
<!-- Generated by graphviz version 12.2.1 (20241206.2353)
 -->
<!-- Pages: 1 -->
<svg width="769pt" height="908pt"
 viewBox="0.00 0.00 768.87 908.00" xmlns="http://www.w3.org/2000/svg" xmlns:xlink="http://www.w3.org/1999/xlink">
<g id="graph0" class="graph" transform="scale(1 1) rotate(0) translate(4 904)">
<polygon fill="white" stroke="none" points="-4,4 -4,-904 764.87,-904 764.87,4 -4,4"/>
<!-- r3_node_17 -->
<g id="node1" class="node">
<title>r3_node_17</title>
<ellipse fill="none" stroke="black" cx="521.93" cy="-162" rx="54.93" ry="18"/>
<text text-anchor="middle" x="521.93" y="-156.95" font-family="Times,serif" font-size="14.00">r3_node_17</text>
</g>
<!-- r3_node_10 -->
<g id="node2" class="node">
<title>r3_node_10</title>
<ellipse fill="none" stroke="black" cx="282.93" cy="-882" rx="54.93" ry="18"/>
<text text-anchor="middle" x="282.93" y="-876.95" font-family="Times,serif" font-size="14.00">r3_node_10</text>
</g>
<!-- r3_node_11 -->
<g id="node3" class="node">
<title>r3_node_11</title>
<ellipse fill="none" stroke="black" cx="628.93" cy="-522" rx="54.93" ry="18"/>
<text text-anchor="middle" x="628.93" y="-516.95" font-family="Times,serif" font-size="14.00">r3_node_11</text>
</g>
<!-- r3_node_10&#45;&gt;r3_node_11 -->
<g id="edge1" class="edge">
<title>r3_node_10&#45;&gt;r3_node_11</title>
<path fill="none" stroke="black" d="M336.87,-877.79C413.8,-870.11 553.71,-844.1 625.93,-756 677.22,-693.44 670,-655.07 652.93,-576 651.06,-567.31 647.64,-558.33 643.95,-550.29"/>
<polygon fill="black" stroke="black" points="647.12,-548.8 639.56,-541.38 640.84,-551.9 647.12,-548.8"/>
</g>
<!-- r3_node_22 -->
<g id="node4" class="node">
<title>r3_node_22</title>
<ellipse fill="none" stroke="black" cx="435.93" cy="-810" rx="54.93" ry="18"/>
<text text-anchor="middle" x="435.93" y="-804.95" font-family="Times,serif" font-size="14.00">r3_node_22</text>
</g>
<!-- r3_node_10&#45;&gt;r3_node_22 -->
<g id="edge2" class="edge">
<title>r3_node_10&#45;&gt;r3_node_22</title>
<path fill="none" stroke="black" d="M310.1,-865.98C332.53,-855.11 364.65,-840.36 390.88,-828.88"/>
<polygon fill="black" stroke="black" points="392.18,-832.13 399.96,-824.94 389.39,-825.71 392.18,-832.13"/>
</g>
<!-- r3_node_22&#45;&gt;r3_node_10 -->
<g id="edge43" class="edge">
<title>r3_node_22&#45;&gt;r3_node_10</title>
<path fill="none" stroke="black" d="M408.84,-825.98C386.41,-836.86 354.24,-851.63 327.98,-863.12"/>
<polygon fill="black" stroke="black" points="326.68,-859.87 318.9,-867.07 329.46,-866.3 326.68,-859.87"/>
</g>
<!-- r3_node_22&#45;&gt;r3_node_11 -->
<g id="edge41" class="edge">
<title>r3_node_22&#45;&gt;r3_node_11</title>
<path fill="none" stroke="black" d="M477.76,-798.08C523.94,-785.64 592.87,-765.78 600.93,-756 649.57,-697.04 641.96,-599.37 634.42,-551.38"/>
<polygon fill="black" stroke="black" points="637.92,-551.07 632.79,-541.8 631.02,-552.25 637.92,-551.07"/>
</g>
<!-- r3_node_28 -->
<g id="node24" class="node">
<title>r3_node_28</title>
<ellipse fill="none" stroke="black" cx="705.93" cy="-450" rx="54.93" ry="18"/>
<text text-anchor="middle" x="705.93" y="-444.95" font-family="Times,serif" font-size="14.00">r3_node_28</text>
</g>
<!-- r3_node_22&#45;&gt;r3_node_28 -->
<g id="edge42" class="edge">
<title>r3_node_22&#45;&gt;r3_node_28</title>
<path fill="none" stroke="black" d="M475.75,-797.25C496.81,-789.32 520.98,-776.44 534.93,-756 566.61,-709.58 522.05,-548.83 555.93,-504 567.49,-488.71 612.01,-473.56 649.67,-463.4"/>
<polygon fill="black" stroke="black" points="650.33,-466.84 659.11,-460.92 648.55,-460.07 650.33,-466.84"/>
</g>
<!-- r3_node_15 -->
<g id="node5" class="node">
<title>r3_node_15</title>
<ellipse fill="none" stroke="black" cx="231.93" cy="-810" rx="54.93" ry="18"/>
<text text-anchor="middle" x="231.93" y="-804.95" font-family="Times,serif" font-size="14.00">r3_node_15</text>
</g>
<!-- r3_node_14 -->
<g id="node6" class="node">
<title>r3_node_14</title>
<ellipse fill="none" stroke="black" cx="54.93" cy="-882" rx="54.93" ry="18"/>
<text text-anchor="middle" x="54.93" y="-876.95" font-family="Times,serif" font-size="14.00">r3_node_14</text>
</g>
<!-- r3_node_15&#45;&gt;r3_node_14 -->
<g id="edge3" class="edge">
<title>r3_node_15&#45;&gt;r3_node_14</title>
<path fill="none" stroke="black" d="M201.25,-825.34C174.02,-836.69 133.97,-852.57 102.59,-864.46"/>
<polygon fill="black" stroke="black" points="101.44,-861.15 93.31,-867.95 103.9,-867.71 101.44,-861.15"/>
</g>
<!-- r3_node_4 -->
<g id="node7" class="node">
<title>r3_node_4</title>
<ellipse fill="none" stroke="black" cx="424.93" cy="-306" rx="50.33" ry="18"/>
<text text-anchor="middle" x="424.93" y="-300.95" font-family="Times,serif" font-size="14.00">r3_node_4</text>
</g>
<!-- r3_node_15&#45;&gt;r3_node_4 -->
<g id="edge4" class="edge">
<title>r3_node_15&#45;&gt;r3_node_4</title>
<path fill="none" stroke="black" d="M244.56,-792.2C255.64,-781.97 271.42,-768.5 284.93,-756 318.16,-725.27 332.02,-721.78 356.93,-684 404.37,-612.07 378.78,-574.06 428.93,-504 443.25,-484.01 460.66,-490.34 470.93,-468 491.98,-422.23 460.58,-365.99 439.93,-333.55"/>
<polygon fill="black" stroke="black" points="442.87,-331.65 434.5,-325.16 436.99,-335.46 442.87,-331.65"/>
</g>
<!-- r3_node_5 -->
<g id="node8" class="node">
<title>r3_node_5</title>
<ellipse fill="none" stroke="black" cx="448.93" cy="-738" rx="50.33" ry="18"/>
<text text-anchor="middle" x="448.93" y="-732.95" font-family="Times,serif" font-size="14.00">r3_node_5</text>
</g>
<!-- r3_node_15&#45;&gt;r3_node_5 -->
<g id="edge5" class="edge">
<title>r3_node_15&#45;&gt;r3_node_5</title>
<path fill="none" stroke="black" d="M267.34,-795.83C303.31,-783.67 359.13,-765.65 399.44,-753.17"/>
<polygon fill="black" stroke="black" points="400.4,-756.54 408.93,-750.26 398.34,-749.85 400.4,-756.54"/>
</g>
<!-- r3_node_2 -->
<g id="node9" class="node">
<title>r3_node_2</title>
<ellipse fill="none" stroke="black" cx="194.93" cy="-738" rx="50.33" ry="18"/>
<text text-anchor="middle" x="194.93" y="-732.95" font-family="Times,serif" font-size="14.00">r3_node_2</text>
</g>
<!-- r3_node_15&#45;&gt;r3_node_2 -->
<g id="edge6" class="edge">
<title>r3_node_15&#45;&gt;r3_node_2</title>
<path fill="none" stroke="black" d="M217.33,-792.41C212.41,-784.71 207.2,-775.34 202.92,-766.62"/>
<polygon fill="black" stroke="black" points="206.23,-765.44 198.86,-757.82 199.87,-768.37 206.23,-765.44"/>
</g>
<!-- r3_node_14&#45;&gt;r3_node_17 -->
<g id="edge10" class="edge">
<title>r3_node_14&#45;&gt;r3_node_17</title>
<path fill="none" stroke="black" d="M103.83,-873.59C153.15,-865.33 231.08,-850.17 295.93,-828 331.3,-815.91 336.83,-804.84 371.93,-792 430.66,-770.53 468.69,-804.67 507.93,-756 578.58,-668.38 538.79,-298.03 525.65,-191.67"/>
<polygon fill="black" stroke="black" points="529.13,-191.3 524.41,-181.81 522.19,-192.17 529.13,-191.3"/>
</g>
<!-- r3_node_14&#45;&gt;r3_node_15 -->
<g id="edge9" class="edge">
<title>r3_node_14&#45;&gt;r3_node_15</title>
<path fill="none" stroke="black" d="M85.61,-866.67C112.81,-855.32 152.81,-839.47 184.17,-827.58"/>
<polygon fill="black" stroke="black" points="185.32,-830.89 193.45,-824.09 182.86,-824.34 185.32,-830.89"/>
</g>
<!-- r3_node_3 -->
<g id="node11" class="node">
<title>r3_node_3</title>
<ellipse fill="none" stroke="black" cx="231.93" cy="-90" rx="50.33" ry="18"/>
<text text-anchor="middle" x="231.93" y="-84.95" font-family="Times,serif" font-size="14.00">r3_node_3</text>
</g>
<!-- r3_node_14&#45;&gt;r3_node_3 -->
<g id="edge7" class="edge">
<title>r3_node_14&#45;&gt;r3_node_3</title>
<path fill="none" stroke="black" d="M50.87,-863.93C48.63,-853.6 46.07,-840.12 44.93,-828 43.44,-812.07 44.31,-807.99 44.93,-792 55.2,-530.71 66.64,-458.32 164.93,-216 179.27,-180.66 200.78,-142.33 215.54,-117.56"/>
<polygon fill="black" stroke="black" points="218.46,-119.49 220.63,-109.12 212.47,-115.88 218.46,-119.49"/>
</g>
<!-- r3_node_6 -->
<g id="node12" class="node">
<title>r3_node_6</title>
<ellipse fill="none" stroke="black" cx="103.93" cy="-810" rx="50.33" ry="18"/>
<text text-anchor="middle" x="103.93" y="-804.95" font-family="Times,serif" font-size="14.00">r3_node_6</text>
</g>
<!-- r3_node_14&#45;&gt;r3_node_6 -->
<g id="edge8" class="edge">
<title>r3_node_14&#45;&gt;r3_node_6</title>
<path fill="none" stroke="black" d="M61.13,-863.7C66.08,-855.4 72.95,-845.31 79.79,-836.19"/>
<polygon fill="black" stroke="black" points="82.53,-838.38 85.91,-828.34 77,-834.07 82.53,-838.38"/>
</g>
<!-- r3_node_4&#45;&gt;r3_node_15 -->
<g id="edge34" class="edge">
<title>r3_node_4&#45;&gt;r3_node_15</title>
<path fill="none" stroke="black" d="M443.59,-322.95C470.29,-352.35 512.51,-416.74 488.93,-468 478.66,-490.34 461.25,-484.01 446.93,-504 396.78,-574.06 422.37,-612.07 374.93,-684 350.02,-721.78 336.16,-725.27 302.93,-756 291.58,-766.5 278.64,-777.68 266.83,-787.05"/>
<polygon fill="black" stroke="black" points="265.03,-784.02 259.26,-792.9 269.31,-789.56 265.03,-784.02"/>
</g>
<!-- r3_node_24 -->
<g id="node10" class="node">
<title>r3_node_24</title>
<ellipse fill="none" stroke="black" cx="171.93" cy="-18" rx="54.93" ry="18"/>
<text text-anchor="middle" x="171.93" y="-12.95" font-family="Times,serif" font-size="14.00">r3_node_24</text>
</g>
<!-- r3_node_4&#45;&gt;r3_node_24 -->
<g id="edge37" class="edge">
<title>r3_node_4&#45;&gt;r3_node_24</title>
<path fill="none" stroke="black" d="M388.91,-293.21C369.82,-284.92 348.08,-271.72 336.93,-252 329.06,-238.07 331.83,-231.16 336.93,-216 360.43,-146.2 465.23,-129.28 418.93,-72 412.95,-64.59 301.36,-42.84 230.24,-29.61"/>
<polygon fill="black" stroke="black" points="231.15,-26.22 220.68,-27.84 229.88,-33.11 231.15,-26.22"/>
</g>
<!-- r3_node_23 -->
<g id="node23" class="node">
<title>r3_node_23</title>
<ellipse fill="none" stroke="black" cx="400.93" cy="-234" rx="54.93" ry="18"/>
<text text-anchor="middle" x="400.93" y="-228.95" font-family="Times,serif" font-size="14.00">r3_node_23</text>
</g>
<!-- r3_node_4&#45;&gt;r3_node_23 -->
<g id="edge36" class="edge">
<title>r3_node_4&#45;&gt;r3_node_23</title>
<path fill="none" stroke="black" d="M413.25,-288.05C409.9,-280.6 406.57,-271.64 403.97,-263.22"/>
<polygon fill="black" stroke="black" points="407.39,-262.44 401.35,-253.73 400.64,-264.31 407.39,-262.44"/>
</g>
<!-- r3_node_21 -->
<g id="node25" class="node">
<title>r3_node_21</title>
<ellipse fill="none" stroke="black" cx="333.93" cy="-378" rx="54.93" ry="18"/>
<text text-anchor="middle" x="333.93" y="-372.95" font-family="Times,serif" font-size="14.00">r3_node_21</text>
</g>
<!-- r3_node_4&#45;&gt;r3_node_21 -->
<g id="edge35" class="edge">
<title>r3_node_4&#45;&gt;r3_node_21</title>
<path fill="none" stroke="black" d="M409.46,-323.38C398.13,-332.91 382.52,-345.03 368.38,-355.34"/>
<polygon fill="black" stroke="black" points="366.68,-352.26 360.59,-360.93 370.76,-357.95 366.68,-352.26"/>
</g>
<!-- r3_node_5&#45;&gt;r3_node_11 -->
<g id="edge51" class="edge">
<title>r3_node_5&#45;&gt;r3_node_11</title>
<path fill="none" stroke="black" d="M462.76,-720.56C493.96,-683.47 570.04,-593.02 607.45,-548.54"/>
<polygon fill="black" stroke="black" points="610.08,-550.85 613.84,-540.95 604.72,-546.35 610.08,-550.85"/>
</g>
<!-- r3_node_5&#45;&gt;r3_node_15 -->
<g id="edge52" class="edge">
<title>r3_node_5&#45;&gt;r3_node_15</title>
<path fill="none" stroke="black" d="M414.99,-751.67C379.68,-763.64 324.17,-781.57 283.47,-794.19"/>
<polygon fill="black" stroke="black" points="282.65,-790.78 274.12,-797.07 284.71,-797.47 282.65,-790.78"/>
</g>
<!-- r3_node_9 -->
<g id="node13" class="node">
<title>r3_node_9</title>
<ellipse fill="none" stroke="black" cx="324.93" cy="-18" rx="50.33" ry="18"/>
<text text-anchor="middle" x="324.93" y="-12.95" font-family="Times,serif" font-size="14.00">r3_node_9</text>
</g>
<!-- r3_node_5&#45;&gt;r3_node_9 -->
<g id="edge53" class="edge">
<title>r3_node_5&#45;&gt;r3_node_9</title>
<path fill="none" stroke="black" d="M447.67,-719.77C445.43,-679.96 443.68,-579.23 475.93,-504 484.14,-484.86 498.84,-487.58 505.93,-468 511.38,-452.96 507.15,-447.95 505.93,-432 501.03,-367.44 496.41,-351.53 483.93,-288 479.18,-263.78 460.84,-204.51 457.93,-180 456.05,-164.11 455.57,-159.82 457.93,-144 460.41,-127.45 466.46,-124.55 468.93,-108 471.3,-92.18 478.09,-85.12 468.93,-72 449.93,-44.76 415.28,-31.48 384.73,-25.02"/>
<polygon fill="black" stroke="black" points="385.66,-21.64 375.18,-23.22 384.36,-28.52 385.66,-21.64"/>
</g>
<!-- r3_node_2&#45;&gt;r3_node_15 -->
<g id="edge28" class="edge">
<title>r3_node_2&#45;&gt;r3_node_15</title>
<path fill="none" stroke="black" d="M209.56,-755.62C214.49,-763.36 219.72,-772.76 224.01,-781.51"/>
<polygon fill="black" stroke="black" points="220.71,-782.7 228.07,-790.32 227.07,-779.77 220.71,-782.7"/>
</g>
<!-- r3_node_16 -->
<g id="node21" class="node">
<title>r3_node_16</title>
<ellipse fill="none" stroke="black" cx="221.93" cy="-306" rx="54.93" ry="18"/>
<text text-anchor="middle" x="221.93" y="-300.95" font-family="Times,serif" font-size="14.00">r3_node_16</text>
</g>
<!-- r3_node_2&#45;&gt;r3_node_16 -->
<g id="edge27" class="edge">
<title>r3_node_2&#45;&gt;r3_node_16</title>
<path fill="none" stroke="black" d="M187.61,-719.93C184.79,-702.02 184.2,-673.02 184.93,-648 188.71,-519.83 185.08,-487.11 201.93,-360 203.04,-351.64 204.72,-342.63 206.83,-334.45"/>
<polygon fill="black" stroke="black" points="210.13,-335.64 209.64,-325.05 203.42,-333.63 210.13,-335.64"/>
</g>
<!-- r3_node_19 -->
<g id="node22" class="node">
<title>r3_node_19</title>
<ellipse fill="none" stroke="black" cx="257.93" cy="-666" rx="54.93" ry="18"/>
<text text-anchor="middle" x="257.93" y="-660.95" font-family="Times,serif" font-size="14.00">r3_node_19</text>
</g>
<!-- r3_node_2&#45;&gt;r3_node_19 -->
<g id="edge26" class="edge">
<title>r3_node_2&#45;&gt;r3_node_19</title>
<path fill="none" stroke="black" d="M204.31,-720.05C211.26,-711.29 220.83,-700.45 230.03,-690.86"/>
<polygon fill="black" stroke="black" points="232.35,-693.49 236.87,-683.91 227.36,-688.58 232.35,-693.49"/>
</g>
<!-- r3_node_6&#45;&gt;r3_node_14 -->
<g id="edge39" class="edge">
<title>r3_node_6&#45;&gt;r3_node_14</title>
<path fill="none" stroke="black" d="M97.84,-828.12C92.91,-836.41 86.03,-846.53 79.17,-855.69"/>
<polygon fill="black" stroke="black" points="76.41,-853.53 73.03,-863.57 81.93,-857.83 76.41,-853.53"/>
</g>
<!-- r3_node_1 -->
<g id="node20" class="node">
<title>r3_node_1</title>
<ellipse fill="none" stroke="black" cx="120.93" cy="-594" rx="50.33" ry="18"/>
<text text-anchor="middle" x="120.93" y="-588.95" font-family="Times,serif" font-size="14.00">r3_node_1</text>
</g>
<!-- r3_node_6&#45;&gt;r3_node_1 -->
<g id="edge38" class="edge">
<title>r3_node_6&#45;&gt;r3_node_1</title>
<path fill="none" stroke="black" d="M105.3,-791.85C108.21,-755.14 115.08,-668.66 118.67,-623.53"/>
<polygon fill="black" stroke="black" points="122.14,-623.99 119.45,-613.74 115.16,-623.43 122.14,-623.99"/>
</g>
<!-- r3_node_6&#45;&gt;r3_node_21 -->
<g id="edge40" class="edge">
<title>r3_node_6&#45;&gt;r3_node_21</title>
<path fill="none" stroke="black" d="M141.82,-797.85C179.75,-786.29 235.12,-768.24 253.93,-756 324.49,-710.1 349.97,-691.73 376.93,-612 382.06,-596.84 386.46,-588.86 376.93,-576 344.31,-531.93 291.56,-584.07 258.93,-540 226.46,-496.14 274.74,-435.96 307.64,-403"/>
<polygon fill="black" stroke="black" points="309.81,-405.78 314.53,-396.29 304.92,-400.76 309.81,-405.78"/>
</g>
<!-- r3_node_20 -->
<g id="node14" class="node">
<title>r3_node_20</title>
<ellipse fill="none" stroke="black" cx="354.93" cy="-90" rx="54.93" ry="18"/>
<text text-anchor="middle" x="354.93" y="-84.95" font-family="Times,serif" font-size="14.00">r3_node_20</text>
</g>
<!-- r3_node_20&#45;&gt;r3_node_24 -->
<g id="edge12" class="edge">
<title>r3_node_20&#45;&gt;r3_node_24</title>
<path fill="none" stroke="black" d="M320.08,-75.67C290.83,-64.48 248.83,-48.42 217.02,-36.25"/>
<polygon fill="black" stroke="black" points="218.66,-33.13 208.07,-32.82 216.16,-39.66 218.66,-33.13"/>
</g>
<!-- r3_node_20&#45;&gt;r3_node_9 -->
<g id="edge13" class="edge">
<title>r3_node_20&#45;&gt;r3_node_9</title>
<path fill="none" stroke="black" d="M347.52,-71.7C344.29,-64.15 340.41,-55.12 336.8,-46.68"/>
<polygon fill="black" stroke="black" points="340.02,-45.31 332.86,-37.5 333.58,-48.07 340.02,-45.31"/>
</g>
<!-- r3_node_7 -->
<g id="node15" class="node">
<title>r3_node_7</title>
<ellipse fill="none" stroke="black" cx="273.93" cy="-162" rx="50.33" ry="18"/>
<text text-anchor="middle" x="273.93" y="-156.95" font-family="Times,serif" font-size="14.00">r3_node_7</text>
</g>
<!-- r3_node_20&#45;&gt;r3_node_7 -->
<g id="edge11" class="edge">
<title>r3_node_20&#45;&gt;r3_node_7</title>
<path fill="none" stroke="black" d="M341.28,-107.88C331.51,-117.18 318.17,-128.83 305.88,-138.86"/>
<polygon fill="black" stroke="black" points="303.99,-135.89 298.37,-144.87 308.37,-141.35 303.99,-135.89"/>
</g>
<!-- r3_node_7&#45;&gt;r3_node_3 -->
<g id="edge29" class="edge">
<title>r3_node_7&#45;&gt;r3_node_3</title>
<path fill="none" stroke="black" d="M263.77,-144.05C258.97,-136.06 253.13,-126.33 247.77,-117.4"/>
<polygon fill="black" stroke="black" points="250.93,-115.86 242.79,-109.09 244.93,-119.46 250.93,-115.86"/>
</g>
<!-- r3_node_7&#45;&gt;r3_node_20 -->
<g id="edge31" class="edge">
<title>r3_node_7&#45;&gt;r3_node_20</title>
<path fill="none" stroke="black" d="M287.29,-144.41C296.97,-135.17 310.26,-123.54 322.56,-113.49"/>
<polygon fill="black" stroke="black" points="324.47,-116.44 330.09,-107.46 320.1,-110.98 324.47,-116.44"/>
</g>
<!-- r3_node_18 -->
<g id="node18" class="node">
<title>r3_node_18</title>
<ellipse fill="none" stroke="black" cx="228.93" cy="-234" rx="54.93" ry="18"/>
<text text-anchor="middle" x="228.93" y="-228.95" font-family="Times,serif" font-size="14.00">r3_node_18</text>
</g>
<!-- r3_node_7&#45;&gt;r3_node_18 -->
<g id="edge30" class="edge">
<title>r3_node_7&#45;&gt;r3_node_18</title>
<path fill="none" stroke="black" d="M268.91,-179.96C264.5,-188.17 258.26,-198.22 251.96,-207.34"/>
<polygon fill="black" stroke="black" points="249.32,-205.02 246.32,-215.18 255,-209.11 249.32,-205.02"/>
</g>
<!-- r3_node_8 -->
<g id="node16" class="node">
<title>r3_node_8</title>
<ellipse fill="none" stroke="black" cx="317.93" cy="-522" rx="50.33" ry="18"/>
<text text-anchor="middle" x="317.93" y="-516.95" font-family="Times,serif" font-size="14.00">r3_node_8</text>
</g>
<!-- r3_node_27 -->
<g id="node17" class="node">
<title>r3_node_27</title>
<ellipse fill="none" stroke="black" cx="389.93" cy="-450" rx="54.93" ry="18"/>
<text text-anchor="middle" x="389.93" y="-444.95" font-family="Times,serif" font-size="14.00">r3_node_27</text>
</g>
<!-- r3_node_8&#45;&gt;r3_node_27 -->
<g id="edge14" class="edge">
<title>r3_node_8&#45;&gt;r3_node_27</title>
<path fill="none" stroke="black" d="M329.49,-504.05C337.73,-495.12 348.98,-484.01 359.59,-474.28"/>
<polygon fill="black" stroke="black" points="361.66,-477.12 366.77,-467.84 356.99,-471.91 361.66,-477.12"/>
</g>
<!-- r3_node_8&#45;&gt;r3_node_18 -->
<g id="edge15" class="edge">
<title>r3_node_8&#45;&gt;r3_node_18</title>
<path fill="none" stroke="black" d="M355.2,-509.54C388.76,-499.4 434.14,-483.79 444.93,-468 453.96,-454.79 450.13,-447.13 444.93,-432 431.78,-393.65 417.94,-388.32 388.93,-360 347.34,-319.4 292.08,-280.93 258.43,-257.66"/>
<polygon fill="black" stroke="black" points="260.59,-254.9 250.38,-252.09 256.61,-260.66 260.59,-254.9"/>
</g>
<!-- r3_node_12 -->
<g id="node19" class="node">
<title>r3_node_12</title>
<ellipse fill="none" stroke="black" cx="312.93" cy="-594" rx="54.93" ry="18"/>
<text text-anchor="middle" x="312.93" y="-588.95" font-family="Times,serif" font-size="14.00">r3_node_12</text>
</g>
<!-- r3_node_8&#45;&gt;r3_node_12 -->
<g id="edge16" class="edge">
<title>r3_node_8&#45;&gt;r3_node_12</title>
<path fill="none" stroke="black" d="M322.61,-540.1C322.85,-547.45 322.47,-556.24 321.61,-564.53"/>
<polygon fill="black" stroke="black" points="318.18,-563.82 320.29,-574.2 325.11,-564.76 318.18,-563.82"/>
</g>
<!-- r3_node_27&#45;&gt;r3_node_8 -->
<g id="edge58" class="edge">
<title>r3_node_27&#45;&gt;r3_node_8</title>
<path fill="none" stroke="black" d="M378.37,-467.96C370.05,-476.98 358.68,-488.19 347.99,-497.99"/>
<polygon fill="black" stroke="black" points="345.88,-495.18 340.76,-504.46 350.55,-500.4 345.88,-495.18"/>
</g>
<!-- r3_node_27&#45;&gt;r3_node_21 -->
<g id="edge59" class="edge">
<title>r3_node_27&#45;&gt;r3_node_21</title>
<path fill="none" stroke="black" d="M371.15,-432.76C363.71,-424.61 355.39,-414.53 348.42,-405.31"/>
<polygon fill="black" stroke="black" points="351.34,-403.37 342.63,-397.35 345.68,-407.49 351.34,-403.37"/>
</g>
<!-- r3_node_18&#45;&gt;r3_node_3 -->
<g id="edge19" class="edge">
<title>r3_node_18&#45;&gt;r3_node_3</title>
<path fill="none" stroke="black" d="M223.26,-216.04C220.11,-205.74 216.53,-192.27 214.93,-180 212.87,-164.13 212.46,-159.81 214.93,-144 216.25,-135.56 218.69,-126.64 221.31,-118.56"/>
<polygon fill="black" stroke="black" points="224.56,-119.88 224.55,-109.29 217.95,-117.58 224.56,-119.88"/>
</g>
<!-- r3_node_18&#45;&gt;r3_node_7 -->
<g id="edge17" class="edge">
<title>r3_node_18&#45;&gt;r3_node_7</title>
<path fill="none" stroke="black" d="M234.14,-215.7C238.57,-207.49 244.78,-197.52 251.03,-188.48"/>
<polygon fill="black" stroke="black" points="253.87,-190.53 256.88,-180.37 248.19,-186.43 253.87,-190.53"/>
</g>
<!-- r3_node_18&#45;&gt;r3_node_8 -->
<g id="edge20" class="edge">
<title>r3_node_18&#45;&gt;r3_node_8</title>
<path fill="none" stroke="black" d="M258.53,-249.56C295.83,-271.2 360.06,-314.24 406.93,-360 435.94,-388.32 449.78,-393.65 462.93,-432 468.13,-447.13 471.96,-454.79 462.93,-468 452.29,-483.57 408.07,-498.94 371.13,-509.09"/>
<polygon fill="black" stroke="black" points="370.67,-505.59 361.91,-511.55 372.47,-512.36 370.67,-505.59"/>
</g>
<!-- r3_node_18&#45;&gt;r3_node_16 -->
<g id="edge18" class="edge">
<title>r3_node_18&#45;&gt;r3_node_16</title>
<path fill="none" stroke="black" d="M233.12,-252.1C233.15,-259.45 232.52,-268.24 231.43,-276.53"/>
<polygon fill="black" stroke="black" points="228,-275.77 229.83,-286.2 234.91,-276.91 228,-275.77"/>
</g>
<!-- r3_node_12&#45;&gt;r3_node_24 -->
<g id="edge56" class="edge">
<title>r3_node_12&#45;&gt;r3_node_24</title>
<path fill="none" stroke="black" d="M273.43,-581.15C252.26,-572.86 227.42,-559.69 211.93,-540 93.44,-389.28 143.33,-132.35 164.34,-47.28"/>
<polygon fill="black" stroke="black" points="167.71,-48.25 166.78,-37.7 160.92,-46.53 167.71,-48.25"/>
</g>
<!-- r3_node_12&#45;&gt;r3_node_8 -->
<g id="edge57" class="edge">
<title>r3_node_12&#45;&gt;r3_node_8</title>
<path fill="none" stroke="black" d="M308.25,-575.7C308.02,-568.32 308.41,-559.52 309.28,-551.25"/>
<polygon fill="black" stroke="black" points="312.71,-551.99 310.61,-541.6 305.78,-551.03 312.71,-551.99"/>
</g>
<!-- r3_node_12&#45;&gt;r3_node_16 -->
<g id="edge54" class="edge">
<title>r3_node_12&#45;&gt;r3_node_16</title>
<path fill="none" stroke="black" d="M271.41,-581.81C250.97,-573.51 228.45,-560.1 216.93,-540 197.44,-505.98 205.17,-389.89 213.99,-335.52"/>
<polygon fill="black" stroke="black" points="217.41,-336.26 215.73,-325.8 210.52,-335.03 217.41,-336.26"/>
</g>
<!-- r3_node_12&#45;&gt;r3_node_19 -->
<g id="edge55" class="edge">
<title>r3_node_12&#45;&gt;r3_node_19</title>
<path fill="none" stroke="black" d="M305.38,-612.12C299.61,-620.59 291.66,-630.96 283.85,-640.26"/>
<polygon fill="black" stroke="black" points="281.38,-637.77 277.48,-647.62 286.68,-642.35 281.38,-637.77"/>
</g>
<!-- r3_node_16&#45;&gt;r3_node_2 -->
<g id="edge47" class="edge">
<title>r3_node_16&#45;&gt;r3_node_2</title>
<path fill="none" stroke="black" d="M225.55,-324.08C224.35,-334.41 221.54,-347.89 219.93,-360 203.08,-487.11 206.71,-519.83 202.93,-648 202.34,-668.23 202.61,-691.06 201.82,-708.53"/>
<polygon fill="black" stroke="black" points="198.33,-708.21 201.15,-718.42 205.32,-708.68 198.33,-708.21"/>
</g>
<!-- r3_node_16&#45;&gt;r3_node_18 -->
<g id="edge45" class="edge">
<title>r3_node_16&#45;&gt;r3_node_18</title>
<path fill="none" stroke="black" d="M217.75,-287.7C217.73,-280.32 218.36,-271.52 219.47,-263.25"/>
<polygon fill="black" stroke="black" points="222.89,-264.04 221.08,-253.6 215.98,-262.89 222.89,-264.04"/>
</g>
<!-- r3_node_16&#45;&gt;r3_node_12 -->
<g id="edge44" class="edge">
<title>r3_node_16&#45;&gt;r3_node_12</title>
<path fill="none" stroke="black" d="M224.27,-324.31C224.5,-371.86 213.96,-503.41 234.93,-540 243.21,-554.45 257.17,-565.44 271.06,-573.56"/>
<polygon fill="black" stroke="black" points="269.29,-576.58 279.75,-578.25 272.62,-570.42 269.29,-576.58"/>
</g>
<!-- r3_node_16&#45;&gt;r3_node_21 -->
<g id="edge46" class="edge">
<title>r3_node_16&#45;&gt;r3_node_21</title>
<path fill="none" stroke="black" d="M250.82,-321.56C267.42,-331.16 288.11,-343.94 304.75,-354.8"/>
<polygon fill="black" stroke="black" points="302.49,-357.5 312.76,-360.1 306.35,-351.67 302.49,-357.5"/>
</g>
<!-- r3_node_19&#45;&gt;r3_node_2 -->
<g id="edge21" class="edge">
<title>r3_node_19&#45;&gt;r3_node_2</title>
<path fill="none" stroke="black" d="M248.68,-683.8C241.73,-692.56 232.14,-703.43 222.92,-713.06"/>
<polygon fill="black" stroke="black" points="220.57,-710.46 216.05,-720.04 225.56,-715.37 220.57,-710.46"/>
</g>
<!-- r3_node_19&#45;&gt;r3_node_12 -->
<g id="edge22" class="edge">
<title>r3_node_19&#45;&gt;r3_node_12</title>
<path fill="none" stroke="black" d="M265.61,-647.7C271.39,-639.23 279.33,-628.89 287.12,-619.61"/>
<polygon fill="black" stroke="black" points="289.56,-622.14 293.47,-612.29 284.27,-617.55 289.56,-622.14"/>
</g>
<!-- r3_node_23&#45;&gt;r3_node_17 -->
<g id="edge25" class="edge">
<title>r3_node_23&#45;&gt;r3_node_17</title>
<path fill="none" stroke="black" d="M427.19,-217.81C444.39,-207.86 467.11,-194.72 485.98,-183.8"/>
<polygon fill="black" stroke="black" points="487.52,-186.95 494.42,-178.92 484.01,-180.9 487.52,-186.95"/>
</g>
<!-- r3_node_23&#45;&gt;r3_node_4 -->
<g id="edge23" class="edge">
<title>r3_node_23&#45;&gt;r3_node_4</title>
<path fill="none" stroke="black" d="M412.48,-251.62C415.85,-259.1 419.22,-268.14 421.85,-276.64"/>
<polygon fill="black" stroke="black" points="418.47,-277.54 424.51,-286.24 425.21,-275.67 418.47,-277.54"/>
</g>
<!-- r3_node_23&#45;&gt;r3_node_9 -->
<g id="edge24" class="edge">
<title>r3_node_23&#45;&gt;r3_node_9</title>
<path fill="none" stroke="black" d="M403.29,-215.54C406.27,-197.04 412.46,-167.34 423.93,-144 432.88,-125.81 445.36,-127.17 451.93,-108 457.13,-92.87 460.81,-85.32 451.93,-72 436.29,-48.51 408.04,-35.42 382.15,-28.12"/>
<polygon fill="black" stroke="black" points="383.27,-24.8 372.71,-25.71 381.53,-31.58 383.27,-24.8"/>
</g>
<!-- r3_node_28&#45;&gt;r3_node_17 -->
<g id="edge32" class="edge">
<title>r3_node_28&#45;&gt;r3_node_17</title>
<path fill="none" stroke="black" d="M694.98,-431.97C664.1,-383.98 576.24,-247.41 538.98,-189.49"/>
<polygon fill="black" stroke="black" points="542.01,-187.73 533.65,-181.22 536.12,-191.52 542.01,-187.73"/>
</g>
<!-- r3_node_28&#45;&gt;r3_node_22 -->
<g id="edge33" class="edge">
<title>r3_node_28&#45;&gt;r3_node_22</title>
<path fill="none" stroke="black" d="M666.36,-462.79C631.83,-472.95 585.72,-488.4 573.93,-504 540.05,-548.83 584.61,-709.58 552.93,-756 539.33,-775.94 515.99,-788.68 493.65,-796.65"/>
<polygon fill="black" stroke="black" points="492.67,-793.29 484.26,-799.73 494.85,-799.95 492.67,-793.29"/>
</g>
<!-- r3_node_21&#45;&gt;r3_node_4 -->
<g id="edge48" class="edge">
<title>r3_node_21&#45;&gt;r3_node_4</title>
<path fill="none" stroke="black" d="M349.66,-360.41C361.03,-350.86 376.63,-338.75 390.73,-328.48"/>
<polygon fill="black" stroke="black" points="392.4,-331.59 398.49,-322.92 388.33,-325.9 392.4,-331.59"/>
</g>
<!-- r3_node_21&#45;&gt;r3_node_27 -->
<g id="edge49" class="edge">
<title>r3_node_21&#45;&gt;r3_node_27</title>
<path fill="none" stroke="black" d="M352.64,-395.14C360.05,-403.26 368.35,-413.31 375.32,-422.52"/>
<polygon fill="black" stroke="black" points="372.4,-424.45 381.12,-430.47 378.05,-420.33 372.4,-424.45"/>
</g>
<!-- r3_node_21&#45;&gt;r3_node_16 -->
<g id="edge50" class="edge">
<title>r3_node_21&#45;&gt;r3_node_16</title>
<path fill="none" stroke="black" d="M304.84,-362.33C288.29,-352.74 267.74,-340.04 251.17,-329.23"/>
<polygon fill="black" stroke="black" points="253.47,-326.56 243.2,-323.96 249.61,-332.39 253.47,-326.56"/>
</g>
</g>
</svg>
