<?xml version="1.0" encoding="UTF-8" standalone="no"?>
<!DOCTYPE svg PUBLIC "-//W3C//DTD SVG 1.1//EN"
 "http://www.w3.org/Graphics/SVG/1.1/DTD/svg11.dtd">
<!-- Generated by graphviz version 12.2.1 (20241206.2353)
 -->
<!-- Pages: 1 -->
<svg width="602pt" height="116pt"
 viewBox="0.00 0.00 601.87 116.00" xmlns="http://www.w3.org/2000/svg" xmlns:xlink="http://www.w3.org/1999/xlink">
<g id="graph0" class="graph" transform="scale(1 1) rotate(0) translate(4 112)">
<polygon fill="white" stroke="none" points="-4,4 -4,-112 597.87,-112 597.87,4 -4,4"/>
<!-- r3_node_10 -->
<g id="node1" class="node">
<title>r3_node_10</title>
<ellipse fill="none" stroke="black" cx="115.93" cy="-90" rx="54.93" ry="18"/>
<text text-anchor="middle" x="115.93" y="-84.95" font-family="Times,serif" font-size="14.00">r3_node_10</text>
</g>
<!-- r3_node_18 -->
<g id="node2" class="node">
<title>r3_node_18</title>
<ellipse fill="none" stroke="black" cx="54.93" cy="-18" rx="54.93" ry="18"/>
<text text-anchor="middle" x="54.93" y="-12.95" font-family="Times,serif" font-size="14.00">r3_node_18</text>
</g>
<!-- r3_node_10&#45;&gt;r3_node_18 -->
<g id="edge1" class="edge">
<title>r3_node_10&#45;&gt;r3_node_18</title>
<path fill="none" stroke="black" d="M101.48,-72.41C94.11,-63.95 84.99,-53.49 76.79,-44.08"/>
<polygon fill="black" stroke="black" points="79.49,-41.85 70.28,-36.61 74.21,-46.45 79.49,-41.85"/>
</g>
<!-- r3_node_6 -->
<g id="node3" class="node">
<title>r3_node_6</title>
<ellipse fill="none" stroke="black" cx="177.93" cy="-18" rx="50.33" ry="18"/>
<text text-anchor="middle" x="177.93" y="-12.95" font-family="Times,serif" font-size="14.00">r3_node_6</text>
</g>
<!-- r3_node_10&#45;&gt;r3_node_6 -->
<g id="edge2" class="edge">
<title>r3_node_10&#45;&gt;r3_node_6</title>
<path fill="none" stroke="black" d="M130.63,-72.41C138.12,-63.95 147.38,-53.49 155.72,-44.08"/>
<polygon fill="black" stroke="black" points="158.33,-46.41 162.34,-36.6 153.09,-41.77 158.33,-46.41"/>
</g>
<!-- r3_node_1 -->
<g id="node4" class="node">
<title>r3_node_1</title>
<ellipse fill="none" stroke="black" cx="296.93" cy="-18" rx="50.33" ry="18"/>
<text text-anchor="middle" x="296.93" y="-12.95" font-family="Times,serif" font-size="14.00">r3_node_1</text>
</g>
<!-- r3_node_10&#45;&gt;r3_node_1 -->
<g id="edge3" class="edge">
<title>r3_node_10&#45;&gt;r3_node_1</title>
<path fill="none" stroke="black" d="M150.4,-75.67C179.49,-64.42 221.3,-48.25 252.83,-36.06"/>
<polygon fill="black" stroke="black" points="254.03,-39.34 262.1,-32.47 251.51,-32.82 254.03,-39.34"/>
</g>
<!-- r3_node_3 -->
<g id="node5" class="node">
<title>r3_node_3</title>
<ellipse fill="none" stroke="black" cx="415.93" cy="-18" rx="50.33" ry="18"/>
<text text-anchor="middle" x="415.93" y="-12.95" font-family="Times,serif" font-size="14.00">r3_node_3</text>
</g>
<!-- r3_node_10&#45;&gt;r3_node_3 -->
<g id="edge4" class="edge">
<title>r3_node_10&#45;&gt;r3_node_3</title>
<path fill="none" stroke="black" d="M161.68,-79.73C210.11,-69.73 288.69,-52.93 355.93,-36 359.5,-35.1 363.18,-34.14 366.88,-33.15"/>
<polygon fill="black" stroke="black" points="367.75,-36.54 376.48,-30.53 365.91,-29.79 367.75,-36.54"/>
</g>
<!-- r3_node_12 -->
<g id="node6" class="node">
<title>r3_node_12</title>
<ellipse fill="none" stroke="black" cx="538.93" cy="-18" rx="54.93" ry="18"/>
<text text-anchor="middle" x="538.93" y="-12.95" font-family="Times,serif" font-size="14.00">r3_node_12</text>
</g>
<!-- r3_node_10&#45;&gt;r3_node_12 -->
<g id="edge5" class="edge">
<title>r3_node_10&#45;&gt;r3_node_12</title>
<path fill="none" stroke="black" d="M167.38,-83.26C237.37,-75.03 366.33,-58.37 474.93,-36 479,-35.16 483.2,-34.22 487.4,-33.23"/>
<polygon fill="black" stroke="black" points="488.13,-36.65 497,-30.85 486.45,-29.85 488.13,-36.65"/>
</g>
</g>
</svg>
