<?xml version="1.0" encoding="UTF-8" standalone="no"?>
<!DOCTYPE svg PUBLIC "-//W3C//DTD SVG 1.1//EN"
 "http://www.w3.org/Graphics/SVG/1.1/DTD/svg11.dtd">
<!-- Generated by graphviz version 12.2.1 (20241206.2353)
 -->
<!-- Pages: 1 -->
<svg width="789pt" height="692pt"
 viewBox="0.00 0.00 788.95 692.00" xmlns="http://www.w3.org/2000/svg" xmlns:xlink="http://www.w3.org/1999/xlink">
<g id="graph0" class="graph" transform="scale(1 1) rotate(0) translate(4 688)">
<polygon fill="white" stroke="none" points="-4,4 -4,-688 784.95,-688 784.95,4 -4,4"/>
<!-- r2_node_25 -->
<g id="node1" class="node">
<title>r2_node_25</title>
<ellipse fill="none" stroke="black" cx="110.87" cy="-666" rx="54.93" ry="18"/>
<text text-anchor="middle" x="110.87" y="-660.95" font-family="Times,serif" font-size="14.00">r2_node_25</text>
</g>
<!-- r2_node_23 -->
<g id="node2" class="node">
<title>r2_node_23</title>
<ellipse fill="none" stroke="black" cx="66.87" cy="-90" rx="54.93" ry="18"/>
<text text-anchor="middle" x="66.87" y="-84.95" font-family="Times,serif" font-size="14.00">r2_node_23</text>
</g>
<!-- r2_node_25&#45;&gt;r2_node_23 -->
<g id="edge1" class="edge">
<title>r2_node_25&#45;&gt;r2_node_23</title>
<path fill="none" stroke="black" d="M92.36,-648.7C72.62,-625.81 43.38,-582.22 29.87,-540 -9.34,-417.52 8.1,-380.45 1.87,-252 1.09,-236.02 -1.48,-231.65 1.87,-216 9.6,-179.82 28.61,-141.46 44.36,-116.92"/>
<polygon fill="black" stroke="black" points="47.11,-119.11 49.8,-108.86 41.3,-115.19 47.11,-119.11"/>
</g>
<!-- r2_node_18 -->
<g id="node3" class="node">
<title>r2_node_18</title>
<ellipse fill="none" stroke="black" cx="186.87" cy="-594" rx="54.93" ry="18"/>
<text text-anchor="middle" x="186.87" y="-588.95" font-family="Times,serif" font-size="14.00">r2_node_18</text>
</g>
<!-- r2_node_25&#45;&gt;r2_node_18 -->
<g id="edge2" class="edge">
<title>r2_node_25&#45;&gt;r2_node_18</title>
<path fill="none" stroke="black" d="M123.39,-648.05C132.14,-639.12 144.02,-628.01 155.19,-618.28"/>
<polygon fill="black" stroke="black" points="157.44,-620.96 162.77,-611.81 152.89,-615.64 157.44,-620.96"/>
</g>
<!-- r2_node_4 -->
<g id="node4" class="node">
<title>r2_node_4</title>
<ellipse fill="none" stroke="black" cx="326.87" cy="-594" rx="50.33" ry="18"/>
<text text-anchor="middle" x="326.87" y="-588.95" font-family="Times,serif" font-size="14.00">r2_node_4</text>
</g>
<!-- r2_node_25&#45;&gt;r2_node_4 -->
<g id="edge3" class="edge">
<title>r2_node_25&#45;&gt;r2_node_4</title>
<path fill="none" stroke="black" d="M146.08,-651.83C181.77,-639.71 237.11,-621.76 277.22,-609.29"/>
<polygon fill="black" stroke="black" points="278.13,-612.67 286.65,-606.37 276.06,-605.98 278.13,-612.67"/>
</g>
<!-- r2_node_23&#45;&gt;r2_node_25 -->
<g id="edge47" class="edge">
<title>r2_node_23&#45;&gt;r2_node_25</title>
<path fill="none" stroke="black" d="M62.33,-108.4C51.54,-131.84 28.57,-175.31 19.87,-216 16.52,-231.65 19.09,-236.02 19.87,-252 26.1,-380.45 8.66,-417.52 47.87,-540 59.56,-576.52 83.02,-614.08 98.07,-638.36"/>
<polygon fill="black" stroke="black" points="94.93,-639.94 103.15,-646.62 100.89,-636.27 94.93,-639.94"/>
</g>
<!-- r2_node_18&#45;&gt;r2_node_25 -->
<g id="edge16" class="edge">
<title>r2_node_18&#45;&gt;r2_node_25</title>
<path fill="none" stroke="black" d="M174.33,-611.96C165.41,-621.07 153.25,-632.42 141.9,-642.28"/>
<polygon fill="black" stroke="black" points="139.96,-639.34 134.61,-648.48 144.49,-644.67 139.96,-639.34"/>
</g>
<!-- r2_node_6 -->
<g id="node15" class="node">
<title>r2_node_6</title>
<ellipse fill="none" stroke="black" cx="97.87" cy="-522" rx="50.33" ry="18"/>
<text text-anchor="middle" x="97.87" y="-516.95" font-family="Times,serif" font-size="14.00">r2_node_6</text>
</g>
<!-- r2_node_18&#45;&gt;r2_node_6 -->
<g id="edge14" class="edge">
<title>r2_node_18&#45;&gt;r2_node_6</title>
<path fill="none" stroke="black" d="M161.88,-577.81C149.25,-568.75 134.13,-557.05 121.68,-546.79"/>
<polygon fill="black" stroke="black" points="124.23,-544.36 114.32,-540.6 119.72,-549.72 124.23,-544.36"/>
</g>
<!-- r2_node_19 -->
<g id="node16" class="node">
<title>r2_node_19</title>
<ellipse fill="none" stroke="black" cx="222.87" cy="-522" rx="54.93" ry="18"/>
<text text-anchor="middle" x="222.87" y="-516.95" font-family="Times,serif" font-size="14.00">r2_node_19</text>
</g>
<!-- r2_node_18&#45;&gt;r2_node_19 -->
<g id="edge15" class="edge">
<title>r2_node_18&#45;&gt;r2_node_19</title>
<path fill="none" stroke="black" d="M189.85,-575.7C193.1,-567.78 197.8,-558.23 202.7,-549.44"/>
<polygon fill="black" stroke="black" points="205.66,-551.32 207.71,-540.93 199.62,-547.77 205.66,-551.32"/>
</g>
<!-- r2_node_4&#45;&gt;r2_node_25 -->
<g id="edge46" class="edge">
<title>r2_node_4&#45;&gt;r2_node_25</title>
<path fill="none" stroke="black" d="M293.1,-607.67C257.97,-619.64 202.71,-637.57 162.19,-650.19"/>
<polygon fill="black" stroke="black" points="161.41,-646.77 152.89,-653.07 163.48,-653.46 161.41,-646.77"/>
</g>
<!-- r2_node_11 -->
<g id="node10" class="node">
<title>r2_node_11</title>
<ellipse fill="none" stroke="black" cx="361.87" cy="-522" rx="54.93" ry="18"/>
<text text-anchor="middle" x="361.87" y="-516.95" font-family="Times,serif" font-size="14.00">r2_node_11</text>
</g>
<!-- r2_node_4&#45;&gt;r2_node_11 -->
<g id="edge44" class="edge">
<title>r2_node_4&#45;&gt;r2_node_11</title>
<path fill="none" stroke="black" d="M329.6,-575.7C332.74,-567.78 337.3,-558.23 342.08,-549.44"/>
<polygon fill="black" stroke="black" points="345.02,-551.35 346.96,-540.94 338.95,-547.87 345.02,-551.35"/>
</g>
<!-- r2_node_15 -->
<g id="node28" class="node">
<title>r2_node_15</title>
<ellipse fill="none" stroke="black" cx="671.87" cy="-18" rx="54.93" ry="18"/>
<text text-anchor="middle" x="671.87" y="-12.95" font-family="Times,serif" font-size="14.00">r2_node_15</text>
</g>
<!-- r2_node_4&#45;&gt;r2_node_15 -->
<g id="edge45" class="edge">
<title>r2_node_4&#45;&gt;r2_node_15</title>
<path fill="none" stroke="black" d="M368.7,-583.52C448.92,-564.06 623.72,-511.36 712.87,-396 800.96,-281.99 755.53,-205.72 701.87,-72 698.12,-62.65 692.32,-53.46 686.71,-45.42"/>
<polygon fill="black" stroke="black" points="689.67,-43.54 680.98,-37.48 683.99,-47.64 689.67,-43.54"/>
</g>
<!-- r2_node_8 -->
<g id="node5" class="node">
<title>r2_node_8</title>
<ellipse fill="none" stroke="black" cx="69.87" cy="-234" rx="50.33" ry="18"/>
<text text-anchor="middle" x="69.87" y="-228.95" font-family="Times,serif" font-size="14.00">r2_node_8</text>
</g>
<!-- r2_node_12 -->
<g id="node6" class="node">
<title>r2_node_12</title>
<ellipse fill="none" stroke="black" cx="198.87" cy="-18" rx="54.93" ry="18"/>
<text text-anchor="middle" x="198.87" y="-12.95" font-family="Times,serif" font-size="14.00">r2_node_12</text>
</g>
<!-- r2_node_8&#45;&gt;r2_node_12 -->
<g id="edge4" class="edge">
<title>r2_node_8&#45;&gt;r2_node_12</title>
<path fill="none" stroke="black" d="M55.23,-216.57C44.52,-197.62 35.03,-166.24 48.87,-144 67.97,-113.28 93.93,-130.98 121.87,-108 143.58,-90.14 162.46,-64.07 176.39,-44.76"/>
<polygon fill="black" stroke="black" points="179.1,-46.99 182.14,-36.84 173.43,-42.88 179.1,-46.99"/>
</g>
<!-- r2_node_17 -->
<g id="node7" class="node">
<title>r2_node_17</title>
<ellipse fill="none" stroke="black" cx="121.87" cy="-162" rx="54.93" ry="18"/>
<text text-anchor="middle" x="121.87" y="-156.95" font-family="Times,serif" font-size="14.00">r2_node_17</text>
</g>
<!-- r2_node_8&#45;&gt;r2_node_17 -->
<g id="edge5" class="edge">
<title>r2_node_8&#45;&gt;r2_node_17</title>
<path fill="none" stroke="black" d="M76.8,-215.7C82.17,-207.32 89.56,-197.1 96.88,-187.9"/>
<polygon fill="black" stroke="black" points="99.47,-190.26 103.12,-180.31 94.06,-185.81 99.47,-190.26"/>
</g>
<!-- r2_node_21 -->
<g id="node8" class="node">
<title>r2_node_21</title>
<ellipse fill="none" stroke="black" cx="126.87" cy="-306" rx="54.93" ry="18"/>
<text text-anchor="middle" x="126.87" y="-300.95" font-family="Times,serif" font-size="14.00">r2_node_21</text>
</g>
<!-- r2_node_8&#45;&gt;r2_node_21 -->
<g id="edge6" class="edge">
<title>r2_node_8&#45;&gt;r2_node_21</title>
<path fill="none" stroke="black" d="M88.51,-250.83C96.25,-259.15 104.99,-269.56 112.26,-279.02"/>
<polygon fill="black" stroke="black" points="109.28,-280.88 118.05,-286.84 114.91,-276.72 109.28,-280.88"/>
</g>
<!-- r2_node_12&#45;&gt;r2_node_8 -->
<g id="edge54" class="edge">
<title>r2_node_12&#45;&gt;r2_node_8</title>
<path fill="none" stroke="black" d="M195.52,-36.31C186.24,-55.78 164.95,-87.37 139.87,-108 111.93,-130.98 85.97,-113.28 66.87,-144 55.67,-162.01 59.76,-186 64.7,-204.53"/>
<polygon fill="black" stroke="black" points="61.31,-205.43 67.42,-214.08 68.04,-203.51 61.31,-205.43"/>
</g>
<!-- r2_node_17&#45;&gt;r2_node_8 -->
<g id="edge17" class="edge">
<title>r2_node_17&#45;&gt;r2_node_8</title>
<path fill="none" stroke="black" d="M115.04,-180.12C109.7,-188.5 102.29,-198.74 94.96,-207.98"/>
<polygon fill="black" stroke="black" points="92.34,-205.65 88.69,-215.6 97.74,-210.1 92.34,-205.65"/>
</g>
<!-- r2_node_20 -->
<g id="node17" class="node">
<title>r2_node_20</title>
<ellipse fill="none" stroke="black" cx="317.87" cy="-90" rx="54.93" ry="18"/>
<text text-anchor="middle" x="317.87" y="-84.95" font-family="Times,serif" font-size="14.00">r2_node_20</text>
</g>
<!-- r2_node_17&#45;&gt;r2_node_20 -->
<g id="edge18" class="edge">
<title>r2_node_17&#45;&gt;r2_node_20</title>
<path fill="none" stroke="black" d="M154.64,-147.34C185.75,-135.65 232.74,-118.84 268.38,-106.63"/>
<polygon fill="black" stroke="black" points="269.27,-110.02 277.61,-103.48 267.02,-103.39 269.27,-110.02"/>
</g>
<!-- r2_node_21&#45;&gt;r2_node_8 -->
<g id="edge8" class="edge">
<title>r2_node_21&#45;&gt;r2_node_8</title>
<path fill="none" stroke="black" d="M107.85,-288.76C100.29,-280.61 91.83,-270.53 84.73,-261.31"/>
<polygon fill="black" stroke="black" points="87.58,-259.28 78.81,-253.34 81.96,-263.46 87.58,-259.28"/>
</g>
<!-- r2_node_7 -->
<g id="node11" class="node">
<title>r2_node_7</title>
<ellipse fill="none" stroke="black" cx="455.87" cy="-90" rx="50.33" ry="18"/>
<text text-anchor="middle" x="455.87" y="-84.95" font-family="Times,serif" font-size="14.00">r2_node_7</text>
</g>
<!-- r2_node_21&#45;&gt;r2_node_7 -->
<g id="edge9" class="edge">
<title>r2_node_21&#45;&gt;r2_node_7</title>
<path fill="none" stroke="black" d="M129.69,-287.6C141.93,-254.29 181.79,-181.49 237.87,-144 244.67,-139.45 339.83,-116.35 402.25,-102.2"/>
<polygon fill="black" stroke="black" points="402.65,-105.69 411.63,-100.08 401.11,-98.86 402.65,-105.69"/>
</g>
<!-- r2_node_3 -->
<g id="node12" class="node">
<title>r2_node_3</title>
<ellipse fill="none" stroke="black" cx="103.87" cy="-378" rx="50.33" ry="18"/>
<text text-anchor="middle" x="103.87" y="-372.95" font-family="Times,serif" font-size="14.00">r2_node_3</text>
</g>
<!-- r2_node_21&#45;&gt;r2_node_3 -->
<g id="edge10" class="edge">
<title>r2_node_21&#45;&gt;r2_node_3</title>
<path fill="none" stroke="black" d="M127.1,-324.28C125.39,-331.86 122.64,-340.95 119.54,-349.43"/>
<polygon fill="black" stroke="black" points="116.31,-348.06 115.87,-358.65 122.82,-350.65 116.31,-348.06"/>
</g>
<!-- r2_node_16 -->
<g id="node9" class="node">
<title>r2_node_16</title>
<ellipse fill="none" stroke="black" cx="646.87" cy="-90" rx="54.93" ry="18"/>
<text text-anchor="middle" x="646.87" y="-84.95" font-family="Times,serif" font-size="14.00">r2_node_16</text>
</g>
<!-- r2_node_16&#45;&gt;r2_node_11 -->
<g id="edge7" class="edge">
<title>r2_node_16&#45;&gt;r2_node_11</title>
<path fill="none" stroke="black" d="M611.29,-104.05C592.86,-112.24 572.05,-124.95 560.87,-144 552.76,-157.8 559.19,-164.09 560.87,-180 567.65,-244.45 590.08,-259.49 583.87,-324 580.74,-356.45 591.69,-371.78 569.87,-396 533.16,-436.74 498.2,-402.68 451.87,-432 425.53,-448.67 402.39,-476.12 385.88,-496.14"/>
<polygon fill="black" stroke="black" points="383.4,-493.64 379.73,-503.58 388.8,-498.1 383.4,-493.64"/>
</g>
<!-- r2_node_11&#45;&gt;r2_node_4 -->
<g id="edge40" class="edge">
<title>r2_node_11&#45;&gt;r2_node_4</title>
<path fill="none" stroke="black" d="M359.07,-540.45C355.93,-548.36 351.38,-557.88 346.61,-566.63"/>
<polygon fill="black" stroke="black" points="343.7,-564.68 341.75,-575.1 349.77,-568.17 343.7,-564.68"/>
</g>
<!-- r2_node_11&#45;&gt;r2_node_16 -->
<g id="edge41" class="edge">
<title>r2_node_11&#45;&gt;r2_node_16</title>
<path fill="none" stroke="black" d="M366.82,-503.69C378.29,-483.62 404.03,-450.88 433.87,-432 480.2,-402.68 515.16,-436.74 551.87,-396 573.69,-371.78 562.74,-356.45 565.87,-324 572.08,-259.49 549.65,-244.45 542.87,-180 541.19,-164.09 534.76,-157.8 542.87,-144 553.52,-125.86 572.88,-113.47 592.1,-105.27"/>
<polygon fill="black" stroke="black" points="593.26,-108.57 601.3,-101.68 590.71,-102.05 593.26,-108.57"/>
</g>
<!-- r2_node_10 -->
<g id="node18" class="node">
<title>r2_node_10</title>
<ellipse fill="none" stroke="black" cx="615.87" cy="-162" rx="54.93" ry="18"/>
<text text-anchor="middle" x="615.87" y="-156.95" font-family="Times,serif" font-size="14.00">r2_node_10</text>
</g>
<!-- r2_node_11&#45;&gt;r2_node_10 -->
<g id="edge39" class="edge">
<title>r2_node_11&#45;&gt;r2_node_10</title>
<path fill="none" stroke="black" d="M380.06,-504.56C407.02,-485.32 458.54,-453.38 505.87,-432 551.98,-411.17 576.21,-429.79 613.87,-396 651.22,-362.48 671.09,-331.96 646.87,-288 632.4,-261.76 604.33,-278.24 589.87,-252 579.22,-232.68 585.34,-207.81 594.53,-189.28"/>
<polygon fill="black" stroke="black" points="597.46,-191.21 599.29,-180.77 591.36,-187.79 597.46,-191.21"/>
</g>
<!-- r2_node_28 -->
<g id="node26" class="node">
<title>r2_node_28</title>
<ellipse fill="none" stroke="black" cx="662.87" cy="-234" rx="54.93" ry="18"/>
<text text-anchor="middle" x="662.87" y="-228.95" font-family="Times,serif" font-size="14.00">r2_node_28</text>
</g>
<!-- r2_node_11&#45;&gt;r2_node_28 -->
<g id="edge38" class="edge">
<title>r2_node_11&#45;&gt;r2_node_28</title>
<path fill="none" stroke="black" d="M396.62,-507.71C474.09,-480.05 655,-417.12 675.87,-396 710.63,-360.8 720.9,-334.07 702.87,-288 698.77,-277.55 691.54,-267.92 684.26,-259.82"/>
<polygon fill="black" stroke="black" points="686.96,-257.58 677.53,-252.76 681.89,-262.41 686.96,-257.58"/>
</g>
<!-- r2_node_7&#45;&gt;r2_node_21 -->
<g id="edge35" class="edge">
<title>r2_node_7&#45;&gt;r2_node_21</title>
<path fill="none" stroke="black" d="M416.91,-101.59C360.58,-115.69 262.77,-139.38 255.87,-144 204.56,-178.3 166.83,-242.15 145.46,-278.28"/>
<polygon fill="black" stroke="black" points="142.49,-276.43 140.38,-286.81 148.5,-280.01 142.49,-276.43"/>
</g>
<!-- r2_node_3&#45;&gt;r2_node_21 -->
<g id="edge12" class="edge">
<title>r2_node_3&#45;&gt;r2_node_21</title>
<path fill="none" stroke="black" d="M103.64,-359.7C105.36,-352.04 108.15,-342.85 111.29,-334.3"/>
<polygon fill="black" stroke="black" points="114.54,-335.61 115,-325.03 108.04,-333.01 114.54,-335.61"/>
</g>
<!-- r2_node_5 -->
<g id="node13" class="node">
<title>r2_node_5</title>
<ellipse fill="none" stroke="black" cx="102.87" cy="-450" rx="50.33" ry="18"/>
<text text-anchor="middle" x="102.87" y="-444.95" font-family="Times,serif" font-size="14.00">r2_node_5</text>
</g>
<!-- r2_node_3&#45;&gt;r2_node_5 -->
<g id="edge11" class="edge">
<title>r2_node_3&#45;&gt;r2_node_5</title>
<path fill="none" stroke="black" d="M109.52,-396.1C110.17,-403.37 110.3,-412.04 109.93,-420.24"/>
<polygon fill="black" stroke="black" points="106.44,-419.94 109.15,-430.19 113.42,-420.49 106.44,-419.94"/>
</g>
<!-- r2_node_24 -->
<g id="node14" class="node">
<title>r2_node_24</title>
<ellipse fill="none" stroke="black" cx="254.87" cy="-306" rx="54.93" ry="18"/>
<text text-anchor="middle" x="254.87" y="-300.95" font-family="Times,serif" font-size="14.00">r2_node_24</text>
</g>
<!-- r2_node_3&#45;&gt;r2_node_24 -->
<g id="edge13" class="edge">
<title>r2_node_3&#45;&gt;r2_node_24</title>
<path fill="none" stroke="black" d="M129.91,-362.33C151.94,-351.47 183.83,-336.63 209.94,-325.05"/>
<polygon fill="black" stroke="black" points="211.23,-328.31 218.97,-321.08 208.41,-321.9 211.23,-328.31"/>
</g>
<!-- r2_node_5&#45;&gt;r2_node_3 -->
<g id="edge52" class="edge">
<title>r2_node_5&#45;&gt;r2_node_3</title>
<path fill="none" stroke="black" d="M97.2,-431.7C96.55,-424.41 96.43,-415.73 96.81,-407.54"/>
<polygon fill="black" stroke="black" points="100.3,-407.86 97.61,-397.61 93.32,-407.3 100.3,-407.86"/>
</g>
<!-- r2_node_5&#45;&gt;r2_node_6 -->
<g id="edge51" class="edge">
<title>r2_node_5&#45;&gt;r2_node_6</title>
<path fill="none" stroke="black" d="M107.54,-468.1C107.78,-475.45 107.41,-484.24 106.54,-492.53"/>
<polygon fill="black" stroke="black" points="103.11,-491.82 105.22,-502.2 110.04,-492.76 103.11,-491.82"/>
</g>
<!-- r2_node_14 -->
<g id="node27" class="node">
<title>r2_node_14</title>
<ellipse fill="none" stroke="black" cx="495.87" cy="-18" rx="54.93" ry="18"/>
<text text-anchor="middle" x="495.87" y="-12.95" font-family="Times,serif" font-size="14.00">r2_node_14</text>
</g>
<!-- r2_node_5&#45;&gt;r2_node_14 -->
<g id="edge53" class="edge">
<title>r2_node_5&#45;&gt;r2_node_14</title>
<path fill="none" stroke="black" d="M140.8,-437.76C189.89,-421.99 273.07,-387.81 309.87,-324 317.86,-310.14 314.35,-303.36 309.87,-288 304.54,-269.78 292.19,-270.22 286.87,-252 281.22,-232.66 280.67,-153.4 288.87,-144 353.11,-70.31 442.65,-182.57 505.87,-108 520.21,-91.08 513.1,-65.94 505.24,-46.69"/>
<polygon fill="black" stroke="black" points="508.47,-45.32 501.29,-37.53 502.04,-48.1 508.47,-45.32"/>
</g>
<!-- r2_node_24&#45;&gt;r2_node_3 -->
<g id="edge31" class="edge">
<title>r2_node_24&#45;&gt;r2_node_3</title>
<path fill="none" stroke="black" d="M228.02,-322.07C205.6,-333.09 173.36,-348.08 147.3,-359.61"/>
<polygon fill="black" stroke="black" points="146.06,-356.33 138.31,-363.55 148.88,-362.74 146.06,-356.33"/>
</g>
<!-- r2_node_6&#45;&gt;r2_node_18 -->
<g id="edge43" class="edge">
<title>r2_node_6&#45;&gt;r2_node_18</title>
<path fill="none" stroke="black" d="M122.65,-538.04C135.31,-547.12 150.54,-558.89 163.05,-569.21"/>
<polygon fill="black" stroke="black" points="160.55,-571.68 170.46,-575.44 165.05,-566.32 160.55,-571.68"/>
</g>
<!-- r2_node_6&#45;&gt;r2_node_5 -->
<g id="edge42" class="edge">
<title>r2_node_6&#45;&gt;r2_node_5</title>
<path fill="none" stroke="black" d="M93.19,-503.7C92.95,-496.32 93.34,-487.52 94.21,-479.25"/>
<polygon fill="black" stroke="black" points="97.64,-479.99 95.54,-469.6 90.71,-479.03 97.64,-479.99"/>
</g>
<!-- r2_node_19&#45;&gt;r2_node_18 -->
<g id="edge22" class="edge">
<title>r2_node_19&#45;&gt;r2_node_18</title>
<path fill="none" stroke="black" d="M219.82,-540.45C216.56,-548.36 211.88,-557.88 206.99,-566.63"/>
<polygon fill="black" stroke="black" points="204.06,-564.71 202.01,-575.11 210.09,-568.26 204.06,-564.71"/>
</g>
<!-- r2_node_29 -->
<g id="node20" class="node">
<title>r2_node_29</title>
<ellipse fill="none" stroke="black" cx="247.87" cy="-450" rx="54.93" ry="18"/>
<text text-anchor="middle" x="247.87" y="-444.95" font-family="Times,serif" font-size="14.00">r2_node_29</text>
</g>
<!-- r2_node_19&#45;&gt;r2_node_29 -->
<g id="edge23" class="edge">
<title>r2_node_19&#45;&gt;r2_node_29</title>
<path fill="none" stroke="black" d="M223.13,-503.7C225.1,-495.95 228.2,-486.64 231.63,-478.02"/>
<polygon fill="black" stroke="black" points="234.76,-479.58 235.49,-469.01 228.33,-476.82 234.76,-479.58"/>
</g>
<!-- r2_node_20&#45;&gt;r2_node_17 -->
<g id="edge20" class="edge">
<title>r2_node_20&#45;&gt;r2_node_17</title>
<path fill="none" stroke="black" d="M284.74,-104.8C253.65,-116.46 206.93,-133.18 171.43,-145.35"/>
<polygon fill="black" stroke="black" points="170.57,-141.94 162.23,-148.48 172.83,-148.57 170.57,-141.94"/>
</g>
<!-- r2_node_26 -->
<g id="node19" class="node">
<title>r2_node_26</title>
<ellipse fill="none" stroke="black" cx="326.87" cy="-18" rx="54.93" ry="18"/>
<text text-anchor="middle" x="326.87" y="-12.95" font-family="Times,serif" font-size="14.00">r2_node_26</text>
</g>
<!-- r2_node_20&#45;&gt;r2_node_26 -->
<g id="edge21" class="edge">
<title>r2_node_20&#45;&gt;r2_node_26</title>
<path fill="none" stroke="black" d="M314.18,-71.7C314.36,-64.32 315.25,-55.52 316.6,-47.25"/>
<polygon fill="black" stroke="black" points="320,-48.08 318.48,-37.59 313.13,-46.73 320,-48.08"/>
</g>
<!-- r2_node_10&#45;&gt;r2_node_11 -->
<g id="edge19" class="edge">
<title>r2_node_10&#45;&gt;r2_node_11</title>
<path fill="none" stroke="black" d="M612.67,-180.47C605.89,-199.24 595.41,-229.41 607.87,-252 622.33,-278.24 650.4,-261.76 664.87,-288 689.09,-331.96 669.22,-362.48 631.87,-396 594.21,-429.79 569.98,-411.17 523.87,-432 479.71,-451.95 431.9,-481.09 399.59,-500.53"/>
<polygon fill="black" stroke="black" points="398.15,-497.31 391.38,-505.45 401.75,-503.31 398.15,-497.31"/>
</g>
<!-- r2_node_26&#45;&gt;r2_node_20 -->
<g id="edge37" class="edge">
<title>r2_node_26&#45;&gt;r2_node_20</title>
<path fill="none" stroke="black" d="M330.56,-36.28C330.37,-43.69 329.47,-52.54 328.12,-60.86"/>
<polygon fill="black" stroke="black" points="324.7,-60.08 326.21,-70.57 331.57,-61.43 324.7,-60.08"/>
</g>
<!-- r2_node_29&#45;&gt;r2_node_19 -->
<g id="edge25" class="edge">
<title>r2_node_29&#45;&gt;r2_node_19</title>
<path fill="none" stroke="black" d="M247.61,-468.28C245.66,-475.94 242.6,-485.16 239.21,-493.72"/>
<polygon fill="black" stroke="black" points="236.1,-492.09 235.39,-502.66 242.54,-494.84 236.1,-492.09"/>
</g>
<!-- r2_node_30 -->
<g id="node21" class="node">
<title>r2_node_30</title>
<ellipse fill="none" stroke="black" cx="356.87" cy="-378" rx="54.93" ry="18"/>
<text text-anchor="middle" x="356.87" y="-372.95" font-family="Times,serif" font-size="14.00">r2_node_30</text>
</g>
<!-- r2_node_29&#45;&gt;r2_node_30 -->
<g id="edge24" class="edge">
<title>r2_node_29&#45;&gt;r2_node_30</title>
<path fill="none" stroke="black" d="M267.35,-432.76C281.59,-422.91 301.19,-410.23 318.48,-399.66"/>
<polygon fill="black" stroke="black" points="320.28,-402.66 327.03,-394.5 316.66,-396.67 320.28,-402.66"/>
</g>
<!-- r2_node_1 -->
<g id="node22" class="node">
<title>r2_node_1</title>
<ellipse fill="none" stroke="black" cx="501.87" cy="-378" rx="50.33" ry="18"/>
<text text-anchor="middle" x="501.87" y="-372.95" font-family="Times,serif" font-size="14.00">r2_node_1</text>
</g>
<!-- r2_node_29&#45;&gt;r2_node_1 -->
<g id="edge26" class="edge">
<title>r2_node_29&#45;&gt;r2_node_1</title>
<path fill="none" stroke="black" d="M286.57,-436.89C330.32,-424.29 401.55,-404.65 450.05,-391.8"/>
<polygon fill="black" stroke="black" points="450.71,-395.25 459.49,-389.32 448.93,-388.48 450.71,-395.25"/>
</g>
<!-- r2_node_30&#45;&gt;r2_node_29 -->
<g id="edge27" class="edge">
<title>r2_node_30&#45;&gt;r2_node_29</title>
<path fill="none" stroke="black" d="M337.55,-395.12C323.15,-405.09 303.21,-417.99 285.74,-428.66"/>
<polygon fill="black" stroke="black" points="284.39,-425.39 277.63,-433.54 288,-431.38 284.39,-425.39"/>
</g>
<!-- r2_node_22 -->
<g id="node23" class="node">
<title>r2_node_22</title>
<ellipse fill="none" stroke="black" cx="361.87" cy="-162" rx="54.93" ry="18"/>
<text text-anchor="middle" x="361.87" y="-156.95" font-family="Times,serif" font-size="14.00">r2_node_22</text>
</g>
<!-- r2_node_30&#45;&gt;r2_node_22 -->
<g id="edge28" class="edge">
<title>r2_node_30&#45;&gt;r2_node_22</title>
<path fill="none" stroke="black" d="M358.99,-359.67C364.77,-340.75 373.95,-310.2 360.87,-288 344.1,-259.55 312.63,-280.45 295.87,-252 287.74,-238.22 289.48,-230.67 295.87,-216 301.35,-203.42 311.45,-192.48 322.21,-183.86"/>
<polygon fill="black" stroke="black" points="324.1,-186.81 330.09,-178.07 319.96,-181.17 324.1,-186.81"/>
</g>
<!-- r2_node_2 -->
<g id="node24" class="node">
<title>r2_node_2</title>
<ellipse fill="none" stroke="black" cx="489.87" cy="-306" rx="50.33" ry="18"/>
<text text-anchor="middle" x="489.87" y="-300.95" font-family="Times,serif" font-size="14.00">r2_node_2</text>
</g>
<!-- r2_node_30&#45;&gt;r2_node_2 -->
<g id="edge29" class="edge">
<title>r2_node_30&#45;&gt;r2_node_2</title>
<path fill="none" stroke="black" d="M380.66,-361.46C399.62,-350.82 426.42,-336.67 448.78,-325.45"/>
<polygon fill="black" stroke="black" points="450.26,-328.62 457.67,-321.04 447.15,-322.35 450.26,-328.62"/>
</g>
<!-- r2_node_1&#45;&gt;r2_node_29 -->
<g id="edge50" class="edge">
<title>r2_node_1&#45;&gt;r2_node_29</title>
<path fill="none" stroke="black" d="M464.94,-390.6C422.02,-402.98 351.03,-422.57 301.93,-435.6"/>
<polygon fill="black" stroke="black" points="301.11,-432.2 292.34,-438.13 302.9,-438.96 301.11,-432.2"/>
</g>
<!-- r2_node_9 -->
<g id="node25" class="node">
<title>r2_node_9</title>
<ellipse fill="none" stroke="black" cx="363.87" cy="-234" rx="50.33" ry="18"/>
<text text-anchor="middle" x="363.87" y="-228.95" font-family="Times,serif" font-size="14.00">r2_node_9</text>
</g>
<!-- r2_node_1&#45;&gt;r2_node_9 -->
<g id="edge49" class="edge">
<title>r2_node_1&#45;&gt;r2_node_9</title>
<path fill="none" stroke="black" d="M515.14,-360.32C532.38,-341.71 557.33,-311.16 539.87,-288 537.81,-285.27 462.92,-264.41 411.41,-249.69"/>
<polygon fill="black" stroke="black" points="412.52,-246.37 401.94,-246.98 410.59,-253.1 412.52,-246.37"/>
</g>
<!-- r2_node_22&#45;&gt;r2_node_30 -->
<g id="edge36" class="edge">
<title>r2_node_22&#45;&gt;r2_node_30</title>
<path fill="none" stroke="black" d="M344.25,-179.39C333.27,-188.56 320.34,-201.13 313.87,-216 307.48,-230.67 305.74,-238.22 313.87,-252 330.63,-280.45 362.1,-259.55 378.87,-288 389.93,-306.78 385.06,-331.54 376.89,-350.18"/>
<polygon fill="black" stroke="black" points="373.82,-348.49 372.47,-359 380.08,-351.63 373.82,-348.49"/>
</g>
<!-- r2_node_2&#45;&gt;r2_node_30 -->
<g id="edge30" class="edge">
<title>r2_node_2&#45;&gt;r2_node_30</title>
<path fill="none" stroke="black" d="M466.69,-322.19C448.06,-332.66 421.59,-346.67 399.24,-357.9"/>
<polygon fill="black" stroke="black" points="397.74,-354.74 390.34,-362.33 400.85,-361.01 397.74,-354.74"/>
</g>
<!-- r2_node_9&#45;&gt;r2_node_1 -->
<g id="edge32" class="edge">
<title>r2_node_9&#45;&gt;r2_node_1</title>
<path fill="none" stroke="black" d="M405.11,-244.61C461.51,-259.04 555.56,-284.94 557.87,-288 573.6,-308.88 554.89,-335.75 534.82,-354.48"/>
<polygon fill="black" stroke="black" points="532.61,-351.77 527.38,-360.98 537.21,-357.04 532.61,-351.77"/>
</g>
<!-- r2_node_28&#45;&gt;r2_node_11 -->
<g id="edge33" class="edge">
<title>r2_node_28&#45;&gt;r2_node_11</title>
<path fill="none" stroke="black" d="M690.3,-249.85C702.39,-259.4 714.93,-272.83 720.87,-288 738.9,-334.07 728.63,-360.8 693.87,-396 673.48,-416.64 500.25,-477.2 412.37,-505.76"/>
<polygon fill="black" stroke="black" points="411.46,-502.38 403.02,-508.78 413.61,-509.04 411.46,-502.38"/>
</g>
<!-- r2_node_14&#45;&gt;r2_node_5 -->
<g id="edge34" class="edge">
<title>r2_node_14&#45;&gt;r2_node_5</title>
<path fill="none" stroke="black" d="M513.1,-35.45C527.16,-54.99 541.23,-87.51 523.87,-108 460.65,-182.57 371.11,-70.31 306.87,-144 298.67,-153.4 299.22,-232.66 304.87,-252 310.19,-270.22 322.54,-269.78 327.87,-288 332.35,-303.36 335.86,-310.14 327.87,-324 291.72,-386.68 210.82,-420.77 156.43,-436.91"/>
<polygon fill="black" stroke="black" points="155.71,-433.47 147.05,-439.57 157.63,-440.21 155.71,-433.47"/>
</g>
<!-- r2_node_15&#45;&gt;r2_node_4 -->
<g id="edge48" class="edge">
<title>r2_node_15&#45;&gt;r2_node_4</title>
<path fill="none" stroke="black" d="M694.27,-34.41C704.06,-44.35 714.25,-58.01 719.87,-72 773.53,-205.72 818.96,-281.99 730.87,-396 642.77,-510.01 471.03,-562.81 382.45,-582.82"/>
<polygon fill="black" stroke="black" points="381.79,-579.38 372.77,-584.94 383.29,-586.22 381.79,-579.38"/>
</g>
</g>
</svg>
