<?xml version="1.0" encoding="UTF-8" standalone="no"?>
<!DOCTYPE svg PUBLIC "-//W3C//DTD SVG 1.1//EN"
 "http://www.w3.org/Graphics/SVG/1.1/DTD/svg11.dtd">
<!-- Generated by graphviz version 12.2.1 (20241206.2353)
 -->
<!-- Pages: 1 -->
<svg width="1027pt" height="476pt"
 viewBox="0.00 0.00 1026.70 476.00" xmlns="http://www.w3.org/2000/svg" xmlns:xlink="http://www.w3.org/1999/xlink">
<g id="graph0" class="graph" transform="scale(1 1) rotate(0) translate(4 472)">
<polygon fill="white" stroke="none" points="-4,4 -4,-472 1022.7,-472 1022.7,4 -4,4"/>
<!-- r1_node_9 -->
<g id="node1" class="node">
<title>r1_node_9</title>
<ellipse fill="none" stroke="black" cx="50.33" cy="-450" rx="50.33" ry="18"/>
<text text-anchor="middle" x="50.33" y="-444.95" font-family="Times,serif" font-size="14.00">r1_node_9</text>
</g>
<!-- r1_node_8 -->
<g id="node2" class="node">
<title>r1_node_8</title>
<ellipse fill="none" stroke="black" cx="169.33" cy="-378" rx="50.33" ry="18"/>
<text text-anchor="middle" x="169.33" y="-372.95" font-family="Times,serif" font-size="14.00">r1_node_8</text>
</g>
<!-- r1_node_9&#45;&gt;r1_node_8 -->
<g id="edge1" class="edge">
<title>r1_node_9&#45;&gt;r1_node_8</title>
<path fill="none" stroke="black" d="M71.29,-433.29C87.6,-422.99 110.48,-409.46 130.1,-398.47"/>
<polygon fill="black" stroke="black" points="131.63,-401.63 138.68,-393.73 128.24,-395.5 131.63,-401.63"/>
</g>
<!-- r1_node_7 -->
<g id="node3" class="node">
<title>r1_node_7</title>
<ellipse fill="none" stroke="black" cx="150.33" cy="-306" rx="50.33" ry="18"/>
<text text-anchor="middle" x="150.33" y="-300.95" font-family="Times,serif" font-size="14.00">r1_node_7</text>
</g>
<!-- r1_node_9&#45;&gt;r1_node_7 -->
<g id="edge2" class="edge">
<title>r1_node_9&#45;&gt;r1_node_7</title>
<path fill="none" stroke="black" d="M54.84,-431.75C64.42,-413.69 83.79,-384.57 101.33,-360 108.09,-350.53 115.73,-340.29 123.07,-331.35"/>
<polygon fill="black" stroke="black" points="125.73,-333.63 129.57,-323.76 120.41,-329.08 125.73,-333.63"/>
</g>
<!-- r1_node_13 -->
<g id="node4" class="node">
<title>r1_node_13</title>
<ellipse fill="none" stroke="black" cx="803.33" cy="-306" rx="54.93" ry="18"/>
<text text-anchor="middle" x="803.33" y="-300.95" font-family="Times,serif" font-size="14.00">r1_node_13</text>
</g>
<!-- r1_node_9&#45;&gt;r1_node_13 -->
<g id="edge3" class="edge">
<title>r1_node_9&#45;&gt;r1_node_13</title>
<path fill="none" stroke="black" d="M96.43,-442.35C119.51,-439.09 147.87,-435.19 173.33,-432 315.34,-414.2 352.94,-423.84 493.33,-396 543.41,-386.07 679.48,-345.11 753.6,-322.38"/>
<polygon fill="black" stroke="black" points="754.52,-325.76 763.05,-319.48 752.47,-319.07 754.52,-325.76"/>
</g>
<!-- r1_node_14 -->
<g id="node5" class="node">
<title>r1_node_14</title>
<ellipse fill="none" stroke="black" cx="331.33" cy="-18" rx="54.93" ry="18"/>
<text text-anchor="middle" x="331.33" y="-12.95" font-family="Times,serif" font-size="14.00">r1_node_14</text>
</g>
<!-- r1_node_9&#45;&gt;r1_node_14 -->
<g id="edge4" class="edge">
<title>r1_node_9&#45;&gt;r1_node_14</title>
<path fill="none" stroke="black" d="M95.14,-441.34C150.68,-431.33 241.64,-413.04 271.33,-396 386.65,-329.81 428.75,-303.38 478.33,-180 484.29,-165.15 487.32,-157.23 478.33,-144 453.88,-108.03 420.79,-135.78 387.33,-108 367.39,-91.45 352.35,-65.89 342.9,-46.4"/>
<polygon fill="black" stroke="black" points="346.11,-45.01 338.74,-37.4 339.76,-47.94 346.11,-45.01"/>
</g>
<!-- r1_node_20 -->
<g id="node6" class="node">
<title>r1_node_20</title>
<ellipse fill="none" stroke="black" cx="201.33" cy="-18" rx="54.93" ry="18"/>
<text text-anchor="middle" x="201.33" y="-12.95" font-family="Times,serif" font-size="14.00">r1_node_20</text>
</g>
<!-- r1_node_9&#45;&gt;r1_node_20 -->
<g id="edge5" class="edge">
<title>r1_node_9&#45;&gt;r1_node_20</title>
<path fill="none" stroke="black" d="M52.08,-431.74C58.3,-376.25 82.9,-198.59 153.33,-72 159.06,-61.69 167.15,-51.74 175.06,-43.29"/>
<polygon fill="black" stroke="black" points="177.55,-45.75 182.06,-36.17 172.56,-40.84 177.55,-45.75"/>
</g>
<!-- r1_node_4 -->
<g id="node7" class="node">
<title>r1_node_4</title>
<ellipse fill="none" stroke="black" cx="213.33" cy="-234" rx="50.33" ry="18"/>
<text text-anchor="middle" x="213.33" y="-228.95" font-family="Times,serif" font-size="14.00">r1_node_4</text>
</g>
<!-- r1_node_9&#45;&gt;r1_node_4 -->
<g id="edge6" class="edge">
<title>r1_node_9&#45;&gt;r1_node_4</title>
<path fill="none" stroke="black" d="M96.34,-442.49C132.49,-435.78 182.51,-422.39 219.33,-396 262.47,-365.07 293.28,-335.86 270.33,-288 264.43,-275.7 254.13,-265.35 243.83,-257.16"/>
<polygon fill="black" stroke="black" points="246.22,-254.57 236.1,-251.42 242.05,-260.19 246.22,-254.57"/>
</g>
<!-- r1_node_8&#45;&gt;r1_node_9 -->
<g id="edge38" class="edge">
<title>r1_node_8&#45;&gt;r1_node_9</title>
<path fill="none" stroke="black" d="M148.41,-394.68C132.11,-404.98 109.2,-418.53 89.57,-429.52"/>
<polygon fill="black" stroke="black" points="88.03,-426.37 80.97,-434.27 91.42,-432.49 88.03,-426.37"/>
</g>
<!-- r1_node_8&#45;&gt;r1_node_7 -->
<g id="edge36" class="edge">
<title>r1_node_8&#45;&gt;r1_node_7</title>
<path fill="none" stroke="black" d="M158.85,-360.05C156.07,-352.68 153.41,-343.84 151.42,-335.51"/>
<polygon fill="black" stroke="black" points="154.86,-334.84 149.41,-325.76 148,-336.26 154.86,-334.84"/>
</g>
<!-- r1_node_8&#45;&gt;r1_node_20 -->
<g id="edge35" class="edge">
<title>r1_node_8&#45;&gt;r1_node_20</title>
<path fill="none" stroke="black" d="M185.94,-360.58C202.16,-342.45 222.62,-312.59 209.33,-288 195.43,-262.3 168.22,-277.7 154.33,-252 117.63,-184.11 159.63,-91.07 184.93,-45.86"/>
<polygon fill="black" stroke="black" points="187.93,-47.66 189.89,-37.25 181.86,-44.17 187.93,-47.66"/>
</g>
<!-- r1_node_8&#45;&gt;r1_node_4 -->
<g id="edge37" class="edge">
<title>r1_node_8&#45;&gt;r1_node_4</title>
<path fill="none" stroke="black" d="M199.58,-363.26C216.21,-354.82 235.29,-342.1 245.33,-324 256.86,-303.23 243.6,-278.63 230.64,-260.57"/>
<polygon fill="black" stroke="black" points="233.74,-258.86 224.93,-252.98 228.15,-263.07 233.74,-258.86"/>
</g>
<!-- r1_node_17 -->
<g id="node14" class="node">
<title>r1_node_17</title>
<ellipse fill="none" stroke="black" cx="414.33" cy="-162" rx="54.93" ry="18"/>
<text text-anchor="middle" x="414.33" y="-156.95" font-family="Times,serif" font-size="14.00">r1_node_17</text>
</g>
<!-- r1_node_8&#45;&gt;r1_node_17 -->
<g id="edge40" class="edge">
<title>r1_node_8&#45;&gt;r1_node_17</title>
<path fill="none" stroke="black" d="M209.95,-367.08C237.53,-358.87 273.68,-345.09 300.33,-324 347.3,-286.82 383.3,-225.29 401.4,-190.04"/>
<polygon fill="black" stroke="black" points="404.4,-191.86 405.75,-181.35 398.14,-188.72 404.4,-191.86"/>
</g>
<!-- r1_node_11 -->
<g id="node16" class="node">
<title>r1_node_11</title>
<ellipse fill="none" stroke="black" cx="279.33" cy="-162" rx="54.93" ry="18"/>
<text text-anchor="middle" x="279.33" y="-156.95" font-family="Times,serif" font-size="14.00">r1_node_11</text>
</g>
<!-- r1_node_8&#45;&gt;r1_node_11 -->
<g id="edge39" class="edge">
<title>r1_node_8&#45;&gt;r1_node_11</title>
<path fill="none" stroke="black" d="M212.11,-368.17C236.31,-360.74 264.61,-347.43 279.33,-324 304.73,-283.56 296.23,-225.39 287.76,-191.16"/>
<polygon fill="black" stroke="black" points="291.16,-190.35 285.21,-181.59 284.4,-192.15 291.16,-190.35"/>
</g>
<!-- r1_node_7&#45;&gt;r1_node_9 -->
<g id="edge47" class="edge">
<title>r1_node_7&#45;&gt;r1_node_9</title>
<path fill="none" stroke="black" d="M144.94,-324.01C138.21,-334.32 128.03,-347.8 119.33,-360 104.12,-381.31 87.53,-406.04 74.17,-424.01"/>
<polygon fill="black" stroke="black" points="71.71,-421.47 68.42,-431.54 77.27,-425.72 71.71,-421.47"/>
</g>
<!-- r1_node_7&#45;&gt;r1_node_8 -->
<g id="edge46" class="edge">
<title>r1_node_7&#45;&gt;r1_node_8</title>
<path fill="none" stroke="black" d="M160.68,-323.62C163.53,-331.1 166.25,-340.14 168.27,-348.64"/>
<polygon fill="black" stroke="black" points="164.8,-349.13 170.24,-358.21 171.65,-347.71 164.8,-349.13"/>
</g>
<!-- r1_node_7&#45;&gt;r1_node_4 -->
<g id="edge49" class="edge">
<title>r1_node_7&#45;&gt;r1_node_4</title>
<path fill="none" stroke="black" d="M159.7,-288.05C166.66,-279.29 176.23,-268.45 185.42,-258.86"/>
<polygon fill="black" stroke="black" points="187.74,-261.49 192.26,-251.91 182.75,-256.58 187.74,-261.49"/>
</g>
<!-- r1_node_18 -->
<g id="node19" class="node">
<title>r1_node_18</title>
<ellipse fill="none" stroke="black" cx="70.33" cy="-18" rx="54.93" ry="18"/>
<text text-anchor="middle" x="70.33" y="-12.95" font-family="Times,serif" font-size="14.00">r1_node_18</text>
</g>
<!-- r1_node_7&#45;&gt;r1_node_18 -->
<g id="edge48" class="edge">
<title>r1_node_7&#45;&gt;r1_node_18</title>
<path fill="none" stroke="black" d="M138.51,-288.05C131.99,-277.98 124.24,-264.73 119.33,-252 92.06,-181.32 78.72,-92.43 73.34,-47.62"/>
<polygon fill="black" stroke="black" points="76.82,-47.24 72.2,-37.71 69.87,-48.04 76.82,-47.24"/>
</g>
<!-- r1_node_4&#45;&gt;r1_node_9 -->
<g id="edge17" class="edge">
<title>r1_node_4&#45;&gt;r1_node_9</title>
<path fill="none" stroke="black" d="M246.64,-247.95C262.66,-256.96 279.94,-270.51 288.33,-288 311.28,-335.86 280.47,-365.07 237.33,-396 200,-422.76 149.1,-436.15 109.75,-442.76"/>
<polygon fill="black" stroke="black" points="109.29,-439.29 99.95,-444.29 110.37,-446.21 109.29,-439.29"/>
</g>
<!-- r1_node_4&#45;&gt;r1_node_8 -->
<g id="edge16" class="edge">
<title>r1_node_4&#45;&gt;r1_node_8</title>
<path fill="none" stroke="black" d="M235.9,-250.46C255.2,-268.49 277.2,-299.01 263.33,-324 253.8,-341.16 236.16,-353.49 218.63,-361.91"/>
<polygon fill="black" stroke="black" points="217.51,-358.58 209.78,-365.82 220.34,-364.99 217.51,-358.58"/>
</g>
<!-- r1_node_4&#45;&gt;r1_node_7 -->
<g id="edge15" class="edge">
<title>r1_node_4&#45;&gt;r1_node_7</title>
<path fill="none" stroke="black" d="M204.07,-251.8C197.13,-260.56 187.53,-271.43 178.31,-281.06"/>
<polygon fill="black" stroke="black" points="175.97,-278.46 171.45,-288.04 180.96,-283.37 175.97,-278.46"/>
</g>
<!-- r1_node_19 -->
<g id="node8" class="node">
<title>r1_node_19</title>
<ellipse fill="none" stroke="black" cx="829.33" cy="-162" rx="54.93" ry="18"/>
<text text-anchor="middle" x="829.33" y="-156.95" font-family="Times,serif" font-size="14.00">r1_node_19</text>
</g>
<!-- r1_node_4&#45;&gt;r1_node_19 -->
<g id="edge13" class="edge">
<title>r1_node_4&#45;&gt;r1_node_19</title>
<path fill="none" stroke="black" d="M263.18,-230.95C360.43,-226.36 581.97,-212.93 765.33,-180 769.6,-179.23 774,-178.32 778.4,-177.33"/>
<polygon fill="black" stroke="black" points="778.89,-180.81 787.8,-175.07 777.26,-174 778.89,-180.81"/>
</g>
<!-- r1_node_4&#45;&gt;r1_node_11 -->
<g id="edge12" class="edge">
<title>r1_node_4&#45;&gt;r1_node_11</title>
<path fill="none" stroke="black" d="M228.97,-216.41C237.02,-207.87 247.01,-197.28 255.96,-187.79"/>
<polygon fill="black" stroke="black" points="258.45,-190.25 262.76,-180.57 253.35,-185.45 258.45,-190.25"/>
</g>
<!-- r1_node_3 -->
<g id="node17" class="node">
<title>r1_node_3</title>
<ellipse fill="none" stroke="black" cx="238.33" cy="-90" rx="50.33" ry="18"/>
<text text-anchor="middle" x="238.33" y="-84.95" font-family="Times,serif" font-size="14.00">r1_node_3</text>
</g>
<!-- r1_node_4&#45;&gt;r1_node_3 -->
<g id="edge14" class="edge">
<title>r1_node_4&#45;&gt;r1_node_3</title>
<path fill="none" stroke="black" d="M205.11,-216.04C201.59,-197.96 200.93,-168.61 206.33,-144 208.32,-134.91 211.89,-125.44 216.07,-117.07"/>
<polygon fill="black" stroke="black" points="219.04,-118.91 220.86,-108.48 212.93,-115.5 219.04,-118.91"/>
</g>
<!-- r1_node_16 -->
<g id="node9" class="node">
<title>r1_node_16</title>
<ellipse fill="none" stroke="black" cx="472.33" cy="-18" rx="54.93" ry="18"/>
<text text-anchor="middle" x="472.33" y="-12.95" font-family="Times,serif" font-size="14.00">r1_node_16</text>
</g>
<!-- r1_node_15 -->
<g id="node10" class="node">
<title>r1_node_15</title>
<ellipse fill="none" stroke="black" cx="701.33" cy="-162" rx="54.93" ry="18"/>
<text text-anchor="middle" x="701.33" y="-156.95" font-family="Times,serif" font-size="14.00">r1_node_15</text>
</g>
<!-- r1_node_1 -->
<g id="node11" class="node">
<title>r1_node_1</title>
<ellipse fill="none" stroke="black" cx="954.33" cy="-378" rx="50.33" ry="18"/>
<text text-anchor="middle" x="954.33" y="-372.95" font-family="Times,serif" font-size="14.00">r1_node_1</text>
</g>
<!-- r1_node_1&#45;&gt;r1_node_16 -->
<g id="edge7" class="edge">
<title>r1_node_1&#45;&gt;r1_node_16</title>
<path fill="none" stroke="black" d="M979.77,-362.01C992.71,-352.84 1007.19,-339.84 1014.33,-324 1020.9,-309.41 1018.66,-303.4 1014.33,-288 994.01,-215.8 986.24,-189.12 926.33,-144 808.94,-55.6 632.57,-29.71 537.92,-22.13"/>
<polygon fill="black" stroke="black" points="538.26,-18.65 528.02,-21.39 537.73,-25.63 538.26,-18.65"/>
</g>
<!-- r1_node_12 -->
<g id="node12" class="node">
<title>r1_node_12</title>
<ellipse fill="none" stroke="black" cx="637.33" cy="-306" rx="54.93" ry="18"/>
<text text-anchor="middle" x="637.33" y="-300.95" font-family="Times,serif" font-size="14.00">r1_node_12</text>
</g>
<!-- r1_node_12&#45;&gt;r1_node_15 -->
<g id="edge11" class="edge">
<title>r1_node_12&#45;&gt;r1_node_15</title>
<path fill="none" stroke="black" d="M640.29,-287.6C643.85,-269.16 650.85,-239.51 662.33,-216 666.99,-206.45 673.41,-196.85 679.7,-188.49"/>
<polygon fill="black" stroke="black" points="682.28,-190.86 685.7,-180.83 676.78,-186.54 682.28,-190.86"/>
</g>
<!-- r1_node_2 -->
<g id="node13" class="node">
<title>r1_node_2</title>
<ellipse fill="none" stroke="black" cx="560.33" cy="-234" rx="50.33" ry="18"/>
<text text-anchor="middle" x="560.33" y="-228.95" font-family="Times,serif" font-size="14.00">r1_node_2</text>
</g>
<!-- r1_node_12&#45;&gt;r1_node_2 -->
<g id="edge8" class="edge">
<title>r1_node_12&#45;&gt;r1_node_2</title>
<path fill="none" stroke="black" d="M614.52,-289.46C603.78,-280.65 591.19,-269.43 580.77,-259.46"/>
<polygon fill="black" stroke="black" points="583.29,-257.03 573.7,-252.53 578.38,-262.03 583.29,-257.03"/>
</g>
<!-- r1_node_12&#45;&gt;r1_node_17 -->
<g id="edge9" class="edge">
<title>r1_node_12&#45;&gt;r1_node_17</title>
<path fill="none" stroke="black" d="M595.87,-293.89C567.74,-285.18 530.5,-271.29 501.33,-252 475.03,-234.61 450.45,-208.14 434.17,-188.58"/>
<polygon fill="black" stroke="black" points="437.07,-186.6 428.04,-181.05 431.64,-191.01 437.07,-186.6"/>
</g>
<!-- r1_node_6 -->
<g id="node15" class="node">
<title>r1_node_6</title>
<ellipse fill="none" stroke="black" cx="434.33" cy="-378" rx="50.33" ry="18"/>
<text text-anchor="middle" x="434.33" y="-372.95" font-family="Times,serif" font-size="14.00">r1_node_6</text>
</g>
<!-- r1_node_12&#45;&gt;r1_node_6 -->
<g id="edge10" class="edge">
<title>r1_node_12&#45;&gt;r1_node_6</title>
<path fill="none" stroke="black" d="M603.65,-320.5C570.59,-332.47 520.02,-349.93 482.7,-362.26"/>
<polygon fill="black" stroke="black" points="481.91,-358.84 473.5,-365.28 484.09,-365.49 481.91,-358.84"/>
</g>
<!-- r1_node_2&#45;&gt;r1_node_14 -->
<g id="edge42" class="edge">
<title>r1_node_2&#45;&gt;r1_node_14</title>
<path fill="none" stroke="black" d="M564.65,-215.64C568.41,-196.12 571.08,-164.49 555.33,-144 523.98,-103.22 490.73,-132.19 445.33,-108 412.02,-90.25 378.53,-62.67 356.55,-42.92"/>
<polygon fill="black" stroke="black" points="359.01,-40.42 349.27,-36.26 354.29,-45.59 359.01,-40.42"/>
</g>
<!-- r1_node_2&#45;&gt;r1_node_20 -->
<g id="edge41" class="edge">
<title>r1_node_2&#45;&gt;r1_node_20</title>
<path fill="none" stroke="black" d="M548.5,-216.11C533.96,-196.44 507.6,-164.09 478.33,-144 442.47,-119.39 427.19,-125.4 387.33,-108 335.89,-85.55 277.71,-57.22 240.32,-38.63"/>
<polygon fill="black" stroke="black" points="242.22,-35.67 231.71,-34.34 239.09,-41.93 242.22,-35.67"/>
</g>
<!-- r1_node_2&#45;&gt;r1_node_16 -->
<g id="edge44" class="edge">
<title>r1_node_2&#45;&gt;r1_node_16</title>
<path fill="none" stroke="black" d="M575.63,-216.48C591.35,-197.46 611.3,-166 594.33,-144 555.88,-94.15 495.77,-157.85 457.33,-108 443.89,-90.57 449.71,-65.48 457.7,-46.38"/>
<polygon fill="black" stroke="black" points="460.88,-47.85 461.9,-37.3 454.52,-44.91 460.88,-47.85"/>
</g>
<!-- r1_node_2&#45;&gt;r1_node_15 -->
<g id="edge43" class="edge">
<title>r1_node_2&#45;&gt;r1_node_15</title>
<path fill="none" stroke="black" d="M588.86,-218.83C609.8,-208.44 638.49,-194.19 661.66,-182.69"/>
<polygon fill="black" stroke="black" points="663.11,-185.88 670.51,-178.3 660,-179.61 663.11,-185.88"/>
</g>
<!-- r1_node_2&#45;&gt;r1_node_12 -->
<g id="edge45" class="edge">
<title>r1_node_2&#45;&gt;r1_node_12</title>
<path fill="none" stroke="black" d="M582.92,-250.36C593.54,-259.06 606.01,-270.16 616.41,-280.08"/>
<polygon fill="black" stroke="black" points="613.89,-282.51 623.48,-287 618.78,-277.5 613.89,-282.51"/>
</g>
<!-- r1_node_6&#45;&gt;r1_node_13 -->
<g id="edge29" class="edge">
<title>r1_node_6&#45;&gt;r1_node_13</title>
<path fill="none" stroke="black" d="M480,-369.9C538.97,-360.52 644.68,-342.94 734.33,-324 739.49,-322.91 744.85,-321.71 750.2,-320.47"/>
<polygon fill="black" stroke="black" points="750.71,-323.94 759.63,-318.23 749.09,-317.13 750.71,-323.94"/>
</g>
<!-- r1_node_6&#45;&gt;r1_node_15 -->
<g id="edge31" class="edge">
<title>r1_node_6&#45;&gt;r1_node_15</title>
<path fill="none" stroke="black" d="M470.53,-365.07C476.76,-363.23 483.2,-361.46 489.33,-360 535.81,-348.92 670.5,-360.51 701.33,-324 717.62,-304.7 710.91,-232.41 705.55,-191.56"/>
<polygon fill="black" stroke="black" points="709.03,-191.16 704.2,-181.73 702.1,-192.11 709.03,-191.16"/>
</g>
<!-- r1_node_6&#45;&gt;r1_node_12 -->
<g id="edge30" class="edge">
<title>r1_node_6&#45;&gt;r1_node_12</title>
<path fill="none" stroke="black" d="M466.65,-364C499.07,-352.23 549.27,-334.88 586.9,-322.42"/>
<polygon fill="black" stroke="black" points="587.81,-325.81 596.21,-319.36 585.62,-319.16 587.81,-325.81"/>
</g>
<!-- r1_node_6&#45;&gt;r1_node_11 -->
<g id="edge28" class="edge">
<title>r1_node_6&#45;&gt;r1_node_11</title>
<path fill="none" stroke="black" d="M458.94,-361.82C471.46,-352.6 485.45,-339.6 492.33,-324 498.78,-309.36 499.94,-302.07 492.33,-288 474.22,-254.51 378.77,-207.35 321.97,-181.59"/>
<polygon fill="black" stroke="black" points="323.44,-178.41 312.88,-177.5 320.57,-184.79 323.44,-178.41"/>
</g>
<!-- r1_node_5 -->
<g id="node18" class="node">
<title>r1_node_5</title>
<ellipse fill="none" stroke="black" cx="232.33" cy="-450" rx="50.33" ry="18"/>
<text text-anchor="middle" x="232.33" y="-444.95" font-family="Times,serif" font-size="14.00">r1_node_5</text>
</g>
<!-- r1_node_6&#45;&gt;r1_node_5 -->
<g id="edge27" class="edge">
<title>r1_node_6&#45;&gt;r1_node_5</title>
<path fill="none" stroke="black" d="M401.85,-392.13C369.03,-404.1 318.11,-421.77 280.59,-434.23"/>
<polygon fill="black" stroke="black" points="279.73,-430.82 271.33,-437.28 281.93,-437.47 279.73,-430.82"/>
</g>
<!-- r1_node_3&#45;&gt;r1_node_14 -->
<g id="edge24" class="edge">
<title>r1_node_3&#45;&gt;r1_node_14</title>
<path fill="none" stroke="black" d="M258.97,-73.46C271.32,-64.17 287.23,-52.19 300.99,-41.83"/>
<polygon fill="black" stroke="black" points="303.01,-44.7 308.89,-35.89 298.8,-39.1 303.01,-44.7"/>
</g>
<!-- r1_node_3&#45;&gt;r1_node_20 -->
<g id="edge22" class="edge">
<title>r1_node_3&#45;&gt;r1_node_20</title>
<path fill="none" stroke="black" d="M229.37,-72.05C225.19,-64.14 220.11,-54.54 215.43,-45.69"/>
<polygon fill="black" stroke="black" points="218.68,-44.33 210.91,-37.13 212.49,-47.6 218.68,-44.33"/>
</g>
<!-- r1_node_3&#45;&gt;r1_node_4 -->
<g id="edge23" class="edge">
<title>r1_node_3&#45;&gt;r1_node_4</title>
<path fill="none" stroke="black" d="M236.77,-108.09C232.83,-118.21 227.08,-131.46 224.33,-144 219.99,-163.77 219.57,-186.62 218.98,-204.21"/>
<polygon fill="black" stroke="black" points="215.49,-204.05 218.55,-214.19 222.48,-204.35 215.49,-204.05"/>
</g>
<!-- r1_node_3&#45;&gt;r1_node_16 -->
<g id="edge25" class="edge">
<title>r1_node_3&#45;&gt;r1_node_16</title>
<path fill="none" stroke="black" d="M276.18,-77.68C315.81,-65.82 378.23,-47.15 421.99,-34.06"/>
<polygon fill="black" stroke="black" points="422.94,-37.43 431.51,-31.21 420.93,-30.72 422.94,-37.43"/>
</g>
<!-- r1_node_3&#45;&gt;r1_node_18 -->
<g id="edge26" class="edge">
<title>r1_node_3&#45;&gt;r1_node_18</title>
<path fill="none" stroke="black" d="M206.33,-75.67C180.05,-64.72 142.56,-49.1 113.6,-37.03"/>
<polygon fill="black" stroke="black" points="115.33,-33.96 104.75,-33.34 112.63,-40.42 115.33,-33.96"/>
</g>
<!-- r1_node_5&#45;&gt;r1_node_19 -->
<g id="edge20" class="edge">
<title>r1_node_5&#45;&gt;r1_node_19</title>
<path fill="none" stroke="black" d="M279.95,-443.92C386.97,-432.42 640.13,-404.71 678.33,-396 684.34,-394.63 884.74,-329.02 888.33,-324 897.63,-310.98 895.1,-302.5 888.33,-288 877.78,-265.42 857.84,-273.56 845.33,-252 834.71,-233.71 830.84,-210.02 829.55,-191.69"/>
<polygon fill="black" stroke="black" points="833.05,-191.59 829.1,-181.76 826.06,-191.91 833.05,-191.59"/>
</g>
<!-- r1_node_5&#45;&gt;r1_node_15 -->
<g id="edge19" class="edge">
<title>r1_node_5&#45;&gt;r1_node_15</title>
<path fill="none" stroke="black" d="M279.16,-443.02C345.09,-434.31 468.9,-416.86 573.33,-396 606.31,-389.41 846.57,-350.46 867.33,-324 924.08,-251.68 786.48,-266.23 767.33,-252 745.21,-235.56 727.18,-209.65 715.59,-190.02"/>
<polygon fill="black" stroke="black" points="718.7,-188.42 710.72,-181.45 712.61,-191.87 718.7,-188.42"/>
</g>
<!-- r1_node_5&#45;&gt;r1_node_6 -->
<g id="edge21" class="edge">
<title>r1_node_5&#45;&gt;r1_node_6</title>
<path fill="none" stroke="black" d="M264.91,-435.83C297.74,-423.87 348.56,-406.23 386.04,-393.78"/>
<polygon fill="black" stroke="black" points="386.88,-397.19 395.28,-390.73 384.69,-390.54 386.88,-397.19"/>
</g>
<!-- r1_node_5&#45;&gt;r1_node_11 -->
<g id="edge18" class="edge">
<title>r1_node_5&#45;&gt;r1_node_11</title>
<path fill="none" stroke="black" d="M246.11,-432.55C254.15,-422.44 264.1,-408.97 271.33,-396 288.13,-365.87 291.9,-357.45 300.33,-324 312.09,-277.33 320.25,-262.63 308.33,-216 305.99,-206.85 301.71,-197.59 297.15,-189.42"/>
<polygon fill="black" stroke="black" points="300.26,-187.81 292.11,-181.04 294.26,-191.42 300.26,-187.81"/>
</g>
<!-- r1_node_10 -->
<g id="node20" class="node">
<title>r1_node_10</title>
<ellipse fill="none" stroke="black" cx="460.33" cy="-450" rx="54.93" ry="18"/>
<text text-anchor="middle" x="460.33" y="-444.95" font-family="Times,serif" font-size="14.00">r1_node_10</text>
</g>
<!-- r1_node_10&#45;&gt;r1_node_13 -->
<g id="edge34" class="edge">
<title>r1_node_10&#45;&gt;r1_node_13</title>
<path fill="none" stroke="black" d="M494.58,-435.59C521.49,-424.99 559.88,-409.75 593.33,-396 651.44,-372.11 718.2,-343.64 760.56,-325.45"/>
<polygon fill="black" stroke="black" points="761.85,-328.7 769.65,-321.54 759.08,-322.27 761.85,-328.7"/>
</g>
<!-- r1_node_10&#45;&gt;r1_node_19 -->
<g id="edge33" class="edge">
<title>r1_node_10&#45;&gt;r1_node_19</title>
<path fill="none" stroke="black" d="M514.09,-445.52C580.09,-440.06 694.76,-426.76 788.33,-396 821.56,-385.07 826.81,-375.18 858.33,-360 893.45,-343.08 917.16,-356.74 938.33,-324 947.02,-310.56 946.45,-301.78 938.33,-288 921.56,-259.55 896.13,-275.89 873.33,-252 856.79,-234.67 845.24,-209.94 838.14,-190.94"/>
<polygon fill="black" stroke="black" points="841.5,-189.94 834.88,-181.67 834.9,-192.26 841.5,-189.94"/>
</g>
<!-- r1_node_10&#45;&gt;r1_node_16 -->
<g id="edge32" class="edge">
<title>r1_node_10&#45;&gt;r1_node_16</title>
<path fill="none" stroke="black" d="M515.41,-448.33C590.39,-445.84 727.8,-435.68 837.33,-396 865.85,-385.67 869.43,-375.81 895.33,-360 921.87,-343.8 940.01,-351.06 955.33,-324 971.97,-294.6 921.32,-168.87 893.33,-144 886.22,-137.68 634.15,-65.2 523.52,-33.59"/>
<polygon fill="black" stroke="black" points="524.67,-30.28 514.09,-30.9 522.75,-37.01 524.67,-30.28"/>
</g>
</g>
</svg>
