<?xml version="1.0" encoding="UTF-8" standalone="no"?>
<!DOCTYPE svg PUBLIC "-//W3C//DTD SVG 1.1//EN"
 "http://www.w3.org/Graphics/SVG/1.1/DTD/svg11.dtd">
<!-- Generated by graphviz version 12.2.1 (20241206.2353)
 -->
<!-- Pages: 1 -->
<svg width="839pt" height="404pt"
 viewBox="0.00 0.00 838.87 404.00" xmlns="http://www.w3.org/2000/svg" xmlns:xlink="http://www.w3.org/1999/xlink">
<g id="graph0" class="graph" transform="scale(1 1) rotate(0) translate(4 400)">
<polygon fill="white" stroke="none" points="-4,4 -4,-400 834.87,-400 834.87,4 -4,4"/>
<!-- r1_node_3 -->
<g id="node1" class="node">
<title>r1_node_3</title>
<ellipse fill="none" stroke="black" cx="176.93" cy="-378" rx="50.33" ry="18"/>
<text text-anchor="middle" x="176.93" y="-372.95" font-family="Times,serif" font-size="14.00">r1_node_3</text>
</g>
<!-- r1_node_13 -->
<g id="node2" class="node">
<title>r1_node_13</title>
<ellipse fill="none" stroke="black" cx="176.93" cy="-306" rx="54.93" ry="18"/>
<text text-anchor="middle" x="176.93" y="-300.95" font-family="Times,serif" font-size="14.00">r1_node_13</text>
</g>
<!-- r1_node_3&#45;&gt;r1_node_13 -->
<g id="edge1" class="edge">
<title>r1_node_3&#45;&gt;r1_node_13</title>
<path fill="none" stroke="black" d="M171.02,-359.7C170.27,-352.41 170.02,-343.73 170.29,-335.54"/>
<polygon fill="black" stroke="black" points="173.78,-335.82 170.94,-325.61 166.79,-335.36 173.78,-335.82"/>
</g>
<!-- r1_node_13&#45;&gt;r1_node_3 -->
<g id="edge19" class="edge">
<title>r1_node_13&#45;&gt;r1_node_3</title>
<path fill="none" stroke="black" d="M182.83,-324.1C183.59,-331.37 183.84,-340.04 183.59,-348.24"/>
<polygon fill="black" stroke="black" points="180.1,-347.98 182.95,-358.19 187.08,-348.43 180.1,-347.98"/>
</g>
<!-- r1_node_9 -->
<g id="node7" class="node">
<title>r1_node_9</title>
<ellipse fill="none" stroke="black" cx="115.93" cy="-234" rx="50.33" ry="18"/>
<text text-anchor="middle" x="115.93" y="-228.95" font-family="Times,serif" font-size="14.00">r1_node_9</text>
</g>
<!-- r1_node_13&#45;&gt;r1_node_9 -->
<g id="edge17" class="edge">
<title>r1_node_13&#45;&gt;r1_node_9</title>
<path fill="none" stroke="black" d="M156.99,-288.76C148.88,-280.53 139.74,-270.32 132.06,-261.02"/>
<polygon fill="black" stroke="black" points="134.88,-258.94 125.9,-253.31 129.41,-263.31 134.88,-258.94"/>
</g>
<!-- r1_node_16 -->
<g id="node8" class="node">
<title>r1_node_16</title>
<ellipse fill="none" stroke="black" cx="238.93" cy="-234" rx="54.93" ry="18"/>
<text text-anchor="middle" x="238.93" y="-228.95" font-family="Times,serif" font-size="14.00">r1_node_16</text>
</g>
<!-- r1_node_13&#45;&gt;r1_node_16 -->
<g id="edge18" class="edge">
<title>r1_node_13&#45;&gt;r1_node_16</title>
<path fill="none" stroke="black" d="M186.06,-288.05C192.9,-279.29 202.31,-268.45 211.37,-258.86"/>
<polygon fill="black" stroke="black" points="213.65,-261.53 218.11,-251.92 208.63,-256.65 213.65,-261.53"/>
</g>
<!-- r1_node_20 -->
<g id="node3" class="node">
<title>r1_node_20</title>
<ellipse fill="none" stroke="black" cx="54.93" cy="-162" rx="54.93" ry="18"/>
<text text-anchor="middle" x="54.93" y="-156.95" font-family="Times,serif" font-size="14.00">r1_node_20</text>
</g>
<!-- r1_node_7 -->
<g id="node4" class="node">
<title>r1_node_7</title>
<ellipse fill="none" stroke="black" cx="55.93" cy="-18" rx="50.33" ry="18"/>
<text text-anchor="middle" x="55.93" y="-12.95" font-family="Times,serif" font-size="14.00">r1_node_7</text>
</g>
<!-- r1_node_20&#45;&gt;r1_node_7 -->
<g id="edge2" class="edge">
<title>r1_node_20&#45;&gt;r1_node_7</title>
<path fill="none" stroke="black" d="M42.82,-144.43C39.09,-134.05 36.2,-120.34 34.93,-108 33.3,-92.08 33.16,-87.9 34.93,-72 35.87,-63.59 37.63,-54.56 39.9,-46.39"/>
<polygon fill="black" stroke="black" points="43.19,-47.58 42.96,-36.99 36.54,-45.42 43.19,-47.58"/>
</g>
<!-- r1_node_17 -->
<g id="node5" class="node">
<title>r1_node_17</title>
<ellipse fill="none" stroke="black" cx="107.93" cy="-90" rx="54.93" ry="18"/>
<text text-anchor="middle" x="107.93" y="-84.95" font-family="Times,serif" font-size="14.00">r1_node_17</text>
</g>
<!-- r1_node_20&#45;&gt;r1_node_17 -->
<g id="edge3" class="edge">
<title>r1_node_20&#45;&gt;r1_node_17</title>
<path fill="none" stroke="black" d="M62.12,-143.7C67.6,-135.32 75.14,-125.1 82.59,-115.9"/>
<polygon fill="black" stroke="black" points="85.21,-118.22 88.95,-108.3 79.84,-113.72 85.21,-118.22"/>
</g>
<!-- r1_node_10 -->
<g id="node6" class="node">
<title>r1_node_10</title>
<ellipse fill="none" stroke="black" cx="235.93" cy="-90" rx="54.93" ry="18"/>
<text text-anchor="middle" x="235.93" y="-84.95" font-family="Times,serif" font-size="14.00">r1_node_10</text>
</g>
<!-- r1_node_20&#45;&gt;r1_node_10 -->
<g id="edge4" class="edge">
<title>r1_node_20&#45;&gt;r1_node_10</title>
<path fill="none" stroke="black" d="M86.01,-146.83C114.02,-135.42 155.46,-119.36 187.73,-107.39"/>
<polygon fill="black" stroke="black" points="188.7,-110.77 196.87,-104.03 186.28,-104.2 188.7,-110.77"/>
</g>
<!-- r1_node_20&#45;&gt;r1_node_9 -->
<g id="edge5" class="edge">
<title>r1_node_20&#45;&gt;r1_node_9</title>
<path fill="none" stroke="black" d="M74.48,-178.83C82.78,-187.23 92.22,-197.77 100.08,-207.31"/>
<polygon fill="black" stroke="black" points="97.13,-209.23 106.1,-214.87 102.61,-204.87 97.13,-209.23"/>
</g>
<!-- r1_node_7&#45;&gt;r1_node_20 -->
<g id="edge10" class="edge">
<title>r1_node_7&#45;&gt;r1_node_20</title>
<path fill="none" stroke="black" d="M58.89,-36.02C57.37,-46.33 54.3,-59.81 52.93,-72 51.16,-87.9 51.3,-92.08 52.93,-108 53.76,-116.07 55.28,-124.72 56.59,-132.65"/>
<polygon fill="black" stroke="black" points="53.12,-133.09 58.07,-142.46 60.04,-132.05 53.12,-133.09"/>
</g>
<!-- r1_node_17&#45;&gt;r1_node_20 -->
<g id="edge21" class="edge">
<title>r1_node_17&#45;&gt;r1_node_20</title>
<path fill="none" stroke="black" d="M100.87,-108.12C95.4,-116.5 87.85,-126.74 80.38,-135.98"/>
<polygon fill="black" stroke="black" points="77.73,-133.69 74,-143.6 83.1,-138.18 77.73,-133.69"/>
</g>
<!-- r1_node_6 -->
<g id="node18" class="node">
<title>r1_node_6</title>
<ellipse fill="none" stroke="black" cx="204.93" cy="-18" rx="50.33" ry="18"/>
<text text-anchor="middle" x="204.93" y="-12.95" font-family="Times,serif" font-size="14.00">r1_node_6</text>
</g>
<!-- r1_node_17&#45;&gt;r1_node_6 -->
<g id="edge20" class="edge">
<title>r1_node_17&#45;&gt;r1_node_6</title>
<path fill="none" stroke="black" d="M125.08,-72.41C137.48,-62.7 154.46,-50.35 169.63,-39.97"/>
<polygon fill="black" stroke="black" points="171.19,-43.14 177.53,-34.65 167.28,-37.33 171.19,-43.14"/>
</g>
<!-- r1_node_10&#45;&gt;r1_node_20 -->
<g id="edge16" class="edge">
<title>r1_node_10&#45;&gt;r1_node_20</title>
<path fill="none" stroke="black" d="M204.74,-105.21C176.74,-116.62 135.38,-132.65 103.15,-144.6"/>
<polygon fill="black" stroke="black" points="102.2,-141.22 94.03,-147.96 104.62,-147.79 102.2,-141.22"/>
</g>
<!-- r1_node_9&#45;&gt;r1_node_13 -->
<g id="edge35" class="edge">
<title>r1_node_9&#45;&gt;r1_node_13</title>
<path fill="none" stroke="black" d="M135.48,-250.83C143.78,-259.23 153.22,-269.77 161.08,-279.31"/>
<polygon fill="black" stroke="black" points="158.13,-281.23 167.1,-286.87 163.61,-276.87 158.13,-281.23"/>
</g>
<!-- r1_node_9&#45;&gt;r1_node_20 -->
<g id="edge31" class="edge">
<title>r1_node_9&#45;&gt;r1_node_20</title>
<path fill="none" stroke="black" d="M96.33,-217.12C88.01,-208.68 78.54,-198.1 70.67,-188.55"/>
<polygon fill="black" stroke="black" points="73.62,-186.63 64.65,-180.98 68.14,-190.99 73.62,-186.63"/>
</g>
<!-- r1_node_2 -->
<g id="node11" class="node">
<title>r1_node_2</title>
<ellipse fill="none" stroke="black" cx="264.93" cy="-162" rx="50.33" ry="18"/>
<text text-anchor="middle" x="264.93" y="-156.95" font-family="Times,serif" font-size="14.00">r1_node_2</text>
</g>
<!-- r1_node_9&#45;&gt;r1_node_2 -->
<g id="edge32" class="edge">
<title>r1_node_9&#45;&gt;r1_node_2</title>
<path fill="none" stroke="black" d="M141.9,-218.15C163.95,-207.15 195.85,-192.11 221.71,-180.52"/>
<polygon fill="black" stroke="black" points="222.91,-183.81 230.63,-176.56 220.07,-177.42 222.91,-183.81"/>
</g>
<!-- r1_node_8 -->
<g id="node15" class="node">
<title>r1_node_8</title>
<ellipse fill="none" stroke="black" cx="486.93" cy="-162" rx="50.33" ry="18"/>
<text text-anchor="middle" x="486.93" y="-156.95" font-family="Times,serif" font-size="14.00">r1_node_8</text>
</g>
<!-- r1_node_9&#45;&gt;r1_node_8 -->
<g id="edge33" class="edge">
<title>r1_node_9&#45;&gt;r1_node_8</title>
<path fill="none" stroke="black" d="M149.4,-220.17C154.89,-218.67 160.53,-217.23 165.93,-216 256.51,-195.33 363.56,-178.84 428.39,-170.03"/>
<polygon fill="black" stroke="black" points="428.65,-173.53 438.1,-168.73 427.72,-166.59 428.65,-173.53"/>
</g>
<!-- r1_node_12 -->
<g id="node17" class="node">
<title>r1_node_12</title>
<ellipse fill="none" stroke="black" cx="494.93" cy="-18" rx="54.93" ry="18"/>
<text text-anchor="middle" x="494.93" y="-12.95" font-family="Times,serif" font-size="14.00">r1_node_12</text>
</g>
<!-- r1_node_9&#45;&gt;r1_node_12 -->
<g id="edge34" class="edge">
<title>r1_node_9&#45;&gt;r1_node_12</title>
<path fill="none" stroke="black" d="M148.69,-219.97C154.39,-218.46 160.28,-217.08 165.93,-216 328.66,-184.94 380.65,-234.96 536.93,-180 592.06,-160.62 619.15,-159.4 646.93,-108 654.54,-93.93 656.31,-84.96 646.93,-72 640.48,-63.08 586.57,-46.48 544.68,-34.23"/>
<polygon fill="black" stroke="black" points="545.81,-30.91 535.23,-31.48 543.86,-37.63 545.81,-30.91"/>
</g>
<!-- r1_node_15 -->
<g id="node20" class="node">
<title>r1_node_15</title>
<ellipse fill="none" stroke="black" cx="742.93" cy="-162" rx="54.93" ry="18"/>
<text text-anchor="middle" x="742.93" y="-156.95" font-family="Times,serif" font-size="14.00">r1_node_15</text>
</g>
<!-- r1_node_9&#45;&gt;r1_node_15 -->
<g id="edge36" class="edge">
<title>r1_node_9&#45;&gt;r1_node_15</title>
<path fill="none" stroke="black" d="M148.67,-219.86C154.37,-218.37 160.27,-217.02 165.93,-216 373.42,-178.62 429.79,-206.6 638.93,-180 653.5,-178.15 669.23,-175.57 683.98,-172.98"/>
<polygon fill="black" stroke="black" points="684.31,-176.48 693.54,-171.28 683.09,-169.59 684.31,-176.48"/>
</g>
<!-- r1_node_16&#45;&gt;r1_node_13 -->
<g id="edge6" class="edge">
<title>r1_node_16&#45;&gt;r1_node_13</title>
<path fill="none" stroke="black" d="M229.92,-251.8C223.1,-260.56 213.66,-271.43 204.58,-281.06"/>
<polygon fill="black" stroke="black" points="202.27,-278.42 197.82,-288.03 207.29,-283.29 202.27,-278.42"/>
</g>
<!-- r1_node_1 -->
<g id="node9" class="node">
<title>r1_node_1</title>
<ellipse fill="none" stroke="black" cx="358.93" cy="-90" rx="50.33" ry="18"/>
<text text-anchor="middle" x="358.93" y="-84.95" font-family="Times,serif" font-size="14.00">r1_node_1</text>
</g>
<!-- r1_node_18 -->
<g id="node10" class="node">
<title>r1_node_18</title>
<ellipse fill="none" stroke="black" cx="342.93" cy="-18" rx="54.93" ry="18"/>
<text text-anchor="middle" x="342.93" y="-12.95" font-family="Times,serif" font-size="14.00">r1_node_18</text>
</g>
<!-- r1_node_1&#45;&gt;r1_node_18 -->
<g id="edge7" class="edge">
<title>r1_node_1&#45;&gt;r1_node_18</title>
<path fill="none" stroke="black" d="M349.18,-72.05C346.72,-64.68 344.44,-55.84 342.8,-47.51"/>
<polygon fill="black" stroke="black" points="346.28,-47.07 341.21,-37.77 339.37,-48.2 346.28,-47.07"/>
</g>
<!-- r1_node_1&#45;&gt;r1_node_2 -->
<g id="edge8" class="edge">
<title>r1_node_1&#45;&gt;r1_node_2</title>
<path fill="none" stroke="black" d="M342.87,-107.29C331.01,-116.92 314.63,-129.24 299.89,-139.64"/>
<polygon fill="black" stroke="black" points="297.97,-136.71 291.75,-145.29 301.96,-142.46 297.97,-136.71"/>
</g>
<!-- r1_node_18&#45;&gt;r1_node_1 -->
<g id="edge27" class="edge">
<title>r1_node_18&#45;&gt;r1_node_1</title>
<path fill="none" stroke="black" d="M352.74,-36.1C355.19,-43.45 357.45,-52.24 359.07,-60.53"/>
<polygon fill="black" stroke="black" points="355.58,-60.9 360.65,-70.2 362.49,-59.77 355.58,-60.9"/>
</g>
<!-- r1_node_2&#45;&gt;r1_node_9 -->
<g id="edge29" class="edge">
<title>r1_node_2&#45;&gt;r1_node_9</title>
<path fill="none" stroke="black" d="M238.91,-177.87C216.9,-188.86 185.09,-203.85 159.28,-215.43"/>
<polygon fill="black" stroke="black" points="158.1,-212.12 150.38,-219.38 160.94,-218.52 158.1,-212.12"/>
</g>
<!-- r1_node_2&#45;&gt;r1_node_1 -->
<g id="edge30" class="edge">
<title>r1_node_2&#45;&gt;r1_node_1</title>
<path fill="none" stroke="black" d="M280.94,-144.76C292.76,-135.16 309.1,-122.87 323.82,-112.47"/>
<polygon fill="black" stroke="black" points="325.75,-115.4 331.96,-106.82 321.75,-109.65 325.75,-115.4"/>
</g>
<!-- r1_node_4 -->
<g id="node12" class="node">
<title>r1_node_4</title>
<ellipse fill="none" stroke="black" cx="477.93" cy="-90" rx="50.33" ry="18"/>
<text text-anchor="middle" x="477.93" y="-84.95" font-family="Times,serif" font-size="14.00">r1_node_4</text>
</g>
<!-- r1_node_2&#45;&gt;r1_node_4 -->
<g id="edge28" class="edge">
<title>r1_node_2&#45;&gt;r1_node_4</title>
<path fill="none" stroke="black" d="M298.64,-148.16C333.75,-136.04 388.9,-117.89 428.82,-105.31"/>
<polygon fill="black" stroke="black" points="429.71,-108.7 438.21,-102.37 427.62,-102.02 429.71,-108.7"/>
</g>
<!-- r1_node_4&#45;&gt;r1_node_2 -->
<g id="edge9" class="edge">
<title>r1_node_4&#45;&gt;r1_node_2</title>
<path fill="none" stroke="black" d="M444.47,-103.76C409.39,-115.87 354.14,-134.05 314.13,-146.66"/>
<polygon fill="black" stroke="black" points="313.22,-143.28 304.72,-149.61 315.31,-149.96 313.22,-143.28"/>
</g>
<!-- r1_node_19 -->
<g id="node13" class="node">
<title>r1_node_19</title>
<ellipse fill="none" stroke="black" cx="634.93" cy="-18" rx="54.93" ry="18"/>
<text text-anchor="middle" x="634.93" y="-12.95" font-family="Times,serif" font-size="14.00">r1_node_19</text>
</g>
<!-- r1_node_11 -->
<g id="node14" class="node">
<title>r1_node_11</title>
<ellipse fill="none" stroke="black" cx="775.93" cy="-90" rx="54.93" ry="18"/>
<text text-anchor="middle" x="775.93" y="-84.95" font-family="Times,serif" font-size="14.00">r1_node_11</text>
</g>
<!-- r1_node_19&#45;&gt;r1_node_11 -->
<g id="edge11" class="edge">
<title>r1_node_19&#45;&gt;r1_node_11</title>
<path fill="none" stroke="black" d="M668.2,-32.78C690.03,-42.94 718.43,-56.92 740.65,-68.4"/>
<polygon fill="black" stroke="black" points="738.86,-71.41 749.35,-72.94 742.1,-65.21 738.86,-71.41"/>
</g>
<!-- r1_node_11&#45;&gt;r1_node_19 -->
<g id="edge24" class="edge">
<title>r1_node_11&#45;&gt;r1_node_19</title>
<path fill="none" stroke="black" d="M742.93,-75.34C721.06,-65.17 692.51,-51.12 670.2,-39.59"/>
<polygon fill="black" stroke="black" points="671.95,-36.56 661.46,-35.03 668.71,-42.76 671.95,-36.56"/>
</g>
<!-- r1_node_14 -->
<g id="node19" class="node">
<title>r1_node_14</title>
<ellipse fill="none" stroke="black" cx="768.93" cy="-18" rx="54.93" ry="18"/>
<text text-anchor="middle" x="768.93" y="-12.95" font-family="Times,serif" font-size="14.00">r1_node_14</text>
</g>
<!-- r1_node_11&#45;&gt;r1_node_14 -->
<g id="edge22" class="edge">
<title>r1_node_11&#45;&gt;r1_node_14</title>
<path fill="none" stroke="black" d="M768.29,-71.7C766.81,-64.41 765.7,-55.73 765.14,-47.54"/>
<polygon fill="black" stroke="black" points="768.64,-47.49 764.8,-37.62 761.65,-47.73 768.64,-47.49"/>
</g>
<!-- r1_node_11&#45;&gt;r1_node_15 -->
<g id="edge23" class="edge">
<title>r1_node_11&#45;&gt;r1_node_15</title>
<path fill="none" stroke="black" d="M773.64,-108.45C770.75,-116.27 766.53,-125.67 762.08,-134.34"/>
<polygon fill="black" stroke="black" points="759.03,-132.63 757.32,-143.08 765.17,-135.97 759.03,-132.63"/>
</g>
<!-- r1_node_8&#45;&gt;r1_node_9 -->
<g id="edge12" class="edge">
<title>r1_node_8&#45;&gt;r1_node_9</title>
<path fill="none" stroke="black" d="M441.36,-170C381.75,-178.81 274.59,-195.31 183.93,-216 178.55,-217.23 172.93,-218.66 167.32,-220.15"/>
<polygon fill="black" stroke="black" points="166.77,-216.67 158.05,-222.68 168.62,-223.42 166.77,-216.67"/>
</g>
<!-- r1_node_5 -->
<g id="node16" class="node">
<title>r1_node_5</title>
<ellipse fill="none" stroke="black" cx="596.93" cy="-90" rx="50.33" ry="18"/>
<text text-anchor="middle" x="596.93" y="-84.95" font-family="Times,serif" font-size="14.00">r1_node_5</text>
</g>
<!-- r1_node_8&#45;&gt;r1_node_5 -->
<g id="edge13" class="edge">
<title>r1_node_8&#45;&gt;r1_node_5</title>
<path fill="none" stroke="black" d="M506.39,-144.94C521.08,-134.86 541.51,-121.78 559.3,-111.02"/>
<polygon fill="black" stroke="black" points="560.77,-114.23 567.56,-106.1 557.18,-108.21 560.77,-114.23"/>
</g>
<!-- r1_node_5&#45;&gt;r1_node_8 -->
<g id="edge15" class="edge">
<title>r1_node_5&#45;&gt;r1_node_8</title>
<path fill="none" stroke="black" d="M577.53,-107.03C562.84,-117.11 542.4,-130.2 524.6,-140.96"/>
<polygon fill="black" stroke="black" points="523.13,-137.76 516.33,-145.89 526.71,-143.77 523.13,-137.76"/>
</g>
<!-- r1_node_12&#45;&gt;r1_node_9 -->
<g id="edge14" class="edge">
<title>r1_node_12&#45;&gt;r1_node_9</title>
<path fill="none" stroke="black" d="M539.02,-28.96C586.98,-41.23 657.49,-61.72 664.93,-72 674.31,-84.96 672.54,-93.93 664.93,-108 637.15,-159.4 610.06,-160.62 554.93,-180 398.65,-234.96 346.66,-184.94 183.93,-216 178.45,-217.05 172.73,-218.38 167.04,-219.83"/>
<polygon fill="black" stroke="black" points="166.4,-216.38 157.64,-222.35 168.21,-223.14 166.4,-216.38"/>
</g>
<!-- r1_node_6&#45;&gt;r1_node_17 -->
<g id="edge37" class="edge">
<title>r1_node_6&#45;&gt;r1_node_17</title>
<path fill="none" stroke="black" d="M188.05,-35.38C175.79,-45 158.94,-57.27 143.81,-67.64"/>
<polygon fill="black" stroke="black" points="142.25,-64.47 135.91,-72.96 146.16,-70.27 142.25,-64.47"/>
</g>
<!-- r1_node_14&#45;&gt;r1_node_11 -->
<g id="edge38" class="edge">
<title>r1_node_14&#45;&gt;r1_node_11</title>
<path fill="none" stroke="black" d="M776.54,-36.1C778.03,-43.37 779.15,-52.04 779.71,-60.24"/>
<polygon fill="black" stroke="black" points="776.21,-60.31 780.07,-70.18 783.21,-60.07 776.21,-60.31"/>
</g>
<!-- r1_node_15&#45;&gt;r1_node_9 -->
<g id="edge25" class="edge">
<title>r1_node_15&#45;&gt;r1_node_9</title>
<path fill="none" stroke="black" d="M699.5,-173.31C685.92,-175.78 670.9,-178.22 656.93,-180 447.79,-206.6 391.42,-178.62 183.93,-216 178.37,-217 172.58,-218.32 166.82,-219.78"/>
<polygon fill="black" stroke="black" points="166.06,-216.36 157.3,-222.32 167.86,-223.12 166.06,-216.36"/>
</g>
<!-- r1_node_15&#45;&gt;r1_node_11 -->
<g id="edge26" class="edge">
<title>r1_node_15&#45;&gt;r1_node_11</title>
<path fill="none" stroke="black" d="M745.18,-143.7C748.06,-135.87 752.28,-126.44 756.75,-117.73"/>
<polygon fill="black" stroke="black" points="759.82,-119.41 761.53,-108.95 753.68,-116.06 759.82,-119.41"/>
</g>
</g>
</svg>
