<?xml version="1.0" encoding="UTF-8" standalone="no"?>
<!DOCTYPE svg PUBLIC "-//W3C//DTD SVG 1.1//EN"
 "http://www.w3.org/Graphics/SVG/1.1/DTD/svg11.dtd">
<!-- Generated by graphviz version 12.2.1 (20241206.2353)
 -->
<!-- Pages: 1 -->
<svg width="793pt" height="404pt"
 viewBox="0.00 0.00 793.26 404.00" xmlns="http://www.w3.org/2000/svg" xmlns:xlink="http://www.w3.org/1999/xlink">
<g id="graph0" class="graph" transform="scale(1 1) rotate(0) translate(4 400)">
<polygon fill="white" stroke="none" points="-4,4 -4,-400 789.26,-400 789.26,4 -4,4"/>
<!-- r3_node_3 -->
<g id="node1" class="node">
<title>r3_node_3</title>
<ellipse fill="none" stroke="black" cx="113.93" cy="-378" rx="50.33" ry="18"/>
<text text-anchor="middle" x="113.93" y="-372.95" font-family="Times,serif" font-size="14.00">r3_node_3</text>
</g>
<!-- r3_node_17 -->
<g id="node2" class="node">
<title>r3_node_17</title>
<ellipse fill="none" stroke="black" cx="54.93" cy="-234" rx="54.93" ry="18"/>
<text text-anchor="middle" x="54.93" y="-228.95" font-family="Times,serif" font-size="14.00">r3_node_17</text>
</g>
<!-- r3_node_3&#45;&gt;r3_node_17 -->
<g id="edge1" class="edge">
<title>r3_node_3&#45;&gt;r3_node_17</title>
<path fill="none" stroke="black" d="M102.38,-360.15C89.84,-336.16 71.11,-291.84 61.03,-262.9"/>
<polygon fill="black" stroke="black" points="64.45,-262.1 57.99,-253.7 57.81,-264.3 64.45,-262.1"/>
</g>
<!-- r3_node_19 -->
<g id="node3" class="node">
<title>r3_node_19</title>
<ellipse fill="none" stroke="black" cx="166.93" cy="-306" rx="54.93" ry="18"/>
<text text-anchor="middle" x="166.93" y="-300.95" font-family="Times,serif" font-size="14.00">r3_node_19</text>
</g>
<!-- r3_node_3&#45;&gt;r3_node_19 -->
<g id="edge2" class="edge">
<title>r3_node_3&#45;&gt;r3_node_19</title>
<path fill="none" stroke="black" d="M121.12,-359.7C126.6,-351.32 134.14,-341.1 141.59,-331.9"/>
<polygon fill="black" stroke="black" points="144.21,-334.22 147.95,-324.3 138.84,-329.72 144.21,-334.22"/>
</g>
<!-- r3_node_7 -->
<g id="node4" class="node">
<title>r3_node_7</title>
<ellipse fill="none" stroke="black" cx="292.93" cy="-306" rx="50.33" ry="18"/>
<text text-anchor="middle" x="292.93" y="-300.95" font-family="Times,serif" font-size="14.00">r3_node_7</text>
</g>
<!-- r3_node_3&#45;&gt;r3_node_7 -->
<g id="edge3" class="edge">
<title>r3_node_3&#45;&gt;r3_node_7</title>
<path fill="none" stroke="black" d="M143.79,-363.17C171.88,-351.57 214.16,-335.01 246.6,-322.87"/>
<polygon fill="black" stroke="black" points="247.61,-326.23 255.77,-319.46 245.17,-319.66 247.61,-326.23"/>
</g>
<!-- r3_node_1 -->
<g id="node5" class="node">
<title>r3_node_1</title>
<ellipse fill="none" stroke="black" cx="734.93" cy="-18" rx="50.33" ry="18"/>
<text text-anchor="middle" x="734.93" y="-12.95" font-family="Times,serif" font-size="14.00">r3_node_1</text>
</g>
<!-- r3_node_3&#45;&gt;r3_node_1 -->
<g id="edge4" class="edge">
<title>r3_node_3&#45;&gt;r3_node_1</title>
<path fill="none" stroke="black" d="M159.93,-370.19C207.12,-362.71 281.8,-348.4 342.93,-324 458.46,-277.89 487.19,-259.42 582.93,-180 633.7,-137.89 682.4,-77.36 710.73,-43.8"/>
<polygon fill="black" stroke="black" points="713.35,-46.11 717.18,-36.23 708.03,-41.57 713.35,-46.11"/>
</g>
<!-- r3_node_17&#45;&gt;r3_node_3 -->
<g id="edge16" class="edge">
<title>r3_node_17&#45;&gt;r3_node_3</title>
<path fill="none" stroke="black" d="M66.4,-251.67C78.91,-275.58 97.66,-319.91 107.77,-348.93"/>
<polygon fill="black" stroke="black" points="104.36,-349.76 110.84,-358.15 111.01,-347.56 104.36,-349.76"/>
</g>
<!-- r3_node_19&#45;&gt;r3_node_3 -->
<g id="edge22" class="edge">
<title>r3_node_19&#45;&gt;r3_node_3</title>
<path fill="none" stroke="black" d="M159.87,-324.12C154.4,-332.5 146.85,-342.74 139.38,-351.98"/>
<polygon fill="black" stroke="black" points="136.73,-349.69 133,-359.6 142.1,-354.18 136.73,-349.69"/>
</g>
<!-- r3_node_9 -->
<g id="node7" class="node">
<title>r3_node_9</title>
<ellipse fill="none" stroke="black" cx="177.93" cy="-234" rx="50.33" ry="18"/>
<text text-anchor="middle" x="177.93" y="-228.95" font-family="Times,serif" font-size="14.00">r3_node_9</text>
</g>
<!-- r3_node_19&#45;&gt;r3_node_9 -->
<g id="edge20" class="edge">
<title>r3_node_19&#45;&gt;r3_node_9</title>
<path fill="none" stroke="black" d="M163.74,-287.7C164.14,-280.32 165.28,-271.52 166.86,-263.25"/>
<polygon fill="black" stroke="black" points="170.25,-264.1 169.02,-253.58 163.42,-262.58 170.25,-264.1"/>
</g>
<!-- r3_node_8 -->
<g id="node13" class="node">
<title>r3_node_8</title>
<ellipse fill="none" stroke="black" cx="411.93" cy="-234" rx="50.33" ry="18"/>
<text text-anchor="middle" x="411.93" y="-228.95" font-family="Times,serif" font-size="14.00">r3_node_8</text>
</g>
<!-- r3_node_19&#45;&gt;r3_node_8 -->
<g id="edge21" class="edge">
<title>r3_node_19&#45;&gt;r3_node_8</title>
<path fill="none" stroke="black" d="M204.88,-292.65C246.76,-280.14 314.18,-260.86 360.7,-248.09"/>
<polygon fill="black" stroke="black" points="361.57,-251.48 370.3,-245.47 359.73,-244.73 361.57,-251.48"/>
</g>
<!-- r3_node_7&#45;&gt;r3_node_3 -->
<g id="edge36" class="edge">
<title>r3_node_7&#45;&gt;r3_node_3</title>
<path fill="none" stroke="black" d="M263.16,-320.8C235.15,-332.36 192.97,-348.89 160.54,-361.03"/>
<polygon fill="black" stroke="black" points="159.52,-357.68 151.37,-364.44 161.96,-364.24 159.52,-357.68"/>
</g>
<!-- r3_node_1&#45;&gt;r3_node_3 -->
<g id="edge31" class="edge">
<title>r3_node_1&#45;&gt;r3_node_3</title>
<path fill="none" stroke="black" d="M727.85,-36.05C708.44,-67.23 655.89,-134.41 600.93,-180 505.19,-259.42 476.46,-277.89 360.93,-324 299.35,-348.58 224.01,-362.93 172.76,-370.36"/>
<polygon fill="black" stroke="black" points="172.47,-366.86 163.06,-371.71 173.44,-373.79 172.47,-366.86"/>
</g>
<!-- r3_node_5 -->
<g id="node6" class="node">
<title>r3_node_5</title>
<ellipse fill="none" stroke="black" cx="101.93" cy="-162" rx="50.33" ry="18"/>
<text text-anchor="middle" x="101.93" y="-156.95" font-family="Times,serif" font-size="14.00">r3_node_5</text>
</g>
<!-- r3_node_5&#45;&gt;r3_node_9 -->
<g id="edge5" class="edge">
<title>r3_node_5&#45;&gt;r3_node_9</title>
<path fill="none" stroke="black" d="M124.49,-178.51C135.07,-187.29 147.47,-198.48 157.73,-208.43"/>
<polygon fill="black" stroke="black" points="155.13,-210.78 164.69,-215.34 160.06,-205.81 155.13,-210.78"/>
</g>
<!-- r3_node_9&#45;&gt;r3_node_19 -->
<g id="edge10" class="edge">
<title>r3_node_9&#45;&gt;r3_node_19</title>
<path fill="none" stroke="black" d="M181.13,-252.28C180.73,-259.69 179.58,-268.54 177.99,-276.86"/>
<polygon fill="black" stroke="black" points="174.58,-276.05 175.81,-286.58 181.41,-277.59 174.58,-276.05"/>
</g>
<!-- r3_node_9&#45;&gt;r3_node_5 -->
<g id="edge11" class="edge">
<title>r3_node_9&#45;&gt;r3_node_5</title>
<path fill="none" stroke="black" d="M155.35,-217.46C144.74,-208.65 132.3,-197.43 122.02,-187.46"/>
<polygon fill="black" stroke="black" points="124.62,-185.11 115.06,-180.53 119.68,-190.07 124.62,-185.11"/>
</g>
<!-- r3_node_11 -->
<g id="node8" class="node">
<title>r3_node_11</title>
<ellipse fill="none" stroke="black" cx="224.93" cy="-162" rx="54.93" ry="18"/>
<text text-anchor="middle" x="224.93" y="-156.95" font-family="Times,serif" font-size="14.00">r3_node_11</text>
</g>
<!-- r3_node_9&#45;&gt;r3_node_11 -->
<g id="edge6" class="edge">
<title>r3_node_9&#45;&gt;r3_node_11</title>
<path fill="none" stroke="black" d="M183.64,-215.7C188.35,-207.4 194.93,-197.31 201.51,-188.19"/>
<polygon fill="black" stroke="black" points="204.19,-190.45 207.39,-180.35 198.59,-186.25 204.19,-190.45"/>
</g>
<!-- r3_node_6 -->
<g id="node9" class="node">
<title>r3_node_6</title>
<ellipse fill="none" stroke="black" cx="349.93" cy="-162" rx="50.33" ry="18"/>
<text text-anchor="middle" x="349.93" y="-156.95" font-family="Times,serif" font-size="14.00">r3_node_6</text>
</g>
<!-- r3_node_9&#45;&gt;r3_node_6 -->
<g id="edge7" class="edge">
<title>r3_node_9&#45;&gt;r3_node_6</title>
<path fill="none" stroke="black" d="M206.8,-219C233.42,-207.55 273.18,-191.33 304.11,-179.29"/>
<polygon fill="black" stroke="black" points="305.16,-182.63 313.23,-175.76 302.64,-176.1 305.16,-182.63"/>
</g>
<!-- r3_node_15 -->
<g id="node10" class="node">
<title>r3_node_15</title>
<ellipse fill="none" stroke="black" cx="473.93" cy="-162" rx="54.93" ry="18"/>
<text text-anchor="middle" x="473.93" y="-156.95" font-family="Times,serif" font-size="14.00">r3_node_15</text>
</g>
<!-- r3_node_9&#45;&gt;r3_node_15 -->
<g id="edge8" class="edge">
<title>r3_node_9&#45;&gt;r3_node_15</title>
<path fill="none" stroke="black" d="M217.67,-222.75C262.21,-212.37 336.2,-195.64 399.93,-180 405.74,-178.58 411.83,-177.04 417.92,-175.49"/>
<polygon fill="black" stroke="black" points="418.54,-178.95 427.37,-173.1 416.82,-172.16 418.54,-178.95"/>
</g>
<!-- r3_node_16 -->
<g id="node11" class="node">
<title>r3_node_16</title>
<ellipse fill="none" stroke="black" cx="609.93" cy="-18" rx="54.93" ry="18"/>
<text text-anchor="middle" x="609.93" y="-12.95" font-family="Times,serif" font-size="14.00">r3_node_16</text>
</g>
<!-- r3_node_9&#45;&gt;r3_node_16 -->
<g id="edge9" class="edge">
<title>r3_node_9&#45;&gt;r3_node_16</title>
<path fill="none" stroke="black" d="M224.84,-226.92C314.07,-215.83 501.37,-192.36 528.93,-180 574.42,-159.6 593.84,-153.17 614.93,-108 623.84,-88.93 619.52,-65.33 614.72,-47.22"/>
<polygon fill="black" stroke="black" points="618.11,-46.36 612.04,-37.67 611.37,-48.25 618.11,-46.36"/>
</g>
<!-- r3_node_11&#45;&gt;r3_node_9 -->
<g id="edge28" class="edge">
<title>r3_node_11&#45;&gt;r3_node_9</title>
<path fill="none" stroke="black" d="M219.33,-180.12C214.64,-188.41 208.05,-198.53 201.44,-207.69"/>
<polygon fill="black" stroke="black" points="198.74,-205.45 195.54,-215.55 204.34,-209.65 198.74,-205.45"/>
</g>
<!-- r3_node_14 -->
<g id="node16" class="node">
<title>r3_node_14</title>
<ellipse fill="none" stroke="black" cx="159.93" cy="-90" rx="54.93" ry="18"/>
<text text-anchor="middle" x="159.93" y="-84.95" font-family="Times,serif" font-size="14.00">r3_node_14</text>
</g>
<!-- r3_node_11&#45;&gt;r3_node_14 -->
<g id="edge29" class="edge">
<title>r3_node_11&#45;&gt;r3_node_14</title>
<path fill="none" stroke="black" d="M204.42,-145.12C195.62,-136.68 185.54,-126.1 177.13,-116.55"/>
<polygon fill="black" stroke="black" points="179.8,-114.29 170.65,-108.95 174.48,-118.83 179.8,-114.29"/>
</g>
<!-- r3_node_10 -->
<g id="node19" class="node">
<title>r3_node_10</title>
<ellipse fill="none" stroke="black" cx="287.93" cy="-90" rx="54.93" ry="18"/>
<text text-anchor="middle" x="287.93" y="-84.95" font-family="Times,serif" font-size="14.00">r3_node_10</text>
</g>
<!-- r3_node_11&#45;&gt;r3_node_10 -->
<g id="edge27" class="edge">
<title>r3_node_11&#45;&gt;r3_node_10</title>
<path fill="none" stroke="black" d="M234.31,-144.05C241.26,-135.29 250.83,-124.45 260.03,-114.86"/>
<polygon fill="black" stroke="black" points="262.35,-117.49 266.87,-107.91 257.36,-112.58 262.35,-117.49"/>
</g>
<!-- r3_node_6&#45;&gt;r3_node_9 -->
<g id="edge13" class="edge">
<title>r3_node_6&#45;&gt;r3_node_9</title>
<path fill="none" stroke="black" d="M320.83,-177.1C294.18,-188.56 254.51,-204.74 223.67,-216.75"/>
<polygon fill="black" stroke="black" points="222.64,-213.39 214.57,-220.26 225.16,-219.92 222.64,-213.39"/>
</g>
<!-- r3_node_18 -->
<g id="node12" class="node">
<title>r3_node_18</title>
<ellipse fill="none" stroke="black" cx="415.93" cy="-90" rx="54.93" ry="18"/>
<text text-anchor="middle" x="415.93" y="-84.95" font-family="Times,serif" font-size="14.00">r3_node_18</text>
</g>
<!-- r3_node_6&#45;&gt;r3_node_18 -->
<g id="edge12" class="edge">
<title>r3_node_6&#45;&gt;r3_node_18</title>
<path fill="none" stroke="black" d="M360.03,-144.05C367.31,-135.35 377.26,-124.61 386.8,-115.06"/>
<polygon fill="black" stroke="black" points="389.2,-117.61 393.92,-108.12 384.31,-112.6 389.2,-117.61"/>
</g>
<!-- r3_node_15&#45;&gt;r3_node_9 -->
<g id="edge34" class="edge">
<title>r3_node_15&#45;&gt;r3_node_9</title>
<path fill="none" stroke="black" d="M436.04,-175.43C430,-176.99 423.82,-178.55 417.93,-180 354.73,-195.51 281.44,-212.09 232.53,-222.49"/>
<polygon fill="black" stroke="black" points="232.11,-219.01 223.05,-224.5 233.55,-225.86 232.11,-219.01"/>
</g>
<!-- r3_node_4 -->
<g id="node15" class="node">
<title>r3_node_4</title>
<ellipse fill="none" stroke="black" cx="538.93" cy="-90" rx="50.33" ry="18"/>
<text text-anchor="middle" x="538.93" y="-84.95" font-family="Times,serif" font-size="14.00">r3_node_4</text>
</g>
<!-- r3_node_15&#45;&gt;r3_node_4 -->
<g id="edge32" class="edge">
<title>r3_node_15&#45;&gt;r3_node_4</title>
<path fill="none" stroke="black" d="M483.79,-144.05C491,-135.29 500.88,-124.45 510.35,-114.86"/>
<polygon fill="black" stroke="black" points="512.74,-117.41 517.4,-107.89 507.83,-112.42 512.74,-117.41"/>
</g>
<!-- r3_node_13 -->
<g id="node18" class="node">
<title>r3_node_13</title>
<ellipse fill="none" stroke="black" cx="476.93" cy="-18" rx="54.93" ry="18"/>
<text text-anchor="middle" x="476.93" y="-12.95" font-family="Times,serif" font-size="14.00">r3_node_13</text>
</g>
<!-- r3_node_15&#45;&gt;r3_node_13 -->
<g id="edge33" class="edge">
<title>r3_node_15&#45;&gt;r3_node_13</title>
<path fill="none" stroke="black" d="M520.25,-151.96C545.01,-144.67 573.39,-131.54 588.93,-108 597.75,-94.65 597.69,-85.39 588.93,-72 580.85,-59.63 550.23,-46.28 522.97,-36.07"/>
<polygon fill="black" stroke="black" points="524.37,-32.86 513.77,-32.71 521.96,-39.43 524.37,-32.86"/>
</g>
<!-- r3_node_16&#45;&gt;r3_node_9 -->
<g id="edge25" class="edge">
<title>r3_node_16&#45;&gt;r3_node_9</title>
<path fill="none" stroke="black" d="M624.53,-35.54C634.77,-54.04 643.92,-84.47 632.93,-108 611.84,-153.17 592.42,-159.6 546.93,-180 519.55,-192.28 334.46,-215.53 237.2,-226.7"/>
<polygon fill="black" stroke="black" points="236.84,-223.22 227.3,-227.83 237.63,-230.18 236.84,-223.22"/>
</g>
<!-- r3_node_18&#45;&gt;r3_node_6 -->
<g id="edge14" class="edge">
<title>r3_node_18&#45;&gt;r3_node_6</title>
<path fill="none" stroke="black" d="M405.96,-107.8C398.56,-116.65 388.38,-127.65 378.66,-137.35"/>
<polygon fill="black" stroke="black" points="376.49,-134.58 371.76,-144.06 381.37,-139.6 376.49,-134.58"/>
</g>
<!-- r3_node_8&#45;&gt;r3_node_19 -->
<g id="edge15" class="edge">
<title>r3_node_8&#45;&gt;r3_node_19</title>
<path fill="none" stroke="black" d="M375.58,-246.88C334.47,-259.18 267.37,-278.38 220.33,-291.31"/>
<polygon fill="black" stroke="black" points="219.62,-287.88 210.89,-293.89 221.46,-294.63 219.62,-287.88"/>
</g>
<!-- r3_node_12 -->
<g id="node14" class="node">
<title>r3_node_12</title>
<ellipse fill="none" stroke="black" cx="339.93" cy="-18" rx="54.93" ry="18"/>
<text text-anchor="middle" x="339.93" y="-12.95" font-family="Times,serif" font-size="14.00">r3_node_12</text>
</g>
<!-- r3_node_12&#45;&gt;r3_node_4 -->
<g id="edge17" class="edge">
<title>r3_node_12&#45;&gt;r3_node_4</title>
<path fill="none" stroke="black" d="M379.11,-30.94C412.87,-42.19 461.38,-59.18 496.15,-71.87"/>
<polygon fill="black" stroke="black" points="494.9,-75.15 505.49,-75.31 497.32,-68.58 494.9,-75.15"/>
</g>
<!-- r3_node_4&#45;&gt;r3_node_15 -->
<g id="edge24" class="edge">
<title>r3_node_4&#45;&gt;r3_node_15</title>
<path fill="none" stroke="black" d="M529.2,-107.8C522,-116.56 512.1,-127.43 502.61,-137.06"/>
<polygon fill="black" stroke="black" points="500.18,-134.54 495.52,-144.05 505.1,-139.52 500.18,-134.54"/>
</g>
<!-- r3_node_4&#45;&gt;r3_node_12 -->
<g id="edge23" class="edge">
<title>r3_node_4&#45;&gt;r3_node_12</title>
<path fill="none" stroke="black" d="M501.38,-77.6C467.9,-66.47 419.06,-49.38 383.81,-36.52"/>
<polygon fill="black" stroke="black" points="385.36,-33.36 374.76,-33.2 382.95,-39.93 385.36,-33.36"/>
</g>
<!-- r3_node_14&#45;&gt;r3_node_11 -->
<g id="edge18" class="edge">
<title>r3_node_14&#45;&gt;r3_node_11</title>
<path fill="none" stroke="black" d="M180.39,-106.83C189.17,-115.23 199.21,-125.77 207.62,-135.31"/>
<polygon fill="black" stroke="black" points="204.94,-137.57 214.09,-142.9 210.26,-133.03 204.94,-137.57"/>
</g>
<!-- r3_node_2 -->
<g id="node17" class="node">
<title>r3_node_2</title>
<ellipse fill="none" stroke="black" cx="197.93" cy="-18" rx="50.33" ry="18"/>
<text text-anchor="middle" x="197.93" y="-12.95" font-family="Times,serif" font-size="14.00">r3_node_2</text>
</g>
<!-- r3_node_14&#45;&gt;r3_node_2 -->
<g id="edge19" class="edge">
<title>r3_node_14&#45;&gt;r3_node_2</title>
<path fill="none" stroke="black" d="M163.41,-71.7C166.93,-63.7 171.97,-54.02 177.18,-45.15"/>
<polygon fill="black" stroke="black" points="180,-47.26 182.27,-36.91 174.04,-43.58 180,-47.26"/>
</g>
<!-- r3_node_2&#45;&gt;r3_node_14 -->
<g id="edge35" class="edge">
<title>r3_node_2&#45;&gt;r3_node_14</title>
<path fill="none" stroke="black" d="M194.39,-36.45C190.91,-44.36 185.95,-53.88 180.81,-62.63"/>
<polygon fill="black" stroke="black" points="177.85,-60.77 175.57,-71.12 183.8,-64.45 177.85,-60.77"/>
</g>
<!-- r3_node_13&#45;&gt;r3_node_15 -->
<g id="edge26" class="edge">
<title>r3_node_13&#45;&gt;r3_node_15</title>
<path fill="none" stroke="black" d="M519.4,-29.79C553.53,-40.31 597.05,-56.88 606.93,-72 615.69,-85.39 615.75,-94.65 606.93,-108 591.29,-131.7 562.64,-144.84 535.85,-152.1"/>
<polygon fill="black" stroke="black" points="535.28,-148.64 526.4,-154.42 536.94,-155.44 535.28,-148.64"/>
</g>
<!-- r3_node_10&#45;&gt;r3_node_11 -->
<g id="edge30" class="edge">
<title>r3_node_10&#45;&gt;r3_node_11</title>
<path fill="none" stroke="black" d="M278.68,-107.8C271.73,-116.56 262.14,-127.43 252.92,-137.06"/>
<polygon fill="black" stroke="black" points="250.57,-134.46 246.05,-144.04 255.56,-139.37 250.57,-134.46"/>
</g>
</g>
</svg>
