<?xml version="1.0" encoding="UTF-8" standalone="no"?>
<!DOCTYPE svg PUBLIC "-//W3C//DTD SVG 1.1//EN"
 "http://www.w3.org/Graphics/SVG/1.1/DTD/svg11.dtd">
<!-- Generated by graphviz version 12.2.1 (20241206.2353)
 -->
<!-- Pages: 1 -->
<svg width="617pt" height="1124pt"
 viewBox="0.00 0.00 616.89 1124.00" xmlns="http://www.w3.org/2000/svg" xmlns:xlink="http://www.w3.org/1999/xlink">
<g id="graph0" class="graph" transform="scale(1 1) rotate(0) translate(4 1120)">
<polygon fill="white" stroke="none" points="-4,4 -4,-1120 612.89,-1120 612.89,4 -4,4"/>
<!-- r2_node_2 -->
<g id="node1" class="node">
<title>r2_node_2</title>
<ellipse fill="none" stroke="black" cx="110.93" cy="-1098" rx="50.33" ry="18"/>
<text text-anchor="middle" x="110.93" y="-1092.95" font-family="Times,serif" font-size="14.00">r2_node_2</text>
</g>
<!-- r2_node_14 -->
<g id="node2" class="node">
<title>r2_node_14</title>
<ellipse fill="none" stroke="black" cx="108.93" cy="-1026" rx="54.93" ry="18"/>
<text text-anchor="middle" x="108.93" y="-1020.95" font-family="Times,serif" font-size="14.00">r2_node_14</text>
</g>
<!-- r2_node_2&#45;&gt;r2_node_14 -->
<g id="edge1" class="edge">
<title>r2_node_2&#45;&gt;r2_node_14</title>
<path fill="none" stroke="black" d="M104.52,-1079.7C103.56,-1072.41 103.07,-1063.73 103.1,-1055.54"/>
<polygon fill="black" stroke="black" points="106.6,-1055.74 103.47,-1045.62 99.6,-1055.48 106.6,-1055.74"/>
</g>
<!-- r2_node_14&#45;&gt;r2_node_2 -->
<g id="edge35" class="edge">
<title>r2_node_14&#45;&gt;r2_node_2</title>
<path fill="none" stroke="black" d="M115.32,-1044.1C116.29,-1051.37 116.79,-1060.04 116.77,-1068.24"/>
<polygon fill="black" stroke="black" points="113.27,-1068.07 116.41,-1078.18 120.27,-1068.32 113.27,-1068.07"/>
</g>
<!-- r2_node_22 -->
<g id="node6" class="node">
<title>r2_node_22</title>
<ellipse fill="none" stroke="black" cx="54.93" cy="-162" rx="54.93" ry="18"/>
<text text-anchor="middle" x="54.93" y="-156.95" font-family="Times,serif" font-size="14.00">r2_node_22</text>
</g>
<!-- r2_node_14&#45;&gt;r2_node_22 -->
<g id="edge36" class="edge">
<title>r2_node_14&#45;&gt;r2_node_22</title>
<path fill="none" stroke="black" d="M95.45,-1008.51C90.89,-998.16 86.97,-984.46 84.93,-972 35.57,-669.96 41.96,-296.73 50.51,-191.69"/>
<polygon fill="black" stroke="black" points="53.99,-192.02 51.42,-181.74 47.02,-191.38 53.99,-192.02"/>
</g>
<!-- r2_node_1 -->
<g id="node29" class="node">
<title>r2_node_1</title>
<ellipse fill="none" stroke="black" cx="152.93" cy="-954" rx="50.33" ry="18"/>
<text text-anchor="middle" x="152.93" y="-948.95" font-family="Times,serif" font-size="14.00">r2_node_1</text>
</g>
<!-- r2_node_14&#45;&gt;r2_node_1 -->
<g id="edge37" class="edge">
<title>r2_node_14&#45;&gt;r2_node_1</title>
<path fill="none" stroke="black" d="M113.89,-1007.7C118.21,-999.49 124.27,-989.52 130.4,-980.48"/>
<polygon fill="black" stroke="black" points="133.21,-982.57 136.12,-972.38 127.49,-978.53 133.21,-982.57"/>
</g>
<!-- r2_node_24 -->
<g id="node3" class="node">
<title>r2_node_24</title>
<ellipse fill="none" stroke="black" cx="157.93" cy="-234" rx="54.93" ry="18"/>
<text text-anchor="middle" x="157.93" y="-228.95" font-family="Times,serif" font-size="14.00">r2_node_24</text>
</g>
<!-- r2_node_3 -->
<g id="node4" class="node">
<title>r2_node_3</title>
<ellipse fill="none" stroke="black" cx="200.93" cy="-162" rx="50.33" ry="18"/>
<text text-anchor="middle" x="200.93" y="-156.95" font-family="Times,serif" font-size="14.00">r2_node_3</text>
</g>
<!-- r2_node_24&#45;&gt;r2_node_3 -->
<g id="edge2" class="edge">
<title>r2_node_24&#45;&gt;r2_node_3</title>
<path fill="none" stroke="black" d="M162.65,-215.7C166.84,-207.49 172.76,-197.52 178.76,-188.48"/>
<polygon fill="black" stroke="black" points="181.55,-190.6 184.36,-180.39 175.79,-186.62 181.55,-190.6"/>
</g>
<!-- r2_node_26 -->
<g id="node5" class="node">
<title>r2_node_26</title>
<ellipse fill="none" stroke="black" cx="137.93" cy="-306" rx="54.93" ry="18"/>
<text text-anchor="middle" x="137.93" y="-300.95" font-family="Times,serif" font-size="14.00">r2_node_26</text>
</g>
<!-- r2_node_24&#45;&gt;r2_node_26 -->
<g id="edge3" class="edge">
<title>r2_node_24&#45;&gt;r2_node_26</title>
<path fill="none" stroke="black" d="M158.91,-252.28C157.53,-259.86 155.16,-268.95 152.42,-277.43"/>
<polygon fill="black" stroke="black" points="149.21,-276.03 149.16,-286.63 155.8,-278.37 149.21,-276.03"/>
</g>
<!-- r2_node_24&#45;&gt;r2_node_22 -->
<g id="edge4" class="edge">
<title>r2_node_24&#45;&gt;r2_node_22</title>
<path fill="none" stroke="black" d="M130.45,-218.15C115.53,-208.81 97.24,-196.54 82.33,-185.96"/>
<polygon fill="black" stroke="black" points="84.48,-183.19 74.32,-180.18 80.38,-188.87 84.48,-183.19"/>
</g>
<!-- r2_node_3&#45;&gt;r2_node_24 -->
<g id="edge11" class="edge">
<title>r2_node_3&#45;&gt;r2_node_24</title>
<path fill="none" stroke="black" d="M196.4,-179.96C192.27,-188.09 186.39,-198.01 180.42,-207.06"/>
<polygon fill="black" stroke="black" points="177.62,-204.95 174.82,-215.17 183.38,-208.92 177.62,-204.95"/>
</g>
<!-- r2_node_21 -->
<g id="node13" class="node">
<title>r2_node_21</title>
<ellipse fill="none" stroke="black" cx="223.93" cy="-90" rx="54.93" ry="18"/>
<text text-anchor="middle" x="223.93" y="-84.95" font-family="Times,serif" font-size="14.00">r2_node_21</text>
</g>
<!-- r2_node_3&#45;&gt;r2_node_21 -->
<g id="edge10" class="edge">
<title>r2_node_3&#45;&gt;r2_node_21</title>
<path fill="none" stroke="black" d="M200.7,-143.7C202.43,-136.04 205.22,-126.85 208.36,-118.3"/>
<polygon fill="black" stroke="black" points="211.61,-119.61 212.07,-109.03 205.11,-117.01 211.61,-119.61"/>
</g>
<!-- r2_node_26&#45;&gt;r2_node_24 -->
<g id="edge27" class="edge">
<title>r2_node_26&#45;&gt;r2_node_24</title>
<path fill="none" stroke="black" d="M136.96,-287.7C138.34,-280.15 140.69,-271.12 143.41,-262.68"/>
<polygon fill="black" stroke="black" points="146.61,-264.13 146.65,-253.53 140.01,-261.79 146.61,-264.13"/>
</g>
<!-- r2_node_15 -->
<g id="node19" class="node">
<title>r2_node_15</title>
<ellipse fill="none" stroke="black" cx="137.93" cy="-378" rx="54.93" ry="18"/>
<text text-anchor="middle" x="137.93" y="-372.95" font-family="Times,serif" font-size="14.00">r2_node_15</text>
</g>
<!-- r2_node_26&#45;&gt;r2_node_15 -->
<g id="edge28" class="edge">
<title>r2_node_26&#45;&gt;r2_node_15</title>
<path fill="none" stroke="black" d="M143.83,-324.1C144.59,-331.37 144.84,-340.04 144.59,-348.24"/>
<polygon fill="black" stroke="black" points="141.1,-347.98 143.95,-358.19 148.08,-348.43 141.1,-347.98"/>
</g>
<!-- r2_node_22&#45;&gt;r2_node_14 -->
<g id="edge45" class="edge">
<title>r2_node_22&#45;&gt;r2_node_14</title>
<path fill="none" stroke="black" d="M57.09,-180.23C60.57,-266.27 51.57,-657.68 102.93,-972 104.25,-980.02 106.34,-988.56 108.22,-996.39"/>
<polygon fill="black" stroke="black" points="104.8,-997.12 110.45,-1006.09 111.62,-995.56 104.8,-997.12"/>
</g>
<!-- r2_node_22&#45;&gt;r2_node_24 -->
<g id="edge43" class="edge">
<title>r2_node_22&#45;&gt;r2_node_24</title>
<path fill="none" stroke="black" d="M82.58,-177.95C97.51,-187.31 115.77,-199.55 130.63,-210.11"/>
<polygon fill="black" stroke="black" points="128.46,-212.86 138.62,-215.88 132.56,-207.19 128.46,-212.86"/>
</g>
<!-- r2_node_30 -->
<g id="node11" class="node">
<title>r2_node_30</title>
<ellipse fill="none" stroke="black" cx="81.93" cy="-90" rx="54.93" ry="18"/>
<text text-anchor="middle" x="81.93" y="-84.95" font-family="Times,serif" font-size="14.00">r2_node_30</text>
</g>
<!-- r2_node_22&#45;&gt;r2_node_30 -->
<g id="edge44" class="edge">
<title>r2_node_22&#45;&gt;r2_node_30</title>
<path fill="none" stroke="black" d="M55.69,-143.7C57.88,-135.95 61.25,-126.64 64.92,-118.02"/>
<polygon fill="black" stroke="black" points="68.07,-119.55 69.05,-109 61.71,-116.63 68.07,-119.55"/>
</g>
<!-- r2_node_19 -->
<g id="node7" class="node">
<title>r2_node_19</title>
<ellipse fill="none" stroke="black" cx="171.93" cy="-738" rx="54.93" ry="18"/>
<text text-anchor="middle" x="171.93" y="-732.95" font-family="Times,serif" font-size="14.00">r2_node_19</text>
</g>
<!-- r2_node_10 -->
<g id="node8" class="node">
<title>r2_node_10</title>
<ellipse fill="none" stroke="black" cx="155.93" cy="-810" rx="54.93" ry="18"/>
<text text-anchor="middle" x="155.93" y="-804.95" font-family="Times,serif" font-size="14.00">r2_node_10</text>
</g>
<!-- r2_node_19&#45;&gt;r2_node_10 -->
<g id="edge5" class="edge">
<title>r2_node_19&#45;&gt;r2_node_10</title>
<path fill="none" stroke="black" d="M173.9,-756.28C172.96,-763.77 171.15,-772.75 168.92,-781.15"/>
<polygon fill="black" stroke="black" points="165.61,-780.02 166.12,-790.6 172.32,-782.01 165.61,-780.02"/>
</g>
<!-- r2_node_18 -->
<g id="node9" class="node">
<title>r2_node_18</title>
<ellipse fill="none" stroke="black" cx="137.93" cy="-450" rx="54.93" ry="18"/>
<text text-anchor="middle" x="137.93" y="-444.95" font-family="Times,serif" font-size="14.00">r2_node_18</text>
</g>
<!-- r2_node_19&#45;&gt;r2_node_18 -->
<g id="edge6" class="edge">
<title>r2_node_19&#45;&gt;r2_node_18</title>
<path fill="none" stroke="black" d="M149.76,-721.12C140.59,-711.21 131.38,-697.76 126.93,-684 104.06,-613.14 115.11,-523.74 126.47,-479.08"/>
<polygon fill="black" stroke="black" points="129.78,-480.25 129.1,-469.68 123.04,-478.37 129.78,-480.25"/>
</g>
<!-- r2_node_7 -->
<g id="node10" class="node">
<title>r2_node_7</title>
<ellipse fill="none" stroke="black" cx="194.93" cy="-666" rx="50.33" ry="18"/>
<text text-anchor="middle" x="194.93" y="-660.95" font-family="Times,serif" font-size="14.00">r2_node_7</text>
</g>
<!-- r2_node_19&#45;&gt;r2_node_7 -->
<g id="edge7" class="edge">
<title>r2_node_19&#45;&gt;r2_node_7</title>
<path fill="none" stroke="black" d="M171.7,-719.7C173.43,-712.04 176.22,-702.85 179.36,-694.3"/>
<polygon fill="black" stroke="black" points="182.61,-695.61 183.07,-685.03 176.11,-693.01 182.61,-695.61"/>
</g>
<!-- r2_node_10&#45;&gt;r2_node_19 -->
<g id="edge30" class="edge">
<title>r2_node_10&#45;&gt;r2_node_19</title>
<path fill="none" stroke="black" d="M153.97,-791.7C154.91,-784.24 156.71,-775.32 158.91,-766.97"/>
<polygon fill="black" stroke="black" points="162.22,-768.14 161.7,-757.56 155.51,-766.15 162.22,-768.14"/>
</g>
<!-- r2_node_11 -->
<g id="node15" class="node">
<title>r2_node_11</title>
<ellipse fill="none" stroke="black" cx="465.93" cy="-378" rx="54.93" ry="18"/>
<text text-anchor="middle" x="465.93" y="-372.95" font-family="Times,serif" font-size="14.00">r2_node_11</text>
</g>
<!-- r2_node_10&#45;&gt;r2_node_11 -->
<g id="edge29" class="edge">
<title>r2_node_10&#45;&gt;r2_node_11</title>
<path fill="none" stroke="black" d="M178.4,-793.13C193.38,-783.78 212.6,-770.88 226.93,-756 335.27,-643.55 416.8,-471.41 450.14,-405.73"/>
<polygon fill="black" stroke="black" points="453.11,-407.62 454.56,-397.12 446.88,-404.42 453.11,-407.62"/>
</g>
<!-- r2_node_9 -->
<g id="node26" class="node">
<title>r2_node_9</title>
<ellipse fill="none" stroke="black" cx="153.93" cy="-882" rx="50.33" ry="18"/>
<text text-anchor="middle" x="153.93" y="-876.95" font-family="Times,serif" font-size="14.00">r2_node_9</text>
</g>
<!-- r2_node_10&#45;&gt;r2_node_9 -->
<g id="edge31" class="edge">
<title>r2_node_10&#45;&gt;r2_node_9</title>
<path fill="none" stroke="black" d="M161.34,-828.1C161.89,-835.37 161.9,-844.04 161.41,-852.24"/>
<polygon fill="black" stroke="black" points="157.93,-851.91 160.48,-862.19 164.9,-852.56 157.93,-851.91"/>
</g>
<!-- r2_node_18&#45;&gt;r2_node_19 -->
<g id="edge16" class="edge">
<title>r2_node_18&#45;&gt;r2_node_19</title>
<path fill="none" stroke="black" d="M138.86,-468.22C135.36,-507.61 120.02,-606.81 144.93,-684 147.91,-693.23 153.04,-702.32 158.15,-710.3"/>
<polygon fill="black" stroke="black" points="155.14,-712.1 163.61,-718.47 160.96,-708.21 155.14,-712.1"/>
</g>
<!-- r2_node_25 -->
<g id="node16" class="node">
<title>r2_node_25</title>
<ellipse fill="none" stroke="black" cx="234.93" cy="-522" rx="54.93" ry="18"/>
<text text-anchor="middle" x="234.93" y="-516.95" font-family="Times,serif" font-size="14.00">r2_node_25</text>
</g>
<!-- r2_node_18&#45;&gt;r2_node_25 -->
<g id="edge17" class="edge">
<title>r2_node_18&#45;&gt;r2_node_25</title>
<path fill="none" stroke="black" d="M164.43,-466.04C178.27,-475.21 195.03,-487.12 208.8,-497.51"/>
<polygon fill="black" stroke="black" points="206.52,-500.18 216.59,-503.49 210.79,-494.62 206.52,-500.18"/>
</g>
<!-- r2_node_6 -->
<g id="node18" class="node">
<title>r2_node_6</title>
<ellipse fill="none" stroke="black" cx="275.93" cy="-378" rx="50.33" ry="18"/>
<text text-anchor="middle" x="275.93" y="-372.95" font-family="Times,serif" font-size="14.00">r2_node_6</text>
</g>
<!-- r2_node_18&#45;&gt;r2_node_6 -->
<g id="edge15" class="edge">
<title>r2_node_18&#45;&gt;r2_node_6</title>
<path fill="none" stroke="black" d="M162.52,-433.64C182.42,-422.89 210.71,-408.49 234.12,-397.17"/>
<polygon fill="black" stroke="black" points="235.61,-400.33 243.12,-392.86 232.59,-394.02 235.61,-400.33"/>
</g>
<!-- r2_node_18&#45;&gt;r2_node_15 -->
<g id="edge18" class="edge">
<title>r2_node_18&#45;&gt;r2_node_15</title>
<path fill="none" stroke="black" d="M132.02,-431.7C131.27,-424.41 131.02,-415.73 131.29,-407.54"/>
<polygon fill="black" stroke="black" points="134.78,-407.82 131.94,-397.61 127.79,-407.36 134.78,-407.82"/>
</g>
<!-- r2_node_7&#45;&gt;r2_node_19 -->
<g id="edge46" class="edge">
<title>r2_node_7&#45;&gt;r2_node_19</title>
<path fill="none" stroke="black" d="M195.17,-684.28C193.46,-691.86 190.71,-700.95 187.6,-709.43"/>
<polygon fill="black" stroke="black" points="184.38,-708.06 183.94,-718.65 190.89,-710.65 184.38,-708.06"/>
</g>
<!-- r2_node_23 -->
<g id="node27" class="node">
<title>r2_node_23</title>
<ellipse fill="none" stroke="black" cx="197.93" cy="-594" rx="54.93" ry="18"/>
<text text-anchor="middle" x="197.93" y="-588.95" font-family="Times,serif" font-size="14.00">r2_node_23</text>
</g>
<!-- r2_node_7&#45;&gt;r2_node_23 -->
<g id="edge47" class="edge">
<title>r2_node_7&#45;&gt;r2_node_23</title>
<path fill="none" stroke="black" d="M189.76,-647.7C189.32,-640.41 189.45,-631.73 190.06,-623.54"/>
<polygon fill="black" stroke="black" points="193.54,-623.93 191.14,-613.61 186.58,-623.17 193.54,-623.93"/>
</g>
<!-- r2_node_30&#45;&gt;r2_node_22 -->
<g id="edge9" class="edge">
<title>r2_node_30&#45;&gt;r2_node_22</title>
<path fill="none" stroke="black" d="M81.18,-108.28C79.02,-115.94 75.69,-125.16 72.06,-133.72"/>
<polygon fill="black" stroke="black" points="68.94,-132.13 67.98,-142.68 75.31,-135.03 68.94,-132.13"/>
</g>
<!-- r2_node_29 -->
<g id="node12" class="node">
<title>r2_node_29</title>
<ellipse fill="none" stroke="black" cx="150.93" cy="-18" rx="54.93" ry="18"/>
<text text-anchor="middle" x="150.93" y="-12.95" font-family="Times,serif" font-size="14.00">r2_node_29</text>
</g>
<!-- r2_node_30&#45;&gt;r2_node_29 -->
<g id="edge8" class="edge">
<title>r2_node_30&#45;&gt;r2_node_29</title>
<path fill="none" stroke="black" d="M92.76,-72.05C100.54,-63.2 111.18,-52.23 121.29,-42.57"/>
<polygon fill="black" stroke="black" points="123.55,-45.24 128.47,-35.86 118.77,-40.13 123.55,-45.24"/>
</g>
<!-- r2_node_29&#45;&gt;r2_node_30 -->
<g id="edge52" class="edge">
<title>r2_node_29&#45;&gt;r2_node_30</title>
<path fill="none" stroke="black" d="M140.24,-35.8C132.46,-44.65 121.81,-55.65 111.67,-65.35"/>
<polygon fill="black" stroke="black" points="109.38,-62.7 104.46,-72.08 114.16,-67.82 109.38,-62.7"/>
</g>
<!-- r2_node_21&#45;&gt;r2_node_3 -->
<g id="edge38" class="edge">
<title>r2_node_21&#45;&gt;r2_node_3</title>
<path fill="none" stroke="black" d="M224.17,-108.28C222.46,-115.86 219.71,-124.95 216.6,-133.43"/>
<polygon fill="black" stroke="black" points="213.38,-132.06 212.94,-142.65 219.89,-134.65 213.38,-132.06"/>
</g>
<!-- r2_node_4 -->
<g id="node14" class="node">
<title>r2_node_4</title>
<ellipse fill="none" stroke="black" cx="303.93" cy="-450" rx="50.33" ry="18"/>
<text text-anchor="middle" x="303.93" y="-444.95" font-family="Times,serif" font-size="14.00">r2_node_4</text>
</g>
<!-- r2_node_4&#45;&gt;r2_node_11 -->
<g id="edge12" class="edge">
<title>r2_node_4&#45;&gt;r2_node_11</title>
<path fill="none" stroke="black" d="M331.54,-434.67C355.78,-423.56 391.36,-408.14 419.88,-396.34"/>
<polygon fill="black" stroke="black" points="421.1,-399.63 429.02,-392.59 418.44,-393.15 421.1,-399.63"/>
</g>
<!-- r2_node_4&#45;&gt;r2_node_25 -->
<g id="edge13" class="edge">
<title>r2_node_4&#45;&gt;r2_node_25</title>
<path fill="none" stroke="black" d="M293.24,-467.8C285.46,-476.65 274.81,-487.65 264.67,-497.35"/>
<polygon fill="black" stroke="black" points="262.38,-494.7 257.46,-504.08 267.16,-499.82 262.38,-494.7"/>
</g>
<!-- r2_node_28 -->
<g id="node17" class="node">
<title>r2_node_28</title>
<ellipse fill="none" stroke="black" cx="312.93" cy="-18" rx="54.93" ry="18"/>
<text text-anchor="middle" x="312.93" y="-12.95" font-family="Times,serif" font-size="14.00">r2_node_28</text>
</g>
<!-- r2_node_4&#45;&gt;r2_node_28 -->
<g id="edge14" class="edge">
<title>r2_node_4&#45;&gt;r2_node_28</title>
<path fill="none" stroke="black" d="M313.76,-432.05C330.02,-413.19 362.07,-382.42 392.93,-360 419.03,-341.05 432.05,-345.67 455.93,-324 484.98,-297.65 495.04,-289.37 506.93,-252 534.89,-164.17 477.87,-127.04 403.93,-72 387.1,-59.47 366.9,-48.16 349.73,-39.25"/>
<polygon fill="black" stroke="black" points="351.33,-36.14 340.84,-34.7 348.15,-42.37 351.33,-36.14"/>
</g>
<!-- r2_node_11&#45;&gt;r2_node_10 -->
<g id="edge53" class="edge">
<title>r2_node_11&#45;&gt;r2_node_10</title>
<path fill="none" stroke="black" d="M462.46,-396.17C443.4,-452.92 359.03,-637.56 244.93,-756 232.13,-769.29 215.44,-781 199.88,-790.01"/>
<polygon fill="black" stroke="black" points="198.27,-786.9 191.2,-794.8 201.65,-793.03 198.27,-786.9"/>
</g>
<!-- r2_node_11&#45;&gt;r2_node_4 -->
<g id="edge54" class="edge">
<title>r2_node_11&#45;&gt;r2_node_4</title>
<path fill="none" stroke="black" d="M437.51,-393.71C412.92,-404.95 377.11,-420.46 348.7,-432.19"/>
<polygon fill="black" stroke="black" points="347.54,-428.88 339.61,-435.91 350.19,-435.36 347.54,-428.88"/>
</g>
<!-- r2_node_16 -->
<g id="node30" class="node">
<title>r2_node_16</title>
<ellipse fill="none" stroke="black" cx="457.93" cy="-18" rx="54.93" ry="18"/>
<text text-anchor="middle" x="457.93" y="-12.95" font-family="Times,serif" font-size="14.00">r2_node_16</text>
</g>
<!-- r2_node_11&#45;&gt;r2_node_16 -->
<g id="edge55" class="edge">
<title>r2_node_11&#45;&gt;r2_node_16</title>
<path fill="none" stroke="black" d="M484.82,-360.84C498.72,-351.14 517.29,-337.99 531.93,-324 561.25,-296 574.78,-290.35 587.93,-252 593.13,-236.87 589.36,-231.94 587.93,-216 585.03,-183.61 590.07,-172.78 574.93,-144 552.78,-101.85 511.46,-65.04 484.16,-42.48"/>
<polygon fill="black" stroke="black" points="486.62,-39.97 476.66,-36.35 482.19,-45.39 486.62,-39.97"/>
</g>
<!-- r2_node_25&#45;&gt;r2_node_18 -->
<g id="edge42" class="edge">
<title>r2_node_25&#45;&gt;r2_node_18</title>
<path fill="none" stroke="black" d="M208.21,-505.81C194.32,-496.6 177.53,-484.65 163.78,-474.27"/>
<polygon fill="black" stroke="black" points="166.08,-471.62 156.02,-468.3 161.81,-477.17 166.08,-471.62"/>
</g>
<!-- r2_node_25&#45;&gt;r2_node_4 -->
<g id="edge40" class="edge">
<title>r2_node_25&#45;&gt;r2_node_4</title>
<path fill="none" stroke="black" d="M245.76,-504.05C253.6,-495.14 264.33,-484.07 274.5,-474.36"/>
<polygon fill="black" stroke="black" points="276.8,-477 281.73,-467.62 272.03,-471.88 276.8,-477"/>
</g>
<!-- r2_node_25&#45;&gt;r2_node_23 -->
<g id="edge41" class="edge">
<title>r2_node_25&#45;&gt;r2_node_23</title>
<path fill="none" stroke="black" d="M231.64,-540.45C228.27,-548.36 223.45,-557.88 218.44,-566.63"/>
<polygon fill="black" stroke="black" points="215.49,-564.74 213.32,-575.11 221.48,-568.36 215.49,-564.74"/>
</g>
<!-- r2_node_28&#45;&gt;r2_node_4 -->
<g id="edge24" class="edge">
<title>r2_node_28&#45;&gt;r2_node_4</title>
<path fill="none" stroke="black" d="M349.86,-31.67C372.03,-41.26 399.87,-55.57 421.93,-72 495.87,-127.04 552.89,-164.17 524.93,-252 513.04,-289.37 502.98,-297.65 473.93,-324 450.05,-345.67 437.03,-341.05 410.93,-360 383.27,-380.09 354.67,-406.88 333.79,-425.81"/>
<polygon fill="black" stroke="black" points="331.57,-423.09 326.47,-432.38 336.25,-428.3 331.57,-423.09"/>
</g>
<!-- r2_node_6&#45;&gt;r2_node_18 -->
<g id="edge25" class="edge">
<title>r2_node_6&#45;&gt;r2_node_18</title>
<path fill="none" stroke="black" d="M251.99,-394.01C232.35,-404.64 204.23,-418.97 180.77,-430.34"/>
<polygon fill="black" stroke="black" points="179.57,-427.03 172.07,-434.52 182.6,-433.35 179.57,-427.03"/>
</g>
<!-- r2_node_5 -->
<g id="node25" class="node">
<title>r2_node_5</title>
<ellipse fill="none" stroke="black" cx="353.93" cy="-90" rx="50.33" ry="18"/>
<text text-anchor="middle" x="353.93" y="-84.95" font-family="Times,serif" font-size="14.00">r2_node_5</text>
</g>
<!-- r2_node_6&#45;&gt;r2_node_5 -->
<g id="edge26" class="edge">
<title>r2_node_6&#45;&gt;r2_node_5</title>
<path fill="none" stroke="black" d="M314.45,-366.17C364.06,-350.81 447.43,-317.02 480.93,-252 510.29,-195.03 435.81,-140.65 388.73,-111.99"/>
<polygon fill="black" stroke="black" points="390.54,-108.99 380.16,-106.88 386.95,-115 390.54,-108.99"/>
</g>
<!-- r2_node_15&#45;&gt;r2_node_26 -->
<g id="edge50" class="edge">
<title>r2_node_15&#45;&gt;r2_node_26</title>
<path fill="none" stroke="black" d="M132.02,-359.7C131.27,-352.41 131.02,-343.73 131.29,-335.54"/>
<polygon fill="black" stroke="black" points="134.78,-335.82 131.94,-325.61 127.79,-335.36 134.78,-335.82"/>
</g>
<!-- r2_node_15&#45;&gt;r2_node_18 -->
<g id="edge49" class="edge">
<title>r2_node_15&#45;&gt;r2_node_18</title>
<path fill="none" stroke="black" d="M143.83,-396.1C144.59,-403.37 144.84,-412.04 144.59,-420.24"/>
<polygon fill="black" stroke="black" points="141.1,-419.98 143.95,-430.19 148.08,-420.43 141.1,-419.98"/>
</g>
<!-- r2_node_17 -->
<g id="node20" class="node">
<title>r2_node_17</title>
<ellipse fill="none" stroke="black" cx="324.93" cy="-306" rx="54.93" ry="18"/>
<text text-anchor="middle" x="324.93" y="-300.95" font-family="Times,serif" font-size="14.00">r2_node_17</text>
</g>
<!-- r2_node_15&#45;&gt;r2_node_17 -->
<g id="edge51" class="edge">
<title>r2_node_15&#45;&gt;r2_node_17</title>
<path fill="none" stroke="black" d="M169.8,-363C199.04,-351.48 242.6,-335.14 276.18,-323.09"/>
<polygon fill="black" stroke="black" points="277.03,-326.5 285.27,-319.84 274.68,-319.91 277.03,-326.5"/>
</g>
<!-- r2_node_17&#45;&gt;r2_node_15 -->
<g id="edge20" class="edge">
<title>r2_node_17&#45;&gt;r2_node_15</title>
<path fill="none" stroke="black" d="M292.98,-321.03C263.75,-332.55 220.27,-348.85 186.74,-360.9"/>
<polygon fill="black" stroke="black" points="185.9,-357.48 177.65,-364.14 188.25,-364.07 185.9,-357.48"/>
</g>
<!-- r2_node_8 -->
<g id="node21" class="node">
<title>r2_node_8</title>
<ellipse fill="none" stroke="black" cx="302.93" cy="-234" rx="50.33" ry="18"/>
<text text-anchor="middle" x="302.93" y="-228.95" font-family="Times,serif" font-size="14.00">r2_node_8</text>
</g>
<!-- r2_node_17&#45;&gt;r2_node_8 -->
<g id="edge19" class="edge">
<title>r2_node_17&#45;&gt;r2_node_8</title>
<path fill="none" stroke="black" d="M313.73,-288.05C310.6,-280.6 307.53,-271.64 305.17,-263.22"/>
<polygon fill="black" stroke="black" points="308.62,-262.61 302.82,-253.74 301.83,-264.29 308.62,-262.61"/>
</g>
<!-- r2_node_12 -->
<g id="node22" class="node">
<title>r2_node_12</title>
<ellipse fill="none" stroke="black" cx="425.93" cy="-234" rx="54.93" ry="18"/>
<text text-anchor="middle" x="425.93" y="-228.95" font-family="Times,serif" font-size="14.00">r2_node_12</text>
</g>
<!-- r2_node_17&#45;&gt;r2_node_12 -->
<g id="edge21" class="edge">
<title>r2_node_17&#45;&gt;r2_node_12</title>
<path fill="none" stroke="black" d="M342.56,-288.76C355.47,-279.07 373.25,-266.64 389.13,-256.17"/>
<polygon fill="black" stroke="black" points="390.96,-259.16 397.44,-250.78 387.15,-253.28 390.96,-259.16"/>
</g>
<!-- r2_node_8&#45;&gt;r2_node_17 -->
<g id="edge56" class="edge">
<title>r2_node_8&#45;&gt;r2_node_17</title>
<path fill="none" stroke="black" d="M314,-251.62C317.17,-259.1 320.27,-268.14 322.66,-276.64"/>
<polygon fill="black" stroke="black" points="319.24,-277.37 325.05,-286.23 326.03,-275.68 319.24,-277.37"/>
</g>
<!-- r2_node_12&#45;&gt;r2_node_17 -->
<g id="edge23" class="edge">
<title>r2_node_12&#45;&gt;r2_node_17</title>
<path fill="none" stroke="black" d="M408.01,-251.46C395.14,-261.12 377.52,-273.43 361.77,-283.81"/>
<polygon fill="black" stroke="black" points="360.01,-280.78 353.53,-289.16 363.82,-286.65 360.01,-280.78"/>
</g>
<!-- r2_node_20 -->
<g id="node23" class="node">
<title>r2_node_20</title>
<ellipse fill="none" stroke="black" cx="374.93" cy="-162" rx="54.93" ry="18"/>
<text text-anchor="middle" x="374.93" y="-156.95" font-family="Times,serif" font-size="14.00">r2_node_20</text>
</g>
<!-- r2_node_12&#45;&gt;r2_node_20 -->
<g id="edge22" class="edge">
<title>r2_node_12&#45;&gt;r2_node_20</title>
<path fill="none" stroke="black" d="M408.3,-216.76C401.52,-208.7 394.01,-198.74 387.74,-189.6"/>
<polygon fill="black" stroke="black" points="390.76,-187.82 382.34,-181.39 384.91,-191.67 390.76,-187.82"/>
</g>
<!-- r2_node_20&#45;&gt;r2_node_12 -->
<g id="edge57" class="edge">
<title>r2_node_20&#45;&gt;r2_node_12</title>
<path fill="none" stroke="black" d="M392.49,-179.14C399.25,-187.18 406.74,-197.1 413.01,-206.23"/>
<polygon fill="black" stroke="black" points="409.99,-208 418.41,-214.43 415.84,-204.16 409.99,-208"/>
</g>
<!-- r2_node_27 -->
<g id="node24" class="node">
<title>r2_node_27</title>
<ellipse fill="none" stroke="black" cx="236.93" cy="-1026" rx="54.93" ry="18"/>
<text text-anchor="middle" x="236.93" y="-1020.95" font-family="Times,serif" font-size="14.00">r2_node_27</text>
</g>
<!-- r2_node_5&#45;&gt;r2_node_6 -->
<g id="edge39" class="edge">
<title>r2_node_5&#45;&gt;r2_node_6</title>
<path fill="none" stroke="black" d="M386.01,-104.25C438.04,-129.9 531.19,-189.39 498.93,-252 466.03,-315.87 384.99,-349.61 330.12,-365.34"/>
<polygon fill="black" stroke="black" points="329.35,-361.92 320.63,-367.94 331.2,-368.67 329.35,-361.92"/>
</g>
<!-- r2_node_9&#45;&gt;r2_node_10 -->
<g id="edge60" class="edge">
<title>r2_node_9&#45;&gt;r2_node_10</title>
<path fill="none" stroke="black" d="M148.51,-863.7C147.97,-856.41 147.97,-847.73 148.47,-839.54"/>
<polygon fill="black" stroke="black" points="151.95,-839.9 149.41,-829.61 144.98,-839.24 151.95,-839.9"/>
</g>
<!-- r2_node_9&#45;&gt;r2_node_1 -->
<g id="edge61" class="edge">
<title>r2_node_9&#45;&gt;r2_node_1</title>
<path fill="none" stroke="black" d="M159.58,-900.1C160.24,-907.37 160.37,-916.04 160,-924.24"/>
<polygon fill="black" stroke="black" points="156.51,-923.94 159.22,-934.19 163.49,-924.49 156.51,-923.94"/>
</g>
<!-- r2_node_23&#45;&gt;r2_node_7 -->
<g id="edge32" class="edge">
<title>r2_node_23&#45;&gt;r2_node_7</title>
<path fill="none" stroke="black" d="M203.1,-612.1C203.55,-619.45 203.42,-628.24 202.8,-636.53"/>
<polygon fill="black" stroke="black" points="199.35,-635.87 201.75,-646.19 206.31,-636.63 199.35,-635.87"/>
</g>
<!-- r2_node_23&#45;&gt;r2_node_25 -->
<g id="edge33" class="edge">
<title>r2_node_23&#45;&gt;r2_node_25</title>
<path fill="none" stroke="black" d="M201.16,-575.7C204.53,-567.78 209.36,-558.23 214.39,-549.44"/>
<polygon fill="black" stroke="black" points="217.36,-551.29 219.52,-540.92 211.37,-547.68 217.36,-551.29"/>
</g>
<!-- r2_node_13 -->
<g id="node28" class="node">
<title>r2_node_13</title>
<ellipse fill="none" stroke="black" cx="234.93" cy="-1098" rx="54.93" ry="18"/>
<text text-anchor="middle" x="234.93" y="-1092.95" font-family="Times,serif" font-size="14.00">r2_node_13</text>
</g>
<!-- r2_node_13&#45;&gt;r2_node_27 -->
<g id="edge34" class="edge">
<title>r2_node_13&#45;&gt;r2_node_27</title>
<path fill="none" stroke="black" d="M235.43,-1079.7C235.64,-1072.41 235.88,-1063.73 236.12,-1055.54"/>
<polygon fill="black" stroke="black" points="239.62,-1055.71 236.4,-1045.62 232.62,-1055.51 239.62,-1055.71"/>
</g>
<!-- r2_node_1&#45;&gt;r2_node_14 -->
<g id="edge59" class="edge">
<title>r2_node_1&#45;&gt;r2_node_14</title>
<path fill="none" stroke="black" d="M148.16,-971.96C143.91,-980.09 137.89,-990.01 131.79,-999.06"/>
<polygon fill="black" stroke="black" points="128.97,-996.98 126.07,-1007.17 134.69,-1001.01 128.97,-996.98"/>
</g>
<!-- r2_node_1&#45;&gt;r2_node_9 -->
<g id="edge58" class="edge">
<title>r2_node_1&#45;&gt;r2_node_9</title>
<path fill="none" stroke="black" d="M147.27,-935.7C146.62,-928.41 146.5,-919.73 146.88,-911.54"/>
<polygon fill="black" stroke="black" points="150.36,-911.86 147.67,-901.61 143.39,-911.3 150.36,-911.86"/>
</g>
<!-- r2_node_16&#45;&gt;r2_node_11 -->
<g id="edge48" class="edge">
<title>r2_node_16&#45;&gt;r2_node_11</title>
<path fill="none" stroke="black" d="M485.84,-33.93C517.61,-54.92 567.7,-96 592.93,-144 608.07,-172.78 603.03,-183.61 605.93,-216 607.36,-231.94 611.13,-236.87 605.93,-252 592.78,-290.35 579.25,-296 549.93,-324 537.19,-336.17 521.48,-347.71 507.01,-356.89"/>
<polygon fill="black" stroke="black" points="505.24,-353.87 498.53,-362.07 508.89,-359.84 505.24,-353.87"/>
</g>
</g>
</svg>
