<?xml version="1.0" encoding="UTF-8" standalone="no"?>
<!DOCTYPE svg PUBLIC "-//W3C//DTD SVG 1.1//EN"
 "http://www.w3.org/Graphics/SVG/1.1/DTD/svg11.dtd">
<!-- Generated by graphviz version 12.2.1 (20241206.2353)
 -->
<!-- Pages: 1 -->
<svg width="1049pt" height="476pt"
 viewBox="0.00 0.00 1049.12 476.00" xmlns="http://www.w3.org/2000/svg" xmlns:xlink="http://www.w3.org/1999/xlink">
<g id="graph0" class="graph" transform="scale(1 1) rotate(0) translate(4 472)">
<polygon fill="white" stroke="none" points="-4,4 -4,-472 1045.12,-472 1045.12,4 -4,4"/>
<!-- r3_node_1 -->
<g id="node1" class="node">
<title>r3_node_1</title>
<ellipse fill="none" stroke="black" cx="215.93" cy="-450" rx="50.33" ry="18"/>
<text text-anchor="middle" x="215.93" y="-444.95" font-family="Times,serif" font-size="14.00">r3_node_1</text>
</g>
<!-- r3_node_15 -->
<g id="node2" class="node">
<title>r3_node_15</title>
<ellipse fill="none" stroke="black" cx="555.93" cy="-18" rx="54.93" ry="18"/>
<text text-anchor="middle" x="555.93" y="-12.95" font-family="Times,serif" font-size="14.00">r3_node_15</text>
</g>
<!-- r3_node_1&#45;&gt;r3_node_15 -->
<g id="edge1" class="edge">
<title>r3_node_1&#45;&gt;r3_node_15</title>
<path fill="none" stroke="black" d="M266.48,-449.84C429.23,-449.38 934.91,-422.26 1034.93,-108 1039.79,-92.75 1045.61,-83.92 1034.93,-72 1007.84,-41.74 746.24,-26.89 621.49,-21.49"/>
<polygon fill="black" stroke="black" points="621.87,-18 611.73,-21.07 621.57,-24.99 621.87,-18"/>
</g>
<!-- r3_node_18 -->
<g id="node3" class="node">
<title>r3_node_18</title>
<ellipse fill="none" stroke="black" cx="351.93" cy="-18" rx="54.93" ry="18"/>
<text text-anchor="middle" x="351.93" y="-12.95" font-family="Times,serif" font-size="14.00">r3_node_18</text>
</g>
<!-- r3_node_1&#45;&gt;r3_node_18 -->
<g id="edge2" class="edge">
<title>r3_node_1&#45;&gt;r3_node_18</title>
<path fill="none" stroke="black" d="M259.42,-440.67C307.55,-431.15 387.28,-414.47 454.93,-396 554.59,-368.79 579.02,-359.78 675.93,-324 715.19,-309.51 723.79,-302.79 762.93,-288 809.08,-270.56 826.46,-278.71 867.93,-252 939.93,-205.64 966.78,-188.51 995.93,-108 1001.38,-92.96 1006.84,-83.71 995.93,-72 957.68,-30.91 547.82,-41.39 491.93,-36 466.16,-33.52 437.79,-30.18 413.37,-27.13"/>
<polygon fill="black" stroke="black" points="413.95,-23.67 403.59,-25.89 413.07,-30.62 413.95,-23.67"/>
</g>
<!-- r3_node_3 -->
<g id="node4" class="node">
<title>r3_node_3</title>
<ellipse fill="none" stroke="black" cx="132.93" cy="-378" rx="50.33" ry="18"/>
<text text-anchor="middle" x="132.93" y="-372.95" font-family="Times,serif" font-size="14.00">r3_node_3</text>
</g>
<!-- r3_node_1&#45;&gt;r3_node_3 -->
<g id="edge3" class="edge">
<title>r3_node_1&#45;&gt;r3_node_3</title>
<path fill="none" stroke="black" d="M192.25,-433.81C180.52,-424.84 166.55,-413.28 155.05,-403.09"/>
<polygon fill="black" stroke="black" points="157.69,-400.76 147.93,-396.64 152.99,-405.95 157.69,-400.76"/>
</g>
<!-- r3_node_5 -->
<g id="node5" class="node">
<title>r3_node_5</title>
<ellipse fill="none" stroke="black" cx="876.93" cy="-162" rx="50.33" ry="18"/>
<text text-anchor="middle" x="876.93" y="-156.95" font-family="Times,serif" font-size="14.00">r3_node_5</text>
</g>
<!-- r3_node_1&#45;&gt;r3_node_5 -->
<g id="edge4" class="edge">
<title>r3_node_1&#45;&gt;r3_node_5</title>
<path fill="none" stroke="black" d="M249.41,-436.11C328.13,-408.3 530.36,-340.95 700.93,-288 754.93,-271.24 779.51,-288.19 822.93,-252 841.92,-236.17 853.73,-210.32 862.02,-190.54"/>
<polygon fill="black" stroke="black" points="865.21,-191.98 865.82,-181.4 858.75,-189.29 865.21,-191.98"/>
</g>
<!-- r3_node_3&#45;&gt;r3_node_1 -->
<g id="edge44" class="edge">
<title>r3_node_3&#45;&gt;r3_node_1</title>
<path fill="none" stroke="black" d="M156.73,-394.27C168.46,-403.25 182.4,-414.8 193.88,-424.97"/>
<polygon fill="black" stroke="black" points="191.22,-427.28 200.98,-431.4 195.92,-422.09 191.22,-427.28"/>
</g>
<!-- r3_node_19 -->
<g id="node6" class="node">
<title>r3_node_19</title>
<ellipse fill="none" stroke="black" cx="448.93" cy="-90" rx="54.93" ry="18"/>
<text text-anchor="middle" x="448.93" y="-84.95" font-family="Times,serif" font-size="14.00">r3_node_19</text>
</g>
<!-- r3_node_3&#45;&gt;r3_node_19 -->
<g id="edge42" class="edge">
<title>r3_node_3&#45;&gt;r3_node_19</title>
<path fill="none" stroke="black" d="M161.36,-362.86C181.22,-352.68 208.15,-338.28 230.93,-324 254.14,-309.46 256.71,-300.76 280.93,-288 322.73,-265.99 344.17,-281.66 380.93,-252 422.09,-218.79 438.73,-156.17 445.15,-119.58"/>
<polygon fill="black" stroke="black" points="448.6,-120.17 446.72,-109.75 441.69,-119.07 448.6,-120.17"/>
</g>
<!-- r3_node_11 -->
<g id="node12" class="node">
<title>r3_node_11</title>
<ellipse fill="none" stroke="black" cx="166.93" cy="-306" rx="54.93" ry="18"/>
<text text-anchor="middle" x="166.93" y="-300.95" font-family="Times,serif" font-size="14.00">r3_node_11</text>
</g>
<!-- r3_node_3&#45;&gt;r3_node_11 -->
<g id="edge40" class="edge">
<title>r3_node_3&#45;&gt;r3_node_11</title>
<path fill="none" stroke="black" d="M135.42,-359.7C138.45,-351.78 142.87,-342.23 147.52,-333.44"/>
<polygon fill="black" stroke="black" points="150.45,-335.38 152.28,-324.94 144.34,-331.96 150.45,-335.38"/>
</g>
<!-- r3_node_6 -->
<g id="node15" class="node">
<title>r3_node_6</title>
<ellipse fill="none" stroke="black" cx="460.93" cy="-306" rx="50.33" ry="18"/>
<text text-anchor="middle" x="460.93" y="-300.95" font-family="Times,serif" font-size="14.00">r3_node_6</text>
</g>
<!-- r3_node_3&#45;&gt;r3_node_6 -->
<g id="edge45" class="edge">
<title>r3_node_3&#45;&gt;r3_node_6</title>
<path fill="none" stroke="black" d="M175.55,-368.27C226.75,-358.52 314.78,-341.77 389.93,-324 395.84,-322.6 402.03,-321.03 408.21,-319.43"/>
<polygon fill="black" stroke="black" points="409.01,-322.84 417.79,-316.91 407.23,-316.07 409.01,-322.84"/>
</g>
<!-- r3_node_17 -->
<g id="node16" class="node">
<title>r3_node_17</title>
<ellipse fill="none" stroke="black" cx="54.93" cy="-18" rx="54.93" ry="18"/>
<text text-anchor="middle" x="54.93" y="-12.95" font-family="Times,serif" font-size="14.00">r3_node_17</text>
</g>
<!-- r3_node_3&#45;&gt;r3_node_17 -->
<g id="edge41" class="edge">
<title>r3_node_3&#45;&gt;r3_node_17</title>
<path fill="none" stroke="black" d="M121.28,-360.08C114.89,-350.03 107.39,-336.78 102.93,-324 68.88,-226.36 58.89,-102.68 56.04,-47.65"/>
<polygon fill="black" stroke="black" points="59.55,-47.72 55.58,-37.9 52.55,-48.05 59.55,-47.72"/>
</g>
<!-- r3_node_7 -->
<g id="node18" class="node">
<title>r3_node_7</title>
<ellipse fill="none" stroke="black" cx="339.93" cy="-306" rx="50.33" ry="18"/>
<text text-anchor="middle" x="339.93" y="-300.95" font-family="Times,serif" font-size="14.00">r3_node_7</text>
</g>
<!-- r3_node_3&#45;&gt;r3_node_7 -->
<g id="edge43" class="edge">
<title>r3_node_3&#45;&gt;r3_node_7</title>
<path fill="none" stroke="black" d="M166,-364C199.94,-351.93 252.93,-333.99 291.57,-321.47"/>
<polygon fill="black" stroke="black" points="292.17,-324.95 300.61,-318.55 290.02,-318.29 292.17,-324.95"/>
</g>
<!-- r3_node_5&#45;&gt;r3_node_1 -->
<g id="edge21" class="edge">
<title>r3_node_5&#45;&gt;r3_node_1</title>
<path fill="none" stroke="black" d="M879.07,-180.36C875.82,-200.48 863.41,-233.27 840.93,-252 797.51,-288.19 772.93,-271.24 718.93,-288 552.05,-339.81 354.87,-405.4 264.9,-434.25"/>
<polygon fill="black" stroke="black" points="263.85,-430.9 255.39,-437.28 265.98,-437.57 263.85,-430.9"/>
</g>
<!-- r3_node_5&#45;&gt;r3_node_15 -->
<g id="edge24" class="edge">
<title>r3_node_5&#45;&gt;r3_node_15</title>
<path fill="none" stroke="black" d="M914.04,-149.42C945.31,-138.82 986.45,-122.61 995.93,-108 1004.65,-94.58 1006.55,-83.97 995.93,-72 971.51,-44.46 737.71,-28.48 621.22,-22.16"/>
<polygon fill="black" stroke="black" points="621.67,-18.68 611.5,-21.64 621.3,-25.67 621.67,-18.68"/>
</g>
<!-- r3_node_5&#45;&gt;r3_node_18 -->
<g id="edge26" class="edge">
<title>r3_node_5&#45;&gt;r3_node_18</title>
<path fill="none" stroke="black" d="M871.78,-143.93C864.52,-123.13 849.16,-88.69 822.93,-72 760.52,-32.27 565.44,-44.46 491.93,-36 466.42,-33.06 438.31,-29.68 414.02,-26.71"/>
<polygon fill="black" stroke="black" points="414.64,-23.26 404.29,-25.51 413.79,-30.21 414.64,-23.26"/>
</g>
<!-- r3_node_4 -->
<g id="node7" class="node">
<title>r3_node_4</title>
<ellipse fill="none" stroke="black" cx="936.93" cy="-90" rx="50.33" ry="18"/>
<text text-anchor="middle" x="936.93" y="-84.95" font-family="Times,serif" font-size="14.00">r3_node_4</text>
</g>
<!-- r3_node_5&#45;&gt;r3_node_4 -->
<g id="edge23" class="edge">
<title>r3_node_5&#45;&gt;r3_node_4</title>
<path fill="none" stroke="black" d="M885.58,-144.05C892.09,-135.38 901.08,-124.67 909.78,-115.15"/>
<polygon fill="black" stroke="black" points="912.27,-117.61 916.57,-107.93 907.17,-112.82 912.27,-117.61"/>
</g>
<!-- r3_node_9 -->
<g id="node13" class="node">
<title>r3_node_9</title>
<ellipse fill="none" stroke="black" cx="772.93" cy="-234" rx="50.33" ry="18"/>
<text text-anchor="middle" x="772.93" y="-228.95" font-family="Times,serif" font-size="14.00">r3_node_9</text>
</g>
<!-- r3_node_5&#45;&gt;r3_node_9 -->
<g id="edge22" class="edge">
<title>r3_node_5&#45;&gt;r3_node_9</title>
<path fill="none" stroke="black" d="M858.66,-179.2C845.04,-189.12 826.17,-201.91 809.55,-212.53"/>
<polygon fill="black" stroke="black" points="807.95,-209.4 801.36,-217.69 811.68,-215.32 807.95,-209.4"/>
</g>
<!-- r3_node_16 -->
<g id="node14" class="node">
<title>r3_node_16</title>
<ellipse fill="none" stroke="black" cx="758.93" cy="-90" rx="54.93" ry="18"/>
<text text-anchor="middle" x="758.93" y="-84.95" font-family="Times,serif" font-size="14.00">r3_node_16</text>
</g>
<!-- r3_node_5&#45;&gt;r3_node_16 -->
<g id="edge25" class="edge">
<title>r3_node_5&#45;&gt;r3_node_16</title>
<path fill="none" stroke="black" d="M851.62,-145.98C834.94,-136.09 812.85,-122.98 794.42,-112.05"/>
<polygon fill="black" stroke="black" points="796.3,-109.1 785.92,-107.01 792.73,-115.12 796.3,-109.1"/>
</g>
<!-- r3_node_4&#45;&gt;r3_node_15 -->
<g id="edge7" class="edge">
<title>r3_node_4&#45;&gt;r3_node_15</title>
<path fill="none" stroke="black" d="M898.15,-78.07C889.87,-75.91 881.14,-73.77 872.93,-72 784.56,-52.92 681.08,-36.76 617,-27.47"/>
<polygon fill="black" stroke="black" points="617.79,-24.05 607.4,-26.09 616.8,-30.98 617.79,-24.05"/>
</g>
<!-- r3_node_4&#45;&gt;r3_node_5 -->
<g id="edge5" class="edge">
<title>r3_node_4&#45;&gt;r3_node_5</title>
<path fill="none" stroke="black" d="M928.4,-107.8C921.89,-116.47 912.89,-127.21 904.16,-136.77"/>
<polygon fill="black" stroke="black" points="901.65,-134.33 897.35,-144.01 906.75,-139.13 901.65,-134.33"/>
</g>
<!-- r3_node_13 -->
<g id="node8" class="node">
<title>r3_node_13</title>
<ellipse fill="none" stroke="black" cx="209.93" cy="-18" rx="54.93" ry="18"/>
<text text-anchor="middle" x="209.93" y="-12.95" font-family="Times,serif" font-size="14.00">r3_node_13</text>
</g>
<!-- r3_node_4&#45;&gt;r3_node_13 -->
<g id="edge6" class="edge">
<title>r3_node_4&#45;&gt;r3_node_13</title>
<path fill="none" stroke="black" d="M892.1,-81.46C871.14,-78.15 845.81,-74.47 822.93,-72 586,-46.4 523.89,-69.47 287.93,-36 280.19,-34.9 272.08,-33.46 264.12,-31.89"/>
<polygon fill="black" stroke="black" points="265.03,-28.5 254.53,-29.89 263.61,-35.35 265.03,-28.5"/>
</g>
<!-- r3_node_10 -->
<g id="node9" class="node">
<title>r3_node_10</title>
<ellipse fill="none" stroke="black" cx="316.93" cy="-234" rx="54.93" ry="18"/>
<text text-anchor="middle" x="316.93" y="-228.95" font-family="Times,serif" font-size="14.00">r3_node_10</text>
</g>
<!-- r3_node_10&#45;&gt;r3_node_19 -->
<g id="edge10" class="edge">
<title>r3_node_10&#45;&gt;r3_node_19</title>
<path fill="none" stroke="black" d="M346.81,-218.69C363.9,-209.43 384.85,-196.09 399.93,-180 416.59,-162.22 429.54,-137.72 437.93,-118.93"/>
<polygon fill="black" stroke="black" points="441.15,-120.31 441.85,-109.74 434.71,-117.56 441.15,-120.31"/>
</g>
<!-- r3_node_10&#45;&gt;r3_node_13 -->
<g id="edge8" class="edge">
<title>r3_node_10&#45;&gt;r3_node_13</title>
<path fill="none" stroke="black" d="M302.48,-216.64C294.74,-206.77 285.99,-193.52 281.93,-180 277.33,-164.68 276.87,-159.18 281.93,-144 288.26,-125.03 302.61,-126.97 308.93,-108 313.99,-92.82 317.16,-85.73 308.93,-72 298.51,-54.59 280.2,-42.58 262.14,-34.45"/>
<polygon fill="black" stroke="black" points="263.57,-31.26 252.99,-30.68 260.9,-37.73 263.57,-31.26"/>
</g>
<!-- r3_node_14 -->
<g id="node10" class="node">
<title>r3_node_14</title>
<ellipse fill="none" stroke="black" cx="244.93" cy="-90" rx="54.93" ry="18"/>
<text text-anchor="middle" x="244.93" y="-84.95" font-family="Times,serif" font-size="14.00">r3_node_14</text>
</g>
<!-- r3_node_10&#45;&gt;r3_node_14 -->
<g id="edge9" class="edge">
<title>r3_node_10&#45;&gt;r3_node_14</title>
<path fill="none" stroke="black" d="M288.14,-218.41C273.67,-209.44 257.45,-196.49 248.93,-180 239.37,-161.49 238.77,-137.82 240.34,-119.54"/>
<polygon fill="black" stroke="black" points="243.81,-119.99 241.48,-109.65 236.85,-119.18 243.81,-119.99"/>
</g>
<!-- r3_node_2 -->
<g id="node11" class="node">
<title>r3_node_2</title>
<ellipse fill="none" stroke="black" cx="340.93" cy="-162" rx="50.33" ry="18"/>
<text text-anchor="middle" x="340.93" y="-156.95" font-family="Times,serif" font-size="14.00">r3_node_2</text>
</g>
<!-- r3_node_10&#45;&gt;r3_node_2 -->
<g id="edge11" class="edge">
<title>r3_node_10&#45;&gt;r3_node_2</title>
<path fill="none" stroke="black" d="M316.95,-215.7C318.81,-207.95 321.77,-198.64 325.08,-190.02"/>
<polygon fill="black" stroke="black" points="328.21,-191.6 328.81,-181.02 321.75,-188.92 328.21,-191.6"/>
</g>
<!-- r3_node_10&#45;&gt;r3_node_11 -->
<g id="edge12" class="edge">
<title>r3_node_10&#45;&gt;r3_node_11</title>
<path fill="none" stroke="black" d="M290.13,-250.16C268.27,-260.97 237.1,-275.57 211.53,-286.98"/>
<polygon fill="black" stroke="black" points="210.43,-283.64 202.7,-290.89 213.26,-290.05 210.43,-283.64"/>
</g>
<!-- r3_node_2&#45;&gt;r3_node_18 -->
<g id="edge27" class="edge">
<title>r3_node_2&#45;&gt;r3_node_18</title>
<path fill="none" stroke="black" d="M342.28,-143.59C344.14,-119.61 347.51,-76.14 349.73,-47.42"/>
<polygon fill="black" stroke="black" points="353.21,-47.86 350.49,-37.62 346.23,-47.32 353.21,-47.86"/>
</g>
<!-- r3_node_2&#45;&gt;r3_node_19 -->
<g id="edge28" class="edge">
<title>r3_node_2&#45;&gt;r3_node_19</title>
<path fill="none" stroke="black" d="M364.64,-145.64C379.58,-135.95 399.11,-123.29 415.61,-112.6"/>
<polygon fill="black" stroke="black" points="417.16,-115.77 423.64,-107.39 413.35,-109.89 417.16,-115.77"/>
</g>
<!-- r3_node_2&#45;&gt;r3_node_10 -->
<g id="edge29" class="edge">
<title>r3_node_2&#45;&gt;r3_node_10</title>
<path fill="none" stroke="black" d="M340.92,-180.28C339.11,-187.86 336.22,-196.95 333,-205.43"/>
<polygon fill="black" stroke="black" points="329.77,-204.08 329.2,-214.66 336.24,-206.74 329.77,-204.08"/>
</g>
<!-- r3_node_2&#45;&gt;r3_node_14 -->
<g id="edge30" class="edge">
<title>r3_node_2&#45;&gt;r3_node_14</title>
<path fill="none" stroke="black" d="M319.63,-145.46C306.76,-136.08 290.14,-123.96 275.84,-113.54"/>
<polygon fill="black" stroke="black" points="278.21,-110.93 268.07,-107.87 274.09,-116.59 278.21,-110.93"/>
</g>
<!-- r3_node_11&#45;&gt;r3_node_3 -->
<g id="edge20" class="edge">
<title>r3_node_11&#45;&gt;r3_node_3</title>
<path fill="none" stroke="black" d="M164.39,-324.45C161.36,-332.36 156.94,-341.88 152.31,-350.63"/>
<polygon fill="black" stroke="black" points="149.4,-348.65 147.57,-359.09 155.51,-352.07 149.4,-348.65"/>
</g>
<!-- r3_node_11&#45;&gt;r3_node_10 -->
<g id="edge19" class="edge">
<title>r3_node_11&#45;&gt;r3_node_10</title>
<path fill="none" stroke="black" d="M193.46,-289.98C215.34,-279.14 246.7,-264.46 272.4,-252.99"/>
<polygon fill="black" stroke="black" points="273.54,-256.31 281.27,-249.07 270.71,-249.91 273.54,-256.31"/>
</g>
<!-- r3_node_11&#45;&gt;r3_node_14 -->
<g id="edge18" class="edge">
<title>r3_node_11&#45;&gt;r3_node_14</title>
<path fill="none" stroke="black" d="M173.19,-287.85C186.62,-250.99 218.36,-163.92 234.74,-118.96"/>
<polygon fill="black" stroke="black" points="238,-120.25 238.13,-109.65 231.42,-117.85 238,-120.25"/>
</g>
<!-- r3_node_9&#45;&gt;r3_node_15 -->
<g id="edge13" class="edge">
<title>r3_node_9&#45;&gt;r3_node_15</title>
<path fill="none" stroke="black" d="M814.32,-223.49C899.34,-202.16 1080.29,-146.48 1013.93,-72 988.3,-43.23 742.15,-27.76 621.69,-21.85"/>
<polygon fill="black" stroke="black" points="622.1,-18.37 611.95,-21.38 621.77,-25.36 622.1,-18.37"/>
</g>
<!-- r3_node_9&#45;&gt;r3_node_5 -->
<g id="edge16" class="edge">
<title>r3_node_9&#45;&gt;r3_node_5</title>
<path fill="none" stroke="black" d="M791.25,-216.76C804.89,-206.84 823.75,-194.05 840.36,-183.44"/>
<polygon fill="black" stroke="black" points="841.95,-186.58 848.55,-178.29 838.22,-180.66 841.95,-186.58"/>
</g>
<!-- r3_node_9&#45;&gt;r3_node_19 -->
<g id="edge15" class="edge">
<title>r3_node_9&#45;&gt;r3_node_19</title>
<path fill="none" stroke="black" d="M741.87,-219.38C683.5,-193.81 557.42,-138.55 491.32,-109.58"/>
<polygon fill="black" stroke="black" points="492.81,-106.41 482.25,-105.6 490,-112.82 492.81,-106.41"/>
</g>
<!-- r3_node_9&#45;&gt;r3_node_16 -->
<g id="edge14" class="edge">
<title>r3_node_9&#45;&gt;r3_node_16</title>
<path fill="none" stroke="black" d="M775.02,-215.83C776.82,-197.83 778.59,-168.77 774.93,-144 773.69,-135.6 771.4,-126.68 768.94,-118.61"/>
<polygon fill="black" stroke="black" points="772.34,-117.74 765.89,-109.33 765.68,-119.93 772.34,-117.74"/>
</g>
<!-- r3_node_9&#45;&gt;r3_node_6 -->
<g id="edge17" class="edge">
<title>r3_node_9&#45;&gt;r3_node_6</title>
<path fill="none" stroke="black" d="M732.81,-245.1C677.36,-258.08 577.36,-280.53 515.27,-293.95"/>
<polygon fill="black" stroke="black" points="514.65,-290.5 505.61,-296.03 516.13,-297.35 514.65,-290.5"/>
</g>
<!-- r3_node_6&#45;&gt;r3_node_18 -->
<g id="edge34" class="edge">
<title>r3_node_6&#45;&gt;r3_node_18</title>
<path fill="none" stroke="black" d="M494.08,-292.15C512.3,-283.45 533.8,-270.2 546.93,-252 593.96,-186.84 613.39,-135.34 563.93,-72 545.64,-48.57 470.31,-33.97 414.62,-26.16"/>
<polygon fill="black" stroke="black" points="415.29,-22.72 404.91,-24.85 414.35,-29.66 415.29,-22.72"/>
</g>
<!-- r3_node_6&#45;&gt;r3_node_3 -->
<g id="edge31" class="edge">
<title>r3_node_6&#45;&gt;r3_node_3</title>
<path fill="none" stroke="black" d="M426.25,-319.37C420.18,-321 413.91,-322.59 407.93,-324 333.12,-341.69 245.55,-358.37 189.59,-368.14"/>
<polygon fill="black" stroke="black" points="189.23,-364.64 179.97,-369.8 190.42,-371.54 189.23,-364.64"/>
</g>
<!-- r3_node_6&#45;&gt;r3_node_9 -->
<g id="edge32" class="edge">
<title>r3_node_6&#45;&gt;r3_node_9</title>
<path fill="none" stroke="black" d="M501.37,-294.82C556.91,-281.83 656.69,-259.43 718.66,-246.04"/>
<polygon fill="black" stroke="black" points="719.25,-249.49 728.29,-243.96 717.78,-242.65 719.25,-249.49"/>
</g>
<!-- r3_node_6&#45;&gt;r3_node_17 -->
<g id="edge33" class="edge">
<title>r3_node_6&#45;&gt;r3_node_17</title>
<path fill="none" stroke="black" d="M421.95,-294.15C414.33,-292.07 406.39,-289.94 398.93,-288 334.26,-271.16 308.86,-288.58 252.93,-252 168.57,-196.82 183.7,-145.71 114.93,-72 105.33,-61.7 93.93,-51.25 83.66,-42.39"/>
<polygon fill="black" stroke="black" points="86.04,-39.82 76.15,-36.02 81.52,-45.16 86.04,-39.82"/>
</g>
<!-- r3_node_12 -->
<g id="node17" class="node">
<title>r3_node_12</title>
<ellipse fill="none" stroke="black" cx="67.93" cy="-450" rx="54.93" ry="18"/>
<text text-anchor="middle" x="67.93" y="-444.95" font-family="Times,serif" font-size="14.00">r3_node_12</text>
</g>
<!-- r3_node_12&#45;&gt;r3_node_16 -->
<g id="edge35" class="edge">
<title>r3_node_12&#45;&gt;r3_node_16</title>
<path fill="none" stroke="black" d="M107.19,-437.16C165.6,-419.66 278.93,-386.13 375.93,-360 439.63,-342.84 462.32,-356.14 519.93,-324 617.23,-269.73 703.18,-165.56 739.96,-117.05"/>
<polygon fill="black" stroke="black" points="742.74,-119.17 745.94,-109.06 737.14,-114.97 742.74,-119.17"/>
</g>
<!-- r3_node_12&#45;&gt;r3_node_17 -->
<g id="edge36" class="edge">
<title>r3_node_12&#45;&gt;r3_node_17</title>
<path fill="none" stroke="black" d="M66.97,-431.62C64.24,-381.46 56.48,-232.11 53.93,-108 53.52,-87.89 53.79,-65.22 54.15,-47.79"/>
<polygon fill="black" stroke="black" points="57.64,-47.99 54.38,-37.91 50.65,-47.83 57.64,-47.99"/>
</g>
<!-- r3_node_7&#45;&gt;r3_node_3 -->
<g id="edge39" class="edge">
<title>r3_node_7&#45;&gt;r3_node_3</title>
<path fill="none" stroke="black" d="M307.04,-319.94C273.11,-332.01 220.02,-349.99 181.33,-362.53"/>
<polygon fill="black" stroke="black" points="180.71,-359.05 172.26,-365.44 182.85,-365.71 180.71,-359.05"/>
</g>
<!-- r3_node_7&#45;&gt;r3_node_17 -->
<g id="edge38" class="edge">
<title>r3_node_7&#45;&gt;r3_node_17</title>
<path fill="none" stroke="black" d="M301.25,-294.19C273.58,-285.39 236.21,-271.27 206.93,-252 169.14,-227.11 159.51,-218 134.93,-180 107.05,-136.89 118.49,-117.09 93.93,-72 88.85,-62.67 82.32,-53.12 76.05,-44.75"/>
<polygon fill="black" stroke="black" points="79,-42.84 70.12,-37.07 73.46,-47.12 79,-42.84"/>
</g>
<!-- r3_node_8 -->
<g id="node19" class="node">
<title>r3_node_8</title>
<ellipse fill="none" stroke="black" cx="487.93" cy="-234" rx="50.33" ry="18"/>
<text text-anchor="middle" x="487.93" y="-228.95" font-family="Times,serif" font-size="14.00">r3_node_8</text>
</g>
<!-- r3_node_7&#45;&gt;r3_node_8 -->
<g id="edge37" class="edge">
<title>r3_node_7&#45;&gt;r3_node_8</title>
<path fill="none" stroke="black" d="M365.69,-290.15C387.51,-279.18 419.07,-264.21 444.71,-252.63"/>
<polygon fill="black" stroke="black" points="445.85,-255.95 453.55,-248.67 442.99,-249.56 445.85,-255.95"/>
</g>
<!-- r3_node_8&#45;&gt;r3_node_15 -->
<g id="edge51" class="edge">
<title>r3_node_8&#45;&gt;r3_node_15</title>
<path fill="none" stroke="black" d="M535.73,-227.77C566.21,-221.68 603.5,-208.5 622.93,-180 652.99,-135.91 609.9,-76.22 580.14,-43.3"/>
<polygon fill="black" stroke="black" points="582.95,-41.19 573.57,-36.26 577.83,-45.96 582.95,-41.19"/>
</g>
<!-- r3_node_8&#45;&gt;r3_node_18 -->
<g id="edge48" class="edge">
<title>r3_node_8&#45;&gt;r3_node_18</title>
<path fill="none" stroke="black" d="M512.96,-217.92C525.69,-208.72 539.92,-195.72 546.93,-180 554.01,-164.13 558.54,-88.27 545.93,-72 529.59,-50.89 463.54,-36.09 413,-27.59"/>
<polygon fill="black" stroke="black" points="413.76,-24.17 403.32,-26.01 412.63,-31.08 413.76,-24.17"/>
</g>
<!-- r3_node_8&#45;&gt;r3_node_19 -->
<g id="edge49" class="edge">
<title>r3_node_8&#45;&gt;r3_node_19</title>
<path fill="none" stroke="black" d="M485.7,-215.69C483.11,-197.57 478.25,-168.41 470.93,-144 468.38,-135.47 464.93,-126.44 461.51,-118.29"/>
<polygon fill="black" stroke="black" points="464.78,-117.02 457.58,-109.25 458.36,-119.82 464.78,-117.02"/>
</g>
<!-- r3_node_8&#45;&gt;r3_node_16 -->
<g id="edge46" class="edge">
<title>r3_node_8&#45;&gt;r3_node_16</title>
<path fill="none" stroke="black" d="M532.02,-225.09C568.32,-217.3 620.25,-203.15 660.93,-180 690.52,-163.17 718.67,-136.03 737.14,-116.14"/>
<polygon fill="black" stroke="black" points="739.53,-118.72 743.67,-108.96 734.35,-114.01 739.53,-118.72"/>
</g>
<!-- r3_node_8&#45;&gt;r3_node_17 -->
<g id="edge47" class="edge">
<title>r3_node_8&#45;&gt;r3_node_17</title>
<path fill="none" stroke="black" d="M498.25,-216.15C516.6,-183.78 549.7,-112.55 512.93,-72 485.41,-41.65 186.5,-41.77 145.93,-36 134.84,-34.42 123.03,-32.44 111.73,-30.4"/>
<polygon fill="black" stroke="black" points="112.59,-27 102.12,-28.62 111.32,-33.88 112.59,-27"/>
</g>
<!-- r3_node_8&#45;&gt;r3_node_7 -->
<g id="edge50" class="edge">
<title>r3_node_8&#45;&gt;r3_node_7</title>
<path fill="none" stroke="black" d="M462.13,-249.87C440.27,-260.86 408.68,-275.85 383.03,-287.43"/>
<polygon fill="black" stroke="black" points="381.89,-284.1 374.19,-291.38 384.75,-290.49 381.89,-284.1"/>
</g>
</g>
</svg>
