<?xml version="1.0" encoding="UTF-8" standalone="no"?>
<!DOCTYPE svg PUBLIC "-//W3C//DTD SVG 1.1//EN"
 "http://www.w3.org/Graphics/SVG/1.1/DTD/svg11.dtd">
<!-- Generated by graphviz version 12.2.1 (20241206.2353)
 -->
<!-- Pages: 1 -->
<svg width="683pt" height="548pt"
 viewBox="0.00 0.00 682.85 548.00" xmlns="http://www.w3.org/2000/svg" xmlns:xlink="http://www.w3.org/1999/xlink">
<g id="graph0" class="graph" transform="scale(1 1) rotate(0) translate(4 544)">
<polygon fill="white" stroke="none" points="-4,4 -4,-544 678.85,-544 678.85,4 -4,4"/>
<!-- r2_node_29 -->
<g id="node1" class="node">
<title>r2_node_29</title>
<ellipse fill="none" stroke="black" cx="80.93" cy="-378" rx="54.93" ry="18"/>
<text text-anchor="middle" x="80.93" y="-372.95" font-family="Times,serif" font-size="14.00">r2_node_29</text>
</g>
<!-- r2_node_23 -->
<g id="node2" class="node">
<title>r2_node_23</title>
<ellipse fill="none" stroke="black" cx="447.93" cy="-18" rx="54.93" ry="18"/>
<text text-anchor="middle" x="447.93" y="-12.95" font-family="Times,serif" font-size="14.00">r2_node_23</text>
</g>
<!-- r2_node_24 -->
<g id="node3" class="node">
<title>r2_node_24</title>
<ellipse fill="none" stroke="black" cx="196.93" cy="-450" rx="54.93" ry="18"/>
<text text-anchor="middle" x="196.93" y="-444.95" font-family="Times,serif" font-size="14.00">r2_node_24</text>
</g>
<!-- r2_node_8 -->
<g id="node4" class="node">
<title>r2_node_8</title>
<ellipse fill="none" stroke="black" cx="447.93" cy="-378" rx="50.33" ry="18"/>
<text text-anchor="middle" x="447.93" y="-372.95" font-family="Times,serif" font-size="14.00">r2_node_8</text>
</g>
<!-- r2_node_24&#45;&gt;r2_node_8 -->
<g id="edge1" class="edge">
<title>r2_node_24&#45;&gt;r2_node_8</title>
<path fill="none" stroke="black" d="M235.39,-436.81C278.44,-424.26 348.23,-404.79 396.07,-391.96"/>
<polygon fill="black" stroke="black" points="396.9,-395.36 405.66,-389.41 395.1,-388.6 396.9,-395.36"/>
</g>
<!-- r2_node_30 -->
<g id="node5" class="node">
<title>r2_node_30</title>
<ellipse fill="none" stroke="black" cx="208.93" cy="-378" rx="54.93" ry="18"/>
<text text-anchor="middle" x="208.93" y="-372.95" font-family="Times,serif" font-size="14.00">r2_node_30</text>
</g>
<!-- r2_node_24&#45;&gt;r2_node_30 -->
<g id="edge2" class="edge">
<title>r2_node_24&#45;&gt;r2_node_30</title>
<path fill="none" stroke="black" d="M193.98,-431.7C194.49,-424.32 195.76,-415.52 197.45,-407.25"/>
<polygon fill="black" stroke="black" points="200.85,-408.12 199.76,-397.58 194.04,-406.49 200.85,-408.12"/>
</g>
<!-- r2_node_10 -->
<g id="node6" class="node">
<title>r2_node_10</title>
<ellipse fill="none" stroke="black" cx="54.93" cy="-162" rx="54.93" ry="18"/>
<text text-anchor="middle" x="54.93" y="-156.95" font-family="Times,serif" font-size="14.00">r2_node_10</text>
</g>
<!-- r2_node_24&#45;&gt;r2_node_10 -->
<g id="edge3" class="edge">
<title>r2_node_24&#45;&gt;r2_node_10</title>
<path fill="none" stroke="black" d="M228.72,-434.88C287.66,-408.93 403.26,-350.53 357.93,-288 327.74,-246.35 295.77,-270.93 247.93,-252 212.81,-238.1 205.44,-231.38 170.93,-216 145.19,-204.53 116.23,-192.21 93.58,-182.34"/>
<polygon fill="black" stroke="black" points="95.29,-179.27 84.73,-178.46 92.48,-185.68 95.29,-179.27"/>
</g>
<!-- r2_node_8&#45;&gt;r2_node_23 -->
<g id="edge25" class="edge">
<title>r2_node_8&#45;&gt;r2_node_23</title>
<path fill="none" stroke="black" d="M496.39,-372.8C528.72,-367.18 569,-354.16 589.93,-324 624.07,-274.82 768.56,-338.4 578.93,-72 569.12,-58.22 531.87,-43.9 499.58,-33.63"/>
<polygon fill="black" stroke="black" points="500.9,-30.38 490.31,-30.76 498.83,-37.06 500.9,-30.38"/>
</g>
<!-- r2_node_8&#45;&gt;r2_node_24 -->
<g id="edge22" class="edge">
<title>r2_node_8&#45;&gt;r2_node_24</title>
<path fill="none" stroke="black" d="M411.19,-390.69C368.85,-403.06 299.1,-422.53 250.68,-435.53"/>
<polygon fill="black" stroke="black" points="250,-432.09 241.24,-438.05 251.81,-438.85 250,-432.09"/>
</g>
<!-- r2_node_3 -->
<g id="node7" class="node">
<title>r2_node_3</title>
<ellipse fill="none" stroke="black" cx="204.93" cy="-90" rx="50.33" ry="18"/>
<text text-anchor="middle" x="204.93" y="-84.95" font-family="Times,serif" font-size="14.00">r2_node_3</text>
</g>
<!-- r2_node_8&#45;&gt;r2_node_3 -->
<g id="edge23" class="edge">
<title>r2_node_8&#45;&gt;r2_node_3</title>
<path fill="none" stroke="black" d="M441.88,-359.82C434.01,-339.88 418.44,-307.26 394.93,-288 357.75,-257.53 333.04,-278.51 292.93,-252 256.72,-228.06 247.45,-218.26 226.93,-180 216.86,-161.22 211.31,-137.74 208.3,-119.61"/>
<polygon fill="black" stroke="black" points="211.78,-119.19 206.86,-109.81 204.85,-120.21 211.78,-119.19"/>
</g>
<!-- r2_node_17 -->
<g id="node20" class="node">
<title>r2_node_17</title>
<ellipse fill="none" stroke="black" cx="525.93" cy="-306" rx="54.93" ry="18"/>
<text text-anchor="middle" x="525.93" y="-300.95" font-family="Times,serif" font-size="14.00">r2_node_17</text>
</g>
<!-- r2_node_8&#45;&gt;r2_node_17 -->
<g id="edge24" class="edge">
<title>r2_node_8&#45;&gt;r2_node_17</title>
<path fill="none" stroke="black" d="M460.58,-360.41C469.71,-351.33 482.23,-339.93 493.93,-330"/>
<polygon fill="black" stroke="black" points="496.03,-332.8 501.48,-323.72 491.55,-327.42 496.03,-332.8"/>
</g>
<!-- r2_node_30&#45;&gt;r2_node_24 -->
<g id="edge18" class="edge">
<title>r2_node_30&#45;&gt;r2_node_24</title>
<path fill="none" stroke="black" d="M211.89,-396.28C211.38,-403.69 210.1,-412.54 208.39,-420.86"/>
<polygon fill="black" stroke="black" points="204.99,-420.04 206.07,-430.58 211.8,-421.67 204.99,-420.04"/>
</g>
<!-- r2_node_5 -->
<g id="node9" class="node">
<title>r2_node_5</title>
<ellipse fill="none" stroke="black" cx="307.93" cy="-306" rx="50.33" ry="18"/>
<text text-anchor="middle" x="307.93" y="-300.95" font-family="Times,serif" font-size="14.00">r2_node_5</text>
</g>
<!-- r2_node_30&#45;&gt;r2_node_5 -->
<g id="edge20" class="edge">
<title>r2_node_30&#45;&gt;r2_node_5</title>
<path fill="none" stroke="black" d="M231.4,-361.12C244.78,-351.65 261.97,-339.5 276.67,-329.11"/>
<polygon fill="black" stroke="black" points="278.52,-332.09 284.66,-323.45 274.48,-326.37 278.52,-332.09"/>
</g>
<!-- r2_node_18 -->
<g id="node13" class="node">
<title>r2_node_18</title>
<ellipse fill="none" stroke="black" cx="115.93" cy="-234" rx="54.93" ry="18"/>
<text text-anchor="middle" x="115.93" y="-228.95" font-family="Times,serif" font-size="14.00">r2_node_18</text>
</g>
<!-- r2_node_30&#45;&gt;r2_node_18 -->
<g id="edge19" class="edge">
<title>r2_node_30&#45;&gt;r2_node_18</title>
<path fill="none" stroke="black" d="M171.48,-364.52C152.62,-356.17 131.39,-343.13 119.93,-324 109.18,-306.04 108.68,-282.19 110.6,-263.7"/>
<polygon fill="black" stroke="black" points="114.05,-264.32 111.92,-253.94 107.11,-263.38 114.05,-264.32"/>
</g>
<!-- r2_node_14 -->
<g id="node14" class="node">
<title>r2_node_14</title>
<ellipse fill="none" stroke="black" cx="183.93" cy="-306" rx="54.93" ry="18"/>
<text text-anchor="middle" x="183.93" y="-300.95" font-family="Times,serif" font-size="14.00">r2_node_14</text>
</g>
<!-- r2_node_30&#45;&gt;r2_node_14 -->
<g id="edge21" class="edge">
<title>r2_node_30&#45;&gt;r2_node_14</title>
<path fill="none" stroke="black" d="M202.75,-359.7C200.06,-352.15 196.83,-343.12 193.82,-334.68"/>
<polygon fill="black" stroke="black" points="197.21,-333.77 190.55,-325.53 190.62,-336.12 197.21,-333.77"/>
</g>
<!-- r2_node_10&#45;&gt;r2_node_24 -->
<g id="edge15" class="edge">
<title>r2_node_10&#45;&gt;r2_node_24</title>
<path fill="none" stroke="black" d="M92.6,-175.55C119.77,-186.1 156.85,-201.71 188.93,-216 223.44,-231.38 230.81,-238.1 265.93,-252 313.77,-270.93 345.74,-246.35 375.93,-288 419.92,-348.68 312.36,-405.47 245.37,-432.5"/>
<polygon fill="black" stroke="black" points="244.43,-429.11 236.4,-436.02 246.99,-435.62 244.43,-429.11"/>
</g>
<!-- r2_node_21 -->
<g id="node16" class="node">
<title>r2_node_21</title>
<ellipse fill="none" stroke="black" cx="356.93" cy="-234" rx="54.93" ry="18"/>
<text text-anchor="middle" x="356.93" y="-228.95" font-family="Times,serif" font-size="14.00">r2_node_21</text>
</g>
<!-- r2_node_10&#45;&gt;r2_node_21 -->
<g id="edge16" class="edge">
<title>r2_node_10&#45;&gt;r2_node_21</title>
<path fill="none" stroke="black" d="M100.29,-172.4C154.8,-184.49 245.94,-205.56 303.72,-219.4"/>
<polygon fill="black" stroke="black" points="302.8,-222.77 313.34,-221.71 304.43,-215.97 302.8,-222.77"/>
</g>
<!-- r2_node_25 -->
<g id="node22" class="node">
<title>r2_node_25</title>
<ellipse fill="none" stroke="black" cx="65.93" cy="-90" rx="54.93" ry="18"/>
<text text-anchor="middle" x="65.93" y="-84.95" font-family="Times,serif" font-size="14.00">r2_node_25</text>
</g>
<!-- r2_node_10&#45;&gt;r2_node_25 -->
<g id="edge17" class="edge">
<title>r2_node_10&#45;&gt;r2_node_25</title>
<path fill="none" stroke="black" d="M51.74,-143.7C52.14,-136.32 53.28,-127.52 54.86,-119.25"/>
<polygon fill="black" stroke="black" points="58.25,-120.1 57.02,-109.58 51.42,-118.58 58.25,-120.1"/>
</g>
<!-- r2_node_6 -->
<g id="node8" class="node">
<title>r2_node_6</title>
<ellipse fill="none" stroke="black" cx="584.93" cy="-18" rx="50.33" ry="18"/>
<text text-anchor="middle" x="584.93" y="-12.95" font-family="Times,serif" font-size="14.00">r2_node_6</text>
</g>
<!-- r2_node_4 -->
<g id="node10" class="node">
<title>r2_node_4</title>
<ellipse fill="none" stroke="black" cx="143.93" cy="-522" rx="50.33" ry="18"/>
<text text-anchor="middle" x="143.93" y="-516.95" font-family="Times,serif" font-size="14.00">r2_node_4</text>
</g>
<!-- r2_node_4&#45;&gt;r2_node_29 -->
<g id="edge5" class="edge">
<title>r2_node_4&#45;&gt;r2_node_29</title>
<path fill="none" stroke="black" d="M136.33,-503.87C125.6,-479.67 105.87,-435.21 93.09,-406.39"/>
<polygon fill="black" stroke="black" points="96.43,-405.29 89.17,-397.57 90.03,-408.13 96.43,-405.29"/>
</g>
<!-- r2_node_4&#45;&gt;r2_node_24 -->
<g id="edge6" class="edge">
<title>r2_node_4&#45;&gt;r2_node_24</title>
<path fill="none" stroke="black" d="M156.49,-504.41C162.67,-496.25 170.27,-486.22 177.2,-477.07"/>
<polygon fill="black" stroke="black" points="179.94,-479.25 183.18,-469.16 174.36,-475.02 179.94,-479.25"/>
</g>
<!-- r2_node_19 -->
<g id="node11" class="node">
<title>r2_node_19</title>
<ellipse fill="none" stroke="black" cx="324.93" cy="-450" rx="54.93" ry="18"/>
<text text-anchor="middle" x="324.93" y="-444.95" font-family="Times,serif" font-size="14.00">r2_node_19</text>
</g>
<!-- r2_node_4&#45;&gt;r2_node_19 -->
<g id="edge4" class="edge">
<title>r2_node_4&#45;&gt;r2_node_19</title>
<path fill="none" stroke="black" d="M177.13,-508.16C206.02,-496.99 248.13,-480.7 280.02,-468.37"/>
<polygon fill="black" stroke="black" points="280.93,-471.77 288.99,-464.9 278.41,-465.24 280.93,-471.77"/>
</g>
<!-- r2_node_26 -->
<g id="node12" class="node">
<title>r2_node_26</title>
<ellipse fill="none" stroke="black" cx="327.93" cy="-90" rx="54.93" ry="18"/>
<text text-anchor="middle" x="327.93" y="-84.95" font-family="Times,serif" font-size="14.00">r2_node_26</text>
</g>
<!-- r2_node_15 -->
<g id="node15" class="node">
<title>r2_node_15</title>
<ellipse fill="none" stroke="black" cx="290.93" cy="-162" rx="54.93" ry="18"/>
<text text-anchor="middle" x="290.93" y="-156.95" font-family="Times,serif" font-size="14.00">r2_node_15</text>
</g>
<!-- r2_node_15&#45;&gt;r2_node_3 -->
<g id="edge10" class="edge">
<title>r2_node_15&#45;&gt;r2_node_3</title>
<path fill="none" stroke="black" d="M270.99,-144.76C259.73,-135.6 245.47,-124 233.09,-113.92"/>
<polygon fill="black" stroke="black" points="235.61,-111.46 225.65,-107.86 231.2,-116.89 235.61,-111.46"/>
</g>
<!-- r2_node_15&#45;&gt;r2_node_26 -->
<g id="edge8" class="edge">
<title>r2_node_15&#45;&gt;r2_node_26</title>
<path fill="none" stroke="black" d="M299.89,-144.05C304.07,-136.14 309.15,-126.54 313.83,-117.69"/>
<polygon fill="black" stroke="black" points="316.77,-119.6 318.35,-109.13 310.59,-116.33 316.77,-119.6"/>
</g>
<!-- r2_node_15&#45;&gt;r2_node_21 -->
<g id="edge7" class="edge">
<title>r2_node_15&#45;&gt;r2_node_21</title>
<path fill="none" stroke="black" d="M311.87,-179.07C320.72,-187.45 330.83,-197.91 339.31,-207.38"/>
<polygon fill="black" stroke="black" points="336.65,-209.65 345.84,-214.91 341.93,-205.07 336.65,-209.65"/>
</g>
<!-- r2_node_27 -->
<g id="node17" class="node">
<title>r2_node_27</title>
<ellipse fill="none" stroke="black" cx="292.93" cy="-18" rx="54.93" ry="18"/>
<text text-anchor="middle" x="292.93" y="-12.95" font-family="Times,serif" font-size="14.00">r2_node_27</text>
</g>
<!-- r2_node_15&#45;&gt;r2_node_27 -->
<g id="edge9" class="edge">
<title>r2_node_15&#45;&gt;r2_node_27</title>
<path fill="none" stroke="black" d="M333.41,-150.11C354.94,-142.21 379.18,-129.1 391.93,-108 400.21,-94.31 400.16,-85.73 391.93,-72 381.51,-54.59 363.2,-42.58 345.14,-34.45"/>
<polygon fill="black" stroke="black" points="346.57,-31.26 335.99,-30.68 343.9,-37.73 346.57,-31.26"/>
</g>
<!-- r2_node_21&#45;&gt;r2_node_10 -->
<g id="edge32" class="edge">
<title>r2_node_21&#45;&gt;r2_node_10</title>
<path fill="none" stroke="black" d="M311.42,-223.56C256.83,-211.45 165.68,-190.38 107.97,-176.56"/>
<polygon fill="black" stroke="black" points="108.91,-173.19 98.37,-174.25 107.27,-179.99 108.91,-173.19"/>
</g>
<!-- r2_node_21&#45;&gt;r2_node_15 -->
<g id="edge31" class="edge">
<title>r2_node_21&#45;&gt;r2_node_15</title>
<path fill="none" stroke="black" d="M336.2,-217.12C327.18,-208.59 316.83,-197.89 308.23,-188.25"/>
<polygon fill="black" stroke="black" points="311.09,-186.21 301.9,-180.94 305.8,-190.79 311.09,-186.21"/>
</g>
<!-- r2_node_21&#45;&gt;r2_node_17 -->
<g id="edge30" class="edge">
<title>r2_node_21&#45;&gt;r2_node_17</title>
<path fill="none" stroke="black" d="M393.29,-247.84C420.68,-258.53 458.05,-273.91 486.21,-286.03"/>
<polygon fill="black" stroke="black" points="484.55,-289.13 495.12,-289.89 487.34,-282.7 484.55,-289.13"/>
</g>
<!-- r2_node_13 -->
<g id="node21" class="node">
<title>r2_node_13</title>
<ellipse fill="none" stroke="black" cx="493.93" cy="-90" rx="54.93" ry="18"/>
<text text-anchor="middle" x="493.93" y="-84.95" font-family="Times,serif" font-size="14.00">r2_node_13</text>
</g>
<!-- r2_node_21&#45;&gt;r2_node_13 -->
<g id="edge33" class="edge">
<title>r2_node_21&#45;&gt;r2_node_13</title>
<path fill="none" stroke="black" d="M366.6,-216C377.86,-197.09 397.77,-166.28 419.93,-144 431.48,-132.39 445.8,-121.5 458.75,-112.65"/>
<polygon fill="black" stroke="black" points="460.67,-115.57 467.07,-107.13 456.8,-109.74 460.67,-115.57"/>
</g>
<!-- r2_node_28 -->
<g id="node18" class="node">
<title>r2_node_28</title>
<ellipse fill="none" stroke="black" cx="485.93" cy="-234" rx="54.93" ry="18"/>
<text text-anchor="middle" x="485.93" y="-228.95" font-family="Times,serif" font-size="14.00">r2_node_28</text>
</g>
<!-- r2_node_28&#45;&gt;r2_node_23 -->
<g id="edge13" class="edge">
<title>r2_node_28&#45;&gt;r2_node_23</title>
<path fill="none" stroke="black" d="M511.35,-217.77C524.45,-208.53 539.44,-195.53 547.93,-180 571.08,-137.71 583.58,-112.82 557.93,-72 545.83,-52.74 524.55,-40.31 503.91,-32.38"/>
<polygon fill="black" stroke="black" points="505.25,-29.14 494.66,-29.13 502.93,-35.74 505.25,-29.14"/>
</g>
<!-- r2_node_28&#45;&gt;r2_node_6 -->
<g id="edge12" class="edge">
<title>r2_node_28&#45;&gt;r2_node_6</title>
<path fill="none" stroke="black" d="M521.26,-219.81C539.14,-211.25 559.44,-198.25 570.93,-180 596.48,-139.44 594.16,-81.3 589.79,-47.12"/>
<polygon fill="black" stroke="black" points="593.31,-46.99 588.42,-37.6 586.38,-47.99 593.31,-46.99"/>
</g>
<!-- r2_node_20 -->
<g id="node19" class="node">
<title>r2_node_20</title>
<ellipse fill="none" stroke="black" cx="483.93" cy="-162" rx="54.93" ry="18"/>
<text text-anchor="middle" x="483.93" y="-156.95" font-family="Times,serif" font-size="14.00">r2_node_20</text>
</g>
<!-- r2_node_28&#45;&gt;r2_node_20 -->
<g id="edge11" class="edge">
<title>r2_node_28&#45;&gt;r2_node_20</title>
<path fill="none" stroke="black" d="M485.44,-215.7C485.23,-208.41 484.98,-199.73 484.75,-191.54"/>
<polygon fill="black" stroke="black" points="488.25,-191.51 484.47,-181.62 481.25,-191.71 488.25,-191.51"/>
</g>
<!-- r2_node_28&#45;&gt;r2_node_17 -->
<g id="edge14" class="edge">
<title>r2_node_28&#45;&gt;r2_node_17</title>
<path fill="none" stroke="black" d="M501.28,-251.62C506.54,-259.36 512.17,-268.76 516.83,-277.51"/>
<polygon fill="black" stroke="black" points="513.66,-278.99 521.28,-286.34 519.91,-275.84 513.66,-278.99"/>
</g>
<!-- r2_node_17&#45;&gt;r2_node_8 -->
<g id="edge27" class="edge">
<title>r2_node_17&#45;&gt;r2_node_8</title>
<path fill="none" stroke="black" d="M513,-323.88C503.72,-333.09 491.04,-344.61 479.28,-354.57"/>
<polygon fill="black" stroke="black" points="477.17,-351.77 471.7,-360.85 481.64,-357.16 477.17,-351.77"/>
</g>
<!-- r2_node_17&#45;&gt;r2_node_6 -->
<g id="edge26" class="edge">
<title>r2_node_17&#45;&gt;r2_node_6</title>
<path fill="none" stroke="black" d="M537.03,-287.94C551.76,-264.54 577.57,-220.73 591.93,-180 602.77,-149.26 602.81,-140.45 605.93,-108 607.47,-92.07 608.93,-87.72 605.93,-72 604.32,-63.54 601.38,-54.71 598.2,-46.74"/>
<polygon fill="black" stroke="black" points="601.41,-45.36 594.25,-37.56 594.98,-48.13 601.41,-45.36"/>
</g>
<!-- r2_node_17&#45;&gt;r2_node_21 -->
<g id="edge28" class="edge">
<title>r2_node_17&#45;&gt;r2_node_21</title>
<path fill="none" stroke="black" d="M489.57,-292.16C462.24,-281.49 424.95,-266.14 396.81,-254.04"/>
<polygon fill="black" stroke="black" points="398.47,-250.94 387.9,-250.17 395.68,-257.36 398.47,-250.94"/>
</g>
<!-- r2_node_17&#45;&gt;r2_node_28 -->
<g id="edge29" class="edge">
<title>r2_node_17&#45;&gt;r2_node_28</title>
<path fill="none" stroke="black" d="M510.61,-288.41C505.37,-280.71 499.76,-271.34 495.1,-262.62"/>
<polygon fill="black" stroke="black" points="498.28,-261.15 490.65,-253.8 492.03,-264.3 498.28,-261.15"/>
</g>
<!-- r2_node_25&#45;&gt;r2_node_23 -->
<g id="edge34" class="edge">
<title>r2_node_25&#45;&gt;r2_node_23</title>
<path fill="none" stroke="black" d="M110.72,-79.15C122.18,-76.72 134.5,-74.19 145.93,-72 239.37,-54.11 263.28,-52.74 356.93,-36 367.62,-34.09 379,-32.01 389.97,-29.97"/>
<polygon fill="black" stroke="black" points="390.52,-33.43 399.71,-28.15 389.24,-26.55 390.52,-33.43"/>
</g>
<!-- r2_node_25&#45;&gt;r2_node_10 -->
<g id="edge36" class="edge">
<title>r2_node_25&#45;&gt;r2_node_10</title>
<path fill="none" stroke="black" d="M69.13,-108.28C68.73,-115.69 67.58,-124.54 65.99,-132.86"/>
<polygon fill="black" stroke="black" points="62.58,-132.05 63.81,-142.58 69.41,-133.59 62.58,-132.05"/>
</g>
<!-- r2_node_25&#45;&gt;r2_node_27 -->
<g id="edge37" class="edge">
<title>r2_node_25&#45;&gt;r2_node_27</title>
<path fill="none" stroke="black" d="M104.96,-76.97C143.16,-65.19 201.52,-47.19 243.07,-34.38"/>
<polygon fill="black" stroke="black" points="244.07,-37.73 252.6,-31.44 242.01,-31.04 244.07,-37.73"/>
</g>
<!-- r2_node_7 -->
<g id="node23" class="node">
<title>r2_node_7</title>
<ellipse fill="none" stroke="black" cx="114.93" cy="-18" rx="50.33" ry="18"/>
<text text-anchor="middle" x="114.93" y="-12.95" font-family="Times,serif" font-size="14.00">r2_node_7</text>
</g>
<!-- r2_node_25&#45;&gt;r2_node_7 -->
<g id="edge35" class="edge">
<title>r2_node_25&#45;&gt;r2_node_7</title>
<path fill="none" stroke="black" d="M77.8,-72.05C83.45,-63.97 90.35,-54.12 96.66,-45.11"/>
<polygon fill="black" stroke="black" points="99.45,-47.23 102.31,-37.03 93.71,-43.21 99.45,-47.23"/>
</g>
</g>
</svg>
