<?xml version="1.0" encoding="UTF-8" standalone="no"?>
<!DOCTYPE svg PUBLIC "-//W3C//DTD SVG 1.1//EN"
 "http://www.w3.org/Graphics/SVG/1.1/DTD/svg11.dtd">
<!-- Generated by graphviz version 12.2.1 (20241206.2353)
 -->
<!-- Pages: 1 -->
<svg width="1249pt" height="332pt"
 viewBox="0.00 0.00 1249.06 332.00" xmlns="http://www.w3.org/2000/svg" xmlns:xlink="http://www.w3.org/1999/xlink">
<g id="graph0" class="graph" transform="scale(1 1) rotate(0) translate(4 328)">
<polygon fill="white" stroke="none" points="-4,4 -4,-328 1245.06,-328 1245.06,4 -4,4"/>
<!-- r1_node_4 -->
<g id="node1" class="node">
<title>r1_node_4</title>
<ellipse fill="none" stroke="black" cx="55.93" cy="-306" rx="50.33" ry="18"/>
<text text-anchor="middle" x="55.93" y="-300.95" font-family="Times,serif" font-size="14.00">r1_node_4</text>
</g>
<!-- r1_node_3 -->
<g id="node2" class="node">
<title>r1_node_3</title>
<ellipse fill="none" stroke="black" cx="521.93" cy="-234" rx="50.33" ry="18"/>
<text text-anchor="middle" x="521.93" y="-228.95" font-family="Times,serif" font-size="14.00">r1_node_3</text>
</g>
<!-- r1_node_4&#45;&gt;r1_node_3 -->
<g id="edge1" class="edge">
<title>r1_node_4&#45;&gt;r1_node_3</title>
<path fill="none" stroke="black" d="M101.01,-297.58C186.12,-284.32 370.03,-256.68 464.1,-243.01"/>
<polygon fill="black" stroke="black" points="464.49,-246.49 473.88,-241.6 463.49,-239.57 464.49,-246.49"/>
</g>
<!-- r1_node_7 -->
<g id="node3" class="node">
<title>r1_node_7</title>
<ellipse fill="none" stroke="black" cx="307.93" cy="-234" rx="50.33" ry="18"/>
<text text-anchor="middle" x="307.93" y="-228.95" font-family="Times,serif" font-size="14.00">r1_node_7</text>
</g>
<!-- r1_node_4&#45;&gt;r1_node_7 -->
<g id="edge2" class="edge">
<title>r1_node_4&#45;&gt;r1_node_7</title>
<path fill="none" stroke="black" d="M92.1,-293.02C128.89,-282.28 187.21,-266.11 237.93,-252 243.42,-250.47 249.18,-248.87 254.96,-247.28"/>
<polygon fill="black" stroke="black" points="255.83,-250.67 264.56,-244.67 254,-243.92 255.83,-250.67"/>
</g>
<!-- r1_node_8 -->
<g id="node4" class="node">
<title>r1_node_8</title>
<ellipse fill="none" stroke="black" cx="151.93" cy="-162" rx="50.33" ry="18"/>
<text text-anchor="middle" x="151.93" y="-156.95" font-family="Times,serif" font-size="14.00">r1_node_8</text>
</g>
<!-- r1_node_4&#45;&gt;r1_node_8 -->
<g id="edge3" class="edge">
<title>r1_node_4&#45;&gt;r1_node_8</title>
<path fill="none" stroke="black" d="M62.93,-287.87C77.07,-263.09 107.95,-217.05 129.5,-188.33"/>
<polygon fill="black" stroke="black" points="132.18,-190.58 135.49,-180.51 126.63,-186.32 132.18,-190.58"/>
</g>
<!-- r1_node_9 -->
<g id="node5" class="node">
<title>r1_node_9</title>
<ellipse fill="none" stroke="black" cx="380.93" cy="-90" rx="50.33" ry="18"/>
<text text-anchor="middle" x="380.93" y="-84.95" font-family="Times,serif" font-size="14.00">r1_node_9</text>
</g>
<!-- r1_node_4&#45;&gt;r1_node_9 -->
<g id="edge4" class="edge">
<title>r1_node_4&#45;&gt;r1_node_9</title>
<path fill="none" stroke="black" d="M103.7,-300C186.35,-290.89 348.95,-270.8 366.93,-252 400.56,-216.84 395.06,-155.45 388.01,-119.49"/>
<polygon fill="black" stroke="black" points="391.45,-118.86 385.93,-109.82 384.61,-120.33 391.45,-118.86"/>
</g>
<!-- r1_node_11 -->
<g id="node6" class="node">
<title>r1_node_11</title>
<ellipse fill="none" stroke="black" cx="182.93" cy="-234" rx="54.93" ry="18"/>
<text text-anchor="middle" x="182.93" y="-228.95" font-family="Times,serif" font-size="14.00">r1_node_11</text>
</g>
<!-- r1_node_4&#45;&gt;r1_node_11 -->
<g id="edge5" class="edge">
<title>r1_node_4&#45;&gt;r1_node_11</title>
<path fill="none" stroke="black" d="M78.4,-289.46C96.01,-279.08 120.8,-265.34 141.88,-254.26"/>
<polygon fill="black" stroke="black" points="143.28,-257.48 150.54,-249.76 140.05,-251.27 143.28,-257.48"/>
</g>
<!-- r1_node_19 -->
<g id="node7" class="node">
<title>r1_node_19</title>
<ellipse fill="none" stroke="black" cx="54.93" cy="-18" rx="54.93" ry="18"/>
<text text-anchor="middle" x="54.93" y="-12.95" font-family="Times,serif" font-size="14.00">r1_node_19</text>
</g>
<!-- r1_node_4&#45;&gt;r1_node_19 -->
<g id="edge6" class="edge">
<title>r1_node_4&#45;&gt;r1_node_19</title>
<path fill="none" stroke="black" d="M55.34,-287.75C54.08,-249.12 51.41,-152.69 52.93,-72 53.08,-64.05 53.36,-55.44 53.66,-47.51"/>
<polygon fill="black" stroke="black" points="57.15,-47.83 54.06,-37.69 50.16,-47.54 57.15,-47.83"/>
</g>
<!-- r1_node_3&#45;&gt;r1_node_4 -->
<g id="edge32" class="edge">
<title>r1_node_3&#45;&gt;r1_node_4</title>
<path fill="none" stroke="black" d="M476.91,-242.42C391.74,-255.69 207.46,-283.37 113.47,-297.03"/>
<polygon fill="black" stroke="black" points="113.08,-293.55 103.69,-298.45 114.09,-300.48 113.08,-293.55"/>
</g>
<!-- r1_node_18 -->
<g id="node8" class="node">
<title>r1_node_18</title>
<ellipse fill="none" stroke="black" cx="290.93" cy="-162" rx="54.93" ry="18"/>
<text text-anchor="middle" x="290.93" y="-156.95" font-family="Times,serif" font-size="14.00">r1_node_18</text>
</g>
<!-- r1_node_3&#45;&gt;r1_node_18 -->
<g id="edge30" class="edge">
<title>r1_node_3&#45;&gt;r1_node_18</title>
<path fill="none" stroke="black" d="M484.31,-221.6C445.26,-209.77 383.99,-191.2 340.9,-178.14"/>
<polygon fill="black" stroke="black" points="342.13,-174.86 331.54,-175.3 340.1,-181.55 342.13,-174.86"/>
</g>
<!-- r1_node_16 -->
<g id="node10" class="node">
<title>r1_node_16</title>
<ellipse fill="none" stroke="black" cx="858.93" cy="-18" rx="54.93" ry="18"/>
<text text-anchor="middle" x="858.93" y="-12.95" font-family="Times,serif" font-size="14.00">r1_node_16</text>
</g>
<!-- r1_node_3&#45;&gt;r1_node_16 -->
<g id="edge29" class="edge">
<title>r1_node_3&#45;&gt;r1_node_16</title>
<path fill="none" stroke="black" d="M564.49,-224.05C648.33,-205.42 829.65,-159.88 862.93,-108 874.36,-90.19 872.43,-65.99 868.16,-47.33"/>
<polygon fill="black" stroke="black" points="871.55,-46.48 865.6,-37.72 864.79,-48.28 871.55,-46.48"/>
</g>
<!-- r1_node_20 -->
<g id="node13" class="node">
<title>r1_node_20</title>
<ellipse fill="none" stroke="black" cx="240.93" cy="-18" rx="54.93" ry="18"/>
<text text-anchor="middle" x="240.93" y="-12.95" font-family="Times,serif" font-size="14.00">r1_node_20</text>
</g>
<!-- r1_node_3&#45;&gt;r1_node_20 -->
<g id="edge31" class="edge">
<title>r1_node_3&#45;&gt;r1_node_20</title>
<path fill="none" stroke="black" d="M522.73,-215.57C523.21,-182.53 519.23,-110.65 478.93,-72 454.27,-48.35 366.05,-33.45 304.25,-25.67"/>
<polygon fill="black" stroke="black" points="304.9,-22.22 294.55,-24.48 304.05,-29.17 304.9,-22.22"/>
</g>
<!-- r1_node_14 -->
<g id="node14" class="node">
<title>r1_node_14</title>
<ellipse fill="none" stroke="black" cx="688.93" cy="-18" rx="54.93" ry="18"/>
<text text-anchor="middle" x="688.93" y="-12.95" font-family="Times,serif" font-size="14.00">r1_node_14</text>
</g>
<!-- r1_node_3&#45;&gt;r1_node_14 -->
<g id="edge28" class="edge">
<title>r1_node_3&#45;&gt;r1_node_14</title>
<path fill="none" stroke="black" d="M553.72,-219.64C612.33,-195 731.68,-144.84 733.93,-144 782.55,-125.95 814.44,-149.95 844.93,-108 874.76,-66.98 803.7,-42.15 747.92,-29.51"/>
<polygon fill="black" stroke="black" points="749,-26.16 738.49,-27.46 747.52,-33 749,-26.16"/>
</g>
<!-- r1_node_6 -->
<g id="node17" class="node">
<title>r1_node_6</title>
<ellipse fill="none" stroke="black" cx="588.93" cy="-162" rx="50.33" ry="18"/>
<text text-anchor="middle" x="588.93" y="-156.95" font-family="Times,serif" font-size="14.00">r1_node_6</text>
</g>
<!-- r1_node_3&#45;&gt;r1_node_6 -->
<g id="edge33" class="edge">
<title>r1_node_3&#45;&gt;r1_node_6</title>
<path fill="none" stroke="black" d="M532.27,-216.05C539.81,-207.2 550.13,-196.23 559.96,-186.57"/>
<polygon fill="black" stroke="black" points="562.14,-189.32 566.94,-179.88 557.3,-184.27 562.14,-189.32"/>
</g>
<!-- r1_node_7&#45;&gt;r1_node_4 -->
<g id="edge10" class="edge">
<title>r1_node_7&#45;&gt;r1_node_4</title>
<path fill="none" stroke="black" d="M272.88,-247.26C267.23,-248.86 261.44,-250.47 255.93,-252 206.08,-265.86 148.9,-281.73 108.37,-292.46"/>
<polygon fill="black" stroke="black" points="107.65,-289.03 98.87,-294.96 109.43,-295.8 107.65,-289.03"/>
</g>
<!-- r1_node_7&#45;&gt;r1_node_8 -->
<g id="edge7" class="edge">
<title>r1_node_7&#45;&gt;r1_node_8</title>
<path fill="none" stroke="black" d="M274.34,-220.32C249.24,-209.76 215.07,-194.55 189.15,-182.44"/>
<polygon fill="black" stroke="black" points="190.86,-179.38 180.32,-178.29 187.88,-185.71 190.86,-179.38"/>
</g>
<!-- r1_node_7&#45;&gt;r1_node_9 -->
<g id="edge8" class="edge">
<title>r1_node_7&#45;&gt;r1_node_9</title>
<path fill="none" stroke="black" d="M325.72,-216.83C335.57,-207.03 347.32,-193.78 354.93,-180 365.36,-161.14 371.99,-137.66 375.95,-119.55"/>
<polygon fill="black" stroke="black" points="379.38,-120.25 377.92,-109.75 372.51,-118.86 379.38,-120.25"/>
</g>
<!-- r1_node_7&#45;&gt;r1_node_18 -->
<g id="edge9" class="edge">
<title>r1_node_7&#45;&gt;r1_node_18</title>
<path fill="none" stroke="black" d="M303.73,-215.7C301.94,-208.32 299.8,-199.52 297.79,-191.25"/>
<polygon fill="black" stroke="black" points="301.21,-190.47 295.45,-181.58 294.4,-192.12 301.21,-190.47"/>
</g>
<!-- r1_node_8&#45;&gt;r1_node_4 -->
<g id="edge36" class="edge">
<title>r1_node_8&#45;&gt;r1_node_4</title>
<path fill="none" stroke="black" d="M145.07,-179.9C131.04,-204.55 100.2,-250.55 78.59,-279.37"/>
<polygon fill="black" stroke="black" points="75.88,-277.16 72.58,-287.23 81.44,-281.42 75.88,-277.16"/>
</g>
<!-- r1_node_8&#45;&gt;r1_node_7 -->
<g id="edge35" class="edge">
<title>r1_node_8&#45;&gt;r1_node_7</title>
<path fill="none" stroke="black" d="M185.63,-175.72C210.83,-186.32 245.1,-201.59 271.01,-213.69"/>
<polygon fill="black" stroke="black" points="269.3,-216.75 279.83,-217.85 272.28,-210.42 269.3,-216.75"/>
</g>
<!-- r1_node_8&#45;&gt;r1_node_9 -->
<g id="edge37" class="edge">
<title>r1_node_8&#45;&gt;r1_node_9</title>
<path fill="none" stroke="black" d="M189.24,-149.6C228.33,-137.65 289.89,-118.83 332.66,-105.76"/>
<polygon fill="black" stroke="black" points="333.66,-109.11 342.2,-102.84 331.61,-102.42 333.66,-109.11"/>
</g>
<!-- r1_node_8&#45;&gt;r1_node_20 -->
<g id="edge34" class="edge">
<title>r1_node_8&#45;&gt;r1_node_20</title>
<path fill="none" stroke="black" d="M196.97,-153.63C223.66,-146.69 255.4,-133.38 271.93,-108 284.5,-88.71 273.89,-63.74 261.78,-45.16"/>
<polygon fill="black" stroke="black" points="264.71,-43.24 256.1,-37.07 258.98,-47.26 264.71,-43.24"/>
</g>
<!-- r1_node_17 -->
<g id="node18" class="node">
<title>r1_node_17</title>
<ellipse fill="none" stroke="black" cx="207.93" cy="-90" rx="54.93" ry="18"/>
<text text-anchor="middle" x="207.93" y="-84.95" font-family="Times,serif" font-size="14.00">r1_node_17</text>
</g>
<!-- r1_node_8&#45;&gt;r1_node_17 -->
<g id="edge38" class="edge">
<title>r1_node_8&#45;&gt;r1_node_17</title>
<path fill="none" stroke="black" d="M165.21,-144.41C171.9,-136.04 180.17,-125.71 187.64,-116.37"/>
<polygon fill="black" stroke="black" points="190.3,-118.65 193.81,-108.65 184.83,-114.27 190.3,-118.65"/>
</g>
<!-- r1_node_11&#45;&gt;r1_node_4 -->
<g id="edge21" class="edge">
<title>r1_node_11&#45;&gt;r1_node_4</title>
<path fill="none" stroke="black" d="M159.97,-250.83C142.16,-261.31 117.23,-275.11 96.18,-286.16"/>
<polygon fill="black" stroke="black" points="94.81,-282.93 87.55,-290.64 98.04,-289.14 94.81,-282.93"/>
</g>
<!-- r1_node_11&#45;&gt;r1_node_19 -->
<g id="edge20" class="edge">
<title>r1_node_11&#45;&gt;r1_node_19</title>
<path fill="none" stroke="black" d="M147.37,-220.11C128.5,-211.52 106.49,-198.39 92.93,-180 63.82,-140.5 56.64,-82.01 55.09,-47.47"/>
<polygon fill="black" stroke="black" points="58.6,-47.73 54.79,-37.84 51.6,-47.94 58.6,-47.73"/>
</g>
<!-- r1_node_11&#45;&gt;r1_node_18 -->
<g id="edge22" class="edge">
<title>r1_node_11&#45;&gt;r1_node_18</title>
<path fill="none" stroke="black" d="M206.9,-217.46C221.86,-207.77 241.33,-195.15 257.77,-184.5"/>
<polygon fill="black" stroke="black" points="259.27,-187.69 265.76,-179.32 255.47,-181.82 259.27,-187.69"/>
</g>
<!-- r1_node_1 -->
<g id="node9" class="node">
<title>r1_node_1</title>
<ellipse fill="none" stroke="black" cx="740.93" cy="-306" rx="50.33" ry="18"/>
<text text-anchor="middle" x="740.93" y="-300.95" font-family="Times,serif" font-size="14.00">r1_node_1</text>
</g>
<!-- r1_node_1&#45;&gt;r1_node_16 -->
<g id="edge11" class="edge">
<title>r1_node_1&#45;&gt;r1_node_16</title>
<path fill="none" stroke="black" d="M791.12,-303.46C897.04,-297.09 1141.28,-265.23 1233.93,-108 1242.06,-94.22 1244.43,-84.08 1233.93,-72 1194.78,-26.92 1022.44,-19.13 925.6,-18.41"/>
<polygon fill="black" stroke="black" points="925.71,-14.91 915.69,-18.36 925.67,-21.91 925.71,-14.91"/>
</g>
<!-- r1_node_2 -->
<g id="node11" class="node">
<title>r1_node_2</title>
<ellipse fill="none" stroke="black" cx="529.93" cy="-306" rx="50.33" ry="18"/>
<text text-anchor="middle" x="529.93" y="-300.95" font-family="Times,serif" font-size="14.00">r1_node_2</text>
</g>
<!-- r1_node_2&#45;&gt;r1_node_16 -->
<g id="edge16" class="edge">
<title>r1_node_2&#45;&gt;r1_node_16</title>
<path fill="none" stroke="black" d="M577.65,-299.95C663.14,-290.61 838.96,-269.94 897.93,-252 968.68,-230.48 981.35,-212.18 1047.93,-180 1113.8,-148.17 1157.14,-170.01 1195.93,-108 1204.42,-94.44 1206.33,-84.16 1195.93,-72 1161.86,-32.15 1013.73,-22.07 925.6,-19.64"/>
<polygon fill="black" stroke="black" points="925.7,-16.14 915.62,-19.4 925.53,-23.14 925.7,-16.14"/>
</g>
<!-- r1_node_12 -->
<g id="node12" class="node">
<title>r1_node_12</title>
<ellipse fill="none" stroke="black" cx="984.93" cy="-90" rx="54.93" ry="18"/>
<text text-anchor="middle" x="984.93" y="-84.95" font-family="Times,serif" font-size="14.00">r1_node_12</text>
</g>
<!-- r1_node_2&#45;&gt;r1_node_12 -->
<g id="edge12" class="edge">
<title>r1_node_2&#45;&gt;r1_node_12</title>
<path fill="none" stroke="black" d="M563.6,-292.33C590.46,-282.01 628.92,-266.8 661.93,-252 766.84,-204.98 887.3,-142.66 947.12,-111.12"/>
<polygon fill="black" stroke="black" points="948.68,-114.25 955.88,-106.49 945.41,-108.06 948.68,-114.25"/>
</g>
<!-- r1_node_2&#45;&gt;r1_node_20 -->
<g id="edge13" class="edge">
<title>r1_node_2&#45;&gt;r1_node_20</title>
<path fill="none" stroke="black" d="M570.69,-295.12C608.36,-285.55 665.62,-269.9 713.93,-252 822.1,-211.93 843.2,-187.75 949.93,-144 993.26,-126.24 1022.07,-146.35 1048.93,-108 1058.11,-94.89 1059.92,-83.63 1048.93,-72 1000.32,-20.56 483.5,-41.48 412.93,-36 376.67,-33.18 336.19,-29.22 303.61,-25.83"/>
<polygon fill="black" stroke="black" points="304.26,-22.38 293.95,-24.82 303.53,-29.34 304.26,-22.38"/>
</g>
<!-- r1_node_2&#45;&gt;r1_node_14 -->
<g id="edge14" class="edge">
<title>r1_node_2&#45;&gt;r1_node_14</title>
<path fill="none" stroke="black" d="M577.69,-299.97C656,-291.26 808,-272.38 857.93,-252 883.62,-241.52 884.61,-229.34 908.93,-216 945.99,-195.69 959.83,-200.23 996.93,-180 1045.97,-153.26 1074.12,-157.53 1099.93,-108 1145.01,-21.5 968.17,-60.1 794.93,-36 779.78,-33.89 763.45,-31.39 748.25,-28.96"/>
<polygon fill="black" stroke="black" points="748.81,-25.5 738.38,-27.36 747.7,-32.41 748.81,-25.5"/>
</g>
<!-- r1_node_15 -->
<g id="node15" class="node">
<title>r1_node_15</title>
<ellipse fill="none" stroke="black" cx="476.93" cy="-18" rx="54.93" ry="18"/>
<text text-anchor="middle" x="476.93" y="-12.95" font-family="Times,serif" font-size="14.00">r1_node_15</text>
</g>
<!-- r1_node_2&#45;&gt;r1_node_15 -->
<g id="edge15" class="edge">
<title>r1_node_2&#45;&gt;r1_node_15</title>
<path fill="none" stroke="black" d="M576.64,-298.84C646.62,-289.21 775.03,-269.82 817.93,-252 843.89,-241.22 845.46,-229.83 869.93,-216 903.88,-196.82 915.02,-197.35 949.93,-180 949.93,-180 1081.93,-108 1081.93,-108 1090.1,-94.24 1092.79,-83.75 1081.93,-72 1047.36,-34.6 675.63,-40.91 624.93,-36 596.68,-33.27 565.45,-29.75 538.98,-26.63"/>
<polygon fill="black" stroke="black" points="539.42,-23.15 529.08,-25.45 538.59,-30.11 539.42,-23.15"/>
</g>
<!-- r1_node_5 -->
<g id="node16" class="node">
<title>r1_node_5</title>
<ellipse fill="none" stroke="black" cx="585.93" cy="-90" rx="50.33" ry="18"/>
<text text-anchor="middle" x="585.93" y="-84.95" font-family="Times,serif" font-size="14.00">r1_node_5</text>
</g>
<!-- r1_node_5&#45;&gt;r1_node_19 -->
<g id="edge17" class="edge">
<title>r1_node_5&#45;&gt;r1_node_19</title>
<path fill="none" stroke="black" d="M540.96,-81.46C521.86,-78.36 499.33,-74.84 478.93,-72 345.05,-53.39 310.99,-53.33 176.93,-36 156.99,-33.42 135.23,-30.44 115.69,-27.71"/>
<polygon fill="black" stroke="black" points="116.36,-24.27 105.97,-26.34 115.38,-31.2 116.36,-24.27"/>
</g>
<!-- r1_node_5&#45;&gt;r1_node_15 -->
<g id="edge19" class="edge">
<title>r1_node_5&#45;&gt;r1_node_15</title>
<path fill="none" stroke="black" d="M562.28,-73.81C547.1,-64.06 527.17,-51.26 510.38,-40.48"/>
<polygon fill="black" stroke="black" points="512.49,-37.68 502.19,-35.22 508.71,-43.57 512.49,-37.68"/>
</g>
<!-- r1_node_5&#45;&gt;r1_node_6 -->
<g id="edge18" class="edge">
<title>r1_node_5&#45;&gt;r1_node_6</title>
<path fill="none" stroke="black" d="M592.56,-108.1C593.63,-115.37 594.26,-124.04 594.36,-132.24"/>
<polygon fill="black" stroke="black" points="590.86,-132.11 594.14,-142.18 597.86,-132.26 590.86,-132.11"/>
</g>
<!-- r1_node_6&#45;&gt;r1_node_3 -->
<g id="edge27" class="edge">
<title>r1_node_6&#45;&gt;r1_node_3</title>
<path fill="none" stroke="black" d="M578.58,-179.96C570.98,-188.89 560.55,-199.97 550.64,-209.7"/>
<polygon fill="black" stroke="black" points="548.42,-206.98 543.62,-216.42 553.26,-212.03 548.42,-206.98"/>
</g>
<!-- r1_node_6&#45;&gt;r1_node_12 -->
<g id="edge24" class="edge">
<title>r1_node_6&#45;&gt;r1_node_12</title>
<path fill="none" stroke="black" d="M633.21,-153.17C704.91,-140.5 846.47,-115.48 926.41,-101.35"/>
<polygon fill="black" stroke="black" points="926.53,-104.88 935.77,-99.69 925.32,-97.98 926.53,-104.88"/>
</g>
<!-- r1_node_6&#45;&gt;r1_node_15 -->
<g id="edge25" class="edge">
<title>r1_node_6&#45;&gt;r1_node_15</title>
<path fill="none" stroke="black" d="M610.66,-145.45C633.28,-127.33 663.07,-96.73 644.93,-72 621.58,-40.15 579.04,-26.94 542.61,-21.68"/>
<polygon fill="black" stroke="black" points="543.39,-18.25 533.03,-20.48 542.51,-25.2 543.39,-18.25"/>
</g>
<!-- r1_node_6&#45;&gt;r1_node_5 -->
<g id="edge26" class="edge">
<title>r1_node_6&#45;&gt;r1_node_5</title>
<path fill="none" stroke="black" d="M582.28,-143.7C581.21,-136.41 580.6,-127.73 580.51,-119.54"/>
<polygon fill="black" stroke="black" points="584.01,-119.69 580.74,-109.62 577.01,-119.53 584.01,-119.69"/>
</g>
<!-- r1_node_13 -->
<g id="node19" class="node">
<title>r1_node_13</title>
<ellipse fill="none" stroke="black" cx="780.93" cy="-90" rx="54.93" ry="18"/>
<text text-anchor="middle" x="780.93" y="-84.95" font-family="Times,serif" font-size="14.00">r1_node_13</text>
</g>
<!-- r1_node_6&#45;&gt;r1_node_13 -->
<g id="edge23" class="edge">
<title>r1_node_6&#45;&gt;r1_node_13</title>
<path fill="none" stroke="black" d="M623.26,-148.49C654.31,-137.17 700.28,-120.4 734.59,-107.9"/>
<polygon fill="black" stroke="black" points="735.66,-111.23 743.86,-104.52 733.26,-104.65 735.66,-111.23"/>
</g>
<!-- r1_node_10 -->
<g id="node20" class="node">
<title>r1_node_10</title>
<ellipse fill="none" stroke="black" cx="294.93" cy="-306" rx="54.93" ry="18"/>
<text text-anchor="middle" x="294.93" y="-300.95" font-family="Times,serif" font-size="14.00">r1_node_10</text>
</g>
<!-- r1_node_10&#45;&gt;r1_node_19 -->
<g id="edge40" class="edge">
<title>r1_node_10&#45;&gt;r1_node_19</title>
<path fill="none" stroke="black" d="M331.67,-292.31C351.66,-283.73 375.41,-270.54 390.93,-252 444.17,-188.44 494.44,-134.48 439.93,-72 401.15,-27.55 235.37,-44.07 176.93,-36 157.1,-33.26 135.46,-30.25 115.98,-27.54"/>
<polygon fill="black" stroke="black" points="116.68,-24.1 106.29,-26.18 115.71,-31.03 116.68,-24.1"/>
</g>
<!-- r1_node_10&#45;&gt;r1_node_16 -->
<g id="edge39" class="edge">
<title>r1_node_10&#45;&gt;r1_node_16</title>
<path fill="none" stroke="black" d="M346.97,-299.84C503.68,-283.11 965.46,-224.51 1048.93,-108 1084.76,-58 990.67,-35.24 922.45,-25.54"/>
<polygon fill="black" stroke="black" points="923.21,-22.11 912.83,-24.24 922.27,-29.05 923.21,-22.11"/>
</g>
<!-- r1_node_10&#45;&gt;r1_node_13 -->
<g id="edge41" class="edge">
<title>r1_node_10&#45;&gt;r1_node_13</title>
<path fill="none" stroke="black" d="M349.49,-302.81C408.88,-298.67 505.44,-286.67 580.93,-252 654.25,-218.33 723.87,-151.8 758.37,-115.7"/>
<polygon fill="black" stroke="black" points="760.62,-118.41 764.93,-108.73 755.53,-113.61 760.62,-118.41"/>
</g>
</g>
</svg>
