<?xml version="1.0" encoding="UTF-8" standalone="no"?>
<!DOCTYPE svg PUBLIC "-//W3C//DTD SVG 1.1//EN"
 "http://www.w3.org/Graphics/SVG/1.1/DTD/svg11.dtd">
<!-- Generated by graphviz version 12.2.1 (20241206.2353)
 -->
<!-- Pages: 1 -->
<svg width="959pt" height="692pt"
 viewBox="0.00 0.00 958.66 692.00" xmlns="http://www.w3.org/2000/svg" xmlns:xlink="http://www.w3.org/1999/xlink">
<g id="graph0" class="graph" transform="scale(1 1) rotate(0) translate(4 688)">
<polygon fill="white" stroke="none" points="-4,4 -4,-688 954.66,-688 954.66,4 -4,4"/>
<!-- r2_node_23 -->
<g id="node1" class="node">
<title>r2_node_23</title>
<ellipse fill="none" stroke="black" cx="118.33" cy="-666" rx="54.93" ry="18"/>
<text text-anchor="middle" x="118.33" y="-660.95" font-family="Times,serif" font-size="14.00">r2_node_23</text>
</g>
<!-- r2_node_25 -->
<g id="node2" class="node">
<title>r2_node_25</title>
<ellipse fill="none" stroke="black" cx="107.33" cy="-594" rx="54.93" ry="18"/>
<text text-anchor="middle" x="107.33" y="-588.95" font-family="Times,serif" font-size="14.00">r2_node_25</text>
</g>
<!-- r2_node_23&#45;&gt;r2_node_25 -->
<g id="edge1" class="edge">
<title>r2_node_23&#45;&gt;r2_node_25</title>
<path fill="none" stroke="black" d="M109.79,-648.05C107.85,-640.68 106.2,-631.84 105.16,-623.51"/>
<polygon fill="black" stroke="black" points="108.67,-623.42 104.27,-613.78 101.7,-624.06 108.67,-623.42"/>
</g>
<!-- r2_node_25&#45;&gt;r2_node_23 -->
<g id="edge56" class="edge">
<title>r2_node_25&#45;&gt;r2_node_23</title>
<path fill="none" stroke="black" d="M115.91,-612.1C117.81,-619.37 119.43,-628.04 120.46,-636.24"/>
<polygon fill="black" stroke="black" points="116.98,-636.56 121.38,-646.19 123.95,-635.91 116.98,-636.56"/>
</g>
<!-- r2_node_10 -->
<g id="node9" class="node">
<title>r2_node_10</title>
<ellipse fill="none" stroke="black" cx="216.33" cy="-522" rx="54.93" ry="18"/>
<text text-anchor="middle" x="216.33" y="-516.95" font-family="Times,serif" font-size="14.00">r2_node_10</text>
</g>
<!-- r2_node_25&#45;&gt;r2_node_10 -->
<g id="edge54" class="edge">
<title>r2_node_25&#45;&gt;r2_node_10</title>
<path fill="none" stroke="black" d="M126.81,-576.76C141.05,-566.91 160.66,-554.23 177.94,-543.66"/>
<polygon fill="black" stroke="black" points="179.74,-546.66 186.5,-538.5 176.12,-540.67 179.74,-546.66"/>
</g>
<!-- r2_node_27 -->
<g id="node17" class="node">
<title>r2_node_27</title>
<ellipse fill="none" stroke="black" cx="79.33" cy="-522" rx="54.93" ry="18"/>
<text text-anchor="middle" x="79.33" y="-516.95" font-family="Times,serif" font-size="14.00">r2_node_27</text>
</g>
<!-- r2_node_25&#45;&gt;r2_node_27 -->
<g id="edge55" class="edge">
<title>r2_node_25&#45;&gt;r2_node_27</title>
<path fill="none" stroke="black" d="M94.67,-576.05C90.86,-568.52 86.97,-559.44 83.88,-550.94"/>
<polygon fill="black" stroke="black" points="87.28,-550.09 80.8,-541.71 80.64,-552.3 87.28,-550.09"/>
</g>
<!-- r2_node_24 -->
<g id="node3" class="node">
<title>r2_node_24</title>
<ellipse fill="none" stroke="black" cx="606.33" cy="-90" rx="54.93" ry="18"/>
<text text-anchor="middle" x="606.33" y="-84.95" font-family="Times,serif" font-size="14.00">r2_node_24</text>
</g>
<!-- r2_node_8 -->
<g id="node4" class="node">
<title>r2_node_8</title>
<ellipse fill="none" stroke="black" cx="401.33" cy="-18" rx="50.33" ry="18"/>
<text text-anchor="middle" x="401.33" y="-12.95" font-family="Times,serif" font-size="14.00">r2_node_8</text>
</g>
<!-- r2_node_24&#45;&gt;r2_node_8 -->
<g id="edge2" class="edge">
<title>r2_node_24&#45;&gt;r2_node_8</title>
<path fill="none" stroke="black" d="M566.82,-77.28C531.85,-65.96 481.04,-48.69 444.9,-35.88"/>
<polygon fill="black" stroke="black" points="446.21,-32.64 435.62,-32.57 443.86,-39.23 446.21,-32.64"/>
</g>
<!-- r2_node_4 -->
<g id="node5" class="node">
<title>r2_node_4</title>
<ellipse fill="none" stroke="black" cx="527.33" cy="-18" rx="50.33" ry="18"/>
<text text-anchor="middle" x="527.33" y="-12.95" font-family="Times,serif" font-size="14.00">r2_node_4</text>
</g>
<!-- r2_node_24&#45;&gt;r2_node_4 -->
<g id="edge3" class="edge">
<title>r2_node_24&#45;&gt;r2_node_4</title>
<path fill="none" stroke="black" d="M583.08,-73.46C572.06,-64.63 559.1,-53.37 548.38,-43.38"/>
<polygon fill="black" stroke="black" points="551.09,-41.13 541.43,-36.76 546.25,-46.19 551.09,-41.13"/>
</g>
<!-- r2_node_30 -->
<g id="node6" class="node">
<title>r2_node_30</title>
<ellipse fill="none" stroke="black" cx="572.33" cy="-162" rx="54.93" ry="18"/>
<text text-anchor="middle" x="572.33" y="-156.95" font-family="Times,serif" font-size="14.00">r2_node_30</text>
</g>
<!-- r2_node_24&#45;&gt;r2_node_30 -->
<g id="edge4" class="edge">
<title>r2_node_24&#45;&gt;r2_node_30</title>
<path fill="none" stroke="black" d="M603.78,-108.45C600.75,-116.36 596.34,-125.88 591.7,-134.63"/>
<polygon fill="black" stroke="black" points="588.79,-132.65 586.96,-143.09 594.9,-136.07 588.79,-132.65"/>
</g>
<!-- r2_node_8&#45;&gt;r2_node_24 -->
<g id="edge39" class="edge">
<title>r2_node_8&#45;&gt;r2_node_24</title>
<path fill="none" stroke="black" d="M439.08,-30.15C473.81,-41.36 525.17,-58.81 561.85,-71.8"/>
<polygon fill="black" stroke="black" points="560.24,-74.94 570.83,-75 562.59,-68.34 560.24,-74.94"/>
</g>
<!-- r2_node_4&#45;&gt;r2_node_24 -->
<g id="edge50" class="edge">
<title>r2_node_4&#45;&gt;r2_node_24</title>
<path fill="none" stroke="black" d="M550.36,-34.36C561.33,-43.15 574.27,-54.38 585.02,-64.38"/>
<polygon fill="black" stroke="black" points="582.33,-66.65 591.99,-71.01 587.16,-61.58 582.33,-66.65"/>
</g>
<!-- r2_node_30&#45;&gt;r2_node_24 -->
<g id="edge18" class="edge">
<title>r2_node_30&#45;&gt;r2_node_24</title>
<path fill="none" stroke="black" d="M574.82,-143.7C577.84,-135.78 582.27,-126.23 586.92,-117.44"/>
<polygon fill="black" stroke="black" points="589.84,-119.38 591.67,-108.94 583.73,-115.96 589.84,-119.38"/>
</g>
<!-- r2_node_18 -->
<g id="node11" class="node">
<title>r2_node_18</title>
<ellipse fill="none" stroke="black" cx="534.33" cy="-234" rx="54.93" ry="18"/>
<text text-anchor="middle" x="534.33" y="-228.95" font-family="Times,serif" font-size="14.00">r2_node_18</text>
</g>
<!-- r2_node_30&#45;&gt;r2_node_18 -->
<g id="edge20" class="edge">
<title>r2_node_30&#45;&gt;r2_node_18</title>
<path fill="none" stroke="black" d="M568.79,-180.45C565.3,-188.36 560.34,-197.88 555.21,-206.63"/>
<polygon fill="black" stroke="black" points="552.24,-204.77 549.97,-215.12 558.2,-208.45 552.24,-204.77"/>
</g>
<!-- r2_node_14 -->
<g id="node13" class="node">
<title>r2_node_14</title>
<ellipse fill="none" stroke="black" cx="755.33" cy="-90" rx="54.93" ry="18"/>
<text text-anchor="middle" x="755.33" y="-84.95" font-family="Times,serif" font-size="14.00">r2_node_14</text>
</g>
<!-- r2_node_30&#45;&gt;r2_node_14 -->
<g id="edge19" class="edge">
<title>r2_node_30&#45;&gt;r2_node_14</title>
<path fill="none" stroke="black" d="M603.81,-146.83C632.23,-135.38 674.31,-119.26 706.97,-107.28"/>
<polygon fill="black" stroke="black" points="708.03,-110.62 716.22,-103.91 705.63,-104.04 708.03,-110.62"/>
</g>
<!-- r2_node_5 -->
<g id="node19" class="node">
<title>r2_node_5</title>
<ellipse fill="none" stroke="black" cx="441.33" cy="-90" rx="50.33" ry="18"/>
<text text-anchor="middle" x="441.33" y="-84.95" font-family="Times,serif" font-size="14.00">r2_node_5</text>
</g>
<!-- r2_node_30&#45;&gt;r2_node_5 -->
<g id="edge21" class="edge">
<title>r2_node_30&#45;&gt;r2_node_5</title>
<path fill="none" stroke="black" d="M540.61,-147C520.49,-136.97 494.63,-123.28 474.29,-111.95"/>
<polygon fill="black" stroke="black" points="476.25,-109.04 465.82,-107.18 472.81,-115.13 476.25,-109.04"/>
</g>
<!-- r2_node_13 -->
<g id="node7" class="node">
<title>r2_node_13</title>
<ellipse fill="none" stroke="black" cx="241.33" cy="-306" rx="54.93" ry="18"/>
<text text-anchor="middle" x="241.33" y="-300.95" font-family="Times,serif" font-size="14.00">r2_node_13</text>
</g>
<!-- r2_node_21 -->
<g id="node8" class="node">
<title>r2_node_21</title>
<ellipse fill="none" stroke="black" cx="243.33" cy="-450" rx="54.93" ry="18"/>
<text text-anchor="middle" x="243.33" y="-444.95" font-family="Times,serif" font-size="14.00">r2_node_21</text>
</g>
<!-- r2_node_13&#45;&gt;r2_node_21 -->
<g id="edge5" class="edge">
<title>r2_node_13&#45;&gt;r2_node_21</title>
<path fill="none" stroke="black" d="M246.15,-324.11C249.01,-347.92 249.94,-391.37 248.47,-420.22"/>
<polygon fill="black" stroke="black" points="244.99,-419.86 247.8,-430.08 251.97,-420.34 244.99,-419.86"/>
</g>
<!-- r2_node_21&#45;&gt;r2_node_13 -->
<g id="edge13" class="edge">
<title>r2_node_21&#45;&gt;r2_node_13</title>
<path fill="none" stroke="black" d="M238.47,-431.59C235.63,-407.61 234.71,-364.14 236.2,-335.42"/>
<polygon fill="black" stroke="black" points="239.68,-335.84 236.88,-325.62 232.7,-335.35 239.68,-335.84"/>
</g>
<!-- r2_node_21&#45;&gt;r2_node_10 -->
<g id="edge12" class="edge">
<title>r2_node_21&#45;&gt;r2_node_10</title>
<path fill="none" stroke="black" d="M242.58,-468.28C240.41,-475.94 237.09,-485.16 233.45,-493.72"/>
<polygon fill="black" stroke="black" points="230.33,-492.13 229.37,-502.68 236.7,-495.03 230.33,-492.13"/>
</g>
<!-- r2_node_17 -->
<g id="node14" class="node">
<title>r2_node_17</title>
<ellipse fill="none" stroke="black" cx="343.33" cy="-234" rx="54.93" ry="18"/>
<text text-anchor="middle" x="343.33" y="-228.95" font-family="Times,serif" font-size="14.00">r2_node_17</text>
</g>
<!-- r2_node_21&#45;&gt;r2_node_17 -->
<g id="edge14" class="edge">
<title>r2_node_21&#45;&gt;r2_node_17</title>
<path fill="none" stroke="black" d="M246.24,-431.76C255.61,-407.79 278.38,-362.94 296.33,-324 305.82,-303.4 315.87,-279.78 324.57,-262.05"/>
<polygon fill="black" stroke="black" points="327.66,-263.7 329.1,-253.2 321.43,-260.51 327.66,-263.7"/>
</g>
<!-- r2_node_15 -->
<g id="node15" class="node">
<title>r2_node_15</title>
<ellipse fill="none" stroke="black" cx="113.33" cy="-306" rx="54.93" ry="18"/>
<text text-anchor="middle" x="113.33" y="-300.95" font-family="Times,serif" font-size="14.00">r2_node_15</text>
</g>
<!-- r2_node_21&#45;&gt;r2_node_15 -->
<g id="edge11" class="edge">
<title>r2_node_21&#45;&gt;r2_node_15</title>
<path fill="none" stroke="black" d="M223.92,-432.71C198.84,-408.26 156.06,-361.83 131.57,-332.76"/>
<polygon fill="black" stroke="black" points="134.34,-330.62 125.27,-325.14 128.95,-335.08 134.34,-330.62"/>
</g>
<!-- r2_node_10&#45;&gt;r2_node_25 -->
<g id="edge7" class="edge">
<title>r2_node_10&#45;&gt;r2_node_25</title>
<path fill="none" stroke="black" d="M197.01,-539.12C182.61,-549.09 162.67,-561.99 145.2,-572.66"/>
<polygon fill="black" stroke="black" points="143.85,-569.39 137.09,-577.54 147.46,-575.38 143.85,-569.39"/>
</g>
<!-- r2_node_10&#45;&gt;r2_node_21 -->
<g id="edge6" class="edge">
<title>r2_node_10&#45;&gt;r2_node_21</title>
<path fill="none" stroke="black" d="M217.09,-503.7C219.27,-495.95 222.64,-486.64 226.32,-478.02"/>
<polygon fill="black" stroke="black" points="229.46,-479.55 230.44,-469 223.1,-476.63 229.46,-479.55"/>
</g>
<!-- r2_node_6 -->
<g id="node10" class="node">
<title>r2_node_6</title>
<ellipse fill="none" stroke="black" cx="743.33" cy="-162" rx="50.33" ry="18"/>
<text text-anchor="middle" x="743.33" y="-156.95" font-family="Times,serif" font-size="14.00">r2_node_6</text>
</g>
<!-- r2_node_6&#45;&gt;r2_node_18 -->
<g id="edge8" class="edge">
<title>r2_node_6&#45;&gt;r2_node_18</title>
<path fill="none" stroke="black" d="M710.06,-175.94C676.35,-187.81 623.95,-205.39 585.08,-217.9"/>
<polygon fill="black" stroke="black" points="584.4,-214.44 575.94,-220.82 586.53,-221.11 584.4,-214.44"/>
</g>
<!-- r2_node_18&#45;&gt;r2_node_30 -->
<g id="edge25" class="edge">
<title>r2_node_18&#45;&gt;r2_node_30</title>
<path fill="none" stroke="black" d="M537.81,-215.7C541.32,-207.7 546.36,-198.02 551.57,-189.15"/>
<polygon fill="black" stroke="black" points="554.39,-191.26 556.67,-180.91 548.43,-187.58 554.39,-191.26"/>
</g>
<!-- r2_node_18&#45;&gt;r2_node_6 -->
<g id="edge22" class="edge">
<title>r2_node_18&#45;&gt;r2_node_6</title>
<path fill="none" stroke="black" d="M568.7,-219.67C603.04,-207.59 655.98,-189.85 694.63,-177.44"/>
<polygon fill="black" stroke="black" points="695.21,-180.93 703.68,-174.55 693.09,-174.26 695.21,-180.93"/>
</g>
<!-- r2_node_20 -->
<g id="node20" class="node">
<title>r2_node_20</title>
<ellipse fill="none" stroke="black" cx="405.33" cy="-378" rx="54.93" ry="18"/>
<text text-anchor="middle" x="405.33" y="-372.95" font-family="Times,serif" font-size="14.00">r2_node_20</text>
</g>
<!-- r2_node_18&#45;&gt;r2_node_20 -->
<g id="edge23" class="edge">
<title>r2_node_18&#45;&gt;r2_node_20</title>
<path fill="none" stroke="black" d="M547.62,-251.7C556.82,-270.89 563.98,-302.5 549.33,-324 531.6,-350.01 498.98,-363.26 469.21,-370"/>
<polygon fill="black" stroke="black" points="468.56,-366.56 459.45,-371.98 469.95,-373.42 468.56,-366.56"/>
</g>
<!-- r2_node_29 -->
<g id="node21" class="node">
<title>r2_node_29</title>
<ellipse fill="none" stroke="black" cx="410.33" cy="-162" rx="54.93" ry="18"/>
<text text-anchor="middle" x="410.33" y="-156.95" font-family="Times,serif" font-size="14.00">r2_node_29</text>
</g>
<!-- r2_node_18&#45;&gt;r2_node_29 -->
<g id="edge24" class="edge">
<title>r2_node_18&#45;&gt;r2_node_29</title>
<path fill="none" stroke="black" d="M503.36,-218.67C484.67,-208.83 461.01,-195.61 442.16,-184.52"/>
<polygon fill="black" stroke="black" points="444.21,-181.67 433.83,-179.55 440.63,-187.68 444.21,-181.67"/>
</g>
<!-- r2_node_3 -->
<g id="node12" class="node">
<title>r2_node_3</title>
<ellipse fill="none" stroke="black" cx="654.33" cy="-18" rx="50.33" ry="18"/>
<text text-anchor="middle" x="654.33" y="-12.95" font-family="Times,serif" font-size="14.00">r2_node_3</text>
</g>
<!-- r2_node_3&#45;&gt;r2_node_14 -->
<g id="edge9" class="edge">
<title>r2_node_3&#45;&gt;r2_node_14</title>
<path fill="none" stroke="black" d="M680.81,-33.48C695.57,-42.87 713.76,-55.3 728.55,-66.02"/>
<polygon fill="black" stroke="black" points="726.36,-68.75 736.48,-71.87 730.51,-63.12 726.36,-68.75"/>
</g>
<!-- r2_node_14&#45;&gt;r2_node_30 -->
<g id="edge31" class="edge">
<title>r2_node_14&#45;&gt;r2_node_30</title>
<path fill="none" stroke="black" d="M723.86,-105.16C695.42,-116.62 653.28,-132.77 620.6,-144.75"/>
<polygon fill="black" stroke="black" points="619.54,-141.42 611.34,-148.13 621.93,-147.99 619.54,-141.42"/>
</g>
<!-- r2_node_14&#45;&gt;r2_node_3 -->
<g id="edge32" class="edge">
<title>r2_node_14&#45;&gt;r2_node_3</title>
<path fill="none" stroke="black" d="M728,-73.98C713.34,-64.62 695.47,-52.4 680.93,-41.85"/>
<polygon fill="black" stroke="black" points="683.26,-39.23 673.14,-36.11 679.11,-44.86 683.26,-39.23"/>
</g>
<!-- r2_node_12 -->
<g id="node25" class="node">
<title>r2_node_12</title>
<ellipse fill="none" stroke="black" cx="777.33" cy="-18" rx="54.93" ry="18"/>
<text text-anchor="middle" x="777.33" y="-12.95" font-family="Times,serif" font-size="14.00">r2_node_12</text>
</g>
<!-- r2_node_14&#45;&gt;r2_node_12 -->
<g id="edge33" class="edge">
<title>r2_node_14&#45;&gt;r2_node_12</title>
<path fill="none" stroke="black" d="M754.85,-71.7C756.44,-64.15 759.05,-55.12 762.01,-46.68"/>
<polygon fill="black" stroke="black" points="765.21,-48.11 765.52,-37.52 758.67,-45.61 765.21,-48.11"/>
</g>
<!-- r2_node_1 -->
<g id="node26" class="node">
<title>r2_node_1</title>
<ellipse fill="none" stroke="black" cx="900.33" cy="-18" rx="50.33" ry="18"/>
<text text-anchor="middle" x="900.33" y="-12.95" font-family="Times,serif" font-size="14.00">r2_node_1</text>
</g>
<!-- r2_node_14&#45;&gt;r2_node_1 -->
<g id="edge34" class="edge">
<title>r2_node_14&#45;&gt;r2_node_1</title>
<path fill="none" stroke="black" d="M785.37,-74.5C807.34,-63.89 837.33,-49.41 861.18,-37.9"/>
<polygon fill="black" stroke="black" points="862.46,-41.17 869.95,-33.67 859.42,-34.86 862.46,-41.17"/>
</g>
<!-- r2_node_17&#45;&gt;r2_node_21 -->
<g id="edge10" class="edge">
<title>r2_node_17&#45;&gt;r2_node_21</title>
<path fill="none" stroke="black" d="M343.05,-252.19C337.91,-270.21 325.72,-299.28 314.33,-324 298.46,-358.42 278.83,-397.45 263.91,-422.61"/>
<polygon fill="black" stroke="black" points="261.08,-420.52 258.83,-430.87 267.05,-424.19 261.08,-420.52"/>
</g>
<!-- r2_node_15&#45;&gt;r2_node_21 -->
<g id="edge37" class="edge">
<title>r2_node_15&#45;&gt;r2_node_21</title>
<path fill="none" stroke="black" d="M132.39,-322.95C157.45,-347.34 200.58,-394.14 225.17,-423.34"/>
<polygon fill="black" stroke="black" points="222.43,-425.51 231.49,-430.99 227.82,-421.05 222.43,-425.51"/>
</g>
<!-- r2_node_9 -->
<g id="node16" class="node">
<title>r2_node_9</title>
<ellipse fill="none" stroke="black" cx="64.33" cy="-450" rx="50.33" ry="18"/>
<text text-anchor="middle" x="64.33" y="-444.95" font-family="Times,serif" font-size="14.00">r2_node_9</text>
</g>
<!-- r2_node_9&#45;&gt;r2_node_27 -->
<g id="edge15" class="edge">
<title>r2_node_9&#45;&gt;r2_node_27</title>
<path fill="none" stroke="black" d="M73.89,-468.1C76.23,-475.45 78.37,-484.24 79.87,-492.53"/>
<polygon fill="black" stroke="black" points="76.38,-492.82 81.31,-502.2 83.3,-491.79 76.38,-492.82"/>
</g>
<!-- r2_node_2 -->
<g id="node18" class="node">
<title>r2_node_2</title>
<ellipse fill="none" stroke="black" cx="50.33" cy="-378" rx="50.33" ry="18"/>
<text text-anchor="middle" x="50.33" y="-372.95" font-family="Times,serif" font-size="14.00">r2_node_2</text>
</g>
<!-- r2_node_9&#45;&gt;r2_node_2 -->
<g id="edge16" class="edge">
<title>r2_node_9&#45;&gt;r2_node_2</title>
<path fill="none" stroke="black" d="M60.87,-431.7C59.39,-424.32 57.63,-415.52 55.98,-407.25"/>
<polygon fill="black" stroke="black" points="59.44,-406.71 54.05,-397.59 52.57,-408.08 59.44,-406.71"/>
</g>
<!-- r2_node_27&#45;&gt;r2_node_25 -->
<g id="edge30" class="edge">
<title>r2_node_27&#45;&gt;r2_node_25</title>
<path fill="none" stroke="black" d="M91.82,-539.62C95.67,-547.19 99.6,-556.35 102.73,-564.93"/>
<polygon fill="black" stroke="black" points="99.36,-565.88 105.84,-574.26 106,-563.67 99.36,-565.88"/>
</g>
<!-- r2_node_27&#45;&gt;r2_node_9 -->
<g id="edge29" class="edge">
<title>r2_node_27&#45;&gt;r2_node_9</title>
<path fill="none" stroke="black" d="M69.82,-504.05C67.46,-496.68 65.31,-487.84 63.79,-479.51"/>
<polygon fill="black" stroke="black" points="67.28,-479.15 62.34,-469.77 60.35,-480.18 67.28,-479.15"/>
</g>
<!-- r2_node_5&#45;&gt;r2_node_30 -->
<g id="edge17" class="edge">
<title>r2_node_5&#45;&gt;r2_node_30</title>
<path fill="none" stroke="black" d="M472.12,-104.53C492.17,-114.51 518.2,-128.28 538.77,-139.72"/>
<polygon fill="black" stroke="black" points="536.92,-142.69 547.35,-144.55 540.35,-136.59 536.92,-142.69"/>
</g>
<!-- r2_node_20&#45;&gt;r2_node_18 -->
<g id="edge43" class="edge">
<title>r2_node_20&#45;&gt;r2_node_18</title>
<path fill="none" stroke="black" d="M454.65,-369.67C482.04,-362.82 513.88,-349.59 531.33,-324 543.26,-306.49 540.73,-282.28 537.15,-263.52"/>
<polygon fill="black" stroke="black" points="540.61,-262.96 535.16,-253.87 533.75,-264.37 540.61,-262.96"/>
</g>
<!-- r2_node_19 -->
<g id="node22" class="node">
<title>r2_node_19</title>
<ellipse fill="none" stroke="black" cx="321.33" cy="-594" rx="54.93" ry="18"/>
<text text-anchor="middle" x="321.33" y="-588.95" font-family="Times,serif" font-size="14.00">r2_node_19</text>
</g>
<!-- r2_node_20&#45;&gt;r2_node_19 -->
<g id="edge42" class="edge">
<title>r2_node_20&#45;&gt;r2_node_19</title>
<path fill="none" stroke="black" d="M407.3,-396.46C405.21,-406.7 401.46,-419.95 399.33,-432 390.95,-479.4 412.9,-496.97 391.33,-540 384.88,-552.86 373.8,-563.93 362.27,-572.57"/>
<polygon fill="black" stroke="black" points="360.48,-569.55 354.24,-578.11 364.46,-575.31 360.48,-569.55"/>
</g>
<!-- r2_node_28 -->
<g id="node24" class="node">
<title>r2_node_28</title>
<ellipse fill="none" stroke="black" cx="425.33" cy="-306" rx="54.93" ry="18"/>
<text text-anchor="middle" x="425.33" y="-300.95" font-family="Times,serif" font-size="14.00">r2_node_28</text>
</g>
<!-- r2_node_20&#45;&gt;r2_node_28 -->
<g id="edge45" class="edge">
<title>r2_node_20&#45;&gt;r2_node_28</title>
<path fill="none" stroke="black" d="M404.36,-359.7C405.73,-352.15 408.08,-343.12 410.8,-334.68"/>
<polygon fill="black" stroke="black" points="414,-336.13 414.04,-325.53 407.4,-333.79 414,-336.13"/>
</g>
<!-- r2_node_11 -->
<g id="node27" class="node">
<title>r2_node_11</title>
<ellipse fill="none" stroke="black" cx="289.33" cy="-90" rx="54.93" ry="18"/>
<text text-anchor="middle" x="289.33" y="-84.95" font-family="Times,serif" font-size="14.00">r2_node_11</text>
</g>
<!-- r2_node_20&#45;&gt;r2_node_11 -->
<g id="edge44" class="edge">
<title>r2_node_20&#45;&gt;r2_node_11</title>
<path fill="none" stroke="black" d="M435.97,-362.72C452.2,-354.26 470.59,-341.67 480.33,-324 488.05,-309.99 486.93,-302.58 480.33,-288 460.33,-243.82 437.61,-244.45 398.33,-216 372.83,-197.53 359.99,-201.85 337.33,-180 319.08,-162.41 303.93,-137.89 295.26,-119.05"/>
<polygon fill="black" stroke="black" points="298.5,-117.7 291.42,-109.82 292.04,-120.4 298.5,-117.7"/>
</g>
<!-- r2_node_29&#45;&gt;r2_node_18 -->
<g id="edge36" class="edge">
<title>r2_node_29&#45;&gt;r2_node_18</title>
<path fill="none" stroke="black" d="M440.96,-177.16C459.64,-186.97 483.35,-200.22 502.27,-211.35"/>
<polygon fill="black" stroke="black" points="500.27,-214.23 510.65,-216.34 503.85,-208.22 500.27,-214.23"/>
</g>
<!-- r2_node_29&#45;&gt;r2_node_11 -->
<g id="edge35" class="edge">
<title>r2_node_29&#45;&gt;r2_node_11</title>
<path fill="none" stroke="black" d="M379.98,-146.67C361.79,-136.88 338.82,-123.73 320.5,-112.67"/>
<polygon fill="black" stroke="black" points="322.5,-109.8 312.14,-107.57 318.85,-115.77 322.5,-109.8"/>
</g>
<!-- r2_node_19&#45;&gt;r2_node_20 -->
<g id="edge26" class="edge">
<title>r2_node_19&#45;&gt;r2_node_20</title>
<path fill="none" stroke="black" d="M340.22,-576.76C351.91,-567.64 365.78,-555.05 373.33,-540 394.9,-496.97 372.95,-479.4 381.33,-432 382.84,-423.45 385.16,-414.31 387.93,-406.06"/>
<polygon fill="black" stroke="black" points="391.13,-407.51 391.42,-396.92 384.59,-405.02 391.13,-407.51"/>
</g>
<!-- r2_node_7 -->
<g id="node23" class="node">
<title>r2_node_7</title>
<ellipse fill="none" stroke="black" cx="257.33" cy="-666" rx="50.33" ry="18"/>
<text text-anchor="middle" x="257.33" y="-660.95" font-family="Times,serif" font-size="14.00">r2_node_7</text>
</g>
<!-- r2_node_19&#45;&gt;r2_node_7 -->
<g id="edge27" class="edge">
<title>r2_node_19&#45;&gt;r2_node_7</title>
<path fill="none" stroke="black" d="M311.83,-611.8C304.76,-620.56 295.01,-631.43 285.66,-641.06"/>
<polygon fill="black" stroke="black" points="283.27,-638.5 278.68,-648.04 288.22,-643.44 283.27,-638.5"/>
</g>
<!-- r2_node_7&#45;&gt;r2_node_2 -->
<g id="edge52" class="edge">
<title>r2_node_7&#45;&gt;r2_node_2</title>
<path fill="none" stroke="black" d="M254.49,-647.53C252.17,-629.28 250.31,-600.03 257.33,-576 262.65,-557.78 275,-558.22 280.33,-540 284.81,-524.64 289.55,-517.08 280.33,-504 252.86,-465.05 221.75,-489.72 179.33,-468 159.52,-457.86 112.36,-424.34 80.88,-401.46"/>
<polygon fill="black" stroke="black" points="83.03,-398.69 72.89,-395.63 78.91,-404.35 83.03,-398.69"/>
</g>
<!-- r2_node_7&#45;&gt;r2_node_19 -->
<g id="edge51" class="edge">
<title>r2_node_7&#45;&gt;r2_node_19</title>
<path fill="none" stroke="black" d="M266.94,-648.05C274.02,-639.29 283.75,-628.45 293.08,-618.86"/>
<polygon fill="black" stroke="black" points="295.44,-621.45 300.03,-611.9 290.49,-616.5 295.44,-621.45"/>
</g>
<!-- r2_node_28&#45;&gt;r2_node_20 -->
<g id="edge28" class="edge">
<title>r2_node_28&#45;&gt;r2_node_20</title>
<path fill="none" stroke="black" d="M426.3,-324.28C424.92,-331.86 422.56,-340.95 419.82,-349.43"/>
<polygon fill="black" stroke="black" points="416.6,-348.03 416.55,-358.63 423.2,-350.37 416.6,-348.03"/>
</g>
<!-- r2_node_12&#45;&gt;r2_node_14 -->
<g id="edge49" class="edge">
<title>r2_node_12&#45;&gt;r2_node_14</title>
<path fill="none" stroke="black" d="M777.81,-36.28C776.21,-43.86 773.59,-52.95 770.6,-61.43"/>
<polygon fill="black" stroke="black" points="767.39,-60.05 767.07,-70.64 773.92,-62.56 767.39,-60.05"/>
</g>
<!-- r2_node_11&#45;&gt;r2_node_20 -->
<g id="edge48" class="edge">
<title>r2_node_11&#45;&gt;r2_node_20</title>
<path fill="none" stroke="black" d="M303.49,-107.73C315.52,-126.96 333.14,-158.6 355.33,-180 377.99,-201.85 390.83,-197.53 416.33,-216 455.61,-244.45 478.33,-243.82 498.33,-288 504.93,-302.58 506.05,-309.99 498.33,-324 489.29,-340.38 472.83,-352.4 456.18,-360.8"/>
<polygon fill="black" stroke="black" points="454.83,-357.57 447.22,-364.94 457.76,-363.93 454.83,-357.57"/>
</g>
<!-- r2_node_11&#45;&gt;r2_node_29 -->
<g id="edge47" class="edge">
<title>r2_node_11&#45;&gt;r2_node_29</title>
<path fill="none" stroke="black" d="M319.78,-105.39C337.91,-115.15 360.75,-128.22 379.01,-139.24"/>
<polygon fill="black" stroke="black" points="376.98,-142.1 387.34,-144.33 380.63,-136.13 376.98,-142.1"/>
</g>
<!-- r2_node_16 -->
<g id="node28" class="node">
<title>r2_node_16</title>
<ellipse fill="none" stroke="black" cx="263.33" cy="-18" rx="54.93" ry="18"/>
<text text-anchor="middle" x="263.33" y="-12.95" font-family="Times,serif" font-size="14.00">r2_node_16</text>
</g>
<!-- r2_node_11&#45;&gt;r2_node_16 -->
<g id="edge46" class="edge">
<title>r2_node_11&#45;&gt;r2_node_16</title>
<path fill="none" stroke="black" d="M277.16,-72.05C273.6,-64.6 270.01,-55.64 267.17,-47.22"/>
<polygon fill="black" stroke="black" points="270.54,-46.26 264.27,-37.72 263.85,-48.31 270.54,-46.26"/>
</g>
<!-- r2_node_16&#45;&gt;r2_node_11 -->
<g id="edge38" class="edge">
<title>r2_node_16&#45;&gt;r2_node_11</title>
<path fill="none" stroke="black" d="M275.35,-35.62C278.98,-43.19 282.64,-52.35 285.53,-60.93"/>
<polygon fill="black" stroke="black" points="282.11,-61.7 288.38,-70.25 288.81,-59.66 282.11,-61.7"/>
</g>
<!-- r2_node_26 -->
<g id="node29" class="node">
<title>r2_node_26</title>
<ellipse fill="none" stroke="black" cx="390.33" cy="-666" rx="54.93" ry="18"/>
<text text-anchor="middle" x="390.33" y="-660.95" font-family="Times,serif" font-size="14.00">r2_node_26</text>
</g>
<!-- r2_node_26&#45;&gt;r2_node_1 -->
<g id="edge40" class="edge">
<title>r2_node_26&#45;&gt;r2_node_1</title>
<path fill="none" stroke="black" d="M431.76,-653.75C457.29,-645.31 489.56,-631.78 513.33,-612 716.53,-442.91 851.41,-139.49 889.38,-46.71"/>
<polygon fill="black" stroke="black" points="892.55,-48.21 893.05,-37.63 886.06,-45.58 892.55,-48.21"/>
</g>
<!-- r2_node_22 -->
<g id="node30" class="node">
<title>r2_node_22</title>
<ellipse fill="none" stroke="black" cx="449.33" cy="-594" rx="54.93" ry="18"/>
<text text-anchor="middle" x="449.33" y="-588.95" font-family="Times,serif" font-size="14.00">r2_node_22</text>
</g>
<!-- r2_node_26&#45;&gt;r2_node_22 -->
<g id="edge41" class="edge">
<title>r2_node_26&#45;&gt;r2_node_22</title>
<path fill="none" stroke="black" d="M398.73,-648.05C405.03,-639.5 413.71,-628.97 422.16,-619.56"/>
<polygon fill="black" stroke="black" points="424.53,-622.14 428.75,-612.42 419.39,-617.39 424.53,-622.14"/>
</g>
<!-- r2_node_22&#45;&gt;r2_node_26 -->
<g id="edge53" class="edge">
<title>r2_node_22&#45;&gt;r2_node_26</title>
<path fill="none" stroke="black" d="M440.79,-612.12C434.48,-620.67 425.82,-631.17 417.4,-640.55"/>
<polygon fill="black" stroke="black" points="415.06,-637.93 410.84,-647.65 420.2,-642.69 415.06,-637.93"/>
</g>
</g>
</svg>
