<?xml version="1.0" encoding="UTF-8" standalone="no"?>
<!DOCTYPE svg PUBLIC "-//W3C//DTD SVG 1.1//EN"
 "http://www.w3.org/Graphics/SVG/1.1/DTD/svg11.dtd">
<!-- Generated by graphviz version 12.2.1 (20241206.2353)
 -->
<!-- Pages: 1 -->
<svg width="664pt" height="980pt"
 viewBox="0.00 0.00 664.39 980.00" xmlns="http://www.w3.org/2000/svg" xmlns:xlink="http://www.w3.org/1999/xlink">
<g id="graph0" class="graph" transform="scale(1 1) rotate(0) translate(4 976)">
<polygon fill="white" stroke="none" points="-4,4 -4,-976 660.39,-976 660.39,4 -4,4"/>
<!-- r3_node_17 -->
<g id="node1" class="node">
<title>r3_node_17</title>
<ellipse fill="none" stroke="black" cx="541.33" cy="-90" rx="54.93" ry="18"/>
<text text-anchor="middle" x="541.33" y="-84.95" font-family="Times,serif" font-size="14.00">r3_node_17</text>
</g>
<!-- r3_node_19 -->
<g id="node2" class="node">
<title>r3_node_19</title>
<ellipse fill="none" stroke="black" cx="166.33" cy="-594" rx="54.93" ry="18"/>
<text text-anchor="middle" x="166.33" y="-588.95" font-family="Times,serif" font-size="14.00">r3_node_19</text>
</g>
<!-- r3_node_2 -->
<g id="node3" class="node">
<title>r3_node_2</title>
<ellipse fill="none" stroke="black" cx="161.33" cy="-666" rx="50.33" ry="18"/>
<text text-anchor="middle" x="161.33" y="-660.95" font-family="Times,serif" font-size="14.00">r3_node_2</text>
</g>
<!-- r3_node_19&#45;&gt;r3_node_2 -->
<g id="edge1" class="edge">
<title>r3_node_19&#45;&gt;r3_node_2</title>
<path fill="none" stroke="black" d="M171,-612.1C171.25,-619.45 170.87,-628.24 170.01,-636.53"/>
<polygon fill="black" stroke="black" points="166.57,-635.82 168.68,-646.2 173.51,-636.76 166.57,-635.82"/>
</g>
<!-- r3_node_12 -->
<g id="node4" class="node">
<title>r3_node_12</title>
<ellipse fill="none" stroke="black" cx="172.33" cy="-522" rx="54.93" ry="18"/>
<text text-anchor="middle" x="172.33" y="-516.95" font-family="Times,serif" font-size="14.00">r3_node_12</text>
</g>
<!-- r3_node_19&#45;&gt;r3_node_12 -->
<g id="edge2" class="edge">
<title>r3_node_19&#45;&gt;r3_node_12</title>
<path fill="none" stroke="black" d="M161.9,-575.7C161.77,-568.32 162.28,-559.52 163.27,-551.25"/>
<polygon fill="black" stroke="black" points="166.69,-552.01 164.74,-541.6 159.77,-550.96 166.69,-552.01"/>
</g>
<!-- r3_node_2&#45;&gt;r3_node_19 -->
<g id="edge17" class="edge">
<title>r3_node_2&#45;&gt;r3_node_19</title>
<path fill="none" stroke="black" d="M156.65,-647.7C156.41,-640.32 156.8,-631.52 157.67,-623.25"/>
<polygon fill="black" stroke="black" points="161.1,-623.99 159,-613.6 154.17,-623.03 161.1,-623.99"/>
</g>
<!-- r3_node_15 -->
<g id="node15" class="node">
<title>r3_node_15</title>
<ellipse fill="none" stroke="black" cx="75.33" cy="-738" rx="54.93" ry="18"/>
<text text-anchor="middle" x="75.33" y="-732.95" font-family="Times,serif" font-size="14.00">r3_node_15</text>
</g>
<!-- r3_node_2&#45;&gt;r3_node_15 -->
<g id="edge19" class="edge">
<title>r3_node_2&#45;&gt;r3_node_15</title>
<path fill="none" stroke="black" d="M146.92,-683.47C136.48,-692.8 122.15,-704.61 108.99,-714.75"/>
<polygon fill="black" stroke="black" points="107.2,-711.72 101.34,-720.55 111.43,-717.3 107.2,-711.72"/>
</g>
<!-- r3_node_27 -->
<g id="node17" class="node">
<title>r3_node_27</title>
<ellipse fill="none" stroke="black" cx="308.33" cy="-594" rx="54.93" ry="18"/>
<text text-anchor="middle" x="308.33" y="-588.95" font-family="Times,serif" font-size="14.00">r3_node_27</text>
</g>
<!-- r3_node_2&#45;&gt;r3_node_27 -->
<g id="edge18" class="edge">
<title>r3_node_2&#45;&gt;r3_node_27</title>
<path fill="none" stroke="black" d="M186.87,-650.15C208.16,-639.37 238.8,-624.72 264.03,-613.23"/>
<polygon fill="black" stroke="black" points="265.42,-616.45 273.09,-609.14 262.54,-610.07 265.42,-616.45"/>
</g>
<!-- r3_node_12&#45;&gt;r3_node_19 -->
<g id="edge26" class="edge">
<title>r3_node_12&#45;&gt;r3_node_19</title>
<path fill="none" stroke="black" d="M176.76,-540.1C176.9,-547.45 176.39,-556.24 175.41,-564.53"/>
<polygon fill="black" stroke="black" points="171.98,-563.79 173.95,-574.2 178.91,-564.83 171.98,-563.79"/>
</g>
<!-- r3_node_24 -->
<g id="node5" class="node">
<title>r3_node_24</title>
<ellipse fill="none" stroke="black" cx="211.33" cy="-162" rx="54.93" ry="18"/>
<text text-anchor="middle" x="211.33" y="-156.95" font-family="Times,serif" font-size="14.00">r3_node_24</text>
</g>
<!-- r3_node_12&#45;&gt;r3_node_24 -->
<g id="edge27" class="edge">
<title>r3_node_12&#45;&gt;r3_node_24</title>
<path fill="none" stroke="black" d="M171.1,-503.73C172.75,-446.43 192.57,-262.18 204.4,-191.22"/>
<polygon fill="black" stroke="black" points="207.81,-192.04 206.11,-181.58 200.92,-190.82 207.81,-192.04"/>
</g>
<!-- r3_node_16 -->
<g id="node14" class="node">
<title>r3_node_16</title>
<ellipse fill="none" stroke="black" cx="261.33" cy="-450" rx="54.93" ry="18"/>
<text text-anchor="middle" x="261.33" y="-444.95" font-family="Times,serif" font-size="14.00">r3_node_16</text>
</g>
<!-- r3_node_12&#45;&gt;r3_node_16 -->
<g id="edge28" class="edge">
<title>r3_node_12&#45;&gt;r3_node_16</title>
<path fill="none" stroke="black" d="M187.58,-504.41C198.5,-495.02 213.43,-483.15 227.06,-472.99"/>
<polygon fill="black" stroke="black" points="229,-475.9 235,-467.17 224.86,-470.25 229,-475.9"/>
</g>
<!-- r3_node_24&#45;&gt;r3_node_12 -->
<g id="edge4" class="edge">
<title>r3_node_24&#45;&gt;r3_node_12</title>
<path fill="none" stroke="black" d="M212.56,-180.09C210.95,-237.14 191.13,-421.37 179.29,-492.56"/>
<polygon fill="black" stroke="black" points="175.87,-491.79 177.58,-502.24 182.77,-493 175.87,-491.79"/>
</g>
<!-- r3_node_3 -->
<g id="node6" class="node">
<title>r3_node_3</title>
<ellipse fill="none" stroke="black" cx="283.33" cy="-234" rx="50.33" ry="18"/>
<text text-anchor="middle" x="283.33" y="-228.95" font-family="Times,serif" font-size="14.00">r3_node_3</text>
</g>
<!-- r3_node_24&#45;&gt;r3_node_3 -->
<g id="edge3" class="edge">
<title>r3_node_24&#45;&gt;r3_node_3</title>
<path fill="none" stroke="black" d="M233.36,-178.83C243.18,-187.41 254.54,-198.21 264.02,-207.9"/>
<polygon fill="black" stroke="black" points="261.3,-210.13 270.73,-214.96 266.37,-205.3 261.3,-210.13"/>
</g>
<!-- r3_node_20 -->
<g id="node7" class="node">
<title>r3_node_20</title>
<ellipse fill="none" stroke="black" cx="360.33" cy="-18" rx="54.93" ry="18"/>
<text text-anchor="middle" x="360.33" y="-12.95" font-family="Times,serif" font-size="14.00">r3_node_20</text>
</g>
<!-- r3_node_24&#45;&gt;r3_node_20 -->
<g id="edge5" class="edge">
<title>r3_node_24&#45;&gt;r3_node_20</title>
<path fill="none" stroke="black" d="M212.11,-143.51C213.88,-123.88 219.52,-92.14 237.33,-72 254.61,-52.45 280.38,-39.86 303.87,-31.88"/>
<polygon fill="black" stroke="black" points="304.89,-35.22 313.38,-28.88 302.79,-28.55 304.89,-35.22"/>
</g>
<!-- r3_node_4 -->
<g id="node8" class="node">
<title>r3_node_4</title>
<ellipse fill="none" stroke="black" cx="86.33" cy="-18" rx="50.33" ry="18"/>
<text text-anchor="middle" x="86.33" y="-12.95" font-family="Times,serif" font-size="14.00">r3_node_4</text>
</g>
<!-- r3_node_24&#45;&gt;r3_node_4 -->
<g id="edge6" class="edge">
<title>r3_node_24&#45;&gt;r3_node_4</title>
<path fill="none" stroke="black" d="M191.51,-145.08C174.04,-127.15 148.73,-97.21 126.33,-72 118.3,-62.96 109.36,-53.21 101.82,-44.56"/>
<polygon fill="black" stroke="black" points="104.69,-42.54 95.55,-37.18 99.36,-47.07 104.69,-42.54"/>
</g>
<!-- r3_node_3&#45;&gt;r3_node_24 -->
<g id="edge41" class="edge">
<title>r3_node_3&#45;&gt;r3_node_24</title>
<path fill="none" stroke="black" d="M261.63,-217.46C251.77,-208.87 240.3,-197.97 230.73,-188.19"/>
<polygon fill="black" stroke="black" points="233.37,-185.89 223.94,-181.06 228.3,-190.71 233.37,-185.89"/>
</g>
<!-- r3_node_7 -->
<g id="node13" class="node">
<title>r3_node_7</title>
<ellipse fill="none" stroke="black" cx="260.33" cy="-306" rx="50.33" ry="18"/>
<text text-anchor="middle" x="260.33" y="-300.95" font-family="Times,serif" font-size="14.00">r3_node_7</text>
</g>
<!-- r3_node_3&#45;&gt;r3_node_7 -->
<g id="edge39" class="edge">
<title>r3_node_3&#45;&gt;r3_node_7</title>
<path fill="none" stroke="black" d="M283.56,-252.28C281.86,-259.86 279.1,-268.95 276,-277.43"/>
<polygon fill="black" stroke="black" points="272.78,-276.06 272.33,-286.65 279.28,-278.65 272.78,-276.06"/>
</g>
<!-- r3_node_14 -->
<g id="node18" class="node">
<title>r3_node_14</title>
<ellipse fill="none" stroke="black" cx="399.33" cy="-162" rx="54.93" ry="18"/>
<text text-anchor="middle" x="399.33" y="-156.95" font-family="Times,serif" font-size="14.00">r3_node_14</text>
</g>
<!-- r3_node_3&#45;&gt;r3_node_14 -->
<g id="edge40" class="edge">
<title>r3_node_3&#45;&gt;r3_node_14</title>
<path fill="none" stroke="black" d="M303.89,-217.12C319.49,-206.99 341.23,-193.8 360.07,-182.97"/>
<polygon fill="black" stroke="black" points="361.61,-186.12 368.58,-178.14 358.16,-180.03 361.61,-186.12"/>
</g>
<!-- r3_node_4&#45;&gt;r3_node_24 -->
<g id="edge13" class="edge">
<title>r3_node_4&#45;&gt;r3_node_24</title>
<path fill="none" stroke="black" d="M108.23,-34.16C119.5,-44.68 132.84,-59.07 144.33,-72 162.78,-92.76 183.19,-116.72 196.84,-134.55"/>
<polygon fill="black" stroke="black" points="194.01,-136.6 202.77,-142.55 199.63,-132.43 194.01,-136.6"/>
</g>
<!-- r3_node_4&#45;&gt;r3_node_15 -->
<g id="edge12" class="edge">
<title>r3_node_4&#45;&gt;r3_node_15</title>
<path fill="none" stroke="black" d="M88.34,-36.48C92.64,-131.76 85.84,-588.43 78.63,-708.19"/>
<polygon fill="black" stroke="black" points="75.15,-707.89 77.97,-718.1 82.13,-708.35 75.15,-707.89"/>
</g>
<!-- r3_node_9 -->
<g id="node9" class="node">
<title>r3_node_9</title>
<ellipse fill="none" stroke="black" cx="82.33" cy="-882" rx="50.33" ry="18"/>
<text text-anchor="middle" x="82.33" y="-876.95" font-family="Times,serif" font-size="14.00">r3_node_9</text>
</g>
<!-- r3_node_9&#45;&gt;r3_node_20 -->
<g id="edge8" class="edge">
<title>r3_node_9&#45;&gt;r3_node_20</title>
<path fill="none" stroke="black" d="M90.8,-863.91C107.69,-831.46 148.62,-760.53 202.33,-720 238.04,-693.05 256.58,-704.53 296.33,-684 347.58,-657.52 367.49,-656.39 404.33,-612 437.65,-571.85 417.01,-544.15 450.33,-504 468.75,-481.8 490.72,-493.43 504.33,-468 511.38,-454.82 527.29,-292.47 479.33,-144 467.87,-108.53 461.74,-99.27 436.33,-72 424.94,-59.78 410.3,-48.76 396.9,-39.97"/>
<polygon fill="black" stroke="black" points="399.04,-37.18 388.72,-34.79 395.3,-43.09 399.04,-37.18"/>
</g>
<!-- r3_node_5 -->
<g id="node10" class="node">
<title>r3_node_5</title>
<ellipse fill="none" stroke="black" cx="50.33" cy="-810" rx="50.33" ry="18"/>
<text text-anchor="middle" x="50.33" y="-804.95" font-family="Times,serif" font-size="14.00">r3_node_5</text>
</g>
<!-- r3_node_9&#45;&gt;r3_node_5 -->
<g id="edge7" class="edge">
<title>r3_node_9&#45;&gt;r3_node_5</title>
<path fill="none" stroke="black" d="M68.9,-864.41C64.59,-856.79 60.1,-847.55 56.46,-838.9"/>
<polygon fill="black" stroke="black" points="59.82,-837.9 52.92,-829.86 53.3,-840.44 59.82,-837.9"/>
</g>
<!-- r3_node_23 -->
<g id="node11" class="node">
<title>r3_node_23</title>
<ellipse fill="none" stroke="black" cx="125.33" cy="-954" rx="54.93" ry="18"/>
<text text-anchor="middle" x="125.33" y="-948.95" font-family="Times,serif" font-size="14.00">r3_node_23</text>
</g>
<!-- r3_node_9&#45;&gt;r3_node_23 -->
<g id="edge9" class="edge">
<title>r3_node_9&#45;&gt;r3_node_23</title>
<path fill="none" stroke="black" d="M98.04,-899.14C103.75,-907.01 109.97,-916.68 115.13,-925.64"/>
<polygon fill="black" stroke="black" points="112.03,-927.27 119.89,-934.37 118.17,-923.91 112.03,-927.27"/>
</g>
<!-- r3_node_5&#45;&gt;r3_node_9 -->
<g id="edge14" class="edge">
<title>r3_node_5&#45;&gt;r3_node_9</title>
<path fill="none" stroke="black" d="M63.77,-827.62C68.1,-835.27 72.6,-844.55 76.25,-853.22"/>
<polygon fill="black" stroke="black" points="72.89,-854.24 79.78,-862.29 79.41,-851.7 72.89,-854.24"/>
</g>
<!-- r3_node_5&#45;&gt;r3_node_15 -->
<g id="edge15" class="edge">
<title>r3_node_5&#45;&gt;r3_node_15</title>
<path fill="none" stroke="black" d="M50.59,-791.7C52.56,-783.95 55.66,-774.64 59.09,-766.02"/>
<polygon fill="black" stroke="black" points="62.22,-767.58 62.95,-757.01 55.79,-764.82 62.22,-767.58"/>
</g>
<!-- r3_node_23&#45;&gt;r3_node_17 -->
<g id="edge51" class="edge">
<title>r3_node_23&#45;&gt;r3_node_17</title>
<path fill="none" stroke="black" d="M155.48,-938.61C192.01,-919.28 251.71,-881.11 276.33,-828 296.57,-784.33 242.49,-760.61 268.33,-720 288.61,-688.13 313.64,-704.57 345.33,-684 386.28,-657.4 396.32,-648.88 428.33,-612 440.81,-597.62 515.31,-486.07 521.33,-468 562.76,-343.56 551.64,-183.32 544.81,-119.27"/>
<polygon fill="black" stroke="black" points="548.32,-119.18 543.73,-109.63 541.36,-119.96 548.32,-119.18"/>
</g>
<!-- r3_node_23&#45;&gt;r3_node_9 -->
<g id="edge50" class="edge">
<title>r3_node_23&#45;&gt;r3_node_9</title>
<path fill="none" stroke="black" d="M109.3,-936.41C103.58,-928.51 97.4,-918.85 92.29,-909.94"/>
<polygon fill="black" stroke="black" points="95.44,-908.4 87.59,-901.29 89.29,-911.74 95.44,-908.4"/>
</g>
<!-- r3_node_22 -->
<g id="node24" class="node">
<title>r3_node_22</title>
<ellipse fill="none" stroke="black" cx="212.33" cy="-810" rx="54.93" ry="18"/>
<text text-anchor="middle" x="212.33" y="-804.95" font-family="Times,serif" font-size="14.00">r3_node_22</text>
</g>
<!-- r3_node_23&#45;&gt;r3_node_22 -->
<g id="edge49" class="edge">
<title>r3_node_23&#45;&gt;r3_node_22</title>
<path fill="none" stroke="black" d="M131.24,-935.87C143.68,-911.33 171.23,-865.94 190.92,-837.17"/>
<polygon fill="black" stroke="black" points="193.78,-839.19 196.65,-828.99 188.05,-835.17 193.78,-839.19"/>
</g>
<!-- r3_node_18 -->
<g id="node12" class="node">
<title>r3_node_18</title>
<ellipse fill="none" stroke="black" cx="278.33" cy="-378" rx="54.93" ry="18"/>
<text text-anchor="middle" x="278.33" y="-372.95" font-family="Times,serif" font-size="14.00">r3_node_18</text>
</g>
<!-- r3_node_18&#45;&gt;r3_node_7 -->
<g id="edge10" class="edge">
<title>r3_node_18&#45;&gt;r3_node_7</title>
<path fill="none" stroke="black" d="M268.09,-360.05C265.41,-352.68 262.89,-343.84 261.01,-335.51"/>
<polygon fill="black" stroke="black" points="264.46,-334.92 259.14,-325.76 257.59,-336.24 264.46,-334.92"/>
</g>
<!-- r3_node_18&#45;&gt;r3_node_16 -->
<g id="edge11" class="edge">
<title>r3_node_18&#45;&gt;r3_node_16</title>
<path fill="none" stroke="black" d="M280.05,-396.28C279,-403.77 277.06,-412.75 274.72,-421.15"/>
<polygon fill="black" stroke="black" points="271.4,-420.02 271.77,-430.61 278.08,-422.1 271.4,-420.02"/>
</g>
<!-- r3_node_7&#45;&gt;r3_node_3 -->
<g id="edge31" class="edge">
<title>r3_node_7&#45;&gt;r3_node_3</title>
<path fill="none" stroke="black" d="M260.1,-287.7C261.82,-280.04 264.61,-270.85 267.75,-262.3"/>
<polygon fill="black" stroke="black" points="271,-263.61 271.46,-253.03 264.5,-261.01 271,-263.61"/>
</g>
<!-- r3_node_7&#45;&gt;r3_node_20 -->
<g id="edge30" class="edge">
<title>r3_node_7&#45;&gt;r3_node_20</title>
<path fill="none" stroke="black" d="M299.98,-294.43C349.39,-278.81 431.21,-244.23 463.33,-180 470.48,-165.69 468.73,-159.06 463.33,-144 459.12,-132.28 411.4,-76.91 382.42,-43.92"/>
<polygon fill="black" stroke="black" points="385.38,-41.99 376.14,-36.8 380.12,-46.62 385.38,-41.99"/>
</g>
<!-- r3_node_7&#45;&gt;r3_node_18 -->
<g id="edge29" class="edge">
<title>r3_node_7&#45;&gt;r3_node_18</title>
<path fill="none" stroke="black" d="M270.62,-324.1C273.28,-331.45 275.79,-340.24 277.65,-348.53"/>
<polygon fill="black" stroke="black" points="274.19,-349.05 279.51,-358.21 281.06,-347.73 274.19,-349.05"/>
</g>
<!-- r3_node_6 -->
<g id="node19" class="node">
<title>r3_node_6</title>
<ellipse fill="none" stroke="black" cx="296.33" cy="-90" rx="50.33" ry="18"/>
<text text-anchor="middle" x="296.33" y="-84.95" font-family="Times,serif" font-size="14.00">r3_node_6</text>
</g>
<!-- r3_node_7&#45;&gt;r3_node_6 -->
<g id="edge32" class="edge">
<title>r3_node_7&#45;&gt;r3_node_6</title>
<path fill="none" stroke="black" d="M289.26,-290.93C305.29,-282.41 323.68,-269.72 333.33,-252 345.82,-229.05 318.09,-158.95 303.58,-119.23"/>
<polygon fill="black" stroke="black" points="306.89,-118.09 300.23,-109.86 300.3,-120.45 306.89,-118.09"/>
</g>
<!-- r3_node_16&#45;&gt;r3_node_12 -->
<g id="edge25" class="edge">
<title>r3_node_16&#45;&gt;r3_node_12</title>
<path fill="none" stroke="black" d="M246.03,-467.63C235.08,-477.04 220.12,-488.93 206.48,-499.1"/>
<polygon fill="black" stroke="black" points="204.54,-496.19 198.54,-504.92 208.68,-501.83 204.54,-496.19"/>
</g>
<!-- r3_node_16&#45;&gt;r3_node_18 -->
<g id="edge24" class="edge">
<title>r3_node_16&#45;&gt;r3_node_18</title>
<path fill="none" stroke="black" d="M259.61,-431.7C260.66,-424.24 262.58,-415.32 264.91,-406.97"/>
<polygon fill="black" stroke="black" points="268.21,-408.14 267.83,-397.55 261.52,-406.06 268.21,-408.14"/>
</g>
<!-- r3_node_15&#45;&gt;r3_node_2 -->
<g id="edge48" class="edge">
<title>r3_node_15&#45;&gt;r3_node_2</title>
<path fill="none" stroke="black" d="M89.87,-720.41C100.46,-710.95 115.01,-698.98 128.28,-688.77"/>
<polygon fill="black" stroke="black" points="130.11,-691.77 135.98,-682.95 125.9,-686.18 130.11,-691.77"/>
</g>
<!-- r3_node_15&#45;&gt;r3_node_4 -->
<g id="edge46" class="edge">
<title>r3_node_15&#45;&gt;r3_node_4</title>
<path fill="none" stroke="black" d="M73.32,-719.61C69.01,-624.46 75.83,-166.91 83.04,-47.54"/>
<polygon fill="black" stroke="black" points="86.52,-47.89 83.7,-37.67 79.54,-47.42 86.52,-47.89"/>
</g>
<!-- r3_node_15&#45;&gt;r3_node_5 -->
<g id="edge47" class="edge">
<title>r3_node_15&#45;&gt;r3_node_5</title>
<path fill="none" stroke="black" d="M75.07,-756.28C73.12,-763.94 70.06,-773.16 66.67,-781.72"/>
<polygon fill="black" stroke="black" points="63.56,-780.09 62.85,-790.66 70,-782.84 63.56,-780.09"/>
</g>
<!-- r3_node_15&#45;&gt;r3_node_14 -->
<g id="edge45" class="edge">
<title>r3_node_15&#45;&gt;r3_node_14</title>
<path fill="none" stroke="black" d="M108.52,-723.25C136.31,-713.08 176.59,-698.54 211.33,-684 280.28,-655.14 312.84,-667.12 363.33,-612 397.9,-574.25 369.72,-542.61 403.33,-504 425.52,-478.5 452.98,-497.01 470.33,-468 478.54,-454.27 471.54,-447.95 470.33,-432 467.88,-399.72 467.16,-391.41 459.33,-360 443.96,-298.34 417.27,-228.72 404.87,-190.97"/>
<polygon fill="black" stroke="black" points="408.32,-190.25 401.97,-181.77 401.64,-192.36 408.32,-190.25"/>
</g>
<!-- r3_node_21 -->
<g id="node16" class="node">
<title>r3_node_21</title>
<ellipse fill="none" stroke="black" cx="389.33" cy="-450" rx="54.93" ry="18"/>
<text text-anchor="middle" x="389.33" y="-444.95" font-family="Times,serif" font-size="14.00">r3_node_21</text>
</g>
<!-- r3_node_21&#45;&gt;r3_node_27 -->
<g id="edge16" class="edge">
<title>r3_node_21&#45;&gt;r3_node_27</title>
<path fill="none" stroke="black" d="M356.44,-464.73C339.21,-473.06 319.72,-485.71 309.33,-504 298.95,-522.26 301.78,-546.09 305.43,-564.49"/>
<polygon fill="black" stroke="black" points="301.99,-565.16 307.49,-574.21 308.84,-563.7 301.99,-565.16"/>
</g>
<!-- r3_node_27&#45;&gt;r3_node_2 -->
<g id="edge42" class="edge">
<title>r3_node_27&#45;&gt;r3_node_2</title>
<path fill="none" stroke="black" d="M282.24,-610.12C260.64,-621.05 229.68,-635.83 204.44,-647.3"/>
<polygon fill="black" stroke="black" points="203.08,-644.08 195.4,-651.38 205.96,-650.46 203.08,-644.08"/>
</g>
<!-- r3_node_27&#45;&gt;r3_node_21 -->
<g id="edge43" class="edge">
<title>r3_node_27&#45;&gt;r3_node_21</title>
<path fill="none" stroke="black" d="M294.96,-576.38C285.83,-557.54 278.53,-526.52 291.33,-504 301.13,-486.75 319.02,-474.52 336.92,-466.19"/>
<polygon fill="black" stroke="black" points="338.18,-469.46 346.01,-462.33 335.44,-463.02 338.18,-469.46"/>
</g>
<!-- r3_node_8 -->
<g id="node22" class="node">
<title>r3_node_8</title>
<ellipse fill="none" stroke="black" cx="409.33" cy="-378" rx="50.33" ry="18"/>
<text text-anchor="middle" x="409.33" y="-372.95" font-family="Times,serif" font-size="14.00">r3_node_8</text>
</g>
<!-- r3_node_27&#45;&gt;r3_node_8 -->
<g id="edge44" class="edge">
<title>r3_node_27&#45;&gt;r3_node_8</title>
<path fill="none" stroke="black" d="M307.1,-575.54C311.36,-555.63 325.07,-523.35 347.33,-504 382.03,-473.82 418.07,-505.75 444.33,-468 458.22,-448.03 443.42,-423.02 428.85,-404.61"/>
<polygon fill="black" stroke="black" points="431.66,-402.52 422.59,-397.06 426.27,-406.99 431.66,-402.52"/>
</g>
<!-- r3_node_14&#45;&gt;r3_node_17 -->
<g id="edge22" class="edge">
<title>r3_node_14&#45;&gt;r3_node_17</title>
<path fill="none" stroke="black" d="M428.75,-146.5C449.88,-136.08 478.61,-121.92 501.75,-110.51"/>
<polygon fill="black" stroke="black" points="503.16,-113.72 510.59,-106.15 500.07,-107.44 503.16,-113.72"/>
</g>
<!-- r3_node_14&#45;&gt;r3_node_3 -->
<g id="edge23" class="edge">
<title>r3_node_14&#45;&gt;r3_node_3</title>
<path fill="none" stroke="black" d="M378.43,-179.1C362.73,-189.27 340.96,-202.48 322.15,-213.28"/>
<polygon fill="black" stroke="black" points="320.64,-210.11 313.67,-218.09 324.09,-216.2 320.64,-210.11"/>
</g>
<!-- r3_node_14&#45;&gt;r3_node_15 -->
<g id="edge21" class="edge">
<title>r3_node_14&#45;&gt;r3_node_15</title>
<path fill="none" stroke="black" d="M411.46,-179.8C429.31,-213.42 460.28,-291.61 477.33,-360 485.16,-391.41 485.88,-399.72 488.33,-432 489.54,-447.95 496.54,-454.27 488.33,-468 470.98,-497.01 443.52,-478.5 421.33,-504 387.72,-542.61 415.9,-574.25 381.33,-612 330.84,-667.12 298.28,-655.14 229.33,-684 195.86,-698.01 157.24,-712.02 126.94,-722.12"/>
<polygon fill="black" stroke="black" points="126.03,-718.73 117.62,-725.18 128.22,-725.39 126.03,-718.73"/>
</g>
<!-- r3_node_14&#45;&gt;r3_node_6 -->
<g id="edge20" class="edge">
<title>r3_node_14&#45;&gt;r3_node_6</title>
<path fill="none" stroke="black" d="M371.85,-146.15C356.82,-136.74 338.37,-124.37 323.41,-113.73"/>
<polygon fill="black" stroke="black" points="325.54,-110.95 315.38,-107.93 321.44,-116.62 325.54,-110.95"/>
</g>
<!-- r3_node_6&#45;&gt;r3_node_7 -->
<g id="edge53" class="edge">
<title>r3_node_6&#45;&gt;r3_node_7</title>
<path fill="none" stroke="black" d="M309.14,-107.88C329.87,-143.82 365.12,-226.66 351.33,-252 342.33,-268.52 325.73,-280.68 309.07,-289.15"/>
<polygon fill="black" stroke="black" points="307.72,-285.92 300.13,-293.32 310.67,-292.26 307.72,-285.92"/>
</g>
<!-- r3_node_6&#45;&gt;r3_node_14 -->
<g id="edge52" class="edge">
<title>r3_node_6&#45;&gt;r3_node_14</title>
<path fill="none" stroke="black" d="M323.23,-105.48C338.39,-114.96 357.16,-127.54 372.32,-138.32"/>
<polygon fill="black" stroke="black" points="369.86,-140.86 380.01,-143.88 373.96,-135.18 369.86,-140.86"/>
</g>
<!-- r3_node_1 -->
<g id="node25" class="node">
<title>r3_node_1</title>
<ellipse fill="none" stroke="black" cx="226.33" cy="-18" rx="50.33" ry="18"/>
<text text-anchor="middle" x="226.33" y="-12.95" font-family="Times,serif" font-size="14.00">r3_node_1</text>
</g>
<!-- r3_node_6&#45;&gt;r3_node_1 -->
<g id="edge54" class="edge">
<title>r3_node_6&#45;&gt;r3_node_1</title>
<path fill="none" stroke="black" d="M280.09,-72.76C271.26,-63.93 260.16,-52.83 250.34,-43.01"/>
<polygon fill="black" stroke="black" points="253.09,-40.81 243.55,-36.22 248.14,-45.76 253.09,-40.81"/>
</g>
<!-- r3_node_10 -->
<g id="node20" class="node">
<title>r3_node_10</title>
<ellipse fill="none" stroke="black" cx="342.33" cy="-738" rx="54.93" ry="18"/>
<text text-anchor="middle" x="342.33" y="-732.95" font-family="Times,serif" font-size="14.00">r3_node_10</text>
</g>
<!-- r3_node_11 -->
<g id="node21" class="node">
<title>r3_node_11</title>
<ellipse fill="none" stroke="black" cx="327.33" cy="-882" rx="54.93" ry="18"/>
<text text-anchor="middle" x="327.33" y="-876.95" font-family="Times,serif" font-size="14.00">r3_node_11</text>
</g>
<!-- r3_node_10&#45;&gt;r3_node_11 -->
<g id="edge33" class="edge">
<title>r3_node_10&#45;&gt;r3_node_11</title>
<path fill="none" stroke="black" d="M352.3,-755.88C357.59,-773.89 360.85,-803.18 356.33,-828 354.71,-836.88 351.68,-846.21 348.04,-854.51"/>
<polygon fill="black" stroke="black" points="344.96,-852.86 343.66,-863.37 351.23,-855.97 344.96,-852.86"/>
</g>
<!-- r3_node_11&#45;&gt;r3_node_17 -->
<g id="edge36" class="edge">
<title>r3_node_11&#45;&gt;r3_node_17</title>
<path fill="none" stroke="black" d="M326.43,-863.78C324.89,-845.22 320.69,-815.22 309.33,-792 300.04,-773.04 285.68,-775.79 278.33,-756 272.76,-741 268.05,-732.27 278.33,-720 336.88,-650.09 413.27,-745.8 480.33,-684 541.05,-628.04 470.06,-564.43 526.33,-504 561.38,-466.35 606.14,-509.65 636.33,-468 645.72,-455.05 638.07,-447.9 636.33,-432 636.33,-432 572.33,-144 572.33,-144 568.82,-135.07 563.95,-125.87 559.11,-117.69"/>
<polygon fill="black" stroke="black" points="562.13,-115.92 553.89,-109.26 556.18,-119.6 562.13,-115.92"/>
</g>
<!-- r3_node_11&#45;&gt;r3_node_10 -->
<g id="edge37" class="edge">
<title>r3_node_11&#45;&gt;r3_node_10</title>
<path fill="none" stroke="black" d="M327.76,-863.79C331.07,-853.63 336.07,-840.38 338.33,-828 341.97,-808.06 340.57,-785.22 339.55,-767.67"/>
<polygon fill="black" stroke="black" points="343.05,-767.53 339.03,-757.72 336.05,-767.89 343.05,-767.53"/>
</g>
<!-- r3_node_8&#45;&gt;r3_node_27 -->
<g id="edge34" class="edge">
<title>r3_node_8&#45;&gt;r3_node_27</title>
<path fill="none" stroke="black" d="M432.92,-394.24C454.17,-412.59 479.06,-443.94 462.33,-468 436.07,-505.75 400.03,-473.82 365.33,-504 346.41,-520.45 333.67,-546.23 324.53,-565.82"/>
<polygon fill="black" stroke="black" points="321.36,-564.33 320.32,-574.87 327.71,-567.28 321.36,-564.33"/>
</g>
<!-- r3_node_28 -->
<g id="node23" class="node">
<title>r3_node_28</title>
<ellipse fill="none" stroke="black" cx="317.33" cy="-954" rx="54.93" ry="18"/>
<text text-anchor="middle" x="317.33" y="-948.95" font-family="Times,serif" font-size="14.00">r3_node_28</text>
</g>
<!-- r3_node_28&#45;&gt;r3_node_17 -->
<g id="edge35" class="edge">
<title>r3_node_28&#45;&gt;r3_node_17</title>
<path fill="none" stroke="black" d="M343.67,-937.86C358.8,-928.31 377.49,-914.97 391.33,-900 543.64,-735.31 592.12,-684.09 652.33,-468 674.74,-387.55 597.2,-157.12 590.33,-144 584.83,-133.51 576.72,-123.54 568.67,-115.14"/>
<polygon fill="black" stroke="black" points="571.38,-112.9 561.81,-108.36 566.46,-117.88 571.38,-112.9"/>
</g>
<!-- r3_node_22&#45;&gt;r3_node_23 -->
<g id="edge38" class="edge">
<title>r3_node_22&#45;&gt;r3_node_23</title>
<path fill="none" stroke="black" d="M206.31,-828.35C193.78,-853.01 166.23,-898.38 146.58,-927.05"/>
<polygon fill="black" stroke="black" points="143.75,-925 140.87,-935.19 149.48,-929.02 143.75,-925"/>
</g>
</g>
</svg>
