<?xml version="1.0" encoding="UTF-8" standalone="no"?>
<!DOCTYPE svg PUBLIC "-//W3C//DTD SVG 1.1//EN"
 "http://www.w3.org/Graphics/SVG/1.1/DTD/svg11.dtd">
<!-- Generated by graphviz version 12.2.1 (20241206.2353)
 -->
<!-- Pages: 1 -->
<svg width="478pt" height="188pt"
 viewBox="0.00 0.00 478.26 188.00" xmlns="http://www.w3.org/2000/svg" xmlns:xlink="http://www.w3.org/1999/xlink">
<g id="graph0" class="graph" transform="scale(1 1) rotate(0) translate(4 184)">
<polygon fill="white" stroke="none" points="-4,4 -4,-184 474.26,-184 474.26,4 -4,4"/>
<!-- r3_node_13 -->
<g id="node1" class="node">
<title>r3_node_13</title>
<ellipse fill="none" stroke="black" cx="54.93" cy="-18" rx="54.93" ry="18"/>
<text text-anchor="middle" x="54.93" y="-12.95" font-family="Times,serif" font-size="14.00">r3_node_13</text>
</g>
<!-- r3_node_19 -->
<g id="node2" class="node">
<title>r3_node_19</title>
<ellipse fill="none" stroke="black" cx="296.93" cy="-90" rx="54.93" ry="18"/>
<text text-anchor="middle" x="296.93" y="-84.95" font-family="Times,serif" font-size="14.00">r3_node_19</text>
</g>
<!-- r3_node_15 -->
<g id="node3" class="node">
<title>r3_node_15</title>
<ellipse fill="none" stroke="black" cx="100.93" cy="-162" rx="54.93" ry="18"/>
<text text-anchor="middle" x="100.93" y="-156.95" font-family="Times,serif" font-size="14.00">r3_node_15</text>
</g>
<!-- r3_node_19&#45;&gt;r3_node_15 -->
<g id="edge1" class="edge">
<title>r3_node_19&#45;&gt;r3_node_15</title>
<path fill="none" stroke="black" d="M263.81,-104.8C232.72,-116.46 185.99,-133.18 150.5,-145.35"/>
<polygon fill="black" stroke="black" points="149.64,-141.94 141.3,-148.48 151.9,-148.57 149.64,-141.94"/>
</g>
<!-- r3_node_11 -->
<g id="node4" class="node">
<title>r3_node_11</title>
<ellipse fill="none" stroke="black" cx="367.93" cy="-18" rx="54.93" ry="18"/>
<text text-anchor="middle" x="367.93" y="-12.95" font-family="Times,serif" font-size="14.00">r3_node_11</text>
</g>
<!-- r3_node_19&#45;&gt;r3_node_11 -->
<g id="edge2" class="edge">
<title>r3_node_19&#45;&gt;r3_node_11</title>
<path fill="none" stroke="black" d="M313.76,-72.41C322.51,-63.78 333.39,-53.06 343.09,-43.5"/>
<polygon fill="black" stroke="black" points="345.49,-46.05 350.15,-36.53 340.57,-41.06 345.49,-46.05"/>
</g>
<!-- r3_node_10 -->
<g id="node5" class="node">
<title>r3_node_10</title>
<ellipse fill="none" stroke="black" cx="239.93" cy="-18" rx="54.93" ry="18"/>
<text text-anchor="middle" x="239.93" y="-12.95" font-family="Times,serif" font-size="14.00">r3_node_10</text>
</g>
<!-- r3_node_19&#45;&gt;r3_node_10 -->
<g id="edge3" class="edge">
<title>r3_node_19&#45;&gt;r3_node_10</title>
<path fill="none" stroke="black" d="M283.43,-72.41C276.61,-64.04 268.2,-53.71 260.59,-44.37"/>
<polygon fill="black" stroke="black" points="263.33,-42.19 254.3,-36.64 257.9,-46.61 263.33,-42.19"/>
</g>
<!-- r3_node_15&#45;&gt;r3_node_13 -->
<g id="edge5" class="edge">
<title>r3_node_15&#45;&gt;r3_node_13</title>
<path fill="none" stroke="black" d="M95.39,-143.87C87.58,-119.78 73.27,-75.6 63.93,-46.77"/>
<polygon fill="black" stroke="black" points="67.38,-46.06 60.97,-37.63 60.72,-48.22 67.38,-46.06"/>
</g>
<!-- r3_node_15&#45;&gt;r3_node_19 -->
<g id="edge7" class="edge">
<title>r3_node_15&#45;&gt;r3_node_19</title>
<path fill="none" stroke="black" d="M133.71,-147.34C164.82,-135.65 211.81,-118.84 247.45,-106.63"/>
<polygon fill="black" stroke="black" points="248.34,-110.02 256.68,-103.48 246.09,-103.39 248.34,-110.02"/>
</g>
<!-- r3_node_1 -->
<g id="node6" class="node">
<title>r3_node_1</title>
<ellipse fill="none" stroke="black" cx="419.93" cy="-90" rx="50.33" ry="18"/>
<text text-anchor="middle" x="419.93" y="-84.95" font-family="Times,serif" font-size="14.00">r3_node_1</text>
</g>
<!-- r3_node_15&#45;&gt;r3_node_1 -->
<g id="edge6" class="edge">
<title>r3_node_15&#45;&gt;r3_node_1</title>
<path fill="none" stroke="black" d="M146.67,-151.55C197.21,-141.79 280.58,-125.52 351.93,-108 357.1,-106.73 362.49,-105.31 367.89,-103.85"/>
<polygon fill="black" stroke="black" points="368.74,-107.24 377.46,-101.22 366.89,-100.5 368.74,-107.24"/>
</g>
<!-- r3_node_7 -->
<g id="node7" class="node">
<title>r3_node_7</title>
<ellipse fill="none" stroke="black" cx="160.93" cy="-90" rx="50.33" ry="18"/>
<text text-anchor="middle" x="160.93" y="-84.95" font-family="Times,serif" font-size="14.00">r3_node_7</text>
</g>
<!-- r3_node_15&#45;&gt;r3_node_7 -->
<g id="edge8" class="edge">
<title>r3_node_15&#45;&gt;r3_node_7</title>
<path fill="none" stroke="black" d="M109.58,-144.05C116.09,-135.38 125.08,-124.67 133.78,-115.15"/>
<polygon fill="black" stroke="black" points="136.27,-117.61 140.57,-107.93 131.17,-112.82 136.27,-117.61"/>
</g>
<!-- r3_node_1&#45;&gt;r3_node_15 -->
<g id="edge4" class="edge">
<title>r3_node_1&#45;&gt;r3_node_15</title>
<path fill="none" stroke="black" d="M386.11,-103.75C380.73,-105.25 375.21,-106.7 369.93,-108 298.93,-125.44 216.03,-141.62 161.14,-151.41"/>
<polygon fill="black" stroke="black" points="160.59,-147.95 151.35,-153.14 161.81,-154.84 160.59,-147.95"/>
</g>
<!-- r3_node_7&#45;&gt;r3_node_13 -->
<g id="edge11" class="edge">
<title>r3_node_7&#45;&gt;r3_node_13</title>
<path fill="none" stroke="black" d="M137.67,-73.64C123.14,-64.04 104.19,-51.53 88.1,-40.9"/>
<polygon fill="black" stroke="black" points="90.04,-37.99 79.77,-35.4 86.19,-43.83 90.04,-37.99"/>
</g>
<!-- r3_node_7&#45;&gt;r3_node_15 -->
<g id="edge12" class="edge">
<title>r3_node_7&#45;&gt;r3_node_15</title>
<path fill="none" stroke="black" d="M152.15,-108.12C145.72,-116.67 136.91,-127.17 128.36,-136.55"/>
<polygon fill="black" stroke="black" points="125.98,-133.97 121.69,-143.66 131.08,-138.76 125.98,-133.97"/>
</g>
<!-- r3_node_7&#45;&gt;r3_node_11 -->
<g id="edge10" class="edge">
<title>r3_node_7&#45;&gt;r3_node_11</title>
<path fill="none" stroke="black" d="M196.52,-76.97C230.61,-65.44 282.29,-47.96 319.99,-35.21"/>
<polygon fill="black" stroke="black" points="320.94,-38.59 329.29,-32.07 318.69,-31.96 320.94,-38.59"/>
</g>
<!-- r3_node_7&#45;&gt;r3_node_10 -->
<g id="edge9" class="edge">
<title>r3_node_7&#45;&gt;r3_node_10</title>
<path fill="none" stroke="black" d="M179.26,-72.76C189.26,-63.91 201.82,-52.77 212.93,-42.93"/>
<polygon fill="black" stroke="black" points="215.14,-45.65 220.3,-36.39 210.5,-40.41 215.14,-45.65"/>
</g>
</g>
</svg>
