<?xml version="1.0" encoding="UTF-8" standalone="no"?>
<!DOCTYPE svg PUBLIC "-//W3C//DTD SVG 1.1//EN"
 "http://www.w3.org/Graphics/SVG/1.1/DTD/svg11.dtd">
<!-- Generated by graphviz version 12.2.1 (20241206.2353)
 -->
<!-- Pages: 1 -->
<svg width="1080pt" height="188pt"
 viewBox="0.00 0.00 1079.52 188.00" xmlns="http://www.w3.org/2000/svg" xmlns:xlink="http://www.w3.org/1999/xlink">
<g id="graph0" class="graph" transform="scale(1 1) rotate(0) translate(4 184)">
<polygon fill="white" stroke="none" points="-4,4 -4,-184 1075.52,-184 1075.52,4 -4,4"/>
<!-- r2_node_19 -->
<g id="node1" class="node">
<title>r2_node_19</title>
<ellipse fill="none" stroke="black" cx="381.33" cy="-90" rx="54.93" ry="18"/>
<text text-anchor="middle" x="381.33" y="-84.95" font-family="Times,serif" font-size="14.00">r2_node_19</text>
</g>
<!-- r2_node_9 -->
<g id="node2" class="node">
<title>r2_node_9</title>
<ellipse fill="none" stroke="black" cx="875.33" cy="-18" rx="50.33" ry="18"/>
<text text-anchor="middle" x="875.33" y="-12.95" font-family="Times,serif" font-size="14.00">r2_node_9</text>
</g>
<!-- r2_node_23 -->
<g id="node3" class="node">
<title>r2_node_23</title>
<ellipse fill="none" stroke="black" cx="221.33" cy="-18" rx="54.93" ry="18"/>
<text text-anchor="middle" x="221.33" y="-12.95" font-family="Times,serif" font-size="14.00">r2_node_23</text>
</g>
<!-- r2_node_3 -->
<g id="node4" class="node">
<title>r2_node_3</title>
<ellipse fill="none" stroke="black" cx="199.33" cy="-162" rx="50.33" ry="18"/>
<text text-anchor="middle" x="199.33" y="-156.95" font-family="Times,serif" font-size="14.00">r2_node_3</text>
</g>
<!-- r2_node_5 -->
<g id="node5" class="node">
<title>r2_node_5</title>
<ellipse fill="none" stroke="black" cx="504.33" cy="-90" rx="50.33" ry="18"/>
<text text-anchor="middle" x="504.33" y="-84.95" font-family="Times,serif" font-size="14.00">r2_node_5</text>
</g>
<!-- r2_node_3&#45;&gt;r2_node_5 -->
<g id="edge1" class="edge">
<title>r2_node_3&#45;&gt;r2_node_5</title>
<path fill="none" stroke="black" d="M238.32,-150.22C247.49,-148.13 257.21,-145.98 266.33,-144 341.79,-127.57 361.4,-126.7 436.33,-108 441.49,-106.71 446.87,-105.28 452.27,-103.81"/>
<polygon fill="black" stroke="black" points="453.13,-107.21 461.84,-101.18 451.27,-100.46 453.13,-107.21"/>
</g>
<!-- r2_node_21 -->
<g id="node6" class="node">
<title>r2_node_21</title>
<ellipse fill="none" stroke="black" cx="364.33" cy="-18" rx="54.93" ry="18"/>
<text text-anchor="middle" x="364.33" y="-12.95" font-family="Times,serif" font-size="14.00">r2_node_21</text>
</g>
<!-- r2_node_3&#45;&gt;r2_node_21 -->
<g id="edge2" class="edge">
<title>r2_node_3&#45;&gt;r2_node_21</title>
<path fill="none" stroke="black" d="M190.64,-143.78C182.22,-124.38 172.82,-92.87 188.33,-72 195.83,-61.9 260.89,-44.13 309.74,-31.97"/>
<polygon fill="black" stroke="black" points="310.48,-35.39 319.36,-29.6 308.81,-28.6 310.48,-35.39"/>
</g>
<!-- r2_node_24 -->
<g id="node7" class="node">
<title>r2_node_24</title>
<ellipse fill="none" stroke="black" cx="252.33" cy="-90" rx="54.93" ry="18"/>
<text text-anchor="middle" x="252.33" y="-84.95" font-family="Times,serif" font-size="14.00">r2_node_24</text>
</g>
<!-- r2_node_3&#45;&gt;r2_node_24 -->
<g id="edge3" class="edge">
<title>r2_node_3&#45;&gt;r2_node_24</title>
<path fill="none" stroke="black" d="M211.89,-144.41C218.07,-136.25 225.66,-126.22 232.59,-117.07"/>
<polygon fill="black" stroke="black" points="235.33,-119.25 238.58,-109.16 229.75,-115.02 235.33,-119.25"/>
</g>
<!-- r2_node_5&#45;&gt;r2_node_3 -->
<g id="edge6" class="edge">
<title>r2_node_5&#45;&gt;r2_node_3</title>
<path fill="none" stroke="black" d="M470.5,-103.71C465.12,-105.22 459.6,-106.68 454.33,-108 379.4,-126.7 359.79,-127.57 284.33,-144 274.73,-146.09 264.46,-148.36 254.46,-150.55"/>
<polygon fill="black" stroke="black" points="253.85,-147.1 244.82,-152.64 255.34,-153.94 253.85,-147.1"/>
</g>
<!-- r2_node_14 -->
<g id="node8" class="node">
<title>r2_node_14</title>
<ellipse fill="none" stroke="black" cx="751.33" cy="-18" rx="54.93" ry="18"/>
<text text-anchor="middle" x="751.33" y="-12.95" font-family="Times,serif" font-size="14.00">r2_node_14</text>
</g>
<!-- r2_node_5&#45;&gt;r2_node_14 -->
<g id="edge4" class="edge">
<title>r2_node_5&#45;&gt;r2_node_14</title>
<path fill="none" stroke="black" d="M542.72,-77.9C549.58,-75.93 556.66,-73.9 563.33,-72 609.48,-58.84 662.07,-44.04 699.86,-33.42"/>
<polygon fill="black" stroke="black" points="700.46,-36.89 709.14,-30.82 698.57,-30.15 700.46,-36.89"/>
</g>
<!-- r2_node_6 -->
<g id="node9" class="node">
<title>r2_node_6</title>
<ellipse fill="none" stroke="black" cx="494.33" cy="-18" rx="50.33" ry="18"/>
<text text-anchor="middle" x="494.33" y="-12.95" font-family="Times,serif" font-size="14.00">r2_node_6</text>
</g>
<!-- r2_node_5&#45;&gt;r2_node_6 -->
<g id="edge5" class="edge">
<title>r2_node_5&#45;&gt;r2_node_6</title>
<path fill="none" stroke="black" d="M501.86,-71.7C500.8,-64.32 499.55,-55.52 498.36,-47.25"/>
<polygon fill="black" stroke="black" points="501.86,-47.01 496.99,-37.6 494.93,-48 501.86,-47.01"/>
</g>
<!-- r2_node_29 -->
<g id="node10" class="node">
<title>r2_node_29</title>
<ellipse fill="none" stroke="black" cx="621.33" cy="-18" rx="54.93" ry="18"/>
<text text-anchor="middle" x="621.33" y="-12.95" font-family="Times,serif" font-size="14.00">r2_node_29</text>
</g>
<!-- r2_node_5&#45;&gt;r2_node_29 -->
<g id="edge7" class="edge">
<title>r2_node_5&#45;&gt;r2_node_29</title>
<path fill="none" stroke="black" d="M529.43,-73.98C545.97,-64.09 567.87,-50.98 586.15,-40.05"/>
<polygon fill="black" stroke="black" points="587.78,-43.15 594.57,-35.01 584.19,-37.14 587.78,-43.15"/>
</g>
<!-- r2_node_1 -->
<g id="node11" class="node">
<title>r2_node_1</title>
<ellipse fill="none" stroke="black" cx="638.33" cy="-162" rx="50.33" ry="18"/>
<text text-anchor="middle" x="638.33" y="-156.95" font-family="Times,serif" font-size="14.00">r2_node_1</text>
</g>
<!-- r2_node_1&#45;&gt;r2_node_9 -->
<g id="edge9" class="edge">
<title>r2_node_1&#45;&gt;r2_node_9</title>
<path fill="none" stroke="black" d="M687.88,-158.42C794.27,-152.36 1036.93,-135.64 1061.33,-108 1102.39,-61.47 1002.56,-37.15 933.81,-26.29"/>
<polygon fill="black" stroke="black" points="934.56,-22.86 924.15,-24.83 933.51,-29.79 934.56,-22.86"/>
</g>
<!-- r2_node_1&#45;&gt;r2_node_14 -->
<g id="edge8" class="edge">
<title>r2_node_1&#45;&gt;r2_node_14</title>
<path fill="none" stroke="black" d="M685.28,-155.1C738.09,-147.38 818.92,-131.95 837.33,-108 847.08,-95.31 845.13,-85.97 837.33,-72 828.63,-56.42 813.27,-44.86 797.91,-36.58"/>
<polygon fill="black" stroke="black" points="799.75,-33.58 789.24,-32.27 796.64,-39.85 799.75,-33.58"/>
</g>
<!-- r2_node_1&#45;&gt;r2_node_29 -->
<g id="edge10" class="edge">
<title>r2_node_1&#45;&gt;r2_node_29</title>
<path fill="none" stroke="black" d="M685.77,-155.51C751.46,-145.95 857.92,-122.28 819.33,-72 818.19,-70.51 732.63,-47.99 674.37,-32.79"/>
<polygon fill="black" stroke="black" points="675.5,-29.46 664.94,-30.33 673.74,-36.24 675.5,-29.46"/>
</g>
<!-- r2_node_30 -->
<g id="node12" class="node">
<title>r2_node_30</title>
<ellipse fill="none" stroke="black" cx="997.33" cy="-90" rx="54.93" ry="18"/>
<text text-anchor="middle" x="997.33" y="-84.95" font-family="Times,serif" font-size="14.00">r2_node_30</text>
</g>
<!-- r2_node_1&#45;&gt;r2_node_30 -->
<g id="edge11" class="edge">
<title>r2_node_1&#45;&gt;r2_node_30</title>
<path fill="none" stroke="black" d="M683.21,-153.67C740.34,-144.14 842,-126.5 928.33,-108 933.48,-106.89 938.84,-105.68 944.19,-104.43"/>
<polygon fill="black" stroke="black" points="944.7,-107.91 953.62,-102.19 943.08,-101.1 944.7,-107.91"/>
</g>
<!-- r2_node_16 -->
<g id="node13" class="node">
<title>r2_node_16</title>
<ellipse fill="none" stroke="black" cx="627.33" cy="-90" rx="54.93" ry="18"/>
<text text-anchor="middle" x="627.33" y="-84.95" font-family="Times,serif" font-size="14.00">r2_node_16</text>
</g>
<!-- r2_node_2 -->
<g id="node14" class="node">
<title>r2_node_2</title>
<ellipse fill="none" stroke="black" cx="68.33" cy="-18" rx="50.33" ry="18"/>
<text text-anchor="middle" x="68.33" y="-12.95" font-family="Times,serif" font-size="14.00">r2_node_2</text>
</g>
<!-- r2_node_7 -->
<g id="node15" class="node">
<title>r2_node_7</title>
<ellipse fill="none" stroke="black" cx="50.33" cy="-162" rx="50.33" ry="18"/>
<text text-anchor="middle" x="50.33" y="-156.95" font-family="Times,serif" font-size="14.00">r2_node_7</text>
</g>
<!-- r2_node_7&#45;&gt;r2_node_19 -->
<g id="edge15" class="edge">
<title>r2_node_7&#45;&gt;r2_node_19</title>
<path fill="none" stroke="black" d="M93.95,-152.63C158.06,-140.28 274.63,-117.6 316.33,-108 320.37,-107.07 324.55,-106.07 328.75,-105.03"/>
<polygon fill="black" stroke="black" points="329.5,-108.45 338.34,-102.62 327.79,-101.67 329.5,-108.45"/>
</g>
<!-- r2_node_7&#45;&gt;r2_node_23 -->
<g id="edge13" class="edge">
<title>r2_node_7&#45;&gt;r2_node_23</title>
<path fill="none" stroke="black" d="M58.75,-143.97C69.1,-124.46 88.28,-92.56 112.33,-72 130.15,-56.76 153.12,-44.74 173.37,-36.03"/>
<polygon fill="black" stroke="black" points="174.67,-39.28 182.59,-32.23 172.01,-32.81 174.67,-39.28"/>
</g>
<!-- r2_node_7&#45;&gt;r2_node_21 -->
<g id="edge12" class="edge">
<title>r2_node_7&#45;&gt;r2_node_21</title>
<path fill="none" stroke="black" d="M68.69,-144.94C92.16,-125.19 134.75,-91.82 176.33,-72 199.87,-60.78 262.99,-43.91 309.63,-32.23"/>
<polygon fill="black" stroke="black" points="310.47,-35.62 319.33,-29.81 308.79,-28.83 310.47,-35.62"/>
</g>
<!-- r2_node_7&#45;&gt;r2_node_2 -->
<g id="edge14" class="edge">
<title>r2_node_7&#45;&gt;r2_node_2</title>
<path fill="none" stroke="black" d="M52.53,-143.59C55.57,-119.61 61.08,-76.14 64.73,-47.42"/>
<polygon fill="black" stroke="black" points="68.18,-47.97 65.97,-37.61 61.24,-47.09 68.18,-47.97"/>
</g>
<!-- r2_node_10 -->
<g id="node16" class="node">
<title>r2_node_10</title>
<ellipse fill="none" stroke="black" cx="339.33" cy="-162" rx="54.93" ry="18"/>
<text text-anchor="middle" x="339.33" y="-156.95" font-family="Times,serif" font-size="14.00">r2_node_10</text>
</g>
<!-- r2_node_10&#45;&gt;r2_node_19 -->
<g id="edge18" class="edge">
<title>r2_node_10&#45;&gt;r2_node_19</title>
<path fill="none" stroke="black" d="M349.49,-144.05C354.29,-136.06 360.13,-126.33 365.49,-117.4"/>
<polygon fill="black" stroke="black" points="368.33,-119.46 370.48,-109.09 362.33,-115.86 368.33,-119.46"/>
</g>
<!-- r2_node_10&#45;&gt;r2_node_9 -->
<g id="edge19" class="edge">
<title>r2_node_10&#45;&gt;r2_node_9</title>
<path fill="none" stroke="black" d="M393.09,-157.7C510.82,-150.08 783.8,-130.25 819.33,-108 841.78,-93.94 856.77,-67.22 865.55,-46.71"/>
<polygon fill="black" stroke="black" points="868.78,-48.07 869.23,-37.48 862.27,-45.47 868.78,-48.07"/>
</g>
<!-- r2_node_10&#45;&gt;r2_node_16 -->
<g id="edge17" class="edge">
<title>r2_node_10&#45;&gt;r2_node_16</title>
<path fill="none" stroke="black" d="M383.62,-150.9C428.87,-140.49 501.12,-123.62 563.33,-108 567.12,-107.05 571.04,-106.05 574.98,-105.03"/>
<polygon fill="black" stroke="black" points="575.8,-108.43 584.59,-102.52 574.03,-101.66 575.8,-108.43"/>
</g>
<!-- r2_node_11 -->
<g id="node17" class="node">
<title>r2_node_11</title>
<ellipse fill="none" stroke="black" cx="755.33" cy="-90" rx="54.93" ry="18"/>
<text text-anchor="middle" x="755.33" y="-84.95" font-family="Times,serif" font-size="14.00">r2_node_11</text>
</g>
<!-- r2_node_10&#45;&gt;r2_node_11 -->
<g id="edge16" class="edge">
<title>r2_node_10&#45;&gt;r2_node_11</title>
<path fill="none" stroke="black" d="M390.65,-155.07C459.47,-146.72 585.28,-130 691.33,-108 695.39,-107.16 699.59,-106.21 703.79,-105.21"/>
<polygon fill="black" stroke="black" points="704.53,-108.64 713.39,-102.83 702.84,-101.84 704.53,-108.64"/>
</g>
</g>
</svg>
