<?xml version="1.0" encoding="UTF-8" standalone="no"?>
<!DOCTYPE svg PUBLIC "-//W3C//DTD SVG 1.1//EN"
 "http://www.w3.org/Graphics/SVG/1.1/DTD/svg11.dtd">
<!-- Generated by graphviz version 12.2.1 (20241206.2353)
 -->
<!-- Pages: 1 -->
<svg width="593pt" height="188pt"
 viewBox="0.00 0.00 593.26 188.00" xmlns="http://www.w3.org/2000/svg" xmlns:xlink="http://www.w3.org/1999/xlink">
<g id="graph0" class="graph" transform="scale(1 1) rotate(0) translate(4 184)">
<polygon fill="white" stroke="none" points="-4,4 -4,-184 589.26,-184 589.26,4 -4,4"/>
<!-- r1_node_5 -->
<g id="node1" class="node">
<title>r1_node_5</title>
<ellipse fill="none" stroke="black" cx="109.33" cy="-162" rx="50.33" ry="18"/>
<text text-anchor="middle" x="109.33" y="-156.95" font-family="Times,serif" font-size="14.00">r1_node_5</text>
</g>
<!-- r1_node_7 -->
<g id="node2" class="node">
<title>r1_node_7</title>
<ellipse fill="none" stroke="black" cx="50.33" cy="-90" rx="50.33" ry="18"/>
<text text-anchor="middle" x="50.33" y="-84.95" font-family="Times,serif" font-size="14.00">r1_node_7</text>
</g>
<!-- r1_node_5&#45;&gt;r1_node_7 -->
<g id="edge1" class="edge">
<title>r1_node_5&#45;&gt;r1_node_7</title>
<path fill="none" stroke="black" d="M90.18,-145.12C82.18,-136.77 73.12,-126.32 65.57,-116.84"/>
<polygon fill="black" stroke="black" points="68.41,-114.8 59.54,-109 62.86,-119.06 68.41,-114.8"/>
</g>
<!-- r1_node_8 -->
<g id="node3" class="node">
<title>r1_node_8</title>
<ellipse fill="none" stroke="black" cx="288.33" cy="-90" rx="50.33" ry="18"/>
<text text-anchor="middle" x="288.33" y="-84.95" font-family="Times,serif" font-size="14.00">r1_node_8</text>
</g>
<!-- r1_node_5&#45;&gt;r1_node_8 -->
<g id="edge2" class="edge">
<title>r1_node_5&#45;&gt;r1_node_8</title>
<path fill="none" stroke="black" d="M139.19,-147.17C167.28,-135.57 209.55,-119.01 241.99,-106.87"/>
<polygon fill="black" stroke="black" points="243,-110.23 251.16,-103.46 240.57,-103.66 243,-110.23"/>
</g>
<!-- r1_node_6 -->
<g id="node4" class="node">
<title>r1_node_6</title>
<ellipse fill="none" stroke="black" cx="169.33" cy="-90" rx="50.33" ry="18"/>
<text text-anchor="middle" x="169.33" y="-84.95" font-family="Times,serif" font-size="14.00">r1_node_6</text>
</g>
<!-- r1_node_5&#45;&gt;r1_node_6 -->
<g id="edge3" class="edge">
<title>r1_node_5&#45;&gt;r1_node_6</title>
<path fill="none" stroke="black" d="M117.97,-144.05C124.49,-135.38 133.48,-124.67 142.18,-115.15"/>
<polygon fill="black" stroke="black" points="144.66,-117.61 148.97,-107.93 139.57,-112.82 144.66,-117.61"/>
</g>
<!-- r1_node_7&#45;&gt;r1_node_5 -->
<g id="edge12" class="edge">
<title>r1_node_7&#45;&gt;r1_node_5</title>
<path fill="none" stroke="black" d="M69.42,-106.83C77.4,-115.15 86.43,-125.56 93.98,-135.02"/>
<polygon fill="black" stroke="black" points="91.13,-137.06 100,-142.86 96.68,-132.79 91.13,-137.06"/>
</g>
<!-- r1_node_1 -->
<g id="node5" class="node">
<title>r1_node_1</title>
<ellipse fill="none" stroke="black" cx="169.33" cy="-18" rx="50.33" ry="18"/>
<text text-anchor="middle" x="169.33" y="-12.95" font-family="Times,serif" font-size="14.00">r1_node_1</text>
</g>
<!-- r1_node_7&#45;&gt;r1_node_1 -->
<g id="edge13" class="edge">
<title>r1_node_7&#45;&gt;r1_node_1</title>
<path fill="none" stroke="black" d="M75.56,-74.15C92.68,-64.09 115.54,-50.64 134.4,-39.54"/>
<polygon fill="black" stroke="black" points="135.98,-42.68 142.82,-34.59 132.43,-36.64 135.98,-42.68"/>
</g>
<!-- r1_node_9 -->
<g id="node6" class="node">
<title>r1_node_9</title>
<ellipse fill="none" stroke="black" cx="50.33" cy="-18" rx="50.33" ry="18"/>
<text text-anchor="middle" x="50.33" y="-12.95" font-family="Times,serif" font-size="14.00">r1_node_9</text>
</g>
<!-- r1_node_7&#45;&gt;r1_node_9 -->
<g id="edge14" class="edge">
<title>r1_node_7&#45;&gt;r1_node_9</title>
<path fill="none" stroke="black" d="M50.33,-71.7C50.33,-64.41 50.33,-55.73 50.33,-47.54"/>
<polygon fill="black" stroke="black" points="53.83,-47.62 50.33,-37.62 46.83,-47.62 53.83,-47.62"/>
</g>
<!-- r1_node_8&#45;&gt;r1_node_5 -->
<g id="edge4" class="edge">
<title>r1_node_8&#45;&gt;r1_node_5</title>
<path fill="none" stroke="black" d="M258.55,-104.8C230.54,-116.36 188.37,-132.89 155.93,-145.03"/>
<polygon fill="black" stroke="black" points="154.91,-141.68 146.76,-148.44 157.35,-148.24 154.91,-141.68"/>
</g>
<!-- r1_node_2 -->
<g id="node7" class="node">
<title>r1_node_2</title>
<ellipse fill="none" stroke="black" cx="288.33" cy="-18" rx="50.33" ry="18"/>
<text text-anchor="middle" x="288.33" y="-12.95" font-family="Times,serif" font-size="14.00">r1_node_2</text>
</g>
<!-- r1_node_8&#45;&gt;r1_node_2 -->
<g id="edge5" class="edge">
<title>r1_node_8&#45;&gt;r1_node_2</title>
<path fill="none" stroke="black" d="M288.33,-71.7C288.33,-64.41 288.33,-55.73 288.33,-47.54"/>
<polygon fill="black" stroke="black" points="291.83,-47.62 288.33,-37.62 284.83,-47.62 291.83,-47.62"/>
</g>
<!-- r1_node_10 -->
<g id="node8" class="node">
<title>r1_node_10</title>
<ellipse fill="none" stroke="black" cx="530.33" cy="-18" rx="54.93" ry="18"/>
<text text-anchor="middle" x="530.33" y="-12.95" font-family="Times,serif" font-size="14.00">r1_node_10</text>
</g>
<!-- r1_node_8&#45;&gt;r1_node_10 -->
<g id="edge6" class="edge">
<title>r1_node_8&#45;&gt;r1_node_10</title>
<path fill="none" stroke="black" d="M326.67,-77.91C367.92,-65.98 433.71,-46.95 479.31,-33.76"/>
<polygon fill="black" stroke="black" points="480.06,-37.18 488.69,-31.04 478.11,-30.46 480.06,-37.18"/>
</g>
<!-- r1_node_4 -->
<g id="node9" class="node">
<title>r1_node_4</title>
<ellipse fill="none" stroke="black" cx="407.33" cy="-18" rx="50.33" ry="18"/>
<text text-anchor="middle" x="407.33" y="-12.95" font-family="Times,serif" font-size="14.00">r1_node_4</text>
</g>
<!-- r1_node_8&#45;&gt;r1_node_4 -->
<g id="edge7" class="edge">
<title>r1_node_8&#45;&gt;r1_node_4</title>
<path fill="none" stroke="black" d="M313.56,-74.15C330.68,-64.09 353.54,-50.64 372.4,-39.54"/>
<polygon fill="black" stroke="black" points="373.98,-42.68 380.82,-34.59 370.43,-36.64 373.98,-42.68"/>
</g>
<!-- r1_node_6&#45;&gt;r1_node_5 -->
<g id="edge11" class="edge">
<title>r1_node_6&#45;&gt;r1_node_5</title>
<path fill="none" stroke="black" d="M160.79,-107.8C154.29,-116.47 145.28,-127.21 136.56,-136.77"/>
<polygon fill="black" stroke="black" points="134.04,-134.33 129.74,-144.01 139.14,-139.13 134.04,-134.33"/>
</g>
<!-- r1_node_6&#45;&gt;r1_node_1 -->
<g id="edge9" class="edge">
<title>r1_node_6&#45;&gt;r1_node_1</title>
<path fill="none" stroke="black" d="M169.33,-71.7C169.33,-64.41 169.33,-55.73 169.33,-47.54"/>
<polygon fill="black" stroke="black" points="172.83,-47.62 169.33,-37.62 165.83,-47.62 172.83,-47.62"/>
</g>
<!-- r1_node_6&#45;&gt;r1_node_2 -->
<g id="edge8" class="edge">
<title>r1_node_6&#45;&gt;r1_node_2</title>
<path fill="none" stroke="black" d="M194.56,-74.15C211.68,-64.09 234.54,-50.64 253.4,-39.54"/>
<polygon fill="black" stroke="black" points="254.98,-42.68 261.82,-34.59 251.43,-36.64 254.98,-42.68"/>
</g>
<!-- r1_node_6&#45;&gt;r1_node_4 -->
<g id="edge10" class="edge">
<title>r1_node_6&#45;&gt;r1_node_4</title>
<path fill="none" stroke="black" d="M207.3,-77.83C248.32,-65.77 313.78,-46.51 358.57,-33.34"/>
<polygon fill="black" stroke="black" points="359.43,-36.74 368.04,-30.56 357.45,-30.02 359.43,-36.74"/>
</g>
</g>
</svg>
