<?xml version="1.0" encoding="UTF-8" standalone="no"?>
<!DOCTYPE svg PUBLIC "-//W3C//DTD SVG 1.1//EN"
 "http://www.w3.org/Graphics/SVG/1.1/DTD/svg11.dtd">
<!-- Generated by graphviz version 12.2.1 (20241206.2353)
 -->
<!-- Pages: 1 -->
<svg width="953pt" height="188pt"
 viewBox="0.00 0.00 953.26 188.00" xmlns="http://www.w3.org/2000/svg" xmlns:xlink="http://www.w3.org/1999/xlink">
<g id="graph0" class="graph" transform="scale(1 1) rotate(0) translate(4 184)">
<polygon fill="white" stroke="none" points="-4,4 -4,-184 949.26,-184 949.26,4 -4,4"/>
<!-- r2_node_16 -->
<g id="node1" class="node">
<title>r2_node_16</title>
<ellipse fill="none" stroke="black" cx="72.33" cy="-162" rx="54.93" ry="18"/>
<text text-anchor="middle" x="72.33" y="-156.95" font-family="Times,serif" font-size="14.00">r2_node_16</text>
</g>
<!-- r2_node_6 -->
<g id="node2" class="node">
<title>r2_node_6</title>
<ellipse fill="none" stroke="black" cx="50.33" cy="-18" rx="50.33" ry="18"/>
<text text-anchor="middle" x="50.33" y="-12.95" font-family="Times,serif" font-size="14.00">r2_node_6</text>
</g>
<!-- r2_node_16&#45;&gt;r2_node_6 -->
<g id="edge1" class="edge">
<title>r2_node_16&#45;&gt;r2_node_6</title>
<path fill="none" stroke="black" d="M69.63,-143.59C65.92,-119.61 59.18,-76.14 54.73,-47.42"/>
<polygon fill="black" stroke="black" points="58.2,-46.95 53.21,-37.61 51.28,-48.02 58.2,-46.95"/>
</g>
<!-- r2_node_15 -->
<g id="node3" class="node">
<title>r2_node_15</title>
<ellipse fill="none" stroke="black" cx="173.33" cy="-18" rx="54.93" ry="18"/>
<text text-anchor="middle" x="173.33" y="-12.95" font-family="Times,serif" font-size="14.00">r2_node_15</text>
</g>
<!-- r2_node_16&#45;&gt;r2_node_15 -->
<g id="edge2" class="edge">
<title>r2_node_16&#45;&gt;r2_node_15</title>
<path fill="none" stroke="black" d="M77.84,-143.8C84.39,-124.99 96.58,-94.52 113.33,-72 121.54,-60.96 132.37,-50.53 142.57,-41.89"/>
<polygon fill="black" stroke="black" points="144.57,-44.78 150.12,-35.75 140.15,-39.35 144.57,-44.78"/>
</g>
<!-- r2_node_2 -->
<g id="node4" class="node">
<title>r2_node_2</title>
<ellipse fill="none" stroke="black" cx="172.33" cy="-90" rx="50.33" ry="18"/>
<text text-anchor="middle" x="172.33" y="-84.95" font-family="Times,serif" font-size="14.00">r2_node_2</text>
</g>
<!-- r2_node_16&#45;&gt;r2_node_2 -->
<g id="edge3" class="edge">
<title>r2_node_16&#45;&gt;r2_node_2</title>
<path fill="none" stroke="black" d="M89.72,-144.76C102.58,-135 120.33,-122.46 136.15,-111.96"/>
<polygon fill="black" stroke="black" points="137.97,-114.95 144.42,-106.55 134.13,-109.09 137.97,-114.95"/>
</g>
<!-- r2_node_7 -->
<g id="node5" class="node">
<title>r2_node_7</title>
<ellipse fill="none" stroke="black" cx="799.33" cy="-18" rx="50.33" ry="18"/>
<text text-anchor="middle" x="799.33" y="-12.95" font-family="Times,serif" font-size="14.00">r2_node_7</text>
</g>
<!-- r2_node_16&#45;&gt;r2_node_7 -->
<g id="edge4" class="edge">
<title>r2_node_16&#45;&gt;r2_node_7</title>
<path fill="none" stroke="black" d="M114.2,-149.95C146.88,-140.64 193,-125.98 231.33,-108 258.8,-95.11 260.51,-81.48 289.33,-72 479.93,-9.33 541.86,-71.52 739.33,-36 743.35,-35.28 747.48,-34.4 751.62,-33.42"/>
<polygon fill="black" stroke="black" points="752.17,-36.9 761,-31.04 750.45,-30.11 752.17,-36.9"/>
</g>
<!-- r2_node_4 -->
<g id="node6" class="node">
<title>r2_node_4</title>
<ellipse fill="none" stroke="black" cx="348.33" cy="-90" rx="50.33" ry="18"/>
<text text-anchor="middle" x="348.33" y="-84.95" font-family="Times,serif" font-size="14.00">r2_node_4</text>
</g>
<!-- r2_node_16&#45;&gt;r2_node_4 -->
<g id="edge5" class="edge">
<title>r2_node_16&#45;&gt;r2_node_4</title>
<path fill="none" stroke="black" d="M114.85,-150.22C163.87,-137.78 244.43,-117.35 296.93,-104.04"/>
<polygon fill="black" stroke="black" points="297.71,-107.45 306.54,-101.6 295.99,-100.66 297.71,-107.45"/>
</g>
<!-- r2_node_2&#45;&gt;r2_node_16 -->
<g id="edge12" class="edge">
<title>r2_node_2&#45;&gt;r2_node_16</title>
<path fill="none" stroke="black" d="M154.97,-107.21C142.22,-116.9 124.65,-129.31 108.93,-139.76"/>
<polygon fill="black" stroke="black" points="107.15,-136.75 100.7,-145.15 110.99,-142.6 107.15,-136.75"/>
</g>
<!-- r2_node_2&#45;&gt;r2_node_15 -->
<g id="edge17" class="edge">
<title>r2_node_2&#45;&gt;r2_node_15</title>
<path fill="none" stroke="black" d="M172.57,-71.7C172.68,-64.41 172.8,-55.73 172.92,-47.54"/>
<polygon fill="black" stroke="black" points="176.42,-47.67 173.06,-37.62 169.42,-47.57 176.42,-47.67"/>
</g>
<!-- r2_node_19 -->
<g id="node8" class="node">
<title>r2_node_19</title>
<ellipse fill="none" stroke="black" cx="301.33" cy="-18" rx="54.93" ry="18"/>
<text text-anchor="middle" x="301.33" y="-12.95" font-family="Times,serif" font-size="14.00">r2_node_19</text>
</g>
<!-- r2_node_2&#45;&gt;r2_node_19 -->
<g id="edge13" class="edge">
<title>r2_node_2&#45;&gt;r2_node_19</title>
<path fill="none" stroke="black" d="M199.06,-74.5C217.74,-64.36 242.96,-50.67 263.68,-39.43"/>
<polygon fill="black" stroke="black" points="265.29,-42.54 272.41,-34.69 261.95,-36.38 265.29,-42.54"/>
</g>
<!-- r2_node_3 -->
<g id="node11" class="node">
<title>r2_node_3</title>
<ellipse fill="none" stroke="black" cx="680.33" cy="-18" rx="50.33" ry="18"/>
<text text-anchor="middle" x="680.33" y="-12.95" font-family="Times,serif" font-size="14.00">r2_node_3</text>
</g>
<!-- r2_node_2&#45;&gt;r2_node_3 -->
<g id="edge15" class="edge">
<title>r2_node_2&#45;&gt;r2_node_3</title>
<path fill="none" stroke="black" d="M212.91,-79.08C224.61,-76.48 237.43,-73.88 249.33,-72 413.39,-46.05 458.16,-67.13 621.33,-36 625.11,-35.28 628.99,-34.42 632.88,-33.49"/>
<polygon fill="black" stroke="black" points="633.49,-36.94 642.29,-31.05 631.73,-30.17 633.49,-36.94"/>
</g>
<!-- r2_node_20 -->
<g id="node14" class="node">
<title>r2_node_20</title>
<ellipse fill="none" stroke="black" cx="429.33" cy="-18" rx="54.93" ry="18"/>
<text text-anchor="middle" x="429.33" y="-12.95" font-family="Times,serif" font-size="14.00">r2_node_20</text>
</g>
<!-- r2_node_2&#45;&gt;r2_node_20 -->
<g id="edge14" class="edge">
<title>r2_node_2&#45;&gt;r2_node_20</title>
<path fill="none" stroke="black" d="M211.64,-78.29C255.86,-66.25 327.89,-46.63 376.88,-33.28"/>
<polygon fill="black" stroke="black" points="377.7,-36.69 386.43,-30.68 375.86,-29.94 377.7,-36.69"/>
</g>
<!-- r2_node_11 -->
<g id="node15" class="node">
<title>r2_node_11</title>
<ellipse fill="none" stroke="black" cx="557.33" cy="-18" rx="54.93" ry="18"/>
<text text-anchor="middle" x="557.33" y="-12.95" font-family="Times,serif" font-size="14.00">r2_node_11</text>
</g>
<!-- r2_node_2&#45;&gt;r2_node_11 -->
<g id="edge16" class="edge">
<title>r2_node_2&#45;&gt;r2_node_11</title>
<path fill="none" stroke="black" d="M213.38,-79.37C224.97,-76.81 237.61,-74.15 249.33,-72 357.14,-52.17 385.96,-58.11 493.33,-36 497.4,-35.16 501.59,-34.22 505.79,-33.23"/>
<polygon fill="black" stroke="black" points="506.53,-36.65 515.39,-30.85 504.85,-29.86 506.53,-36.65"/>
</g>
<!-- r2_node_8 -->
<g id="node7" class="node">
<title>r2_node_8</title>
<ellipse fill="none" stroke="black" cx="470.33" cy="-90" rx="50.33" ry="18"/>
<text text-anchor="middle" x="470.33" y="-84.95" font-family="Times,serif" font-size="14.00">r2_node_8</text>
</g>
<!-- r2_node_10 -->
<g id="node9" class="node">
<title>r2_node_10</title>
<ellipse fill="none" stroke="black" cx="595.33" cy="-90" rx="54.93" ry="18"/>
<text text-anchor="middle" x="595.33" y="-84.95" font-family="Times,serif" font-size="14.00">r2_node_10</text>
</g>
<!-- r2_node_12 -->
<g id="node10" class="node">
<title>r2_node_12</title>
<ellipse fill="none" stroke="black" cx="262.33" cy="-162" rx="54.93" ry="18"/>
<text text-anchor="middle" x="262.33" y="-156.95" font-family="Times,serif" font-size="14.00">r2_node_12</text>
</g>
<!-- r2_node_12&#45;&gt;r2_node_4 -->
<g id="edge9" class="edge">
<title>r2_node_12&#45;&gt;r2_node_4</title>
<path fill="none" stroke="black" d="M282.27,-144.76C293.53,-135.6 307.79,-124 320.17,-113.92"/>
<polygon fill="black" stroke="black" points="322.07,-116.89 327.61,-107.86 317.65,-111.46 322.07,-116.89"/>
</g>
<!-- r2_node_12&#45;&gt;r2_node_8 -->
<g id="edge7" class="edge">
<title>r2_node_12&#45;&gt;r2_node_8</title>
<path fill="none" stroke="black" d="M299.51,-148.49C334.29,-136.78 386.36,-119.26 423.86,-106.64"/>
<polygon fill="black" stroke="black" points="424.71,-110.04 433.07,-103.54 422.48,-103.41 424.71,-110.04"/>
</g>
<!-- r2_node_12&#45;&gt;r2_node_10 -->
<g id="edge8" class="edge">
<title>r2_node_12&#45;&gt;r2_node_10</title>
<path fill="none" stroke="black" d="M309.28,-152.51C362.74,-142.64 452.61,-125.48 529.33,-108 533.68,-107.01 538.18,-105.94 542.7,-104.84"/>
<polygon fill="black" stroke="black" points="543.54,-108.23 552.4,-102.42 541.85,-101.44 543.54,-108.23"/>
</g>
<!-- r2_node_12&#45;&gt;r2_node_3 -->
<g id="edge6" class="edge">
<title>r2_node_12&#45;&gt;r2_node_3</title>
<path fill="none" stroke="black" d="M317.35,-161.1C414.37,-160.1 610.23,-152.46 659.33,-108 675.89,-93 680.59,-67.58 681.46,-47.74"/>
<polygon fill="black" stroke="black" points="684.96,-47.8 681.57,-37.76 677.96,-47.73 684.96,-47.8"/>
</g>
<!-- r2_node_14 -->
<g id="node12" class="node">
<title>r2_node_14</title>
<ellipse fill="none" stroke="black" cx="762.33" cy="-90" rx="54.93" ry="18"/>
<text text-anchor="middle" x="762.33" y="-84.95" font-family="Times,serif" font-size="14.00">r2_node_14</text>
</g>
<!-- r2_node_12&#45;&gt;r2_node_14 -->
<g id="edge10" class="edge">
<title>r2_node_12&#45;&gt;r2_node_14</title>
<path fill="none" stroke="black" d="M315.05,-156.56C396.59,-149.23 558.01,-132.9 693.33,-108 698.59,-107.03 704.04,-105.91 709.48,-104.7"/>
<polygon fill="black" stroke="black" points="710.11,-108.15 719.06,-102.48 708.53,-101.33 710.11,-108.15"/>
</g>
<!-- r2_node_17 -->
<g id="node13" class="node">
<title>r2_node_17</title>
<ellipse fill="none" stroke="black" cx="890.33" cy="-90" rx="54.93" ry="18"/>
<text text-anchor="middle" x="890.33" y="-84.95" font-family="Times,serif" font-size="14.00">r2_node_17</text>
</g>
<!-- r2_node_12&#45;&gt;r2_node_17 -->
<g id="edge11" class="edge">
<title>r2_node_12&#45;&gt;r2_node_17</title>
<path fill="none" stroke="black" d="M316.78,-158.89C417.88,-154.3 641.16,-141.06 826.33,-108 830.6,-107.24 835,-106.33 839.4,-105.34"/>
<polygon fill="black" stroke="black" points="839.89,-108.82 848.8,-103.08 838.26,-102.01 839.89,-108.82"/>
</g>
</g>
</svg>
