<?xml version="1.0" encoding="UTF-8" standalone="no"?>
<!DOCTYPE svg PUBLIC "-//W3C//DTD SVG 1.1//EN"
 "http://www.w3.org/Graphics/SVG/1.1/DTD/svg11.dtd">
<!-- Generated by graphviz version 12.2.1 (20241206.2353)
 -->
<!-- Pages: 1 -->
<svg width="637pt" height="332pt"
 viewBox="0.00 0.00 637.35 332.00" xmlns="http://www.w3.org/2000/svg" xmlns:xlink="http://www.w3.org/1999/xlink">
<g id="graph0" class="graph" transform="scale(1 1) rotate(0) translate(4 328)">
<polygon fill="white" stroke="none" points="-4,4 -4,-328 633.35,-328 633.35,4 -4,4"/>
<!-- r2_node_29 -->
<g id="node1" class="node">
<title>r2_node_29</title>
<ellipse fill="none" stroke="black" cx="388.93" cy="-162" rx="54.93" ry="18"/>
<text text-anchor="middle" x="388.93" y="-156.95" font-family="Times,serif" font-size="14.00">r2_node_29</text>
</g>
<!-- r2_node_1 -->
<g id="node2" class="node">
<title>r2_node_1</title>
<ellipse fill="none" stroke="black" cx="444.93" cy="-90" rx="50.33" ry="18"/>
<text text-anchor="middle" x="444.93" y="-84.95" font-family="Times,serif" font-size="14.00">r2_node_1</text>
</g>
<!-- r2_node_2 -->
<g id="node3" class="node">
<title>r2_node_2</title>
<ellipse fill="none" stroke="black" cx="563.93" cy="-90" rx="50.33" ry="18"/>
<text text-anchor="middle" x="563.93" y="-84.95" font-family="Times,serif" font-size="14.00">r2_node_2</text>
</g>
<!-- r2_node_16 -->
<g id="node4" class="node">
<title>r2_node_16</title>
<ellipse fill="none" stroke="black" cx="114.93" cy="-162" rx="54.93" ry="18"/>
<text text-anchor="middle" x="114.93" y="-156.95" font-family="Times,serif" font-size="14.00">r2_node_16</text>
</g>
<!-- r2_node_11 -->
<g id="node5" class="node">
<title>r2_node_11</title>
<ellipse fill="none" stroke="black" cx="54.93" cy="-90" rx="54.93" ry="18"/>
<text text-anchor="middle" x="54.93" y="-84.95" font-family="Times,serif" font-size="14.00">r2_node_11</text>
</g>
<!-- r2_node_16&#45;&gt;r2_node_11 -->
<g id="edge1" class="edge">
<title>r2_node_16&#45;&gt;r2_node_11</title>
<path fill="none" stroke="black" d="M95.22,-144.76C87.23,-136.53 78.23,-126.32 70.68,-117.02"/>
<polygon fill="black" stroke="black" points="73.57,-115.03 64.65,-109.32 68.06,-119.34 73.57,-115.03"/>
</g>
<!-- r2_node_10 -->
<g id="node6" class="node">
<title>r2_node_10</title>
<ellipse fill="none" stroke="black" cx="59.93" cy="-234" rx="54.93" ry="18"/>
<text text-anchor="middle" x="59.93" y="-228.95" font-family="Times,serif" font-size="14.00">r2_node_10</text>
</g>
<!-- r2_node_16&#45;&gt;r2_node_10 -->
<g id="edge2" class="edge">
<title>r2_node_16&#45;&gt;r2_node_10</title>
<path fill="none" stroke="black" d="M107.38,-180.12C101.61,-188.59 93.66,-198.96 85.85,-208.26"/>
<polygon fill="black" stroke="black" points="83.38,-205.77 79.48,-215.62 88.68,-210.35 83.38,-205.77"/>
</g>
<!-- r2_node_21 -->
<g id="node7" class="node">
<title>r2_node_21</title>
<ellipse fill="none" stroke="black" cx="249.93" cy="-90" rx="54.93" ry="18"/>
<text text-anchor="middle" x="249.93" y="-84.95" font-family="Times,serif" font-size="14.00">r2_node_21</text>
</g>
<!-- r2_node_16&#45;&gt;r2_node_21 -->
<g id="edge3" class="edge">
<title>r2_node_16&#45;&gt;r2_node_21</title>
<path fill="none" stroke="black" d="M143.23,-146.33C163.03,-136.06 189.72,-122.22 211.45,-110.95"/>
<polygon fill="black" stroke="black" points="213.06,-114.06 220.33,-106.35 209.84,-107.85 213.06,-114.06"/>
</g>
<!-- r2_node_23 -->
<g id="node8" class="node">
<title>r2_node_23</title>
<ellipse fill="none" stroke="black" cx="400.93" cy="-18" rx="54.93" ry="18"/>
<text text-anchor="middle" x="400.93" y="-12.95" font-family="Times,serif" font-size="14.00">r2_node_23</text>
</g>
<!-- r2_node_16&#45;&gt;r2_node_23 -->
<g id="edge4" class="edge">
<title>r2_node_16&#45;&gt;r2_node_23</title>
<path fill="none" stroke="black" d="M160.57,-151.79C210.86,-141.13 288.08,-123.1 313.93,-108 341.48,-91.92 366.19,-64.79 382.17,-44.7"/>
<polygon fill="black" stroke="black" points="384.81,-47.01 388.16,-36.95 379.27,-42.73 384.81,-47.01"/>
</g>
<!-- r2_node_11&#45;&gt;r2_node_16 -->
<g id="edge15" class="edge">
<title>r2_node_11&#45;&gt;r2_node_16</title>
<path fill="none" stroke="black" d="M74.26,-106.83C82.35,-115.15 91.53,-125.56 99.21,-135.02"/>
<polygon fill="black" stroke="black" points="96.43,-137.15 105.35,-142.86 101.94,-132.83 96.43,-137.15"/>
</g>
<!-- r2_node_11&#45;&gt;r2_node_10 -->
<g id="edge13" class="edge">
<title>r2_node_11&#45;&gt;r2_node_10</title>
<path fill="none" stroke="black" d="M59.59,-108.42C59.96,-126.38 57.84,-155.19 59.93,-180 60.61,-188.03 61.85,-196.67 62.86,-204.6"/>
<polygon fill="black" stroke="black" points="59.37,-204.84 63.94,-214.4 66.33,-204.08 59.37,-204.84"/>
</g>
<!-- r2_node_4 -->
<g id="node9" class="node">
<title>r2_node_4</title>
<ellipse fill="none" stroke="black" cx="100.93" cy="-18" rx="50.33" ry="18"/>
<text text-anchor="middle" x="100.93" y="-12.95" font-family="Times,serif" font-size="14.00">r2_node_4</text>
</g>
<!-- r2_node_11&#45;&gt;r2_node_4 -->
<g id="edge14" class="edge">
<title>r2_node_11&#45;&gt;r2_node_4</title>
<path fill="none" stroke="black" d="M66.07,-72.05C71.32,-64.06 77.72,-54.33 83.59,-45.4"/>
<polygon fill="black" stroke="black" points="86.5,-47.33 89.07,-37.05 80.65,-43.49 86.5,-47.33"/>
</g>
<!-- r2_node_28 -->
<g id="node10" class="node">
<title>r2_node_28</title>
<ellipse fill="none" stroke="black" cx="256.93" cy="-18" rx="54.93" ry="18"/>
<text text-anchor="middle" x="256.93" y="-12.95" font-family="Times,serif" font-size="14.00">r2_node_28</text>
</g>
<!-- r2_node_11&#45;&gt;r2_node_28 -->
<g id="edge12" class="edge">
<title>r2_node_11&#45;&gt;r2_node_28</title>
<path fill="none" stroke="black" d="M91.51,-76.32C124.59,-64.86 173.48,-47.92 209.54,-35.42"/>
<polygon fill="black" stroke="black" points="210.55,-38.78 218.85,-32.2 208.26,-32.16 210.55,-38.78"/>
</g>
<!-- r2_node_10&#45;&gt;r2_node_16 -->
<g id="edge9" class="edge">
<title>r2_node_10&#45;&gt;r2_node_16</title>
<path fill="none" stroke="black" d="M67.61,-215.7C73.39,-207.23 81.33,-196.89 89.12,-187.61"/>
<polygon fill="black" stroke="black" points="91.56,-190.14 95.47,-180.29 86.27,-185.55 91.56,-190.14"/>
</g>
<!-- r2_node_10&#45;&gt;r2_node_11 -->
<g id="edge8" class="edge">
<title>r2_node_10&#45;&gt;r2_node_11</title>
<path fill="none" stroke="black" d="M48.46,-215.91C45.26,-205.57 42.95,-192.09 41.93,-180 40.22,-159.71 41.33,-136.76 44.03,-119.24"/>
<polygon fill="black" stroke="black" points="47.44,-120.05 45.86,-109.57 40.56,-118.75 47.44,-120.05"/>
</g>
<!-- r2_node_9 -->
<g id="node12" class="node">
<title>r2_node_9</title>
<ellipse fill="none" stroke="black" cx="256.93" cy="-162" rx="50.33" ry="18"/>
<text text-anchor="middle" x="256.93" y="-156.95" font-family="Times,serif" font-size="14.00">r2_node_9</text>
</g>
<!-- r2_node_10&#45;&gt;r2_node_9 -->
<g id="edge11" class="edge">
<title>r2_node_10&#45;&gt;r2_node_9</title>
<path fill="none" stroke="black" d="M92.9,-219.34C124.66,-207.47 172.87,-190.32 208.87,-178.07"/>
<polygon fill="black" stroke="black" points="209.84,-181.43 218.19,-174.91 207.59,-174.8 209.84,-181.43"/>
</g>
<!-- r2_node_19 -->
<g id="node13" class="node">
<title>r2_node_19</title>
<ellipse fill="none" stroke="black" cx="100.93" cy="-306" rx="54.93" ry="18"/>
<text text-anchor="middle" x="100.93" y="-300.95" font-family="Times,serif" font-size="14.00">r2_node_19</text>
</g>
<!-- r2_node_10&#45;&gt;r2_node_19 -->
<g id="edge10" class="edge">
<title>r2_node_10&#45;&gt;r2_node_19</title>
<path fill="none" stroke="black" d="M75.51,-251.62C80.88,-259.36 86.65,-268.76 91.44,-277.51"/>
<polygon fill="black" stroke="black" points="88.31,-279.08 96.02,-286.35 94.53,-275.86 88.31,-279.08"/>
</g>
<!-- r2_node_7 -->
<g id="node11" class="node">
<title>r2_node_7</title>
<ellipse fill="none" stroke="black" cx="531.93" cy="-18" rx="50.33" ry="18"/>
<text text-anchor="middle" x="531.93" y="-12.95" font-family="Times,serif" font-size="14.00">r2_node_7</text>
</g>
<!-- r2_node_9&#45;&gt;r2_node_1 -->
<g id="edge7" class="edge">
<title>r2_node_9&#45;&gt;r2_node_1</title>
<path fill="none" stroke="black" d="M290.98,-148.32C321.63,-136.91 366.87,-120.07 400.39,-107.59"/>
<polygon fill="black" stroke="black" points="401.26,-111 409.41,-104.23 398.81,-104.44 401.26,-111"/>
</g>
<!-- r2_node_9&#45;&gt;r2_node_2 -->
<g id="edge6" class="edge">
<title>r2_node_9&#45;&gt;r2_node_2</title>
<path fill="none" stroke="black" d="M296.77,-150.71C306,-148.42 315.79,-146.06 324.93,-144 404.1,-126.15 425.06,-127.08 503.93,-108 507.51,-107.13 511.2,-106.2 514.9,-105.23"/>
<polygon fill="black" stroke="black" points="515.76,-108.62 524.5,-102.63 513.93,-101.86 515.76,-108.62"/>
</g>
<!-- r2_node_9&#45;&gt;r2_node_10 -->
<g id="edge5" class="edge">
<title>r2_node_9&#45;&gt;r2_node_10</title>
<path fill="none" stroke="black" d="M224.92,-176.31C193.72,-187.98 146.02,-204.96 109.86,-217.3"/>
<polygon fill="black" stroke="black" points="108.82,-213.96 100.48,-220.48 111.07,-220.58 108.82,-213.96"/>
</g>
<!-- r2_node_19&#45;&gt;r2_node_29 -->
<g id="edge19" class="edge">
<title>r2_node_19&#45;&gt;r2_node_29</title>
<path fill="none" stroke="black" d="M130.4,-290.47C182.47,-264.8 290.76,-211.41 349.31,-182.54"/>
<polygon fill="black" stroke="black" points="350.51,-185.85 357.94,-178.28 347.42,-179.57 350.51,-185.85"/>
</g>
<!-- r2_node_19&#45;&gt;r2_node_10 -->
<g id="edge17" class="edge">
<title>r2_node_19&#45;&gt;r2_node_10</title>
<path fill="none" stroke="black" d="M85.38,-288.41C79.89,-280.51 73.98,-270.85 69.12,-261.94"/>
<polygon fill="black" stroke="black" points="72.37,-260.59 64.68,-253.3 66.14,-263.8 72.37,-260.59"/>
</g>
<!-- r2_node_19&#45;&gt;r2_node_7 -->
<g id="edge16" class="edge">
<title>r2_node_19&#45;&gt;r2_node_7</title>
<path fill="none" stroke="black" d="M140.21,-293.08C256.8,-257.31 594.65,-150.7 622.93,-108 631.77,-94.66 630.91,-85.87 622.93,-72 613.35,-55.33 596.28,-43.41 579.5,-35.15"/>
<polygon fill="black" stroke="black" points="581.09,-32.03 570.53,-31.1 578.2,-38.41 581.09,-32.03"/>
</g>
<!-- r2_node_18 -->
<g id="node14" class="node">
<title>r2_node_18</title>
<ellipse fill="none" stroke="black" cx="442.93" cy="-234" rx="54.93" ry="18"/>
<text text-anchor="middle" x="442.93" y="-228.95" font-family="Times,serif" font-size="14.00">r2_node_18</text>
</g>
<!-- r2_node_19&#45;&gt;r2_node_18 -->
<g id="edge18" class="edge">
<title>r2_node_19&#45;&gt;r2_node_18</title>
<path fill="none" stroke="black" d="M148.43,-296.52C203.01,-286.61 295.19,-269.33 373.93,-252 379.08,-250.87 384.44,-249.64 389.79,-248.38"/>
<polygon fill="black" stroke="black" points="390.3,-251.85 399.21,-246.12 388.67,-245.04 390.3,-251.85"/>
</g>
</g>
</svg>
