<?xml version="1.0" encoding="UTF-8" standalone="no"?>
<!DOCTYPE svg PUBLIC "-//W3C//DTD SVG 1.1//EN"
 "http://www.w3.org/Graphics/SVG/1.1/DTD/svg11.dtd">
<!-- Generated by graphviz version 12.2.1 (20241206.2353)
 -->
<!-- Pages: 1 -->
<svg width="639pt" height="188pt"
 viewBox="0.00 0.00 638.66 188.00" xmlns="http://www.w3.org/2000/svg" xmlns:xlink="http://www.w3.org/1999/xlink">
<g id="graph0" class="graph" transform="scale(1 1) rotate(0) translate(4 184)">
<polygon fill="white" stroke="none" points="-4,4 -4,-184 634.66,-184 634.66,4 -4,4"/>
<!-- r1_node_1 -->
<g id="node1" class="node">
<title>r1_node_1</title>
<ellipse fill="none" stroke="black" cx="109.33" cy="-162" rx="50.33" ry="18"/>
<text text-anchor="middle" x="109.33" y="-156.95" font-family="Times,serif" font-size="14.00">r1_node_1</text>
</g>
<!-- r1_node_3 -->
<g id="node2" class="node">
<title>r1_node_3</title>
<ellipse fill="none" stroke="black" cx="50.33" cy="-90" rx="50.33" ry="18"/>
<text text-anchor="middle" x="50.33" y="-84.95" font-family="Times,serif" font-size="14.00">r1_node_3</text>
</g>
<!-- r1_node_1&#45;&gt;r1_node_3 -->
<g id="edge1" class="edge">
<title>r1_node_1&#45;&gt;r1_node_3</title>
<path fill="none" stroke="black" d="M90.18,-145.12C82.18,-136.77 73.12,-126.32 65.57,-116.84"/>
<polygon fill="black" stroke="black" points="68.41,-114.8 59.54,-109 62.86,-119.06 68.41,-114.8"/>
</g>
<!-- r1_node_7 -->
<g id="node3" class="node">
<title>r1_node_7</title>
<ellipse fill="none" stroke="black" cx="288.33" cy="-90" rx="50.33" ry="18"/>
<text text-anchor="middle" x="288.33" y="-84.95" font-family="Times,serif" font-size="14.00">r1_node_7</text>
</g>
<!-- r1_node_1&#45;&gt;r1_node_7 -->
<g id="edge2" class="edge">
<title>r1_node_1&#45;&gt;r1_node_7</title>
<path fill="none" stroke="black" d="M139.19,-147.17C167.28,-135.57 209.55,-119.01 241.99,-106.87"/>
<polygon fill="black" stroke="black" points="243,-110.23 251.16,-103.46 240.57,-103.66 243,-110.23"/>
</g>
<!-- r1_node_6 -->
<g id="node4" class="node">
<title>r1_node_6</title>
<ellipse fill="none" stroke="black" cx="169.33" cy="-90" rx="50.33" ry="18"/>
<text text-anchor="middle" x="169.33" y="-84.95" font-family="Times,serif" font-size="14.00">r1_node_6</text>
</g>
<!-- r1_node_1&#45;&gt;r1_node_6 -->
<g id="edge3" class="edge">
<title>r1_node_1&#45;&gt;r1_node_6</title>
<path fill="none" stroke="black" d="M117.97,-144.05C124.49,-135.38 133.48,-124.67 142.18,-115.15"/>
<polygon fill="black" stroke="black" points="144.66,-117.61 148.97,-107.93 139.57,-112.82 144.66,-117.61"/>
</g>
<!-- r1_node_10 -->
<g id="node5" class="node">
<title>r1_node_10</title>
<ellipse fill="none" stroke="black" cx="469.33" cy="-90" rx="54.93" ry="18"/>
<text text-anchor="middle" x="469.33" y="-84.95" font-family="Times,serif" font-size="14.00">r1_node_10</text>
</g>
<!-- r1_node_1&#45;&gt;r1_node_10 -->
<g id="edge4" class="edge">
<title>r1_node_1&#45;&gt;r1_node_10</title>
<path fill="none" stroke="black" d="M151.66,-151.85C215.81,-138.87 337.6,-115.17 410.37,-101.49"/>
<polygon fill="black" stroke="black" points="410.94,-104.95 420.13,-99.67 409.65,-98.07 410.94,-104.95"/>
</g>
<!-- r1_node_3&#45;&gt;r1_node_1 -->
<g id="edge14" class="edge">
<title>r1_node_3&#45;&gt;r1_node_1</title>
<path fill="none" stroke="black" d="M69.42,-106.83C77.4,-115.15 86.43,-125.56 93.98,-135.02"/>
<polygon fill="black" stroke="black" points="91.13,-137.06 100,-142.86 96.68,-132.79 91.13,-137.06"/>
</g>
<!-- r1_node_2 -->
<g id="node6" class="node">
<title>r1_node_2</title>
<ellipse fill="none" stroke="black" cx="200.33" cy="-18" rx="50.33" ry="18"/>
<text text-anchor="middle" x="200.33" y="-12.95" font-family="Times,serif" font-size="14.00">r1_node_2</text>
</g>
<!-- r1_node_3&#45;&gt;r1_node_2 -->
<g id="edge15" class="edge">
<title>r1_node_3&#45;&gt;r1_node_2</title>
<path fill="none" stroke="black" d="M79.96,-75.17C102.9,-64.47 134.9,-49.53 160.14,-37.75"/>
<polygon fill="black" stroke="black" points="161.54,-40.96 169.13,-33.56 158.58,-34.62 161.54,-40.96"/>
</g>
<!-- r1_node_4 -->
<g id="node7" class="node">
<title>r1_node_4</title>
<ellipse fill="none" stroke="black" cx="51.33" cy="-18" rx="50.33" ry="18"/>
<text text-anchor="middle" x="51.33" y="-12.95" font-family="Times,serif" font-size="14.00">r1_node_4</text>
</g>
<!-- r1_node_3&#45;&gt;r1_node_4 -->
<g id="edge13" class="edge">
<title>r1_node_3&#45;&gt;r1_node_4</title>
<path fill="none" stroke="black" d="M50.57,-71.7C50.68,-64.41 50.8,-55.73 50.92,-47.54"/>
<polygon fill="black" stroke="black" points="54.42,-47.67 51.06,-37.62 47.42,-47.57 54.42,-47.67"/>
</g>
<!-- r1_node_7&#45;&gt;r1_node_1 -->
<g id="edge18" class="edge">
<title>r1_node_7&#45;&gt;r1_node_1</title>
<path fill="none" stroke="black" d="M258.55,-104.8C230.54,-116.36 188.37,-132.89 155.93,-145.03"/>
<polygon fill="black" stroke="black" points="154.91,-141.68 146.76,-148.44 157.35,-148.24 154.91,-141.68"/>
</g>
<!-- r1_node_5 -->
<g id="node8" class="node">
<title>r1_node_5</title>
<ellipse fill="none" stroke="black" cx="334.33" cy="-18" rx="50.33" ry="18"/>
<text text-anchor="middle" x="334.33" y="-12.95" font-family="Times,serif" font-size="14.00">r1_node_5</text>
</g>
<!-- r1_node_7&#45;&gt;r1_node_5 -->
<g id="edge17" class="edge">
<title>r1_node_7&#45;&gt;r1_node_5</title>
<path fill="none" stroke="black" d="M299.46,-72.05C304.72,-64.06 311.11,-54.33 316.98,-45.4"/>
<polygon fill="black" stroke="black" points="319.9,-47.33 322.46,-37.05 314.05,-43.49 319.9,-47.33"/>
</g>
<!-- r1_node_9 -->
<g id="node10" class="node">
<title>r1_node_9</title>
<ellipse fill="none" stroke="black" cx="461.33" cy="-18" rx="50.33" ry="18"/>
<text text-anchor="middle" x="461.33" y="-12.95" font-family="Times,serif" font-size="14.00">r1_node_9</text>
</g>
<!-- r1_node_7&#45;&gt;r1_node_9 -->
<g id="edge16" class="edge">
<title>r1_node_7&#45;&gt;r1_node_9</title>
<path fill="none" stroke="black" d="M320.87,-75.83C348.41,-64.69 388.12,-48.62 418.29,-36.41"/>
<polygon fill="black" stroke="black" points="419.57,-39.67 427.53,-32.68 416.95,-33.18 419.57,-39.67"/>
</g>
<!-- r1_node_6&#45;&gt;r1_node_1 -->
<g id="edge6" class="edge">
<title>r1_node_6&#45;&gt;r1_node_1</title>
<path fill="none" stroke="black" d="M160.79,-107.8C154.29,-116.47 145.28,-127.21 136.56,-136.77"/>
<polygon fill="black" stroke="black" points="134.04,-134.33 129.74,-144.01 139.14,-139.13 134.04,-134.33"/>
</g>
<!-- r1_node_6&#45;&gt;r1_node_2 -->
<g id="edge5" class="edge">
<title>r1_node_6&#45;&gt;r1_node_2</title>
<path fill="none" stroke="black" d="M176.83,-72.05C180.21,-64.43 184.28,-55.23 188.08,-46.65"/>
<polygon fill="black" stroke="black" points="191.22,-48.22 192.06,-37.66 184.81,-45.39 191.22,-48.22"/>
</g>
<!-- r1_node_6&#45;&gt;r1_node_4 -->
<g id="edge7" class="edge">
<title>r1_node_6&#45;&gt;r1_node_4</title>
<path fill="none" stroke="black" d="M144.01,-73.98C127.22,-64.02 104.94,-50.8 86.43,-39.83"/>
<polygon fill="black" stroke="black" points="88.29,-36.86 77.9,-34.76 84.72,-42.88 88.29,-36.86"/>
</g>
<!-- r1_node_6&#45;&gt;r1_node_5 -->
<g id="edge8" class="edge">
<title>r1_node_6&#45;&gt;r1_node_5</title>
<path fill="none" stroke="black" d="M200.75,-75.67C226.7,-64.66 263.77,-48.93 292.28,-36.84"/>
<polygon fill="black" stroke="black" points="293.51,-40.12 301.35,-32.99 290.77,-33.68 293.51,-40.12"/>
</g>
<!-- r1_node_10&#45;&gt;r1_node_1 -->
<g id="edge11" class="edge">
<title>r1_node_10&#45;&gt;r1_node_1</title>
<path fill="none" stroke="black" d="M424.31,-100.69C358.39,-114.01 235.96,-137.81 164.65,-151.19"/>
<polygon fill="black" stroke="black" points="164.34,-147.69 155.15,-152.96 165.62,-154.57 164.34,-147.69"/>
</g>
<!-- r1_node_10&#45;&gt;r1_node_2 -->
<g id="edge10" class="edge">
<title>r1_node_10&#45;&gt;r1_node_2</title>
<path fill="none" stroke="black" d="M427.3,-78.06C379.76,-65.69 302.37,-45.55 251.4,-32.29"/>
<polygon fill="black" stroke="black" points="252.33,-28.92 241.77,-29.79 250.57,-35.69 252.33,-28.92"/>
</g>
<!-- r1_node_8 -->
<g id="node9" class="node">
<title>r1_node_8</title>
<ellipse fill="none" stroke="black" cx="580.33" cy="-18" rx="50.33" ry="18"/>
<text text-anchor="middle" x="580.33" y="-12.95" font-family="Times,serif" font-size="14.00">r1_node_8</text>
</g>
<!-- r1_node_10&#45;&gt;r1_node_8 -->
<g id="edge9" class="edge">
<title>r1_node_10&#45;&gt;r1_node_8</title>
<path fill="none" stroke="black" d="M493.96,-73.46C509.45,-63.7 529.63,-50.97 546.59,-40.28"/>
<polygon fill="black" stroke="black" points="548.27,-43.35 554.86,-35.06 544.54,-37.43 548.27,-43.35"/>
</g>
<!-- r1_node_10&#45;&gt;r1_node_9 -->
<g id="edge12" class="edge">
<title>r1_node_10&#45;&gt;r1_node_9</title>
<path fill="none" stroke="black" d="M467.35,-71.7C466.52,-64.41 465.53,-55.73 464.59,-47.54"/>
<polygon fill="black" stroke="black" points="468.07,-47.15 463.45,-37.61 461.11,-47.94 468.07,-47.15"/>
</g>
</g>
</svg>
