<?xml version="1.0" encoding="UTF-8" standalone="no"?>
<!DOCTYPE svg PUBLIC "-//W3C//DTD SVG 1.1//EN"
 "http://www.w3.org/Graphics/SVG/1.1/DTD/svg11.dtd">
<!-- Generated by graphviz version 12.2.1 (20241206.2353)
 -->
<!-- Pages: 1 -->
<svg width="529pt" height="620pt"
 viewBox="0.00 0.00 529.09 620.00" xmlns="http://www.w3.org/2000/svg" xmlns:xlink="http://www.w3.org/1999/xlink">
<g id="graph0" class="graph" transform="scale(1 1) rotate(0) translate(4 616)">
<polygon fill="white" stroke="none" points="-4,4 -4,-616 525.09,-616 525.09,4 -4,4"/>
<!-- r4_node_1 -->
<g id="node1" class="node">
<title>r4_node_1</title>
<ellipse fill="none" stroke="black" cx="50.33" cy="-594" rx="50.33" ry="18"/>
<text text-anchor="middle" x="50.33" y="-588.95" font-family="Times,serif" font-size="14.00">r4_node_1</text>
</g>
<!-- r4_node_3 -->
<g id="node2" class="node">
<title>r4_node_3</title>
<ellipse fill="none" stroke="black" cx="101.33" cy="-18" rx="50.33" ry="18"/>
<text text-anchor="middle" x="101.33" y="-12.95" font-family="Times,serif" font-size="14.00">r4_node_3</text>
</g>
<!-- r4_node_1&#45;&gt;r4_node_3 -->
<g id="edge1" class="edge">
<title>r4_node_1&#45;&gt;r4_node_3</title>
<path fill="none" stroke="black" d="M48.7,-575.83C47.8,-565.47 46.78,-551.99 46.33,-540 45.73,-524.01 45.79,-519.99 46.33,-504 52.78,-311.68 25.57,-257.89 75.33,-72 77.69,-63.19 81.55,-54.1 85.58,-45.99"/>
<polygon fill="black" stroke="black" points="88.58,-47.81 90.16,-37.33 82.39,-44.53 88.58,-47.81"/>
</g>
<!-- r4_node_7 -->
<g id="node3" class="node">
<title>r4_node_7</title>
<ellipse fill="none" stroke="black" cx="105.33" cy="-522" rx="50.33" ry="18"/>
<text text-anchor="middle" x="105.33" y="-516.95" font-family="Times,serif" font-size="14.00">r4_node_7</text>
</g>
<!-- r4_node_1&#45;&gt;r4_node_7 -->
<g id="edge2" class="edge">
<title>r4_node_1&#45;&gt;r4_node_7</title>
<path fill="none" stroke="black" d="M57.76,-576.05C63.6,-567.47 71.72,-556.89 79.66,-547.44"/>
<polygon fill="black" stroke="black" points="82.23,-549.82 86.14,-539.97 76.94,-545.23 82.23,-549.82"/>
</g>
<!-- r4_node_19 -->
<g id="node4" class="node">
<title>r4_node_19</title>
<ellipse fill="none" stroke="black" cx="447.33" cy="-90" rx="54.93" ry="18"/>
<text text-anchor="middle" x="447.33" y="-84.95" font-family="Times,serif" font-size="14.00">r4_node_19</text>
</g>
<!-- r4_node_1&#45;&gt;r4_node_19 -->
<g id="edge3" class="edge">
<title>r4_node_1&#45;&gt;r4_node_19</title>
<path fill="none" stroke="black" d="M82.31,-579.77C158.36,-548.81 349.51,-463.5 440.33,-324 481.44,-260.85 461.66,-166.23 451.31,-119.38"/>
<polygon fill="black" stroke="black" points="454.76,-118.77 449.19,-109.76 447.92,-120.28 454.76,-118.77"/>
</g>
<!-- r4_node_7&#45;&gt;r4_node_1 -->
<g id="edge21" class="edge">
<title>r4_node_7&#45;&gt;r4_node_1</title>
<path fill="none" stroke="black" d="M97.99,-539.8C92.17,-548.38 84.03,-558.99 76.07,-568.47"/>
<polygon fill="black" stroke="black" points="73.47,-566.13 69.56,-575.97 78.76,-570.72 73.47,-566.13"/>
</g>
<!-- r4_node_17 -->
<g id="node9" class="node">
<title>r4_node_17</title>
<ellipse fill="none" stroke="black" cx="148.33" cy="-450" rx="54.93" ry="18"/>
<text text-anchor="middle" x="148.33" y="-444.95" font-family="Times,serif" font-size="14.00">r4_node_17</text>
</g>
<!-- r4_node_7&#45;&gt;r4_node_17 -->
<g id="edge23" class="edge">
<title>r4_node_7&#45;&gt;r4_node_17</title>
<path fill="none" stroke="black" d="M110.04,-503.7C114.17,-495.61 119.98,-485.81 125.9,-476.87"/>
<polygon fill="black" stroke="black" points="128.62,-479.09 131.41,-468.87 122.85,-475.11 128.62,-479.09"/>
</g>
<!-- r4_node_16 -->
<g id="node12" class="node">
<title>r4_node_16</title>
<ellipse fill="none" stroke="black" cx="139.33" cy="-90" rx="54.93" ry="18"/>
<text text-anchor="middle" x="139.33" y="-84.95" font-family="Times,serif" font-size="14.00">r4_node_16</text>
</g>
<!-- r4_node_7&#45;&gt;r4_node_16 -->
<g id="edge22" class="edge">
<title>r4_node_7&#45;&gt;r4_node_16</title>
<path fill="none" stroke="black" d="M97.52,-504.15C93.05,-493.89 87.69,-480.42 84.33,-468 75.87,-436.75 75.78,-428.28 73.33,-396 67.24,-315.79 71.99,-293.83 92.33,-216 101.33,-181.57 116.43,-143.49 127.08,-118.51"/>
<polygon fill="black" stroke="black" points="130.26,-119.98 131.03,-109.41 123.84,-117.2 130.26,-119.98"/>
</g>
<!-- r4_node_19&#45;&gt;r4_node_1 -->
<g id="edge12" class="edge">
<title>r4_node_19&#45;&gt;r4_node_1</title>
<path fill="none" stroke="black" d="M457.82,-107.98C475.62,-148.99 503.13,-255.18 458.33,-324 369.6,-460.3 185.08,-544.86 97.82,-577.55"/>
<polygon fill="black" stroke="black" points="96.77,-574.21 88.59,-580.94 99.18,-580.78 96.77,-574.21"/>
</g>
<!-- r4_node_19&#45;&gt;r4_node_3 -->
<g id="edge11" class="edge">
<title>r4_node_19&#45;&gt;r4_node_3</title>
<path fill="none" stroke="black" d="M401.38,-79.7C337.87,-66.85 223.43,-43.7 155.73,-30.01"/>
<polygon fill="black" stroke="black" points="156.44,-26.58 145.95,-28.03 155.06,-33.44 156.44,-26.58"/>
</g>
<!-- r4_node_4 -->
<g id="node10" class="node">
<title>r4_node_4</title>
<ellipse fill="none" stroke="black" cx="301.33" cy="-162" rx="50.33" ry="18"/>
<text text-anchor="middle" x="301.33" y="-156.95" font-family="Times,serif" font-size="14.00">r4_node_4</text>
</g>
<!-- r4_node_19&#45;&gt;r4_node_4 -->
<g id="edge10" class="edge">
<title>r4_node_19&#45;&gt;r4_node_4</title>
<path fill="none" stroke="black" d="M421.46,-106.12C400.01,-117.05 369.27,-131.83 344.19,-143.3"/>
<polygon fill="black" stroke="black" points="342.88,-140.06 335.21,-147.37 345.77,-146.43 342.88,-140.06"/>
</g>
<!-- r4_node_2 -->
<g id="node5" class="node">
<title>r4_node_2</title>
<ellipse fill="none" stroke="black" cx="390.33" cy="-306" rx="50.33" ry="18"/>
<text text-anchor="middle" x="390.33" y="-300.95" font-family="Times,serif" font-size="14.00">r4_node_2</text>
</g>
<!-- r4_node_9 -->
<g id="node6" class="node">
<title>r4_node_9</title>
<ellipse fill="none" stroke="black" cx="407.33" cy="-234" rx="50.33" ry="18"/>
<text text-anchor="middle" x="407.33" y="-228.95" font-family="Times,serif" font-size="14.00">r4_node_9</text>
</g>
<!-- r4_node_2&#45;&gt;r4_node_9 -->
<g id="edge4" class="edge">
<title>r4_node_2&#45;&gt;r4_node_9</title>
<path fill="none" stroke="black" d="M388.61,-287.7C389.66,-280.24 391.58,-271.32 393.91,-262.97"/>
<polygon fill="black" stroke="black" points="397.21,-264.14 396.83,-253.55 390.52,-262.06 397.21,-264.14"/>
</g>
<!-- r4_node_11 -->
<g id="node7" class="node">
<title>r4_node_11</title>
<ellipse fill="none" stroke="black" cx="211.33" cy="-378" rx="54.93" ry="18"/>
<text text-anchor="middle" x="211.33" y="-372.95" font-family="Times,serif" font-size="14.00">r4_node_11</text>
</g>
<!-- r4_node_2&#45;&gt;r4_node_11 -->
<g id="edge5" class="edge">
<title>r4_node_2&#45;&gt;r4_node_11</title>
<path fill="none" stroke="black" d="M360.43,-320.85C332.78,-332.26 291.4,-348.49 259.19,-360.56"/>
<polygon fill="black" stroke="black" points="258.21,-357.19 250.06,-363.96 260.66,-363.75 258.21,-357.19"/>
</g>
<!-- r4_node_9&#45;&gt;r4_node_2 -->
<g id="edge26" class="edge">
<title>r4_node_9&#45;&gt;r4_node_2</title>
<path fill="none" stroke="black" d="M409.05,-252.28C408,-259.77 406.06,-268.75 403.72,-277.15"/>
<polygon fill="black" stroke="black" points="400.4,-276.02 400.77,-286.61 407.08,-278.1 400.4,-276.02"/>
</g>
<!-- r4_node_9&#45;&gt;r4_node_4 -->
<g id="edge24" class="edge">
<title>r4_node_9&#45;&gt;r4_node_4</title>
<path fill="none" stroke="black" d="M379.77,-218.5C364.08,-208.95 344.61,-196.25 328.92,-185.41"/>
<polygon fill="black" stroke="black" points="331.15,-182.7 320.95,-179.82 327.13,-188.43 331.15,-182.7"/>
</g>
<!-- r4_node_18 -->
<g id="node11" class="node">
<title>r4_node_18</title>
<ellipse fill="none" stroke="black" cx="377.33" cy="-18" rx="54.93" ry="18"/>
<text text-anchor="middle" x="377.33" y="-12.95" font-family="Times,serif" font-size="14.00">r4_node_18</text>
</g>
<!-- r4_node_9&#45;&gt;r4_node_18 -->
<g id="edge25" class="edge">
<title>r4_node_9&#45;&gt;r4_node_18</title>
<path fill="none" stroke="black" d="M430.31,-217.75C470.79,-188.98 547.25,-124.84 511.33,-72 495.07,-48.09 466.18,-34.96 439.38,-27.76"/>
<polygon fill="black" stroke="black" points="440.47,-24.43 429.93,-25.47 438.82,-31.23 440.47,-24.43"/>
</g>
<!-- r4_node_11&#45;&gt;r4_node_2 -->
<g id="edge6" class="edge">
<title>r4_node_11&#45;&gt;r4_node_2</title>
<path fill="none" stroke="black" d="M242,-362.83C270.12,-351.24 311.96,-334.85 344.09,-322.83"/>
<polygon fill="black" stroke="black" points="345.01,-326.22 353.17,-319.46 342.58,-319.66 345.01,-326.22"/>
</g>
<!-- r4_node_8 -->
<g id="node8" class="node">
<title>r4_node_8</title>
<ellipse fill="none" stroke="black" cx="192.33" cy="-306" rx="50.33" ry="18"/>
<text text-anchor="middle" x="192.33" y="-300.95" font-family="Times,serif" font-size="14.00">r4_node_8</text>
</g>
<!-- r4_node_11&#45;&gt;r4_node_8 -->
<g id="edge7" class="edge">
<title>r4_node_11&#45;&gt;r4_node_8</title>
<path fill="none" stroke="black" d="M200.85,-360.05C198.07,-352.68 195.41,-343.84 193.42,-335.51"/>
<polygon fill="black" stroke="black" points="196.86,-334.84 191.41,-325.76 190,-336.26 196.86,-334.84"/>
</g>
<!-- r4_node_11&#45;&gt;r4_node_17 -->
<g id="edge8" class="edge">
<title>r4_node_11&#45;&gt;r4_node_17</title>
<path fill="none" stroke="black" d="M202.07,-395.8C195.13,-404.56 185.53,-415.43 176.31,-425.06"/>
<polygon fill="black" stroke="black" points="173.97,-422.46 169.45,-432.04 178.96,-427.37 173.97,-422.46"/>
</g>
<!-- r4_node_11&#45;&gt;r4_node_4 -->
<g id="edge9" class="edge">
<title>r4_node_11&#45;&gt;r4_node_4</title>
<path fill="none" stroke="black" d="M220.55,-359.93C237.14,-337.2 269.64,-294.86 283.33,-252 289.59,-232.41 291.78,-209.27 293.68,-191.49"/>
<polygon fill="black" stroke="black" points="297.15,-192 294.83,-181.66 290.19,-191.19 297.15,-192"/>
</g>
<!-- r4_node_8&#45;&gt;r4_node_11 -->
<g id="edge17" class="edge">
<title>r4_node_8&#45;&gt;r4_node_11</title>
<path fill="none" stroke="black" d="M202.68,-323.62C205.53,-331.1 208.25,-340.14 210.27,-348.64"/>
<polygon fill="black" stroke="black" points="206.8,-349.13 212.24,-358.21 213.65,-347.71 206.8,-349.13"/>
</g>
<!-- r4_node_8&#45;&gt;r4_node_16 -->
<g id="edge16" class="edge">
<title>r4_node_8&#45;&gt;r4_node_16</title>
<path fill="none" stroke="black" d="M181.47,-287.98C175.52,-277.89 168.52,-264.64 164.33,-252 149.49,-207.24 143.38,-152.5 140.92,-119.76"/>
<polygon fill="black" stroke="black" points="144.41,-119.61 140.24,-109.87 137.43,-120.08 144.41,-119.61"/>
</g>
<!-- r4_node_15 -->
<g id="node13" class="node">
<title>r4_node_15</title>
<ellipse fill="none" stroke="black" cx="228.33" cy="-234" rx="54.93" ry="18"/>
<text text-anchor="middle" x="228.33" y="-228.95" font-family="Times,serif" font-size="14.00">r4_node_15</text>
</g>
<!-- r4_node_8&#45;&gt;r4_node_15 -->
<g id="edge18" class="edge">
<title>r4_node_8&#45;&gt;r4_node_15</title>
<path fill="none" stroke="black" d="M195.31,-287.7C198.57,-279.78 203.26,-270.23 208.16,-261.44"/>
<polygon fill="black" stroke="black" points="211.12,-263.32 213.17,-252.93 205.08,-259.77 211.12,-263.32"/>
</g>
<!-- r4_node_17&#45;&gt;r4_node_3 -->
<g id="edge27" class="edge">
<title>r4_node_17&#45;&gt;r4_node_3</title>
<path fill="none" stroke="black" d="M143.66,-431.94C136.25,-402.38 123.6,-339.87 133.33,-288 142.63,-238.41 229.52,-115.13 203.33,-72 192.1,-53.51 172.08,-41.17 152.74,-33.1"/>
<polygon fill="black" stroke="black" points="154.13,-29.88 143.54,-29.58 151.63,-36.42 154.13,-29.88"/>
</g>
<!-- r4_node_17&#45;&gt;r4_node_7 -->
<g id="edge28" class="edge">
<title>r4_node_17&#45;&gt;r4_node_7</title>
<path fill="none" stroke="black" d="M143.71,-468.12C139.53,-476.33 133.6,-486.32 127.58,-495.4"/>
<polygon fill="black" stroke="black" points="124.78,-493.31 121.96,-503.52 130.53,-497.29 124.78,-493.31"/>
</g>
<!-- r4_node_17&#45;&gt;r4_node_11 -->
<g id="edge29" class="edge">
<title>r4_node_17&#45;&gt;r4_node_11</title>
<path fill="none" stroke="black" d="M157.7,-432.05C164.66,-423.29 174.23,-412.45 183.42,-402.86"/>
<polygon fill="black" stroke="black" points="185.74,-405.49 190.26,-395.91 180.75,-400.58 185.74,-405.49"/>
</g>
<!-- r4_node_4&#45;&gt;r4_node_19 -->
<g id="edge15" class="edge">
<title>r4_node_4&#45;&gt;r4_node_19</title>
<path fill="none" stroke="black" d="M326.65,-146.15C347.79,-135.37 378.22,-120.72 403.29,-109.23"/>
<polygon fill="black" stroke="black" points="404.63,-112.47 412.29,-105.15 401.74,-106.09 404.63,-112.47"/>
</g>
<!-- r4_node_4&#45;&gt;r4_node_9 -->
<g id="edge13" class="edge">
<title>r4_node_4&#45;&gt;r4_node_9</title>
<path fill="none" stroke="black" d="M328.7,-177.39C344.44,-186.97 364.03,-199.74 379.79,-210.63"/>
<polygon fill="black" stroke="black" points="377.6,-213.37 387.8,-216.25 381.62,-207.64 377.6,-213.37"/>
</g>
<!-- r4_node_4&#45;&gt;r4_node_11 -->
<g id="edge14" class="edge">
<title>r4_node_4&#45;&gt;r4_node_11</title>
<path fill="none" stroke="black" d="M308.35,-180.16C310.57,-198.4 309.03,-227.89 301.33,-252 288.92,-290.83 261.08,-329.24 239.42,-353.02"/>
<polygon fill="black" stroke="black" points="237.14,-350.33 232.8,-359.99 242.22,-355.15 237.14,-350.33"/>
</g>
<!-- r4_node_15&#45;&gt;r4_node_3 -->
<g id="edge20" class="edge">
<title>r4_node_15&#45;&gt;r4_node_3</title>
<path fill="none" stroke="black" d="M227.14,-215.52C226.69,-196.47 228.51,-165.8 242.33,-144 257.58,-119.95 282,-133.16 295.33,-108 302.82,-93.86 305.04,-84.72 295.33,-72 278.78,-50.33 210.21,-35.37 159.26,-27"/>
<polygon fill="black" stroke="black" points="159.95,-23.57 149.52,-25.46 158.85,-30.48 159.95,-23.57"/>
</g>
<!-- r4_node_15&#45;&gt;r4_node_8 -->
<g id="edge19" class="edge">
<title>r4_node_15&#45;&gt;r4_node_8</title>
<path fill="none" stroke="black" d="M225.29,-252.45C222.02,-260.36 217.34,-269.88 212.45,-278.63"/>
<polygon fill="black" stroke="black" points="209.52,-276.71 207.47,-287.11 215.55,-280.26 209.52,-276.71"/>
</g>
</g>
</svg>
