<?xml version="1.0" encoding="UTF-8" standalone="no"?>
<!DOCTYPE svg PUBLIC "-//W3C//DTD SVG 1.1//EN"
 "http://www.w3.org/Graphics/SVG/1.1/DTD/svg11.dtd">
<!-- Generated by graphviz version 12.2.1 (20241206.2353)
 -->
<!-- Pages: 1 -->
<svg width="419pt" height="332pt"
 viewBox="0.00 0.00 418.66 332.00" xmlns="http://www.w3.org/2000/svg" xmlns:xlink="http://www.w3.org/1999/xlink">
<g id="graph0" class="graph" transform="scale(1 1) rotate(0) translate(4 328)">
<polygon fill="white" stroke="none" points="-4,4 -4,-328 414.66,-328 414.66,4 -4,4"/>
<!-- r1_node_3 -->
<g id="node1" class="node">
<title>r1_node_3</title>
<ellipse fill="none" stroke="black" cx="109.33" cy="-306" rx="50.33" ry="18"/>
<text text-anchor="middle" x="109.33" y="-300.95" font-family="Times,serif" font-size="14.00">r1_node_3</text>
</g>
<!-- r1_node_4 -->
<g id="node2" class="node">
<title>r1_node_4</title>
<ellipse fill="none" stroke="black" cx="109.33" cy="-234" rx="50.33" ry="18"/>
<text text-anchor="middle" x="109.33" y="-228.95" font-family="Times,serif" font-size="14.00">r1_node_4</text>
</g>
<!-- r1_node_3&#45;&gt;r1_node_4 -->
<g id="edge1" class="edge">
<title>r1_node_3&#45;&gt;r1_node_4</title>
<path fill="none" stroke="black" d="M103.41,-287.7C102.66,-280.41 102.42,-271.73 102.68,-263.54"/>
<polygon fill="black" stroke="black" points="106.17,-263.82 103.33,-253.61 99.18,-263.36 106.17,-263.82"/>
</g>
<!-- r1_node_4&#45;&gt;r1_node_3 -->
<g id="edge17" class="edge">
<title>r1_node_4&#45;&gt;r1_node_3</title>
<path fill="none" stroke="black" d="M115.22,-252.1C115.98,-259.37 116.24,-268.04 115.98,-276.24"/>
<polygon fill="black" stroke="black" points="112.49,-275.98 115.34,-286.19 119.48,-276.43 112.49,-275.98"/>
</g>
<!-- r1_node_8 -->
<g id="node3" class="node">
<title>r1_node_8</title>
<ellipse fill="none" stroke="black" cx="50.33" cy="-162" rx="50.33" ry="18"/>
<text text-anchor="middle" x="50.33" y="-156.95" font-family="Times,serif" font-size="14.00">r1_node_8</text>
</g>
<!-- r1_node_4&#45;&gt;r1_node_8 -->
<g id="edge14" class="edge">
<title>r1_node_4&#45;&gt;r1_node_8</title>
<path fill="none" stroke="black" d="M90.18,-217.12C82.18,-208.77 73.12,-198.32 65.57,-188.84"/>
<polygon fill="black" stroke="black" points="68.41,-186.8 59.54,-181 62.86,-191.06 68.41,-186.8"/>
</g>
<!-- r1_node_9 -->
<g id="node4" class="node">
<title>r1_node_9</title>
<ellipse fill="none" stroke="black" cx="169.33" cy="-162" rx="50.33" ry="18"/>
<text text-anchor="middle" x="169.33" y="-156.95" font-family="Times,serif" font-size="14.00">r1_node_9</text>
</g>
<!-- r1_node_4&#45;&gt;r1_node_9 -->
<g id="edge15" class="edge">
<title>r1_node_4&#45;&gt;r1_node_9</title>
<path fill="none" stroke="black" d="M117.97,-216.05C124.49,-207.38 133.48,-196.67 142.18,-187.15"/>
<polygon fill="black" stroke="black" points="144.66,-189.61 148.97,-179.93 139.57,-184.82 144.66,-189.61"/>
</g>
<!-- r1_node_6 -->
<g id="node7" class="node">
<title>r1_node_6</title>
<ellipse fill="none" stroke="black" cx="360.33" cy="-90" rx="50.33" ry="18"/>
<text text-anchor="middle" x="360.33" y="-84.95" font-family="Times,serif" font-size="14.00">r1_node_6</text>
</g>
<!-- r1_node_4&#45;&gt;r1_node_6 -->
<g id="edge16" class="edge">
<title>r1_node_4&#45;&gt;r1_node_6</title>
<path fill="none" stroke="black" d="M137.87,-218.81C160.52,-208.94 192.43,-194.91 219.33,-180 256.74,-159.26 297.16,-131.08 325.26,-112.02"/>
<polygon fill="black" stroke="black" points="327.07,-115.02 333.41,-106.54 323.16,-109.22 327.07,-115.02"/>
</g>
<!-- r1_node_8&#45;&gt;r1_node_4 -->
<g id="edge2" class="edge">
<title>r1_node_8&#45;&gt;r1_node_4</title>
<path fill="none" stroke="black" d="M69.42,-178.83C77.4,-187.15 86.43,-197.56 93.98,-207.02"/>
<polygon fill="black" stroke="black" points="91.13,-209.06 100,-214.86 96.68,-204.79 91.13,-209.06"/>
</g>
<!-- r1_node_9&#45;&gt;r1_node_4 -->
<g id="edge3" class="edge">
<title>r1_node_9&#45;&gt;r1_node_4</title>
<path fill="none" stroke="black" d="M160.79,-179.8C154.29,-188.47 145.28,-199.21 136.56,-208.77"/>
<polygon fill="black" stroke="black" points="134.04,-206.33 129.74,-216.01 139.14,-211.13 134.04,-206.33"/>
</g>
<!-- r1_node_10 -->
<g id="node5" class="node">
<title>r1_node_10</title>
<ellipse fill="none" stroke="black" cx="89.33" cy="-90" rx="54.93" ry="18"/>
<text text-anchor="middle" x="89.33" y="-84.95" font-family="Times,serif" font-size="14.00">r1_node_10</text>
</g>
<!-- r1_node_9&#45;&gt;r1_node_10 -->
<g id="edge4" class="edge">
<title>r1_node_9&#45;&gt;r1_node_10</title>
<path fill="none" stroke="black" d="M146.29,-145.81C135.14,-136.99 121.93,-125.67 110.97,-115.6"/>
<polygon fill="black" stroke="black" points="113.53,-113.21 103.85,-108.91 108.74,-118.31 113.53,-113.21"/>
</g>
<!-- r1_node_7 -->
<g id="node6" class="node">
<title>r1_node_7</title>
<ellipse fill="none" stroke="black" cx="241.33" cy="-90" rx="50.33" ry="18"/>
<text text-anchor="middle" x="241.33" y="-84.95" font-family="Times,serif" font-size="14.00">r1_node_7</text>
</g>
<!-- r1_node_9&#45;&gt;r1_node_7 -->
<g id="edge5" class="edge">
<title>r1_node_9&#45;&gt;r1_node_7</title>
<path fill="none" stroke="black" d="M180.88,-144.05C189.18,-135.05 200.53,-123.85 211.21,-114.07"/>
<polygon fill="black" stroke="black" points="213.32,-116.88 218.44,-107.6 208.65,-111.66 213.32,-116.88"/>
</g>
<!-- r1_node_10&#45;&gt;r1_node_9 -->
<g id="edge9" class="edge">
<title>r1_node_10&#45;&gt;r1_node_9</title>
<path fill="none" stroke="black" d="M112.77,-106.51C123.96,-115.38 137.15,-126.7 148.04,-136.72"/>
<polygon fill="black" stroke="black" points="145.43,-139.07 155.11,-143.37 150.23,-133.97 145.43,-139.07"/>
</g>
<!-- r1_node_2 -->
<g id="node9" class="node">
<title>r1_node_2</title>
<ellipse fill="none" stroke="black" cx="77.33" cy="-18" rx="50.33" ry="18"/>
<text text-anchor="middle" x="77.33" y="-12.95" font-family="Times,serif" font-size="14.00">r1_node_2</text>
</g>
<!-- r1_node_10&#45;&gt;r1_node_2 -->
<g id="edge8" class="edge">
<title>r1_node_10&#45;&gt;r1_node_2</title>
<path fill="none" stroke="black" d="M80.54,-72.05C78.5,-64.68 76.73,-55.84 75.57,-47.51"/>
<polygon fill="black" stroke="black" points="79.07,-47.35 74.54,-37.78 72.11,-48.09 79.07,-47.35"/>
</g>
<!-- r1_node_7&#45;&gt;r1_node_9 -->
<g id="edge12" class="edge">
<title>r1_node_7&#45;&gt;r1_node_9</title>
<path fill="none" stroke="black" d="M229.76,-107.96C221.44,-116.98 210.07,-128.19 199.38,-137.99"/>
<polygon fill="black" stroke="black" points="197.27,-135.18 192.15,-144.46 201.94,-140.4 197.27,-135.18"/>
</g>
<!-- r1_node_1 -->
<g id="node8" class="node">
<title>r1_node_1</title>
<ellipse fill="none" stroke="black" cx="218.33" cy="-18" rx="50.33" ry="18"/>
<text text-anchor="middle" x="218.33" y="-12.95" font-family="Times,serif" font-size="14.00">r1_node_1</text>
</g>
<!-- r1_node_7&#45;&gt;r1_node_1 -->
<g id="edge11" class="edge">
<title>r1_node_7&#45;&gt;r1_node_1</title>
<path fill="none" stroke="black" d="M229.88,-72.05C226.64,-64.6 223.44,-55.64 220.96,-47.22"/>
<polygon fill="black" stroke="black" points="224.4,-46.52 218.48,-37.74 217.63,-48.3 224.4,-46.52"/>
</g>
<!-- r1_node_5 -->
<g id="node10" class="node">
<title>r1_node_5</title>
<ellipse fill="none" stroke="black" cx="337.33" cy="-18" rx="50.33" ry="18"/>
<text text-anchor="middle" x="337.33" y="-12.95" font-family="Times,serif" font-size="14.00">r1_node_5</text>
</g>
<!-- r1_node_7&#45;&gt;r1_node_5 -->
<g id="edge10" class="edge">
<title>r1_node_7&#45;&gt;r1_node_5</title>
<path fill="none" stroke="black" d="M257.79,-72.76C270.09,-63 287.13,-50.46 302.35,-39.96"/>
<polygon fill="black" stroke="black" points="303.97,-43.08 310.27,-34.57 300.04,-37.3 303.97,-43.08"/>
</g>
<!-- r1_node_6&#45;&gt;r1_node_4 -->
<g id="edge6" class="edge">
<title>r1_node_6&#45;&gt;r1_node_4</title>
<path fill="none" stroke="black" d="M345.11,-107.34C322.1,-126.2 277.94,-157.49 237.33,-180 211.74,-194.18 181.63,-207.56 156.93,-217.33"/>
<polygon fill="black" stroke="black" points="155.84,-214.01 147.77,-220.88 158.36,-220.53 155.84,-214.01"/>
</g>
<!-- r1_node_1&#45;&gt;r1_node_7 -->
<g id="edge7" class="edge">
<title>r1_node_1&#45;&gt;r1_node_7</title>
<path fill="none" stroke="black" d="M229.63,-35.62C232.9,-43.1 236.14,-52.14 238.65,-60.64"/>
<polygon fill="black" stroke="black" points="235.24,-61.45 241.17,-70.23 242.01,-59.67 235.24,-61.45"/>
</g>
<!-- r1_node_2&#45;&gt;r1_node_10 -->
<g id="edge13" class="edge">
<title>r1_node_2&#45;&gt;r1_node_10</title>
<path fill="none" stroke="black" d="M86.16,-36.1C88.18,-43.45 89.94,-52.24 91.09,-60.53"/>
<polygon fill="black" stroke="black" points="87.58,-60.62 92.12,-70.19 94.54,-59.88 87.58,-60.62"/>
</g>
<!-- r1_node_5&#45;&gt;r1_node_7 -->
<g id="edge18" class="edge">
<title>r1_node_5&#45;&gt;r1_node_7</title>
<path fill="none" stroke="black" d="M320.79,-35.29C308.54,-45.02 291.61,-57.47 276.46,-67.94"/>
<polygon fill="black" stroke="black" points="274.87,-64.79 268.57,-73.3 278.81,-70.57 274.87,-64.79"/>
</g>
</g>
</svg>
