<?xml version="1.0" encoding="UTF-8" standalone="no"?>
<!DOCTYPE svg PUBLIC "-//W3C//DTD SVG 1.1//EN"
 "http://www.w3.org/Graphics/SVG/1.1/DTD/svg11.dtd">
<!-- Generated by graphviz version 12.2.1 (20241206.2353)
 -->
<!-- Pages: 1 -->
<svg width="568pt" height="332pt"
 viewBox="0.00 0.00 568.26 332.00" xmlns="http://www.w3.org/2000/svg" xmlns:xlink="http://www.w3.org/1999/xlink">
<g id="graph0" class="graph" transform="scale(1 1) rotate(0) translate(4 328)">
<polygon fill="white" stroke="none" points="-4,4 -4,-328 564.26,-328 564.26,4 -4,4"/>
<!-- r4_node_19 -->
<g id="node1" class="node">
<title>r4_node_19</title>
<ellipse fill="none" stroke="black" cx="54.93" cy="-234" rx="54.93" ry="18"/>
<text text-anchor="middle" x="54.93" y="-228.95" font-family="Times,serif" font-size="14.00">r4_node_19</text>
</g>
<!-- r4_node_7 -->
<g id="node2" class="node">
<title>r4_node_7</title>
<ellipse fill="none" stroke="black" cx="159.93" cy="-90" rx="50.33" ry="18"/>
<text text-anchor="middle" x="159.93" y="-84.95" font-family="Times,serif" font-size="14.00">r4_node_7</text>
</g>
<!-- r4_node_1 -->
<g id="node3" class="node">
<title>r4_node_1</title>
<ellipse fill="none" stroke="black" cx="509.93" cy="-18" rx="50.33" ry="18"/>
<text text-anchor="middle" x="509.93" y="-12.95" font-family="Times,serif" font-size="14.00">r4_node_1</text>
</g>
<!-- r4_node_7&#45;&gt;r4_node_1 -->
<g id="edge1" class="edge">
<title>r4_node_7&#45;&gt;r4_node_1</title>
<path fill="none" stroke="black" d="M199.79,-78.76C209.62,-76.39 220.13,-73.99 229.93,-72 327.47,-52.24 353.84,-57.82 450.93,-36 454.47,-35.21 458.11,-34.32 461.76,-33.39"/>
<polygon fill="black" stroke="black" points="462.44,-36.83 471.19,-30.86 460.63,-30.07 462.44,-36.83"/>
</g>
<!-- r4_node_16 -->
<g id="node4" class="node">
<title>r4_node_16</title>
<ellipse fill="none" stroke="black" cx="258.93" cy="-18" rx="54.93" ry="18"/>
<text text-anchor="middle" x="258.93" y="-12.95" font-family="Times,serif" font-size="14.00">r4_node_16</text>
</g>
<!-- r4_node_7&#45;&gt;r4_node_16 -->
<g id="edge2" class="edge">
<title>r4_node_7&#45;&gt;r4_node_16</title>
<path fill="none" stroke="black" d="M181.91,-73.46C195.27,-64.02 212.56,-51.79 227.37,-41.32"/>
<polygon fill="black" stroke="black" points="229.3,-44.24 235.45,-35.61 225.26,-38.52 229.3,-44.24"/>
</g>
<!-- r4_node_17 -->
<g id="node5" class="node">
<title>r4_node_17</title>
<ellipse fill="none" stroke="black" cx="79.93" cy="-162" rx="54.93" ry="18"/>
<text text-anchor="middle" x="79.93" y="-156.95" font-family="Times,serif" font-size="14.00">r4_node_17</text>
</g>
<!-- r4_node_7&#45;&gt;r4_node_17 -->
<g id="edge3" class="edge">
<title>r4_node_7&#45;&gt;r4_node_17</title>
<path fill="none" stroke="black" d="M146.69,-107.71C137.24,-116.85 124.33,-128.29 112.34,-138.22"/>
<polygon fill="black" stroke="black" points="110.14,-135.49 104.58,-144.51 114.55,-140.93 110.14,-135.49"/>
</g>
<!-- r4_node_17&#45;&gt;r4_node_7 -->
<g id="edge15" class="edge">
<title>r4_node_17&#45;&gt;r4_node_7</title>
<path fill="none" stroke="black" d="M93.05,-144.41C102.67,-135.11 115.91,-123.38 128.14,-113.28"/>
<polygon fill="black" stroke="black" points="130.04,-116.24 135.61,-107.23 125.64,-110.8 130.04,-116.24"/>
</g>
<!-- r4_node_3 -->
<g id="node7" class="node">
<title>r4_node_3</title>
<ellipse fill="none" stroke="black" cx="106.93" cy="-18" rx="50.33" ry="18"/>
<text text-anchor="middle" x="106.93" y="-12.95" font-family="Times,serif" font-size="14.00">r4_node_3</text>
</g>
<!-- r4_node_17&#45;&gt;r4_node_3 -->
<g id="edge17" class="edge">
<title>r4_node_17&#45;&gt;r4_node_3</title>
<path fill="none" stroke="black" d="M83.24,-143.59C87.8,-119.61 96.07,-76.14 101.53,-47.42"/>
<polygon fill="black" stroke="black" points="104.97,-48.08 103.4,-37.6 98.09,-46.77 104.97,-48.08"/>
</g>
<!-- r4_node_11 -->
<g id="node10" class="node">
<title>r4_node_11</title>
<ellipse fill="none" stroke="black" cx="182.93" cy="-234" rx="54.93" ry="18"/>
<text text-anchor="middle" x="182.93" y="-228.95" font-family="Times,serif" font-size="14.00">r4_node_11</text>
</g>
<!-- r4_node_17&#45;&gt;r4_node_11 -->
<g id="edge16" class="edge">
<title>r4_node_17&#45;&gt;r4_node_11</title>
<path fill="none" stroke="black" d="M107.58,-177.95C122.51,-187.31 140.77,-199.55 155.63,-210.11"/>
<polygon fill="black" stroke="black" points="153.46,-212.86 163.62,-215.88 157.56,-207.19 153.46,-212.86"/>
</g>
<!-- r4_node_15 -->
<g id="node6" class="node">
<title>r4_node_15</title>
<ellipse fill="none" stroke="black" cx="386.93" cy="-18" rx="54.93" ry="18"/>
<text text-anchor="middle" x="386.93" y="-12.95" font-family="Times,serif" font-size="14.00">r4_node_15</text>
</g>
<!-- r4_node_2 -->
<g id="node8" class="node">
<title>r4_node_2</title>
<ellipse fill="none" stroke="black" cx="264.93" cy="-162" rx="50.33" ry="18"/>
<text text-anchor="middle" x="264.93" y="-156.95" font-family="Times,serif" font-size="14.00">r4_node_2</text>
</g>
<!-- r4_node_2&#45;&gt;r4_node_1 -->
<g id="edge4" class="edge">
<title>r4_node_2&#45;&gt;r4_node_1</title>
<path fill="none" stroke="black" d="M289.56,-145.94C318.99,-128.03 369.78,-97.37 413.93,-72 433.25,-60.9 454.97,-48.87 472.86,-39.09"/>
<polygon fill="black" stroke="black" points="474.47,-42.19 481.57,-34.33 471.12,-36.05 474.47,-42.19"/>
</g>
<!-- r4_node_9 -->
<g id="node9" class="node">
<title>r4_node_9</title>
<ellipse fill="none" stroke="black" cx="472.93" cy="-90" rx="50.33" ry="18"/>
<text text-anchor="middle" x="472.93" y="-84.95" font-family="Times,serif" font-size="14.00">r4_node_9</text>
</g>
<!-- r4_node_2&#45;&gt;r4_node_9 -->
<g id="edge5" class="edge">
<title>r4_node_2&#45;&gt;r4_node_9</title>
<path fill="none" stroke="black" d="M300.69,-148.97C335.47,-137.26 388.48,-119.42 426.51,-106.62"/>
<polygon fill="black" stroke="black" points="427.5,-109.98 435.86,-103.48 425.27,-103.35 427.5,-109.98"/>
</g>
<!-- r4_node_2&#45;&gt;r4_node_11 -->
<g id="edge6" class="edge">
<title>r4_node_2&#45;&gt;r4_node_11</title>
<path fill="none" stroke="black" d="M251.21,-179.71C241.4,-188.93 228.01,-200.51 215.63,-210.51"/>
<polygon fill="black" stroke="black" points="213.7,-207.57 208.04,-216.52 218.05,-213.06 213.7,-207.57"/>
</g>
<!-- r4_node_8 -->
<g id="node11" class="node">
<title>r4_node_8</title>
<ellipse fill="none" stroke="black" cx="288.93" cy="-90" rx="50.33" ry="18"/>
<text text-anchor="middle" x="288.93" y="-84.95" font-family="Times,serif" font-size="14.00">r4_node_8</text>
</g>
<!-- r4_node_2&#45;&gt;r4_node_8 -->
<g id="edge7" class="edge">
<title>r4_node_2&#45;&gt;r4_node_8</title>
<path fill="none" stroke="black" d="M264.95,-143.7C266.81,-135.95 269.77,-126.64 273.08,-118.02"/>
<polygon fill="black" stroke="black" points="276.21,-119.6 276.81,-109.02 269.75,-116.92 276.21,-119.6"/>
</g>
<!-- r4_node_11&#45;&gt;r4_node_17 -->
<g id="edge10" class="edge">
<title>r4_node_11&#45;&gt;r4_node_17</title>
<path fill="none" stroke="black" d="M155.45,-218.15C140.53,-208.81 122.24,-196.54 107.33,-185.96"/>
<polygon fill="black" stroke="black" points="109.48,-183.19 99.32,-180.18 105.38,-188.87 109.48,-183.19"/>
</g>
<!-- r4_node_11&#45;&gt;r4_node_2 -->
<g id="edge8" class="edge">
<title>r4_node_11&#45;&gt;r4_node_2</title>
<path fill="none" stroke="black" d="M196.53,-216.41C206.41,-207.11 219.99,-195.38 232.5,-185.28"/>
<polygon fill="black" stroke="black" points="234.5,-188.16 240.17,-179.21 230.15,-182.67 234.5,-188.16"/>
</g>
<!-- r4_node_11&#45;&gt;r4_node_8 -->
<g id="edge9" class="edge">
<title>r4_node_11&#45;&gt;r4_node_8</title>
<path fill="none" stroke="black" d="M177.15,-215.68C176.32,-196.5 181.38,-165.44 196.93,-144 208.24,-128.42 225.67,-116.28 242.4,-107.59"/>
<polygon fill="black" stroke="black" points="243.83,-110.78 251.31,-103.27 240.78,-104.48 243.83,-110.78"/>
</g>
<!-- r4_node_4 -->
<g id="node12" class="node">
<title>r4_node_4</title>
<ellipse fill="none" stroke="black" cx="118.93" cy="-306" rx="50.33" ry="18"/>
<text text-anchor="middle" x="118.93" y="-300.95" font-family="Times,serif" font-size="14.00">r4_node_4</text>
</g>
<!-- r4_node_11&#45;&gt;r4_node_4 -->
<g id="edge11" class="edge">
<title>r4_node_11&#45;&gt;r4_node_4</title>
<path fill="none" stroke="black" d="M173.44,-251.8C166.37,-260.56 156.62,-271.43 147.26,-281.06"/>
<polygon fill="black" stroke="black" points="144.88,-278.5 140.29,-288.04 149.83,-283.44 144.88,-278.5"/>
</g>
<!-- r4_node_8&#45;&gt;r4_node_16 -->
<g id="edge18" class="edge">
<title>r4_node_8&#45;&gt;r4_node_16</title>
<path fill="none" stroke="black" d="M281.67,-72.05C278.4,-64.43 274.46,-55.23 270.78,-46.65"/>
<polygon fill="black" stroke="black" points="274.09,-45.48 266.93,-37.67 267.66,-48.24 274.09,-45.48"/>
</g>
<!-- r4_node_8&#45;&gt;r4_node_15 -->
<g id="edge20" class="edge">
<title>r4_node_8&#45;&gt;r4_node_15</title>
<path fill="none" stroke="black" d="M310.68,-73.46C323.91,-64.02 341.03,-51.79 355.69,-41.32"/>
<polygon fill="black" stroke="black" points="357.57,-44.27 363.67,-35.61 353.5,-38.58 357.57,-44.27"/>
</g>
<!-- r4_node_8&#45;&gt;r4_node_2 -->
<g id="edge21" class="edge">
<title>r4_node_8&#45;&gt;r4_node_2</title>
<path fill="none" stroke="black" d="M288.92,-108.28C287.11,-115.86 284.22,-124.95 281,-133.43"/>
<polygon fill="black" stroke="black" points="277.77,-132.08 277.2,-142.66 284.24,-134.74 277.77,-132.08"/>
</g>
<!-- r4_node_8&#45;&gt;r4_node_11 -->
<g id="edge19" class="edge">
<title>r4_node_8&#45;&gt;r4_node_11</title>
<path fill="none" stroke="black" d="M262.22,-105.7C246.29,-114.5 227.08,-127.26 214.93,-144 202.11,-161.67 196.42,-185.88 192.54,-204.58"/>
<polygon fill="black" stroke="black" points="189.14,-203.7 190.55,-214.2 196,-205.12 189.14,-203.7"/>
</g>
<!-- r4_node_4&#45;&gt;r4_node_19 -->
<g id="edge12" class="edge">
<title>r4_node_4&#45;&gt;r4_node_19</title>
<path fill="none" stroke="black" d="M103.77,-288.41C95.96,-279.87 86.27,-269.28 77.6,-259.79"/>
<polygon fill="black" stroke="black" points="80.34,-257.61 71.01,-252.59 75.18,-262.33 80.34,-257.61"/>
</g>
<!-- r4_node_4&#45;&gt;r4_node_9 -->
<g id="edge13" class="edge">
<title>r4_node_4&#45;&gt;r4_node_9</title>
<path fill="none" stroke="black" d="M154.42,-292.78C180.69,-283.15 216.95,-268.61 246.93,-252 322.75,-210.01 403.61,-147.53 444.99,-114.09"/>
<polygon fill="black" stroke="black" points="446.96,-117.01 452.51,-107.98 442.54,-111.58 446.96,-117.01"/>
</g>
<!-- r4_node_4&#45;&gt;r4_node_11 -->
<g id="edge14" class="edge">
<title>r4_node_4&#45;&gt;r4_node_11</title>
<path fill="none" stroke="black" d="M128.55,-288.05C135.63,-279.29 145.36,-268.45 154.69,-258.86"/>
<polygon fill="black" stroke="black" points="157.04,-261.45 161.64,-251.9 152.09,-256.5 157.04,-261.45"/>
</g>
</g>
</svg>
