<?xml version="1.0" encoding="UTF-8" standalone="no"?>
<!DOCTYPE svg PUBLIC "-//W3C//DTD SVG 1.1//EN"
 "http://www.w3.org/Graphics/SVG/1.1/DTD/svg11.dtd">
<!-- Generated by graphviz version 12.2.1 (20241206.2353)
 -->
<!-- Pages: 1 -->
<svg width="601pt" height="332pt"
 viewBox="0.00 0.00 601.26 332.00" xmlns="http://www.w3.org/2000/svg" xmlns:xlink="http://www.w3.org/1999/xlink">
<g id="graph0" class="graph" transform="scale(1 1) rotate(0) translate(4 328)">
<polygon fill="white" stroke="none" points="-4,4 -4,-328 597.26,-328 597.26,4 -4,4"/>
<!-- r2_node_15 -->
<g id="node1" class="node">
<title>r2_node_15</title>
<ellipse fill="none" stroke="black" cx="341.33" cy="-234" rx="54.93" ry="18"/>
<text text-anchor="middle" x="341.33" y="-228.95" font-family="Times,serif" font-size="14.00">r2_node_15</text>
</g>
<!-- r2_node_10 -->
<g id="node2" class="node">
<title>r2_node_10</title>
<ellipse fill="none" stroke="black" cx="170.33" cy="-162" rx="54.93" ry="18"/>
<text text-anchor="middle" x="170.33" y="-156.95" font-family="Times,serif" font-size="14.00">r2_node_10</text>
</g>
<!-- r2_node_9 -->
<g id="node3" class="node">
<title>r2_node_9</title>
<ellipse fill="none" stroke="black" cx="109.33" cy="-90" rx="50.33" ry="18"/>
<text text-anchor="middle" x="109.33" y="-84.95" font-family="Times,serif" font-size="14.00">r2_node_9</text>
</g>
<!-- r2_node_10&#45;&gt;r2_node_9 -->
<g id="edge1" class="edge">
<title>r2_node_10&#45;&gt;r2_node_9</title>
<path fill="none" stroke="black" d="M150.38,-144.76C142.27,-136.53 133.13,-126.32 125.45,-117.02"/>
<polygon fill="black" stroke="black" points="128.27,-114.94 119.3,-109.31 122.8,-119.31 128.27,-114.94"/>
</g>
<!-- r2_node_11 -->
<g id="node4" class="node">
<title>r2_node_11</title>
<ellipse fill="none" stroke="black" cx="213.33" cy="-234" rx="54.93" ry="18"/>
<text text-anchor="middle" x="213.33" y="-228.95" font-family="Times,serif" font-size="14.00">r2_node_11</text>
</g>
<!-- r2_node_10&#45;&gt;r2_node_11 -->
<g id="edge2" class="edge">
<title>r2_node_10&#45;&gt;r2_node_11</title>
<path fill="none" stroke="black" d="M186.38,-179.62C192.04,-187.44 198.14,-196.97 203.22,-205.8"/>
<polygon fill="black" stroke="black" points="200.03,-207.26 207.89,-214.37 206.18,-203.91 200.03,-207.26"/>
</g>
<!-- r2_node_19 -->
<g id="node5" class="node">
<title>r2_node_19</title>
<ellipse fill="none" stroke="black" cx="262.33" cy="-90" rx="54.93" ry="18"/>
<text text-anchor="middle" x="262.33" y="-84.95" font-family="Times,serif" font-size="14.00">r2_node_19</text>
</g>
<!-- r2_node_10&#45;&gt;r2_node_19 -->
<g id="edge3" class="edge">
<title>r2_node_10&#45;&gt;r2_node_19</title>
<path fill="none" stroke="black" d="M186.29,-144.41C197.72,-134.93 213.35,-122.92 227.52,-112.69"/>
<polygon fill="black" stroke="black" points="229.2,-115.79 235.33,-107.15 225.15,-110.08 229.2,-115.79"/>
</g>
<!-- r2_node_9&#45;&gt;r2_node_10 -->
<g id="edge5" class="edge">
<title>r2_node_9&#45;&gt;r2_node_10</title>
<path fill="none" stroke="black" d="M128.88,-106.83C137.17,-115.23 146.62,-125.77 154.48,-135.31"/>
<polygon fill="black" stroke="black" points="151.53,-137.23 160.5,-142.87 157,-132.87 151.53,-137.23"/>
</g>
<!-- r2_node_1 -->
<g id="node7" class="node">
<title>r2_node_1</title>
<ellipse fill="none" stroke="black" cx="50.33" cy="-18" rx="50.33" ry="18"/>
<text text-anchor="middle" x="50.33" y="-12.95" font-family="Times,serif" font-size="14.00">r2_node_1</text>
</g>
<!-- r2_node_9&#45;&gt;r2_node_1 -->
<g id="edge4" class="edge">
<title>r2_node_9&#45;&gt;r2_node_1</title>
<path fill="none" stroke="black" d="M95.35,-72.41C88.22,-63.95 79.4,-53.49 71.47,-44.08"/>
<polygon fill="black" stroke="black" points="74.31,-42.02 65.19,-36.63 68.95,-46.53 74.31,-42.02"/>
</g>
<!-- r2_node_2 -->
<g id="node8" class="node">
<title>r2_node_2</title>
<ellipse fill="none" stroke="black" cx="169.33" cy="-18" rx="50.33" ry="18"/>
<text text-anchor="middle" x="169.33" y="-12.95" font-family="Times,serif" font-size="14.00">r2_node_2</text>
</g>
<!-- r2_node_9&#45;&gt;r2_node_2 -->
<g id="edge6" class="edge">
<title>r2_node_9&#45;&gt;r2_node_2</title>
<path fill="none" stroke="black" d="M123.55,-72.41C130.8,-63.95 139.76,-53.49 147.83,-44.08"/>
<polygon fill="black" stroke="black" points="150.38,-46.49 154.23,-36.62 145.06,-41.93 150.38,-46.49"/>
</g>
<!-- r2_node_11&#45;&gt;r2_node_10 -->
<g id="edge12" class="edge">
<title>r2_node_11&#45;&gt;r2_node_10</title>
<path fill="none" stroke="black" d="M197.3,-216.41C191.58,-208.51 185.4,-198.85 180.29,-189.94"/>
<polygon fill="black" stroke="black" points="183.44,-188.4 175.59,-181.29 177.29,-191.74 183.44,-188.4"/>
</g>
<!-- r2_node_28 -->
<g id="node10" class="node">
<title>r2_node_28</title>
<ellipse fill="none" stroke="black" cx="504.33" cy="-162" rx="54.93" ry="18"/>
<text text-anchor="middle" x="504.33" y="-156.95" font-family="Times,serif" font-size="14.00">r2_node_28</text>
</g>
<!-- r2_node_11&#45;&gt;r2_node_28 -->
<g id="edge11" class="edge">
<title>r2_node_11&#45;&gt;r2_node_28</title>
<path fill="none" stroke="black" d="M254.59,-221.84C262.15,-219.86 269.97,-217.84 277.33,-216 335.73,-201.43 402.9,-185.9 448.93,-175.44"/>
<polygon fill="black" stroke="black" points="449.41,-178.92 458.39,-173.3 447.86,-172.09 449.41,-178.92"/>
</g>
<!-- r2_node_4 -->
<g id="node14" class="node">
<title>r2_node_4</title>
<ellipse fill="none" stroke="black" cx="277.33" cy="-306" rx="50.33" ry="18"/>
<text text-anchor="middle" x="277.33" y="-300.95" font-family="Times,serif" font-size="14.00">r2_node_4</text>
</g>
<!-- r2_node_11&#45;&gt;r2_node_4 -->
<g id="edge13" class="edge">
<title>r2_node_11&#45;&gt;r2_node_4</title>
<path fill="none" stroke="black" d="M233.55,-250.83C242.21,-259.23 252.11,-269.77 260.38,-279.31"/>
<polygon fill="black" stroke="black" points="257.63,-281.49 266.74,-286.9 262.99,-276.99 257.63,-281.49"/>
</g>
<!-- r2_node_16 -->
<g id="node15" class="node">
<title>r2_node_16</title>
<ellipse fill="none" stroke="black" cx="329.33" cy="-162" rx="54.93" ry="18"/>
<text text-anchor="middle" x="329.33" y="-156.95" font-family="Times,serif" font-size="14.00">r2_node_16</text>
</g>
<!-- r2_node_11&#45;&gt;r2_node_16 -->
<g id="edge14" class="edge">
<title>r2_node_11&#45;&gt;r2_node_16</title>
<path fill="none" stroke="black" d="M234.16,-216.94C249.61,-206.93 270.98,-193.96 289.6,-183.24"/>
<polygon fill="black" stroke="black" points="291.33,-186.29 298.29,-178.3 287.87,-180.2 291.33,-186.29"/>
</g>
<!-- r2_node_19&#45;&gt;r2_node_10 -->
<g id="edge9" class="edge">
<title>r2_node_19&#45;&gt;r2_node_10</title>
<path fill="none" stroke="black" d="M246.32,-107.63C234.86,-117.13 219.2,-129.16 205.02,-139.39"/>
<polygon fill="black" stroke="black" points="203.33,-136.29 197.2,-144.94 207.38,-142 203.33,-136.29"/>
</g>
<!-- r2_node_29 -->
<g id="node11" class="node">
<title>r2_node_29</title>
<ellipse fill="none" stroke="black" cx="292.33" cy="-18" rx="54.93" ry="18"/>
<text text-anchor="middle" x="292.33" y="-12.95" font-family="Times,serif" font-size="14.00">r2_node_29</text>
</g>
<!-- r2_node_19&#45;&gt;r2_node_29 -->
<g id="edge7" class="edge">
<title>r2_node_19&#45;&gt;r2_node_29</title>
<path fill="none" stroke="black" d="M269.74,-71.7C272.98,-64.15 276.85,-55.12 280.46,-46.68"/>
<polygon fill="black" stroke="black" points="283.68,-48.07 284.4,-37.5 277.24,-45.31 283.68,-48.07"/>
</g>
<!-- r2_node_7 -->
<g id="node12" class="node">
<title>r2_node_7</title>
<ellipse fill="none" stroke="black" cx="415.33" cy="-18" rx="50.33" ry="18"/>
<text text-anchor="middle" x="415.33" y="-12.95" font-family="Times,serif" font-size="14.00">r2_node_7</text>
</g>
<!-- r2_node_19&#45;&gt;r2_node_7 -->
<g id="edge8" class="edge">
<title>r2_node_19&#45;&gt;r2_node_7</title>
<path fill="none" stroke="black" d="M293.29,-74.83C316.85,-64.06 349.47,-49.13 375.06,-37.42"/>
<polygon fill="black" stroke="black" points="376.18,-40.76 383.82,-33.42 373.27,-34.39 376.18,-40.76"/>
</g>
<!-- r2_node_18 -->
<g id="node13" class="node">
<title>r2_node_18</title>
<ellipse fill="none" stroke="black" cx="538.33" cy="-18" rx="54.93" ry="18"/>
<text text-anchor="middle" x="538.33" y="-12.95" font-family="Times,serif" font-size="14.00">r2_node_18</text>
</g>
<!-- r2_node_19&#45;&gt;r2_node_18 -->
<g id="edge10" class="edge">
<title>r2_node_19&#45;&gt;r2_node_18</title>
<path fill="none" stroke="black" d="M303.95,-77.81C311.4,-75.85 319.09,-73.84 326.33,-72 391.93,-55.31 408.72,-52.69 474.33,-36 478.06,-35.05 481.92,-34.06 485.79,-33.05"/>
<polygon fill="black" stroke="black" points="486.45,-36.49 495.24,-30.58 484.68,-29.72 486.45,-36.49"/>
</g>
<!-- r2_node_21 -->
<g id="node6" class="node">
<title>r2_node_21</title>
<ellipse fill="none" stroke="black" cx="390.33" cy="-90" rx="54.93" ry="18"/>
<text text-anchor="middle" x="390.33" y="-84.95" font-family="Times,serif" font-size="14.00">r2_node_21</text>
</g>
<!-- r2_node_25 -->
<g id="node9" class="node">
<title>r2_node_25</title>
<ellipse fill="none" stroke="black" cx="469.33" cy="-234" rx="54.93" ry="18"/>
<text text-anchor="middle" x="469.33" y="-228.95" font-family="Times,serif" font-size="14.00">r2_node_25</text>
</g>
<!-- r2_node_4&#45;&gt;r2_node_15 -->
<g id="edge16" class="edge">
<title>r2_node_4&#45;&gt;r2_node_15</title>
<path fill="none" stroke="black" d="M292.49,-288.41C300.31,-279.87 309.99,-269.28 318.67,-259.79"/>
<polygon fill="black" stroke="black" points="321.08,-262.33 325.25,-252.59 315.92,-257.61 321.08,-262.33"/>
</g>
<!-- r2_node_4&#45;&gt;r2_node_11 -->
<g id="edge15" class="edge">
<title>r2_node_4&#45;&gt;r2_node_11</title>
<path fill="none" stroke="black" d="M257.04,-289.12C248.36,-280.68 238.43,-270.1 230.16,-260.55"/>
<polygon fill="black" stroke="black" points="232.9,-258.37 223.8,-252.96 227.54,-262.87 232.9,-258.37"/>
</g>
<!-- r2_node_4&#45;&gt;r2_node_25 -->
<g id="edge17" class="edge">
<title>r2_node_4&#45;&gt;r2_node_25</title>
<path fill="none" stroke="black" d="M311.65,-292.49C342.7,-281.17 388.68,-264.4 422.98,-251.9"/>
<polygon fill="black" stroke="black" points="424.05,-255.23 432.25,-248.52 421.66,-248.65 424.05,-255.23"/>
</g>
<!-- r2_node_4&#45;&gt;r2_node_28 -->
<g id="edge18" class="edge">
<title>r2_node_4&#45;&gt;r2_node_28</title>
<path fill="none" stroke="black" d="M326.76,-301.98C393.7,-296.75 507.79,-283.37 533.33,-252 548.01,-233.97 537.22,-208.3 524.85,-189.15"/>
<polygon fill="black" stroke="black" points="527.81,-187.27 519.23,-181.06 522.06,-191.27 527.81,-187.27"/>
</g>
<!-- r2_node_16&#45;&gt;r2_node_11 -->
<g id="edge19" class="edge">
<title>r2_node_16&#45;&gt;r2_node_11</title>
<path fill="none" stroke="black" d="M308.67,-178.95C293.11,-189.03 271.51,-202.15 252.75,-212.94"/>
<polygon fill="black" stroke="black" points="251.24,-209.77 244.27,-217.75 254.7,-215.85 251.24,-209.77"/>
</g>
<!-- r2_node_16&#45;&gt;r2_node_21 -->
<g id="edge20" class="edge">
<title>r2_node_16&#45;&gt;r2_node_21</title>
<path fill="none" stroke="black" d="M343.78,-144.41C351.15,-135.95 360.27,-125.49 368.47,-116.08"/>
<polygon fill="black" stroke="black" points="371.05,-118.45 374.98,-108.61 365.77,-113.85 371.05,-118.45"/>
</g>
<!-- r2_node_23 -->
<g id="node16" class="node">
<title>r2_node_23</title>
<ellipse fill="none" stroke="black" cx="518.33" cy="-90" rx="54.93" ry="18"/>
<text text-anchor="middle" x="518.33" y="-84.95" font-family="Times,serif" font-size="14.00">r2_node_23</text>
</g>
<!-- r2_node_16&#45;&gt;r2_node_23 -->
<g id="edge21" class="edge">
<title>r2_node_16&#45;&gt;r2_node_23</title>
<path fill="none" stroke="black" d="M364.88,-147.83C395.24,-136.59 439.11,-120.34 472.17,-108.09"/>
<polygon fill="black" stroke="black" points="473.36,-111.39 481.52,-104.63 470.93,-104.82 473.36,-111.39"/>
</g>
</g>
</svg>
