<?xml version="1.0" encoding="UTF-8" standalone="no"?>
<!DOCTYPE svg PUBLIC "-//W3C//DTD SVG 1.1//EN"
 "http://www.w3.org/Graphics/SVG/1.1/DTD/svg11.dtd">
<!-- Generated by graphviz version 12.2.1 (20241206.2353)
 -->
<!-- Pages: 1 -->
<svg width="228pt" height="116pt"
 viewBox="0.00 0.00 227.66 116.00" xmlns="http://www.w3.org/2000/svg" xmlns:xlink="http://www.w3.org/1999/xlink">
<g id="graph0" class="graph" transform="scale(1 1) rotate(0) translate(4 112)">
<polygon fill="white" stroke="none" points="-4,4 -4,-112 223.66,-112 223.66,4 -4,4"/>
<!-- r3_node_1 -->
<g id="node1" class="node">
<title>r3_node_1</title>
<ellipse fill="none" stroke="black" cx="50.33" cy="-90" rx="50.33" ry="18"/>
<text text-anchor="middle" x="50.33" y="-84.95" font-family="Times,serif" font-size="14.00">r3_node_1</text>
</g>
<!-- r3_node_12 -->
<g id="node2" class="node">
<title>r3_node_12</title>
<ellipse fill="none" stroke="black" cx="109.33" cy="-18" rx="54.93" ry="18"/>
<text text-anchor="middle" x="109.33" y="-12.95" font-family="Times,serif" font-size="14.00">r3_node_12</text>
</g>
<!-- r3_node_1&#45;&gt;r3_node_12 -->
<g id="edge1" class="edge">
<title>r3_node_1&#45;&gt;r3_node_12</title>
<path fill="none" stroke="black" d="M64.31,-72.41C71.44,-63.95 80.25,-53.49 88.19,-44.08"/>
<polygon fill="black" stroke="black" points="90.7,-46.53 94.47,-36.63 85.35,-42.02 90.7,-46.53"/>
</g>
<!-- r3_node_6 -->
<g id="node3" class="node">
<title>r3_node_6</title>
<ellipse fill="none" stroke="black" cx="169.33" cy="-90" rx="50.33" ry="18"/>
<text text-anchor="middle" x="169.33" y="-84.95" font-family="Times,serif" font-size="14.00">r3_node_6</text>
</g>
<!-- r3_node_6&#45;&gt;r3_node_12 -->
<g id="edge2" class="edge">
<title>r3_node_6&#45;&gt;r3_node_12</title>
<path fill="none" stroke="black" d="M155.11,-72.41C147.86,-63.95 138.89,-53.49 130.82,-44.08"/>
<polygon fill="black" stroke="black" points="133.6,-41.93 124.43,-36.62 128.28,-46.49 133.6,-41.93"/>
</g>
</g>
</svg>
