<?xml version="1.0" encoding="UTF-8" standalone="no"?>
<!DOCTYPE svg PUBLIC "-//W3C//DTD SVG 1.1//EN"
 "http://www.w3.org/Graphics/SVG/1.1/DTD/svg11.dtd">
<!-- Generated by graphviz version 12.2.1 (20241206.2353)
 -->
<!-- Pages: 1 -->
<svg width="417pt" height="548pt"
 viewBox="0.00 0.00 416.66 548.00" xmlns="http://www.w3.org/2000/svg" xmlns:xlink="http://www.w3.org/1999/xlink">
<g id="graph0" class="graph" transform="scale(1 1) rotate(0) translate(4 544)">
<polygon fill="white" stroke="none" points="-4,4 -4,-544 412.66,-544 412.66,4 -4,4"/>
<!-- r1_node_7 -->
<g id="node1" class="node">
<title>r1_node_7</title>
<ellipse fill="none" stroke="black" cx="50.33" cy="-522" rx="50.33" ry="18"/>
<text text-anchor="middle" x="50.33" y="-516.95" font-family="Times,serif" font-size="14.00">r1_node_7</text>
</g>
<!-- r1_node_5 -->
<g id="node2" class="node">
<title>r1_node_5</title>
<ellipse fill="none" stroke="black" cx="89.33" cy="-18" rx="50.33" ry="18"/>
<text text-anchor="middle" x="89.33" y="-12.95" font-family="Times,serif" font-size="14.00">r1_node_5</text>
</g>
<!-- r1_node_7&#45;&gt;r1_node_5 -->
<g id="edge1" class="edge">
<title>r1_node_7&#45;&gt;r1_node_5</title>
<path fill="none" stroke="black" d="M45.05,-504.01C42.13,-493.7 38.81,-480.23 37.33,-468 35.41,-452.12 36.4,-447.97 37.33,-432 46.68,-271.19 55.05,-231.24 79.33,-72 80.56,-63.91 82.12,-55.18 83.63,-47.17"/>
<polygon fill="black" stroke="black" points="87.02,-48.1 85.49,-37.62 80.14,-46.77 87.02,-48.1"/>
</g>
<!-- r1_node_1 -->
<g id="node3" class="node">
<title>r1_node_1</title>
<ellipse fill="none" stroke="black" cx="96.33" cy="-450" rx="50.33" ry="18"/>
<text text-anchor="middle" x="96.33" y="-444.95" font-family="Times,serif" font-size="14.00">r1_node_1</text>
</g>
<!-- r1_node_7&#45;&gt;r1_node_1 -->
<g id="edge2" class="edge">
<title>r1_node_7&#45;&gt;r1_node_1</title>
<path fill="none" stroke="black" d="M55.78,-503.7C60.38,-495.4 66.81,-485.31 73.27,-476.19"/>
<polygon fill="black" stroke="black" points="75.92,-478.49 79.03,-468.36 70.28,-474.34 75.92,-478.49"/>
</g>
<!-- r1_node_9 -->
<g id="node4" class="node">
<title>r1_node_9</title>
<ellipse fill="none" stroke="black" cx="358.33" cy="-90" rx="50.33" ry="18"/>
<text text-anchor="middle" x="358.33" y="-84.95" font-family="Times,serif" font-size="14.00">r1_node_9</text>
</g>
<!-- r1_node_7&#45;&gt;r1_node_9 -->
<g id="edge3" class="edge">
<title>r1_node_7&#45;&gt;r1_node_9</title>
<path fill="none" stroke="black" d="M85.25,-508.66C149.47,-485.39 283.54,-427.81 332.33,-324 364.09,-256.41 358.96,-165.52 356.92,-119.81"/>
<polygon fill="black" stroke="black" points="360.42,-119.79 356.53,-109.94 353.43,-120.07 360.42,-119.79"/>
</g>
<!-- r1_node_1&#45;&gt;r1_node_7 -->
<g id="edge12" class="edge">
<title>r1_node_1&#45;&gt;r1_node_7</title>
<path fill="none" stroke="black" d="M90.97,-468.12C86.39,-476.41 79.95,-486.53 73.48,-495.69"/>
<polygon fill="black" stroke="black" points="70.8,-493.42 67.69,-503.55 76.44,-497.57 70.8,-493.42"/>
</g>
<!-- r1_node_6 -->
<g id="node9" class="node">
<title>r1_node_6</title>
<ellipse fill="none" stroke="black" cx="138.33" cy="-90" rx="50.33" ry="18"/>
<text text-anchor="middle" x="138.33" y="-84.95" font-family="Times,serif" font-size="14.00">r1_node_6</text>
</g>
<!-- r1_node_1&#45;&gt;r1_node_6 -->
<g id="edge10" class="edge">
<title>r1_node_1&#45;&gt;r1_node_6</title>
<path fill="none" stroke="black" d="M95.24,-431.73C97.37,-374.43 118.74,-190.18 131.17,-119.22"/>
<polygon fill="black" stroke="black" points="134.57,-120.05 132.95,-109.58 127.69,-118.78 134.57,-120.05"/>
</g>
<!-- r1_node_3 -->
<g id="node10" class="node">
<title>r1_node_3</title>
<ellipse fill="none" stroke="black" cx="207.33" cy="-378" rx="50.33" ry="18"/>
<text text-anchor="middle" x="207.33" y="-372.95" font-family="Times,serif" font-size="14.00">r1_node_3</text>
</g>
<!-- r1_node_1&#45;&gt;r1_node_3 -->
<g id="edge11" class="edge">
<title>r1_node_1&#45;&gt;r1_node_3</title>
<path fill="none" stroke="black" d="M115.75,-433.12C130.67,-422.97 151.52,-409.74 169.61,-398.9"/>
<polygon fill="black" stroke="black" points="171.2,-402.03 178.02,-393.93 167.64,-396 171.2,-402.03"/>
</g>
<!-- r1_node_9&#45;&gt;r1_node_7 -->
<g id="edge7" class="edge">
<title>r1_node_9&#45;&gt;r1_node_7</title>
<path fill="none" stroke="black" d="M365.68,-108.13C375.66,-148.15 385.09,-250.03 350.33,-324 302.57,-425.63 173.07,-482.95 100.7,-507.15"/>
<polygon fill="black" stroke="black" points="99.9,-503.73 91.47,-510.14 102.06,-510.39 99.9,-503.73"/>
</g>
<!-- r1_node_4 -->
<g id="node6" class="node">
<title>r1_node_4</title>
<ellipse fill="none" stroke="black" cx="199.33" cy="-162" rx="50.33" ry="18"/>
<text text-anchor="middle" x="199.33" y="-156.95" font-family="Times,serif" font-size="14.00">r1_node_4</text>
</g>
<!-- r1_node_9&#45;&gt;r1_node_4 -->
<g id="edge8" class="edge">
<title>r1_node_9&#45;&gt;r1_node_4</title>
<path fill="none" stroke="black" d="M330.95,-105.52C306.95,-116.72 271.8,-132.23 243.8,-144.01"/>
<polygon fill="black" stroke="black" points="242.74,-140.66 234.86,-147.74 245.44,-147.12 242.74,-140.66"/>
</g>
<!-- r1_node_10 -->
<g id="node8" class="node">
<title>r1_node_10</title>
<ellipse fill="none" stroke="black" cx="232.33" cy="-18" rx="54.93" ry="18"/>
<text text-anchor="middle" x="232.33" y="-12.95" font-family="Times,serif" font-size="14.00">r1_node_10</text>
</g>
<!-- r1_node_9&#45;&gt;r1_node_10 -->
<g id="edge9" class="edge">
<title>r1_node_9&#45;&gt;r1_node_10</title>
<path fill="none" stroke="black" d="M328.25,-75.34C309.09,-65.44 284.39,-51.87 264.79,-40.53"/>
<polygon fill="black" stroke="black" points="266.77,-37.63 256.37,-35.6 263.23,-43.67 266.77,-37.63"/>
</g>
<!-- r1_node_8 -->
<g id="node5" class="node">
<title>r1_node_8</title>
<ellipse fill="none" stroke="black" cx="256.33" cy="-234" rx="50.33" ry="18"/>
<text text-anchor="middle" x="256.33" y="-228.95" font-family="Times,serif" font-size="14.00">r1_node_8</text>
</g>
<!-- r1_node_8&#45;&gt;r1_node_5 -->
<g id="edge5" class="edge">
<title>r1_node_8&#45;&gt;r1_node_5</title>
<path fill="none" stroke="black" d="M260.36,-215.66C263.82,-197.27 267,-167.65 258.33,-144 238.29,-89.36 177.63,-54.28 134.74,-35.6"/>
<polygon fill="black" stroke="black" points="136.22,-32.43 125.64,-31.79 133.51,-38.89 136.22,-32.43"/>
</g>
<!-- r1_node_8&#45;&gt;r1_node_4 -->
<g id="edge4" class="edge">
<title>r1_node_8&#45;&gt;r1_node_4</title>
<path fill="none" stroke="black" d="M237.63,-217.12C229.87,-208.77 221.11,-198.32 213.83,-188.84"/>
<polygon fill="black" stroke="black" points="216.8,-186.97 208.04,-181.01 211.17,-191.14 216.8,-186.97"/>
</g>
<!-- r1_node_2 -->
<g id="node7" class="node">
<title>r1_node_2</title>
<ellipse fill="none" stroke="black" cx="282.33" cy="-306" rx="50.33" ry="18"/>
<text text-anchor="middle" x="282.33" y="-300.95" font-family="Times,serif" font-size="14.00">r1_node_2</text>
</g>
<!-- r1_node_8&#45;&gt;r1_node_2 -->
<g id="edge6" class="edge">
<title>r1_node_8&#45;&gt;r1_node_2</title>
<path fill="none" stroke="black" d="M268.35,-251.62C271.98,-259.19 275.64,-268.35 278.53,-276.93"/>
<polygon fill="black" stroke="black" points="275.11,-277.7 281.38,-286.25 281.81,-275.66 275.11,-277.7"/>
</g>
<!-- r1_node_4&#45;&gt;r1_node_9 -->
<g id="edge23" class="edge">
<title>r1_node_4&#45;&gt;r1_node_9</title>
<path fill="none" stroke="black" d="M226.68,-146.5C250.73,-135.28 285.98,-119.71 314.01,-107.92"/>
<polygon fill="black" stroke="black" points="315.08,-111.27 322.96,-104.19 312.39,-104.81 315.08,-111.27"/>
</g>
<!-- r1_node_4&#45;&gt;r1_node_8 -->
<g id="edge22" class="edge">
<title>r1_node_4&#45;&gt;r1_node_8</title>
<path fill="none" stroke="black" d="M217.97,-178.83C225.71,-187.15 234.45,-197.56 241.72,-207.02"/>
<polygon fill="black" stroke="black" points="238.74,-208.88 247.51,-214.84 244.37,-204.72 238.74,-208.88"/>
</g>
<!-- r1_node_4&#45;&gt;r1_node_6 -->
<g id="edge24" class="edge">
<title>r1_node_4&#45;&gt;r1_node_6</title>
<path fill="none" stroke="black" d="M179.73,-145.12C171.4,-136.68 161.93,-126.1 154.06,-116.55"/>
<polygon fill="black" stroke="black" points="157.01,-114.63 148.05,-108.98 151.53,-118.99 157.01,-114.63"/>
</g>
<!-- r1_node_4&#45;&gt;r1_node_3 -->
<g id="edge21" class="edge">
<title>r1_node_4&#45;&gt;r1_node_3</title>
<path fill="none" stroke="black" d="M206.34,-180.18C207.07,-190.55 206.55,-204.03 206.33,-216 206.03,-232 205.69,-236.01 206.33,-252 207.65,-285.09 210.93,-322.99 211.49,-348.3"/>
<polygon fill="black" stroke="black" points="207.99,-348.13 211.52,-358.12 214.99,-348.11 207.99,-348.13"/>
</g>
<!-- r1_node_2&#45;&gt;r1_node_8 -->
<g id="edge17" class="edge">
<title>r1_node_2&#45;&gt;r1_node_8</title>
<path fill="none" stroke="black" d="M270.16,-288.05C266.6,-280.6 263.01,-271.64 260.17,-263.22"/>
<polygon fill="black" stroke="black" points="263.54,-262.26 257.27,-253.72 256.85,-264.31 263.54,-262.26"/>
</g>
<!-- r1_node_2&#45;&gt;r1_node_10 -->
<g id="edge18" class="edge">
<title>r1_node_2&#45;&gt;r1_node_10</title>
<path fill="none" stroke="black" d="M288.38,-288.04C294.52,-278.18 302.57,-265.13 306.33,-252 310.73,-236.62 309.5,-231.68 306.33,-216 293.45,-152.26 259.32,-83.5 241.95,-46.44"/>
<polygon fill="black" stroke="black" points="245.33,-45.41 237.96,-37.8 238.97,-48.34 245.33,-45.41"/>
</g>
<!-- r1_node_2&#45;&gt;r1_node_3 -->
<g id="edge16" class="edge">
<title>r1_node_2&#45;&gt;r1_node_3</title>
<path fill="none" stroke="black" d="M270.51,-323.47C261.71,-332.62 249.54,-344.15 238.16,-354.17"/>
<polygon fill="black" stroke="black" points="236.13,-351.3 230.84,-360.48 240.7,-356.6 236.13,-351.3"/>
</g>
<!-- r1_node_10&#45;&gt;r1_node_9 -->
<g id="edge20" class="edge">
<title>r1_node_10&#45;&gt;r1_node_9</title>
<path fill="none" stroke="black" d="M263.18,-33.07C282.34,-42.98 306.8,-56.43 326.19,-67.66"/>
<polygon fill="black" stroke="black" points="324.38,-70.66 334.78,-72.7 327.92,-64.62 324.38,-70.66"/>
</g>
<!-- r1_node_10&#45;&gt;r1_node_2 -->
<g id="edge19" class="edge">
<title>r1_node_10&#45;&gt;r1_node_2</title>
<path fill="none" stroke="black" d="M247.15,-35.65C269.76,-68.68 310.07,-145.43 324.33,-216 327.5,-231.68 328.73,-236.62 324.33,-252 321.47,-262 316.12,-271.94 310.08,-280.47"/>
<polygon fill="black" stroke="black" points="307.41,-278.21 303.99,-288.23 312.91,-282.53 307.41,-278.21"/>
</g>
<!-- r1_node_6&#45;&gt;r1_node_5 -->
<g id="edge25" class="edge">
<title>r1_node_6&#45;&gt;r1_node_5</title>
<path fill="none" stroke="black" d="M126.47,-72.05C120.81,-63.97 113.91,-54.12 107.61,-45.11"/>
<polygon fill="black" stroke="black" points="110.55,-43.21 101.95,-37.03 104.82,-47.23 110.55,-43.21"/>
</g>
<!-- r1_node_6&#45;&gt;r1_node_1 -->
<g id="edge26" class="edge">
<title>r1_node_6&#45;&gt;r1_node_1</title>
<path fill="none" stroke="black" d="M139.42,-108.09C137.33,-165.14 115.97,-349.37 103.53,-420.56"/>
<polygon fill="black" stroke="black" points="100.11,-419.78 101.74,-430.24 107,-421.05 100.11,-419.78"/>
</g>
<!-- r1_node_6&#45;&gt;r1_node_4 -->
<g id="edge27" class="edge">
<title>r1_node_6&#45;&gt;r1_node_4</title>
<path fill="none" stroke="black" d="M157.88,-106.83C166.17,-115.23 175.62,-125.77 183.48,-135.31"/>
<polygon fill="black" stroke="black" points="180.53,-137.23 189.5,-142.87 186,-132.87 180.53,-137.23"/>
</g>
<!-- r1_node_3&#45;&gt;r1_node_1 -->
<g id="edge13" class="edge">
<title>r1_node_3&#45;&gt;r1_node_1</title>
<path fill="none" stroke="black" d="M187.69,-395.03C172.93,-405.06 152.42,-418.07 134.53,-428.81"/>
<polygon fill="black" stroke="black" points="132.76,-425.79 125.93,-433.89 136.32,-431.81 132.76,-425.79"/>
</g>
<!-- r1_node_3&#45;&gt;r1_node_4 -->
<g id="edge15" class="edge">
<title>r1_node_3&#45;&gt;r1_node_4</title>
<path fill="none" stroke="black" d="M199.56,-360.04C194.1,-336.03 189.87,-290.72 188.33,-252 187.69,-236.01 188.03,-232 188.33,-216 188.48,-208.05 188.75,-199.44 189.4,-191.51"/>
<polygon fill="black" stroke="black" points="192.86,-192.02 190.52,-181.68 185.91,-191.22 192.86,-192.02"/>
</g>
<!-- r1_node_3&#45;&gt;r1_node_2 -->
<g id="edge14" class="edge">
<title>r1_node_3&#45;&gt;r1_node_2</title>
<path fill="none" stroke="black" d="M219.6,-360.05C228.3,-351.05 240.12,-339.85 251.22,-330.07"/>
<polygon fill="black" stroke="black" points="253.46,-332.76 258.75,-323.58 248.89,-327.46 253.46,-332.76"/>
</g>
</g>
</svg>
