<?xml version="1.0" encoding="UTF-8" standalone="no"?>
<!DOCTYPE svg PUBLIC "-//W3C//DTD SVG 1.1//EN"
 "http://www.w3.org/Graphics/SVG/1.1/DTD/svg11.dtd">
<!-- Generated by graphviz version 12.2.1 (20241206.2353)
 -->
<!-- Pages: 1 -->
<svg width="1167pt" height="548pt"
 viewBox="0.00 0.00 1166.71 548.00" xmlns="http://www.w3.org/2000/svg" xmlns:xlink="http://www.w3.org/1999/xlink">
<g id="graph0" class="graph" transform="scale(1 1) rotate(0) translate(4 544)">
<polygon fill="white" stroke="none" points="-4,4 -4,-544 1162.71,-544 1162.71,4 -4,4"/>
<!-- r2_node_9 -->
<g id="node1" class="node">
<title>r2_node_9</title>
<ellipse fill="none" stroke="black" cx="50.33" cy="-522" rx="50.33" ry="18"/>
<text text-anchor="middle" x="50.33" y="-516.95" font-family="Times,serif" font-size="14.00">r2_node_9</text>
</g>
<!-- r2_node_19 -->
<g id="node2" class="node">
<title>r2_node_19</title>
<ellipse fill="none" stroke="black" cx="690.33" cy="-18" rx="54.93" ry="18"/>
<text text-anchor="middle" x="690.33" y="-12.95" font-family="Times,serif" font-size="14.00">r2_node_19</text>
</g>
<!-- r2_node_9&#45;&gt;r2_node_19 -->
<g id="edge1" class="edge">
<title>r2_node_9&#45;&gt;r2_node_19</title>
<path fill="none" stroke="black" d="M92.67,-511.87C106.82,-509.04 122.71,-506.12 137.33,-504 303.46,-479.87 354.06,-521.07 513.33,-468 542.47,-458.29 543.67,-443.07 572.33,-432 651.69,-401.35 678.39,-418.88 760.33,-396 848.91,-371.27 875.49,-371.36 954.33,-324 995.62,-299.19 1005.41,-289.75 1035.33,-252 1086.18,-187.85 1128.11,-133.71 1074.33,-72 1033.98,-25.7 855.96,-18.48 757.1,-18.15"/>
<polygon fill="black" stroke="black" points="757.26,-14.65 747.25,-18.14 757.25,-21.65 757.26,-14.65"/>
</g>
<!-- r2_node_20 -->
<g id="node3" class="node">
<title>r2_node_20</title>
<ellipse fill="none" stroke="black" cx="372.33" cy="-90" rx="54.93" ry="18"/>
<text text-anchor="middle" x="372.33" y="-84.95" font-family="Times,serif" font-size="14.00">r2_node_20</text>
</g>
<!-- r2_node_9&#45;&gt;r2_node_20 -->
<g id="edge2" class="edge">
<title>r2_node_9&#45;&gt;r2_node_20</title>
<path fill="none" stroke="black" d="M54.46,-503.98C62.39,-473.42 81.71,-407.97 112.33,-360 178.91,-255.67 290.43,-157.61 343.1,-114.29"/>
<polygon fill="black" stroke="black" points="345.21,-117.08 350.75,-108.05 340.79,-111.66 345.21,-117.08"/>
</g>
<!-- r2_node_2 -->
<g id="node4" class="node">
<title>r2_node_2</title>
<ellipse fill="none" stroke="black" cx="152.33" cy="-450" rx="50.33" ry="18"/>
<text text-anchor="middle" x="152.33" y="-444.95" font-family="Times,serif" font-size="14.00">r2_node_2</text>
</g>
<!-- r2_node_9&#45;&gt;r2_node_2 -->
<g id="edge3" class="edge">
<title>r2_node_9&#45;&gt;r2_node_2</title>
<path fill="none" stroke="black" d="M68.18,-504.76C81.53,-494.84 100.03,-482.05 116.34,-471.44"/>
<polygon fill="black" stroke="black" points="117.83,-474.64 124.36,-466.3 114.05,-468.75 117.83,-474.64"/>
</g>
<!-- r2_node_7 -->
<g id="node5" class="node">
<title>r2_node_7</title>
<ellipse fill="none" stroke="black" cx="78.33" cy="-18" rx="50.33" ry="18"/>
<text text-anchor="middle" x="78.33" y="-12.95" font-family="Times,serif" font-size="14.00">r2_node_7</text>
</g>
<!-- r2_node_9&#45;&gt;r2_node_7 -->
<g id="edge4" class="edge">
<title>r2_node_9&#45;&gt;r2_node_7</title>
<path fill="none" stroke="black" d="M48.62,-503.72C47.54,-429.8 63.49,-139.78 73.41,-47.41"/>
<polygon fill="black" stroke="black" points="76.86,-48.05 74.53,-37.71 69.9,-47.24 76.86,-48.05"/>
</g>
<!-- r2_node_2&#45;&gt;r2_node_9 -->
<g id="edge46" class="edge">
<title>r2_node_2&#45;&gt;r2_node_9</title>
<path fill="none" stroke="black" d="M134.63,-467.12C121.35,-477 102.92,-489.75 86.62,-500.36"/>
<polygon fill="black" stroke="black" points="85.12,-497.16 78.6,-505.51 88.9,-503.05 85.12,-497.16"/>
</g>
<!-- r2_node_16 -->
<g id="node8" class="node">
<title>r2_node_16</title>
<ellipse fill="none" stroke="black" cx="844.33" cy="-90" rx="54.93" ry="18"/>
<text text-anchor="middle" x="844.33" y="-84.95" font-family="Times,serif" font-size="14.00">r2_node_16</text>
</g>
<!-- r2_node_2&#45;&gt;r2_node_16 -->
<g id="edge48" class="edge">
<title>r2_node_2&#45;&gt;r2_node_16</title>
<path fill="none" stroke="black" d="M175.96,-433.83C191.66,-423.54 212.56,-409.42 230.33,-396 250.22,-380.98 250.84,-370.75 273.33,-360 347.71,-324.42 379.11,-355.47 455.33,-324 561.97,-279.96 578.57,-248.61 671.33,-180 691.64,-164.97 693.63,-156.94 715.33,-144 740.51,-128.98 770.73,-116.31 795.58,-107.13"/>
<polygon fill="black" stroke="black" points="796.59,-110.49 804.81,-103.8 794.22,-103.91 796.59,-110.49"/>
</g>
<!-- r2_node_5 -->
<g id="node10" class="node">
<title>r2_node_5</title>
<ellipse fill="none" stroke="black" cx="171.33" cy="-378" rx="50.33" ry="18"/>
<text text-anchor="middle" x="171.33" y="-372.95" font-family="Times,serif" font-size="14.00">r2_node_5</text>
</g>
<!-- r2_node_2&#45;&gt;r2_node_5 -->
<g id="edge45" class="edge">
<title>r2_node_2&#45;&gt;r2_node_5</title>
<path fill="none" stroke="black" d="M151.11,-431.7C152.4,-424.04 154.66,-414.85 157.31,-406.3"/>
<polygon fill="black" stroke="black" points="160.55,-407.65 160.48,-397.05 153.93,-405.38 160.55,-407.65"/>
</g>
<!-- r2_node_10 -->
<g id="node17" class="node">
<title>r2_node_10</title>
<ellipse fill="none" stroke="black" cx="337.33" cy="-378" rx="54.93" ry="18"/>
<text text-anchor="middle" x="337.33" y="-372.95" font-family="Times,serif" font-size="14.00">r2_node_10</text>
</g>
<!-- r2_node_2&#45;&gt;r2_node_10 -->
<g id="edge47" class="edge">
<title>r2_node_2&#45;&gt;r2_node_10</title>
<path fill="none" stroke="black" d="M182.96,-435.34C211.83,-423.81 255.38,-407.3 288.92,-395.13"/>
<polygon fill="black" stroke="black" points="289.78,-398.54 298.01,-391.85 287.41,-391.95 289.78,-398.54"/>
</g>
<!-- r2_node_7&#45;&gt;r2_node_9 -->
<g id="edge20" class="edge">
<title>r2_node_7&#45;&gt;r2_node_9</title>
<path fill="none" stroke="black" d="M80.04,-36.47C81.09,-110.66 65.16,-400.14 55.26,-492.51"/>
<polygon fill="black" stroke="black" points="51.81,-491.88 54.14,-502.22 58.76,-492.68 51.81,-491.88"/>
</g>
<!-- r2_node_7&#45;&gt;r2_node_5 -->
<g id="edge19" class="edge">
<title>r2_node_7&#45;&gt;r2_node_5</title>
<path fill="none" stroke="black" d="M85.86,-36.09C105.28,-93.14 153.4,-277.37 167.8,-348.56"/>
<polygon fill="black" stroke="black" points="164.34,-349.09 169.67,-358.25 171.21,-347.77 164.34,-349.09"/>
</g>
<!-- r2_node_15 -->
<g id="node16" class="node">
<title>r2_node_15</title>
<ellipse fill="none" stroke="black" cx="266.33" cy="-306" rx="54.93" ry="18"/>
<text text-anchor="middle" x="266.33" y="-300.95" font-family="Times,serif" font-size="14.00">r2_node_15</text>
</g>
<!-- r2_node_7&#45;&gt;r2_node_15 -->
<g id="edge21" class="edge">
<title>r2_node_7&#45;&gt;r2_node_15</title>
<path fill="none" stroke="black" d="M111.79,-31.86C129.75,-41.18 150.86,-55.08 165.33,-72 179.71,-88.81 237.54,-218.76 258.94,-276.97"/>
<polygon fill="black" stroke="black" points="255.56,-277.91 262.2,-286.17 262.16,-275.57 255.56,-277.91"/>
</g>
<!-- r2_node_12 -->
<g id="node6" class="node">
<title>r2_node_12</title>
<ellipse fill="none" stroke="black" cx="791.33" cy="-234" rx="54.93" ry="18"/>
<text text-anchor="middle" x="791.33" y="-228.95" font-family="Times,serif" font-size="14.00">r2_node_12</text>
</g>
<!-- r2_node_12&#45;&gt;r2_node_19 -->
<g id="edge5" class="edge">
<title>r2_node_12&#45;&gt;r2_node_19</title>
<path fill="none" stroke="black" d="M816.94,-217.85C862.56,-188.98 949.43,-124.29 908.33,-72 889.32,-47.81 810.76,-33.3 753.38,-25.72"/>
<polygon fill="black" stroke="black" points="754.08,-22.28 743.72,-24.49 753.19,-29.23 754.08,-22.28"/>
</g>
<!-- r2_node_1 -->
<g id="node7" class="node">
<title>r2_node_1</title>
<ellipse fill="none" stroke="black" cx="676.33" cy="-306" rx="50.33" ry="18"/>
<text text-anchor="middle" x="676.33" y="-300.95" font-family="Times,serif" font-size="14.00">r2_node_1</text>
</g>
<!-- r2_node_12&#45;&gt;r2_node_1 -->
<g id="edge6" class="edge">
<title>r2_node_12&#45;&gt;r2_node_1</title>
<path fill="none" stroke="black" d="M770.66,-251.1C755.18,-261.23 733.72,-274.36 715.13,-285.13"/>
<polygon fill="black" stroke="black" points="713.41,-282.08 706.46,-290.08 716.88,-288.16 713.41,-282.08"/>
</g>
<!-- r2_node_12&#45;&gt;r2_node_16 -->
<g id="edge7" class="edge">
<title>r2_node_12&#45;&gt;r2_node_16</title>
<path fill="none" stroke="black" d="M808.4,-216.43C817.35,-206.7 827.61,-193.64 833.33,-180 841.29,-160.98 843.96,-137.82 844.68,-119.89"/>
<polygon fill="black" stroke="black" points="848.18,-120.02 844.88,-109.95 841.18,-119.88 848.18,-120.02"/>
</g>
<!-- r2_node_1&#45;&gt;r2_node_12 -->
<g id="edge44" class="edge">
<title>r2_node_1&#45;&gt;r2_node_12</title>
<path fill="none" stroke="black" d="M696.66,-289.12C711.95,-279.11 733.18,-266.1 751.72,-255.34"/>
<polygon fill="black" stroke="black" points="753.44,-258.39 760.37,-250.38 749.96,-252.31 753.44,-258.39"/>
</g>
<!-- r2_node_1&#45;&gt;r2_node_5 -->
<g id="edge42" class="edge">
<title>r2_node_1&#45;&gt;r2_node_5</title>
<path fill="none" stroke="black" d="M629.95,-313.29C556.16,-322.68 407.96,-341.27 282.33,-360 264.92,-362.59 245.89,-365.69 228.52,-368.53"/>
<polygon fill="black" stroke="black" points="228.19,-365.04 218.88,-370.11 229.31,-371.95 228.19,-365.04"/>
</g>
<!-- r2_node_8 -->
<g id="node20" class="node">
<title>r2_node_8</title>
<ellipse fill="none" stroke="black" cx="774.33" cy="-162" rx="50.33" ry="18"/>
<text text-anchor="middle" x="774.33" y="-156.95" font-family="Times,serif" font-size="14.00">r2_node_8</text>
</g>
<!-- r2_node_1&#45;&gt;r2_node_8 -->
<g id="edge43" class="edge">
<title>r2_node_1&#45;&gt;r2_node_8</title>
<path fill="none" stroke="black" d="M678.25,-287.63C685.35,-269.21 701.39,-239.58 718.33,-216 725.8,-205.6 734.97,-194.89 743.82,-185.85"/>
<polygon fill="black" stroke="black" points="746.01,-188.61 750.73,-179.12 741.12,-183.59 746.01,-188.61"/>
</g>
<!-- r2_node_3 -->
<g id="node9" class="node">
<title>r2_node_3</title>
<ellipse fill="none" stroke="black" cx="396.33" cy="-306" rx="50.33" ry="18"/>
<text text-anchor="middle" x="396.33" y="-300.95" font-family="Times,serif" font-size="14.00">r2_node_3</text>
</g>
<!-- r2_node_3&#45;&gt;r2_node_5 -->
<g id="edge8" class="edge">
<title>r2_node_3&#45;&gt;r2_node_5</title>
<path fill="none" stroke="black" d="M361.81,-319.39C324.29,-331.64 264.22,-350.35 221.51,-363.1"/>
<polygon fill="black" stroke="black" points="220.55,-359.74 211.96,-365.94 222.54,-366.45 220.55,-359.74"/>
</g>
<!-- r2_node_17 -->
<g id="node11" class="node">
<title>r2_node_17</title>
<ellipse fill="none" stroke="black" cx="224.33" cy="-18" rx="54.93" ry="18"/>
<text text-anchor="middle" x="224.33" y="-12.95" font-family="Times,serif" font-size="14.00">r2_node_17</text>
</g>
<!-- r2_node_3&#45;&gt;r2_node_17 -->
<g id="edge9" class="edge">
<title>r2_node_3&#45;&gt;r2_node_17</title>
<path fill="none" stroke="black" d="M379.63,-288.72C369.84,-278.67 357.61,-265.2 348.33,-252 299.51,-182.53 256.4,-91.55 236.31,-46.6"/>
<polygon fill="black" stroke="black" points="239.57,-45.32 232.32,-37.59 233.17,-48.15 239.57,-45.32"/>
</g>
<!-- r2_node_18 -->
<g id="node12" class="node">
<title>r2_node_18</title>
<ellipse fill="none" stroke="black" cx="492.33" cy="-18" rx="54.93" ry="18"/>
<text text-anchor="middle" x="492.33" y="-12.95" font-family="Times,serif" font-size="14.00">r2_node_18</text>
</g>
<!-- r2_node_3&#45;&gt;r2_node_18 -->
<g id="edge10" class="edge">
<title>r2_node_3&#45;&gt;r2_node_18</title>
<path fill="none" stroke="black" d="M428.35,-291.8C452.35,-281.62 485.83,-266.81 514.33,-252 569.85,-223.13 586.63,-219.3 635.33,-180 669.34,-152.55 686.33,-148.68 702.33,-108 708.18,-93.11 712.16,-84.62 702.33,-72 684.28,-48.83 610.04,-34.2 554.92,-26.32"/>
<polygon fill="black" stroke="black" points="555.71,-22.89 545.33,-24.99 554.75,-29.83 555.71,-22.89"/>
</g>
<!-- r2_node_14 -->
<g id="node13" class="node">
<title>r2_node_14</title>
<ellipse fill="none" stroke="black" cx="450.33" cy="-234" rx="54.93" ry="18"/>
<text text-anchor="middle" x="450.33" y="-228.95" font-family="Times,serif" font-size="14.00">r2_node_14</text>
</g>
<!-- r2_node_3&#45;&gt;r2_node_14 -->
<g id="edge11" class="edge">
<title>r2_node_3&#45;&gt;r2_node_14</title>
<path fill="none" stroke="black" d="M403.52,-288.05C409.15,-279.59 416.97,-269.19 424.67,-259.84"/>
<polygon fill="black" stroke="black" points="427.14,-262.34 430.96,-252.46 421.81,-257.81 427.14,-262.34"/>
</g>
<!-- r2_node_5&#45;&gt;r2_node_2 -->
<g id="edge24" class="edge">
<title>r2_node_5&#45;&gt;r2_node_2</title>
<path fill="none" stroke="black" d="M172.55,-396.28C171.28,-403.86 169.04,-412.95 166.42,-421.43"/>
<polygon fill="black" stroke="black" points="163.2,-420.03 163.29,-430.62 169.83,-422.28 163.2,-420.03"/>
</g>
<!-- r2_node_5&#45;&gt;r2_node_7 -->
<g id="edge22" class="edge">
<title>r2_node_5&#45;&gt;r2_node_7</title>
<path fill="none" stroke="black" d="M163.73,-359.73C144.25,-302.43 96.14,-118.18 81.81,-47.22"/>
<polygon fill="black" stroke="black" points="85.28,-46.74 79.96,-37.58 78.41,-48.06 85.28,-46.74"/>
</g>
<!-- r2_node_5&#45;&gt;r2_node_1 -->
<g id="edge25" class="edge">
<title>r2_node_5&#45;&gt;r2_node_1</title>
<path fill="none" stroke="black" d="M214.07,-368.09C229.84,-365.38 247.81,-362.46 264.33,-360 389.39,-341.36 536.82,-322.85 617.12,-313.42"/>
<polygon fill="black" stroke="black" points="617.44,-316.9 626.97,-312.27 616.63,-309.95 617.44,-316.9"/>
</g>
<!-- r2_node_5&#45;&gt;r2_node_3 -->
<g id="edge26" class="edge">
<title>r2_node_5&#45;&gt;r2_node_3</title>
<path fill="none" stroke="black" d="M205.74,-364.65C243.25,-352.4 303.4,-333.66 346.14,-320.9"/>
<polygon fill="black" stroke="black" points="347.12,-324.26 355.71,-318.06 345.12,-317.55 347.12,-324.26"/>
</g>
<!-- r2_node_5&#45;&gt;r2_node_15 -->
<g id="edge23" class="edge">
<title>r2_node_5&#45;&gt;r2_node_15</title>
<path fill="none" stroke="black" d="M187.56,-360.76C199.44,-351.22 215.81,-339.04 230.6,-328.68"/>
<polygon fill="black" stroke="black" points="232.54,-331.6 238.79,-323.05 228.57,-325.84 232.54,-331.6"/>
</g>
<!-- r2_node_14&#45;&gt;r2_node_3 -->
<g id="edge32" class="edge">
<title>r2_node_14&#45;&gt;r2_node_3</title>
<path fill="none" stroke="black" d="M443.01,-252.12C437.37,-260.59 429.57,-270.96 421.9,-280.26"/>
<polygon fill="black" stroke="black" points="419.46,-277.73 415.63,-287.61 424.78,-282.27 419.46,-277.73"/>
</g>
<!-- r2_node_14&#45;&gt;r2_node_17 -->
<g id="edge34" class="edge">
<title>r2_node_14&#45;&gt;r2_node_17</title>
<path fill="none" stroke="black" d="M444.65,-216.04C441.51,-205.74 437.92,-192.27 436.33,-180 436.33,-180 436.33,-72 436.33,-72 418.03,-48.57 342.7,-33.97 287.01,-26.16"/>
<polygon fill="black" stroke="black" points="287.69,-22.72 277.31,-24.85 286.75,-29.66 287.69,-22.72"/>
</g>
<!-- r2_node_11 -->
<g id="node19" class="node">
<title>r2_node_11</title>
<ellipse fill="none" stroke="black" cx="571.33" cy="-162" rx="54.93" ry="18"/>
<text text-anchor="middle" x="571.33" y="-156.95" font-family="Times,serif" font-size="14.00">r2_node_11</text>
</g>
<!-- r2_node_14&#45;&gt;r2_node_11 -->
<g id="edge33" class="edge">
<title>r2_node_14&#45;&gt;r2_node_11</title>
<path fill="none" stroke="black" d="M472.02,-217.12C488.43,-206.95 511.24,-193.68 530.92,-182.82"/>
<polygon fill="black" stroke="black" points="532.44,-185.98 539.54,-178.12 529.09,-179.83 532.44,-185.98"/>
</g>
<!-- r2_node_4 -->
<g id="node14" class="node">
<title>r2_node_4</title>
<ellipse fill="none" stroke="black" cx="454.33" cy="-450" rx="50.33" ry="18"/>
<text text-anchor="middle" x="454.33" y="-444.95" font-family="Times,serif" font-size="14.00">r2_node_4</text>
</g>
<!-- r2_node_4&#45;&gt;r2_node_19 -->
<g id="edge14" class="edge">
<title>r2_node_4&#45;&gt;r2_node_19</title>
<path fill="none" stroke="black" d="M495.42,-439.17C505.52,-436.79 516.31,-434.28 526.33,-432 599.52,-415.38 620.73,-421.48 691.33,-396 868.63,-332.01 965.67,-345.27 1056.33,-180 1064.73,-164.68 1070.58,-89.38 1055.33,-72 1017.22,-28.57 851.44,-20.03 756.94,-18.78"/>
<polygon fill="black" stroke="black" points="757.05,-15.28 747.02,-18.67 756.98,-22.28 757.05,-15.28"/>
</g>
<!-- r2_node_4&#45;&gt;r2_node_16 -->
<g id="edge12" class="edge">
<title>r2_node_4&#45;&gt;r2_node_16</title>
<path fill="none" stroke="black" d="M486.25,-435.77C577.67,-397.56 835.24,-287.48 855.33,-252 878.89,-210.38 866.14,-152.68 855.03,-118.85"/>
<polygon fill="black" stroke="black" points="858.46,-118.07 851.87,-109.78 851.85,-120.37 858.46,-118.07"/>
</g>
<!-- r2_node_4&#45;&gt;r2_node_18 -->
<g id="edge13" class="edge">
<title>r2_node_4&#45;&gt;r2_node_18</title>
<path fill="none" stroke="black" d="M494.97,-439.01C531.86,-429.47 587.48,-413.94 634.33,-396 703.76,-369.42 721.62,-362.34 785.33,-324 831.33,-296.32 849.26,-294.3 882.33,-252 932.99,-187.2 979.9,-133.54 925.33,-72 880.92,-21.93 692.75,-44.21 626.33,-36 602.74,-33.08 576.82,-29.81 554.11,-26.92"/>
<polygon fill="black" stroke="black" points="554.77,-23.48 544.41,-25.69 553.88,-30.42 554.77,-23.48"/>
</g>
<!-- r2_node_13 -->
<g id="node15" class="node">
<title>r2_node_13</title>
<ellipse fill="none" stroke="black" cx="201.33" cy="-522" rx="54.93" ry="18"/>
<text text-anchor="middle" x="201.33" y="-516.95" font-family="Times,serif" font-size="14.00">r2_node_13</text>
</g>
<!-- r2_node_13&#45;&gt;r2_node_19 -->
<g id="edge15" class="edge">
<title>r2_node_13&#45;&gt;r2_node_19</title>
<path fill="none" stroke="black" d="M252.85,-515.34C325.37,-507.01 461.55,-490.02 576.33,-468 828.57,-419.62 995.94,-480.95 1112.33,-252 1148.78,-180.29 1185.13,-131.81 1131.33,-72 1106.65,-44.57 872.42,-28.53 755.73,-22.18"/>
<polygon fill="black" stroke="black" points="756.16,-18.7 745.99,-21.66 755.78,-25.69 756.16,-18.7"/>
</g>
<!-- r2_node_13&#45;&gt;r2_node_20 -->
<g id="edge16" class="edge">
<title>r2_node_13&#45;&gt;r2_node_20</title>
<path fill="none" stroke="black" d="M226.32,-505.71C278.3,-473.88 393.86,-402.86 401.33,-396 430.79,-368.94 442.68,-361.95 455.33,-324 460.39,-308.82 463.62,-301.68 455.33,-288 437.4,-258.42 405.52,-280.77 386.33,-252 359.72,-212.12 362.4,-153.76 367.12,-119.35"/>
<polygon fill="black" stroke="black" points="370.53,-120.16 368.59,-109.74 363.61,-119.09 370.53,-120.16"/>
</g>
<!-- r2_node_13&#45;&gt;r2_node_17 -->
<g id="edge17" class="edge">
<title>r2_node_13&#45;&gt;r2_node_17</title>
<path fill="none" stroke="black" d="M238.18,-508.33C264.53,-498.68 300.47,-484.31 330.33,-468 445.41,-405.14 499.11,-379.12 531.33,-252 535.26,-236.49 535.96,-231.31 531.33,-216 525.76,-197.6 515.7,-197.31 507.33,-180 485.35,-134.58 509.79,-105.8 472.33,-72 445.61,-47.9 351.93,-32.97 287.67,-25.32"/>
<polygon fill="black" stroke="black" points="288.28,-21.87 277.94,-24.2 287.47,-28.82 288.28,-21.87"/>
</g>
<!-- r2_node_13&#45;&gt;r2_node_18 -->
<g id="edge18" class="edge">
<title>r2_node_13&#45;&gt;r2_node_18</title>
<path fill="none" stroke="black" d="M253.16,-515.67C315.69,-508.45 423.6,-493.44 513.33,-468 587.76,-446.89 766.71,-368.03 830.33,-324 900.02,-275.77 931.96,-261.47 955.33,-180 961.78,-157.52 952.94,-75.71 949.33,-72 898.98,-20.22 698.04,-44.55 626.33,-36 602.62,-33.18 576.58,-29.91 553.81,-27"/>
<polygon fill="black" stroke="black" points="554.44,-23.55 544.08,-25.75 553.55,-30.49 554.44,-23.55"/>
</g>
<!-- r2_node_15&#45;&gt;r2_node_20 -->
<g id="edge52" class="edge">
<title>r2_node_15&#45;&gt;r2_node_20</title>
<path fill="none" stroke="black" d="M274.82,-287.85C293.16,-250.83 336.57,-163.18 358.76,-118.39"/>
<polygon fill="black" stroke="black" points="361.82,-120.1 363.12,-109.59 355.55,-117 361.82,-120.1"/>
</g>
<!-- r2_node_15&#45;&gt;r2_node_7 -->
<g id="edge51" class="edge">
<title>r2_node_15&#45;&gt;r2_node_7</title>
<path fill="none" stroke="black" d="M254.98,-287.96C227.75,-237.29 162.7,-89.98 147.33,-72 136.81,-59.71 122.79,-49.01 110.06,-40.5"/>
<polygon fill="black" stroke="black" points="112.23,-37.73 101.93,-35.26 108.43,-43.62 112.23,-37.73"/>
</g>
<!-- r2_node_15&#45;&gt;r2_node_5 -->
<g id="edge49" class="edge">
<title>r2_node_15&#45;&gt;r2_node_5</title>
<path fill="none" stroke="black" d="M249.72,-323.54C237.73,-333.15 221.3,-345.36 206.52,-355.69"/>
<polygon fill="black" stroke="black" points="204.62,-352.75 198.36,-361.3 208.58,-358.52 204.62,-352.75"/>
</g>
<!-- r2_node_15&#45;&gt;r2_node_17 -->
<g id="edge50" class="edge">
<title>r2_node_15&#45;&gt;r2_node_17</title>
<path fill="none" stroke="black" d="M262.56,-287.68C257.42,-263.62 248.19,-218.67 242.33,-180 235.33,-133.89 229.85,-79.97 226.85,-47.7"/>
<polygon fill="black" stroke="black" points="230.36,-47.6 225.96,-37.96 223.39,-48.23 230.36,-47.6"/>
</g>
<!-- r2_node_10&#45;&gt;r2_node_2 -->
<g id="edge27" class="edge">
<title>r2_node_10&#45;&gt;r2_node_2</title>
<path fill="none" stroke="black" d="M305.73,-393.05C276.33,-404.76 232.33,-421.44 198.93,-433.53"/>
<polygon fill="black" stroke="black" points="198.13,-430.09 189.91,-436.77 200.5,-436.68 198.13,-430.09"/>
</g>
<!-- r2_node_10&#45;&gt;r2_node_17 -->
<g id="edge28" class="edge">
<title>r2_node_10&#45;&gt;r2_node_17</title>
<path fill="none" stroke="black" d="M373.92,-364.43C434.57,-341.3 546.27,-287.72 514.33,-216 504.6,-194.15 486.38,-200.66 474.33,-180 449.54,-137.53 484.89,-106.97 450.33,-72 427.79,-49.19 345.93,-34.26 287.22,-26.23"/>
<polygon fill="black" stroke="black" points="287.69,-22.76 277.31,-24.91 286.77,-29.7 287.69,-22.76"/>
</g>
<!-- r2_node_10&#45;&gt;r2_node_18 -->
<g id="edge29" class="edge">
<title>r2_node_10&#45;&gt;r2_node_18</title>
<path fill="none" stroke="black" d="M392.38,-376.66C470.71,-374.64 617.87,-365.07 735.33,-324 794.04,-303.47 815.66,-299.91 855.33,-252 898.82,-199.47 896.36,-175.14 908.33,-108 911.13,-92.25 918.9,-84.01 908.33,-72 908.15,-71.79 669.84,-41.53 554.04,-26.83"/>
<polygon fill="black" stroke="black" points="554.76,-23.39 544.4,-25.61 553.88,-30.34 554.76,-23.39"/>
</g>
<!-- r2_node_6 -->
<g id="node18" class="node">
<title>r2_node_6</title>
<ellipse fill="none" stroke="black" cx="643.33" cy="-90" rx="50.33" ry="18"/>
<text text-anchor="middle" x="643.33" y="-84.95" font-family="Times,serif" font-size="14.00">r2_node_6</text>
</g>
<!-- r2_node_6&#45;&gt;r2_node_18 -->
<g id="edge31" class="edge">
<title>r2_node_6&#45;&gt;r2_node_18</title>
<path fill="none" stroke="black" d="M613.5,-75.17C590.63,-64.57 558.82,-49.82 533.53,-38.1"/>
<polygon fill="black" stroke="black" points="535.05,-34.95 524.51,-33.92 532.11,-41.3 535.05,-34.95"/>
</g>
<!-- r2_node_6&#45;&gt;r2_node_11 -->
<g id="edge30" class="edge">
<title>r2_node_6&#45;&gt;r2_node_11</title>
<path fill="none" stroke="black" d="M631.91,-107.8C623.68,-116.74 612.41,-127.87 601.76,-137.64"/>
<polygon fill="black" stroke="black" points="599.66,-134.82 594.55,-144.11 604.33,-140.03 599.66,-134.82"/>
</g>
<!-- r2_node_11&#45;&gt;r2_node_19 -->
<g id="edge40" class="edge">
<title>r2_node_11&#45;&gt;r2_node_19</title>
<path fill="none" stroke="black" d="M621.68,-154.49C650.48,-147.9 684.36,-134.65 702.33,-108 714.44,-90.04 709.87,-65.35 703.15,-46.54"/>
<polygon fill="black" stroke="black" points="706.46,-45.37 699.51,-37.37 699.95,-47.96 706.46,-45.37"/>
</g>
<!-- r2_node_11&#45;&gt;r2_node_20 -->
<g id="edge41" class="edge">
<title>r2_node_11&#45;&gt;r2_node_20</title>
<path fill="none" stroke="black" d="M534.83,-148.16C502.39,-136.75 454.78,-120 419.47,-107.58"/>
<polygon fill="black" stroke="black" points="420.96,-104.39 410.36,-104.38 418.63,-111 420.96,-104.39"/>
</g>
<!-- r2_node_11&#45;&gt;r2_node_16 -->
<g id="edge39" class="edge">
<title>r2_node_11&#45;&gt;r2_node_16</title>
<path fill="none" stroke="black" d="M613.68,-150.14C661.4,-137.9 739.05,-117.99 790.9,-104.7"/>
<polygon fill="black" stroke="black" points="791.59,-108.14 800.41,-102.26 789.85,-101.36 791.59,-108.14"/>
</g>
<!-- r2_node_11&#45;&gt;r2_node_14 -->
<g id="edge38" class="edge">
<title>r2_node_11&#45;&gt;r2_node_14</title>
<path fill="none" stroke="black" d="M549.8,-178.78C533.37,-188.97 510.43,-202.32 490.67,-213.22"/>
<polygon fill="black" stroke="black" points="489.11,-210.08 482.01,-217.94 492.46,-216.23 489.11,-210.08"/>
</g>
<!-- r2_node_11&#45;&gt;r2_node_6 -->
<g id="edge37" class="edge">
<title>r2_node_11&#45;&gt;r2_node_6</title>
<path fill="none" stroke="black" d="M582.88,-144.05C591.18,-135.05 602.53,-123.85 613.21,-114.07"/>
<polygon fill="black" stroke="black" points="615.32,-116.88 620.44,-107.6 610.65,-111.66 615.32,-116.88"/>
</g>
<!-- r2_node_8&#45;&gt;r2_node_1 -->
<g id="edge35" class="edge">
<title>r2_node_8&#45;&gt;r2_node_1</title>
<path fill="none" stroke="black" d="M765.59,-179.91C757.26,-189.96 745.51,-203.21 736.33,-216 721.84,-236.16 708.01,-260.76 696.96,-278.98"/>
<polygon fill="black" stroke="black" points="694.06,-277.01 691.76,-287.35 700.01,-280.71 694.06,-277.01"/>
</g>
<!-- r2_node_8&#45;&gt;r2_node_16 -->
<g id="edge36" class="edge">
<title>r2_node_8&#45;&gt;r2_node_16</title>
<path fill="none" stroke="black" d="M790.56,-144.76C799.18,-136.14 809.96,-125.36 819.6,-115.73"/>
<polygon fill="black" stroke="black" points="822.03,-118.25 826.62,-108.7 817.08,-113.3 822.03,-118.25"/>
</g>
</g>
</svg>
