<?xml version="1.0" encoding="UTF-8" standalone="no"?>
<!DOCTYPE svg PUBLIC "-//W3C//DTD SVG 1.1//EN"
 "http://www.w3.org/Graphics/SVG/1.1/DTD/svg11.dtd">
<!-- Generated by graphviz version 12.2.1 (20241206.2353)
 -->
<!-- Pages: 1 -->
<svg width="878pt" height="1340pt"
 viewBox="0.00 0.00 878.17 1340.00" xmlns="http://www.w3.org/2000/svg" xmlns:xlink="http://www.w3.org/1999/xlink">
<g id="graph0" class="graph" transform="scale(1 1) rotate(0) translate(4 1336)">
<polygon fill="white" stroke="none" points="-4,4 -4,-1336 874.17,-1336 874.17,4 -4,4"/>
<!-- r3_node_3 -->
<g id="node1" class="node">
<title>r3_node_3</title>
<ellipse fill="none" stroke="black" cx="117.93" cy="-1314" rx="50.33" ry="18"/>
<text text-anchor="middle" x="117.93" y="-1308.95" font-family="Times,serif" font-size="14.00">r3_node_3</text>
</g>
<!-- r3_node_23 -->
<g id="node2" class="node">
<title>r3_node_23</title>
<ellipse fill="none" stroke="black" cx="71.93" cy="-1242" rx="54.93" ry="18"/>
<text text-anchor="middle" x="71.93" y="-1236.95" font-family="Times,serif" font-size="14.00">r3_node_23</text>
</g>
<!-- r3_node_3&#45;&gt;r3_node_23 -->
<g id="edge1" class="edge">
<title>r3_node_3&#45;&gt;r3_node_23</title>
<path fill="none" stroke="black" d="M101.46,-1296.76C95.32,-1288.78 88.6,-1278.95 83.02,-1269.89"/>
<polygon fill="black" stroke="black" points="86.13,-1268.28 78.06,-1261.43 80.1,-1271.83 86.13,-1268.28"/>
</g>
<!-- r3_node_26 -->
<g id="node3" class="node">
<title>r3_node_26</title>
<ellipse fill="none" stroke="black" cx="275.93" cy="-666" rx="54.93" ry="18"/>
<text text-anchor="middle" x="275.93" y="-660.95" font-family="Times,serif" font-size="14.00">r3_node_26</text>
</g>
<!-- r3_node_3&#45;&gt;r3_node_26 -->
<g id="edge2" class="edge">
<title>r3_node_3&#45;&gt;r3_node_26</title>
<path fill="none" stroke="black" d="M128.29,-1295.91C158.41,-1255.41 243.56,-1149.1 281.93,-1044 309.58,-968.29 316.84,-943.55 303.93,-864 301.23,-847.35 294.64,-844.65 291.93,-828 289.37,-812.21 289.77,-807.85 291.93,-792 294.18,-775.55 299.69,-772.45 301.93,-756 304.1,-740.15 306.54,-735.32 301.93,-720 299.17,-710.79 294.23,-701.71 289.27,-693.73"/>
<polygon fill="black" stroke="black" points="292.35,-692.05 283.96,-685.57 286.47,-695.86 292.35,-692.05"/>
</g>
<!-- r3_node_27 -->
<g id="node4" class="node">
<title>r3_node_27</title>
<ellipse fill="none" stroke="black" cx="509.93" cy="-378" rx="54.93" ry="18"/>
<text text-anchor="middle" x="509.93" y="-372.95" font-family="Times,serif" font-size="14.00">r3_node_27</text>
</g>
<!-- r3_node_3&#45;&gt;r3_node_27 -->
<g id="edge3" class="edge">
<title>r3_node_3&#45;&gt;r3_node_27</title>
<path fill="none" stroke="black" d="M139.71,-1297.3C154.9,-1287.83 174.76,-1274.76 189.93,-1260 217.86,-1232.83 219.16,-1220.96 239.93,-1188 295.47,-1099.87 313.44,-1074.69 330.93,-972 337.67,-932.48 317.41,-822.91 342.93,-792 383.02,-743.45 440.12,-804.76 479.93,-756 490.9,-742.57 498.08,-493.79 505.33,-407.88"/>
<polygon fill="black" stroke="black" points="508.81,-408.23 506.26,-397.94 501.84,-407.58 508.81,-408.23"/>
</g>
<!-- r3_node_23&#45;&gt;r3_node_3 -->
<g id="edge34" class="edge">
<title>r3_node_23&#45;&gt;r3_node_3</title>
<path fill="none" stroke="black" d="M88.7,-1259.62C94.69,-1267.44 101.2,-1276.97 106.66,-1285.8"/>
<polygon fill="black" stroke="black" points="103.63,-1287.55 111.71,-1294.39 109.66,-1284 103.63,-1287.55"/>
</g>
<!-- r3_node_13 -->
<g id="node9" class="node">
<title>r3_node_13</title>
<ellipse fill="none" stroke="black" cx="54.93" cy="-18" rx="54.93" ry="18"/>
<text text-anchor="middle" x="54.93" y="-12.95" font-family="Times,serif" font-size="14.00">r3_node_13</text>
</g>
<!-- r3_node_23&#45;&gt;r3_node_13 -->
<g id="edge33" class="edge">
<title>r3_node_23&#45;&gt;r3_node_13</title>
<path fill="none" stroke="black" d="M69.93,-1223.73C61.58,-1089.72 49.28,-216.86 53.1,-47.46"/>
<polygon fill="black" stroke="black" points="56.59,-47.69 53.37,-37.59 49.6,-47.49 56.59,-47.69"/>
</g>
<!-- r3_node_2 -->
<g id="node14" class="node">
<title>r3_node_2</title>
<ellipse fill="none" stroke="black" cx="135.93" cy="-1170" rx="50.33" ry="18"/>
<text text-anchor="middle" x="135.93" y="-1164.95" font-family="Times,serif" font-size="14.00">r3_node_2</text>
</g>
<!-- r3_node_23&#45;&gt;r3_node_2 -->
<g id="edge35" class="edge">
<title>r3_node_23&#45;&gt;r3_node_2</title>
<path fill="none" stroke="black" d="M81.55,-1224.05C88.63,-1215.29 98.36,-1204.45 107.69,-1194.86"/>
<polygon fill="black" stroke="black" points="110.04,-1197.45 114.64,-1187.9 105.09,-1192.5 110.04,-1197.45"/>
</g>
<!-- r3_node_26&#45;&gt;r3_node_3 -->
<g id="edge20" class="edge">
<title>r3_node_26&#45;&gt;r3_node_3</title>
<path fill="none" stroke="black" d="M297.85,-682.9C306.85,-692.82 315.81,-706.27 319.93,-720 324.54,-735.32 322.1,-740.15 319.93,-756 317.69,-772.45 312.18,-775.55 309.93,-792 307.77,-807.85 307.37,-812.21 309.93,-828 312.64,-844.65 319.23,-847.35 321.93,-864 334.84,-943.55 327.58,-968.29 299.93,-1044 263.6,-1143.51 185.34,-1244.1 144.1,-1288.89"/>
<polygon fill="black" stroke="black" points="141.72,-1286.31 137.41,-1295.99 146.81,-1291.12 141.72,-1286.31"/>
</g>
<!-- r3_node_6 -->
<g id="node5" class="node">
<title>r3_node_6</title>
<ellipse fill="none" stroke="black" cx="429.93" cy="-738" rx="50.33" ry="18"/>
<text text-anchor="middle" x="429.93" y="-732.95" font-family="Times,serif" font-size="14.00">r3_node_6</text>
</g>
<!-- r3_node_26&#45;&gt;r3_node_6 -->
<g id="edge18" class="edge">
<title>r3_node_26&#45;&gt;r3_node_6</title>
<path fill="none" stroke="black" d="M310.75,-680.35C335.32,-690.85 368.06,-705.63 393.07,-717.46"/>
<polygon fill="black" stroke="black" points="391.37,-720.52 401.9,-721.67 394.38,-714.21 391.37,-720.52"/>
</g>
<!-- r3_node_25 -->
<g id="node13" class="node">
<title>r3_node_25</title>
<ellipse fill="none" stroke="black" cx="220.93" cy="-594" rx="54.93" ry="18"/>
<text text-anchor="middle" x="220.93" y="-588.95" font-family="Times,serif" font-size="14.00">r3_node_25</text>
</g>
<!-- r3_node_26&#45;&gt;r3_node_25 -->
<g id="edge19" class="edge">
<title>r3_node_26&#45;&gt;r3_node_25</title>
<path fill="none" stroke="black" d="M257.38,-648.76C250.06,-640.61 241.88,-630.53 235.04,-621.31"/>
<polygon fill="black" stroke="black" points="238.03,-619.46 229.37,-613.36 232.33,-623.53 238.03,-619.46"/>
</g>
<!-- r3_node_27&#45;&gt;r3_node_3 -->
<g id="edge23" class="edge">
<title>r3_node_27&#45;&gt;r3_node_3</title>
<path fill="none" stroke="black" d="M512.66,-396.44C516.78,-468.75 509.44,-741.91 497.93,-756 458.12,-804.76 401.02,-743.45 360.93,-792 335.41,-822.91 355.67,-932.48 348.93,-972 331.44,-1074.69 313.47,-1099.87 257.93,-1188 237.16,-1220.96 235.86,-1232.83 207.93,-1260 194.17,-1273.39 176.55,-1285.39 160.46,-1294.57"/>
<polygon fill="black" stroke="black" points="159.12,-1291.31 152.02,-1299.18 162.47,-1297.46 159.12,-1291.31"/>
</g>
<!-- r3_node_1 -->
<g id="node7" class="node">
<title>r3_node_1</title>
<ellipse fill="none" stroke="black" cx="240.93" cy="-18" rx="50.33" ry="18"/>
<text text-anchor="middle" x="240.93" y="-12.95" font-family="Times,serif" font-size="14.00">r3_node_1</text>
</g>
<!-- r3_node_27&#45;&gt;r3_node_1 -->
<g id="edge24" class="edge">
<title>r3_node_27&#45;&gt;r3_node_1</title>
<path fill="none" stroke="black" d="M501.17,-359.88C494.77,-339.67 485.55,-306.49 463.93,-288 412.5,-243.99 357.76,-305.23 315.93,-252 306.05,-239.42 309.16,-230.5 315.93,-216 326.48,-193.42 348.39,-202.58 358.93,-180 365.7,-165.5 365.12,-158.76 358.93,-144 340.57,-100.16 298.51,-63.92 269.75,-41.95"/>
<polygon fill="black" stroke="black" points="271.87,-39.16 261.77,-35.96 267.67,-44.76 271.87,-39.16"/>
</g>
<!-- r3_node_17 -->
<g id="node20" class="node">
<title>r3_node_17</title>
<ellipse fill="none" stroke="black" cx="289.93" cy="-450" rx="54.93" ry="18"/>
<text text-anchor="middle" x="289.93" y="-444.95" font-family="Times,serif" font-size="14.00">r3_node_17</text>
</g>
<!-- r3_node_27&#45;&gt;r3_node_17 -->
<g id="edge21" class="edge">
<title>r3_node_27&#45;&gt;r3_node_17</title>
<path fill="none" stroke="black" d="M474.27,-392.07C438.29,-404.06 382.56,-421.82 341.74,-434.3"/>
<polygon fill="black" stroke="black" points="340.91,-430.9 332.36,-437.16 342.94,-437.6 340.91,-430.9"/>
</g>
<!-- r3_node_14 -->
<g id="node21" class="node">
<title>r3_node_14</title>
<ellipse fill="none" stroke="black" cx="665.93" cy="-306" rx="54.93" ry="18"/>
<text text-anchor="middle" x="665.93" y="-300.95" font-family="Times,serif" font-size="14.00">r3_node_14</text>
</g>
<!-- r3_node_27&#45;&gt;r3_node_14 -->
<g id="edge22" class="edge">
<title>r3_node_27&#45;&gt;r3_node_14</title>
<path fill="none" stroke="black" d="M537.38,-362.15C560.41,-351.21 593.59,-336.27 620.53,-324.7"/>
<polygon fill="black" stroke="black" points="621.67,-328.02 629.5,-320.88 618.93,-321.58 621.67,-328.02"/>
</g>
<!-- r3_node_6&#45;&gt;r3_node_26 -->
<g id="edge5" class="edge">
<title>r3_node_6&#45;&gt;r3_node_26</title>
<path fill="none" stroke="black" d="M396.32,-724.16C371.85,-713.73 338.83,-698.84 313.5,-686.87"/>
<polygon fill="black" stroke="black" points="315.06,-683.74 304.53,-682.6 312.05,-690.06 315.06,-683.74"/>
</g>
<!-- r3_node_20 -->
<g id="node6" class="node">
<title>r3_node_20</title>
<ellipse fill="none" stroke="black" cx="433.93" cy="-90" rx="54.93" ry="18"/>
<text text-anchor="middle" x="433.93" y="-84.95" font-family="Times,serif" font-size="14.00">r3_node_20</text>
</g>
<!-- r3_node_6&#45;&gt;r3_node_20 -->
<g id="edge4" class="edge">
<title>r3_node_6&#45;&gt;r3_node_20</title>
<path fill="none" stroke="black" d="M425.76,-719.97C424.71,-689.95 432.21,-626.05 451.93,-576 486.57,-488.12 538.8,-486.77 564.93,-396 580.5,-341.94 544.89,-320.44 498.93,-288 465.42,-264.34 436.59,-286.2 413.93,-252 387.13,-211.54 401.64,-152.1 416.62,-117.91"/>
<polygon fill="black" stroke="black" points="419.66,-119.65 420.79,-109.12 413.34,-116.65 419.66,-119.65"/>
</g>
<!-- r3_node_6&#45;&gt;r3_node_1 -->
<g id="edge6" class="edge">
<title>r3_node_6&#45;&gt;r3_node_1</title>
<path fill="none" stroke="black" d="M421.69,-719.93C411.48,-685.84 397.4,-606.86 388.93,-540 374.8,-428.43 425.74,-383.25 365.93,-288 349.4,-261.66 323.44,-277.71 305.93,-252 278.55,-211.78 302,-190.59 287.93,-144 277.45,-109.25 259.56,-71.51 248.73,-46.69"/>
<polygon fill="black" stroke="black" points="252.02,-45.49 244.89,-37.65 245.58,-48.22 252.02,-45.49"/>
</g>
<!-- r3_node_18 -->
<g id="node8" class="node">
<title>r3_node_18</title>
<ellipse fill="none" stroke="black" cx="415.93" cy="-810" rx="54.93" ry="18"/>
<text text-anchor="middle" x="415.93" y="-804.95" font-family="Times,serif" font-size="14.00">r3_node_18</text>
</g>
<!-- r3_node_6&#45;&gt;r3_node_18 -->
<g id="edge7" class="edge">
<title>r3_node_6&#45;&gt;r3_node_18</title>
<path fill="none" stroke="black" d="M432.39,-756.28C431.67,-763.77 430.11,-772.75 428.13,-781.15"/>
<polygon fill="black" stroke="black" points="424.8,-780.03 425.59,-790.59 431.57,-781.84 424.8,-780.03"/>
</g>
<!-- r3_node_20&#45;&gt;r3_node_6 -->
<g id="edge75" class="edge">
<title>r3_node_20&#45;&gt;r3_node_6</title>
<path fill="none" stroke="black" d="M431.71,-108.24C423.05,-139.72 402.38,-207.39 431.93,-252 454.59,-286.2 483.42,-264.34 516.93,-288 562.89,-320.44 598.5,-341.94 582.93,-396 556.8,-486.77 504.57,-488.12 469.93,-576 452.37,-620.58 444.5,-676.14 438.61,-708.97"/>
<polygon fill="black" stroke="black" points="435.23,-708.01 436.8,-718.49 442.11,-709.32 435.23,-708.01"/>
</g>
<!-- r3_node_20&#45;&gt;r3_node_18 -->
<g id="edge76" class="edge">
<title>r3_node_20&#45;&gt;r3_node_18</title>
<path fill="none" stroke="black" d="M465.96,-104.82C485.19,-115.07 509.51,-129.69 529.93,-144 592.87,-188.08 599.99,-210.94 664.93,-252 695.85,-271.54 719.54,-256.99 738.93,-288 747.42,-301.56 744.43,-308.97 738.93,-324 688.53,-461.71 576.34,-438.29 525.93,-576 498.19,-651.79 594.49,-688.71 549.93,-756 534.09,-779.92 505.05,-793.08 477.98,-800.3"/>
<polygon fill="black" stroke="black" points="477.32,-796.86 468.42,-802.6 478.96,-803.66 477.32,-796.86"/>
</g>
<!-- r3_node_20&#45;&gt;r3_node_14 -->
<g id="edge74" class="edge">
<title>r3_node_20&#45;&gt;r3_node_14</title>
<path fill="none" stroke="black" d="M466.04,-104.82C480.76,-114 496.37,-127.41 503.93,-144 510.57,-158.56 511.87,-166.11 503.93,-180 488.32,-207.34 458.54,-188.66 442.93,-216 435,-229.89 432.94,-239.51 442.93,-252 488.47,-308.92 531.91,-271.63 602.93,-288 606.74,-288.88 610.66,-289.79 614.6,-290.71"/>
<polygon fill="black" stroke="black" points="613.64,-294.08 624.18,-292.97 615.25,-287.27 613.64,-294.08"/>
</g>
<!-- r3_node_1&#45;&gt;r3_node_27 -->
<g id="edge39" class="edge">
<title>r3_node_1&#45;&gt;r3_node_27</title>
<path fill="none" stroke="black" d="M270.02,-33.11C303.46,-53.3 355.84,-93.64 376.93,-144 383.12,-158.76 383.7,-165.5 376.93,-180 366.39,-202.58 344.48,-193.42 333.93,-216 327.16,-230.5 324.05,-239.42 333.93,-252 375.76,-305.23 430.5,-243.99 481.93,-288 499.83,-303.31 509.24,-328.7 512.58,-348.45"/>
<polygon fill="black" stroke="black" points="509.1,-348.84 513.72,-358.37 516.05,-348.04 509.1,-348.84"/>
</g>
<!-- r3_node_1&#45;&gt;r3_node_6 -->
<g id="edge40" class="edge">
<title>r3_node_1&#45;&gt;r3_node_6</title>
<path fill="none" stroke="black" d="M255.93,-35.46C271.41,-58.87 293.7,-103.48 305.93,-144 320,-190.59 296.55,-211.78 323.93,-252 341.44,-277.71 367.4,-261.66 383.93,-288 443.74,-383.25 392.8,-428.43 406.93,-540 414.56,-600.17 426.72,-670.17 430.77,-708.42"/>
<polygon fill="black" stroke="black" points="427.26,-708.51 431.65,-718.16 434.23,-707.89 427.26,-708.51"/>
</g>
<!-- r3_node_21 -->
<g id="node19" class="node">
<title>r3_node_21</title>
<ellipse fill="none" stroke="black" cx="599.93" cy="-90" rx="54.93" ry="18"/>
<text text-anchor="middle" x="599.93" y="-84.95" font-family="Times,serif" font-size="14.00">r3_node_21</text>
</g>
<!-- r3_node_1&#45;&gt;r3_node_21 -->
<g id="edge38" class="edge">
<title>r3_node_1&#45;&gt;r3_node_21</title>
<path fill="none" stroke="black" d="M285.46,-26.82C350.84,-39.02 472.49,-62.69 543.86,-77.05"/>
<polygon fill="black" stroke="black" points="542.88,-80.42 553.38,-78.97 544.27,-73.56 542.88,-80.42"/>
</g>
<!-- r3_node_18&#45;&gt;r3_node_6 -->
<g id="edge44" class="edge">
<title>r3_node_18&#45;&gt;r3_node_6</title>
<path fill="none" stroke="black" d="M413.48,-791.7C414.2,-784.24 415.75,-775.32 417.71,-766.97"/>
<polygon fill="black" stroke="black" points="421.02,-768.13 420.23,-757.57 414.26,-766.32 421.02,-768.13"/>
</g>
<!-- r3_node_18&#45;&gt;r3_node_20 -->
<g id="edge45" class="edge">
<title>r3_node_18&#45;&gt;r3_node_20</title>
<path fill="none" stroke="black" d="M462.68,-800.08C487.64,-792.81 516.25,-779.68 531.93,-756 576.49,-688.71 480.19,-651.79 507.93,-576 558.34,-438.29 670.53,-461.71 720.93,-324 726.43,-308.97 729.42,-301.56 720.93,-288 701.54,-256.99 677.85,-271.54 646.93,-252 581.99,-210.94 574.87,-188.08 511.93,-144 496.51,-133.2 478.88,-122.22 464.18,-113.08"/>
<polygon fill="black" stroke="black" points="466.16,-110.18 455.82,-107.86 462.45,-116.12 466.16,-110.18"/>
</g>
<!-- r3_node_11 -->
<g id="node22" class="node">
<title>r3_node_11</title>
<ellipse fill="none" stroke="black" cx="524.93" cy="-882" rx="54.93" ry="18"/>
<text text-anchor="middle" x="524.93" y="-876.95" font-family="Times,serif" font-size="14.00">r3_node_11</text>
</g>
<!-- r3_node_18&#45;&gt;r3_node_11 -->
<g id="edge43" class="edge">
<title>r3_node_18&#45;&gt;r3_node_11</title>
<path fill="none" stroke="black" d="M444.47,-825.72C460.4,-835.18 480.08,-847.66 496.05,-858.37"/>
<polygon fill="black" stroke="black" points="493.97,-861.18 504.2,-863.91 497.9,-855.39 493.97,-861.18"/>
</g>
<!-- r3_node_13&#45;&gt;r3_node_23 -->
<g id="edge9" class="edge">
<title>r3_node_13&#45;&gt;r3_node_23</title>
<path fill="none" stroke="black" d="M56.93,-36.08C65.28,-169.37 77.58,-1042.22 73.77,-1212.3"/>
<polygon fill="black" stroke="black" points="70.28,-1212.12 73.5,-1222.21 77.28,-1212.31 70.28,-1212.12"/>
</g>
<!-- r3_node_16 -->
<g id="node10" class="node">
<title>r3_node_16</title>
<ellipse fill="none" stroke="black" cx="253.93" cy="-522" rx="54.93" ry="18"/>
<text text-anchor="middle" x="253.93" y="-516.95" font-family="Times,serif" font-size="14.00">r3_node_16</text>
</g>
<!-- r3_node_13&#45;&gt;r3_node_16 -->
<g id="edge8" class="edge">
<title>r3_node_13&#45;&gt;r3_node_16</title>
<path fill="none" stroke="black" d="M65.33,-36.16C85.4,-78.52 130.99,-189.17 203.93,-252 235.64,-279.31 267.68,-253.21 290.93,-288 299.83,-301.3 298.16,-309.72 290.93,-324 278.73,-348.11 255.29,-336.51 241.93,-360 241.03,-361.59 229.07,-444.34 234.93,-468 237.1,-476.75 241.01,-485.65 244.88,-493.59"/>
<polygon fill="black" stroke="black" points="241.68,-495.01 249.29,-502.37 247.93,-491.87 241.68,-495.01"/>
</g>
<!-- r3_node_16&#45;&gt;r3_node_13 -->
<g id="edge61" class="edge">
<title>r3_node_16&#45;&gt;r3_node_13</title>
<path fill="none" stroke="black" d="M234.81,-504.66C227.36,-494.59 220.19,-481.13 216.93,-468 211.07,-444.34 223.03,-361.59 223.93,-360 237.29,-336.51 260.73,-348.11 272.93,-324 280.16,-309.72 281.83,-301.3 272.93,-288 249.68,-253.21 217.64,-279.31 185.93,-252 118.71,-194.1 74.72,-95.58 59.66,-47.33"/>
<polygon fill="black" stroke="black" points="63.08,-46.56 56.94,-37.93 56.35,-48.5 63.08,-46.56"/>
</g>
<!-- r3_node_16&#45;&gt;r3_node_25 -->
<g id="edge63" class="edge">
<title>r3_node_16&#45;&gt;r3_node_25</title>
<path fill="none" stroke="black" d="M251.64,-540.45C248.75,-548.27 244.53,-557.67 240.08,-566.34"/>
<polygon fill="black" stroke="black" points="237.03,-564.63 235.32,-575.08 243.17,-567.97 237.03,-564.63"/>
</g>
<!-- r3_node_16&#45;&gt;r3_node_17 -->
<g id="edge62" class="edge">
<title>r3_node_16&#45;&gt;r3_node_17</title>
<path fill="none" stroke="black" d="M256.92,-503.7C260.17,-495.78 264.87,-486.23 269.77,-477.44"/>
<polygon fill="black" stroke="black" points="272.72,-479.32 274.77,-468.93 266.69,-475.77 272.72,-479.32"/>
</g>
<!-- r3_node_15 -->
<g id="node11" class="node">
<title>r3_node_15</title>
<ellipse fill="none" stroke="black" cx="232.93" cy="-162" rx="54.93" ry="18"/>
<text text-anchor="middle" x="232.93" y="-156.95" font-family="Times,serif" font-size="14.00">r3_node_15</text>
</g>
<!-- r3_node_12 -->
<g id="node12" class="node">
<title>r3_node_12</title>
<ellipse fill="none" stroke="black" cx="296.93" cy="-378" rx="54.93" ry="18"/>
<text text-anchor="middle" x="296.93" y="-372.95" font-family="Times,serif" font-size="14.00">r3_node_12</text>
</g>
<!-- r3_node_15&#45;&gt;r3_node_12 -->
<g id="edge10" class="edge">
<title>r3_node_15&#45;&gt;r3_node_12</title>
<path fill="none" stroke="black" d="M225.9,-180.08C214.9,-199.34 198.36,-230.73 214.93,-252 255.22,-303.69 317.64,-236.31 357.93,-288 374.37,-309.09 353.91,-335.88 332.23,-354.53"/>
<polygon fill="black" stroke="black" points="330.06,-351.79 324.47,-360.79 334.45,-357.23 330.06,-351.79"/>
</g>
<!-- r3_node_12&#45;&gt;r3_node_15 -->
<g id="edge71" class="edge">
<title>r3_node_12&#45;&gt;r3_node_15</title>
<path fill="none" stroke="black" d="M311.92,-360.42C330.91,-341.9 358.2,-311.43 339.93,-288 299.64,-236.31 237.22,-303.69 196.93,-252 182.5,-233.48 193.18,-207.28 206.75,-188.1"/>
<polygon fill="black" stroke="black" points="209.47,-190.3 212.83,-180.25 203.94,-186.01 209.47,-190.3"/>
</g>
<!-- r3_node_12&#45;&gt;r3_node_17 -->
<g id="edge73" class="edge">
<title>r3_node_12&#45;&gt;r3_node_17</title>
<path fill="none" stroke="black" d="M301.12,-396.1C301.15,-403.45 300.52,-412.24 299.43,-420.53"/>
<polygon fill="black" stroke="black" points="296,-419.77 297.83,-430.2 302.91,-420.91 296,-419.77"/>
</g>
<!-- r3_node_29 -->
<g id="node26" class="node">
<title>r3_node_29</title>
<ellipse fill="none" stroke="black" cx="217.93" cy="-306" rx="54.93" ry="18"/>
<text text-anchor="middle" x="217.93" y="-300.95" font-family="Times,serif" font-size="14.00">r3_node_29</text>
</g>
<!-- r3_node_12&#45;&gt;r3_node_29 -->
<g id="edge72" class="edge">
<title>r3_node_12&#45;&gt;r3_node_29</title>
<path fill="none" stroke="black" d="M273.68,-361.46C262.85,-352.78 250.14,-341.75 239.53,-331.89"/>
<polygon fill="black" stroke="black" points="241.95,-329.36 232.29,-325 237.13,-334.43 241.95,-329.36"/>
</g>
<!-- r3_node_25&#45;&gt;r3_node_26 -->
<g id="edge13" class="edge">
<title>r3_node_25&#45;&gt;r3_node_26</title>
<path fill="none" stroke="black" d="M239.41,-611.14C246.71,-619.26 254.86,-629.31 261.7,-638.52"/>
<polygon fill="black" stroke="black" points="258.71,-640.36 267.37,-646.47 264.41,-636.29 258.71,-640.36"/>
</g>
<!-- r3_node_25&#45;&gt;r3_node_16 -->
<g id="edge11" class="edge">
<title>r3_node_25&#45;&gt;r3_node_16</title>
<path fill="none" stroke="black" d="M223.18,-575.7C226.06,-567.87 230.28,-558.44 234.75,-549.73"/>
<polygon fill="black" stroke="black" points="237.82,-551.41 239.53,-540.95 231.68,-548.06 237.82,-551.41"/>
</g>
<!-- r3_node_25&#45;&gt;r3_node_2 -->
<g id="edge12" class="edge">
<title>r3_node_25&#45;&gt;r3_node_2</title>
<path fill="none" stroke="black" d="M215.48,-612.17C196.4,-653.7 138.01,-763.55 117.93,-864 97.88,-964.32 123.24,-1086.17 133.24,-1140.49"/>
<polygon fill="black" stroke="black" points="129.75,-1140.89 134.95,-1150.12 136.65,-1139.67 129.75,-1140.89"/>
</g>
<!-- r3_node_2&#45;&gt;r3_node_23 -->
<g id="edge31" class="edge">
<title>r3_node_2&#45;&gt;r3_node_23</title>
<path fill="none" stroke="black" d="M126.44,-1187.8C119.37,-1196.56 109.62,-1207.43 100.26,-1217.06"/>
<polygon fill="black" stroke="black" points="97.88,-1214.5 93.29,-1224.04 102.83,-1219.44 97.88,-1214.5"/>
</g>
<!-- r3_node_2&#45;&gt;r3_node_25 -->
<g id="edge32" class="edge">
<title>r3_node_2&#45;&gt;r3_node_25</title>
<path fill="none" stroke="black" d="M126.86,-1151.95C109.48,-1105.37 78.32,-972.16 99.93,-864 118.68,-770.18 170.86,-668.17 200.46,-621.27"/>
<polygon fill="black" stroke="black" points="203.24,-623.42 205.77,-613.13 197.38,-619.6 203.24,-623.42"/>
</g>
<!-- r3_node_7 -->
<g id="node16" class="node">
<title>r3_node_7</title>
<ellipse fill="none" stroke="black" cx="187.93" cy="-1098" rx="50.33" ry="18"/>
<text text-anchor="middle" x="187.93" y="-1092.95" font-family="Times,serif" font-size="14.00">r3_node_7</text>
</g>
<!-- r3_node_2&#45;&gt;r3_node_7 -->
<g id="edge30" class="edge">
<title>r3_node_2&#45;&gt;r3_node_7</title>
<path fill="none" stroke="black" d="M142.87,-1151.7C148.23,-1143.32 155.63,-1133.1 162.94,-1123.9"/>
<polygon fill="black" stroke="black" points="165.54,-1126.26 169.19,-1116.31 160.13,-1121.81 165.54,-1126.26"/>
</g>
<!-- r3_node_28 -->
<g id="node15" class="node">
<title>r3_node_28</title>
<ellipse fill="none" stroke="black" cx="766.93" cy="-162" rx="54.93" ry="18"/>
<text text-anchor="middle" x="766.93" y="-156.95" font-family="Times,serif" font-size="14.00">r3_node_28</text>
</g>
<!-- r3_node_28&#45;&gt;r3_node_7 -->
<g id="edge14" class="edge">
<title>r3_node_28&#45;&gt;r3_node_7</title>
<path fill="none" stroke="black" d="M775.83,-179.93C784.96,-209.27 794.78,-271.48 789.93,-324 762.26,-624 825.16,-782.52 590.93,-972 489.59,-1053.99 333.69,-1082.56 248.47,-1092.24"/>
<polygon fill="black" stroke="black" points="248.25,-1088.74 238.68,-1093.3 249,-1095.7 248.25,-1088.74"/>
</g>
<!-- r3_node_30 -->
<g id="node17" class="node">
<title>r3_node_30</title>
<ellipse fill="none" stroke="black" cx="497.93" cy="-234" rx="54.93" ry="18"/>
<text text-anchor="middle" x="497.93" y="-228.95" font-family="Times,serif" font-size="14.00">r3_node_30</text>
</g>
<!-- r3_node_28&#45;&gt;r3_node_30 -->
<g id="edge15" class="edge">
<title>r3_node_28&#45;&gt;r3_node_30</title>
<path fill="none" stroke="black" d="M727.13,-174.71C680.95,-187.25 604.76,-207.09 552.96,-220.08"/>
<polygon fill="black" stroke="black" points="552.3,-216.64 543.45,-222.45 554,-223.43 552.3,-216.64"/>
</g>
<!-- r3_node_10 -->
<g id="node18" class="node">
<title>r3_node_10</title>
<ellipse fill="none" stroke="black" cx="746.93" cy="-90" rx="54.93" ry="18"/>
<text text-anchor="middle" x="746.93" y="-84.95" font-family="Times,serif" font-size="14.00">r3_node_10</text>
</g>
<!-- r3_node_28&#45;&gt;r3_node_10 -->
<g id="edge16" class="edge">
<title>r3_node_28&#45;&gt;r3_node_10</title>
<path fill="none" stroke="black" d="M756.21,-144.05C753.33,-136.68 750.54,-127.84 748.43,-119.51"/>
<polygon fill="black" stroke="black" points="751.85,-118.77 746.28,-109.75 745.02,-120.27 751.85,-118.77"/>
</g>
<!-- r3_node_28&#45;&gt;r3_node_21 -->
<g id="edge17" class="edge">
<title>r3_node_28&#45;&gt;r3_node_21</title>
<path fill="none" stroke="black" d="M730.94,-148.16C704.03,-137.53 667.38,-122.28 639.63,-110.2"/>
<polygon fill="black" stroke="black" points="641.05,-106.99 630.48,-106.18 638.23,-113.4 641.05,-106.99"/>
</g>
<!-- r3_node_7&#45;&gt;r3_node_2 -->
<g id="edge67" class="edge">
<title>r3_node_7&#45;&gt;r3_node_2</title>
<path fill="none" stroke="black" d="M181.11,-1116.12C175.76,-1124.5 168.36,-1134.74 161.02,-1143.98"/>
<polygon fill="black" stroke="black" points="158.41,-1141.65 154.76,-1151.6 163.81,-1146.1 158.41,-1141.65"/>
</g>
<!-- r3_node_7&#45;&gt;r3_node_28 -->
<g id="edge70" class="edge">
<title>r3_node_7&#45;&gt;r3_node_28</title>
<path fill="none" stroke="black" d="M236.12,-1092.34C314.66,-1082.75 471.25,-1054.26 572.93,-972 807.16,-782.52 744.26,-624 771.93,-324 776.21,-277.67 769.07,-223.81 765.96,-191.62"/>
<polygon fill="black" stroke="black" points="769.47,-191.57 765.12,-181.91 762.49,-192.17 769.47,-191.57"/>
</g>
<!-- r3_node_22 -->
<g id="node25" class="node">
<title>r3_node_22</title>
<ellipse fill="none" stroke="black" cx="172.93" cy="-882" rx="54.93" ry="18"/>
<text text-anchor="middle" x="172.93" y="-876.95" font-family="Times,serif" font-size="14.00">r3_node_22</text>
</g>
<!-- r3_node_7&#45;&gt;r3_node_22 -->
<g id="edge68" class="edge">
<title>r3_node_7&#45;&gt;r3_node_22</title>
<path fill="none" stroke="black" d="M174.24,-1080.54C169.6,-1070.2 165.67,-1056.5 163.93,-1044 157.53,-997.85 159.47,-943.53 164.08,-911.25"/>
<polygon fill="black" stroke="black" points="167.51,-911.96 165.72,-901.52 160.61,-910.8 167.51,-911.96"/>
</g>
<!-- r3_node_4 -->
<g id="node27" class="node">
<title>r3_node_4</title>
<ellipse fill="none" stroke="black" cx="231.93" cy="-1026" rx="50.33" ry="18"/>
<text text-anchor="middle" x="231.93" y="-1020.95" font-family="Times,serif" font-size="14.00">r3_node_4</text>
</g>
<!-- r3_node_7&#45;&gt;r3_node_4 -->
<g id="edge69" class="edge">
<title>r3_node_7&#45;&gt;r3_node_4</title>
<path fill="none" stroke="black" d="M192.89,-1079.7C197.21,-1071.49 203.27,-1061.52 209.4,-1052.48"/>
<polygon fill="black" stroke="black" points="212.21,-1054.57 215.12,-1044.38 206.49,-1050.53 212.21,-1054.57"/>
</g>
<!-- r3_node_30&#45;&gt;r3_node_28 -->
<g id="edge78" class="edge">
<title>r3_node_30&#45;&gt;r3_node_28</title>
<path fill="none" stroke="black" d="M537.77,-221.28C583.96,-208.74 660.19,-188.89 711.98,-175.9"/>
<polygon fill="black" stroke="black" points="712.64,-179.34 721.5,-173.53 710.95,-172.55 712.64,-179.34"/>
</g>
<!-- r3_node_30&#45;&gt;r3_node_14 -->
<g id="edge79" class="edge">
<title>r3_node_30&#45;&gt;r3_node_14</title>
<path fill="none" stroke="black" d="M534.11,-247.84C561.34,-258.53 598.5,-273.91 626.48,-286.03"/>
<polygon fill="black" stroke="black" points="624.76,-289.1 635.33,-289.89 627.56,-282.68 624.76,-289.1"/>
</g>
<!-- r3_node_10&#45;&gt;r3_node_28 -->
<g id="edge80" class="edge">
<title>r3_node_10&#45;&gt;r3_node_28</title>
<path fill="none" stroke="black" d="M757.72,-108.1C760.59,-115.45 763.35,-124.24 765.44,-132.53"/>
<polygon fill="black" stroke="black" points="762.01,-133.21 767.58,-142.22 768.85,-131.7 762.01,-133.21"/>
</g>
<!-- r3_node_21&#45;&gt;r3_node_1 -->
<g id="edge42" class="edge">
<title>r3_node_21&#45;&gt;r3_node_1</title>
<path fill="none" stroke="black" d="M552.42,-80.63C485.54,-68.11 364.27,-44.5 294.36,-30.42"/>
<polygon fill="black" stroke="black" points="295.16,-27.01 284.66,-28.46 293.77,-33.87 295.16,-27.01"/>
</g>
<!-- r3_node_21&#45;&gt;r3_node_28 -->
<g id="edge41" class="edge">
<title>r3_node_21&#45;&gt;r3_node_28</title>
<path fill="none" stroke="black" d="M636.06,-103.89C662.89,-114.49 699.35,-129.67 727.02,-141.71"/>
<polygon fill="black" stroke="black" points="725.59,-144.91 736.15,-145.72 728.4,-138.49 725.59,-144.91"/>
</g>
<!-- r3_node_17&#45;&gt;r3_node_27 -->
<g id="edge46" class="edge">
<title>r3_node_17&#45;&gt;r3_node_27</title>
<path fill="none" stroke="black" d="M325.41,-436C361.35,-424.01 417.15,-406.23 458.03,-393.73"/>
<polygon fill="black" stroke="black" points="458.88,-397.13 467.43,-390.87 456.84,-390.43 458.88,-397.13"/>
</g>
<!-- r3_node_17&#45;&gt;r3_node_16 -->
<g id="edge48" class="edge">
<title>r3_node_17&#45;&gt;r3_node_16</title>
<path fill="none" stroke="black" d="M286.89,-468.45C283.63,-476.36 278.95,-485.88 274.06,-494.63"/>
<polygon fill="black" stroke="black" points="271.13,-492.71 269.07,-503.11 277.16,-496.26 271.13,-492.71"/>
</g>
<!-- r3_node_17&#45;&gt;r3_node_12 -->
<g id="edge47" class="edge">
<title>r3_node_17&#45;&gt;r3_node_12</title>
<path fill="none" stroke="black" d="M285.75,-431.7C285.73,-424.32 286.36,-415.52 287.47,-407.25"/>
<polygon fill="black" stroke="black" points="290.89,-408.04 289.08,-397.6 283.98,-406.89 290.89,-408.04"/>
</g>
<!-- r3_node_24 -->
<g id="node28" class="node">
<title>r3_node_24</title>
<ellipse fill="none" stroke="black" cx="601.93" cy="-18" rx="54.93" ry="18"/>
<text text-anchor="middle" x="601.93" y="-12.95" font-family="Times,serif" font-size="14.00">r3_node_24</text>
</g>
<!-- r3_node_17&#45;&gt;r3_node_24 -->
<g id="edge49" class="edge">
<title>r3_node_17&#45;&gt;r3_node_24</title>
<path fill="none" stroke="black" d="M340.93,-442.86C447.52,-428.78 687.56,-390.22 729.93,-324 738.56,-310.52 738.42,-301.56 729.93,-288 710.54,-256.99 675.33,-283.01 655.93,-252 647.45,-238.44 645.82,-228.4 655.93,-216 706.11,-154.45 780.76,-241.55 830.93,-180 850.04,-156.57 819.64,-80.51 810.93,-72 790.07,-51.6 717.1,-36.39 663.23,-27.61"/>
<polygon fill="black" stroke="black" points="663.97,-24.19 653.54,-26.08 662.87,-31.1 663.97,-24.19"/>
</g>
<!-- r3_node_14&#45;&gt;r3_node_27 -->
<g id="edge57" class="edge">
<title>r3_node_14&#45;&gt;r3_node_27</title>
<path fill="none" stroke="black" d="M638.31,-321.93C615.21,-332.91 581.96,-347.87 555.04,-359.43"/>
<polygon fill="black" stroke="black" points="553.91,-356.1 546.08,-363.24 556.65,-362.54 553.91,-356.1"/>
</g>
<!-- r3_node_14&#45;&gt;r3_node_20 -->
<g id="edge56" class="edge">
<title>r3_node_14&#45;&gt;r3_node_20</title>
<path fill="none" stroke="black" d="M619.59,-296.01C608.17,-293.41 596.07,-290.57 584.93,-288 513.91,-271.63 470.47,-308.92 424.93,-252 414.94,-239.51 417,-229.89 424.93,-216 440.54,-188.66 470.32,-207.34 485.93,-180 493.87,-166.11 492.57,-158.56 485.93,-144 480.69,-132.49 471.57,-122.51 462.35,-114.41"/>
<polygon fill="black" stroke="black" points="464.72,-111.83 454.77,-108.2 460.28,-117.25 464.72,-111.83"/>
</g>
<!-- r3_node_14&#45;&gt;r3_node_30 -->
<g id="edge54" class="edge">
<title>r3_node_14&#45;&gt;r3_node_30</title>
<path fill="none" stroke="black" d="M629.76,-292.16C602.57,-281.49 565.5,-266.14 537.54,-254.04"/>
<polygon fill="black" stroke="black" points="539.26,-250.97 528.69,-250.18 536.46,-257.38 539.26,-250.97"/>
</g>
<!-- r3_node_8 -->
<g id="node30" class="node">
<title>r3_node_8</title>
<ellipse fill="none" stroke="black" cx="714.93" cy="-234" rx="50.33" ry="18"/>
<text text-anchor="middle" x="714.93" y="-228.95" font-family="Times,serif" font-size="14.00">r3_node_8</text>
</g>
<!-- r3_node_14&#45;&gt;r3_node_8 -->
<g id="edge55" class="edge">
<title>r3_node_14&#45;&gt;r3_node_8</title>
<path fill="none" stroke="black" d="M672.13,-287.7C677.08,-279.4 683.95,-269.31 690.79,-260.19"/>
<polygon fill="black" stroke="black" points="693.53,-262.38 696.91,-252.34 688,-258.07 693.53,-262.38"/>
</g>
<!-- r3_node_11&#45;&gt;r3_node_18 -->
<g id="edge26" class="edge">
<title>r3_node_11&#45;&gt;r3_node_18</title>
<path fill="none" stroke="black" d="M496.47,-866.33C480.48,-856.83 460.69,-844.28 444.67,-833.54"/>
<polygon fill="black" stroke="black" points="446.74,-830.71 436.5,-827.97 442.8,-836.49 446.74,-830.71"/>
</g>
<!-- r3_node_9 -->
<g id="node23" class="node">
<title>r3_node_9</title>
<ellipse fill="none" stroke="black" cx="628.93" cy="-666" rx="50.33" ry="18"/>
<text text-anchor="middle" x="628.93" y="-660.95" font-family="Times,serif" font-size="14.00">r3_node_9</text>
</g>
<!-- r3_node_11&#45;&gt;r3_node_9 -->
<g id="edge25" class="edge">
<title>r3_node_11&#45;&gt;r3_node_9</title>
<path fill="none" stroke="black" d="M526.3,-863.52C532.68,-845.27 547.18,-816 561.93,-792 572.27,-775.19 578.73,-773.46 587.93,-756 598.29,-736.37 606.63,-712.65 613.52,-694.64"/>
<polygon fill="black" stroke="black" points="616.75,-695.99 617.18,-685.4 610.25,-693.41 616.75,-695.99"/>
</g>
<!-- r3_node_19 -->
<g id="node24" class="node">
<title>r3_node_19</title>
<ellipse fill="none" stroke="black" cx="517.93" cy="-954" rx="54.93" ry="18"/>
<text text-anchor="middle" x="517.93" y="-948.95" font-family="Times,serif" font-size="14.00">r3_node_19</text>
</g>
<!-- r3_node_11&#45;&gt;r3_node_19 -->
<g id="edge27" class="edge">
<title>r3_node_11&#45;&gt;r3_node_19</title>
<path fill="none" stroke="black" d="M529.12,-900.1C529.15,-907.45 528.52,-916.24 527.43,-924.53"/>
<polygon fill="black" stroke="black" points="524,-923.77 525.83,-934.2 530.91,-924.91 524,-923.77"/>
</g>
<!-- r3_node_9&#45;&gt;r3_node_11 -->
<g id="edge29" class="edge">
<title>r3_node_9&#45;&gt;r3_node_11</title>
<path fill="none" stroke="black" d="M630.95,-684.33C627.98,-702.72 618.42,-732.33 605.93,-756 596.73,-773.46 590.27,-775.19 579.93,-792 567.44,-812.31 555.14,-836.39 545.02,-854.38"/>
<polygon fill="black" stroke="black" points="542.08,-852.48 540.09,-862.88 548.14,-855.99 542.08,-852.48"/>
</g>
<!-- r3_node_19&#45;&gt;r3_node_11 -->
<g id="edge64" class="edge">
<title>r3_node_19&#45;&gt;r3_node_11</title>
<path fill="none" stroke="black" d="M513.75,-935.7C513.73,-928.32 514.36,-919.52 515.47,-911.25"/>
<polygon fill="black" stroke="black" points="518.89,-912.04 517.08,-901.6 511.98,-910.89 518.89,-912.04"/>
</g>
<!-- r3_node_19&#45;&gt;r3_node_4 -->
<g id="edge66" class="edge">
<title>r3_node_19&#45;&gt;r3_node_4</title>
<path fill="none" stroke="black" d="M477.14,-966.24C426.63,-979.13 340.71,-1000.16 285.1,-1013.26"/>
<polygon fill="black" stroke="black" points="284.47,-1009.81 275.53,-1015.5 286.06,-1016.63 284.47,-1009.81"/>
</g>
<!-- r3_node_19&#45;&gt;r3_node_8 -->
<g id="edge65" class="edge">
<title>r3_node_19&#45;&gt;r3_node_8</title>
<path fill="none" stroke="black" d="M537.91,-936.88C551.22,-927.55 568.07,-914.74 579.93,-900 612.98,-858.94 606.97,-839.92 628.93,-792 650.97,-743.92 667.56,-735.66 678.93,-684 682.38,-668.37 688.41,-660.89 678.93,-648 647.22,-604.84 595.65,-655.16 563.93,-612 554.46,-599.11 558.46,-591.04 563.93,-576 611.27,-445.93 718.2,-459.4 746.93,-324 750.26,-308.35 752.11,-303.14 746.93,-288 743.58,-278.19 737.59,-268.79 731.59,-260.69"/>
<polygon fill="black" stroke="black" points="734.54,-258.78 725.63,-253.05 729.02,-263.09 734.54,-258.78"/>
</g>
<!-- r3_node_22&#45;&gt;r3_node_7 -->
<g id="edge28" class="edge">
<title>r3_node_22&#45;&gt;r3_node_7</title>
<path fill="none" stroke="black" d="M176.84,-900.03C178.1,-929.52 174.71,-991.95 181.93,-1044 183.05,-1052.05 185.08,-1060.6 186.96,-1068.43"/>
<polygon fill="black" stroke="black" points="183.54,-1069.18 189.23,-1078.12 190.36,-1067.59 183.54,-1069.18"/>
</g>
<!-- r3_node_29&#45;&gt;r3_node_12 -->
<g id="edge37" class="edge">
<title>r3_node_29&#45;&gt;r3_node_12</title>
<path fill="none" stroke="black" d="M241.26,-322.59C252.08,-331.28 264.77,-342.29 275.37,-352.14"/>
<polygon fill="black" stroke="black" points="272.93,-354.65 282.59,-359.01 277.76,-349.58 272.93,-354.65"/>
</g>
<!-- r3_node_29&#45;&gt;r3_node_4 -->
<g id="edge36" class="edge">
<title>r3_node_29&#45;&gt;r3_node_4</title>
<path fill="none" stroke="black" d="M217.08,-324.39C208.77,-366.85 176.75,-479.39 165.93,-576 164.15,-591.9 163.98,-596.12 165.93,-612 173.99,-677.48 181.44,-693.3 201.93,-756 218.04,-805.27 235.97,-813.14 245.93,-864 249.01,-879.7 246.25,-884 245.93,-900 245.27,-933.22 243.61,-971.37 240.47,-996.7"/>
<polygon fill="black" stroke="black" points="237.02,-996.12 239.02,-1006.53 243.94,-997.14 237.02,-996.12"/>
</g>
<!-- r3_node_4&#45;&gt;r3_node_7 -->
<g id="edge52" class="edge">
<title>r3_node_4&#45;&gt;r3_node_7</title>
<path fill="none" stroke="black" d="M227.07,-1044.12C222.77,-1052.33 216.7,-1062.32 210.56,-1071.4"/>
<polygon fill="black" stroke="black" points="207.72,-1069.34 204.81,-1079.53 213.44,-1073.38 207.72,-1069.34"/>
</g>
<!-- r3_node_4&#45;&gt;r3_node_19 -->
<g id="edge51" class="edge">
<title>r3_node_4&#45;&gt;r3_node_19</title>
<path fill="none" stroke="black" d="M270.96,-1014.22C320.47,-1001.56 405.94,-980.62 462.27,-967.33"/>
<polygon fill="black" stroke="black" points="462.72,-970.82 471.65,-965.13 461.12,-964.01 462.72,-970.82"/>
</g>
<!-- r3_node_4&#45;&gt;r3_node_29 -->
<g id="edge53" class="edge">
<title>r3_node_4&#45;&gt;r3_node_29</title>
<path fill="none" stroke="black" d="M226.82,-1007.62C225.07,-983.48 227.17,-938.43 227.93,-900 228.25,-884 231.01,-879.7 227.93,-864 217.97,-813.14 200.04,-805.27 183.93,-756 163.44,-693.3 155.99,-677.48 147.93,-612 145.98,-596.12 146.15,-591.9 147.93,-576 157.97,-486.34 186.27,-382.96 204.11,-334.61"/>
<polygon fill="black" stroke="black" points="207.29,-336.08 207.63,-325.49 200.76,-333.56 207.29,-336.08"/>
</g>
<!-- r3_node_5 -->
<g id="node29" class="node">
<title>r3_node_5</title>
<ellipse fill="none" stroke="black" cx="251.93" cy="-738" rx="50.33" ry="18"/>
<text text-anchor="middle" x="251.93" y="-732.95" font-family="Times,serif" font-size="14.00">r3_node_5</text>
</g>
<!-- r3_node_4&#45;&gt;r3_node_5 -->
<g id="edge50" class="edge">
<title>r3_node_4&#45;&gt;r3_node_5</title>
<path fill="none" stroke="black" d="M236.47,-1007.6C247.26,-984.16 270.23,-940.69 278.93,-900 282.28,-884.35 285.7,-878.5 278.93,-864 268.39,-841.42 246.48,-850.58 235.93,-828 226.92,-808.69 229.6,-784.46 235.42,-766.16"/>
<polygon fill="black" stroke="black" points="238.6,-767.63 238.83,-757.04 232.05,-765.18 238.6,-767.63"/>
</g>
<!-- r3_node_5&#45;&gt;r3_node_4 -->
<g id="edge77" class="edge">
<title>r3_node_5&#45;&gt;r3_node_4</title>
<path fill="none" stroke="black" d="M252.34,-756.3C249.08,-774.92 243.18,-804.97 253.93,-828 264.48,-850.58 286.39,-841.42 296.93,-864 303.7,-878.5 300.28,-884.35 296.93,-900 289.16,-936.38 269.97,-974.98 254.17,-999.5"/>
<polygon fill="black" stroke="black" points="251.44,-997.29 248.72,-1007.53 257.23,-1001.22 251.44,-997.29"/>
</g>
<!-- r3_node_8&#45;&gt;r3_node_14 -->
<g id="edge58" class="edge">
<title>r3_node_8&#45;&gt;r3_node_14</title>
<path fill="none" stroke="black" d="M708.84,-252.12C703.91,-260.41 697.03,-270.53 690.17,-279.69"/>
<polygon fill="black" stroke="black" points="687.41,-277.53 684.03,-287.57 692.93,-281.83 687.41,-277.53"/>
</g>
<!-- r3_node_8&#45;&gt;r3_node_19 -->
<g id="edge59" class="edge">
<title>r3_node_8&#45;&gt;r3_node_19</title>
<path fill="none" stroke="black" d="M738.75,-250.03C749.22,-259.83 759.97,-273.47 764.93,-288 770.11,-303.14 768.26,-308.35 764.93,-324 736.2,-459.4 629.27,-445.93 581.93,-576 576.46,-591.04 572.46,-599.11 581.93,-612 613.65,-655.16 665.22,-604.84 696.93,-648 706.41,-660.89 700.38,-668.37 696.93,-684 685.56,-735.66 668.97,-743.92 646.93,-792 624.97,-839.92 630.98,-858.94 597.93,-900 587.61,-912.82 573.51,-924.19 559.94,-933.07"/>
<polygon fill="black" stroke="black" points="558.16,-930.06 551.5,-938.29 561.84,-936.01 558.16,-930.06"/>
</g>
<!-- r3_node_8&#45;&gt;r3_node_24 -->
<g id="edge60" class="edge">
<title>r3_node_8&#45;&gt;r3_node_24</title>
<path fill="none" stroke="black" d="M764.25,-229.73C798.38,-224.59 841.53,-211.74 863.93,-180 877.26,-161.12 865.3,-84.18 853.93,-72 828.89,-45.15 732.25,-30.94 666.19,-24.2"/>
<polygon fill="black" stroke="black" points="666.85,-20.75 656.56,-23.25 666.17,-27.71 666.85,-20.75"/>
</g>
</g>
</svg>
