<?xml version="1.0" encoding="UTF-8" standalone="no"?>
<!DOCTYPE svg PUBLIC "-//W3C//DTD SVG 1.1//EN"
 "http://www.w3.org/Graphics/SVG/1.1/DTD/svg11.dtd">
<!-- Generated by graphviz version 12.2.1 (20241206.2353)
 -->
<!-- Pages: 1 -->
<svg width="832pt" height="692pt"
 viewBox="0.00 0.00 832.29 692.00" xmlns="http://www.w3.org/2000/svg" xmlns:xlink="http://www.w3.org/1999/xlink">
<g id="graph0" class="graph" transform="scale(1 1) rotate(0) translate(4 688)">
<polygon fill="white" stroke="none" points="-4,4 -4,-688 828.29,-688 828.29,4 -4,4"/>
<!-- r3_node_4 -->
<g id="node1" class="node">
<title>r3_node_4</title>
<ellipse fill="none" stroke="black" cx="54.93" cy="-666" rx="50.33" ry="18"/>
<text text-anchor="middle" x="54.93" y="-660.95" font-family="Times,serif" font-size="14.00">r3_node_4</text>
</g>
<!-- r3_node_15 -->
<g id="node2" class="node">
<title>r3_node_15</title>
<ellipse fill="none" stroke="black" cx="54.93" cy="-594" rx="54.93" ry="18"/>
<text text-anchor="middle" x="54.93" y="-588.95" font-family="Times,serif" font-size="14.00">r3_node_15</text>
</g>
<!-- r3_node_4&#45;&gt;r3_node_15 -->
<g id="edge1" class="edge">
<title>r3_node_4&#45;&gt;r3_node_15</title>
<path fill="none" stroke="black" d="M49.02,-647.7C48.27,-640.41 48.02,-631.73 48.29,-623.54"/>
<polygon fill="black" stroke="black" points="51.78,-623.82 48.94,-613.61 44.79,-623.36 51.78,-623.82"/>
</g>
<!-- r3_node_15&#45;&gt;r3_node_4 -->
<g id="edge7" class="edge">
<title>r3_node_15&#45;&gt;r3_node_4</title>
<path fill="none" stroke="black" d="M60.83,-612.1C61.59,-619.37 61.84,-628.04 61.59,-636.24"/>
<polygon fill="black" stroke="black" points="58.1,-635.98 60.95,-646.19 65.08,-636.43 58.1,-635.98"/>
</g>
<!-- r3_node_5 -->
<g id="node5" class="node">
<title>r3_node_5</title>
<ellipse fill="none" stroke="black" cx="173.93" cy="-162" rx="50.33" ry="18"/>
<text text-anchor="middle" x="173.93" y="-156.95" font-family="Times,serif" font-size="14.00">r3_node_5</text>
</g>
<!-- r3_node_15&#45;&gt;r3_node_5 -->
<g id="edge3" class="edge">
<title>r3_node_15&#45;&gt;r3_node_5</title>
<path fill="none" stroke="black" d="M58.32,-575.8C70.73,-542.11 106.48,-464.73 125.93,-396 146.4,-323.7 157.54,-235.55 165.53,-191.27"/>
<polygon fill="black" stroke="black" points="168.91,-192.21 167.36,-181.73 162.04,-190.89 168.91,-192.21"/>
</g>
<!-- r3_node_8 -->
<g id="node6" class="node">
<title>r3_node_8</title>
<ellipse fill="none" stroke="black" cx="370.93" cy="-306" rx="50.33" ry="18"/>
<text text-anchor="middle" x="370.93" y="-300.95" font-family="Times,serif" font-size="14.00">r3_node_8</text>
</g>
<!-- r3_node_15&#45;&gt;r3_node_8 -->
<g id="edge4" class="edge">
<title>r3_node_15&#45;&gt;r3_node_8</title>
<path fill="none" stroke="black" d="M99.41,-583.21C136.54,-574.78 190.06,-560.66 233.93,-540 333.35,-493.18 385.54,-494.17 434.93,-396 442.13,-381.71 442.2,-374.25 434.93,-360 428.32,-347.03 416.88,-336.49 405.43,-328.32"/>
<polygon fill="black" stroke="black" points="407.44,-325.46 397.17,-322.86 403.58,-331.3 407.44,-325.46"/>
</g>
<!-- r3_node_13 -->
<g id="node7" class="node">
<title>r3_node_13</title>
<ellipse fill="none" stroke="black" cx="70.93" cy="-378" rx="54.93" ry="18"/>
<text text-anchor="middle" x="70.93" y="-372.95" font-family="Times,serif" font-size="14.00">r3_node_13</text>
</g>
<!-- r3_node_15&#45;&gt;r3_node_13 -->
<g id="edge5" class="edge">
<title>r3_node_15&#45;&gt;r3_node_13</title>
<path fill="none" stroke="black" d="M52.34,-575.85C51.58,-539.14 57.75,-452.66 64.03,-407.53"/>
<polygon fill="black" stroke="black" points="67.48,-408.14 65.53,-397.73 60.56,-407.09 67.48,-408.14"/>
</g>
<!-- r3_node_9 -->
<g id="node8" class="node">
<title>r3_node_9</title>
<ellipse fill="none" stroke="black" cx="390.93" cy="-522" rx="50.33" ry="18"/>
<text text-anchor="middle" x="390.93" y="-516.95" font-family="Times,serif" font-size="14.00">r3_node_9</text>
</g>
<!-- r3_node_15&#45;&gt;r3_node_9 -->
<g id="edge6" class="edge">
<title>r3_node_15&#45;&gt;r3_node_9</title>
<path fill="none" stroke="black" d="M99.26,-582.98C149.69,-572.57 234.15,-555.64 306.93,-540 316.22,-538 326.14,-535.8 335.82,-533.67"/>
<polygon fill="black" stroke="black" points="336.52,-537.1 345.53,-531.53 335.01,-530.26 336.52,-537.1"/>
</g>
<!-- r3_node_1 -->
<g id="node9" class="node">
<title>r3_node_1</title>
<ellipse fill="none" stroke="black" cx="183.93" cy="-522" rx="50.33" ry="18"/>
<text text-anchor="middle" x="183.93" y="-516.95" font-family="Times,serif" font-size="14.00">r3_node_1</text>
</g>
<!-- r3_node_15&#45;&gt;r3_node_1 -->
<g id="edge8" class="edge">
<title>r3_node_15&#45;&gt;r3_node_1</title>
<path fill="none" stroke="black" d="M78.14,-577.29C96.32,-566.76 121.87,-552.84 143.36,-541.73"/>
<polygon fill="black" stroke="black" points="144.87,-544.89 152.18,-537.22 141.69,-538.66 144.87,-544.89"/>
</g>
<!-- r3_node_11 -->
<g id="node3" class="node">
<title>r3_node_11</title>
<ellipse fill="none" stroke="black" cx="524.93" cy="-450" rx="54.93" ry="18"/>
<text text-anchor="middle" x="524.93" y="-444.95" font-family="Times,serif" font-size="14.00">r3_node_11</text>
</g>
<!-- r3_node_10 -->
<g id="node4" class="node">
<title>r3_node_10</title>
<ellipse fill="none" stroke="black" cx="185.93" cy="-666" rx="54.93" ry="18"/>
<text text-anchor="middle" x="185.93" y="-660.95" font-family="Times,serif" font-size="14.00">r3_node_10</text>
</g>
<!-- r3_node_11&#45;&gt;r3_node_10 -->
<g id="edge2" class="edge">
<title>r3_node_11&#45;&gt;r3_node_10</title>
<path fill="none" stroke="black" d="M521.43,-468.19C511.54,-488.45 488,-521.7 458.93,-540 404.93,-574.01 377.78,-549.04 319.93,-576 282.51,-593.44 244.59,-622.38 218.49,-642.5"/>
<polygon fill="black" stroke="black" points="216.42,-639.68 210.63,-648.56 220.69,-645.23 216.42,-639.68"/>
</g>
<!-- r3_node_10&#45;&gt;r3_node_11 -->
<g id="edge16" class="edge">
<title>r3_node_10&#45;&gt;r3_node_11</title>
<path fill="none" stroke="black" d="M198.51,-648.09C219.23,-628.1 260.88,-595.13 301.93,-576 359.78,-549.04 386.93,-574.01 440.93,-540 466.32,-524.01 487.49,-496.63 502.55,-476.45"/>
<polygon fill="black" stroke="black" points="505.16,-478.8 508.33,-468.69 499.55,-474.62 505.16,-478.8"/>
</g>
<!-- r3_node_19 -->
<g id="node11" class="node">
<title>r3_node_19</title>
<ellipse fill="none" stroke="black" cx="454.93" cy="-18" rx="54.93" ry="18"/>
<text text-anchor="middle" x="454.93" y="-12.95" font-family="Times,serif" font-size="14.00">r3_node_19</text>
</g>
<!-- r3_node_10&#45;&gt;r3_node_19 -->
<g id="edge17" class="edge">
<title>r3_node_10&#45;&gt;r3_node_19</title>
<path fill="none" stroke="black" d="M218.48,-651.21C260.35,-633.54 335.38,-602.05 399.93,-576 440.65,-559.57 453.52,-561.27 491.93,-540 538.9,-513.99 564.27,-515.69 588.93,-468 625.69,-396.92 564.25,-362.7 592.93,-288 600.5,-268.29 614.22,-270.75 623.93,-252 639.11,-222.71 637.9,-212.74 641.93,-180 647.87,-131.77 658.06,-107.55 624.93,-72 598.02,-43.12 555.67,-29.87 519.97,-23.83"/>
<polygon fill="black" stroke="black" points="520.55,-20.38 510.13,-22.34 519.5,-27.3 520.55,-20.38"/>
</g>
<!-- r3_node_5&#45;&gt;r3_node_15 -->
<g id="edge29" class="edge">
<title>r3_node_5&#45;&gt;r3_node_15</title>
<path fill="none" stroke="black" d="M177.07,-180.24C177.51,-219.26 166.27,-317.07 143.93,-396 126.11,-458.98 94.59,-529.24 73.91,-566.47"/>
<polygon fill="black" stroke="black" points="71.1,-564.33 69.15,-574.75 77.17,-567.83 71.1,-564.33"/>
</g>
<!-- r3_node_18 -->
<g id="node10" class="node">
<title>r3_node_18</title>
<ellipse fill="none" stroke="black" cx="212.93" cy="-18" rx="54.93" ry="18"/>
<text text-anchor="middle" x="212.93" y="-12.95" font-family="Times,serif" font-size="14.00">r3_node_18</text>
</g>
<!-- r3_node_5&#45;&gt;r3_node_18 -->
<g id="edge28" class="edge">
<title>r3_node_5&#45;&gt;r3_node_18</title>
<path fill="none" stroke="black" d="M178.56,-143.59C183.35,-125.63 191.07,-96.83 197.93,-72 200.16,-63.95 202.61,-55.22 204.88,-47.22"/>
<polygon fill="black" stroke="black" points="208.24,-48.2 207.6,-37.63 201.5,-46.29 208.24,-48.2"/>
</g>
<!-- r3_node_8&#45;&gt;r3_node_15 -->
<g id="edge24" class="edge">
<title>r3_node_8&#45;&gt;r3_node_15</title>
<path fill="none" stroke="black" d="M406.48,-319.1C424.14,-327.86 443.47,-341.44 452.93,-360 460.2,-374.25 460.13,-381.71 452.93,-396 403.54,-494.17 351.35,-493.18 251.93,-540 208.28,-560.56 155.08,-574.64 114.88,-583.09"/>
<polygon fill="black" stroke="black" points="114.22,-579.65 105.12,-585.07 115.62,-586.51 114.22,-579.65"/>
</g>
<!-- r3_node_8&#45;&gt;r3_node_18 -->
<g id="edge21" class="edge">
<title>r3_node_8&#45;&gt;r3_node_18</title>
<path fill="none" stroke="black" d="M371.61,-287.53C373.43,-236.35 377.52,-89.24 364.93,-72 344.74,-44.34 309.05,-31.01 277.32,-24.64"/>
<polygon fill="black" stroke="black" points="278.25,-21.25 267.79,-22.93 277.01,-28.14 278.25,-21.25"/>
</g>
<!-- r3_node_8&#45;&gt;r3_node_19 -->
<g id="edge22" class="edge">
<title>r3_node_8&#45;&gt;r3_node_19</title>
<path fill="none" stroke="black" d="M410.27,-294.45C461.08,-280.64 543.55,-257.56 547.93,-252 597.47,-189.18 590.03,-140.03 547.93,-72 537.89,-55.77 520.94,-44.04 504.24,-35.8"/>
<polygon fill="black" stroke="black" points="505.87,-32.69 495.32,-31.74 502.97,-39.07 505.87,-32.69"/>
</g>
<!-- r3_node_7 -->
<g id="node16" class="node">
<title>r3_node_7</title>
<ellipse fill="none" stroke="black" cx="384.93" cy="-378" rx="50.33" ry="18"/>
<text text-anchor="middle" x="384.93" y="-372.95" font-family="Times,serif" font-size="14.00">r3_node_7</text>
</g>
<!-- r3_node_8&#45;&gt;r3_node_7 -->
<g id="edge23" class="edge">
<title>r3_node_8&#45;&gt;r3_node_7</title>
<path fill="none" stroke="black" d="M380.25,-324.1C382.49,-331.45 384.5,-340.24 385.88,-348.53"/>
<polygon fill="black" stroke="black" points="382.38,-348.75 387.19,-358.2 389.32,-347.82 382.38,-348.75"/>
</g>
<!-- r3_node_16 -->
<g id="node17" class="node">
<title>r3_node_16</title>
<ellipse fill="none" stroke="black" cx="483.93" cy="-90" rx="54.93" ry="18"/>
<text text-anchor="middle" x="483.93" y="-84.95" font-family="Times,serif" font-size="14.00">r3_node_16</text>
</g>
<!-- r3_node_8&#45;&gt;r3_node_16 -->
<g id="edge25" class="edge">
<title>r3_node_8&#45;&gt;r3_node_16</title>
<path fill="none" stroke="black" d="M368.23,-287.72C369.88,-256.76 384.17,-190.69 414.93,-144 422.9,-131.91 434.32,-120.89 445.66,-112.06"/>
<polygon fill="black" stroke="black" points="447.45,-115.09 453.46,-106.37 443.32,-109.44 447.45,-115.09"/>
</g>
<!-- r3_node_17 -->
<g id="node18" class="node">
<title>r3_node_17</title>
<ellipse fill="none" stroke="black" cx="483.93" cy="-234" rx="54.93" ry="18"/>
<text text-anchor="middle" x="483.93" y="-228.95" font-family="Times,serif" font-size="14.00">r3_node_17</text>
</g>
<!-- r3_node_8&#45;&gt;r3_node_17 -->
<g id="edge26" class="edge">
<title>r3_node_8&#45;&gt;r3_node_17</title>
<path fill="none" stroke="black" d="M390.81,-289.12C405.81,-279.11 426.68,-266.1 444.91,-255.34"/>
<polygon fill="black" stroke="black" points="446.53,-258.45 453.4,-250.39 443,-252.4 446.53,-258.45"/>
</g>
<!-- r3_node_13&#45;&gt;r3_node_15 -->
<g id="edge27" class="edge">
<title>r3_node_13&#45;&gt;r3_node_15</title>
<path fill="none" stroke="black" d="M73.53,-396.23C74.28,-433.01 68.11,-519.5 61.82,-564.57"/>
<polygon fill="black" stroke="black" points="58.38,-563.94 60.32,-574.35 65.3,-565 58.38,-563.94"/>
</g>
<!-- r3_node_9&#45;&gt;r3_node_15 -->
<g id="edge42" class="edge">
<title>r3_node_9&#45;&gt;r3_node_15</title>
<path fill="none" stroke="black" d="M352.19,-533.95C343.26,-536 333.81,-538.09 324.93,-540 252.77,-555.5 169.11,-572.28 114.17,-582.72"/>
<polygon fill="black" stroke="black" points="113.56,-579.27 104.39,-584.56 114.86,-586.15 113.56,-579.27"/>
</g>
<!-- r3_node_9&#45;&gt;r3_node_19 -->
<g id="edge43" class="edge">
<title>r3_node_9&#45;&gt;r3_node_19</title>
<path fill="none" stroke="black" d="M403.43,-504.14C410.85,-493.89 420.27,-480.41 427.93,-468 447.05,-437.03 450.13,-428.28 466.93,-396 491.72,-348.4 482.31,-325.26 520.93,-288 548.71,-261.21 573.78,-280.37 599.93,-252 623,-226.99 620.07,-213.51 625.93,-180 634.48,-131.16 633.28,-106.78 597.93,-72 575.53,-49.95 543.14,-36.95 514.86,-29.35"/>
<polygon fill="black" stroke="black" points="515.86,-26 505.31,-26.97 514.16,-32.79 515.86,-26"/>
</g>
<!-- r3_node_1&#45;&gt;r3_node_15 -->
<g id="edge14" class="edge">
<title>r3_node_1&#45;&gt;r3_node_15</title>
<path fill="none" stroke="black" d="M161.33,-538.36C143.47,-548.73 118.24,-562.49 96.77,-573.61"/>
<polygon fill="black" stroke="black" points="95.24,-570.47 87.93,-578.14 98.43,-576.7 95.24,-570.47"/>
</g>
<!-- r3_node_1&#45;&gt;r3_node_18 -->
<g id="edge15" class="edge">
<title>r3_node_1&#45;&gt;r3_node_18</title>
<path fill="none" stroke="black" d="M192.83,-504C204.96,-480.31 226.8,-435.78 240.93,-396 285.21,-271.36 299.13,-239.2 315.93,-108 317.97,-92.13 324.27,-85.66 315.93,-72 304.89,-53.89 285.46,-41.71 266.43,-33.64"/>
<polygon fill="black" stroke="black" points="267.96,-30.48 257.37,-30.12 265.42,-37.01 267.96,-30.48"/>
</g>
<!-- r3_node_3 -->
<g id="node14" class="node">
<title>r3_node_3</title>
<ellipse fill="none" stroke="black" cx="287.93" cy="-450" rx="50.33" ry="18"/>
<text text-anchor="middle" x="287.93" y="-444.95" font-family="Times,serif" font-size="14.00">r3_node_3</text>
</g>
<!-- r3_node_1&#45;&gt;r3_node_3 -->
<g id="edge12" class="edge">
<title>r3_node_1&#45;&gt;r3_node_3</title>
<path fill="none" stroke="black" d="M202.25,-504.76C215.89,-494.84 234.75,-482.05 251.36,-471.44"/>
<polygon fill="black" stroke="black" points="252.95,-474.58 259.55,-466.29 249.22,-468.66 252.95,-474.58"/>
</g>
<!-- r3_node_6 -->
<g id="node15" class="node">
<title>r3_node_6</title>
<ellipse fill="none" stroke="black" cx="256.93" cy="-90" rx="50.33" ry="18"/>
<text text-anchor="middle" x="256.93" y="-84.95" font-family="Times,serif" font-size="14.00">r3_node_6</text>
</g>
<!-- r3_node_1&#45;&gt;r3_node_6 -->
<g id="edge13" class="edge">
<title>r3_node_1&#45;&gt;r3_node_6</title>
<path fill="none" stroke="black" d="M177.65,-503.92C176.14,-485.73 178.6,-456.29 185.93,-432 191.11,-414.88 198.59,-413.07 203.93,-396 234.77,-297.51 244.12,-174.26 250.7,-119.5"/>
<polygon fill="black" stroke="black" points="254.15,-120.15 251.96,-109.79 247.21,-119.25 254.15,-120.15"/>
</g>
<!-- r3_node_2 -->
<g id="node12" class="node">
<title>r3_node_2</title>
<ellipse fill="none" stroke="black" cx="458.93" cy="-594" rx="50.33" ry="18"/>
<text text-anchor="middle" x="458.93" y="-588.95" font-family="Times,serif" font-size="14.00">r3_node_2</text>
</g>
<!-- r3_node_2&#45;&gt;r3_node_18 -->
<g id="edge9" class="edge">
<title>r3_node_2&#45;&gt;r3_node_18</title>
<path fill="none" stroke="black" d="M493.14,-580.41C515.08,-571.3 543.38,-557.52 564.93,-540 596.61,-514.26 608.52,-506.55 621.93,-468 637.8,-422.39 624.35,-406.09 609.93,-360 604.65,-343.11 596.81,-341.27 592.93,-324 585.9,-292.63 596.85,-284 599.93,-252 607.92,-169.11 612.13,-125.04 547.93,-72 527.34,-54.98 367.58,-35.46 276.32,-25.53"/>
<polygon fill="black" stroke="black" points="276.83,-22.07 266.51,-24.47 276.08,-29.03 276.83,-22.07"/>
</g>
<!-- r3_node_2&#45;&gt;r3_node_19 -->
<g id="edge10" class="edge">
<title>r3_node_2&#45;&gt;r3_node_19</title>
<path fill="none" stroke="black" d="M508.94,-590.87C551.67,-586.59 612.48,-574.35 652.93,-540 814.94,-402.47 890.68,-232.1 750.93,-72 721.48,-38.26 598.57,-25.94 520.69,-21.48"/>
<polygon fill="black" stroke="black" points="521.22,-18.01 511.05,-20.96 520.85,-25 521.22,-18.01"/>
</g>
<!-- r3_node_14 -->
<g id="node13" class="node">
<title>r3_node_14</title>
<ellipse fill="none" stroke="black" cx="656.93" cy="-306" rx="54.93" ry="18"/>
<text text-anchor="middle" x="656.93" y="-300.95" font-family="Times,serif" font-size="14.00">r3_node_14</text>
</g>
<!-- r3_node_2&#45;&gt;r3_node_14 -->
<g id="edge11" class="edge">
<title>r3_node_2&#45;&gt;r3_node_14</title>
<path fill="none" stroke="black" d="M502.11,-584.31C532.95,-576.82 573.94,-563.38 603.93,-540 634.08,-516.51 640.04,-504.63 650.93,-468 664.22,-423.33 658.93,-368.57 656.11,-335.8"/>
<polygon fill="black" stroke="black" points="659.6,-335.58 655.31,-325.89 652.63,-336.14 659.6,-335.58"/>
</g>
<!-- r3_node_14&#45;&gt;r3_node_2 -->
<g id="edge36" class="edge">
<title>r3_node_14&#45;&gt;r3_node_2</title>
<path fill="none" stroke="black" d="M665.92,-323.9C675.19,-353.74 684,-417.36 668.93,-468 658.04,-504.63 652.08,-516.51 621.93,-540 591.68,-563.58 550.24,-577.05 516.63,-584.51"/>
<polygon fill="black" stroke="black" points="516.12,-581.04 507.04,-586.5 517.55,-587.89 516.12,-581.04"/>
</g>
<!-- r3_node_3&#45;&gt;r3_node_1 -->
<g id="edge19" class="edge">
<title>r3_node_3&#45;&gt;r3_node_1</title>
<path fill="none" stroke="black" d="M269.66,-467.2C256.04,-477.12 237.17,-489.91 220.55,-500.53"/>
<polygon fill="black" stroke="black" points="218.95,-497.4 212.36,-505.69 222.68,-503.32 218.95,-497.4"/>
</g>
<!-- r3_node_3&#45;&gt;r3_node_19 -->
<g id="edge20" class="edge">
<title>r3_node_3&#45;&gt;r3_node_19</title>
<path fill="none" stroke="black" d="M335.65,-443.89C369.9,-437.84 414.96,-424.67 443.93,-396 480.11,-360.21 446.65,-324.66 481.93,-288 512.09,-256.66 543.44,-283.96 572.93,-252 627.19,-193.21 625.12,-131.76 571.93,-72 555.5,-53.53 531.36,-41.12 509.26,-32.98"/>
<polygon fill="black" stroke="black" points="510.65,-29.76 500.06,-29.82 508.38,-36.38 510.65,-29.76"/>
</g>
<!-- r3_node_3&#45;&gt;r3_node_7 -->
<g id="edge18" class="edge">
<title>r3_node_3&#45;&gt;r3_node_7</title>
<path fill="none" stroke="black" d="M304.63,-432.76C317.07,-423 334.29,-410.46 349.65,-399.96"/>
<polygon fill="black" stroke="black" points="351.32,-403.05 357.67,-394.56 347.42,-397.24 351.32,-403.05"/>
</g>
<!-- r3_node_6&#45;&gt;r3_node_1 -->
<g id="edge32" class="edge">
<title>r3_node_6&#45;&gt;r3_node_1</title>
<path fill="none" stroke="black" d="M260.57,-108.29C263.41,-155.48 255.11,-290.06 221.93,-396 216.59,-413.07 209.11,-414.88 203.93,-432 197.97,-451.74 195.24,-474.87 192.74,-492.61"/>
<polygon fill="black" stroke="black" points="189.29,-492.01 191.24,-502.42 196.21,-493.06 189.29,-492.01"/>
</g>
<!-- r3_node_6&#45;&gt;r3_node_18 -->
<g id="edge33" class="edge">
<title>r3_node_6&#45;&gt;r3_node_18</title>
<path fill="none" stroke="black" d="M246.28,-72.05C241.26,-64.06 235.14,-54.33 229.53,-45.4"/>
<polygon fill="black" stroke="black" points="232.58,-43.67 224.29,-37.07 226.65,-47.4 232.58,-43.67"/>
</g>
<!-- r3_node_7&#45;&gt;r3_node_8 -->
<g id="edge37" class="edge">
<title>r3_node_7&#45;&gt;r3_node_8</title>
<path fill="none" stroke="black" d="M375.67,-360.05C373.41,-352.68 371.39,-343.84 369.99,-335.51"/>
<polygon fill="black" stroke="black" points="373.48,-335.22 368.68,-325.78 366.55,-336.15 373.48,-335.22"/>
</g>
<!-- r3_node_7&#45;&gt;r3_node_3 -->
<g id="edge38" class="edge">
<title>r3_node_7&#45;&gt;r3_node_3</title>
<path fill="none" stroke="black" d="M368.17,-395.29C355.78,-405.02 338.67,-417.47 323.37,-427.94"/>
<polygon fill="black" stroke="black" points="321.73,-424.82 315.4,-433.31 325.65,-430.62 321.73,-424.82"/>
</g>
<!-- r3_node_16&#45;&gt;r3_node_8 -->
<g id="edge39" class="edge">
<title>r3_node_16&#45;&gt;r3_node_8</title>
<path fill="none" stroke="black" d="M467.8,-107.49C456.56,-116.93 442.34,-129.73 432.93,-144 405.27,-185.98 390.92,-243.64 381.77,-277.35"/>
<polygon fill="black" stroke="black" points="378.46,-276.18 379.14,-286.75 385.2,-278.06 378.46,-276.18"/>
</g>
<!-- r3_node_16&#45;&gt;r3_node_18 -->
<g id="edge40" class="edge">
<title>r3_node_16&#45;&gt;r3_node_18</title>
<path fill="none" stroke="black" d="M441.59,-78.06C394.16,-65.81 317.21,-45.93 265.85,-32.67"/>
<polygon fill="black" stroke="black" points="267,-29.35 256.45,-30.24 265.25,-36.13 267,-29.35"/>
</g>
<!-- r3_node_12 -->
<g id="node19" class="node">
<title>r3_node_12</title>
<ellipse fill="none" stroke="black" cx="487.93" cy="-162" rx="54.93" ry="18"/>
<text text-anchor="middle" x="487.93" y="-156.95" font-family="Times,serif" font-size="14.00">r3_node_12</text>
</g>
<!-- r3_node_16&#45;&gt;r3_node_12 -->
<g id="edge41" class="edge">
<title>r3_node_16&#45;&gt;r3_node_12</title>
<path fill="none" stroke="black" d="M490.81,-108.1C491.98,-115.37 492.73,-124.04 492.94,-132.24"/>
<polygon fill="black" stroke="black" points="489.44,-132.16 492.87,-142.18 496.44,-132.21 489.44,-132.16"/>
</g>
<!-- r3_node_17&#45;&gt;r3_node_8 -->
<g id="edge30" class="edge">
<title>r3_node_17&#45;&gt;r3_node_8</title>
<path fill="none" stroke="black" d="M463.72,-251.1C448.53,-261.23 427.45,-274.36 409.17,-285.13"/>
<polygon fill="black" stroke="black" points="407.55,-282.02 400.66,-290.07 411.06,-288.07 407.55,-282.02"/>
</g>
<!-- r3_node_17&#45;&gt;r3_node_12 -->
<g id="edge31" class="edge">
<title>r3_node_17&#45;&gt;r3_node_12</title>
<path fill="none" stroke="black" d="M479.01,-215.7C478.67,-208.32 478.93,-199.52 479.68,-191.25"/>
<polygon fill="black" stroke="black" points="483.12,-191.96 480.88,-181.61 476.17,-191.1 483.12,-191.96"/>
</g>
<!-- r3_node_12&#45;&gt;r3_node_16 -->
<g id="edge34" class="edge">
<title>r3_node_12&#45;&gt;r3_node_16</title>
<path fill="none" stroke="black" d="M481.03,-143.7C479.86,-136.41 479.12,-127.73 478.92,-119.54"/>
<polygon fill="black" stroke="black" points="482.42,-119.65 479,-109.62 475.42,-119.59 482.42,-119.65"/>
</g>
<!-- r3_node_12&#45;&gt;r3_node_17 -->
<g id="edge35" class="edge">
<title>r3_node_12&#45;&gt;r3_node_17</title>
<path fill="none" stroke="black" d="M492.85,-180.1C493.2,-187.45 492.95,-196.24 492.21,-204.53"/>
<polygon fill="black" stroke="black" points="488.76,-203.84 491.02,-214.19 495.71,-204.69 488.76,-203.84"/>
</g>
</g>
</svg>
