<?xml version="1.0" encoding="UTF-8" standalone="no"?>
<!DOCTYPE svg PUBLIC "-//W3C//DTD SVG 1.1//EN"
 "http://www.w3.org/Graphics/SVG/1.1/DTD/svg11.dtd">
<!-- Generated by graphviz version 12.2.1 (20241206.2353)
 -->
<!-- Pages: 1 -->
<svg width="466pt" height="260pt"
 viewBox="0.00 0.00 465.66 260.00" xmlns="http://www.w3.org/2000/svg" xmlns:xlink="http://www.w3.org/1999/xlink">
<g id="graph0" class="graph" transform="scale(1 1) rotate(0) translate(4 256)">
<polygon fill="white" stroke="none" points="-4,4 -4,-256 461.66,-256 461.66,4 -4,4"/>
<!-- r1_node_10 -->
<g id="node1" class="node">
<title>r1_node_10</title>
<ellipse fill="none" stroke="black" cx="227.33" cy="-234" rx="54.93" ry="18"/>
<text text-anchor="middle" x="227.33" y="-228.95" font-family="Times,serif" font-size="14.00">r1_node_10</text>
</g>
<!-- r1_node_8 -->
<g id="node2" class="node">
<title>r1_node_8</title>
<ellipse fill="none" stroke="black" cx="168.33" cy="-162" rx="50.33" ry="18"/>
<text text-anchor="middle" x="168.33" y="-156.95" font-family="Times,serif" font-size="14.00">r1_node_8</text>
</g>
<!-- r1_node_10&#45;&gt;r1_node_8 -->
<g id="edge1" class="edge">
<title>r1_node_10&#45;&gt;r1_node_8</title>
<path fill="none" stroke="black" d="M207.84,-216.76C199.97,-208.53 191.12,-198.32 183.71,-189.02"/>
<polygon fill="black" stroke="black" points="186.66,-187.11 177.79,-181.32 181.11,-191.38 186.66,-187.11"/>
</g>
<!-- r1_node_1 -->
<g id="node3" class="node">
<title>r1_node_1</title>
<ellipse fill="none" stroke="black" cx="287.33" cy="-162" rx="50.33" ry="18"/>
<text text-anchor="middle" x="287.33" y="-156.95" font-family="Times,serif" font-size="14.00">r1_node_1</text>
</g>
<!-- r1_node_10&#45;&gt;r1_node_1 -->
<g id="edge2" class="edge">
<title>r1_node_10&#45;&gt;r1_node_1</title>
<path fill="none" stroke="black" d="M235.97,-216.05C242.49,-207.38 251.48,-196.67 260.18,-187.15"/>
<polygon fill="black" stroke="black" points="262.66,-189.61 266.97,-179.93 257.57,-184.82 262.66,-189.61"/>
</g>
<!-- r1_node_8&#45;&gt;r1_node_10 -->
<g id="edge9" class="edge">
<title>r1_node_8&#45;&gt;r1_node_10</title>
<path fill="none" stroke="black" d="M187.42,-178.83C195.4,-187.15 204.43,-197.56 211.98,-207.02"/>
<polygon fill="black" stroke="black" points="209.13,-209.06 218,-214.86 214.68,-204.79 209.13,-209.06"/>
</g>
<!-- r1_node_4 -->
<g id="node5" class="node">
<title>r1_node_4</title>
<ellipse fill="none" stroke="black" cx="109.33" cy="-90" rx="50.33" ry="18"/>
<text text-anchor="middle" x="109.33" y="-84.95" font-family="Times,serif" font-size="14.00">r1_node_4</text>
</g>
<!-- r1_node_8&#45;&gt;r1_node_4 -->
<g id="edge10" class="edge">
<title>r1_node_8&#45;&gt;r1_node_4</title>
<path fill="none" stroke="black" d="M149.18,-145.12C141.18,-136.77 132.12,-126.32 124.57,-116.84"/>
<polygon fill="black" stroke="black" points="127.41,-114.8 118.54,-109 121.86,-119.06 127.41,-114.8"/>
</g>
<!-- r1_node_2 -->
<g id="node8" class="node">
<title>r1_node_2</title>
<ellipse fill="none" stroke="black" cx="258.33" cy="-90" rx="50.33" ry="18"/>
<text text-anchor="middle" x="258.33" y="-84.95" font-family="Times,serif" font-size="14.00">r1_node_2</text>
</g>
<!-- r1_node_8&#45;&gt;r1_node_2 -->
<g id="edge8" class="edge">
<title>r1_node_8&#45;&gt;r1_node_2</title>
<path fill="none" stroke="black" d="M183.82,-144.41C194.95,-134.95 210.18,-122.98 224.03,-112.77"/>
<polygon fill="black" stroke="black" points="226.06,-115.63 232.11,-106.93 221.95,-109.96 226.06,-115.63"/>
</g>
<!-- r1_node_5 -->
<g id="node9" class="node">
<title>r1_node_5</title>
<ellipse fill="none" stroke="black" cx="392.33" cy="-90" rx="50.33" ry="18"/>
<text text-anchor="middle" x="392.33" y="-84.95" font-family="Times,serif" font-size="14.00">r1_node_5</text>
</g>
<!-- r1_node_8&#45;&gt;r1_node_5 -->
<g id="edge11" class="edge">
<title>r1_node_8&#45;&gt;r1_node_5</title>
<path fill="none" stroke="black" d="M202.57,-148.65C239.9,-136.4 299.78,-117.66 342.34,-104.9"/>
<polygon fill="black" stroke="black" points="343.28,-108.27 351.86,-102.06 341.28,-101.56 343.28,-108.27"/>
</g>
<!-- r1_node_1&#45;&gt;r1_node_10 -->
<g id="edge15" class="edge">
<title>r1_node_1&#45;&gt;r1_node_10</title>
<path fill="none" stroke="black" d="M278.55,-180.12C272.11,-188.67 263.31,-199.17 254.75,-208.55"/>
<polygon fill="black" stroke="black" points="252.37,-205.97 248.08,-215.66 257.48,-210.76 252.37,-205.97"/>
</g>
<!-- r1_node_3 -->
<g id="node4" class="node">
<title>r1_node_3</title>
<ellipse fill="none" stroke="black" cx="50.33" cy="-18" rx="50.33" ry="18"/>
<text text-anchor="middle" x="50.33" y="-12.95" font-family="Times,serif" font-size="14.00">r1_node_3</text>
</g>
<!-- r1_node_3&#45;&gt;r1_node_4 -->
<g id="edge3" class="edge">
<title>r1_node_3&#45;&gt;r1_node_4</title>
<path fill="none" stroke="black" d="M69.42,-34.83C77.4,-43.15 86.43,-53.56 93.98,-63.02"/>
<polygon fill="black" stroke="black" points="91.13,-65.06 100,-70.86 96.68,-60.79 91.13,-65.06"/>
</g>
<!-- r1_node_4&#45;&gt;r1_node_8 -->
<g id="edge7" class="edge">
<title>r1_node_4&#45;&gt;r1_node_8</title>
<path fill="none" stroke="black" d="M128.42,-106.83C136.4,-115.15 145.43,-125.56 152.98,-135.02"/>
<polygon fill="black" stroke="black" points="150.13,-137.06 159,-142.86 155.68,-132.79 150.13,-137.06"/>
</g>
<!-- r1_node_4&#45;&gt;r1_node_3 -->
<g id="edge6" class="edge">
<title>r1_node_4&#45;&gt;r1_node_3</title>
<path fill="none" stroke="black" d="M90.18,-73.12C82.18,-64.77 73.12,-54.32 65.57,-44.84"/>
<polygon fill="black" stroke="black" points="68.41,-42.8 59.54,-37 62.86,-47.06 68.41,-42.8"/>
</g>
<!-- r1_node_9 -->
<g id="node6" class="node">
<title>r1_node_9</title>
<ellipse fill="none" stroke="black" cx="169.33" cy="-18" rx="50.33" ry="18"/>
<text text-anchor="middle" x="169.33" y="-12.95" font-family="Times,serif" font-size="14.00">r1_node_9</text>
</g>
<!-- r1_node_4&#45;&gt;r1_node_9 -->
<g id="edge4" class="edge">
<title>r1_node_4&#45;&gt;r1_node_9</title>
<path fill="none" stroke="black" d="M117.97,-72.05C124.49,-63.38 133.48,-52.67 142.18,-43.15"/>
<polygon fill="black" stroke="black" points="144.66,-45.61 148.97,-35.93 139.57,-40.82 144.66,-45.61"/>
</g>
<!-- r1_node_6 -->
<g id="node7" class="node">
<title>r1_node_6</title>
<ellipse fill="none" stroke="black" cx="288.33" cy="-18" rx="50.33" ry="18"/>
<text text-anchor="middle" x="288.33" y="-12.95" font-family="Times,serif" font-size="14.00">r1_node_6</text>
</g>
<!-- r1_node_4&#45;&gt;r1_node_6 -->
<g id="edge5" class="edge">
<title>r1_node_4&#45;&gt;r1_node_6</title>
<path fill="none" stroke="black" d="M139.19,-75.17C167.28,-63.57 209.55,-47.01 241.99,-34.87"/>
<polygon fill="black" stroke="black" points="243,-38.23 251.16,-31.46 240.57,-31.66 243,-38.23"/>
</g>
<!-- r1_node_9&#45;&gt;r1_node_4 -->
<g id="edge12" class="edge">
<title>r1_node_9&#45;&gt;r1_node_4</title>
<path fill="none" stroke="black" d="M160.79,-35.8C154.29,-44.47 145.28,-55.21 136.56,-64.77"/>
<polygon fill="black" stroke="black" points="134.04,-62.33 129.74,-72.01 139.14,-67.13 134.04,-62.33"/>
</g>
<!-- r1_node_6&#45;&gt;r1_node_4 -->
<g id="edge18" class="edge">
<title>r1_node_6&#45;&gt;r1_node_4</title>
<path fill="none" stroke="black" d="M258.55,-32.8C230.54,-44.36 188.37,-60.89 155.93,-73.03"/>
<polygon fill="black" stroke="black" points="154.91,-69.68 146.76,-76.44 157.35,-76.24 154.91,-69.68"/>
</g>
<!-- r1_node_2&#45;&gt;r1_node_8 -->
<g id="edge17" class="edge">
<title>r1_node_2&#45;&gt;r1_node_8</title>
<path fill="none" stroke="black" d="M242.9,-107.54C231.59,-117.15 216.04,-129.36 202,-139.69"/>
<polygon fill="black" stroke="black" points="200.33,-136.57 194.28,-145.27 204.43,-142.25 200.33,-136.57"/>
</g>
<!-- r1_node_5&#45;&gt;r1_node_8 -->
<g id="edge13" class="edge">
<title>r1_node_5&#45;&gt;r1_node_8</title>
<path fill="none" stroke="black" d="M357.7,-103.48C320.41,-115.71 260.94,-134.32 218.54,-147.03"/>
<polygon fill="black" stroke="black" points="217.65,-143.65 209.07,-149.86 219.65,-150.36 217.65,-143.65"/>
</g>
<!-- r1_node_7 -->
<g id="node10" class="node">
<title>r1_node_7</title>
<ellipse fill="none" stroke="black" cx="407.33" cy="-18" rx="50.33" ry="18"/>
<text text-anchor="middle" x="407.33" y="-12.95" font-family="Times,serif" font-size="14.00">r1_node_7</text>
</g>
<!-- r1_node_5&#45;&gt;r1_node_7 -->
<g id="edge14" class="edge">
<title>r1_node_5&#45;&gt;r1_node_7</title>
<path fill="none" stroke="black" d="M390.12,-71.7C390.95,-64.24 392.62,-55.32 394.71,-46.97"/>
<polygon fill="black" stroke="black" points="398.01,-48.14 397.36,-37.56 391.28,-46.24 398.01,-48.14"/>
</g>
<!-- r1_node_7&#45;&gt;r1_node_5 -->
<g id="edge16" class="edge">
<title>r1_node_7&#45;&gt;r1_node_5</title>
<path fill="none" stroke="black" d="M409.54,-36.28C408.71,-43.77 407.02,-52.75 404.92,-61.15"/>
<polygon fill="black" stroke="black" points="401.6,-60.02 402.25,-70.6 408.34,-61.93 401.6,-60.02"/>
</g>
</g>
</svg>
