<?xml version="1.0" encoding="UTF-8" standalone="no"?>
<!DOCTYPE svg PUBLIC "-//W3C//DTD SVG 1.1//EN"
 "http://www.w3.org/Graphics/SVG/1.1/DTD/svg11.dtd">
<!-- Generated by graphviz version 12.2.1 (20241206.2353)
 -->
<!-- Pages: 1 -->
<svg width="482pt" height="116pt"
 viewBox="0.00 0.00 482.26 116.00" xmlns="http://www.w3.org/2000/svg" xmlns:xlink="http://www.w3.org/1999/xlink">
<g id="graph0" class="graph" transform="scale(1 1) rotate(0) translate(4 112)">
<polygon fill="white" stroke="none" points="-4,4 -4,-112 478.26,-112 478.26,4 -4,4"/>
<!-- r3_node_3 -->
<g id="node1" class="node">
<title>r3_node_3</title>
<ellipse fill="none" stroke="black" cx="50.33" cy="-18" rx="50.33" ry="18"/>
<text text-anchor="middle" x="50.33" y="-12.95" font-family="Times,serif" font-size="14.00">r3_node_3</text>
</g>
<!-- r3_node_18 -->
<g id="node2" class="node">
<title>r3_node_18</title>
<ellipse fill="none" stroke="black" cx="173.33" cy="-18" rx="54.93" ry="18"/>
<text text-anchor="middle" x="173.33" y="-12.95" font-family="Times,serif" font-size="14.00">r3_node_18</text>
</g>
<!-- r3_node_6 -->
<g id="node3" class="node">
<title>r3_node_6</title>
<ellipse fill="none" stroke="black" cx="296.33" cy="-18" rx="50.33" ry="18"/>
<text text-anchor="middle" x="296.33" y="-12.95" font-family="Times,serif" font-size="14.00">r3_node_6</text>
</g>
<!-- r3_node_25 -->
<g id="node4" class="node">
<title>r3_node_25</title>
<ellipse fill="none" stroke="black" cx="419.33" cy="-18" rx="54.93" ry="18"/>
<text text-anchor="middle" x="419.33" y="-12.95" font-family="Times,serif" font-size="14.00">r3_node_25</text>
</g>
<!-- r3_node_26 -->
<g id="node5" class="node">
<title>r3_node_26</title>
<ellipse fill="none" stroke="black" cx="111.33" cy="-90" rx="54.93" ry="18"/>
<text text-anchor="middle" x="111.33" y="-84.95" font-family="Times,serif" font-size="14.00">r3_node_26</text>
</g>
<!-- r3_node_26&#45;&gt;r3_node_3 -->
<g id="edge2" class="edge">
<title>r3_node_26&#45;&gt;r3_node_3</title>
<path fill="none" stroke="black" d="M96.87,-72.41C89.5,-63.95 80.39,-53.49 72.18,-44.08"/>
<polygon fill="black" stroke="black" points="74.88,-41.85 65.67,-36.61 69.61,-46.45 74.88,-41.85"/>
</g>
<!-- r3_node_26&#45;&gt;r3_node_18 -->
<g id="edge3" class="edge">
<title>r3_node_26&#45;&gt;r3_node_18</title>
<path fill="none" stroke="black" d="M126.02,-72.41C133.51,-63.95 142.78,-53.49 151.12,-44.08"/>
<polygon fill="black" stroke="black" points="153.73,-46.41 157.74,-36.6 148.49,-41.77 153.73,-46.41"/>
</g>
<!-- r3_node_26&#45;&gt;r3_node_6 -->
<g id="edge4" class="edge">
<title>r3_node_26&#45;&gt;r3_node_6</title>
<path fill="none" stroke="black" d="M146.12,-75.83C176.12,-64.48 219.6,-48.03 252.07,-35.75"/>
<polygon fill="black" stroke="black" points="253.09,-39.1 261.21,-32.29 250.62,-32.55 253.09,-39.1"/>
</g>
<!-- r3_node_26&#45;&gt;r3_node_25 -->
<g id="edge1" class="edge">
<title>r3_node_26&#45;&gt;r3_node_25</title>
<path fill="none" stroke="black" d="M156.89,-79.75C206.01,-69.63 286.43,-52.62 355.33,-36 359.13,-35.08 363.05,-34.11 367,-33.11"/>
<polygon fill="black" stroke="black" points="367.81,-36.51 376.62,-30.63 366.06,-29.74 367.81,-36.51"/>
</g>
</g>
</svg>
