<?xml version="1.0" encoding="UTF-8" standalone="no"?>
<!DOCTYPE svg PUBLIC "-//W3C//DTD SVG 1.1//EN"
 "http://www.w3.org/Graphics/SVG/1.1/DTD/svg11.dtd">
<!-- Generated by graphviz version 12.2.1 (20241206.2353)
 -->
<!-- Pages: 1 -->
<svg width="738pt" height="116pt"
 viewBox="0.00 0.00 737.87 116.00" xmlns="http://www.w3.org/2000/svg" xmlns:xlink="http://www.w3.org/1999/xlink">
<g id="graph0" class="graph" transform="scale(1 1) rotate(0) translate(4 112)">
<polygon fill="white" stroke="none" points="-4,4 -4,-112 733.87,-112 733.87,4 -4,4"/>
<!-- r1_node_17 -->
<g id="node1" class="node">
<title>r1_node_17</title>
<ellipse fill="none" stroke="black" cx="54.93" cy="-18" rx="54.93" ry="18"/>
<text text-anchor="middle" x="54.93" y="-12.95" font-family="Times,serif" font-size="14.00">r1_node_17</text>
</g>
<!-- r1_node_5 -->
<g id="node2" class="node">
<title>r1_node_5</title>
<ellipse fill="none" stroke="black" cx="177.93" cy="-18" rx="50.33" ry="18"/>
<text text-anchor="middle" x="177.93" y="-12.95" font-family="Times,serif" font-size="14.00">r1_node_5</text>
</g>
<!-- r1_node_20 -->
<g id="node3" class="node">
<title>r1_node_20</title>
<ellipse fill="none" stroke="black" cx="300.93" cy="-18" rx="54.93" ry="18"/>
<text text-anchor="middle" x="300.93" y="-12.95" font-family="Times,serif" font-size="14.00">r1_node_20</text>
</g>
<!-- r1_node_14 -->
<g id="node4" class="node">
<title>r1_node_14</title>
<ellipse fill="none" stroke="black" cx="115.93" cy="-90" rx="54.93" ry="18"/>
<text text-anchor="middle" x="115.93" y="-84.95" font-family="Times,serif" font-size="14.00">r1_node_14</text>
</g>
<!-- r1_node_14&#45;&gt;r1_node_17 -->
<g id="edge5" class="edge">
<title>r1_node_14&#45;&gt;r1_node_17</title>
<path fill="none" stroke="black" d="M101.48,-72.41C94.11,-63.95 84.99,-53.49 76.79,-44.08"/>
<polygon fill="black" stroke="black" points="79.49,-41.85 70.28,-36.61 74.21,-46.45 79.49,-41.85"/>
</g>
<!-- r1_node_14&#45;&gt;r1_node_5 -->
<g id="edge6" class="edge">
<title>r1_node_14&#45;&gt;r1_node_5</title>
<path fill="none" stroke="black" d="M130.63,-72.41C138.12,-63.95 147.38,-53.49 155.72,-44.08"/>
<polygon fill="black" stroke="black" points="158.33,-46.41 162.34,-36.6 153.09,-41.77 158.33,-46.41"/>
</g>
<!-- r1_node_14&#45;&gt;r1_node_20 -->
<g id="edge1" class="edge">
<title>r1_node_14&#45;&gt;r1_node_20</title>
<path fill="none" stroke="black" d="M150.73,-75.83C180.35,-64.63 223.12,-48.44 255.45,-36.21"/>
<polygon fill="black" stroke="black" points="256.45,-39.57 264.56,-32.76 253.97,-33.03 256.45,-39.57"/>
</g>
<!-- r1_node_7 -->
<g id="node5" class="node">
<title>r1_node_7</title>
<ellipse fill="none" stroke="black" cx="423.93" cy="-18" rx="50.33" ry="18"/>
<text text-anchor="middle" x="423.93" y="-12.95" font-family="Times,serif" font-size="14.00">r1_node_7</text>
</g>
<!-- r1_node_14&#45;&gt;r1_node_7 -->
<g id="edge2" class="edge">
<title>r1_node_14&#45;&gt;r1_node_7</title>
<path fill="none" stroke="black" d="M162.51,-80.11C212.71,-70.29 294.83,-53.54 364.93,-36 368.29,-35.16 371.74,-34.26 375.22,-33.33"/>
<polygon fill="black" stroke="black" points="376.1,-36.72 384.81,-30.68 374.24,-29.97 376.1,-36.72"/>
</g>
<!-- r1_node_15 -->
<g id="node6" class="node">
<title>r1_node_15</title>
<ellipse fill="none" stroke="black" cx="546.93" cy="-18" rx="54.93" ry="18"/>
<text text-anchor="middle" x="546.93" y="-12.95" font-family="Times,serif" font-size="14.00">r1_node_15</text>
</g>
<!-- r1_node_14&#45;&gt;r1_node_15 -->
<g id="edge3" class="edge">
<title>r1_node_14&#45;&gt;r1_node_15</title>
<path fill="none" stroke="black" d="M167.62,-83.46C238.96,-75.37 371.45,-58.78 482.93,-36 487,-35.17 491.2,-34.23 495.4,-33.24"/>
<polygon fill="black" stroke="black" points="496.14,-36.66 505,-30.87 494.46,-29.87 496.14,-36.66"/>
</g>
<!-- r1_node_16 -->
<g id="node7" class="node">
<title>r1_node_16</title>
<ellipse fill="none" stroke="black" cx="674.93" cy="-18" rx="54.93" ry="18"/>
<text text-anchor="middle" x="674.93" y="-12.95" font-family="Times,serif" font-size="14.00">r1_node_16</text>
</g>
<!-- r1_node_14&#45;&gt;r1_node_16 -->
<g id="edge4" class="edge">
<title>r1_node_14&#45;&gt;r1_node_16</title>
<path fill="none" stroke="black" d="M169.8,-85.94C261.14,-80.15 452.02,-65.44 610.93,-36 615.2,-35.21 619.6,-34.28 624,-33.28"/>
<polygon fill="black" stroke="black" points="624.49,-36.76 633.39,-31 622.85,-29.96 624.49,-36.76"/>
</g>
</g>
</svg>
