<?xml version="1.0" encoding="UTF-8" standalone="no"?>
<!DOCTYPE svg PUBLIC "-//W3C//DTD SVG 1.1//EN"
 "http://www.w3.org/Graphics/SVG/1.1/DTD/svg11.dtd">
<!-- Generated by graphviz version 12.2.1 (20241206.2353)
 -->
<!-- Pages: 1 -->
<svg width="845pt" height="404pt"
 viewBox="0.00 0.00 844.87 404.00" xmlns="http://www.w3.org/2000/svg" xmlns:xlink="http://www.w3.org/1999/xlink">
<g id="graph0" class="graph" transform="scale(1 1) rotate(0) translate(4 400)">
<polygon fill="white" stroke="none" points="-4,4 -4,-400 840.87,-400 840.87,4 -4,4"/>
<!-- r1_node_5 -->
<g id="node1" class="node">
<title>r1_node_5</title>
<ellipse fill="none" stroke="black" cx="109.93" cy="-378" rx="50.33" ry="18"/>
<text text-anchor="middle" x="109.93" y="-372.95" font-family="Times,serif" font-size="14.00">r1_node_5</text>
</g>
<!-- r1_node_3 -->
<g id="node2" class="node">
<title>r1_node_3</title>
<ellipse fill="none" stroke="black" cx="260.93" cy="-306" rx="50.33" ry="18"/>
<text text-anchor="middle" x="260.93" y="-300.95" font-family="Times,serif" font-size="14.00">r1_node_3</text>
</g>
<!-- r1_node_5&#45;&gt;r1_node_3 -->
<g id="edge1" class="edge">
<title>r1_node_5&#45;&gt;r1_node_3</title>
<path fill="none" stroke="black" d="M135.97,-362.33C158.37,-351.3 190.94,-336.15 217.27,-324.49"/>
<polygon fill="black" stroke="black" points="218.62,-327.72 226.37,-320.5 215.81,-321.31 218.62,-327.72"/>
</g>
<!-- r1_node_8 -->
<g id="node3" class="node">
<title>r1_node_8</title>
<ellipse fill="none" stroke="black" cx="91.93" cy="-306" rx="50.33" ry="18"/>
<text text-anchor="middle" x="91.93" y="-300.95" font-family="Times,serif" font-size="14.00">r1_node_8</text>
</g>
<!-- r1_node_5&#45;&gt;r1_node_8 -->
<g id="edge2" class="edge">
<title>r1_node_5&#45;&gt;r1_node_8</title>
<path fill="none" stroke="black" d="M99.7,-360.05C97.02,-352.68 94.49,-343.84 92.62,-335.51"/>
<polygon fill="black" stroke="black" points="96.07,-334.92 90.75,-325.76 89.2,-336.24 96.07,-334.92"/>
</g>
<!-- r1_node_14 -->
<g id="node4" class="node">
<title>r1_node_14</title>
<ellipse fill="none" stroke="black" cx="337.93" cy="-234" rx="54.93" ry="18"/>
<text text-anchor="middle" x="337.93" y="-228.95" font-family="Times,serif" font-size="14.00">r1_node_14</text>
</g>
<!-- r1_node_5&#45;&gt;r1_node_14 -->
<g id="edge3" class="edge">
<title>r1_node_5&#45;&gt;r1_node_14</title>
<path fill="none" stroke="black" d="M123.34,-360.52C140,-340.95 170.13,-308.39 201.93,-288 227.79,-271.42 259.64,-258.66 286.02,-249.82"/>
<polygon fill="black" stroke="black" points="287.08,-253.16 295.51,-246.74 284.92,-246.5 287.08,-253.16"/>
</g>
<!-- r1_node_3&#45;&gt;r1_node_5 -->
<g id="edge9" class="edge">
<title>r1_node_3&#45;&gt;r1_node_5</title>
<path fill="none" stroke="black" d="M234.6,-321.82C212.17,-332.86 179.69,-347.96 153.44,-359.58"/>
<polygon fill="black" stroke="black" points="152.13,-356.33 144.38,-363.55 154.94,-362.74 152.13,-356.33"/>
</g>
<!-- r1_node_3&#45;&gt;r1_node_14 -->
<g id="edge11" class="edge">
<title>r1_node_3&#45;&gt;r1_node_14</title>
<path fill="none" stroke="black" d="M278.79,-288.76C288.54,-279.91 300.79,-268.77 311.61,-258.93"/>
<polygon fill="black" stroke="black" points="313.74,-261.72 318.79,-252.41 309.03,-256.54 313.74,-261.72"/>
</g>
<!-- r1_node_18 -->
<g id="node8" class="node">
<title>r1_node_18</title>
<ellipse fill="none" stroke="black" cx="669.93" cy="-162" rx="54.93" ry="18"/>
<text text-anchor="middle" x="669.93" y="-156.95" font-family="Times,serif" font-size="14.00">r1_node_18</text>
</g>
<!-- r1_node_3&#45;&gt;r1_node_18 -->
<g id="edge7" class="edge">
<title>r1_node_3&#45;&gt;r1_node_18</title>
<path fill="none" stroke="black" d="M305.72,-297.63C352.13,-289.28 426.36,-273.93 487.93,-252 540.41,-233.31 597.61,-203.69 633.61,-183.81"/>
<polygon fill="black" stroke="black" points="635.27,-186.89 642.3,-178.96 631.86,-180.77 635.27,-186.89"/>
</g>
<!-- r1_node_19 -->
<g id="node9" class="node">
<title>r1_node_19</title>
<ellipse fill="none" stroke="black" cx="530.93" cy="-90" rx="54.93" ry="18"/>
<text text-anchor="middle" x="530.93" y="-84.95" font-family="Times,serif" font-size="14.00">r1_node_19</text>
</g>
<!-- r1_node_3&#45;&gt;r1_node_19 -->
<g id="edge8" class="edge">
<title>r1_node_3&#45;&gt;r1_node_19</title>
<path fill="none" stroke="black" d="M307.14,-298.67C345.73,-291.78 401.01,-278.06 442.93,-252 479.8,-229.08 488.42,-218.26 508.93,-180 519,-161.22 524.56,-137.74 527.57,-119.61"/>
<polygon fill="black" stroke="black" points="531.02,-120.21 529.01,-109.81 524.09,-119.19 531.02,-120.21"/>
</g>
<!-- r1_node_13 -->
<g id="node10" class="node">
<title>r1_node_13</title>
<ellipse fill="none" stroke="black" cx="394.93" cy="-90" rx="54.93" ry="18"/>
<text text-anchor="middle" x="394.93" y="-84.95" font-family="Times,serif" font-size="14.00">r1_node_13</text>
</g>
<!-- r1_node_3&#45;&gt;r1_node_13 -->
<g id="edge10" class="edge">
<title>r1_node_3&#45;&gt;r1_node_13</title>
<path fill="none" stroke="black" d="M299.49,-294.13C328.68,-285.06 369.2,-270.62 401.93,-252 424.2,-239.34 480.84,-203.08 491.93,-180 498.87,-165.58 500.1,-157.76 491.93,-144 481.79,-126.89 463.95,-114.95 446.32,-106.79"/>
<polygon fill="black" stroke="black" points="447.99,-103.7 437.42,-103.01 445.25,-110.14 447.99,-103.7"/>
</g>
<!-- r1_node_8&#45;&gt;r1_node_5 -->
<g id="edge4" class="edge">
<title>r1_node_8&#45;&gt;r1_node_5</title>
<path fill="none" stroke="black" d="M102.23,-324.1C104.89,-331.45 107.4,-340.24 109.26,-348.53"/>
<polygon fill="black" stroke="black" points="105.79,-349.05 111.12,-358.21 112.67,-347.73 105.79,-349.05"/>
</g>
<!-- r1_node_9 -->
<g id="node5" class="node">
<title>r1_node_9</title>
<ellipse fill="none" stroke="black" cx="193.93" cy="-234" rx="50.33" ry="18"/>
<text text-anchor="middle" x="193.93" y="-228.95" font-family="Times,serif" font-size="14.00">r1_node_9</text>
</g>
<!-- r1_node_8&#45;&gt;r1_node_9 -->
<g id="edge5" class="edge">
<title>r1_node_8&#45;&gt;r1_node_9</title>
<path fill="none" stroke="black" d="M109.79,-288.76C123.14,-278.84 141.64,-266.05 157.95,-255.44"/>
<polygon fill="black" stroke="black" points="159.44,-258.64 165.97,-250.3 155.66,-252.75 159.44,-258.64"/>
</g>
<!-- r1_node_12 -->
<g id="node6" class="node">
<title>r1_node_12</title>
<ellipse fill="none" stroke="black" cx="195.93" cy="-18" rx="54.93" ry="18"/>
<text text-anchor="middle" x="195.93" y="-12.95" font-family="Times,serif" font-size="14.00">r1_node_12</text>
</g>
<!-- r1_node_8&#45;&gt;r1_node_12 -->
<g id="edge6" class="edge">
<title>r1_node_8&#45;&gt;r1_node_12</title>
<path fill="none" stroke="black" d="M98.13,-287.97C115.43,-240.39 164.39,-105.75 185.75,-47"/>
<polygon fill="black" stroke="black" points="189,-48.32 189.12,-37.73 182.42,-45.93 189,-48.32"/>
</g>
<!-- r1_node_9&#45;&gt;r1_node_8 -->
<g id="edge35" class="edge">
<title>r1_node_9&#45;&gt;r1_node_8</title>
<path fill="none" stroke="black" d="M176.23,-251.12C162.95,-261 144.52,-273.75 128.23,-284.36"/>
<polygon fill="black" stroke="black" points="126.73,-281.16 120.2,-289.51 130.51,-287.05 126.73,-281.16"/>
</g>
<!-- r1_node_9&#45;&gt;r1_node_12 -->
<g id="edge36" class="edge">
<title>r1_node_9&#45;&gt;r1_node_12</title>
<path fill="none" stroke="black" d="M192.72,-215.82C192.04,-205.46 191.27,-191.98 190.93,-180 189.62,-133.65 192.11,-79.8 194.02,-47.61"/>
<polygon fill="black" stroke="black" points="197.5,-48.1 194.62,-37.9 190.51,-47.67 197.5,-48.1"/>
</g>
<!-- r1_node_20 -->
<g id="node7" class="node">
<title>r1_node_20</title>
<ellipse fill="none" stroke="black" cx="427.93" cy="-162" rx="54.93" ry="18"/>
<text text-anchor="middle" x="427.93" y="-156.95" font-family="Times,serif" font-size="14.00">r1_node_20</text>
</g>
<!-- r1_node_9&#45;&gt;r1_node_20 -->
<g id="edge33" class="edge">
<title>r1_node_9&#45;&gt;r1_node_20</title>
<path fill="none" stroke="black" d="M231.79,-221.68C271.41,-209.82 333.84,-191.15 377.59,-178.06"/>
<polygon fill="black" stroke="black" points="378.54,-181.43 387.12,-175.21 376.54,-174.72 378.54,-181.43"/>
</g>
<!-- r1_node_9&#45;&gt;r1_node_13 -->
<g id="edge31" class="edge">
<title>r1_node_9&#45;&gt;r1_node_13</title>
<path fill="none" stroke="black" d="M229.2,-220.69C252.94,-211.49 284.28,-197.49 308.93,-180 334.23,-162.05 358.35,-136.04 374.57,-116.77"/>
<polygon fill="black" stroke="black" points="377.25,-119.02 380.91,-109.08 371.84,-114.57 377.25,-119.02"/>
</g>
<!-- r1_node_15 -->
<g id="node14" class="node">
<title>r1_node_15</title>
<ellipse fill="none" stroke="black" cx="54.93" cy="-18" rx="54.93" ry="18"/>
<text text-anchor="middle" x="54.93" y="-12.95" font-family="Times,serif" font-size="14.00">r1_node_15</text>
</g>
<!-- r1_node_9&#45;&gt;r1_node_15 -->
<g id="edge32" class="edge">
<title>r1_node_9&#45;&gt;r1_node_15</title>
<path fill="none" stroke="black" d="M183.03,-216.21C158.98,-179.19 101.24,-90.3 72.21,-45.6"/>
<polygon fill="black" stroke="black" points="75.19,-43.76 66.81,-37.28 69.32,-47.57 75.19,-43.76"/>
</g>
<!-- r1_node_2 -->
<g id="node15" class="node">
<title>r1_node_2</title>
<ellipse fill="none" stroke="black" cx="249.93" cy="-162" rx="50.33" ry="18"/>
<text text-anchor="middle" x="249.93" y="-156.95" font-family="Times,serif" font-size="14.00">r1_node_2</text>
</g>
<!-- r1_node_9&#45;&gt;r1_node_2 -->
<g id="edge34" class="edge">
<title>r1_node_9&#45;&gt;r1_node_2</title>
<path fill="none" stroke="black" d="M201.61,-216.05C207.57,-207.47 215.84,-196.89 223.91,-187.44"/>
<polygon fill="black" stroke="black" points="226.52,-189.78 230.51,-179.96 221.27,-185.14 226.52,-189.78"/>
</g>
<!-- r1_node_16 -->
<g id="node11" class="node">
<title>r1_node_16</title>
<ellipse fill="none" stroke="black" cx="501.93" cy="-306" rx="54.93" ry="18"/>
<text text-anchor="middle" x="501.93" y="-300.95" font-family="Times,serif" font-size="14.00">r1_node_16</text>
</g>
<!-- r1_node_7 -->
<g id="node12" class="node">
<title>r1_node_7</title>
<ellipse fill="none" stroke="black" cx="237.93" cy="-378" rx="50.33" ry="18"/>
<text text-anchor="middle" x="237.93" y="-372.95" font-family="Times,serif" font-size="14.00">r1_node_7</text>
</g>
<!-- r1_node_7&#45;&gt;r1_node_20 -->
<g id="edge13" class="edge">
<title>r1_node_7&#45;&gt;r1_node_20</title>
<path fill="none" stroke="black" d="M262.97,-362.14C279.55,-351.99 301.54,-337.9 319.93,-324 339.28,-309.38 388.9,-272.45 401.93,-252 413.64,-233.62 420.24,-209.8 423.85,-191.43"/>
<polygon fill="black" stroke="black" points="427.27,-192.2 425.56,-181.74 420.38,-190.98 427.27,-192.2"/>
</g>
<!-- r1_node_7&#45;&gt;r1_node_18 -->
<g id="edge15" class="edge">
<title>r1_node_7&#45;&gt;r1_node_18</title>
<path fill="none" stroke="black" d="M275.95,-365.79C315.17,-353.93 373.43,-335.38 393.93,-324 416.03,-311.74 415.86,-300.29 437.93,-288 481.04,-264 498.97,-274.38 542.93,-252 579.32,-233.48 617.15,-205.68 641.96,-186.08"/>
<polygon fill="black" stroke="black" points="643.99,-188.94 649.62,-179.96 639.62,-183.47 643.99,-188.94"/>
</g>
<!-- r1_node_7&#45;&gt;r1_node_19 -->
<g id="edge12" class="edge">
<title>r1_node_7&#45;&gt;r1_node_19</title>
<path fill="none" stroke="black" d="M273.1,-364.79C297.44,-355.51 330,-341.37 355.93,-324 375.26,-311.05 376.36,-303.25 393.93,-288 452.23,-237.41 495.98,-249.32 529.93,-180 539.03,-161.42 538.89,-137.93 536.68,-119.75"/>
<polygon fill="black" stroke="black" points="540.15,-119.26 535.19,-109.9 533.23,-120.31 540.15,-119.26"/>
</g>
<!-- r1_node_7&#45;&gt;r1_node_16 -->
<g id="edge14" class="edge">
<title>r1_node_7&#45;&gt;r1_node_16</title>
<path fill="none" stroke="black" d="M277.54,-366.48C285.61,-364.33 294.04,-362.09 301.93,-360 351.92,-346.74 408.93,-331.63 449.27,-320.95"/>
<polygon fill="black" stroke="black" points="449.95,-324.39 458.72,-318.45 448.15,-317.62 449.95,-324.39"/>
</g>
<!-- r1_node_4 -->
<g id="node13" class="node">
<title>r1_node_4</title>
<ellipse fill="none" stroke="black" cx="256.93" cy="-90" rx="50.33" ry="18"/>
<text text-anchor="middle" x="256.93" y="-84.95" font-family="Times,serif" font-size="14.00">r1_node_4</text>
</g>
<!-- r1_node_4&#45;&gt;r1_node_12 -->
<g id="edge16" class="edge">
<title>r1_node_4&#45;&gt;r1_node_12</title>
<path fill="none" stroke="black" d="M242.48,-72.41C235.11,-63.95 225.99,-53.49 217.79,-44.08"/>
<polygon fill="black" stroke="black" points="220.49,-41.85 211.28,-36.61 215.21,-46.45 220.49,-41.85"/>
</g>
<!-- r1_node_4&#45;&gt;r1_node_15 -->
<g id="edge17" class="edge">
<title>r1_node_4&#45;&gt;r1_node_15</title>
<path fill="none" stroke="black" d="M221.75,-76.81C188.62,-65.33 138.76,-48.05 102.18,-35.37"/>
<polygon fill="black" stroke="black" points="103.79,-32.23 93.19,-32.26 101.5,-38.84 103.79,-32.23"/>
</g>
<!-- r1_node_4&#45;&gt;r1_node_2 -->
<g id="edge18" class="edge">
<title>r1_node_4&#45;&gt;r1_node_2</title>
<path fill="none" stroke="black" d="M261.12,-108.28C261.14,-115.69 260.5,-124.54 259.38,-132.86"/>
<polygon fill="black" stroke="black" points="255.96,-132.12 257.76,-142.56 262.86,-133.28 255.96,-132.12"/>
</g>
<!-- r1_node_10 -->
<g id="node16" class="node">
<title>r1_node_10</title>
<ellipse fill="none" stroke="black" cx="547.93" cy="-18" rx="54.93" ry="18"/>
<text text-anchor="middle" x="547.93" y="-12.95" font-family="Times,serif" font-size="14.00">r1_node_10</text>
</g>
<!-- r1_node_4&#45;&gt;r1_node_10 -->
<g id="edge19" class="edge">
<title>r1_node_4&#45;&gt;r1_node_10</title>
<path fill="none" stroke="black" d="M298.01,-79.12C349.27,-66.79 437.08,-45.67 493.79,-32.02"/>
<polygon fill="black" stroke="black" points="494.32,-35.5 503.22,-29.75 492.68,-28.69 494.32,-35.5"/>
</g>
<!-- r1_node_11 -->
<g id="node17" class="node">
<title>r1_node_11</title>
<ellipse fill="none" stroke="black" cx="387.93" cy="-18" rx="54.93" ry="18"/>
<text text-anchor="middle" x="387.93" y="-12.95" font-family="Times,serif" font-size="14.00">r1_node_11</text>
</g>
<!-- r1_node_4&#45;&gt;r1_node_11 -->
<g id="edge20" class="edge">
<title>r1_node_4&#45;&gt;r1_node_11</title>
<path fill="none" stroke="black" d="M284.08,-74.5C303.27,-64.24 329.25,-50.36 350.42,-39.05"/>
<polygon fill="black" stroke="black" points="351.87,-42.24 359.04,-34.44 348.57,-36.07 351.87,-42.24"/>
</g>
<!-- r1_node_2&#45;&gt;r1_node_9 -->
<g id="edge28" class="edge">
<title>r1_node_2&#45;&gt;r1_node_9</title>
<path fill="none" stroke="black" d="M242.36,-179.8C236.35,-188.47 227.96,-199.21 219.78,-208.77"/>
<polygon fill="black" stroke="black" points="217.4,-206.17 213.4,-215.98 222.65,-210.8 217.4,-206.17"/>
</g>
<!-- r1_node_2&#45;&gt;r1_node_19 -->
<g id="edge26" class="edge">
<title>r1_node_2&#45;&gt;r1_node_19</title>
<path fill="none" stroke="black" d="M290.49,-150.9C339.59,-138.67 422.44,-118.03 476.91,-104.46"/>
<polygon fill="black" stroke="black" points="477.76,-107.85 486.61,-102.04 476.06,-101.06 477.76,-107.85"/>
</g>
<!-- r1_node_2&#45;&gt;r1_node_13 -->
<g id="edge25" class="edge">
<title>r1_node_2&#45;&gt;r1_node_13</title>
<path fill="none" stroke="black" d="M278.93,-147C300.67,-136.51 330.7,-122.01 354.75,-110.4"/>
<polygon fill="black" stroke="black" points="356.15,-113.61 363.63,-106.11 353.1,-107.31 356.15,-113.61"/>
</g>
<!-- r1_node_2&#45;&gt;r1_node_4 -->
<g id="edge27" class="edge">
<title>r1_node_2&#45;&gt;r1_node_4</title>
<path fill="none" stroke="black" d="M245.75,-143.7C245.73,-136.32 246.36,-127.52 247.47,-119.25"/>
<polygon fill="black" stroke="black" points="250.89,-120.04 249.08,-109.6 243.98,-118.89 250.89,-120.04"/>
</g>
<!-- r1_node_6 -->
<g id="node18" class="node">
<title>r1_node_6</title>
<ellipse fill="none" stroke="black" cx="481.93" cy="-378" rx="50.33" ry="18"/>
<text text-anchor="middle" x="481.93" y="-372.95" font-family="Times,serif" font-size="14.00">r1_node_6</text>
</g>
<!-- r1_node_6&#45;&gt;r1_node_12 -->
<g id="edge21" class="edge">
<title>r1_node_6&#45;&gt;r1_node_12</title>
<path fill="none" stroke="black" d="M523.99,-367.87C556.25,-359.63 601.02,-345.48 635.93,-324 716.79,-274.25 802.1,-223.97 750.93,-144 709.78,-79.68 668.27,-93.27 594.93,-72 594.93,-72 369.01,-41.99 257.17,-27.13"/>
<polygon fill="black" stroke="black" points="257.94,-23.71 247.56,-25.86 257.02,-30.64 257.94,-23.71"/>
</g>
<!-- r1_node_6&#45;&gt;r1_node_13 -->
<g id="edge22" class="edge">
<title>r1_node_6&#45;&gt;r1_node_13</title>
<path fill="none" stroke="black" d="M518.31,-365.19C542.97,-356.17 575.57,-342.19 600.93,-324 641.35,-295.02 766.67,-181.44 733.93,-144 694.53,-98.93 525.81,-118.89 466.93,-108 460.94,-106.89 454.68,-105.61 448.48,-104.25"/>
<polygon fill="black" stroke="black" points="449.43,-100.88 438.91,-102.09 447.89,-107.71 449.43,-100.88"/>
</g>
<!-- r1_node_6&#45;&gt;r1_node_16 -->
<g id="edge23" class="edge">
<title>r1_node_6&#45;&gt;r1_node_16</title>
<path fill="none" stroke="black" d="M486.88,-359.7C489.01,-352.24 491.56,-343.32 493.94,-334.97"/>
<polygon fill="black" stroke="black" points="497.25,-336.14 496.63,-325.56 490.52,-334.21 497.25,-336.14"/>
</g>
<!-- r1_node_17 -->
<g id="node19" class="node">
<title>r1_node_17</title>
<ellipse fill="none" stroke="black" cx="781.93" cy="-306" rx="54.93" ry="18"/>
<text text-anchor="middle" x="781.93" y="-300.95" font-family="Times,serif" font-size="14.00">r1_node_17</text>
</g>
<!-- r1_node_6&#45;&gt;r1_node_17 -->
<g id="edge24" class="edge">
<title>r1_node_6&#45;&gt;r1_node_17</title>
<path fill="none" stroke="black" d="M523.71,-367.63C570.02,-357.19 646.89,-339.71 712.93,-324 717.86,-322.83 722.98,-321.59 728.11,-320.35"/>
<polygon fill="black" stroke="black" points="728.91,-323.76 737.79,-317.99 727.25,-316.96 728.91,-323.76"/>
</g>
<!-- r1_node_1 -->
<g id="node20" class="node">
<title>r1_node_1</title>
<ellipse fill="none" stroke="black" cx="360.93" cy="-378" rx="50.33" ry="18"/>
<text text-anchor="middle" x="360.93" y="-372.95" font-family="Times,serif" font-size="14.00">r1_node_1</text>
</g>
<!-- r1_node_1&#45;&gt;r1_node_18 -->
<g id="edge30" class="edge">
<title>r1_node_1&#45;&gt;r1_node_18</title>
<path fill="none" stroke="black" d="M399.93,-366.17C407.55,-364.1 415.49,-361.96 422.93,-360 486.32,-343.33 508.2,-355.01 565.93,-324 576.4,-318.38 638.7,-262.11 644.93,-252 656.34,-233.51 662.67,-209.69 666.11,-191.35"/>
<polygon fill="black" stroke="black" points="669.53,-192.13 667.72,-181.69 662.62,-190.98 669.53,-192.13"/>
</g>
<!-- r1_node_1&#45;&gt;r1_node_10 -->
<g id="edge29" class="edge">
<title>r1_node_1&#45;&gt;r1_node_10</title>
<path fill="none" stroke="black" d="M399.53,-365.98C407.25,-363.9 415.33,-361.81 422.93,-360 605.52,-316.56 718.59,-346.64 804.93,-180 849.71,-93.59 695.84,-48.03 606.84,-29.37"/>
<polygon fill="black" stroke="black" points="607.78,-25.99 597.28,-27.43 606.38,-32.85 607.78,-25.99"/>
</g>
</g>
</svg>
