<?xml version="1.0" encoding="UTF-8" standalone="no"?>
<!DOCTYPE svg PUBLIC "-//W3C//DTD SVG 1.1//EN"
 "http://www.w3.org/Graphics/SVG/1.1/DTD/svg11.dtd">
<!-- Generated by graphviz version 12.2.1 (20241206.2353)
 -->
<!-- Pages: 1 -->
<svg width="415pt" height="620pt"
 viewBox="0.00 0.00 415.11 620.00" xmlns="http://www.w3.org/2000/svg" xmlns:xlink="http://www.w3.org/1999/xlink">
<g id="graph0" class="graph" transform="scale(1 1) rotate(0) translate(4 616)">
<polygon fill="white" stroke="none" points="-4,4 -4,-616 411.11,-616 411.11,4 -4,4"/>
<!-- r4_node_15 -->
<g id="node1" class="node">
<title>r4_node_15</title>
<ellipse fill="none" stroke="black" cx="54.93" cy="-594" rx="54.93" ry="18"/>
<text text-anchor="middle" x="54.93" y="-588.95" font-family="Times,serif" font-size="14.00">r4_node_15</text>
</g>
<!-- r4_node_3 -->
<g id="node2" class="node">
<title>r4_node_3</title>
<ellipse fill="none" stroke="black" cx="115.93" cy="-18" rx="50.33" ry="18"/>
<text text-anchor="middle" x="115.93" y="-12.95" font-family="Times,serif" font-size="14.00">r4_node_3</text>
</g>
<!-- r4_node_15&#45;&gt;r4_node_3 -->
<g id="edge1" class="edge">
<title>r4_node_15&#45;&gt;r4_node_3</title>
<path fill="none" stroke="black" d="M56.25,-575.6C58.49,-546.06 63.29,-484.23 67.93,-432 73.63,-367.95 74.79,-351.9 81.93,-288 91.74,-200.24 105.44,-96.64 112.05,-47.55"/>
<polygon fill="black" stroke="black" points="115.5,-48.17 113.37,-37.79 108.56,-47.23 115.5,-48.17"/>
</g>
<!-- r4_node_2 -->
<g id="node3" class="node">
<title>r4_node_2</title>
<ellipse fill="none" stroke="black" cx="215.93" cy="-450" rx="50.33" ry="18"/>
<text text-anchor="middle" x="215.93" y="-444.95" font-family="Times,serif" font-size="14.00">r4_node_2</text>
</g>
<!-- r4_node_1 -->
<g id="node4" class="node">
<title>r4_node_1</title>
<ellipse fill="none" stroke="black" cx="215.93" cy="-522" rx="50.33" ry="18"/>
<text text-anchor="middle" x="215.93" y="-516.95" font-family="Times,serif" font-size="14.00">r4_node_1</text>
</g>
<!-- r4_node_2&#45;&gt;r4_node_1 -->
<g id="edge2" class="edge">
<title>r4_node_2&#45;&gt;r4_node_1</title>
<path fill="none" stroke="black" d="M221.83,-468.1C222.59,-475.37 222.84,-484.04 222.59,-492.24"/>
<polygon fill="black" stroke="black" points="219.1,-491.98 221.95,-502.19 226.08,-492.43 219.1,-491.98"/>
</g>
<!-- r4_node_9 -->
<g id="node5" class="node">
<title>r4_node_9</title>
<ellipse fill="none" stroke="black" cx="227.93" cy="-378" rx="50.33" ry="18"/>
<text text-anchor="middle" x="227.93" y="-372.95" font-family="Times,serif" font-size="14.00">r4_node_9</text>
</g>
<!-- r4_node_2&#45;&gt;r4_node_9 -->
<g id="edge3" class="edge">
<title>r4_node_2&#45;&gt;r4_node_9</title>
<path fill="none" stroke="black" d="M212.98,-431.7C213.49,-424.32 214.76,-415.52 216.45,-407.25"/>
<polygon fill="black" stroke="black" points="219.85,-408.12 218.76,-397.58 213.04,-406.49 219.85,-408.12"/>
</g>
<!-- r4_node_1&#45;&gt;r4_node_2 -->
<g id="edge20" class="edge">
<title>r4_node_1&#45;&gt;r4_node_2</title>
<path fill="none" stroke="black" d="M210.02,-503.7C209.27,-496.41 209.02,-487.73 209.29,-479.54"/>
<polygon fill="black" stroke="black" points="212.78,-479.82 209.94,-469.61 205.79,-479.36 212.78,-479.82"/>
</g>
<!-- r4_node_19 -->
<g id="node6" class="node">
<title>r4_node_19</title>
<ellipse fill="none" stroke="black" cx="198.93" cy="-594" rx="54.93" ry="18"/>
<text text-anchor="middle" x="198.93" y="-588.95" font-family="Times,serif" font-size="14.00">r4_node_19</text>
</g>
<!-- r4_node_1&#45;&gt;r4_node_19 -->
<g id="edge21" class="edge">
<title>r4_node_1&#45;&gt;r4_node_19</title>
<path fill="none" stroke="black" d="M217.65,-540.28C216.61,-547.77 214.66,-556.75 212.32,-565.15"/>
<polygon fill="black" stroke="black" points="209.01,-564.02 209.38,-574.61 215.69,-566.1 209.01,-564.02"/>
</g>
<!-- r4_node_7 -->
<g id="node8" class="node">
<title>r4_node_7</title>
<ellipse fill="none" stroke="black" cx="335.93" cy="-90" rx="50.33" ry="18"/>
<text text-anchor="middle" x="335.93" y="-84.95" font-family="Times,serif" font-size="14.00">r4_node_7</text>
</g>
<!-- r4_node_1&#45;&gt;r4_node_7 -->
<g id="edge22" class="edge">
<title>r4_node_1&#45;&gt;r4_node_7</title>
<path fill="none" stroke="black" d="M229.83,-504.37C240.66,-494.62 255.12,-481.57 265.93,-468 334.39,-382.13 358.39,-358.31 385.93,-252 398.48,-203.58 369.15,-149.37 350.04,-117.83"/>
<polygon fill="black" stroke="black" points="353.04,-116.02 344.83,-109.33 347.08,-119.68 353.04,-116.02"/>
</g>
<!-- r4_node_9&#45;&gt;r4_node_2 -->
<g id="edge12" class="edge">
<title>r4_node_9&#45;&gt;r4_node_2</title>
<path fill="none" stroke="black" d="M230.89,-396.28C230.38,-403.69 229.1,-412.54 227.39,-420.86"/>
<polygon fill="black" stroke="black" points="223.99,-420.04 225.07,-430.58 230.8,-421.67 223.99,-420.04"/>
</g>
<!-- r4_node_4 -->
<g id="node7" class="node">
<title>r4_node_4</title>
<ellipse fill="none" stroke="black" cx="175.93" cy="-306" rx="50.33" ry="18"/>
<text text-anchor="middle" x="175.93" y="-300.95" font-family="Times,serif" font-size="14.00">r4_node_4</text>
</g>
<!-- r4_node_9&#45;&gt;r4_node_4 -->
<g id="edge13" class="edge">
<title>r4_node_9&#45;&gt;r4_node_4</title>
<path fill="none" stroke="black" d="M210.07,-360.76C203.17,-352.7 195.52,-342.74 189.12,-333.6"/>
<polygon fill="black" stroke="black" points="192.08,-331.73 183.6,-325.38 186.27,-335.63 192.08,-331.73"/>
</g>
<!-- r4_node_18 -->
<g id="node11" class="node">
<title>r4_node_18</title>
<ellipse fill="none" stroke="black" cx="330.93" cy="-234" rx="54.93" ry="18"/>
<text text-anchor="middle" x="330.93" y="-228.95" font-family="Times,serif" font-size="14.00">r4_node_18</text>
</g>
<!-- r4_node_9&#45;&gt;r4_node_18 -->
<g id="edge14" class="edge">
<title>r4_node_9&#45;&gt;r4_node_18</title>
<path fill="none" stroke="black" d="M235.77,-359.87C251.2,-334.98 284.57,-288.65 307.55,-259.96"/>
<polygon fill="black" stroke="black" points="310.04,-262.44 313.65,-252.48 304.61,-258.02 310.04,-262.44"/>
</g>
<!-- r4_node_19&#45;&gt;r4_node_3 -->
<g id="edge5" class="edge">
<title>r4_node_19&#45;&gt;r4_node_3</title>
<path fill="none" stroke="black" d="M176.73,-577.12C165.3,-567.68 152.25,-554.7 144.93,-540 59.24,-367.83 118.33,-300.31 119.93,-108 120.07,-92 120.54,-87.99 119.93,-72 119.63,-64.04 119.08,-55.42 118.48,-47.49"/>
<polygon fill="black" stroke="black" points="121.98,-47.36 117.68,-37.68 115,-47.93 121.98,-47.36"/>
</g>
<!-- r4_node_19&#45;&gt;r4_node_1 -->
<g id="edge6" class="edge">
<title>r4_node_19&#45;&gt;r4_node_1</title>
<path fill="none" stroke="black" d="M197.22,-575.7C198.26,-568.24 200.19,-559.32 202.52,-550.97"/>
<polygon fill="black" stroke="black" points="205.82,-552.14 205.44,-541.55 199.13,-550.06 205.82,-552.14"/>
</g>
<!-- r4_node_19&#45;&gt;r4_node_4 -->
<g id="edge4" class="edge">
<title>r4_node_19&#45;&gt;r4_node_4</title>
<path fill="none" stroke="black" d="M174.25,-577.6C163.71,-567.86 152.95,-554.41 147.93,-540 123.26,-469.13 144.14,-379.08 161.03,-334.53"/>
<polygon fill="black" stroke="black" points="164.23,-335.96 164.75,-325.38 157.75,-333.32 164.23,-335.96"/>
</g>
<!-- r4_node_4&#45;&gt;r4_node_9 -->
<g id="edge17" class="edge">
<title>r4_node_4&#45;&gt;r4_node_9</title>
<path fill="none" stroke="black" d="M193.72,-323.14C200.59,-331.18 208.23,-341.1 214.63,-350.23"/>
<polygon fill="black" stroke="black" points="211.67,-352.1 220.15,-358.44 217.47,-348.19 211.67,-352.1"/>
</g>
<!-- r4_node_4&#45;&gt;r4_node_19 -->
<g id="edge15" class="edge">
<title>r4_node_4&#45;&gt;r4_node_19</title>
<path fill="none" stroke="black" d="M174.55,-324.27C165.99,-363.75 139.18,-463.15 165.93,-540 169.37,-549.88 175.51,-559.31 181.67,-567.4"/>
<polygon fill="black" stroke="black" points="178.81,-569.43 187.8,-575.04 184.27,-565.05 178.81,-569.43"/>
</g>
<!-- r4_node_11 -->
<g id="node12" class="node">
<title>r4_node_11</title>
<ellipse fill="none" stroke="black" cx="202.93" cy="-234" rx="54.93" ry="18"/>
<text text-anchor="middle" x="202.93" y="-228.95" font-family="Times,serif" font-size="14.00">r4_node_11</text>
</g>
<!-- r4_node_4&#45;&gt;r4_node_11 -->
<g id="edge16" class="edge">
<title>r4_node_4&#45;&gt;r4_node_11</title>
<path fill="none" stroke="black" d="M176.69,-287.7C178.88,-279.95 182.25,-270.64 185.92,-262.02"/>
<polygon fill="black" stroke="black" points="189.07,-263.55 190.05,-253 182.71,-260.63 189.07,-263.55"/>
</g>
<!-- r4_node_7&#45;&gt;r4_node_1 -->
<g id="edge9" class="edge">
<title>r4_node_7&#45;&gt;r4_node_1</title>
<path fill="none" stroke="black" d="M354.22,-107.12C379.16,-135.74 418.05,-197.54 403.93,-252 376.39,-358.31 352.39,-382.13 283.93,-468 274.79,-479.47 263.04,-490.57 251.79,-499.62"/>
<polygon fill="black" stroke="black" points="249.94,-496.63 244.13,-505.49 254.2,-502.19 249.94,-496.63"/>
</g>
<!-- r4_node_16 -->
<g id="node9" class="node">
<title>r4_node_16</title>
<ellipse fill="none" stroke="black" cx="286.93" cy="-18" rx="54.93" ry="18"/>
<text text-anchor="middle" x="286.93" y="-12.95" font-family="Times,serif" font-size="14.00">r4_node_16</text>
</g>
<!-- r4_node_7&#45;&gt;r4_node_16 -->
<g id="edge7" class="edge">
<title>r4_node_7&#45;&gt;r4_node_16</title>
<path fill="none" stroke="black" d="M318.77,-72.76C312.22,-64.7 304.99,-54.74 298.98,-45.6"/>
<polygon fill="black" stroke="black" points="302.11,-44.01 293.83,-37.41 296.19,-47.73 302.11,-44.01"/>
</g>
<!-- r4_node_17 -->
<g id="node10" class="node">
<title>r4_node_17</title>
<ellipse fill="none" stroke="black" cx="234.93" cy="-162" rx="54.93" ry="18"/>
<text text-anchor="middle" x="234.93" y="-156.95" font-family="Times,serif" font-size="14.00">r4_node_17</text>
</g>
<!-- r4_node_7&#45;&gt;r4_node_17 -->
<g id="edge8" class="edge">
<title>r4_node_7&#45;&gt;r4_node_17</title>
<path fill="none" stroke="black" d="M318.34,-107.21C305.46,-116.9 287.71,-129.31 271.84,-139.76"/>
<polygon fill="black" stroke="black" points="270.01,-136.78 263.53,-145.16 273.82,-142.65 270.01,-136.78"/>
</g>
<!-- r4_node_16&#45;&gt;r4_node_7 -->
<g id="edge10" class="edge">
<title>r4_node_16&#45;&gt;r4_node_7</title>
<path fill="none" stroke="black" d="M304.03,-35.14C310.56,-43.18 317.76,-53.1 323.77,-62.23"/>
<polygon fill="black" stroke="black" points="320.64,-63.82 328.93,-70.42 326.56,-60.09 320.64,-63.82"/>
</g>
<!-- r4_node_17&#45;&gt;r4_node_3 -->
<g id="edge23" class="edge">
<title>r4_node_17&#45;&gt;r4_node_3</title>
<path fill="none" stroke="black" d="M226.98,-143.75C217.79,-124.89 201.4,-94.39 181.93,-72 172.04,-60.62 159.48,-49.86 147.98,-41.03"/>
<polygon fill="black" stroke="black" points="150.38,-38.46 140.27,-35.3 146.21,-44.08 150.38,-38.46"/>
</g>
<!-- r4_node_17&#45;&gt;r4_node_7 -->
<g id="edge24" class="edge">
<title>r4_node_17&#45;&gt;r4_node_7</title>
<path fill="none" stroke="black" d="M252.56,-144.76C265.64,-134.93 283.74,-122.29 299.78,-111.74"/>
<polygon fill="black" stroke="black" points="301.69,-114.68 308.18,-106.31 297.88,-108.8 301.69,-114.68"/>
</g>
<!-- r4_node_17&#45;&gt;r4_node_11 -->
<g id="edge25" class="edge">
<title>r4_node_17&#45;&gt;r4_node_11</title>
<path fill="none" stroke="black" d="M232.89,-180.45C230.11,-188.27 226.03,-197.67 221.7,-206.34"/>
<polygon fill="black" stroke="black" points="218.66,-204.6 217.07,-215.07 224.84,-207.88 218.66,-204.6"/>
</g>
<!-- r4_node_18&#45;&gt;r4_node_9 -->
<g id="edge11" class="edge">
<title>r4_node_18&#45;&gt;r4_node_9</title>
<path fill="none" stroke="black" d="M323.19,-251.98C307.8,-276.84 274.34,-323.3 251.32,-352.05"/>
<polygon fill="black" stroke="black" points="248.81,-349.58 245.2,-359.54 254.24,-354.01 248.81,-349.58"/>
</g>
<!-- r4_node_11&#45;&gt;r4_node_4 -->
<g id="edge19" class="edge">
<title>r4_node_11&#45;&gt;r4_node_4</title>
<path fill="none" stroke="black" d="M202.14,-252.45C199.94,-260.18 196.58,-269.46 192.91,-278.06"/>
<polygon fill="black" stroke="black" points="189.78,-276.49 188.8,-287.03 196.15,-279.4 189.78,-276.49"/>
</g>
<!-- r4_node_11&#45;&gt;r4_node_17 -->
<g id="edge18" class="edge">
<title>r4_node_11&#45;&gt;r4_node_17</title>
<path fill="none" stroke="black" d="M204.93,-215.7C207.7,-207.87 211.79,-198.44 216.14,-189.73"/>
<polygon fill="black" stroke="black" points="219.19,-191.43 220.78,-180.96 213.01,-188.16 219.19,-191.43"/>
</g>
<!-- r4_node_8 -->
<g id="node13" class="node">
<title>r4_node_8</title>
<ellipse fill="none" stroke="black" cx="321.93" cy="-594" rx="50.33" ry="18"/>
<text text-anchor="middle" x="321.93" y="-588.95" font-family="Times,serif" font-size="14.00">r4_node_8</text>
</g>
</g>
</svg>
