<?xml version="1.0" encoding="UTF-8" standalone="no"?>
<!DOCTYPE svg PUBLIC "-//W3C//DTD SVG 1.1//EN"
 "http://www.w3.org/Graphics/SVG/1.1/DTD/svg11.dtd">
<!-- Generated by graphviz version 12.2.1 (20241206.2353)
 -->
<!-- Pages: 1 -->
<svg width="716pt" height="404pt"
 viewBox="0.00 0.00 716.02 404.00" xmlns="http://www.w3.org/2000/svg" xmlns:xlink="http://www.w3.org/1999/xlink">
<g id="graph0" class="graph" transform="scale(1 1) rotate(0) translate(4 400)">
<polygon fill="white" stroke="none" points="-4,4 -4,-400 712.02,-400 712.02,4 -4,4"/>
<!-- r3_node_15 -->
<g id="node1" class="node">
<title>r3_node_15</title>
<ellipse fill="none" stroke="black" cx="83.93" cy="-378" rx="54.93" ry="18"/>
<text text-anchor="middle" x="83.93" y="-372.95" font-family="Times,serif" font-size="14.00">r3_node_15</text>
</g>
<!-- r3_node_1 -->
<g id="node2" class="node">
<title>r3_node_1</title>
<ellipse fill="none" stroke="black" cx="70.93" cy="-306" rx="50.33" ry="18"/>
<text text-anchor="middle" x="70.93" y="-300.95" font-family="Times,serif" font-size="14.00">r3_node_1</text>
</g>
<!-- r3_node_15&#45;&gt;r3_node_1 -->
<g id="edge1" class="edge">
<title>r3_node_15&#45;&gt;r3_node_1</title>
<path fill="none" stroke="black" d="M74.91,-360.05C72.76,-352.68 70.86,-343.84 69.58,-335.51"/>
<polygon fill="black" stroke="black" points="73.08,-335.29 68.41,-325.78 66.13,-336.12 73.08,-335.29"/>
</g>
<!-- r3_node_1&#45;&gt;r3_node_15 -->
<g id="edge29" class="edge">
<title>r3_node_1&#45;&gt;r3_node_15</title>
<path fill="none" stroke="black" d="M80.01,-324.1C82.14,-331.45 84.02,-340.24 85.29,-348.53"/>
<polygon fill="black" stroke="black" points="81.78,-348.68 86.46,-358.19 88.73,-347.85 81.78,-348.68"/>
</g>
<!-- r3_node_18 -->
<g id="node7" class="node">
<title>r3_node_18</title>
<ellipse fill="none" stroke="black" cx="58.93" cy="-18" rx="54.93" ry="18"/>
<text text-anchor="middle" x="58.93" y="-12.95" font-family="Times,serif" font-size="14.00">r3_node_18</text>
</g>
<!-- r3_node_1&#45;&gt;r3_node_18 -->
<g id="edge27" class="edge">
<title>r3_node_1&#45;&gt;r3_node_18</title>
<path fill="none" stroke="black" d="M91.14,-289.17C101.59,-279.66 113.31,-266.59 118.93,-252 136.2,-207.21 129.59,-190.8 118.93,-144 110.71,-107.85 90.67,-69.96 76,-45.5"/>
<polygon fill="black" stroke="black" points="79.1,-43.87 70.89,-37.18 73.14,-47.53 79.1,-43.87"/>
</g>
<!-- r3_node_12 -->
<g id="node15" class="node">
<title>r3_node_12</title>
<ellipse fill="none" stroke="black" cx="54.93" cy="-234" rx="54.93" ry="18"/>
<text text-anchor="middle" x="54.93" y="-228.95" font-family="Times,serif" font-size="14.00">r3_node_12</text>
</g>
<!-- r3_node_1&#45;&gt;r3_node_12 -->
<g id="edge28" class="edge">
<title>r3_node_1&#45;&gt;r3_node_12</title>
<path fill="none" stroke="black" d="M61.18,-288.05C58.72,-280.68 56.44,-271.84 54.8,-263.51"/>
<polygon fill="black" stroke="black" points="58.28,-263.07 53.21,-253.77 51.37,-264.2 58.28,-263.07"/>
</g>
<!-- r3_node_9 -->
<g id="node3" class="node">
<title>r3_node_9</title>
<ellipse fill="none" stroke="black" cx="360.93" cy="-306" rx="50.33" ry="18"/>
<text text-anchor="middle" x="360.93" y="-300.95" font-family="Times,serif" font-size="14.00">r3_node_9</text>
</g>
<!-- r3_node_5 -->
<g id="node4" class="node">
<title>r3_node_5</title>
<ellipse fill="none" stroke="black" cx="216.93" cy="-378" rx="50.33" ry="18"/>
<text text-anchor="middle" x="216.93" y="-372.95" font-family="Times,serif" font-size="14.00">r3_node_5</text>
</g>
<!-- r3_node_9&#45;&gt;r3_node_5 -->
<g id="edge2" class="edge">
<title>r3_node_9&#45;&gt;r3_node_5</title>
<path fill="none" stroke="black" d="M336.11,-321.8C315.08,-332.69 284.63,-347.55 259.72,-359.1"/>
<polygon fill="black" stroke="black" points="258.43,-355.85 250.81,-363.2 261.35,-362.21 258.43,-355.85"/>
</g>
<!-- r3_node_19 -->
<g id="node5" class="node">
<title>r3_node_19</title>
<ellipse fill="none" stroke="black" cx="379.93" cy="-18" rx="54.93" ry="18"/>
<text text-anchor="middle" x="379.93" y="-12.95" font-family="Times,serif" font-size="14.00">r3_node_19</text>
</g>
<!-- r3_node_9&#45;&gt;r3_node_19 -->
<g id="edge3" class="edge">
<title>r3_node_9&#45;&gt;r3_node_19</title>
<path fill="none" stroke="black" d="M377.27,-288.6C398.67,-268.16 438.25,-233.76 478.93,-216 562.11,-179.68 621.69,-249.6 679.93,-180 704.26,-150.93 656.49,-77.35 649.93,-72 619.05,-46.77 513.61,-31.91 444,-24.62"/>
<polygon fill="black" stroke="black" points="444.53,-21.16 434.23,-23.63 443.82,-28.12 444.53,-21.16"/>
</g>
<!-- r3_node_5&#45;&gt;r3_node_9 -->
<g id="edge13" class="edge">
<title>r3_node_5&#45;&gt;r3_node_9</title>
<path fill="none" stroke="black" d="M242.17,-361.98C263.24,-351.09 293.55,-336.3 318.33,-324.81"/>
<polygon fill="black" stroke="black" points="319.57,-328.09 327.19,-320.74 316.65,-321.73 319.57,-328.09"/>
</g>
<!-- r3_node_5&#45;&gt;r3_node_18 -->
<g id="edge15" class="edge">
<title>r3_node_5&#45;&gt;r3_node_18</title>
<path fill="none" stroke="black" d="M203.27,-360.26C195.72,-350.26 186.72,-337.01 180.93,-324 133.82,-217.99 174.38,-170.39 112.93,-72 106.24,-61.28 96.94,-51.13 87.95,-42.63"/>
<polygon fill="black" stroke="black" points="90.41,-40.14 80.64,-36.04 85.73,-45.34 90.41,-40.14"/>
</g>
<!-- r3_node_4 -->
<g id="node13" class="node">
<title>r3_node_4</title>
<ellipse fill="none" stroke="black" cx="239.93" cy="-306" rx="50.33" ry="18"/>
<text text-anchor="middle" x="239.93" y="-300.95" font-family="Times,serif" font-size="14.00">r3_node_4</text>
</g>
<!-- r3_node_5&#45;&gt;r3_node_4 -->
<g id="edge14" class="edge">
<title>r3_node_5&#45;&gt;r3_node_4</title>
<path fill="none" stroke="black" d="M216.7,-359.7C218.43,-352.04 221.22,-342.85 224.36,-334.3"/>
<polygon fill="black" stroke="black" points="227.61,-335.61 228.07,-325.03 221.11,-333.01 227.61,-335.61"/>
</g>
<!-- r3_node_6 -->
<g id="node6" class="node">
<title>r3_node_6</title>
<ellipse fill="none" stroke="black" cx="318.93" cy="-162" rx="50.33" ry="18"/>
<text text-anchor="middle" x="318.93" y="-156.95" font-family="Times,serif" font-size="14.00">r3_node_6</text>
</g>
<!-- r3_node_6&#45;&gt;r3_node_18 -->
<g id="edge4" class="edge">
<title>r3_node_6&#45;&gt;r3_node_18</title>
<path fill="none" stroke="black" d="M292.19,-146.37C273.08,-135.85 246.82,-121.24 223.93,-108 197.02,-92.42 191.17,-87.02 163.93,-72 142.87,-60.38 118.95,-48.23 99.27,-38.5"/>
<polygon fill="black" stroke="black" points="100.98,-35.44 90.47,-34.17 97.9,-41.73 100.98,-35.44"/>
</g>
<!-- r3_node_10 -->
<g id="node8" class="node">
<title>r3_node_10</title>
<ellipse fill="none" stroke="black" cx="511.93" cy="-378" rx="54.93" ry="18"/>
<text text-anchor="middle" x="511.93" y="-372.95" font-family="Times,serif" font-size="14.00">r3_node_10</text>
</g>
<!-- r3_node_6&#45;&gt;r3_node_10 -->
<g id="edge5" class="edge">
<title>r3_node_6&#45;&gt;r3_node_10</title>
<path fill="none" stroke="black" d="M308.36,-180.09C293.91,-199.07 272.86,-229.95 289.93,-252 328.99,-302.47 373.27,-256.78 428.93,-288 457.25,-303.88 483.21,-330.62 498.61,-350.65"/>
<polygon fill="black" stroke="black" points="495.7,-352.6 504.39,-358.65 501.37,-348.49 495.7,-352.6"/>
</g>
<!-- r3_node_17 -->
<g id="node9" class="node">
<title>r3_node_17</title>
<ellipse fill="none" stroke="black" cx="229.93" cy="-18" rx="54.93" ry="18"/>
<text text-anchor="middle" x="229.93" y="-12.95" font-family="Times,serif" font-size="14.00">r3_node_17</text>
</g>
<!-- r3_node_6&#45;&gt;r3_node_17 -->
<g id="edge6" class="edge">
<title>r3_node_6&#45;&gt;r3_node_17</title>
<path fill="none" stroke="black" d="M316.65,-143.71C313.52,-124.83 306.51,-94.3 291.93,-72 284.38,-60.45 273.6,-50.01 263.13,-41.51"/>
<polygon fill="black" stroke="black" points="265.37,-38.82 255.31,-35.49 261.1,-44.36 265.37,-38.82"/>
</g>
<!-- r3_node_10&#45;&gt;r3_node_19 -->
<g id="edge9" class="edge">
<title>r3_node_10&#45;&gt;r3_node_19</title>
<path fill="none" stroke="black" d="M535.28,-361.46C577.2,-331.97 663.94,-263.32 696.93,-180 714.97,-134.45 711.57,-104.52 674.93,-72 641.71,-42.51 521.59,-28.78 445.25,-22.91"/>
<polygon fill="black" stroke="black" points="445.6,-19.42 435.37,-22.18 445.09,-26.4 445.6,-19.42"/>
</g>
<!-- r3_node_10&#45;&gt;r3_node_6 -->
<g id="edge7" class="edge">
<title>r3_node_10&#45;&gt;r3_node_6</title>
<path fill="none" stroke="black" d="M493.54,-360.93C474.69,-340.84 444.47,-306.81 410.93,-288 355.27,-256.78 310.99,-302.47 271.93,-252 256.68,-232.3 271.85,-205.56 289.06,-186.54"/>
<polygon fill="black" stroke="black" points="291.47,-189.09 295.96,-179.49 286.47,-184.2 291.47,-189.09"/>
</g>
<!-- r3_node_11 -->
<g id="node10" class="node">
<title>r3_node_11</title>
<ellipse fill="none" stroke="black" cx="542.93" cy="-234" rx="54.93" ry="18"/>
<text text-anchor="middle" x="542.93" y="-228.95" font-family="Times,serif" font-size="14.00">r3_node_11</text>
</g>
<!-- r3_node_10&#45;&gt;r3_node_11 -->
<g id="edge8" class="edge">
<title>r3_node_10&#45;&gt;r3_node_11</title>
<path fill="none" stroke="black" d="M511.12,-359.59C513.87,-335.5 523.12,-291.75 531.31,-263.03"/>
<polygon fill="black" stroke="black" points="534.63,-264.14 534.18,-253.56 527.93,-262.12 534.63,-264.14"/>
</g>
<!-- r3_node_11&#45;&gt;r3_node_10 -->
<g id="edge39" class="edge">
<title>r3_node_11&#45;&gt;r3_node_10</title>
<path fill="none" stroke="black" d="M543.77,-252.19C541.06,-276.21 531.78,-320.11 523.57,-348.91"/>
<polygon fill="black" stroke="black" points="520.24,-347.84 520.7,-358.42 526.94,-349.86 520.24,-347.84"/>
</g>
<!-- r3_node_3 -->
<g id="node11" class="node">
<title>r3_node_3</title>
<ellipse fill="none" stroke="black" cx="562.93" cy="-90" rx="50.33" ry="18"/>
<text text-anchor="middle" x="562.93" y="-84.95" font-family="Times,serif" font-size="14.00">r3_node_3</text>
</g>
<!-- r3_node_3&#45;&gt;r3_node_19 -->
<g id="edge11" class="edge">
<title>r3_node_3&#45;&gt;r3_node_19</title>
<path fill="none" stroke="black" d="M529.37,-76.16C500.17,-64.99 457.59,-48.7 425.35,-36.37"/>
<polygon fill="black" stroke="black" points="426.85,-33.2 416.26,-32.89 424.35,-39.74 426.85,-33.2"/>
</g>
<!-- r3_node_3&#45;&gt;r3_node_17 -->
<g id="edge10" class="edge">
<title>r3_node_3&#45;&gt;r3_node_17</title>
<path fill="none" stroke="black" d="M523.59,-78.48C514.83,-76.25 505.59,-73.97 496.93,-72 491.79,-70.83 364.05,-45.53 287.15,-30.32"/>
<polygon fill="black" stroke="black" points="288.17,-26.95 277.68,-28.44 286.81,-33.82 288.17,-26.95"/>
</g>
<!-- r3_node_7 -->
<g id="node12" class="node">
<title>r3_node_7</title>
<ellipse fill="none" stroke="black" cx="602.93" cy="-162" rx="50.33" ry="18"/>
<text text-anchor="middle" x="602.93" y="-156.95" font-family="Times,serif" font-size="14.00">r3_node_7</text>
</g>
<!-- r3_node_3&#45;&gt;r3_node_7 -->
<g id="edge12" class="edge">
<title>r3_node_3&#45;&gt;r3_node_7</title>
<path fill="none" stroke="black" d="M578.28,-107.62C583.54,-115.36 589.17,-124.76 593.83,-133.51"/>
<polygon fill="black" stroke="black" points="590.66,-134.99 598.28,-142.34 596.91,-131.84 590.66,-134.99"/>
</g>
<!-- r3_node_7&#45;&gt;r3_node_17 -->
<g id="edge19" class="edge">
<title>r3_node_7&#45;&gt;r3_node_17</title>
<path fill="none" stroke="black" d="M573.43,-147.2C553.25,-137.29 526.23,-123.06 503.93,-108 483.28,-94.04 483.25,-83.09 460.93,-72 445.4,-64.28 350.11,-43.73 286.86,-30.61"/>
<polygon fill="black" stroke="black" points="287.83,-27.23 277.33,-28.64 286.41,-34.09 287.83,-27.23"/>
</g>
<!-- r3_node_7&#45;&gt;r3_node_3 -->
<g id="edge20" class="edge">
<title>r3_node_7&#45;&gt;r3_node_3</title>
<path fill="none" stroke="black" d="M587.61,-144.41C582.29,-136.59 576.59,-127.06 571.89,-118.23"/>
<polygon fill="black" stroke="black" points="575.03,-116.68 567.42,-109.31 568.77,-119.82 575.03,-116.68"/>
</g>
<!-- r3_node_8 -->
<g id="node16" class="node">
<title>r3_node_8</title>
<ellipse fill="none" stroke="black" cx="401.93" cy="-90" rx="50.33" ry="18"/>
<text text-anchor="middle" x="401.93" y="-84.95" font-family="Times,serif" font-size="14.00">r3_node_8</text>
</g>
<!-- r3_node_7&#45;&gt;r3_node_8 -->
<g id="edge18" class="edge">
<title>r3_node_7&#45;&gt;r3_node_8</title>
<path fill="none" stroke="black" d="M565.53,-149.75C531.26,-138.48 480.73,-120.97 444.85,-108"/>
<polygon fill="black" stroke="black" points="446.24,-104.78 435.64,-104.64 443.84,-111.35 446.24,-104.78"/>
</g>
<!-- r3_node_2 -->
<g id="node17" class="node">
<title>r3_node_2</title>
<ellipse fill="none" stroke="black" cx="339.93" cy="-234" rx="50.33" ry="18"/>
<text text-anchor="middle" x="339.93" y="-228.95" font-family="Times,serif" font-size="14.00">r3_node_2</text>
</g>
<!-- r3_node_7&#45;&gt;r3_node_2 -->
<g id="edge21" class="edge">
<title>r3_node_7&#45;&gt;r3_node_2</title>
<path fill="none" stroke="black" d="M568.73,-175.57C563.46,-177.09 558.07,-178.59 552.93,-180 537.72,-184.17 450.49,-206.76 392.39,-221.07"/>
<polygon fill="black" stroke="black" points="391.89,-217.58 383.01,-223.36 393.56,-224.38 391.89,-217.58"/>
</g>
<!-- r3_node_4&#45;&gt;r3_node_5 -->
<g id="edge41" class="edge">
<title>r3_node_4&#45;&gt;r3_node_5</title>
<path fill="none" stroke="black" d="M240.17,-324.28C238.46,-331.86 235.71,-340.95 232.6,-349.43"/>
<polygon fill="black" stroke="black" points="229.38,-348.06 228.94,-358.65 235.89,-350.65 229.38,-348.06"/>
</g>
<!-- r3_node_4&#45;&gt;r3_node_2 -->
<g id="edge40" class="edge">
<title>r3_node_4&#45;&gt;r3_node_2</title>
<path fill="none" stroke="black" d="M257.33,-288.76C270.18,-279 287.94,-266.46 303.76,-255.96"/>
<polygon fill="black" stroke="black" points="305.57,-258.95 312.02,-250.55 301.74,-253.09 305.57,-258.95"/>
</g>
<!-- r3_node_16 -->
<g id="node14" class="node">
<title>r3_node_16</title>
<ellipse fill="none" stroke="black" cx="54.93" cy="-162" rx="54.93" ry="18"/>
<text text-anchor="middle" x="54.93" y="-156.95" font-family="Times,serif" font-size="14.00">r3_node_16</text>
</g>
<!-- r3_node_16&#45;&gt;r3_node_18 -->
<g id="edge17" class="edge">
<title>r3_node_16&#45;&gt;r3_node_18</title>
<path fill="none" stroke="black" d="M55.42,-143.59C56.1,-119.61 57.32,-76.14 58.13,-47.42"/>
<polygon fill="black" stroke="black" points="61.63,-47.72 58.41,-37.62 54.63,-47.52 61.63,-47.72"/>
</g>
<!-- r3_node_16&#45;&gt;r3_node_12 -->
<g id="edge16" class="edge">
<title>r3_node_16&#45;&gt;r3_node_12</title>
<path fill="none" stroke="black" d="M60.83,-180.1C61.59,-187.37 61.84,-196.04 61.59,-204.24"/>
<polygon fill="black" stroke="black" points="58.1,-203.98 60.95,-214.19 65.08,-204.43 58.1,-203.98"/>
</g>
<!-- r3_node_12&#45;&gt;r3_node_1 -->
<g id="edge36" class="edge">
<title>r3_node_12&#45;&gt;r3_node_1</title>
<path fill="none" stroke="black" d="M64.74,-252.1C67.19,-259.45 69.45,-268.24 71.07,-276.53"/>
<polygon fill="black" stroke="black" points="67.58,-276.9 72.65,-286.2 74.49,-275.77 67.58,-276.9"/>
</g>
<!-- r3_node_12&#45;&gt;r3_node_17 -->
<g id="edge38" class="edge">
<title>r3_node_12&#45;&gt;r3_node_17</title>
<path fill="none" stroke="black" d="M76.98,-217.17C89.96,-207.28 106.27,-193.83 118.93,-180 158.41,-136.88 195,-78.93 214.73,-45.61"/>
<polygon fill="black" stroke="black" points="217.5,-47.8 219.53,-37.41 211.45,-44.27 217.5,-47.8"/>
</g>
<!-- r3_node_12&#45;&gt;r3_node_16 -->
<g id="edge37" class="edge">
<title>r3_node_12&#45;&gt;r3_node_16</title>
<path fill="none" stroke="black" d="M49.02,-215.7C48.27,-208.41 48.02,-199.73 48.29,-191.54"/>
<polygon fill="black" stroke="black" points="51.78,-191.82 48.94,-181.61 44.79,-191.36 51.78,-191.82"/>
</g>
<!-- r3_node_8&#45;&gt;r3_node_19 -->
<g id="edge24" class="edge">
<title>r3_node_8&#45;&gt;r3_node_19</title>
<path fill="none" stroke="black" d="M396.5,-71.7C394.15,-64.24 391.35,-55.32 388.72,-46.97"/>
<polygon fill="black" stroke="black" points="392.1,-46.04 385.76,-37.55 385.42,-48.14 392.1,-46.04"/>
</g>
<!-- r3_node_8&#45;&gt;r3_node_18 -->
<g id="edge23" class="edge">
<title>r3_node_8&#45;&gt;r3_node_18</title>
<path fill="none" stroke="black" d="M358.84,-80.21C297.23,-67.63 183.88,-44.5 115.55,-30.56"/>
<polygon fill="black" stroke="black" points="116.56,-27.19 106.06,-28.62 115.16,-34.05 116.56,-27.19"/>
</g>
<!-- r3_node_8&#45;&gt;r3_node_17 -->
<g id="edge22" class="edge">
<title>r3_node_8&#45;&gt;r3_node_17</title>
<path fill="none" stroke="black" d="M369.58,-75.83C342.54,-64.83 303.72,-49.03 273.87,-36.88"/>
<polygon fill="black" stroke="black" points="275.3,-33.68 264.72,-33.16 272.66,-40.17 275.3,-33.68"/>
</g>
<!-- r3_node_8&#45;&gt;r3_node_7 -->
<g id="edge25" class="edge">
<title>r3_node_8&#45;&gt;r3_node_7</title>
<path fill="none" stroke="black" d="M439.72,-102.37C473.96,-113.65 524.2,-131.06 559.95,-143.98"/>
<polygon fill="black" stroke="black" points="558.52,-147.19 569.12,-147.32 560.92,-140.61 558.52,-147.19"/>
</g>
<!-- r3_node_2&#45;&gt;r3_node_19 -->
<g id="edge31" class="edge">
<title>r3_node_2&#45;&gt;r3_node_19</title>
<path fill="none" stroke="black" d="M384.95,-225.68C473.4,-211.3 661.37,-180.66 661.93,-180 691.28,-145.43 627.97,-76.49 621.93,-72 571.14,-34.21 498.75,-22.35 446.39,-19.1"/>
<polygon fill="black" stroke="black" points="446.88,-15.63 436.72,-18.6 446.52,-22.62 446.88,-15.63"/>
</g>
<!-- r3_node_2&#45;&gt;r3_node_18 -->
<g id="edge30" class="edge">
<title>r3_node_2&#45;&gt;r3_node_18</title>
<path fill="none" stroke="black" d="M356.14,-216.69C372.54,-198.14 393.43,-167.39 377.93,-144 347.71,-98.37 196.07,-53.74 113.21,-32.26"/>
<polygon fill="black" stroke="black" points="114.26,-28.92 103.71,-29.82 112.53,-35.7 114.26,-28.92"/>
</g>
<!-- r3_node_2&#45;&gt;r3_node_7 -->
<g id="edge33" class="edge">
<title>r3_node_2&#45;&gt;r3_node_7</title>
<path fill="none" stroke="black" d="M377.52,-221.71C429.83,-207.44 519.49,-184.23 534.93,-180 540,-178.61 545.3,-177.13 550.63,-175.64"/>
<polygon fill="black" stroke="black" points="551.37,-179.06 560.06,-173 549.49,-172.32 551.37,-179.06"/>
</g>
<!-- r3_node_2&#45;&gt;r3_node_4 -->
<g id="edge32" class="edge">
<title>r3_node_2&#45;&gt;r3_node_4</title>
<path fill="none" stroke="black" d="M322.69,-251.12C309.82,-260.91 291.97,-273.51 276.09,-284.06"/>
<polygon fill="black" stroke="black" points="274.23,-281.09 267.78,-289.5 278.06,-286.95 274.23,-281.09"/>
</g>
<!-- r3_node_14 -->
<g id="node18" class="node">
<title>r3_node_14</title>
<ellipse fill="none" stroke="black" cx="479.93" cy="-162" rx="54.93" ry="18"/>
<text text-anchor="middle" x="479.93" y="-156.95" font-family="Times,serif" font-size="14.00">r3_node_14</text>
</g>
<!-- r3_node_2&#45;&gt;r3_node_14 -->
<g id="edge34" class="edge">
<title>r3_node_2&#45;&gt;r3_node_14</title>
<path fill="none" stroke="black" d="M364.31,-217.98C384.27,-207.35 412.83,-193 436.62,-181.63"/>
<polygon fill="black" stroke="black" points="437.92,-184.89 445.46,-177.45 434.92,-178.57 437.92,-184.89"/>
</g>
<!-- r3_node_14&#45;&gt;r3_node_2 -->
<g id="edge26" class="edge">
<title>r3_node_14&#45;&gt;r3_node_2</title>
<path fill="none" stroke="black" d="M455.16,-178.23C434.93,-189 406.07,-203.48 382.24,-214.85"/>
<polygon fill="black" stroke="black" points="380.95,-211.59 373.4,-219.02 383.94,-217.92 380.95,-211.59"/>
</g>
<!-- r3_node_13 -->
<g id="node19" class="node">
<title>r3_node_13</title>
<ellipse fill="none" stroke="black" cx="368.93" cy="-378" rx="54.93" ry="18"/>
<text text-anchor="middle" x="368.93" y="-372.95" font-family="Times,serif" font-size="14.00">r3_node_13</text>
</g>
<!-- r3_node_13&#45;&gt;r3_node_17 -->
<g id="edge35" class="edge">
<title>r3_node_13&#45;&gt;r3_node_17</title>
<path fill="none" stroke="black" d="M386.7,-360.85C397.11,-350.84 410.11,-337.38 419.93,-324 452.29,-279.9 434.82,-248.33 478.93,-216 545.79,-167 609.28,-244.02 661.93,-180 672.1,-167.64 665.95,-159.49 661.93,-144 621.52,11.94 475.07,-61.05 315.93,-36 306.21,-34.47 295.91,-32.63 285.95,-30.73"/>
<polygon fill="black" stroke="black" points="286.87,-27.34 276.38,-28.86 285.53,-34.21 286.87,-27.34"/>
</g>
</g>
</svg>
