<?xml version="1.0" encoding="UTF-8" standalone="no"?>
<!DOCTYPE svg PUBLIC "-//W3C//DTD SVG 1.1//EN"
 "http://www.w3.org/Graphics/SVG/1.1/DTD/svg11.dtd">
<!-- Generated by graphviz version 12.2.1 (20241206.2353)
 -->
<!-- Pages: 1 -->
<svg width="822pt" height="260pt"
 viewBox="0.00 0.00 822.26 260.00" xmlns="http://www.w3.org/2000/svg" xmlns:xlink="http://www.w3.org/1999/xlink">
<g id="graph0" class="graph" transform="scale(1 1) rotate(0) translate(4 256)">
<polygon fill="white" stroke="none" points="-4,4 -4,-256 818.26,-256 818.26,4 -4,4"/>
<!-- r2_node_7 -->
<g id="node1" class="node">
<title>r2_node_7</title>
<ellipse fill="none" stroke="black" cx="97.33" cy="-234" rx="50.33" ry="18"/>
<text text-anchor="middle" x="97.33" y="-228.95" font-family="Times,serif" font-size="14.00">r2_node_7</text>
</g>
<!-- r2_node_2 -->
<g id="node2" class="node">
<title>r2_node_2</title>
<ellipse fill="none" stroke="black" cx="72.33" cy="-162" rx="50.33" ry="18"/>
<text text-anchor="middle" x="72.33" y="-156.95" font-family="Times,serif" font-size="14.00">r2_node_2</text>
</g>
<!-- r2_node_7&#45;&gt;r2_node_2 -->
<g id="edge1" class="edge">
<title>r2_node_7&#45;&gt;r2_node_2</title>
<path fill="none" stroke="black" d="M85.4,-216.05C81.94,-208.6 78.49,-199.64 75.77,-191.22"/>
<polygon fill="black" stroke="black" points="79.16,-190.35 73.01,-181.73 72.44,-192.31 79.16,-190.35"/>
</g>
<!-- r2_node_19 -->
<g id="node3" class="node">
<title>r2_node_19</title>
<ellipse fill="none" stroke="black" cx="250.33" cy="-162" rx="54.93" ry="18"/>
<text text-anchor="middle" x="250.33" y="-156.95" font-family="Times,serif" font-size="14.00">r2_node_19</text>
</g>
<!-- r2_node_7&#45;&gt;r2_node_19 -->
<g id="edge2" class="edge">
<title>r2_node_7&#45;&gt;r2_node_19</title>
<path fill="none" stroke="black" d="M127.56,-219.17C150.82,-208.52 183.24,-193.69 208.92,-181.94"/>
<polygon fill="black" stroke="black" points="210.1,-185.25 217.74,-177.91 207.19,-178.89 210.1,-185.25"/>
</g>
<!-- r2_node_21 -->
<g id="node4" class="node">
<title>r2_node_21</title>
<ellipse fill="none" stroke="black" cx="381.33" cy="-162" rx="54.93" ry="18"/>
<text text-anchor="middle" x="381.33" y="-156.95" font-family="Times,serif" font-size="14.00">r2_node_21</text>
</g>
<!-- r2_node_7&#45;&gt;r2_node_21 -->
<g id="edge3" class="edge">
<title>r2_node_7&#45;&gt;r2_node_21</title>
<path fill="none" stroke="black" d="M138.15,-223.14C181.79,-212.58 252.99,-195.27 314.33,-180 318.66,-178.92 323.14,-177.8 327.65,-176.66"/>
<polygon fill="black" stroke="black" points="328.5,-180.06 337.34,-174.22 326.79,-173.27 328.5,-180.06"/>
</g>
<!-- r2_node_23 -->
<g id="node5" class="node">
<title>r2_node_23</title>
<ellipse fill="none" stroke="black" cx="365.33" cy="-18" rx="54.93" ry="18"/>
<text text-anchor="middle" x="365.33" y="-12.95" font-family="Times,serif" font-size="14.00">r2_node_23</text>
</g>
<!-- r2_node_7&#45;&gt;r2_node_23 -->
<g id="edge4" class="edge">
<title>r2_node_7&#45;&gt;r2_node_23</title>
<path fill="none" stroke="black" d="M109.09,-216.28C124.41,-195.83 153.2,-161.75 186.33,-144 257.85,-105.67 313.91,-170.78 365.33,-108 378.95,-91.37 377.76,-66.53 373.84,-47.31"/>
<polygon fill="black" stroke="black" points="377.27,-46.57 371.51,-37.67 370.46,-48.21 377.27,-46.57"/>
</g>
<!-- r2_node_2&#45;&gt;r2_node_7 -->
<g id="edge5" class="edge">
<title>r2_node_2&#45;&gt;r2_node_7</title>
<path fill="none" stroke="black" d="M84.11,-179.62C87.63,-187.19 91.17,-196.35 93.93,-204.93"/>
<polygon fill="black" stroke="black" points="90.49,-205.62 96.64,-214.24 97.21,-203.66 90.49,-205.62"/>
</g>
<!-- r2_node_9 -->
<g id="node6" class="node">
<title>r2_node_9</title>
<ellipse fill="none" stroke="black" cx="50.33" cy="-90" rx="50.33" ry="18"/>
<text text-anchor="middle" x="50.33" y="-84.95" font-family="Times,serif" font-size="14.00">r2_node_9</text>
</g>
<!-- r2_node_2&#45;&gt;r2_node_9 -->
<g id="edge6" class="edge">
<title>r2_node_2&#45;&gt;r2_node_9</title>
<path fill="none" stroke="black" d="M61.12,-144.05C57.99,-136.6 54.92,-127.64 52.56,-119.22"/>
<polygon fill="black" stroke="black" points="56.01,-118.61 50.21,-109.74 49.22,-120.29 56.01,-118.61"/>
</g>
<!-- r2_node_14 -->
<g id="node7" class="node">
<title>r2_node_14</title>
<ellipse fill="none" stroke="black" cx="173.33" cy="-90" rx="54.93" ry="18"/>
<text text-anchor="middle" x="173.33" y="-84.95" font-family="Times,serif" font-size="14.00">r2_node_14</text>
</g>
<!-- r2_node_2&#45;&gt;r2_node_14 -->
<g id="edge7" class="edge">
<title>r2_node_2&#45;&gt;r2_node_14</title>
<path fill="none" stroke="black" d="M94.74,-145.46C108.51,-135.93 126.35,-123.56 141.56,-113.02"/>
<polygon fill="black" stroke="black" points="143.16,-116.17 149.38,-107.6 139.17,-110.42 143.16,-116.17"/>
</g>
<!-- r2_node_30 -->
<g id="node8" class="node">
<title>r2_node_30</title>
<ellipse fill="none" stroke="black" cx="301.33" cy="-90" rx="54.93" ry="18"/>
<text text-anchor="middle" x="301.33" y="-84.95" font-family="Times,serif" font-size="14.00">r2_node_30</text>
</g>
<!-- r2_node_2&#45;&gt;r2_node_30 -->
<g id="edge8" class="edge">
<title>r2_node_2&#45;&gt;r2_node_30</title>
<path fill="none" stroke="black" d="M109.63,-149.6C148.14,-137.83 208.45,-119.39 251.13,-106.34"/>
<polygon fill="black" stroke="black" points="252.14,-109.7 260.68,-103.43 250.09,-103 252.14,-109.7"/>
</g>
<!-- r2_node_9&#45;&gt;r2_node_2 -->
<g id="edge12" class="edge">
<title>r2_node_9&#45;&gt;r2_node_2</title>
<path fill="none" stroke="black" d="M61.4,-107.62C64.56,-115.1 67.67,-124.14 70.06,-132.64"/>
<polygon fill="black" stroke="black" points="66.63,-133.37 72.44,-142.23 73.42,-131.68 66.63,-133.37"/>
</g>
<!-- r2_node_1 -->
<g id="node13" class="node">
<title>r2_node_1</title>
<ellipse fill="none" stroke="black" cx="223.33" cy="-18" rx="50.33" ry="18"/>
<text text-anchor="middle" x="223.33" y="-12.95" font-family="Times,serif" font-size="14.00">r2_node_1</text>
</g>
<!-- r2_node_9&#45;&gt;r2_node_1 -->
<g id="edge13" class="edge">
<title>r2_node_9&#45;&gt;r2_node_1</title>
<path fill="none" stroke="black" d="M82.87,-75.83C110.41,-64.69 150.12,-48.62 180.29,-36.41"/>
<polygon fill="black" stroke="black" points="181.57,-39.67 189.53,-32.68 178.95,-33.18 181.57,-39.67"/>
</g>
<!-- r2_node_10 -->
<g id="node15" class="node">
<title>r2_node_10</title>
<ellipse fill="none" stroke="black" cx="63.33" cy="-18" rx="54.93" ry="18"/>
<text text-anchor="middle" x="63.33" y="-12.95" font-family="Times,serif" font-size="14.00">r2_node_10</text>
</g>
<!-- r2_node_9&#45;&gt;r2_node_10 -->
<g id="edge14" class="edge">
<title>r2_node_9&#45;&gt;r2_node_10</title>
<path fill="none" stroke="black" d="M53.54,-71.7C54.91,-64.32 56.54,-55.52 58.08,-47.25"/>
<polygon fill="black" stroke="black" points="61.49,-48.06 59.87,-37.59 54.61,-46.79 61.49,-48.06"/>
</g>
<!-- r2_node_17 -->
<g id="node9" class="node">
<title>r2_node_17</title>
<ellipse fill="none" stroke="black" cx="633.33" cy="-90" rx="54.93" ry="18"/>
<text text-anchor="middle" x="633.33" y="-84.95" font-family="Times,serif" font-size="14.00">r2_node_17</text>
</g>
<!-- r2_node_3 -->
<g id="node10" class="node">
<title>r2_node_3</title>
<ellipse fill="none" stroke="black" cx="229.33" cy="-234" rx="50.33" ry="18"/>
<text text-anchor="middle" x="229.33" y="-228.95" font-family="Times,serif" font-size="14.00">r2_node_3</text>
</g>
<!-- r2_node_3&#45;&gt;r2_node_21 -->
<g id="edge9" class="edge">
<title>r2_node_3&#45;&gt;r2_node_21</title>
<path fill="none" stroke="black" d="M259.36,-219.17C282.47,-208.52 314.68,-193.69 340.19,-181.94"/>
<polygon fill="black" stroke="black" points="341.32,-185.28 348.94,-177.91 338.39,-178.92 341.32,-185.28"/>
</g>
<!-- r2_node_24 -->
<g id="node11" class="node">
<title>r2_node_24</title>
<ellipse fill="none" stroke="black" cx="467.33" cy="-90" rx="54.93" ry="18"/>
<text text-anchor="middle" x="467.33" y="-84.95" font-family="Times,serif" font-size="14.00">r2_node_24</text>
</g>
<!-- r2_node_3&#45;&gt;r2_node_24 -->
<g id="edge10" class="edge">
<title>r2_node_3&#45;&gt;r2_node_24</title>
<path fill="none" stroke="black" d="M269.09,-222.65C277.73,-220.43 286.83,-218.11 295.33,-216 361.86,-199.45 396.68,-228.31 445.33,-180 461.13,-164.3 466.23,-139.17 467.61,-119.61"/>
<polygon fill="black" stroke="black" points="471.1,-119.92 467.99,-109.79 464.1,-119.65 471.1,-119.92"/>
</g>
<!-- r2_node_5 -->
<g id="node12" class="node">
<title>r2_node_5</title>
<ellipse fill="none" stroke="black" cx="519.33" cy="-18" rx="50.33" ry="18"/>
<text text-anchor="middle" x="519.33" y="-12.95" font-family="Times,serif" font-size="14.00">r2_node_5</text>
</g>
<!-- r2_node_3&#45;&gt;r2_node_5 -->
<g id="edge11" class="edge">
<title>r2_node_3&#45;&gt;r2_node_5</title>
<path fill="none" stroke="black" d="M268.69,-222.54C277.44,-220.3 286.68,-218.01 295.33,-216 371.82,-198.2 400.51,-219.61 468.33,-180 505.05,-158.56 516.37,-147.8 531.33,-108 538.66,-88.48 535.06,-65.08 529.95,-47.16"/>
<polygon fill="black" stroke="black" points="533.31,-46.18 526.93,-37.73 526.64,-48.32 533.31,-46.18"/>
</g>
<!-- r2_node_26 -->
<g id="node14" class="node">
<title>r2_node_26</title>
<ellipse fill="none" stroke="black" cx="679.33" cy="-18" rx="54.93" ry="18"/>
<text text-anchor="middle" x="679.33" y="-12.95" font-family="Times,serif" font-size="14.00">r2_node_26</text>
</g>
<!-- r2_node_8 -->
<g id="node16" class="node">
<title>r2_node_8</title>
<ellipse fill="none" stroke="black" cx="354.33" cy="-234" rx="50.33" ry="18"/>
<text text-anchor="middle" x="354.33" y="-228.95" font-family="Times,serif" font-size="14.00">r2_node_8</text>
</g>
<!-- r2_node_8&#45;&gt;r2_node_21 -->
<g id="edge18" class="edge">
<title>r2_node_8&#45;&gt;r2_node_21</title>
<path fill="none" stroke="black" d="M361,-215.7C363.91,-208.15 367.4,-199.12 370.65,-190.68"/>
<polygon fill="black" stroke="black" points="373.85,-192.11 374.19,-181.52 367.32,-189.59 373.85,-192.11"/>
</g>
<!-- r2_node_8&#45;&gt;r2_node_17 -->
<g id="edge17" class="edge">
<title>r2_node_8&#45;&gt;r2_node_17</title>
<path fill="none" stroke="black" d="M400.33,-226.29C439.53,-219.12 496.34,-205.21 540.33,-180 569.08,-163.52 595.73,-136.27 613.06,-116.26"/>
<polygon fill="black" stroke="black" points="615.59,-118.69 619.37,-108.79 610.24,-114.17 615.59,-118.69"/>
</g>
<!-- r2_node_8&#45;&gt;r2_node_26 -->
<g id="edge15" class="edge">
<title>r2_node_8&#45;&gt;r2_node_26</title>
<path fill="none" stroke="black" d="M404.82,-233.03C485.23,-229.92 639.21,-210.2 697.33,-108 708.03,-89.19 702.07,-64.96 694.25,-46.53"/>
<polygon fill="black" stroke="black" points="697.46,-45.12 690.05,-37.54 691.11,-48.08 697.46,-45.12"/>
</g>
<!-- r2_node_12 -->
<g id="node17" class="node">
<title>r2_node_12</title>
<ellipse fill="none" stroke="black" cx="759.33" cy="-162" rx="54.93" ry="18"/>
<text text-anchor="middle" x="759.33" y="-156.95" font-family="Times,serif" font-size="14.00">r2_node_12</text>
</g>
<!-- r2_node_8&#45;&gt;r2_node_12 -->
<g id="edge16" class="edge">
<title>r2_node_8&#45;&gt;r2_node_12</title>
<path fill="none" stroke="black" d="M401.02,-226.91C466.12,-218.14 587.72,-200.69 690.33,-180 695.57,-178.94 701.01,-177.76 706.44,-176.51"/>
<polygon fill="black" stroke="black" points="707.09,-179.96 716.02,-174.26 705.48,-173.14 707.09,-179.96"/>
</g>
</g>
</svg>
