<?xml version="1.0" encoding="UTF-8" standalone="no"?>
<!DOCTYPE svg PUBLIC "-//W3C//DTD SVG 1.1//EN"
 "http://www.w3.org/Graphics/SVG/1.1/DTD/svg11.dtd">
<!-- Generated by graphviz version 12.2.1 (20241206.2353)
 -->
<!-- Pages: 1 -->
<svg width="705pt" height="764pt"
 viewBox="0.00 0.00 704.57 764.00" xmlns="http://www.w3.org/2000/svg" xmlns:xlink="http://www.w3.org/1999/xlink">
<g id="graph0" class="graph" transform="scale(1 1) rotate(0) translate(4 760)">
<polygon fill="white" stroke="none" points="-4,4 -4,-760 700.57,-760 700.57,4 -4,4"/>
<!-- r1_node_2 -->
<g id="node1" class="node">
<title>r1_node_2</title>
<ellipse fill="none" stroke="black" cx="50.33" cy="-738" rx="50.33" ry="18"/>
<text text-anchor="middle" x="50.33" y="-732.95" font-family="Times,serif" font-size="14.00">r1_node_2</text>
</g>
<!-- r1_node_1 -->
<g id="node2" class="node">
<title>r1_node_1</title>
<ellipse fill="none" stroke="black" cx="195.33" cy="-666" rx="50.33" ry="18"/>
<text text-anchor="middle" x="195.33" y="-660.95" font-family="Times,serif" font-size="14.00">r1_node_1</text>
</g>
<!-- r1_node_2&#45;&gt;r1_node_1 -->
<g id="edge1" class="edge">
<title>r1_node_2&#45;&gt;r1_node_1</title>
<path fill="none" stroke="black" d="M75.44,-722.15C96.7,-711.23 127.44,-696.34 152.53,-684.78"/>
<polygon fill="black" stroke="black" points="153.87,-688.02 161.51,-680.68 150.96,-681.65 153.87,-688.02"/>
</g>
<!-- r1_node_9 -->
<g id="node3" class="node">
<title>r1_node_9</title>
<ellipse fill="none" stroke="black" cx="191.33" cy="-162" rx="50.33" ry="18"/>
<text text-anchor="middle" x="191.33" y="-156.95" font-family="Times,serif" font-size="14.00">r1_node_9</text>
</g>
<!-- r1_node_2&#45;&gt;r1_node_9 -->
<g id="edge2" class="edge">
<title>r1_node_2&#45;&gt;r1_node_9</title>
<path fill="none" stroke="black" d="M45.27,-719.83C44.89,-701.83 48.38,-672.77 53.33,-648 88.53,-471.6 150.85,-264.28 178.38,-190.64"/>
<polygon fill="black" stroke="black" points="181.61,-192 181.94,-181.41 175.08,-189.48 181.61,-192"/>
</g>
<!-- r1_node_13 -->
<g id="node4" class="node">
<title>r1_node_13</title>
<ellipse fill="none" stroke="black" cx="249.33" cy="-378" rx="54.93" ry="18"/>
<text text-anchor="middle" x="249.33" y="-372.95" font-family="Times,serif" font-size="14.00">r1_node_13</text>
</g>
<!-- r1_node_2&#45;&gt;r1_node_13 -->
<g id="edge3" class="edge">
<title>r1_node_2&#45;&gt;r1_node_13</title>
<path fill="none" stroke="black" d="M50.81,-719.73C59.59,-670.26 104.49,-525.59 183.33,-432 192.44,-421.18 203.63,-410.35 214.3,-401.32"/>
<polygon fill="black" stroke="black" points="216.33,-404.17 221.89,-395.16 211.92,-398.74 216.33,-404.17"/>
</g>
<!-- r1_node_19 -->
<g id="node5" class="node">
<title>r1_node_19</title>
<ellipse fill="none" stroke="black" cx="629.33" cy="-162" rx="54.93" ry="18"/>
<text text-anchor="middle" x="629.33" y="-156.95" font-family="Times,serif" font-size="14.00">r1_node_19</text>
</g>
<!-- r1_node_2&#45;&gt;r1_node_19 -->
<g id="edge4" class="edge">
<title>r1_node_2&#45;&gt;r1_node_19</title>
<path fill="none" stroke="black" d="M94.92,-729.35C135.62,-721.74 196.43,-707.7 245.33,-684 436.02,-591.57 478.63,-548.93 625.33,-396 661.94,-357.83 686.21,-339.76 675.33,-288 667.92,-252.79 649.97,-215.4 638.45,-190.78"/>
<polygon fill="black" stroke="black" points="641.67,-189.42 634.31,-181.8 635.32,-192.35 641.67,-189.42"/>
</g>
<!-- r1_node_1&#45;&gt;r1_node_2 -->
<g id="edge42" class="edge">
<title>r1_node_1&#45;&gt;r1_node_2</title>
<path fill="none" stroke="black" d="M170.29,-681.8C149.1,-692.69 118.45,-707.55 93.37,-719.1"/>
<polygon fill="black" stroke="black" points="92.03,-715.87 84.39,-723.21 94.94,-722.24 92.03,-715.87"/>
</g>
<!-- r1_node_10 -->
<g id="node6" class="node">
<title>r1_node_10</title>
<ellipse fill="none" stroke="black" cx="430.33" cy="-162" rx="54.93" ry="18"/>
<text text-anchor="middle" x="430.33" y="-156.95" font-family="Times,serif" font-size="14.00">r1_node_10</text>
</g>
<!-- r1_node_1&#45;&gt;r1_node_10 -->
<g id="edge43" class="edge">
<title>r1_node_1&#45;&gt;r1_node_10</title>
<path fill="none" stroke="black" d="M186.84,-648.04C178.44,-618.12 171.38,-554.37 187.33,-504 199.09,-466.86 208.26,-457.94 237.33,-432 262.55,-409.5 277.27,-416.26 304.33,-396 340.3,-369.06 348.2,-359.83 375.33,-324 397.56,-294.64 405.91,-287.32 416.33,-252 422.13,-232.34 423.26,-209.2 424.26,-191.45"/>
<polygon fill="black" stroke="black" points="427.74,-191.84 424.88,-181.63 420.75,-191.39 427.74,-191.84"/>
</g>
<!-- r1_node_18 -->
<g id="node15" class="node">
<title>r1_node_18</title>
<ellipse fill="none" stroke="black" cx="282.33" cy="-594" rx="54.93" ry="18"/>
<text text-anchor="middle" x="282.33" y="-588.95" font-family="Times,serif" font-size="14.00">r1_node_18</text>
</g>
<!-- r1_node_1&#45;&gt;r1_node_18 -->
<g id="edge41" class="edge">
<title>r1_node_1&#45;&gt;r1_node_18</title>
<path fill="none" stroke="black" d="M210.11,-648.41C220.68,-639.08 235.15,-627.31 248.41,-617.2"/>
<polygon fill="black" stroke="black" points="250.22,-620.22 256.12,-611.42 246.02,-614.61 250.22,-620.22"/>
</g>
<!-- r1_node_9&#45;&gt;r1_node_2 -->
<g id="edge30" class="edge">
<title>r1_node_9&#45;&gt;r1_node_2</title>
<path fill="none" stroke="black" d="M189.35,-180.43C175.29,-243.02 108.33,-462.59 71.33,-648 67.31,-668.13 64.25,-691.08 61.01,-708.64"/>
<polygon fill="black" stroke="black" points="57.59,-707.85 59.02,-718.35 64.45,-709.26 57.59,-707.85"/>
</g>
<!-- r1_node_9&#45;&gt;r1_node_13 -->
<g id="edge33" class="edge">
<title>r1_node_9&#45;&gt;r1_node_13</title>
<path fill="none" stroke="black" d="M207.2,-179.39C213.28,-189.7 219.27,-203.4 223.33,-216 237.95,-261.39 248.37,-315.93 251.38,-348.46"/>
<polygon fill="black" stroke="black" points="247.87,-348.54 252.05,-358.28 254.86,-348.06 247.87,-348.54"/>
</g>
<!-- r1_node_12 -->
<g id="node8" class="node">
<title>r1_node_12</title>
<ellipse fill="none" stroke="black" cx="361.33" cy="-234" rx="54.93" ry="18"/>
<text text-anchor="middle" x="361.33" y="-228.95" font-family="Times,serif" font-size="14.00">r1_node_12</text>
</g>
<!-- r1_node_9&#45;&gt;r1_node_12 -->
<g id="edge32" class="edge">
<title>r1_node_9&#45;&gt;r1_node_12</title>
<path fill="none" stroke="black" d="M226.4,-175.27C254,-185.96 292.34,-201.63 321.16,-213.96"/>
<polygon fill="black" stroke="black" points="319.74,-217.15 330.31,-217.9 322.51,-210.73 319.74,-217.15"/>
</g>
<!-- r1_node_8 -->
<g id="node18" class="node">
<title>r1_node_8</title>
<ellipse fill="none" stroke="black" cx="201.33" cy="-90" rx="50.33" ry="18"/>
<text text-anchor="middle" x="201.33" y="-84.95" font-family="Times,serif" font-size="14.00">r1_node_8</text>
</g>
<!-- r1_node_9&#45;&gt;r1_node_8 -->
<g id="edge31" class="edge">
<title>r1_node_9&#45;&gt;r1_node_8</title>
<path fill="none" stroke="black" d="M187.88,-143.7C188.18,-136.32 189.19,-127.52 190.65,-119.25"/>
<polygon fill="black" stroke="black" points="194.05,-120.09 192.68,-109.59 187.2,-118.66 194.05,-120.09"/>
</g>
<!-- r1_node_13&#45;&gt;r1_node_2 -->
<g id="edge10" class="edge">
<title>r1_node_13&#45;&gt;r1_node_2</title>
<path fill="none" stroke="black" d="M237.06,-395.58C226.72,-405.52 212.47,-418.77 201.33,-432 127.4,-519.77 83.31,-652.46 62.73,-709.43"/>
<polygon fill="black" stroke="black" points="59.5,-708.07 59.33,-718.66 66.07,-710.49 59.5,-708.07"/>
</g>
<!-- r1_node_13&#45;&gt;r1_node_9 -->
<g id="edge11" class="edge">
<title>r1_node_13&#45;&gt;r1_node_9</title>
<path fill="none" stroke="black" d="M241.29,-359.79C232.97,-330.02 221.82,-267.18 205.33,-216 202.65,-207.69 199.14,-198.91 196.02,-190.94"/>
<polygon fill="black" stroke="black" points="199.35,-189.86 192.54,-181.75 192.81,-192.34 199.35,-189.86"/>
</g>
<!-- r1_node_3 -->
<g id="node11" class="node">
<title>r1_node_3</title>
<ellipse fill="none" stroke="black" cx="305.33" cy="-450" rx="50.33" ry="18"/>
<text text-anchor="middle" x="305.33" y="-444.95" font-family="Times,serif" font-size="14.00">r1_node_3</text>
</g>
<!-- r1_node_13&#45;&gt;r1_node_3 -->
<g id="edge9" class="edge">
<title>r1_node_13&#45;&gt;r1_node_3</title>
<path fill="none" stroke="black" d="M268.18,-395.31C275.65,-403.5 284,-413.62 290.97,-422.86"/>
<polygon fill="black" stroke="black" points="288.05,-424.8 296.76,-430.83 293.71,-420.68 288.05,-424.8"/>
</g>
<!-- r1_node_6 -->
<g id="node12" class="node">
<title>r1_node_6</title>
<ellipse fill="none" stroke="black" cx="325.33" cy="-306" rx="50.33" ry="18"/>
<text text-anchor="middle" x="325.33" y="-300.95" font-family="Times,serif" font-size="14.00">r1_node_6</text>
</g>
<!-- r1_node_13&#45;&gt;r1_node_6 -->
<g id="edge12" class="edge">
<title>r1_node_13&#45;&gt;r1_node_6</title>
<path fill="none" stroke="black" d="M261.85,-360.05C270.82,-350.9 283.07,-339.47 294.47,-329.57"/>
<polygon fill="black" stroke="black" points="296.45,-332.48 301.8,-323.34 291.92,-327.14 296.45,-332.48"/>
</g>
<!-- r1_node_19&#45;&gt;r1_node_2 -->
<g id="edge15" class="edge">
<title>r1_node_19&#45;&gt;r1_node_2</title>
<path fill="none" stroke="black" d="M645.37,-179.63C661.71,-202.9 684.69,-246.93 693.33,-288 704.21,-339.76 679.94,-357.83 643.33,-396 496.63,-548.93 454.02,-591.57 263.33,-684 214.1,-707.86 152.81,-721.93 108.53,-729.5"/>
<polygon fill="black" stroke="black" points="108.17,-726.01 98.87,-731.09 109.3,-732.92 108.17,-726.01"/>
</g>
<!-- r1_node_19&#45;&gt;r1_node_12 -->
<g id="edge14" class="edge">
<title>r1_node_19&#45;&gt;r1_node_12</title>
<path fill="none" stroke="black" d="M589.69,-174.71C543.69,-187.25 467.79,-207.09 416.17,-220.08"/>
<polygon fill="black" stroke="black" points="415.54,-216.63 406.69,-222.45 417.24,-223.42 415.54,-216.63"/>
</g>
<!-- r1_node_11 -->
<g id="node10" class="node">
<title>r1_node_11</title>
<ellipse fill="none" stroke="black" cx="634.33" cy="-90" rx="54.93" ry="18"/>
<text text-anchor="middle" x="634.33" y="-84.95" font-family="Times,serif" font-size="14.00">r1_node_11</text>
</g>
<!-- r1_node_19&#45;&gt;r1_node_11 -->
<g id="edge16" class="edge">
<title>r1_node_19&#45;&gt;r1_node_11</title>
<path fill="none" stroke="black" d="M624.65,-143.7C624.41,-136.32 624.8,-127.52 625.67,-119.25"/>
<polygon fill="black" stroke="black" points="629.1,-119.99 627,-109.6 622.17,-119.03 629.1,-119.99"/>
</g>
<!-- r1_node_19&#45;&gt;r1_node_3 -->
<g id="edge13" class="edge">
<title>r1_node_19&#45;&gt;r1_node_3</title>
<path fill="none" stroke="black" d="M624.13,-180.24C615.35,-198.8 602.04,-228.81 614.33,-252 627.66,-277.16 654,-262.84 667.33,-288 674.82,-302.14 675.13,-310.03 667.33,-324 600.85,-442.97 513.01,-400.88 380.33,-432 373.37,-433.63 366.01,-435.44 358.72,-437.25"/>
<polygon fill="black" stroke="black" points="358.1,-433.8 349.24,-439.62 359.79,-440.6 358.1,-433.8"/>
</g>
<!-- r1_node_10&#45;&gt;r1_node_1 -->
<g id="edge7" class="edge">
<title>r1_node_10&#45;&gt;r1_node_1</title>
<path fill="none" stroke="black" d="M438.33,-180.12C441.54,-198.34 441.47,-227.81 434.33,-252 423.91,-287.32 415.56,-294.64 393.33,-324 366.2,-359.83 358.3,-369.06 322.33,-396 295.27,-416.26 280.55,-409.5 255.33,-432 226.26,-457.94 217.09,-466.86 205.33,-504 191.26,-548.42 195.09,-603.26 196.99,-636.11"/>
<polygon fill="black" stroke="black" points="193.49,-636.24 197.5,-646.05 200.48,-635.88 193.49,-636.24"/>
</g>
<!-- r1_node_20 -->
<g id="node7" class="node">
<title>r1_node_20</title>
<ellipse fill="none" stroke="black" cx="450.33" cy="-90" rx="54.93" ry="18"/>
<text text-anchor="middle" x="450.33" y="-84.95" font-family="Times,serif" font-size="14.00">r1_node_20</text>
</g>
<!-- r1_node_10&#45;&gt;r1_node_20 -->
<g id="edge5" class="edge">
<title>r1_node_10&#45;&gt;r1_node_20</title>
<path fill="none" stroke="black" d="M429.36,-143.7C430.73,-136.15 433.08,-127.12 435.8,-118.68"/>
<polygon fill="black" stroke="black" points="439,-120.13 439.04,-109.53 432.4,-117.79 439,-120.13"/>
</g>
<!-- r1_node_10&#45;&gt;r1_node_12 -->
<g id="edge6" class="edge">
<title>r1_node_10&#45;&gt;r1_node_12</title>
<path fill="none" stroke="black" d="M419.63,-179.8C411.86,-188.65 401.2,-199.65 391.06,-209.35"/>
<polygon fill="black" stroke="black" points="388.77,-206.7 383.85,-216.08 393.55,-211.82 388.77,-206.7"/>
</g>
<!-- r1_node_20&#45;&gt;r1_node_10 -->
<g id="edge22" class="edge">
<title>r1_node_20&#45;&gt;r1_node_10</title>
<path fill="none" stroke="black" d="M451.3,-108.28C449.92,-115.86 447.56,-124.95 444.82,-133.43"/>
<polygon fill="black" stroke="black" points="441.6,-132.03 441.55,-142.63 448.2,-134.37 441.6,-132.03"/>
</g>
<!-- r1_node_12&#45;&gt;r1_node_9 -->
<g id="edge26" class="edge">
<title>r1_node_12&#45;&gt;r1_node_9</title>
<path fill="none" stroke="black" d="M324.78,-220.16C297.02,-209.38 259.05,-193.84 230.64,-181.68"/>
<polygon fill="black" stroke="black" points="232.22,-178.55 221.66,-177.8 229.45,-184.98 232.22,-178.55"/>
</g>
<!-- r1_node_12&#45;&gt;r1_node_19 -->
<g id="edge28" class="edge">
<title>r1_node_12&#45;&gt;r1_node_19</title>
<path fill="none" stroke="black" d="M401.28,-221.2C447.36,-208.64 523.18,-188.83 574.68,-175.87"/>
<polygon fill="black" stroke="black" points="575.28,-179.33 584.13,-173.5 573.58,-172.54 575.28,-179.33"/>
</g>
<!-- r1_node_12&#45;&gt;r1_node_10 -->
<g id="edge24" class="edge">
<title>r1_node_12&#45;&gt;r1_node_10</title>
<path fill="none" stroke="black" d="M372.15,-216.05C379.94,-207.2 390.57,-196.23 400.68,-186.57"/>
<polygon fill="black" stroke="black" points="402.94,-189.24 407.86,-179.86 398.16,-184.13 402.94,-189.24"/>
</g>
<!-- r1_node_12&#45;&gt;r1_node_6 -->
<g id="edge25" class="edge">
<title>r1_node_12&#45;&gt;r1_node_6</title>
<path fill="none" stroke="black" d="M358.29,-252.45C355.02,-260.36 350.34,-269.88 345.45,-278.63"/>
<polygon fill="black" stroke="black" points="342.52,-276.71 340.47,-287.11 348.55,-280.26 342.52,-276.71"/>
</g>
<!-- r1_node_4 -->
<g id="node13" class="node">
<title>r1_node_4</title>
<ellipse fill="none" stroke="black" cx="327.33" cy="-90" rx="50.33" ry="18"/>
<text text-anchor="middle" x="327.33" y="-84.95" font-family="Times,serif" font-size="14.00">r1_node_4</text>
</g>
<!-- r1_node_12&#45;&gt;r1_node_4 -->
<g id="edge27" class="edge">
<title>r1_node_12&#45;&gt;r1_node_4</title>
<path fill="none" stroke="black" d="M352.64,-215.87C344.4,-191.99 333.64,-148.38 328.63,-119.54"/>
<polygon fill="black" stroke="black" points="332.09,-119.02 327.09,-109.68 325.17,-120.11 332.09,-119.02"/>
</g>
<!-- r1_node_12&#45;&gt;r1_node_8 -->
<g id="edge29" class="edge">
<title>r1_node_12&#45;&gt;r1_node_8</title>
<path fill="none" stroke="black" d="M339.16,-217.26C308.55,-192.58 254.19,-144.57 223.56,-115.38"/>
<polygon fill="black" stroke="black" points="226.31,-113.17 216.68,-108.74 221.44,-118.2 226.31,-113.17"/>
</g>
<!-- r1_node_17 -->
<g id="node9" class="node">
<title>r1_node_17</title>
<ellipse fill="none" stroke="black" cx="493.33" cy="-18" rx="54.93" ry="18"/>
<text text-anchor="middle" x="493.33" y="-12.95" font-family="Times,serif" font-size="14.00">r1_node_17</text>
</g>
<!-- r1_node_17&#45;&gt;r1_node_11 -->
<g id="edge8" class="edge">
<title>r1_node_17&#45;&gt;r1_node_11</title>
<path fill="none" stroke="black" d="M526.59,-32.78C548.43,-42.94 576.83,-56.92 599.04,-68.4"/>
<polygon fill="black" stroke="black" points="597.26,-71.41 607.74,-72.94 600.5,-65.21 597.26,-71.41"/>
</g>
<!-- r1_node_11&#45;&gt;r1_node_19 -->
<g id="edge38" class="edge">
<title>r1_node_11&#45;&gt;r1_node_19</title>
<path fill="none" stroke="black" d="M639,-108.1C639.25,-115.45 638.87,-124.24 638.01,-132.53"/>
<polygon fill="black" stroke="black" points="634.57,-131.82 636.68,-142.2 641.51,-132.76 634.57,-131.82"/>
</g>
<!-- r1_node_11&#45;&gt;r1_node_17 -->
<g id="edge37" class="edge">
<title>r1_node_11&#45;&gt;r1_node_17</title>
<path fill="none" stroke="black" d="M601.33,-75.34C579.45,-65.17 550.9,-51.12 528.59,-39.59"/>
<polygon fill="black" stroke="black" points="530.34,-36.56 519.86,-35.03 527.1,-42.76 530.34,-36.56"/>
</g>
<!-- r1_node_15 -->
<g id="node17" class="node">
<title>r1_node_15</title>
<ellipse fill="none" stroke="black" cx="624.33" cy="-18" rx="54.93" ry="18"/>
<text text-anchor="middle" x="624.33" y="-12.95" font-family="Times,serif" font-size="14.00">r1_node_15</text>
</g>
<!-- r1_node_11&#45;&gt;r1_node_15 -->
<g id="edge39" class="edge">
<title>r1_node_11&#45;&gt;r1_node_15</title>
<path fill="none" stroke="black" d="M626.03,-72.05C624.19,-64.68 622.67,-55.84 621.75,-47.51"/>
<polygon fill="black" stroke="black" points="625.26,-47.48 621,-37.78 618.28,-48.03 625.26,-47.48"/>
</g>
<!-- r1_node_16 -->
<g id="node20" class="node">
<title>r1_node_16</title>
<ellipse fill="none" stroke="black" cx="359.33" cy="-18" rx="54.93" ry="18"/>
<text text-anchor="middle" x="359.33" y="-12.95" font-family="Times,serif" font-size="14.00">r1_node_16</text>
</g>
<!-- r1_node_11&#45;&gt;r1_node_16 -->
<g id="edge40" class="edge">
<title>r1_node_11&#45;&gt;r1_node_16</title>
<path fill="none" stroke="black" d="M590.03,-78.97C540.91,-67.03 462,-47 410.35,-33.41"/>
<polygon fill="black" stroke="black" points="411.47,-30.08 400.9,-30.91 409.68,-36.85 411.47,-30.08"/>
</g>
<!-- r1_node_3&#45;&gt;r1_node_13 -->
<g id="edge46" class="edge">
<title>r1_node_3&#45;&gt;r1_node_13</title>
<path fill="none" stroke="black" d="M286.86,-433.12C279.41,-424.97 271.03,-414.84 263.99,-405.55"/>
<polygon fill="black" stroke="black" points="266.86,-403.53 258.14,-397.52 261.2,-407.66 266.86,-403.53"/>
</g>
<!-- r1_node_3&#45;&gt;r1_node_19 -->
<g id="edge49" class="edge">
<title>r1_node_3&#45;&gt;r1_node_19</title>
<path fill="none" stroke="black" d="M341.46,-437.12C348.36,-435.36 355.53,-433.59 362.33,-432 495.01,-400.88 582.85,-442.97 649.33,-324 657.13,-310.03 656.82,-302.14 649.33,-288 636,-262.84 609.66,-277.16 596.33,-252 585.77,-232.07 594.11,-207.12 605.24,-188.71"/>
<polygon fill="black" stroke="black" points="608.09,-190.74 610.76,-180.48 602.28,-186.83 608.09,-190.74"/>
</g>
<!-- r1_node_14 -->
<g id="node14" class="node">
<title>r1_node_14</title>
<ellipse fill="none" stroke="black" cx="594.33" cy="-306" rx="54.93" ry="18"/>
<text text-anchor="middle" x="594.33" y="-300.95" font-family="Times,serif" font-size="14.00">r1_node_14</text>
</g>
<!-- r1_node_3&#45;&gt;r1_node_14 -->
<g id="edge47" class="edge">
<title>r1_node_3&#45;&gt;r1_node_14</title>
<path fill="none" stroke="black" d="M342.26,-437.52C393.39,-423.05 479.76,-399.61 486.33,-396 517.13,-379.09 546.27,-350.87 566.74,-330.74"/>
<polygon fill="black" stroke="black" points="568.92,-333.5 573.61,-323.99 564.02,-328.5 568.92,-333.5"/>
</g>
<!-- r1_node_3&#45;&gt;r1_node_18 -->
<g id="edge48" class="edge">
<title>r1_node_3&#45;&gt;r1_node_18</title>
<path fill="none" stroke="black" d="M317.26,-467.72C324.55,-485.84 330.16,-515.46 323.33,-540 320.63,-549.67 315.64,-559.35 309.95,-567.73"/>
<polygon fill="black" stroke="black" points="307.18,-565.6 303.96,-575.69 312.77,-569.81 307.18,-565.6"/>
</g>
<!-- r1_node_7 -->
<g id="node16" class="node">
<title>r1_node_7</title>
<ellipse fill="none" stroke="black" cx="255.33" cy="-522" rx="50.33" ry="18"/>
<text text-anchor="middle" x="255.33" y="-516.95" font-family="Times,serif" font-size="14.00">r1_node_7</text>
</g>
<!-- r1_node_3&#45;&gt;r1_node_7 -->
<g id="edge45" class="edge">
<title>r1_node_3&#45;&gt;r1_node_7</title>
<path fill="none" stroke="black" d="M298.99,-468.12C293.89,-476.5 286.77,-486.74 279.7,-495.98"/>
<polygon fill="black" stroke="black" points="277.14,-493.57 273.67,-503.58 282.63,-497.92 277.14,-493.57"/>
</g>
<!-- r1_node_5 -->
<g id="node19" class="node">
<title>r1_node_5</title>
<ellipse fill="none" stroke="black" cx="224.33" cy="-18" rx="50.33" ry="18"/>
<text text-anchor="middle" x="224.33" y="-12.95" font-family="Times,serif" font-size="14.00">r1_node_5</text>
</g>
<!-- r1_node_3&#45;&gt;r1_node_5 -->
<g id="edge44" class="edge">
<title>r1_node_3&#45;&gt;r1_node_5</title>
<path fill="none" stroke="black" d="M335.82,-435.36C356.01,-426.47 382,-413.29 401.33,-396 514.03,-295.15 603.21,-187.29 505.33,-72 473.41,-34.4 334.67,-45.75 286.33,-36 281.91,-35.11 277.35,-34.14 272.8,-33.13"/>
<polygon fill="black" stroke="black" points="273.59,-29.72 263.06,-30.89 272.02,-36.54 273.59,-29.72"/>
</g>
<!-- r1_node_6&#45;&gt;r1_node_13 -->
<g id="edge52" class="edge">
<title>r1_node_6&#45;&gt;r1_node_13</title>
<path fill="none" stroke="black" d="M313.28,-323.47C304.35,-332.62 292.01,-344.15 280.49,-354.17"/>
<polygon fill="black" stroke="black" points="278.42,-351.34 273.07,-360.48 282.95,-356.67 278.42,-351.34"/>
</g>
<!-- r1_node_6&#45;&gt;r1_node_12 -->
<g id="edge51" class="edge">
<title>r1_node_6&#45;&gt;r1_node_12</title>
<path fill="none" stroke="black" d="M328.31,-287.7C331.57,-279.78 336.26,-270.23 341.16,-261.44"/>
<polygon fill="black" stroke="black" points="344.12,-263.32 346.17,-252.93 338.08,-259.77 344.12,-263.32"/>
</g>
<!-- r1_node_4&#45;&gt;r1_node_12 -->
<g id="edge17" class="edge">
<title>r1_node_4&#45;&gt;r1_node_12</title>
<path fill="none" stroke="black" d="M336.01,-108.11C344.23,-131.92 354.95,-175.37 359.99,-204.22"/>
<polygon fill="black" stroke="black" points="356.53,-204.76 361.54,-214.09 363.44,-203.67 356.53,-204.76"/>
</g>
<!-- r1_node_14&#45;&gt;r1_node_3 -->
<g id="edge18" class="edge">
<title>r1_node_14&#45;&gt;r1_node_3</title>
<path fill="none" stroke="black" d="M586.34,-323.98C571.12,-344.05 538.77,-377.09 504.33,-396 497.89,-399.53 414.75,-422.14 357.89,-436.66"/>
<polygon fill="black" stroke="black" points="357.2,-433.22 348.37,-439.08 358.92,-440.01 357.2,-433.22"/>
</g>
<!-- r1_node_18&#45;&gt;r1_node_1 -->
<g id="edge21" class="edge">
<title>r1_node_18&#45;&gt;r1_node_1</title>
<path fill="none" stroke="black" d="M267.51,-611.63C256.83,-621.04 242.21,-632.93 228.86,-643.1"/>
<polygon fill="black" stroke="black" points="227.01,-640.11 221.1,-648.9 231.2,-645.72 227.01,-640.11"/>
</g>
<!-- r1_node_18&#45;&gt;r1_node_3 -->
<g id="edge19" class="edge">
<title>r1_node_18&#45;&gt;r1_node_3</title>
<path fill="none" stroke="black" d="M287.97,-575.97C293.89,-566.09 301.69,-553.05 305.33,-540 310.81,-520.31 308.28,-497.34 305.74,-479.67"/>
<polygon fill="black" stroke="black" points="309.22,-479.27 304.31,-469.88 302.3,-480.28 309.22,-479.27"/>
</g>
<!-- r1_node_18&#45;&gt;r1_node_7 -->
<g id="edge20" class="edge">
<title>r1_node_18&#45;&gt;r1_node_7</title>
<path fill="none" stroke="black" d="M269.91,-576.05C266.25,-568.6 262.54,-559.64 259.58,-551.22"/>
<polygon fill="black" stroke="black" points="262.92,-550.18 256.54,-541.72 256.25,-552.31 262.92,-550.18"/>
</g>
<!-- r1_node_7&#45;&gt;r1_node_3 -->
<g id="edge53" class="edge">
<title>r1_node_7&#45;&gt;r1_node_3</title>
<path fill="none" stroke="black" d="M261.77,-503.7C266.89,-495.32 274,-485.1 281.05,-475.9"/>
<polygon fill="black" stroke="black" points="283.58,-478.34 287.06,-468.33 278.1,-473.98 283.58,-478.34"/>
</g>
<!-- r1_node_7&#45;&gt;r1_node_18 -->
<g id="edge54" class="edge">
<title>r1_node_7&#45;&gt;r1_node_18</title>
<path fill="none" stroke="black" d="M267.58,-539.62C271.32,-547.19 275.12,-556.35 278.13,-564.93"/>
<polygon fill="black" stroke="black" points="274.73,-565.79 281.11,-574.25 281.4,-563.66 274.73,-565.79"/>
</g>
<!-- r1_node_15&#45;&gt;r1_node_11 -->
<g id="edge23" class="edge">
<title>r1_node_15&#45;&gt;r1_node_11</title>
<path fill="none" stroke="black" d="M632.67,-36.1C634.47,-43.37 635.96,-52.04 636.87,-60.24"/>
<polygon fill="black" stroke="black" points="633.38,-60.49 637.65,-70.19 640.36,-59.94 633.38,-60.49"/>
</g>
<!-- r1_node_8&#45;&gt;r1_node_9 -->
<g id="edge35" class="edge">
<title>r1_node_8&#45;&gt;r1_node_9</title>
<path fill="none" stroke="black" d="M204.77,-108.28C204.48,-115.69 203.46,-124.54 201.98,-132.86"/>
<polygon fill="black" stroke="black" points="198.57,-132.07 199.94,-142.57 205.42,-133.51 198.57,-132.07"/>
</g>
<!-- r1_node_8&#45;&gt;r1_node_12 -->
<g id="edge36" class="edge">
<title>r1_node_8&#45;&gt;r1_node_12</title>
<path fill="none" stroke="black" d="M223.23,-106.52C253.72,-131.09 308.14,-179.14 338.89,-208.43"/>
<polygon fill="black" stroke="black" points="336.18,-210.68 345.81,-215.1 341.05,-205.64 336.18,-210.68"/>
</g>
<!-- r1_node_8&#45;&gt;r1_node_5 -->
<g id="edge34" class="edge">
<title>r1_node_8&#45;&gt;r1_node_5</title>
<path fill="none" stroke="black" d="M201.1,-71.7C202.82,-64.04 205.61,-54.85 208.75,-46.3"/>
<polygon fill="black" stroke="black" points="212,-47.61 212.46,-37.03 205.5,-45.01 212,-47.61"/>
</g>
<!-- r1_node_5&#45;&gt;r1_node_3 -->
<g id="edge55" class="edge">
<title>r1_node_5&#45;&gt;r1_node_3</title>
<path fill="none" stroke="black" d="M267.41,-27.8C279.43,-30.6 292.4,-33.59 304.33,-36 352.67,-45.75 491.41,-34.4 523.33,-72 621.21,-187.29 532.03,-295.15 419.33,-396 400.91,-412.48 376.43,-425.23 354.79,-434.08"/>
<polygon fill="black" stroke="black" points="353.57,-430.8 345.52,-437.69 356.11,-437.33 353.57,-430.8"/>
</g>
<!-- r1_node_5&#45;&gt;r1_node_8 -->
<g id="edge56" class="edge">
<title>r1_node_5&#45;&gt;r1_node_8</title>
<path fill="none" stroke="black" d="M224.56,-36.28C222.86,-43.86 220.1,-52.95 217,-61.43"/>
<polygon fill="black" stroke="black" points="213.78,-60.06 213.33,-70.65 220.28,-62.65 213.78,-60.06"/>
</g>
<!-- r1_node_16&#45;&gt;r1_node_11 -->
<g id="edge50" class="edge">
<title>r1_node_16&#45;&gt;r1_node_11</title>
<path fill="none" stroke="black" d="M403.46,-28.99C452.52,-40.91 531.45,-60.94 583.16,-74.55"/>
<polygon fill="black" stroke="black" points="582.06,-77.88 592.62,-77.05 583.85,-71.11 582.06,-77.88"/>
</g>
</g>
</svg>
