<?xml version="1.0" encoding="UTF-8" standalone="no"?>
<!DOCTYPE svg PUBLIC "-//W3C//DTD SVG 1.1//EN"
 "http://www.w3.org/Graphics/SVG/1.1/DTD/svg11.dtd">
<!-- Generated by graphviz version 12.2.1 (20241206.2353)
 -->
<!-- Pages: 1 -->
<svg width="508pt" height="332pt"
 viewBox="0.00 0.00 508.06 332.00" xmlns="http://www.w3.org/2000/svg" xmlns:xlink="http://www.w3.org/1999/xlink">
<g id="graph0" class="graph" transform="scale(1 1) rotate(0) translate(4 328)">
<polygon fill="white" stroke="none" points="-4,4 -4,-328 504.06,-328 504.06,4 -4,4"/>
<!-- r1_node_9 -->
<g id="node1" class="node">
<title>r1_node_9</title>
<ellipse fill="none" stroke="black" cx="72.33" cy="-306" rx="50.33" ry="18"/>
<text text-anchor="middle" x="72.33" y="-300.95" font-family="Times,serif" font-size="14.00">r1_node_9</text>
</g>
<!-- r1_node_10 -->
<g id="node2" class="node">
<title>r1_node_10</title>
<ellipse fill="none" stroke="black" cx="145.33" cy="-234" rx="54.93" ry="18"/>
<text text-anchor="middle" x="145.33" y="-228.95" font-family="Times,serif" font-size="14.00">r1_node_10</text>
</g>
<!-- r1_node_9&#45;&gt;r1_node_10 -->
<g id="edge1" class="edge">
<title>r1_node_9&#45;&gt;r1_node_10</title>
<path fill="none" stroke="black" d="M84.12,-288.05C92.49,-279.12 103.9,-268.01 114.65,-258.28"/>
<polygon fill="black" stroke="black" points="116.76,-261.08 121.93,-251.83 112.12,-255.84 116.76,-261.08"/>
</g>
<!-- r1_node_7 -->
<g id="node3" class="node">
<title>r1_node_7</title>
<ellipse fill="none" stroke="black" cx="50.33" cy="-90" rx="50.33" ry="18"/>
<text text-anchor="middle" x="50.33" y="-84.95" font-family="Times,serif" font-size="14.00">r1_node_7</text>
</g>
<!-- r1_node_9&#45;&gt;r1_node_7 -->
<g id="edge2" class="edge">
<title>r1_node_9&#45;&gt;r1_node_7</title>
<path fill="none" stroke="black" d="M66.69,-287.85C59.41,-251.14 50.22,-164.66 48.49,-119.53"/>
<polygon fill="black" stroke="black" points="52,-119.66 48.25,-109.75 45,-119.83 52,-119.66"/>
</g>
<!-- r1_node_4 -->
<g id="node4" class="node">
<title>r1_node_4</title>
<ellipse fill="none" stroke="black" cx="258.33" cy="-18" rx="50.33" ry="18"/>
<text text-anchor="middle" x="258.33" y="-12.95" font-family="Times,serif" font-size="14.00">r1_node_4</text>
</g>
<!-- r1_node_9&#45;&gt;r1_node_4 -->
<g id="edge3" class="edge">
<title>r1_node_9&#45;&gt;r1_node_4</title>
<path fill="none" stroke="black" d="M119.57,-299.42C211.06,-285.77 410.55,-241.37 492.33,-108 533.01,-41.65 402.28,-24.57 320.03,-20.31"/>
<polygon fill="black" stroke="black" points="320.44,-16.82 310.29,-19.85 320.11,-23.81 320.44,-16.82"/>
</g>
<!-- r1_node_10&#45;&gt;r1_node_9 -->
<g id="edge11" class="edge">
<title>r1_node_10&#45;&gt;r1_node_9</title>
<path fill="none" stroke="black" d="M133.52,-251.96C125.07,-260.98 113.54,-272.19 102.71,-281.99"/>
<polygon fill="black" stroke="black" points="100.56,-279.22 95.38,-288.46 105.19,-284.46 100.56,-279.22"/>
</g>
<!-- r1_node_1 -->
<g id="node5" class="node">
<title>r1_node_1</title>
<ellipse fill="none" stroke="black" cx="123.33" cy="-162" rx="50.33" ry="18"/>
<text text-anchor="middle" x="123.33" y="-156.95" font-family="Times,serif" font-size="14.00">r1_node_1</text>
</g>
<!-- r1_node_10&#45;&gt;r1_node_1 -->
<g id="edge10" class="edge">
<title>r1_node_10&#45;&gt;r1_node_1</title>
<path fill="none" stroke="black" d="M134.12,-216.05C130.99,-208.6 127.92,-199.64 125.56,-191.22"/>
<polygon fill="black" stroke="black" points="129.01,-190.61 123.21,-181.74 122.22,-192.29 129.01,-190.61"/>
</g>
<!-- r1_node_2 -->
<g id="node8" class="node">
<title>r1_node_2</title>
<ellipse fill="none" stroke="black" cx="278.33" cy="-162" rx="50.33" ry="18"/>
<text text-anchor="middle" x="278.33" y="-156.95" font-family="Times,serif" font-size="14.00">r1_node_2</text>
</g>
<!-- r1_node_10&#45;&gt;r1_node_2 -->
<g id="edge9" class="edge">
<title>r1_node_10&#45;&gt;r1_node_2</title>
<path fill="none" stroke="black" d="M169.12,-217.46C188.08,-206.82 214.88,-192.67 237.24,-181.45"/>
<polygon fill="black" stroke="black" points="238.73,-184.62 246.13,-177.04 235.62,-178.35 238.73,-184.62"/>
</g>
<!-- r1_node_7&#45;&gt;r1_node_9 -->
<g id="edge5" class="edge">
<title>r1_node_7&#45;&gt;r1_node_9</title>
<path fill="none" stroke="black" d="M55.98,-108.23C63.27,-145.01 72.45,-231.5 74.17,-276.57"/>
<polygon fill="black" stroke="black" points="70.66,-276.42 74.41,-286.34 77.66,-276.25 70.66,-276.42"/>
</g>
<!-- r1_node_7&#45;&gt;r1_node_1 -->
<g id="edge4" class="edge">
<title>r1_node_7&#45;&gt;r1_node_1</title>
<path fill="none" stroke="black" d="M72.32,-106.59C82.3,-115.19 93.91,-126.07 103.6,-135.84"/>
<polygon fill="black" stroke="black" points="101.02,-138.21 110.48,-142.97 106.05,-133.34 101.02,-138.21"/>
</g>
<!-- r1_node_5 -->
<g id="node6" class="node">
<title>r1_node_5</title>
<ellipse fill="none" stroke="black" cx="109.33" cy="-18" rx="50.33" ry="18"/>
<text text-anchor="middle" x="109.33" y="-12.95" font-family="Times,serif" font-size="14.00">r1_node_5</text>
</g>
<!-- r1_node_7&#45;&gt;r1_node_5 -->
<g id="edge6" class="edge">
<title>r1_node_7&#45;&gt;r1_node_5</title>
<path fill="none" stroke="black" d="M64.31,-72.41C71.44,-63.95 80.25,-53.49 88.19,-44.08"/>
<polygon fill="black" stroke="black" points="90.7,-46.53 94.47,-36.63 85.35,-42.02 90.7,-46.53"/>
</g>
<!-- r1_node_1&#45;&gt;r1_node_10 -->
<g id="edge19" class="edge">
<title>r1_node_1&#45;&gt;r1_node_10</title>
<path fill="none" stroke="black" d="M134.4,-179.62C137.56,-187.1 140.67,-196.14 143.06,-204.64"/>
<polygon fill="black" stroke="black" points="139.63,-205.37 145.44,-214.23 146.42,-203.68 139.63,-205.37"/>
</g>
<!-- r1_node_1&#45;&gt;r1_node_7 -->
<g id="edge18" class="edge">
<title>r1_node_1&#45;&gt;r1_node_7</title>
<path fill="none" stroke="black" d="M101.41,-145.46C91.42,-136.87 79.79,-125.97 70.09,-116.19"/>
<polygon fill="black" stroke="black" points="72.65,-113.81 63.19,-109.05 67.62,-118.67 72.65,-113.81"/>
</g>
<!-- r1_node_3 -->
<g id="node7" class="node">
<title>r1_node_3</title>
<ellipse fill="none" stroke="black" cx="433.33" cy="-90" rx="50.33" ry="18"/>
<text text-anchor="middle" x="433.33" y="-84.95" font-family="Times,serif" font-size="14.00">r1_node_3</text>
</g>
<!-- r1_node_3&#45;&gt;r1_node_4 -->
<g id="edge8" class="edge">
<title>r1_node_3&#45;&gt;r1_node_4</title>
<path fill="none" stroke="black" d="M400.82,-76C372.79,-64.79 332.1,-48.51 301.37,-36.22"/>
<polygon fill="black" stroke="black" points="302.95,-33.08 292.36,-32.61 300.35,-39.58 302.95,-33.08"/>
</g>
<!-- r1_node_3&#45;&gt;r1_node_2 -->
<g id="edge7" class="edge">
<title>r1_node_3&#45;&gt;r1_node_2</title>
<path fill="none" stroke="black" d="M406.52,-105.64C383.26,-116.79 349.33,-132.15 322.16,-143.87"/>
<polygon fill="black" stroke="black" points="320.95,-140.58 313.13,-147.73 323.7,-147.02 320.95,-140.58"/>
</g>
<!-- r1_node_2&#45;&gt;r1_node_10 -->
<g id="edge21" class="edge">
<title>r1_node_2&#45;&gt;r1_node_10</title>
<path fill="none" stroke="black" d="M255.15,-178.19C236.53,-188.66 210.05,-202.67 187.71,-213.9"/>
<polygon fill="black" stroke="black" points="186.2,-210.74 178.8,-218.33 189.32,-217.01 186.2,-210.74"/>
</g>
<!-- r1_node_2&#45;&gt;r1_node_3 -->
<g id="edge22" class="edge">
<title>r1_node_2&#45;&gt;r1_node_3</title>
<path fill="none" stroke="black" d="M305.21,-146.33C328.4,-135.21 362.18,-119.92 389.28,-108.22"/>
<polygon fill="black" stroke="black" points="390.48,-111.52 398.29,-104.37 387.72,-105.08 390.48,-111.52"/>
</g>
<!-- r1_node_6 -->
<g id="node9" class="node">
<title>r1_node_6</title>
<ellipse fill="none" stroke="black" cx="314.33" cy="-90" rx="50.33" ry="18"/>
<text text-anchor="middle" x="314.33" y="-84.95" font-family="Times,serif" font-size="14.00">r1_node_6</text>
</g>
<!-- r1_node_2&#45;&gt;r1_node_6 -->
<g id="edge23" class="edge">
<title>r1_node_2&#45;&gt;r1_node_6</title>
<path fill="none" stroke="black" d="M281.31,-143.7C284.57,-135.78 289.26,-126.23 294.16,-117.44"/>
<polygon fill="black" stroke="black" points="297.12,-119.32 299.17,-108.93 291.08,-115.77 297.12,-119.32"/>
</g>
<!-- r1_node_8 -->
<g id="node10" class="node">
<title>r1_node_8</title>
<ellipse fill="none" stroke="black" cx="195.33" cy="-90" rx="50.33" ry="18"/>
<text text-anchor="middle" x="195.33" y="-84.95" font-family="Times,serif" font-size="14.00">r1_node_8</text>
</g>
<!-- r1_node_2&#45;&gt;r1_node_8 -->
<g id="edge20" class="edge">
<title>r1_node_2&#45;&gt;r1_node_8</title>
<path fill="none" stroke="black" d="M254.64,-145.81C242.91,-136.84 228.94,-125.28 217.44,-115.09"/>
<polygon fill="black" stroke="black" points="220.08,-112.76 210.32,-108.64 215.39,-117.95 220.08,-112.76"/>
</g>
<!-- r1_node_6&#45;&gt;r1_node_4 -->
<g id="edge13" class="edge">
<title>r1_node_6&#45;&gt;r1_node_4</title>
<path fill="none" stroke="black" d="M301.06,-72.41C294.36,-64.04 286.1,-53.71 278.62,-44.37"/>
<polygon fill="black" stroke="black" points="281.43,-42.27 272.45,-36.65 275.96,-46.65 281.43,-42.27"/>
</g>
<!-- r1_node_6&#45;&gt;r1_node_5 -->
<g id="edge14" class="edge">
<title>r1_node_6&#45;&gt;r1_node_5</title>
<path fill="none" stroke="black" d="M279.09,-76.97C244.91,-65.3 192.88,-47.53 155.43,-34.74"/>
<polygon fill="black" stroke="black" points="156.82,-31.52 146.23,-31.6 154.56,-38.14 156.82,-31.52"/>
</g>
<!-- r1_node_6&#45;&gt;r1_node_2 -->
<g id="edge12" class="edge">
<title>r1_node_6&#45;&gt;r1_node_2</title>
<path fill="none" stroke="black" d="M311.29,-108.45C308.02,-116.36 303.34,-125.88 298.45,-134.63"/>
<polygon fill="black" stroke="black" points="295.52,-132.71 293.47,-143.11 301.55,-136.26 295.52,-132.71"/>
</g>
<!-- r1_node_8&#45;&gt;r1_node_4 -->
<g id="edge16" class="edge">
<title>r1_node_8&#45;&gt;r1_node_4</title>
<path fill="none" stroke="black" d="M210.26,-72.41C217.95,-63.87 227.48,-53.28 236.02,-43.79"/>
<polygon fill="black" stroke="black" points="238.4,-46.37 242.49,-36.59 233.2,-41.69 238.4,-46.37"/>
</g>
<!-- r1_node_8&#45;&gt;r1_node_5 -->
<g id="edge17" class="edge">
<title>r1_node_8&#45;&gt;r1_node_5</title>
<path fill="none" stroke="black" d="M175.81,-73.12C164.49,-63.9 150.03,-52.13 137.49,-41.92"/>
<polygon fill="black" stroke="black" points="139.9,-39.37 129.94,-35.78 135.49,-44.8 139.9,-39.37"/>
</g>
<!-- r1_node_8&#45;&gt;r1_node_2 -->
<g id="edge15" class="edge">
<title>r1_node_8&#45;&gt;r1_node_2</title>
<path fill="none" stroke="black" d="M219.13,-106.27C230.86,-115.25 244.8,-126.8 256.28,-136.97"/>
<polygon fill="black" stroke="black" points="253.61,-139.28 263.38,-143.4 258.31,-134.09 253.61,-139.28"/>
</g>
</g>
</svg>
