<?xml version="1.0" encoding="UTF-8" standalone="no"?>
<!DOCTYPE svg PUBLIC "-//W3C//DTD SVG 1.1//EN"
 "http://www.w3.org/Graphics/SVG/1.1/DTD/svg11.dtd">
<!-- Generated by graphviz version 12.2.1 (20241206.2353)
 -->
<!-- Pages: 1 -->
<svg width="228pt" height="116pt"
 viewBox="0.00 0.00 227.66 116.00" xmlns="http://www.w3.org/2000/svg" xmlns:xlink="http://www.w3.org/1999/xlink">
<g id="graph0" class="graph" transform="scale(1 1) rotate(0) translate(4 112)">
<polygon fill="white" stroke="none" points="-4,4 -4,-112 223.66,-112 223.66,4 -4,4"/>
<!-- r3_node_12 -->
<g id="node1" class="node">
<title>r3_node_12</title>
<ellipse fill="none" stroke="black" cx="109.33" cy="-90" rx="54.93" ry="18"/>
<text text-anchor="middle" x="109.33" y="-84.95" font-family="Times,serif" font-size="14.00">r3_node_12</text>
</g>
<!-- r3_node_6 -->
<g id="node2" class="node">
<title>r3_node_6</title>
<ellipse fill="none" stroke="black" cx="50.33" cy="-18" rx="50.33" ry="18"/>
<text text-anchor="middle" x="50.33" y="-12.95" font-family="Times,serif" font-size="14.00">r3_node_6</text>
</g>
<!-- r3_node_12&#45;&gt;r3_node_6 -->
<g id="edge1" class="edge">
<title>r3_node_12&#45;&gt;r3_node_6</title>
<path fill="none" stroke="black" d="M89.84,-72.76C81.97,-64.53 73.12,-54.32 65.71,-45.02"/>
<polygon fill="black" stroke="black" points="68.66,-43.11 59.79,-37.32 63.11,-47.38 68.66,-43.11"/>
</g>
<!-- r3_node_1 -->
<g id="node3" class="node">
<title>r3_node_1</title>
<ellipse fill="none" stroke="black" cx="169.33" cy="-18" rx="50.33" ry="18"/>
<text text-anchor="middle" x="169.33" y="-12.95" font-family="Times,serif" font-size="14.00">r3_node_1</text>
</g>
<!-- r3_node_12&#45;&gt;r3_node_1 -->
<g id="edge2" class="edge">
<title>r3_node_12&#45;&gt;r3_node_1</title>
<path fill="none" stroke="black" d="M117.97,-72.05C124.49,-63.38 133.48,-52.67 142.18,-43.15"/>
<polygon fill="black" stroke="black" points="144.66,-45.61 148.97,-35.93 139.57,-40.82 144.66,-45.61"/>
</g>
<!-- r3_node_6&#45;&gt;r3_node_12 -->
<g id="edge3" class="edge">
<title>r3_node_6&#45;&gt;r3_node_12</title>
<path fill="none" stroke="black" d="M69.42,-34.83C77.4,-43.15 86.43,-53.56 93.98,-63.02"/>
<polygon fill="black" stroke="black" points="91.13,-65.06 100,-70.86 96.68,-60.79 91.13,-65.06"/>
</g>
<!-- r3_node_1&#45;&gt;r3_node_12 -->
<g id="edge4" class="edge">
<title>r3_node_1&#45;&gt;r3_node_12</title>
<path fill="none" stroke="black" d="M160.55,-36.12C154.11,-44.67 145.31,-55.17 136.75,-64.55"/>
<polygon fill="black" stroke="black" points="134.37,-61.97 130.08,-71.66 139.48,-66.76 134.37,-61.97"/>
</g>
</g>
</svg>
