<?xml version="1.0" encoding="UTF-8" standalone="no"?>
<!DOCTYPE svg PUBLIC "-//W3C//DTD SVG 1.1//EN"
 "http://www.w3.org/Graphics/SVG/1.1/DTD/svg11.dtd">
<!-- Generated by graphviz version 12.2.1 (20241206.2353)
 -->
<!-- Pages: 1 -->
<svg width="991pt" height="764pt"
 viewBox="0.00 0.00 991.13 764.00" xmlns="http://www.w3.org/2000/svg" xmlns:xlink="http://www.w3.org/1999/xlink">
<g id="graph0" class="graph" transform="scale(1 1) rotate(0) translate(4 760)">
<polygon fill="white" stroke="none" points="-4,4 -4,-760 987.13,-760 987.13,4 -4,4"/>
<!-- r3_node_1 -->
<g id="node1" class="node">
<title>r3_node_1</title>
<ellipse fill="none" stroke="black" cx="50.33" cy="-738" rx="50.33" ry="18"/>
<text text-anchor="middle" x="50.33" y="-732.95" font-family="Times,serif" font-size="14.00">r3_node_1</text>
</g>
<!-- r3_node_15 -->
<g id="node2" class="node">
<title>r3_node_15</title>
<ellipse fill="none" stroke="black" cx="82.33" cy="-90" rx="54.93" ry="18"/>
<text text-anchor="middle" x="82.33" y="-84.95" font-family="Times,serif" font-size="14.00">r3_node_15</text>
</g>
<!-- r3_node_1&#45;&gt;r3_node_15 -->
<g id="edge1" class="edge">
<title>r3_node_1&#45;&gt;r3_node_15</title>
<path fill="none" stroke="black" d="M46.67,-719.91C44.65,-709.57 42.35,-696.09 41.33,-684 39.98,-668.06 40.74,-663.99 41.33,-648 48.78,-445.23 71.44,-201.79 79.47,-119.65"/>
<polygon fill="black" stroke="black" points="82.94,-120.1 80.44,-109.81 75.98,-119.42 82.94,-120.1"/>
</g>
<!-- r3_node_18 -->
<g id="node3" class="node">
<title>r3_node_18</title>
<ellipse fill="none" stroke="black" cx="732.33" cy="-90" rx="54.93" ry="18"/>
<text text-anchor="middle" x="732.33" y="-84.95" font-family="Times,serif" font-size="14.00">r3_node_18</text>
</g>
<!-- r3_node_1&#45;&gt;r3_node_18 -->
<g id="edge2" class="edge">
<title>r3_node_1&#45;&gt;r3_node_18</title>
<path fill="none" stroke="black" d="M97.47,-731.54C219.15,-715.02 547.01,-654.6 729.33,-468 783.26,-412.8 896.65,-208.53 854.33,-144 840.21,-122.48 815.27,-109.65 791.6,-102.03"/>
<polygon fill="black" stroke="black" points="792.89,-98.76 782.31,-99.31 790.92,-105.48 792.89,-98.76"/>
</g>
<!-- r3_node_5 -->
<g id="node4" class="node">
<title>r3_node_5</title>
<ellipse fill="none" stroke="black" cx="100.33" cy="-666" rx="50.33" ry="18"/>
<text text-anchor="middle" x="100.33" y="-660.95" font-family="Times,serif" font-size="14.00">r3_node_5</text>
</g>
<!-- r3_node_1&#45;&gt;r3_node_5 -->
<g id="edge3" class="edge">
<title>r3_node_1&#45;&gt;r3_node_5</title>
<path fill="none" stroke="black" d="M56.77,-719.7C61.89,-711.32 69,-701.1 76.05,-691.9"/>
<polygon fill="black" stroke="black" points="78.58,-694.34 82.06,-684.33 73.1,-689.98 78.58,-694.34"/>
</g>
<!-- r3_node_12 -->
<g id="node5" class="node">
<title>r3_node_12</title>
<ellipse fill="none" stroke="black" cx="665.33" cy="-450" rx="54.93" ry="18"/>
<text text-anchor="middle" x="665.33" y="-444.95" font-family="Times,serif" font-size="14.00">r3_node_12</text>
</g>
<!-- r3_node_1&#45;&gt;r3_node_12 -->
<g id="edge4" class="edge">
<title>r3_node_1&#45;&gt;r3_node_12</title>
<path fill="none" stroke="black" d="M86.18,-725.04C149.26,-703.76 283.95,-657.32 395.33,-612 404.31,-608.35 546.06,-545.07 554.33,-540 585.6,-520.81 617.95,-493.92 639.6,-474.74"/>
<polygon fill="black" stroke="black" points="641.67,-477.58 646.78,-468.29 637,-472.37 641.67,-477.58"/>
</g>
<!-- r3_node_5&#45;&gt;r3_node_1 -->
<g id="edge46" class="edge">
<title>r3_node_5&#45;&gt;r3_node_1</title>
<path fill="none" stroke="black" d="M93.99,-684.12C88.89,-692.5 81.77,-702.74 74.7,-711.98"/>
<polygon fill="black" stroke="black" points="72.14,-709.57 68.67,-719.58 77.63,-713.92 72.14,-709.57"/>
</g>
<!-- r3_node_5&#45;&gt;r3_node_15 -->
<g id="edge49" class="edge">
<title>r3_node_5&#45;&gt;r3_node_15</title>
<path fill="none" stroke="black" d="M99.78,-647.51C97.22,-565.81 86.42,-221.5 83.22,-119.55"/>
<polygon fill="black" stroke="black" points="86.73,-119.75 82.92,-109.87 79.73,-119.97 86.73,-119.75"/>
</g>
<!-- r3_node_5&#45;&gt;r3_node_18 -->
<g id="edge45" class="edge">
<title>r3_node_5&#45;&gt;r3_node_18</title>
<path fill="none" stroke="black" d="M146.39,-658.32C191.49,-650.74 261.53,-636.18 318.33,-612 455.48,-553.61 474.23,-509.89 601.33,-432 628.17,-415.55 636.83,-414.47 662.33,-396 762.62,-323.36 815.49,-301.71 838.33,-180 841.28,-164.27 846.74,-157.61 838.33,-144 826.82,-125.38 806.57,-113.08 786.84,-105.07"/>
<polygon fill="black" stroke="black" points="788.31,-101.88 777.72,-101.68 785.87,-108.45 788.31,-101.88"/>
</g>
<!-- r3_node_4 -->
<g id="node6" class="node">
<title>r3_node_4</title>
<ellipse fill="none" stroke="black" cx="259.33" cy="-594" rx="50.33" ry="18"/>
<text text-anchor="middle" x="259.33" y="-588.95" font-family="Times,serif" font-size="14.00">r3_node_4</text>
</g>
<!-- r3_node_5&#45;&gt;r3_node_4 -->
<g id="edge48" class="edge">
<title>r3_node_5&#45;&gt;r3_node_4</title>
<path fill="none" stroke="black" d="M127.68,-650.5C151.73,-639.28 186.98,-623.71 215.01,-611.92"/>
<polygon fill="black" stroke="black" points="216.08,-615.27 223.96,-608.19 213.39,-608.81 216.08,-615.27"/>
</g>
<!-- r3_node_9 -->
<g id="node14" class="node">
<title>r3_node_9</title>
<ellipse fill="none" stroke="black" cx="339.33" cy="-234" rx="50.33" ry="18"/>
<text text-anchor="middle" x="339.33" y="-228.95" font-family="Times,serif" font-size="14.00">r3_node_9</text>
</g>
<!-- r3_node_5&#45;&gt;r3_node_9 -->
<g id="edge47" class="edge">
<title>r3_node_5&#45;&gt;r3_node_9</title>
<path fill="none" stroke="black" d="M101.45,-647.63C108.39,-623.51 126.84,-578.49 142.33,-540 187.31,-428.22 164.4,-379.91 242.33,-288 255.54,-272.42 274.54,-260.17 292.31,-251.4"/>
<polygon fill="black" stroke="black" points="293.61,-254.65 301.21,-247.27 290.67,-248.3 293.61,-254.65"/>
</g>
<!-- r3_node_16 -->
<g id="node18" class="node">
<title>r3_node_16</title>
<ellipse fill="none" stroke="black" cx="287.33" cy="-162" rx="54.93" ry="18"/>
<text text-anchor="middle" x="287.33" y="-156.95" font-family="Times,serif" font-size="14.00">r3_node_16</text>
</g>
<!-- r3_node_5&#45;&gt;r3_node_16 -->
<g id="edge44" class="edge">
<title>r3_node_5&#45;&gt;r3_node_16</title>
<path fill="none" stroke="black" d="M103.21,-647.81C106.36,-629.78 111.85,-600.7 118.33,-576 161.08,-413 150.38,-360.35 237.33,-216 243.59,-205.6 252.19,-195.54 260.49,-187.04"/>
<polygon fill="black" stroke="black" points="262.82,-189.66 267.51,-180.16 257.92,-184.66 262.82,-189.66"/>
</g>
<!-- r3_node_4&#45;&gt;r3_node_15 -->
<g id="edge8" class="edge">
<title>r3_node_4&#45;&gt;r3_node_15</title>
<path fill="none" stroke="black" d="M243.51,-576.92C213.9,-545.45 151.28,-472.15 131.33,-396 117.09,-341.64 177.34,-194.32 152.33,-144 145.74,-130.75 134.09,-119.93 122.16,-111.6"/>
<polygon fill="black" stroke="black" points="124.19,-108.75 113.89,-106.28 120.4,-114.64 124.19,-108.75"/>
</g>
<!-- r3_node_4&#45;&gt;r3_node_5 -->
<g id="edge5" class="edge">
<title>r3_node_4&#45;&gt;r3_node_5</title>
<path fill="none" stroke="black" d="M231.95,-609.52C207.95,-620.72 172.8,-636.23 144.8,-648.01"/>
<polygon fill="black" stroke="black" points="143.74,-644.66 135.86,-651.74 146.44,-651.12 143.74,-644.66"/>
</g>
<!-- r3_node_4&#45;&gt;r3_node_12 -->
<g id="edge6" class="edge">
<title>r3_node_4&#45;&gt;r3_node_12</title>
<path fill="none" stroke="black" d="M297.35,-581.84C331.93,-571.52 384.31,-555.49 429.33,-540 496.74,-516.8 573.87,-487.11 621.08,-468.57"/>
<polygon fill="black" stroke="black" points="622.12,-471.92 630.14,-465 619.56,-465.41 622.12,-471.92"/>
</g>
<!-- r3_node_13 -->
<g id="node7" class="node">
<title>r3_node_13</title>
<ellipse fill="none" stroke="black" cx="546.33" cy="-18" rx="54.93" ry="18"/>
<text text-anchor="middle" x="546.33" y="-12.95" font-family="Times,serif" font-size="14.00">r3_node_13</text>
</g>
<!-- r3_node_4&#45;&gt;r3_node_13 -->
<g id="edge7" class="edge">
<title>r3_node_4&#45;&gt;r3_node_13</title>
<path fill="none" stroke="black" d="M285.4,-578.25C318.4,-559.83 377.23,-527.86 429.33,-504 468.87,-485.89 480.22,-484.84 520.33,-468 556.65,-452.75 564.54,-446.1 601.33,-432 649.76,-413.44 665.29,-417.83 712.33,-396 767.37,-370.45 778.77,-359.02 828.33,-324 903.02,-271.22 945.28,-266.38 975.33,-180 991.95,-132.21 980.49,-101.42 939.33,-72 888.28,-35.51 710.68,-24.11 612.62,-20.58"/>
<polygon fill="black" stroke="black" points="612.99,-17.09 602.88,-20.24 612.75,-24.08 612.99,-17.09"/>
</g>
<!-- r3_node_2 -->
<g id="node8" class="node">
<title>r3_node_2</title>
<ellipse fill="none" stroke="black" cx="271.33" cy="-522" rx="50.33" ry="18"/>
<text text-anchor="middle" x="271.33" y="-516.95" font-family="Times,serif" font-size="14.00">r3_node_2</text>
</g>
<!-- r3_node_4&#45;&gt;r3_node_2 -->
<g id="edge9" class="edge">
<title>r3_node_4&#45;&gt;r3_node_2</title>
<path fill="none" stroke="black" d="M256.38,-575.7C256.88,-568.32 258.15,-559.52 259.85,-551.25"/>
<polygon fill="black" stroke="black" points="263.24,-552.12 262.15,-541.58 256.43,-550.49 263.24,-552.12"/>
</g>
<!-- r3_node_2&#45;&gt;r3_node_18 -->
<g id="edge25" class="edge">
<title>r3_node_2&#45;&gt;r3_node_18</title>
<path fill="none" stroke="black" d="M313.54,-511.96C349.06,-503.42 400.6,-488.79 442.33,-468 466.84,-455.79 467.65,-443.86 492.33,-432 545.98,-406.21 568.28,-423 621.33,-396 667.29,-372.61 676.17,-360.78 712.33,-324 768.79,-266.57 796.52,-256.29 822.33,-180 827.45,-164.84 830.27,-157.89 822.33,-144 813.09,-127.83 796.78,-116.11 780.56,-107.86"/>
<polygon fill="black" stroke="black" points="782.45,-104.88 771.91,-103.81 779.48,-111.22 782.45,-104.88"/>
</g>
<!-- r3_node_2&#45;&gt;r3_node_4 -->
<g id="edge27" class="edge">
<title>r3_node_2&#45;&gt;r3_node_4</title>
<path fill="none" stroke="black" d="M274.28,-540.28C273.77,-547.69 272.5,-556.54 270.78,-564.86"/>
<polygon fill="black" stroke="black" points="267.38,-564.04 268.46,-574.58 274.19,-565.67 267.38,-564.04"/>
</g>
<!-- r3_node_19 -->
<g id="node9" class="node">
<title>r3_node_19</title>
<ellipse fill="none" stroke="black" cx="290.33" cy="-18" rx="54.93" ry="18"/>
<text text-anchor="middle" x="290.33" y="-12.95" font-family="Times,serif" font-size="14.00">r3_node_19</text>
</g>
<!-- r3_node_2&#45;&gt;r3_node_19 -->
<g id="edge26" class="edge">
<title>r3_node_2&#45;&gt;r3_node_19</title>
<path fill="none" stroke="black" d="M294.6,-505.82C309.74,-495.64 329.68,-481.65 346.33,-468 364.32,-453.25 364.71,-444.51 384.33,-432 421,-408.62 435.57,-413.63 475.33,-396 508.4,-381.33 595.13,-348.95 621.33,-324 647.84,-298.76 652.15,-287.44 661.33,-252 665.34,-236.51 669.78,-229.59 661.33,-216 642.22,-185.28 620.09,-197.32 588.33,-180 561.03,-165.11 555.99,-158.22 528.33,-144 492.57,-125.62 479.66,-128.93 445.33,-108 423.75,-94.85 422.66,-85.54 401.33,-72 380.29,-58.65 355.38,-46.46 334.49,-37.15"/>
<polygon fill="black" stroke="black" points="335.92,-33.95 325.36,-33.15 333.12,-40.37 335.92,-33.95"/>
</g>
<!-- r3_node_7 -->
<g id="node12" class="node">
<title>r3_node_7</title>
<ellipse fill="none" stroke="black" cx="287.33" cy="-450" rx="50.33" ry="18"/>
<text text-anchor="middle" x="287.33" y="-444.95" font-family="Times,serif" font-size="14.00">r3_node_7</text>
</g>
<!-- r3_node_2&#45;&gt;r3_node_7 -->
<g id="edge28" class="edge">
<title>r3_node_2&#45;&gt;r3_node_7</title>
<path fill="none" stroke="black" d="M269.37,-503.7C270.3,-496.24 272.1,-487.32 274.31,-478.97"/>
<polygon fill="black" stroke="black" points="277.61,-480.14 277.09,-469.56 270.9,-478.15 277.61,-480.14"/>
</g>
<!-- r3_node_10 -->
<g id="node15" class="node">
<title>r3_node_10</title>
<ellipse fill="none" stroke="black" cx="546.33" cy="-90" rx="54.93" ry="18"/>
<text text-anchor="middle" x="546.33" y="-84.95" font-family="Times,serif" font-size="14.00">r3_node_10</text>
</g>
<!-- r3_node_2&#45;&gt;r3_node_10 -->
<g id="edge23" class="edge">
<title>r3_node_2&#45;&gt;r3_node_10</title>
<path fill="none" stroke="black" d="M296.55,-506.06C317.79,-495.63 348.53,-481.27 375.33,-468 406.33,-452.65 412.45,-445.42 444.33,-432 491.74,-412.04 507.92,-418.18 554.33,-396 607.38,-370.64 625.66,-367.4 665.33,-324 720.75,-263.36 756.01,-210.17 707.33,-144 685.27,-114.02 646.36,-100.52 612.27,-94.62"/>
<polygon fill="black" stroke="black" points="612.83,-91.17 602.42,-93.13 611.78,-98.09 612.83,-91.17"/>
</g>
<!-- r3_node_14 -->
<g id="node17" class="node">
<title>r3_node_14</title>
<ellipse fill="none" stroke="black" cx="418.33" cy="-18" rx="54.93" ry="18"/>
<text text-anchor="middle" x="418.33" y="-12.95" font-family="Times,serif" font-size="14.00">r3_node_14</text>
</g>
<!-- r3_node_2&#45;&gt;r3_node_14 -->
<g id="edge24" class="edge">
<title>r3_node_2&#45;&gt;r3_node_14</title>
<path fill="none" stroke="black" d="M317.71,-514.57C361.47,-507.31 428.1,-493.09 481.33,-468 505.77,-456.48 505.99,-443.75 530.33,-432 585.08,-405.55 606.88,-420.96 662.33,-396 768.89,-348.04 790.9,-324.78 882.33,-252 900.4,-237.61 948.27,-201.25 957.33,-180 1032.88,-2.74 558.25,-50.36 482.33,-36 478.07,-35.19 473.67,-34.26 469.27,-33.24"/>
<polygon fill="black" stroke="black" points="470.42,-29.92 459.88,-30.96 468.77,-36.72 470.42,-29.92"/>
</g>
<!-- r3_node_3 -->
<g id="node10" class="node">
<title>r3_node_3</title>
<ellipse fill="none" stroke="black" cx="374.33" cy="-378" rx="50.33" ry="18"/>
<text text-anchor="middle" x="374.33" y="-372.95" font-family="Times,serif" font-size="14.00">r3_node_3</text>
</g>
<!-- r3_node_3&#45;&gt;r3_node_19 -->
<g id="edge11" class="edge">
<title>r3_node_3&#45;&gt;r3_node_19</title>
<path fill="none" stroke="black" d="M419.41,-369.5C509.96,-352.38 700.48,-304.89 641.33,-216 618.37,-181.5 593.04,-197.17 555.33,-180 489.48,-150.02 470.38,-146.83 409.33,-108 387.72,-94.26 384.75,-87.46 364.33,-72 350.64,-61.64 335.25,-50.52 322.06,-41.17"/>
<polygon fill="black" stroke="black" points="324.32,-38.48 314.13,-35.57 320.28,-44.2 324.32,-38.48"/>
</g>
<!-- r3_node_17 -->
<g id="node11" class="node">
<title>r3_node_17</title>
<ellipse fill="none" stroke="black" cx="577.33" cy="-234" rx="54.93" ry="18"/>
<text text-anchor="middle" x="577.33" y="-228.95" font-family="Times,serif" font-size="14.00">r3_node_17</text>
</g>
<!-- r3_node_3&#45;&gt;r3_node_17 -->
<g id="edge10" class="edge">
<title>r3_node_3&#45;&gt;r3_node_17</title>
<path fill="none" stroke="black" d="M409.95,-364.9C434.14,-355.74 466.17,-341.73 491.33,-324 516.68,-306.13 540.79,-280.11 557,-260.81"/>
<polygon fill="black" stroke="black" points="559.68,-263.06 563.33,-253.12 554.27,-258.62 559.68,-263.06"/>
</g>
<!-- r3_node_3&#45;&gt;r3_node_7 -->
<g id="edge12" class="edge">
<title>r3_node_3&#45;&gt;r3_node_7</title>
<path fill="none" stroke="black" d="M359.51,-395.63C348.83,-405.04 334.21,-416.93 320.86,-427.1"/>
<polygon fill="black" stroke="black" points="319.01,-424.11 313.1,-432.9 323.2,-429.72 319.01,-424.11"/>
</g>
<!-- r3_node_6 -->
<g id="node13" class="node">
<title>r3_node_6</title>
<ellipse fill="none" stroke="black" cx="432.33" cy="-306" rx="50.33" ry="18"/>
<text text-anchor="middle" x="432.33" y="-300.95" font-family="Times,serif" font-size="14.00">r3_node_6</text>
</g>
<!-- r3_node_3&#45;&gt;r3_node_6 -->
<g id="edge13" class="edge">
<title>r3_node_3&#45;&gt;r3_node_6</title>
<path fill="none" stroke="black" d="M382.49,-360.05C388.76,-351.38 397.44,-340.67 405.87,-331.15"/>
<polygon fill="black" stroke="black" points="408.28,-333.69 412.44,-323.95 403.11,-328.97 408.28,-333.69"/>
</g>
<!-- r3_node_7&#45;&gt;r3_node_2 -->
<g id="edge53" class="edge">
<title>r3_node_7&#45;&gt;r3_node_2</title>
<path fill="none" stroke="black" d="M289.29,-468.28C288.35,-475.77 286.54,-484.75 284.32,-493.15"/>
<polygon fill="black" stroke="black" points="281,-492.02 281.51,-502.6 287.71,-494.01 281,-492.02"/>
</g>
<!-- r3_node_7&#45;&gt;r3_node_3 -->
<g id="edge52" class="edge">
<title>r3_node_7&#45;&gt;r3_node_3</title>
<path fill="none" stroke="black" d="M302.11,-432.41C312.83,-422.95 327.55,-410.98 340.97,-400.77"/>
<polygon fill="black" stroke="black" points="342.85,-403.73 348.77,-394.94 338.66,-398.13 342.85,-403.73"/>
</g>
<!-- r3_node_7&#45;&gt;r3_node_17 -->
<g id="edge51" class="edge">
<title>r3_node_7&#45;&gt;r3_node_17</title>
<path fill="none" stroke="black" d="M326.58,-438.44C356.83,-429.44 399.13,-414.96 433.33,-396 478.74,-370.83 491.18,-363.11 525.33,-324 541.56,-305.41 555.4,-281.01 564.71,-262.47"/>
<polygon fill="black" stroke="black" points="567.76,-264.2 568.99,-253.67 561.46,-261.13 567.76,-264.2"/>
</g>
<!-- r3_node_8 -->
<g id="node19" class="node">
<title>r3_node_8</title>
<ellipse fill="none" stroke="black" cx="310.33" cy="-306" rx="50.33" ry="18"/>
<text text-anchor="middle" x="310.33" y="-300.95" font-family="Times,serif" font-size="14.00">r3_node_8</text>
</g>
<!-- r3_node_7&#45;&gt;r3_node_8 -->
<g id="edge50" class="edge">
<title>r3_node_7&#45;&gt;r3_node_8</title>
<path fill="none" stroke="black" d="M285.53,-431.59C286.92,-407.5 293.71,-363.75 300.28,-335.03"/>
<polygon fill="black" stroke="black" points="303.62,-336.13 302.61,-325.58 296.82,-334.45 303.62,-336.13"/>
</g>
<!-- r3_node_6&#45;&gt;r3_node_18 -->
<g id="edge14" class="edge">
<title>r3_node_6&#45;&gt;r3_node_18</title>
<path fill="none" stroke="black" d="M445.09,-288.41C463.37,-265.13 496.63,-224.64 513.33,-216 571.39,-185.95 762.02,-228.98 805.33,-180 815.93,-168.01 812.59,-158.25 805.33,-144 798.36,-130.32 786.02,-119.35 773.45,-111.02"/>
<polygon fill="black" stroke="black" points="775.53,-108.18 765.17,-105.95 771.87,-114.15 775.53,-108.18"/>
</g>
<!-- r3_node_6&#45;&gt;r3_node_3 -->
<g id="edge15" class="edge">
<title>r3_node_6&#45;&gt;r3_node_3</title>
<path fill="none" stroke="black" d="M424.27,-323.8C418.02,-332.47 409.32,-343.21 400.86,-352.77"/>
<polygon fill="black" stroke="black" points="398.42,-350.25 394.27,-360 403.59,-354.97 398.42,-350.25"/>
</g>
<!-- r3_node_6&#45;&gt;r3_node_17 -->
<g id="edge17" class="edge">
<title>r3_node_6&#45;&gt;r3_node_17</title>
<path fill="none" stroke="black" d="M461.32,-291C483.06,-280.51 513.09,-266.01 537.15,-254.4"/>
<polygon fill="black" stroke="black" points="538.54,-257.61 546.02,-250.11 535.5,-251.31 538.54,-257.61"/>
</g>
<!-- r3_node_6&#45;&gt;r3_node_9 -->
<g id="edge16" class="edge">
<title>r3_node_6&#45;&gt;r3_node_9</title>
<path fill="none" stroke="black" d="M406.97,-290.15C393.6,-280.96 377.38,-268.95 364.11,-258.48"/>
<polygon fill="black" stroke="black" points="366.64,-256.02 356.65,-252.49 362.25,-261.48 366.64,-256.02"/>
</g>
<!-- r3_node_9&#45;&gt;r3_node_15 -->
<g id="edge33" class="edge">
<title>r3_node_9&#45;&gt;r3_node_15</title>
<path fill="none" stroke="black" d="M359.41,-217.09C380.65,-198.36 408.62,-166.91 389.33,-144 373.8,-125.56 230.97,-107.1 145.71,-97.59"/>
<polygon fill="black" stroke="black" points="146.16,-94.12 135.84,-96.5 145.39,-101.07 146.16,-94.12"/>
</g>
<!-- r3_node_9&#45;&gt;r3_node_5 -->
<g id="edge30" class="edge">
<title>r3_node_9&#45;&gt;r3_node_5</title>
<path fill="none" stroke="black" d="M312.24,-249.5C295.38,-258.38 274.51,-271.27 260.33,-288 182.4,-379.91 205.31,-428.22 160.33,-540 146.62,-574.06 130.6,-613.23 118.16,-638.51"/>
<polygon fill="black" stroke="black" points="115.21,-636.6 113.76,-647.09 121.44,-639.79 115.21,-636.6"/>
</g>
<!-- r3_node_9&#45;&gt;r3_node_19 -->
<g id="edge29" class="edge">
<title>r3_node_9&#45;&gt;r3_node_19</title>
<path fill="none" stroke="black" d="M367.66,-218.68C382.09,-209.71 398.25,-196.69 406.33,-180 413.3,-165.6 415.05,-157.42 406.33,-144 384.86,-110.97 352.57,-136.46 325.33,-108 309.35,-91.31 300.4,-66.48 295.56,-47.28"/>
<polygon fill="black" stroke="black" points="299.01,-46.64 293.39,-37.65 292.18,-48.18 299.01,-46.64"/>
</g>
<!-- r3_node_9&#45;&gt;r3_node_6 -->
<g id="edge32" class="edge">
<title>r3_node_9&#45;&gt;r3_node_6</title>
<path fill="none" stroke="black" d="M364.84,-249.95C378.31,-259.22 394.63,-271.32 407.92,-281.81"/>
<polygon fill="black" stroke="black" points="405.39,-284.27 415.38,-287.82 409.78,-278.82 405.39,-284.27"/>
</g>
<!-- r3_node_11 -->
<g id="node16" class="node">
<title>r3_node_11</title>
<ellipse fill="none" stroke="black" cx="652.33" cy="-162" rx="54.93" ry="18"/>
<text text-anchor="middle" x="652.33" y="-156.95" font-family="Times,serif" font-size="14.00">r3_node_11</text>
</g>
<!-- r3_node_9&#45;&gt;r3_node_11 -->
<g id="edge31" class="edge">
<title>r3_node_9&#45;&gt;r3_node_11</title>
<path fill="none" stroke="black" d="M379.59,-222.9C434.45,-210.1 532.74,-188.1 595.19,-174.62"/>
<polygon fill="black" stroke="black" points="595.89,-178.05 604.93,-172.53 594.42,-171.21 595.89,-178.05"/>
</g>
<!-- r3_node_9&#45;&gt;r3_node_16 -->
<g id="edge34" class="edge">
<title>r3_node_9&#45;&gt;r3_node_16</title>
<path fill="none" stroke="black" d="M327,-216.41C320.94,-208.25 313.49,-198.22 306.69,-189.07"/>
<polygon fill="black" stroke="black" points="309.6,-187.11 300.83,-181.17 303.98,-191.29 309.6,-187.11"/>
</g>
<!-- r3_node_10&#45;&gt;r3_node_13 -->
<g id="edge20" class="edge">
<title>r3_node_10&#45;&gt;r3_node_13</title>
<path fill="none" stroke="black" d="M546.33,-71.7C546.33,-64.41 546.33,-55.73 546.33,-47.54"/>
<polygon fill="black" stroke="black" points="549.83,-47.62 546.33,-37.62 542.83,-47.62 549.83,-47.62"/>
</g>
<!-- r3_node_10&#45;&gt;r3_node_2 -->
<g id="edge18" class="edge">
<title>r3_node_10&#45;&gt;r3_node_2</title>
<path fill="none" stroke="black" d="M601.44,-91.43C643.13,-94.64 697.57,-106.27 725.33,-144 774.01,-210.17 738.75,-263.36 683.33,-324 643.66,-367.4 625.38,-370.64 572.33,-396 525.92,-418.18 509.74,-412.04 462.33,-432 430.45,-445.42 424.33,-452.65 393.33,-468 368.07,-480.51 339.3,-493.99 315.94,-504.22"/>
<polygon fill="black" stroke="black" points="314.79,-500.9 307,-508.08 317.57,-507.33 314.79,-500.9"/>
</g>
<!-- r3_node_10&#45;&gt;r3_node_19 -->
<g id="edge22" class="edge">
<title>r3_node_10&#45;&gt;r3_node_19</title>
<path fill="none" stroke="black" d="M505.2,-77.75C460.88,-65.63 390.25,-46.32 342.16,-33.17"/>
<polygon fill="black" stroke="black" points="343.39,-29.88 332.82,-30.62 341.54,-36.63 343.39,-29.88"/>
</g>
<!-- r3_node_10&#45;&gt;r3_node_11 -->
<g id="edge19" class="edge">
<title>r3_node_10&#45;&gt;r3_node_11</title>
<path fill="none" stroke="black" d="M574.23,-105.72C589.76,-115.18 608.9,-127.66 624.42,-138.37"/>
<polygon fill="black" stroke="black" points="622.11,-141.02 632.3,-143.9 626.12,-135.29 622.11,-141.02"/>
</g>
<!-- r3_node_10&#45;&gt;r3_node_14 -->
<g id="edge21" class="edge">
<title>r3_node_10&#45;&gt;r3_node_14</title>
<path fill="none" stroke="black" d="M518.87,-73.98C500.39,-63.88 475.81,-50.43 455.57,-39.37"/>
<polygon fill="black" stroke="black" points="457.52,-36.45 447.07,-34.72 454.16,-42.59 457.52,-36.45"/>
</g>
<!-- r3_node_11&#45;&gt;r3_node_9 -->
<g id="edge36" class="edge">
<title>r3_node_11&#45;&gt;r3_node_9</title>
<path fill="none" stroke="black" d="M609.53,-173.69C553.38,-186.76 455,-208.77 393.66,-221.99"/>
<polygon fill="black" stroke="black" points="393.17,-218.51 384.13,-224.03 394.64,-225.35 393.17,-218.51"/>
</g>
<!-- r3_node_11&#45;&gt;r3_node_10 -->
<g id="edge35" class="edge">
<title>r3_node_11&#45;&gt;r3_node_10</title>
<path fill="none" stroke="black" d="M624.21,-146.15C608.74,-136.72 589.71,-124.31 574.27,-113.66"/>
<polygon fill="black" stroke="black" points="576.63,-111.03 566.43,-108.16 572.61,-116.76 576.63,-111.03"/>
</g>
<!-- r3_node_11&#45;&gt;r3_node_14 -->
<g id="edge37" class="edge">
<title>r3_node_11&#45;&gt;r3_node_14</title>
<path fill="none" stroke="black" d="M611.27,-149.68C564.45,-136.54 492.98,-115.69 482.33,-108 460.08,-91.96 442.6,-65.78 431.57,-45.95"/>
<polygon fill="black" stroke="black" points="434.76,-44.49 426.97,-37.31 428.58,-47.78 434.76,-44.49"/>
</g>
<!-- r3_node_8&#45;&gt;r3_node_15 -->
<g id="edge41" class="edge">
<title>r3_node_8&#45;&gt;r3_node_15</title>
<path fill="none" stroke="black" d="M296.56,-288.29C282.98,-269.64 266.16,-239.06 280.33,-216 298.84,-185.85 332.81,-210.15 351.33,-180 359.7,-166.37 361.49,-156.36 351.33,-144 326,-113.2 218.62,-100.01 147.42,-94.58"/>
<polygon fill="black" stroke="black" points="148.06,-91.12 137.83,-93.88 147.55,-98.1 148.06,-91.12"/>
</g>
<!-- r3_node_8&#45;&gt;r3_node_18 -->
<g id="edge38" class="edge">
<title>r3_node_8&#45;&gt;r3_node_18</title>
<path fill="none" stroke="black" d="M346.02,-292.98C371.19,-283.69 405.13,-269.48 432.33,-252 452.45,-239.07 450.68,-226.18 472.33,-216 571.52,-169.34 637.61,-256.29 716.33,-180 732.11,-164.71 735.41,-139.54 735.17,-119.86"/>
<polygon fill="black" stroke="black" points="738.67,-119.79 734.71,-109.96 731.68,-120.12 738.67,-119.79"/>
</g>
<!-- r3_node_8&#45;&gt;r3_node_19 -->
<g id="edge39" class="edge">
<title>r3_node_8&#45;&gt;r3_node_19</title>
<path fill="none" stroke="black" d="M343.11,-292C361.6,-283.19 383.84,-269.87 398.33,-252 429.36,-213.73 446.76,-187.34 423.33,-144 409.43,-118.3 390.38,-127.16 368.33,-108 346.3,-88.86 324.71,-63.57 309.85,-44.84"/>
<polygon fill="black" stroke="black" points="312.77,-42.89 303.86,-37.16 307.25,-47.2 312.77,-42.89"/>
</g>
<!-- r3_node_8&#45;&gt;r3_node_17 -->
<g id="edge43" class="edge">
<title>r3_node_8&#45;&gt;r3_node_17</title>
<path fill="none" stroke="black" d="M349.63,-294.33C357.48,-292.22 365.66,-290.03 373.33,-288 424.41,-274.47 482.79,-259.34 523.96,-248.72"/>
<polygon fill="black" stroke="black" points="524.83,-252.11 533.64,-246.23 523.08,-245.33 524.83,-252.11"/>
</g>
<!-- r3_node_8&#45;&gt;r3_node_7 -->
<g id="edge40" class="edge">
<title>r3_node_8&#45;&gt;r3_node_7</title>
<path fill="none" stroke="black" d="M312.13,-324.19C310.78,-348.21 303.97,-392.11 297.38,-420.91"/>
<polygon fill="black" stroke="black" points="294.04,-419.86 295.05,-430.4 300.84,-421.53 294.04,-419.86"/>
</g>
<!-- r3_node_8&#45;&gt;r3_node_16 -->
<g id="edge42" class="edge">
<title>r3_node_8&#45;&gt;r3_node_16</title>
<path fill="none" stroke="black" d="M283.23,-290.39C269.44,-281.34 254,-268.32 246.33,-252 239.52,-237.52 241.16,-231.14 246.33,-216 249.77,-205.92 255.99,-196.27 262.57,-188.04"/>
<polygon fill="black" stroke="black" points="265.15,-190.4 269.03,-180.54 259.85,-185.83 265.15,-190.4"/>
</g>
</g>
</svg>
