<?xml version="1.0" encoding="UTF-8" standalone="no"?>
<!DOCTYPE svg PUBLIC "-//W3C//DTD SVG 1.1//EN"
 "http://www.w3.org/Graphics/SVG/1.1/DTD/svg11.dtd">
<!-- Generated by graphviz version 12.2.1 (20241206.2353)
 -->
<!-- Pages: 1 -->
<svg width="492pt" height="116pt"
 viewBox="0.00 0.00 492.26 116.00" xmlns="http://www.w3.org/2000/svg" xmlns:xlink="http://www.w3.org/1999/xlink">
<g id="graph0" class="graph" transform="scale(1 1) rotate(0) translate(4 112)">
<polygon fill="white" stroke="none" points="-4,4 -4,-112 488.26,-112 488.26,4 -4,4"/>
<!-- r3_node_30 -->
<g id="node1" class="node">
<title>r3_node_30</title>
<ellipse fill="none" stroke="black" cx="111.33" cy="-90" rx="54.93" ry="18"/>
<text text-anchor="middle" x="111.33" y="-84.95" font-family="Times,serif" font-size="14.00">r3_node_30</text>
</g>
<!-- r3_node_8 -->
<g id="node2" class="node">
<title>r3_node_8</title>
<ellipse fill="none" stroke="black" cx="50.33" cy="-18" rx="50.33" ry="18"/>
<text text-anchor="middle" x="50.33" y="-12.95" font-family="Times,serif" font-size="14.00">r3_node_8</text>
</g>
<!-- r3_node_30&#45;&gt;r3_node_8 -->
<g id="edge1" class="edge">
<title>r3_node_30&#45;&gt;r3_node_8</title>
<path fill="none" stroke="black" d="M96.87,-72.41C89.5,-63.95 80.39,-53.49 72.18,-44.08"/>
<polygon fill="black" stroke="black" points="74.88,-41.85 65.67,-36.61 69.61,-46.45 74.88,-41.85"/>
</g>
<!-- r3_node_14 -->
<g id="node3" class="node">
<title>r3_node_14</title>
<ellipse fill="none" stroke="black" cx="173.33" cy="-18" rx="54.93" ry="18"/>
<text text-anchor="middle" x="173.33" y="-12.95" font-family="Times,serif" font-size="14.00">r3_node_14</text>
</g>
<!-- r3_node_30&#45;&gt;r3_node_14 -->
<g id="edge2" class="edge">
<title>r3_node_30&#45;&gt;r3_node_14</title>
<path fill="none" stroke="black" d="M126.02,-72.41C133.51,-63.95 142.78,-53.49 151.12,-44.08"/>
<polygon fill="black" stroke="black" points="153.73,-46.41 157.74,-36.6 148.49,-41.77 153.73,-46.41"/>
</g>
<!-- r3_node_28 -->
<g id="node4" class="node">
<title>r3_node_28</title>
<ellipse fill="none" stroke="black" cx="301.33" cy="-18" rx="54.93" ry="18"/>
<text text-anchor="middle" x="301.33" y="-12.95" font-family="Times,serif" font-size="14.00">r3_node_28</text>
</g>
<!-- r3_node_30&#45;&gt;r3_node_28 -->
<g id="edge3" class="edge">
<title>r3_node_30&#45;&gt;r3_node_28</title>
<path fill="none" stroke="black" d="M146.62,-76C177.32,-64.69 222,-48.23 255.46,-35.9"/>
<polygon fill="black" stroke="black" points="256.31,-39.32 264.48,-32.57 253.89,-32.75 256.31,-39.32"/>
</g>
<!-- r3_node_16 -->
<g id="node5" class="node">
<title>r3_node_16</title>
<ellipse fill="none" stroke="black" cx="429.33" cy="-18" rx="54.93" ry="18"/>
<text text-anchor="middle" x="429.33" y="-12.95" font-family="Times,serif" font-size="14.00">r3_node_16</text>
</g>
<!-- r3_node_30&#45;&gt;r3_node_16 -->
<g id="edge4" class="edge">
<title>r3_node_30&#45;&gt;r3_node_16</title>
<path fill="none" stroke="black" d="M157.84,-80.08C208.91,-70.1 293.22,-53.09 365.33,-36 369.13,-35.1 373.06,-34.14 377.01,-33.14"/>
<polygon fill="black" stroke="black" points="377.81,-36.55 386.63,-30.68 376.07,-29.77 377.81,-36.55"/>
</g>
</g>
</svg>
