<?xml version="1.0" encoding="UTF-8" standalone="no"?>
<!DOCTYPE svg PUBLIC "-//W3C//DTD SVG 1.1//EN"
 "http://www.w3.org/Graphics/SVG/1.1/DTD/svg11.dtd">
<!-- Generated by graphviz version 12.2.1 (20241206.2353)
 -->
<!-- Pages: 1 -->
<svg width="487pt" height="260pt"
 viewBox="0.00 0.00 486.74 260.00" xmlns="http://www.w3.org/2000/svg" xmlns:xlink="http://www.w3.org/1999/xlink">
<g id="graph0" class="graph" transform="scale(1 1) rotate(0) translate(4 256)">
<polygon fill="white" stroke="none" points="-4,4 -4,-256 482.74,-256 482.74,4 -4,4"/>
<!-- r1_node_10 -->
<g id="node1" class="node">
<title>r1_node_10</title>
<ellipse fill="none" stroke="black" cx="100.33" cy="-234" rx="54.93" ry="18"/>
<text text-anchor="middle" x="100.33" y="-228.95" font-family="Times,serif" font-size="14.00">r1_node_10</text>
</g>
<!-- r1_node_8 -->
<g id="node2" class="node">
<title>r1_node_8</title>
<ellipse fill="none" stroke="black" cx="151.33" cy="-162" rx="50.33" ry="18"/>
<text text-anchor="middle" x="151.33" y="-156.95" font-family="Times,serif" font-size="14.00">r1_node_8</text>
</g>
<!-- r1_node_10&#45;&gt;r1_node_8 -->
<g id="edge1" class="edge">
<title>r1_node_10&#45;&gt;r1_node_8</title>
<path fill="none" stroke="black" d="M107.02,-215.7C112.26,-207.32 119.51,-197.1 126.69,-187.9"/>
<polygon fill="black" stroke="black" points="129.26,-190.3 132.82,-180.32 123.81,-185.9 129.26,-190.3"/>
</g>
<!-- r1_node_2 -->
<g id="node3" class="node">
<title>r1_node_2</title>
<ellipse fill="none" stroke="black" cx="58.33" cy="-90" rx="50.33" ry="18"/>
<text text-anchor="middle" x="58.33" y="-84.95" font-family="Times,serif" font-size="14.00">r1_node_2</text>
</g>
<!-- r1_node_10&#45;&gt;r1_node_2 -->
<g id="edge2" class="edge">
<title>r1_node_10&#45;&gt;r1_node_2</title>
<path fill="none" stroke="black" d="M90.68,-215.87C81.05,-191.88 67.76,-147.99 61.15,-119.16"/>
<polygon fill="black" stroke="black" points="64.63,-118.73 59.13,-109.67 57.78,-120.18 64.63,-118.73"/>
</g>
<!-- r1_node_1 -->
<g id="node4" class="node">
<title>r1_node_1</title>
<ellipse fill="none" stroke="black" cx="394.33" cy="-162" rx="50.33" ry="18"/>
<text text-anchor="middle" x="394.33" y="-156.95" font-family="Times,serif" font-size="14.00">r1_node_1</text>
</g>
<!-- r1_node_10&#45;&gt;r1_node_1 -->
<g id="edge3" class="edge">
<title>r1_node_10&#45;&gt;r1_node_1</title>
<path fill="none" stroke="black" d="M142.86,-222.34C187.88,-212.05 260.62,-195.75 323.33,-180 329.21,-178.52 335.4,-176.9 341.57,-175.27"/>
<polygon fill="black" stroke="black" points="342.37,-178.68 351.15,-172.74 340.58,-171.91 342.37,-178.68"/>
</g>
<!-- r1_node_9 -->
<g id="node5" class="node">
<title>r1_node_9</title>
<ellipse fill="none" stroke="black" cx="273.33" cy="-162" rx="50.33" ry="18"/>
<text text-anchor="middle" x="273.33" y="-156.95" font-family="Times,serif" font-size="14.00">r1_node_9</text>
</g>
<!-- r1_node_10&#45;&gt;r1_node_9 -->
<g id="edge4" class="edge">
<title>r1_node_10&#45;&gt;r1_node_9</title>
<path fill="none" stroke="black" d="M130.18,-218.67C156.99,-207.22 196.57,-191.17 227.38,-179.24"/>
<polygon fill="black" stroke="black" points="228.38,-182.61 236.46,-175.76 225.87,-176.07 228.38,-182.61"/>
</g>
<!-- r1_node_8&#45;&gt;r1_node_10 -->
<g id="edge6" class="edge">
<title>r1_node_8&#45;&gt;r1_node_10</title>
<path fill="none" stroke="black" d="M144.75,-180.12C139.52,-188.5 132.26,-198.74 125.06,-207.98"/>
<polygon fill="black" stroke="black" points="122.47,-205.61 118.91,-215.59 127.92,-210.01 122.47,-205.61"/>
</g>
<!-- r1_node_8&#45;&gt;r1_node_2 -->
<g id="edge5" class="edge">
<title>r1_node_8&#45;&gt;r1_node_2</title>
<path fill="none" stroke="black" d="M125.97,-146.15C112.6,-136.96 96.38,-124.95 83.11,-114.48"/>
<polygon fill="black" stroke="black" points="85.64,-112.02 75.65,-108.49 81.25,-117.48 85.64,-112.02"/>
</g>
<!-- r1_node_4 -->
<g id="node8" class="node">
<title>r1_node_4</title>
<ellipse fill="none" stroke="black" cx="247.33" cy="-90" rx="50.33" ry="18"/>
<text text-anchor="middle" x="247.33" y="-84.95" font-family="Times,serif" font-size="14.00">r1_node_4</text>
</g>
<!-- r1_node_8&#45;&gt;r1_node_4 -->
<g id="edge7" class="edge">
<title>r1_node_8&#45;&gt;r1_node_4</title>
<path fill="none" stroke="black" d="M172.63,-145.46C185.59,-136.02 202.36,-123.79 216.72,-113.32"/>
<polygon fill="black" stroke="black" points="218.51,-116.35 224.53,-107.63 214.38,-110.69 218.51,-116.35"/>
</g>
<!-- r1_node_5 -->
<g id="node9" class="node">
<title>r1_node_5</title>
<ellipse fill="none" stroke="black" cx="50.33" cy="-18" rx="50.33" ry="18"/>
<text text-anchor="middle" x="50.33" y="-12.95" font-family="Times,serif" font-size="14.00">r1_node_5</text>
</g>
<!-- r1_node_8&#45;&gt;r1_node_5 -->
<g id="edge8" class="edge">
<title>r1_node_8&#45;&gt;r1_node_5</title>
<path fill="none" stroke="black" d="M147.62,-143.6C142.93,-124.61 133.48,-94 117.33,-72 108.46,-59.92 96.16,-49.13 84.52,-40.48"/>
<polygon fill="black" stroke="black" points="86.82,-37.82 76.64,-34.9 82.78,-43.53 86.82,-37.82"/>
</g>
<!-- r1_node_2&#45;&gt;r1_node_10 -->
<g id="edge13" class="edge">
<title>r1_node_2&#45;&gt;r1_node_10</title>
<path fill="none" stroke="black" d="M67.97,-108.11C77.58,-132.03 90.83,-175.76 97.46,-204.6"/>
<polygon fill="black" stroke="black" points="93.97,-205.05 99.48,-214.11 100.82,-203.6 93.97,-205.05"/>
</g>
<!-- r1_node_2&#45;&gt;r1_node_8 -->
<g id="edge16" class="edge">
<title>r1_node_2&#45;&gt;r1_node_8</title>
<path fill="none" stroke="black" d="M83.84,-105.95C97.31,-115.22 113.63,-127.32 126.92,-137.81"/>
<polygon fill="black" stroke="black" points="124.39,-140.27 134.38,-143.82 128.78,-134.82 124.39,-140.27"/>
</g>
<!-- r1_node_3 -->
<g id="node6" class="node">
<title>r1_node_3</title>
<ellipse fill="none" stroke="black" cx="188.33" cy="-18" rx="50.33" ry="18"/>
<text text-anchor="middle" x="188.33" y="-12.95" font-family="Times,serif" font-size="14.00">r1_node_3</text>
</g>
<!-- r1_node_2&#45;&gt;r1_node_3 -->
<g id="edge14" class="edge">
<title>r1_node_2&#45;&gt;r1_node_3</title>
<path fill="none" stroke="black" d="M85.26,-74.5C104.44,-64.17 130.43,-50.17 151.52,-38.82"/>
<polygon fill="black" stroke="black" points="152.95,-42.03 160.09,-34.2 149.63,-35.86 152.95,-42.03"/>
</g>
<!-- r1_node_6 -->
<g id="node7" class="node">
<title>r1_node_6</title>
<ellipse fill="none" stroke="black" cx="316.33" cy="-18" rx="50.33" ry="18"/>
<text text-anchor="middle" x="316.33" y="-12.95" font-family="Times,serif" font-size="14.00">r1_node_6</text>
</g>
<!-- r1_node_2&#45;&gt;r1_node_6 -->
<g id="edge15" class="edge">
<title>r1_node_2&#45;&gt;r1_node_6</title>
<path fill="none" stroke="black" d="M97.51,-78.37C142.63,-66.13 216.85,-45.99 266.16,-32.61"/>
<polygon fill="black" stroke="black" points="267,-36.01 275.74,-30.01 265.17,-29.25 267,-36.01"/>
</g>
<!-- r1_node_1&#45;&gt;r1_node_10 -->
<g id="edge10" class="edge">
<title>r1_node_1&#45;&gt;r1_node_10</title>
<path fill="none" stroke="black" d="M359.27,-175.31C353.31,-176.93 347.17,-178.53 341.33,-180 279.25,-195.59 207.33,-211.73 158.23,-222.03"/>
<polygon fill="black" stroke="black" points="157.75,-218.56 148.67,-224.02 159.18,-225.41 157.75,-218.56"/>
</g>
<!-- r1_node_1&#45;&gt;r1_node_3 -->
<g id="edge11" class="edge">
<title>r1_node_1&#45;&gt;r1_node_3</title>
<path fill="none" stroke="black" d="M412.82,-144.98C432.34,-126.15 457.9,-94.61 439.33,-72 386.98,-8.29 337.82,-53.87 257.33,-36 251.46,-34.7 245.32,-33.27 239.23,-31.82"/>
<polygon fill="black" stroke="black" points="240.4,-28.51 229.86,-29.56 238.76,-35.31 240.4,-28.51"/>
</g>
<!-- r1_node_1&#45;&gt;r1_node_6 -->
<g id="edge9" class="edge">
<title>r1_node_1&#45;&gt;r1_node_6</title>
<path fill="none" stroke="black" d="M426.77,-147.98C443.63,-139.35 462.67,-126.23 472.33,-108 479.82,-93.86 481.65,-85.01 472.33,-72 450.78,-41.92 411.17,-28.7 377.25,-22.99"/>
<polygon fill="black" stroke="black" points="377.91,-19.55 367.5,-21.55 376.88,-26.48 377.91,-19.55"/>
</g>
<!-- r1_node_7 -->
<g id="node10" class="node">
<title>r1_node_7</title>
<ellipse fill="none" stroke="black" cx="380.33" cy="-90" rx="50.33" ry="18"/>
<text text-anchor="middle" x="380.33" y="-84.95" font-family="Times,serif" font-size="14.00">r1_node_7</text>
</g>
<!-- r1_node_1&#45;&gt;r1_node_7 -->
<g id="edge12" class="edge">
<title>r1_node_1&#45;&gt;r1_node_7</title>
<path fill="none" stroke="black" d="M390.87,-143.7C389.39,-136.32 387.63,-127.52 385.98,-119.25"/>
<polygon fill="black" stroke="black" points="389.44,-118.71 384.05,-109.59 382.57,-120.08 389.44,-118.71"/>
</g>
<!-- r1_node_9&#45;&gt;r1_node_10 -->
<g id="edge19" class="edge">
<title>r1_node_9&#45;&gt;r1_node_10</title>
<path fill="none" stroke="black" d="M244.2,-177.02C217.75,-188.34 178.44,-204.29 147.54,-216.27"/>
<polygon fill="black" stroke="black" points="146.49,-212.92 138.41,-219.78 149,-219.45 146.49,-212.92"/>
</g>
<!-- r1_node_9&#45;&gt;r1_node_4 -->
<g id="edge18" class="edge">
<title>r1_node_9&#45;&gt;r1_node_4</title>
<path fill="none" stroke="black" d="M266.9,-143.7C264.1,-136.15 260.74,-127.12 257.61,-118.68"/>
<polygon fill="black" stroke="black" points="260.97,-117.68 254.21,-109.52 254.41,-120.12 260.97,-117.68"/>
</g>
<!-- r1_node_9&#45;&gt;r1_node_7 -->
<g id="edge17" class="edge">
<title>r1_node_9&#45;&gt;r1_node_7</title>
<path fill="none" stroke="black" d="M296.81,-145.64C311.72,-135.88 331.24,-123.12 347.65,-112.38"/>
<polygon fill="black" stroke="black" points="349.18,-115.56 355.63,-107.15 345.35,-109.7 349.18,-115.56"/>
</g>
</g>
</svg>
