<?xml version="1.0" encoding="UTF-8" standalone="no"?>
<!DOCTYPE svg PUBLIC "-//W3C//DTD SVG 1.1//EN"
 "http://www.w3.org/Graphics/SVG/1.1/DTD/svg11.dtd">
<!-- Generated by graphviz version 12.2.1 (20241206.2353)
 -->
<!-- Pages: 1 -->
<svg width="770pt" height="404pt"
 viewBox="0.00 0.00 770.19 404.00" xmlns="http://www.w3.org/2000/svg" xmlns:xlink="http://www.w3.org/1999/xlink">
<g id="graph0" class="graph" transform="scale(1 1) rotate(0) translate(4 400)">
<polygon fill="white" stroke="none" points="-4,4 -4,-400 766.19,-400 766.19,4 -4,4"/>
<!-- r3_node_7 -->
<g id="node1" class="node">
<title>r3_node_7</title>
<ellipse fill="none" stroke="black" cx="95.93" cy="-378" rx="50.33" ry="18"/>
<text text-anchor="middle" x="95.93" y="-372.95" font-family="Times,serif" font-size="14.00">r3_node_7</text>
</g>
<!-- r3_node_14 -->
<g id="node2" class="node">
<title>r3_node_14</title>
<ellipse fill="none" stroke="black" cx="299.93" cy="-90" rx="54.93" ry="18"/>
<text text-anchor="middle" x="299.93" y="-84.95" font-family="Times,serif" font-size="14.00">r3_node_14</text>
</g>
<!-- r3_node_7&#45;&gt;r3_node_14 -->
<g id="edge1" class="edge">
<title>r3_node_7&#45;&gt;r3_node_14</title>
<path fill="none" stroke="black" d="M140.44,-369.1C171.6,-361.73 212.72,-348.13 241.93,-324 270.67,-300.27 274.69,-287.84 284.93,-252 298.13,-205.84 280.73,-191.61 286.93,-144 288,-135.79 289.86,-127.02 291.83,-119.02"/>
<polygon fill="black" stroke="black" points="295.19,-120.03 294.36,-109.47 288.42,-118.24 295.19,-120.03"/>
</g>
<!-- r3_node_11 -->
<g id="node3" class="node">
<title>r3_node_11</title>
<ellipse fill="none" stroke="black" cx="361.93" cy="-306" rx="54.93" ry="18"/>
<text text-anchor="middle" x="361.93" y="-300.95" font-family="Times,serif" font-size="14.00">r3_node_11</text>
</g>
<!-- r3_node_7&#45;&gt;r3_node_11 -->
<g id="edge2" class="edge">
<title>r3_node_7&#45;&gt;r3_node_11</title>
<path fill="none" stroke="black" d="M133.84,-365.68C179.3,-353.17 255.61,-333.06 307.38,-319.94"/>
<polygon fill="black" stroke="black" points="308.05,-323.38 316.89,-317.54 306.34,-316.59 308.05,-323.38"/>
</g>
<!-- r3_node_15 -->
<g id="node4" class="node">
<title>r3_node_15</title>
<ellipse fill="none" stroke="black" cx="260.93" cy="-18" rx="54.93" ry="18"/>
<text text-anchor="middle" x="260.93" y="-12.95" font-family="Times,serif" font-size="14.00">r3_node_15</text>
</g>
<!-- r3_node_7&#45;&gt;r3_node_15 -->
<g id="edge3" class="edge">
<title>r3_node_7&#45;&gt;r3_node_15</title>
<path fill="none" stroke="black" d="M117.66,-361.36C145.01,-340.18 190.65,-299.5 208.93,-252 214.68,-237.07 210.68,-231.9 208.93,-216 207.15,-199.71 202.72,-196.29 200.93,-180 198.51,-157.87 201.19,-75.82 202.93,-72 208.32,-60.22 217.69,-49.89 227.35,-41.56"/>
<polygon fill="black" stroke="black" points="229.39,-44.4 235.01,-35.42 225.01,-38.94 229.39,-44.4"/>
</g>
<!-- r3_node_4 -->
<g id="node5" class="node">
<title>r3_node_4</title>
<ellipse fill="none" stroke="black" cx="387.93" cy="-234" rx="50.33" ry="18"/>
<text text-anchor="middle" x="387.93" y="-228.95" font-family="Times,serif" font-size="14.00">r3_node_4</text>
</g>
<!-- r3_node_7&#45;&gt;r3_node_4 -->
<g id="edge4" class="edge">
<title>r3_node_7&#45;&gt;r3_node_4</title>
<path fill="none" stroke="black" d="M142.3,-370.48C229.14,-358.79 407.96,-334.53 416.93,-324 432.5,-305.73 418.86,-280.14 405.33,-261.08"/>
<polygon fill="black" stroke="black" points="408.29,-259.2 399.52,-253.26 402.67,-263.38 408.29,-259.2"/>
</g>
<!-- r3_node_10 -->
<g id="node6" class="node">
<title>r3_node_10</title>
<ellipse fill="none" stroke="black" cx="54.93" cy="-306" rx="54.93" ry="18"/>
<text text-anchor="middle" x="54.93" y="-300.95" font-family="Times,serif" font-size="14.00">r3_node_10</text>
</g>
<!-- r3_node_7&#45;&gt;r3_node_10 -->
<g id="edge5" class="edge">
<title>r3_node_7&#45;&gt;r3_node_10</title>
<path fill="none" stroke="black" d="M80.38,-360.41C74.89,-352.51 68.98,-342.85 64.12,-333.94"/>
<polygon fill="black" stroke="black" points="67.37,-332.59 59.68,-325.3 61.14,-335.8 67.37,-332.59"/>
</g>
<!-- r3_node_12 -->
<g id="node7" class="node">
<title>r3_node_12</title>
<ellipse fill="none" stroke="black" cx="419.93" cy="-18" rx="54.93" ry="18"/>
<text text-anchor="middle" x="419.93" y="-12.95" font-family="Times,serif" font-size="14.00">r3_node_12</text>
</g>
<!-- r3_node_7&#45;&gt;r3_node_12 -->
<g id="edge6" class="edge">
<title>r3_node_7&#45;&gt;r3_node_12</title>
<path fill="none" stroke="black" d="M128.9,-364.14C148.33,-355.23 172.29,-341.77 188.93,-324 213.26,-298.03 214.8,-286.39 223.93,-252 244.51,-174.51 185.62,-134.42 235.93,-72 244.24,-61.69 313.47,-43.69 364.57,-31.56"/>
<polygon fill="black" stroke="black" points="365.09,-35.03 374.03,-29.34 363.49,-28.22 365.09,-35.03"/>
</g>
<!-- r3_node_11&#45;&gt;r3_node_7 -->
<g id="edge7" class="edge">
<title>r3_node_11&#45;&gt;r3_node_7</title>
<path fill="none" stroke="black" d="M322.38,-318.78C276.19,-331.47 199.8,-351.58 148.63,-364.53"/>
<polygon fill="black" stroke="black" points="147.78,-361.13 138.94,-366.97 149.49,-367.92 147.78,-361.13"/>
</g>
<!-- r3_node_11&#45;&gt;r3_node_4 -->
<g id="edge8" class="edge">
<title>r3_node_11&#45;&gt;r3_node_4</title>
<path fill="none" stroke="black" d="M362.45,-287.7C364.52,-279.95 367.76,-270.64 371.31,-262.02"/>
<polygon fill="black" stroke="black" points="374.45,-263.57 375.3,-253.01 368.05,-260.73 374.45,-263.57"/>
</g>
<!-- r3_node_4&#45;&gt;r3_node_7 -->
<g id="edge36" class="edge">
<title>r3_node_4&#45;&gt;r3_node_7</title>
<path fill="none" stroke="black" d="M409.85,-250.35C430.08,-269.39 453.68,-302.01 434.93,-324 426.03,-334.45 249.75,-358.44 154.94,-370.22"/>
<polygon fill="black" stroke="black" points="154.51,-366.74 145.02,-371.44 155.37,-373.69 154.51,-366.74"/>
</g>
<!-- r3_node_4&#45;&gt;r3_node_11 -->
<g id="edge32" class="edge">
<title>r3_node_4&#45;&gt;r3_node_11</title>
<path fill="none" stroke="black" d="M387.43,-252.28C385.37,-259.94 382.18,-269.16 378.67,-277.72"/>
<polygon fill="black" stroke="black" points="375.55,-276.11 374.72,-286.67 381.96,-278.94 375.55,-276.11"/>
</g>
<!-- r3_node_13 -->
<g id="node9" class="node">
<title>r3_node_13</title>
<ellipse fill="none" stroke="black" cx="563.93" cy="-18" rx="54.93" ry="18"/>
<text text-anchor="middle" x="563.93" y="-12.95" font-family="Times,serif" font-size="14.00">r3_node_13</text>
</g>
<!-- r3_node_4&#45;&gt;r3_node_13 -->
<g id="edge33" class="edge">
<title>r3_node_4&#45;&gt;r3_node_13</title>
<path fill="none" stroke="black" d="M438.17,-231.53C514.48,-228.13 654.04,-216.89 684.93,-180 712.26,-147.37 652.72,-77.23 647.93,-72 635.82,-58.77 619.69,-47.55 604.8,-38.88"/>
<polygon fill="black" stroke="black" points="606.52,-35.83 596.08,-34.03 603.12,-41.94 606.52,-35.83"/>
</g>
<!-- r3_node_1 -->
<g id="node12" class="node">
<title>r3_node_1</title>
<ellipse fill="none" stroke="black" cx="625.93" cy="-162" rx="50.33" ry="18"/>
<text text-anchor="middle" x="625.93" y="-156.95" font-family="Times,serif" font-size="14.00">r3_node_1</text>
</g>
<!-- r3_node_4&#45;&gt;r3_node_1 -->
<g id="edge35" class="edge">
<title>r3_node_4&#45;&gt;r3_node_1</title>
<path fill="none" stroke="black" d="M423.61,-220.97C463.9,-208.54 529.57,-189.21 575.17,-176.33"/>
<polygon fill="black" stroke="black" points="575.88,-179.77 584.56,-173.69 573.99,-173.03 575.88,-179.77"/>
</g>
<!-- r3_node_3 -->
<g id="node14" class="node">
<title>r3_node_3</title>
<ellipse fill="none" stroke="black" cx="467.93" cy="-162" rx="50.33" ry="18"/>
<text text-anchor="middle" x="467.93" y="-156.95" font-family="Times,serif" font-size="14.00">r3_node_3</text>
</g>
<!-- r3_node_4&#45;&gt;r3_node_3 -->
<g id="edge34" class="edge">
<title>r3_node_4&#45;&gt;r3_node_3</title>
<path fill="none" stroke="black" d="M401.05,-216.41C410.67,-207.11 423.91,-195.38 436.14,-185.28"/>
<polygon fill="black" stroke="black" points="438.04,-188.24 443.61,-179.23 433.64,-182.8 438.04,-188.24"/>
</g>
<!-- r3_node_8 -->
<g id="node15" class="node">
<title>r3_node_8</title>
<ellipse fill="none" stroke="black" cx="345.93" cy="-162" rx="50.33" ry="18"/>
<text text-anchor="middle" x="345.93" y="-156.95" font-family="Times,serif" font-size="14.00">r3_node_8</text>
</g>
<!-- r3_node_4&#45;&gt;r3_node_8 -->
<g id="edge31" class="edge">
<title>r3_node_4&#45;&gt;r3_node_8</title>
<path fill="none" stroke="black" d="M372.39,-216.76C366.77,-208.87 360.68,-199.16 355.65,-190.18"/>
<polygon fill="black" stroke="black" points="358.8,-188.66 351.02,-181.46 352.61,-191.94 358.8,-188.66"/>
</g>
<!-- r3_node_10&#45;&gt;r3_node_7 -->
<g id="edge20" class="edge">
<title>r3_node_10&#45;&gt;r3_node_7</title>
<path fill="none" stroke="black" d="M70.51,-323.62C75.88,-331.36 81.65,-340.76 86.44,-349.51"/>
<polygon fill="black" stroke="black" points="83.31,-351.08 91.02,-358.35 89.53,-347.86 83.31,-351.08"/>
</g>
<!-- r3_node_18 -->
<g id="node10" class="node">
<title>r3_node_18</title>
<ellipse fill="none" stroke="black" cx="70.93" cy="-18" rx="54.93" ry="18"/>
<text text-anchor="middle" x="70.93" y="-12.95" font-family="Times,serif" font-size="14.00">r3_node_18</text>
</g>
<!-- r3_node_10&#45;&gt;r3_node_18 -->
<g id="edge19" class="edge">
<title>r3_node_10&#45;&gt;r3_node_18</title>
<path fill="none" stroke="black" d="M55.91,-287.54C58.58,-239.76 66.04,-106.51 69.33,-47.61"/>
<polygon fill="black" stroke="black" points="72.82,-47.92 69.89,-37.74 65.83,-47.53 72.82,-47.92"/>
</g>
<!-- r3_node_2 -->
<g id="node16" class="node">
<title>r3_node_2</title>
<ellipse fill="none" stroke="black" cx="149.93" cy="-234" rx="50.33" ry="18"/>
<text text-anchor="middle" x="149.93" y="-228.95" font-family="Times,serif" font-size="14.00">r3_node_2</text>
</g>
<!-- r3_node_10&#45;&gt;r3_node_2 -->
<g id="edge21" class="edge">
<title>r3_node_10&#45;&gt;r3_node_2</title>
<path fill="none" stroke="black" d="M71.61,-288.41C83.61,-278.79 100.04,-266.58 114.81,-256.26"/>
<polygon fill="black" stroke="black" points="116.71,-259.21 122.97,-250.66 112.74,-253.44 116.71,-259.21"/>
</g>
<!-- r3_node_9 -->
<g id="node8" class="node">
<title>r3_node_9</title>
<ellipse fill="none" stroke="black" cx="466.93" cy="-378" rx="50.33" ry="18"/>
<text text-anchor="middle" x="466.93" y="-372.95" font-family="Times,serif" font-size="14.00">r3_node_9</text>
</g>
<!-- r3_node_9&#45;&gt;r3_node_12 -->
<g id="edge9" class="edge">
<title>r3_node_9&#45;&gt;r3_node_12</title>
<path fill="none" stroke="black" d="M510.54,-368.68C540.21,-361.18 578.87,-347.58 605.93,-324 671.81,-266.61 705.48,-228.92 684.93,-144 676.47,-109.03 676.31,-94.12 647.93,-72 644.48,-69.31 542.13,-46.17 475.75,-31.37"/>
<polygon fill="black" stroke="black" points="476.62,-27.98 466.1,-29.22 475.1,-34.81 476.62,-27.98"/>
</g>
<!-- r3_node_9&#45;&gt;r3_node_13 -->
<g id="edge10" class="edge">
<title>r3_node_9&#45;&gt;r3_node_13</title>
<path fill="none" stroke="black" d="M513.37,-370.55C550.03,-363.7 601.14,-350.1 638.93,-324 728.95,-261.84 734.85,-215.14 756.93,-108 760.16,-92.33 766.63,-84.72 756.93,-72 740.87,-50.93 675.48,-36.16 625.22,-27.66"/>
<polygon fill="black" stroke="black" points="626.03,-24.24 615.6,-26.08 624.9,-31.15 626.03,-24.24"/>
</g>
<!-- r3_node_5 -->
<g id="node11" class="node">
<title>r3_node_5</title>
<ellipse fill="none" stroke="black" cx="588.93" cy="-90" rx="50.33" ry="18"/>
<text text-anchor="middle" x="588.93" y="-84.95" font-family="Times,serif" font-size="14.00">r3_node_5</text>
</g>
<!-- r3_node_5&#45;&gt;r3_node_12 -->
<g id="edge12" class="edge">
<title>r3_node_5&#45;&gt;r3_node_12</title>
<path fill="none" stroke="black" d="M557.15,-75.83C530.66,-64.86 492.68,-49.13 463.38,-37"/>
<polygon fill="black" stroke="black" points="465,-33.88 454.42,-33.28 462.32,-40.34 465,-33.88"/>
</g>
<!-- r3_node_5&#45;&gt;r3_node_13 -->
<g id="edge13" class="edge">
<title>r3_node_5&#45;&gt;r3_node_13</title>
<path fill="none" stroke="black" d="M582.75,-71.7C580.06,-64.15 576.83,-55.12 573.82,-46.68"/>
<polygon fill="black" stroke="black" points="577.21,-45.77 570.55,-37.53 570.62,-48.12 577.21,-45.77"/>
</g>
<!-- r3_node_5&#45;&gt;r3_node_1 -->
<g id="edge11" class="edge">
<title>r3_node_5&#45;&gt;r3_node_1</title>
<path fill="none" stroke="black" d="M603.56,-107.62C608.49,-115.36 613.72,-124.76 618.01,-133.51"/>
<polygon fill="black" stroke="black" points="614.71,-134.7 622.07,-142.32 621.07,-131.77 614.71,-134.7"/>
</g>
<!-- r3_node_1&#45;&gt;r3_node_4 -->
<g id="edge27" class="edge">
<title>r3_node_1&#45;&gt;r3_node_4</title>
<path fill="none" stroke="black" d="M590.32,-175.02C550.08,-187.42 484.48,-206.74 438.86,-219.62"/>
<polygon fill="black" stroke="black" points="438.14,-216.19 429.46,-222.26 440.04,-222.93 438.14,-216.19"/>
</g>
<!-- r3_node_1&#45;&gt;r3_node_12 -->
<g id="edge29" class="edge">
<title>r3_node_1&#45;&gt;r3_node_12</title>
<path fill="none" stroke="black" d="M596.2,-147.06C576.62,-137.29 550.83,-123.28 529.93,-108 511.16,-94.27 509.78,-86.92 491.93,-72 479.31,-61.45 464.8,-50.55 452.13,-41.4"/>
<polygon fill="black" stroke="black" points="454.26,-38.62 444.09,-35.66 450.19,-44.32 454.26,-38.62"/>
</g>
<!-- r3_node_1&#45;&gt;r3_node_5 -->
<g id="edge28" class="edge">
<title>r3_node_1&#45;&gt;r3_node_5</title>
<path fill="none" stroke="black" d="M611.33,-144.41C606.41,-136.71 601.2,-127.34 596.92,-118.62"/>
<polygon fill="black" stroke="black" points="600.23,-117.44 592.86,-109.82 593.87,-120.37 600.23,-117.44"/>
</g>
<!-- r3_node_16 -->
<g id="node13" class="node">
<title>r3_node_16</title>
<ellipse fill="none" stroke="black" cx="427.93" cy="-90" rx="54.93" ry="18"/>
<text text-anchor="middle" x="427.93" y="-84.95" font-family="Times,serif" font-size="14.00">r3_node_16</text>
</g>
<!-- r3_node_1&#45;&gt;r3_node_16 -->
<g id="edge30" class="edge">
<title>r3_node_1&#45;&gt;r3_node_16</title>
<path fill="none" stroke="black" d="M590.99,-148.65C558.7,-137.23 510.46,-120.18 474.82,-107.58"/>
<polygon fill="black" stroke="black" points="476.22,-104.36 465.63,-104.33 473.89,-110.96 476.22,-104.36"/>
</g>
<!-- r3_node_3&#45;&gt;r3_node_4 -->
<g id="edge14" class="edge">
<title>r3_node_3&#45;&gt;r3_node_4</title>
<path fill="none" stroke="black" d="M454.77,-179.63C445.13,-188.95 431.86,-200.7 419.63,-210.81"/>
<polygon fill="black" stroke="black" points="417.72,-207.85 412.15,-216.86 422.12,-213.29 417.72,-207.85"/>
</g>
<!-- r3_node_3&#45;&gt;r3_node_16 -->
<g id="edge15" class="edge">
<title>r3_node_3&#45;&gt;r3_node_16</title>
<path fill="none" stroke="black" d="M458.25,-144.05C453.73,-136.14 448.24,-126.54 443.18,-117.69"/>
<polygon fill="black" stroke="black" points="446.28,-116.05 438.28,-109.1 440.2,-119.52 446.28,-116.05"/>
</g>
<!-- r3_node_8&#45;&gt;r3_node_14 -->
<g id="edge16" class="edge">
<title>r3_node_8&#45;&gt;r3_node_14</title>
<path fill="none" stroke="black" d="M334.8,-144.05C329.54,-136.06 323.15,-126.33 317.28,-117.4"/>
<polygon fill="black" stroke="black" points="320.21,-115.49 311.8,-109.05 314.36,-119.33 320.21,-115.49"/>
</g>
<!-- r3_node_8&#45;&gt;r3_node_4 -->
<g id="edge18" class="edge">
<title>r3_node_8&#45;&gt;r3_node_4</title>
<path fill="none" stroke="black" d="M361.41,-179.14C367.02,-187.01 373.09,-196.68 378.13,-205.64"/>
<polygon fill="black" stroke="black" points="374.97,-207.17 382.76,-214.36 381.16,-203.89 374.97,-207.17"/>
</g>
<!-- r3_node_8&#45;&gt;r3_node_16 -->
<g id="edge17" class="edge">
<title>r3_node_8&#45;&gt;r3_node_16</title>
<path fill="none" stroke="black" d="M364.54,-145.12C375.08,-136.12 388.48,-124.68 400.23,-114.65"/>
<polygon fill="black" stroke="black" points="402.35,-117.44 407.68,-108.29 397.8,-112.12 402.35,-117.44"/>
</g>
<!-- r3_node_2&#45;&gt;r3_node_15 -->
<g id="edge25" class="edge">
<title>r3_node_2&#45;&gt;r3_node_15</title>
<path fill="none" stroke="black" d="M146.51,-215.81C141.26,-184.4 134.62,-116.86 163.93,-72 174.9,-55.21 193.08,-43.3 210.75,-35.08"/>
<polygon fill="black" stroke="black" points="211.84,-38.42 219.65,-31.25 209.08,-31.99 211.84,-38.42"/>
</g>
<!-- r3_node_2&#45;&gt;r3_node_10 -->
<g id="edge24" class="edge">
<title>r3_node_2&#45;&gt;r3_node_10</title>
<path fill="none" stroke="black" d="M133.52,-251.38C121.65,-260.91 105.35,-273.03 90.62,-283.34"/>
<polygon fill="black" stroke="black" points="88.72,-280.4 82.47,-288.95 92.69,-286.16 88.72,-280.4"/>
</g>
<!-- r3_node_2&#45;&gt;r3_node_18 -->
<g id="edge26" class="edge">
<title>r3_node_2&#45;&gt;r3_node_18</title>
<path fill="none" stroke="black" d="M139.22,-216.3C133,-206.1 125.35,-192.63 119.93,-180 100.65,-135.04 85.63,-80.02 77.54,-47.33"/>
<polygon fill="black" stroke="black" points="81,-46.72 75.24,-37.83 74.2,-48.37 81,-46.72"/>
</g>
<!-- r3_node_6 -->
<g id="node17" class="node">
<title>r3_node_6</title>
<ellipse fill="none" stroke="black" cx="303.93" cy="-378" rx="50.33" ry="18"/>
<text text-anchor="middle" x="303.93" y="-372.95" font-family="Times,serif" font-size="14.00">r3_node_6</text>
</g>
<!-- r3_node_6&#45;&gt;r3_node_13 -->
<g id="edge22" class="edge">
<title>r3_node_6&#45;&gt;r3_node_13</title>
<path fill="none" stroke="black" d="M350.96,-371.02C440.26,-356.76 631.84,-311.5 702.93,-180 726.52,-136.38 708.67,-108.35 674.93,-72 658.98,-54.81 636.27,-42.61 615.56,-34.29"/>
<polygon fill="black" stroke="black" points="616.96,-31.07 606.36,-30.82 614.48,-37.62 616.96,-31.07"/>
</g>
<!-- r3_node_6&#45;&gt;r3_node_16 -->
<g id="edge23" class="edge">
<title>r3_node_6&#45;&gt;r3_node_16</title>
<path fill="none" stroke="black" d="M349.14,-369.84C380.98,-362.8 422.93,-349.29 451.93,-324 506.32,-276.57 509.78,-250.09 526.93,-180 530.74,-164.46 535.16,-157.73 526.93,-144 516.51,-126.59 498.2,-114.58 480.14,-106.45"/>
<polygon fill="black" stroke="black" points="481.57,-103.26 470.99,-102.68 478.9,-109.73 481.57,-103.26"/>
</g>
</g>
</svg>
