<?xml version="1.0" encoding="UTF-8" standalone="no"?>
<!DOCTYPE svg PUBLIC "-//W3C//DTD SVG 1.1//EN"
 "http://www.w3.org/Graphics/SVG/1.1/DTD/svg11.dtd">
<!-- Generated by graphviz version 12.2.1 (20241206.2353)
 -->
<!-- Pages: 1 -->
<svg width="374pt" height="188pt"
 viewBox="0.00 0.00 373.87 188.00" xmlns="http://www.w3.org/2000/svg" xmlns:xlink="http://www.w3.org/1999/xlink">
<g id="graph0" class="graph" transform="scale(1 1) rotate(0) translate(4 184)">
<polygon fill="white" stroke="none" points="-4,4 -4,-184 369.87,-184 369.87,4 -4,4"/>
<!-- r3_node_15 -->
<g id="node1" class="node">
<title>r3_node_15</title>
<ellipse fill="none" stroke="black" cx="54.93" cy="-18" rx="54.93" ry="18"/>
<text text-anchor="middle" x="54.93" y="-12.95" font-family="Times,serif" font-size="14.00">r3_node_15</text>
</g>
<!-- r3_node_11 -->
<g id="node2" class="node">
<title>r3_node_11</title>
<ellipse fill="none" stroke="black" cx="182.93" cy="-18" rx="54.93" ry="18"/>
<text text-anchor="middle" x="182.93" y="-12.95" font-family="Times,serif" font-size="14.00">r3_node_11</text>
</g>
<!-- r3_node_10 -->
<g id="node3" class="node">
<title>r3_node_10</title>
<ellipse fill="none" stroke="black" cx="310.93" cy="-18" rx="54.93" ry="18"/>
<text text-anchor="middle" x="310.93" y="-12.95" font-family="Times,serif" font-size="14.00">r3_node_10</text>
</g>
<!-- r3_node_1 -->
<g id="node4" class="node">
<title>r3_node_1</title>
<ellipse fill="none" stroke="black" cx="97.93" cy="-162" rx="50.33" ry="18"/>
<text text-anchor="middle" x="97.93" y="-156.95" font-family="Times,serif" font-size="14.00">r3_node_1</text>
</g>
<!-- r3_node_1&#45;&gt;r3_node_15 -->
<g id="edge2" class="edge">
<title>r3_node_1&#45;&gt;r3_node_15</title>
<path fill="none" stroke="black" d="M92.75,-143.87C85.48,-119.88 72.19,-75.99 63.46,-47.16"/>
<polygon fill="black" stroke="black" points="66.83,-46.19 60.58,-37.64 60.13,-48.22 66.83,-46.19"/>
</g>
<!-- r3_node_19 -->
<g id="node5" class="node">
<title>r3_node_19</title>
<ellipse fill="none" stroke="black" cx="160.93" cy="-90" rx="54.93" ry="18"/>
<text text-anchor="middle" x="160.93" y="-84.95" font-family="Times,serif" font-size="14.00">r3_node_19</text>
</g>
<!-- r3_node_1&#45;&gt;r3_node_19 -->
<g id="edge1" class="edge">
<title>r3_node_1&#45;&gt;r3_node_19</title>
<path fill="none" stroke="black" d="M107.31,-144.05C114.26,-135.29 123.83,-124.45 133.03,-114.86"/>
<polygon fill="black" stroke="black" points="135.35,-117.49 139.87,-107.91 130.36,-112.58 135.35,-117.49"/>
</g>
<!-- r3_node_19&#45;&gt;r3_node_15 -->
<g id="edge6" class="edge">
<title>r3_node_19&#45;&gt;r3_node_15</title>
<path fill="none" stroke="black" d="M137.15,-73.29C122.69,-63.74 104.01,-51.41 88.12,-40.91"/>
<polygon fill="black" stroke="black" points="90.18,-38.08 79.91,-35.49 86.32,-43.92 90.18,-38.08"/>
</g>
<!-- r3_node_19&#45;&gt;r3_node_11 -->
<g id="edge4" class="edge">
<title>r3_node_19&#45;&gt;r3_node_11</title>
<path fill="none" stroke="black" d="M166.37,-71.7C168.72,-64.24 171.52,-55.32 174.15,-46.97"/>
<polygon fill="black" stroke="black" points="177.45,-48.14 177.1,-37.55 170.77,-46.04 177.45,-48.14"/>
</g>
<!-- r3_node_19&#45;&gt;r3_node_10 -->
<g id="edge5" class="edge">
<title>r3_node_19&#45;&gt;r3_node_10</title>
<path fill="none" stroke="black" d="M191.65,-74.67C214.3,-64.1 245.34,-49.61 270.08,-38.06"/>
<polygon fill="black" stroke="black" points="271.31,-41.36 278.89,-33.96 268.34,-35.01 271.31,-41.36"/>
</g>
<!-- r3_node_19&#45;&gt;r3_node_1 -->
<g id="edge3" class="edge">
<title>r3_node_19&#45;&gt;r3_node_1</title>
<path fill="none" stroke="black" d="M151.68,-107.8C144.73,-116.56 135.14,-127.43 125.92,-137.06"/>
<polygon fill="black" stroke="black" points="123.57,-134.46 119.05,-144.04 128.56,-139.37 123.57,-134.46"/>
</g>
</g>
</svg>
