<?xml version="1.0" encoding="UTF-8" standalone="no"?>
<!DOCTYPE svg PUBLIC "-//W3C//DTD SVG 1.1//EN"
 "http://www.w3.org/Graphics/SVG/1.1/DTD/svg11.dtd">
<!-- Generated by graphviz version 12.2.1 (20241206.2353)
 -->
<!-- Pages: 1 -->
<svg width="1549pt" height="188pt"
 viewBox="0.00 0.00 1549.26 188.00" xmlns="http://www.w3.org/2000/svg" xmlns:xlink="http://www.w3.org/1999/xlink">
<g id="graph0" class="graph" transform="scale(1 1) rotate(0) translate(4 184)">
<polygon fill="white" stroke="none" points="-4,4 -4,-184 1545.26,-184 1545.26,4 -4,4"/>
<!-- r1_node_18 -->
<g id="node1" class="node">
<title>r1_node_18</title>
<ellipse fill="none" stroke="black" cx="346.93" cy="-18" rx="54.93" ry="18"/>
<text text-anchor="middle" x="346.93" y="-12.95" font-family="Times,serif" font-size="14.00">r1_node_18</text>
</g>
<!-- r1_node_3 -->
<g id="node2" class="node">
<title>r1_node_3</title>
<ellipse fill="none" stroke="black" cx="84.93" cy="-162" rx="50.33" ry="18"/>
<text text-anchor="middle" x="84.93" y="-156.95" font-family="Times,serif" font-size="14.00">r1_node_3</text>
</g>
<!-- r1_node_3&#45;&gt;r1_node_18 -->
<g id="edge6" class="edge">
<title>r1_node_3&#45;&gt;r1_node_18</title>
<path fill="none" stroke="black" d="M125,-150.78C156.13,-141.92 199.77,-127.46 234.93,-108 267.4,-90.03 300.12,-62.72 321.74,-43.09"/>
<polygon fill="black" stroke="black" points="323.92,-45.84 328.9,-36.49 319.18,-40.69 323.92,-45.84"/>
</g>
<!-- r1_node_19 -->
<g id="node3" class="node">
<title>r1_node_19</title>
<ellipse fill="none" stroke="black" cx="206.93" cy="-18" rx="54.93" ry="18"/>
<text text-anchor="middle" x="206.93" y="-12.95" font-family="Times,serif" font-size="14.00">r1_node_19</text>
</g>
<!-- r1_node_3&#45;&gt;r1_node_19 -->
<g id="edge1" class="edge">
<title>r1_node_3&#45;&gt;r1_node_19</title>
<path fill="none" stroke="black" d="M124.35,-150.46C159.19,-140.25 206.11,-124.01 216.93,-108 229.03,-90.1 225.05,-65.41 218.88,-46.58"/>
<polygon fill="black" stroke="black" points="222.25,-45.59 215.52,-37.41 215.68,-48.01 222.25,-45.59"/>
</g>
<!-- r1_node_5 -->
<g id="node4" class="node">
<title>r1_node_5</title>
<ellipse fill="none" stroke="black" cx="157.93" cy="-90" rx="50.33" ry="18"/>
<text text-anchor="middle" x="157.93" y="-84.95" font-family="Times,serif" font-size="14.00">r1_node_5</text>
</g>
<!-- r1_node_3&#45;&gt;r1_node_5 -->
<g id="edge2" class="edge">
<title>r1_node_3&#45;&gt;r1_node_5</title>
<path fill="none" stroke="black" d="M96.73,-144.05C105.16,-135.05 116.67,-123.85 127.49,-114.07"/>
<polygon fill="black" stroke="black" points="129.64,-116.84 134.81,-107.59 125,-111.59 129.64,-116.84"/>
</g>
<!-- r1_node_7 -->
<g id="node5" class="node">
<title>r1_node_7</title>
<ellipse fill="none" stroke="black" cx="437.93" cy="-90" rx="50.33" ry="18"/>
<text text-anchor="middle" x="437.93" y="-84.95" font-family="Times,serif" font-size="14.00">r1_node_7</text>
</g>
<!-- r1_node_3&#45;&gt;r1_node_7 -->
<g id="edge3" class="edge">
<title>r1_node_3&#45;&gt;r1_node_7</title>
<path fill="none" stroke="black" d="M120.98,-149.02C128.21,-147.23 135.77,-145.49 142.93,-144 240.8,-123.69 267.18,-128.86 364.93,-108 371.57,-106.58 378.56,-104.92 385.48,-103.19"/>
<polygon fill="black" stroke="black" points="385.96,-106.68 394.79,-100.82 384.24,-99.89 385.96,-106.68"/>
</g>
<!-- r1_node_13 -->
<g id="node6" class="node">
<title>r1_node_13</title>
<ellipse fill="none" stroke="black" cx="662.93" cy="-18" rx="54.93" ry="18"/>
<text text-anchor="middle" x="662.93" y="-12.95" font-family="Times,serif" font-size="14.00">r1_node_13</text>
</g>
<!-- r1_node_3&#45;&gt;r1_node_13 -->
<g id="edge4" class="edge">
<title>r1_node_3&#45;&gt;r1_node_13</title>
<path fill="none" stroke="black" d="M123.7,-150.15C132.9,-147.86 142.72,-145.64 151.93,-144 303.71,-116.97 349.57,-153.27 496.93,-108 546.65,-92.73 598.66,-62.08 630.93,-41.06"/>
<polygon fill="black" stroke="black" points="632.62,-44.14 639.03,-35.7 628.75,-38.3 632.62,-44.14"/>
</g>
<!-- r1_node_14 -->
<g id="node7" class="node">
<title>r1_node_14</title>
<ellipse fill="none" stroke="black" cx="54.93" cy="-18" rx="54.93" ry="18"/>
<text text-anchor="middle" x="54.93" y="-12.95" font-family="Times,serif" font-size="14.00">r1_node_14</text>
</g>
<!-- r1_node_3&#45;&gt;r1_node_14 -->
<g id="edge5" class="edge">
<title>r1_node_3&#45;&gt;r1_node_14</title>
<path fill="none" stroke="black" d="M81.26,-143.59C76.17,-119.5 66.92,-75.75 60.86,-47.03"/>
<polygon fill="black" stroke="black" points="64.35,-46.65 58.86,-37.59 57.5,-48.1 64.35,-46.65"/>
</g>
<!-- r1_node_5&#45;&gt;r1_node_3 -->
<g id="edge7" class="edge">
<title>r1_node_5&#45;&gt;r1_node_3</title>
<path fill="none" stroke="black" d="M146.13,-107.96C137.68,-116.98 126.15,-128.19 115.32,-137.99"/>
<polygon fill="black" stroke="black" points="113.17,-135.22 107.99,-144.46 117.8,-140.46 113.17,-135.22"/>
</g>
<!-- r1_node_5&#45;&gt;r1_node_14 -->
<g id="edge8" class="edge">
<title>r1_node_5&#45;&gt;r1_node_14</title>
<path fill="none" stroke="black" d="M135.33,-73.64C121.21,-64.04 102.8,-51.53 87.16,-40.9"/>
<polygon fill="black" stroke="black" points="89.33,-38.14 79.09,-35.42 85.4,-43.93 89.33,-38.14"/>
</g>
<!-- r1_node_7&#45;&gt;r1_node_18 -->
<g id="edge24" class="edge">
<title>r1_node_7&#45;&gt;r1_node_18</title>
<path fill="none" stroke="black" d="M417.28,-73.12C405.27,-63.87 389.92,-52.07 376.63,-41.84"/>
<polygon fill="black" stroke="black" points="379.08,-39.31 369.02,-35.99 374.81,-44.86 379.08,-39.31"/>
</g>
<!-- r1_node_7&#45;&gt;r1_node_3 -->
<g id="edge22" class="edge">
<title>r1_node_7&#45;&gt;r1_node_3</title>
<path fill="none" stroke="black" d="M402.9,-103.28C396.31,-104.98 389.46,-106.61 382.93,-108 285.18,-128.86 258.8,-123.69 160.93,-144 153.59,-145.52 145.84,-147.32 138.19,-149.16"/>
<polygon fill="black" stroke="black" points="137.47,-145.73 128.58,-151.5 139.12,-152.53 137.47,-145.73"/>
</g>
<!-- r1_node_7&#45;&gt;r1_node_19 -->
<g id="edge25" class="edge">
<title>r1_node_7&#45;&gt;r1_node_19</title>
<path fill="none" stroke="black" d="M400.31,-77.6C361.26,-65.77 299.99,-47.2 256.9,-34.14"/>
<polygon fill="black" stroke="black" points="258.13,-30.86 247.54,-31.3 256.1,-37.55 258.13,-30.86"/>
</g>
<!-- r1_node_16 -->
<g id="node11" class="node">
<title>r1_node_16</title>
<ellipse fill="none" stroke="black" cx="514.93" cy="-18" rx="54.93" ry="18"/>
<text text-anchor="middle" x="514.93" y="-12.95" font-family="Times,serif" font-size="14.00">r1_node_16</text>
</g>
<!-- r1_node_7&#45;&gt;r1_node_16 -->
<g id="edge23" class="edge">
<title>r1_node_7&#45;&gt;r1_node_16</title>
<path fill="none" stroke="black" d="M455.79,-72.76C465.54,-63.91 477.79,-52.77 488.61,-42.93"/>
<polygon fill="black" stroke="black" points="490.74,-45.72 495.79,-36.41 486.03,-40.54 490.74,-45.72"/>
</g>
<!-- r1_node_20 -->
<g id="node13" class="node">
<title>r1_node_20</title>
<ellipse fill="none" stroke="black" cx="800.93" cy="-18" rx="54.93" ry="18"/>
<text text-anchor="middle" x="800.93" y="-12.95" font-family="Times,serif" font-size="14.00">r1_node_20</text>
</g>
<!-- r1_node_7&#45;&gt;r1_node_20 -->
<g id="edge26" class="edge">
<title>r1_node_7&#45;&gt;r1_node_20</title>
<path fill="none" stroke="black" d="M482.61,-81.44C539.5,-71.67 640.76,-53.79 726.93,-36 733.3,-34.69 739.96,-33.25 746.57,-31.78"/>
<polygon fill="black" stroke="black" points="747.11,-35.25 756.09,-29.63 745.57,-28.42 747.11,-35.25"/>
</g>
<!-- r1_node_12 -->
<g id="node8" class="node">
<title>r1_node_12</title>
<ellipse fill="none" stroke="black" cx="933.93" cy="-18" rx="54.93" ry="18"/>
<text text-anchor="middle" x="933.93" y="-12.95" font-family="Times,serif" font-size="14.00">r1_node_12</text>
</g>
<!-- r1_node_17 -->
<g id="node9" class="node">
<title>r1_node_17</title>
<ellipse fill="none" stroke="black" cx="661.93" cy="-90" rx="54.93" ry="18"/>
<text text-anchor="middle" x="661.93" y="-84.95" font-family="Times,serif" font-size="14.00">r1_node_17</text>
</g>
<!-- r1_node_6 -->
<g id="node10" class="node">
<title>r1_node_6</title>
<ellipse fill="none" stroke="black" cx="415.93" cy="-162" rx="50.33" ry="18"/>
<text text-anchor="middle" x="415.93" y="-156.95" font-family="Times,serif" font-size="14.00">r1_node_6</text>
</g>
<!-- r1_node_6&#45;&gt;r1_node_13 -->
<g id="edge9" class="edge">
<title>r1_node_6&#45;&gt;r1_node_13</title>
<path fill="none" stroke="black" d="M459.28,-152.69C476.01,-149.67 495.32,-146.41 512.93,-144 553.09,-138.5 848.73,-138.04 875.93,-108 886.68,-96.14 885.79,-84.61 875.93,-72 873.44,-68.8 780.03,-46.41 717.75,-31.77"/>
<polygon fill="black" stroke="black" points="718.9,-28.45 708.37,-29.57 717.3,-35.26 718.9,-28.45"/>
</g>
<!-- r1_node_6&#45;&gt;r1_node_12 -->
<g id="edge13" class="edge">
<title>r1_node_6&#45;&gt;r1_node_12</title>
<path fill="none" stroke="black" d="M459.28,-152.65C476,-149.62 495.31,-146.37 512.93,-144 597.22,-132.65 824.78,-157.5 893.93,-108 913.62,-93.9 923.8,-67.8 928.94,-47.49"/>
<polygon fill="black" stroke="black" points="932.34,-48.34 931.09,-37.82 925.51,-46.82 932.34,-48.34"/>
</g>
<!-- r1_node_6&#45;&gt;r1_node_17 -->
<g id="edge11" class="edge">
<title>r1_node_6&#45;&gt;r1_node_17</title>
<path fill="none" stroke="black" d="M454.37,-150.06C496.32,-138.13 563.69,-118.95 610.25,-105.71"/>
<polygon fill="black" stroke="black" points="611.2,-109.08 619.86,-102.97 609.28,-102.34 611.2,-109.08"/>
</g>
<!-- r1_node_6&#45;&gt;r1_node_16 -->
<g id="edge10" class="edge">
<title>r1_node_6&#45;&gt;r1_node_16</title>
<path fill="none" stroke="black" d="M459.78,-152.69C476.39,-149.71 495.5,-146.47 512.93,-144 586.19,-133.61 794.53,-163.07 843.93,-108 967.6,29.85 1107.11,-124.69 598.93,-36 589.97,-34.44 580.5,-32.65 571.27,-30.84"/>
<polygon fill="black" stroke="black" points="572.16,-27.44 561.67,-28.92 570.79,-34.31 572.16,-27.44"/>
</g>
<!-- r1_node_2 -->
<g id="node12" class="node">
<title>r1_node_2</title>
<ellipse fill="none" stroke="black" cx="784.93" cy="-90" rx="50.33" ry="18"/>
<text text-anchor="middle" x="784.93" y="-84.95" font-family="Times,serif" font-size="14.00">r1_node_2</text>
</g>
<!-- r1_node_6&#45;&gt;r1_node_2 -->
<g id="edge12" class="edge">
<title>r1_node_6&#45;&gt;r1_node_2</title>
<path fill="none" stroke="black" d="M458.15,-152.03C472.65,-149.42 488.94,-146.58 503.93,-144 598.55,-127.71 623.32,-129.33 716.93,-108 722.32,-106.77 727.94,-105.35 733.55,-103.85"/>
<polygon fill="black" stroke="black" points="734.1,-107.33 742.82,-101.33 732.25,-100.58 734.1,-107.33"/>
</g>
<!-- r1_node_2&#45;&gt;r1_node_19 -->
<g id="edge21" class="edge">
<title>r1_node_2&#45;&gt;r1_node_19</title>
<path fill="none" stroke="black" d="M748.38,-77.24C741.01,-75.22 733.27,-73.34 725.93,-72 531.62,-36.48 478.24,-65.63 282.93,-36 275.74,-34.91 268.22,-33.53 260.82,-32.02"/>
<polygon fill="black" stroke="black" points="261.73,-28.64 251.22,-29.98 260.28,-35.49 261.73,-28.64"/>
</g>
<!-- r1_node_2&#45;&gt;r1_node_13 -->
<g id="edge20" class="edge">
<title>r1_node_2&#45;&gt;r1_node_13</title>
<path fill="none" stroke="black" d="M759.06,-74.15C741.63,-64.15 718.39,-50.82 699.13,-39.77"/>
<polygon fill="black" stroke="black" points="700.92,-36.76 690.5,-34.82 697.44,-42.83 700.92,-36.76"/>
</g>
<!-- r1_node_2&#45;&gt;r1_node_6 -->
<g id="edge19" class="edge">
<title>r1_node_2&#45;&gt;r1_node_6</title>
<path fill="none" stroke="black" d="M751.47,-103.84C745.98,-105.34 740.34,-106.77 734.93,-108 641.32,-129.33 616.55,-127.71 521.93,-144 506.21,-146.71 489.05,-149.7 473.17,-152.41"/>
<polygon fill="black" stroke="black" points="472.63,-148.95 463.35,-154.07 473.8,-155.85 472.63,-148.95"/>
</g>
<!-- r1_node_11 -->
<g id="node14" class="node">
<title>r1_node_11</title>
<ellipse fill="none" stroke="black" cx="215.93" cy="-162" rx="54.93" ry="18"/>
<text text-anchor="middle" x="215.93" y="-156.95" font-family="Times,serif" font-size="14.00">r1_node_11</text>
</g>
<!-- r1_node_11&#45;&gt;r1_node_19 -->
<g id="edge14" class="edge">
<title>r1_node_11&#45;&gt;r1_node_19</title>
<path fill="none" stroke="black" d="M250.43,-147.57C267.39,-138.99 286.24,-126.05 295.93,-108 303.5,-93.9 303.84,-85.91 295.93,-72 286.89,-56.1 270.99,-44.46 255.1,-36.22"/>
<polygon fill="black" stroke="black" points="256.63,-33.07 246.1,-31.93 253.62,-39.39 256.63,-33.07"/>
</g>
<!-- r1_node_11&#45;&gt;r1_node_14 -->
<g id="edge15" class="edge">
<title>r1_node_11&#45;&gt;r1_node_14</title>
<path fill="none" stroke="black" d="M221.7,-143.78C227.04,-124.4 232.08,-92.89 216.93,-72 204.32,-54.61 153.91,-39.9 112.63,-30.42"/>
<polygon fill="black" stroke="black" points="113.54,-27.04 103.02,-28.27 112.02,-33.87 113.54,-27.04"/>
</g>
<!-- r1_node_11&#45;&gt;r1_node_17 -->
<g id="edge18" class="edge">
<title>r1_node_11&#45;&gt;r1_node_17</title>
<path fill="none" stroke="black" d="M266.59,-154.53C354.41,-143.21 531.44,-119.87 592.93,-108 598.18,-106.99 603.64,-105.83 609.07,-104.61"/>
<polygon fill="black" stroke="black" points="609.71,-108.05 618.65,-102.37 608.12,-101.23 609.71,-108.05"/>
</g>
<!-- r1_node_11&#45;&gt;r1_node_16 -->
<g id="edge17" class="edge">
<title>r1_node_11&#45;&gt;r1_node_16</title>
<path fill="none" stroke="black" d="M266.57,-154.55C343,-144.35 480.7,-124.02 496.93,-108 512.64,-92.5 516.55,-67.35 516.87,-47.73"/>
<polygon fill="black" stroke="black" points="520.37,-47.82 516.71,-37.88 513.37,-47.94 520.37,-47.82"/>
</g>
<!-- r1_node_15 -->
<g id="node15" class="node">
<title>r1_node_15</title>
<ellipse fill="none" stroke="black" cx="1215.93" cy="-90" rx="54.93" ry="18"/>
<text text-anchor="middle" x="1215.93" y="-84.95" font-family="Times,serif" font-size="14.00">r1_node_15</text>
</g>
<!-- r1_node_11&#45;&gt;r1_node_15 -->
<g id="edge16" class="edge">
<title>r1_node_11&#45;&gt;r1_node_15</title>
<path fill="none" stroke="black" d="M265.77,-154.13C292.71,-150.63 326.59,-146.59 356.93,-144 675.73,-116.83 757.15,-135.3 1075.93,-108 1101.84,-105.78 1130.34,-102.48 1154.83,-99.37"/>
<polygon fill="black" stroke="black" points="1155.16,-102.86 1164.63,-98.11 1154.26,-95.92 1155.16,-102.86"/>
</g>
<!-- r1_node_4 -->
<g id="node16" class="node">
<title>r1_node_4</title>
<ellipse fill="none" stroke="black" cx="874.93" cy="-162" rx="50.33" ry="18"/>
<text text-anchor="middle" x="874.93" y="-156.95" font-family="Times,serif" font-size="14.00">r1_node_4</text>
</g>
<!-- r1_node_4&#45;&gt;r1_node_12 -->
<g id="edge28" class="edge">
<title>r1_node_4&#45;&gt;r1_node_12</title>
<path fill="none" stroke="black" d="M922.56,-155.59C1028.35,-143.48 1274.07,-114.69 1279.93,-108 1290.49,-95.97 1290.36,-84.14 1279.93,-72 1244.67,-30.92 1090.86,-21.35 1000.62,-19.33"/>
<polygon fill="black" stroke="black" points="1000.72,-15.83 990.65,-19.13 1000.58,-22.83 1000.72,-15.83"/>
</g>
<!-- r1_node_4&#45;&gt;r1_node_15 -->
<g id="edge27" class="edge">
<title>r1_node_4&#45;&gt;r1_node_15</title>
<path fill="none" stroke="black" d="M919.36,-153.04C973.33,-143.2 1067.06,-125.61 1146.93,-108 1152.08,-106.86 1157.44,-105.63 1162.79,-104.37"/>
<polygon fill="black" stroke="black" points="1163.3,-107.85 1172.21,-102.11 1161.67,-101.04 1163.3,-107.85"/>
</g>
<!-- r1_node_8 -->
<g id="node17" class="node">
<title>r1_node_8</title>
<ellipse fill="none" stroke="black" cx="1490.93" cy="-90" rx="50.33" ry="18"/>
<text text-anchor="middle" x="1490.93" y="-84.95" font-family="Times,serif" font-size="14.00">r1_node_8</text>
</g>
<!-- r1_node_8&#45;&gt;r1_node_12 -->
<g id="edge30" class="edge">
<title>r1_node_8&#45;&gt;r1_node_12</title>
<path fill="none" stroke="black" d="M1452.91,-77.88C1444.42,-75.68 1435.41,-73.57 1426.93,-72 1275.2,-43.86 1094.21,-29.14 999.35,-22.85"/>
<polygon fill="black" stroke="black" points="999.66,-19.36 989.45,-22.2 999.2,-26.34 999.66,-19.36"/>
</g>
<!-- r1_node_9 -->
<g id="node18" class="node">
<title>r1_node_9</title>
<ellipse fill="none" stroke="black" cx="1081.93" cy="-162" rx="50.33" ry="18"/>
<text text-anchor="middle" x="1081.93" y="-156.95" font-family="Times,serif" font-size="14.00">r1_node_9</text>
</g>
<!-- r1_node_8&#45;&gt;r1_node_9 -->
<g id="edge29" class="edge">
<title>r1_node_8&#45;&gt;r1_node_9</title>
<path fill="none" stroke="black" d="M1455.91,-103.33C1449.32,-105.02 1442.46,-106.64 1435.93,-108 1333.39,-129.43 1212.01,-146.09 1141.23,-154.64"/>
<polygon fill="black" stroke="black" points="1140.91,-151.16 1131.39,-155.82 1141.74,-158.11 1140.91,-151.16"/>
</g>
<!-- r1_node_9&#45;&gt;r1_node_13 -->
<g id="edge40" class="edge">
<title>r1_node_9&#45;&gt;r1_node_13</title>
<path fill="none" stroke="black" d="M1129.88,-156.04C1202.62,-146.78 1327.64,-122.97 1279.93,-72 1238.62,-27.85 796.76,-44.8 736.93,-36 730.17,-35.01 723.11,-33.72 716.15,-32.29"/>
<polygon fill="black" stroke="black" points="716.97,-28.89 706.46,-30.2 715.49,-35.73 716.97,-28.89"/>
</g>
<!-- r1_node_9&#45;&gt;r1_node_12 -->
<g id="edge39" class="edge">
<title>r1_node_9&#45;&gt;r1_node_12</title>
<path fill="none" stroke="black" d="M1132.24,-159.86C1210.73,-156.91 1356.71,-146.27 1388.93,-108 1399.24,-95.76 1399.57,-83.95 1388.93,-72 1363.48,-43.41 1118.94,-27.84 999.26,-21.89"/>
<polygon fill="black" stroke="black" points="999.75,-18.41 989.59,-21.41 999.41,-25.4 999.75,-18.41"/>
</g>
<!-- r1_node_9&#45;&gt;r1_node_20 -->
<g id="edge42" class="edge">
<title>r1_node_9&#45;&gt;r1_node_20</title>
<path fill="none" stroke="black" d="M1132.32,-160.2C1226.92,-157.07 1416.01,-142.13 1350.93,-72 1314.48,-32.71 922.86,-44.44 869.93,-36 864.37,-35.11 858.59,-34 852.85,-32.77"/>
<polygon fill="black" stroke="black" points="853.94,-29.43 843.41,-30.63 852.39,-36.25 853.94,-29.43"/>
</g>
<!-- r1_node_9&#45;&gt;r1_node_15 -->
<g id="edge41" class="edge">
<title>r1_node_9&#45;&gt;r1_node_15</title>
<path fill="none" stroke="black" d="M1109.37,-146.67C1129.07,-136.38 1155.88,-122.37 1177.68,-110.99"/>
<polygon fill="black" stroke="black" points="1179.02,-114.23 1186.27,-106.5 1175.78,-108.03 1179.02,-114.23"/>
</g>
<!-- r1_node_9&#45;&gt;r1_node_8 -->
<g id="edge38" class="edge">
<title>r1_node_9&#45;&gt;r1_node_8</title>
<path fill="none" stroke="black" d="M1128.35,-154.7C1193.49,-146.16 1315.17,-129.48 1417.93,-108 1424.58,-106.61 1431.57,-104.96 1438.49,-103.24"/>
<polygon fill="black" stroke="black" points="1438.97,-106.73 1447.8,-100.88 1437.25,-99.94 1438.97,-106.73"/>
</g>
<!-- r1_node_1 -->
<g id="node19" class="node">
<title>r1_node_1</title>
<ellipse fill="none" stroke="black" cx="1016.93" cy="-90" rx="50.33" ry="18"/>
<text text-anchor="middle" x="1016.93" y="-84.95" font-family="Times,serif" font-size="14.00">r1_node_1</text>
</g>
<!-- r1_node_1&#45;&gt;r1_node_18 -->
<g id="edge31" class="edge">
<title>r1_node_1&#45;&gt;r1_node_18</title>
<path fill="none" stroke="black" d="M968.84,-84.19C934.13,-80.74 886.15,-76.01 843.93,-72 669.32,-55.42 624.93,-58.16 450.93,-36 436.18,-34.12 420.31,-31.72 405.53,-29.32"/>
<polygon fill="black" stroke="black" points="406.39,-25.92 395.96,-27.74 405.25,-32.82 406.39,-25.92"/>
</g>
<!-- r1_node_10 -->
<g id="node20" class="node">
<title>r1_node_10</title>
<ellipse fill="none" stroke="black" cx="576.93" cy="-162" rx="54.93" ry="18"/>
<text text-anchor="middle" x="576.93" y="-156.95" font-family="Times,serif" font-size="14.00">r1_node_10</text>
</g>
<!-- r1_node_1&#45;&gt;r1_node_10 -->
<g id="edge32" class="edge">
<title>r1_node_1&#45;&gt;r1_node_10</title>
<path fill="none" stroke="black" d="M981.92,-103.4C975.33,-105.08 968.47,-106.68 961.93,-108 850.08,-130.65 717.57,-146.91 640.7,-155.05"/>
<polygon fill="black" stroke="black" points="640.4,-151.57 630.82,-156.09 641.13,-158.53 640.4,-151.57"/>
</g>
<!-- r1_node_10&#45;&gt;r1_node_12 -->
<g id="edge37" class="edge">
<title>r1_node_10&#45;&gt;r1_node_12</title>
<path fill="none" stroke="black" d="M629.74,-156.65C762.27,-145.63 1098.96,-116.81 1106.93,-108 1145.04,-65.89 1058.45,-40.7 994.53,-28.37"/>
<polygon fill="black" stroke="black" points="995.25,-24.95 984.78,-26.56 993.98,-31.83 995.25,-24.95"/>
</g>
<!-- r1_node_10&#45;&gt;r1_node_17 -->
<g id="edge35" class="edge">
<title>r1_node_10&#45;&gt;r1_node_17</title>
<path fill="none" stroke="black" d="M596.65,-144.76C607.59,-135.75 621.39,-124.39 633.49,-114.43"/>
<polygon fill="black" stroke="black" points="635.66,-117.17 641.16,-108.11 631.21,-111.76 635.66,-117.17"/>
</g>
<!-- r1_node_10&#45;&gt;r1_node_20 -->
<g id="edge36" class="edge">
<title>r1_node_10&#45;&gt;r1_node_20</title>
<path fill="none" stroke="black" d="M630.34,-157.24C756.04,-148.13 1061.15,-124.44 1075.93,-108 1183.88,12.02 1206.56,-106.8 869.93,-36 864.77,-34.91 859.41,-33.72 854.06,-32.48"/>
<polygon fill="black" stroke="black" points="855.17,-29.14 844.63,-30.24 853.55,-35.95 855.17,-29.14"/>
</g>
<!-- r1_node_10&#45;&gt;r1_node_15 -->
<g id="edge34" class="edge">
<title>r1_node_10&#45;&gt;r1_node_15</title>
<path fill="none" stroke="black" d="M630.01,-157.08C751.76,-147.93 1048.2,-124.66 1146.93,-108 1152.28,-107.1 1157.82,-106.01 1163.34,-104.81"/>
<polygon fill="black" stroke="black" points="1164.1,-108.23 1173.07,-102.59 1162.54,-101.4 1164.1,-108.23"/>
</g>
<!-- r1_node_10&#45;&gt;r1_node_1 -->
<g id="edge33" class="edge">
<title>r1_node_10&#45;&gt;r1_node_1</title>
<path fill="none" stroke="black" d="M628.1,-155.07C699.36,-146.93 832,-130.67 943.93,-108 950.59,-106.65 957.58,-105.02 964.51,-103.31"/>
<polygon fill="black" stroke="black" points="964.98,-106.8 973.82,-100.95 963.27,-100.01 964.98,-106.8"/>
</g>
</g>
</svg>
