<?xml version="1.0" encoding="UTF-8" standalone="no"?>
<!DOCTYPE svg PUBLIC "-//W3C//DTD SVG 1.1//EN"
 "http://www.w3.org/Graphics/SVG/1.1/DTD/svg11.dtd">
<!-- Generated by graphviz version 12.2.1 (20241206.2353)
 -->
<!-- Pages: 1 -->
<svg width="280pt" height="188pt"
 viewBox="0.00 0.00 280.26 188.00" xmlns="http://www.w3.org/2000/svg" xmlns:xlink="http://www.w3.org/1999/xlink">
<g id="graph0" class="graph" transform="scale(1 1) rotate(0) translate(4 184)">
<polygon fill="white" stroke="none" points="-4,4 -4,-184 276.26,-184 276.26,4 -4,4"/>
<!-- r2_node_6 -->
<g id="node1" class="node">
<title>r2_node_6</title>
<ellipse fill="none" stroke="black" cx="56.93" cy="-162" rx="50.33" ry="18"/>
<text text-anchor="middle" x="56.93" y="-156.95" font-family="Times,serif" font-size="14.00">r2_node_6</text>
</g>
<!-- r2_node_15 -->
<g id="node2" class="node">
<title>r2_node_15</title>
<ellipse fill="none" stroke="black" cx="54.93" cy="-18" rx="54.93" ry="18"/>
<text text-anchor="middle" x="54.93" y="-12.95" font-family="Times,serif" font-size="14.00">r2_node_15</text>
</g>
<!-- r2_node_6&#45;&gt;r2_node_15 -->
<g id="edge1" class="edge">
<title>r2_node_6&#45;&gt;r2_node_15</title>
<path fill="none" stroke="black" d="M47.8,-143.88C42.93,-133.76 37.43,-120.51 34.93,-108 31.81,-92.31 32.06,-87.74 34.93,-72 36.47,-63.58 39.27,-54.77 42.3,-46.79"/>
<polygon fill="black" stroke="black" points="45.51,-48.19 46.06,-37.61 39.03,-45.54 45.51,-48.19"/>
</g>
<!-- r2_node_4 -->
<g id="node3" class="node">
<title>r2_node_4</title>
<ellipse fill="none" stroke="black" cx="221.93" cy="-90" rx="50.33" ry="18"/>
<text text-anchor="middle" x="221.93" y="-84.95" font-family="Times,serif" font-size="14.00">r2_node_4</text>
</g>
<!-- r2_node_6&#45;&gt;r2_node_4 -->
<g id="edge2" class="edge">
<title>r2_node_6&#45;&gt;r2_node_4</title>
<path fill="none" stroke="black" d="M85.15,-146.67C110.38,-135.34 147.6,-119.51 176.9,-107.62"/>
<polygon fill="black" stroke="black" points="177.93,-110.98 185.9,-104.01 175.32,-104.49 177.93,-110.98"/>
</g>
<!-- r2_node_12 -->
<g id="node4" class="node">
<title>r2_node_12</title>
<ellipse fill="none" stroke="black" cx="98.93" cy="-90" rx="54.93" ry="18"/>
<text text-anchor="middle" x="98.93" y="-84.95" font-family="Times,serif" font-size="14.00">r2_node_12</text>
</g>
<!-- r2_node_6&#45;&gt;r2_node_12 -->
<g id="edge3" class="edge">
<title>r2_node_6&#45;&gt;r2_node_12</title>
<path fill="none" stroke="black" d="M61.4,-143.7C65.38,-135.7 70.97,-126.02 76.69,-117.15"/>
<polygon fill="black" stroke="black" points="79.58,-119.12 82.27,-108.88 73.78,-115.21 79.58,-119.12"/>
</g>
<!-- r2_node_4&#45;&gt;r2_node_6 -->
<g id="edge6" class="edge">
<title>r2_node_4&#45;&gt;r2_node_6</title>
<path fill="none" stroke="black" d="M193.84,-105.28C168.55,-116.64 131.15,-132.54 101.77,-144.45"/>
<polygon fill="black" stroke="black" points="100.72,-141.1 92.75,-148.08 103.33,-147.6 100.72,-141.1"/>
</g>
<!-- r2_node_17 -->
<g id="node5" class="node">
<title>r2_node_17</title>
<ellipse fill="none" stroke="black" cx="201.93" cy="-18" rx="54.93" ry="18"/>
<text text-anchor="middle" x="201.93" y="-12.95" font-family="Times,serif" font-size="14.00">r2_node_17</text>
</g>
<!-- r2_node_4&#45;&gt;r2_node_17 -->
<g id="edge7" class="edge">
<title>r2_node_4&#45;&gt;r2_node_17</title>
<path fill="none" stroke="black" d="M216.99,-71.7C214.86,-64.24 212.31,-55.32 209.92,-46.97"/>
<polygon fill="black" stroke="black" points="213.35,-46.21 207.24,-37.56 206.62,-48.14 213.35,-46.21"/>
</g>
<!-- r2_node_12&#45;&gt;r2_node_6 -->
<g id="edge5" class="edge">
<title>r2_node_12&#45;&gt;r2_node_6</title>
<path fill="none" stroke="black" d="M94.56,-108.12C90.49,-116.33 84.71,-126.32 78.82,-135.4"/>
<polygon fill="black" stroke="black" points="76.04,-133.27 73.33,-143.51 81.83,-137.2 76.04,-133.27"/>
</g>
<!-- r2_node_12&#45;&gt;r2_node_15 -->
<g id="edge4" class="edge">
<title>r2_node_12&#45;&gt;r2_node_15</title>
<path fill="none" stroke="black" d="M88.28,-72.05C83.26,-64.06 77.14,-54.33 71.53,-45.4"/>
<polygon fill="black" stroke="black" points="74.58,-43.67 66.29,-37.07 68.65,-47.4 74.58,-43.67"/>
</g>
</g>
</svg>
