<?xml version="1.0" encoding="UTF-8" standalone="no"?>
<!DOCTYPE svg PUBLIC "-//W3C//DTD SVG 1.1//EN"
 "http://www.w3.org/Graphics/SVG/1.1/DTD/svg11.dtd">
<!-- Generated by graphviz version 12.2.1 (20241206.2353)
 -->
<!-- Pages: 1 -->
<svg width="492pt" height="116pt"
 viewBox="0.00 0.00 492.26 116.00" xmlns="http://www.w3.org/2000/svg" xmlns:xlink="http://www.w3.org/1999/xlink">
<g id="graph0" class="graph" transform="scale(1 1) rotate(0) translate(4 112)">
<polygon fill="white" stroke="none" points="-4,4 -4,-112 488.26,-112 488.26,4 -4,4"/>
<!-- r2_node_19 -->
<g id="node1" class="node">
<title>r2_node_19</title>
<ellipse fill="none" stroke="black" cx="118.93" cy="-90" rx="54.93" ry="18"/>
<text text-anchor="middle" x="118.93" y="-84.95" font-family="Times,serif" font-size="14.00">r2_node_19</text>
</g>
<!-- r2_node_10 -->
<g id="node2" class="node">
<title>r2_node_10</title>
<ellipse fill="none" stroke="black" cx="54.93" cy="-18" rx="54.93" ry="18"/>
<text text-anchor="middle" x="54.93" y="-12.95" font-family="Times,serif" font-size="14.00">r2_node_10</text>
</g>
<!-- r2_node_19&#45;&gt;r2_node_10 -->
<g id="edge1" class="edge">
<title>r2_node_19&#45;&gt;r2_node_10</title>
<path fill="none" stroke="black" d="M103.77,-72.41C95.96,-63.87 86.27,-53.28 77.6,-43.79"/>
<polygon fill="black" stroke="black" points="80.34,-41.61 71.01,-36.59 75.18,-46.33 80.34,-41.61"/>
</g>
<!-- r2_node_18 -->
<g id="node3" class="node">
<title>r2_node_18</title>
<ellipse fill="none" stroke="black" cx="182.93" cy="-18" rx="54.93" ry="18"/>
<text text-anchor="middle" x="182.93" y="-12.95" font-family="Times,serif" font-size="14.00">r2_node_18</text>
</g>
<!-- r2_node_19&#45;&gt;r2_node_18 -->
<g id="edge2" class="edge">
<title>r2_node_19&#45;&gt;r2_node_18</title>
<path fill="none" stroke="black" d="M134.1,-72.41C141.91,-63.87 151.59,-53.28 160.27,-43.79"/>
<polygon fill="black" stroke="black" points="162.69,-46.33 166.85,-36.59 157.52,-41.61 162.69,-46.33"/>
</g>
<!-- r2_node_29 -->
<g id="node4" class="node">
<title>r2_node_29</title>
<ellipse fill="none" stroke="black" cx="310.93" cy="-18" rx="54.93" ry="18"/>
<text text-anchor="middle" x="310.93" y="-12.95" font-family="Times,serif" font-size="14.00">r2_node_29</text>
</g>
<!-- r2_node_19&#45;&gt;r2_node_29 -->
<g id="edge3" class="edge">
<title>r2_node_19&#45;&gt;r2_node_29</title>
<path fill="none" stroke="black" d="M154.6,-76C185.62,-64.69 230.77,-48.23 264.59,-35.9"/>
<polygon fill="black" stroke="black" points="265.52,-39.28 273.71,-32.57 263.12,-32.71 265.52,-39.28"/>
</g>
<!-- r2_node_7 -->
<g id="node5" class="node">
<title>r2_node_7</title>
<ellipse fill="none" stroke="black" cx="433.93" cy="-18" rx="50.33" ry="18"/>
<text text-anchor="middle" x="433.93" y="-12.95" font-family="Times,serif" font-size="14.00">r2_node_7</text>
</g>
<!-- r2_node_19&#45;&gt;r2_node_7 -->
<g id="edge4" class="edge">
<title>r2_node_19&#45;&gt;r2_node_7</title>
<path fill="none" stroke="black" d="M165.89,-80.39C217.42,-70.69 302.45,-53.92 374.93,-36 378.29,-35.17 381.75,-34.28 385.22,-33.35"/>
<polygon fill="black" stroke="black" points="386.1,-36.74 394.82,-30.71 384.25,-29.99 386.1,-36.74"/>
</g>
</g>
</svg>
