<?xml version="1.0" encoding="UTF-8" standalone="no"?>
<!DOCTYPE svg PUBLIC "-//W3C//DTD SVG 1.1//EN"
 "http://www.w3.org/Graphics/SVG/1.1/DTD/svg11.dtd">
<!-- Generated by graphviz version 12.2.1 (20241206.2353)
 -->
<!-- Pages: 1 -->
<svg width="479pt" height="404pt"
 viewBox="0.00 0.00 478.87 404.00" xmlns="http://www.w3.org/2000/svg" xmlns:xlink="http://www.w3.org/1999/xlink">
<g id="graph0" class="graph" transform="scale(1 1) rotate(0) translate(4 400)">
<polygon fill="white" stroke="none" points="-4,4 -4,-400 474.87,-400 474.87,4 -4,4"/>
<!-- r4_node_1 -->
<g id="node1" class="node">
<title>r4_node_1</title>
<ellipse fill="none" stroke="black" cx="186.93" cy="-378" rx="50.33" ry="18"/>
<text text-anchor="middle" x="186.93" y="-372.95" font-family="Times,serif" font-size="14.00">r4_node_1</text>
</g>
<!-- r4_node_7 -->
<g id="node2" class="node">
<title>r4_node_7</title>
<ellipse fill="none" stroke="black" cx="181.93" cy="-306" rx="50.33" ry="18"/>
<text text-anchor="middle" x="181.93" y="-300.95" font-family="Times,serif" font-size="14.00">r4_node_7</text>
</g>
<!-- r4_node_1&#45;&gt;r4_node_7 -->
<g id="edge1" class="edge">
<title>r4_node_1&#45;&gt;r4_node_7</title>
<path fill="none" stroke="black" d="M179.78,-359.7C178.51,-352.41 177.65,-343.73 177.33,-335.54"/>
<polygon fill="black" stroke="black" points="180.83,-335.6 177.27,-325.62 173.83,-335.64 180.83,-335.6"/>
</g>
<!-- r4_node_19 -->
<g id="node3" class="node">
<title>r4_node_19</title>
<ellipse fill="none" stroke="black" cx="238.93" cy="-18" rx="54.93" ry="18"/>
<text text-anchor="middle" x="238.93" y="-12.95" font-family="Times,serif" font-size="14.00">r4_node_19</text>
</g>
<!-- r4_node_1&#45;&gt;r4_node_19 -->
<g id="edge2" class="edge">
<title>r4_node_1&#45;&gt;r4_node_19</title>
<path fill="none" stroke="black" d="M216.34,-363.16C267.44,-338.45 368.97,-286.12 387.93,-252 415.41,-202.57 399.92,-136.44 345.93,-72 331.55,-54.83 310.24,-42.71 290.41,-34.43"/>
<polygon fill="black" stroke="black" points="291.92,-31.26 281.33,-30.89 289.37,-37.79 291.92,-31.26"/>
</g>
<!-- r4_node_7&#45;&gt;r4_node_1 -->
<g id="edge3" class="edge">
<title>r4_node_7&#45;&gt;r4_node_1</title>
<path fill="none" stroke="black" d="M189.05,-324.1C190.33,-331.37 191.2,-340.04 191.53,-348.24"/>
<polygon fill="black" stroke="black" points="188.03,-348.21 191.6,-358.18 195.03,-348.16 188.03,-348.21"/>
</g>
<!-- r4_node_17 -->
<g id="node4" class="node">
<title>r4_node_17</title>
<ellipse fill="none" stroke="black" cx="323.93" cy="-234" rx="54.93" ry="18"/>
<text text-anchor="middle" x="323.93" y="-228.95" font-family="Times,serif" font-size="14.00">r4_node_17</text>
</g>
<!-- r4_node_7&#45;&gt;r4_node_17 -->
<g id="edge4" class="edge">
<title>r4_node_7&#45;&gt;r4_node_17</title>
<path fill="none" stroke="black" d="M206.74,-289.98C227.07,-279.31 256.16,-264.91 280.33,-253.52"/>
<polygon fill="black" stroke="black" points="281.73,-256.73 289.31,-249.33 278.77,-250.38 281.73,-256.73"/>
</g>
<!-- r4_node_16 -->
<g id="node5" class="node">
<title>r4_node_16</title>
<ellipse fill="none" stroke="black" cx="195.93" cy="-234" rx="54.93" ry="18"/>
<text text-anchor="middle" x="195.93" y="-228.95" font-family="Times,serif" font-size="14.00">r4_node_16</text>
</g>
<!-- r4_node_7&#45;&gt;r4_node_16 -->
<g id="edge5" class="edge">
<title>r4_node_7&#45;&gt;r4_node_16</title>
<path fill="none" stroke="black" d="M179.48,-287.7C180.2,-280.24 181.75,-271.32 183.71,-262.97"/>
<polygon fill="black" stroke="black" points="187.02,-264.13 186.23,-253.57 180.26,-262.32 187.02,-264.13"/>
</g>
<!-- r4_node_17&#45;&gt;r4_node_7 -->
<g id="edge19" class="edge">
<title>r4_node_17&#45;&gt;r4_node_7</title>
<path fill="none" stroke="black" d="M298.59,-250.3C277.96,-261.11 248.57,-275.65 224.4,-287.02"/>
<polygon fill="black" stroke="black" points="223.01,-283.8 215.43,-291.19 225.97,-290.15 223.01,-283.8"/>
</g>
<!-- r4_node_11 -->
<g id="node7" class="node">
<title>r4_node_11</title>
<ellipse fill="none" stroke="black" cx="300.93" cy="-162" rx="54.93" ry="18"/>
<text text-anchor="middle" x="300.93" y="-156.95" font-family="Times,serif" font-size="14.00">r4_node_11</text>
</g>
<!-- r4_node_17&#45;&gt;r4_node_11 -->
<g id="edge20" class="edge">
<title>r4_node_17&#45;&gt;r4_node_11</title>
<path fill="none" stroke="black" d="M312.49,-216.05C309.25,-208.6 306.05,-199.64 303.57,-191.22"/>
<polygon fill="black" stroke="black" points="307.01,-190.52 301.08,-181.74 300.24,-192.3 307.01,-190.52"/>
</g>
<!-- r4_node_3 -->
<g id="node11" class="node">
<title>r4_node_3</title>
<ellipse fill="none" stroke="black" cx="69.93" cy="-18" rx="50.33" ry="18"/>
<text text-anchor="middle" x="69.93" y="-12.95" font-family="Times,serif" font-size="14.00">r4_node_3</text>
</g>
<!-- r4_node_17&#45;&gt;r4_node_3 -->
<g id="edge18" class="edge">
<title>r4_node_17&#45;&gt;r4_node_3</title>
<path fill="none" stroke="black" d="M297.06,-217.92C279.54,-207.79 256.42,-193.8 236.93,-180 216.32,-165.39 214.54,-157.11 192.93,-144 158.21,-122.93 137.77,-136.6 108.93,-108 92.19,-91.39 82.11,-66.39 76.4,-47.11"/>
<polygon fill="black" stroke="black" points="79.84,-46.44 73.85,-37.71 73.09,-48.27 79.84,-46.44"/>
</g>
<!-- r4_node_16&#45;&gt;r4_node_7 -->
<g id="edge14" class="edge">
<title>r4_node_16&#45;&gt;r4_node_7</title>
<path fill="none" stroke="black" d="M198.39,-252.28C197.67,-259.77 196.11,-268.75 194.13,-277.15"/>
<polygon fill="black" stroke="black" points="190.8,-276.03 191.59,-286.59 197.57,-277.84 190.8,-276.03"/>
</g>
<!-- r4_node_8 -->
<g id="node9" class="node">
<title>r4_node_8</title>
<ellipse fill="none" stroke="black" cx="133.93" cy="-162" rx="50.33" ry="18"/>
<text text-anchor="middle" x="133.93" y="-156.95" font-family="Times,serif" font-size="14.00">r4_node_8</text>
</g>
<!-- r4_node_16&#45;&gt;r4_node_8 -->
<g id="edge15" class="edge">
<title>r4_node_16&#45;&gt;r4_node_8</title>
<path fill="none" stroke="black" d="M176.1,-217.12C167.66,-208.68 158.04,-198.1 150.03,-188.55"/>
<polygon fill="black" stroke="black" points="152.92,-186.54 143.9,-180.97 147.48,-190.95 152.92,-186.54"/>
</g>
<!-- r4_node_4 -->
<g id="node6" class="node">
<title>r4_node_4</title>
<ellipse fill="none" stroke="black" cx="286.93" cy="-90" rx="50.33" ry="18"/>
<text text-anchor="middle" x="286.93" y="-84.95" font-family="Times,serif" font-size="14.00">r4_node_4</text>
</g>
<!-- r4_node_4&#45;&gt;r4_node_19 -->
<g id="edge7" class="edge">
<title>r4_node_4&#45;&gt;r4_node_19</title>
<path fill="none" stroke="black" d="M275.31,-72.05C269.77,-63.97 263.02,-54.12 256.84,-45.11"/>
<polygon fill="black" stroke="black" points="259.84,-43.31 251.3,-37.04 254.07,-47.26 259.84,-43.31"/>
</g>
<!-- r4_node_4&#45;&gt;r4_node_11 -->
<g id="edge6" class="edge">
<title>r4_node_4&#45;&gt;r4_node_11</title>
<path fill="none" stroke="black" d="M296.25,-108.1C298.49,-115.45 300.5,-124.24 301.88,-132.53"/>
<polygon fill="black" stroke="black" points="298.38,-132.75 303.19,-142.2 305.32,-131.82 298.38,-132.75"/>
</g>
<!-- r4_node_11&#45;&gt;r4_node_17 -->
<g id="edge12" class="edge">
<title>r4_node_11&#45;&gt;r4_node_17</title>
<path fill="none" stroke="black" d="M312.24,-179.62C315.51,-187.1 318.75,-196.14 321.26,-204.64"/>
<polygon fill="black" stroke="black" points="317.85,-205.45 323.78,-214.23 324.62,-203.67 317.85,-205.45"/>
</g>
<!-- r4_node_11&#45;&gt;r4_node_4 -->
<g id="edge13" class="edge">
<title>r4_node_11&#45;&gt;r4_node_4</title>
<path fill="none" stroke="black" d="M291.67,-144.05C289.41,-136.68 287.39,-127.84 285.99,-119.51"/>
<polygon fill="black" stroke="black" points="289.48,-119.22 284.68,-109.78 282.55,-120.15 289.48,-119.22"/>
</g>
<!-- r4_node_2 -->
<g id="node12" class="node">
<title>r4_node_2</title>
<ellipse fill="none" stroke="black" cx="167.93" cy="-90" rx="50.33" ry="18"/>
<text text-anchor="middle" x="167.93" y="-84.95" font-family="Times,serif" font-size="14.00">r4_node_2</text>
</g>
<!-- r4_node_11&#45;&gt;r4_node_2 -->
<g id="edge11" class="edge">
<title>r4_node_11&#45;&gt;r4_node_2</title>
<path fill="none" stroke="black" d="M268.81,-147C248.27,-136.9 221.8,-123.09 201.07,-111.71"/>
<polygon fill="black" stroke="black" points="202.88,-108.71 192.43,-106.92 199.48,-114.83 202.88,-108.71"/>
</g>
<!-- r4_node_18 -->
<g id="node8" class="node">
<title>r4_node_18</title>
<ellipse fill="none" stroke="black" cx="415.93" cy="-306" rx="54.93" ry="18"/>
<text text-anchor="middle" x="415.93" y="-300.95" font-family="Times,serif" font-size="14.00">r4_node_18</text>
</g>
<!-- r4_node_8&#45;&gt;r4_node_16 -->
<g id="edge8" class="edge">
<title>r4_node_8&#45;&gt;r4_node_16</title>
<path fill="none" stroke="black" d="M153.71,-178.83C162.13,-187.23 171.72,-197.77 179.72,-207.31"/>
<polygon fill="black" stroke="black" points="176.83,-209.32 185.85,-214.88 182.27,-204.91 176.83,-209.32"/>
</g>
<!-- r4_node_15 -->
<g id="node10" class="node">
<title>r4_node_15</title>
<ellipse fill="none" stroke="black" cx="54.93" cy="-378" rx="54.93" ry="18"/>
<text text-anchor="middle" x="54.93" y="-372.95" font-family="Times,serif" font-size="14.00">r4_node_15</text>
</g>
<!-- r4_node_15&#45;&gt;r4_node_8 -->
<g id="edge9" class="edge">
<title>r4_node_15&#45;&gt;r4_node_8</title>
<path fill="none" stroke="black" d="M61.27,-359.85C74.87,-322.99 107.01,-235.92 123.61,-190.96"/>
<polygon fill="black" stroke="black" points="126.87,-192.25 127.05,-181.65 120.3,-189.82 126.87,-192.25"/>
</g>
<!-- r4_node_15&#45;&gt;r4_node_3 -->
<g id="edge10" class="edge">
<title>r4_node_15&#45;&gt;r4_node_3</title>
<path fill="none" stroke="black" d="M55.66,-359.73C58.06,-302.43 65.78,-118.18 68.75,-47.22"/>
<polygon fill="black" stroke="black" points="72.23,-47.74 69.15,-37.61 65.24,-47.45 72.23,-47.74"/>
</g>
<!-- r4_node_2&#45;&gt;r4_node_11 -->
<g id="edge17" class="edge">
<title>r4_node_2&#45;&gt;r4_node_11</title>
<path fill="none" stroke="black" d="M198.78,-104.37C219.33,-114.44 246.21,-128.45 267.3,-140.01"/>
<polygon fill="black" stroke="black" points="265.37,-142.94 275.81,-144.73 268.76,-136.82 265.37,-142.94"/>
</g>
<!-- r4_node_9 -->
<g id="node13" class="node">
<title>r4_node_9</title>
<ellipse fill="none" stroke="black" cx="309.93" cy="-378" rx="50.33" ry="18"/>
<text text-anchor="middle" x="309.93" y="-372.95" font-family="Times,serif" font-size="14.00">r4_node_9</text>
</g>
<!-- r4_node_9&#45;&gt;r4_node_18 -->
<g id="edge16" class="edge">
<title>r4_node_9&#45;&gt;r4_node_18</title>
<path fill="none" stroke="black" d="M333.2,-361.64C347.73,-352.04 366.68,-339.53 382.77,-328.9"/>
<polygon fill="black" stroke="black" points="384.68,-331.83 391.1,-323.4 380.82,-325.99 384.68,-331.83"/>
</g>
</g>
</svg>
