<?xml version="1.0" encoding="UTF-8" standalone="no"?>
<!DOCTYPE svg PUBLIC "-//W3C//DTD SVG 1.1//EN"
 "http://www.w3.org/Graphics/SVG/1.1/DTD/svg11.dtd">
<!-- Generated by graphviz version 12.2.1 (20241206.2353)
 -->
<!-- Pages: 1 -->
<svg width="1154pt" height="332pt"
 viewBox="0.00 0.00 1153.90 332.00" xmlns="http://www.w3.org/2000/svg" xmlns:xlink="http://www.w3.org/1999/xlink">
<g id="graph0" class="graph" transform="scale(1 1) rotate(0) translate(4 328)">
<polygon fill="white" stroke="none" points="-4,4 -4,-328 1149.9,-328 1149.9,4 -4,4"/>
<!-- r1_node_20 -->
<g id="node1" class="node">
<title>r1_node_20</title>
<ellipse fill="none" stroke="black" cx="606.93" cy="-90" rx="54.93" ry="18"/>
<text text-anchor="middle" x="606.93" y="-84.95" font-family="Times,serif" font-size="14.00">r1_node_20</text>
</g>
<!-- r1_node_12 -->
<g id="node2" class="node">
<title>r1_node_12</title>
<ellipse fill="none" stroke="black" cx="439.93" cy="-306" rx="54.93" ry="18"/>
<text text-anchor="middle" x="439.93" y="-300.95" font-family="Times,serif" font-size="14.00">r1_node_12</text>
</g>
<!-- r1_node_8 -->
<g id="node3" class="node">
<title>r1_node_8</title>
<ellipse fill="none" stroke="black" cx="501.93" cy="-234" rx="50.33" ry="18"/>
<text text-anchor="middle" x="501.93" y="-228.95" font-family="Times,serif" font-size="14.00">r1_node_8</text>
</g>
<!-- r1_node_12&#45;&gt;r1_node_8 -->
<g id="edge1" class="edge">
<title>r1_node_12&#45;&gt;r1_node_8</title>
<path fill="none" stroke="black" d="M449.06,-288.05C455.9,-279.29 465.31,-268.45 474.37,-258.86"/>
<polygon fill="black" stroke="black" points="476.65,-261.53 481.11,-251.92 471.63,-256.65 476.65,-261.53"/>
</g>
<!-- r1_node_6 -->
<g id="node4" class="node">
<title>r1_node_6</title>
<ellipse fill="none" stroke="black" cx="657.93" cy="-234" rx="50.33" ry="18"/>
<text text-anchor="middle" x="657.93" y="-228.95" font-family="Times,serif" font-size="14.00">r1_node_6</text>
</g>
<!-- r1_node_12&#45;&gt;r1_node_6 -->
<g id="edge2" class="edge">
<title>r1_node_12&#45;&gt;r1_node_6</title>
<path fill="none" stroke="black" d="M475.53,-291.83C511.67,-279.67 567.75,-261.65 608.24,-249.17"/>
<polygon fill="black" stroke="black" points="609.23,-252.53 617.77,-246.26 607.19,-245.84 609.23,-252.53"/>
</g>
<!-- r1_node_19 -->
<g id="node5" class="node">
<title>r1_node_19</title>
<ellipse fill="none" stroke="black" cx="391.93" cy="-18" rx="54.93" ry="18"/>
<text text-anchor="middle" x="391.93" y="-12.95" font-family="Times,serif" font-size="14.00">r1_node_19</text>
</g>
<!-- r1_node_12&#45;&gt;r1_node_19 -->
<g id="edge3" class="edge">
<title>r1_node_12&#45;&gt;r1_node_19</title>
<path fill="none" stroke="black" d="M478.23,-292.72C503.11,-283.69 535.52,-269.89 560.93,-252 578.93,-239.33 615.75,-197.62 628.93,-180 651.13,-150.34 661.27,-143.76 670.93,-108 675.11,-92.55 681.14,-84.32 670.93,-72 657.19,-55.39 532,-36.74 454.06,-26.59"/>
<polygon fill="black" stroke="black" points="454.79,-23.15 444.42,-25.35 453.89,-30.1 454.79,-23.15"/>
</g>
<!-- r1_node_8&#45;&gt;r1_node_12 -->
<g id="edge24" class="edge">
<title>r1_node_8&#45;&gt;r1_node_12</title>
<path fill="none" stroke="black" d="M492.92,-251.8C486.1,-260.56 476.66,-271.43 467.58,-281.06"/>
<polygon fill="black" stroke="black" points="465.27,-278.42 460.82,-288.03 470.29,-283.29 465.27,-278.42"/>
</g>
<!-- r1_node_9 -->
<g id="node11" class="node">
<title>r1_node_9</title>
<ellipse fill="none" stroke="black" cx="569.93" cy="-162" rx="50.33" ry="18"/>
<text text-anchor="middle" x="569.93" y="-156.95" font-family="Times,serif" font-size="14.00">r1_node_9</text>
</g>
<!-- r1_node_8&#45;&gt;r1_node_9 -->
<g id="edge23" class="edge">
<title>r1_node_8&#45;&gt;r1_node_9</title>
<path fill="none" stroke="black" d="M512.52,-216.05C520.23,-207.14 530.8,-196.07 540.84,-186.36"/>
<polygon fill="black" stroke="black" points="543.09,-189.04 547.96,-179.63 538.29,-183.95 543.09,-189.04"/>
</g>
<!-- r1_node_5 -->
<g id="node14" class="node">
<title>r1_node_5</title>
<ellipse fill="none" stroke="black" cx="371.93" cy="-162" rx="50.33" ry="18"/>
<text text-anchor="middle" x="371.93" y="-156.95" font-family="Times,serif" font-size="14.00">r1_node_5</text>
</g>
<!-- r1_node_8&#45;&gt;r1_node_5 -->
<g id="edge22" class="edge">
<title>r1_node_8&#45;&gt;r1_node_5</title>
<path fill="none" stroke="black" d="M471.08,-219.34C450.99,-209.26 424.94,-195.37 404.52,-183.91"/>
<polygon fill="black" stroke="black" points="406.45,-180.98 396.03,-179.08 402.99,-187.06 406.45,-180.98"/>
</g>
<!-- r1_node_6&#45;&gt;r1_node_12 -->
<g id="edge13" class="edge">
<title>r1_node_6&#45;&gt;r1_node_12</title>
<path fill="none" stroke="black" d="M623.81,-247.67C588.33,-259.64 532.56,-277.57 491.68,-290.19"/>
<polygon fill="black" stroke="black" points="490.82,-286.79 482.29,-293.08 492.88,-293.49 490.82,-286.79"/>
</g>
<!-- r1_node_17 -->
<g id="node7" class="node">
<title>r1_node_17</title>
<ellipse fill="none" stroke="black" cx="804.93" cy="-18" rx="54.93" ry="18"/>
<text text-anchor="middle" x="804.93" y="-12.95" font-family="Times,serif" font-size="14.00">r1_node_17</text>
</g>
<!-- r1_node_6&#45;&gt;r1_node_17 -->
<g id="edge11" class="edge">
<title>r1_node_6&#45;&gt;r1_node_17</title>
<path fill="none" stroke="black" d="M699.55,-223.63C738.49,-213.92 792.5,-197.7 804.93,-180 832.58,-140.65 823.06,-81.47 813.85,-46.89"/>
<polygon fill="black" stroke="black" points="817.32,-46.28 811.21,-37.63 810.59,-48.2 817.32,-46.28"/>
</g>
<!-- r1_node_16 -->
<g id="node10" class="node">
<title>r1_node_16</title>
<ellipse fill="none" stroke="black" cx="624.93" cy="-18" rx="54.93" ry="18"/>
<text text-anchor="middle" x="624.93" y="-12.95" font-family="Times,serif" font-size="14.00">r1_node_16</text>
</g>
<!-- r1_node_6&#45;&gt;r1_node_16 -->
<g id="edge14" class="edge">
<title>r1_node_6&#45;&gt;r1_node_16</title>
<path fill="none" stroke="black" d="M704.98,-227.04C734.17,-220.65 769.51,-207.41 787.93,-180 796.86,-166.72 793.38,-159.04 787.93,-144 768.84,-91.25 711.66,-56.13 670.42,-36.89"/>
<polygon fill="black" stroke="black" points="671.98,-33.76 661.43,-32.85 669.11,-40.14 671.98,-33.76"/>
</g>
<!-- r1_node_2 -->
<g id="node12" class="node">
<title>r1_node_2</title>
<ellipse fill="none" stroke="black" cx="728.93" cy="-162" rx="50.33" ry="18"/>
<text text-anchor="middle" x="728.93" y="-156.95" font-family="Times,serif" font-size="14.00">r1_node_2</text>
</g>
<!-- r1_node_6&#45;&gt;r1_node_2 -->
<g id="edge12" class="edge">
<title>r1_node_6&#45;&gt;r1_node_2</title>
<path fill="none" stroke="black" d="M669.24,-216.05C677.42,-207.05 688.61,-195.85 699.15,-186.07"/>
<polygon fill="black" stroke="black" points="701.21,-188.92 706.27,-179.61 696.51,-183.73 701.21,-188.92"/>
</g>
<!-- r1_node_15 -->
<g id="node6" class="node">
<title>r1_node_15</title>
<ellipse fill="none" stroke="black" cx="1070.93" cy="-90" rx="54.93" ry="18"/>
<text text-anchor="middle" x="1070.93" y="-84.95" font-family="Times,serif" font-size="14.00">r1_node_15</text>
</g>
<!-- r1_node_7 -->
<g id="node8" class="node">
<title>r1_node_7</title>
<ellipse fill="none" stroke="black" cx="142.93" cy="-306" rx="50.33" ry="18"/>
<text text-anchor="middle" x="142.93" y="-300.95" font-family="Times,serif" font-size="14.00">r1_node_7</text>
</g>
<!-- r1_node_7&#45;&gt;r1_node_20 -->
<g id="edge6" class="edge">
<title>r1_node_7&#45;&gt;r1_node_20</title>
<path fill="none" stroke="black" d="M185.29,-295.91C221.93,-287.22 275.83,-272.4 319.93,-252 373.31,-227.32 384.97,-216.68 430.93,-180 448.87,-165.69 448.59,-156.34 467.93,-144 494.44,-127.09 527.16,-114.28 554.2,-105.49"/>
<polygon fill="black" stroke="black" points="555.09,-108.88 563.58,-102.54 552.99,-102.2 555.09,-108.88"/>
</g>
<!-- r1_node_7&#45;&gt;r1_node_19 -->
<g id="edge5" class="edge">
<title>r1_node_7&#45;&gt;r1_node_19</title>
<path fill="none" stroke="black" d="M180.95,-293.73C201.1,-285.61 224.08,-272.41 235.93,-252 243.97,-238.17 243.02,-230.35 235.93,-216 224.29,-192.41 200.58,-203.59 188.93,-180 167.08,-135.73 179.07,-105.93 214.93,-72 245.13,-43.43 290.12,-30.21 327.18,-24.11"/>
<polygon fill="black" stroke="black" points="327.53,-27.6 336.9,-22.66 326.49,-20.67 327.53,-27.6"/>
</g>
<!-- r1_node_18 -->
<g id="node9" class="node">
<title>r1_node_18</title>
<ellipse fill="none" stroke="black" cx="54.93" cy="-18" rx="54.93" ry="18"/>
<text text-anchor="middle" x="54.93" y="-12.95" font-family="Times,serif" font-size="14.00">r1_node_18</text>
</g>
<!-- r1_node_7&#45;&gt;r1_node_18 -->
<g id="edge4" class="edge">
<title>r1_node_7&#45;&gt;r1_node_18</title>
<path fill="none" stroke="black" d="M134.57,-287.93C129.59,-277.6 123.23,-264.12 117.93,-252 90.7,-189.64 80.52,-174.46 65.93,-108 61.56,-88.08 58.78,-65.24 57.11,-47.69"/>
<polygon fill="black" stroke="black" points="60.6,-47.39 56.24,-37.73 53.63,-48 60.6,-47.39"/>
</g>
<!-- r1_node_7&#45;&gt;r1_node_16 -->
<g id="edge7" class="edge">
<title>r1_node_7&#45;&gt;r1_node_16</title>
<path fill="none" stroke="black" d="M184.71,-295.49C208.55,-287.82 236.82,-274.49 252.93,-252 299.87,-186.49 218.77,-129.8 274.93,-72 284.89,-61.76 464.93,-38.45 562.8,-26.44"/>
<polygon fill="black" stroke="black" points="563.02,-29.94 572.52,-25.26 562.17,-22.99 563.02,-29.94"/>
</g>
<!-- r1_node_9&#45;&gt;r1_node_20 -->
<g id="edge8" class="edge">
<title>r1_node_9&#45;&gt;r1_node_20</title>
<path fill="none" stroke="black" d="M578.89,-144.05C583.07,-136.14 588.15,-126.54 592.83,-117.69"/>
<polygon fill="black" stroke="black" points="595.77,-119.6 597.35,-109.13 589.59,-116.33 595.77,-119.6"/>
</g>
<!-- r1_node_9&#45;&gt;r1_node_8 -->
<g id="edge9" class="edge">
<title>r1_node_9&#45;&gt;r1_node_8</title>
<path fill="none" stroke="black" d="M559.34,-179.96C551.61,-188.89 541.02,-199.97 530.98,-209.7"/>
<polygon fill="black" stroke="black" points="528.72,-207.02 523.85,-216.43 533.52,-212.11 528.72,-207.02"/>
</g>
<!-- r1_node_9&#45;&gt;r1_node_15 -->
<g id="edge10" class="edge">
<title>r1_node_9&#45;&gt;r1_node_15</title>
<path fill="none" stroke="black" d="M614.18,-153.12C631.54,-150.12 651.65,-146.76 669.93,-144 789.56,-125.93 929.78,-108.18 1008.7,-98.5"/>
<polygon fill="black" stroke="black" points="1008.89,-102 1018.39,-97.32 1008.04,-95.06 1008.89,-102"/>
</g>
<!-- r1_node_2&#45;&gt;r1_node_6 -->
<g id="edge37" class="edge">
<title>r1_node_2&#45;&gt;r1_node_6</title>
<path fill="none" stroke="black" d="M717.61,-179.96C709.42,-188.98 698.21,-200.19 687.66,-209.99"/>
<polygon fill="black" stroke="black" points="685.59,-207.14 680.53,-216.45 690.29,-212.33 685.59,-207.14"/>
</g>
<!-- r1_node_2&#45;&gt;r1_node_19 -->
<g id="edge38" class="edge">
<title>r1_node_2&#45;&gt;r1_node_19</title>
<path fill="none" stroke="black" d="M729.23,-143.79C728.59,-123.51 724.22,-90.25 703.93,-72 685.68,-55.58 540.75,-36.24 454.99,-26.07"/>
<polygon fill="black" stroke="black" points="455.39,-22.6 445.05,-24.91 454.58,-29.55 455.39,-22.6"/>
</g>
<!-- r1_node_1 -->
<g id="node13" class="node">
<title>r1_node_1</title>
<ellipse fill="none" stroke="black" cx="353.93" cy="-90" rx="50.33" ry="18"/>
<text text-anchor="middle" x="353.93" y="-84.95" font-family="Times,serif" font-size="14.00">r1_node_1</text>
</g>
<!-- r1_node_1&#45;&gt;r1_node_18 -->
<g id="edge16" class="edge">
<title>r1_node_1&#45;&gt;r1_node_18</title>
<path fill="none" stroke="black" d="M312.67,-79.34C259.85,-66.97 168.16,-45.51 109.58,-31.79"/>
<polygon fill="black" stroke="black" points="110.69,-28.46 100.16,-29.59 109.09,-35.27 110.69,-28.46"/>
</g>
<!-- r1_node_1&#45;&gt;r1_node_5 -->
<g id="edge15" class="edge">
<title>r1_node_1&#45;&gt;r1_node_5</title>
<path fill="none" stroke="black" d="M364.23,-108.1C366.89,-115.45 369.4,-124.24 371.26,-132.53"/>
<polygon fill="black" stroke="black" points="367.79,-133.05 373.12,-142.21 374.67,-131.73 367.79,-133.05"/>
</g>
<!-- r1_node_5&#45;&gt;r1_node_8 -->
<g id="edge34" class="edge">
<title>r1_node_5&#45;&gt;r1_node_8</title>
<path fill="none" stroke="black" d="M402.8,-176.67C422.88,-186.73 448.89,-200.61 469.3,-212.07"/>
<polygon fill="black" stroke="black" points="467.36,-214.99 477.79,-216.89 470.82,-208.91 467.36,-214.99"/>
</g>
<!-- r1_node_5&#45;&gt;r1_node_1 -->
<g id="edge35" class="edge">
<title>r1_node_5&#45;&gt;r1_node_1</title>
<path fill="none" stroke="black" d="M361.7,-144.05C359.02,-136.68 356.49,-127.84 354.62,-119.51"/>
<polygon fill="black" stroke="black" points="358.07,-118.92 352.75,-109.76 351.2,-120.24 358.07,-118.92"/>
</g>
<!-- r1_node_14 -->
<g id="node19" class="node">
<title>r1_node_14</title>
<ellipse fill="none" stroke="black" cx="477.93" cy="-90" rx="54.93" ry="18"/>
<text text-anchor="middle" x="477.93" y="-84.95" font-family="Times,serif" font-size="14.00">r1_node_14</text>
</g>
<!-- r1_node_5&#45;&gt;r1_node_14 -->
<g id="edge36" class="edge">
<title>r1_node_5&#45;&gt;r1_node_14</title>
<path fill="none" stroke="black" d="M395.2,-145.64C409.73,-136.04 428.68,-123.53 444.77,-112.9"/>
<polygon fill="black" stroke="black" points="446.68,-115.83 453.1,-107.4 442.82,-109.99 446.68,-115.83"/>
</g>
<!-- r1_node_4 -->
<g id="node15" class="node">
<title>r1_node_4</title>
<ellipse fill="none" stroke="black" cx="570.93" cy="-306" rx="50.33" ry="18"/>
<text text-anchor="middle" x="570.93" y="-300.95" font-family="Times,serif" font-size="14.00">r1_node_4</text>
</g>
<!-- r1_node_4&#45;&gt;r1_node_15 -->
<g id="edge17" class="edge">
<title>r1_node_4&#45;&gt;r1_node_15</title>
<path fill="none" stroke="black" d="M609.07,-293.92C617.23,-291.77 625.83,-289.67 633.93,-288 743.44,-265.39 774.7,-280.07 882.93,-252 904.69,-246.36 1059.18,-198.5 1071.93,-180 1084,-162.49 1082.8,-138.08 1079.12,-119.25"/>
<polygon fill="black" stroke="black" points="1082.54,-118.51 1076.86,-109.56 1075.72,-120.09 1082.54,-118.51"/>
</g>
<!-- r1_node_11 -->
<g id="node16" class="node">
<title>r1_node_11</title>
<ellipse fill="none" stroke="black" cx="818.93" cy="-234" rx="54.93" ry="18"/>
<text text-anchor="middle" x="818.93" y="-228.95" font-family="Times,serif" font-size="14.00">r1_node_11</text>
</g>
<!-- r1_node_4&#45;&gt;r1_node_11 -->
<g id="edge18" class="edge">
<title>r1_node_4&#45;&gt;r1_node_11</title>
<path fill="none" stroke="black" d="M607.52,-293.2C649.14,-280.9 717.28,-261.64 764.97,-248.68"/>
<polygon fill="black" stroke="black" points="765.82,-252.08 774.56,-246.09 764,-245.32 765.82,-252.08"/>
</g>
<!-- r1_node_11&#45;&gt;r1_node_19 -->
<g id="edge32" class="edge">
<title>r1_node_11&#45;&gt;r1_node_19</title>
<path fill="none" stroke="black" d="M821.6,-215.56C823.63,-196.82 824.38,-166.67 812.93,-144 790.62,-99.81 772.94,-92.62 727.93,-72 680.63,-50.33 539.25,-33.38 455.72,-24.92"/>
<polygon fill="black" stroke="black" points="456.14,-21.44 445.84,-23.93 455.44,-28.41 456.14,-21.44"/>
</g>
<!-- r1_node_11&#45;&gt;r1_node_15 -->
<g id="edge29" class="edge">
<title>r1_node_11&#45;&gt;r1_node_15</title>
<path fill="none" stroke="black" d="M870.7,-227.38C930.56,-219.83 1024.07,-204.47 1048.93,-180 1064.81,-164.37 1069.9,-139.23 1071.26,-119.65"/>
<polygon fill="black" stroke="black" points="1074.75,-119.95 1071.62,-109.83 1067.75,-119.69 1074.75,-119.95"/>
</g>
<!-- r1_node_11&#45;&gt;r1_node_17 -->
<g id="edge31" class="edge">
<title>r1_node_11&#45;&gt;r1_node_17</title>
<path fill="none" stroke="black" d="M868.85,-226.13C919.79,-217.97 993.76,-202.56 1010.93,-180 1020.63,-167.27 1015.72,-159.27 1010.93,-144 999.29,-106.82 992.05,-95.44 960.93,-72 932.65,-50.69 895.24,-37.6 864.15,-29.76"/>
<polygon fill="black" stroke="black" points="865.02,-26.37 854.48,-27.45 863.39,-33.18 865.02,-26.37"/>
</g>
<!-- r1_node_11&#45;&gt;r1_node_16 -->
<g id="edge30" class="edge">
<title>r1_node_11&#45;&gt;r1_node_16</title>
<path fill="none" stroke="black" d="M872.86,-229.79C907.6,-224.59 950.35,-211.65 972.93,-180 982.23,-166.97 977.99,-159.18 972.93,-144 960.28,-106.05 952.98,-93 918.93,-72 909.01,-65.88 768.01,-42.21 684.94,-28.67"/>
<polygon fill="black" stroke="black" points="685.55,-25.22 675.12,-27.07 684.43,-32.13 685.55,-25.22"/>
</g>
<!-- r1_node_11&#45;&gt;r1_node_4 -->
<g id="edge33" class="edge">
<title>r1_node_11&#45;&gt;r1_node_4</title>
<path fill="none" stroke="black" d="M780.81,-247.25C738.3,-259.79 669.5,-279.22 622.28,-292.03"/>
<polygon fill="black" stroke="black" points="621.57,-288.59 612.83,-294.58 623.39,-295.35 621.57,-288.59"/>
</g>
<!-- r1_node_11&#45;&gt;r1_node_14 -->
<g id="edge28" class="edge">
<title>r1_node_11&#45;&gt;r1_node_14</title>
<path fill="none" stroke="black" d="M818.05,-215.62C816.01,-195.15 809.37,-161.72 787.93,-144 745.52,-108.94 596.86,-118.98 542.93,-108 538.62,-107.12 534.17,-106.13 529.71,-105.09"/>
<polygon fill="black" stroke="black" points="530.7,-101.73 520.16,-102.75 529.04,-108.53 530.7,-101.73"/>
</g>
<!-- r1_node_10 -->
<g id="node17" class="node">
<title>r1_node_10</title>
<ellipse fill="none" stroke="black" cx="697.93" cy="-306" rx="54.93" ry="18"/>
<text text-anchor="middle" x="697.93" y="-300.95" font-family="Times,serif" font-size="14.00">r1_node_10</text>
</g>
<!-- r1_node_10&#45;&gt;r1_node_20 -->
<g id="edge19" class="edge">
<title>r1_node_10&#45;&gt;r1_node_20</title>
<path fill="none" stroke="black" d="M707.62,-288.02C718.35,-269.67 736.58,-239.85 754.93,-216 768.17,-198.8 780.07,-200.23 787.93,-180 793.73,-165.09 797.53,-156.81 787.93,-144 773.24,-124.39 713.87,-109.6 667.08,-100.69"/>
<polygon fill="black" stroke="black" points="667.75,-97.25 657.28,-98.88 666.48,-104.14 667.75,-97.25"/>
</g>
<!-- r1_node_10&#45;&gt;r1_node_15 -->
<g id="edge20" class="edge">
<title>r1_node_10&#45;&gt;r1_node_15</title>
<path fill="none" stroke="black" d="M751.93,-302.01C815.1,-297.11 921.97,-284.4 1007.93,-252 1065.07,-230.46 1095.15,-233.3 1124.93,-180 1132.74,-166.03 1131.13,-158.75 1124.93,-144 1120.16,-132.62 1111.61,-122.45 1102.71,-114.14"/>
<polygon fill="black" stroke="black" points="1105.17,-111.64 1095.32,-107.75 1100.59,-116.94 1105.17,-111.64"/>
</g>
<!-- r1_node_10&#45;&gt;r1_node_17 -->
<g id="edge21" class="edge">
<title>r1_node_10&#45;&gt;r1_node_17</title>
<path fill="none" stroke="black" d="M751.53,-301.28C839.83,-294.49 1011.54,-278.32 1065.93,-252 1107.82,-231.73 1123.55,-222.74 1141.93,-180 1150.85,-159.27 1141.97,-79.48 1134.93,-72 1099.99,-34.8 957.24,-23.7 871.35,-20.39"/>
<polygon fill="black" stroke="black" points="871.52,-16.9 861.4,-20.04 871.27,-23.89 871.52,-16.9"/>
</g>
<!-- r1_node_3 -->
<g id="node18" class="node">
<title>r1_node_3</title>
<ellipse fill="none" stroke="black" cx="176.93" cy="-234" rx="50.33" ry="18"/>
<text text-anchor="middle" x="176.93" y="-228.95" font-family="Times,serif" font-size="14.00">r1_node_3</text>
</g>
<!-- r1_node_3&#45;&gt;r1_node_19 -->
<g id="edge27" class="edge">
<title>r1_node_3&#45;&gt;r1_node_19</title>
<path fill="none" stroke="black" d="M166.16,-216.08C160.4,-206.03 153.9,-192.78 150.93,-180 139.98,-132.79 132.1,-106.69 165.93,-72 188.37,-49 270.55,-34.09 329.34,-26.11"/>
<polygon fill="black" stroke="black" points="329.43,-29.63 338.89,-24.85 328.52,-22.69 329.43,-29.63"/>
</g>
<!-- r1_node_3&#45;&gt;r1_node_18 -->
<g id="edge26" class="edge">
<title>r1_node_3&#45;&gt;r1_node_18</title>
<path fill="none" stroke="black" d="M152.9,-217.83C139.55,-208.36 123.55,-195.11 112.93,-180 83.91,-138.68 67.86,-81.26 60.35,-47.33"/>
<polygon fill="black" stroke="black" points="63.84,-46.92 58.35,-37.86 56.99,-48.36 63.84,-46.92"/>
</g>
<!-- r1_node_3&#45;&gt;r1_node_14 -->
<g id="edge25" class="edge">
<title>r1_node_3&#45;&gt;r1_node_14</title>
<path fill="none" stroke="black" d="M197.1,-217.29C222.79,-197.89 269.13,-164.9 312.93,-144 333.27,-134.3 386.28,-117.81 426.78,-105.79"/>
<polygon fill="black" stroke="black" points="427.52,-109.23 436.12,-103.04 425.54,-102.51 427.52,-109.23"/>
</g>
<!-- r1_node_13 -->
<g id="node20" class="node">
<title>r1_node_13</title>
<ellipse fill="none" stroke="black" cx="296.93" cy="-306" rx="54.93" ry="18"/>
<text text-anchor="middle" x="296.93" y="-300.95" font-family="Times,serif" font-size="14.00">r1_node_13</text>
</g>
<!-- r1_node_13&#45;&gt;r1_node_20 -->
<g id="edge40" class="edge">
<title>r1_node_13&#45;&gt;r1_node_20</title>
<path fill="none" stroke="black" d="M329.09,-291.21C349.89,-281.6 377.06,-267.72 398.93,-252 455.08,-211.64 455.3,-185.06 510.93,-144 528.09,-131.34 548.61,-119.61 566.27,-110.42"/>
<polygon fill="black" stroke="black" points="567.62,-113.66 574.94,-106 564.44,-107.42 567.62,-113.66"/>
</g>
<!-- r1_node_13&#45;&gt;r1_node_16 -->
<g id="edge39" class="edge">
<title>r1_node_13&#45;&gt;r1_node_16</title>
<path fill="none" stroke="black" d="M306.48,-287.93C311.57,-277.82 317.32,-264.57 319.93,-252 336.35,-172.92 242.55,-133.47 294.93,-72 311.97,-52.01 469.89,-33.79 560.96,-24.83"/>
<polygon fill="black" stroke="black" points="561.14,-28.33 570.75,-23.88 560.46,-21.37 561.14,-28.33"/>
</g>
</g>
</svg>
