<?xml version="1.0" encoding="UTF-8" standalone="no"?>
<!DOCTYPE svg PUBLIC "-//W3C//DTD SVG 1.1//EN"
 "http://www.w3.org/Graphics/SVG/1.1/DTD/svg11.dtd">
<!-- Generated by graphviz version 12.2.1 (20241206.2353)
 -->
<!-- Pages: 1 -->
<svg width="593pt" height="116pt"
 viewBox="0.00 0.00 592.66 116.00" xmlns="http://www.w3.org/2000/svg" xmlns:xlink="http://www.w3.org/1999/xlink">
<g id="graph0" class="graph" transform="scale(1 1) rotate(0) translate(4 112)">
<polygon fill="white" stroke="none" points="-4,4 -4,-112 588.66,-112 588.66,4 -4,4"/>
<!-- r2_node_7 -->
<g id="node1" class="node">
<title>r2_node_7</title>
<ellipse fill="none" stroke="black" cx="50.33" cy="-18" rx="50.33" ry="18"/>
<text text-anchor="middle" x="50.33" y="-12.95" font-family="Times,serif" font-size="14.00">r2_node_7</text>
</g>
<!-- r2_node_4 -->
<g id="node2" class="node">
<title>r2_node_4</title>
<ellipse fill="none" stroke="black" cx="169.33" cy="-18" rx="50.33" ry="18"/>
<text text-anchor="middle" x="169.33" y="-12.95" font-family="Times,serif" font-size="14.00">r2_node_4</text>
</g>
<!-- r2_node_6 -->
<g id="node3" class="node">
<title>r2_node_6</title>
<ellipse fill="none" stroke="black" cx="288.33" cy="-18" rx="50.33" ry="18"/>
<text text-anchor="middle" x="288.33" y="-12.95" font-family="Times,serif" font-size="14.00">r2_node_6</text>
</g>
<!-- r2_node_16 -->
<g id="node4" class="node">
<title>r2_node_16</title>
<ellipse fill="none" stroke="black" cx="109.33" cy="-90" rx="54.93" ry="18"/>
<text text-anchor="middle" x="109.33" y="-84.95" font-family="Times,serif" font-size="14.00">r2_node_16</text>
</g>
<!-- r2_node_16&#45;&gt;r2_node_7 -->
<g id="edge3" class="edge">
<title>r2_node_16&#45;&gt;r2_node_7</title>
<path fill="none" stroke="black" d="M95.35,-72.41C88.22,-63.95 79.4,-53.49 71.47,-44.08"/>
<polygon fill="black" stroke="black" points="74.31,-42.02 65.19,-36.63 68.95,-46.53 74.31,-42.02"/>
</g>
<!-- r2_node_16&#45;&gt;r2_node_4 -->
<g id="edge4" class="edge">
<title>r2_node_16&#45;&gt;r2_node_4</title>
<path fill="none" stroke="black" d="M123.55,-72.41C130.8,-63.95 139.76,-53.49 147.83,-44.08"/>
<polygon fill="black" stroke="black" points="150.38,-46.49 154.23,-36.62 145.06,-41.93 150.38,-46.49"/>
</g>
<!-- r2_node_16&#45;&gt;r2_node_6 -->
<g id="edge5" class="edge">
<title>r2_node_16&#45;&gt;r2_node_6</title>
<path fill="none" stroke="black" d="M143.42,-75.67C172.18,-64.42 213.53,-48.25 244.71,-36.06"/>
<polygon fill="black" stroke="black" points="245.82,-39.38 253.86,-32.48 243.27,-32.86 245.82,-39.38"/>
</g>
<!-- r2_node_15 -->
<g id="node5" class="node">
<title>r2_node_15</title>
<ellipse fill="none" stroke="black" cx="411.33" cy="-18" rx="54.93" ry="18"/>
<text text-anchor="middle" x="411.33" y="-12.95" font-family="Times,serif" font-size="14.00">r2_node_15</text>
</g>
<!-- r2_node_16&#45;&gt;r2_node_15 -->
<g id="edge1" class="edge">
<title>r2_node_16&#45;&gt;r2_node_15</title>
<path fill="none" stroke="black" d="M154.64,-79.48C202.62,-69.27 280.5,-52.31 347.33,-36 351.13,-35.07 355.05,-34.09 358.99,-33.09"/>
<polygon fill="black" stroke="black" points="359.81,-36.49 368.61,-30.6 358.05,-29.71 359.81,-36.49"/>
</g>
<!-- r2_node_2 -->
<g id="node6" class="node">
<title>r2_node_2</title>
<ellipse fill="none" stroke="black" cx="534.33" cy="-18" rx="50.33" ry="18"/>
<text text-anchor="middle" x="534.33" y="-12.95" font-family="Times,serif" font-size="14.00">r2_node_2</text>
</g>
<!-- r2_node_16&#45;&gt;r2_node_2 -->
<g id="edge2" class="edge">
<title>r2_node_16&#45;&gt;r2_node_2</title>
<path fill="none" stroke="black" d="M161.25,-83.74C232.55,-76.01 364.55,-59.86 475.33,-36 478.87,-35.24 482.51,-34.38 486.17,-33.46"/>
<polygon fill="black" stroke="black" points="486.84,-36.9 495.61,-30.96 485.04,-30.14 486.84,-36.9"/>
</g>
</g>
</svg>
