<?xml version="1.0" encoding="UTF-8" standalone="no"?>
<!DOCTYPE svg PUBLIC "-//W3C//DTD SVG 1.1//EN"
 "http://www.w3.org/Graphics/SVG/1.1/DTD/svg11.dtd">
<!-- Generated by graphviz version 12.2.1 (20241206.2353)
 -->
<!-- Pages: 1 -->
<svg width="1306pt" height="332pt"
 viewBox="0.00 0.00 1306.26 332.00" xmlns="http://www.w3.org/2000/svg" xmlns:xlink="http://www.w3.org/1999/xlink">
<g id="graph0" class="graph" transform="scale(1 1) rotate(0) translate(4 328)">
<polygon fill="white" stroke="none" points="-4,4 -4,-328 1302.26,-328 1302.26,4 -4,4"/>
<!-- r1_node_1 -->
<g id="node1" class="node">
<title>r1_node_1</title>
<ellipse fill="none" stroke="black" cx="50.33" cy="-306" rx="50.33" ry="18"/>
<text text-anchor="middle" x="50.33" y="-300.95" font-family="Times,serif" font-size="14.00">r1_node_1</text>
</g>
<!-- r1_node_5 -->
<g id="node2" class="node">
<title>r1_node_5</title>
<ellipse fill="none" stroke="black" cx="89.33" cy="-234" rx="50.33" ry="18"/>
<text text-anchor="middle" x="89.33" y="-228.95" font-family="Times,serif" font-size="14.00">r1_node_5</text>
</g>
<!-- r1_node_1&#45;&gt;r1_node_5 -->
<g id="edge1" class="edge">
<title>r1_node_1&#45;&gt;r1_node_5</title>
<path fill="none" stroke="black" d="M54.05,-287.7C57.68,-279.7 62.86,-270.02 68.2,-261.15"/>
<polygon fill="black" stroke="black" points="71.03,-263.23 73.41,-252.9 65.11,-259.49 71.03,-263.23"/>
</g>
<!-- r1_node_10 -->
<g id="node3" class="node">
<title>r1_node_10</title>
<ellipse fill="none" stroke="black" cx="1148.33" cy="-90" rx="54.93" ry="18"/>
<text text-anchor="middle" x="1148.33" y="-84.95" font-family="Times,serif" font-size="14.00">r1_node_10</text>
</g>
<!-- r1_node_1&#45;&gt;r1_node_10 -->
<g id="edge2" class="edge">
<title>r1_node_1&#45;&gt;r1_node_10</title>
<path fill="none" stroke="black" d="M97.63,-299.65C220.37,-285.29 558.76,-242.72 835.33,-180 929.73,-158.59 1037.97,-125.97 1099.24,-106.74"/>
<polygon fill="black" stroke="black" points="1100.19,-110.11 1108.68,-103.77 1098.09,-103.43 1100.19,-110.11"/>
</g>
<!-- r1_node_18 -->
<g id="node4" class="node">
<title>r1_node_18</title>
<ellipse fill="none" stroke="black" cx="197.33" cy="-18" rx="54.93" ry="18"/>
<text text-anchor="middle" x="197.33" y="-12.95" font-family="Times,serif" font-size="14.00">r1_node_18</text>
</g>
<!-- r1_node_1&#45;&gt;r1_node_18 -->
<g id="edge3" class="edge">
<title>r1_node_1&#45;&gt;r1_node_18</title>
<path fill="none" stroke="black" d="M42.02,-287.79C37.59,-277.63 32.59,-264.38 30.33,-252 15.59,-171.18 17.74,-133.39 72.33,-72 90.05,-52.07 116.53,-39.4 140.57,-31.47"/>
<polygon fill="black" stroke="black" points="141.41,-34.87 149.95,-28.59 139.36,-28.18 141.41,-34.87"/>
</g>
<!-- r1_node_2 -->
<g id="node5" class="node">
<title>r1_node_2</title>
<ellipse fill="none" stroke="black" cx="354.33" cy="-234" rx="50.33" ry="18"/>
<text text-anchor="middle" x="354.33" y="-228.95" font-family="Times,serif" font-size="14.00">r1_node_2</text>
</g>
<!-- r1_node_1&#45;&gt;r1_node_2 -->
<g id="edge4" class="edge">
<title>r1_node_1&#45;&gt;r1_node_2</title>
<path fill="none" stroke="black" d="M90.23,-294.67C144.06,-281.74 239.89,-259.66 300.17,-246.29"/>
<polygon fill="black" stroke="black" points="300.88,-249.72 309.89,-244.15 299.37,-242.88 300.88,-249.72"/>
</g>
<!-- r1_node_7 -->
<g id="node6" class="node">
<title>r1_node_7</title>
<ellipse fill="none" stroke="black" cx="361.33" cy="-90" rx="50.33" ry="18"/>
<text text-anchor="middle" x="361.33" y="-84.95" font-family="Times,serif" font-size="14.00">r1_node_7</text>
</g>
<!-- r1_node_1&#45;&gt;r1_node_7 -->
<g id="edge5" class="edge">
<title>r1_node_1&#45;&gt;r1_node_7</title>
<path fill="none" stroke="black" d="M72.6,-289.63C90.87,-279.38 116.9,-265.37 139.33,-252 189.51,-222.08 202.67,-215.18 249.33,-180 277.52,-158.74 307.89,-131.98 330.08,-113.38"/>
<polygon fill="black" stroke="black" points="332.13,-116.23 337.6,-107.16 327.66,-110.84 332.13,-116.23"/>
</g>
<!-- r1_node_5&#45;&gt;r1_node_1 -->
<g id="edge29" class="edge">
<title>r1_node_5&#45;&gt;r1_node_1</title>
<path fill="none" stroke="black" d="M85.54,-252.45C81.9,-260.44 76.73,-270.08 71.41,-278.92"/>
<polygon fill="black" stroke="black" points="68.6,-276.81 66.22,-287.13 74.52,-280.55 68.6,-276.81"/>
</g>
<!-- r1_node_14 -->
<g id="node7" class="node">
<title>r1_node_14</title>
<ellipse fill="none" stroke="black" cx="136.33" cy="-90" rx="54.93" ry="18"/>
<text text-anchor="middle" x="136.33" y="-84.95" font-family="Times,serif" font-size="14.00">r1_node_14</text>
</g>
<!-- r1_node_5&#45;&gt;r1_node_14 -->
<g id="edge30" class="edge">
<title>r1_node_5&#45;&gt;r1_node_14</title>
<path fill="none" stroke="black" d="M95,-215.87C102.97,-191.78 117.59,-147.6 127.13,-118.77"/>
<polygon fill="black" stroke="black" points="130.34,-120.22 130.16,-109.63 123.7,-118.02 130.34,-120.22"/>
</g>
<!-- r1_node_8 -->
<g id="node8" class="node">
<title>r1_node_8</title>
<ellipse fill="none" stroke="black" cx="52.33" cy="-18" rx="50.33" ry="18"/>
<text text-anchor="middle" x="52.33" y="-12.95" font-family="Times,serif" font-size="14.00">r1_node_8</text>
</g>
<!-- r1_node_5&#45;&gt;r1_node_8 -->
<g id="edge28" class="edge">
<title>r1_node_5&#45;&gt;r1_node_8</title>
<path fill="none" stroke="black" d="M86.36,-215.85C80.02,-179.14 65.06,-92.66 57.26,-47.53"/>
<polygon fill="black" stroke="black" points="60.72,-46.98 55.57,-37.72 53.82,-48.17 60.72,-46.98"/>
</g>
<!-- r1_node_3 -->
<g id="node18" class="node">
<title>r1_node_3</title>
<ellipse fill="none" stroke="black" cx="199.33" cy="-162" rx="50.33" ry="18"/>
<text text-anchor="middle" x="199.33" y="-156.95" font-family="Times,serif" font-size="14.00">r1_node_3</text>
</g>
<!-- r1_node_5&#45;&gt;r1_node_3 -->
<g id="edge31" class="edge">
<title>r1_node_5&#45;&gt;r1_node_3</title>
<path fill="none" stroke="black" d="M108.78,-216.94C123.48,-206.86 143.9,-193.78 161.69,-183.02"/>
<polygon fill="black" stroke="black" points="163.16,-186.23 169.95,-178.1 159.57,-180.21 163.16,-186.23"/>
</g>
<!-- r1_node_2&#45;&gt;r1_node_1 -->
<g id="edge15" class="edge">
<title>r1_node_2&#45;&gt;r1_node_1</title>
<path fill="none" stroke="black" d="M314.58,-245.29C260.75,-258.23 164.71,-280.35 104.38,-293.73"/>
<polygon fill="black" stroke="black" points="103.67,-290.31 94.66,-295.88 105.18,-297.14 103.67,-290.31"/>
</g>
<!-- r1_node_6 -->
<g id="node9" class="node">
<title>r1_node_6</title>
<ellipse fill="none" stroke="black" cx="776.33" cy="-162" rx="50.33" ry="18"/>
<text text-anchor="middle" x="776.33" y="-156.95" font-family="Times,serif" font-size="14.00">r1_node_6</text>
</g>
<!-- r1_node_2&#45;&gt;r1_node_6 -->
<g id="edge11" class="edge">
<title>r1_node_2&#45;&gt;r1_node_6</title>
<path fill="none" stroke="black" d="M400.72,-226.48C466.75,-217.62 591.07,-200.51 696.33,-180 704.81,-178.35 713.82,-176.37 722.63,-174.35"/>
<polygon fill="black" stroke="black" points="723.21,-177.81 732.16,-172.15 721.63,-170.99 723.21,-177.81"/>
</g>
<!-- r1_node_13 -->
<g id="node13" class="node">
<title>r1_node_13</title>
<ellipse fill="none" stroke="black" cx="1243.33" cy="-18" rx="54.93" ry="18"/>
<text text-anchor="middle" x="1243.33" y="-12.95" font-family="Times,serif" font-size="14.00">r1_node_13</text>
</g>
<!-- r1_node_2&#45;&gt;r1_node_13 -->
<g id="edge13" class="edge">
<title>r1_node_2&#45;&gt;r1_node_13</title>
<path fill="none" stroke="black" d="M403.85,-229.91C584.03,-218.18 1197.04,-173.66 1252.33,-108 1266.38,-91.32 1262.3,-66.15 1255.76,-46.84"/>
<polygon fill="black" stroke="black" points="1259.1,-45.77 1252.28,-37.66 1252.56,-48.25 1259.1,-45.77"/>
</g>
<!-- r1_node_19 -->
<g id="node14" class="node">
<title>r1_node_19</title>
<ellipse fill="none" stroke="black" cx="343.33" cy="-18" rx="54.93" ry="18"/>
<text text-anchor="middle" x="343.33" y="-12.95" font-family="Times,serif" font-size="14.00">r1_node_19</text>
</g>
<!-- r1_node_2&#45;&gt;r1_node_19 -->
<g id="edge14" class="edge">
<title>r1_node_2&#45;&gt;r1_node_19</title>
<path fill="none" stroke="black" d="M370.55,-216.54C397.74,-186.88 447.03,-122.8 420.33,-72 412.85,-57.78 399.65,-46.64 386.26,-38.31"/>
<polygon fill="black" stroke="black" points="388.29,-35.44 377.87,-33.5 384.81,-41.51 388.29,-35.44"/>
</g>
<!-- r1_node_9 -->
<g id="node16" class="node">
<title>r1_node_9</title>
<ellipse fill="none" stroke="black" cx="646.33" cy="-162" rx="50.33" ry="18"/>
<text text-anchor="middle" x="646.33" y="-156.95" font-family="Times,serif" font-size="14.00">r1_node_9</text>
</g>
<!-- r1_node_2&#45;&gt;r1_node_9 -->
<g id="edge12" class="edge">
<title>r1_node_2&#45;&gt;r1_node_9</title>
<path fill="none" stroke="black" d="M395.24,-223.19C447.33,-210.71 537.39,-189.12 594.3,-175.47"/>
<polygon fill="black" stroke="black" points="594.84,-178.94 603.75,-173.21 593.21,-172.13 594.84,-178.94"/>
</g>
<!-- r1_node_4 -->
<g id="node17" class="node">
<title>r1_node_4</title>
<ellipse fill="none" stroke="black" cx="505.33" cy="-162" rx="50.33" ry="18"/>
<text text-anchor="middle" x="505.33" y="-156.95" font-family="Times,serif" font-size="14.00">r1_node_4</text>
</g>
<!-- r1_node_2&#45;&gt;r1_node_4 -->
<g id="edge16" class="edge">
<title>r1_node_2&#45;&gt;r1_node_4</title>
<path fill="none" stroke="black" d="M380.37,-218.33C402.76,-207.3 435.33,-192.15 461.67,-180.49"/>
<polygon fill="black" stroke="black" points="463.01,-183.72 470.77,-176.5 460.2,-177.31 463.01,-183.72"/>
</g>
<!-- r1_node_7&#45;&gt;r1_node_1 -->
<g id="edge35" class="edge">
<title>r1_node_7&#45;&gt;r1_node_1</title>
<path fill="none" stroke="black" d="M349.93,-107.84C332.25,-126.34 298.46,-156.52 267.33,-180 220.67,-215.18 207.51,-222.08 157.33,-252 136.77,-264.26 113.18,-277.05 93.29,-287"/>
<polygon fill="black" stroke="black" points="91.75,-283.85 84.31,-291.4 94.83,-290.14 91.75,-283.85"/>
</g>
<!-- r1_node_7&#45;&gt;r1_node_18 -->
<g id="edge37" class="edge">
<title>r1_node_7&#45;&gt;r1_node_18</title>
<path fill="none" stroke="black" d="M330.09,-75.67C304.63,-64.8 268.4,-49.33 240.22,-37.31"/>
<polygon fill="black" stroke="black" points="241.81,-34.18 231.24,-33.47 239.06,-40.62 241.81,-34.18"/>
</g>
<!-- r1_node_16 -->
<g id="node10" class="node">
<title>r1_node_16</title>
<ellipse fill="none" stroke="black" cx="909.33" cy="-18" rx="54.93" ry="18"/>
<text text-anchor="middle" x="909.33" y="-12.95" font-family="Times,serif" font-size="14.00">r1_node_16</text>
</g>
<!-- r1_node_7&#45;&gt;r1_node_16 -->
<g id="edge36" class="edge">
<title>r1_node_7&#45;&gt;r1_node_16</title>
<path fill="none" stroke="black" d="M408.05,-83.03C506.79,-70.42 736.69,-41.05 847.48,-26.9"/>
<polygon fill="black" stroke="black" points="847.8,-30.39 857.28,-25.65 846.91,-23.44 847.8,-30.39"/>
</g>
<!-- r1_node_7&#45;&gt;r1_node_19 -->
<g id="edge32" class="edge">
<title>r1_node_7&#45;&gt;r1_node_19</title>
<path fill="none" stroke="black" d="M356.88,-71.7C354.98,-64.32 352.72,-55.52 350.59,-47.25"/>
<polygon fill="black" stroke="black" points="353.98,-46.38 348.1,-37.57 347.2,-48.13 353.98,-46.38"/>
</g>
<!-- r1_node_7&#45;&gt;r1_node_3 -->
<g id="edge34" class="edge">
<title>r1_node_7&#45;&gt;r1_node_3</title>
<path fill="none" stroke="black" d="M333.45,-105.46C308.86,-116.71 272.77,-132.35 244.16,-144.16"/>
<polygon fill="black" stroke="black" points="242.93,-140.88 235.01,-147.91 245.59,-147.36 242.93,-140.88"/>
</g>
<!-- r1_node_20 -->
<g id="node19" class="node">
<title>r1_node_20</title>
<ellipse fill="none" stroke="black" cx="678.33" cy="-18" rx="54.93" ry="18"/>
<text text-anchor="middle" x="678.33" y="-12.95" font-family="Times,serif" font-size="14.00">r1_node_20</text>
</g>
<!-- r1_node_7&#45;&gt;r1_node_20 -->
<g id="edge33" class="edge">
<title>r1_node_7&#45;&gt;r1_node_20</title>
<path fill="none" stroke="black" d="M403.42,-79.7C459.79,-67.26 559.92,-45.15 622.52,-31.32"/>
<polygon fill="black" stroke="black" points="623.27,-34.74 632.28,-29.17 621.76,-27.91 623.27,-34.74"/>
</g>
<!-- r1_node_6&#45;&gt;r1_node_2 -->
<g id="edge8" class="edge">
<title>r1_node_6&#45;&gt;r1_node_2</title>
<path fill="none" stroke="black" d="M739.47,-174.55C731.24,-176.5 722.54,-178.4 714.33,-180 609.11,-200.5 484.83,-217.61 413.14,-226.47"/>
<polygon fill="black" stroke="black" points="413.1,-222.95 403.6,-227.64 413.95,-229.9 413.1,-222.95"/>
</g>
<!-- r1_node_6&#45;&gt;r1_node_16 -->
<g id="edge6" class="edge">
<title>r1_node_6&#45;&gt;r1_node_16</title>
<path fill="none" stroke="black" d="M820.49,-153.07C896.13,-139.38 1042.73,-112.37 1046.33,-108 1056.49,-95.64 1055.37,-85.2 1046.33,-72 1029.46,-47.39 999.41,-34.21 971.74,-27.14"/>
<polygon fill="black" stroke="black" points="972.88,-23.82 962.35,-24.98 971.31,-30.64 972.88,-23.82"/>
</g>
<!-- r1_node_17 -->
<g id="node11" class="node">
<title>r1_node_17</title>
<ellipse fill="none" stroke="black" cx="1089.33" cy="-18" rx="54.93" ry="18"/>
<text text-anchor="middle" x="1089.33" y="-12.95" font-family="Times,serif" font-size="14.00">r1_node_17</text>
</g>
<!-- r1_node_6&#45;&gt;r1_node_17 -->
<g id="edge7" class="edge">
<title>r1_node_6&#45;&gt;r1_node_17</title>
<path fill="none" stroke="black" d="M819.74,-152.46C835.62,-149.51 853.75,-146.37 870.33,-144 945.98,-133.19 1161.2,-164.8 1212.33,-108 1223.03,-96.11 1221.12,-85.37 1212.33,-72 1198.03,-50.27 1172.74,-37.41 1148.8,-29.82"/>
<polygon fill="black" stroke="black" points="1149.97,-26.51 1139.39,-27.11 1148.03,-33.24 1149.97,-26.51"/>
</g>
<!-- r1_node_12 -->
<g id="node12" class="node">
<title>r1_node_12</title>
<ellipse fill="none" stroke="black" cx="982.33" cy="-90" rx="54.93" ry="18"/>
<text text-anchor="middle" x="982.33" y="-84.95" font-family="Times,serif" font-size="14.00">r1_node_12</text>
</g>
<!-- r1_node_6&#45;&gt;r1_node_12 -->
<g id="edge9" class="edge">
<title>r1_node_6&#45;&gt;r1_node_12</title>
<path fill="none" stroke="black" d="M811.74,-148.97C845.66,-137.44 897.1,-119.96 934.62,-107.21"/>
<polygon fill="black" stroke="black" points="935.52,-110.6 943.86,-104.07 933.27,-103.97 935.52,-110.6"/>
</g>
<!-- r1_node_6&#45;&gt;r1_node_13 -->
<g id="edge10" class="edge">
<title>r1_node_6&#45;&gt;r1_node_13</title>
<path fill="none" stroke="black" d="M819.74,-152.41C835.61,-149.46 853.74,-146.33 870.33,-144 949.95,-132.84 1172.2,-163.55 1230.33,-108 1246.22,-92.81 1248.57,-67.41 1247.46,-47.63"/>
<polygon fill="black" stroke="black" points="1250.94,-47.32 1246.55,-37.68 1243.97,-47.96 1250.94,-47.32"/>
</g>
<!-- r1_node_11 -->
<g id="node15" class="node">
<title>r1_node_11</title>
<ellipse fill="none" stroke="black" cx="726.33" cy="-90" rx="54.93" ry="18"/>
<text text-anchor="middle" x="726.33" y="-84.95" font-family="Times,serif" font-size="14.00">r1_node_11</text>
</g>
<!-- r1_node_4&#45;&gt;r1_node_10 -->
<g id="edge23" class="edge">
<title>r1_node_4&#45;&gt;r1_node_10</title>
<path fill="none" stroke="black" d="M546.44,-151.42C559.46,-148.67 573.94,-145.9 587.33,-144 789.91,-115.17 843.22,-132.84 1046.33,-108 1060.53,-106.26 1075.77,-103.96 1090.04,-101.61"/>
<polygon fill="black" stroke="black" points="1090.45,-105.09 1099.73,-99.98 1089.29,-98.19 1090.45,-105.09"/>
</g>
<!-- r1_node_4&#45;&gt;r1_node_2 -->
<g id="edge27" class="edge">
<title>r1_node_4&#45;&gt;r1_node_2</title>
<path fill="none" stroke="black" d="M478.99,-177.82C456.57,-188.86 424.08,-203.96 397.84,-215.58"/>
<polygon fill="black" stroke="black" points="396.53,-212.33 388.77,-219.55 399.34,-218.74 396.53,-212.33"/>
</g>
<!-- r1_node_4&#45;&gt;r1_node_12 -->
<g id="edge25" class="edge">
<title>r1_node_4&#45;&gt;r1_node_12</title>
<path fill="none" stroke="black" d="M546.9,-151.57C559.81,-148.86 574.12,-146.08 587.33,-144 733.5,-120.95 772.85,-135.07 918.33,-108 922.59,-107.21 926.99,-106.28 931.39,-105.27"/>
<polygon fill="black" stroke="black" points="931.89,-108.75 940.78,-102.99 930.24,-101.95 931.89,-108.75"/>
</g>
<!-- r1_node_4&#45;&gt;r1_node_11 -->
<g id="edge24" class="edge">
<title>r1_node_4&#45;&gt;r1_node_11</title>
<path fill="none" stroke="black" d="M541.82,-149.44C578.77,-137.74 636.15,-119.56 677.1,-106.59"/>
<polygon fill="black" stroke="black" points="678,-109.98 686.48,-103.62 675.89,-103.3 678,-109.98"/>
</g>
<!-- r1_node_15 -->
<g id="node20" class="node">
<title>r1_node_15</title>
<ellipse fill="none" stroke="black" cx="854.33" cy="-90" rx="54.93" ry="18"/>
<text text-anchor="middle" x="854.33" y="-84.95" font-family="Times,serif" font-size="14.00">r1_node_15</text>
</g>
<!-- r1_node_4&#45;&gt;r1_node_15 -->
<g id="edge26" class="edge">
<title>r1_node_4&#45;&gt;r1_node_15</title>
<path fill="none" stroke="black" d="M547.84,-151.94C560.53,-149.31 574.48,-146.47 587.33,-144 677.31,-126.7 700.86,-127.78 790.33,-108 794.32,-107.12 798.45,-106.15 802.58,-105.14"/>
<polygon fill="black" stroke="black" points="803.17,-108.6 812.01,-102.77 801.46,-101.81 803.17,-108.6"/>
</g>
<!-- r1_node_3&#45;&gt;r1_node_5 -->
<g id="edge17" class="edge">
<title>r1_node_3&#45;&gt;r1_node_5</title>
<path fill="none" stroke="black" d="M179.92,-179.03C165.23,-189.11 144.79,-202.2 126.99,-212.96"/>
<polygon fill="black" stroke="black" points="125.52,-209.76 118.72,-217.89 129.11,-215.77 125.52,-209.76"/>
</g>
<!-- r1_node_3&#45;&gt;r1_node_18 -->
<g id="edge21" class="edge">
<title>r1_node_3&#45;&gt;r1_node_18</title>
<path fill="none" stroke="black" d="M199.93,-143.6C200.45,-125.66 201.03,-96.87 200.33,-72 200.1,-64.05 199.69,-55.43 199.24,-47.5"/>
<polygon fill="black" stroke="black" points="202.74,-47.45 198.64,-37.69 195.75,-47.88 202.74,-47.45"/>
</g>
<!-- r1_node_3&#45;&gt;r1_node_7 -->
<g id="edge18" class="edge">
<title>r1_node_3&#45;&gt;r1_node_7</title>
<path fill="none" stroke="black" d="M226.93,-146.67C251.49,-135.42 287.66,-119.75 316.36,-107.89"/>
<polygon fill="black" stroke="black" points="317.62,-111.16 325.55,-104.13 314.97,-104.68 317.62,-111.16"/>
</g>
<!-- r1_node_3&#45;&gt;r1_node_14 -->
<g id="edge20" class="edge">
<title>r1_node_3&#45;&gt;r1_node_14</title>
<path fill="none" stroke="black" d="M184.4,-144.41C176.71,-135.87 167.18,-125.28 158.64,-115.79"/>
<polygon fill="black" stroke="black" points="161.45,-113.69 152.16,-108.59 156.25,-118.37 161.45,-113.69"/>
</g>
<!-- r1_node_3&#45;&gt;r1_node_13 -->
<g id="edge19" class="edge">
<title>r1_node_3&#45;&gt;r1_node_13</title>
<path fill="none" stroke="black" d="M240.57,-151.39C321.14,-132.99 505.31,-92.78 662.33,-72 879.25,-43.3 936.36,-64.35 1153.33,-36 1164.33,-34.56 1176.01,-32.65 1187.19,-30.62"/>
<polygon fill="black" stroke="black" points="1187.49,-34.12 1196.68,-28.85 1186.2,-27.24 1187.49,-34.12"/>
</g>
<!-- r1_node_3&#45;&gt;r1_node_19 -->
<g id="edge22" class="edge">
<title>r1_node_3&#45;&gt;r1_node_19</title>
<path fill="none" stroke="black" d="M215.85,-144.71C240.99,-119.91 289.05,-72.52 318.44,-43.54"/>
<polygon fill="black" stroke="black" points="320.82,-46.11 325.48,-36.6 315.9,-41.13 320.82,-46.11"/>
</g>
</g>
</svg>
