<?xml version="1.0" encoding="UTF-8" standalone="no"?>
<!DOCTYPE svg PUBLIC "-//W3C//DTD SVG 1.1//EN"
 "http://www.w3.org/Graphics/SVG/1.1/DTD/svg11.dtd">
<!-- Generated by graphviz version 12.2.1 (20241206.2353)
 -->
<!-- Pages: 1 -->
<svg width="1190pt" height="404pt"
 viewBox="0.00 0.00 1190.26 404.00" xmlns="http://www.w3.org/2000/svg" xmlns:xlink="http://www.w3.org/1999/xlink">
<g id="graph0" class="graph" transform="scale(1 1) rotate(0) translate(4 400)">
<polygon fill="white" stroke="none" points="-4,4 -4,-400 1186.26,-400 1186.26,4 -4,4"/>
<!-- r3_node_1 -->
<g id="node1" class="node">
<title>r3_node_1</title>
<ellipse fill="none" stroke="black" cx="885.93" cy="-18" rx="50.33" ry="18"/>
<text text-anchor="middle" x="885.93" y="-12.95" font-family="Times,serif" font-size="14.00">r3_node_1</text>
</g>
<!-- r3_node_13 -->
<g id="node2" class="node">
<title>r3_node_13</title>
<ellipse fill="none" stroke="black" cx="1008.93" cy="-18" rx="54.93" ry="18"/>
<text text-anchor="middle" x="1008.93" y="-12.95" font-family="Times,serif" font-size="14.00">r3_node_13</text>
</g>
<!-- r3_node_8 -->
<g id="node3" class="node">
<title>r3_node_8</title>
<ellipse fill="none" stroke="black" cx="68.93" cy="-306" rx="50.33" ry="18"/>
<text text-anchor="middle" x="68.93" y="-300.95" font-family="Times,serif" font-size="14.00">r3_node_8</text>
</g>
<!-- r3_node_14 -->
<g id="node4" class="node">
<title>r3_node_14</title>
<ellipse fill="none" stroke="black" cx="54.93" cy="-18" rx="54.93" ry="18"/>
<text text-anchor="middle" x="54.93" y="-12.95" font-family="Times,serif" font-size="14.00">r3_node_14</text>
</g>
<!-- r3_node_8&#45;&gt;r3_node_14 -->
<g id="edge1" class="edge">
<title>r3_node_8&#45;&gt;r3_node_14</title>
<path fill="none" stroke="black" d="M68.08,-287.54C65.74,-239.76 59.22,-106.51 56.33,-47.61"/>
<polygon fill="black" stroke="black" points="59.84,-47.56 55.85,-37.74 52.84,-47.9 59.84,-47.56"/>
</g>
<!-- r3_node_16 -->
<g id="node5" class="node">
<title>r3_node_16</title>
<ellipse fill="none" stroke="black" cx="506.93" cy="-18" rx="54.93" ry="18"/>
<text text-anchor="middle" x="506.93" y="-12.95" font-family="Times,serif" font-size="14.00">r3_node_16</text>
</g>
<!-- r3_node_8&#45;&gt;r3_node_16 -->
<g id="edge2" class="edge">
<title>r3_node_8&#45;&gt;r3_node_16</title>
<path fill="none" stroke="black" d="M74.45,-287.87C90.56,-238.95 138.71,-100.27 175.93,-72 196.91,-56.07 353.8,-36.16 443.85,-25.87"/>
<polygon fill="black" stroke="black" points="444.24,-29.35 453.78,-24.74 443.45,-22.39 444.24,-29.35"/>
</g>
<!-- r3_node_2 -->
<g id="node6" class="node">
<title>r3_node_2</title>
<ellipse fill="none" stroke="black" cx="199.93" cy="-234" rx="50.33" ry="18"/>
<text text-anchor="middle" x="199.93" y="-228.95" font-family="Times,serif" font-size="14.00">r3_node_2</text>
</g>
<!-- r3_node_8&#45;&gt;r3_node_2 -->
<g id="edge3" class="edge">
<title>r3_node_8&#45;&gt;r3_node_2</title>
<path fill="none" stroke="black" d="M91.98,-289.64C110.6,-279.01 137.07,-264.8 159.2,-253.54"/>
<polygon fill="black" stroke="black" points="160.63,-256.74 167.99,-249.12 157.48,-250.49 160.63,-256.74"/>
</g>
<!-- r3_node_4 -->
<g id="node7" class="node">
<title>r3_node_4</title>
<ellipse fill="none" stroke="black" cx="111.93" cy="-378" rx="50.33" ry="18"/>
<text text-anchor="middle" x="111.93" y="-372.95" font-family="Times,serif" font-size="14.00">r3_node_4</text>
</g>
<!-- r3_node_8&#45;&gt;r3_node_4 -->
<g id="edge4" class="edge">
<title>r3_node_8&#45;&gt;r3_node_4</title>
<path fill="none" stroke="black" d="M84.64,-323.14C90.36,-331.01 96.57,-340.68 101.73,-349.64"/>
<polygon fill="black" stroke="black" points="98.63,-351.27 106.5,-358.37 104.78,-347.91 98.63,-351.27"/>
</g>
<!-- r3_node_10 -->
<g id="node8" class="node">
<title>r3_node_10</title>
<ellipse fill="none" stroke="black" cx="762.93" cy="-18" rx="54.93" ry="18"/>
<text text-anchor="middle" x="762.93" y="-12.95" font-family="Times,serif" font-size="14.00">r3_node_10</text>
</g>
<!-- r3_node_8&#45;&gt;r3_node_10 -->
<g id="edge5" class="edge">
<title>r3_node_8&#45;&gt;r3_node_10</title>
<path fill="none" stroke="black" d="M114.95,-298.14C165.32,-289.95 248.08,-274.48 316.93,-252 391.45,-227.68 421.33,-234.22 477.93,-180 516.69,-142.88 489.53,-104.89 531.93,-72 591.93,-25.46 625.11,-53.75 698.93,-36 702.74,-35.09 706.66,-34.11 710.61,-33.12"/>
<polygon fill="black" stroke="black" points="711.42,-36.52 720.23,-30.64 709.67,-29.74 711.42,-36.52"/>
</g>
<!-- r3_node_11 -->
<g id="node9" class="node">
<title>r3_node_11</title>
<ellipse fill="none" stroke="black" cx="413.93" cy="-162" rx="54.93" ry="18"/>
<text text-anchor="middle" x="413.93" y="-156.95" font-family="Times,serif" font-size="14.00">r3_node_11</text>
</g>
<!-- r3_node_8&#45;&gt;r3_node_11 -->
<g id="edge6" class="edge">
<title>r3_node_8&#45;&gt;r3_node_11</title>
<path fill="none" stroke="black" d="M109.63,-295.11C146.99,-286.23 203.19,-271.58 249.93,-252 295.33,-232.99 343.96,-203.38 376.54,-183.59"/>
<polygon fill="black" stroke="black" points="378.09,-186.75 384.82,-178.58 374.46,-180.76 378.09,-186.75"/>
</g>
<!-- r3_node_2&#45;&gt;r3_node_8 -->
<g id="edge19" class="edge">
<title>r3_node_2&#45;&gt;r3_node_8</title>
<path fill="none" stroke="black" d="M176.81,-250.41C158.22,-261.02 131.84,-275.17 109.77,-286.41"/>
<polygon fill="black" stroke="black" points="108.36,-283.2 101,-290.82 111.51,-289.45 108.36,-283.2"/>
</g>
<!-- r3_node_2&#45;&gt;r3_node_10 -->
<g id="edge21" class="edge">
<title>r3_node_2&#45;&gt;r3_node_10</title>
<path fill="none" stroke="black" d="M238.13,-221.81C260.73,-213.48 288.45,-200.04 306.93,-180 341.96,-142.02 308.72,-103.16 349.93,-72 412.13,-24.98 622.24,-50.05 698.93,-36 703.2,-35.22 707.6,-34.3 712,-33.3"/>
<polygon fill="black" stroke="black" points="712.5,-36.78 721.39,-31.03 710.85,-29.97 712.5,-36.78"/>
</g>
<!-- r3_node_2&#45;&gt;r3_node_11 -->
<g id="edge20" class="edge">
<title>r3_node_2&#45;&gt;r3_node_11</title>
<path fill="none" stroke="black" d="M233.35,-220.32C268.02,-208.4 322.48,-190.55 362.6,-177.95"/>
<polygon fill="black" stroke="black" points="363.55,-181.31 372.06,-174.99 361.47,-174.63 363.55,-181.31"/>
</g>
<!-- r3_node_18 -->
<g id="node10" class="node">
<title>r3_node_18</title>
<ellipse fill="none" stroke="black" cx="239.93" cy="-90" rx="54.93" ry="18"/>
<text text-anchor="middle" x="239.93" y="-84.95" font-family="Times,serif" font-size="14.00">r3_node_18</text>
</g>
<!-- r3_node_2&#45;&gt;r3_node_18 -->
<g id="edge23" class="edge">
<title>r3_node_2&#45;&gt;r3_node_18</title>
<path fill="none" stroke="black" d="M193,-215.95C186.59,-197.55 179.39,-167.68 188.93,-144 193.41,-132.9 201.45,-122.82 209.84,-114.5"/>
<polygon fill="black" stroke="black" points="212.11,-117.17 217.11,-107.82 207.38,-112.01 212.11,-117.17"/>
</g>
<!-- r3_node_15 -->
<g id="node12" class="node">
<title>r3_node_15</title>
<ellipse fill="none" stroke="black" cx="295.93" cy="-18" rx="54.93" ry="18"/>
<text text-anchor="middle" x="295.93" y="-12.95" font-family="Times,serif" font-size="14.00">r3_node_15</text>
</g>
<!-- r3_node_2&#45;&gt;r3_node_15 -->
<g id="edge22" class="edge">
<title>r3_node_2&#45;&gt;r3_node_15</title>
<path fill="none" stroke="black" d="M190.38,-215.88C174.33,-184.59 146.47,-117.23 175.93,-72 189.67,-50.91 213.91,-38.16 237.02,-30.47"/>
<polygon fill="black" stroke="black" points="237.86,-33.87 246.42,-27.62 235.84,-27.17 237.86,-33.87"/>
</g>
<!-- r3_node_5 -->
<g id="node16" class="node">
<title>r3_node_5</title>
<ellipse fill="none" stroke="black" cx="247.93" cy="-162" rx="50.33" ry="18"/>
<text text-anchor="middle" x="247.93" y="-156.95" font-family="Times,serif" font-size="14.00">r3_node_5</text>
</g>
<!-- r3_node_2&#45;&gt;r3_node_5 -->
<g id="edge18" class="edge">
<title>r3_node_2&#45;&gt;r3_node_5</title>
<path fill="none" stroke="black" d="M211.55,-216.05C217.1,-207.97 223.85,-198.12 230.03,-189.11"/>
<polygon fill="black" stroke="black" points="232.8,-191.26 235.57,-181.04 227.02,-187.31 232.8,-191.26"/>
</g>
<!-- r3_node_4&#45;&gt;r3_node_1 -->
<g id="edge26" class="edge">
<title>r3_node_4&#45;&gt;r3_node_1</title>
<path fill="none" stroke="black" d="M160.1,-372.41C211.19,-366.25 293.4,-352.57 358.93,-324 486.76,-268.26 497.08,-216.95 615.93,-144 673.89,-108.43 689.18,-100.47 750.93,-72 780.28,-58.47 814.12,-45.19 840.58,-35.3"/>
<polygon fill="black" stroke="black" points="841.49,-38.7 849.65,-31.95 839.06,-32.14 841.49,-38.7"/>
</g>
<!-- r3_node_4&#45;&gt;r3_node_13 -->
<g id="edge24" class="edge">
<title>r3_node_4&#45;&gt;r3_node_13</title>
<path fill="none" stroke="black" d="M161.54,-374.35C221.44,-369.76 324.3,-357.32 405.93,-324 458.66,-302.48 465.7,-285.25 511.93,-252 528.03,-240.43 636.51,-153.45 653.93,-144 737.34,-98.75 765.4,-103.44 854.93,-72 890.46,-59.53 930.69,-45.69 961.12,-35.28"/>
<polygon fill="black" stroke="black" points="962.1,-38.65 970.43,-32.1 959.83,-32.02 962.1,-38.65"/>
</g>
<!-- r3_node_4&#45;&gt;r3_node_8 -->
<g id="edge28" class="edge">
<title>r3_node_4&#45;&gt;r3_node_8</title>
<path fill="none" stroke="black" d="M96.16,-360.76C90.42,-352.87 84.2,-343.16 79.03,-334.18"/>
<polygon fill="black" stroke="black" points="82.14,-332.56 74.28,-325.45 75.99,-335.91 82.14,-332.56"/>
</g>
<!-- r3_node_4&#45;&gt;r3_node_11 -->
<g id="edge29" class="edge">
<title>r3_node_4&#45;&gt;r3_node_11</title>
<path fill="none" stroke="black" d="M134.94,-361.68C172.69,-339.62 248.64,-296.61 307.93,-252 334.94,-231.68 363.11,-205.14 383.83,-186.35"/>
<polygon fill="black" stroke="black" points="386,-189.1 391.1,-179.82 381.32,-183.89 386,-189.1"/>
</g>
<!-- r3_node_7 -->
<g id="node11" class="node">
<title>r3_node_7</title>
<ellipse fill="none" stroke="black" cx="408.93" cy="-90" rx="50.33" ry="18"/>
<text text-anchor="middle" x="408.93" y="-84.95" font-family="Times,serif" font-size="14.00">r3_node_7</text>
</g>
<!-- r3_node_4&#45;&gt;r3_node_7 -->
<g id="edge27" class="edge">
<title>r3_node_4&#45;&gt;r3_node_7</title>
<path fill="none" stroke="black" d="M155,-368.31C235.05,-350.31 403.99,-300.13 468.93,-180 476.54,-165.93 476.01,-158.35 468.93,-144 462.79,-131.53 452.14,-121.18 441.45,-113.03"/>
<polygon fill="black" stroke="black" points="443.56,-110.24 433.38,-107.31 439.52,-115.95 443.56,-110.24"/>
</g>
<!-- r3_node_3 -->
<g id="node15" class="node">
<title>r3_node_3</title>
<ellipse fill="none" stroke="black" cx="1131.93" cy="-18" rx="50.33" ry="18"/>
<text text-anchor="middle" x="1131.93" y="-12.95" font-family="Times,serif" font-size="14.00">r3_node_3</text>
</g>
<!-- r3_node_4&#45;&gt;r3_node_3 -->
<g id="edge25" class="edge">
<title>r3_node_4&#45;&gt;r3_node_3</title>
<path fill="none" stroke="black" d="M160.96,-373.41C227.53,-367.61 349.7,-353.7 449.93,-324 708.47,-247.4 996.86,-94.07 1096.12,-39.15"/>
<polygon fill="black" stroke="black" points="1097.58,-42.35 1104.62,-34.43 1094.18,-36.23 1097.58,-42.35"/>
</g>
<!-- r3_node_11&#45;&gt;r3_node_8 -->
<g id="edge32" class="edge">
<title>r3_node_11&#45;&gt;r3_node_8</title>
<path fill="none" stroke="black" d="M396.05,-179.48C368.98,-199.06 316.59,-231.62 267.93,-252 221.45,-271.47 165.62,-286.07 124.84,-294.96"/>
<polygon fill="black" stroke="black" points="124.29,-291.5 115.24,-297.01 125.75,-298.35 124.29,-291.5"/>
</g>
<!-- r3_node_11&#45;&gt;r3_node_2 -->
<g id="edge30" class="edge">
<title>r3_node_11&#45;&gt;r3_node_2</title>
<path fill="none" stroke="black" d="M378.85,-176.25C343.51,-188.37 288.86,-206.27 249.19,-218.71"/>
<polygon fill="black" stroke="black" points="248.38,-215.29 239.88,-221.61 250.47,-221.98 248.38,-215.29"/>
</g>
<!-- r3_node_11&#45;&gt;r3_node_4 -->
<g id="edge31" class="edge">
<title>r3_node_11&#45;&gt;r3_node_4</title>
<path fill="none" stroke="black" d="M403.89,-180.15C387.65,-198.91 356.07,-229.33 325.93,-252 269.5,-294.46 197.98,-335.46 153.45,-358.35"/>
<polygon fill="black" stroke="black" points="151.97,-355.17 144.63,-362.81 155.13,-361.42 151.97,-355.17"/>
</g>
<!-- r3_node_11&#45;&gt;r3_node_7 -->
<g id="edge34" class="edge">
<title>r3_node_11&#45;&gt;r3_node_7</title>
<path fill="none" stroke="black" d="M406.78,-143.7C405.51,-136.41 404.65,-127.73 404.33,-119.54"/>
<polygon fill="black" stroke="black" points="407.83,-119.6 404.27,-109.62 400.83,-119.64 407.83,-119.6"/>
</g>
<!-- r3_node_6 -->
<g id="node14" class="node">
<title>r3_node_6</title>
<ellipse fill="none" stroke="black" cx="590.93" cy="-90" rx="50.33" ry="18"/>
<text text-anchor="middle" x="590.93" y="-84.95" font-family="Times,serif" font-size="14.00">r3_node_6</text>
</g>
<!-- r3_node_11&#45;&gt;r3_node_6 -->
<g id="edge33" class="edge">
<title>r3_node_11&#45;&gt;r3_node_6</title>
<path fill="none" stroke="black" d="M444.61,-146.67C472.16,-135.18 512.82,-119.07 544.35,-107.13"/>
<polygon fill="black" stroke="black" points="545.54,-110.43 553.67,-103.63 543.08,-103.87 545.54,-110.43"/>
</g>
<!-- r3_node_7&#45;&gt;r3_node_14 -->
<g id="edge11" class="edge">
<title>r3_node_7&#45;&gt;r3_node_14</title>
<path fill="none" stroke="black" d="M365.53,-80.42C301.82,-67.82 182.92,-44.31 112.15,-30.31"/>
<polygon fill="black" stroke="black" points="113.2,-26.95 102.71,-28.45 111.84,-33.82 113.2,-26.95"/>
</g>
<!-- r3_node_7&#45;&gt;r3_node_4 -->
<g id="edge8" class="edge">
<title>r3_node_7&#45;&gt;r3_node_4</title>
<path fill="none" stroke="black" d="M443,-103.47C459.78,-112.38 478.05,-125.98 486.93,-144 494.01,-158.35 494.54,-165.93 486.93,-180 422.66,-298.89 256.53,-349.26 168.46,-367.74"/>
<polygon fill="black" stroke="black" points="167.94,-364.27 158.83,-369.69 169.33,-371.13 167.94,-364.27"/>
</g>
<!-- r3_node_7&#45;&gt;r3_node_10 -->
<g id="edge9" class="edge">
<title>r3_node_7&#45;&gt;r3_node_10</title>
<path fill="none" stroke="black" d="M448.58,-78.66C458.16,-76.32 468.38,-73.95 477.93,-72 575.44,-52.08 601.62,-56.8 698.93,-36 702.94,-35.14 707.06,-34.2 711.2,-33.2"/>
<polygon fill="black" stroke="black" points="711.78,-36.67 720.64,-30.85 710.09,-29.87 711.78,-36.67"/>
</g>
<!-- r3_node_7&#45;&gt;r3_node_11 -->
<g id="edge12" class="edge">
<title>r3_node_7&#45;&gt;r3_node_11</title>
<path fill="none" stroke="black" d="M416.05,-108.1C417.33,-115.37 418.2,-124.04 418.53,-132.24"/>
<polygon fill="black" stroke="black" points="415.03,-132.21 418.6,-142.18 422.03,-132.16 415.03,-132.21"/>
</g>
<!-- r3_node_7&#45;&gt;r3_node_15 -->
<g id="edge7" class="edge">
<title>r3_node_7&#45;&gt;r3_node_15</title>
<path fill="none" stroke="black" d="M384.41,-73.81C368.53,-63.97 347.62,-51.02 330.12,-40.18"/>
<polygon fill="black" stroke="black" points="332.43,-37.49 322.08,-35.2 328.74,-43.44 332.43,-37.49"/>
</g>
<!-- r3_node_12 -->
<g id="node13" class="node">
<title>r3_node_12</title>
<ellipse fill="none" stroke="black" cx="634.93" cy="-18" rx="54.93" ry="18"/>
<text text-anchor="middle" x="634.93" y="-12.95" font-family="Times,serif" font-size="14.00">r3_node_12</text>
</g>
<!-- r3_node_7&#45;&gt;r3_node_12 -->
<g id="edge10" class="edge">
<title>r3_node_7&#45;&gt;r3_node_12</title>
<path fill="none" stroke="black" d="M446.25,-77.44C484.23,-65.68 543.32,-47.38 585.24,-34.39"/>
<polygon fill="black" stroke="black" points="586.08,-37.8 594.6,-31.49 584.01,-31.11 586.08,-37.8"/>
</g>
<!-- r3_node_6&#45;&gt;r3_node_1 -->
<g id="edge17" class="edge">
<title>r3_node_6&#45;&gt;r3_node_1</title>
<path fill="none" stroke="black" d="M632.41,-79.42C643.01,-76.98 654.39,-74.38 664.93,-72 736.88,-55.74 755.46,-54.22 826.93,-36 830.29,-35.15 833.74,-34.23 837.21,-33.29"/>
<polygon fill="black" stroke="black" points="838.1,-36.68 846.8,-30.64 836.23,-29.93 838.1,-36.68"/>
</g>
<!-- r3_node_6&#45;&gt;r3_node_13 -->
<g id="edge15" class="edge">
<title>r3_node_6&#45;&gt;r3_node_13</title>
<path fill="none" stroke="black" d="M638.47,-83.59C706.7,-75.43 836.16,-58.52 944.93,-36 949,-35.16 953.19,-34.22 957.4,-33.22"/>
<polygon fill="black" stroke="black" points="958.13,-36.64 967,-30.84 956.45,-29.85 958.13,-36.64"/>
</g>
<!-- r3_node_6&#45;&gt;r3_node_16 -->
<g id="edge16" class="edge">
<title>r3_node_6&#45;&gt;r3_node_16</title>
<path fill="none" stroke="black" d="M571.87,-73.12C561.07,-64.12 547.35,-52.68 535.31,-42.65"/>
<polygon fill="black" stroke="black" points="537.59,-39.99 527.67,-36.28 533.11,-45.37 537.59,-39.99"/>
</g>
<!-- r3_node_6&#45;&gt;r3_node_11 -->
<g id="edge14" class="edge">
<title>r3_node_6&#45;&gt;r3_node_11</title>
<path fill="none" stroke="black" d="M561.14,-104.97C533.8,-116.38 493.05,-132.54 461.29,-144.58"/>
<polygon fill="black" stroke="black" points="460.44,-141.16 452.31,-147.95 462.9,-147.71 460.44,-141.16"/>
</g>
<!-- r3_node_6&#45;&gt;r3_node_3 -->
<g id="edge13" class="edge">
<title>r3_node_6&#45;&gt;r3_node_3</title>
<path fill="none" stroke="black" d="M640.62,-86.35C728.51,-81.03 916.84,-66.83 1072.93,-36 1076.54,-35.29 1080.25,-34.46 1083.96,-33.56"/>
<polygon fill="black" stroke="black" points="1084.77,-36.96 1093.57,-31.06 1083.01,-30.19 1084.77,-36.96"/>
</g>
</g>
</svg>
