<?xml version="1.0" encoding="UTF-8" standalone="no"?>
<!DOCTYPE svg PUBLIC "-//W3C//DTD SVG 1.1//EN"
 "http://www.w3.org/Graphics/SVG/1.1/DTD/svg11.dtd">
<!-- Generated by graphviz version 12.2.1 (20241206.2353)
 -->
<!-- Pages: 1 -->
<svg width="430pt" height="332pt"
 viewBox="0.00 0.00 429.66 332.00" xmlns="http://www.w3.org/2000/svg" xmlns:xlink="http://www.w3.org/1999/xlink">
<g id="graph0" class="graph" transform="scale(1 1) rotate(0) translate(4 328)">
<polygon fill="white" stroke="none" points="-4,4 -4,-328 425.66,-328 425.66,4 -4,4"/>
<!-- r1_node_10 -->
<g id="node1" class="node">
<title>r1_node_10</title>
<ellipse fill="none" stroke="black" cx="136.33" cy="-306" rx="54.93" ry="18"/>
<text text-anchor="middle" x="136.33" y="-300.95" font-family="Times,serif" font-size="14.00">r1_node_10</text>
</g>
<!-- r1_node_1 -->
<g id="node2" class="node">
<title>r1_node_1</title>
<ellipse fill="none" stroke="black" cx="136.33" cy="-234" rx="50.33" ry="18"/>
<text text-anchor="middle" x="136.33" y="-228.95" font-family="Times,serif" font-size="14.00">r1_node_1</text>
</g>
<!-- r1_node_10&#45;&gt;r1_node_1 -->
<g id="edge1" class="edge">
<title>r1_node_10&#45;&gt;r1_node_1</title>
<path fill="none" stroke="black" d="M130.41,-287.7C129.66,-280.41 129.42,-271.73 129.68,-263.54"/>
<polygon fill="black" stroke="black" points="133.17,-263.82 130.33,-253.61 126.18,-263.36 133.17,-263.82"/>
</g>
<!-- r1_node_1&#45;&gt;r1_node_10 -->
<g id="edge18" class="edge">
<title>r1_node_1&#45;&gt;r1_node_10</title>
<path fill="none" stroke="black" d="M142.22,-252.1C142.98,-259.37 143.24,-268.04 142.98,-276.24"/>
<polygon fill="black" stroke="black" points="139.49,-275.98 142.34,-286.19 146.48,-276.43 139.49,-275.98"/>
</g>
<!-- r1_node_3 -->
<g id="node4" class="node">
<title>r1_node_3</title>
<ellipse fill="none" stroke="black" cx="77.33" cy="-162" rx="50.33" ry="18"/>
<text text-anchor="middle" x="77.33" y="-156.95" font-family="Times,serif" font-size="14.00">r1_node_3</text>
</g>
<!-- r1_node_1&#45;&gt;r1_node_3 -->
<g id="edge16" class="edge">
<title>r1_node_1&#45;&gt;r1_node_3</title>
<path fill="none" stroke="black" d="M117.18,-217.12C109.18,-208.77 100.12,-198.32 92.57,-188.84"/>
<polygon fill="black" stroke="black" points="95.41,-186.8 86.54,-181 89.86,-191.06 95.41,-186.8"/>
</g>
<!-- r1_node_7 -->
<g id="node5" class="node">
<title>r1_node_7</title>
<ellipse fill="none" stroke="black" cx="218.33" cy="-162" rx="50.33" ry="18"/>
<text text-anchor="middle" x="218.33" y="-156.95" font-family="Times,serif" font-size="14.00">r1_node_7</text>
</g>
<!-- r1_node_1&#45;&gt;r1_node_7 -->
<g id="edge17" class="edge">
<title>r1_node_1&#45;&gt;r1_node_7</title>
<path fill="none" stroke="black" d="M149.92,-216.41C159.8,-207.11 173.38,-195.38 185.89,-185.28"/>
<polygon fill="black" stroke="black" points="187.89,-188.16 193.56,-179.21 183.55,-182.67 187.89,-188.16"/>
</g>
<!-- r1_node_4 -->
<g id="node3" class="node">
<title>r1_node_4</title>
<ellipse fill="none" stroke="black" cx="50.33" cy="-90" rx="50.33" ry="18"/>
<text text-anchor="middle" x="50.33" y="-84.95" font-family="Times,serif" font-size="14.00">r1_node_4</text>
</g>
<!-- r1_node_4&#45;&gt;r1_node_3 -->
<g id="edge2" class="edge">
<title>r1_node_4&#45;&gt;r1_node_3</title>
<path fill="none" stroke="black" d="M62.58,-107.62C66.32,-115.19 70.12,-124.35 73.13,-132.93"/>
<polygon fill="black" stroke="black" points="69.73,-133.79 76.11,-142.25 76.4,-131.66 69.73,-133.79"/>
</g>
<!-- r1_node_3&#45;&gt;r1_node_1 -->
<g id="edge9" class="edge">
<title>r1_node_3&#45;&gt;r1_node_1</title>
<path fill="none" stroke="black" d="M96.42,-178.83C104.4,-187.15 113.43,-197.56 120.98,-207.02"/>
<polygon fill="black" stroke="black" points="118.13,-209.06 127,-214.86 123.68,-204.79 118.13,-209.06"/>
</g>
<!-- r1_node_3&#45;&gt;r1_node_4 -->
<g id="edge11" class="edge">
<title>r1_node_3&#45;&gt;r1_node_4</title>
<path fill="none" stroke="black" d="M65.09,-144.41C61.36,-136.88 57.58,-127.75 54.57,-119.19"/>
<polygon fill="black" stroke="black" points="57.97,-118.35 51.59,-109.89 51.3,-120.48 57.97,-118.35"/>
</g>
<!-- r1_node_2 -->
<g id="node8" class="node">
<title>r1_node_2</title>
<ellipse fill="none" stroke="black" cx="133.33" cy="-18" rx="50.33" ry="18"/>
<text text-anchor="middle" x="133.33" y="-12.95" font-family="Times,serif" font-size="14.00">r1_node_2</text>
</g>
<!-- r1_node_3&#45;&gt;r1_node_2 -->
<g id="edge10" class="edge">
<title>r1_node_3&#45;&gt;r1_node_2</title>
<path fill="none" stroke="black" d="M81.4,-143.99C86.93,-133.9 94.93,-120.65 100.33,-108 108.78,-88.2 114.97,-64.63 120.26,-46.72"/>
<polygon fill="black" stroke="black" points="123.56,-47.9 123.17,-37.31 116.87,-45.83 123.56,-47.9"/>
</g>
<!-- r1_node_7&#45;&gt;r1_node_1 -->
<g id="edge3" class="edge">
<title>r1_node_7&#45;&gt;r1_node_1</title>
<path fill="none" stroke="black" d="M204.69,-179.63C194.79,-188.95 181.18,-200.7 168.66,-210.81"/>
<polygon fill="black" stroke="black" points="166.66,-207.92 160.99,-216.87 171,-213.41 166.66,-207.92"/>
</g>
<!-- r1_node_9 -->
<g id="node6" class="node">
<title>r1_node_9</title>
<ellipse fill="none" stroke="black" cx="240.33" cy="-90" rx="50.33" ry="18"/>
<text text-anchor="middle" x="240.33" y="-84.95" font-family="Times,serif" font-size="14.00">r1_node_9</text>
</g>
<!-- r1_node_7&#45;&gt;r1_node_9 -->
<g id="edge4" class="edge">
<title>r1_node_7&#45;&gt;r1_node_9</title>
<path fill="none" stroke="black" d="M217.85,-143.7C219.47,-136.04 222.13,-126.85 225.14,-118.3"/>
<polygon fill="black" stroke="black" points="228.39,-119.62 228.72,-109.03 221.85,-117.11 228.39,-119.62"/>
</g>
<!-- r1_node_5 -->
<g id="node7" class="node">
<title>r1_node_5</title>
<ellipse fill="none" stroke="black" cx="367.33" cy="-90" rx="50.33" ry="18"/>
<text text-anchor="middle" x="367.33" y="-84.95" font-family="Times,serif" font-size="14.00">r1_node_5</text>
</g>
<!-- r1_node_7&#45;&gt;r1_node_5 -->
<g id="edge5" class="edge">
<title>r1_node_7&#45;&gt;r1_node_5</title>
<path fill="none" stroke="black" d="M244.29,-146.15C266.34,-135.15 298.25,-120.11 324.1,-108.52"/>
<polygon fill="black" stroke="black" points="325.3,-111.81 333.02,-104.56 322.46,-105.42 325.3,-111.81"/>
</g>
<!-- r1_node_9&#45;&gt;r1_node_7 -->
<g id="edge8" class="edge">
<title>r1_node_9&#45;&gt;r1_node_7</title>
<path fill="none" stroke="black" d="M240.81,-108.28C239.21,-115.86 236.59,-124.95 233.6,-133.43"/>
<polygon fill="black" stroke="black" points="230.39,-132.05 230.07,-142.64 236.92,-134.56 230.39,-132.05"/>
</g>
<!-- r1_node_5&#45;&gt;r1_node_7 -->
<g id="edge12" class="edge">
<title>r1_node_5&#45;&gt;r1_node_7</title>
<path fill="none" stroke="black" d="M341.31,-105.87C319.3,-116.86 287.49,-131.85 261.68,-143.43"/>
<polygon fill="black" stroke="black" points="260.49,-140.12 252.78,-147.38 263.33,-146.52 260.49,-140.12"/>
</g>
<!-- r1_node_8 -->
<g id="node9" class="node">
<title>r1_node_8</title>
<ellipse fill="none" stroke="black" cx="252.33" cy="-18" rx="50.33" ry="18"/>
<text text-anchor="middle" x="252.33" y="-12.95" font-family="Times,serif" font-size="14.00">r1_node_8</text>
</g>
<!-- r1_node_5&#45;&gt;r1_node_8 -->
<g id="edge13" class="edge">
<title>r1_node_5&#45;&gt;r1_node_8</title>
<path fill="none" stroke="black" d="M338.51,-74.83C321.32,-65.15 299.65,-52.12 282.28,-41.08"/>
<polygon fill="black" stroke="black" points="284.19,-38.15 273.89,-35.67 280.4,-44.03 284.19,-38.15"/>
</g>
<!-- r1_node_6 -->
<g id="node10" class="node">
<title>r1_node_6</title>
<ellipse fill="none" stroke="black" cx="371.33" cy="-18" rx="50.33" ry="18"/>
<text text-anchor="middle" x="371.33" y="-12.95" font-family="Times,serif" font-size="14.00">r1_node_6</text>
</g>
<!-- r1_node_5&#45;&gt;r1_node_6 -->
<g id="edge14" class="edge">
<title>r1_node_5&#45;&gt;r1_node_6</title>
<path fill="none" stroke="black" d="M362.4,-71.7C362.06,-64.32 362.32,-55.52 363.08,-47.25"/>
<polygon fill="black" stroke="black" points="366.52,-47.96 364.27,-37.61 359.57,-47.1 366.52,-47.96"/>
</g>
<!-- r1_node_2&#45;&gt;r1_node_3 -->
<g id="edge6" class="edge">
<title>r1_node_2&#45;&gt;r1_node_3</title>
<path fill="none" stroke="black" d="M136.86,-36.2C135.5,-54.49 128.57,-84.01 118.33,-108 114.28,-117.48 108.78,-127.3 103,-135.87"/>
<polygon fill="black" stroke="black" points="100.35,-133.55 97.31,-143.7 106.02,-137.66 100.35,-133.55"/>
</g>
<!-- r1_node_8&#45;&gt;r1_node_5 -->
<g id="edge7" class="edge">
<title>r1_node_8&#45;&gt;r1_node_5</title>
<path fill="none" stroke="black" d="M281.14,-33.16C298.31,-42.84 319.96,-55.86 337.33,-66.89"/>
<polygon fill="black" stroke="black" points="335.42,-69.82 345.72,-72.3 339.21,-63.94 335.42,-69.82"/>
</g>
<!-- r1_node_6&#45;&gt;r1_node_5 -->
<g id="edge15" class="edge">
<title>r1_node_6&#45;&gt;r1_node_5</title>
<path fill="none" stroke="black" d="M376.25,-36.1C376.6,-43.45 376.34,-52.24 375.6,-60.53"/>
<polygon fill="black" stroke="black" points="372.16,-59.84 374.42,-70.19 379.11,-60.69 372.16,-59.84"/>
</g>
</g>
</svg>
