<?xml version="1.0" encoding="UTF-8" standalone="no"?>
<!DOCTYPE svg PUBLIC "-//W3C//DTD SVG 1.1//EN"
 "http://www.w3.org/Graphics/SVG/1.1/DTD/svg11.dtd">
<!-- Generated by graphviz version 12.2.1 (20241206.2353)
 -->
<!-- Pages: 1 -->
<svg width="730pt" height="116pt"
 viewBox="0.00 0.00 729.87 116.00" xmlns="http://www.w3.org/2000/svg" xmlns:xlink="http://www.w3.org/1999/xlink">
<g id="graph0" class="graph" transform="scale(1 1) rotate(0) translate(4 112)">
<polygon fill="white" stroke="none" points="-4,4 -4,-112 725.87,-112 725.87,4 -4,4"/>
<!-- r1_node_10 -->
<g id="node1" class="node">
<title>r1_node_10</title>
<ellipse fill="none" stroke="black" cx="118.93" cy="-90" rx="54.93" ry="18"/>
<text text-anchor="middle" x="118.93" y="-84.95" font-family="Times,serif" font-size="14.00">r1_node_10</text>
</g>
<!-- r1_node_14 -->
<g id="node2" class="node">
<title>r1_node_14</title>
<ellipse fill="none" stroke="black" cx="54.93" cy="-18" rx="54.93" ry="18"/>
<text text-anchor="middle" x="54.93" y="-12.95" font-family="Times,serif" font-size="14.00">r1_node_14</text>
</g>
<!-- r1_node_10&#45;&gt;r1_node_14 -->
<g id="edge1" class="edge">
<title>r1_node_10&#45;&gt;r1_node_14</title>
<path fill="none" stroke="black" d="M103.77,-72.41C95.96,-63.87 86.27,-53.28 77.6,-43.79"/>
<polygon fill="black" stroke="black" points="80.34,-41.61 71.01,-36.59 75.18,-46.33 80.34,-41.61"/>
</g>
<!-- r1_node_16 -->
<g id="node3" class="node">
<title>r1_node_16</title>
<ellipse fill="none" stroke="black" cx="182.93" cy="-18" rx="54.93" ry="18"/>
<text text-anchor="middle" x="182.93" y="-12.95" font-family="Times,serif" font-size="14.00">r1_node_16</text>
</g>
<!-- r1_node_10&#45;&gt;r1_node_16 -->
<g id="edge2" class="edge">
<title>r1_node_10&#45;&gt;r1_node_16</title>
<path fill="none" stroke="black" d="M134.1,-72.41C141.91,-63.87 151.59,-53.28 160.27,-43.79"/>
<polygon fill="black" stroke="black" points="162.69,-46.33 166.85,-36.59 157.52,-41.61 162.69,-46.33"/>
</g>
<!-- r1_node_8 -->
<g id="node4" class="node">
<title>r1_node_8</title>
<ellipse fill="none" stroke="black" cx="305.93" cy="-18" rx="50.33" ry="18"/>
<text text-anchor="middle" x="305.93" y="-12.95" font-family="Times,serif" font-size="14.00">r1_node_8</text>
</g>
<!-- r1_node_10&#45;&gt;r1_node_8 -->
<g id="edge3" class="edge">
<title>r1_node_10&#45;&gt;r1_node_8</title>
<path fill="none" stroke="black" d="M154.11,-75.83C184.52,-64.45 228.65,-47.93 261.51,-35.63"/>
<polygon fill="black" stroke="black" points="262.62,-38.95 270.76,-32.17 260.17,-32.39 262.62,-38.95"/>
</g>
<!-- r1_node_9 -->
<g id="node5" class="node">
<title>r1_node_9</title>
<ellipse fill="none" stroke="black" cx="424.93" cy="-18" rx="50.33" ry="18"/>
<text text-anchor="middle" x="424.93" y="-12.95" font-family="Times,serif" font-size="14.00">r1_node_9</text>
</g>
<!-- r1_node_10&#45;&gt;r1_node_9 -->
<g id="edge4" class="edge">
<title>r1_node_10&#45;&gt;r1_node_9</title>
<path fill="none" stroke="black" d="M165.38,-79.91C215,-69.99 295.83,-53.21 364.93,-36 368.51,-35.11 372.19,-34.16 375.89,-33.17"/>
<polygon fill="black" stroke="black" points="376.76,-36.56 385.48,-30.56 374.91,-29.81 376.76,-36.56"/>
</g>
<!-- r1_node_2 -->
<g id="node6" class="node">
<title>r1_node_2</title>
<ellipse fill="none" stroke="black" cx="543.93" cy="-18" rx="50.33" ry="18"/>
<text text-anchor="middle" x="543.93" y="-12.95" font-family="Times,serif" font-size="14.00">r1_node_2</text>
</g>
<!-- r1_node_10&#45;&gt;r1_node_2 -->
<g id="edge5" class="edge">
<title>r1_node_10&#45;&gt;r1_node_2</title>
<path fill="none" stroke="black" d="M170.69,-83.66C241.78,-75.84 373.4,-59.58 483.93,-36 487.76,-35.18 491.69,-34.26 495.64,-33.28"/>
<polygon fill="black" stroke="black" points="496.43,-36.69 505.21,-30.76 494.65,-29.92 496.43,-36.69"/>
</g>
<!-- r1_node_13 -->
<g id="node7" class="node">
<title>r1_node_13</title>
<ellipse fill="none" stroke="black" cx="666.93" cy="-18" rx="54.93" ry="18"/>
<text text-anchor="middle" x="666.93" y="-12.95" font-family="Times,serif" font-size="14.00">r1_node_13</text>
</g>
<!-- r1_node_10&#45;&gt;r1_node_13 -->
<g id="edge6" class="edge">
<title>r1_node_10&#45;&gt;r1_node_13</title>
<path fill="none" stroke="black" d="M172.68,-85.77C262.41,-79.78 448.16,-64.86 602.93,-36 607.2,-35.2 611.6,-34.27 616,-33.27"/>
<polygon fill="black" stroke="black" points="616.49,-36.75 625.39,-30.99 614.84,-29.94 616.49,-36.75"/>
</g>
</g>
</svg>
