<?xml version="1.0" encoding="UTF-8" standalone="no"?>
<!DOCTYPE svg PUBLIC "-//W3C//DTD SVG 1.1//EN"
 "http://www.w3.org/Graphics/SVG/1.1/DTD/svg11.dtd">
<!-- Generated by graphviz version 12.2.1 (20241206.2353)
 -->
<!-- Pages: 1 -->
<svg width="1274pt" height="404pt"
 viewBox="0.00 0.00 1274.39 404.00" xmlns="http://www.w3.org/2000/svg" xmlns:xlink="http://www.w3.org/1999/xlink">
<g id="graph0" class="graph" transform="scale(1 1) rotate(0) translate(4 400)">
<polygon fill="white" stroke="none" points="-4,4 -4,-400 1270.39,-400 1270.39,4 -4,4"/>
<!-- r3_node_21 -->
<g id="node1" class="node">
<title>r3_node_21</title>
<ellipse fill="none" stroke="black" cx="59.33" cy="-18" rx="54.93" ry="18"/>
<text text-anchor="middle" x="59.33" y="-12.95" font-family="Times,serif" font-size="14.00">r3_node_21</text>
</g>
<!-- r3_node_3 -->
<g id="node2" class="node">
<title>r3_node_3</title>
<ellipse fill="none" stroke="black" cx="256.33" cy="-378" rx="50.33" ry="18"/>
<text text-anchor="middle" x="256.33" y="-372.95" font-family="Times,serif" font-size="14.00">r3_node_3</text>
</g>
<!-- r3_node_26 -->
<g id="node3" class="node">
<title>r3_node_26</title>
<ellipse fill="none" stroke="black" cx="407.33" cy="-90" rx="54.93" ry="18"/>
<text text-anchor="middle" x="407.33" y="-84.95" font-family="Times,serif" font-size="14.00">r3_node_26</text>
</g>
<!-- r3_node_3&#45;&gt;r3_node_26 -->
<g id="edge1" class="edge">
<title>r3_node_3&#45;&gt;r3_node_26</title>
<path fill="none" stroke="black" d="M305.98,-374.46C377.41,-367.65 504.43,-342.74 539.33,-252 545.07,-237.07 547.36,-229.84 539.33,-216 523.14,-188.11 500.67,-201.15 476.33,-180 455.43,-161.85 436.55,-136.56 423.84,-117.57"/>
<polygon fill="black" stroke="black" points="426.83,-115.76 418.44,-109.3 420.97,-119.58 426.83,-115.76"/>
</g>
<!-- r3_node_27 -->
<g id="node4" class="node">
<title>r3_node_27</title>
<ellipse fill="none" stroke="black" cx="235.33" cy="-18" rx="54.93" ry="18"/>
<text text-anchor="middle" x="235.33" y="-12.95" font-family="Times,serif" font-size="14.00">r3_node_27</text>
</g>
<!-- r3_node_3&#45;&gt;r3_node_27 -->
<g id="edge2" class="edge">
<title>r3_node_3&#45;&gt;r3_node_27</title>
<path fill="none" stroke="black" d="M297.28,-367.13C325.64,-358.88 363.19,-345.03 391.33,-324 434.63,-291.63 468.93,-265.57 447.33,-216 437.49,-193.42 318.34,-89.85 263.11,-42.61"/>
<polygon fill="black" stroke="black" points="265.54,-40.08 255.66,-36.25 261,-45.41 265.54,-40.08"/>
</g>
<!-- r3_node_23 -->
<g id="node5" class="node">
<title>r3_node_23</title>
<ellipse fill="none" stroke="black" cx="619.33" cy="-306" rx="54.93" ry="18"/>
<text text-anchor="middle" x="619.33" y="-300.95" font-family="Times,serif" font-size="14.00">r3_node_23</text>
</g>
<!-- r3_node_3&#45;&gt;r3_node_23 -->
<g id="edge3" class="edge">
<title>r3_node_3&#45;&gt;r3_node_23</title>
<path fill="none" stroke="black" d="M298.61,-368.07C352.2,-357.75 447,-340.1 528.33,-324 538.7,-321.95 549.8,-319.69 560.58,-317.51"/>
<polygon fill="black" stroke="black" points="561.06,-320.98 570.17,-315.57 559.68,-314.12 561.06,-320.98"/>
</g>
<!-- r3_node_23&#45;&gt;r3_node_3 -->
<g id="edge26" class="edge">
<title>r3_node_23&#45;&gt;r3_node_3</title>
<path fill="none" stroke="black" d="M576.99,-317.75C566.97,-319.86 556.31,-322.02 546.33,-324 465.52,-340 371.4,-357.52 312.74,-367.88"/>
<polygon fill="black" stroke="black" points="312.23,-364.41 302.98,-369.59 313.44,-371.31 312.23,-364.41"/>
</g>
<!-- r3_node_29 -->
<g id="node9" class="node">
<title>r3_node_29</title>
<ellipse fill="none" stroke="black" cx="998.33" cy="-18" rx="54.93" ry="18"/>
<text text-anchor="middle" x="998.33" y="-12.95" font-family="Times,serif" font-size="14.00">r3_node_29</text>
</g>
<!-- r3_node_23&#45;&gt;r3_node_29 -->
<g id="edge23" class="edge">
<title>r3_node_23&#45;&gt;r3_node_29</title>
<path fill="none" stroke="black" d="M654.09,-291.77C679.7,-281.69 715.16,-267.02 745.33,-252 802.37,-223.59 814.82,-213.02 869.33,-180 894.95,-164.47 899.25,-156.83 926.33,-144 972.05,-122.33 1004.74,-149.05 1034.33,-108 1048.25,-88.68 1035.42,-63.21 1021.36,-44.47"/>
<polygon fill="black" stroke="black" points="1024.19,-42.4 1015.2,-36.78 1018.73,-46.78 1024.19,-42.4"/>
</g>
<!-- r3_node_2 -->
<g id="node18" class="node">
<title>r3_node_2</title>
<ellipse fill="none" stroke="black" cx="641.33" cy="-234" rx="50.33" ry="18"/>
<text text-anchor="middle" x="641.33" y="-228.95" font-family="Times,serif" font-size="14.00">r3_node_2</text>
</g>
<!-- r3_node_23&#45;&gt;r3_node_2 -->
<g id="edge24" class="edge">
<title>r3_node_23&#45;&gt;r3_node_2</title>
<path fill="none" stroke="black" d="M618.85,-287.7C620.47,-280.04 623.13,-270.85 626.14,-262.3"/>
<polygon fill="black" stroke="black" points="629.39,-263.62 629.72,-253.03 622.85,-261.11 629.39,-263.62"/>
</g>
<!-- r3_node_13 -->
<g id="node23" class="node">
<title>r3_node_13</title>
<ellipse fill="none" stroke="black" cx="795.33" cy="-18" rx="54.93" ry="18"/>
<text text-anchor="middle" x="795.33" y="-12.95" font-family="Times,serif" font-size="14.00">r3_node_13</text>
</g>
<!-- r3_node_23&#45;&gt;r3_node_13 -->
<g id="edge25" class="edge">
<title>r3_node_23&#45;&gt;r3_node_13</title>
<path fill="none" stroke="black" d="M643.54,-289.44C699.87,-253.45 838.71,-165.82 889.33,-144 943.2,-120.78 980.95,-154.8 1016.33,-108 1025.98,-95.24 1026.23,-84.56 1016.33,-72 996.97,-47.46 916.93,-32.99 858.72,-25.53"/>
<polygon fill="black" stroke="black" points="859.25,-22.07 848.9,-24.32 858.4,-29.02 859.25,-22.07"/>
</g>
<!-- r3_node_12 -->
<g id="node6" class="node">
<title>r3_node_12</title>
<ellipse fill="none" stroke="black" cx="851.33" cy="-306" rx="54.93" ry="18"/>
<text text-anchor="middle" x="851.33" y="-300.95" font-family="Times,serif" font-size="14.00">r3_node_12</text>
</g>
<!-- r3_node_17 -->
<g id="node7" class="node">
<title>r3_node_17</title>
<ellipse fill="none" stroke="black" cx="1194.33" cy="-90" rx="54.93" ry="18"/>
<text text-anchor="middle" x="1194.33" y="-84.95" font-family="Times,serif" font-size="14.00">r3_node_17</text>
</g>
<!-- r3_node_12&#45;&gt;r3_node_17 -->
<g id="edge4" class="edge">
<title>r3_node_12&#45;&gt;r3_node_17</title>
<path fill="none" stroke="black" d="M893.87,-294.28C940.81,-282.03 1010.76,-262.34 1018.33,-252 1046.69,-213.24 985.56,-182.46 1014.33,-144 1018.29,-138.7 1089.81,-118.76 1141.49,-104.91"/>
<polygon fill="black" stroke="black" points="1142.29,-108.32 1151.05,-102.36 1140.48,-101.55 1142.29,-108.32"/>
</g>
<!-- r3_node_15 -->
<g id="node8" class="node">
<title>r3_node_15</title>
<ellipse fill="none" stroke="black" cx="954.33" cy="-234" rx="54.93" ry="18"/>
<text text-anchor="middle" x="954.33" y="-228.95" font-family="Times,serif" font-size="14.00">r3_node_15</text>
</g>
<!-- r3_node_12&#45;&gt;r3_node_15 -->
<g id="edge5" class="edge">
<title>r3_node_12&#45;&gt;r3_node_15</title>
<path fill="none" stroke="black" d="M874.44,-289.29C888.49,-279.74 906.64,-267.41 922.08,-256.91"/>
<polygon fill="black" stroke="black" points="923.73,-260.02 930.04,-251.51 919.8,-254.23 923.73,-260.02"/>
</g>
<!-- r3_node_12&#45;&gt;r3_node_29 -->
<g id="edge6" class="edge">
<title>r3_node_12&#45;&gt;r3_node_29</title>
<path fill="none" stroke="black" d="M855.66,-287.63C861.15,-268.4 872.15,-237.31 890.33,-216 928.73,-170.98 950,-171.64 1002.33,-144 1038.6,-124.84 1064.67,-142.2 1087.33,-108 1096.16,-94.66 1095.23,-85.91 1087.33,-72 1078.29,-56.1 1062.38,-44.46 1046.49,-36.22"/>
<polygon fill="black" stroke="black" points="1048.02,-33.07 1037.49,-31.93 1045.01,-39.39 1048.02,-33.07"/>
</g>
<!-- r3_node_10 -->
<g id="node10" class="node">
<title>r3_node_10</title>
<ellipse fill="none" stroke="black" cx="463.33" cy="-378" rx="54.93" ry="18"/>
<text text-anchor="middle" x="463.33" y="-372.95" font-family="Times,serif" font-size="14.00">r3_node_10</text>
</g>
<!-- r3_node_12&#45;&gt;r3_node_10 -->
<g id="edge7" class="edge">
<title>r3_node_12&#45;&gt;r3_node_10</title>
<path fill="none" stroke="black" d="M811.6,-318.76C803.6,-320.6 795.24,-322.41 787.33,-324 696.66,-342.17 590.47,-359.15 524.96,-368.79"/>
<polygon fill="black" stroke="black" points="524.49,-365.32 515.1,-370.23 525.5,-372.25 524.49,-365.32"/>
</g>
<!-- r3_node_10&#45;&gt;r3_node_12 -->
<g id="edge18" class="edge">
<title>r3_node_10&#45;&gt;r3_node_12</title>
<path fill="none" stroke="black" d="M511.37,-368.88C571.82,-359.26 678.38,-342.22 769.33,-324 777.4,-322.38 785.94,-320.53 794.36,-318.65"/>
<polygon fill="black" stroke="black" points="794.85,-322.13 803.84,-316.52 793.32,-315.3 794.85,-322.13"/>
</g>
<!-- r3_node_28 -->
<g id="node17" class="node">
<title>r3_node_28</title>
<ellipse fill="none" stroke="black" cx="952.33" cy="-90" rx="54.93" ry="18"/>
<text text-anchor="middle" x="952.33" y="-84.95" font-family="Times,serif" font-size="14.00">r3_node_28</text>
</g>
<!-- r3_node_10&#45;&gt;r3_node_28 -->
<g id="edge17" class="edge">
<title>r3_node_10&#45;&gt;r3_node_28</title>
<path fill="none" stroke="black" d="M512.83,-369.85C575.43,-360.24 679.19,-342.25 713.33,-324 811.82,-271.36 897.47,-165.93 933.79,-117.02"/>
<polygon fill="black" stroke="black" points="936.6,-119.11 939.69,-108.97 930.96,-114.97 936.6,-119.11"/>
</g>
<!-- r3_node_22 -->
<g id="node19" class="node">
<title>r3_node_22</title>
<ellipse fill="none" stroke="black" cx="824.33" cy="-90" rx="54.93" ry="18"/>
<text text-anchor="middle" x="824.33" y="-84.95" font-family="Times,serif" font-size="14.00">r3_node_22</text>
</g>
<!-- r3_node_10&#45;&gt;r3_node_22 -->
<g id="edge16" class="edge">
<title>r3_node_10&#45;&gt;r3_node_22</title>
<path fill="none" stroke="black" d="M513.01,-369.97C569.5,-361.15 657.26,-344.63 683.33,-324 753.62,-268.36 722.81,-217.36 774.33,-144 781.42,-133.91 790.36,-123.81 798.71,-115.18"/>
<polygon fill="black" stroke="black" points="801.13,-117.72 805.71,-108.17 796.17,-112.78 801.13,-117.72"/>
</g>
<!-- r3_node_6 -->
<g id="node11" class="node">
<title>r3_node_6</title>
<ellipse fill="none" stroke="black" cx="188.33" cy="-306" rx="50.33" ry="18"/>
<text text-anchor="middle" x="188.33" y="-300.95" font-family="Times,serif" font-size="14.00">r3_node_6</text>
</g>
<!-- r3_node_6&#45;&gt;r3_node_26 -->
<g id="edge11" class="edge">
<title>r3_node_6&#45;&gt;r3_node_26</title>
<path fill="none" stroke="black" d="M177.17,-288.31C157.47,-256.54 121.69,-186.72 156.33,-144 179.36,-115.59 276.16,-101.82 342.59,-95.6"/>
<polygon fill="black" stroke="black" points="342.64,-99.11 352.29,-94.73 342.01,-92.13 342.64,-99.11"/>
</g>
<!-- r3_node_1 -->
<g id="node12" class="node">
<title>r3_node_1</title>
<ellipse fill="none" stroke="black" cx="50.33" cy="-378" rx="50.33" ry="18"/>
<text text-anchor="middle" x="50.33" y="-372.95" font-family="Times,serif" font-size="14.00">r3_node_1</text>
</g>
<!-- r3_node_6&#45;&gt;r3_node_1 -->
<g id="edge8" class="edge">
<title>r3_node_6&#45;&gt;r3_node_1</title>
<path fill="none" stroke="black" d="M163.99,-322.23C144.07,-333 115.62,-347.48 92.11,-358.85"/>
<polygon fill="black" stroke="black" points="90.92,-355.54 83.41,-363.02 93.94,-361.85 90.92,-355.54"/>
</g>
<!-- r3_node_18 -->
<g id="node13" class="node">
<title>r3_node_18</title>
<ellipse fill="none" stroke="black" cx="220.33" cy="-162" rx="54.93" ry="18"/>
<text text-anchor="middle" x="220.33" y="-156.95" font-family="Times,serif" font-size="14.00">r3_node_18</text>
</g>
<!-- r3_node_6&#45;&gt;r3_node_18 -->
<g id="edge9" class="edge">
<title>r3_node_6&#45;&gt;r3_node_18</title>
<path fill="none" stroke="black" d="M180.6,-287.75C173.52,-269.44 165.41,-239.88 174.33,-216 178.31,-205.33 185.53,-195.38 193.08,-187.05"/>
<polygon fill="black" stroke="black" points="195.4,-189.68 199.89,-180.08 190.39,-184.79 195.4,-189.68"/>
</g>
<!-- r3_node_20 -->
<g id="node14" class="node">
<title>r3_node_20</title>
<ellipse fill="none" stroke="black" cx="238.33" cy="-234" rx="54.93" ry="18"/>
<text text-anchor="middle" x="238.33" y="-228.95" font-family="Times,serif" font-size="14.00">r3_node_20</text>
</g>
<!-- r3_node_6&#45;&gt;r3_node_20 -->
<g id="edge10" class="edge">
<title>r3_node_6&#45;&gt;r3_node_20</title>
<path fill="none" stroke="black" d="M200.43,-288.05C206.2,-279.97 213.24,-270.12 219.68,-261.11"/>
<polygon fill="black" stroke="black" points="222.49,-263.19 225.46,-253.02 216.8,-259.12 222.49,-263.19"/>
</g>
<!-- r3_node_1&#45;&gt;r3_node_21 -->
<g id="edge42" class="edge">
<title>r3_node_1&#45;&gt;r3_node_21</title>
<path fill="none" stroke="black" d="M50.76,-359.73C52.2,-302.43 56.83,-118.18 58.62,-47.22"/>
<polygon fill="black" stroke="black" points="62.11,-47.69 58.86,-37.61 55.11,-47.52 62.11,-47.69"/>
</g>
<!-- r3_node_1&#45;&gt;r3_node_27 -->
<g id="edge43" class="edge">
<title>r3_node_1&#45;&gt;r3_node_27</title>
<path fill="none" stroke="black" d="M54.89,-359.86C65.83,-320.22 95.86,-219.83 138.33,-144 159.28,-106.6 190.73,-68.34 212.1,-44.18"/>
<polygon fill="black" stroke="black" points="214.68,-46.54 218.74,-36.76 209.46,-41.87 214.68,-46.54"/>
</g>
<!-- r3_node_1&#45;&gt;r3_node_6 -->
<g id="edge41" class="edge">
<title>r3_node_1&#45;&gt;r3_node_6</title>
<path fill="none" stroke="black" d="M74.59,-361.81C94.55,-351.02 123.09,-336.49 146.65,-325.1"/>
<polygon fill="black" stroke="black" points="147.86,-328.4 155.37,-320.93 144.84,-322.09 147.86,-328.4"/>
</g>
<!-- r3_node_9 -->
<g id="node21" class="node">
<title>r3_node_9</title>
<ellipse fill="none" stroke="black" cx="332.33" cy="-306" rx="50.33" ry="18"/>
<text text-anchor="middle" x="332.33" y="-300.95" font-family="Times,serif" font-size="14.00">r3_node_9</text>
</g>
<!-- r3_node_1&#45;&gt;r3_node_9 -->
<g id="edge44" class="edge">
<title>r3_node_1&#45;&gt;r3_node_9</title>
<path fill="none" stroke="black" d="M89.03,-366.14C138.49,-353.31 224.07,-332.06 279.48,-318.82"/>
<polygon fill="black" stroke="black" points="280.09,-322.28 289.01,-316.56 278.47,-315.47 280.09,-322.28"/>
</g>
<!-- r3_node_7 -->
<g id="node15" class="node">
<title>r3_node_7</title>
<ellipse fill="none" stroke="black" cx="663.33" cy="-162" rx="50.33" ry="18"/>
<text text-anchor="middle" x="663.33" y="-156.95" font-family="Times,serif" font-size="14.00">r3_node_7</text>
</g>
<!-- r3_node_4 -->
<g id="node16" class="node">
<title>r3_node_4</title>
<ellipse fill="none" stroke="black" cx="522.33" cy="-18" rx="50.33" ry="18"/>
<text text-anchor="middle" x="522.33" y="-12.95" font-family="Times,serif" font-size="14.00">r3_node_4</text>
</g>
<!-- r3_node_7&#45;&gt;r3_node_4 -->
<g id="edge12" class="edge">
<title>r3_node_7&#45;&gt;r3_node_4</title>
<path fill="none" stroke="black" d="M688.36,-145.92C701.09,-136.72 715.32,-123.72 722.33,-108 728.84,-93.39 732.09,-84.68 722.33,-72 705.08,-49.59 633.4,-34.7 580.76,-26.55"/>
<polygon fill="black" stroke="black" points="581.42,-23.11 571.01,-25.09 580.38,-30.03 581.42,-23.11"/>
</g>
<!-- r3_node_7&#45;&gt;r3_node_28 -->
<g id="edge13" class="edge">
<title>r3_node_7&#45;&gt;r3_node_28</title>
<path fill="none" stroke="black" d="M704.88,-151.58C750.1,-141.25 824.49,-123.99 888.33,-108 892.12,-107.05 896.04,-106.05 899.98,-105.03"/>
<polygon fill="black" stroke="black" points="900.8,-108.44 909.59,-102.53 899.03,-101.66 900.8,-108.44"/>
</g>
<!-- r3_node_7&#45;&gt;r3_node_2 -->
<g id="edge14" class="edge">
<title>r3_node_7&#45;&gt;r3_node_2</title>
<path fill="none" stroke="black" d="M663.81,-180.28C662.21,-187.86 659.59,-196.95 656.6,-205.43"/>
<polygon fill="black" stroke="black" points="653.39,-204.05 653.07,-214.64 659.92,-206.56 653.39,-204.05"/>
</g>
<!-- r3_node_7&#45;&gt;r3_node_22 -->
<g id="edge15" class="edge">
<title>r3_node_7&#45;&gt;r3_node_22</title>
<path fill="none" stroke="black" d="M694.37,-147.5C719.22,-136.7 754.32,-121.44 781.79,-109.5"/>
<polygon fill="black" stroke="black" points="783.12,-112.73 790.89,-105.54 780.32,-106.32 783.12,-112.73"/>
</g>
<!-- r3_node_2&#45;&gt;r3_node_23 -->
<g id="edge39" class="edge">
<title>r3_node_2&#45;&gt;r3_node_23</title>
<path fill="none" stroke="black" d="M641.81,-252.28C640.21,-259.86 637.59,-268.95 634.6,-277.43"/>
<polygon fill="black" stroke="black" points="631.39,-276.05 631.07,-286.64 637.92,-278.56 631.39,-276.05"/>
</g>
<!-- r3_node_2&#45;&gt;r3_node_7 -->
<g id="edge38" class="edge">
<title>r3_node_2&#45;&gt;r3_node_7</title>
<path fill="none" stroke="black" d="M640.85,-215.7C642.47,-208.04 645.13,-198.85 648.14,-190.3"/>
<polygon fill="black" stroke="black" points="651.39,-191.62 651.72,-181.03 644.85,-189.11 651.39,-191.62"/>
</g>
<!-- r3_node_25 -->
<g id="node25" class="node">
<title>r3_node_25</title>
<ellipse fill="none" stroke="black" cx="540.33" cy="-162" rx="54.93" ry="18"/>
<text text-anchor="middle" x="540.33" y="-156.95" font-family="Times,serif" font-size="14.00">r3_node_25</text>
</g>
<!-- r3_node_2&#45;&gt;r3_node_25 -->
<g id="edge40" class="edge">
<title>r3_node_2&#45;&gt;r3_node_25</title>
<path fill="none" stroke="black" d="M614.54,-218.33C599.88,-208.99 581.88,-196.69 567.22,-186.06"/>
<polygon fill="black" stroke="black" points="569.48,-183.38 559.35,-180.27 565.32,-189.02 569.48,-183.38"/>
</g>
<!-- r3_node_30 -->
<g id="node20" class="node">
<title>r3_node_30</title>
<ellipse fill="none" stroke="black" cx="1196.33" cy="-234" rx="54.93" ry="18"/>
<text text-anchor="middle" x="1196.33" y="-228.95" font-family="Times,serif" font-size="14.00">r3_node_30</text>
</g>
<!-- r3_node_9&#45;&gt;r3_node_21 -->
<g id="edge19" class="edge">
<title>r3_node_9&#45;&gt;r3_node_21</title>
<path fill="none" stroke="black" d="M371.82,-294.45C393.15,-286.52 417.65,-273.27 430.33,-252 438.52,-238.26 438.78,-229.59 430.33,-216 420.78,-200.64 301.1,-150.76 284.33,-144 235.44,-124.29 217.84,-132.8 171.33,-108 138.39,-90.43 105.53,-62.82 84,-43.01"/>
<polygon fill="black" stroke="black" points="86.57,-40.62 76.88,-36.34 81.79,-45.73 86.57,-40.62"/>
</g>
<!-- r3_node_9&#45;&gt;r3_node_29 -->
<g id="edge21" class="edge">
<title>r3_node_9&#45;&gt;r3_node_29</title>
<path fill="none" stroke="black" d="M376.41,-296.86C401.82,-289.67 431.74,-276.35 447.33,-252 497.14,-174.19 280.31,-139.57 343.33,-72 382.53,-29.97 802.12,-41.49 859.33,-36 884.82,-33.55 912.86,-30.24 937.04,-27.19"/>
<polygon fill="black" stroke="black" points="937.23,-30.7 946.71,-25.96 936.35,-23.75 937.23,-30.7"/>
</g>
<!-- r3_node_9&#45;&gt;r3_node_1 -->
<g id="edge22" class="edge">
<title>r3_node_9&#45;&gt;r3_node_1</title>
<path fill="none" stroke="black" d="M293.75,-317.83C244.42,-330.62 159.02,-351.84 103.55,-365.09"/>
<polygon fill="black" stroke="black" points="102.93,-361.64 94.01,-367.35 104.55,-368.45 102.93,-361.64"/>
</g>
<!-- r3_node_11 -->
<g id="node22" class="node">
<title>r3_node_11</title>
<ellipse fill="none" stroke="black" cx="366.33" cy="-234" rx="54.93" ry="18"/>
<text text-anchor="middle" x="366.33" y="-228.95" font-family="Times,serif" font-size="14.00">r3_node_11</text>
</g>
<!-- r3_node_9&#45;&gt;r3_node_11 -->
<g id="edge20" class="edge">
<title>r3_node_9&#45;&gt;r3_node_11</title>
<path fill="none" stroke="black" d="M334.82,-287.7C337.84,-279.78 342.27,-270.23 346.92,-261.44"/>
<polygon fill="black" stroke="black" points="349.84,-263.38 351.67,-252.94 343.73,-259.96 349.84,-263.38"/>
</g>
<!-- r3_node_11&#45;&gt;r3_node_18 -->
<g id="edge46" class="edge">
<title>r3_node_11&#45;&gt;r3_node_18</title>
<path fill="none" stroke="black" d="M336.43,-218.67C314.56,-208.18 284.64,-193.83 260.65,-182.33"/>
<polygon fill="black" stroke="black" points="262.33,-179.26 251.8,-178.09 259.3,-185.57 262.33,-179.26"/>
</g>
<!-- r3_node_11&#45;&gt;r3_node_9 -->
<g id="edge45" class="edge">
<title>r3_node_11&#45;&gt;r3_node_9</title>
<path fill="none" stroke="black" d="M363.78,-252.45C360.75,-260.36 356.34,-269.88 351.7,-278.63"/>
<polygon fill="black" stroke="black" points="348.79,-276.65 346.96,-287.09 354.9,-280.07 348.79,-276.65"/>
</g>
<!-- r3_node_19 -->
<g id="node24" class="node">
<title>r3_node_19</title>
<ellipse fill="none" stroke="black" cx="387.33" cy="-18" rx="54.93" ry="18"/>
<text text-anchor="middle" x="387.33" y="-12.95" font-family="Times,serif" font-size="14.00">r3_node_19</text>
</g>
<!-- r3_node_11&#45;&gt;r3_node_19 -->
<g id="edge47" class="edge">
<title>r3_node_11&#45;&gt;r3_node_19</title>
<path fill="none" stroke="black" d="M350.03,-216.39C322.74,-186.47 273.41,-122.01 301.33,-72 310.02,-56.42 325.39,-44.86 340.75,-36.58"/>
<polygon fill="black" stroke="black" points="342.01,-39.85 349.41,-32.27 338.9,-33.58 342.01,-39.85"/>
</g>
<!-- r3_node_25&#45;&gt;r3_node_26 -->
<g id="edge27" class="edge">
<title>r3_node_25&#45;&gt;r3_node_26</title>
<path fill="none" stroke="black" d="M512.12,-146.15C492.73,-135.95 466.74,-122.27 445.49,-111.09"/>
<polygon fill="black" stroke="black" points="447.31,-108.09 436.83,-106.53 444.05,-114.28 447.31,-108.09"/>
</g>
<!-- r3_node_25&#45;&gt;r3_node_2 -->
<g id="edge30" class="edge">
<title>r3_node_25&#45;&gt;r3_node_2</title>
<path fill="none" stroke="black" d="M567.55,-177.95C582.21,-187.31 600.12,-199.55 614.68,-210.11"/>
<polygon fill="black" stroke="black" points="612.36,-212.75 622.49,-215.87 616.51,-207.11 612.36,-212.75"/>
</g>
<!-- r3_node_16 -->
<g id="node26" class="node">
<title>r3_node_16</title>
<ellipse fill="none" stroke="black" cx="658.33" cy="-90" rx="54.93" ry="18"/>
<text text-anchor="middle" x="658.33" y="-84.95" font-family="Times,serif" font-size="14.00">r3_node_16</text>
</g>
<!-- r3_node_25&#45;&gt;r3_node_16 -->
<g id="edge28" class="edge">
<title>r3_node_25&#45;&gt;r3_node_16</title>
<path fill="none" stroke="black" d="M565.93,-145.81C582.63,-135.9 604.65,-122.84 623.01,-111.95"/>
<polygon fill="black" stroke="black" points="624.66,-115.04 631.47,-106.93 621.09,-109.02 624.66,-115.04"/>
</g>
<!-- r3_node_5 -->
<g id="node27" class="node">
<title>r3_node_5</title>
<ellipse fill="none" stroke="black" cx="535.33" cy="-90" rx="50.33" ry="18"/>
<text text-anchor="middle" x="535.33" y="-84.95" font-family="Times,serif" font-size="14.00">r3_node_5</text>
</g>
<!-- r3_node_25&#45;&gt;r3_node_5 -->
<g id="edge29" class="edge">
<title>r3_node_25&#45;&gt;r3_node_5</title>
<path fill="none" stroke="black" d="M533.18,-143.7C531.9,-136.41 531.04,-127.73 530.72,-119.54"/>
<polygon fill="black" stroke="black" points="534.22,-119.6 530.66,-109.62 527.22,-119.64 534.22,-119.6"/>
</g>
<!-- r3_node_5&#45;&gt;r3_node_4 -->
<g id="edge35" class="edge">
<title>r3_node_5&#45;&gt;r3_node_4</title>
<path fill="none" stroke="black" d="M532.11,-71.7C530.74,-64.32 529.11,-55.52 527.57,-47.25"/>
<polygon fill="black" stroke="black" points="531.05,-46.79 525.78,-37.59 524.17,-48.06 531.05,-46.79"/>
</g>
<!-- r3_node_5&#45;&gt;r3_node_13 -->
<g id="edge36" class="edge">
<title>r3_node_5&#45;&gt;r3_node_13</title>
<path fill="none" stroke="black" d="M573.38,-77.9C580.34,-75.91 587.55,-73.87 594.33,-72 644.25,-58.23 701.37,-43.24 741.92,-32.73"/>
<polygon fill="black" stroke="black" points="742.63,-36.16 751.44,-30.27 740.88,-29.38 742.63,-36.16"/>
</g>
<!-- r3_node_5&#45;&gt;r3_node_25 -->
<g id="edge37" class="edge">
<title>r3_node_5&#45;&gt;r3_node_25</title>
<path fill="none" stroke="black" d="M542.44,-108.1C543.72,-115.37 544.6,-124.04 544.93,-132.24"/>
<polygon fill="black" stroke="black" points="541.43,-132.21 545,-142.18 548.43,-132.16 541.43,-132.21"/>
</g>
<!-- r3_node_14 -->
<g id="node28" class="node">
<title>r3_node_14</title>
<ellipse fill="none" stroke="black" cx="1112.33" cy="-162" rx="54.93" ry="18"/>
<text text-anchor="middle" x="1112.33" y="-156.95" font-family="Times,serif" font-size="14.00">r3_node_14</text>
</g>
<!-- r3_node_8 -->
<g id="node29" class="node">
<title>r3_node_8</title>
<ellipse fill="none" stroke="black" cx="669.33" cy="-378" rx="50.33" ry="18"/>
<text text-anchor="middle" x="669.33" y="-372.95" font-family="Times,serif" font-size="14.00">r3_node_8</text>
</g>
<!-- r3_node_8&#45;&gt;r3_node_30 -->
<g id="edge33" class="edge">
<title>r3_node_8&#45;&gt;r3_node_30</title>
<path fill="none" stroke="black" d="M719.63,-375.51C821.67,-371.79 1049.12,-359.62 1117.33,-324 1144.4,-309.86 1166.54,-282.38 1180.43,-261.68"/>
<polygon fill="black" stroke="black" points="1183.28,-263.72 1185.75,-253.42 1177.39,-259.93 1183.28,-263.72"/>
</g>
<!-- r3_node_8&#45;&gt;r3_node_19 -->
<g id="edge31" class="edge">
<title>r3_node_8&#45;&gt;r3_node_19</title>
<path fill="none" stroke="black" d="M718.43,-373.73C769.89,-368.67 851.92,-355.92 915.33,-324 936.99,-313.1 935.93,-301.12 956.33,-288 989.12,-266.9 1013.38,-283.52 1036.33,-252 1064.75,-212.96 1015.2,-179.14 1048.33,-144 1113.28,-75.09 1197.29,-180.4 1258.33,-108 1268.64,-95.77 1269.38,-83.57 1258.33,-72 1227.78,-40.04 507.15,-41.85 463.33,-36 456.03,-35.03 448.4,-33.7 440.9,-32.21"/>
<polygon fill="black" stroke="black" points="441.69,-28.8 431.18,-30.16 440.25,-35.65 441.69,-28.8"/>
</g>
<!-- r3_node_8&#45;&gt;r3_node_14 -->
<g id="edge34" class="edge">
<title>r3_node_8&#45;&gt;r3_node_14</title>
<path fill="none" stroke="black" d="M720.07,-377.74C819.14,-378.07 1033.13,-372.93 1084.33,-324 1119.98,-289.92 1120.12,-227.88 1116.54,-191.57"/>
<polygon fill="black" stroke="black" points="1120.04,-191.35 1115.41,-181.82 1113.09,-192.16 1120.04,-191.35"/>
</g>
<!-- r3_node_24 -->
<g id="node30" class="node">
<title>r3_node_24</title>
<ellipse fill="none" stroke="black" cx="1020.33" cy="-306" rx="54.93" ry="18"/>
<text text-anchor="middle" x="1020.33" y="-300.95" font-family="Times,serif" font-size="14.00">r3_node_24</text>
</g>
<!-- r3_node_8&#45;&gt;r3_node_24 -->
<g id="edge32" class="edge">
<title>r3_node_8&#45;&gt;r3_node_24</title>
<path fill="none" stroke="black" d="M713.76,-369.35C769.27,-359.63 867.1,-341.94 950.33,-324 955.63,-322.86 961.14,-321.61 966.64,-320.34"/>
<polygon fill="black" stroke="black" points="967.44,-323.75 976.37,-318.04 965.83,-316.93 967.44,-323.75"/>
</g>
</g>
</svg>
