<?xml version="1.0" encoding="UTF-8" standalone="no"?>
<!DOCTYPE svg PUBLIC "-//W3C//DTD SVG 1.1//EN"
 "http://www.w3.org/Graphics/SVG/1.1/DTD/svg11.dtd">
<!-- Generated by graphviz version 12.2.1 (20241206.2353)
 -->
<!-- Pages: 1 -->
<svg width="466pt" height="116pt"
 viewBox="0.00 0.00 465.66 116.00" xmlns="http://www.w3.org/2000/svg" xmlns:xlink="http://www.w3.org/1999/xlink">
<g id="graph0" class="graph" transform="scale(1 1) rotate(0) translate(4 112)">
<polygon fill="white" stroke="none" points="-4,4 -4,-112 461.66,-112 461.66,4 -4,4"/>
<!-- r1_node_2 -->
<g id="node1" class="node">
<title>r1_node_2</title>
<ellipse fill="none" stroke="black" cx="109.33" cy="-90" rx="50.33" ry="18"/>
<text text-anchor="middle" x="109.33" y="-84.95" font-family="Times,serif" font-size="14.00">r1_node_2</text>
</g>
<!-- r1_node_5 -->
<g id="node2" class="node">
<title>r1_node_5</title>
<ellipse fill="none" stroke="black" cx="50.33" cy="-18" rx="50.33" ry="18"/>
<text text-anchor="middle" x="50.33" y="-12.95" font-family="Times,serif" font-size="14.00">r1_node_5</text>
</g>
<!-- r1_node_2&#45;&gt;r1_node_5 -->
<g id="edge1" class="edge">
<title>r1_node_2&#45;&gt;r1_node_5</title>
<path fill="none" stroke="black" d="M90.18,-73.12C82.18,-64.77 73.12,-54.32 65.57,-44.84"/>
<polygon fill="black" stroke="black" points="68.41,-42.8 59.54,-37 62.86,-47.06 68.41,-42.8"/>
</g>
<!-- r1_node_1 -->
<g id="node3" class="node">
<title>r1_node_1</title>
<ellipse fill="none" stroke="black" cx="169.33" cy="-18" rx="50.33" ry="18"/>
<text text-anchor="middle" x="169.33" y="-12.95" font-family="Times,serif" font-size="14.00">r1_node_1</text>
</g>
<!-- r1_node_2&#45;&gt;r1_node_1 -->
<g id="edge2" class="edge">
<title>r1_node_2&#45;&gt;r1_node_1</title>
<path fill="none" stroke="black" d="M117.97,-72.05C124.49,-63.38 133.48,-52.67 142.18,-43.15"/>
<polygon fill="black" stroke="black" points="144.66,-45.61 148.97,-35.93 139.57,-40.82 144.66,-45.61"/>
</g>
<!-- r1_node_3 -->
<g id="node4" class="node">
<title>r1_node_3</title>
<ellipse fill="none" stroke="black" cx="288.33" cy="-18" rx="50.33" ry="18"/>
<text text-anchor="middle" x="288.33" y="-12.95" font-family="Times,serif" font-size="14.00">r1_node_3</text>
</g>
<!-- r1_node_2&#45;&gt;r1_node_3 -->
<g id="edge3" class="edge">
<title>r1_node_2&#45;&gt;r1_node_3</title>
<path fill="none" stroke="black" d="M139.19,-75.17C167.28,-63.57 209.55,-47.01 241.99,-34.87"/>
<polygon fill="black" stroke="black" points="243,-38.23 251.16,-31.46 240.57,-31.66 243,-38.23"/>
</g>
<!-- r1_node_4 -->
<g id="node5" class="node">
<title>r1_node_4</title>
<ellipse fill="none" stroke="black" cx="407.33" cy="-18" rx="50.33" ry="18"/>
<text text-anchor="middle" x="407.33" y="-12.95" font-family="Times,serif" font-size="14.00">r1_node_4</text>
</g>
<!-- r1_node_2&#45;&gt;r1_node_4 -->
<g id="edge4" class="edge">
<title>r1_node_2&#45;&gt;r1_node_4</title>
<path fill="none" stroke="black" d="M150.13,-79.23C196.11,-69.15 272.66,-52.6 338.33,-36 343.76,-34.63 349.46,-33.11 355.16,-31.57"/>
<polygon fill="black" stroke="black" points="355.86,-35.01 364.59,-29 354.02,-28.25 355.86,-35.01"/>
</g>
<!-- r1_node_5&#45;&gt;r1_node_2 -->
<g id="edge7" class="edge">
<title>r1_node_5&#45;&gt;r1_node_2</title>
<path fill="none" stroke="black" d="M69.42,-34.83C77.4,-43.15 86.43,-53.56 93.98,-63.02"/>
<polygon fill="black" stroke="black" points="91.13,-65.06 100,-70.86 96.68,-60.79 91.13,-65.06"/>
</g>
<!-- r1_node_1&#45;&gt;r1_node_2 -->
<g id="edge8" class="edge">
<title>r1_node_1&#45;&gt;r1_node_2</title>
<path fill="none" stroke="black" d="M160.79,-35.8C154.29,-44.47 145.28,-55.21 136.56,-64.77"/>
<polygon fill="black" stroke="black" points="134.04,-62.33 129.74,-72.01 139.14,-67.13 134.04,-62.33"/>
</g>
<!-- r1_node_3&#45;&gt;r1_node_2 -->
<g id="edge5" class="edge">
<title>r1_node_3&#45;&gt;r1_node_2</title>
<path fill="none" stroke="black" d="M258.55,-32.8C230.54,-44.36 188.37,-60.89 155.93,-73.03"/>
<polygon fill="black" stroke="black" points="154.91,-69.68 146.76,-76.44 157.35,-76.24 154.91,-69.68"/>
</g>
<!-- r1_node_4&#45;&gt;r1_node_2 -->
<g id="edge6" class="edge">
<title>r1_node_4&#45;&gt;r1_node_2</title>
<path fill="none" stroke="black" d="M373.07,-31.55C367.5,-33.1 361.79,-34.62 356.33,-36 291.08,-52.49 215.09,-68.94 164.7,-79.04"/>
<polygon fill="black" stroke="black" points="164.34,-75.54 155.21,-80.92 165.7,-82.41 164.34,-75.54"/>
</g>
</g>
</svg>
