<?xml version="1.0" encoding="UTF-8" standalone="no"?>
<!DOCTYPE svg PUBLIC "-//W3C//DTD SVG 1.1//EN"
 "http://www.w3.org/Graphics/SVG/1.1/DTD/svg11.dtd">
<!-- Generated by graphviz version 12.2.1 (20241206.2353)
 -->
<!-- Pages: 1 -->
<svg width="1169pt" height="620pt"
 viewBox="0.00 0.00 1168.87 620.00" xmlns="http://www.w3.org/2000/svg" xmlns:xlink="http://www.w3.org/1999/xlink">
<g id="graph0" class="graph" transform="scale(1 1) rotate(0) translate(4 616)">
<polygon fill="white" stroke="none" points="-4,4 -4,-616 1164.87,-616 1164.87,4 -4,4"/>
<!-- r2_node_15 -->
<g id="node1" class="node">
<title>r2_node_15</title>
<ellipse fill="none" stroke="black" cx="133.93" cy="-594" rx="54.93" ry="18"/>
<text text-anchor="middle" x="133.93" y="-588.95" font-family="Times,serif" font-size="14.00">r2_node_15</text>
</g>
<!-- r2_node_21 -->
<g id="node2" class="node">
<title>r2_node_21</title>
<ellipse fill="none" stroke="black" cx="54.93" cy="-450" rx="54.93" ry="18"/>
<text text-anchor="middle" x="54.93" y="-444.95" font-family="Times,serif" font-size="14.00">r2_node_21</text>
</g>
<!-- r2_node_15&#45;&gt;r2_node_21 -->
<g id="edge1" class="edge">
<title>r2_node_15&#45;&gt;r2_node_21</title>
<path fill="none" stroke="black" d="M120.01,-576.15C104.02,-552.05 78.9,-507.45 64.77,-478.51"/>
<polygon fill="black" stroke="black" points="68.02,-477.19 60.59,-469.64 61.69,-480.17 68.02,-477.19"/>
</g>
<!-- r2_node_3 -->
<g id="node3" class="node">
<title>r2_node_3</title>
<ellipse fill="none" stroke="black" cx="196.93" cy="-522" rx="50.33" ry="18"/>
<text text-anchor="middle" x="196.93" y="-516.95" font-family="Times,serif" font-size="14.00">r2_node_3</text>
</g>
<!-- r2_node_15&#45;&gt;r2_node_3 -->
<g id="edge2" class="edge">
<title>r2_node_15&#45;&gt;r2_node_3</title>
<path fill="none" stroke="black" d="M143.31,-576.05C150.26,-567.29 159.83,-556.45 169.03,-546.86"/>
<polygon fill="black" stroke="black" points="171.35,-549.49 175.87,-539.91 166.36,-544.58 171.35,-549.49"/>
</g>
<!-- r2_node_26 -->
<g id="node4" class="node">
<title>r2_node_26</title>
<ellipse fill="none" stroke="black" cx="1105.93" cy="-18" rx="54.93" ry="18"/>
<text text-anchor="middle" x="1105.93" y="-12.95" font-family="Times,serif" font-size="14.00">r2_node_26</text>
</g>
<!-- r2_node_15&#45;&gt;r2_node_26 -->
<g id="edge3" class="edge">
<title>r2_node_15&#45;&gt;r2_node_26</title>
<path fill="none" stroke="black" d="M170.85,-580.27C195.82,-570.89 229.02,-556.85 255.93,-540 276.77,-526.96 277.31,-517.39 297.93,-504 485.68,-382.09 550.34,-383.2 752.93,-288 924.62,-207.32 1037.93,-267.94 1139.93,-108 1152.51,-88.29 1140.83,-63.21 1127.85,-44.7"/>
<polygon fill="black" stroke="black" points="1130.78,-42.78 1121.97,-36.89 1125.19,-46.99 1130.78,-42.78"/>
</g>
<!-- r2_node_27 -->
<g id="node5" class="node">
<title>r2_node_27</title>
<ellipse fill="none" stroke="black" cx="1075.93" cy="-90" rx="54.93" ry="18"/>
<text text-anchor="middle" x="1075.93" y="-84.95" font-family="Times,serif" font-size="14.00">r2_node_27</text>
</g>
<!-- r2_node_15&#45;&gt;r2_node_27 -->
<g id="edge4" class="edge">
<title>r2_node_15&#45;&gt;r2_node_27</title>
<path fill="none" stroke="black" d="M175.44,-581.78C209.04,-572.18 257.29,-557.2 297.93,-540 612.13,-407.03 695.84,-374.8 975.93,-180 1003.86,-160.58 1032.53,-134.28 1051.98,-115.31"/>
<polygon fill="black" stroke="black" points="1054.24,-118 1058.89,-108.48 1049.32,-113.02 1054.24,-118"/>
</g>
<!-- r2_node_21&#45;&gt;r2_node_15 -->
<g id="edge53" class="edge">
<title>r2_node_21&#45;&gt;r2_node_15</title>
<path fill="none" stroke="black" d="M68.74,-467.67C84.7,-491.68 109.84,-536.3 124.01,-565.31"/>
<polygon fill="black" stroke="black" points="120.78,-566.67 128.22,-574.22 127.11,-563.68 120.78,-566.67"/>
</g>
<!-- r2_node_13 -->
<g id="node15" class="node">
<title>r2_node_13</title>
<ellipse fill="none" stroke="black" cx="274.93" cy="-18" rx="54.93" ry="18"/>
<text text-anchor="middle" x="274.93" y="-12.95" font-family="Times,serif" font-size="14.00">r2_node_13</text>
</g>
<!-- r2_node_21&#45;&gt;r2_node_13 -->
<g id="edge51" class="edge">
<title>r2_node_21&#45;&gt;r2_node_13</title>
<path fill="none" stroke="black" d="M46.81,-431.93C43.24,-414.01 41.72,-385.02 42.93,-360 49.55,-223.61 53.14,-168.31 149.93,-72 168.72,-53.31 195.29,-40.51 219.18,-32.18"/>
<polygon fill="black" stroke="black" points="220.08,-35.57 228.49,-29.13 217.9,-28.92 220.08,-35.57"/>
</g>
<!-- r2_node_17 -->
<g id="node19" class="node">
<title>r2_node_17</title>
<ellipse fill="none" stroke="black" cx="170.93" cy="-378" rx="54.93" ry="18"/>
<text text-anchor="middle" x="170.93" y="-372.95" font-family="Times,serif" font-size="14.00">r2_node_17</text>
</g>
<!-- r2_node_21&#45;&gt;r2_node_17 -->
<g id="edge52" class="edge">
<title>r2_node_21&#45;&gt;r2_node_17</title>
<path fill="none" stroke="black" d="M75.77,-432.94C91.22,-422.93 112.58,-409.96 131.21,-399.24"/>
<polygon fill="black" stroke="black" points="132.93,-402.29 139.9,-394.3 129.48,-396.2 132.93,-402.29"/>
</g>
<!-- r2_node_3&#45;&gt;r2_node_15 -->
<g id="edge23" class="edge">
<title>r2_node_3&#45;&gt;r2_node_15</title>
<path fill="none" stroke="black" d="M187.68,-539.8C180.73,-548.56 171.14,-559.43 161.92,-569.06"/>
<polygon fill="black" stroke="black" points="159.57,-566.46 155.05,-576.04 164.56,-571.37 159.57,-566.46"/>
</g>
<!-- r2_node_8 -->
<g id="node21" class="node">
<title>r2_node_8</title>
<ellipse fill="none" stroke="black" cx="257.93" cy="-450" rx="50.33" ry="18"/>
<text text-anchor="middle" x="257.93" y="-444.95" font-family="Times,serif" font-size="14.00">r2_node_8</text>
</g>
<!-- r2_node_3&#45;&gt;r2_node_8 -->
<g id="edge21" class="edge">
<title>r2_node_3&#45;&gt;r2_node_8</title>
<path fill="none" stroke="black" d="M205.82,-504.05C212.46,-495.38 221.6,-484.67 230.44,-475.15"/>
<polygon fill="black" stroke="black" points="232.96,-477.57 237.34,-467.92 227.9,-472.74 232.96,-477.57"/>
</g>
<!-- r2_node_14 -->
<g id="node22" class="node">
<title>r2_node_14</title>
<ellipse fill="none" stroke="black" cx="87.93" cy="-18" rx="54.93" ry="18"/>
<text text-anchor="middle" x="87.93" y="-12.95" font-family="Times,serif" font-size="14.00">r2_node_14</text>
</g>
<!-- r2_node_3&#45;&gt;r2_node_14 -->
<g id="edge22" class="edge">
<title>r2_node_3&#45;&gt;r2_node_14</title>
<path fill="none" stroke="black" d="M180.26,-504.64C158.79,-482.36 122.42,-440.16 106.93,-396 63.55,-272.25 76.38,-111.62 84.05,-47.37"/>
<polygon fill="black" stroke="black" points="87.49,-48.05 85.27,-37.69 80.55,-47.18 87.49,-48.05"/>
</g>
<!-- r2_node_19 -->
<g id="node6" class="node">
<title>r2_node_19</title>
<ellipse fill="none" stroke="black" cx="643.93" cy="-162" rx="54.93" ry="18"/>
<text text-anchor="middle" x="643.93" y="-156.95" font-family="Times,serif" font-size="14.00">r2_node_19</text>
</g>
<!-- r2_node_20 -->
<g id="node7" class="node">
<title>r2_node_20</title>
<ellipse fill="none" stroke="black" cx="232.93" cy="-234" rx="54.93" ry="18"/>
<text text-anchor="middle" x="232.93" y="-228.95" font-family="Times,serif" font-size="14.00">r2_node_20</text>
</g>
<!-- r2_node_19&#45;&gt;r2_node_20 -->
<g id="edge5" class="edge">
<title>r2_node_19&#45;&gt;r2_node_20</title>
<path fill="none" stroke="black" d="M596.19,-171.26C534.2,-181.25 423.02,-198.85 327.93,-216 316.36,-218.09 303.93,-220.46 291.98,-222.77"/>
<polygon fill="black" stroke="black" points="291.34,-219.32 282.19,-224.65 292.67,-226.2 291.34,-219.32"/>
</g>
<!-- r2_node_4 -->
<g id="node8" class="node">
<title>r2_node_4</title>
<ellipse fill="none" stroke="black" cx="952.93" cy="-90" rx="50.33" ry="18"/>
<text text-anchor="middle" x="952.93" y="-84.95" font-family="Times,serif" font-size="14.00">r2_node_4</text>
</g>
<!-- r2_node_19&#45;&gt;r2_node_4 -->
<g id="edge6" class="edge">
<title>r2_node_19&#45;&gt;r2_node_4</title>
<path fill="none" stroke="black" d="M688.32,-151.12C736.69,-141.15 815.94,-124.85 883.93,-108 889.38,-106.65 895.07,-105.15 900.77,-103.62"/>
<polygon fill="black" stroke="black" points="901.48,-107.05 910.21,-101.06 899.64,-100.3 901.48,-107.05"/>
</g>
<!-- r2_node_5 -->
<g id="node9" class="node">
<title>r2_node_5</title>
<ellipse fill="none" stroke="black" cx="833.93" cy="-90" rx="50.33" ry="18"/>
<text text-anchor="middle" x="833.93" y="-84.95" font-family="Times,serif" font-size="14.00">r2_node_5</text>
</g>
<!-- r2_node_19&#45;&gt;r2_node_5 -->
<g id="edge7" class="edge">
<title>r2_node_19&#45;&gt;r2_node_5</title>
<path fill="none" stroke="black" d="M675.97,-147.17C706.29,-135.41 751.99,-118.55 786.5,-106.37"/>
<polygon fill="black" stroke="black" points="787.57,-109.71 795.85,-103.1 785.26,-103.1 787.57,-109.71"/>
</g>
<!-- r2_node_7 -->
<g id="node10" class="node">
<title>r2_node_7</title>
<ellipse fill="none" stroke="black" cx="712.93" cy="-90" rx="50.33" ry="18"/>
<text text-anchor="middle" x="712.93" y="-84.95" font-family="Times,serif" font-size="14.00">r2_node_7</text>
</g>
<!-- r2_node_19&#45;&gt;r2_node_7 -->
<g id="edge8" class="edge">
<title>r2_node_19&#45;&gt;r2_node_7</title>
<path fill="none" stroke="black" d="M654.76,-144.05C662.6,-135.14 673.33,-124.07 683.5,-114.36"/>
<polygon fill="black" stroke="black" points="685.8,-117 690.73,-107.62 681.03,-111.88 685.8,-117"/>
</g>
<!-- r2_node_20&#45;&gt;r2_node_19 -->
<g id="edge29" class="edge">
<title>r2_node_20&#45;&gt;r2_node_19</title>
<path fill="none" stroke="black" d="M275.94,-222.47C286.99,-220.26 298.85,-218 309.93,-216 404.6,-198.93 515.23,-181.4 582.5,-171.39"/>
<polygon fill="black" stroke="black" points="582.84,-174.88 592.23,-169.95 581.82,-167.95 582.84,-174.88"/>
</g>
<!-- r2_node_11 -->
<g id="node11" class="node">
<title>r2_node_11</title>
<ellipse fill="none" stroke="black" cx="454.93" cy="-162" rx="54.93" ry="18"/>
<text text-anchor="middle" x="454.93" y="-156.95" font-family="Times,serif" font-size="14.00">r2_node_11</text>
</g>
<!-- r2_node_20&#45;&gt;r2_node_11 -->
<g id="edge28" class="edge">
<title>r2_node_20&#45;&gt;r2_node_11</title>
<path fill="none" stroke="black" d="M268.78,-220C305.18,-207.97 361.71,-190.12 402.99,-177.61"/>
<polygon fill="black" stroke="black" points="403.91,-180.99 412.48,-174.75 401.89,-174.29 403.91,-180.99"/>
</g>
<!-- r2_node_28 -->
<g id="node16" class="node">
<title>r2_node_28</title>
<ellipse fill="none" stroke="black" cx="212.93" cy="-306" rx="54.93" ry="18"/>
<text text-anchor="middle" x="212.93" y="-300.95" font-family="Times,serif" font-size="14.00">r2_node_28</text>
</g>
<!-- r2_node_20&#45;&gt;r2_node_28 -->
<g id="edge27" class="edge">
<title>r2_node_20&#45;&gt;r2_node_28</title>
<path fill="none" stroke="black" d="M233.91,-252.28C232.53,-259.86 230.16,-268.95 227.42,-277.43"/>
<polygon fill="black" stroke="black" points="224.21,-276.03 224.16,-286.63 230.8,-278.37 224.21,-276.03"/>
</g>
<!-- r2_node_18 -->
<g id="node25" class="node">
<title>r2_node_18</title>
<ellipse fill="none" stroke="black" cx="314.93" cy="-162" rx="54.93" ry="18"/>
<text text-anchor="middle" x="314.93" y="-156.95" font-family="Times,serif" font-size="14.00">r2_node_18</text>
</g>
<!-- r2_node_20&#45;&gt;r2_node_18 -->
<g id="edge30" class="edge">
<title>r2_node_20&#45;&gt;r2_node_18</title>
<path fill="none" stroke="black" d="M246.53,-216.41C256.34,-207.17 269.8,-195.54 282.24,-185.49"/>
<polygon fill="black" stroke="black" points="284.2,-188.4 289.86,-179.45 279.85,-182.92 284.2,-188.4"/>
</g>
<!-- r2_node_4&#45;&gt;r2_node_19 -->
<g id="edge39" class="edge">
<title>r2_node_4&#45;&gt;r2_node_19</title>
<path fill="none" stroke="black" d="M918.69,-103.6C913.12,-105.14 907.4,-106.65 901.93,-108 834.39,-124.74 755.74,-140.93 703.1,-150.93"/>
<polygon fill="black" stroke="black" points="702.62,-147.45 693.44,-152.74 703.91,-154.33 702.62,-147.45"/>
</g>
<!-- r2_node_29 -->
<g id="node14" class="node">
<title>r2_node_29</title>
<ellipse fill="none" stroke="black" cx="431.93" cy="-18" rx="54.93" ry="18"/>
<text text-anchor="middle" x="431.93" y="-12.95" font-family="Times,serif" font-size="14.00">r2_node_29</text>
</g>
<!-- r2_node_4&#45;&gt;r2_node_29 -->
<g id="edge40" class="edge">
<title>r2_node_4&#45;&gt;r2_node_29</title>
<path fill="none" stroke="black" d="M916.06,-77.41C908.47,-75.35 900.49,-73.41 892.93,-72 725.31,-40.63 679.47,-61.98 510.93,-36 503.11,-34.79 494.9,-33.29 486.85,-31.69"/>
<polygon fill="black" stroke="black" points="487.62,-28.27 477.12,-29.67 486.2,-35.13 487.62,-28.27"/>
</g>
<!-- r2_node_5&#45;&gt;r2_node_26 -->
<g id="edge50" class="edge">
<title>r2_node_5&#45;&gt;r2_node_26</title>
<path fill="none" stroke="black" d="M872.29,-77.94C879.47,-75.92 886.92,-73.87 893.93,-72 947.44,-57.74 1008.85,-42.51 1051.75,-32.05"/>
<polygon fill="black" stroke="black" points="1052.43,-35.49 1061.32,-29.73 1050.78,-28.69 1052.43,-35.49"/>
</g>
<!-- r2_node_5&#45;&gt;r2_node_19 -->
<g id="edge49" class="edge">
<title>r2_node_5&#45;&gt;r2_node_19</title>
<path fill="none" stroke="black" d="M802.78,-104.49C772.99,-116.06 727.77,-132.75 693.14,-145"/>
<polygon fill="black" stroke="black" points="692,-141.69 683.72,-148.31 694.32,-148.29 692,-141.69"/>
</g>
<!-- r2_node_7&#45;&gt;r2_node_19 -->
<g id="edge26" class="edge">
<title>r2_node_7&#45;&gt;r2_node_19</title>
<path fill="none" stroke="black" d="M702.24,-107.8C694.46,-116.65 683.81,-127.65 673.67,-137.35"/>
<polygon fill="black" stroke="black" points="671.38,-134.7 666.46,-144.08 676.16,-139.82 671.38,-134.7"/>
</g>
<!-- r2_node_2 -->
<g id="node23" class="node">
<title>r2_node_2</title>
<ellipse fill="none" stroke="black" cx="929.93" cy="-18" rx="50.33" ry="18"/>
<text text-anchor="middle" x="929.93" y="-12.95" font-family="Times,serif" font-size="14.00">r2_node_2</text>
</g>
<!-- r2_node_7&#45;&gt;r2_node_2 -->
<g id="edge24" class="edge">
<title>r2_node_7&#45;&gt;r2_node_2</title>
<path fill="none" stroke="black" d="M749.25,-77.28C785.87,-65.47 842.55,-47.19 882.65,-34.25"/>
<polygon fill="black" stroke="black" points="883.61,-37.62 892.05,-31.22 881.46,-30.96 883.61,-37.62"/>
</g>
<!-- r2_node_1 -->
<g id="node24" class="node">
<title>r2_node_1</title>
<ellipse fill="none" stroke="black" cx="704.93" cy="-18" rx="50.33" ry="18"/>
<text text-anchor="middle" x="704.93" y="-12.95" font-family="Times,serif" font-size="14.00">r2_node_1</text>
</g>
<!-- r2_node_7&#45;&gt;r2_node_1 -->
<g id="edge25" class="edge">
<title>r2_node_7&#45;&gt;r2_node_1</title>
<path fill="none" stroke="black" d="M710.96,-71.7C710.12,-64.41 709.13,-55.73 708.2,-47.54"/>
<polygon fill="black" stroke="black" points="711.67,-47.15 707.06,-37.61 704.72,-47.94 711.67,-47.15"/>
</g>
<!-- r2_node_11&#45;&gt;r2_node_20 -->
<g id="edge10" class="edge">
<title>r2_node_11&#45;&gt;r2_node_20</title>
<path fill="none" stroke="black" d="M419.17,-175.97C382.79,-187.99 326.23,-205.85 284.93,-218.37"/>
<polygon fill="black" stroke="black" points="283.99,-215 275.43,-221.24 286.01,-221.7 283.99,-215"/>
</g>
<!-- r2_node_12 -->
<g id="node12" class="node">
<title>r2_node_12</title>
<ellipse fill="none" stroke="black" cx="574.93" cy="-18" rx="54.93" ry="18"/>
<text text-anchor="middle" x="574.93" y="-12.95" font-family="Times,serif" font-size="14.00">r2_node_12</text>
</g>
<!-- r2_node_11&#45;&gt;r2_node_12 -->
<g id="edge9" class="edge">
<title>r2_node_11&#45;&gt;r2_node_12</title>
<path fill="none" stroke="black" d="M506.09,-155.07C535.91,-148.69 571.21,-135.46 589.93,-108 602.26,-89.93 596.68,-65.1 589.06,-46.26"/>
<polygon fill="black" stroke="black" points="592.35,-45.04 585.07,-37.33 585.96,-47.89 592.35,-45.04"/>
</g>
<!-- r2_node_16 -->
<g id="node13" class="node">
<title>r2_node_16</title>
<ellipse fill="none" stroke="black" cx="474.93" cy="-90" rx="54.93" ry="18"/>
<text text-anchor="middle" x="474.93" y="-84.95" font-family="Times,serif" font-size="14.00">r2_node_16</text>
</g>
<!-- r2_node_11&#45;&gt;r2_node_16 -->
<g id="edge11" class="edge">
<title>r2_node_11&#45;&gt;r2_node_16</title>
<path fill="none" stroke="black" d="M453.96,-143.7C455.34,-136.15 457.69,-127.12 460.41,-118.68"/>
<polygon fill="black" stroke="black" points="463.61,-120.13 463.65,-109.53 457.01,-117.79 463.61,-120.13"/>
</g>
<!-- r2_node_11&#45;&gt;r2_node_29 -->
<g id="edge12" class="edge">
<title>r2_node_11&#45;&gt;r2_node_29</title>
<path fill="none" stroke="black" d="M502.52,-152.52C528.05,-145.28 557.38,-132.04 572.93,-108 581.63,-94.57 582.04,-85.15 572.93,-72 562.48,-56.9 521.04,-42.41 485.78,-32.41"/>
<polygon fill="black" stroke="black" points="487.1,-29.15 476.53,-29.86 485.24,-35.9 487.1,-29.15"/>
</g>
<!-- r2_node_16&#45;&gt;r2_node_11 -->
<g id="edge57" class="edge">
<title>r2_node_16&#45;&gt;r2_node_11</title>
<path fill="none" stroke="black" d="M475.91,-108.28C474.53,-115.86 472.16,-124.95 469.42,-133.43"/>
<polygon fill="black" stroke="black" points="466.21,-132.03 466.16,-142.63 472.8,-134.37 466.21,-132.03"/>
</g>
<!-- r2_node_16&#45;&gt;r2_node_13 -->
<g id="edge58" class="edge">
<title>r2_node_16&#45;&gt;r2_node_13</title>
<path fill="none" stroke="black" d="M435.79,-77.13C402.1,-65.95 353.7,-49.1 318.74,-36.41"/>
<polygon fill="black" stroke="black" points="320.37,-33.28 309.78,-33.13 317.97,-39.85 320.37,-33.28"/>
</g>
<!-- r2_node_13&#45;&gt;r2_node_21 -->
<g id="edge14" class="edge">
<title>r2_node_13&#45;&gt;r2_node_21</title>
<path fill="none" stroke="black" d="M237.17,-31.5C214.77,-39.81 187.24,-52.79 167.93,-72 71.14,-168.31 67.55,-223.61 60.93,-360 59.96,-380.1 60.75,-402.78 60.58,-420.21"/>
<polygon fill="black" stroke="black" points="57.09,-419.99 60.31,-430.09 64.08,-420.19 57.09,-419.99"/>
</g>
<!-- r2_node_13&#45;&gt;r2_node_16 -->
<g id="edge13" class="edge">
<title>r2_node_13&#45;&gt;r2_node_16</title>
<path fill="none" stroke="black" d="M314.1,-30.88C347.74,-42.04 396.06,-58.86 431,-71.55"/>
<polygon fill="black" stroke="black" points="429.36,-74.68 439.96,-74.82 431.76,-68.1 429.36,-74.68"/>
</g>
<!-- r2_node_28&#45;&gt;r2_node_20 -->
<g id="edge15" class="edge">
<title>r2_node_28&#45;&gt;r2_node_20</title>
<path fill="none" stroke="black" d="M211.96,-287.7C213.34,-280.15 215.69,-271.12 218.41,-262.68"/>
<polygon fill="black" stroke="black" points="221.61,-264.13 221.65,-253.53 215.01,-261.79 221.61,-264.13"/>
</g>
<!-- r2_node_6 -->
<g id="node17" class="node">
<title>r2_node_6</title>
<ellipse fill="none" stroke="black" cx="217.93" cy="-90" rx="50.33" ry="18"/>
<text text-anchor="middle" x="217.93" y="-84.95" font-family="Times,serif" font-size="14.00">r2_node_6</text>
</g>
<!-- r2_node_28&#45;&gt;r2_node_6 -->
<g id="edge16" class="edge">
<title>r2_node_28&#45;&gt;r2_node_6</title>
<path fill="none" stroke="black" d="M194.38,-288.84C184.79,-279.23 174.05,-266.17 168.93,-252 152.01,-205.13 179.38,-149.26 199.54,-117.18"/>
<polygon fill="black" stroke="black" points="202.41,-119.19 204.94,-108.91 196.54,-115.37 202.41,-119.19"/>
</g>
<!-- r2_node_23 -->
<g id="node18" class="node">
<title>r2_node_23</title>
<ellipse fill="none" stroke="black" cx="426.93" cy="-234" rx="54.93" ry="18"/>
<text text-anchor="middle" x="426.93" y="-228.95" font-family="Times,serif" font-size="14.00">r2_node_23</text>
</g>
<!-- r2_node_28&#45;&gt;r2_node_23 -->
<g id="edge17" class="edge">
<title>r2_node_28&#45;&gt;r2_node_23</title>
<path fill="none" stroke="black" d="M247.77,-291.83C282.59,-279.89 336.31,-262.29 375.9,-249.85"/>
<polygon fill="black" stroke="black" points="376.72,-253.26 385.23,-246.94 374.64,-246.58 376.72,-253.26"/>
</g>
<!-- r2_node_28&#45;&gt;r2_node_17 -->
<g id="edge18" class="edge">
<title>r2_node_28&#45;&gt;r2_node_17</title>
<path fill="none" stroke="black" d="M208.64,-323.96C204.62,-332.09 198.89,-342.01 193.05,-351.06"/>
<polygon fill="black" stroke="black" points="190.27,-348.91 187.57,-359.16 196.07,-352.83 190.27,-348.91"/>
</g>
<!-- r2_node_23&#45;&gt;r2_node_28 -->
<g id="edge19" class="edge">
<title>r2_node_23&#45;&gt;r2_node_28</title>
<path fill="none" stroke="black" d="M391.85,-248.25C357.1,-260.17 303.66,-277.67 264.18,-290.08"/>
<polygon fill="black" stroke="black" points="263.38,-286.67 254.88,-292.99 265.47,-293.35 263.38,-286.67"/>
</g>
<!-- r2_node_25 -->
<g id="node20" class="node">
<title>r2_node_25</title>
<ellipse fill="none" stroke="black" cx="911.93" cy="-162" rx="54.93" ry="18"/>
<text text-anchor="middle" x="911.93" y="-156.95" font-family="Times,serif" font-size="14.00">r2_node_25</text>
</g>
<!-- r2_node_23&#45;&gt;r2_node_25 -->
<g id="edge20" class="edge">
<title>r2_node_23&#45;&gt;r2_node_25</title>
<path fill="none" stroke="black" d="M476.24,-225.77C547.73,-215.95 683.93,-197.62 799.93,-180 816.39,-177.5 834.28,-174.61 850.89,-171.93"/>
<polygon fill="black" stroke="black" points="851.34,-175.4 860.66,-170.35 850.23,-168.49 851.34,-175.4"/>
</g>
<!-- r2_node_17&#45;&gt;r2_node_21 -->
<g id="edge56" class="edge">
<title>r2_node_17&#45;&gt;r2_node_21</title>
<path fill="none" stroke="black" d="M150.27,-394.95C134.72,-405.03 113.12,-418.15 94.35,-428.94"/>
<polygon fill="black" stroke="black" points="92.85,-425.77 85.88,-433.75 96.3,-431.85 92.85,-425.77"/>
</g>
<!-- r2_node_17&#45;&gt;r2_node_28 -->
<g id="edge55" class="edge">
<title>r2_node_17&#45;&gt;r2_node_28</title>
<path fill="none" stroke="black" d="M175.4,-359.7C179.38,-351.7 184.97,-342.02 190.69,-333.15"/>
<polygon fill="black" stroke="black" points="193.58,-335.12 196.27,-324.88 187.78,-331.21 193.58,-335.12"/>
</g>
<!-- r2_node_17&#45;&gt;r2_node_6 -->
<g id="edge54" class="edge">
<title>r2_node_17&#45;&gt;r2_node_6</title>
<path fill="none" stroke="black" d="M161.8,-359.88C156.93,-349.76 151.43,-336.51 148.93,-324 138.47,-271.49 150.73,-177.95 166.93,-144 172.13,-133.11 180.44,-123.04 188.86,-114.66"/>
<polygon fill="black" stroke="black" points="191.16,-117.3 196.09,-107.92 186.39,-112.18 191.16,-117.3"/>
</g>
<!-- r2_node_25&#45;&gt;r2_node_27 -->
<g id="edge33" class="edge">
<title>r2_node_25&#45;&gt;r2_node_27</title>
<path fill="none" stroke="black" d="M944.34,-147.17C969.63,-136.37 1005.02,-121.27 1032.73,-109.44"/>
<polygon fill="black" stroke="black" points="1034.1,-112.66 1041.93,-105.51 1031.36,-106.22 1034.1,-112.66"/>
</g>
<!-- r2_node_25&#45;&gt;r2_node_23 -->
<g id="edge34" class="edge">
<title>r2_node_25&#45;&gt;r2_node_23</title>
<path fill="none" stroke="black" d="M866.09,-172.26C850.8,-174.85 833.7,-177.61 817.93,-180 702.32,-197.56 566.65,-215.83 489.25,-225.67"/>
<polygon fill="black" stroke="black" points="489.24,-222.14 479.76,-226.87 490.12,-229.08 489.24,-222.14"/>
</g>
<!-- r2_node_8&#45;&gt;r2_node_3 -->
<g id="edge38" class="edge">
<title>r2_node_8&#45;&gt;r2_node_3</title>
<path fill="none" stroke="black" d="M249.16,-467.8C242.46,-476.56 233.18,-487.43 224.24,-497.06"/>
<polygon fill="black" stroke="black" points="221.96,-494.37 217.58,-504.02 227.02,-499.21 221.96,-494.37"/>
</g>
<!-- r2_node_8&#45;&gt;r2_node_23 -->
<g id="edge36" class="edge">
<title>r2_node_8&#45;&gt;r2_node_23</title>
<path fill="none" stroke="black" d="M296.67,-438.1C321.06,-429.71 351.96,-416.1 373.93,-396 401.11,-371.15 403.15,-358.89 414.93,-324 421.54,-304.44 424.53,-281.3 425.87,-263.51"/>
<polygon fill="black" stroke="black" points="429.35,-263.88 426.46,-253.68 422.36,-263.45 429.35,-263.88"/>
</g>
<!-- r2_node_8&#45;&gt;r2_node_17 -->
<g id="edge35" class="edge">
<title>r2_node_8&#45;&gt;r2_node_17</title>
<path fill="none" stroke="black" d="M238.19,-433.12C226.82,-423.96 212.31,-412.29 199.69,-402.13"/>
<polygon fill="black" stroke="black" points="202.06,-399.55 192.08,-396.01 197.68,-405.01 202.06,-399.55"/>
</g>
<!-- r2_node_24 -->
<g id="node27" class="node">
<title>r2_node_24</title>
<ellipse fill="none" stroke="black" cx="309.93" cy="-378" rx="54.93" ry="18"/>
<text text-anchor="middle" x="309.93" y="-372.95" font-family="Times,serif" font-size="14.00">r2_node_24</text>
</g>
<!-- r2_node_8&#45;&gt;r2_node_24 -->
<g id="edge37" class="edge">
<title>r2_node_8&#45;&gt;r2_node_24</title>
<path fill="none" stroke="black" d="M264.87,-431.7C270.23,-423.32 277.63,-413.1 284.94,-403.9"/>
<polygon fill="black" stroke="black" points="287.54,-406.26 291.19,-396.31 282.13,-401.81 287.54,-406.26"/>
</g>
<!-- r2_node_18&#45;&gt;r2_node_20 -->
<g id="edge43" class="edge">
<title>r2_node_18&#45;&gt;r2_node_20</title>
<path fill="none" stroke="black" d="M301.21,-179.71C291.4,-188.93 278.01,-200.51 265.63,-210.51"/>
<polygon fill="black" stroke="black" points="263.7,-207.57 258.04,-216.52 268.05,-213.06 263.7,-207.57"/>
</g>
<!-- r2_node_18&#45;&gt;r2_node_29 -->
<g id="edge44" class="edge">
<title>r2_node_18&#45;&gt;r2_node_29</title>
<path fill="none" stroke="black" d="M359.11,-150.91C423.97,-136.03 537.52,-109.79 538.93,-108 548.86,-95.45 547.37,-85.59 538.93,-72 527.3,-53.26 506.86,-40.95 486.94,-32.95"/>
<polygon fill="black" stroke="black" points="488.32,-29.73 477.73,-29.56 485.91,-36.3 488.32,-29.73"/>
</g>
<!-- r2_node_18&#45;&gt;r2_node_6 -->
<g id="edge46" class="edge">
<title>r2_node_18&#45;&gt;r2_node_6</title>
<path fill="none" stroke="black" d="M292.92,-145.12C279.81,-135.65 262.97,-123.5 248.57,-113.11"/>
<polygon fill="black" stroke="black" points="250.91,-110.48 240.75,-107.47 246.81,-116.16 250.91,-110.48"/>
</g>
<!-- r2_node_30 -->
<g id="node26" class="node">
<title>r2_node_30</title>
<ellipse fill="none" stroke="black" cx="344.93" cy="-90" rx="54.93" ry="18"/>
<text text-anchor="middle" x="344.93" y="-84.95" font-family="Times,serif" font-size="14.00">r2_node_30</text>
</g>
<!-- r2_node_18&#45;&gt;r2_node_30 -->
<g id="edge45" class="edge">
<title>r2_node_18&#45;&gt;r2_node_30</title>
<path fill="none" stroke="black" d="M316.43,-143.7C318.98,-135.87 322.8,-126.44 326.9,-117.73"/>
<polygon fill="black" stroke="black" points="329.93,-119.48 331.29,-108.98 323.68,-116.35 329.93,-119.48"/>
</g>
<!-- r2_node_30&#45;&gt;r2_node_14 -->
<g id="edge31" class="edge">
<title>r2_node_30&#45;&gt;r2_node_14</title>
<path fill="none" stroke="black" d="M303.64,-77.75C259.15,-65.63 188.24,-46.32 139.97,-33.17"/>
<polygon fill="black" stroke="black" points="141.15,-29.87 130.58,-30.62 139.31,-36.62 141.15,-29.87"/>
</g>
<!-- r2_node_30&#45;&gt;r2_node_18 -->
<g id="edge32" class="edge">
<title>r2_node_30&#45;&gt;r2_node_18</title>
<path fill="none" stroke="black" d="M343.44,-108.28C340.92,-116.03 337.15,-125.36 333.09,-134.01"/>
<polygon fill="black" stroke="black" points="330.09,-132.19 328.75,-142.7 336.35,-135.32 330.09,-132.19"/>
</g>
<!-- r2_node_24&#45;&gt;r2_node_8 -->
<g id="edge41" class="edge">
<title>r2_node_24&#45;&gt;r2_node_8</title>
<path fill="none" stroke="black" d="M303.11,-396.12C297.76,-404.5 290.36,-414.74 283.02,-423.98"/>
<polygon fill="black" stroke="black" points="280.41,-421.65 276.76,-431.6 285.81,-426.1 280.41,-421.65"/>
</g>
<!-- r2_node_10 -->
<g id="node28" class="node">
<title>r2_node_10</title>
<ellipse fill="none" stroke="black" cx="350.93" cy="-306" rx="54.93" ry="18"/>
<text text-anchor="middle" x="350.93" y="-300.95" font-family="Times,serif" font-size="14.00">r2_node_10</text>
</g>
<!-- r2_node_24&#45;&gt;r2_node_10 -->
<g id="edge42" class="edge">
<title>r2_node_24&#45;&gt;r2_node_10</title>
<path fill="none" stroke="black" d="M314.15,-359.7C318.01,-351.7 323.47,-342.02 329.06,-333.15"/>
<polygon fill="black" stroke="black" points="331.93,-335.16 334.52,-324.89 326.09,-331.3 331.93,-335.16"/>
</g>
<!-- r2_node_10&#45;&gt;r2_node_4 -->
<g id="edge48" class="edge">
<title>r2_node_10&#45;&gt;r2_node_4</title>
<path fill="none" stroke="black" d="M347.65,-287.87C344.86,-267.65 343.91,-234.46 362.93,-216 418.25,-162.32 632.81,-197.29 707.93,-180 781.99,-162.96 864.31,-129.98 912.18,-109.3"/>
<polygon fill="black" stroke="black" points="913.57,-112.52 921.34,-105.32 910.77,-106.1 913.57,-112.52"/>
</g>
<!-- r2_node_10&#45;&gt;r2_node_24 -->
<g id="edge47" class="edge">
<title>r2_node_10&#45;&gt;r2_node_24</title>
<path fill="none" stroke="black" d="M346.88,-323.96C342.98,-332.09 337.39,-342.01 331.67,-351.06"/>
<polygon fill="black" stroke="black" points="328.92,-348.88 326.33,-359.15 334.76,-352.74 328.92,-348.88"/>
</g>
</g>
</svg>
