<?xml version="1.0" encoding="UTF-8" standalone="no"?>
<!DOCTYPE svg PUBLIC "-//W3C//DTD SVG 1.1//EN"
 "http://www.w3.org/Graphics/SVG/1.1/DTD/svg11.dtd">
<!-- Generated by graphviz version 12.2.1 (20241206.2353)
 -->
<!-- Pages: 1 -->
<svg width="976pt" height="404pt"
 viewBox="0.00 0.00 976.37 404.00" xmlns="http://www.w3.org/2000/svg" xmlns:xlink="http://www.w3.org/1999/xlink">
<g id="graph0" class="graph" transform="scale(1 1) rotate(0) translate(4 400)">
<polygon fill="white" stroke="none" points="-4,4 -4,-400 972.37,-400 972.37,4 -4,4"/>
<!-- r2_node_23 -->
<g id="node1" class="node">
<title>r2_node_23</title>
<ellipse fill="none" stroke="black" cx="54.93" cy="-378" rx="54.93" ry="18"/>
<text text-anchor="middle" x="54.93" y="-372.95" font-family="Times,serif" font-size="14.00">r2_node_23</text>
</g>
<!-- r2_node_7 -->
<g id="node2" class="node">
<title>r2_node_7</title>
<ellipse fill="none" stroke="black" cx="53.93" cy="-18" rx="50.33" ry="18"/>
<text text-anchor="middle" x="53.93" y="-12.95" font-family="Times,serif" font-size="14.00">r2_node_7</text>
</g>
<!-- r2_node_23&#45;&gt;r2_node_7 -->
<g id="edge1" class="edge">
<title>r2_node_23&#45;&gt;r2_node_7</title>
<path fill="none" stroke="black" d="M46.64,-359.97C34.66,-333.77 13.93,-281.7 13.93,-235 13.93,-235 13.93,-235 13.93,-161 13.93,-119.85 29.69,-74.42 41.43,-46.29"/>
<polygon fill="black" stroke="black" points="44.49,-48.01 45.24,-37.44 38.07,-45.24 44.49,-48.01"/>
</g>
<!-- r2_node_25 -->
<g id="node3" class="node">
<title>r2_node_25</title>
<ellipse fill="none" stroke="black" cx="873.93" cy="-18" rx="54.93" ry="18"/>
<text text-anchor="middle" x="873.93" y="-12.95" font-family="Times,serif" font-size="14.00">r2_node_25</text>
</g>
<!-- r2_node_23&#45;&gt;r2_node_25 -->
<g id="edge2" class="edge">
<title>r2_node_23&#45;&gt;r2_node_25</title>
<path fill="none" stroke="black" d="M105.24,-370.3C280.76,-345.78 860.93,-254.57 961.93,-108 971.01,-94.83 969.81,-85.93 961.93,-72 953.01,-56.21 937.28,-44.6 921.57,-36.34"/>
<polygon fill="black" stroke="black" points="923.21,-33.24 912.68,-32.04 920.16,-39.54 923.21,-33.24"/>
</g>
<!-- r2_node_16 -->
<g id="node4" class="node">
<title>r2_node_16</title>
<ellipse fill="none" stroke="black" cx="96.93" cy="-306" rx="54.93" ry="18"/>
<text text-anchor="middle" x="96.93" y="-300.95" font-family="Times,serif" font-size="14.00">r2_node_16</text>
</g>
<!-- r2_node_23&#45;&gt;r2_node_16 -->
<g id="edge3" class="edge">
<title>r2_node_23&#45;&gt;r2_node_16</title>
<path fill="none" stroke="black" d="M59.4,-359.7C63.38,-351.7 68.97,-342.02 74.69,-333.15"/>
<polygon fill="black" stroke="black" points="77.58,-335.12 80.27,-324.88 71.78,-331.21 77.58,-335.12"/>
</g>
<!-- r2_node_16&#45;&gt;r2_node_23 -->
<g id="edge25" class="edge">
<title>r2_node_16&#45;&gt;r2_node_23</title>
<path fill="none" stroke="black" d="M92.64,-323.96C88.62,-332.09 82.89,-342.01 77.05,-351.06"/>
<polygon fill="black" stroke="black" points="74.27,-348.91 71.57,-359.16 80.07,-352.83 74.27,-348.91"/>
</g>
<!-- r2_node_11 -->
<g id="node5" class="node">
<title>r2_node_11</title>
<ellipse fill="none" stroke="black" cx="422.93" cy="-234" rx="54.93" ry="18"/>
<text text-anchor="middle" x="422.93" y="-228.95" font-family="Times,serif" font-size="14.00">r2_node_11</text>
</g>
<!-- r2_node_16&#45;&gt;r2_node_11 -->
<g id="edge26" class="edge">
<title>r2_node_16&#45;&gt;r2_node_11</title>
<path fill="none" stroke="black" d="M140.42,-294.6C198.41,-281.64 301,-259.6 365.36,-246.26"/>
<polygon fill="black" stroke="black" points="365.95,-249.72 375.03,-244.27 364.53,-242.86 365.95,-249.72"/>
</g>
<!-- r2_node_10 -->
<g id="node10" class="node">
<title>r2_node_10</title>
<ellipse fill="none" stroke="black" cx="96.93" cy="-234" rx="54.93" ry="18"/>
<text text-anchor="middle" x="96.93" y="-228.95" font-family="Times,serif" font-size="14.00">r2_node_10</text>
</g>
<!-- r2_node_16&#45;&gt;r2_node_10 -->
<g id="edge27" class="edge">
<title>r2_node_16&#45;&gt;r2_node_10</title>
<path fill="none" stroke="black" d="M91.02,-287.7C90.27,-280.41 90.02,-271.73 90.29,-263.54"/>
<polygon fill="black" stroke="black" points="93.78,-263.82 90.94,-253.61 86.79,-263.36 93.78,-263.82"/>
</g>
<!-- r2_node_21 -->
<g id="node19" class="node">
<title>r2_node_21</title>
<ellipse fill="none" stroke="black" cx="260.93" cy="-234" rx="54.93" ry="18"/>
<text text-anchor="middle" x="260.93" y="-228.95" font-family="Times,serif" font-size="14.00">r2_node_21</text>
</g>
<!-- r2_node_16&#45;&gt;r2_node_21 -->
<g id="edge28" class="edge">
<title>r2_node_16&#45;&gt;r2_node_21</title>
<path fill="none" stroke="black" d="M125.7,-290.33C150.28,-279.23 185.93,-263.98 214.51,-252.29"/>
<polygon fill="black" stroke="black" points="215.72,-255.58 223.67,-248.57 213.09,-249.09 215.72,-255.58"/>
</g>
<!-- r2_node_11&#45;&gt;r2_node_16 -->
<g id="edge5" class="edge">
<title>r2_node_11&#45;&gt;r2_node_16</title>
<path fill="none" stroke="black" d="M379.38,-245.42C321.33,-258.38 218.71,-280.43 154.39,-293.76"/>
<polygon fill="black" stroke="black" points="153.81,-290.31 144.72,-295.76 155.22,-297.16 153.81,-290.31"/>
</g>
<!-- r2_node_4 -->
<g id="node6" class="node">
<title>r2_node_4</title>
<ellipse fill="none" stroke="black" cx="902.93" cy="-90" rx="50.33" ry="18"/>
<text text-anchor="middle" x="902.93" y="-84.95" font-family="Times,serif" font-size="14.00">r2_node_4</text>
</g>
<!-- r2_node_11&#45;&gt;r2_node_4 -->
<g id="edge4" class="edge">
<title>r2_node_11&#45;&gt;r2_node_4</title>
<path fill="none" stroke="black" d="M470.49,-224.53C537.28,-213.24 655.03,-193.18 696.93,-180 756.21,-161.35 821.23,-129.59 862.19,-109.49"/>
<polygon fill="black" stroke="black" points="863.53,-112.73 870.96,-105.18 860.44,-106.44 863.53,-112.73"/>
</g>
<!-- r2_node_28 -->
<g id="node7" class="node">
<title>r2_node_28</title>
<ellipse fill="none" stroke="black" cx="641.93" cy="-162" rx="54.93" ry="18"/>
<text text-anchor="middle" x="641.93" y="-156.95" font-family="Times,serif" font-size="14.00">r2_node_28</text>
</g>
<!-- r2_node_11&#45;&gt;r2_node_28 -->
<g id="edge6" class="edge">
<title>r2_node_11&#45;&gt;r2_node_28</title>
<path fill="none" stroke="black" d="M458.23,-220C494,-208.01 549.54,-190.23 590.24,-177.73"/>
<polygon fill="black" stroke="black" points="591.05,-181.14 599.59,-174.87 589.01,-174.44 591.05,-181.14"/>
</g>
<!-- r2_node_4&#45;&gt;r2_node_25 -->
<g id="edge24" class="edge">
<title>r2_node_4&#45;&gt;r2_node_25</title>
<path fill="none" stroke="black" d="M895.77,-71.7C892.64,-64.15 888.9,-55.12 885.4,-46.68"/>
<polygon fill="black" stroke="black" points="888.66,-45.4 881.6,-37.5 882.19,-48.08 888.66,-45.4"/>
</g>
<!-- r2_node_4&#45;&gt;r2_node_11 -->
<g id="edge22" class="edge">
<title>r2_node_4&#45;&gt;r2_node_11</title>
<path fill="none" stroke="black" d="M880.59,-106.51C845.85,-126.33 777.23,-160.41 714.93,-180 673.29,-193.1 556.74,-212.99 484.02,-224.31"/>
<polygon fill="black" stroke="black" points="483.59,-220.84 474.24,-225.82 484.66,-227.76 483.59,-220.84"/>
</g>
<!-- r2_node_4&#45;&gt;r2_node_28 -->
<g id="edge21" class="edge">
<title>r2_node_4&#45;&gt;r2_node_28</title>
<path fill="none" stroke="black" d="M868.72,-103.56C863.46,-105.08 858.07,-106.59 852.93,-108 800.63,-122.4 740.46,-138.07 697.69,-148.61"/>
<polygon fill="black" stroke="black" points="697.01,-145.17 688.13,-150.95 698.67,-151.97 697.01,-145.17"/>
</g>
<!-- r2_node_15 -->
<g id="node18" class="node">
<title>r2_node_15</title>
<ellipse fill="none" stroke="black" cx="716.93" cy="-18" rx="54.93" ry="18"/>
<text text-anchor="middle" x="716.93" y="-12.95" font-family="Times,serif" font-size="14.00">r2_node_15</text>
</g>
<!-- r2_node_4&#45;&gt;r2_node_15 -->
<g id="edge23" class="edge">
<title>r2_node_4&#45;&gt;r2_node_15</title>
<path fill="none" stroke="black" d="M869.25,-76.32C839.44,-65.1 795.66,-48.63 762.68,-36.22"/>
<polygon fill="black" stroke="black" points="763.95,-32.96 753.36,-32.71 761.49,-39.51 763.95,-32.96"/>
</g>
<!-- r2_node_28&#45;&gt;r2_node_11 -->
<g id="edge18" class="edge">
<title>r2_node_28&#45;&gt;r2_node_11</title>
<path fill="none" stroke="black" d="M606.45,-176.07C570.65,-188.06 515.17,-205.82 474.53,-218.3"/>
<polygon fill="black" stroke="black" points="473.74,-214.89 465.2,-221.16 475.78,-221.58 473.74,-214.89"/>
</g>
<!-- r2_node_28&#45;&gt;r2_node_4 -->
<g id="edge20" class="edge">
<title>r2_node_28&#45;&gt;r2_node_4</title>
<path fill="none" stroke="black" d="M681.44,-149.11C720.55,-138.57 781.8,-122.62 834.93,-108 840,-106.61 845.3,-105.12 850.62,-103.63"/>
<polygon fill="black" stroke="black" points="851.37,-107.05 860.05,-100.99 849.48,-100.31 851.37,-107.05"/>
</g>
<!-- r2_node_12 -->
<g id="node8" class="node">
<title>r2_node_12</title>
<ellipse fill="none" stroke="black" cx="651.93" cy="-90" rx="54.93" ry="18"/>
<text text-anchor="middle" x="651.93" y="-84.95" font-family="Times,serif" font-size="14.00">r2_node_12</text>
</g>
<!-- r2_node_28&#45;&gt;r2_node_12 -->
<g id="edge17" class="edge">
<title>r2_node_28&#45;&gt;r2_node_12</title>
<path fill="none" stroke="black" d="M644.41,-143.7C645.46,-136.32 646.72,-127.52 647.9,-119.25"/>
<polygon fill="black" stroke="black" points="651.33,-120 649.28,-109.6 644.4,-119.01 651.33,-120"/>
</g>
<!-- r2_node_24 -->
<g id="node17" class="node">
<title>r2_node_24</title>
<ellipse fill="none" stroke="black" cx="779.93" cy="-90" rx="54.93" ry="18"/>
<text text-anchor="middle" x="779.93" y="-84.95" font-family="Times,serif" font-size="14.00">r2_node_24</text>
</g>
<!-- r2_node_28&#45;&gt;r2_node_24 -->
<g id="edge19" class="edge">
<title>r2_node_28&#45;&gt;r2_node_24</title>
<path fill="none" stroke="black" d="M670.86,-146.33C691.2,-136.01 718.63,-122.1 740.9,-110.8"/>
<polygon fill="black" stroke="black" points="742.36,-113.98 749.69,-106.34 739.19,-107.74 742.36,-113.98"/>
</g>
<!-- r2_node_2 -->
<g id="node9" class="node">
<title>r2_node_2</title>
<ellipse fill="none" stroke="black" cx="295.93" cy="-90" rx="50.33" ry="18"/>
<text text-anchor="middle" x="295.93" y="-84.95" font-family="Times,serif" font-size="14.00">r2_node_2</text>
</g>
<!-- r2_node_10&#45;&gt;r2_node_16 -->
<g id="edge9" class="edge">
<title>r2_node_10&#45;&gt;r2_node_16</title>
<path fill="none" stroke="black" d="M102.83,-252.1C103.59,-259.37 103.84,-268.04 103.59,-276.24"/>
<polygon fill="black" stroke="black" points="100.1,-275.98 102.95,-286.19 107.08,-276.43 100.1,-275.98"/>
</g>
<!-- r2_node_19 -->
<g id="node11" class="node">
<title>r2_node_19</title>
<ellipse fill="none" stroke="black" cx="96.93" cy="-162" rx="54.93" ry="18"/>
<text text-anchor="middle" x="96.93" y="-156.95" font-family="Times,serif" font-size="14.00">r2_node_19</text>
</g>
<!-- r2_node_10&#45;&gt;r2_node_19 -->
<g id="edge7" class="edge">
<title>r2_node_10&#45;&gt;r2_node_19</title>
<path fill="none" stroke="black" d="M91.02,-215.7C90.27,-208.41 90.02,-199.73 90.29,-191.54"/>
<polygon fill="black" stroke="black" points="93.78,-191.82 90.94,-181.61 86.79,-191.36 93.78,-191.82"/>
</g>
<!-- r2_node_9 -->
<g id="node12" class="node">
<title>r2_node_9</title>
<ellipse fill="none" stroke="black" cx="257.93" cy="-162" rx="50.33" ry="18"/>
<text text-anchor="middle" x="257.93" y="-156.95" font-family="Times,serif" font-size="14.00">r2_node_9</text>
</g>
<!-- r2_node_10&#45;&gt;r2_node_9 -->
<g id="edge8" class="edge">
<title>r2_node_10&#45;&gt;r2_node_9</title>
<path fill="none" stroke="black" d="M125.44,-218.15C149.82,-206.95 185.15,-191.55 213.25,-179.87"/>
<polygon fill="black" stroke="black" points="214.32,-183.22 222.23,-176.17 211.65,-176.75 214.32,-183.22"/>
</g>
<!-- r2_node_19&#45;&gt;r2_node_7 -->
<g id="edge13" class="edge">
<title>r2_node_19&#45;&gt;r2_node_7</title>
<path fill="none" stroke="black" d="M124.36,-146.17C138.07,-137.13 153.32,-124.19 160.93,-108 167.74,-93.52 169.37,-85.59 160.93,-72 148.83,-52.5 127.19,-39.96 106.52,-32"/>
<polygon fill="black" stroke="black" points="107.87,-28.76 97.28,-28.74 105.55,-35.36 107.87,-28.76"/>
</g>
<!-- r2_node_19&#45;&gt;r2_node_10 -->
<g id="edge14" class="edge">
<title>r2_node_19&#45;&gt;r2_node_10</title>
<path fill="none" stroke="black" d="M102.83,-180.1C103.59,-187.37 103.84,-196.04 103.59,-204.24"/>
<polygon fill="black" stroke="black" points="100.1,-203.98 102.95,-214.19 107.08,-204.43 100.1,-203.98"/>
</g>
<!-- r2_node_29 -->
<g id="node13" class="node">
<title>r2_node_29</title>
<ellipse fill="none" stroke="black" cx="96.93" cy="-90" rx="54.93" ry="18"/>
<text text-anchor="middle" x="96.93" y="-84.95" font-family="Times,serif" font-size="14.00">r2_node_29</text>
</g>
<!-- r2_node_19&#45;&gt;r2_node_29 -->
<g id="edge16" class="edge">
<title>r2_node_19&#45;&gt;r2_node_29</title>
<path fill="none" stroke="black" d="M96.93,-143.7C96.93,-136.41 96.93,-127.73 96.93,-119.54"/>
<polygon fill="black" stroke="black" points="100.43,-119.62 96.93,-109.62 93.43,-119.62 100.43,-119.62"/>
</g>
<!-- r2_node_18 -->
<g id="node16" class="node">
<title>r2_node_18</title>
<ellipse fill="none" stroke="black" cx="196.93" cy="-18" rx="54.93" ry="18"/>
<text text-anchor="middle" x="196.93" y="-12.95" font-family="Times,serif" font-size="14.00">r2_node_18</text>
</g>
<!-- r2_node_19&#45;&gt;r2_node_18 -->
<g id="edge15" class="edge">
<title>r2_node_19&#45;&gt;r2_node_18</title>
<path fill="none" stroke="black" d="M129.53,-147.18C146.47,-138.37 166.06,-125.33 177.93,-108 190.1,-90.25 194.7,-66.2 196.34,-47.58"/>
<polygon fill="black" stroke="black" points="199.82,-47.95 196.94,-37.75 192.83,-47.52 199.82,-47.95"/>
</g>
<!-- r2_node_9&#45;&gt;r2_node_2 -->
<g id="edge10" class="edge">
<title>r2_node_9&#45;&gt;r2_node_2</title>
<path fill="none" stroke="black" d="M267.13,-144.05C271.43,-136.14 276.64,-126.54 281.45,-117.69"/>
<polygon fill="black" stroke="black" points="284.4,-119.58 286.1,-109.12 278.25,-116.24 284.4,-119.58"/>
</g>
<!-- r2_node_9&#45;&gt;r2_node_10 -->
<g id="edge12" class="edge">
<title>r2_node_9&#45;&gt;r2_node_10</title>
<path fill="none" stroke="black" d="M230.44,-177.38C206.34,-188.48 171.01,-203.89 142.7,-215.68"/>
<polygon fill="black" stroke="black" points="141.53,-212.37 133.63,-219.42 144.21,-218.84 141.53,-212.37"/>
</g>
<!-- r2_node_1 -->
<g id="node15" class="node">
<title>r2_node_1</title>
<ellipse fill="none" stroke="black" cx="414.93" cy="-90" rx="50.33" ry="18"/>
<text text-anchor="middle" x="414.93" y="-84.95" font-family="Times,serif" font-size="14.00">r2_node_1</text>
</g>
<!-- r2_node_9&#45;&gt;r2_node_1 -->
<g id="edge11" class="edge">
<title>r2_node_9&#45;&gt;r2_node_1</title>
<path fill="none" stroke="black" d="M288.58,-147.34C313,-136.45 347.41,-121.1 374.16,-109.18"/>
<polygon fill="black" stroke="black" points="375.28,-112.51 382.99,-105.24 372.43,-106.12 375.28,-112.51"/>
</g>
<!-- r2_node_3 -->
<g id="node14" class="node">
<title>r2_node_3</title>
<ellipse fill="none" stroke="black" cx="535.93" cy="-18" rx="50.33" ry="18"/>
<text text-anchor="middle" x="535.93" y="-12.95" font-family="Times,serif" font-size="14.00">r2_node_3</text>
</g>
<!-- r2_node_21&#45;&gt;r2_node_7 -->
<g id="edge29" class="edge">
<title>r2_node_21&#45;&gt;r2_node_7</title>
<path fill="none" stroke="black" d="M292.93,-219.02C347.3,-194.54 453.8,-143.16 473.93,-108 481.88,-94.12 484.64,-83.89 473.93,-72 422.96,-15.36 208.18,-48.03 132.93,-36 124.26,-34.61 115.11,-32.89 106.23,-31.08"/>
<polygon fill="black" stroke="black" points="107.18,-27.7 96.67,-29.06 105.73,-34.55 107.18,-27.7"/>
</g>
<!-- r2_node_21&#45;&gt;r2_node_16 -->
<g id="edge32" class="edge">
<title>r2_node_21&#45;&gt;r2_node_16</title>
<path fill="none" stroke="black" d="M232,-249.75C207.42,-260.84 171.85,-276.06 143.33,-287.72"/>
<polygon fill="black" stroke="black" points="142.14,-284.43 134.19,-291.43 144.77,-290.91 142.14,-284.43"/>
</g>
<!-- r2_node_21&#45;&gt;r2_node_3 -->
<g id="edge30" class="edge">
<title>r2_node_21&#45;&gt;r2_node_3</title>
<path fill="none" stroke="black" d="M309.08,-225.2C363.63,-215.66 448.39,-198.48 474.93,-180 506.7,-157.89 510.09,-144.15 523.93,-108 531.32,-88.72 534.28,-65.57 535.41,-47.71"/>
<polygon fill="black" stroke="black" points="538.9,-47.97 535.86,-37.82 531.91,-47.65 538.9,-47.97"/>
</g>
<!-- r2_node_8 -->
<g id="node20" class="node">
<title>r2_node_8</title>
<ellipse fill="none" stroke="black" cx="384.93" cy="-18" rx="50.33" ry="18"/>
<text text-anchor="middle" x="384.93" y="-12.95" font-family="Times,serif" font-size="14.00">r2_node_8</text>
</g>
<!-- r2_node_21&#45;&gt;r2_node_8 -->
<g id="edge31" class="edge">
<title>r2_node_21&#45;&gt;r2_node_8</title>
<path fill="none" stroke="black" d="M310.92,-226.06C372.59,-214.33 473.41,-183.92 506.93,-108 513.4,-93.36 515.71,-85.38 506.93,-72 492.27,-49.64 465.92,-36.67 441.45,-29.16"/>
<polygon fill="black" stroke="black" points="442.42,-25.8 431.85,-26.49 440.54,-32.54 442.42,-25.8"/>
</g>
</g>
</svg>
