<?xml version="1.0" encoding="UTF-8" standalone="no"?>
<!DOCTYPE svg PUBLIC "-//W3C//DTD SVG 1.1//EN"
 "http://www.w3.org/Graphics/SVG/1.1/DTD/svg11.dtd">
<!-- Generated by graphviz version 12.2.1 (20241206.2353)
 -->
<!-- Pages: 1 -->
<svg width="999pt" height="332pt"
 viewBox="0.00 0.00 999.26 332.00" xmlns="http://www.w3.org/2000/svg" xmlns:xlink="http://www.w3.org/1999/xlink">
<g id="graph0" class="graph" transform="scale(1 1) rotate(0) translate(4 328)">
<polygon fill="white" stroke="none" points="-4,4 -4,-328 995.26,-328 995.26,4 -4,4"/>
<!-- r3_node_13 -->
<g id="node1" class="node">
<title>r3_node_13</title>
<ellipse fill="none" stroke="black" cx="92.33" cy="-234" rx="54.93" ry="18"/>
<text text-anchor="middle" x="92.33" y="-228.95" font-family="Times,serif" font-size="14.00">r3_node_13</text>
</g>
<!-- r3_node_20 -->
<g id="node2" class="node">
<title>r3_node_20</title>
<ellipse fill="none" stroke="black" cx="473.33" cy="-18" rx="54.93" ry="18"/>
<text text-anchor="middle" x="473.33" y="-12.95" font-family="Times,serif" font-size="14.00">r3_node_20</text>
</g>
<!-- r3_node_9 -->
<g id="node3" class="node">
<title>r3_node_9</title>
<ellipse fill="none" stroke="black" cx="350.33" cy="-18" rx="50.33" ry="18"/>
<text text-anchor="middle" x="350.33" y="-12.95" font-family="Times,serif" font-size="14.00">r3_node_9</text>
</g>
<!-- r3_node_28 -->
<g id="node4" class="node">
<title>r3_node_28</title>
<ellipse fill="none" stroke="black" cx="621.33" cy="-162" rx="54.93" ry="18"/>
<text text-anchor="middle" x="621.33" y="-156.95" font-family="Times,serif" font-size="14.00">r3_node_28</text>
</g>
<!-- r3_node_21 -->
<g id="node5" class="node">
<title>r3_node_21</title>
<ellipse fill="none" stroke="black" cx="936.33" cy="-90" rx="54.93" ry="18"/>
<text text-anchor="middle" x="936.33" y="-84.95" font-family="Times,serif" font-size="14.00">r3_node_21</text>
</g>
<!-- r3_node_28&#45;&gt;r3_node_21 -->
<g id="edge1" class="edge">
<title>r3_node_28&#45;&gt;r3_node_21</title>
<path fill="none" stroke="black" d="M667.75,-151.94C718.25,-141.92 801.28,-124.93 872.33,-108 876.13,-107.09 880.06,-106.13 884,-105.13"/>
<polygon fill="black" stroke="black" points="884.81,-108.54 893.63,-102.66 883.07,-101.76 884.81,-108.54"/>
</g>
<!-- r3_node_7 -->
<g id="node6" class="node">
<title>r3_node_7</title>
<ellipse fill="none" stroke="black" cx="685.33" cy="-90" rx="50.33" ry="18"/>
<text text-anchor="middle" x="685.33" y="-84.95" font-family="Times,serif" font-size="14.00">r3_node_7</text>
</g>
<!-- r3_node_28&#45;&gt;r3_node_7 -->
<g id="edge2" class="edge">
<title>r3_node_28&#45;&gt;r3_node_7</title>
<path fill="none" stroke="black" d="M636.49,-144.41C644.31,-135.87 653.99,-125.28 662.67,-115.79"/>
<polygon fill="black" stroke="black" points="665.08,-118.33 669.25,-108.59 659.92,-113.61 665.08,-118.33"/>
</g>
<!-- r3_node_30 -->
<g id="node7" class="node">
<title>r3_node_30</title>
<ellipse fill="none" stroke="black" cx="808.33" cy="-90" rx="54.93" ry="18"/>
<text text-anchor="middle" x="808.33" y="-84.95" font-family="Times,serif" font-size="14.00">r3_node_30</text>
</g>
<!-- r3_node_28&#45;&gt;r3_node_30 -->
<g id="edge3" class="edge">
<title>r3_node_28&#45;&gt;r3_node_30</title>
<path fill="none" stroke="black" d="M656.5,-147.83C686.44,-136.63 729.67,-120.44 762.35,-108.21"/>
<polygon fill="black" stroke="black" points="763.44,-111.54 771.58,-104.76 760.98,-104.98 763.44,-111.54"/>
</g>
<!-- r3_node_10 -->
<g id="node8" class="node">
<title>r3_node_10</title>
<ellipse fill="none" stroke="black" cx="220.33" cy="-234" rx="54.93" ry="18"/>
<text text-anchor="middle" x="220.33" y="-228.95" font-family="Times,serif" font-size="14.00">r3_node_10</text>
</g>
<!-- r3_node_28&#45;&gt;r3_node_10 -->
<g id="edge4" class="edge">
<title>r3_node_28&#45;&gt;r3_node_10</title>
<path fill="none" stroke="black" d="M572.76,-170.84C494.96,-182.66 346.21,-204.85 293.33,-216 287.49,-217.23 281.39,-218.66 275.3,-220.16"/>
<polygon fill="black" stroke="black" points="274.72,-216.7 265.88,-222.53 276.43,-223.48 274.72,-216.7"/>
</g>
<!-- r3_node_10&#45;&gt;r3_node_28 -->
<g id="edge17" class="edge">
<title>r3_node_10&#45;&gt;r3_node_28</title>
<path fill="none" stroke="black" d="M257.07,-220.26C263.13,-218.72 269.37,-217.26 275.33,-216 327.89,-204.92 475.19,-182.93 559.76,-171.05"/>
<polygon fill="black" stroke="black" points="560.09,-174.54 569.51,-169.69 559.13,-167.61 560.09,-174.54"/>
</g>
<!-- r3_node_12 -->
<g id="node11" class="node">
<title>r3_node_12</title>
<ellipse fill="none" stroke="black" cx="173.33" cy="-162" rx="54.93" ry="18"/>
<text text-anchor="middle" x="173.33" y="-156.95" font-family="Times,serif" font-size="14.00">r3_node_12</text>
</g>
<!-- r3_node_10&#45;&gt;r3_node_12 -->
<g id="edge15" class="edge">
<title>r3_node_10&#45;&gt;r3_node_12</title>
<path fill="none" stroke="black" d="M203.35,-216.41C197.11,-208.42 190.3,-198.64 184.64,-189.64"/>
<polygon fill="black" stroke="black" points="187.76,-188.03 179.61,-181.25 181.75,-191.63 187.76,-188.03"/>
</g>
<!-- r3_node_22 -->
<g id="node16" class="node">
<title>r3_node_22</title>
<ellipse fill="none" stroke="black" cx="429.33" cy="-162" rx="54.93" ry="18"/>
<text text-anchor="middle" x="429.33" y="-156.95" font-family="Times,serif" font-size="14.00">r3_node_22</text>
</g>
<!-- r3_node_10&#45;&gt;r3_node_22 -->
<g id="edge16" class="edge">
<title>r3_node_10&#45;&gt;r3_node_22</title>
<path fill="none" stroke="black" d="M254.7,-219.67C288.53,-207.78 340.39,-190.38 378.88,-178"/>
<polygon fill="black" stroke="black" points="379.45,-181.5 387.91,-175.12 377.32,-174.83 379.45,-181.5"/>
</g>
<!-- r3_node_5 -->
<g id="node17" class="node">
<title>r3_node_5</title>
<ellipse fill="none" stroke="black" cx="50.33" cy="-306" rx="50.33" ry="18"/>
<text text-anchor="middle" x="50.33" y="-300.95" font-family="Times,serif" font-size="14.00">r3_node_5</text>
</g>
<!-- r3_node_10&#45;&gt;r3_node_5 -->
<g id="edge18" class="edge">
<title>r3_node_10&#45;&gt;r3_node_5</title>
<path fill="none" stroke="black" d="M190.77,-249.47C164.55,-260.87 126.02,-276.77 95.89,-288.63"/>
<polygon fill="black" stroke="black" points="94.66,-285.36 86.62,-292.26 97.2,-291.88 94.66,-285.36"/>
</g>
<!-- r3_node_29 -->
<g id="node9" class="node">
<title>r3_node_29</title>
<ellipse fill="none" stroke="black" cx="191.33" cy="-90" rx="54.93" ry="18"/>
<text text-anchor="middle" x="191.33" y="-84.95" font-family="Times,serif" font-size="14.00">r3_node_29</text>
</g>
<!-- r3_node_29&#45;&gt;r3_node_9 -->
<g id="edge8" class="edge">
<title>r3_node_29&#45;&gt;r3_node_9</title>
<path fill="none" stroke="black" d="M223.12,-75C247.84,-64.12 282.33,-48.94 309.16,-37.12"/>
<polygon fill="black" stroke="black" points="310.27,-40.46 318.02,-33.23 307.45,-34.05 310.27,-40.46"/>
</g>
<!-- r3_node_4 -->
<g id="node10" class="node">
<title>r3_node_4</title>
<ellipse fill="none" stroke="black" cx="104.33" cy="-18" rx="50.33" ry="18"/>
<text text-anchor="middle" x="104.33" y="-12.95" font-family="Times,serif" font-size="14.00">r3_node_4</text>
</g>
<!-- r3_node_29&#45;&gt;r3_node_4 -->
<g id="edge5" class="edge">
<title>r3_node_29&#45;&gt;r3_node_4</title>
<path fill="none" stroke="black" d="M171.59,-73.12C160.13,-63.9 145.5,-52.13 132.81,-41.92"/>
<polygon fill="black" stroke="black" points="135.16,-39.31 125.17,-35.77 130.77,-44.77 135.16,-39.31"/>
</g>
<!-- r3_node_29&#45;&gt;r3_node_12 -->
<g id="edge6" class="edge">
<title>r3_node_29&#45;&gt;r3_node_12</title>
<path fill="none" stroke="black" d="M192.8,-108.28C191.65,-115.77 189.57,-124.75 187.11,-133.15"/>
<polygon fill="black" stroke="black" points="183.8,-132.02 184.03,-142.62 190.45,-134.19 183.8,-132.02"/>
</g>
<!-- r3_node_23 -->
<g id="node12" class="node">
<title>r3_node_23</title>
<ellipse fill="none" stroke="black" cx="227.33" cy="-18" rx="54.93" ry="18"/>
<text text-anchor="middle" x="227.33" y="-12.95" font-family="Times,serif" font-size="14.00">r3_node_23</text>
</g>
<!-- r3_node_29&#45;&gt;r3_node_23 -->
<g id="edge7" class="edge">
<title>r3_node_29&#45;&gt;r3_node_23</title>
<path fill="none" stroke="black" d="M200.04,-72.05C204.07,-64.23 208.94,-54.75 213.45,-45.98"/>
<polygon fill="black" stroke="black" points="216.54,-47.63 218,-37.13 210.32,-44.43 216.54,-47.63"/>
</g>
<!-- r3_node_12&#45;&gt;r3_node_10 -->
<g id="edge11" class="edge">
<title>r3_node_12&#45;&gt;r3_node_10</title>
<path fill="none" stroke="black" d="M189.96,-179.14C196.19,-187.09 203.04,-196.89 208.75,-205.94"/>
<polygon fill="black" stroke="black" points="205.69,-207.64 213.84,-214.4 211.69,-204.03 205.69,-207.64"/>
</g>
<!-- r3_node_12&#45;&gt;r3_node_29 -->
<g id="edge14" class="edge">
<title>r3_node_12&#45;&gt;r3_node_29</title>
<path fill="none" stroke="black" d="M171.86,-143.7C173.01,-136.24 175.07,-127.32 177.51,-118.97"/>
<polygon fill="black" stroke="black" points="180.81,-120.14 180.57,-109.54 174.15,-117.97 180.81,-120.14"/>
</g>
<!-- r3_node_15 -->
<g id="node13" class="node">
<title>r3_node_15</title>
<ellipse fill="none" stroke="black" cx="396.33" cy="-90" rx="54.93" ry="18"/>
<text text-anchor="middle" x="396.33" y="-84.95" font-family="Times,serif" font-size="14.00">r3_node_15</text>
</g>
<!-- r3_node_12&#45;&gt;r3_node_15 -->
<g id="edge13" class="edge">
<title>r3_node_12&#45;&gt;r3_node_15</title>
<path fill="none" stroke="black" d="M209.36,-148C245.93,-135.97 302.72,-118.12 344.17,-105.61"/>
<polygon fill="black" stroke="black" points="345.14,-108.98 353.71,-102.75 343.13,-102.27 345.14,-108.98"/>
</g>
<!-- r3_node_17 -->
<g id="node15" class="node">
<title>r3_node_17</title>
<ellipse fill="none" stroke="black" cx="562.33" cy="-90" rx="54.93" ry="18"/>
<text text-anchor="middle" x="562.33" y="-84.95" font-family="Times,serif" font-size="14.00">r3_node_17</text>
</g>
<!-- r3_node_12&#45;&gt;r3_node_17 -->
<g id="edge12" class="edge">
<title>r3_node_12&#45;&gt;r3_node_17</title>
<path fill="none" stroke="black" d="M219.45,-151.85C290.12,-138.66 424.91,-114.39 502.83,-100.83"/>
<polygon fill="black" stroke="black" points="503.16,-104.33 512.41,-99.17 501.96,-97.43 503.16,-104.33"/>
</g>
<!-- r3_node_15&#45;&gt;r3_node_20 -->
<g id="edge9" class="edge">
<title>r3_node_15&#45;&gt;r3_node_20</title>
<path fill="none" stroke="black" d="M414.19,-72.76C423.93,-63.91 436.18,-52.77 447,-42.93"/>
<polygon fill="black" stroke="black" points="449.13,-45.72 454.18,-36.41 444.43,-40.54 449.13,-45.72"/>
</g>
<!-- r3_node_15&#45;&gt;r3_node_12 -->
<g id="edge10" class="edge">
<title>r3_node_15&#45;&gt;r3_node_12</title>
<path fill="none" stroke="black" d="M360.38,-103.97C323.83,-115.99 267.01,-133.85 225.53,-146.37"/>
<polygon fill="black" stroke="black" points="224.55,-143.01 215.98,-149.24 226.57,-149.72 224.55,-143.01"/>
</g>
<!-- r3_node_24 -->
<g id="node14" class="node">
<title>r3_node_24</title>
<ellipse fill="none" stroke="black" cx="729.33" cy="-18" rx="54.93" ry="18"/>
<text text-anchor="middle" x="729.33" y="-12.95" font-family="Times,serif" font-size="14.00">r3_node_24</text>
</g>
<!-- r3_node_17&#45;&gt;r3_node_12 -->
<g id="edge22" class="edge">
<title>r3_node_17&#45;&gt;r3_node_12</title>
<path fill="none" stroke="black" d="M516.29,-100.13C445.62,-113.33 310.67,-137.62 232.73,-151.19"/>
<polygon fill="black" stroke="black" points="232.4,-147.69 223.15,-152.85 233.6,-154.59 232.4,-147.69"/>
</g>
<!-- r3_node_17&#45;&gt;r3_node_24 -->
<g id="edge20" class="edge">
<title>r3_node_17&#45;&gt;r3_node_24</title>
<path fill="none" stroke="black" d="M595.32,-75.17C621.28,-64.29 657.68,-49.03 685.99,-37.17"/>
<polygon fill="black" stroke="black" points="687.14,-40.48 695.01,-33.39 684.43,-34.02 687.14,-40.48"/>
</g>
<!-- r3_node_16 -->
<g id="node18" class="node">
<title>r3_node_16</title>
<ellipse fill="none" stroke="black" cx="857.33" cy="-18" rx="54.93" ry="18"/>
<text text-anchor="middle" x="857.33" y="-12.95" font-family="Times,serif" font-size="14.00">r3_node_16</text>
</g>
<!-- r3_node_17&#45;&gt;r3_node_16 -->
<g id="edge19" class="edge">
<title>r3_node_17&#45;&gt;r3_node_16</title>
<path fill="none" stroke="black" d="M603.57,-77.74C611.12,-75.76 618.95,-73.77 626.33,-72 700.15,-54.25 719.5,-53.75 793.33,-36 797.13,-35.09 801.06,-34.11 805,-33.12"/>
<polygon fill="black" stroke="black" points="805.81,-36.52 814.62,-30.64 804.06,-29.74 805.81,-36.52"/>
</g>
<!-- r3_node_27 -->
<g id="node19" class="node">
<title>r3_node_27</title>
<ellipse fill="none" stroke="black" cx="601.33" cy="-18" rx="54.93" ry="18"/>
<text text-anchor="middle" x="601.33" y="-12.95" font-family="Times,serif" font-size="14.00">r3_node_27</text>
</g>
<!-- r3_node_17&#45;&gt;r3_node_27 -->
<g id="edge21" class="edge">
<title>r3_node_17&#45;&gt;r3_node_27</title>
<path fill="none" stroke="black" d="M571.77,-72.05C576.18,-64.14 581.53,-54.54 586.46,-45.69"/>
<polygon fill="black" stroke="black" points="589.43,-47.55 591.24,-37.11 583.31,-44.14 589.43,-47.55"/>
</g>
<!-- r3_node_22&#45;&gt;r3_node_7 -->
<g id="edge27" class="edge">
<title>r3_node_22&#45;&gt;r3_node_7</title>
<path fill="none" stroke="black" d="M471.28,-149.95C511.2,-139.37 572.93,-122.87 626.33,-108 629.61,-107.09 632.99,-106.13 636.4,-105.17"/>
<polygon fill="black" stroke="black" points="637.16,-108.59 645.81,-102.49 635.24,-101.86 637.16,-108.59"/>
</g>
<!-- r3_node_22&#45;&gt;r3_node_10 -->
<g id="edge28" class="edge">
<title>r3_node_22&#45;&gt;r3_node_10</title>
<path fill="none" stroke="black" d="M394.67,-176.43C361.03,-188.25 309.74,-205.46 271.44,-217.79"/>
<polygon fill="black" stroke="black" points="270.4,-214.44 261.94,-220.82 272.53,-221.11 270.4,-214.44"/>
</g>
<!-- r3_node_5&#45;&gt;r3_node_13 -->
<g id="edge23" class="edge">
<title>r3_node_5&#45;&gt;r3_node_13</title>
<path fill="none" stroke="black" d="M60.49,-288.05C65.29,-280.06 71.13,-270.33 76.49,-261.4"/>
<polygon fill="black" stroke="black" points="79.33,-263.46 81.48,-253.09 73.33,-259.86 79.33,-263.46"/>
</g>
<!-- r3_node_5&#45;&gt;r3_node_10 -->
<g id="edge26" class="edge">
<title>r3_node_5&#45;&gt;r3_node_10</title>
<path fill="none" stroke="black" d="M79.18,-290.83C104.92,-279.63 142.91,-263.94 173.05,-252.04"/>
<polygon fill="black" stroke="black" points="174.32,-255.31 182.35,-248.4 171.76,-248.79 174.32,-255.31"/>
</g>
<!-- r3_node_5&#45;&gt;r3_node_4 -->
<g id="edge25" class="edge">
<title>r3_node_5&#45;&gt;r3_node_4</title>
<path fill="none" stroke="black" d="M41.2,-287.88C36.32,-277.76 30.82,-264.51 28.33,-252 25.2,-236.31 25.4,-231.73 28.33,-216 40.15,-152.53 71.67,-83.15 90.2,-46.04"/>
<polygon fill="black" stroke="black" points="93.19,-47.88 94.59,-37.37 86.94,-44.71 93.19,-47.88"/>
</g>
<!-- r3_node_25 -->
<g id="node20" class="node">
<title>r3_node_25</title>
<ellipse fill="none" stroke="black" cx="348.33" cy="-234" rx="54.93" ry="18"/>
<text text-anchor="middle" x="348.33" y="-228.95" font-family="Times,serif" font-size="14.00">r3_node_25</text>
</g>
<!-- r3_node_5&#45;&gt;r3_node_25 -->
<g id="edge24" class="edge">
<title>r3_node_5&#45;&gt;r3_node_25</title>
<path fill="none" stroke="black" d="M92.71,-295.89C139.67,-285.69 217.59,-268.42 284.33,-252 288.13,-251.07 292.05,-250.08 295.99,-249.07"/>
<polygon fill="black" stroke="black" points="296.81,-252.48 305.61,-246.58 295.05,-245.7 296.81,-252.48"/>
</g>
</g>
</svg>
