<?xml version="1.0" encoding="UTF-8" standalone="no"?>
<!DOCTYPE svg PUBLIC "-//W3C//DTD SVG 1.1//EN"
 "http://www.w3.org/Graphics/SVG/1.1/DTD/svg11.dtd">
<!-- Generated by graphviz version 12.2.1 (20241206.2353)
 -->
<!-- Pages: 1 -->
<svg width="1431pt" height="332pt"
 viewBox="0.00 0.00 1430.87 332.00" xmlns="http://www.w3.org/2000/svg" xmlns:xlink="http://www.w3.org/1999/xlink">
<g id="graph0" class="graph" transform="scale(1 1) rotate(0) translate(4 328)">
<polygon fill="white" stroke="none" points="-4,4 -4,-328 1426.87,-328 1426.87,4 -4,4"/>
<!-- r3_node_7 -->
<g id="node1" class="node">
<title>r3_node_7</title>
<ellipse fill="none" stroke="black" cx="204.93" cy="-306" rx="50.33" ry="18"/>
<text text-anchor="middle" x="204.93" y="-300.95" font-family="Times,serif" font-size="14.00">r3_node_7</text>
</g>
<!-- r3_node_28 -->
<g id="node2" class="node">
<title>r3_node_28</title>
<ellipse fill="none" stroke="black" cx="204.93" cy="-18" rx="54.93" ry="18"/>
<text text-anchor="middle" x="204.93" y="-12.95" font-family="Times,serif" font-size="14.00">r3_node_28</text>
</g>
<!-- r3_node_7&#45;&gt;r3_node_28 -->
<g id="edge1" class="edge">
<title>r3_node_7&#45;&gt;r3_node_28</title>
<path fill="none" stroke="black" d="M214.15,-288.14C231.54,-257.27 271.55,-190.58 316.93,-144 335.79,-124.65 353.73,-132.11 365.93,-108 373.16,-93.72 375.31,-84.96 365.93,-72 344.14,-41.88 304.65,-28.58 270.24,-22.84"/>
<polygon fill="black" stroke="black" points="271.17,-19.44 260.77,-21.45 270.15,-26.36 271.17,-19.44"/>
</g>
<!-- r3_node_2 -->
<g id="node3" class="node">
<title>r3_node_2</title>
<ellipse fill="none" stroke="black" cx="343.93" cy="-234" rx="50.33" ry="18"/>
<text text-anchor="middle" x="343.93" y="-228.95" font-family="Times,serif" font-size="14.00">r3_node_2</text>
</g>
<!-- r3_node_7&#45;&gt;r3_node_2 -->
<g id="edge2" class="edge">
<title>r3_node_7&#45;&gt;r3_node_2</title>
<path fill="none" stroke="black" d="M229.42,-289.81C249.53,-279.02 278.28,-264.49 302,-253.1"/>
<polygon fill="black" stroke="black" points="303.26,-256.38 310.79,-248.92 300.25,-250.05 303.26,-256.38"/>
</g>
<!-- r3_node_22 -->
<g id="node4" class="node">
<title>r3_node_22</title>
<ellipse fill="none" stroke="black" cx="301.93" cy="-90" rx="54.93" ry="18"/>
<text text-anchor="middle" x="301.93" y="-84.95" font-family="Times,serif" font-size="14.00">r3_node_22</text>
</g>
<!-- r3_node_7&#45;&gt;r3_node_22 -->
<g id="edge3" class="edge">
<title>r3_node_7&#45;&gt;r3_node_22</title>
<path fill="none" stroke="black" d="M203.83,-287.6C202.68,-256.44 204.04,-190.06 231.93,-144 239.72,-131.14 251.9,-120.32 263.93,-111.88"/>
<polygon fill="black" stroke="black" points="265.75,-114.87 272.19,-106.46 261.91,-109.02 265.75,-114.87"/>
</g>
<!-- r3_node_4 -->
<g id="node5" class="node">
<title>r3_node_4</title>
<ellipse fill="none" stroke="black" cx="462.93" cy="-234" rx="50.33" ry="18"/>
<text text-anchor="middle" x="462.93" y="-228.95" font-family="Times,serif" font-size="14.00">r3_node_4</text>
</g>
<!-- r3_node_7&#45;&gt;r3_node_4 -->
<g id="edge4" class="edge">
<title>r3_node_7&#45;&gt;r3_node_4</title>
<path fill="none" stroke="black" d="M241.98,-293.4C280.18,-282.78 341.1,-266.55 393.93,-252 399.28,-250.53 404.88,-248.97 410.5,-247.41"/>
<polygon fill="black" stroke="black" points="411.1,-250.87 419.81,-244.84 409.24,-244.12 411.1,-250.87"/>
</g>
<!-- r3_node_2&#45;&gt;r3_node_7 -->
<g id="edge5" class="edge">
<title>r3_node_2&#45;&gt;r3_node_7</title>
<path fill="none" stroke="black" d="M319.84,-249.98C299.76,-260.76 270.89,-275.36 247.05,-286.81"/>
<polygon fill="black" stroke="black" points="245.74,-283.56 238.21,-291.02 248.74,-289.89 245.74,-283.56"/>
</g>
<!-- r3_node_23 -->
<g id="node7" class="node">
<title>r3_node_23</title>
<ellipse fill="none" stroke="black" cx="610.93" cy="-18" rx="54.93" ry="18"/>
<text text-anchor="middle" x="610.93" y="-12.95" font-family="Times,serif" font-size="14.00">r3_node_23</text>
</g>
<!-- r3_node_2&#45;&gt;r3_node_23 -->
<g id="edge6" class="edge">
<title>r3_node_2&#45;&gt;r3_node_23</title>
<path fill="none" stroke="black" d="M334.02,-215.97C324.43,-197.04 313.21,-166.21 326.93,-144 345.74,-113.57 367.51,-125.1 398.93,-108 426.58,-92.95 431.39,-85.28 459.93,-72 492.32,-56.93 530.27,-43.63 560.02,-34.12"/>
<polygon fill="black" stroke="black" points="561.06,-37.47 569.55,-31.12 558.96,-30.79 561.06,-37.47"/>
</g>
<!-- r3_node_25 -->
<g id="node8" class="node">
<title>r3_node_25</title>
<ellipse fill="none" stroke="black" cx="523.93" cy="-90" rx="54.93" ry="18"/>
<text text-anchor="middle" x="523.93" y="-84.95" font-family="Times,serif" font-size="14.00">r3_node_25</text>
</g>
<!-- r3_node_2&#45;&gt;r3_node_25 -->
<g id="edge7" class="edge">
<title>r3_node_2&#45;&gt;r3_node_25</title>
<path fill="none" stroke="black" d="M337.47,-215.69C331.43,-196.23 325.42,-164.64 340.93,-144 348.85,-133.47 417.78,-115.52 468.72,-103.46"/>
<polygon fill="black" stroke="black" points="469.21,-106.95 478.14,-101.26 467.61,-100.13 469.21,-106.95"/>
</g>
<!-- r3_node_4&#45;&gt;r3_node_7 -->
<g id="edge11" class="edge">
<title>r3_node_4&#45;&gt;r3_node_7</title>
<path fill="none" stroke="black" d="M428.3,-247.42C422.84,-248.98 417.26,-250.53 411.93,-252 359.92,-266.33 300.08,-282.27 258.05,-292.89"/>
<polygon fill="black" stroke="black" points="257.27,-289.48 248.42,-295.31 258.97,-296.27 257.27,-289.48"/>
</g>
<!-- r3_node_29 -->
<g id="node6" class="node">
<title>r3_node_29</title>
<ellipse fill="none" stroke="black" cx="792.93" cy="-90" rx="54.93" ry="18"/>
<text text-anchor="middle" x="792.93" y="-84.95" font-family="Times,serif" font-size="14.00">r3_node_29</text>
</g>
<!-- r3_node_4&#45;&gt;r3_node_29 -->
<g id="edge8" class="edge">
<title>r3_node_4&#45;&gt;r3_node_29</title>
<path fill="none" stroke="black" d="M472.76,-215.87C485.5,-195.34 509.7,-161.51 539.93,-144 612.42,-102.03 643.16,-126.16 724.93,-108 729.81,-106.92 734.87,-105.74 739.93,-104.54"/>
<polygon fill="black" stroke="black" points="740.57,-107.98 749.47,-102.22 738.92,-101.18 740.57,-107.98"/>
</g>
<!-- r3_node_5 -->
<g id="node10" class="node">
<title>r3_node_5</title>
<ellipse fill="none" stroke="black" cx="399.93" cy="-162" rx="50.33" ry="18"/>
<text text-anchor="middle" x="399.93" y="-156.95" font-family="Times,serif" font-size="14.00">r3_node_5</text>
</g>
<!-- r3_node_4&#45;&gt;r3_node_5 -->
<g id="edge9" class="edge">
<title>r3_node_4&#45;&gt;r3_node_5</title>
<path fill="none" stroke="black" d="M442.88,-217.12C434.31,-208.68 424.54,-198.1 416.4,-188.55"/>
<polygon fill="black" stroke="black" points="419.21,-186.46 410.15,-180.97 413.81,-190.91 419.21,-186.46"/>
</g>
<!-- r3_node_19 -->
<g id="node11" class="node">
<title>r3_node_19</title>
<ellipse fill="none" stroke="black" cx="674.93" cy="-162" rx="54.93" ry="18"/>
<text text-anchor="middle" x="674.93" y="-156.95" font-family="Times,serif" font-size="14.00">r3_node_19</text>
</g>
<!-- r3_node_4&#45;&gt;r3_node_19 -->
<g id="edge10" class="edge">
<title>r3_node_4&#45;&gt;r3_node_19</title>
<path fill="none" stroke="black" d="M498.9,-221.13C534.1,-209.5 587.95,-191.72 626.83,-178.88"/>
<polygon fill="black" stroke="black" points="627.53,-182.34 635.93,-175.88 625.33,-175.69 627.53,-182.34"/>
</g>
<!-- r3_node_18 -->
<g id="node9" class="node">
<title>r3_node_18</title>
<ellipse fill="none" stroke="black" cx="1067.93" cy="-18" rx="54.93" ry="18"/>
<text text-anchor="middle" x="1067.93" y="-12.95" font-family="Times,serif" font-size="14.00">r3_node_18</text>
</g>
<!-- r3_node_5&#45;&gt;r3_node_4 -->
<g id="edge35" class="edge">
<title>r3_node_5&#45;&gt;r3_node_4</title>
<path fill="none" stroke="black" d="M419.94,-178.83C428.47,-187.23 438.22,-197.77 446.35,-207.31"/>
<polygon fill="black" stroke="black" points="443.53,-209.4 452.6,-214.89 448.93,-204.95 443.53,-209.4"/>
</g>
<!-- r3_node_5&#45;&gt;r3_node_25 -->
<g id="edge34" class="edge">
<title>r3_node_5&#45;&gt;r3_node_25</title>
<path fill="none" stroke="black" d="M425.93,-146.33C443.71,-136.29 467.53,-122.84 487.24,-111.71"/>
<polygon fill="black" stroke="black" points="488.81,-114.85 495.8,-106.88 485.37,-108.75 488.81,-114.85"/>
</g>
<!-- r3_node_13 -->
<g id="node12" class="node">
<title>r3_node_13</title>
<ellipse fill="none" stroke="black" cx="660.93" cy="-90" rx="54.93" ry="18"/>
<text text-anchor="middle" x="660.93" y="-84.95" font-family="Times,serif" font-size="14.00">r3_node_13</text>
</g>
<!-- r3_node_5&#45;&gt;r3_node_13 -->
<g id="edge33" class="edge">
<title>r3_node_5&#45;&gt;r3_node_13</title>
<path fill="none" stroke="black" d="M437.31,-149.6C481.59,-137.17 555.52,-117.32 606.22,-104.22"/>
<polygon fill="black" stroke="black" points="607.03,-107.63 615.84,-101.75 605.28,-100.85 607.03,-107.63"/>
</g>
<!-- r3_node_13&#45;&gt;r3_node_23 -->
<g id="edge12" class="edge">
<title>r3_node_13&#45;&gt;r3_node_23</title>
<path fill="none" stroke="black" d="M648.83,-72.05C643.06,-63.97 636.02,-54.12 629.59,-45.11"/>
<polygon fill="black" stroke="black" points="632.47,-43.12 623.81,-37.02 626.77,-47.19 632.47,-43.12"/>
</g>
<!-- r3_node_13&#45;&gt;r3_node_5 -->
<g id="edge14" class="edge">
<title>r3_node_13&#45;&gt;r3_node_5</title>
<path fill="none" stroke="black" d="M621.88,-102.87C576.64,-115.54 502.12,-135.54 452,-148.46"/>
<polygon fill="black" stroke="black" points="451.35,-145.02 442.54,-150.89 453.09,-151.8 451.35,-145.02"/>
</g>
<!-- r3_node_16 -->
<g id="node13" class="node">
<title>r3_node_16</title>
<ellipse fill="none" stroke="black" cx="432.93" cy="-18" rx="54.93" ry="18"/>
<text text-anchor="middle" x="432.93" y="-12.95" font-family="Times,serif" font-size="14.00">r3_node_16</text>
</g>
<!-- r3_node_13&#45;&gt;r3_node_16 -->
<g id="edge13" class="edge">
<title>r3_node_13&#45;&gt;r3_node_16</title>
<path fill="none" stroke="black" d="M621.74,-76.97C583.29,-65.16 524.5,-47.11 482.76,-34.3"/>
<polygon fill="black" stroke="black" points="484.03,-31.03 473.44,-31.44 481.98,-37.72 484.03,-31.03"/>
</g>
<!-- r3_node_8 -->
<g id="node14" class="node">
<title>r3_node_8</title>
<ellipse fill="none" stroke="black" cx="596.93" cy="-306" rx="50.33" ry="18"/>
<text text-anchor="middle" x="596.93" y="-300.95" font-family="Times,serif" font-size="14.00">r3_node_8</text>
</g>
<!-- r3_node_8&#45;&gt;r3_node_19 -->
<g id="edge16" class="edge">
<title>r3_node_8&#45;&gt;r3_node_19</title>
<path fill="none" stroke="black" d="M606.34,-287.87C619.69,-263.56 644.27,-218.82 660.1,-190.01"/>
<polygon fill="black" stroke="black" points="663.02,-191.97 664.76,-181.52 656.88,-188.6 663.02,-191.97"/>
</g>
<!-- r3_node_14 -->
<g id="node15" class="node">
<title>r3_node_14</title>
<ellipse fill="none" stroke="black" cx="1328.93" cy="-162" rx="54.93" ry="18"/>
<text text-anchor="middle" x="1328.93" y="-156.95" font-family="Times,serif" font-size="14.00">r3_node_14</text>
</g>
<!-- r3_node_8&#45;&gt;r3_node_14 -->
<g id="edge15" class="edge">
<title>r3_node_8&#45;&gt;r3_node_14</title>
<path fill="none" stroke="black" d="M647.43,-305.04C778.96,-304.47 1129.22,-298.5 1233.93,-252 1265.06,-238.18 1292.46,-209.79 1309.74,-188.77"/>
<polygon fill="black" stroke="black" points="1312.29,-191.18 1315.78,-181.18 1306.81,-186.83 1312.29,-191.18"/>
</g>
<!-- r3_node_24 -->
<g id="node16" class="node">
<title>r3_node_24</title>
<ellipse fill="none" stroke="black" cx="1367.93" cy="-234" rx="54.93" ry="18"/>
<text text-anchor="middle" x="1367.93" y="-228.95" font-family="Times,serif" font-size="14.00">r3_node_24</text>
</g>
<!-- r3_node_8&#45;&gt;r3_node_24 -->
<g id="edge17" class="edge">
<title>r3_node_8&#45;&gt;r3_node_24</title>
<path fill="none" stroke="black" d="M647.06,-304.07C762.67,-301.3 1056.65,-290.72 1298.93,-252 1304.5,-251.11 1310.28,-250 1316.02,-248.77"/>
<polygon fill="black" stroke="black" points="1316.48,-252.25 1325.46,-246.62 1314.93,-245.42 1316.48,-252.25"/>
</g>
<!-- r3_node_30 -->
<g id="node17" class="node">
<title>r3_node_30</title>
<ellipse fill="none" stroke="black" cx="1169.93" cy="-234" rx="54.93" ry="18"/>
<text text-anchor="middle" x="1169.93" y="-228.95" font-family="Times,serif" font-size="14.00">r3_node_30</text>
</g>
<!-- r3_node_8&#45;&gt;r3_node_30 -->
<g id="edge18" class="edge">
<title>r3_node_8&#45;&gt;r3_node_30</title>
<path fill="none" stroke="black" d="M644.49,-299.58C726.06,-290.24 897.88,-270.33 1042.93,-252 1064.35,-249.29 1087.77,-246.2 1108.61,-243.39"/>
<polygon fill="black" stroke="black" points="1108.95,-246.88 1118.39,-242.07 1108.01,-239.94 1108.95,-246.88"/>
</g>
<!-- r3_node_15 -->
<g id="node18" class="node">
<title>r3_node_15</title>
<ellipse fill="none" stroke="black" cx="64.93" cy="-18" rx="54.93" ry="18"/>
<text text-anchor="middle" x="64.93" y="-12.95" font-family="Times,serif" font-size="14.00">r3_node_15</text>
</g>
<!-- r3_node_27 -->
<g id="node19" class="node">
<title>r3_node_27</title>
<ellipse fill="none" stroke="black" cx="856.93" cy="-18" rx="54.93" ry="18"/>
<text text-anchor="middle" x="856.93" y="-12.95" font-family="Times,serif" font-size="14.00">r3_node_27</text>
</g>
<!-- r3_node_26 -->
<g id="node20" class="node">
<title>r3_node_26</title>
<ellipse fill="none" stroke="black" cx="996.93" cy="-162" rx="54.93" ry="18"/>
<text text-anchor="middle" x="996.93" y="-156.95" font-family="Times,serif" font-size="14.00">r3_node_26</text>
</g>
<!-- r3_node_1 -->
<g id="node21" class="node">
<title>r3_node_1</title>
<ellipse fill="none" stroke="black" cx="472.93" cy="-306" rx="50.33" ry="18"/>
<text text-anchor="middle" x="472.93" y="-300.95" font-family="Times,serif" font-size="14.00">r3_node_1</text>
</g>
<!-- r3_node_1&#45;&gt;r3_node_27 -->
<g id="edge20" class="edge">
<title>r3_node_1&#45;&gt;r3_node_27</title>
<path fill="none" stroke="black" d="M511.6,-294.08C520.22,-291.87 529.35,-289.71 537.93,-288 652.78,-265.15 691.43,-298.43 798.93,-252 869.15,-221.67 863.35,-175.76 932.93,-144 1015.1,-106.49 1075,-177.29 1132.93,-108 1143.2,-95.73 1143.13,-84.33 1132.93,-72 1119.36,-55.58 995.84,-36.89 918.71,-26.68"/>
<polygon fill="black" stroke="black" points="919.55,-23.26 909.18,-25.43 918.65,-30.2 919.55,-23.26"/>
</g>
<!-- r3_node_21 -->
<g id="node22" class="node">
<title>r3_node_21</title>
<ellipse fill="none" stroke="black" cx="1068.93" cy="-90" rx="54.93" ry="18"/>
<text text-anchor="middle" x="1068.93" y="-84.95" font-family="Times,serif" font-size="14.00">r3_node_21</text>
</g>
<!-- r3_node_1&#45;&gt;r3_node_21 -->
<g id="edge19" class="edge">
<title>r3_node_1&#45;&gt;r3_node_21</title>
<path fill="none" stroke="black" d="M511.22,-294.02C519.95,-291.78 529.22,-289.63 537.93,-288 677.32,-261.99 719.23,-293.1 854.93,-252 888.42,-241.86 892.28,-228.55 924.93,-216 983.3,-193.57 1020.61,-227.79 1060.93,-180 1074.79,-163.58 1075.99,-138.89 1074.18,-119.67"/>
<polygon fill="black" stroke="black" points="1077.66,-119.23 1072.9,-109.76 1070.71,-120.13 1077.66,-119.23"/>
</g>
<!-- r3_node_6 -->
<g id="node23" class="node">
<title>r3_node_6</title>
<ellipse fill="none" stroke="black" cx="983.93" cy="-234" rx="50.33" ry="18"/>
<text text-anchor="middle" x="983.93" y="-228.95" font-family="Times,serif" font-size="14.00">r3_node_6</text>
</g>
<!-- r3_node_1&#45;&gt;r3_node_6 -->
<g id="edge21" class="edge">
<title>r3_node_1&#45;&gt;r3_node_6</title>
<path fill="none" stroke="black" d="M507.55,-292.59C514.57,-290.85 521.93,-289.24 528.93,-288 696.42,-258.38 742.44,-281.62 909.93,-252 916.87,-250.77 924.15,-249.18 931.34,-247.46"/>
<polygon fill="black" stroke="black" points="932.18,-250.86 941.04,-245.06 930.5,-244.07 932.18,-250.86"/>
</g>
<!-- r3_node_6&#45;&gt;r3_node_18 -->
<g id="edge37" class="edge">
<title>r3_node_6&#45;&gt;r3_node_18</title>
<path fill="none" stroke="black" d="M1016.35,-219.92C1038.87,-210.23 1069.17,-195.98 1093.93,-180 1114.88,-166.49 1116.29,-157.97 1136.93,-144 1164.93,-125.05 1186.59,-137.01 1203.93,-108 1212.14,-94.27 1212.96,-85.21 1203.93,-72 1187.34,-47.73 1157.86,-34.57 1130.57,-27.44"/>
<polygon fill="black" stroke="black" points="1131.47,-24.05 1120.93,-25.17 1129.87,-30.87 1131.47,-24.05"/>
</g>
<!-- r3_node_6&#45;&gt;r3_node_26 -->
<g id="edge39" class="edge">
<title>r3_node_6&#45;&gt;r3_node_26</title>
<path fill="none" stroke="black" d="M987.15,-215.7C988.52,-208.32 990.15,-199.52 991.69,-191.25"/>
<polygon fill="black" stroke="black" points="995.1,-192.06 993.48,-181.59 988.21,-190.79 995.1,-192.06"/>
</g>
<!-- r3_node_6&#45;&gt;r3_node_1 -->
<g id="edge36" class="edge">
<title>r3_node_6&#45;&gt;r3_node_1</title>
<path fill="none" stroke="black" d="M949.32,-247.41C942.3,-249.15 934.94,-250.76 927.93,-252 760.44,-281.62 714.42,-258.38 546.93,-288 540,-289.23 532.72,-290.82 525.53,-292.54"/>
<polygon fill="black" stroke="black" points="524.69,-289.14 515.82,-294.94 526.37,-295.93 524.69,-289.14"/>
</g>
<!-- r3_node_20 -->
<g id="node30" class="node">
<title>r3_node_20</title>
<ellipse fill="none" stroke="black" cx="1200.93" cy="-162" rx="54.93" ry="18"/>
<text text-anchor="middle" x="1200.93" y="-156.95" font-family="Times,serif" font-size="14.00">r3_node_20</text>
</g>
<!-- r3_node_6&#45;&gt;r3_node_20 -->
<g id="edge38" class="edge">
<title>r3_node_6&#45;&gt;r3_node_20</title>
<path fill="none" stroke="black" d="M1020.25,-221.28C1056.32,-209.65 1111.85,-191.74 1151.83,-178.84"/>
<polygon fill="black" stroke="black" points="1152.78,-182.21 1161.23,-175.81 1150.63,-175.55 1152.78,-182.21"/>
</g>
<!-- r3_node_17 -->
<g id="node24" class="node">
<title>r3_node_17</title>
<ellipse fill="none" stroke="black" cx="132.93" cy="-90" rx="54.93" ry="18"/>
<text text-anchor="middle" x="132.93" y="-84.95" font-family="Times,serif" font-size="14.00">r3_node_17</text>
</g>
<!-- r3_node_3 -->
<g id="node25" class="node">
<title>r3_node_3</title>
<ellipse fill="none" stroke="black" cx="343.93" cy="-306" rx="50.33" ry="18"/>
<text text-anchor="middle" x="343.93" y="-300.95" font-family="Times,serif" font-size="14.00">r3_node_3</text>
</g>
<!-- r3_node_3&#45;&gt;r3_node_23 -->
<g id="edge23" class="edge">
<title>r3_node_3&#45;&gt;r3_node_23</title>
<path fill="none" stroke="black" d="M384.12,-294.81C433.23,-282.09 511.16,-260.91 521.93,-252 563.6,-217.54 533.63,-174.99 577.93,-144 680.39,-72.34 774.38,-201.89 856.93,-108 911.07,-46.43 766.52,-27.44 676.59,-21.59"/>
<polygon fill="black" stroke="black" points="677.07,-18.11 666.88,-21 676.65,-25.1 677.07,-18.11"/>
</g>
<!-- r3_node_3&#45;&gt;r3_node_27 -->
<g id="edge25" class="edge">
<title>r3_node_3&#45;&gt;r3_node_27</title>
<path fill="none" stroke="black" d="M384.18,-294.9C442.42,-280.23 543.62,-254.49 546.93,-252 591.5,-218.43 564.42,-174.82 610.93,-144 710.38,-78.1 798.44,-197.84 876.93,-108 891.79,-90.99 883.89,-65.32 873.98,-45.91"/>
<polygon fill="black" stroke="black" points="877.05,-44.23 869.13,-37.19 870.93,-47.63 877.05,-44.23"/>
</g>
<!-- r3_node_3&#45;&gt;r3_node_26 -->
<g id="edge24" class="edge">
<title>r3_node_3&#45;&gt;r3_node_26</title>
<path fill="none" stroke="black" d="M383.34,-294.37C393.27,-291.99 403.94,-289.67 413.93,-288 583.44,-259.65 632.76,-295.82 798.93,-252 830.42,-243.7 909.63,-206.04 957.78,-182.45"/>
<polygon fill="black" stroke="black" points="959.06,-185.72 966.49,-178.17 955.97,-179.44 959.06,-185.72"/>
</g>
<!-- r3_node_11 -->
<g id="node26" class="node">
<title>r3_node_11</title>
<ellipse fill="none" stroke="black" cx="734.93" cy="-234" rx="54.93" ry="18"/>
<text text-anchor="middle" x="734.93" y="-228.95" font-family="Times,serif" font-size="14.00">r3_node_11</text>
</g>
<!-- r3_node_3&#45;&gt;r3_node_11 -->
<g id="edge22" class="edge">
<title>r3_node_3&#45;&gt;r3_node_11</title>
<path fill="none" stroke="black" d="M380.9,-293.35C388.79,-291.46 397.09,-289.6 404.93,-288 497.54,-269.14 606.22,-252.29 672.91,-242.88"/>
<polygon fill="black" stroke="black" points="673.14,-246.39 682.56,-241.54 672.17,-239.45 673.14,-246.39"/>
</g>
<!-- r3_node_11&#45;&gt;r3_node_18 -->
<g id="edge29" class="edge">
<title>r3_node_11&#45;&gt;r3_node_18</title>
<path fill="none" stroke="black" d="M767.68,-219.12C792.32,-208.59 826.86,-193.65 856.93,-180 890.97,-164.55 897.34,-155.41 932.93,-144 1018.94,-116.43 1075,-177.29 1132.93,-108 1143.2,-95.73 1139.8,-86.45 1132.93,-72 1126.88,-59.26 1116.1,-48.57 1105.04,-40.21"/>
<polygon fill="black" stroke="black" points="1107.22,-37.46 1097.02,-34.6 1103.21,-43.2 1107.22,-37.46"/>
</g>
<!-- r3_node_11&#45;&gt;r3_node_19 -->
<g id="edge30" class="edge">
<title>r3_node_11&#45;&gt;r3_node_19</title>
<path fill="none" stroke="black" d="M720.71,-216.41C713.47,-207.95 704.5,-197.49 696.43,-188.08"/>
<polygon fill="black" stroke="black" points="699.2,-185.93 690.04,-180.62 693.89,-190.49 699.2,-185.93"/>
</g>
<!-- r3_node_11&#45;&gt;r3_node_3 -->
<g id="edge32" class="edge">
<title>r3_node_11&#45;&gt;r3_node_3</title>
<path fill="none" stroke="black" d="M686.36,-242.81C624.78,-252.2 515.78,-269.09 422.93,-288 414.75,-289.67 406.08,-291.62 397.57,-293.6"/>
<polygon fill="black" stroke="black" points="396.93,-290.15 388,-295.84 398.53,-296.96 396.93,-290.15"/>
</g>
<!-- r3_node_9 -->
<g id="node29" class="node">
<title>r3_node_9</title>
<ellipse fill="none" stroke="black" cx="797.93" cy="-162" rx="50.33" ry="18"/>
<text text-anchor="middle" x="797.93" y="-156.95" font-family="Times,serif" font-size="14.00">r3_node_9</text>
</g>
<!-- r3_node_11&#45;&gt;r3_node_9 -->
<g id="edge31" class="edge">
<title>r3_node_11&#45;&gt;r3_node_9</title>
<path fill="none" stroke="black" d="M744.31,-216.05C751.26,-207.29 760.83,-196.45 770.03,-186.86"/>
<polygon fill="black" stroke="black" points="772.35,-189.49 776.87,-179.91 767.36,-184.58 772.35,-189.49"/>
</g>
<!-- r3_node_10 -->
<g id="node27" class="node">
<title>r3_node_10</title>
<ellipse fill="none" stroke="black" cx="72.93" cy="-306" rx="54.93" ry="18"/>
<text text-anchor="middle" x="72.93" y="-300.95" font-family="Times,serif" font-size="14.00">r3_node_10</text>
</g>
<!-- r3_node_10&#45;&gt;r3_node_28 -->
<g id="edge28" class="edge">
<title>r3_node_10&#45;&gt;r3_node_28</title>
<path fill="none" stroke="black" d="M88.84,-288.58C98.2,-278.49 109.92,-265.02 118.93,-252 160.37,-192.16 175.91,-177.68 196.93,-108 202.83,-88.45 204.78,-65.48 205.28,-47.77"/>
<polygon fill="black" stroke="black" points="208.78,-48.01 205.41,-37.97 201.78,-47.92 208.78,-48.01"/>
</g>
<!-- r3_node_10&#45;&gt;r3_node_22 -->
<g id="edge27" class="edge">
<title>r3_node_10&#45;&gt;r3_node_22</title>
<path fill="none" stroke="black" d="M104.57,-290.92C122.28,-281.81 143.78,-268.56 158.93,-252 195.16,-212.41 176.41,-183.32 212.93,-144 225.79,-130.17 243.07,-118.76 258.98,-110.13"/>
<polygon fill="black" stroke="black" points="260.57,-113.25 267.84,-105.55 257.35,-107.03 260.57,-113.25"/>
</g>
<!-- r3_node_12 -->
<g id="node28" class="node">
<title>r3_node_12</title>
<ellipse fill="none" stroke="black" cx="54.93" cy="-234" rx="54.93" ry="18"/>
<text text-anchor="middle" x="54.93" y="-228.95" font-family="Times,serif" font-size="14.00">r3_node_12</text>
</g>
<!-- r3_node_10&#45;&gt;r3_node_12 -->
<g id="edge26" class="edge">
<title>r3_node_10&#45;&gt;r3_node_12</title>
<path fill="none" stroke="black" d="M62.7,-288.05C60.02,-280.68 57.49,-271.84 55.62,-263.51"/>
<polygon fill="black" stroke="black" points="59.07,-262.92 53.75,-253.76 52.2,-264.24 59.07,-262.92"/>
</g>
<!-- r3_node_12&#45;&gt;r3_node_29 -->
<g id="edge44" class="edge">
<title>r3_node_12&#45;&gt;r3_node_29</title>
<path fill="none" stroke="black" d="M108.87,-230.22C204.29,-224.59 398.5,-209.79 458.93,-180 479.23,-170 474.76,-154.25 494.93,-144 587.17,-97.11 623.53,-128.57 724.93,-108 729.9,-106.99 735.05,-105.86 740.19,-104.68"/>
<polygon fill="black" stroke="black" points="740.96,-108.09 749.88,-102.37 739.34,-101.28 740.96,-108.09"/>
</g>
<!-- r3_node_12&#45;&gt;r3_node_15 -->
<g id="edge43" class="edge">
<title>r3_node_12&#45;&gt;r3_node_15</title>
<path fill="none" stroke="black" d="M55.74,-215.85C57.45,-179.14 61.49,-92.66 63.6,-47.53"/>
<polygon fill="black" stroke="black" points="67.09,-47.9 64.06,-37.74 60.1,-47.57 67.09,-47.9"/>
</g>
<!-- r3_node_12&#45;&gt;r3_node_17 -->
<g id="edge46" class="edge">
<title>r3_node_12&#45;&gt;r3_node_17</title>
<path fill="none" stroke="black" d="M64.34,-215.87C77.69,-191.56 102.27,-146.82 118.1,-118.01"/>
<polygon fill="black" stroke="black" points="121.02,-119.97 122.76,-109.52 114.88,-116.6 121.02,-119.97"/>
</g>
<!-- r3_node_12&#45;&gt;r3_node_10 -->
<g id="edge45" class="edge">
<title>r3_node_12&#45;&gt;r3_node_10</title>
<path fill="none" stroke="black" d="M65.23,-252.1C67.89,-259.45 70.4,-268.24 72.26,-276.53"/>
<polygon fill="black" stroke="black" points="68.79,-277.05 74.12,-286.21 75.67,-275.73 68.79,-277.05"/>
</g>
<!-- r3_node_9&#45;&gt;r3_node_29 -->
<g id="edge42" class="edge">
<title>r3_node_9&#45;&gt;r3_node_29</title>
<path fill="none" stroke="black" d="M796.7,-143.7C796.18,-136.41 795.56,-127.73 794.97,-119.54"/>
<polygon fill="black" stroke="black" points="798.47,-119.34 794.26,-109.61 791.49,-119.84 798.47,-119.34"/>
</g>
<!-- r3_node_9&#45;&gt;r3_node_21 -->
<g id="edge40" class="edge">
<title>r3_node_9&#45;&gt;r3_node_21</title>
<path fill="none" stroke="black" d="M837.52,-150.43C845.6,-148.29 854.04,-146.06 861.93,-144 914.05,-130.41 973.63,-115.18 1015.45,-104.55"/>
<polygon fill="black" stroke="black" points="1016.19,-107.98 1025.02,-102.12 1014.46,-101.19 1016.19,-107.98"/>
</g>
<!-- r3_node_9&#45;&gt;r3_node_11 -->
<g id="edge41" class="edge">
<title>r3_node_9&#45;&gt;r3_node_11</title>
<path fill="none" stroke="black" d="M788.68,-179.8C781.73,-188.56 772.14,-199.43 762.92,-209.06"/>
<polygon fill="black" stroke="black" points="760.57,-206.46 756.05,-216.04 765.56,-211.37 760.57,-206.46"/>
</g>
</g>
</svg>
