<?xml version="1.0" encoding="UTF-8" standalone="no"?>
<!DOCTYPE svg PUBLIC "-//W3C//DTD SVG 1.1//EN"
 "http://www.w3.org/Graphics/SVG/1.1/DTD/svg11.dtd">
<!-- Generated by graphviz version 12.2.1 (20241206.2353)
 -->
<!-- Pages: 1 -->
<svg width="738pt" height="116pt"
 viewBox="0.00 0.00 738.26 116.00" xmlns="http://www.w3.org/2000/svg" xmlns:xlink="http://www.w3.org/1999/xlink">
<g id="graph0" class="graph" transform="scale(1 1) rotate(0) translate(4 112)">
<polygon fill="white" stroke="none" points="-4,4 -4,-112 734.26,-112 734.26,4 -4,4"/>
<!-- r1_node_15 -->
<g id="node1" class="node">
<title>r1_node_15</title>
<ellipse fill="none" stroke="black" cx="54.93" cy="-18" rx="54.93" ry="18"/>
<text text-anchor="middle" x="54.93" y="-12.95" font-family="Times,serif" font-size="14.00">r1_node_15</text>
</g>
<!-- r1_node_16 -->
<g id="node2" class="node">
<title>r1_node_16</title>
<ellipse fill="none" stroke="black" cx="118.93" cy="-90" rx="54.93" ry="18"/>
<text text-anchor="middle" x="118.93" y="-84.95" font-family="Times,serif" font-size="14.00">r1_node_16</text>
</g>
<!-- r1_node_16&#45;&gt;r1_node_15 -->
<g id="edge6" class="edge">
<title>r1_node_16&#45;&gt;r1_node_15</title>
<path fill="none" stroke="black" d="M103.77,-72.41C95.96,-63.87 86.27,-53.28 77.6,-43.79"/>
<polygon fill="black" stroke="black" points="80.34,-41.61 71.01,-36.59 75.18,-46.33 80.34,-41.61"/>
</g>
<!-- r1_node_11 -->
<g id="node3" class="node">
<title>r1_node_11</title>
<ellipse fill="none" stroke="black" cx="182.93" cy="-18" rx="54.93" ry="18"/>
<text text-anchor="middle" x="182.93" y="-12.95" font-family="Times,serif" font-size="14.00">r1_node_11</text>
</g>
<!-- r1_node_16&#45;&gt;r1_node_11 -->
<g id="edge1" class="edge">
<title>r1_node_16&#45;&gt;r1_node_11</title>
<path fill="none" stroke="black" d="M134.1,-72.41C141.91,-63.87 151.59,-53.28 160.27,-43.79"/>
<polygon fill="black" stroke="black" points="162.69,-46.33 166.85,-36.59 157.52,-41.61 162.69,-46.33"/>
</g>
<!-- r1_node_7 -->
<g id="node4" class="node">
<title>r1_node_7</title>
<ellipse fill="none" stroke="black" cx="305.93" cy="-18" rx="50.33" ry="18"/>
<text text-anchor="middle" x="305.93" y="-12.95" font-family="Times,serif" font-size="14.00">r1_node_7</text>
</g>
<!-- r1_node_16&#45;&gt;r1_node_7 -->
<g id="edge2" class="edge">
<title>r1_node_16&#45;&gt;r1_node_7</title>
<path fill="none" stroke="black" d="M154.11,-75.83C184.52,-64.45 228.65,-47.93 261.51,-35.63"/>
<polygon fill="black" stroke="black" points="262.62,-38.95 270.76,-32.17 260.17,-32.39 262.62,-38.95"/>
</g>
<!-- r1_node_14 -->
<g id="node5" class="node">
<title>r1_node_14</title>
<ellipse fill="none" stroke="black" cx="428.93" cy="-18" rx="54.93" ry="18"/>
<text text-anchor="middle" x="428.93" y="-12.95" font-family="Times,serif" font-size="14.00">r1_node_14</text>
</g>
<!-- r1_node_16&#45;&gt;r1_node_14 -->
<g id="edge3" class="edge">
<title>r1_node_16&#45;&gt;r1_node_14</title>
<path fill="none" stroke="black" d="M164.87,-79.78C214.4,-69.68 295.48,-52.7 364.93,-36 368.74,-35.09 372.66,-34.11 376.61,-33.12"/>
<polygon fill="black" stroke="black" points="377.42,-36.52 386.23,-30.64 375.67,-29.74 377.42,-36.52"/>
</g>
<!-- r1_node_13 -->
<g id="node6" class="node">
<title>r1_node_13</title>
<ellipse fill="none" stroke="black" cx="556.93" cy="-18" rx="54.93" ry="18"/>
<text text-anchor="middle" x="556.93" y="-12.95" font-family="Times,serif" font-size="14.00">r1_node_13</text>
</g>
<!-- r1_node_16&#45;&gt;r1_node_13 -->
<g id="edge4" class="edge">
<title>r1_node_16&#45;&gt;r1_node_13</title>
<path fill="none" stroke="black" d="M170.69,-83.64C243.17,-75.68 378.86,-59.15 492.93,-36 497,-35.17 501.2,-34.24 505.41,-33.25"/>
<polygon fill="black" stroke="black" points="506.14,-36.68 515.01,-30.89 504.46,-29.88 506.14,-36.68"/>
</g>
<!-- r1_node_6 -->
<g id="node7" class="node">
<title>r1_node_6</title>
<ellipse fill="none" stroke="black" cx="679.93" cy="-18" rx="50.33" ry="18"/>
<text text-anchor="middle" x="679.93" y="-12.95" font-family="Times,serif" font-size="14.00">r1_node_6</text>
</g>
<!-- r1_node_16&#45;&gt;r1_node_6 -->
<g id="edge5" class="edge">
<title>r1_node_16&#45;&gt;r1_node_6</title>
<path fill="none" stroke="black" d="M173.26,-86.39C265.85,-81.25 459.88,-67.45 620.93,-36 624.54,-35.3 628.25,-34.47 631.97,-33.57"/>
<polygon fill="black" stroke="black" points="632.77,-36.98 641.57,-31.08 631.01,-30.21 632.77,-36.98"/>
</g>
</g>
</svg>
