<?xml version="1.0" encoding="UTF-8" standalone="no"?>
<!DOCTYPE svg PUBLIC "-//W3C//DTD SVG 1.1//EN"
 "http://www.w3.org/Graphics/SVG/1.1/DTD/svg11.dtd">
<!-- Generated by graphviz version 12.2.1 (20241206.2353)
 -->
<!-- Pages: 1 -->
<svg width="468pt" height="260pt"
 viewBox="0.00 0.00 467.87 260.00" xmlns="http://www.w3.org/2000/svg" xmlns:xlink="http://www.w3.org/1999/xlink">
<g id="graph0" class="graph" transform="scale(1 1) rotate(0) translate(4 256)">
<polygon fill="white" stroke="none" points="-4,4 -4,-256 463.87,-256 463.87,4 -4,4"/>
<!-- r3_node_29 -->
<g id="node1" class="node">
<title>r3_node_29</title>
<ellipse fill="none" stroke="black" cx="54.93" cy="-90" rx="54.93" ry="18"/>
<text text-anchor="middle" x="54.93" y="-84.95" font-family="Times,serif" font-size="14.00">r3_node_29</text>
</g>
<!-- r3_node_6 -->
<g id="node2" class="node">
<title>r3_node_6</title>
<ellipse fill="none" stroke="black" cx="123.93" cy="-18" rx="50.33" ry="18"/>
<text text-anchor="middle" x="123.93" y="-12.95" font-family="Times,serif" font-size="14.00">r3_node_6</text>
</g>
<!-- r3_node_12 -->
<g id="node3" class="node">
<title>r3_node_12</title>
<ellipse fill="none" stroke="black" cx="118.93" cy="-234" rx="54.93" ry="18"/>
<text text-anchor="middle" x="118.93" y="-228.95" font-family="Times,serif" font-size="14.00">r3_node_12</text>
</g>
<!-- r3_node_12&#45;&gt;r3_node_29 -->
<g id="edge3" class="edge">
<title>r3_node_12&#45;&gt;r3_node_29</title>
<path fill="none" stroke="black" d="M111.21,-215.87C100.31,-191.67 80.27,-147.21 67.28,-118.39"/>
<polygon fill="black" stroke="black" points="70.6,-117.25 63.3,-109.57 64.22,-120.12 70.6,-117.25"/>
</g>
<!-- r3_node_17 -->
<g id="node4" class="node">
<title>r3_node_17</title>
<ellipse fill="none" stroke="black" cx="182.93" cy="-90" rx="54.93" ry="18"/>
<text text-anchor="middle" x="182.93" y="-84.95" font-family="Times,serif" font-size="14.00">r3_node_17</text>
</g>
<!-- r3_node_12&#45;&gt;r3_node_17 -->
<g id="edge1" class="edge">
<title>r3_node_12&#45;&gt;r3_node_17</title>
<path fill="none" stroke="black" d="M126.65,-215.87C137.56,-191.67 157.6,-147.21 170.59,-118.39"/>
<polygon fill="black" stroke="black" points="173.65,-120.12 174.56,-109.57 167.26,-117.25 173.65,-120.12"/>
</g>
<!-- r3_node_15 -->
<g id="node5" class="node">
<title>r3_node_15</title>
<ellipse fill="none" stroke="black" cx="276.93" cy="-162" rx="54.93" ry="18"/>
<text text-anchor="middle" x="276.93" y="-156.95" font-family="Times,serif" font-size="14.00">r3_node_15</text>
</g>
<!-- r3_node_12&#45;&gt;r3_node_15 -->
<g id="edge2" class="edge">
<title>r3_node_12&#45;&gt;r3_node_15</title>
<path fill="none" stroke="black" d="M146.81,-218.15C170.22,-207.17 203.98,-192.17 231.29,-180.59"/>
<polygon fill="black" stroke="black" points="232.54,-183.86 240.4,-176.76 229.82,-177.41 232.54,-183.86"/>
</g>
<!-- r3_node_10 -->
<g id="node6" class="node">
<title>r3_node_10</title>
<ellipse fill="none" stroke="black" cx="404.93" cy="-162" rx="54.93" ry="18"/>
<text text-anchor="middle" x="404.93" y="-156.95" font-family="Times,serif" font-size="14.00">r3_node_10</text>
</g>
<!-- r3_node_12&#45;&gt;r3_node_10 -->
<g id="edge4" class="edge">
<title>r3_node_12&#45;&gt;r3_node_10</title>
<path fill="none" stroke="black" d="M162.82,-222.87C207.66,-212.43 279.27,-195.55 340.93,-180 344.67,-179.06 348.53,-178.07 352.4,-177.07"/>
<polygon fill="black" stroke="black" points="353.06,-180.51 361.85,-174.6 351.29,-173.74 353.06,-180.51"/>
</g>
<!-- r3_node_15&#45;&gt;r3_node_12 -->
<g id="edge6" class="edge">
<title>r3_node_15&#45;&gt;r3_node_12</title>
<path fill="none" stroke="black" d="M248.89,-177.93C225.47,-188.91 191.79,-203.87 164.54,-215.43"/>
<polygon fill="black" stroke="black" points="163.32,-212.14 155.46,-219.25 166.03,-218.6 163.32,-212.14"/>
</g>
<!-- r3_node_20 -->
<g id="node7" class="node">
<title>r3_node_20</title>
<ellipse fill="none" stroke="black" cx="310.93" cy="-90" rx="54.93" ry="18"/>
<text text-anchor="middle" x="310.93" y="-84.95" font-family="Times,serif" font-size="14.00">r3_node_20</text>
</g>
<!-- r3_node_15&#45;&gt;r3_node_20 -->
<g id="edge5" class="edge">
<title>r3_node_15&#45;&gt;r3_node_20</title>
<path fill="none" stroke="black" d="M279.42,-143.7C282.45,-135.78 286.87,-126.23 291.52,-117.44"/>
<polygon fill="black" stroke="black" points="294.45,-119.38 296.28,-108.94 288.34,-115.96 294.45,-119.38"/>
</g>
<!-- r3_node_20&#45;&gt;r3_node_6 -->
<g id="edge10" class="edge">
<title>r3_node_20&#45;&gt;r3_node_6</title>
<path fill="none" stroke="black" d="M275.76,-75.83C245.34,-64.45 201.21,-47.93 168.36,-35.63"/>
<polygon fill="black" stroke="black" points="169.7,-32.39 159.11,-32.17 167.25,-38.95 169.7,-32.39"/>
</g>
<!-- r3_node_20&#45;&gt;r3_node_15 -->
<g id="edge8" class="edge">
<title>r3_node_20&#45;&gt;r3_node_15</title>
<path fill="none" stroke="black" d="M308.39,-108.45C305.36,-116.36 300.94,-125.88 296.31,-134.63"/>
<polygon fill="black" stroke="black" points="293.4,-132.65 291.57,-143.09 299.51,-136.07 293.4,-132.65"/>
</g>
<!-- r3_node_18 -->
<g id="node8" class="node">
<title>r3_node_18</title>
<ellipse fill="none" stroke="black" cx="246.93" cy="-18" rx="54.93" ry="18"/>
<text text-anchor="middle" x="246.93" y="-12.95" font-family="Times,serif" font-size="14.00">r3_node_18</text>
</g>
<!-- r3_node_20&#45;&gt;r3_node_18 -->
<g id="edge7" class="edge">
<title>r3_node_20&#45;&gt;r3_node_18</title>
<path fill="none" stroke="black" d="M295.77,-72.41C287.96,-63.87 278.27,-53.28 269.6,-43.79"/>
<polygon fill="black" stroke="black" points="272.34,-41.61 263.01,-36.59 267.18,-46.33 272.34,-41.61"/>
</g>
<!-- r3_node_14 -->
<g id="node9" class="node">
<title>r3_node_14</title>
<ellipse fill="none" stroke="black" cx="374.93" cy="-18" rx="54.93" ry="18"/>
<text text-anchor="middle" x="374.93" y="-12.95" font-family="Times,serif" font-size="14.00">r3_node_14</text>
</g>
<!-- r3_node_20&#45;&gt;r3_node_14 -->
<g id="edge9" class="edge">
<title>r3_node_20&#45;&gt;r3_node_14</title>
<path fill="none" stroke="black" d="M326.1,-72.41C333.91,-63.87 343.59,-53.28 352.27,-43.79"/>
<polygon fill="black" stroke="black" points="354.69,-46.33 358.85,-36.59 349.52,-41.61 354.69,-46.33"/>
</g>
</g>
</svg>
