<?xml version="1.0" encoding="UTF-8" standalone="no"?>
<!DOCTYPE svg PUBLIC "-//W3C//DTD SVG 1.1//EN"
 "http://www.w3.org/Graphics/SVG/1.1/DTD/svg11.dtd">
<!-- Generated by graphviz version 12.2.1 (20241206.2353)
 -->
<!-- Pages: 1 -->
<svg width="1130pt" height="476pt"
 viewBox="0.00 0.00 1130.33 476.00" xmlns="http://www.w3.org/2000/svg" xmlns:xlink="http://www.w3.org/1999/xlink">
<g id="graph0" class="graph" transform="scale(1 1) rotate(0) translate(4 472)">
<polygon fill="white" stroke="none" points="-4,4 -4,-472 1126.33,-472 1126.33,4 -4,4"/>
<!-- r1_node_15 -->
<g id="node1" class="node">
<title>r1_node_15</title>
<ellipse fill="none" stroke="black" cx="64.93" cy="-450" rx="54.93" ry="18"/>
<text text-anchor="middle" x="64.93" y="-444.95" font-family="Times,serif" font-size="14.00">r1_node_15</text>
</g>
<!-- r1_node_5 -->
<g id="node2" class="node">
<title>r1_node_5</title>
<ellipse fill="none" stroke="black" cx="119.93" cy="-378" rx="50.33" ry="18"/>
<text text-anchor="middle" x="119.93" y="-372.95" font-family="Times,serif" font-size="14.00">r1_node_5</text>
</g>
<!-- r1_node_15&#45;&gt;r1_node_5 -->
<g id="edge1" class="edge">
<title>r1_node_15&#45;&gt;r1_node_5</title>
<path fill="none" stroke="black" d="M72.61,-431.7C78.39,-423.23 86.33,-412.89 94.12,-403.61"/>
<polygon fill="black" stroke="black" points="96.56,-406.14 100.47,-396.29 91.27,-401.55 96.56,-406.14"/>
</g>
<!-- r1_node_19 -->
<g id="node3" class="node">
<title>r1_node_19</title>
<ellipse fill="none" stroke="black" cx="393.93" cy="-18" rx="54.93" ry="18"/>
<text text-anchor="middle" x="393.93" y="-12.95" font-family="Times,serif" font-size="14.00">r1_node_19</text>
</g>
<!-- r1_node_15&#45;&gt;r1_node_19 -->
<g id="edge2" class="edge">
<title>r1_node_15&#45;&gt;r1_node_19</title>
<path fill="none" stroke="black" d="M95.73,-434.75C146.87,-411.15 245.32,-365.94 261.93,-360 378.07,-318.47 409.25,-313.42 529.93,-288 632.9,-266.32 666.01,-290.51 763.93,-252 845.29,-220.01 881.81,-193.92 897.93,-108 900.88,-92.27 908.64,-83.89 897.93,-72 890.63,-63.89 591.74,-36.5 457.76,-24.6"/>
<polygon fill="black" stroke="black" points="458.25,-21.13 447.98,-23.73 457.63,-28.1 458.25,-21.13"/>
</g>
<!-- r1_node_17 -->
<g id="node4" class="node">
<title>r1_node_17</title>
<ellipse fill="none" stroke="black" cx="54.93" cy="-162" rx="54.93" ry="18"/>
<text text-anchor="middle" x="54.93" y="-156.95" font-family="Times,serif" font-size="14.00">r1_node_17</text>
</g>
<!-- r1_node_15&#45;&gt;r1_node_17 -->
<g id="edge3" class="edge">
<title>r1_node_15&#45;&gt;r1_node_17</title>
<path fill="none" stroke="black" d="M55.6,-431.83C53.56,-421.46 52.54,-407.98 51.93,-396 48.21,-322.3 46.74,-235.37 49.47,-191.46"/>
<polygon fill="black" stroke="black" points="52.93,-192.01 50.23,-181.77 45.95,-191.46 52.93,-192.01"/>
</g>
<!-- r1_node_5&#45;&gt;r1_node_15 -->
<g id="edge43" class="edge">
<title>r1_node_5&#45;&gt;r1_node_15</title>
<path fill="none" stroke="black" d="M112.38,-396.12C106.61,-404.59 98.66,-414.96 90.85,-424.26"/>
<polygon fill="black" stroke="black" points="88.38,-421.77 84.48,-431.62 93.68,-426.35 88.38,-421.77"/>
</g>
<!-- r1_node_5&#45;&gt;r1_node_19 -->
<g id="edge41" class="edge">
<title>r1_node_5&#45;&gt;r1_node_19</title>
<path fill="none" stroke="black" d="M159.52,-366.61C193.25,-357.2 242.68,-342.05 283.93,-324 313.83,-310.92 316.97,-298.31 347.93,-288 561.18,-217.03 669.47,-324.09 841.93,-180 869.86,-156.67 871.99,-143.28 880.93,-108 884.86,-92.49 891.62,-83.91 880.93,-72 873.93,-64.19 588.47,-36.94 457.91,-24.85"/>
<polygon fill="black" stroke="black" points="458.31,-21.37 448.03,-23.94 457.67,-28.34 458.31,-21.37"/>
</g>
<!-- r1_node_11 -->
<g id="node15" class="node">
<title>r1_node_11</title>
<ellipse fill="none" stroke="black" cx="219.93" cy="-306" rx="54.93" ry="18"/>
<text text-anchor="middle" x="219.93" y="-300.95" font-family="Times,serif" font-size="14.00">r1_node_11</text>
</g>
<!-- r1_node_5&#45;&gt;r1_node_11 -->
<g id="edge42" class="edge">
<title>r1_node_5&#45;&gt;r1_node_11</title>
<path fill="none" stroke="black" d="M137.33,-360.76C150.09,-351.07 167.7,-338.64 183.43,-328.17"/>
<polygon fill="black" stroke="black" points="185.21,-331.19 191.66,-322.78 181.38,-325.33 185.21,-331.19"/>
</g>
<!-- r1_node_17&#45;&gt;r1_node_15 -->
<g id="edge38" class="edge">
<title>r1_node_17&#45;&gt;r1_node_15</title>
<path fill="none" stroke="black" d="M59.83,-180.26C64.49,-218.91 65.86,-315.38 69.93,-396 70.34,-403.96 70.92,-412.57 71.18,-420.5"/>
<polygon fill="black" stroke="black" points="67.68,-420.33 71.23,-430.31 74.68,-420.29 67.68,-420.33"/>
</g>
<!-- r1_node_12 -->
<g id="node5" class="node">
<title>r1_node_12</title>
<ellipse fill="none" stroke="black" cx="58.93" cy="-18" rx="54.93" ry="18"/>
<text text-anchor="middle" x="58.93" y="-12.95" font-family="Times,serif" font-size="14.00">r1_node_12</text>
</g>
<!-- r1_node_17&#45;&gt;r1_node_12 -->
<g id="edge39" class="edge">
<title>r1_node_17&#45;&gt;r1_node_12</title>
<path fill="none" stroke="black" d="M50.81,-143.59C48.98,-119.61 49.9,-76.14 52.61,-47.42"/>
<polygon fill="black" stroke="black" points="56.07,-47.94 53.7,-37.62 49.11,-47.16 56.07,-47.94"/>
</g>
<!-- r1_node_8 -->
<g id="node13" class="node">
<title>r1_node_8</title>
<ellipse fill="none" stroke="black" cx="408.93" cy="-234" rx="50.33" ry="18"/>
<text text-anchor="middle" x="408.93" y="-228.95" font-family="Times,serif" font-size="14.00">r1_node_8</text>
</g>
<!-- r1_node_17&#45;&gt;r1_node_8 -->
<g id="edge40" class="edge">
<title>r1_node_17&#45;&gt;r1_node_8</title>
<path fill="none" stroke="black" d="M102.39,-171.48C168.39,-184 287.27,-207.47 356.04,-221.52"/>
<polygon fill="black" stroke="black" points="355.05,-224.89 365.55,-223.47 356.46,-218.04 355.05,-224.89"/>
</g>
<!-- r1_node_13 -->
<g id="node18" class="node">
<title>r1_node_13</title>
<ellipse fill="none" stroke="black" cx="275.93" cy="-90" rx="54.93" ry="18"/>
<text text-anchor="middle" x="275.93" y="-84.95" font-family="Times,serif" font-size="14.00">r1_node_13</text>
</g>
<!-- r1_node_17&#45;&gt;r1_node_13 -->
<g id="edge37" class="edge">
<title>r1_node_17&#45;&gt;r1_node_13</title>
<path fill="none" stroke="black" d="M90.6,-148C126.82,-135.97 183.1,-118.12 224.2,-105.61"/>
<polygon fill="black" stroke="black" points="225.08,-109 233.64,-102.75 223.06,-102.3 225.08,-109"/>
</g>
<!-- r1_node_12&#45;&gt;r1_node_17 -->
<g id="edge4" class="edge">
<title>r1_node_12&#45;&gt;r1_node_17</title>
<path fill="none" stroke="black" d="M63.03,-36.11C64.88,-59.92 63.98,-103.37 61.3,-132.22"/>
<polygon fill="black" stroke="black" points="57.83,-131.76 60.21,-142.08 64.78,-132.53 57.83,-131.76"/>
</g>
<!-- r1_node_3 -->
<g id="node6" class="node">
<title>r1_node_3</title>
<ellipse fill="none" stroke="black" cx="638.93" cy="-90" rx="50.33" ry="18"/>
<text text-anchor="middle" x="638.93" y="-84.95" font-family="Times,serif" font-size="14.00">r1_node_3</text>
</g>
<!-- r1_node_18 -->
<g id="node7" class="node">
<title>r1_node_18</title>
<ellipse fill="none" stroke="black" cx="647.93" cy="-18" rx="54.93" ry="18"/>
<text text-anchor="middle" x="647.93" y="-12.95" font-family="Times,serif" font-size="14.00">r1_node_18</text>
</g>
<!-- r1_node_3&#45;&gt;r1_node_18 -->
<g id="edge5" class="edge">
<title>r1_node_3&#45;&gt;r1_node_18</title>
<path fill="none" stroke="black" d="M641.16,-71.7C642.11,-64.32 643.24,-55.52 644.3,-47.25"/>
<polygon fill="black" stroke="black" points="647.74,-47.97 645.54,-37.61 640.8,-47.08 647.74,-47.97"/>
</g>
<!-- r1_node_20 -->
<g id="node8" class="node">
<title>r1_node_20</title>
<ellipse fill="none" stroke="black" cx="204.93" cy="-18" rx="54.93" ry="18"/>
<text text-anchor="middle" x="204.93" y="-12.95" font-family="Times,serif" font-size="14.00">r1_node_20</text>
</g>
<!-- r1_node_3&#45;&gt;r1_node_20 -->
<g id="edge6" class="edge">
<title>r1_node_3&#45;&gt;r1_node_20</title>
<path fill="none" stroke="black" d="M598.7,-78.85C588.38,-76.43 577.28,-73.97 566.93,-72 510.66,-61.26 353.93,-39.34 266.27,-27.33"/>
<polygon fill="black" stroke="black" points="266.78,-23.86 256.4,-25.98 265.83,-30.8 266.78,-23.86"/>
</g>
<!-- r1_node_4 -->
<g id="node9" class="node">
<title>r1_node_4</title>
<ellipse fill="none" stroke="black" cx="509.93" cy="-162" rx="50.33" ry="18"/>
<text text-anchor="middle" x="509.93" y="-156.95" font-family="Times,serif" font-size="14.00">r1_node_4</text>
</g>
<!-- r1_node_3&#45;&gt;r1_node_4 -->
<g id="edge7" class="edge">
<title>r1_node_3&#45;&gt;r1_node_4</title>
<path fill="none" stroke="black" d="M616.38,-106.33C598.18,-116.9 572.3,-131 550.56,-142.24"/>
<polygon fill="black" stroke="black" points="549.25,-138.98 541.94,-146.65 552.44,-145.21 549.25,-138.98"/>
</g>
<!-- r1_node_4&#45;&gt;r1_node_19 -->
<g id="edge35" class="edge">
<title>r1_node_4&#45;&gt;r1_node_19</title>
<path fill="none" stroke="black" d="M557.73,-155.72C626.43,-146.26 740.4,-122.51 697.93,-72 682.59,-53.75 541.51,-35.24 457.04,-25.67"/>
<polygon fill="black" stroke="black" points="457.6,-22.21 447.27,-24.58 456.82,-29.17 457.6,-22.21"/>
</g>
<!-- r1_node_4&#45;&gt;r1_node_3 -->
<g id="edge36" class="edge">
<title>r1_node_4&#45;&gt;r1_node_3</title>
<path fill="none" stroke="black" d="M532.54,-145.64C550.74,-135.08 576.59,-120.99 598.3,-109.76"/>
<polygon fill="black" stroke="black" points="599.61,-113.03 606.92,-105.36 596.42,-106.79 599.61,-113.03"/>
</g>
<!-- r1_node_4&#45;&gt;r1_node_8 -->
<g id="edge34" class="edge">
<title>r1_node_4&#45;&gt;r1_node_8</title>
<path fill="none" stroke="black" d="M492.46,-179.12C479.32,-189 461.08,-201.75 444.93,-212.36"/>
<polygon fill="black" stroke="black" points="443.48,-209.13 436.99,-217.5 447.29,-215 443.48,-209.13"/>
</g>
<!-- r1_node_14 -->
<g id="node10" class="node">
<title>r1_node_14</title>
<ellipse fill="none" stroke="black" cx="228.93" cy="-450" rx="54.93" ry="18"/>
<text text-anchor="middle" x="228.93" y="-444.95" font-family="Times,serif" font-size="14.00">r1_node_14</text>
</g>
<!-- r1_node_14&#45;&gt;r1_node_19 -->
<g id="edge10" class="edge">
<title>r1_node_14&#45;&gt;r1_node_19</title>
<path fill="none" stroke="black" d="M269.35,-437.54C300.34,-428.11 343.79,-413.48 379.93,-396 406.91,-382.96 409.5,-372.05 436.93,-360 549.07,-310.75 583.41,-314.72 702.93,-288 792.36,-268.01 827.67,-299.66 905.93,-252 966.22,-215.29 967.11,-178.35 972.93,-108 974.25,-92.05 983.72,-83.82 972.93,-72 971.85,-70.82 608.11,-38.16 457.78,-24.71"/>
<polygon fill="black" stroke="black" points="458.26,-21.23 447.99,-23.83 457.64,-28.21 458.26,-21.23"/>
</g>
<!-- r1_node_14&#45;&gt;r1_node_18 -->
<g id="edge9" class="edge">
<title>r1_node_14&#45;&gt;r1_node_18</title>
<path fill="none" stroke="black" d="M270.15,-437.65C277.71,-435.69 285.54,-433.72 292.93,-432 667.16,-344.82 1005.1,-546.68 1119.93,-180 1127.27,-156.57 1114.26,-74.34 1111.93,-72 1084.31,-44.29 834.55,-28.24 713.34,-22.01"/>
<polygon fill="black" stroke="black" points="713.7,-18.53 703.54,-21.52 713.35,-25.52 713.7,-18.53"/>
</g>
<!-- r1_node_2 -->
<g id="node11" class="node">
<title>r1_node_2</title>
<ellipse fill="none" stroke="black" cx="320.93" cy="-378" rx="50.33" ry="18"/>
<text text-anchor="middle" x="320.93" y="-372.95" font-family="Times,serif" font-size="14.00">r1_node_2</text>
</g>
<!-- r1_node_14&#45;&gt;r1_node_2 -->
<g id="edge8" class="edge">
<title>r1_node_14&#45;&gt;r1_node_2</title>
<path fill="none" stroke="black" d="M244.9,-432.41C256.49,-422.79 272.39,-410.58 286.72,-400.26"/>
<polygon fill="black" stroke="black" points="288.47,-403.31 294.61,-394.68 284.43,-397.6 288.47,-403.31"/>
</g>
<!-- r1_node_2&#45;&gt;r1_node_20 -->
<g id="edge23" class="edge">
<title>r1_node_2&#45;&gt;r1_node_20</title>
<path fill="none" stroke="black" d="M272.48,-372.83C236.09,-367.27 187.33,-354.29 155.93,-324 131.45,-300.38 135.8,-285.51 129.93,-252 121.21,-202.16 125.83,-174.84 165.93,-144 228.53,-95.86 290.07,-169.24 339.93,-108 350.04,-95.59 348.95,-85.22 339.93,-72 323.48,-47.86 294.21,-34.72 267.13,-27.56"/>
<polygon fill="black" stroke="black" points="268.11,-24.2 257.57,-25.28 266.48,-31 268.11,-24.2"/>
</g>
<!-- r1_node_2&#45;&gt;r1_node_14 -->
<g id="edge24" class="edge">
<title>r1_node_2&#45;&gt;r1_node_14</title>
<path fill="none" stroke="black" d="M305.22,-395.38C293.76,-404.91 277.98,-417.03 263.69,-427.34"/>
<polygon fill="black" stroke="black" points="261.94,-424.29 255.81,-432.94 265.99,-430 261.94,-424.29"/>
</g>
<!-- r1_node_7 -->
<g id="node12" class="node">
<title>r1_node_7</title>
<ellipse fill="none" stroke="black" cx="713.93" cy="-162" rx="50.33" ry="18"/>
<text text-anchor="middle" x="713.93" y="-156.95" font-family="Times,serif" font-size="14.00">r1_node_7</text>
</g>
<!-- r1_node_7&#45;&gt;r1_node_18 -->
<g id="edge13" class="edge">
<title>r1_node_7&#45;&gt;r1_node_18</title>
<path fill="none" stroke="black" d="M757.89,-152.75C813.12,-140.43 896.92,-114.05 863.93,-72 845.17,-48.07 767.73,-33.53 710.92,-25.87"/>
<polygon fill="black" stroke="black" points="711.73,-22.45 701.36,-24.63 710.83,-29.39 711.73,-22.45"/>
</g>
<!-- r1_node_7&#45;&gt;r1_node_8 -->
<g id="edge11" class="edge">
<title>r1_node_7&#45;&gt;r1_node_8</title>
<path fill="none" stroke="black" d="M674.04,-173.29C620.02,-186.23 523.67,-208.35 463.15,-221.73"/>
<polygon fill="black" stroke="black" points="462.4,-218.31 453.39,-223.88 463.91,-225.15 462.4,-218.31"/>
</g>
<!-- r1_node_10 -->
<g id="node14" class="node">
<title>r1_node_10</title>
<ellipse fill="none" stroke="black" cx="799.93" cy="-90" rx="54.93" ry="18"/>
<text text-anchor="middle" x="799.93" y="-84.95" font-family="Times,serif" font-size="14.00">r1_node_10</text>
</g>
<!-- r1_node_7&#45;&gt;r1_node_10 -->
<g id="edge12" class="edge">
<title>r1_node_7&#45;&gt;r1_node_10</title>
<path fill="none" stroke="black" d="M728.47,-144.41C738.92,-135.08 753.21,-123.31 766.33,-113.2"/>
<polygon fill="black" stroke="black" points="768.1,-116.25 773.95,-107.42 763.87,-110.67 768.1,-116.25"/>
</g>
<!-- r1_node_8&#45;&gt;r1_node_17 -->
<g id="edge31" class="edge">
<title>r1_node_8&#45;&gt;r1_node_17</title>
<path fill="none" stroke="black" d="M364.55,-225.11C300.22,-212.93 181.34,-189.48 111.04,-175.13"/>
<polygon fill="black" stroke="black" points="111.74,-171.71 101.25,-173.13 110.34,-178.56 111.74,-171.71"/>
</g>
<!-- r1_node_8&#45;&gt;r1_node_20 -->
<g id="edge26" class="edge">
<title>r1_node_8&#45;&gt;r1_node_20</title>
<path fill="none" stroke="black" d="M418,-215.97C436.9,-179.35 477.3,-94.6 458.93,-72 446.76,-57.03 337.11,-38.36 265.91,-27.64"/>
<polygon fill="black" stroke="black" points="266.74,-24.23 256.33,-26.22 265.71,-31.15 266.74,-24.23"/>
</g>
<!-- r1_node_8&#45;&gt;r1_node_4 -->
<g id="edge28" class="edge">
<title>r1_node_8&#45;&gt;r1_node_4</title>
<path fill="none" stroke="black" d="M426.56,-216.76C439.64,-206.93 457.74,-194.29 473.78,-183.74"/>
<polygon fill="black" stroke="black" points="475.69,-186.68 482.18,-178.31 471.88,-180.8 475.69,-186.68"/>
</g>
<!-- r1_node_8&#45;&gt;r1_node_7 -->
<g id="edge27" class="edge">
<title>r1_node_8&#45;&gt;r1_node_7</title>
<path fill="none" stroke="black" d="M448.98,-222.67C503.15,-209.7 599.67,-187.54 660.12,-174.18"/>
<polygon fill="black" stroke="black" points="660.84,-177.6 669.86,-172.04 659.34,-170.77 660.84,-177.6"/>
</g>
<!-- r1_node_8&#45;&gt;r1_node_11 -->
<g id="edge30" class="edge">
<title>r1_node_8&#45;&gt;r1_node_11</title>
<path fill="none" stroke="black" d="M377.98,-248.49C348.35,-260.06 303.37,-276.75 268.91,-289"/>
<polygon fill="black" stroke="black" points="267.81,-285.67 259.55,-292.3 270.14,-292.28 267.81,-285.67"/>
</g>
<!-- r1_node_9 -->
<g id="node19" class="node">
<title>r1_node_9</title>
<ellipse fill="none" stroke="black" cx="224.93" cy="-162" rx="50.33" ry="18"/>
<text text-anchor="middle" x="224.93" y="-156.95" font-family="Times,serif" font-size="14.00">r1_node_9</text>
</g>
<!-- r1_node_8&#45;&gt;r1_node_9 -->
<g id="edge29" class="edge">
<title>r1_node_8&#45;&gt;r1_node_9</title>
<path fill="none" stroke="black" d="M372.5,-221.13C341.74,-210.09 297.87,-193.49 265.9,-180.86"/>
<polygon fill="black" stroke="black" points="267.54,-177.74 256.96,-177.3 264.95,-184.25 267.54,-177.74"/>
</g>
<!-- r1_node_10&#45;&gt;r1_node_19 -->
<g id="edge33" class="edge">
<title>r1_node_10&#45;&gt;r1_node_19</title>
<path fill="none" stroke="black" d="M758.1,-78.09C749.17,-75.93 739.76,-73.78 730.93,-72 635.43,-52.76 523.53,-36.37 455.73,-27.1"/>
<polygon fill="black" stroke="black" points="456.3,-23.65 445.92,-25.77 455.36,-30.58 456.3,-23.65"/>
</g>
<!-- r1_node_10&#45;&gt;r1_node_7 -->
<g id="edge32" class="edge">
<title>r1_node_10&#45;&gt;r1_node_7</title>
<path fill="none" stroke="black" d="M785.35,-107.63C774.81,-117.04 760.36,-128.93 747.15,-139.1"/>
<polygon fill="black" stroke="black" points="745.35,-136.08 739.48,-144.9 749.57,-141.66 745.35,-136.08"/>
</g>
<!-- r1_node_11&#45;&gt;r1_node_5 -->
<g id="edge16" class="edge">
<title>r1_node_11&#45;&gt;r1_node_5</title>
<path fill="none" stroke="black" d="M202.37,-323.37C189.5,-333.14 171.78,-345.63 156.02,-356.11"/>
<polygon fill="black" stroke="black" points="154.23,-353.09 147.78,-361.5 158.06,-358.95 154.23,-353.09"/>
</g>
<!-- r1_node_11&#45;&gt;r1_node_19 -->
<g id="edge18" class="edge">
<title>r1_node_11&#45;&gt;r1_node_19</title>
<path fill="none" stroke="black" d="M265.25,-295.62C315.02,-285.24 397.27,-267.89 467.93,-252 650.65,-210.92 782.35,-276.57 863.93,-108 870.9,-93.6 874.6,-83.93 863.93,-72 857.22,-64.49 584.26,-37.31 457.46,-25.06"/>
<polygon fill="black" stroke="black" points="457.82,-21.58 447.53,-24.11 457.15,-28.55 457.82,-21.58"/>
</g>
<!-- r1_node_11&#45;&gt;r1_node_18 -->
<g id="edge17" class="edge">
<title>r1_node_11&#45;&gt;r1_node_18</title>
<path fill="none" stroke="black" d="M272.81,-300.74C406.71,-288.99 754.7,-252.1 841.93,-180 881.39,-147.39 913.88,-111.99 881.93,-72 861.01,-45.8 773.87,-31.6 712.07,-24.66"/>
<polygon fill="black" stroke="black" points="712.67,-21.2 702.35,-23.61 711.91,-28.16 712.67,-21.2"/>
</g>
<!-- r1_node_11&#45;&gt;r1_node_8 -->
<g id="edge15" class="edge">
<title>r1_node_11&#45;&gt;r1_node_8</title>
<path fill="none" stroke="black" d="M252.2,-291C282.32,-279.27 327.45,-262.53 361.61,-250.41"/>
<polygon fill="black" stroke="black" points="362.59,-253.78 370.86,-247.16 360.27,-247.18 362.59,-253.78"/>
</g>
<!-- r1_node_6 -->
<g id="node16" class="node">
<title>r1_node_6</title>
<ellipse fill="none" stroke="black" cx="188.93" cy="-234" rx="50.33" ry="18"/>
<text text-anchor="middle" x="188.93" y="-228.95" font-family="Times,serif" font-size="14.00">r1_node_6</text>
</g>
<!-- r1_node_11&#45;&gt;r1_node_6 -->
<g id="edge14" class="edge">
<title>r1_node_11&#45;&gt;r1_node_6</title>
<path fill="none" stroke="black" d="M206.55,-288.05C202.41,-280.52 198.14,-271.44 194.68,-262.94"/>
<polygon fill="black" stroke="black" points="198,-261.82 191.2,-253.69 191.45,-264.28 198,-261.82"/>
</g>
<!-- r1_node_6&#45;&gt;r1_node_11 -->
<g id="edge25" class="edge">
<title>r1_node_6&#45;&gt;r1_node_11</title>
<path fill="none" stroke="black" d="M202.14,-251.62C206.31,-259.19 210.63,-268.35 214.13,-276.93"/>
<polygon fill="black" stroke="black" points="210.86,-278.15 217.65,-286.28 217.41,-275.69 210.86,-278.15"/>
</g>
<!-- r1_node_16 -->
<g id="node17" class="node">
<title>r1_node_16</title>
<ellipse fill="none" stroke="black" cx="766.93" cy="-306" rx="54.93" ry="18"/>
<text text-anchor="middle" x="766.93" y="-300.95" font-family="Times,serif" font-size="14.00">r1_node_16</text>
</g>
<!-- r1_node_16&#45;&gt;r1_node_18 -->
<g id="edge19" class="edge">
<title>r1_node_16&#45;&gt;r1_node_18</title>
<path fill="none" stroke="black" d="M820.06,-300.72C889.39,-294.13 1005.69,-279.3 1037.93,-252 1101.21,-198.42 1141.94,-134.04 1086.93,-72 1062.6,-44.55 829.88,-28.55 713.52,-22.2"/>
<polygon fill="black" stroke="black" points="713.98,-18.72 703.8,-21.68 713.6,-25.71 713.98,-18.72"/>
</g>
<!-- r1_node_13&#45;&gt;r1_node_17 -->
<g id="edge20" class="edge">
<title>r1_node_13&#45;&gt;r1_node_17</title>
<path fill="none" stroke="black" d="M240.36,-103.97C204.15,-115.99 147.84,-133.85 106.72,-146.37"/>
<polygon fill="black" stroke="black" points="105.82,-142.99 97.26,-149.24 107.85,-149.69 105.82,-142.99"/>
</g>
<!-- r1_node_9&#45;&gt;r1_node_20 -->
<g id="edge22" class="edge">
<title>r1_node_9&#45;&gt;r1_node_20</title>
<path fill="none" stroke="black" d="M264.43,-150.53C272.84,-148.34 281.67,-146.07 289.93,-144 361.66,-126.01 486.11,-129.76 439.93,-72 428.93,-58.24 330.6,-39.63 264.67,-28.52"/>
<polygon fill="black" stroke="black" points="265.51,-25.11 255.07,-26.92 264.36,-32.02 265.51,-25.11"/>
</g>
<!-- r1_node_9&#45;&gt;r1_node_8 -->
<g id="edge21" class="edge">
<title>r1_node_9&#45;&gt;r1_node_8</title>
<path fill="none" stroke="black" d="M261.38,-174.88C292.21,-185.94 336.18,-202.57 368.15,-215.22"/>
<polygon fill="black" stroke="black" points="366.51,-218.33 377.1,-218.78 369.1,-211.83 366.51,-218.33"/>
</g>
<!-- r1_node_1 -->
<g id="node20" class="node">
<title>r1_node_1</title>
<ellipse fill="none" stroke="black" cx="351.93" cy="-450" rx="50.33" ry="18"/>
<text text-anchor="middle" x="351.93" y="-444.95" font-family="Times,serif" font-size="14.00">r1_node_1</text>
</g>
</g>
</svg>
