<?xml version="1.0" encoding="UTF-8" standalone="no"?>
<!DOCTYPE svg PUBLIC "-//W3C//DTD SVG 1.1//EN"
 "http://www.w3.org/Graphics/SVG/1.1/DTD/svg11.dtd">
<!-- Generated by graphviz version 12.2.1 (20241206.2353)
 -->
<!-- Pages: 1 -->
<svg width="944pt" height="404pt"
 viewBox="0.00 0.00 944.05 404.00" xmlns="http://www.w3.org/2000/svg" xmlns:xlink="http://www.w3.org/1999/xlink">
<g id="graph0" class="graph" transform="scale(1 1) rotate(0) translate(4 400)">
<polygon fill="white" stroke="none" points="-4,4 -4,-400 940.05,-400 940.05,4 -4,4"/>
<!-- r3_node_16 -->
<g id="node1" class="node">
<title>r3_node_16</title>
<ellipse fill="none" stroke="black" cx="54.93" cy="-18" rx="54.93" ry="18"/>
<text text-anchor="middle" x="54.93" y="-12.95" font-family="Times,serif" font-size="14.00">r3_node_16</text>
</g>
<!-- r3_node_2 -->
<g id="node2" class="node">
<title>r3_node_2</title>
<ellipse fill="none" stroke="black" cx="437.93" cy="-90" rx="50.33" ry="18"/>
<text text-anchor="middle" x="437.93" y="-84.95" font-family="Times,serif" font-size="14.00">r3_node_2</text>
</g>
<!-- r3_node_4 -->
<g id="node3" class="node">
<title>r3_node_4</title>
<ellipse fill="none" stroke="black" cx="413.93" cy="-162" rx="50.33" ry="18"/>
<text text-anchor="middle" x="413.93" y="-156.95" font-family="Times,serif" font-size="14.00">r3_node_4</text>
</g>
<!-- r3_node_2&#45;&gt;r3_node_4 -->
<g id="edge1" class="edge">
<title>r3_node_2&#45;&gt;r3_node_4</title>
<path fill="none" stroke="black" d="M437.92,-108.28C436.11,-115.86 433.22,-124.95 430,-133.43"/>
<polygon fill="black" stroke="black" points="426.77,-132.08 426.2,-142.66 433.24,-134.74 426.77,-132.08"/>
</g>
<!-- r3_node_18 -->
<g id="node4" class="node">
<title>r3_node_18</title>
<ellipse fill="none" stroke="black" cx="318.93" cy="-18" rx="54.93" ry="18"/>
<text text-anchor="middle" x="318.93" y="-12.95" font-family="Times,serif" font-size="14.00">r3_node_18</text>
</g>
<!-- r3_node_2&#45;&gt;r3_node_18 -->
<g id="edge2" class="edge">
<title>r3_node_2&#45;&gt;r3_node_18</title>
<path fill="none" stroke="black" d="M412.7,-74.15C395.81,-64.22 373.34,-51 354.63,-40"/>
<polygon fill="black" stroke="black" points="356.66,-37.13 346.26,-35.08 353.11,-43.16 356.66,-37.13"/>
</g>
<!-- r3_node_19 -->
<g id="node5" class="node">
<title>r3_node_19</title>
<ellipse fill="none" stroke="black" cx="500.93" cy="-18" rx="54.93" ry="18"/>
<text text-anchor="middle" x="500.93" y="-12.95" font-family="Times,serif" font-size="14.00">r3_node_19</text>
</g>
<!-- r3_node_2&#45;&gt;r3_node_19 -->
<g id="edge3" class="edge">
<title>r3_node_2&#45;&gt;r3_node_19</title>
<path fill="none" stroke="black" d="M452.86,-72.41C460.55,-63.87 470.08,-53.28 478.63,-43.79"/>
<polygon fill="black" stroke="black" points="481.01,-46.37 485.1,-36.59 475.81,-41.69 481.01,-46.37"/>
</g>
<!-- r3_node_4&#45;&gt;r3_node_2 -->
<g id="edge7" class="edge">
<title>r3_node_4&#45;&gt;r3_node_2</title>
<path fill="none" stroke="black" d="M413.95,-143.7C415.81,-135.95 418.77,-126.64 422.08,-118.02"/>
<polygon fill="black" stroke="black" points="425.21,-119.6 425.81,-109.02 418.75,-116.92 425.21,-119.6"/>
</g>
<!-- r3_node_5 -->
<g id="node9" class="node">
<title>r3_node_5</title>
<ellipse fill="none" stroke="black" cx="313.93" cy="-234" rx="50.33" ry="18"/>
<text text-anchor="middle" x="313.93" y="-228.95" font-family="Times,serif" font-size="14.00">r3_node_5</text>
</g>
<!-- r3_node_4&#45;&gt;r3_node_5 -->
<g id="edge8" class="edge">
<title>r3_node_4&#45;&gt;r3_node_5</title>
<path fill="none" stroke="black" d="M396.69,-179.12C383.82,-188.91 365.97,-201.51 350.09,-212.06"/>
<polygon fill="black" stroke="black" points="348.23,-209.09 341.78,-217.5 352.06,-214.95 348.23,-209.09"/>
</g>
<!-- r3_node_15 -->
<g id="node10" class="node">
<title>r3_node_15</title>
<ellipse fill="none" stroke="black" cx="187.93" cy="-18" rx="54.93" ry="18"/>
<text text-anchor="middle" x="187.93" y="-12.95" font-family="Times,serif" font-size="14.00">r3_node_15</text>
</g>
<!-- r3_node_4&#45;&gt;r3_node_15 -->
<g id="edge9" class="edge">
<title>r3_node_4&#45;&gt;r3_node_15</title>
<path fill="none" stroke="black" d="M389.75,-145.8C349.44,-120.47 268.38,-69.55 222.2,-40.53"/>
<polygon fill="black" stroke="black" points="224.24,-37.68 213.91,-35.32 220.52,-43.61 224.24,-37.68"/>
</g>
<!-- r3_node_12 -->
<g id="node6" class="node">
<title>r3_node_12</title>
<ellipse fill="none" stroke="black" cx="146.93" cy="-378" rx="54.93" ry="18"/>
<text text-anchor="middle" x="146.93" y="-372.95" font-family="Times,serif" font-size="14.00">r3_node_12</text>
</g>
<!-- r3_node_12&#45;&gt;r3_node_16 -->
<g id="edge6" class="edge">
<title>r3_node_12&#45;&gt;r3_node_16</title>
<path fill="none" stroke="black" d="M122.13,-361.7C109.39,-352.44 94.89,-339.44 86.93,-324 39.55,-232.07 45.65,-104.05 51.35,-47.63"/>
<polygon fill="black" stroke="black" points="54.81,-48.24 52.41,-37.92 47.85,-47.48 54.81,-48.24"/>
</g>
<!-- r3_node_17 -->
<g id="node7" class="node">
<title>r3_node_17</title>
<ellipse fill="none" stroke="black" cx="655.93" cy="-18" rx="54.93" ry="18"/>
<text text-anchor="middle" x="655.93" y="-12.95" font-family="Times,serif" font-size="14.00">r3_node_17</text>
</g>
<!-- r3_node_12&#45;&gt;r3_node_17 -->
<g id="edge4" class="edge">
<title>r3_node_12&#45;&gt;r3_node_17</title>
<path fill="none" stroke="black" d="M192.07,-367.34C269.93,-350.73 434.52,-315.88 573.93,-288 657.36,-271.32 681.17,-278.73 761.93,-252 831.76,-228.89 869.29,-240.62 910.93,-180 938.15,-140.37 947.36,-109.22 916.93,-72 892.65,-42.28 790.1,-28.82 721.01,-23.03"/>
<polygon fill="black" stroke="black" points="721.56,-19.56 711.31,-22.25 721,-26.54 721.56,-19.56"/>
</g>
<!-- r3_node_1 -->
<g id="node8" class="node">
<title>r3_node_1</title>
<ellipse fill="none" stroke="black" cx="276.93" cy="-306" rx="50.33" ry="18"/>
<text text-anchor="middle" x="276.93" y="-300.95" font-family="Times,serif" font-size="14.00">r3_node_1</text>
</g>
<!-- r3_node_12&#45;&gt;r3_node_1 -->
<g id="edge5" class="edge">
<title>r3_node_12&#45;&gt;r3_node_1</title>
<path fill="none" stroke="black" d="M170.37,-361.29C188.69,-350.76 214.44,-336.84 236.09,-325.73"/>
<polygon fill="black" stroke="black" points="237.65,-328.86 244.99,-321.22 234.49,-322.62 237.65,-328.86"/>
</g>
<!-- r3_node_1&#45;&gt;r3_node_18 -->
<g id="edge26" class="edge">
<title>r3_node_1&#45;&gt;r3_node_18</title>
<path fill="none" stroke="black" d="M267.8,-287.88C262.93,-277.76 257.43,-264.51 254.93,-252 251.81,-236.31 252.43,-231.8 254.93,-216 264.8,-153.72 291.18,-84.32 306.82,-46.79"/>
<polygon fill="black" stroke="black" points="310.03,-48.17 310.71,-37.6 303.59,-45.44 310.03,-48.17"/>
</g>
<!-- r3_node_1&#45;&gt;r3_node_12 -->
<g id="edge30" class="edge">
<title>r3_node_1&#45;&gt;r3_node_12</title>
<path fill="none" stroke="black" d="M253.98,-322.43C235.81,-332.89 210.13,-346.79 188.42,-357.94"/>
<polygon fill="black" stroke="black" points="187.13,-354.67 179.8,-362.32 190.31,-360.91 187.13,-354.67"/>
</g>
<!-- r3_node_1&#45;&gt;r3_node_5 -->
<g id="edge28" class="edge">
<title>r3_node_1&#45;&gt;r3_node_5</title>
<path fill="none" stroke="black" d="M280.16,-287.7C283.53,-279.78 288.36,-270.23 293.39,-261.44"/>
<polygon fill="black" stroke="black" points="296.36,-263.29 298.52,-252.92 290.37,-259.68 296.36,-263.29"/>
</g>
<!-- r3_node_1&#45;&gt;r3_node_15 -->
<g id="edge31" class="edge">
<title>r3_node_1&#45;&gt;r3_node_15</title>
<path fill="none" stroke="black" d="M266.83,-288.28C260.98,-278.08 253.84,-264.61 248.93,-252 221.16,-180.61 201.9,-92.07 193.19,-47.49"/>
<polygon fill="black" stroke="black" points="196.66,-47.03 191.35,-37.87 189.79,-48.35 196.66,-47.03"/>
</g>
<!-- r3_node_6 -->
<g id="node12" class="node">
<title>r3_node_6</title>
<ellipse fill="none" stroke="black" cx="682.93" cy="-90" rx="50.33" ry="18"/>
<text text-anchor="middle" x="682.93" y="-84.95" font-family="Times,serif" font-size="14.00">r3_node_6</text>
</g>
<!-- r3_node_1&#45;&gt;r3_node_6 -->
<g id="edge29" class="edge">
<title>r3_node_1&#45;&gt;r3_node_6</title>
<path fill="none" stroke="black" d="M316.57,-294.49C379.16,-277.83 502.45,-240.86 591.93,-180 617.7,-162.48 641.13,-135.39 658.03,-115.7"/>
<polygon fill="black" stroke="black" points="660.46,-118.24 664.34,-108.38 655.16,-113.68 660.46,-118.24"/>
</g>
<!-- r3_node_3 -->
<g id="node16" class="node">
<title>r3_node_3</title>
<ellipse fill="none" stroke="black" cx="637.93" cy="-234" rx="50.33" ry="18"/>
<text text-anchor="middle" x="637.93" y="-228.95" font-family="Times,serif" font-size="14.00">r3_node_3</text>
</g>
<!-- r3_node_1&#45;&gt;r3_node_3 -->
<g id="edge27" class="edge">
<title>r3_node_1&#45;&gt;r3_node_3</title>
<path fill="none" stroke="black" d="M319.4,-295.85C384.69,-282.67 509.52,-258.46 582.06,-244.89"/>
<polygon fill="black" stroke="black" points="582.56,-248.36 591.75,-243.08 581.28,-241.47 582.56,-248.36"/>
</g>
<!-- r3_node_5&#45;&gt;r3_node_16 -->
<g id="edge16" class="edge">
<title>r3_node_5&#45;&gt;r3_node_16</title>
<path fill="none" stroke="black" d="M294.47,-216.92C249.09,-179.43 136.16,-86.11 83.19,-42.35"/>
<polygon fill="black" stroke="black" points="85.73,-39.91 75.79,-36.24 81.27,-45.3 85.73,-39.91"/>
</g>
<!-- r3_node_5&#45;&gt;r3_node_4 -->
<g id="edge20" class="edge">
<title>r3_node_5&#45;&gt;r3_node_4</title>
<path fill="none" stroke="black" d="M331.33,-216.76C344.18,-207 361.94,-194.46 377.76,-183.96"/>
<polygon fill="black" stroke="black" points="379.57,-186.95 386.02,-178.55 375.74,-181.09 379.57,-186.95"/>
</g>
<!-- r3_node_5&#45;&gt;r3_node_18 -->
<g id="edge17" class="edge">
<title>r3_node_5&#45;&gt;r3_node_18</title>
<path fill="none" stroke="black" d="M314.33,-215.85C315.19,-179.14 317.21,-92.66 318.27,-47.53"/>
<polygon fill="black" stroke="black" points="321.76,-47.82 318.5,-37.75 314.76,-47.66 321.76,-47.82"/>
</g>
<!-- r3_node_5&#45;&gt;r3_node_1 -->
<g id="edge18" class="edge">
<title>r3_node_5&#45;&gt;r3_node_1</title>
<path fill="none" stroke="black" d="M310.64,-252.45C307.27,-260.36 302.45,-269.88 297.44,-278.63"/>
<polygon fill="black" stroke="black" points="294.49,-276.74 292.32,-287.11 300.48,-280.36 294.49,-276.74"/>
</g>
<!-- r3_node_5&#45;&gt;r3_node_15 -->
<g id="edge15" class="edge">
<title>r3_node_5&#45;&gt;r3_node_15</title>
<path fill="none" stroke="black" d="M304.55,-215.91C288.21,-186.33 253.3,-123.76 221.93,-72 216.7,-63.36 210.81,-54.05 205.43,-45.68"/>
<polygon fill="black" stroke="black" points="208.38,-43.8 200.01,-37.32 202.51,-47.61 208.38,-43.8"/>
</g>
<!-- r3_node_9 -->
<g id="node11" class="node">
<title>r3_node_9</title>
<ellipse fill="none" stroke="black" cx="541.93" cy="-162" rx="50.33" ry="18"/>
<text text-anchor="middle" x="541.93" y="-156.95" font-family="Times,serif" font-size="14.00">r3_node_9</text>
</g>
<!-- r3_node_5&#45;&gt;r3_node_9 -->
<g id="edge19" class="edge">
<title>r3_node_5&#45;&gt;r3_node_9</title>
<path fill="none" stroke="black" d="M348.88,-220.65C387.1,-208.33 448.48,-189.47 491.81,-176.7"/>
<polygon fill="black" stroke="black" points="492.63,-180.11 501.24,-173.94 490.66,-173.4 492.63,-180.11"/>
</g>
<!-- r3_node_9&#45;&gt;r3_node_16 -->
<g id="edge13" class="edge">
<title>r3_node_9&#45;&gt;r3_node_16</title>
<path fill="none" stroke="black" d="M538.43,-143.6C533.25,-122.8 521.38,-88.7 496.93,-72 428.18,-25.02 206.02,-50 123.93,-36 118.59,-35.09 113.05,-33.99 107.53,-32.79"/>
<polygon fill="black" stroke="black" points="108.33,-29.39 97.8,-30.57 106.77,-36.21 108.33,-29.39"/>
</g>
<!-- r3_node_9&#45;&gt;r3_node_19 -->
<g id="edge14" class="edge">
<title>r3_node_9&#45;&gt;r3_node_19</title>
<path fill="none" stroke="black" d="M558.21,-144.55C574.1,-126.41 594.1,-96.52 580.93,-72 573.13,-57.47 559.4,-46.26 545.5,-37.96"/>
<polygon fill="black" stroke="black" points="547.2,-34.9 536.75,-33.16 543.84,-41.04 547.2,-34.9"/>
</g>
<!-- r3_node_9&#45;&gt;r3_node_5 -->
<g id="edge10" class="edge">
<title>r3_node_9&#45;&gt;r3_node_5</title>
<path fill="none" stroke="black" d="M507.17,-175.29C469,-187.59 407.59,-206.47 364.2,-219.25"/>
<polygon fill="black" stroke="black" points="363.38,-215.85 354.76,-222.02 365.34,-222.57 363.38,-215.85"/>
</g>
<!-- r3_node_9&#45;&gt;r3_node_15 -->
<g id="edge12" class="edge">
<title>r3_node_9&#45;&gt;r3_node_15</title>
<path fill="none" stroke="black" d="M548.19,-143.93C554.25,-124.09 560.22,-91.58 542.93,-72 500.25,-23.65 318.31,-47.95 254.93,-36 250.09,-35.09 245.08,-34.03 240.08,-32.9"/>
<polygon fill="black" stroke="black" points="241.22,-29.57 230.69,-30.68 239.61,-36.38 241.22,-29.57"/>
</g>
<!-- r3_node_9&#45;&gt;r3_node_6 -->
<g id="edge11" class="edge">
<title>r3_node_9&#45;&gt;r3_node_6</title>
<path fill="none" stroke="black" d="M566.52,-145.98C587.04,-135.14 616.54,-120.44 640.77,-108.96"/>
<polygon fill="black" stroke="black" points="642.19,-112.16 649.76,-104.75 639.22,-105.82 642.19,-112.16"/>
</g>
<!-- r3_node_6&#45;&gt;r3_node_18 -->
<g id="edge48" class="edge">
<title>r3_node_6&#45;&gt;r3_node_18</title>
<path fill="none" stroke="black" d="M639.39,-80.63C573.83,-68.02 449.7,-44.15 376.66,-30.1"/>
<polygon fill="black" stroke="black" points="377.36,-26.67 366.88,-28.22 376.04,-33.55 377.36,-26.67"/>
</g>
<!-- r3_node_6&#45;&gt;r3_node_17 -->
<g id="edge47" class="edge">
<title>r3_node_6&#45;&gt;r3_node_17</title>
<path fill="none" stroke="black" d="M676.26,-71.7C673.35,-64.15 669.87,-55.12 666.61,-46.68"/>
<polygon fill="black" stroke="black" points="669.94,-45.59 663.08,-37.52 663.41,-48.11 669.94,-45.59"/>
</g>
<!-- r3_node_6&#45;&gt;r3_node_1 -->
<g id="edge45" class="edge">
<title>r3_node_6&#45;&gt;r3_node_1</title>
<path fill="none" stroke="black" d="M677.33,-108.28C665.31,-128.02 639.12,-160.15 609.93,-180 521.74,-239.98 400.72,-276.75 331.39,-293.75"/>
<polygon fill="black" stroke="black" points="330.68,-290.32 321.77,-296.06 332.31,-297.13 330.68,-290.32"/>
</g>
<!-- r3_node_6&#45;&gt;r3_node_9 -->
<g id="edge46" class="edge">
<title>r3_node_6&#45;&gt;r3_node_9</title>
<path fill="none" stroke="black" d="M658.28,-106.05C637.8,-116.88 608.39,-131.53 584.21,-142.98"/>
<polygon fill="black" stroke="black" points="582.81,-139.78 575.24,-147.19 585.78,-146.12 582.81,-139.78"/>
</g>
<!-- r3_node_11 -->
<g id="node13" class="node">
<title>r3_node_11</title>
<ellipse fill="none" stroke="black" cx="637.93" cy="-306" rx="54.93" ry="18"/>
<text text-anchor="middle" x="637.93" y="-300.95" font-family="Times,serif" font-size="14.00">r3_node_11</text>
</g>
<!-- r3_node_10 -->
<g id="node14" class="node">
<title>r3_node_10</title>
<ellipse fill="none" stroke="black" cx="328.93" cy="-378" rx="54.93" ry="18"/>
<text text-anchor="middle" x="328.93" y="-372.95" font-family="Times,serif" font-size="14.00">r3_node_10</text>
</g>
<!-- r3_node_11&#45;&gt;r3_node_10 -->
<g id="edge21" class="edge">
<title>r3_node_11&#45;&gt;r3_node_10</title>
<path fill="none" stroke="black" d="M599.01,-319.04C592.02,-320.75 584.79,-322.45 577.93,-324 500.05,-341.55 479.66,-341.74 401.93,-360 396.2,-361.35 390.19,-362.84 384.19,-364.36"/>
<polygon fill="black" stroke="black" points="383.72,-360.86 374.89,-366.73 385.45,-367.65 383.72,-360.86"/>
</g>
<!-- r3_node_10&#45;&gt;r3_node_19 -->
<g id="edge44" class="edge">
<title>r3_node_10&#45;&gt;r3_node_19</title>
<path fill="none" stroke="black" d="M363.58,-363.62C410.83,-345.56 498.24,-312.8 573.93,-288 724.61,-238.64 850.84,-263.47 881.93,-108 885.07,-92.31 892.53,-83.99 881.93,-72 838.94,-23.33 656.1,-45.97 591.93,-36 580.98,-34.3 569.31,-32.28 558.12,-30.24"/>
<polygon fill="black" stroke="black" points="559.09,-26.86 548.62,-28.47 557.82,-33.74 559.09,-26.86"/>
</g>
<!-- r3_node_10&#45;&gt;r3_node_11 -->
<g id="edge42" class="edge">
<title>r3_node_10&#45;&gt;r3_node_11</title>
<path fill="none" stroke="black" d="M366.07,-364.42C372.02,-362.88 378.11,-361.37 383.93,-360 461.66,-341.74 482.05,-341.55 559.93,-324 566.89,-322.43 574.22,-320.71 581.5,-318.97"/>
<polygon fill="black" stroke="black" points="582.08,-322.43 591,-316.71 580.46,-315.63 582.08,-322.43"/>
</g>
<!-- r3_node_13 -->
<g id="node15" class="node">
<title>r3_node_13</title>
<ellipse fill="none" stroke="black" cx="150.93" cy="-306" rx="54.93" ry="18"/>
<text text-anchor="middle" x="150.93" y="-300.95" font-family="Times,serif" font-size="14.00">r3_node_13</text>
</g>
<!-- r3_node_10&#45;&gt;r3_node_13 -->
<g id="edge43" class="edge">
<title>r3_node_10&#45;&gt;r3_node_13</title>
<path fill="none" stroke="black" d="M291.8,-364.49C262.74,-353.7 222.5,-337.97 192.41,-325.69"/>
<polygon fill="black" stroke="black" points="193.8,-322.48 183.22,-321.91 191.14,-328.95 193.8,-322.48"/>
</g>
<!-- r3_node_13&#45;&gt;r3_node_16 -->
<g id="edge23" class="edge">
<title>r3_node_13&#45;&gt;r3_node_16</title>
<path fill="none" stroke="black" d="M145.22,-287.97C129.25,-240.39 84.05,-105.75 64.33,-47"/>
<polygon fill="black" stroke="black" points="67.73,-46.11 61.22,-37.74 61.09,-48.34 67.73,-46.11"/>
</g>
<!-- r3_node_13&#45;&gt;r3_node_17 -->
<g id="edge24" class="edge">
<title>r3_node_13&#45;&gt;r3_node_17</title>
<path fill="none" stroke="black" d="M191.44,-293.52C200.12,-291.4 209.29,-289.41 217.93,-288 428.64,-253.62 488.57,-298.48 696.93,-252 707.9,-249.55 879.06,-188.89 885.93,-180 915.4,-141.94 924.04,-109.55 893.93,-72 872.53,-45.3 783.22,-31.19 720.32,-24.41"/>
<polygon fill="black" stroke="black" points="720.72,-20.93 710.42,-23.38 720,-27.89 720.72,-20.93"/>
</g>
<!-- r3_node_13&#45;&gt;r3_node_15 -->
<g id="edge22" class="edge">
<title>r3_node_13&#45;&gt;r3_node_15</title>
<path fill="none" stroke="black" d="M153.19,-287.54C159.37,-239.76 176.61,-106.51 184.23,-47.61"/>
<polygon fill="black" stroke="black" points="187.7,-48.1 185.51,-37.73 180.76,-47.2 187.7,-48.1"/>
</g>
<!-- r3_node_13&#45;&gt;r3_node_10 -->
<g id="edge25" class="edge">
<title>r3_node_13&#45;&gt;r3_node_10</title>
<path fill="none" stroke="black" d="M188.18,-319.56C217.23,-330.34 257.42,-346.05 287.48,-358.32"/>
<polygon fill="black" stroke="black" points="286.07,-361.52 296.65,-362.09 288.74,-355.05 286.07,-361.52"/>
</g>
<!-- r3_node_3&#45;&gt;r3_node_19 -->
<g id="edge34" class="edge">
<title>r3_node_3&#45;&gt;r3_node_19</title>
<path fill="none" stroke="black" d="M686.22,-228.72C725.5,-223.08 780.51,-210.06 818.93,-180 859.5,-148.27 894.85,-110.76 860.93,-72 821.22,-26.61 651.49,-45.54 591.93,-36 580.98,-34.25 569.33,-32.2 558.14,-30.15"/>
<polygon fill="black" stroke="black" points="559.11,-26.77 548.64,-28.39 557.83,-33.66 559.11,-26.77"/>
</g>
<!-- r3_node_3&#45;&gt;r3_node_17 -->
<g id="edge33" class="edge">
<title>r3_node_3&#45;&gt;r3_node_17</title>
<path fill="none" stroke="black" d="M682.5,-225.3C744.96,-214.1 852.37,-193.22 864.93,-180 887.34,-156.43 875.03,-140.39 877.93,-108 879.36,-92.06 887.85,-84.56 877.93,-72 858.48,-47.36 778.08,-32.92 719.61,-25.49"/>
<polygon fill="black" stroke="black" points="720.09,-22.02 709.74,-24.28 719.24,-28.97 720.09,-22.02"/>
</g>
<!-- r3_node_3&#45;&gt;r3_node_1 -->
<g id="edge32" class="edge">
<title>r3_node_3&#45;&gt;r3_node_1</title>
<path fill="none" stroke="black" d="M595.63,-244.12C530.3,-257.3 405.12,-281.58 332.56,-295.16"/>
<polygon fill="black" stroke="black" points="332.06,-291.69 322.87,-296.96 333.34,-298.57 332.06,-291.69"/>
</g>
<!-- r3_node_7 -->
<g id="node17" class="node">
<title>r3_node_7</title>
<ellipse fill="none" stroke="black" cx="759.93" cy="-162" rx="50.33" ry="18"/>
<text text-anchor="middle" x="759.93" y="-156.95" font-family="Times,serif" font-size="14.00">r3_node_7</text>
</g>
<!-- r3_node_3&#45;&gt;r3_node_7 -->
<g id="edge35" class="edge">
<title>r3_node_3&#45;&gt;r3_node_7</title>
<path fill="none" stroke="black" d="M659.57,-217.29C676.51,-206.88 700.31,-193.15 720.55,-182.1"/>
<polygon fill="black" stroke="black" points="721.98,-185.31 729.12,-177.48 718.66,-179.15 721.98,-185.31"/>
</g>
<!-- r3_node_7&#45;&gt;r3_node_17 -->
<g id="edge51" class="edge">
<title>r3_node_7&#45;&gt;r3_node_17</title>
<path fill="none" stroke="black" d="M800.34,-150.86C822.37,-143.04 847.77,-129.78 860.93,-108 869.21,-94.31 870.73,-84.65 860.93,-72 843.44,-49.41 771.61,-34.71 717.88,-26.65"/>
<polygon fill="black" stroke="black" points="718.61,-23.22 708.21,-25.25 717.6,-30.15 718.61,-23.22"/>
</g>
<!-- r3_node_7&#45;&gt;r3_node_3 -->
<g id="edge49" class="edge">
<title>r3_node_7&#45;&gt;r3_node_3</title>
<path fill="none" stroke="black" d="M738.62,-178.51C721.72,-188.92 697.82,-202.7 677.49,-213.8"/>
<polygon fill="black" stroke="black" points="676.01,-210.62 668.87,-218.45 679.34,-216.78 676.01,-210.62"/>
</g>
<!-- r3_node_8 -->
<g id="node18" class="node">
<title>r3_node_8</title>
<ellipse fill="none" stroke="black" cx="801.93" cy="-90" rx="50.33" ry="18"/>
<text text-anchor="middle" x="801.93" y="-84.95" font-family="Times,serif" font-size="14.00">r3_node_8</text>
</g>
<!-- r3_node_7&#45;&gt;r3_node_8 -->
<g id="edge50" class="edge">
<title>r3_node_7&#45;&gt;r3_node_8</title>
<path fill="none" stroke="black" d="M764.4,-143.7C768.48,-135.49 774.26,-125.52 780.13,-116.48"/>
<polygon fill="black" stroke="black" points="782.89,-118.64 785.61,-108.4 777.1,-114.71 782.89,-118.64"/>
</g>
<!-- r3_node_8&#45;&gt;r3_node_16 -->
<g id="edge39" class="edge">
<title>r3_node_8&#45;&gt;r3_node_16</title>
<path fill="none" stroke="black" d="M765.42,-77.29C757.73,-75.21 749.62,-73.3 741.93,-72 470.64,-26.23 395.98,-77.08 123.93,-36 118.36,-35.16 112.57,-34.07 106.83,-32.86"/>
<polygon fill="black" stroke="black" points="107.92,-29.52 97.39,-30.74 106.38,-36.35 107.92,-29.52"/>
</g>
<!-- r3_node_8&#45;&gt;r3_node_18 -->
<g id="edge41" class="edge">
<title>r3_node_8&#45;&gt;r3_node_18</title>
<path fill="none" stroke="black" d="M764.71,-77.46C757.22,-75.42 749.37,-73.48 741.93,-72 608.07,-45.31 572.27,-53.73 436.93,-36 418.24,-33.55 397.91,-30.69 379.47,-28.03"/>
<polygon fill="black" stroke="black" points="380.17,-24.59 369.77,-26.61 379.16,-31.52 380.17,-24.59"/>
</g>
<!-- r3_node_8&#45;&gt;r3_node_19 -->
<g id="edge36" class="edge">
<title>r3_node_8&#45;&gt;r3_node_19</title>
<path fill="none" stroke="black" d="M763.94,-77.87C756.65,-75.84 749.07,-73.79 741.93,-72 679.3,-56.25 606.86,-40.67 557.88,-30.52"/>
<polygon fill="black" stroke="black" points="558.86,-27.15 548.36,-28.56 557.45,-34.01 558.86,-27.15"/>
</g>
<!-- r3_node_8&#45;&gt;r3_node_17 -->
<g id="edge40" class="edge">
<title>r3_node_8&#45;&gt;r3_node_17</title>
<path fill="none" stroke="black" d="M772.74,-75C750.85,-64.51 720.62,-50.01 696.39,-38.4"/>
<polygon fill="black" stroke="black" points="697.98,-35.28 687.45,-34.11 694.95,-41.59 697.98,-35.28"/>
</g>
<!-- r3_node_8&#45;&gt;r3_node_15 -->
<g id="edge38" class="edge">
<title>r3_node_8&#45;&gt;r3_node_15</title>
<path fill="none" stroke="black" d="M765.08,-77.29C757.49,-75.24 749.5,-73.34 741.93,-72 528.21,-34.22 469.16,-70.82 254.93,-36 249.94,-35.19 244.76,-34.18 239.61,-33.07"/>
<polygon fill="black" stroke="black" points="240.45,-29.67 229.92,-30.83 238.87,-36.49 240.45,-29.67"/>
</g>
<!-- r3_node_8&#45;&gt;r3_node_7 -->
<g id="edge37" class="edge">
<title>r3_node_8&#45;&gt;r3_node_7</title>
<path fill="none" stroke="black" d="M797.56,-108.12C793.49,-116.33 787.71,-126.32 781.82,-135.4"/>
<polygon fill="black" stroke="black" points="779.04,-133.27 776.33,-143.51 784.83,-137.2 779.04,-133.27"/>
</g>
<!-- r3_node_14 -->
<g id="node19" class="node">
<title>r3_node_14</title>
<ellipse fill="none" stroke="black" cx="456.93" cy="-378" rx="54.93" ry="18"/>
<text text-anchor="middle" x="456.93" y="-372.95" font-family="Times,serif" font-size="14.00">r3_node_14</text>
</g>
</g>
</svg>
