<?xml version="1.0" encoding="UTF-8" standalone="no"?>
<!DOCTYPE svg PUBLIC "-//W3C//DTD SVG 1.1//EN"
 "http://www.w3.org/Graphics/SVG/1.1/DTD/svg11.dtd">
<!-- Generated by graphviz version 12.2.1 (20241206.2353)
 -->
<!-- Pages: 1 -->
<svg width="355pt" height="116pt"
 viewBox="0.00 0.00 355.26 116.00" xmlns="http://www.w3.org/2000/svg" xmlns:xlink="http://www.w3.org/1999/xlink">
<g id="graph0" class="graph" transform="scale(1 1) rotate(0) translate(4 112)">
<polygon fill="white" stroke="none" points="-4,4 -4,-112 351.26,-112 351.26,4 -4,4"/>
<!-- r1_node_5 -->
<g id="node1" class="node">
<title>r1_node_5</title>
<ellipse fill="none" stroke="black" cx="50.33" cy="-18" rx="50.33" ry="18"/>
<text text-anchor="middle" x="50.33" y="-12.95" font-family="Times,serif" font-size="14.00">r1_node_5</text>
</g>
<!-- r1_node_4 -->
<g id="node2" class="node">
<title>r1_node_4</title>
<ellipse fill="none" stroke="black" cx="109.33" cy="-90" rx="50.33" ry="18"/>
<text text-anchor="middle" x="109.33" y="-84.95" font-family="Times,serif" font-size="14.00">r1_node_4</text>
</g>
<!-- r1_node_4&#45;&gt;r1_node_5 -->
<g id="edge3" class="edge">
<title>r1_node_4&#45;&gt;r1_node_5</title>
<path fill="none" stroke="black" d="M95.35,-72.41C88.22,-63.95 79.4,-53.49 71.47,-44.08"/>
<polygon fill="black" stroke="black" points="74.31,-42.02 65.19,-36.63 68.95,-46.53 74.31,-42.02"/>
</g>
<!-- r1_node_8 -->
<g id="node3" class="node">
<title>r1_node_8</title>
<ellipse fill="none" stroke="black" cx="169.33" cy="-18" rx="50.33" ry="18"/>
<text text-anchor="middle" x="169.33" y="-12.95" font-family="Times,serif" font-size="14.00">r1_node_8</text>
</g>
<!-- r1_node_4&#45;&gt;r1_node_8 -->
<g id="edge1" class="edge">
<title>r1_node_4&#45;&gt;r1_node_8</title>
<path fill="none" stroke="black" d="M123.55,-72.41C130.8,-63.95 139.76,-53.49 147.83,-44.08"/>
<polygon fill="black" stroke="black" points="150.38,-46.49 154.23,-36.62 145.06,-41.93 150.38,-46.49"/>
</g>
<!-- r1_node_18 -->
<g id="node4" class="node">
<title>r1_node_18</title>
<ellipse fill="none" stroke="black" cx="292.33" cy="-18" rx="54.93" ry="18"/>
<text text-anchor="middle" x="292.33" y="-12.95" font-family="Times,serif" font-size="14.00">r1_node_18</text>
</g>
<!-- r1_node_4&#45;&gt;r1_node_18 -->
<g id="edge2" class="edge">
<title>r1_node_4&#45;&gt;r1_node_18</title>
<path fill="none" stroke="black" d="M142.89,-76.16C172.09,-64.99 214.67,-48.7 246.91,-36.37"/>
<polygon fill="black" stroke="black" points="247.92,-39.74 256.01,-32.89 245.41,-33.2 247.92,-39.74"/>
</g>
</g>
</svg>
