<?xml version="1.0" encoding="UTF-8" standalone="no"?>
<!DOCTYPE svg PUBLIC "-//W3C//DTD SVG 1.1//EN"
 "http://www.w3.org/Graphics/SVG/1.1/DTD/svg11.dtd">
<!-- Generated by graphviz version 12.2.1 (20241206.2353)
 -->
<!-- Pages: 1 -->
<svg width="686pt" height="836pt"
 viewBox="0.00 0.00 685.87 836.00" xmlns="http://www.w3.org/2000/svg" xmlns:xlink="http://www.w3.org/1999/xlink">
<g id="graph0" class="graph" transform="scale(1 1) rotate(0) translate(4 832)">
<polygon fill="white" stroke="none" points="-4,4 -4,-832 681.87,-832 681.87,4 -4,4"/>
<!-- r2_node_21 -->
<g id="node1" class="node">
<title>r2_node_21</title>
<ellipse fill="none" stroke="black" cx="145.93" cy="-810" rx="54.93" ry="18"/>
<text text-anchor="middle" x="145.93" y="-804.95" font-family="Times,serif" font-size="14.00">r2_node_21</text>
</g>
<!-- r2_node_7 -->
<g id="node2" class="node">
<title>r2_node_7</title>
<ellipse fill="none" stroke="black" cx="86.93" cy="-738" rx="50.33" ry="18"/>
<text text-anchor="middle" x="86.93" y="-732.95" font-family="Times,serif" font-size="14.00">r2_node_7</text>
</g>
<!-- r2_node_21&#45;&gt;r2_node_7 -->
<g id="edge1" class="edge">
<title>r2_node_21&#45;&gt;r2_node_7</title>
<path fill="none" stroke="black" d="M126.45,-792.76C118.58,-784.53 109.73,-774.32 102.31,-765.02"/>
<polygon fill="black" stroke="black" points="105.27,-763.11 96.39,-757.32 99.72,-767.38 105.27,-763.11"/>
</g>
<!-- r2_node_8 -->
<g id="node3" class="node">
<title>r2_node_8</title>
<ellipse fill="none" stroke="black" cx="207.93" cy="-738" rx="50.33" ry="18"/>
<text text-anchor="middle" x="207.93" y="-732.95" font-family="Times,serif" font-size="14.00">r2_node_8</text>
</g>
<!-- r2_node_21&#45;&gt;r2_node_8 -->
<g id="edge2" class="edge">
<title>r2_node_21&#45;&gt;r2_node_8</title>
<path fill="none" stroke="black" d="M155.06,-792.05C161.9,-783.29 171.31,-772.45 180.37,-762.86"/>
<polygon fill="black" stroke="black" points="182.65,-765.53 187.11,-755.92 177.63,-760.65 182.65,-765.53"/>
</g>
<!-- r2_node_16 -->
<g id="node4" class="node">
<title>r2_node_16</title>
<ellipse fill="none" stroke="black" cx="390.93" cy="-738" rx="54.93" ry="18"/>
<text text-anchor="middle" x="390.93" y="-732.95" font-family="Times,serif" font-size="14.00">r2_node_16</text>
</g>
<!-- r2_node_21&#45;&gt;r2_node_16 -->
<g id="edge3" class="edge">
<title>r2_node_21&#45;&gt;r2_node_16</title>
<path fill="none" stroke="black" d="M183.88,-796.65C225.03,-784.35 290.84,-765.53 337.26,-752.77"/>
<polygon fill="black" stroke="black" points="338.14,-756.15 346.86,-750.14 336.29,-749.4 338.14,-756.15"/>
</g>
<!-- r2_node_7&#45;&gt;r2_node_21 -->
<g id="edge53" class="edge">
<title>r2_node_7&#45;&gt;r2_node_21</title>
<path fill="none" stroke="black" d="M106.03,-754.83C114.01,-763.15 123.04,-773.56 130.58,-783.02"/>
<polygon fill="black" stroke="black" points="127.74,-785.06 136.61,-790.86 133.29,-780.79 127.74,-785.06"/>
</g>
<!-- r2_node_19 -->
<g id="node12" class="node">
<title>r2_node_19</title>
<ellipse fill="none" stroke="black" cx="82.93" cy="-666" rx="54.93" ry="18"/>
<text text-anchor="middle" x="82.93" y="-660.95" font-family="Times,serif" font-size="14.00">r2_node_19</text>
</g>
<!-- r2_node_7&#45;&gt;r2_node_19 -->
<g id="edge52" class="edge">
<title>r2_node_7&#45;&gt;r2_node_19</title>
<path fill="none" stroke="black" d="M80.03,-719.7C78.86,-712.41 78.12,-703.73 77.92,-695.54"/>
<polygon fill="black" stroke="black" points="81.42,-695.65 78,-685.62 74.42,-695.59 81.42,-695.65"/>
</g>
<!-- r2_node_8&#45;&gt;r2_node_21 -->
<g id="edge30" class="edge">
<title>r2_node_8&#45;&gt;r2_node_21</title>
<path fill="none" stroke="black" d="M198.92,-755.8C192.1,-764.56 182.66,-775.43 173.58,-785.06"/>
<polygon fill="black" stroke="black" points="171.27,-782.42 166.82,-792.03 176.29,-787.29 171.27,-782.42"/>
</g>
<!-- r2_node_12 -->
<g id="node5" class="node">
<title>r2_node_12</title>
<ellipse fill="none" stroke="black" cx="224.93" cy="-666" rx="54.93" ry="18"/>
<text text-anchor="middle" x="224.93" y="-660.95" font-family="Times,serif" font-size="14.00">r2_node_12</text>
</g>
<!-- r2_node_8&#45;&gt;r2_node_12 -->
<g id="edge31" class="edge">
<title>r2_node_8&#45;&gt;r2_node_12</title>
<path fill="none" stroke="black" d="M206.22,-719.7C207.26,-712.24 209.19,-703.32 211.52,-694.97"/>
<polygon fill="black" stroke="black" points="214.82,-696.14 214.44,-685.55 208.13,-694.06 214.82,-696.14"/>
</g>
<!-- r2_node_26 -->
<g id="node7" class="node">
<title>r2_node_26</title>
<ellipse fill="none" stroke="black" cx="431.93" cy="-378" rx="54.93" ry="18"/>
<text text-anchor="middle" x="431.93" y="-372.95" font-family="Times,serif" font-size="14.00">r2_node_26</text>
</g>
<!-- r2_node_8&#45;&gt;r2_node_26 -->
<g id="edge33" class="edge">
<title>r2_node_8&#45;&gt;r2_node_26</title>
<path fill="none" stroke="black" d="M229.8,-721.39C245.02,-711.96 264.87,-698.88 279.93,-684 285.07,-678.92 422.83,-474.91 424.93,-468 430.9,-448.42 430.15,-425.28 429.3,-407.5"/>
<polygon fill="black" stroke="black" points="432.8,-407.5 428.83,-397.67 425.81,-407.83 432.8,-407.5"/>
</g>
<!-- r2_node_17 -->
<g id="node27" class="node">
<title>r2_node_17</title>
<ellipse fill="none" stroke="black" cx="360.93" cy="-90" rx="54.93" ry="18"/>
<text text-anchor="middle" x="360.93" y="-84.95" font-family="Times,serif" font-size="14.00">r2_node_17</text>
</g>
<!-- r2_node_8&#45;&gt;r2_node_17 -->
<g id="edge32" class="edge">
<title>r2_node_8&#45;&gt;r2_node_17</title>
<path fill="none" stroke="black" d="M241.52,-724.27C264,-715.58 293.15,-702.3 314.93,-684 372.02,-636.06 469.61,-468.5 486.93,-396 513.1,-286.51 421.68,-167.43 380.11,-116.46"/>
<polygon fill="black" stroke="black" points="382.97,-114.44 373.93,-108.93 377.56,-118.88 382.97,-114.44"/>
</g>
<!-- r2_node_16&#45;&gt;r2_node_21 -->
<g id="edge39" class="edge">
<title>r2_node_16&#45;&gt;r2_node_21</title>
<path fill="none" stroke="black" d="M352.97,-751.36C311.79,-763.66 245.91,-782.5 199.49,-795.27"/>
<polygon fill="black" stroke="black" points="198.62,-791.88 189.89,-797.89 200.46,-798.63 198.62,-791.88"/>
</g>
<!-- r2_node_10 -->
<g id="node18" class="node">
<title>r2_node_10</title>
<ellipse fill="none" stroke="black" cx="476.93" cy="-666" rx="54.93" ry="18"/>
<text text-anchor="middle" x="476.93" y="-660.95" font-family="Times,serif" font-size="14.00">r2_node_10</text>
</g>
<!-- r2_node_16&#45;&gt;r2_node_10 -->
<g id="edge38" class="edge">
<title>r2_node_16&#45;&gt;r2_node_10</title>
<path fill="none" stroke="black" d="M405.47,-720.41C415.92,-711.08 430.21,-699.31 443.33,-689.2"/>
<polygon fill="black" stroke="black" points="445.1,-692.25 450.95,-683.42 440.87,-686.67 445.1,-692.25"/>
</g>
<!-- r2_node_23 -->
<g id="node28" class="node">
<title>r2_node_23</title>
<ellipse fill="none" stroke="black" cx="622.93" cy="-450" rx="54.93" ry="18"/>
<text text-anchor="middle" x="622.93" y="-444.95" font-family="Times,serif" font-size="14.00">r2_node_23</text>
</g>
<!-- r2_node_16&#45;&gt;r2_node_23 -->
<g id="edge37" class="edge">
<title>r2_node_16&#45;&gt;r2_node_23</title>
<path fill="none" stroke="black" d="M439.02,-728.95C469.05,-721.85 506.55,-708.6 531.93,-684 589.84,-627.87 606.92,-528.47 615.48,-479.66"/>
<polygon fill="black" stroke="black" points="618.91,-480.35 617.22,-469.89 612.02,-479.12 618.91,-480.35"/>
</g>
<!-- r2_node_12&#45;&gt;r2_node_8 -->
<g id="edge4" class="edge">
<title>r2_node_12&#45;&gt;r2_node_8</title>
<path fill="none" stroke="black" d="M226.65,-684.28C225.61,-691.77 223.66,-700.75 221.32,-709.15"/>
<polygon fill="black" stroke="black" points="218.01,-708.02 218.38,-718.61 224.69,-710.1 218.01,-708.02"/>
</g>
<!-- r2_node_20 -->
<g id="node6" class="node">
<title>r2_node_20</title>
<ellipse fill="none" stroke="black" cx="212.93" cy="-18" rx="54.93" ry="18"/>
<text text-anchor="middle" x="212.93" y="-12.95" font-family="Times,serif" font-size="14.00">r2_node_20</text>
</g>
<!-- r2_node_12&#45;&gt;r2_node_20 -->
<g id="edge5" class="edge">
<title>r2_node_12&#45;&gt;r2_node_20</title>
<path fill="none" stroke="black" d="M238.45,-648.34C268.41,-617.02 338.07,-545.5 363.93,-468 369,-452.82 366.15,-447.85 363.93,-432 345.54,-300.19 335.91,-265.65 281.93,-144 266.05,-108.2 241.26,-70.5 225.83,-45.99"/>
<polygon fill="black" stroke="black" points="228.88,-44.27 220.64,-37.62 222.93,-47.96 228.88,-44.27"/>
</g>
<!-- r2_node_20&#45;&gt;r2_node_12 -->
<g id="edge34" class="edge">
<title>r2_node_20&#45;&gt;r2_node_12</title>
<path fill="none" stroke="black" d="M231.08,-35.15C250.97,-58.21 281.47,-102.38 299.93,-144 353.91,-265.65 363.54,-300.19 381.93,-432 384.15,-447.85 387,-452.82 381.93,-468 357.63,-540.81 294.69,-608.33 256.11,-642.21"/>
<polygon fill="black" stroke="black" points="254.29,-639.17 248.96,-648.33 258.83,-644.49 254.29,-639.17"/>
</g>
<!-- r2_node_26&#45;&gt;r2_node_8 -->
<g id="edge6" class="edge">
<title>r2_node_26&#45;&gt;r2_node_8</title>
<path fill="none" stroke="black" d="M442.12,-396.16C447.46,-414.41 450.27,-443.9 442.93,-468 440.83,-474.91 303.07,-678.92 297.93,-684 284.27,-697.5 266.67,-709.51 250.56,-718.67"/>
<polygon fill="black" stroke="black" points="249.22,-715.41 242.1,-723.27 252.56,-721.56 249.22,-715.41"/>
</g>
<!-- r2_node_25 -->
<g id="node8" class="node">
<title>r2_node_25</title>
<ellipse fill="none" stroke="black" cx="87.93" cy="-378" rx="54.93" ry="18"/>
<text text-anchor="middle" x="87.93" y="-372.95" font-family="Times,serif" font-size="14.00">r2_node_25</text>
</g>
<!-- r2_node_18 -->
<g id="node9" class="node">
<title>r2_node_18</title>
<ellipse fill="none" stroke="black" cx="54.93" cy="-594" rx="54.93" ry="18"/>
<text text-anchor="middle" x="54.93" y="-588.95" font-family="Times,serif" font-size="14.00">r2_node_18</text>
</g>
<!-- r2_node_25&#45;&gt;r2_node_18 -->
<g id="edge7" class="edge">
<title>r2_node_25&#45;&gt;r2_node_18</title>
<path fill="none" stroke="black" d="M89.16,-396.23C86.99,-433.09 73.89,-519.87 64.02,-564.86"/>
<polygon fill="black" stroke="black" points="60.66,-563.84 61.8,-574.38 67.48,-565.43 60.66,-563.84"/>
</g>
<!-- r2_node_18&#45;&gt;r2_node_25 -->
<g id="edge21" class="edge">
<title>r2_node_18&#45;&gt;r2_node_25</title>
<path fill="none" stroke="black" d="M53.7,-575.85C55.86,-539.07 68.95,-452.29 78.83,-407.24"/>
<polygon fill="black" stroke="black" points="82.19,-408.24 81.05,-397.71 75.37,-406.65 82.19,-408.24"/>
</g>
<!-- r2_node_18&#45;&gt;r2_node_19 -->
<g id="edge20" class="edge">
<title>r2_node_18&#45;&gt;r2_node_19</title>
<path fill="none" stroke="black" d="M67.43,-611.62C71.28,-619.19 75.2,-628.35 78.34,-636.93"/>
<polygon fill="black" stroke="black" points="74.97,-637.88 81.45,-646.26 81.61,-635.67 74.97,-637.88"/>
</g>
<!-- r2_node_15 -->
<g id="node21" class="node">
<title>r2_node_15</title>
<ellipse fill="none" stroke="black" cx="170.93" cy="-450" rx="54.93" ry="18"/>
<text text-anchor="middle" x="170.93" y="-444.95" font-family="Times,serif" font-size="14.00">r2_node_15</text>
</g>
<!-- r2_node_18&#45;&gt;r2_node_15 -->
<g id="edge22" class="edge">
<title>r2_node_18&#45;&gt;r2_node_15</title>
<path fill="none" stroke="black" d="M64.34,-575.87C82.12,-550.87 119.98,-504.25 145.59,-475.59"/>
<polygon fill="black" stroke="black" points="147.96,-478.19 152.09,-468.43 142.78,-473.48 147.96,-478.19"/>
</g>
<!-- r2_node_29 -->
<g id="node10" class="node">
<title>r2_node_29</title>
<ellipse fill="none" stroke="black" cx="182.93" cy="-594" rx="54.93" ry="18"/>
<text text-anchor="middle" x="182.93" y="-588.95" font-family="Times,serif" font-size="14.00">r2_node_29</text>
</g>
<!-- r2_node_1 -->
<g id="node11" class="node">
<title>r2_node_1</title>
<ellipse fill="none" stroke="black" cx="230.93" cy="-522" rx="50.33" ry="18"/>
<text text-anchor="middle" x="230.93" y="-516.95" font-family="Times,serif" font-size="14.00">r2_node_1</text>
</g>
<!-- r2_node_29&#45;&gt;r2_node_1 -->
<g id="edge8" class="edge">
<title>r2_node_29&#45;&gt;r2_node_1</title>
<path fill="none" stroke="black" d="M188.88,-575.7C193.71,-567.4 200.44,-557.31 207.15,-548.19"/>
<polygon fill="black" stroke="black" points="209.86,-550.42 213.15,-540.35 204.3,-546.16 209.86,-550.42"/>
</g>
<!-- r2_node_29&#45;&gt;r2_node_19 -->
<g id="edge9" class="edge">
<title>r2_node_29&#45;&gt;r2_node_19</title>
<path fill="none" stroke="black" d="M165.25,-611.46C152.51,-621.12 135.07,-633.43 119.46,-643.81"/>
<polygon fill="black" stroke="black" points="117.76,-640.75 111.31,-649.15 121.59,-646.6 117.76,-640.75"/>
</g>
<!-- r2_node_1&#45;&gt;r2_node_29 -->
<g id="edge16" class="edge">
<title>r2_node_1&#45;&gt;r2_node_29</title>
<path fill="none" stroke="black" d="M225.09,-540.12C220.27,-548.41 213.54,-558.53 206.81,-567.69"/>
<polygon fill="black" stroke="black" points="204.08,-565.49 200.79,-575.56 209.64,-569.74 204.08,-565.49"/>
</g>
<!-- r2_node_9 -->
<g id="node14" class="node">
<title>r2_node_9</title>
<ellipse fill="none" stroke="black" cx="313.93" cy="-450" rx="50.33" ry="18"/>
<text text-anchor="middle" x="313.93" y="-444.95" font-family="Times,serif" font-size="14.00">r2_node_9</text>
</g>
<!-- r2_node_1&#45;&gt;r2_node_9 -->
<g id="edge15" class="edge">
<title>r2_node_1&#45;&gt;r2_node_9</title>
<path fill="none" stroke="black" d="M244.76,-504.41C254.78,-495.11 268.53,-483.38 281.18,-473.28"/>
<polygon fill="black" stroke="black" points="283.22,-476.12 288.94,-467.21 278.91,-470.61 283.22,-476.12"/>
</g>
<!-- r2_node_19&#45;&gt;r2_node_7 -->
<g id="edge47" class="edge">
<title>r2_node_19&#45;&gt;r2_node_7</title>
<path fill="none" stroke="black" d="M89.81,-684.1C90.98,-691.37 91.73,-700.04 91.94,-708.24"/>
<polygon fill="black" stroke="black" points="88.44,-708.16 91.87,-718.18 95.44,-708.21 88.44,-708.16"/>
</g>
<!-- r2_node_19&#45;&gt;r2_node_18 -->
<g id="edge46" class="edge">
<title>r2_node_19&#45;&gt;r2_node_18</title>
<path fill="none" stroke="black" d="M70.28,-648.05C66.46,-640.52 62.58,-631.44 59.48,-622.94"/>
<polygon fill="black" stroke="black" points="62.89,-622.09 56.41,-613.71 56.25,-624.3 62.89,-622.09"/>
</g>
<!-- r2_node_19&#45;&gt;r2_node_29 -->
<g id="edge45" class="edge">
<title>r2_node_19&#45;&gt;r2_node_29</title>
<path fill="none" stroke="black" d="M100.33,-648.76C113.09,-639.07 130.7,-626.64 146.43,-616.17"/>
<polygon fill="black" stroke="black" points="148.21,-619.19 154.66,-610.78 144.38,-613.33 148.21,-619.19"/>
</g>
<!-- r2_node_2 -->
<g id="node13" class="node">
<title>r2_node_2</title>
<ellipse fill="none" stroke="black" cx="234.93" cy="-378" rx="50.33" ry="18"/>
<text text-anchor="middle" x="234.93" y="-372.95" font-family="Times,serif" font-size="14.00">r2_node_2</text>
</g>
<!-- r2_node_2&#45;&gt;r2_node_9 -->
<g id="edge10" class="edge">
<title>r2_node_2&#45;&gt;r2_node_9</title>
<path fill="none" stroke="black" d="M257.86,-394.27C268.97,-403.16 282.1,-414.57 292.94,-424.67"/>
<polygon fill="black" stroke="black" points="290.31,-427 299.96,-431.37 295.14,-421.93 290.31,-427"/>
</g>
<!-- r2_node_14 -->
<g id="node15" class="node">
<title>r2_node_14</title>
<ellipse fill="none" stroke="black" cx="118.93" cy="-306" rx="54.93" ry="18"/>
<text text-anchor="middle" x="118.93" y="-300.95" font-family="Times,serif" font-size="14.00">r2_node_14</text>
</g>
<!-- r2_node_2&#45;&gt;r2_node_14 -->
<g id="edge11" class="edge">
<title>r2_node_2&#45;&gt;r2_node_14</title>
<path fill="none" stroke="black" d="M205.91,-362.83C188.54,-353.13 166.63,-340.06 149.08,-329"/>
<polygon fill="black" stroke="black" points="151.42,-326.35 141.11,-323.92 147.66,-332.25 151.42,-326.35"/>
</g>
<!-- r2_node_30 -->
<g id="node16" class="node">
<title>r2_node_30</title>
<ellipse fill="none" stroke="black" cx="246.93" cy="-306" rx="54.93" ry="18"/>
<text text-anchor="middle" x="246.93" y="-300.95" font-family="Times,serif" font-size="14.00">r2_node_30</text>
</g>
<!-- r2_node_2&#45;&gt;r2_node_30 -->
<g id="edge12" class="edge">
<title>r2_node_2&#45;&gt;r2_node_30</title>
<path fill="none" stroke="black" d="M231.98,-359.7C232.49,-352.32 233.76,-343.52 235.45,-335.25"/>
<polygon fill="black" stroke="black" points="238.85,-336.12 237.76,-325.58 232.04,-334.49 238.85,-336.12"/>
</g>
<!-- r2_node_9&#45;&gt;r2_node_1 -->
<g id="edge36" class="edge">
<title>r2_node_9&#45;&gt;r2_node_1</title>
<path fill="none" stroke="black" d="M300.06,-467.63C290.02,-476.95 276.25,-488.7 263.58,-498.81"/>
<polygon fill="black" stroke="black" points="261.54,-495.96 255.81,-504.88 265.85,-501.48 261.54,-495.96"/>
</g>
<!-- r2_node_9&#45;&gt;r2_node_2 -->
<g id="edge35" class="edge">
<title>r2_node_9&#45;&gt;r2_node_2</title>
<path fill="none" stroke="black" d="M291.11,-433.81C280.01,-424.93 266.85,-413.5 255.99,-403.39"/>
<polygon fill="black" stroke="black" points="258.6,-401.04 248.95,-396.67 253.77,-406.11 258.6,-401.04"/>
</g>
<!-- r2_node_14&#45;&gt;r2_node_2 -->
<g id="edge28" class="edge">
<title>r2_node_14&#45;&gt;r2_node_2</title>
<path fill="none" stroke="black" d="M148.36,-321.39C165.63,-331.06 187.29,-343.98 204.69,-354.93"/>
<polygon fill="black" stroke="black" points="202.78,-357.87 213.1,-360.3 206.55,-351.97 202.78,-357.87"/>
</g>
<!-- r2_node_5 -->
<g id="node22" class="node">
<title>r2_node_5</title>
<ellipse fill="none" stroke="black" cx="120.93" cy="-234" rx="50.33" ry="18"/>
<text text-anchor="middle" x="120.93" y="-228.95" font-family="Times,serif" font-size="14.00">r2_node_5</text>
</g>
<!-- r2_node_14&#45;&gt;r2_node_5 -->
<g id="edge29" class="edge">
<title>r2_node_14&#45;&gt;r2_node_5</title>
<path fill="none" stroke="black" d="M113.51,-287.7C112.97,-280.41 112.97,-271.73 113.47,-263.54"/>
<polygon fill="black" stroke="black" points="116.95,-263.9 114.41,-253.61 109.98,-263.24 116.95,-263.9"/>
</g>
<!-- r2_node_30&#45;&gt;r2_node_2 -->
<g id="edge18" class="edge">
<title>r2_node_30&#45;&gt;r2_node_2</title>
<path fill="none" stroke="black" d="M249.89,-324.28C249.38,-331.69 248.1,-340.54 246.39,-348.86"/>
<polygon fill="black" stroke="black" points="242.99,-348.04 244.07,-358.58 249.8,-349.67 242.99,-348.04"/>
</g>
<!-- r2_node_22 -->
<g id="node20" class="node">
<title>r2_node_22</title>
<ellipse fill="none" stroke="black" cx="244.93" cy="-234" rx="54.93" ry="18"/>
<text text-anchor="middle" x="244.93" y="-228.95" font-family="Times,serif" font-size="14.00">r2_node_22</text>
</g>
<!-- r2_node_30&#45;&gt;r2_node_22 -->
<g id="edge17" class="edge">
<title>r2_node_30&#45;&gt;r2_node_22</title>
<path fill="none" stroke="black" d="M240.52,-287.7C239.56,-280.41 239.07,-271.73 239.1,-263.54"/>
<polygon fill="black" stroke="black" points="242.6,-263.74 239.47,-253.62 235.6,-263.48 242.6,-263.74"/>
</g>
<!-- r2_node_11 -->
<g id="node17" class="node">
<title>r2_node_11</title>
<ellipse fill="none" stroke="black" cx="478.93" cy="-594" rx="54.93" ry="18"/>
<text text-anchor="middle" x="478.93" y="-588.95" font-family="Times,serif" font-size="14.00">r2_node_11</text>
</g>
<!-- r2_node_11&#45;&gt;r2_node_10 -->
<g id="edge13" class="edge">
<title>r2_node_11&#45;&gt;r2_node_10</title>
<path fill="none" stroke="black" d="M484.34,-612.1C484.89,-619.37 484.9,-628.04 484.41,-636.24"/>
<polygon fill="black" stroke="black" points="480.93,-635.91 483.48,-646.19 487.9,-636.56 480.93,-635.91"/>
</g>
<!-- r2_node_4 -->
<g id="node19" class="node">
<title>r2_node_4</title>
<ellipse fill="none" stroke="black" cx="537.93" cy="-522" rx="50.33" ry="18"/>
<text text-anchor="middle" x="537.93" y="-516.95" font-family="Times,serif" font-size="14.00">r2_node_4</text>
</g>
<!-- r2_node_11&#45;&gt;r2_node_4 -->
<g id="edge14" class="edge">
<title>r2_node_11&#45;&gt;r2_node_4</title>
<path fill="none" stroke="black" d="M487.34,-576.05C493.73,-567.38 502.57,-556.67 511.13,-547.15"/>
<polygon fill="black" stroke="black" points="513.58,-549.65 517.81,-539.94 508.44,-544.89 513.58,-549.65"/>
</g>
<!-- r2_node_10&#45;&gt;r2_node_16 -->
<g id="edge43" class="edge">
<title>r2_node_10&#45;&gt;r2_node_16</title>
<path fill="none" stroke="black" d="M462.25,-683.71C451.92,-692.93 437.87,-704.51 424.91,-714.51"/>
<polygon fill="black" stroke="black" points="422.8,-711.72 416.95,-720.55 427.03,-717.3 422.8,-711.72"/>
</g>
<!-- r2_node_10&#45;&gt;r2_node_11 -->
<g id="edge44" class="edge">
<title>r2_node_10&#45;&gt;r2_node_11</title>
<path fill="none" stroke="black" d="M471.51,-647.7C470.97,-640.41 470.97,-631.73 471.47,-623.54"/>
<polygon fill="black" stroke="black" points="474.95,-623.9 472.41,-613.61 467.98,-623.24 474.95,-623.9"/>
</g>
<!-- r2_node_4&#45;&gt;r2_node_11 -->
<g id="edge42" class="edge">
<title>r2_node_4&#45;&gt;r2_node_11</title>
<path fill="none" stroke="black" d="M529.4,-540.12C523.09,-548.67 514.43,-559.17 506.01,-568.55"/>
<polygon fill="black" stroke="black" points="503.66,-565.93 499.45,-575.65 508.8,-570.69 503.66,-565.93"/>
</g>
<!-- r2_node_22&#45;&gt;r2_node_30 -->
<g id="edge49" class="edge">
<title>r2_node_22&#45;&gt;r2_node_30</title>
<path fill="none" stroke="black" d="M251.32,-252.1C252.29,-259.37 252.79,-268.04 252.77,-276.24"/>
<polygon fill="black" stroke="black" points="249.27,-276.07 252.41,-286.18 256.27,-276.32 249.27,-276.07"/>
</g>
<!-- r2_node_15&#45;&gt;r2_node_18 -->
<g id="edge19" class="edge">
<title>r2_node_15&#45;&gt;r2_node_18</title>
<path fill="none" stroke="black" d="M161.63,-467.98C143.9,-492.95 105.93,-539.7 80.27,-568.42"/>
<polygon fill="black" stroke="black" points="77.89,-565.84 73.75,-575.59 83.07,-570.54 77.89,-565.84"/>
</g>
<!-- r2_node_5&#45;&gt;r2_node_14 -->
<g id="edge24" class="edge">
<title>r2_node_5&#45;&gt;r2_node_14</title>
<path fill="none" stroke="black" d="M126.34,-252.1C126.89,-259.37 126.9,-268.04 126.41,-276.24"/>
<polygon fill="black" stroke="black" points="122.93,-275.91 125.48,-286.19 129.9,-276.56 122.93,-275.91"/>
</g>
<!-- r2_node_3 -->
<g id="node23" class="node">
<title>r2_node_3</title>
<ellipse fill="none" stroke="black" cx="63.93" cy="-162" rx="50.33" ry="18"/>
<text text-anchor="middle" x="63.93" y="-156.95" font-family="Times,serif" font-size="14.00">r2_node_3</text>
</g>
<!-- r2_node_5&#45;&gt;r2_node_3 -->
<g id="edge23" class="edge">
<title>r2_node_5&#45;&gt;r2_node_3</title>
<path fill="none" stroke="black" d="M102.24,-217.12C94.48,-208.77 85.71,-198.32 78.44,-188.84"/>
<polygon fill="black" stroke="black" points="81.41,-186.97 72.65,-181.01 75.78,-191.14 81.41,-186.97"/>
</g>
<!-- r2_node_6 -->
<g id="node24" class="node">
<title>r2_node_6</title>
<ellipse fill="none" stroke="black" cx="231.93" cy="-162" rx="50.33" ry="18"/>
<text text-anchor="middle" x="231.93" y="-156.95" font-family="Times,serif" font-size="14.00">r2_node_6</text>
</g>
<!-- r2_node_5&#45;&gt;r2_node_6 -->
<g id="edge25" class="edge">
<title>r2_node_5&#45;&gt;r2_node_6</title>
<path fill="none" stroke="black" d="M140.36,-217.12C155.27,-206.97 176.12,-193.74 194.22,-182.9"/>
<polygon fill="black" stroke="black" points="195.8,-186.03 202.63,-177.93 192.24,-180 195.8,-186.03"/>
</g>
<!-- r2_node_3&#45;&gt;r2_node_5 -->
<g id="edge51" class="edge">
<title>r2_node_3&#45;&gt;r2_node_5</title>
<path fill="none" stroke="black" d="M82.58,-178.83C90.32,-187.15 99.05,-197.56 106.32,-207.02"/>
<polygon fill="black" stroke="black" points="103.35,-208.88 112.11,-214.84 108.98,-204.72 103.35,-208.88"/>
</g>
<!-- r2_node_24 -->
<g id="node26" class="node">
<title>r2_node_24</title>
<ellipse fill="none" stroke="black" cx="102.93" cy="-90" rx="54.93" ry="18"/>
<text text-anchor="middle" x="102.93" y="-84.95" font-family="Times,serif" font-size="14.00">r2_node_24</text>
</g>
<!-- r2_node_3&#45;&gt;r2_node_24 -->
<g id="edge50" class="edge">
<title>r2_node_3&#45;&gt;r2_node_24</title>
<path fill="none" stroke="black" d="M67.66,-143.7C71.29,-135.7 76.47,-126.02 81.81,-117.15"/>
<polygon fill="black" stroke="black" points="84.64,-119.23 87.02,-108.9 78.72,-115.49 84.64,-119.23"/>
</g>
<!-- r2_node_6&#45;&gt;r2_node_5 -->
<g id="edge27" class="edge">
<title>r2_node_6&#45;&gt;r2_node_5</title>
<path fill="none" stroke="black" d="M212.3,-179.03C197.53,-189.06 177.03,-202.07 159.13,-212.81"/>
<polygon fill="black" stroke="black" points="157.36,-209.79 150.54,-217.89 160.93,-215.81 157.36,-209.79"/>
</g>
<!-- r2_node_28 -->
<g id="node25" class="node">
<title>r2_node_28</title>
<ellipse fill="none" stroke="black" cx="84.93" cy="-18" rx="54.93" ry="18"/>
<text text-anchor="middle" x="84.93" y="-12.95" font-family="Times,serif" font-size="14.00">r2_node_28</text>
</g>
<!-- r2_node_28&#45;&gt;r2_node_24 -->
<g id="edge26" class="edge">
<title>r2_node_28&#45;&gt;r2_node_24</title>
<path fill="none" stroke="black" d="M95.23,-36.1C97.89,-43.45 100.4,-52.24 102.26,-60.53"/>
<polygon fill="black" stroke="black" points="98.79,-61.05 104.12,-70.21 105.67,-59.73 98.79,-61.05"/>
</g>
<!-- r2_node_24&#45;&gt;r2_node_3 -->
<g id="edge40" class="edge">
<title>r2_node_24&#45;&gt;r2_node_3</title>
<path fill="none" stroke="black" d="M99.14,-108.45C95.51,-116.44 90.34,-126.08 85.02,-134.92"/>
<polygon fill="black" stroke="black" points="82.21,-132.81 79.83,-143.13 88.13,-136.55 82.21,-132.81"/>
</g>
<!-- r2_node_24&#45;&gt;r2_node_28 -->
<g id="edge41" class="edge">
<title>r2_node_24&#45;&gt;r2_node_28</title>
<path fill="none" stroke="black" d="M92.7,-72.05C90.02,-64.68 87.49,-55.84 85.62,-47.51"/>
<polygon fill="black" stroke="black" points="89.07,-46.92 83.75,-37.76 82.2,-48.24 89.07,-46.92"/>
</g>
<!-- r2_node_17&#45;&gt;r2_node_8 -->
<g id="edge54" class="edge">
<title>r2_node_17&#45;&gt;r2_node_8</title>
<path fill="none" stroke="black" d="M380.85,-107.11C426.82,-151.34 532.86,-279.14 504.93,-396 487.61,-468.5 390.02,-636.06 332.93,-684 311.83,-701.72 283.84,-714.74 259.6,-723.43"/>
<polygon fill="black" stroke="black" points="258.54,-720.1 250.2,-726.64 260.8,-726.72 258.54,-720.1"/>
</g>
<!-- r2_node_23&#45;&gt;r2_node_16 -->
<g id="edge48" class="edge">
<title>r2_node_23&#45;&gt;r2_node_16</title>
<path fill="none" stroke="black" d="M626.38,-468.4C627.52,-511.31 612.75,-623.11 549.93,-684 524.3,-708.85 486.31,-722.11 453.82,-729.16"/>
<polygon fill="black" stroke="black" points="453.19,-725.72 444.07,-731.11 454.56,-732.58 453.19,-725.72"/>
</g>
</g>
</svg>
