<?xml version="1.0" encoding="UTF-8" standalone="no"?>
<!DOCTYPE svg PUBLIC "-//W3C//DTD SVG 1.1//EN"
 "http://www.w3.org/Graphics/SVG/1.1/DTD/svg11.dtd">
<!-- Generated by graphviz version 12.2.1 (20241206.2353)
 -->
<!-- Pages: 1 -->
<svg width="288pt" height="260pt"
 viewBox="0.00 0.00 287.87 260.00" xmlns="http://www.w3.org/2000/svg" xmlns:xlink="http://www.w3.org/1999/xlink">
<g id="graph0" class="graph" transform="scale(1 1) rotate(0) translate(4 256)">
<polygon fill="white" stroke="none" points="-4,4 -4,-256 283.87,-256 283.87,4 -4,4"/>
<!-- r2_node_4 -->
<g id="node1" class="node">
<title>r2_node_4</title>
<ellipse fill="none" stroke="black" cx="93.93" cy="-234" rx="50.33" ry="18"/>
<text text-anchor="middle" x="93.93" y="-228.95" font-family="Times,serif" font-size="14.00">r2_node_4</text>
</g>
<!-- r2_node_6 -->
<g id="node2" class="node">
<title>r2_node_6</title>
<ellipse fill="none" stroke="black" cx="54.93" cy="-162" rx="50.33" ry="18"/>
<text text-anchor="middle" x="54.93" y="-156.95" font-family="Times,serif" font-size="14.00">r2_node_6</text>
</g>
<!-- r2_node_4&#45;&gt;r2_node_6 -->
<g id="edge1" class="edge">
<title>r2_node_4&#45;&gt;r2_node_6</title>
<path fill="none" stroke="black" d="M78.85,-216.41C73.72,-208.71 68.24,-199.34 63.71,-190.62"/>
<polygon fill="black" stroke="black" points="66.93,-189.25 59.39,-181.81 60.65,-192.33 66.93,-189.25"/>
</g>
<!-- r2_node_17 -->
<g id="node3" class="node">
<title>r2_node_17</title>
<ellipse fill="none" stroke="black" cx="224.93" cy="-90" rx="54.93" ry="18"/>
<text text-anchor="middle" x="224.93" y="-84.95" font-family="Times,serif" font-size="14.00">r2_node_17</text>
</g>
<!-- r2_node_4&#45;&gt;r2_node_17 -->
<g id="edge2" class="edge">
<title>r2_node_4&#45;&gt;r2_node_17</title>
<path fill="none" stroke="black" d="M109.22,-216.43C132.09,-191.64 175.39,-144.7 202.05,-115.81"/>
<polygon fill="black" stroke="black" points="204.51,-118.3 208.72,-108.57 199.37,-113.55 204.51,-118.3"/>
</g>
<!-- r2_node_6&#45;&gt;r2_node_4 -->
<g id="edge4" class="edge">
<title>r2_node_6&#45;&gt;r2_node_4</title>
<path fill="none" stroke="black" d="M70.04,-179.62C75.19,-187.36 80.68,-196.76 85.23,-205.51"/>
<polygon fill="black" stroke="black" points="82.01,-206.89 89.54,-214.34 88.3,-203.82 82.01,-206.89"/>
</g>
<!-- r2_node_15 -->
<g id="node4" class="node">
<title>r2_node_15</title>
<ellipse fill="none" stroke="black" cx="54.93" cy="-18" rx="54.93" ry="18"/>
<text text-anchor="middle" x="54.93" y="-12.95" font-family="Times,serif" font-size="14.00">r2_node_15</text>
</g>
<!-- r2_node_6&#45;&gt;r2_node_15 -->
<g id="edge3" class="edge">
<title>r2_node_6&#45;&gt;r2_node_15</title>
<path fill="none" stroke="black" d="M45.8,-143.88C40.93,-133.76 35.43,-120.51 32.93,-108 29.81,-92.31 29.81,-87.69 32.93,-72 34.65,-63.4 37.78,-54.45 41.16,-46.41"/>
<polygon fill="black" stroke="black" points="44.26,-48.05 45.18,-37.5 37.88,-45.17 44.26,-48.05"/>
</g>
<!-- r2_node_12 -->
<g id="node5" class="node">
<title>r2_node_12</title>
<ellipse fill="none" stroke="black" cx="96.93" cy="-90" rx="54.93" ry="18"/>
<text text-anchor="middle" x="96.93" y="-84.95" font-family="Times,serif" font-size="14.00">r2_node_12</text>
</g>
<!-- r2_node_6&#45;&gt;r2_node_12 -->
<g id="edge5" class="edge">
<title>r2_node_6&#45;&gt;r2_node_12</title>
<path fill="none" stroke="black" d="M59.4,-143.7C63.38,-135.7 68.97,-126.02 74.69,-117.15"/>
<polygon fill="black" stroke="black" points="77.58,-119.12 80.27,-108.88 71.78,-115.21 77.58,-119.12"/>
</g>
<!-- r2_node_12&#45;&gt;r2_node_6 -->
<g id="edge6" class="edge">
<title>r2_node_12&#45;&gt;r2_node_6</title>
<path fill="none" stroke="black" d="M92.56,-108.12C88.49,-116.33 82.71,-126.32 76.82,-135.4"/>
<polygon fill="black" stroke="black" points="74.04,-133.27 71.33,-143.51 79.83,-137.2 74.04,-133.27"/>
</g>
<!-- r2_node_12&#45;&gt;r2_node_15 -->
<g id="edge7" class="edge">
<title>r2_node_12&#45;&gt;r2_node_15</title>
<path fill="none" stroke="black" d="M86.77,-72.05C81.97,-64.06 76.13,-54.33 70.77,-45.4"/>
<polygon fill="black" stroke="black" points="73.93,-43.86 65.79,-37.09 67.93,-47.46 73.93,-43.86"/>
</g>
</g>
</svg>
