<?xml version="1.0" encoding="UTF-8" standalone="no"?>
<!DOCTYPE svg PUBLIC "-//W3C//DTD SVG 1.1//EN"
 "http://www.w3.org/Graphics/SVG/1.1/DTD/svg11.dtd">
<!-- Generated by graphviz version 12.2.1 (20241206.2353)
 -->
<!-- Pages: 1 -->
<svg width="1657pt" height="332pt"
 viewBox="0.00 0.00 1657.30 332.00" xmlns="http://www.w3.org/2000/svg" xmlns:xlink="http://www.w3.org/1999/xlink">
<g id="graph0" class="graph" transform="scale(1 1) rotate(0) translate(4 328)">
<polygon fill="white" stroke="none" points="-4,4 -4,-328 1653.3,-328 1653.3,4 -4,4"/>
<!-- r3_node_6 -->
<g id="node1" class="node">
<title>r3_node_6</title>
<ellipse fill="none" stroke="black" cx="79.93" cy="-306" rx="50.33" ry="18"/>
<text text-anchor="middle" x="79.93" y="-300.95" font-family="Times,serif" font-size="14.00">r3_node_6</text>
</g>
<!-- r3_node_26 -->
<g id="node2" class="node">
<title>r3_node_26</title>
<ellipse fill="none" stroke="black" cx="54.93" cy="-18" rx="54.93" ry="18"/>
<text text-anchor="middle" x="54.93" y="-12.95" font-family="Times,serif" font-size="14.00">r3_node_26</text>
</g>
<!-- r3_node_6&#45;&gt;r3_node_26 -->
<g id="edge1" class="edge">
<title>r3_node_6&#45;&gt;r3_node_26</title>
<path fill="none" stroke="black" d="M78.41,-287.54C74.23,-239.76 62.58,-106.51 57.44,-47.61"/>
<polygon fill="black" stroke="black" points="60.93,-47.4 56.57,-37.74 53.96,-48.01 60.93,-47.4"/>
</g>
<!-- r3_node_1 -->
<g id="node3" class="node">
<title>r3_node_1</title>
<ellipse fill="none" stroke="black" cx="192.93" cy="-234" rx="50.33" ry="18"/>
<text text-anchor="middle" x="192.93" y="-228.95" font-family="Times,serif" font-size="14.00">r3_node_1</text>
</g>
<!-- r3_node_6&#45;&gt;r3_node_1 -->
<g id="edge2" class="edge">
<title>r3_node_6&#45;&gt;r3_node_1</title>
<path fill="none" stroke="black" d="M99.81,-289.12C115.02,-278.97 136.25,-265.74 154.65,-254.9"/>
<polygon fill="black" stroke="black" points="156.33,-257.97 163.22,-249.92 152.82,-251.92 156.33,-257.97"/>
</g>
<!-- r3_node_18 -->
<g id="node4" class="node">
<title>r3_node_18</title>
<ellipse fill="none" stroke="black" cx="225.93" cy="-18" rx="54.93" ry="18"/>
<text text-anchor="middle" x="225.93" y="-12.95" font-family="Times,serif" font-size="14.00">r3_node_18</text>
</g>
<!-- r3_node_6&#45;&gt;r3_node_18 -->
<g id="edge3" class="edge">
<title>r3_node_6&#45;&gt;r3_node_18</title>
<path fill="none" stroke="black" d="M88.63,-287.97C113.08,-240.08 182.55,-103.98 212.23,-45.85"/>
<polygon fill="black" stroke="black" points="215.17,-47.79 216.6,-37.29 208.93,-44.61 215.17,-47.79"/>
</g>
<!-- r3_node_20 -->
<g id="node5" class="node">
<title>r3_node_20</title>
<ellipse fill="none" stroke="black" cx="1075.93" cy="-18" rx="54.93" ry="18"/>
<text text-anchor="middle" x="1075.93" y="-12.95" font-family="Times,serif" font-size="14.00">r3_node_20</text>
</g>
<!-- r3_node_6&#45;&gt;r3_node_20 -->
<g id="edge4" class="edge">
<title>r3_node_6&#45;&gt;r3_node_20</title>
<path fill="none" stroke="black" d="M119.05,-294.21C168.54,-280.38 247.86,-257.51 251.93,-252 261.44,-239.13 257.13,-231.13 251.93,-216 245.36,-196.83 230.51,-199.17 223.93,-180 218.74,-164.87 214.93,-157.22 223.93,-144 273.14,-71.76 321.77,-91.67 406.93,-72 464.77,-58.64 854.42,-32.97 1010.99,-23.05"/>
<polygon fill="black" stroke="black" points="1011.03,-26.55 1020.79,-22.43 1010.59,-19.57 1011.03,-26.55"/>
</g>
<!-- r3_node_1&#45;&gt;r3_node_6 -->
<g id="edge43" class="edge">
<title>r3_node_1&#45;&gt;r3_node_6</title>
<path fill="none" stroke="black" d="M173.1,-250.85C157.9,-261 136.66,-274.24 118.24,-285.09"/>
<polygon fill="black" stroke="black" points="116.55,-282.02 109.66,-290.07 120.06,-288.07 116.55,-282.02"/>
</g>
<!-- r3_node_27 -->
<g id="node23" class="node">
<title>r3_node_27</title>
<ellipse fill="none" stroke="black" cx="287.93" cy="-162" rx="54.93" ry="18"/>
<text text-anchor="middle" x="287.93" y="-156.95" font-family="Times,serif" font-size="14.00">r3_node_27</text>
</g>
<!-- r3_node_1&#45;&gt;r3_node_27 -->
<g id="edge45" class="edge">
<title>r3_node_1&#45;&gt;r3_node_27</title>
<path fill="none" stroke="black" d="M214.02,-217.46C226.75,-208.08 243.2,-195.96 257.35,-185.54"/>
<polygon fill="black" stroke="black" points="259.06,-188.62 265.03,-179.87 254.91,-182.99 259.06,-188.62"/>
</g>
<!-- r3_node_21 -->
<g id="node27" class="node">
<title>r3_node_21</title>
<ellipse fill="none" stroke="black" cx="411.93" cy="-18" rx="54.93" ry="18"/>
<text text-anchor="middle" x="411.93" y="-12.95" font-family="Times,serif" font-size="14.00">r3_node_21</text>
</g>
<!-- r3_node_1&#45;&gt;r3_node_21 -->
<g id="edge44" class="edge">
<title>r3_node_1&#45;&gt;r3_node_21</title>
<path fill="none" stroke="black" d="M186.4,-215.95C180.29,-197 173.9,-166.16 186.93,-144 223.4,-82.03 302.92,-48.57 356.96,-32.27"/>
<polygon fill="black" stroke="black" points="357.66,-35.72 366.29,-29.57 355.71,-28.99 357.66,-35.72"/>
</g>
<!-- r3_node_10 -->
<g id="node6" class="node">
<title>r3_node_10</title>
<ellipse fill="none" stroke="black" cx="1138.93" cy="-234" rx="54.93" ry="18"/>
<text text-anchor="middle" x="1138.93" y="-228.95" font-family="Times,serif" font-size="14.00">r3_node_10</text>
</g>
<!-- r3_node_22 -->
<g id="node7" class="node">
<title>r3_node_22</title>
<ellipse fill="none" stroke="black" cx="1045.93" cy="-162" rx="54.93" ry="18"/>
<text text-anchor="middle" x="1045.93" y="-156.95" font-family="Times,serif" font-size="14.00">r3_node_22</text>
</g>
<!-- r3_node_10&#45;&gt;r3_node_22 -->
<g id="edge5" class="edge">
<title>r3_node_10&#45;&gt;r3_node_22</title>
<path fill="none" stroke="black" d="M1117.83,-217.12C1105.55,-207.87 1089.86,-196.07 1076.28,-185.84"/>
<polygon fill="black" stroke="black" points="1078.58,-183.19 1068.48,-179.97 1074.37,-188.78 1078.58,-183.19"/>
</g>
<!-- r3_node_28 -->
<g id="node8" class="node">
<title>r3_node_28</title>
<ellipse fill="none" stroke="black" cx="1104.93" cy="-90" rx="54.93" ry="18"/>
<text text-anchor="middle" x="1104.93" y="-84.95" font-family="Times,serif" font-size="14.00">r3_node_28</text>
</g>
<!-- r3_node_10&#45;&gt;r3_node_28 -->
<g id="edge6" class="edge">
<title>r3_node_10&#45;&gt;r3_node_28</title>
<path fill="none" stroke="black" d="M1134.77,-215.59C1129,-191.5 1118.52,-147.75 1111.65,-119.03"/>
<polygon fill="black" stroke="black" points="1115.12,-118.49 1109.38,-109.58 1108.31,-120.12 1115.12,-118.49"/>
</g>
<!-- r3_node_12 -->
<g id="node9" class="node">
<title>r3_node_12</title>
<ellipse fill="none" stroke="black" cx="450.93" cy="-306" rx="54.93" ry="18"/>
<text text-anchor="middle" x="450.93" y="-300.95" font-family="Times,serif" font-size="14.00">r3_node_12</text>
</g>
<!-- r3_node_10&#45;&gt;r3_node_12 -->
<g id="edge7" class="edge">
<title>r3_node_10&#45;&gt;r3_node_12</title>
<path fill="none" stroke="black" d="M1096.43,-245.77C1084.07,-248.12 1070.55,-250.39 1057.93,-252 822.42,-282.09 759.27,-249.79 524.93,-288 518.59,-289.03 511.97,-290.41 505.39,-291.93"/>
<polygon fill="black" stroke="black" points="504.78,-288.48 495.89,-294.24 506.43,-295.28 504.78,-288.48"/>
</g>
<!-- r3_node_12&#45;&gt;r3_node_10 -->
<g id="edge26" class="edge">
<title>r3_node_12&#45;&gt;r3_node_10</title>
<path fill="none" stroke="black" d="M486.91,-292.09C493.51,-290.51 500.37,-289.07 506.93,-288 741.27,-249.79 804.42,-282.09 1039.93,-252 1053.12,-250.32 1067.29,-247.92 1080.71,-245.45"/>
<polygon fill="black" stroke="black" points="1081.1,-248.94 1090.28,-243.66 1079.81,-242.06 1081.1,-248.94"/>
</g>
<!-- r3_node_17 -->
<g id="node10" class="node">
<title>r3_node_17</title>
<ellipse fill="none" stroke="black" cx="1225.93" cy="-162" rx="54.93" ry="18"/>
<text text-anchor="middle" x="1225.93" y="-156.95" font-family="Times,serif" font-size="14.00">r3_node_17</text>
</g>
<!-- r3_node_12&#45;&gt;r3_node_17 -->
<g id="edge27" class="edge">
<title>r3_node_12&#45;&gt;r3_node_17</title>
<path fill="none" stroke="black" d="M490.89,-293.19C499.11,-291.14 507.75,-289.27 515.93,-288 591.47,-276.27 1143.75,-300.37 1202.93,-252 1220.52,-237.63 1225.66,-211.74 1226.76,-191.58"/>
<polygon fill="black" stroke="black" points="1230.26,-191.79 1226.97,-181.72 1223.26,-191.65 1230.26,-191.79"/>
</g>
<!-- r3_node_15 -->
<g id="node17" class="node">
<title>r3_node_15</title>
<ellipse fill="none" stroke="black" cx="1353.93" cy="-162" rx="54.93" ry="18"/>
<text text-anchor="middle" x="1353.93" y="-156.95" font-family="Times,serif" font-size="14.00">r3_node_15</text>
</g>
<!-- r3_node_12&#45;&gt;r3_node_15 -->
<g id="edge28" class="edge">
<title>r3_node_12&#45;&gt;r3_node_15</title>
<path fill="none" stroke="black" d="M490.89,-293.18C499.1,-291.13 507.75,-289.26 515.93,-288 672.28,-263.86 1077.32,-303.4 1226.93,-252 1266.45,-238.43 1304.72,-208.61 1328.74,-187.22"/>
<polygon fill="black" stroke="black" points="1331.07,-189.84 1336.1,-180.51 1326.35,-184.66 1331.07,-189.84"/>
</g>
<!-- r3_node_29 -->
<g id="node26" class="node">
<title>r3_node_29</title>
<ellipse fill="none" stroke="black" cx="470.93" cy="-90" rx="54.93" ry="18"/>
<text text-anchor="middle" x="470.93" y="-84.95" font-family="Times,serif" font-size="14.00">r3_node_29</text>
</g>
<!-- r3_node_12&#45;&gt;r3_node_29 -->
<g id="edge25" class="edge">
<title>r3_node_12&#45;&gt;r3_node_29</title>
<path fill="none" stroke="black" d="M493.63,-294.4C544.68,-279.05 627.1,-245.06 657.93,-180 664.79,-165.54 667.58,-156.76 657.93,-144 655.82,-141.21 577.77,-119.74 523.18,-104.99"/>
<polygon fill="black" stroke="black" points="524.29,-101.67 513.73,-102.45 522.47,-108.43 524.29,-101.67"/>
</g>
<!-- r3_node_19 -->
<g id="node11" class="node">
<title>r3_node_19</title>
<ellipse fill="none" stroke="black" cx="598.93" cy="-90" rx="54.93" ry="18"/>
<text text-anchor="middle" x="598.93" y="-84.95" font-family="Times,serif" font-size="14.00">r3_node_19</text>
</g>
<!-- r3_node_25 -->
<g id="node12" class="node">
<title>r3_node_25</title>
<ellipse fill="none" stroke="black" cx="854.93" cy="-90" rx="54.93" ry="18"/>
<text text-anchor="middle" x="854.93" y="-84.95" font-family="Times,serif" font-size="14.00">r3_node_25</text>
</g>
<!-- r3_node_5 -->
<g id="node13" class="node">
<title>r3_node_5</title>
<ellipse fill="none" stroke="black" cx="747.93" cy="-234" rx="50.33" ry="18"/>
<text text-anchor="middle" x="747.93" y="-228.95" font-family="Times,serif" font-size="14.00">r3_node_5</text>
</g>
<!-- r3_node_5&#45;&gt;r3_node_25 -->
<g id="edge8" class="edge">
<title>r3_node_5&#45;&gt;r3_node_25</title>
<path fill="none" stroke="black" d="M760.63,-216.15C779.13,-191.6 813.66,-145.77 835.41,-116.91"/>
<polygon fill="black" stroke="black" points="838.12,-119.13 841.35,-109.03 832.53,-114.91 838.12,-119.13"/>
</g>
<!-- r3_node_4 -->
<g id="node14" class="node">
<title>r3_node_4</title>
<ellipse fill="none" stroke="black" cx="326.93" cy="-306" rx="50.33" ry="18"/>
<text text-anchor="middle" x="326.93" y="-300.95" font-family="Times,serif" font-size="14.00">r3_node_4</text>
</g>
<!-- r3_node_5&#45;&gt;r3_node_4 -->
<g id="edge9" class="edge">
<title>r3_node_5&#45;&gt;r3_node_4</title>
<path fill="none" stroke="black" d="M713.29,-247.43C706.58,-249.12 699.59,-250.72 692.93,-252 562.36,-277.13 526.29,-261.8 395.93,-288 390.16,-289.16 384.14,-290.59 378.14,-292.13"/>
<polygon fill="black" stroke="black" points="377.66,-288.64 368.89,-294.59 379.45,-295.4 377.66,-288.64"/>
</g>
<!-- r3_node_13 -->
<g id="node15" class="node">
<title>r3_node_13</title>
<ellipse fill="none" stroke="black" cx="726.93" cy="-90" rx="54.93" ry="18"/>
<text text-anchor="middle" x="726.93" y="-84.95" font-family="Times,serif" font-size="14.00">r3_node_13</text>
</g>
<!-- r3_node_5&#45;&gt;r3_node_13 -->
<g id="edge10" class="edge">
<title>r3_node_5&#45;&gt;r3_node_13</title>
<path fill="none" stroke="black" d="M740.82,-215.87C734.76,-191.99 727.99,-148.38 725.62,-119.54"/>
<polygon fill="black" stroke="black" points="729.12,-119.45 724.98,-109.7 722.14,-119.9 729.12,-119.45"/>
</g>
<!-- r3_node_4&#45;&gt;r3_node_19 -->
<g id="edge31" class="edge">
<title>r3_node_4&#45;&gt;r3_node_19</title>
<path fill="none" stroke="black" d="M364.91,-293.77C372.19,-291.75 379.78,-289.74 386.93,-288 464.94,-269.04 500.49,-301.19 563.93,-252 603.71,-221.16 605.34,-156.66 602.47,-119.33"/>
<polygon fill="black" stroke="black" points="605.99,-119.38 601.57,-109.75 599.03,-120.04 605.99,-119.38"/>
</g>
<!-- r3_node_4&#45;&gt;r3_node_5 -->
<g id="edge30" class="edge">
<title>r3_node_4&#45;&gt;r3_node_5</title>
<path fill="none" stroke="black" d="M360.43,-292.1C366.22,-290.57 372.2,-289.15 377.93,-288 508.29,-261.8 544.36,-277.13 674.93,-252 681.6,-250.72 688.59,-249.12 695.51,-247.43"/>
<polygon fill="black" stroke="black" points="696.35,-250.83 705.19,-244.99 694.63,-244.04 696.35,-250.83"/>
</g>
<!-- r3_node_4&#45;&gt;r3_node_29 -->
<g id="edge29" class="edge">
<title>r3_node_4&#45;&gt;r3_node_29</title>
<path fill="none" stroke="black" d="M365.29,-293.93C372.47,-291.92 379.92,-289.86 386.93,-288 451.11,-270.95 477.27,-289.69 531.93,-252 564.01,-229.89 570.29,-217.18 581.93,-180 586.72,-164.73 590.47,-157.53 581.93,-144 574.39,-132.04 544.95,-118.27 518.29,-107.77"/>
<polygon fill="black" stroke="black" points="519.88,-104.63 509.28,-104.31 517.37,-111.16 519.88,-104.63"/>
</g>
<!-- r3_node_7 -->
<g id="node29" class="node">
<title>r3_node_7</title>
<ellipse fill="none" stroke="black" cx="989.93" cy="-234" rx="50.33" ry="18"/>
<text text-anchor="middle" x="989.93" y="-228.95" font-family="Times,serif" font-size="14.00">r3_node_7</text>
</g>
<!-- r3_node_4&#45;&gt;r3_node_7 -->
<g id="edge32" class="edge">
<title>r3_node_4&#45;&gt;r3_node_7</title>
<path fill="none" stroke="black" d="M359.73,-291.98C365.73,-290.43 371.96,-289.03 377.93,-288 615.38,-246.93 681.31,-292.06 918.93,-252 925.28,-250.93 931.91,-249.48 938.48,-247.87"/>
<polygon fill="black" stroke="black" points="939.14,-251.32 947.95,-245.44 937.4,-244.54 939.14,-251.32"/>
</g>
<!-- r3_node_13&#45;&gt;r3_node_5 -->
<g id="edge24" class="edge">
<title>r3_node_13&#45;&gt;r3_node_5</title>
<path fill="none" stroke="black" d="M734.05,-108.11C740.09,-131.92 746.84,-175.37 749.23,-204.22"/>
<polygon fill="black" stroke="black" points="745.73,-204.33 749.87,-214.08 752.71,-203.87 745.73,-204.33"/>
</g>
<!-- r3_node_23 -->
<g id="node25" class="node">
<title>r3_node_23</title>
<ellipse fill="none" stroke="black" cx="568.93" cy="-18" rx="54.93" ry="18"/>
<text text-anchor="middle" x="568.93" y="-12.95" font-family="Times,serif" font-size="14.00">r3_node_23</text>
</g>
<!-- r3_node_13&#45;&gt;r3_node_23 -->
<g id="edge22" class="edge">
<title>r3_node_13&#45;&gt;r3_node_23</title>
<path fill="none" stroke="black" d="M695.34,-75C671.2,-64.31 637.69,-49.46 611.23,-37.74"/>
<polygon fill="black" stroke="black" points="612.69,-34.56 602.13,-33.71 609.85,-40.96 612.69,-34.56"/>
</g>
<!-- r3_node_16 -->
<g id="node28" class="node">
<title>r3_node_16</title>
<ellipse fill="none" stroke="black" cx="711.93" cy="-18" rx="54.93" ry="18"/>
<text text-anchor="middle" x="711.93" y="-12.95" font-family="Times,serif" font-size="14.00">r3_node_16</text>
</g>
<!-- r3_node_13&#45;&gt;r3_node_16 -->
<g id="edge23" class="edge">
<title>r3_node_13&#45;&gt;r3_node_16</title>
<path fill="none" stroke="black" d="M723.23,-71.7C721.65,-64.32 719.76,-55.52 717.99,-47.25"/>
<polygon fill="black" stroke="black" points="721.43,-46.63 715.92,-37.58 714.59,-48.1 721.43,-46.63"/>
</g>
<!-- r3_node_24 -->
<g id="node16" class="node">
<title>r3_node_24</title>
<ellipse fill="none" stroke="black" cx="1557.93" cy="-162" rx="54.93" ry="18"/>
<text text-anchor="middle" x="1557.93" y="-156.95" font-family="Times,serif" font-size="14.00">r3_node_24</text>
</g>
<!-- r3_node_11 -->
<g id="node18" class="node">
<title>r3_node_11</title>
<ellipse fill="none" stroke="black" cx="434.93" cy="-234" rx="54.93" ry="18"/>
<text text-anchor="middle" x="434.93" y="-228.95" font-family="Times,serif" font-size="14.00">r3_node_11</text>
</g>
<!-- r3_node_11&#45;&gt;r3_node_18 -->
<g id="edge11" class="edge">
<title>r3_node_11&#45;&gt;r3_node_18</title>
<path fill="none" stroke="black" d="M428.96,-215.84C421.55,-196.51 407.34,-165.05 386.93,-144 364.76,-121.12 350.7,-126.75 324.93,-108 297.75,-88.21 269.49,-62.18 250.16,-43.38"/>
<polygon fill="black" stroke="black" points="252.86,-41.13 243.28,-36.62 247.96,-46.12 252.86,-41.13"/>
</g>
<!-- r3_node_11&#45;&gt;r3_node_19 -->
<g id="edge12" class="edge">
<title>r3_node_11&#45;&gt;r3_node_19</title>
<path fill="none" stroke="black" d="M474.93,-221.33C498.6,-212.85 527.96,-199.43 548.93,-180 567.2,-163.09 580.47,-137.95 588.73,-118.7"/>
<polygon fill="black" stroke="black" points="591.92,-120.13 592.45,-109.55 585.44,-117.5 591.92,-120.13"/>
</g>
<!-- r3_node_9 -->
<g id="node19" class="node">
<title>r3_node_9</title>
<ellipse fill="none" stroke="black" cx="489.93" cy="-162" rx="50.33" ry="18"/>
<text text-anchor="middle" x="489.93" y="-156.95" font-family="Times,serif" font-size="14.00">r3_node_9</text>
</g>
<!-- r3_node_11&#45;&gt;r3_node_9 -->
<g id="edge13" class="edge">
<title>r3_node_11&#45;&gt;r3_node_9</title>
<path fill="none" stroke="black" d="M442.61,-215.7C448.39,-207.23 456.33,-196.89 464.12,-187.61"/>
<polygon fill="black" stroke="black" points="466.56,-190.14 470.47,-180.29 461.27,-185.55 466.56,-190.14"/>
</g>
<!-- r3_node_3 -->
<g id="node20" class="node">
<title>r3_node_3</title>
<ellipse fill="none" stroke="black" cx="204.93" cy="-306" rx="50.33" ry="18"/>
<text text-anchor="middle" x="204.93" y="-300.95" font-family="Times,serif" font-size="14.00">r3_node_3</text>
</g>
<!-- r3_node_11&#45;&gt;r3_node_3 -->
<g id="edge14" class="edge">
<title>r3_node_11&#45;&gt;r3_node_3</title>
<path fill="none" stroke="black" d="M398.29,-247.78C359.63,-260.1 298.65,-278.67 255.46,-291.29"/>
<polygon fill="black" stroke="black" points="254.69,-287.87 246.07,-294.02 256.65,-294.59 254.69,-287.87"/>
</g>
<!-- r3_node_9&#45;&gt;r3_node_11 -->
<g id="edge20" class="edge">
<title>r3_node_9&#45;&gt;r3_node_11</title>
<path fill="none" stroke="black" d="M482.38,-180.12C476.61,-188.59 468.66,-198.96 460.85,-208.26"/>
<polygon fill="black" stroke="black" points="458.38,-205.77 454.48,-215.62 463.68,-210.35 458.38,-205.77"/>
</g>
<!-- r3_node_9&#45;&gt;r3_node_29 -->
<g id="edge21" class="edge">
<title>r3_node_9&#45;&gt;r3_node_29</title>
<path fill="none" stroke="black" d="M485.24,-143.7C483.21,-136.24 480.79,-127.32 478.52,-118.97"/>
<polygon fill="black" stroke="black" points="481.97,-118.3 475.97,-109.57 475.21,-120.13 481.97,-118.3"/>
</g>
<!-- r3_node_9&#45;&gt;r3_node_21 -->
<g id="edge19" class="edge">
<title>r3_node_9&#45;&gt;r3_node_21</title>
<path fill="none" stroke="black" d="M451.2,-150.29C407.62,-137.86 341.94,-117.8 334.93,-108 325.63,-94.98 327.49,-86.16 334.93,-72 342.41,-57.78 355.61,-46.64 369,-38.31"/>
<polygon fill="black" stroke="black" points="370.46,-41.51 377.39,-33.5 366.97,-35.44 370.46,-41.51"/>
</g>
<!-- r3_node_3&#45;&gt;r3_node_26 -->
<g id="edge34" class="edge">
<title>r3_node_3&#45;&gt;r3_node_26</title>
<path fill="none" stroke="black" d="M239.04,-292.39C260.03,-283.42 286.53,-269.81 305.93,-252 344.36,-216.71 380.8,-187.46 351.93,-144 344.5,-132.81 180.95,-68.01 99.79,-36.37"/>
<polygon fill="black" stroke="black" points="101.38,-33.24 90.79,-32.87 98.84,-39.76 101.38,-33.24"/>
</g>
<!-- r3_node_3&#45;&gt;r3_node_11 -->
<g id="edge36" class="edge">
<title>r3_node_3&#45;&gt;r3_node_11</title>
<path fill="none" stroke="black" d="M239.98,-292.73C277.94,-280.61 338.72,-262.08 382.37,-249.3"/>
<polygon fill="black" stroke="black" points="383.28,-252.68 391.91,-246.53 381.33,-245.96 383.28,-252.68"/>
</g>
<!-- r3_node_3&#45;&gt;r3_node_27 -->
<g id="edge35" class="edge">
<title>r3_node_3&#45;&gt;r3_node_27</title>
<path fill="none" stroke="black" d="M239.4,-292.49C257.31,-284.03 277.58,-270.89 287.93,-252 297.98,-233.66 297.41,-209.83 294.63,-191.45"/>
<polygon fill="black" stroke="black" points="298.1,-190.96 292.85,-181.76 291.21,-192.22 298.1,-190.96"/>
</g>
<!-- r3_node_3&#45;&gt;r3_node_23 -->
<g id="edge33" class="edge">
<title>r3_node_3&#45;&gt;r3_node_23</title>
<path fill="none" stroke="black" d="M243.09,-293.99C251.25,-291.84 259.84,-289.72 267.93,-288 369.58,-266.43 410.86,-307.12 498.93,-252 515.45,-241.67 543.11,-198.59 548.93,-180 553.72,-164.73 558.76,-156.63 548.93,-144 508.95,-92.62 446.92,-159.38 406.93,-108 397.11,-95.37 397.54,-84.95 406.93,-72 419.54,-54.61 469.96,-39.9 511.24,-30.42"/>
<polygon fill="black" stroke="black" points="511.85,-33.87 520.85,-28.27 510.33,-27.04 511.85,-33.87"/>
</g>
<!-- r3_node_14 -->
<g id="node21" class="node">
<title>r3_node_14</title>
<ellipse fill="none" stroke="black" cx="579.93" cy="-306" rx="54.93" ry="18"/>
<text text-anchor="middle" x="579.93" y="-300.95" font-family="Times,serif" font-size="14.00">r3_node_14</text>
</g>
<!-- r3_node_14&#45;&gt;r3_node_20 -->
<g id="edge16" class="edge">
<title>r3_node_14&#45;&gt;r3_node_20</title>
<path fill="none" stroke="black" d="M634.69,-303.51C776.48,-299.24 1152.96,-285.02 1272.93,-252 1273.48,-251.85 1417.64,-180.48 1417.93,-180 1484.61,-72.45 1256.8,-35.57 1140.31,-23.93"/>
<polygon fill="black" stroke="black" points="1140.86,-20.46 1130.57,-22.99 1140.19,-27.43 1140.86,-20.46"/>
</g>
<!-- r3_node_8 -->
<g id="node22" class="node">
<title>r3_node_8</title>
<ellipse fill="none" stroke="black" cx="1404.93" cy="-234" rx="50.33" ry="18"/>
<text text-anchor="middle" x="1404.93" y="-228.95" font-family="Times,serif" font-size="14.00">r3_node_8</text>
</g>
<!-- r3_node_14&#45;&gt;r3_node_8 -->
<g id="edge15" class="edge">
<title>r3_node_14&#45;&gt;r3_node_8</title>
<path fill="none" stroke="black" d="M634.95,-304.44C759.42,-302.44 1071.36,-293.34 1328.93,-252 1336.58,-250.77 1344.64,-249.08 1352.55,-247.24"/>
<polygon fill="black" stroke="black" points="1353.22,-250.68 1362.11,-244.93 1351.57,-243.88 1353.22,-250.68"/>
</g>
<!-- r3_node_14&#45;&gt;r3_node_27 -->
<g id="edge17" class="edge">
<title>r3_node_14&#45;&gt;r3_node_27</title>
<path fill="none" stroke="black" d="M569.21,-288.15C555.43,-267.89 529.59,-234.35 498.93,-216 454.01,-189.12 395.87,-175.81 352.01,-169.25"/>
<polygon fill="black" stroke="black" points="352.49,-165.79 342.1,-167.86 351.52,-172.72 352.49,-165.79"/>
</g>
<!-- r3_node_30 -->
<g id="node24" class="node">
<title>r3_node_30</title>
<ellipse fill="none" stroke="black" cx="1348.93" cy="-18" rx="54.93" ry="18"/>
<text text-anchor="middle" x="1348.93" y="-12.95" font-family="Times,serif" font-size="14.00">r3_node_30</text>
</g>
<!-- r3_node_14&#45;&gt;r3_node_30 -->
<g id="edge18" class="edge">
<title>r3_node_14&#45;&gt;r3_node_30</title>
<path fill="none" stroke="black" d="M634.92,-304.07C802.49,-300.87 1304.98,-288.4 1463.93,-252 1545.92,-233.23 1592.13,-249.87 1638.93,-180 1669.49,-134.38 1625.71,-100.76 1578.93,-72 1528.84,-41.2 1462.64,-28.28 1414.13,-22.87"/>
<polygon fill="black" stroke="black" points="1414.63,-19.4 1404.33,-21.86 1413.92,-26.36 1414.63,-19.4"/>
</g>
<!-- r3_node_8&#45;&gt;r3_node_19 -->
<g id="edge38" class="edge">
<title>r3_node_8&#45;&gt;r3_node_19</title>
<path fill="none" stroke="black" d="M1414.55,-216.12C1424.51,-196.16 1436.25,-163.21 1417.93,-144 1359.98,-83.22 745.93,-120.85 662.93,-108 658.52,-107.32 653.98,-106.45 649.44,-105.47"/>
<polygon fill="black" stroke="black" points="650.27,-102.07 639.73,-103.19 648.67,-108.88 650.27,-102.07"/>
</g>
<!-- r3_node_8&#45;&gt;r3_node_24 -->
<g id="edge39" class="edge">
<title>r3_node_8&#45;&gt;r3_node_24</title>
<path fill="none" stroke="black" d="M1435.16,-219.17C1458.43,-208.52 1490.85,-193.69 1516.53,-181.94"/>
<polygon fill="black" stroke="black" points="1517.7,-185.25 1525.34,-177.91 1514.79,-178.89 1517.7,-185.25"/>
</g>
<!-- r3_node_8&#45;&gt;r3_node_14 -->
<g id="edge37" class="edge">
<title>r3_node_8&#45;&gt;r3_node_14</title>
<path fill="none" stroke="black" d="M1370.06,-247.29C1362.5,-249.11 1354.52,-250.78 1346.93,-252 1090.33,-293.19 779.76,-302.37 646.16,-304.42"/>
<polygon fill="black" stroke="black" points="646.39,-300.91 636.44,-304.55 646.49,-307.91 646.39,-300.91"/>
</g>
<!-- r3_node_8&#45;&gt;r3_node_30 -->
<g id="edge40" class="edge">
<title>r3_node_8&#45;&gt;r3_node_30</title>
<path fill="none" stroke="black" d="M1453.04,-228.1C1510.46,-221.14 1601.34,-206.23 1621.93,-180 1631.81,-167.42 1630.58,-157.46 1621.93,-144 1575.48,-71.64 1475.54,-40.63 1410.33,-27.73"/>
<polygon fill="black" stroke="black" points="1411.35,-24.36 1400.87,-25.95 1410.05,-31.24 1411.35,-24.36"/>
</g>
<!-- r3_node_7&#45;&gt;r3_node_22 -->
<g id="edge46" class="edge">
<title>r3_node_7&#45;&gt;r3_node_22</title>
<path fill="none" stroke="black" d="M1003.21,-216.41C1009.9,-208.04 1018.17,-197.71 1025.64,-188.37"/>
<polygon fill="black" stroke="black" points="1028.3,-190.65 1031.81,-180.65 1022.83,-186.27 1028.3,-190.65"/>
</g>
<!-- r3_node_7&#45;&gt;r3_node_28 -->
<g id="edge48" class="edge">
<title>r3_node_7&#45;&gt;r3_node_28</title>
<path fill="none" stroke="black" d="M982.41,-215.71C975.34,-196.55 967.78,-165.51 981.93,-144 996.23,-122.27 1021.52,-109.41 1045.47,-101.82"/>
<polygon fill="black" stroke="black" points="1046.23,-105.24 1054.87,-99.11 1044.3,-98.51 1046.23,-105.24"/>
</g>
<!-- r3_node_7&#45;&gt;r3_node_4 -->
<g id="edge47" class="edge">
<title>r3_node_7&#45;&gt;r3_node_4</title>
<path fill="none" stroke="black" d="M956.39,-247.85C949.99,-249.46 943.32,-250.92 936.93,-252 699.31,-292.06 633.38,-246.93 395.93,-288 390.07,-289.01 383.95,-290.38 377.87,-291.89"/>
<polygon fill="black" stroke="black" points="377.29,-288.43 368.51,-294.36 379.07,-295.2 377.29,-288.43"/>
</g>
<!-- r3_node_2 -->
<g id="node30" class="node">
<title>r3_node_2</title>
<ellipse fill="none" stroke="black" cx="868.93" cy="-234" rx="50.33" ry="18"/>
<text text-anchor="middle" x="868.93" y="-228.95" font-family="Times,serif" font-size="14.00">r3_node_2</text>
</g>
<!-- r3_node_2&#45;&gt;r3_node_25 -->
<g id="edge41" class="edge">
<title>r3_node_2&#45;&gt;r3_node_25</title>
<path fill="none" stroke="black" d="M867.22,-215.59C864.85,-191.61 860.57,-148.14 857.74,-119.42"/>
<polygon fill="black" stroke="black" points="861.23,-119.23 856.77,-109.62 854.27,-119.91 861.23,-119.23"/>
</g>
<!-- r3_node_2&#45;&gt;r3_node_23 -->
<g id="edge42" class="edge">
<title>r3_node_2&#45;&gt;r3_node_23</title>
<path fill="none" stroke="black" d="M883.29,-216.27C908.83,-184.42 956.15,-114.49 918.93,-72 878.9,-26.3 707.79,-46.4 647.93,-36 640.23,-34.66 632.14,-33.1 624.19,-31.48"/>
<polygon fill="black" stroke="black" points="625.09,-28.09 614.58,-29.47 623.65,-34.94 625.09,-28.09"/>
</g>
</g>
</svg>
