<?xml version="1.0" encoding="UTF-8" standalone="no"?>
<!DOCTYPE svg PUBLIC "-//W3C//DTD SVG 1.1//EN"
 "http://www.w3.org/Graphics/SVG/1.1/DTD/svg11.dtd">
<!-- Generated by graphviz version 12.2.1 (20241206.2353)
 -->
<!-- Pages: 1 -->
<svg width="807pt" height="260pt"
 viewBox="0.00 0.00 806.87 260.00" xmlns="http://www.w3.org/2000/svg" xmlns:xlink="http://www.w3.org/1999/xlink">
<g id="graph0" class="graph" transform="scale(1 1) rotate(0) translate(4 256)">
<polygon fill="white" stroke="none" points="-4,4 -4,-256 802.87,-256 802.87,4 -4,4"/>
<!-- r1_node_16 -->
<g id="node1" class="node">
<title>r1_node_16</title>
<ellipse fill="none" stroke="black" cx="54.93" cy="-90" rx="54.93" ry="18"/>
<text text-anchor="middle" x="54.93" y="-84.95" font-family="Times,serif" font-size="14.00">r1_node_16</text>
</g>
<!-- r1_node_20 -->
<g id="node2" class="node">
<title>r1_node_20</title>
<ellipse fill="none" stroke="black" cx="355.93" cy="-162" rx="54.93" ry="18"/>
<text text-anchor="middle" x="355.93" y="-156.95" font-family="Times,serif" font-size="14.00">r1_node_20</text>
</g>
<!-- r1_node_13 -->
<g id="node3" class="node">
<title>r1_node_13</title>
<ellipse fill="none" stroke="black" cx="652.93" cy="-18" rx="54.93" ry="18"/>
<text text-anchor="middle" x="652.93" y="-12.95" font-family="Times,serif" font-size="14.00">r1_node_13</text>
</g>
<!-- r1_node_4 -->
<g id="node4" class="node">
<title>r1_node_4</title>
<ellipse fill="none" stroke="black" cx="554.93" cy="-162" rx="50.33" ry="18"/>
<text text-anchor="middle" x="554.93" y="-156.95" font-family="Times,serif" font-size="14.00">r1_node_4</text>
</g>
<!-- r1_node_3 -->
<g id="node5" class="node">
<title>r1_node_3</title>
<ellipse fill="none" stroke="black" cx="276.93" cy="-234" rx="50.33" ry="18"/>
<text text-anchor="middle" x="276.93" y="-228.95" font-family="Times,serif" font-size="14.00">r1_node_3</text>
</g>
<!-- r1_node_3&#45;&gt;r1_node_16 -->
<g id="edge4" class="edge">
<title>r1_node_3&#45;&gt;r1_node_16</title>
<path fill="none" stroke="black" d="M319.06,-223.99C372.48,-210.7 453.8,-183.14 419.93,-144 410.13,-132.66 219.32,-109.55 117.59,-97.96"/>
<polygon fill="black" stroke="black" points="118.08,-94.49 107.75,-96.84 117.29,-101.44 118.08,-94.49"/>
</g>
<!-- r1_node_3&#45;&gt;r1_node_20 -->
<g id="edge6" class="edge">
<title>r1_node_3&#45;&gt;r1_node_20</title>
<path fill="none" stroke="black" d="M295.26,-216.76C305.26,-207.91 317.82,-196.77 328.93,-186.93"/>
<polygon fill="black" stroke="black" points="331.14,-189.65 336.3,-180.39 326.5,-184.41 331.14,-189.65"/>
</g>
<!-- r1_node_3&#45;&gt;r1_node_4 -->
<g id="edge1" class="edge">
<title>r1_node_3&#45;&gt;r1_node_4</title>
<path fill="none" stroke="black" d="M317.61,-223.14C360.7,-212.65 430.69,-195.46 490.93,-180 495.44,-178.84 500.13,-177.63 504.82,-176.4"/>
<polygon fill="black" stroke="black" points="505.46,-179.85 514.24,-173.92 503.67,-173.08 505.46,-179.85"/>
</g>
<!-- r1_node_6 -->
<g id="node6" class="node">
<title>r1_node_6</title>
<ellipse fill="none" stroke="black" cx="673.93" cy="-162" rx="50.33" ry="18"/>
<text text-anchor="middle" x="673.93" y="-156.95" font-family="Times,serif" font-size="14.00">r1_node_6</text>
</g>
<!-- r1_node_3&#45;&gt;r1_node_6 -->
<g id="edge2" class="edge">
<title>r1_node_3&#45;&gt;r1_node_6</title>
<path fill="none" stroke="black" d="M323.56,-226.68C387.51,-218.26 505.43,-201.84 604.93,-180 610.48,-178.78 616.26,-177.35 622.04,-175.85"/>
<polygon fill="black" stroke="black" points="622.85,-179.25 631.61,-173.28 621.04,-172.49 622.85,-179.25"/>
</g>
<!-- r1_node_14 -->
<g id="node7" class="node">
<title>r1_node_14</title>
<ellipse fill="none" stroke="black" cx="67.93" cy="-18" rx="54.93" ry="18"/>
<text text-anchor="middle" x="67.93" y="-12.95" font-family="Times,serif" font-size="14.00">r1_node_14</text>
</g>
<!-- r1_node_3&#45;&gt;r1_node_14 -->
<g id="edge3" class="edge">
<title>r1_node_3&#45;&gt;r1_node_14</title>
<path fill="none" stroke="black" d="M327,-231.29C364.26,-227.07 412.83,-214.69 437.93,-180 447.31,-167.04 445.33,-158.19 437.93,-144 425.03,-119.23 360.73,-82.69 334.93,-72 250.28,-36.93 221.4,-55.78 131.93,-36 127.94,-35.12 123.82,-34.15 119.68,-33.14"/>
<polygon fill="black" stroke="black" points="120.8,-29.81 110.25,-30.77 119.09,-36.6 120.8,-29.81"/>
</g>
<!-- r1_node_18 -->
<g id="node8" class="node">
<title>r1_node_18</title>
<ellipse fill="none" stroke="black" cx="743.93" cy="-90" rx="54.93" ry="18"/>
<text text-anchor="middle" x="743.93" y="-84.95" font-family="Times,serif" font-size="14.00">r1_node_18</text>
</g>
<!-- r1_node_3&#45;&gt;r1_node_18 -->
<g id="edge5" class="edge">
<title>r1_node_3&#45;&gt;r1_node_18</title>
<path fill="none" stroke="black" d="M326.68,-230.64C438.95,-224.84 704.48,-208.25 732.93,-180 748.4,-164.65 750.24,-139.48 748.73,-119.82"/>
<polygon fill="black" stroke="black" points="752.22,-119.48 747.62,-109.93 745.26,-120.26 752.22,-119.48"/>
</g>
<!-- r1_node_6&#45;&gt;r1_node_13 -->
<g id="edge22" class="edge">
<title>r1_node_6&#45;&gt;r1_node_13</title>
<path fill="none" stroke="black" d="M671.36,-143.59C667.81,-119.61 661.38,-76.14 657.14,-47.42"/>
<polygon fill="black" stroke="black" points="660.61,-46.99 655.69,-37.61 653.69,-48.01 660.61,-46.99"/>
</g>
<!-- r1_node_6&#45;&gt;r1_node_3 -->
<g id="edge20" class="edge">
<title>r1_node_6&#45;&gt;r1_node_3</title>
<path fill="none" stroke="black" d="M640.08,-175.8C634.39,-177.32 628.54,-178.77 622.93,-180 523.34,-201.86 405.28,-218.29 335.9,-226.7"/>
<polygon fill="black" stroke="black" points="335.8,-223.19 326.29,-227.85 336.63,-230.14 335.8,-223.19"/>
</g>
<!-- r1_node_11 -->
<g id="node9" class="node">
<title>r1_node_11</title>
<ellipse fill="none" stroke="black" cx="514.93" cy="-18" rx="54.93" ry="18"/>
<text text-anchor="middle" x="514.93" y="-12.95" font-family="Times,serif" font-size="14.00">r1_node_11</text>
</g>
<!-- r1_node_6&#45;&gt;r1_node_11 -->
<g id="edge21" class="edge">
<title>r1_node_6&#45;&gt;r1_node_11</title>
<path fill="none" stroke="black" d="M660.19,-144.26C644.46,-125.58 617.43,-94.98 590.93,-72 578.03,-60.8 562.75,-49.77 549.29,-40.7"/>
<polygon fill="black" stroke="black" points="551.4,-37.9 541.13,-35.3 547.53,-43.74 551.4,-37.9"/>
</g>
<!-- r1_node_12 -->
<g id="node11" class="node">
<title>r1_node_12</title>
<ellipse fill="none" stroke="black" cx="270.93" cy="-90" rx="54.93" ry="18"/>
<text text-anchor="middle" x="270.93" y="-84.95" font-family="Times,serif" font-size="14.00">r1_node_12</text>
</g>
<!-- r1_node_6&#45;&gt;r1_node_12 -->
<g id="edge23" class="edge">
<title>r1_node_6&#45;&gt;r1_node_12</title>
<path fill="none" stroke="black" d="M636.34,-149.59C628.96,-147.56 621.23,-145.59 613.93,-144 516.76,-122.81 402.3,-106.91 333.24,-98.29"/>
<polygon fill="black" stroke="black" points="334,-94.86 323.65,-97.1 333.14,-101.8 334,-94.86"/>
</g>
<!-- r1_node_15 -->
<g id="node13" class="node">
<title>r1_node_15</title>
<ellipse fill="none" stroke="black" cx="195.93" cy="-18" rx="54.93" ry="18"/>
<text text-anchor="middle" x="195.93" y="-12.95" font-family="Times,serif" font-size="14.00">r1_node_15</text>
</g>
<!-- r1_node_6&#45;&gt;r1_node_15 -->
<g id="edge24" class="edge">
<title>r1_node_6&#45;&gt;r1_node_15</title>
<path fill="none" stroke="black" d="M635.57,-149.97C628.39,-147.95 620.94,-145.89 613.93,-144 551.48,-127.18 533.41,-130.93 472.93,-108 440.22,-95.59 435.64,-84.42 402.93,-72 353.85,-53.37 295.77,-39.14 253.65,-30.14"/>
<polygon fill="black" stroke="black" points="254.47,-26.73 243.96,-28.11 253.03,-33.58 254.47,-26.73"/>
</g>
<!-- r1_node_5 -->
<g id="node15" class="node">
<title>r1_node_5</title>
<ellipse fill="none" stroke="black" cx="531.93" cy="-90" rx="50.33" ry="18"/>
<text text-anchor="middle" x="531.93" y="-84.95" font-family="Times,serif" font-size="14.00">r1_node_5</text>
</g>
<!-- r1_node_6&#45;&gt;r1_node_5 -->
<g id="edge19" class="edge">
<title>r1_node_6&#45;&gt;r1_node_5</title>
<path fill="none" stroke="black" d="M641.81,-147.83C619.44,-137.53 589.76,-123.02 566.82,-111.25"/>
<polygon fill="black" stroke="black" points="568.64,-108.25 558.15,-106.75 565.41,-114.46 568.64,-108.25"/>
</g>
<!-- r1_node_2 -->
<g id="node10" class="node">
<title>r1_node_2</title>
<ellipse fill="none" stroke="black" cx="79.93" cy="-234" rx="50.33" ry="18"/>
<text text-anchor="middle" x="79.93" y="-228.95" font-family="Times,serif" font-size="14.00">r1_node_2</text>
</g>
<!-- r1_node_2&#45;&gt;r1_node_16 -->
<g id="edge12" class="edge">
<title>r1_node_2&#45;&gt;r1_node_16</title>
<path fill="none" stroke="black" d="M71.89,-215.74C67.54,-205.57 62.54,-192.32 59.93,-180 55.74,-160.17 54.53,-137.33 54.35,-119.75"/>
<polygon fill="black" stroke="black" points="57.84,-119.78 54.36,-109.78 50.84,-119.77 57.84,-119.78"/>
</g>
<!-- r1_node_2&#45;&gt;r1_node_20 -->
<g id="edge8" class="edge">
<title>r1_node_2&#45;&gt;r1_node_20</title>
<path fill="none" stroke="black" d="M120.07,-222.82C168.22,-210.61 249.13,-190.09 302.53,-176.54"/>
<polygon fill="black" stroke="black" points="303.19,-179.99 312.02,-174.14 301.47,-173.2 303.19,-179.99"/>
</g>
<!-- r1_node_2&#45;&gt;r1_node_14 -->
<g id="edge10" class="edge">
<title>r1_node_2&#45;&gt;r1_node_14</title>
<path fill="none" stroke="black" d="M119.43,-222.45C140.76,-214.52 165.26,-201.27 177.93,-180 186.13,-166.26 183.32,-159.07 177.93,-144 162.73,-101.45 125.07,-64.25 98.06,-41.74"/>
<polygon fill="black" stroke="black" points="100.5,-39.21 90.53,-35.63 96.09,-44.65 100.5,-39.21"/>
</g>
<!-- r1_node_2&#45;&gt;r1_node_12 -->
<g id="edge7" class="edge">
<title>r1_node_2&#45;&gt;r1_node_12</title>
<path fill="none" stroke="black" d="M129.31,-230.22C167.19,-225.43 218.08,-212.82 248.93,-180 264.03,-163.94 269.23,-139.22 270.83,-119.9"/>
<polygon fill="black" stroke="black" points="274.32,-120.09 271.34,-109.93 267.33,-119.73 274.32,-120.09"/>
</g>
<!-- r1_node_1 -->
<g id="node12" class="node">
<title>r1_node_1</title>
<ellipse fill="none" stroke="black" cx="118.93" cy="-162" rx="50.33" ry="18"/>
<text text-anchor="middle" x="118.93" y="-156.95" font-family="Times,serif" font-size="14.00">r1_node_1</text>
</g>
<!-- r1_node_2&#45;&gt;r1_node_1 -->
<g id="edge9" class="edge">
<title>r1_node_2&#45;&gt;r1_node_1</title>
<path fill="none" stroke="black" d="M83.66,-215.7C87.29,-207.7 92.47,-198.02 97.81,-189.15"/>
<polygon fill="black" stroke="black" points="100.64,-191.23 103.02,-180.9 94.72,-187.49 100.64,-191.23"/>
</g>
<!-- r1_node_2&#45;&gt;r1_node_15 -->
<g id="edge11" class="edge">
<title>r1_node_2&#45;&gt;r1_node_15</title>
<path fill="none" stroke="black" d="M123.96,-224.83C149.36,-217.62 179.27,-204.3 194.93,-180 208.55,-158.88 203.53,-87.99 199.34,-47.67"/>
<polygon fill="black" stroke="black" points="202.84,-47.53 198.28,-37.97 195.89,-48.29 202.84,-47.53"/>
</g>
<!-- r1_node_1&#45;&gt;r1_node_16 -->
<g id="edge14" class="edge">
<title>r1_node_1&#45;&gt;r1_node_16</title>
<path fill="none" stroke="black" d="M103.77,-144.41C95.96,-135.87 86.27,-125.28 77.6,-115.79"/>
<polygon fill="black" stroke="black" points="80.34,-113.61 71.01,-108.59 75.18,-118.33 80.34,-113.61"/>
</g>
<!-- r1_node_1&#45;&gt;r1_node_2 -->
<g id="edge13" class="edge">
<title>r1_node_1&#45;&gt;r1_node_2</title>
<path fill="none" stroke="black" d="M115.14,-180.45C111.51,-188.44 106.34,-198.08 101.02,-206.92"/>
<polygon fill="black" stroke="black" points="98.21,-204.81 95.83,-215.13 104.13,-208.55 98.21,-204.81"/>
</g>
<!-- r1_node_19 -->
<g id="node14" class="node">
<title>r1_node_19</title>
<ellipse fill="none" stroke="black" cx="365.93" cy="-18" rx="54.93" ry="18"/>
<text text-anchor="middle" x="365.93" y="-12.95" font-family="Times,serif" font-size="14.00">r1_node_19</text>
</g>
<!-- r1_node_5&#45;&gt;r1_node_6 -->
<g id="edge15" class="edge">
<title>r1_node_5&#45;&gt;r1_node_6</title>
<path fill="none" stroke="black" d="M564.18,-104.22C586.56,-114.53 616.22,-129.03 639.13,-140.8"/>
<polygon fill="black" stroke="black" points="637.3,-143.79 647.79,-145.29 640.52,-137.57 637.3,-143.79"/>
</g>
<!-- r1_node_5&#45;&gt;r1_node_11 -->
<g id="edge16" class="edge">
<title>r1_node_5&#45;&gt;r1_node_11</title>
<path fill="none" stroke="black" d="M527.73,-71.7C525.94,-64.32 523.8,-55.52 521.79,-47.25"/>
<polygon fill="black" stroke="black" points="525.21,-46.47 519.45,-37.58 518.4,-48.12 525.21,-46.47"/>
</g>
<!-- r1_node_5&#45;&gt;r1_node_15 -->
<g id="edge17" class="edge">
<title>r1_node_5&#45;&gt;r1_node_15</title>
<path fill="none" stroke="black" d="M491.06,-79.25C480.6,-76.82 469.36,-74.26 458.93,-72 388.54,-56.71 307.22,-40.55 253.86,-30.16"/>
<polygon fill="black" stroke="black" points="254.55,-26.72 244.07,-28.25 253.21,-33.6 254.55,-26.72"/>
</g>
<!-- r1_node_5&#45;&gt;r1_node_19 -->
<g id="edge18" class="edge">
<title>r1_node_5&#45;&gt;r1_node_19</title>
<path fill="none" stroke="black" d="M500.32,-75.67C474.55,-64.8 437.87,-49.33 409.34,-37.31"/>
<polygon fill="black" stroke="black" points="410.82,-34.13 400.25,-33.47 408.1,-40.58 410.82,-34.13"/>
</g>
</g>
</svg>
