<?xml version="1.0" encoding="UTF-8" standalone="no"?>
<!DOCTYPE svg PUBLIC "-//W3C//DTD SVG 1.1//EN"
 "http://www.w3.org/Graphics/SVG/1.1/DTD/svg11.dtd">
<!-- Generated by graphviz version 12.2.1 (20241206.2353)
 -->
<!-- Pages: 1 -->
<svg width="519pt" height="332pt"
 viewBox="0.00 0.00 518.87 332.00" xmlns="http://www.w3.org/2000/svg" xmlns:xlink="http://www.w3.org/1999/xlink">
<g id="graph0" class="graph" transform="scale(1 1) rotate(0) translate(4 328)">
<polygon fill="white" stroke="none" points="-4,4 -4,-328 514.87,-328 514.87,4 -4,4"/>
<!-- r3_node_12 -->
<g id="node1" class="node">
<title>r3_node_12</title>
<ellipse fill="none" stroke="black" cx="228.93" cy="-234" rx="54.93" ry="18"/>
<text text-anchor="middle" x="228.93" y="-228.95" font-family="Times,serif" font-size="14.00">r3_node_12</text>
</g>
<!-- r3_node_11 -->
<g id="node2" class="node">
<title>r3_node_11</title>
<ellipse fill="none" stroke="black" cx="58.93" cy="-18" rx="54.93" ry="18"/>
<text text-anchor="middle" x="58.93" y="-12.95" font-family="Times,serif" font-size="14.00">r3_node_11</text>
</g>
<!-- r3_node_6 -->
<g id="node3" class="node">
<title>r3_node_6</title>
<ellipse fill="none" stroke="black" cx="152.93" cy="-162" rx="50.33" ry="18"/>
<text text-anchor="middle" x="152.93" y="-156.95" font-family="Times,serif" font-size="14.00">r3_node_6</text>
</g>
<!-- r3_node_18 -->
<g id="node4" class="node">
<title>r3_node_18</title>
<ellipse fill="none" stroke="black" cx="54.93" cy="-90" rx="54.93" ry="18"/>
<text text-anchor="middle" x="54.93" y="-84.95" font-family="Times,serif" font-size="14.00">r3_node_18</text>
</g>
<!-- r3_node_6&#45;&gt;r3_node_18 -->
<g id="edge1" class="edge">
<title>r3_node_6&#45;&gt;r3_node_18</title>
<path fill="none" stroke="black" d="M126.78,-146.33C112.52,-136.99 95.04,-124.69 80.84,-114.06"/>
<polygon fill="black" stroke="black" points="83.32,-111.55 73.24,-108.29 79.08,-117.13 83.32,-111.55"/>
</g>
<!-- r3_node_20 -->
<g id="node5" class="node">
<title>r3_node_20</title>
<ellipse fill="none" stroke="black" cx="100.93" cy="-234" rx="54.93" ry="18"/>
<text text-anchor="middle" x="100.93" y="-228.95" font-family="Times,serif" font-size="14.00">r3_node_20</text>
</g>
<!-- r3_node_6&#45;&gt;r3_node_20 -->
<g id="edge2" class="edge">
<title>r3_node_6&#45;&gt;r3_node_20</title>
<path fill="none" stroke="black" d="M146.11,-180.12C140.76,-188.5 133.36,-198.74 126.02,-207.98"/>
<polygon fill="black" stroke="black" points="123.41,-205.65 119.76,-215.6 128.81,-210.1 123.41,-205.65"/>
</g>
<!-- r3_node_26 -->
<g id="node6" class="node">
<title>r3_node_26</title>
<ellipse fill="none" stroke="black" cx="199.93" cy="-18" rx="54.93" ry="18"/>
<text text-anchor="middle" x="199.93" y="-12.95" font-family="Times,serif" font-size="14.00">r3_node_26</text>
</g>
<!-- r3_node_6&#45;&gt;r3_node_26 -->
<g id="edge3" class="edge">
<title>r3_node_6&#45;&gt;r3_node_26</title>
<path fill="none" stroke="black" d="M158.6,-143.87C166.58,-119.78 181.2,-75.6 190.74,-46.77"/>
<polygon fill="black" stroke="black" points="193.95,-48.22 193.77,-37.63 187.3,-46.02 193.95,-48.22"/>
</g>
<!-- r3_node_1 -->
<g id="node7" class="node">
<title>r3_node_1</title>
<ellipse fill="none" stroke="black" cx="329.93" cy="-18" rx="50.33" ry="18"/>
<text text-anchor="middle" x="329.93" y="-12.95" font-family="Times,serif" font-size="14.00">r3_node_1</text>
</g>
<!-- r3_node_6&#45;&gt;r3_node_1 -->
<g id="edge4" class="edge">
<title>r3_node_6&#45;&gt;r3_node_1</title>
<path fill="none" stroke="black" d="M167.74,-144.45C184.99,-125.67 214.85,-94.72 243.93,-72 259.24,-60.04 277.39,-48.51 293.07,-39.28"/>
<polygon fill="black" stroke="black" points="294.75,-42.35 301.65,-34.32 291.24,-36.29 294.75,-42.35"/>
</g>
<!-- r3_node_18&#45;&gt;r3_node_11 -->
<g id="edge16" class="edge">
<title>r3_node_18&#45;&gt;r3_node_11</title>
<path fill="none" stroke="black" d="M55.92,-71.7C56.34,-64.41 56.84,-55.73 57.3,-47.54"/>
<polygon fill="black" stroke="black" points="60.79,-47.8 57.87,-37.62 53.81,-47.4 60.79,-47.8"/>
</g>
<!-- r3_node_18&#45;&gt;r3_node_6 -->
<g id="edge17" class="edge">
<title>r3_node_18&#45;&gt;r3_node_6</title>
<path fill="none" stroke="black" d="M81.52,-105.95C95.64,-115.22 112.83,-127.32 126.87,-137.81"/>
<polygon fill="black" stroke="black" points="124.72,-140.58 134.8,-143.85 128.96,-135.01 124.72,-140.58"/>
</g>
<!-- r3_node_18&#45;&gt;r3_node_20 -->
<g id="edge18" class="edge">
<title>r3_node_18&#45;&gt;r3_node_20</title>
<path fill="none" stroke="black" d="M65.06,-108.11C75.34,-132.03 89.82,-175.76 97.26,-204.6"/>
<polygon fill="black" stroke="black" points="93.81,-205.21 99.55,-214.12 100.61,-203.57 93.81,-205.21"/>
</g>
<!-- r3_node_18&#45;&gt;r3_node_26 -->
<g id="edge15" class="edge">
<title>r3_node_18&#45;&gt;r3_node_26</title>
<path fill="none" stroke="black" d="M84.98,-74.5C106.66,-64.03 136.15,-49.79 159.84,-38.36"/>
<polygon fill="black" stroke="black" points="161.08,-41.64 168.57,-34.14 158.04,-35.34 161.08,-41.64"/>
</g>
<!-- r3_node_20&#45;&gt;r3_node_6 -->
<g id="edge7" class="edge">
<title>r3_node_20&#45;&gt;r3_node_6</title>
<path fill="none" stroke="black" d="M107.87,-215.7C113.23,-207.32 120.63,-197.1 127.94,-187.9"/>
<polygon fill="black" stroke="black" points="130.54,-190.26 134.19,-180.31 125.13,-185.81 130.54,-190.26"/>
</g>
<!-- r3_node_20&#45;&gt;r3_node_18 -->
<g id="edge8" class="edge">
<title>r3_node_20&#45;&gt;r3_node_18</title>
<path fill="none" stroke="black" d="M90.8,-215.87C80.49,-191.88 65.97,-147.99 58.55,-119.16"/>
<polygon fill="black" stroke="black" points="62,-118.57 56.26,-109.66 55.2,-120.2 62,-118.57"/>
</g>
<!-- r3_node_15 -->
<g id="node8" class="node">
<title>r3_node_15</title>
<ellipse fill="none" stroke="black" cx="164.93" cy="-306" rx="54.93" ry="18"/>
<text text-anchor="middle" x="164.93" y="-300.95" font-family="Times,serif" font-size="14.00">r3_node_15</text>
</g>
<!-- r3_node_20&#45;&gt;r3_node_15 -->
<g id="edge5" class="edge">
<title>r3_node_20&#45;&gt;r3_node_15</title>
<path fill="none" stroke="black" d="M121.16,-250.83C129.82,-259.23 139.71,-269.77 147.98,-279.31"/>
<polygon fill="black" stroke="black" points="145.24,-281.49 154.35,-286.9 150.6,-276.99 145.24,-281.49"/>
</g>
<!-- r3_node_14 -->
<g id="node9" class="node">
<title>r3_node_14</title>
<ellipse fill="none" stroke="black" cx="321.93" cy="-162" rx="54.93" ry="18"/>
<text text-anchor="middle" x="321.93" y="-156.95" font-family="Times,serif" font-size="14.00">r3_node_14</text>
</g>
<!-- r3_node_20&#45;&gt;r3_node_14 -->
<g id="edge6" class="edge">
<title>r3_node_20&#45;&gt;r3_node_14</title>
<path fill="none" stroke="black" d="M136.6,-220C172.82,-207.97 229.1,-190.12 270.2,-177.61"/>
<polygon fill="black" stroke="black" points="271.08,-181 279.64,-174.75 269.06,-174.3 271.08,-181"/>
</g>
<!-- r3_node_15&#45;&gt;r3_node_12 -->
<g id="edge13" class="edge">
<title>r3_node_15&#45;&gt;r3_node_12</title>
<path fill="none" stroke="black" d="M180.1,-288.41C187.91,-279.87 197.59,-269.28 206.27,-259.79"/>
<polygon fill="black" stroke="black" points="208.69,-262.33 212.85,-252.59 203.52,-257.61 208.69,-262.33"/>
</g>
<!-- r3_node_15&#45;&gt;r3_node_20 -->
<g id="edge14" class="edge">
<title>r3_node_15&#45;&gt;r3_node_20</title>
<path fill="none" stroke="black" d="M144.65,-289.12C135.96,-280.68 126.04,-270.1 117.76,-260.55"/>
<polygon fill="black" stroke="black" points="120.51,-258.37 111.4,-252.96 115.14,-262.87 120.51,-258.37"/>
</g>
<!-- r3_node_14&#45;&gt;r3_node_20 -->
<g id="edge10" class="edge">
<title>r3_node_14&#45;&gt;r3_node_20</title>
<path fill="none" stroke="black" d="M286.36,-175.97C250.15,-187.99 193.84,-205.85 152.72,-218.37"/>
<polygon fill="black" stroke="black" points="151.82,-214.99 143.26,-221.24 153.85,-221.69 151.82,-214.99"/>
</g>
<!-- r3_node_30 -->
<g id="node10" class="node">
<title>r3_node_30</title>
<ellipse fill="none" stroke="black" cx="307.93" cy="-90" rx="54.93" ry="18"/>
<text text-anchor="middle" x="307.93" y="-84.95" font-family="Times,serif" font-size="14.00">r3_node_30</text>
</g>
<!-- r3_node_14&#45;&gt;r3_node_30 -->
<g id="edge12" class="edge">
<title>r3_node_14&#45;&gt;r3_node_30</title>
<path fill="none" stroke="black" d="M318.47,-143.7C317,-136.32 315.24,-127.52 313.58,-119.25"/>
<polygon fill="black" stroke="black" points="317.05,-118.71 311.65,-109.59 310.18,-120.08 317.05,-118.71"/>
</g>
<!-- r3_node_8 -->
<g id="node11" class="node">
<title>r3_node_8</title>
<ellipse fill="none" stroke="black" cx="430.93" cy="-90" rx="50.33" ry="18"/>
<text text-anchor="middle" x="430.93" y="-84.95" font-family="Times,serif" font-size="14.00">r3_node_8</text>
</g>
<!-- r3_node_14&#45;&gt;r3_node_8 -->
<g id="edge9" class="edge">
<title>r3_node_14&#45;&gt;r3_node_8</title>
<path fill="none" stroke="black" d="M346.12,-145.46C361.33,-135.7 381.15,-122.97 397.8,-112.28"/>
<polygon fill="black" stroke="black" points="399.39,-115.42 405.91,-107.07 395.61,-109.53 399.39,-115.42"/>
</g>
<!-- r3_node_27 -->
<g id="node12" class="node">
<title>r3_node_27</title>
<ellipse fill="none" stroke="black" cx="455.93" cy="-18" rx="54.93" ry="18"/>
<text text-anchor="middle" x="455.93" y="-12.95" font-family="Times,serif" font-size="14.00">r3_node_27</text>
</g>
<!-- r3_node_14&#45;&gt;r3_node_27 -->
<g id="edge11" class="edge">
<title>r3_node_14&#45;&gt;r3_node_27</title>
<path fill="none" stroke="black" d="M376.53,-159.71C415.03,-155.59 464.17,-143.15 489.93,-108 503.91,-88.94 491.69,-63.44 478.17,-44.62"/>
<polygon fill="black" stroke="black" points="481.12,-42.71 472.25,-36.91 475.57,-46.97 481.12,-42.71"/>
</g>
</g>
</svg>
