<?xml version="1.0" encoding="UTF-8" standalone="no"?>
<!DOCTYPE svg PUBLIC "-//W3C//DTD SVG 1.1//EN"
 "http://www.w3.org/Graphics/SVG/1.1/DTD/svg11.dtd">
<!-- Generated by graphviz version 12.2.1 (20241206.2353)
 -->
<!-- Pages: 1 -->
<svg width="1012pt" height="188pt"
 viewBox="0.00 0.00 1012.26 188.00" xmlns="http://www.w3.org/2000/svg" xmlns:xlink="http://www.w3.org/1999/xlink">
<g id="graph0" class="graph" transform="scale(1 1) rotate(0) translate(4 184)">
<polygon fill="white" stroke="none" points="-4,4 -4,-184 1008.26,-184 1008.26,4 -4,4"/>
<!-- r1_node_19 -->
<g id="node1" class="node">
<title>r1_node_19</title>
<ellipse fill="none" stroke="black" cx="345.93" cy="-90" rx="54.93" ry="18"/>
<text text-anchor="middle" x="345.93" y="-84.95" font-family="Times,serif" font-size="14.00">r1_node_19</text>
</g>
<!-- r1_node_14 -->
<g id="node2" class="node">
<title>r1_node_14</title>
<ellipse fill="none" stroke="black" cx="177.93" cy="-90" rx="54.93" ry="18"/>
<text text-anchor="middle" x="177.93" y="-84.95" font-family="Times,serif" font-size="14.00">r1_node_14</text>
</g>
<!-- r1_node_6 -->
<g id="node3" class="node">
<title>r1_node_6</title>
<ellipse fill="none" stroke="black" cx="715.93" cy="-90" rx="50.33" ry="18"/>
<text text-anchor="middle" x="715.93" y="-84.95" font-family="Times,serif" font-size="14.00">r1_node_6</text>
</g>
<!-- r1_node_11 -->
<g id="node4" class="node">
<title>r1_node_11</title>
<ellipse fill="none" stroke="black" cx="833.93" cy="-18" rx="54.93" ry="18"/>
<text text-anchor="middle" x="833.93" y="-12.95" font-family="Times,serif" font-size="14.00">r1_node_11</text>
</g>
<!-- r1_node_1 -->
<g id="node5" class="node">
<title>r1_node_1</title>
<ellipse fill="none" stroke="black" cx="596.93" cy="-90" rx="50.33" ry="18"/>
<text text-anchor="middle" x="596.93" y="-84.95" font-family="Times,serif" font-size="14.00">r1_node_1</text>
</g>
<!-- r1_node_5 -->
<g id="node6" class="node">
<title>r1_node_5</title>
<ellipse fill="none" stroke="black" cx="319.93" cy="-18" rx="50.33" ry="18"/>
<text text-anchor="middle" x="319.93" y="-12.95" font-family="Times,serif" font-size="14.00">r1_node_5</text>
</g>
<!-- r1_node_1&#45;&gt;r1_node_5 -->
<g id="edge1" class="edge">
<title>r1_node_1&#45;&gt;r1_node_5</title>
<path fill="none" stroke="black" d="M558.93,-77.73C551.96,-75.76 544.74,-73.77 537.93,-72 469.49,-54.2 451.53,-53.22 382.93,-36 378.67,-34.93 374.25,-33.79 369.81,-32.63"/>
<polygon fill="black" stroke="black" points="370.89,-29.3 360.32,-30.12 369.1,-36.06 370.89,-29.3"/>
</g>
<!-- r1_node_10 -->
<g id="node7" class="node">
<title>r1_node_10</title>
<ellipse fill="none" stroke="black" cx="446.93" cy="-18" rx="54.93" ry="18"/>
<text text-anchor="middle" x="446.93" y="-12.95" font-family="Times,serif" font-size="14.00">r1_node_10</text>
</g>
<!-- r1_node_1&#45;&gt;r1_node_10 -->
<g id="edge2" class="edge">
<title>r1_node_1&#45;&gt;r1_node_10</title>
<path fill="none" stroke="black" d="M567.3,-75.17C544.59,-64.57 512.99,-49.82 487.86,-38.1"/>
<polygon fill="black" stroke="black" points="489.45,-34.98 478.91,-33.92 486.49,-41.32 489.45,-34.98"/>
</g>
<!-- r1_node_18 -->
<g id="node8" class="node">
<title>r1_node_18</title>
<ellipse fill="none" stroke="black" cx="54.93" cy="-18" rx="54.93" ry="18"/>
<text text-anchor="middle" x="54.93" y="-12.95" font-family="Times,serif" font-size="14.00">r1_node_18</text>
</g>
<!-- r1_node_1&#45;&gt;r1_node_18 -->
<g id="edge3" class="edge">
<title>r1_node_1&#45;&gt;r1_node_18</title>
<path fill="none" stroke="black" d="M560.37,-77.29C553,-75.26 545.27,-73.37 537.93,-72 360.73,-38.89 312.17,-63.01 133.93,-36 125.92,-34.79 117.51,-33.25 109.28,-31.61"/>
<polygon fill="black" stroke="black" points="110.2,-28.23 99.7,-29.63 108.78,-35.08 110.2,-28.23"/>
</g>
<!-- r1_node_2 -->
<g id="node9" class="node">
<title>r1_node_2</title>
<ellipse fill="none" stroke="black" cx="254.93" cy="-162" rx="50.33" ry="18"/>
<text text-anchor="middle" x="254.93" y="-156.95" font-family="Times,serif" font-size="14.00">r1_node_2</text>
</g>
<!-- r1_node_1&#45;&gt;r1_node_2 -->
<g id="edge4" class="edge">
<title>r1_node_1&#45;&gt;r1_node_2</title>
<path fill="none" stroke="black" d="M563.45,-103.74C557.96,-105.26 552.33,-106.72 546.93,-108 466.52,-127.07 371.92,-143.62 312.59,-152.94"/>
<polygon fill="black" stroke="black" points="312.41,-149.43 303.06,-154.42 313.48,-156.35 312.41,-149.43"/>
</g>
<!-- r1_node_7 -->
<g id="node10" class="node">
<title>r1_node_7</title>
<ellipse fill="none" stroke="black" cx="192.93" cy="-18" rx="50.33" ry="18"/>
<text text-anchor="middle" x="192.93" y="-12.95" font-family="Times,serif" font-size="14.00">r1_node_7</text>
</g>
<!-- r1_node_1&#45;&gt;r1_node_7 -->
<g id="edge5" class="edge">
<title>r1_node_1&#45;&gt;r1_node_7</title>
<path fill="none" stroke="black" d="M560.01,-77.43C552.74,-75.42 545.14,-73.5 537.93,-72 416.38,-46.74 382.91,-59.09 260.93,-36 255.25,-34.92 249.33,-33.66 243.47,-32.32"/>
<polygon fill="black" stroke="black" points="244.33,-28.93 233.79,-30.02 242.71,-35.74 244.33,-28.93"/>
</g>
<!-- r1_node_2&#45;&gt;r1_node_19 -->
<g id="edge19" class="edge">
<title>r1_node_2&#45;&gt;r1_node_19</title>
<path fill="none" stroke="black" d="M275.58,-145.12C287.6,-135.87 302.95,-124.07 316.24,-113.84"/>
<polygon fill="black" stroke="black" points="318.06,-116.86 323.85,-107.99 313.79,-111.31 318.06,-116.86"/>
</g>
<!-- r1_node_2&#45;&gt;r1_node_6 -->
<g id="edge22" class="edge">
<title>r1_node_2&#45;&gt;r1_node_6</title>
<path fill="none" stroke="black" d="M303.46,-156.87C379.25,-149.91 530.08,-134 655.93,-108 659.76,-107.21 663.7,-106.3 667.65,-105.33"/>
<polygon fill="black" stroke="black" points="668.43,-108.74 677.23,-102.83 666.67,-101.97 668.43,-108.74"/>
</g>
<!-- r1_node_2&#45;&gt;r1_node_1 -->
<g id="edge20" class="edge">
<title>r1_node_2&#45;&gt;r1_node_1</title>
<path fill="none" stroke="black" d="M299.28,-152.97C353.74,-143.65 448.44,-127.09 528.93,-108 534.11,-106.77 539.5,-105.38 544.91,-103.93"/>
<polygon fill="black" stroke="black" points="545.76,-107.33 554.48,-101.31 543.91,-100.57 545.76,-107.33"/>
</g>
<!-- r1_node_4 -->
<g id="node11" class="node">
<title>r1_node_4</title>
<ellipse fill="none" stroke="black" cx="834.93" cy="-90" rx="50.33" ry="18"/>
<text text-anchor="middle" x="834.93" y="-84.95" font-family="Times,serif" font-size="14.00">r1_node_4</text>
</g>
<!-- r1_node_2&#45;&gt;r1_node_4 -->
<g id="edge21" class="edge">
<title>r1_node_2&#45;&gt;r1_node_4</title>
<path fill="none" stroke="black" d="M304.61,-158.55C396.47,-153.6 598.37,-140.02 765.93,-108 771.72,-106.89 777.75,-105.49 783.75,-103.97"/>
<polygon fill="black" stroke="black" points="784.23,-107.46 793,-101.52 782.44,-100.7 784.23,-107.46"/>
</g>
<!-- r1_node_13 -->
<g id="node15" class="node">
<title>r1_node_13</title>
<ellipse fill="none" stroke="black" cx="473.93" cy="-90" rx="54.93" ry="18"/>
<text text-anchor="middle" x="473.93" y="-84.95" font-family="Times,serif" font-size="14.00">r1_node_13</text>
</g>
<!-- r1_node_2&#45;&gt;r1_node_13 -->
<g id="edge18" class="edge">
<title>r1_node_2&#45;&gt;r1_node_13</title>
<path fill="none" stroke="black" d="M291.59,-149.28C328.1,-137.61 384.37,-119.63 424.75,-106.72"/>
<polygon fill="black" stroke="black" points="425.78,-110.06 434.24,-103.69 423.65,-103.4 425.78,-110.06"/>
</g>
<!-- r1_node_9 -->
<g id="node16" class="node">
<title>r1_node_9</title>
<ellipse fill="none" stroke="black" cx="953.93" cy="-90" rx="50.33" ry="18"/>
<text text-anchor="middle" x="953.93" y="-84.95" font-family="Times,serif" font-size="14.00">r1_node_9</text>
</g>
<!-- r1_node_2&#45;&gt;r1_node_9 -->
<g id="edge17" class="edge">
<title>r1_node_2&#45;&gt;r1_node_9</title>
<path fill="none" stroke="black" d="M305.49,-160.12C414.08,-157.5 677.34,-147.29 893.93,-108 897.95,-107.27 902.09,-106.39 906.22,-105.41"/>
<polygon fill="black" stroke="black" points="906.77,-108.88 915.6,-103.03 905.05,-102.1 906.77,-108.88"/>
</g>
<!-- r1_node_4&#45;&gt;r1_node_11 -->
<g id="edge7" class="edge">
<title>r1_node_4&#45;&gt;r1_node_11</title>
<path fill="none" stroke="black" d="M834.69,-71.7C834.58,-64.41 834.46,-55.73 834.34,-47.54"/>
<polygon fill="black" stroke="black" points="837.84,-47.57 834.2,-37.62 830.84,-47.67 837.84,-47.57"/>
</g>
<!-- r1_node_4&#45;&gt;r1_node_10 -->
<g id="edge6" class="edge">
<title>r1_node_4&#45;&gt;r1_node_10</title>
<path fill="none" stroke="black" d="M797.69,-77.58C790.2,-75.53 782.35,-73.55 774.93,-72 659.89,-47.92 628.26,-58.7 512.93,-36 508.36,-35.1 503.64,-34.08 498.91,-32.98"/>
<polygon fill="black" stroke="black" points="499.97,-29.64 489.43,-30.7 498.33,-36.45 499.97,-29.64"/>
</g>
<!-- r1_node_4&#45;&gt;r1_node_2 -->
<g id="edge10" class="edge">
<title>r1_node_4&#45;&gt;r1_node_2</title>
<path fill="none" stroke="black" d="M801.78,-103.92C795.89,-105.46 789.78,-106.88 783.93,-108 616.75,-139.95 415.39,-153.53 316.15,-158.51"/>
<polygon fill="black" stroke="black" points="316.18,-155.01 306.37,-158.99 316.52,-162 316.18,-155.01"/>
</g>
<!-- r1_node_12 -->
<g id="node12" class="node">
<title>r1_node_12</title>
<ellipse fill="none" stroke="black" cx="576.93" cy="-18" rx="54.93" ry="18"/>
<text text-anchor="middle" x="576.93" y="-12.95" font-family="Times,serif" font-size="14.00">r1_node_12</text>
</g>
<!-- r1_node_4&#45;&gt;r1_node_12 -->
<g id="edge8" class="edge">
<title>r1_node_4&#45;&gt;r1_node_12</title>
<path fill="none" stroke="black" d="M796.55,-78.03C789.37,-76.01 781.93,-73.93 774.93,-72 725.81,-58.47 669.68,-43.49 629.77,-32.92"/>
<polygon fill="black" stroke="black" points="630.73,-29.55 620.16,-30.38 628.94,-36.32 630.73,-29.55"/>
</g>
<!-- r1_node_15 -->
<g id="node13" class="node">
<title>r1_node_15</title>
<ellipse fill="none" stroke="black" cx="705.93" cy="-18" rx="54.93" ry="18"/>
<text text-anchor="middle" x="705.93" y="-12.95" font-family="Times,serif" font-size="14.00">r1_node_15</text>
</g>
<!-- r1_node_4&#45;&gt;r1_node_15 -->
<g id="edge9" class="edge">
<title>r1_node_4&#45;&gt;r1_node_15</title>
<path fill="none" stroke="black" d="M808.21,-74.5C789.52,-64.36 764.3,-50.67 743.58,-39.43"/>
<polygon fill="black" stroke="black" points="745.31,-36.38 734.85,-34.69 741.97,-42.54 745.31,-36.38"/>
</g>
<!-- r1_node_3 -->
<g id="node14" class="node">
<title>r1_node_3</title>
<ellipse fill="none" stroke="black" cx="61.93" cy="-162" rx="50.33" ry="18"/>
<text text-anchor="middle" x="61.93" y="-156.95" font-family="Times,serif" font-size="14.00">r1_node_3</text>
</g>
<!-- r1_node_3&#45;&gt;r1_node_19 -->
<g id="edge11" class="edge">
<title>r1_node_3&#45;&gt;r1_node_19</title>
<path fill="none" stroke="black" d="M102.62,-150.97C152.42,-138.7 236.88,-117.88 292.04,-104.28"/>
<polygon fill="black" stroke="black" points="292.65,-107.74 301.53,-101.95 290.98,-100.94 292.65,-107.74"/>
</g>
<!-- r1_node_3&#45;&gt;r1_node_14 -->
<g id="edge15" class="edge">
<title>r1_node_3&#45;&gt;r1_node_14</title>
<path fill="none" stroke="black" d="M86.82,-145.98C103.22,-136.09 124.94,-122.98 143.05,-112.05"/>
<polygon fill="black" stroke="black" points="144.64,-115.18 151.39,-107.02 141.02,-109.19 144.64,-115.18"/>
</g>
<!-- r1_node_3&#45;&gt;r1_node_5 -->
<g id="edge12" class="edge">
<title>r1_node_3&#45;&gt;r1_node_5</title>
<path fill="none" stroke="black" d="M108.55,-154.66C146.77,-147.81 201.04,-134.14 241.93,-108 255.55,-99.3 281.89,-67.68 300.17,-44.6"/>
<polygon fill="black" stroke="black" points="302.86,-46.84 306.28,-36.81 297.35,-42.52 302.86,-46.84"/>
</g>
<!-- r1_node_3&#45;&gt;r1_node_18 -->
<g id="edge16" class="edge">
<title>r1_node_3&#45;&gt;r1_node_18</title>
<path fill="none" stroke="black" d="M61.08,-143.59C59.89,-119.61 57.75,-76.14 56.33,-47.42"/>
<polygon fill="black" stroke="black" points="59.84,-47.44 55.85,-37.62 52.85,-47.78 59.84,-47.44"/>
</g>
<!-- r1_node_3&#45;&gt;r1_node_7 -->
<g id="edge13" class="edge">
<title>r1_node_3&#45;&gt;r1_node_7</title>
<path fill="none" stroke="black" d="M69.15,-143.76C77.77,-124.64 93.59,-93.65 113.93,-72 125.97,-59.19 141.66,-47.87 155.87,-39.02"/>
<polygon fill="black" stroke="black" points="157.35,-42.21 164.12,-34.07 153.75,-36.21 157.35,-42.21"/>
</g>
<!-- r1_node_3&#45;&gt;r1_node_13 -->
<g id="edge14" class="edge">
<title>r1_node_3&#45;&gt;r1_node_13</title>
<path fill="none" stroke="black" d="M108.39,-154.56C189.37,-143.24 353.17,-119.82 409.93,-108 414,-107.15 418.19,-106.21 422.4,-105.21"/>
<polygon fill="black" stroke="black" points="423.13,-108.63 432,-102.82 421.45,-101.83 423.13,-108.63"/>
</g>
</g>
</svg>
