<?xml version="1.0" encoding="UTF-8" standalone="no"?>
<!DOCTYPE svg PUBLIC "-//W3C//DTD SVG 1.1//EN"
 "http://www.w3.org/Graphics/SVG/1.1/DTD/svg11.dtd">
<!-- Generated by graphviz version 12.2.1 (20241206.2353)
 -->
<!-- Pages: 1 -->
<svg width="602pt" height="116pt"
 viewBox="0.00 0.00 601.66 116.00" xmlns="http://www.w3.org/2000/svg" xmlns:xlink="http://www.w3.org/1999/xlink">
<g id="graph0" class="graph" transform="scale(1 1) rotate(0) translate(4 112)">
<polygon fill="white" stroke="none" points="-4,4 -4,-112 597.66,-112 597.66,4 -4,4"/>
<!-- r1_node_1 -->
<g id="node1" class="node">
<title>r1_node_1</title>
<ellipse fill="none" stroke="black" cx="50.33" cy="-18" rx="50.33" ry="18"/>
<text text-anchor="middle" x="50.33" y="-12.95" font-family="Times,serif" font-size="14.00">r1_node_1</text>
</g>
<!-- r1_node_2 -->
<g id="node2" class="node">
<title>r1_node_2</title>
<ellipse fill="none" stroke="black" cx="169.33" cy="-18" rx="50.33" ry="18"/>
<text text-anchor="middle" x="169.33" y="-12.95" font-family="Times,serif" font-size="14.00">r1_node_2</text>
</g>
<!-- r1_node_20 -->
<g id="node3" class="node">
<title>r1_node_20</title>
<ellipse fill="none" stroke="black" cx="292.33" cy="-18" rx="54.93" ry="18"/>
<text text-anchor="middle" x="292.33" y="-12.95" font-family="Times,serif" font-size="14.00">r1_node_20</text>
</g>
<!-- r1_node_18 -->
<g id="node4" class="node">
<title>r1_node_18</title>
<ellipse fill="none" stroke="black" cx="420.33" cy="-18" rx="54.93" ry="18"/>
<text text-anchor="middle" x="420.33" y="-12.95" font-family="Times,serif" font-size="14.00">r1_node_18</text>
</g>
<!-- r1_node_5 -->
<g id="node5" class="node">
<title>r1_node_5</title>
<ellipse fill="none" stroke="black" cx="543.33" cy="-18" rx="50.33" ry="18"/>
<text text-anchor="middle" x="543.33" y="-12.95" font-family="Times,serif" font-size="14.00">r1_node_5</text>
</g>
<!-- r1_node_13 -->
<g id="node6" class="node">
<title>r1_node_13</title>
<ellipse fill="none" stroke="black" cx="109.33" cy="-90" rx="54.93" ry="18"/>
<text text-anchor="middle" x="109.33" y="-84.95" font-family="Times,serif" font-size="14.00">r1_node_13</text>
</g>
<!-- r1_node_13&#45;&gt;r1_node_1 -->
<g id="edge2" class="edge">
<title>r1_node_13&#45;&gt;r1_node_1</title>
<path fill="none" stroke="black" d="M95.35,-72.41C88.22,-63.95 79.4,-53.49 71.47,-44.08"/>
<polygon fill="black" stroke="black" points="74.31,-42.02 65.19,-36.63 68.95,-46.53 74.31,-42.02"/>
</g>
<!-- r1_node_13&#45;&gt;r1_node_2 -->
<g id="edge3" class="edge">
<title>r1_node_13&#45;&gt;r1_node_2</title>
<path fill="none" stroke="black" d="M123.55,-72.41C130.8,-63.95 139.76,-53.49 147.83,-44.08"/>
<polygon fill="black" stroke="black" points="150.38,-46.49 154.23,-36.62 145.06,-41.93 150.38,-46.49"/>
</g>
<!-- r1_node_13&#45;&gt;r1_node_20 -->
<g id="edge4" class="edge">
<title>r1_node_13&#45;&gt;r1_node_20</title>
<path fill="none" stroke="black" d="M144.18,-75.67C173.43,-64.48 215.43,-48.42 247.24,-36.25"/>
<polygon fill="black" stroke="black" points="248.1,-39.66 256.19,-32.82 245.6,-33.13 248.1,-39.66"/>
</g>
<!-- r1_node_13&#45;&gt;r1_node_18 -->
<g id="edge5" class="edge">
<title>r1_node_13&#45;&gt;r1_node_18</title>
<path fill="none" stroke="black" d="M155.46,-79.8C205.19,-69.71 286.6,-52.73 356.33,-36 360.13,-35.09 364.06,-34.12 368,-33.12"/>
<polygon fill="black" stroke="black" points="368.81,-36.53 377.62,-30.64 367.07,-29.75 368.81,-36.53"/>
</g>
<!-- r1_node_13&#45;&gt;r1_node_5 -->
<g id="edge1" class="edge">
<title>r1_node_13&#45;&gt;r1_node_5</title>
<path fill="none" stroke="black" d="M161.6,-83.95C234.44,-76.39 370.36,-60.35 484.33,-36 487.92,-35.23 491.62,-34.36 495.33,-33.43"/>
<polygon fill="black" stroke="black" points="496.16,-36.83 504.93,-30.89 494.36,-30.07 496.16,-36.83"/>
</g>
</g>
</svg>
