<?xml version="1.0" encoding="UTF-8" standalone="no"?>
<!DOCTYPE svg PUBLIC "-//W3C//DTD SVG 1.1//EN"
 "http://www.w3.org/Graphics/SVG/1.1/DTD/svg11.dtd">
<!-- Generated by graphviz version 12.2.1 (20241206.2353)
 -->
<!-- Pages: 1 -->
<svg width="721pt" height="116pt"
 viewBox="0.00 0.00 720.66 116.00" xmlns="http://www.w3.org/2000/svg" xmlns:xlink="http://www.w3.org/1999/xlink">
<g id="graph0" class="graph" transform="scale(1 1) rotate(0) translate(4 112)">
<polygon fill="white" stroke="none" points="-4,4 -4,-112 716.66,-112 716.66,4 -4,4"/>
<!-- r1_node_6 -->
<g id="node1" class="node">
<title>r1_node_6</title>
<ellipse fill="none" stroke="black" cx="50.33" cy="-18" rx="50.33" ry="18"/>
<text text-anchor="middle" x="50.33" y="-12.95" font-family="Times,serif" font-size="14.00">r1_node_6</text>
</g>
<!-- r1_node_19 -->
<g id="node2" class="node">
<title>r1_node_19</title>
<ellipse fill="none" stroke="black" cx="111.33" cy="-90" rx="54.93" ry="18"/>
<text text-anchor="middle" x="111.33" y="-84.95" font-family="Times,serif" font-size="14.00">r1_node_19</text>
</g>
<!-- r1_node_19&#45;&gt;r1_node_6 -->
<g id="edge6" class="edge">
<title>r1_node_19&#45;&gt;r1_node_6</title>
<path fill="none" stroke="black" d="M96.87,-72.41C89.5,-63.95 80.39,-53.49 72.18,-44.08"/>
<polygon fill="black" stroke="black" points="74.88,-41.85 65.67,-36.61 69.61,-46.45 74.88,-41.85"/>
</g>
<!-- r1_node_16 -->
<g id="node3" class="node">
<title>r1_node_16</title>
<ellipse fill="none" stroke="black" cx="173.33" cy="-18" rx="54.93" ry="18"/>
<text text-anchor="middle" x="173.33" y="-12.95" font-family="Times,serif" font-size="14.00">r1_node_16</text>
</g>
<!-- r1_node_19&#45;&gt;r1_node_16 -->
<g id="edge1" class="edge">
<title>r1_node_19&#45;&gt;r1_node_16</title>
<path fill="none" stroke="black" d="M126.02,-72.41C133.51,-63.95 142.78,-53.49 151.12,-44.08"/>
<polygon fill="black" stroke="black" points="153.73,-46.41 157.74,-36.6 148.49,-41.77 153.73,-46.41"/>
</g>
<!-- r1_node_17 -->
<g id="node4" class="node">
<title>r1_node_17</title>
<ellipse fill="none" stroke="black" cx="301.33" cy="-18" rx="54.93" ry="18"/>
<text text-anchor="middle" x="301.33" y="-12.95" font-family="Times,serif" font-size="14.00">r1_node_17</text>
</g>
<!-- r1_node_19&#45;&gt;r1_node_17 -->
<g id="edge2" class="edge">
<title>r1_node_19&#45;&gt;r1_node_17</title>
<path fill="none" stroke="black" d="M146.62,-76C177.32,-64.69 222,-48.23 255.46,-35.9"/>
<polygon fill="black" stroke="black" points="256.31,-39.32 264.48,-32.57 253.89,-32.75 256.31,-39.32"/>
</g>
<!-- r1_node_1 -->
<g id="node5" class="node">
<title>r1_node_1</title>
<ellipse fill="none" stroke="black" cx="424.33" cy="-18" rx="50.33" ry="18"/>
<text text-anchor="middle" x="424.33" y="-12.95" font-family="Times,serif" font-size="14.00">r1_node_1</text>
</g>
<!-- r1_node_19&#45;&gt;r1_node_1 -->
<g id="edge3" class="edge">
<title>r1_node_19&#45;&gt;r1_node_1</title>
<path fill="none" stroke="black" d="M158.38,-80.28C209.55,-70.53 293.62,-53.78 365.33,-36 368.69,-35.17 372.14,-34.27 375.61,-33.34"/>
<polygon fill="black" stroke="black" points="376.5,-36.73 385.21,-30.71 374.64,-29.98 376.5,-36.73"/>
</g>
<!-- r1_node_8 -->
<g id="node6" class="node">
<title>r1_node_8</title>
<ellipse fill="none" stroke="black" cx="543.33" cy="-18" rx="50.33" ry="18"/>
<text text-anchor="middle" x="543.33" y="-12.95" font-family="Times,serif" font-size="14.00">r1_node_8</text>
</g>
<!-- r1_node_19&#45;&gt;r1_node_8 -->
<g id="edge4" class="edge">
<title>r1_node_19&#45;&gt;r1_node_8</title>
<path fill="none" stroke="black" d="M163.47,-83.81C235.78,-76.11 370.37,-59.94 483.33,-36 487.15,-35.19 491.09,-34.27 495.03,-33.29"/>
<polygon fill="black" stroke="black" points="495.82,-36.7 504.61,-30.78 494.05,-29.93 495.82,-36.7"/>
</g>
<!-- r1_node_5 -->
<g id="node7" class="node">
<title>r1_node_5</title>
<ellipse fill="none" stroke="black" cx="662.33" cy="-18" rx="50.33" ry="18"/>
<text text-anchor="middle" x="662.33" y="-12.95" font-family="Times,serif" font-size="14.00">r1_node_5</text>
</g>
<!-- r1_node_19&#45;&gt;r1_node_5 -->
<g id="edge5" class="edge">
<title>r1_node_19&#45;&gt;r1_node_5</title>
<path fill="none" stroke="black" d="M165.54,-86.14C256.51,-80.68 445.36,-66.48 602.33,-36 606.16,-35.26 610.11,-34.38 614.06,-33.43"/>
<polygon fill="black" stroke="black" points="614.83,-36.85 623.65,-30.97 613.09,-30.07 614.83,-36.85"/>
</g>
</g>
</svg>
