<?xml version="1.0" encoding="UTF-8" standalone="no"?>
<!DOCTYPE svg PUBLIC "-//W3C//DTD SVG 1.1//EN"
 "http://www.w3.org/Graphics/SVG/1.1/DTD/svg11.dtd">
<!-- Generated by graphviz version 12.2.1 (20241206.2353)
 -->
<!-- Pages: 1 -->
<svg width="932pt" height="692pt"
 viewBox="0.00 0.00 931.98 692.00" xmlns="http://www.w3.org/2000/svg" xmlns:xlink="http://www.w3.org/1999/xlink">
<g id="graph0" class="graph" transform="scale(1 1) rotate(0) translate(4 688)">
<polygon fill="white" stroke="none" points="-4,4 -4,-688 927.98,-688 927.98,4 -4,4"/>
<!-- r2_node_15 -->
<g id="node1" class="node">
<title>r2_node_15</title>
<ellipse fill="none" stroke="black" cx="95.93" cy="-666" rx="54.93" ry="18"/>
<text text-anchor="middle" x="95.93" y="-660.95" font-family="Times,serif" font-size="14.00">r2_node_15</text>
</g>
<!-- r2_node_3 -->
<g id="node2" class="node">
<title>r2_node_3</title>
<ellipse fill="none" stroke="black" cx="643.93" cy="-522" rx="50.33" ry="18"/>
<text text-anchor="middle" x="643.93" y="-516.95" font-family="Times,serif" font-size="14.00">r2_node_3</text>
</g>
<!-- r2_node_15&#45;&gt;r2_node_3 -->
<g id="edge1" class="edge">
<title>r2_node_15&#45;&gt;r2_node_3</title>
<path fill="none" stroke="black" d="M122.76,-649.86C164.08,-630.13 245.38,-595.82 317.93,-576 366.8,-562.65 505.82,-541.58 585.73,-530.45"/>
<polygon fill="black" stroke="black" points="586.15,-533.93 595.58,-529.09 585.19,-526.99 586.15,-533.93"/>
</g>
<!-- r2_node_21 -->
<g id="node3" class="node">
<title>r2_node_21</title>
<ellipse fill="none" stroke="black" cx="390.93" cy="-594" rx="54.93" ry="18"/>
<text text-anchor="middle" x="390.93" y="-588.95" font-family="Times,serif" font-size="14.00">r2_node_21</text>
</g>
<!-- r2_node_15&#45;&gt;r2_node_21 -->
<g id="edge2" class="edge">
<title>r2_node_15&#45;&gt;r2_node_21</title>
<path fill="none" stroke="black" d="M137.59,-653.91C189.2,-641.15 277.12,-620.27 334.67,-607.1"/>
<polygon fill="black" stroke="black" points="335.31,-610.55 344.28,-604.91 333.75,-603.72 335.31,-610.55"/>
</g>
<!-- r2_node_27 -->
<g id="node4" class="node">
<title>r2_node_27</title>
<ellipse fill="none" stroke="black" cx="54.93" cy="-594" rx="54.93" ry="18"/>
<text text-anchor="middle" x="54.93" y="-588.95" font-family="Times,serif" font-size="14.00">r2_node_27</text>
</g>
<!-- r2_node_15&#45;&gt;r2_node_27 -->
<g id="edge3" class="edge">
<title>r2_node_15&#45;&gt;r2_node_27</title>
<path fill="none" stroke="black" d="M80.38,-648.41C74.89,-640.51 68.98,-630.85 64.12,-621.94"/>
<polygon fill="black" stroke="black" points="67.37,-620.59 59.68,-613.3 61.14,-623.8 67.37,-620.59"/>
</g>
<!-- r2_node_3&#45;&gt;r2_node_15 -->
<g id="edge22" class="edge">
<title>r2_node_3&#45;&gt;r2_node_15</title>
<path fill="none" stroke="black" d="M598.73,-530.23C525.63,-541.3 385.12,-562.56 335.93,-576 266.51,-594.97 189.07,-627.2 141.29,-647.23"/>
<polygon fill="black" stroke="black" points="139.94,-644 132.07,-651.09 142.65,-650.46 139.94,-644"/>
</g>
<!-- r2_node_14 -->
<g id="node20" class="node">
<title>r2_node_14</title>
<ellipse fill="none" stroke="black" cx="658.93" cy="-234" rx="54.93" ry="18"/>
<text text-anchor="middle" x="658.93" y="-228.95" font-family="Times,serif" font-size="14.00">r2_node_14</text>
</g>
<!-- r2_node_3&#45;&gt;r2_node_14 -->
<g id="edge24" class="edge">
<title>r2_node_3&#45;&gt;r2_node_14</title>
<path fill="none" stroke="black" d="M666.83,-505.66C708.4,-476.25 795.05,-407.37 827.93,-324 833.8,-309.12 837.4,-300.9 827.93,-288 814.54,-269.76 760.68,-254.97 717.32,-245.7"/>
<polygon fill="black" stroke="black" points="718.25,-242.32 707.75,-243.71 716.83,-249.17 718.25,-242.32"/>
</g>
<!-- r2_node_8 -->
<g id="node21" class="node">
<title>r2_node_8</title>
<ellipse fill="none" stroke="black" cx="735.93" cy="-306" rx="50.33" ry="18"/>
<text text-anchor="middle" x="735.93" y="-300.95" font-family="Times,serif" font-size="14.00">r2_node_8</text>
</g>
<!-- r2_node_3&#45;&gt;r2_node_8 -->
<g id="edge23" class="edge">
<title>r2_node_3&#45;&gt;r2_node_8</title>
<path fill="none" stroke="black" d="M651.31,-503.85C667.19,-466.91 704.74,-379.55 724.04,-334.67"/>
<polygon fill="black" stroke="black" points="727.19,-336.19 727.93,-325.62 720.76,-333.43 727.19,-336.19"/>
</g>
<!-- r2_node_21&#45;&gt;r2_node_15 -->
<g id="edge36" class="edge">
<title>r2_node_21&#45;&gt;r2_node_15</title>
<path fill="none" stroke="black" d="M349.31,-606.08C297.72,-618.84 209.8,-639.71 152.24,-652.89"/>
<polygon fill="black" stroke="black" points="151.6,-649.44 142.63,-655.08 153.15,-656.27 151.6,-649.44"/>
</g>
<!-- r2_node_17 -->
<g id="node17" class="node">
<title>r2_node_17</title>
<ellipse fill="none" stroke="black" cx="444.93" cy="-18" rx="54.93" ry="18"/>
<text text-anchor="middle" x="444.93" y="-12.95" font-family="Times,serif" font-size="14.00">r2_node_17</text>
</g>
<!-- r2_node_21&#45;&gt;r2_node_17 -->
<g id="edge38" class="edge">
<title>r2_node_21&#45;&gt;r2_node_17</title>
<path fill="none" stroke="black" d="M446.04,-593.03C518.12,-591.26 647.07,-581.81 747.93,-540 861.55,-492.9 898.99,-445.02 920.93,-324 956.24,-129.33 640.8,-52.12 505.1,-28.1"/>
<polygon fill="black" stroke="black" points="506.03,-24.71 495.58,-26.45 504.84,-31.6 506.03,-24.71"/>
</g>
<!-- r2_node_13 -->
<g id="node22" class="node">
<title>r2_node_13</title>
<ellipse fill="none" stroke="black" cx="632.93" cy="-162" rx="54.93" ry="18"/>
<text text-anchor="middle" x="632.93" y="-156.95" font-family="Times,serif" font-size="14.00">r2_node_13</text>
</g>
<!-- r2_node_21&#45;&gt;r2_node_13 -->
<g id="edge37" class="edge">
<title>r2_node_21&#45;&gt;r2_node_13</title>
<path fill="none" stroke="black" d="M443.36,-588.19C520.18,-580.47 658.99,-563.71 702.93,-540 818.34,-477.73 855.94,-446.04 903.93,-324 909.79,-309.11 912.98,-301.2 903.93,-288 878.88,-251.44 850,-272.94 810.93,-252 786.48,-238.89 784.22,-229.42 759.93,-216 734.43,-201.9 704.41,-189.21 679.96,-179.78"/>
<polygon fill="black" stroke="black" points="681.51,-176.63 670.91,-176.35 679.02,-183.17 681.51,-176.63"/>
</g>
<!-- r2_node_27&#45;&gt;r2_node_15 -->
<g id="edge5" class="edge">
<title>r2_node_27&#45;&gt;r2_node_15</title>
<path fill="none" stroke="black" d="M70.51,-611.62C75.88,-619.36 81.65,-628.76 86.44,-637.51"/>
<polygon fill="black" stroke="black" points="83.31,-639.08 91.02,-646.35 89.53,-635.86 83.31,-639.08"/>
</g>
<!-- r2_node_25 -->
<g id="node5" class="node">
<title>r2_node_25</title>
<ellipse fill="none" stroke="black" cx="277.93" cy="-522" rx="54.93" ry="18"/>
<text text-anchor="middle" x="277.93" y="-516.95" font-family="Times,serif" font-size="14.00">r2_node_25</text>
</g>
<!-- r2_node_27&#45;&gt;r2_node_25 -->
<g id="edge4" class="edge">
<title>r2_node_27&#45;&gt;r2_node_25</title>
<path fill="none" stroke="black" d="M90.97,-580C127.53,-567.97 184.32,-550.12 225.78,-537.61"/>
<polygon fill="black" stroke="black" points="226.75,-540.98 235.32,-534.75 224.73,-534.27 226.75,-540.98"/>
</g>
<!-- r2_node_22 -->
<g id="node6" class="node">
<title>r2_node_22</title>
<ellipse fill="none" stroke="black" cx="291.93" cy="-90" rx="54.93" ry="18"/>
<text text-anchor="middle" x="291.93" y="-84.95" font-family="Times,serif" font-size="14.00">r2_node_22</text>
</g>
<!-- r2_node_27&#45;&gt;r2_node_22 -->
<g id="edge6" class="edge">
<title>r2_node_27&#45;&gt;r2_node_22</title>
<path fill="none" stroke="black" d="M54.81,-575.91C60.56,-546.31 80.76,-483.74 100.93,-432 139.03,-334.29 149.81,-310.19 195.93,-216 211.94,-183.32 213.9,-173.7 234.93,-144 242.17,-133.79 251.14,-123.4 259.92,-114.56"/>
<polygon fill="black" stroke="black" points="262.32,-117.11 267.12,-107.66 257.48,-112.06 262.32,-117.11"/>
</g>
<!-- r2_node_9 -->
<g id="node7" class="node">
<title>r2_node_9</title>
<ellipse fill="none" stroke="black" cx="218.93" cy="-18" rx="50.33" ry="18"/>
<text text-anchor="middle" x="218.93" y="-12.95" font-family="Times,serif" font-size="14.00">r2_node_9</text>
</g>
<!-- r2_node_27&#45;&gt;r2_node_9 -->
<g id="edge7" class="edge">
<title>r2_node_27&#45;&gt;r2_node_9</title>
<path fill="none" stroke="black" d="M56.64,-575.79C58.61,-557.76 62.33,-528.67 67.93,-504 108.18,-326.87 181.42,-120.79 208.5,-47.02"/>
<polygon fill="black" stroke="black" points="211.74,-48.36 211.92,-37.77 205.17,-45.94 211.74,-48.36"/>
</g>
<!-- r2_node_25&#45;&gt;r2_node_27 -->
<g id="edge30" class="edge">
<title>r2_node_25&#45;&gt;r2_node_27</title>
<path fill="none" stroke="black" d="M241.99,-535.97C205.44,-547.99 148.62,-565.85 107.13,-578.37"/>
<polygon fill="black" stroke="black" points="106.16,-575.01 97.59,-581.24 108.17,-581.72 106.16,-575.01"/>
</g>
<!-- r2_node_10 -->
<g id="node10" class="node">
<title>r2_node_10</title>
<ellipse fill="none" stroke="black" cx="383.93" cy="-450" rx="54.93" ry="18"/>
<text text-anchor="middle" x="383.93" y="-444.95" font-family="Times,serif" font-size="14.00">r2_node_10</text>
</g>
<!-- r2_node_25&#45;&gt;r2_node_10 -->
<g id="edge29" class="edge">
<title>r2_node_25&#45;&gt;r2_node_10</title>
<path fill="none" stroke="black" d="M296.72,-504.76C310.54,-494.91 329.6,-482.23 346.43,-471.66"/>
<polygon fill="black" stroke="black" points="348.08,-474.75 354.74,-466.51 344.4,-468.8 348.08,-474.75"/>
</g>
<!-- r2_node_7 -->
<g id="node13" class="node">
<title>r2_node_7</title>
<ellipse fill="none" stroke="black" cx="168.93" cy="-450" rx="50.33" ry="18"/>
<text text-anchor="middle" x="168.93" y="-444.95" font-family="Times,serif" font-size="14.00">r2_node_7</text>
</g>
<!-- r2_node_25&#45;&gt;r2_node_7 -->
<g id="edge32" class="edge">
<title>r2_node_25&#45;&gt;r2_node_7</title>
<path fill="none" stroke="black" d="M249.47,-506.33C233.37,-496.76 213.42,-484.11 197.33,-473.31"/>
<polygon fill="black" stroke="black" points="199.38,-470.47 189.14,-467.73 195.43,-476.25 199.38,-470.47"/>
</g>
<!-- r2_node_23 -->
<g id="node23" class="node">
<title>r2_node_23</title>
<ellipse fill="none" stroke="black" cx="557.93" cy="-450" rx="54.93" ry="18"/>
<text text-anchor="middle" x="557.93" y="-444.95" font-family="Times,serif" font-size="14.00">r2_node_23</text>
</g>
<!-- r2_node_25&#45;&gt;r2_node_23 -->
<g id="edge31" class="edge">
<title>r2_node_25&#45;&gt;r2_node_23</title>
<path fill="none" stroke="black" d="M318.7,-509.52C367.18,-496.88 448.13,-476.63 502.32,-463.57"/>
<polygon fill="black" stroke="black" points="503.07,-466.99 511.98,-461.25 501.44,-460.18 503.07,-466.99"/>
</g>
<!-- r2_node_22&#45;&gt;r2_node_27 -->
<g id="edge10" class="edge">
<title>r2_node_22&#45;&gt;r2_node_27</title>
<path fill="none" stroke="black" d="M282.7,-107.77C274.12,-117.78 262.12,-131.03 252.93,-144 231.9,-173.7 229.94,-183.32 213.93,-216 167.81,-310.19 157.03,-334.29 118.93,-432 100.89,-478.28 82.82,-533.23 69.99,-565.49"/>
<polygon fill="black" stroke="black" points="66.85,-563.93 66.26,-574.51 73.32,-566.61 66.85,-563.93"/>
</g>
<!-- r2_node_22&#45;&gt;r2_node_9 -->
<g id="edge8" class="edge">
<title>r2_node_22&#45;&gt;r2_node_9</title>
<path fill="none" stroke="black" d="M275,-72.76C265.86,-63.99 254.38,-52.99 244.2,-43.22"/>
<polygon fill="black" stroke="black" points="246.76,-40.83 237.12,-36.44 241.91,-45.88 246.76,-40.83"/>
</g>
<!-- r2_node_26 -->
<g id="node8" class="node">
<title>r2_node_26</title>
<ellipse fill="none" stroke="black" cx="468.93" cy="-162" rx="54.93" ry="18"/>
<text text-anchor="middle" x="468.93" y="-156.95" font-family="Times,serif" font-size="14.00">r2_node_26</text>
</g>
<!-- r2_node_22&#45;&gt;r2_node_26 -->
<g id="edge9" class="edge">
<title>r2_node_22&#45;&gt;r2_node_26</title>
<path fill="none" stroke="black" d="M329,-103.56C357.9,-114.34 397.87,-130.05 427.75,-142.32"/>
<polygon fill="black" stroke="black" points="426.28,-145.5 436.86,-146.09 428.96,-139.03 426.28,-145.5"/>
</g>
<!-- r2_node_26&#45;&gt;r2_node_15 -->
<g id="edge45" class="edge">
<title>r2_node_26&#45;&gt;r2_node_15</title>
<path fill="none" stroke="black" d="M516.38,-171.38C584.79,-183.7 704.95,-206.28 722.93,-216 725.42,-217.34 793.85,-285.39 794.93,-288 801.06,-302.78 799.03,-308.53 794.93,-324 769.33,-420.71 714.8,-430.81 621.93,-468 579,-485.19 261.73,-556.2 219.93,-576 183.41,-593.31 146.39,-621.58 122.44,-641.61"/>
<polygon fill="black" stroke="black" points="120.43,-638.72 115.07,-647.87 124.96,-644.06 120.43,-638.72"/>
</g>
<!-- r2_node_26&#45;&gt;r2_node_22 -->
<g id="edge48" class="edge">
<title>r2_node_26&#45;&gt;r2_node_22</title>
<path fill="none" stroke="black" d="M431.97,-148.49C403.07,-137.7 363.06,-121.97 333.14,-109.69"/>
<polygon fill="black" stroke="black" points="334.59,-106.5 324.01,-105.92 331.92,-112.97 334.59,-106.5"/>
</g>
<!-- r2_node_1 -->
<g id="node14" class="node">
<title>r2_node_1</title>
<ellipse fill="none" stroke="black" cx="420.93" cy="-90" rx="50.33" ry="18"/>
<text text-anchor="middle" x="420.93" y="-84.95" font-family="Times,serif" font-size="14.00">r2_node_1</text>
</g>
<!-- r2_node_26&#45;&gt;r2_node_1 -->
<g id="edge47" class="edge">
<title>r2_node_26&#45;&gt;r2_node_1</title>
<path fill="none" stroke="black" d="M457.31,-144.05C451.77,-135.97 445.02,-126.12 438.84,-117.11"/>
<polygon fill="black" stroke="black" points="441.84,-115.31 433.3,-109.04 436.07,-119.26 441.84,-115.31"/>
</g>
<!-- r2_node_5 -->
<g id="node19" class="node">
<title>r2_node_5</title>
<ellipse fill="none" stroke="black" cx="472.93" cy="-234" rx="50.33" ry="18"/>
<text text-anchor="middle" x="472.93" y="-228.95" font-family="Times,serif" font-size="14.00">r2_node_5</text>
</g>
<!-- r2_node_26&#45;&gt;r2_node_5 -->
<g id="edge46" class="edge">
<title>r2_node_26&#45;&gt;r2_node_5</title>
<path fill="none" stroke="black" d="M475.81,-180.1C476.98,-187.37 477.73,-196.04 477.94,-204.24"/>
<polygon fill="black" stroke="black" points="474.44,-204.16 477.87,-214.18 481.44,-204.21 474.44,-204.16"/>
</g>
<!-- r2_node_18 -->
<g id="node9" class="node">
<title>r2_node_18</title>
<ellipse fill="none" stroke="black" cx="349.93" cy="-234" rx="54.93" ry="18"/>
<text text-anchor="middle" x="349.93" y="-228.95" font-family="Times,serif" font-size="14.00">r2_node_18</text>
</g>
<!-- r2_node_10&#45;&gt;r2_node_25 -->
<g id="edge13" class="edge">
<title>r2_node_10&#45;&gt;r2_node_25</title>
<path fill="none" stroke="black" d="M365.07,-467.29C351.3,-477.11 332.37,-489.71 315.61,-500.23"/>
<polygon fill="black" stroke="black" points="313.99,-497.12 307.34,-505.36 317.68,-503.07 313.99,-497.12"/>
</g>
<!-- r2_node_4 -->
<g id="node11" class="node">
<title>r2_node_4</title>
<ellipse fill="none" stroke="black" cx="288.93" cy="-378" rx="50.33" ry="18"/>
<text text-anchor="middle" x="288.93" y="-372.95" font-family="Times,serif" font-size="14.00">r2_node_4</text>
</g>
<!-- r2_node_10&#45;&gt;r2_node_4 -->
<g id="edge11" class="edge">
<title>r2_node_10&#45;&gt;r2_node_4</title>
<path fill="none" stroke="black" d="M357.64,-433.81C344.02,-424.6 327.57,-412.65 314.11,-402.27"/>
<polygon fill="black" stroke="black" points="316.56,-399.74 306.54,-396.32 312.24,-405.25 316.56,-399.74"/>
</g>
<!-- r2_node_24 -->
<g id="node12" class="node">
<title>r2_node_24</title>
<ellipse fill="none" stroke="black" cx="493.93" cy="-378" rx="54.93" ry="18"/>
<text text-anchor="middle" x="493.93" y="-372.95" font-family="Times,serif" font-size="14.00">r2_node_24</text>
</g>
<!-- r2_node_10&#45;&gt;r2_node_24 -->
<g id="edge12" class="edge">
<title>r2_node_10&#45;&gt;r2_node_24</title>
<path fill="none" stroke="black" d="M403.65,-432.76C418.17,-422.81 438.19,-409.99 455.74,-399.36"/>
<polygon fill="black" stroke="black" points="457.1,-402.63 463.89,-394.49 453.51,-396.62 457.1,-402.63"/>
</g>
<!-- r2_node_4&#45;&gt;r2_node_10 -->
<g id="edge40" class="edge">
<title>r2_node_4&#45;&gt;r2_node_10</title>
<path fill="none" stroke="black" d="M314.66,-393.8C328.27,-402.99 344.83,-414.99 358.41,-425.46"/>
<polygon fill="black" stroke="black" points="356.04,-428.06 366.07,-431.48 360.36,-422.55 356.04,-428.06"/>
</g>
<!-- r2_node_19 -->
<g id="node15" class="node">
<title>r2_node_19</title>
<ellipse fill="none" stroke="black" cx="338.93" cy="-162" rx="54.93" ry="18"/>
<text text-anchor="middle" x="338.93" y="-156.95" font-family="Times,serif" font-size="14.00">r2_node_19</text>
</g>
<!-- r2_node_4&#45;&gt;r2_node_19 -->
<g id="edge41" class="edge">
<title>r2_node_4&#45;&gt;r2_node_19</title>
<path fill="none" stroke="black" d="M284.27,-359.72C276.99,-329.31 265.71,-264.82 285.93,-216 290.61,-204.7 299,-194.56 307.74,-186.24"/>
<polygon fill="black" stroke="black" points="309.8,-189.09 314.98,-179.85 305.17,-183.84 309.8,-189.09"/>
</g>
<!-- r2_node_29 -->
<g id="node24" class="node">
<title>r2_node_29</title>
<ellipse fill="none" stroke="black" cx="439.93" cy="-306" rx="54.93" ry="18"/>
<text text-anchor="middle" x="439.93" y="-300.95" font-family="Times,serif" font-size="14.00">r2_node_29</text>
</g>
<!-- r2_node_4&#45;&gt;r2_node_29 -->
<g id="edge39" class="edge">
<title>r2_node_4&#45;&gt;r2_node_29</title>
<path fill="none" stroke="black" d="M318.77,-363.17C341.63,-352.57 373.44,-337.82 398.73,-326.1"/>
<polygon fill="black" stroke="black" points="400.15,-329.3 407.75,-321.92 397.21,-322.95 400.15,-329.3"/>
</g>
<!-- r2_node_24&#45;&gt;r2_node_10 -->
<g id="edge35" class="edge">
<title>r2_node_24&#45;&gt;r2_node_10</title>
<path fill="none" stroke="black" d="M474.39,-395.12C459.85,-405.09 439.72,-417.99 422.09,-428.66"/>
<polygon fill="black" stroke="black" points="420.7,-425.42 413.91,-433.55 424.29,-431.42 420.7,-425.42"/>
</g>
<!-- r2_node_30 -->
<g id="node18" class="node">
<title>r2_node_30</title>
<ellipse fill="none" stroke="black" cx="612.93" cy="-306" rx="54.93" ry="18"/>
<text text-anchor="middle" x="612.93" y="-300.95" font-family="Times,serif" font-size="14.00">r2_node_30</text>
</g>
<!-- r2_node_24&#45;&gt;r2_node_30 -->
<g id="edge34" class="edge">
<title>r2_node_24&#45;&gt;r2_node_30</title>
<path fill="none" stroke="black" d="M515.18,-361.12C531.21,-350.99 553.52,-337.8 572.82,-326.97"/>
<polygon fill="black" stroke="black" points="574.51,-330.03 581.56,-322.13 571.12,-323.91 574.51,-330.03"/>
</g>
<!-- r2_node_24&#45;&gt;r2_node_8 -->
<g id="edge33" class="edge">
<title>r2_node_24&#45;&gt;r2_node_8</title>
<path fill="none" stroke="black" d="M534.17,-365.36C576.05,-353.25 641.68,-334.26 686.64,-321.26"/>
<polygon fill="black" stroke="black" points="687.52,-324.65 696.15,-318.51 685.57,-317.92 687.52,-324.65"/>
</g>
<!-- r2_node_7&#45;&gt;r2_node_25 -->
<g id="edge17" class="edge">
<title>r2_node_7&#45;&gt;r2_node_25</title>
<path fill="none" stroke="black" d="M196.68,-465.25C212.85,-474.83 233.08,-487.65 249.38,-498.58"/>
<polygon fill="black" stroke="black" points="246.97,-501.18 257.2,-503.91 250.91,-495.39 246.97,-501.18"/>
</g>
<!-- r2_node_7&#45;&gt;r2_node_1 -->
<g id="edge14" class="edge">
<title>r2_node_7&#45;&gt;r2_node_1</title>
<path fill="none" stroke="black" d="M169.91,-431.85C173.72,-380.8 191.87,-228.21 274.93,-144 288.66,-130.08 333.68,-114.93 370.13,-104.4"/>
<polygon fill="black" stroke="black" points="371,-107.79 379.67,-101.7 369.1,-101.06 371,-107.79"/>
</g>
<!-- r2_node_7&#45;&gt;r2_node_19 -->
<g id="edge15" class="edge">
<title>r2_node_7&#45;&gt;r2_node_19</title>
<path fill="none" stroke="black" d="M173.57,-431.73C185.13,-390.96 218.28,-286.85 272.93,-216 281.84,-204.45 293.76,-193.9 305.01,-185.3"/>
<polygon fill="black" stroke="black" points="307,-188.18 313.01,-179.45 302.87,-182.53 307,-188.18"/>
</g>
<!-- r2_node_2 -->
<g id="node16" class="node">
<title>r2_node_2</title>
<ellipse fill="none" stroke="black" cx="99.93" cy="-18" rx="50.33" ry="18"/>
<text text-anchor="middle" x="99.93" y="-12.95" font-family="Times,serif" font-size="14.00">r2_node_2</text>
</g>
<!-- r2_node_7&#45;&gt;r2_node_2 -->
<g id="edge16" class="edge">
<title>r2_node_7&#45;&gt;r2_node_2</title>
<path fill="none" stroke="black" d="M166.14,-431.61C155.53,-365.49 117.63,-129.29 104.47,-47.29"/>
<polygon fill="black" stroke="black" points="107.96,-46.95 102.92,-37.63 101.05,-48.06 107.96,-46.95"/>
</g>
<!-- r2_node_30&#45;&gt;r2_node_18 -->
<g id="edge18" class="edge">
<title>r2_node_30&#45;&gt;r2_node_18</title>
<path fill="none" stroke="black" d="M571.26,-293.91C525.48,-281.72 451.87,-262.13 402.24,-248.92"/>
<polygon fill="black" stroke="black" points="403.44,-245.62 392.87,-246.43 401.64,-252.38 403.44,-245.62"/>
</g>
<!-- r2_node_30&#45;&gt;r2_node_24 -->
<g id="edge20" class="edge">
<title>r2_node_30&#45;&gt;r2_node_24</title>
<path fill="none" stroke="black" d="M591.47,-323.03C575.41,-333.15 553.16,-346.32 533.91,-357.11"/>
<polygon fill="black" stroke="black" points="532.25,-354.03 525.2,-361.93 535.64,-360.15 532.25,-354.03"/>
</g>
<!-- r2_node_30&#45;&gt;r2_node_5 -->
<g id="edge19" class="edge">
<title>r2_node_30&#45;&gt;r2_node_5</title>
<path fill="none" stroke="black" d="M580.13,-291.34C558.25,-281.1 529.67,-266.93 507.46,-255.36"/>
<polygon fill="black" stroke="black" points="509.26,-252.35 498.78,-250.79 506,-258.54 509.26,-252.35"/>
</g>
<!-- r2_node_30&#45;&gt;r2_node_14 -->
<g id="edge21" class="edge">
<title>r2_node_30&#45;&gt;r2_node_14</title>
<path fill="none" stroke="black" d="M624.07,-288.05C629.32,-280.06 635.72,-270.33 641.59,-261.4"/>
<polygon fill="black" stroke="black" points="644.5,-263.33 647.07,-253.05 638.65,-259.49 644.5,-263.33"/>
</g>
<!-- r2_node_5&#45;&gt;r2_node_26 -->
<g id="edge27" class="edge">
<title>r2_node_5&#45;&gt;r2_node_26</title>
<path fill="none" stroke="black" d="M466.03,-215.7C464.86,-208.41 464.12,-199.73 463.92,-191.54"/>
<polygon fill="black" stroke="black" points="467.42,-191.65 464,-181.62 460.42,-191.59 467.42,-191.65"/>
</g>
<!-- r2_node_5&#45;&gt;r2_node_19 -->
<g id="edge26" class="edge">
<title>r2_node_5&#45;&gt;r2_node_19</title>
<path fill="none" stroke="black" d="M445.49,-218.67C425.8,-208.38 398.99,-194.37 377.19,-182.99"/>
<polygon fill="black" stroke="black" points="379.09,-180.03 368.6,-178.5 375.85,-186.23 379.09,-180.03"/>
</g>
<!-- r2_node_5&#45;&gt;r2_node_30 -->
<g id="edge28" class="edge">
<title>r2_node_5&#45;&gt;r2_node_30</title>
<path fill="none" stroke="black" d="M504.76,-248.21C526.55,-258.38 555.32,-272.63 577.77,-284.31"/>
<polygon fill="black" stroke="black" points="576.09,-287.38 586.57,-288.93 579.35,-281.18 576.09,-287.38"/>
</g>
<!-- r2_node_5&#45;&gt;r2_node_13 -->
<g id="edge25" class="edge">
<title>r2_node_5&#45;&gt;r2_node_13</title>
<path fill="none" stroke="black" d="M503.78,-219.5C528.4,-208.74 563.14,-193.54 590.39,-181.61"/>
<polygon fill="black" stroke="black" points="591.66,-184.88 599.42,-177.66 588.86,-178.46 591.66,-184.88"/>
</g>
<!-- r2_node_23&#45;&gt;r2_node_25 -->
<g id="edge43" class="edge">
<title>r2_node_23&#45;&gt;r2_node_25</title>
<path fill="none" stroke="black" d="M517.25,-462.46C468.76,-475.1 387.69,-495.38 333.47,-508.45"/>
<polygon fill="black" stroke="black" points="332.71,-505.03 323.8,-510.77 334.34,-511.84 332.71,-505.03"/>
</g>
<!-- r2_node_23&#45;&gt;r2_node_8 -->
<g id="edge42" class="edge">
<title>r2_node_23&#45;&gt;r2_node_8</title>
<path fill="none" stroke="black" d="M576.17,-432.82C596.85,-414.64 631.73,-384.49 662.93,-360 676.32,-349.49 691.49,-338.36 704.52,-329.02"/>
<polygon fill="black" stroke="black" points="706.22,-332.11 712.34,-323.46 702.16,-326.4 706.22,-332.11"/>
</g>
<!-- r2_node_28 -->
<g id="node25" class="node">
<title>r2_node_28</title>
<ellipse fill="none" stroke="black" cx="568.93" cy="-90" rx="54.93" ry="18"/>
<text text-anchor="middle" x="568.93" y="-84.95" font-family="Times,serif" font-size="14.00">r2_node_28</text>
</g>
<!-- r2_node_23&#45;&gt;r2_node_28 -->
<g id="edge44" class="edge">
<title>r2_node_23&#45;&gt;r2_node_28</title>
<path fill="none" stroke="black" d="M603.9,-439.71C660.29,-425.58 753.49,-392.71 794.93,-324 803.2,-310.3 805.2,-300.27 794.93,-288 737,-218.71 652.87,-321.29 594.93,-252 584.67,-239.73 585.69,-229.06 594.93,-216 622.7,-176.76 669.17,-219.24 696.93,-180 706.18,-166.94 705.82,-157.3 696.93,-144 681.8,-121.35 655.01,-108.37 629.84,-100.94"/>
<polygon fill="black" stroke="black" points="630.84,-97.58 620.27,-98.38 629.03,-104.34 630.84,-97.58"/>
</g>
</g>
</svg>
