<?xml version="1.0" encoding="UTF-8" standalone="no"?>
<!DOCTYPE svg PUBLIC "-//W3C//DTD SVG 1.1//EN"
 "http://www.w3.org/Graphics/SVG/1.1/DTD/svg11.dtd">
<!-- Generated by graphviz version 12.2.1 (20241206.2353)
 -->
<!-- Pages: 1 -->
<svg width="1119pt" height="332pt"
 viewBox="0.00 0.00 1118.87 332.00" xmlns="http://www.w3.org/2000/svg" xmlns:xlink="http://www.w3.org/1999/xlink">
<g id="graph0" class="graph" transform="scale(1 1) rotate(0) translate(4 328)">
<polygon fill="white" stroke="none" points="-4,4 -4,-328 1114.87,-328 1114.87,4 -4,4"/>
<!-- r2_node_2 -->
<g id="node1" class="node">
<title>r2_node_2</title>
<ellipse fill="none" stroke="black" cx="52.93" cy="-306" rx="50.33" ry="18"/>
<text text-anchor="middle" x="52.93" y="-300.95" font-family="Times,serif" font-size="14.00">r2_node_2</text>
</g>
<!-- r2_node_15 -->
<g id="node2" class="node">
<title>r2_node_15</title>
<ellipse fill="none" stroke="black" cx="54.93" cy="-18" rx="54.93" ry="18"/>
<text text-anchor="middle" x="54.93" y="-12.95" font-family="Times,serif" font-size="14.00">r2_node_15</text>
</g>
<!-- r2_node_2&#45;&gt;r2_node_15 -->
<g id="edge1" class="edge">
<title>r2_node_2&#45;&gt;r2_node_15</title>
<path fill="none" stroke="black" d="M53.06,-287.54C53.39,-239.76 54.32,-106.51 54.73,-47.61"/>
<polygon fill="black" stroke="black" points="58.23,-47.77 54.8,-37.75 51.23,-47.72 58.23,-47.77"/>
</g>
<!-- r2_node_16 -->
<g id="node3" class="node">
<title>r2_node_16</title>
<ellipse fill="none" stroke="black" cx="637.93" cy="-90" rx="54.93" ry="18"/>
<text text-anchor="middle" x="637.93" y="-84.95" font-family="Times,serif" font-size="14.00">r2_node_16</text>
</g>
<!-- r2_node_2&#45;&gt;r2_node_16 -->
<g id="edge2" class="edge">
<title>r2_node_2&#45;&gt;r2_node_16</title>
<path fill="none" stroke="black" d="M102.64,-302.31C162.37,-297.66 264.7,-285.18 345.93,-252 372.3,-241.23 374.58,-230.76 398.93,-216 427.84,-198.48 438.28,-199.45 465.93,-180 485.5,-166.24 485.64,-156.65 505.93,-144 531.33,-128.17 562.27,-115.45 587.8,-106.44"/>
<polygon fill="black" stroke="black" points="588.63,-109.86 596.95,-103.3 586.36,-103.24 588.63,-109.86"/>
</g>
<!-- r2_node_1 -->
<g id="node4" class="node">
<title>r2_node_1</title>
<ellipse fill="none" stroke="black" cx="286.93" cy="-234" rx="50.33" ry="18"/>
<text text-anchor="middle" x="286.93" y="-228.95" font-family="Times,serif" font-size="14.00">r2_node_1</text>
</g>
<!-- r2_node_2&#45;&gt;r2_node_1 -->
<g id="edge3" class="edge">
<title>r2_node_2&#45;&gt;r2_node_1</title>
<path fill="none" stroke="black" d="M88.43,-292.81C127.92,-280.42 191.82,-261.29 236.48,-248.46"/>
<polygon fill="black" stroke="black" points="237.28,-251.87 245.94,-245.76 235.36,-245.14 237.28,-251.87"/>
</g>
<!-- r2_node_5 -->
<g id="node5" class="node">
<title>r2_node_5</title>
<ellipse fill="none" stroke="black" cx="131.93" cy="-90" rx="50.33" ry="18"/>
<text text-anchor="middle" x="131.93" y="-84.95" font-family="Times,serif" font-size="14.00">r2_node_5</text>
</g>
<!-- r2_node_2&#45;&gt;r2_node_5 -->
<g id="edge4" class="edge">
<title>r2_node_2&#45;&gt;r2_node_5</title>
<path fill="none" stroke="black" d="M55.39,-287.85C65.52,-250.82 97.63,-163.12 117.15,-118.34"/>
<polygon fill="black" stroke="black" points="120.3,-119.87 121.21,-109.32 113.92,-117 120.3,-119.87"/>
</g>
<!-- r2_node_9 -->
<g id="node6" class="node">
<title>r2_node_9</title>
<ellipse fill="none" stroke="black" cx="296.93" cy="-90" rx="50.33" ry="18"/>
<text text-anchor="middle" x="296.93" y="-84.95" font-family="Times,serif" font-size="14.00">r2_node_9</text>
</g>
<!-- r2_node_2&#45;&gt;r2_node_9 -->
<g id="edge5" class="edge">
<title>r2_node_2&#45;&gt;r2_node_9</title>
<path fill="none" stroke="black" d="M78.31,-290.06C116.13,-269.64 187.22,-229.78 234.93,-180 252.57,-161.6 266.93,-136.29 277.76,-117.36"/>
<polygon fill="black" stroke="black" points="280.67,-119.31 282.65,-108.9 274.61,-115.8 280.67,-119.31"/>
</g>
<!-- r2_node_10 -->
<g id="node7" class="node">
<title>r2_node_10</title>
<ellipse fill="none" stroke="black" cx="462.93" cy="-234" rx="54.93" ry="18"/>
<text text-anchor="middle" x="462.93" y="-228.95" font-family="Times,serif" font-size="14.00">r2_node_10</text>
</g>
<!-- r2_node_2&#45;&gt;r2_node_10 -->
<g id="edge6" class="edge">
<title>r2_node_2&#45;&gt;r2_node_10</title>
<path fill="none" stroke="black" d="M98.41,-297.98C161.79,-288.74 279.77,-271.38 379.93,-252 388.21,-250.4 396.97,-248.54 405.6,-246.64"/>
<polygon fill="black" stroke="black" points="406.33,-250.07 415.34,-244.48 404.81,-243.23 406.33,-250.07"/>
</g>
<!-- r2_node_1&#45;&gt;r2_node_2 -->
<g id="edge36" class="edge">
<title>r2_node_1&#45;&gt;r2_node_2</title>
<path fill="none" stroke="black" d="M251.71,-247.11C212.31,-259.47 148.37,-278.62 103.62,-291.47"/>
<polygon fill="black" stroke="black" points="102.79,-288.07 94.14,-294.18 104.71,-294.8 102.79,-288.07"/>
</g>
<!-- r2_node_7 -->
<g id="node9" class="node">
<title>r2_node_7</title>
<ellipse fill="none" stroke="black" cx="184.93" cy="-162" rx="50.33" ry="18"/>
<text text-anchor="middle" x="184.93" y="-156.95" font-family="Times,serif" font-size="14.00">r2_node_7</text>
</g>
<!-- r2_node_1&#45;&gt;r2_node_7 -->
<g id="edge37" class="edge">
<title>r2_node_1&#45;&gt;r2_node_7</title>
<path fill="none" stroke="black" d="M259.94,-218.33C245.04,-208.92 226.71,-196.52 211.84,-185.84"/>
<polygon fill="black" stroke="black" points="214,-183.08 203.86,-180.01 209.87,-188.74 214,-183.08"/>
</g>
<!-- r2_node_8 -->
<g id="node14" class="node">
<title>r2_node_8</title>
<ellipse fill="none" stroke="black" cx="406.93" cy="-162" rx="50.33" ry="18"/>
<text text-anchor="middle" x="406.93" y="-156.95" font-family="Times,serif" font-size="14.00">r2_node_8</text>
</g>
<!-- r2_node_1&#45;&gt;r2_node_8 -->
<g id="edge38" class="edge">
<title>r2_node_1&#45;&gt;r2_node_8</title>
<path fill="none" stroke="black" d="M308.12,-217.29C324.57,-206.99 347.65,-193.46 367.43,-182.47"/>
<polygon fill="black" stroke="black" points="369,-185.6 376.09,-177.72 365.64,-179.46 369,-185.6"/>
</g>
<!-- r2_node_12 -->
<g id="node19" class="node">
<title>r2_node_12</title>
<ellipse fill="none" stroke="black" cx="426.93" cy="-90" rx="54.93" ry="18"/>
<text text-anchor="middle" x="426.93" y="-84.95" font-family="Times,serif" font-size="14.00">r2_node_12</text>
</g>
<!-- r2_node_1&#45;&gt;r2_node_12 -->
<g id="edge39" class="edge">
<title>r2_node_1&#45;&gt;r2_node_12</title>
<path fill="none" stroke="black" d="M296.06,-215.85C306.75,-196.81 325.84,-165.88 347.93,-144 360.33,-131.73 375.95,-120.56 390.01,-111.67"/>
<polygon fill="black" stroke="black" points="391.45,-114.9 398.16,-106.69 387.8,-108.92 391.45,-114.9"/>
</g>
<!-- r2_node_5&#45;&gt;r2_node_2 -->
<g id="edge8" class="edge">
<title>r2_node_5&#45;&gt;r2_node_2</title>
<path fill="none" stroke="black" d="M129.44,-108.31C119.24,-145.48 87.13,-233.17 67.64,-277.84"/>
<polygon fill="black" stroke="black" points="64.51,-276.27 63.6,-286.83 70.89,-279.14 64.51,-276.27"/>
</g>
<!-- r2_node_5&#45;&gt;r2_node_15 -->
<g id="edge7" class="edge">
<title>r2_node_5&#45;&gt;r2_node_15</title>
<path fill="none" stroke="black" d="M114.08,-72.76C104.33,-63.91 92.08,-52.77 81.26,-42.93"/>
<polygon fill="black" stroke="black" points="83.84,-40.54 74.08,-36.41 79.13,-45.72 83.84,-40.54"/>
</g>
<!-- r2_node_3 -->
<g id="node8" class="node">
<title>r2_node_3</title>
<ellipse fill="none" stroke="black" cx="345.93" cy="-18" rx="50.33" ry="18"/>
<text text-anchor="middle" x="345.93" y="-12.95" font-family="Times,serif" font-size="14.00">r2_node_3</text>
</g>
<!-- r2_node_5&#45;&gt;r2_node_3 -->
<g id="edge9" class="edge">
<title>r2_node_5&#45;&gt;r2_node_3</title>
<path fill="none" stroke="black" d="M168.24,-77.13C204.24,-65.35 259.57,-47.25 298.91,-34.38"/>
<polygon fill="black" stroke="black" points="299.96,-37.72 308.37,-31.29 297.78,-31.07 299.96,-37.72"/>
</g>
<!-- r2_node_5&#45;&gt;r2_node_7 -->
<g id="edge10" class="edge">
<title>r2_node_5&#45;&gt;r2_node_7</title>
<path fill="none" stroke="black" d="M149.95,-107.14C156.94,-115.18 164.71,-125.1 171.25,-134.23"/>
<polygon fill="black" stroke="black" points="168.35,-136.19 176.89,-142.45 174.12,-132.22 168.35,-136.19"/>
</g>
<!-- r2_node_9&#45;&gt;r2_node_2 -->
<g id="edge35" class="edge">
<title>r2_node_9&#45;&gt;r2_node_2</title>
<path fill="none" stroke="black" d="M296.09,-108.27C289.74,-127.42 273.59,-158.45 252.93,-180 207.33,-227.58 140.38,-266.09 96.6,-287.23"/>
<polygon fill="black" stroke="black" points="95.18,-284.03 87.63,-291.46 98.17,-290.36 95.18,-284.03"/>
</g>
<!-- r2_node_9&#45;&gt;r2_node_7 -->
<g id="edge30" class="edge">
<title>r2_node_9&#45;&gt;r2_node_7</title>
<path fill="none" stroke="black" d="M277.32,-106.85C262.27,-117 241.22,-130.24 222.95,-141.09"/>
<polygon fill="black" stroke="black" points="221.31,-137.99 214.45,-146.07 224.85,-144.03 221.31,-137.99"/>
</g>
<!-- r2_node_20 -->
<g id="node10" class="node">
<title>r2_node_20</title>
<ellipse fill="none" stroke="black" cx="758.93" cy="-18" rx="54.93" ry="18"/>
<text text-anchor="middle" x="758.93" y="-12.95" font-family="Times,serif" font-size="14.00">r2_node_20</text>
</g>
<!-- r2_node_9&#45;&gt;r2_node_20 -->
<g id="edge34" class="edge">
<title>r2_node_9&#45;&gt;r2_node_20</title>
<path fill="none" stroke="black" d="M335.84,-78.13C344.7,-75.89 354.1,-73.7 362.93,-72 485.27,-48.42 517.5,-52.88 640.93,-36 659.61,-33.45 679.94,-30.56 698.38,-27.89"/>
<polygon fill="black" stroke="black" points="698.69,-31.39 708.08,-26.49 697.69,-24.46 698.69,-31.39"/>
</g>
<!-- r2_node_13 -->
<g id="node13" class="node">
<title>r2_node_13</title>
<ellipse fill="none" stroke="black" cx="576.93" cy="-18" rx="54.93" ry="18"/>
<text text-anchor="middle" x="576.93" y="-12.95" font-family="Times,serif" font-size="14.00">r2_node_13</text>
</g>
<!-- r2_node_9&#45;&gt;r2_node_13 -->
<g id="edge31" class="edge">
<title>r2_node_9&#45;&gt;r2_node_13</title>
<path fill="none" stroke="black" d="M336.71,-78.69C345.35,-76.47 354.44,-74.14 362.93,-72 417.27,-58.27 479.45,-42.91 522.73,-32.28"/>
<polygon fill="black" stroke="black" points="523.52,-35.69 532.4,-29.9 521.85,-28.89 523.52,-35.69"/>
</g>
<!-- r2_node_14 -->
<g id="node15" class="node">
<title>r2_node_14</title>
<ellipse fill="none" stroke="black" cx="913.93" cy="-18" rx="54.93" ry="18"/>
<text text-anchor="middle" x="913.93" y="-12.95" font-family="Times,serif" font-size="14.00">r2_node_14</text>
</g>
<!-- r2_node_9&#45;&gt;r2_node_14 -->
<g id="edge32" class="edge">
<title>r2_node_9&#45;&gt;r2_node_14</title>
<path fill="none" stroke="black" d="M335.08,-77.97C344.15,-75.69 353.83,-73.52 362.93,-72 565.22,-38.3 619.63,-62.87 822.93,-36 834.17,-34.52 846.11,-32.56 857.53,-30.5"/>
<polygon fill="black" stroke="black" points="858.04,-33.97 867.24,-28.71 856.77,-27.09 858.04,-33.97"/>
</g>
<!-- r2_node_19 -->
<g id="node18" class="node">
<title>r2_node_19</title>
<ellipse fill="none" stroke="black" cx="1055.93" cy="-18" rx="54.93" ry="18"/>
<text text-anchor="middle" x="1055.93" y="-12.95" font-family="Times,serif" font-size="14.00">r2_node_19</text>
</g>
<!-- r2_node_9&#45;&gt;r2_node_19 -->
<g id="edge33" class="edge">
<title>r2_node_9&#45;&gt;r2_node_19</title>
<path fill="none" stroke="black" d="M335.06,-77.84C344.13,-75.56 353.82,-73.43 362.93,-72 633.44,-29.65 706.68,-73.27 977.93,-36 985.77,-34.92 994,-33.48 1002.04,-31.89"/>
<polygon fill="black" stroke="black" points="1002.68,-35.33 1011.75,-29.87 1001.25,-28.48 1002.68,-35.33"/>
</g>
<!-- r2_node_10&#45;&gt;r2_node_2 -->
<g id="edge11" class="edge">
<title>r2_node_10&#45;&gt;r2_node_2</title>
<path fill="none" stroke="black" d="M422.94,-246.73C414.71,-248.59 406.09,-250.42 397.93,-252 297.98,-271.34 180.26,-288.67 111.3,-297.92"/>
<polygon fill="black" stroke="black" points="111.2,-294.41 101.74,-299.19 112.12,-301.34 111.2,-294.41"/>
</g>
<!-- r2_node_17 -->
<g id="node11" class="node">
<title>r2_node_17</title>
<ellipse fill="none" stroke="black" cx="569.93" cy="-162" rx="54.93" ry="18"/>
<text text-anchor="middle" x="569.93" y="-156.95" font-family="Times,serif" font-size="14.00">r2_node_17</text>
</g>
<!-- r2_node_10&#45;&gt;r2_node_17 -->
<g id="edge12" class="edge">
<title>r2_node_10&#45;&gt;r2_node_17</title>
<path fill="none" stroke="black" d="M486.68,-217.46C501.5,-207.77 520.79,-195.15 537.07,-184.5"/>
<polygon fill="black" stroke="black" points="538.53,-187.72 544.99,-179.32 534.7,-181.87 538.53,-187.72"/>
</g>
<!-- r2_node_18 -->
<g id="node12" class="node">
<title>r2_node_18</title>
<ellipse fill="none" stroke="black" cx="765.93" cy="-90" rx="54.93" ry="18"/>
<text text-anchor="middle" x="765.93" y="-84.95" font-family="Times,serif" font-size="14.00">r2_node_18</text>
</g>
<!-- r2_node_10&#45;&gt;r2_node_18 -->
<g id="edge13" class="edge">
<title>r2_node_10&#45;&gt;r2_node_18</title>
<path fill="none" stroke="black" d="M507.49,-223.01C542.81,-214.19 592.87,-199.68 633.93,-180 671.89,-161.81 711.41,-133.76 737.19,-114.03"/>
<polygon fill="black" stroke="black" points="739.08,-116.99 744.84,-108.09 734.79,-111.45 739.08,-116.99"/>
</g>
<!-- r2_node_7&#45;&gt;r2_node_15 -->
<g id="edge28" class="edge">
<title>r2_node_7&#45;&gt;r2_node_15</title>
<path fill="none" stroke="black" d="M191.9,-143.95C198.53,-124.72 205.53,-93.35 190.93,-72 174.34,-47.73 144.86,-34.57 117.57,-27.44"/>
<polygon fill="black" stroke="black" points="118.47,-24.05 107.93,-25.17 116.87,-30.87 118.47,-24.05"/>
</g>
<!-- r2_node_7&#45;&gt;r2_node_1 -->
<g id="edge25" class="edge">
<title>r2_node_7&#45;&gt;r2_node_1</title>
<path fill="none" stroke="black" d="M211.63,-177.48C226.51,-186.87 244.89,-199.3 259.83,-210.02"/>
<polygon fill="black" stroke="black" points="257.71,-212.81 267.85,-215.87 261.84,-207.15 257.71,-212.81"/>
</g>
<!-- r2_node_7&#45;&gt;r2_node_5 -->
<g id="edge29" class="edge">
<title>r2_node_7&#45;&gt;r2_node_5</title>
<path fill="none" stroke="black" d="M166.84,-144.76C159.83,-136.7 152.03,-126.74 145.5,-117.6"/>
<polygon fill="black" stroke="black" points="148.4,-115.64 139.86,-109.37 142.63,-119.6 148.4,-115.64"/>
</g>
<!-- r2_node_7&#45;&gt;r2_node_9 -->
<g id="edge26" class="edge">
<title>r2_node_7&#45;&gt;r2_node_9</title>
<path fill="none" stroke="black" d="M204.59,-145.12C219.65,-134.97 240.68,-121.74 258.94,-110.9"/>
<polygon fill="black" stroke="black" points="260.57,-114 267.43,-105.92 257.03,-107.96 260.57,-114"/>
</g>
<!-- r2_node_7&#45;&gt;r2_node_12 -->
<g id="edge27" class="edge">
<title>r2_node_7&#45;&gt;r2_node_12</title>
<path fill="none" stroke="black" d="M223.28,-149.91C264.53,-137.98 330.32,-118.95 375.91,-105.76"/>
<polygon fill="black" stroke="black" points="376.67,-109.18 385.3,-103.04 374.72,-102.46 376.67,-109.18"/>
</g>
<!-- r2_node_8&#45;&gt;r2_node_16 -->
<g id="edge14" class="edge">
<title>r2_node_8&#45;&gt;r2_node_16</title>
<path fill="none" stroke="black" d="M444.56,-149.6C483.61,-137.77 544.88,-119.2 587.96,-106.14"/>
<polygon fill="black" stroke="black" points="588.77,-109.55 597.33,-103.3 586.74,-102.86 588.77,-109.55"/>
</g>
<!-- r2_node_8&#45;&gt;r2_node_1 -->
<g id="edge15" class="edge">
<title>r2_node_8&#45;&gt;r2_node_1</title>
<path fill="none" stroke="black" d="M385.79,-178.68C369.34,-188.98 346.24,-202.53 326.45,-213.52"/>
<polygon fill="black" stroke="black" points="324.87,-210.4 317.78,-218.27 328.23,-216.53 324.87,-210.4"/>
</g>
<!-- r2_node_8&#45;&gt;r2_node_14 -->
<g id="edge16" class="edge">
<title>r2_node_8&#45;&gt;r2_node_14</title>
<path fill="none" stroke="black" d="M429.57,-145.63C460.66,-125.32 518.99,-90 573.93,-72 680.19,-37.19 712.62,-54.27 822.93,-36 833.87,-34.19 845.53,-32.12 856.72,-30.06"/>
<polygon fill="black" stroke="black" points="857.03,-33.56 866.22,-28.29 855.75,-26.68 857.03,-33.56"/>
</g>
<!-- r2_node_6 -->
<g id="node16" class="node">
<title>r2_node_6</title>
<ellipse fill="none" stroke="black" cx="295.93" cy="-306" rx="50.33" ry="18"/>
<text text-anchor="middle" x="295.93" y="-300.95" font-family="Times,serif" font-size="14.00">r2_node_6</text>
</g>
<!-- r2_node_6&#45;&gt;r2_node_3 -->
<g id="edge17" class="edge">
<title>r2_node_6&#45;&gt;r2_node_3</title>
<path fill="none" stroke="black" d="M341.25,-297.74C399.13,-287.94 495.56,-269.65 526.93,-252 546.38,-241.06 543.92,-229.18 561.93,-216 590.81,-194.88 615.12,-210.43 633.93,-180 642.35,-166.39 642.33,-157.62 633.93,-144 624.6,-128.85 507.26,-79.07 490.93,-72 458.65,-58.03 421.36,-44.45 392.68,-34.54"/>
<polygon fill="black" stroke="black" points="394.17,-31.35 383.57,-31.42 391.9,-37.97 394.17,-31.35"/>
</g>
<!-- r2_node_6&#45;&gt;r2_node_18 -->
<g id="edge18" class="edge">
<title>r2_node_6&#45;&gt;r2_node_18</title>
<path fill="none" stroke="black" d="M341.65,-297.92C406.7,-287.5 522.46,-267.59 561.93,-252 590.15,-240.86 654.21,-198.92 677.93,-180 702.42,-160.47 727.24,-134.71 744.25,-115.93"/>
<polygon fill="black" stroke="black" points="746.64,-118.5 750.7,-108.72 741.42,-113.84 746.64,-118.5"/>
</g>
<!-- r2_node_4 -->
<g id="node17" class="node">
<title>r2_node_4</title>
<ellipse fill="none" stroke="black" cx="476.93" cy="-306" rx="50.33" ry="18"/>
<text text-anchor="middle" x="476.93" y="-300.95" font-family="Times,serif" font-size="14.00">r2_node_4</text>
</g>
<!-- r2_node_4&#45;&gt;r2_node_15 -->
<g id="edge21" class="edge">
<title>r2_node_4&#45;&gt;r2_node_15</title>
<path fill="none" stroke="black" d="M522.62,-298.09C562.31,-290.75 620.4,-276.7 665.93,-252 687.25,-240.44 819.93,-130.09 829.93,-108 836.53,-93.42 840.87,-83.68 829.93,-72 788.62,-27.85 347.25,-40.21 286.93,-36 230.3,-32.05 165.9,-27.31 119.34,-23.84"/>
<polygon fill="black" stroke="black" points="119.65,-20.35 109.42,-23.1 119.13,-27.33 119.65,-20.35"/>
</g>
<!-- r2_node_4&#45;&gt;r2_node_16 -->
<g id="edge22" class="edge">
<title>r2_node_4&#45;&gt;r2_node_16</title>
<path fill="none" stroke="black" d="M513.47,-293.31C559.08,-276.48 635,-240.61 666.93,-180 677.43,-160.08 668.07,-135.64 657.27,-117.42"/>
<polygon fill="black" stroke="black" points="660.22,-115.55 651.88,-109.02 654.33,-119.33 660.22,-115.55"/>
</g>
<!-- r2_node_4&#45;&gt;r2_node_18 -->
<g id="edge23" class="edge">
<title>r2_node_4&#45;&gt;r2_node_18</title>
<path fill="none" stroke="black" d="M520.61,-296.78C553.38,-289.09 598.21,-275.23 631.93,-252 684.68,-215.67 728.27,-153.13 750.34,-117.64"/>
<polygon fill="black" stroke="black" points="753.23,-119.62 755.45,-109.26 747.25,-115.98 753.23,-119.62"/>
</g>
<!-- r2_node_4&#45;&gt;r2_node_13 -->
<g id="edge19" class="edge">
<title>r2_node_4&#45;&gt;r2_node_13</title>
<path fill="none" stroke="black" d="M525.42,-301.06C575.36,-295.48 654.36,-282.33 715.93,-252 738.29,-240.99 736.5,-226.85 758.93,-216 830.03,-181.61 883.07,-241.24 932.93,-180 967.96,-136.98 884.9,-75.66 878.93,-72 868.67,-65.7 722.06,-41.83 636.96,-28.37"/>
<polygon fill="black" stroke="black" points="637.55,-24.92 627.13,-26.82 636.46,-31.84 637.55,-24.92"/>
</g>
<!-- r2_node_4&#45;&gt;r2_node_14 -->
<g id="edge20" class="edge">
<title>r2_node_4&#45;&gt;r2_node_14</title>
<path fill="none" stroke="black" d="M527.67,-305.05C606.67,-303.67 762.87,-295.12 886.93,-252 945.68,-231.58 976.29,-234.12 1006.93,-180 1020.55,-155.94 994.03,-76.6 990.93,-72 981.81,-58.47 967.97,-47.39 954.52,-38.92"/>
<polygon fill="black" stroke="black" points="956.57,-36.06 946.18,-33.99 953.01,-42.09 956.57,-36.06"/>
</g>
<!-- r2_node_4&#45;&gt;r2_node_19 -->
<g id="edge24" class="edge">
<title>r2_node_4&#45;&gt;r2_node_19</title>
<path fill="none" stroke="black" d="M526.9,-303.3C632,-299.1 872.27,-285.98 945.93,-252 1020.81,-217.46 1042.25,-187.83 1062.93,-108 1068.05,-88.25 1066.06,-65.28 1062.91,-47.63"/>
<polygon fill="black" stroke="black" points="1066.34,-46.94 1060.92,-37.84 1059.48,-48.34 1066.34,-46.94"/>
</g>
<!-- r2_node_11 -->
<g id="node20" class="node">
<title>r2_node_11</title>
<ellipse fill="none" stroke="black" cx="822.93" cy="-234" rx="54.93" ry="18"/>
<text text-anchor="middle" x="822.93" y="-228.95" font-family="Times,serif" font-size="14.00">r2_node_11</text>
</g>
<!-- r2_node_11&#45;&gt;r2_node_16 -->
<g id="edge44" class="edge">
<title>r2_node_11&#45;&gt;r2_node_16</title>
<path fill="none" stroke="black" d="M827.6,-215.58C831.72,-196 834.88,-164.32 818.93,-144 816.85,-141.35 742.46,-120.15 689.71,-105.38"/>
<polygon fill="black" stroke="black" points="690.84,-102.07 680.27,-102.74 688.96,-108.81 690.84,-102.07"/>
</g>
<!-- r2_node_11&#45;&gt;r2_node_20 -->
<g id="edge41" class="edge">
<title>r2_node_11&#45;&gt;r2_node_20</title>
<path fill="none" stroke="black" d="M875.92,-228.99C909.13,-223.41 949.57,-210.35 970.93,-180 980.15,-166.92 975.42,-159.36 970.93,-144 960.28,-107.55 955.03,-95.15 924.93,-72 907.25,-58.4 854.85,-42.88 813.6,-32.17"/>
<polygon fill="black" stroke="black" points="814.59,-28.81 804.04,-29.72 812.86,-35.59 814.59,-28.81"/>
</g>
<!-- r2_node_11&#45;&gt;r2_node_14 -->
<g id="edge43" class="edge">
<title>r2_node_11&#45;&gt;r2_node_14</title>
<path fill="none" stroke="black" d="M877.38,-231.32C915.09,-226.96 962.85,-214.4 987.93,-180 1019.93,-136.12 972.61,-76.19 940.14,-43.22"/>
<polygon fill="black" stroke="black" points="942.92,-41.04 933.35,-36.51 938,-46.03 942.92,-41.04"/>
</g>
<!-- r2_node_11&#45;&gt;r2_node_19 -->
<g id="edge40" class="edge">
<title>r2_node_11&#45;&gt;r2_node_19</title>
<path fill="none" stroke="black" d="M877.35,-230.83C918.13,-226.34 972.6,-213.83 1006.93,-180 1043.03,-144.45 1052.71,-83.19 1055.19,-47.36"/>
<polygon fill="black" stroke="black" points="1058.67,-47.95 1055.71,-37.77 1051.68,-47.57 1058.67,-47.95"/>
</g>
<!-- r2_node_11&#45;&gt;r2_node_12 -->
<g id="edge42" class="edge">
<title>r2_node_11&#45;&gt;r2_node_12</title>
<path fill="none" stroke="black" d="M795.46,-218.03C759.29,-198.8 693.31,-165.36 633.93,-144 584.37,-126.17 526.11,-111.81 484.05,-102.56"/>
<polygon fill="black" stroke="black" points="484.9,-99.17 474.39,-100.47 483.42,-106.01 484.9,-99.17"/>
</g>
</g>
</svg>
