<?xml version="1.0" encoding="UTF-8" standalone="no"?>
<!DOCTYPE svg PUBLIC "-//W3C//DTD SVG 1.1//EN"
 "http://www.w3.org/Graphics/SVG/1.1/DTD/svg11.dtd">
<!-- Generated by graphviz version 12.2.1 (20241206.2353)
 -->
<!-- Pages: 1 -->
<svg width="1130pt" height="476pt"
 viewBox="0.00 0.00 1129.87 476.00" xmlns="http://www.w3.org/2000/svg" xmlns:xlink="http://www.w3.org/1999/xlink">
<g id="graph0" class="graph" transform="scale(1 1) rotate(0) translate(4 472)">
<polygon fill="white" stroke="none" points="-4,4 -4,-472 1125.87,-472 1125.87,4 -4,4"/>
<!-- r2_node_14 -->
<g id="node1" class="node">
<title>r2_node_14</title>
<ellipse fill="none" stroke="black" cx="148.93" cy="-450" rx="54.93" ry="18"/>
<text text-anchor="middle" x="148.93" y="-444.95" font-family="Times,serif" font-size="14.00">r2_node_14</text>
</g>
<!-- r2_node_5 -->
<g id="node2" class="node">
<title>r2_node_5</title>
<ellipse fill="none" stroke="black" cx="435.93" cy="-378" rx="50.33" ry="18"/>
<text text-anchor="middle" x="435.93" y="-372.95" font-family="Times,serif" font-size="14.00">r2_node_5</text>
</g>
<!-- r2_node_14&#45;&gt;r2_node_5 -->
<g id="edge1" class="edge">
<title>r2_node_14&#45;&gt;r2_node_5</title>
<path fill="none" stroke="black" d="M190.24,-437.68C240.94,-424.79 326.8,-403.84 382.48,-390.77"/>
<polygon fill="black" stroke="black" points="383.12,-394.21 392.06,-388.53 381.53,-387.4 383.12,-394.21"/>
</g>
<!-- r2_node_1 -->
<g id="node3" class="node">
<title>r2_node_1</title>
<ellipse fill="none" stroke="black" cx="227.93" cy="-378" rx="50.33" ry="18"/>
<text text-anchor="middle" x="227.93" y="-372.95" font-family="Times,serif" font-size="14.00">r2_node_1</text>
</g>
<!-- r2_node_14&#45;&gt;r2_node_1 -->
<g id="edge2" class="edge">
<title>r2_node_14&#45;&gt;r2_node_1</title>
<path fill="none" stroke="black" d="M162.18,-432.05C171.54,-422.9 184.28,-411.47 196.11,-401.57"/>
<polygon fill="black" stroke="black" points="198.22,-404.36 203.73,-395.32 193.78,-398.95 198.22,-404.36"/>
</g>
<!-- r2_node_2 -->
<g id="node4" class="node">
<title>r2_node_2</title>
<ellipse fill="none" stroke="black" cx="92.93" cy="-378" rx="50.33" ry="18"/>
<text text-anchor="middle" x="92.93" y="-372.95" font-family="Times,serif" font-size="14.00">r2_node_2</text>
</g>
<!-- r2_node_14&#45;&gt;r2_node_2 -->
<g id="edge3" class="edge">
<title>r2_node_14&#45;&gt;r2_node_2</title>
<path fill="none" stroke="black" d="M130.15,-432.76C122.71,-424.61 114.39,-414.53 107.42,-405.31"/>
<polygon fill="black" stroke="black" points="110.34,-403.37 101.63,-397.35 104.68,-407.49 110.34,-403.37"/>
</g>
<!-- r2_node_22 -->
<g id="node5" class="node">
<title>r2_node_22</title>
<ellipse fill="none" stroke="black" cx="605.93" cy="-162" rx="54.93" ry="18"/>
<text text-anchor="middle" x="605.93" y="-156.95" font-family="Times,serif" font-size="14.00">r2_node_22</text>
</g>
<!-- r2_node_14&#45;&gt;r2_node_22 -->
<g id="edge4" class="edge">
<title>r2_node_14&#45;&gt;r2_node_22</title>
<path fill="none" stroke="black" d="M191.48,-438.15C220.06,-429.6 257.71,-415.77 286.93,-396 377.32,-334.85 362.6,-275.73 453.93,-216 483.1,-196.93 519.91,-183.86 550,-175.47"/>
<polygon fill="black" stroke="black" points="550.54,-178.95 559.3,-172.99 548.73,-172.19 550.54,-178.95"/>
</g>
<!-- r2_node_5&#45;&gt;r2_node_14 -->
<g id="edge24" class="edge">
<title>r2_node_5&#45;&gt;r2_node_14</title>
<path fill="none" stroke="black" d="M397.16,-389.68C347.48,-402.34 261.27,-423.39 204.6,-436.71"/>
<polygon fill="black" stroke="black" points="204.1,-433.23 195.16,-438.92 205.69,-440.05 204.1,-433.23"/>
</g>
<!-- r2_node_29 -->
<g id="node8" class="node">
<title>r2_node_29</title>
<ellipse fill="none" stroke="black" cx="467.93" cy="-90" rx="54.93" ry="18"/>
<text text-anchor="middle" x="467.93" y="-84.95" font-family="Times,serif" font-size="14.00">r2_node_29</text>
</g>
<!-- r2_node_5&#45;&gt;r2_node_29 -->
<g id="edge23" class="edge">
<title>r2_node_5&#45;&gt;r2_node_29</title>
<path fill="none" stroke="black" d="M435.52,-359.68C435.74,-326.5 441.27,-253.93 482.93,-216 545.52,-159.03 616.04,-245.26 669.93,-180 712.06,-128.99 605.51,-106.3 531.64,-96.94"/>
<polygon fill="black" stroke="black" points="532.4,-93.5 522.05,-95.78 531.56,-100.45 532.4,-93.5"/>
</g>
<!-- r2_node_3 -->
<g id="node22" class="node">
<title>r2_node_3</title>
<ellipse fill="none" stroke="black" cx="527.93" cy="-306" rx="50.33" ry="18"/>
<text text-anchor="middle" x="527.93" y="-300.95" font-family="Times,serif" font-size="14.00">r2_node_3</text>
</g>
<!-- r2_node_5&#45;&gt;r2_node_3 -->
<g id="edge22" class="edge">
<title>r2_node_5&#45;&gt;r2_node_3</title>
<path fill="none" stroke="black" d="M451.47,-360.76C463.02,-351.16 479.01,-338.87 493.44,-328.47"/>
<polygon fill="black" stroke="black" points="495.26,-331.47 501.4,-322.83 491.22,-325.75 495.26,-331.47"/>
</g>
<!-- r2_node_6 -->
<g id="node23" class="node">
<title>r2_node_6</title>
<ellipse fill="none" stroke="black" cx="654.93" cy="-306" rx="50.33" ry="18"/>
<text text-anchor="middle" x="654.93" y="-300.95" font-family="Times,serif" font-size="14.00">r2_node_6</text>
</g>
<!-- r2_node_5&#45;&gt;r2_node_6 -->
<g id="edge25" class="edge">
<title>r2_node_5&#45;&gt;r2_node_6</title>
<path fill="none" stroke="black" d="M469.77,-364.49C506.03,-352.31 563.74,-333.84 605.16,-321.14"/>
<polygon fill="black" stroke="black" points="606.12,-324.51 614.66,-318.24 604.07,-317.81 606.12,-324.51"/>
</g>
<!-- r2_node_1&#45;&gt;r2_node_14 -->
<g id="edge5" class="edge">
<title>r2_node_1&#45;&gt;r2_node_14</title>
<path fill="none" stroke="black" d="M214.92,-395.71C205.61,-404.85 192.87,-416.29 181.01,-426.22"/>
<polygon fill="black" stroke="black" points="178.87,-423.45 173.36,-432.5 183.31,-428.87 178.87,-423.45"/>
</g>
<!-- r2_node_9 -->
<g id="node7" class="node">
<title>r2_node_9</title>
<ellipse fill="none" stroke="black" cx="220.93" cy="-306" rx="50.33" ry="18"/>
<text text-anchor="middle" x="220.93" y="-300.95" font-family="Times,serif" font-size="14.00">r2_node_9</text>
</g>
<!-- r2_node_1&#45;&gt;r2_node_9 -->
<g id="edge6" class="edge">
<title>r2_node_1&#45;&gt;r2_node_9</title>
<path fill="none" stroke="black" d="M220.36,-360.05C218.84,-352.68 217.7,-343.84 217.14,-335.51"/>
<polygon fill="black" stroke="black" points="220.65,-335.66 216.8,-325.79 213.65,-335.9 220.65,-335.66"/>
</g>
<!-- r2_node_1&#45;&gt;r2_node_29 -->
<g id="edge7" class="edge">
<title>r2_node_1&#45;&gt;r2_node_29</title>
<path fill="none" stroke="black" d="M245.02,-360.72C283.35,-324.43 375.69,-238.3 411.93,-216 448.27,-193.64 477.08,-215.38 500.93,-180 514.04,-160.57 502.4,-135.26 489.46,-116.6"/>
<polygon fill="black" stroke="black" points="492.38,-114.67 483.61,-108.73 486.77,-118.84 492.38,-114.67"/>
</g>
<!-- r2_node_30 -->
<g id="node9" class="node">
<title>r2_node_30</title>
<ellipse fill="none" stroke="black" cx="119.93" cy="-162" rx="54.93" ry="18"/>
<text text-anchor="middle" x="119.93" y="-156.95" font-family="Times,serif" font-size="14.00">r2_node_30</text>
</g>
<!-- r2_node_1&#45;&gt;r2_node_30 -->
<g id="edge8" class="edge">
<title>r2_node_1&#45;&gt;r2_node_30</title>
<path fill="none" stroke="black" d="M202.28,-362.12C188.4,-352.83 172.08,-339.67 161.93,-324 135.36,-282.97 125.57,-225.84 121.98,-191.82"/>
<polygon fill="black" stroke="black" points="125.47,-191.54 121.06,-181.91 118.5,-192.19 125.47,-191.54"/>
</g>
<!-- r2_node_2&#45;&gt;r2_node_14 -->
<g id="edge32" class="edge">
<title>r2_node_2&#45;&gt;r2_node_14</title>
<path fill="none" stroke="black" d="M111.64,-395.14C119.05,-403.26 127.35,-413.31 134.32,-422.52"/>
<polygon fill="black" stroke="black" points="131.4,-424.45 140.12,-430.47 137.05,-420.33 131.4,-424.45"/>
</g>
<!-- r2_node_2&#45;&gt;r2_node_30 -->
<g id="edge33" class="edge">
<title>r2_node_2&#45;&gt;r2_node_30</title>
<path fill="none" stroke="black" d="M95.1,-359.85C99.73,-323.14 110.64,-236.66 116.33,-191.53"/>
<polygon fill="black" stroke="black" points="119.79,-192.09 117.57,-181.73 112.85,-191.22 119.79,-192.09"/>
</g>
<!-- r2_node_18 -->
<g id="node6" class="node">
<title>r2_node_18</title>
<ellipse fill="none" stroke="black" cx="712.93" cy="-234" rx="54.93" ry="18"/>
<text text-anchor="middle" x="712.93" y="-228.95" font-family="Times,serif" font-size="14.00">r2_node_18</text>
</g>
<!-- r2_node_9&#45;&gt;r2_node_1 -->
<g id="edge31" class="edge">
<title>r2_node_9&#45;&gt;r2_node_1</title>
<path fill="none" stroke="black" d="M228.54,-324.1C230.03,-331.37 231.15,-340.04 231.71,-348.24"/>
<polygon fill="black" stroke="black" points="228.21,-348.31 232.07,-358.18 235.21,-348.07 228.21,-348.31"/>
</g>
<!-- r2_node_10 -->
<g id="node19" class="node">
<title>r2_node_10</title>
<ellipse fill="none" stroke="black" cx="259.93" cy="-234" rx="54.93" ry="18"/>
<text text-anchor="middle" x="259.93" y="-228.95" font-family="Times,serif" font-size="14.00">r2_node_10</text>
</g>
<!-- r2_node_9&#45;&gt;r2_node_10 -->
<g id="edge30" class="edge">
<title>r2_node_9&#45;&gt;r2_node_10</title>
<path fill="none" stroke="black" d="M224.66,-287.7C228.29,-279.7 233.47,-270.02 238.81,-261.15"/>
<polygon fill="black" stroke="black" points="241.64,-263.23 244.02,-252.9 235.72,-259.49 241.64,-263.23"/>
</g>
<!-- r2_node_8 -->
<g id="node10" class="node">
<title>r2_node_8</title>
<ellipse fill="none" stroke="black" cx="533.93" cy="-450" rx="50.33" ry="18"/>
<text text-anchor="middle" x="533.93" y="-444.95" font-family="Times,serif" font-size="14.00">r2_node_8</text>
</g>
<!-- r2_node_26 -->
<g id="node11" class="node">
<title>r2_node_26</title>
<ellipse fill="none" stroke="black" cx="786.93" cy="-378" rx="54.93" ry="18"/>
<text text-anchor="middle" x="786.93" y="-372.95" font-family="Times,serif" font-size="14.00">r2_node_26</text>
</g>
<!-- r2_node_8&#45;&gt;r2_node_26 -->
<g id="edge9" class="edge">
<title>r2_node_8&#45;&gt;r2_node_26</title>
<path fill="none" stroke="black" d="M572.91,-438.22C616.38,-426.19 686.88,-406.68 735,-393.37"/>
<polygon fill="black" stroke="black" points="735.65,-396.82 744.35,-390.78 733.78,-390.07 735.65,-396.82"/>
</g>
<!-- r2_node_17 -->
<g id="node12" class="node">
<title>r2_node_17</title>
<ellipse fill="none" stroke="black" cx="821.93" cy="-306" rx="54.93" ry="18"/>
<text text-anchor="middle" x="821.93" y="-300.95" font-family="Times,serif" font-size="14.00">r2_node_17</text>
</g>
<!-- r2_node_8&#45;&gt;r2_node_17 -->
<g id="edge10" class="edge">
<title>r2_node_8&#45;&gt;r2_node_17</title>
<path fill="none" stroke="black" d="M566.68,-435.86C591.67,-425.59 626.83,-410.66 656.93,-396 686.98,-381.37 693.54,-375.89 722.93,-360 743.1,-349.1 765.63,-337.03 784.09,-327.17"/>
<polygon fill="black" stroke="black" points="785.66,-330.3 792.83,-322.5 782.36,-324.13 785.66,-330.3"/>
</g>
<!-- r2_node_21 -->
<g id="node13" class="node">
<title>r2_node_21</title>
<ellipse fill="none" stroke="black" cx="667.93" cy="-90" rx="54.93" ry="18"/>
<text text-anchor="middle" x="667.93" y="-84.95" font-family="Times,serif" font-size="14.00">r2_node_21</text>
</g>
<!-- r2_node_8&#45;&gt;r2_node_21 -->
<g id="edge11" class="edge">
<title>r2_node_8&#45;&gt;r2_node_21</title>
<path fill="none" stroke="black" d="M581.39,-443.49C664.51,-433.49 829.65,-411.91 850.93,-396 879.43,-374.69 877.95,-358.67 885.93,-324 889.52,-308.41 891.13,-303.13 885.93,-288 879.36,-268.83 870.14,-268.18 857.93,-252 822.12,-204.52 824.71,-181.96 778.93,-144 760.39,-128.62 736.63,-116.5 715.85,-107.76"/>
<polygon fill="black" stroke="black" points="717.29,-104.56 706.71,-104.06 714.66,-111.05 717.29,-104.56"/>
</g>
<!-- r2_node_7 -->
<g id="node14" class="node">
<title>r2_node_7</title>
<ellipse fill="none" stroke="black" cx="299.93" cy="-450" rx="50.33" ry="18"/>
<text text-anchor="middle" x="299.93" y="-444.95" font-family="Times,serif" font-size="14.00">r2_node_7</text>
</g>
<!-- r2_node_7&#45;&gt;r2_node_21 -->
<g id="edge13" class="edge">
<title>r2_node_7&#45;&gt;r2_node_21</title>
<path fill="none" stroke="black" d="M348.58,-444.96C426.99,-437.81 577.24,-421.24 623.93,-396 643.03,-385.68 640.28,-373.92 656.93,-360 679.93,-340.79 691.17,-343.48 713.93,-324 756.16,-287.88 795.42,-268.41 776.93,-216 761.96,-173.55 724.63,-136.33 697.83,-113.79"/>
<polygon fill="black" stroke="black" points="700.32,-111.3 690.36,-107.67 695.88,-116.72 700.32,-111.3"/>
</g>
<!-- r2_node_19 -->
<g id="node15" class="node">
<title>r2_node_19</title>
<ellipse fill="none" stroke="black" cx="436.93" cy="-162" rx="54.93" ry="18"/>
<text text-anchor="middle" x="436.93" y="-156.95" font-family="Times,serif" font-size="14.00">r2_node_19</text>
</g>
<!-- r2_node_7&#45;&gt;r2_node_19 -->
<g id="edge12" class="edge">
<title>r2_node_7&#45;&gt;r2_node_19</title>
<path fill="none" stroke="black" d="M308.09,-431.97C330.99,-384.18 395.96,-248.54 423.9,-190.22"/>
<polygon fill="black" stroke="black" points="427,-191.84 428.16,-181.31 420.69,-188.82 427,-191.84"/>
</g>
<!-- r2_node_23 -->
<g id="node16" class="node">
<title>r2_node_23</title>
<ellipse fill="none" stroke="black" cx="559.93" cy="-378" rx="54.93" ry="18"/>
<text text-anchor="middle" x="559.93" y="-372.95" font-family="Times,serif" font-size="14.00">r2_node_23</text>
</g>
<!-- r2_node_7&#45;&gt;r2_node_23 -->
<g id="edge14" class="edge">
<title>r2_node_7&#45;&gt;r2_node_23</title>
<path fill="none" stroke="black" d="M339.42,-438.37C384.33,-426.28 457.83,-406.49 507.51,-393.11"/>
<polygon fill="black" stroke="black" points="508.14,-396.57 516.89,-390.59 506.32,-389.81 508.14,-396.57"/>
</g>
<!-- r2_node_15 -->
<g id="node17" class="node">
<title>r2_node_15</title>
<ellipse fill="none" stroke="black" cx="97.93" cy="-18" rx="54.93" ry="18"/>
<text text-anchor="middle" x="97.93" y="-12.95" font-family="Times,serif" font-size="14.00">r2_node_15</text>
</g>
<!-- r2_node_24 -->
<g id="node18" class="node">
<title>r2_node_24</title>
<ellipse fill="none" stroke="black" cx="546.93" cy="-234" rx="54.93" ry="18"/>
<text text-anchor="middle" x="546.93" y="-228.95" font-family="Times,serif" font-size="14.00">r2_node_24</text>
</g>
<!-- r2_node_10&#45;&gt;r2_node_9 -->
<g id="edge18" class="edge">
<title>r2_node_10&#45;&gt;r2_node_9</title>
<path fill="none" stroke="black" d="M256.14,-252.45C252.51,-260.44 247.34,-270.08 242.02,-278.92"/>
<polygon fill="black" stroke="black" points="239.21,-276.81 236.83,-287.13 245.13,-280.55 239.21,-276.81"/>
</g>
<!-- r2_node_10&#45;&gt;r2_node_19 -->
<g id="edge17" class="edge">
<title>r2_node_10&#45;&gt;r2_node_19</title>
<path fill="none" stroke="black" d="M294.06,-219.5C322.1,-208.42 362.02,-192.63 392.54,-180.56"/>
<polygon fill="black" stroke="black" points="393.49,-183.94 401.5,-177.01 390.92,-177.43 393.49,-183.94"/>
</g>
<!-- r2_node_11 -->
<g id="node20" class="node">
<title>r2_node_11</title>
<ellipse fill="none" stroke="black" cx="305.93" cy="-162" rx="54.93" ry="18"/>
<text text-anchor="middle" x="305.93" y="-156.95" font-family="Times,serif" font-size="14.00">r2_node_11</text>
</g>
<!-- r2_node_10&#45;&gt;r2_node_11 -->
<g id="edge15" class="edge">
<title>r2_node_10&#45;&gt;r2_node_11</title>
<path fill="none" stroke="black" d="M265.39,-215.7C269.87,-207.61 276.1,-197.81 282.39,-188.87"/>
<polygon fill="black" stroke="black" points="285.19,-190.98 288.27,-180.84 279.54,-186.84 285.19,-190.98"/>
</g>
<!-- r2_node_16 -->
<g id="node21" class="node">
<title>r2_node_16</title>
<ellipse fill="none" stroke="black" cx="54.93" cy="-90" rx="54.93" ry="18"/>
<text text-anchor="middle" x="54.93" y="-84.95" font-family="Times,serif" font-size="14.00">r2_node_16</text>
</g>
<!-- r2_node_10&#45;&gt;r2_node_16 -->
<g id="edge16" class="edge">
<title>r2_node_10&#45;&gt;r2_node_16</title>
<path fill="none" stroke="black" d="M249.2,-216.13C235.96,-196.48 211.74,-164.14 183.93,-144 160.79,-127.23 131.56,-114.66 106.79,-105.98"/>
<polygon fill="black" stroke="black" points="108.14,-102.74 97.55,-102.86 105.9,-109.38 108.14,-102.74"/>
</g>
<!-- r2_node_11&#45;&gt;r2_node_10 -->
<g id="edge26" class="edge">
<title>r2_node_11&#45;&gt;r2_node_10</title>
<path fill="none" stroke="black" d="M300.67,-179.96C296.14,-188.17 289.76,-198.22 283.32,-207.34"/>
<polygon fill="black" stroke="black" points="280.66,-205.06 277.57,-215.19 286.31,-209.2 280.66,-205.06"/>
</g>
<!-- r2_node_11&#45;&gt;r2_node_16 -->
<g id="edge28" class="edge">
<title>r2_node_11&#45;&gt;r2_node_16</title>
<path fill="none" stroke="black" d="M265.05,-149.6C221.84,-137.55 153.58,-118.51 106.65,-105.42"/>
<polygon fill="black" stroke="black" points="107.83,-102.12 97.26,-102.8 105.95,-108.86 107.83,-102.12"/>
</g>
<!-- r2_node_4 -->
<g id="node24" class="node">
<title>r2_node_4</title>
<ellipse fill="none" stroke="black" cx="177.93" cy="-90" rx="50.33" ry="18"/>
<text text-anchor="middle" x="177.93" y="-84.95" font-family="Times,serif" font-size="14.00">r2_node_4</text>
</g>
<!-- r2_node_11&#45;&gt;r2_node_4 -->
<g id="edge27" class="edge">
<title>r2_node_11&#45;&gt;r2_node_4</title>
<path fill="none" stroke="black" d="M274.48,-146.83C254.87,-136.83 229.83,-123.26 210.1,-112"/>
<polygon fill="black" stroke="black" points="212.04,-109.09 201.63,-107.12 208.54,-115.15 212.04,-109.09"/>
</g>
<!-- r2_node_28 -->
<g id="node25" class="node">
<title>r2_node_28</title>
<ellipse fill="none" stroke="black" cx="430.93" cy="-18" rx="54.93" ry="18"/>
<text text-anchor="middle" x="430.93" y="-12.95" font-family="Times,serif" font-size="14.00">r2_node_28</text>
</g>
<!-- r2_node_11&#45;&gt;r2_node_28 -->
<g id="edge29" class="edge">
<title>r2_node_11&#45;&gt;r2_node_28</title>
<path fill="none" stroke="black" d="M320.52,-144.43C342.35,-119.64 383.66,-72.7 409.1,-43.81"/>
<polygon fill="black" stroke="black" points="411.46,-46.42 415.44,-36.6 406.21,-41.79 411.46,-46.42"/>
</g>
<!-- r2_node_3&#45;&gt;r2_node_5 -->
<g id="edge20" class="edge">
<title>r2_node_3&#45;&gt;r2_node_5</title>
<path fill="none" stroke="black" d="M512.03,-323.54C500.45,-333.15 484.55,-345.36 470.21,-355.69"/>
<polygon fill="black" stroke="black" points="468.45,-352.64 462.32,-361.28 472.5,-358.36 468.45,-352.64"/>
</g>
<!-- r2_node_3&#45;&gt;r2_node_21 -->
<g id="edge21" class="edge">
<title>r2_node_3&#45;&gt;r2_node_21</title>
<path fill="none" stroke="black" d="M553.84,-290.2C570.66,-280.17 592.75,-266.21 610.93,-252 629.27,-237.68 630.75,-230.5 648.93,-216 671.49,-198.02 689.32,-205.43 702.93,-180 713.94,-159.43 702.32,-134.63 689.6,-116.44"/>
<polygon fill="black" stroke="black" points="692.67,-114.7 683.87,-108.8 687.07,-118.9 692.67,-114.7"/>
</g>
<!-- r2_node_3&#45;&gt;r2_node_24 -->
<g id="edge19" class="edge">
<title>r2_node_3&#45;&gt;r2_node_24</title>
<path fill="none" stroke="black" d="M532.63,-287.7C534.66,-280.24 537.08,-271.32 539.34,-262.97"/>
<polygon fill="black" stroke="black" points="542.65,-264.13 541.89,-253.57 535.9,-262.3 542.65,-264.13"/>
</g>
<!-- r2_node_6&#45;&gt;r2_node_5 -->
<g id="edge38" class="edge">
<title>r2_node_6&#45;&gt;r2_node_5</title>
<path fill="none" stroke="black" d="M620.92,-319.57C584.63,-331.76 527,-350.2 485.64,-362.88"/>
<polygon fill="black" stroke="black" points="484.7,-359.51 476.16,-365.77 486.74,-366.21 484.7,-359.51"/>
</g>
<!-- r2_node_6&#45;&gt;r2_node_18 -->
<g id="edge39" class="edge">
<title>r2_node_6&#45;&gt;r2_node_18</title>
<path fill="none" stroke="black" d="M668.68,-288.41C675.69,-279.95 684.35,-269.49 692.15,-260.08"/>
<polygon fill="black" stroke="black" points="694.64,-262.57 698.32,-252.64 689.25,-258.1 694.64,-262.57"/>
</g>
<!-- r2_node_4&#45;&gt;r2_node_15 -->
<g id="edge36" class="edge">
<title>r2_node_4&#45;&gt;r2_node_15</title>
<path fill="none" stroke="black" d="M159.78,-73.12C149.49,-64.12 136.43,-52.68 124.96,-42.65"/>
<polygon fill="black" stroke="black" points="127.54,-40.25 117.71,-36.3 122.93,-45.52 127.54,-40.25"/>
</g>
<!-- r2_node_4&#45;&gt;r2_node_11 -->
<g id="edge35" class="edge">
<title>r2_node_4&#45;&gt;r2_node_11</title>
<path fill="none" stroke="black" d="M208.14,-104.53C227.68,-114.46 252.98,-128.15 273.01,-139.56"/>
<polygon fill="black" stroke="black" points="271.23,-142.57 281.64,-144.53 274.72,-136.51 271.23,-142.57"/>
</g>
<!-- r2_node_4&#45;&gt;r2_node_28 -->
<g id="edge34" class="edge">
<title>r2_node_4&#45;&gt;r2_node_28</title>
<path fill="none" stroke="black" d="M216.91,-78.22C260.38,-66.19 330.88,-46.68 379,-33.37"/>
<polygon fill="black" stroke="black" points="379.65,-36.82 388.35,-30.78 377.78,-30.07 379.65,-36.82"/>
</g>
<!-- r2_node_25 -->
<g id="node27" class="node">
<title>r2_node_25</title>
<ellipse fill="none" stroke="black" cx="225.93" cy="-18" rx="54.93" ry="18"/>
<text text-anchor="middle" x="225.93" y="-12.95" font-family="Times,serif" font-size="14.00">r2_node_25</text>
</g>
<!-- r2_node_4&#45;&gt;r2_node_25 -->
<g id="edge37" class="edge">
<title>r2_node_4&#45;&gt;r2_node_25</title>
<path fill="none" stroke="black" d="M189.55,-72.05C195.1,-63.97 201.85,-54.12 208.03,-45.11"/>
<polygon fill="black" stroke="black" points="210.8,-47.26 213.57,-37.04 205.02,-43.31 210.8,-47.26"/>
</g>
<!-- r2_node_27 -->
<g id="node26" class="node">
<title>r2_node_27</title>
<ellipse fill="none" stroke="black" cx="1066.93" cy="-378" rx="54.93" ry="18"/>
<text text-anchor="middle" x="1066.93" y="-372.95" font-family="Times,serif" font-size="14.00">r2_node_27</text>
</g>
<!-- r2_node_20 -->
<g id="node28" class="node">
<title>r2_node_20</title>
<ellipse fill="none" stroke="black" cx="596.93" cy="-18" rx="54.93" ry="18"/>
<text text-anchor="middle" x="596.93" y="-12.95" font-family="Times,serif" font-size="14.00">r2_node_20</text>
</g>
<!-- r2_node_13 -->
<g id="node29" class="node">
<title>r2_node_13</title>
<ellipse fill="none" stroke="black" cx="937.93" cy="-450" rx="54.93" ry="18"/>
<text text-anchor="middle" x="937.93" y="-444.95" font-family="Times,serif" font-size="14.00">r2_node_13</text>
</g>
<!-- r2_node_13&#45;&gt;r2_node_27 -->
<g id="edge40" class="edge">
<title>r2_node_13&#45;&gt;r2_node_27</title>
<path fill="none" stroke="black" d="M965.61,-433.98C984.23,-423.88 1009,-410.43 1029.4,-399.37"/>
<polygon fill="black" stroke="black" points="1030.86,-402.56 1037.98,-394.71 1027.52,-396.41 1030.86,-402.56"/>
</g>
<!-- r2_node_12 -->
<g id="node30" class="node">
<title>r2_node_12</title>
<ellipse fill="none" stroke="black" cx="735.93" cy="-450" rx="54.93" ry="18"/>
<text text-anchor="middle" x="735.93" y="-444.95" font-family="Times,serif" font-size="14.00">r2_node_12</text>
</g>
<!-- r2_node_12&#45;&gt;r2_node_17 -->
<g id="edge41" class="edge">
<title>r2_node_12&#45;&gt;r2_node_17</title>
<path fill="none" stroke="black" d="M782.64,-440.1C807.46,-432.74 835.88,-419.51 850.93,-396 863.26,-376.74 853.28,-351.77 841.78,-333.18"/>
<polygon fill="black" stroke="black" points="844.86,-331.48 836.4,-325.1 839.03,-335.36 844.86,-331.48"/>
</g>
<!-- r2_node_12&#45;&gt;r2_node_28 -->
<g id="edge42" class="edge">
<title>r2_node_12&#45;&gt;r2_node_28</title>
<path fill="none" stroke="black" d="M785.26,-441.65C815.69,-434.7 853.45,-421.37 877.93,-396 901.36,-371.73 896.53,-357.3 901.93,-324 916.33,-235.32 868.27,-212.33 809.93,-144 779.3,-108.12 774.21,-92.94 731.93,-72 726.52,-69.32 576.15,-43.57 490.04,-28.98"/>
<polygon fill="black" stroke="black" points="490.79,-25.55 480.35,-27.34 489.62,-32.46 490.79,-25.55"/>
</g>
<!-- r2_node_12&#45;&gt;r2_node_20 -->
<g id="edge43" class="edge">
<title>r2_node_12&#45;&gt;r2_node_20</title>
<path fill="none" stroke="black" d="M788.18,-444.03C847.54,-437.19 938.92,-422.56 959.93,-396 965.82,-388.55 969.16,-321.13 958.93,-288 924.98,-177.99 910.19,-138.12 815.93,-72 770.91,-40.42 709.29,-27.54 662.88,-22.35"/>
<polygon fill="black" stroke="black" points="663.24,-18.86 652.94,-21.34 662.53,-25.83 663.24,-18.86"/>
</g>
</g>
</svg>
