<?xml version="1.0" encoding="UTF-8" standalone="no"?>
<!DOCTYPE svg PUBLIC "-//W3C//DTD SVG 1.1//EN"
 "http://www.w3.org/Graphics/SVG/1.1/DTD/svg11.dtd">
<!-- Generated by graphviz version 12.2.1 (20241206.2353)
 -->
<!-- Pages: 1 -->
<svg width="1219pt" height="476pt"
 viewBox="0.00 0.00 1219.45 476.00" xmlns="http://www.w3.org/2000/svg" xmlns:xlink="http://www.w3.org/1999/xlink">
<g id="graph0" class="graph" transform="scale(1 1) rotate(0) translate(4 472)">
<polygon fill="white" stroke="none" points="-4,4 -4,-472 1215.45,-472 1215.45,4 -4,4"/>
<!-- r2_node_13 -->
<g id="node1" class="node">
<title>r2_node_13</title>
<ellipse fill="none" stroke="black" cx="61.93" cy="-450" rx="54.93" ry="18"/>
<text text-anchor="middle" x="61.93" y="-444.95" font-family="Times,serif" font-size="14.00">r2_node_13</text>
</g>
<!-- r2_node_27 -->
<g id="node2" class="node">
<title>r2_node_27</title>
<ellipse fill="none" stroke="black" cx="54.93" cy="-378" rx="54.93" ry="18"/>
<text text-anchor="middle" x="54.93" y="-372.95" font-family="Times,serif" font-size="14.00">r2_node_27</text>
</g>
<!-- r2_node_13&#45;&gt;r2_node_27 -->
<g id="edge1" class="edge">
<title>r2_node_13&#45;&gt;r2_node_27</title>
<path fill="none" stroke="black" d="M60.2,-431.7C59.47,-424.41 58.61,-415.73 57.79,-407.54"/>
<polygon fill="black" stroke="black" points="61.27,-407.21 56.8,-397.61 54.31,-407.91 61.27,-407.21"/>
</g>
<!-- r2_node_16 -->
<g id="node3" class="node">
<title>r2_node_16</title>
<ellipse fill="none" stroke="black" cx="746.93" cy="-162" rx="54.93" ry="18"/>
<text text-anchor="middle" x="746.93" y="-156.95" font-family="Times,serif" font-size="14.00">r2_node_16</text>
</g>
<!-- r2_node_10 -->
<g id="node4" class="node">
<title>r2_node_10</title>
<ellipse fill="none" stroke="black" cx="207.93" cy="-450" rx="54.93" ry="18"/>
<text text-anchor="middle" x="207.93" y="-444.95" font-family="Times,serif" font-size="14.00">r2_node_10</text>
</g>
<!-- r2_node_10&#45;&gt;r2_node_16 -->
<g id="edge3" class="edge">
<title>r2_node_10&#45;&gt;r2_node_16</title>
<path fill="none" stroke="black" d="M225.99,-432.9C284.5,-380.75 465.56,-219.61 472.93,-216 549.75,-178.44 578.01,-196.39 661.93,-180 670.96,-178.24 680.53,-176.35 689.86,-174.49"/>
<polygon fill="black" stroke="black" points="690.47,-177.94 699.59,-172.55 689.1,-171.07 690.47,-177.94"/>
</g>
<!-- r2_node_11 -->
<g id="node5" class="node">
<title>r2_node_11</title>
<ellipse fill="none" stroke="black" cx="527.93" cy="-378" rx="54.93" ry="18"/>
<text text-anchor="middle" x="527.93" y="-372.95" font-family="Times,serif" font-size="14.00">r2_node_11</text>
</g>
<!-- r2_node_10&#45;&gt;r2_node_11 -->
<g id="edge2" class="edge">
<title>r2_node_10&#45;&gt;r2_node_11</title>
<path fill="none" stroke="black" d="M251.19,-438.44C308.03,-425.51 407.79,-403.68 470.78,-390.38"/>
<polygon fill="black" stroke="black" points="471.17,-393.87 480.23,-388.39 469.73,-387.02 471.17,-393.87"/>
</g>
<!-- r2_node_19 -->
<g id="node6" class="node">
<title>r2_node_19</title>
<ellipse fill="none" stroke="black" cx="788.93" cy="-234" rx="54.93" ry="18"/>
<text text-anchor="middle" x="788.93" y="-228.95" font-family="Times,serif" font-size="14.00">r2_node_19</text>
</g>
<!-- r2_node_10&#45;&gt;r2_node_19 -->
<g id="edge4" class="edge">
<title>r2_node_10&#45;&gt;r2_node_19</title>
<path fill="none" stroke="black" d="M257.01,-441.51C277.12,-438.49 300.63,-435.01 321.93,-432 381.87,-423.54 552.06,-441.54 591.93,-396 602.47,-383.96 597.38,-375.04 591.93,-360 584.84,-340.42 569.02,-343.58 561.93,-324 556.49,-308.96 551.99,-300.53 561.93,-288 572.43,-274.77 665.81,-256.25 729.48,-244.97"/>
<polygon fill="black" stroke="black" points="729.87,-248.45 739.11,-243.28 728.66,-241.56 729.87,-248.45"/>
</g>
<!-- r2_node_9 -->
<g id="node7" class="node">
<title>r2_node_9</title>
<ellipse fill="none" stroke="black" cx="192.93" cy="-378" rx="50.33" ry="18"/>
<text text-anchor="middle" x="192.93" y="-372.95" font-family="Times,serif" font-size="14.00">r2_node_9</text>
</g>
<!-- r2_node_10&#45;&gt;r2_node_9 -->
<g id="edge5" class="edge">
<title>r2_node_10&#45;&gt;r2_node_9</title>
<path fill="none" stroke="black" d="M198.42,-432.05C196.06,-424.68 193.91,-415.84 192.4,-407.51"/>
<polygon fill="black" stroke="black" points="195.88,-407.15 190.95,-397.77 188.96,-408.18 195.88,-407.15"/>
</g>
<!-- r2_node_11&#45;&gt;r2_node_16 -->
<g id="edge42" class="edge">
<title>r2_node_11&#45;&gt;r2_node_16</title>
<path fill="none" stroke="black" d="M488.49,-365.15C468.69,-356.98 446.51,-343.92 434.93,-324 426.9,-310.17 428,-302.42 434.93,-288 440.48,-276.46 513.42,-221.6 524.93,-216 587.75,-185.43 610.02,-196.36 677.93,-180 682.86,-178.81 687.98,-177.57 693.1,-176.32"/>
<polygon fill="black" stroke="black" points="693.9,-179.73 702.78,-173.95 692.24,-172.93 693.9,-179.73"/>
</g>
<!-- r2_node_11&#45;&gt;r2_node_10 -->
<g id="edge41" class="edge">
<title>r2_node_11&#45;&gt;r2_node_10</title>
<path fill="none" stroke="black" d="M484.71,-389.55C427.87,-402.48 328.1,-424.32 265.09,-437.62"/>
<polygon fill="black" stroke="black" points="264.7,-434.13 255.64,-439.61 266.14,-440.98 264.7,-434.13"/>
</g>
<!-- r2_node_28 -->
<g id="node28" class="node">
<title>r2_node_28</title>
<ellipse fill="none" stroke="black" cx="497.93" cy="-18" rx="54.93" ry="18"/>
<text text-anchor="middle" x="497.93" y="-12.95" font-family="Times,serif" font-size="14.00">r2_node_28</text>
</g>
<!-- r2_node_11&#45;&gt;r2_node_28 -->
<g id="edge43" class="edge">
<title>r2_node_11&#45;&gt;r2_node_28</title>
<path fill="none" stroke="black" d="M525.44,-359.69C521.75,-326.54 519.06,-253.99 558.93,-216 643.26,-135.65 872.17,-243.09 810.93,-144 782.69,-98.3 633.94,-53.85 552.08,-32.37"/>
<polygon fill="black" stroke="black" points="553.02,-29 542.46,-29.87 551.26,-35.77 553.02,-29"/>
</g>
<!-- r2_node_9&#45;&gt;r2_node_10 -->
<g id="edge29" class="edge">
<title>r2_node_9&#45;&gt;r2_node_10</title>
<path fill="none" stroke="black" d="M202.49,-396.1C204.84,-403.45 206.97,-412.24 208.48,-420.53"/>
<polygon fill="black" stroke="black" points="204.98,-420.82 209.92,-430.2 211.91,-419.79 204.98,-420.82"/>
</g>
<!-- r2_node_1 -->
<g id="node24" class="node">
<title>r2_node_1</title>
<ellipse fill="none" stroke="black" cx="189.93" cy="-306" rx="50.33" ry="18"/>
<text text-anchor="middle" x="189.93" y="-300.95" font-family="Times,serif" font-size="14.00">r2_node_1</text>
</g>
<!-- r2_node_9&#45;&gt;r2_node_1 -->
<g id="edge28" class="edge">
<title>r2_node_9&#45;&gt;r2_node_1</title>
<path fill="none" stroke="black" d="M186.28,-359.7C185.21,-352.41 184.6,-343.73 184.51,-335.54"/>
<polygon fill="black" stroke="black" points="188.01,-335.69 184.74,-325.62 181.01,-335.53 188.01,-335.69"/>
</g>
<!-- r2_node_21 -->
<g id="node8" class="node">
<title>r2_node_21</title>
<ellipse fill="none" stroke="black" cx="675.93" cy="-18" rx="54.93" ry="18"/>
<text text-anchor="middle" x="675.93" y="-12.95" font-family="Times,serif" font-size="14.00">r2_node_21</text>
</g>
<!-- r2_node_15 -->
<g id="node9" class="node">
<title>r2_node_15</title>
<ellipse fill="none" stroke="black" cx="824.93" cy="-378" rx="54.93" ry="18"/>
<text text-anchor="middle" x="824.93" y="-372.95" font-family="Times,serif" font-size="14.00">r2_node_15</text>
</g>
<!-- r2_node_26 -->
<g id="node10" class="node">
<title>r2_node_26</title>
<ellipse fill="none" stroke="black" cx="697.93" cy="-306" rx="54.93" ry="18"/>
<text text-anchor="middle" x="697.93" y="-300.95" font-family="Times,serif" font-size="14.00">r2_node_26</text>
</g>
<!-- r2_node_15&#45;&gt;r2_node_26 -->
<g id="edge6" class="edge">
<title>r2_node_15&#45;&gt;r2_node_26</title>
<path fill="none" stroke="black" d="M797.69,-361.98C779.44,-351.93 755.19,-338.56 735.16,-327.52"/>
<polygon fill="black" stroke="black" points="736.91,-324.48 726.46,-322.72 733.53,-330.61 736.91,-324.48"/>
</g>
<!-- r2_node_4 -->
<g id="node11" class="node">
<title>r2_node_4</title>
<ellipse fill="none" stroke="black" cx="380.93" cy="-450" rx="50.33" ry="18"/>
<text text-anchor="middle" x="380.93" y="-444.95" font-family="Times,serif" font-size="14.00">r2_node_4</text>
</g>
<!-- r2_node_15&#45;&gt;r2_node_4 -->
<g id="edge7" class="edge">
<title>r2_node_15&#45;&gt;r2_node_4</title>
<path fill="none" stroke="black" d="M785.63,-390.84C777.5,-392.69 768.99,-394.49 760.93,-396 730.33,-401.74 538.06,-428.53 439.24,-441.68"/>
<polygon fill="black" stroke="black" points="438.92,-438.19 429.46,-442.98 439.84,-445.13 438.92,-438.19"/>
</g>
<!-- r2_node_17 -->
<g id="node12" class="node">
<title>r2_node_17</title>
<ellipse fill="none" stroke="black" cx="825.93" cy="-306" rx="54.93" ry="18"/>
<text text-anchor="middle" x="825.93" y="-300.95" font-family="Times,serif" font-size="14.00">r2_node_17</text>
</g>
<!-- r2_node_15&#45;&gt;r2_node_17 -->
<g id="edge8" class="edge">
<title>r2_node_15&#45;&gt;r2_node_17</title>
<path fill="none" stroke="black" d="M825.18,-359.7C825.29,-352.41 825.41,-343.73 825.53,-335.54"/>
<polygon fill="black" stroke="black" points="829.02,-335.67 825.67,-325.62 822.03,-335.57 829.02,-335.67"/>
</g>
<!-- r2_node_18 -->
<g id="node13" class="node">
<title>r2_node_18</title>
<ellipse fill="none" stroke="black" cx="148.93" cy="-18" rx="54.93" ry="18"/>
<text text-anchor="middle" x="148.93" y="-12.95" font-family="Times,serif" font-size="14.00">r2_node_18</text>
</g>
<!-- r2_node_15&#45;&gt;r2_node_18 -->
<g id="edge9" class="edge">
<title>r2_node_15&#45;&gt;r2_node_18</title>
<path fill="none" stroke="black" d="M775.28,-370.09C724.6,-361.9 651.01,-346.46 633.93,-324 624.25,-311.26 626.45,-302.14 633.93,-288 647.26,-262.84 664.75,-269.85 686.93,-252 705.06,-237.42 705.44,-228.7 724.93,-216 759.65,-193.38 787.98,-214.5 810.93,-180 819.8,-166.68 819.35,-157.61 810.93,-144 773.32,-83.13 735.87,-91.18 666.93,-72 471.93,-17.74 412.45,-70.12 212.93,-36 208.6,-35.26 204.12,-34.36 199.66,-33.36"/>
<polygon fill="black" stroke="black" points="200.64,-30 190.11,-31.08 199.02,-36.81 200.64,-30"/>
</g>
<!-- r2_node_4&#45;&gt;r2_node_15 -->
<g id="edge34" class="edge">
<title>r2_node_4&#45;&gt;r2_node_15</title>
<path fill="none" stroke="black" d="M426.53,-442C516.88,-428.97 712.08,-401.79 742.93,-396 751.12,-394.47 759.77,-392.64 768.28,-390.76"/>
<polygon fill="black" stroke="black" points="768.88,-394.21 777.87,-388.61 767.35,-387.38 768.88,-394.21"/>
</g>
<!-- r2_node_4&#45;&gt;r2_node_28 -->
<g id="edge36" class="edge">
<title>r2_node_4&#45;&gt;r2_node_28</title>
<path fill="none" stroke="black" d="M428.69,-443.84C487.87,-436.46 583.98,-420.98 608.93,-396 643.76,-361.15 597.99,-321.7 633.93,-288 705.9,-220.54 789.09,-327.19 852.93,-252 914.38,-179.63 823.8,-112.5 737.93,-72 706.48,-57.17 617.79,-39.74 557.49,-29.03"/>
<polygon fill="black" stroke="black" points="558.16,-25.59 547.7,-27.31 556.95,-32.49 558.16,-25.59"/>
</g>
<!-- r2_node_25 -->
<g id="node30" class="node">
<title>r2_node_25</title>
<ellipse fill="none" stroke="black" cx="622.93" cy="-234" rx="54.93" ry="18"/>
<text text-anchor="middle" x="622.93" y="-228.95" font-family="Times,serif" font-size="14.00">r2_node_25</text>
</g>
<!-- r2_node_4&#45;&gt;r2_node_25 -->
<g id="edge35" class="edge">
<title>r2_node_4&#45;&gt;r2_node_25</title>
<path fill="none" stroke="black" d="M428.7,-443.77C484.6,-436.56 572.07,-421.46 591.93,-396 601.77,-383.38 597.38,-375.04 591.93,-360 584.84,-340.42 569.02,-343.58 561.93,-324 556.49,-308.96 555.3,-302.56 561.93,-288 567.52,-275.76 577.48,-265.25 587.75,-256.89"/>
<polygon fill="black" stroke="black" points="589.66,-259.84 595.55,-251.03 585.46,-254.24 589.66,-259.84"/>
</g>
<!-- r2_node_29 -->
<g id="node14" class="node">
<title>r2_node_29</title>
<ellipse fill="none" stroke="black" cx="602.93" cy="-90" rx="54.93" ry="18"/>
<text text-anchor="middle" x="602.93" y="-84.95" font-family="Times,serif" font-size="14.00">r2_node_29</text>
</g>
<!-- r2_node_6 -->
<g id="node15" class="node">
<title>r2_node_6</title>
<ellipse fill="none" stroke="black" cx="351.93" cy="-90" rx="50.33" ry="18"/>
<text text-anchor="middle" x="351.93" y="-84.95" font-family="Times,serif" font-size="14.00">r2_node_6</text>
</g>
<!-- r2_node_6&#45;&gt;r2_node_18 -->
<g id="edge10" class="edge">
<title>r2_node_6&#45;&gt;r2_node_18</title>
<path fill="none" stroke="black" d="M316.57,-76.81C283.28,-65.33 233.18,-48.05 196.41,-35.37"/>
<polygon fill="black" stroke="black" points="197.97,-32.21 187.38,-32.26 195.69,-38.82 197.97,-32.21"/>
</g>
<!-- r2_node_5 -->
<g id="node16" class="node">
<title>r2_node_5</title>
<ellipse fill="none" stroke="black" cx="585.93" cy="-162" rx="50.33" ry="18"/>
<text text-anchor="middle" x="585.93" y="-156.95" font-family="Times,serif" font-size="14.00">r2_node_5</text>
</g>
<!-- r2_node_6&#45;&gt;r2_node_5 -->
<g id="edge11" class="edge">
<title>r2_node_6&#45;&gt;r2_node_5</title>
<path fill="none" stroke="black" d="M391.47,-101.35C432.47,-112.98 496.32,-132 539.63,-145.44"/>
<polygon fill="black" stroke="black" points="538.41,-148.72 549,-148.36 540.49,-142.04 538.41,-148.72"/>
</g>
<!-- r2_node_5&#45;&gt;r2_node_29 -->
<g id="edge19" class="edge">
<title>r2_node_5&#45;&gt;r2_node_29</title>
<path fill="none" stroke="black" d="M590.14,-143.7C591.93,-136.32 594.06,-127.52 596.07,-119.25"/>
<polygon fill="black" stroke="black" points="599.46,-120.12 598.42,-109.58 592.66,-118.47 599.46,-120.12"/>
</g>
<!-- r2_node_5&#45;&gt;r2_node_6 -->
<g id="edge17" class="edge">
<title>r2_node_5&#45;&gt;r2_node_6</title>
<path fill="none" stroke="black" d="M546.19,-150.6C505.09,-138.93 441.2,-119.89 397.95,-106.48"/>
<polygon fill="black" stroke="black" points="399.19,-103.2 388.6,-103.56 397.11,-109.88 399.19,-103.2"/>
</g>
<!-- r2_node_14 -->
<g id="node18" class="node">
<title>r2_node_14</title>
<ellipse fill="none" stroke="black" cx="319.93" cy="-234" rx="54.93" ry="18"/>
<text text-anchor="middle" x="319.93" y="-228.95" font-family="Times,serif" font-size="14.00">r2_node_14</text>
</g>
<!-- r2_node_5&#45;&gt;r2_node_14 -->
<g id="edge20" class="edge">
<title>r2_node_5&#45;&gt;r2_node_14</title>
<path fill="none" stroke="black" d="M548.45,-174.21C503.15,-186.68 426.78,-206.8 374.85,-219.97"/>
<polygon fill="black" stroke="black" points="374.15,-216.54 365.31,-222.38 375.86,-223.32 374.15,-216.54"/>
</g>
<!-- r2_node_3 -->
<g id="node22" class="node">
<title>r2_node_3</title>
<ellipse fill="none" stroke="black" cx="474.93" cy="-90" rx="50.33" ry="18"/>
<text text-anchor="middle" x="474.93" y="-84.95" font-family="Times,serif" font-size="14.00">r2_node_3</text>
</g>
<!-- r2_node_5&#45;&gt;r2_node_3 -->
<g id="edge18" class="edge">
<title>r2_node_5&#45;&gt;r2_node_3</title>
<path fill="none" stroke="black" d="M557.63,-146.67C541.11,-137.04 520.43,-124.15 503.82,-113.21"/>
<polygon fill="black" stroke="black" points="506.09,-110.52 495.83,-107.87 502.2,-116.33 506.09,-110.52"/>
</g>
<!-- r2_node_2 -->
<g id="node17" class="node">
<title>r2_node_2</title>
<ellipse fill="none" stroke="black" cx="289.93" cy="-162" rx="50.33" ry="18"/>
<text text-anchor="middle" x="289.93" y="-156.95" font-family="Times,serif" font-size="14.00">r2_node_2</text>
</g>
<!-- r2_node_2&#45;&gt;r2_node_14 -->
<g id="edge12" class="edge">
<title>r2_node_2&#45;&gt;r2_node_14</title>
<path fill="none" stroke="black" d="M302.9,-179.62C306.97,-187.19 311.16,-196.35 314.54,-204.93"/>
<polygon fill="black" stroke="black" points="311.22,-206.06 317.92,-214.27 317.8,-203.68 311.22,-206.06"/>
</g>
<!-- r2_node_30 -->
<g id="node19" class="node">
<title>r2_node_30</title>
<ellipse fill="none" stroke="black" cx="214.93" cy="-90" rx="54.93" ry="18"/>
<text text-anchor="middle" x="214.93" y="-84.95" font-family="Times,serif" font-size="14.00">r2_node_30</text>
</g>
<!-- r2_node_2&#45;&gt;r2_node_30 -->
<g id="edge13" class="edge">
<title>r2_node_2&#45;&gt;r2_node_30</title>
<path fill="none" stroke="black" d="M272.54,-144.76C263.14,-135.99 251.35,-124.99 240.89,-115.22"/>
<polygon fill="black" stroke="black" points="243.3,-112.69 233.6,-108.42 238.52,-117.8 243.3,-112.69"/>
</g>
<!-- r2_node_14&#45;&gt;r2_node_5 -->
<g id="edge27" class="edge">
<title>r2_node_14&#45;&gt;r2_node_5</title>
<path fill="none" stroke="black" d="M359.55,-221.2C405.84,-208.49 482.38,-188.34 533.53,-175.4"/>
<polygon fill="black" stroke="black" points="534.37,-178.8 543.21,-172.96 532.66,-172.01 534.37,-178.8"/>
</g>
<!-- r2_node_14&#45;&gt;r2_node_2 -->
<g id="edge25" class="edge">
<title>r2_node_14&#45;&gt;r2_node_2</title>
<path fill="none" stroke="black" d="M306.79,-216.05C302.76,-208.52 298.62,-199.44 295.28,-190.94"/>
<polygon fill="black" stroke="black" points="298.63,-189.91 291.94,-181.7 292.05,-192.29 298.63,-189.91"/>
</g>
<!-- r2_node_14&#45;&gt;r2_node_1 -->
<g id="edge24" class="edge">
<title>r2_node_14&#45;&gt;r2_node_1</title>
<path fill="none" stroke="black" d="M296.72,-250.58C278.38,-261.13 252.5,-275.12 230.76,-286.28"/>
<polygon fill="black" stroke="black" points="229.47,-283.01 222.14,-290.65 232.64,-289.25 229.47,-283.01"/>
</g>
<!-- r2_node_22 -->
<g id="node25" class="node">
<title>r2_node_22</title>
<ellipse fill="none" stroke="black" cx="445.93" cy="-162" rx="54.93" ry="18"/>
<text text-anchor="middle" x="445.93" y="-156.95" font-family="Times,serif" font-size="14.00">r2_node_22</text>
</g>
<!-- r2_node_14&#45;&gt;r2_node_22 -->
<g id="edge26" class="edge">
<title>r2_node_14&#45;&gt;r2_node_22</title>
<path fill="none" stroke="black" d="M346.96,-217.98C365.07,-207.93 389.13,-194.56 409,-183.52"/>
<polygon fill="black" stroke="black" points="410.58,-186.64 417.63,-178.73 407.18,-180.52 410.58,-186.64"/>
</g>
<!-- r2_node_7 -->
<g id="node20" class="node">
<title>r2_node_7</title>
<ellipse fill="none" stroke="black" cx="780.93" cy="-450" rx="50.33" ry="18"/>
<text text-anchor="middle" x="780.93" y="-444.95" font-family="Times,serif" font-size="14.00">r2_node_7</text>
</g>
<!-- r2_node_7&#45;&gt;r2_node_19 -->
<g id="edge14" class="edge">
<title>r2_node_7&#45;&gt;r2_node_19</title>
<path fill="none" stroke="black" d="M831.41,-448.01C911.01,-445.27 1060.06,-434.93 1092.93,-396 1111.58,-373.92 1085.49,-297.92 1074.93,-288 1043.7,-258.64 928.1,-244.91 853.77,-238.99"/>
<polygon fill="black" stroke="black" points="854.42,-235.53 844.18,-238.26 853.88,-242.51 854.42,-235.53"/>
</g>
<!-- r2_node_7&#45;&gt;r2_node_21 -->
<g id="edge15" class="edge">
<title>r2_node_7&#45;&gt;r2_node_21</title>
<path fill="none" stroke="black" d="M831.44,-448.52C914.62,-446.53 1074.76,-437.29 1109.93,-396 1120.31,-383.82 1111.36,-375.94 1109.93,-360 1107.03,-327.61 1117.59,-313.12 1096.93,-288 1069.05,-254.09 1031.17,-287.21 1004.93,-252 976.15,-213.38 1013.83,-188.72 995.93,-144 980.67,-105.85 973.05,-93.34 937.93,-72 878.2,-35.69 798.06,-23.76 742.2,-20.09"/>
<polygon fill="black" stroke="black" points="742.72,-16.62 732.53,-19.53 742.31,-23.61 742.72,-16.62"/>
</g>
<!-- r2_node_23 -->
<g id="node21" class="node">
<title>r2_node_23</title>
<ellipse fill="none" stroke="black" cx="1068.93" cy="-234" rx="54.93" ry="18"/>
<text text-anchor="middle" x="1068.93" y="-228.95" font-family="Times,serif" font-size="14.00">r2_node_23</text>
</g>
<!-- r2_node_7&#45;&gt;r2_node_23 -->
<g id="edge16" class="edge">
<title>r2_node_7&#45;&gt;r2_node_23</title>
<path fill="none" stroke="black" d="M830.65,-446.38C936.74,-440.27 1177.69,-423.49 1201.93,-396 1212.14,-384.42 1217.25,-312.93 1199.93,-288 1183.89,-264.9 1155.95,-251.86 1129.99,-244.51"/>
<polygon fill="black" stroke="black" points="1131.04,-241.16 1120.48,-242.06 1129.3,-247.94 1131.04,-241.16"/>
</g>
<!-- r2_node_3&#45;&gt;r2_node_21 -->
<g id="edge21" class="edge">
<title>r2_node_3&#45;&gt;r2_node_21</title>
<path fill="none" stroke="black" d="M509.95,-76.81C542.77,-65.38 592.1,-48.2 628.45,-35.54"/>
<polygon fill="black" stroke="black" points="629.56,-38.85 637.86,-32.26 627.26,-32.24 629.56,-38.85"/>
</g>
<!-- r2_node_3&#45;&gt;r2_node_5 -->
<g id="edge23" class="edge">
<title>r2_node_3&#45;&gt;r2_node_5</title>
<path fill="none" stroke="black" d="M502.93,-105.16C519.56,-114.84 540.46,-127.86 557.2,-138.89"/>
<polygon fill="black" stroke="black" points="554.99,-141.62 565.25,-144.27 558.88,-135.81 554.99,-141.62"/>
</g>
<!-- r2_node_24 -->
<g id="node23" class="node">
<title>r2_node_24</title>
<ellipse fill="none" stroke="black" cx="276.93" cy="-18" rx="54.93" ry="18"/>
<text text-anchor="middle" x="276.93" y="-12.95" font-family="Times,serif" font-size="14.00">r2_node_24</text>
</g>
<!-- r2_node_3&#45;&gt;r2_node_24 -->
<g id="edge22" class="edge">
<title>r2_node_3&#45;&gt;r2_node_24</title>
<path fill="none" stroke="black" d="M439.99,-76.65C407.7,-65.23 359.46,-48.18 323.82,-35.58"/>
<polygon fill="black" stroke="black" points="325.22,-32.36 314.63,-32.33 322.89,-38.96 325.22,-32.36"/>
</g>
<!-- r2_node_1&#45;&gt;r2_node_9 -->
<g id="edge38" class="edge">
<title>r2_node_1&#45;&gt;r2_node_9</title>
<path fill="none" stroke="black" d="M196.56,-324.1C197.63,-331.37 198.26,-340.04 198.36,-348.24"/>
<polygon fill="black" stroke="black" points="194.86,-348.11 198.14,-358.18 201.86,-348.26 194.86,-348.11"/>
</g>
<!-- r2_node_1&#45;&gt;r2_node_29 -->
<g id="edge39" class="edge">
<title>r2_node_1&#45;&gt;r2_node_29</title>
<path fill="none" stroke="black" d="M233.42,-296.6C273.48,-288.06 334.09,-273.07 383.93,-252 412.93,-239.74 415.42,-226.96 444.93,-216 529.6,-184.55 587,-249.29 644.93,-180 660.92,-160.88 645.05,-134.64 628.43,-115.62"/>
<polygon fill="black" stroke="black" points="631,-113.24 621.64,-108.29 625.87,-118 631,-113.24"/>
</g>
<!-- r2_node_1&#45;&gt;r2_node_14 -->
<g id="edge37" class="edge">
<title>r2_node_1&#45;&gt;r2_node_14</title>
<path fill="none" stroke="black" d="M212.76,-289.64C230.87,-279.22 256.47,-265.36 278.17,-254.21"/>
<polygon fill="black" stroke="black" points="279.46,-257.47 286.79,-249.82 276.29,-251.24 279.46,-257.47"/>
</g>
<!-- r2_node_1&#45;&gt;r2_node_30 -->
<g id="edge40" class="edge">
<title>r2_node_1&#45;&gt;r2_node_30</title>
<path fill="none" stroke="black" d="M191.94,-287.85C196.23,-251.14 206.33,-164.66 211.6,-119.53"/>
<polygon fill="black" stroke="black" points="215.06,-120.07 212.75,-109.74 208.11,-119.26 215.06,-120.07"/>
</g>
<!-- r2_node_20 -->
<g id="node26" class="node">
<title>r2_node_20</title>
<ellipse fill="none" stroke="black" cx="1010.93" cy="-306" rx="54.93" ry="18"/>
<text text-anchor="middle" x="1010.93" y="-300.95" font-family="Times,serif" font-size="14.00">r2_node_20</text>
</g>
<!-- r2_node_12 -->
<g id="node27" class="node">
<title>r2_node_12</title>
<ellipse fill="none" stroke="black" cx="1028.93" cy="-378" rx="54.93" ry="18"/>
<text text-anchor="middle" x="1028.93" y="-372.95" font-family="Times,serif" font-size="14.00">r2_node_12</text>
</g>
<!-- r2_node_12&#45;&gt;r2_node_17 -->
<g id="edge33" class="edge">
<title>r2_node_12&#45;&gt;r2_node_17</title>
<path fill="none" stroke="black" d="M992.17,-364.32C958.93,-352.86 909.8,-335.92 873.56,-323.42"/>
<polygon fill="black" stroke="black" points="874.79,-320.14 864.2,-320.19 872.51,-326.76 874.79,-320.14"/>
</g>
<!-- r2_node_12&#45;&gt;r2_node_20 -->
<g id="edge32" class="edge">
<title>r2_node_12&#45;&gt;r2_node_20</title>
<path fill="none" stroke="black" d="M1024.48,-359.7C1022.59,-352.32 1020.33,-343.52 1018.2,-335.25"/>
<polygon fill="black" stroke="black" points="1021.59,-334.38 1015.71,-325.57 1014.81,-336.13 1021.59,-334.38"/>
</g>
<!-- r2_node_12&#45;&gt;r2_node_28 -->
<g id="edge30" class="edge">
<title>r2_node_12&#45;&gt;r2_node_28</title>
<path fill="none" stroke="black" d="M995.72,-363.42C978.51,-354.68 958.68,-341.63 946.93,-324 902.07,-256.68 954.33,-217.22 919.93,-144 901.35,-104.44 891.61,-92.37 852.93,-72 852.93,-72 660,-43.2 558.6,-28.06"/>
<polygon fill="black" stroke="black" points="559.2,-24.61 548.79,-26.59 558.17,-31.53 559.2,-24.61"/>
</g>
<!-- r2_node_8 -->
<g id="node29" class="node">
<title>r2_node_8</title>
<ellipse fill="none" stroke="black" cx="566.93" cy="-450" rx="50.33" ry="18"/>
<text text-anchor="middle" x="566.93" y="-444.95" font-family="Times,serif" font-size="14.00">r2_node_8</text>
</g>
<!-- r2_node_12&#45;&gt;r2_node_8 -->
<g id="edge31" class="edge">
<title>r2_node_12&#45;&gt;r2_node_8</title>
<path fill="none" stroke="black" d="M990.83,-391.29C983.6,-393.01 976.09,-394.64 968.93,-396 848.54,-418.88 705.58,-435.57 626.6,-443.61"/>
<polygon fill="black" stroke="black" points="626.53,-440.1 616.93,-444.58 627.23,-447.06 626.53,-440.1"/>
</g>
<!-- r2_node_8&#45;&gt;r2_node_21 -->
<g id="edge46" class="edge">
<title>r2_node_8&#45;&gt;r2_node_21</title>
<path fill="none" stroke="black" d="M614.4,-443.64C645.07,-440.21 685.85,-435.73 721.93,-432 763.13,-427.74 1065.1,-426.67 1092.93,-396 1111.74,-375.28 1085.82,-300.72 1074.93,-288 1048.27,-256.82 1019.42,-280.53 989.93,-252 924.16,-188.36 965.3,-123.92 889.93,-72 846.01,-41.74 786.48,-28.72 741.36,-23.13"/>
<polygon fill="black" stroke="black" points="741.76,-19.66 731.43,-22.01 740.97,-26.61 741.76,-19.66"/>
</g>
<!-- r2_node_8&#45;&gt;r2_node_26 -->
<g id="edge47" class="edge">
<title>r2_node_8&#45;&gt;r2_node_26</title>
<path fill="none" stroke="black" d="M613.55,-442.93C700.64,-431.38 880.07,-406.45 888.93,-396 899.29,-383.8 898.62,-372.74 888.93,-360 887.84,-358.57 806.56,-336.36 750.4,-321.15"/>
<polygon fill="black" stroke="black" points="751.56,-317.84 740.99,-318.61 749.73,-324.6 751.56,-317.84"/>
</g>
<!-- r2_node_8&#45;&gt;r2_node_17 -->
<g id="edge45" class="edge">
<title>r2_node_8&#45;&gt;r2_node_17</title>
<path fill="none" stroke="black" d="M614.03,-443.29C705.15,-432.02 897.46,-407.06 906.93,-396 917.34,-383.85 914.54,-374.07 906.93,-360 898.95,-345.23 884.85,-333.91 870.63,-325.6"/>
<polygon fill="black" stroke="black" points="872.64,-322.71 862.18,-321.05 869.32,-328.87 872.64,-322.71"/>
</g>
<!-- r2_node_8&#45;&gt;r2_node_12 -->
<g id="edge44" class="edge">
<title>r2_node_8&#45;&gt;r2_node_12</title>
<path fill="none" stroke="black" d="M614.34,-443.64C687.17,-435.61 830.37,-418.91 950.93,-396 958.02,-394.65 965.46,-393.04 972.84,-391.34"/>
<polygon fill="black" stroke="black" points="973.53,-394.78 982.46,-389.08 971.93,-387.96 973.53,-394.78"/>
</g>
</g>
</svg>
