<?xml version="1.0" encoding="UTF-8" standalone="no"?>
<!DOCTYPE svg PUBLIC "-//W3C//DTD SVG 1.1//EN"
 "http://www.w3.org/Graphics/SVG/1.1/DTD/svg11.dtd">
<!-- Generated by graphviz version 12.2.1 (20241206.2353)
 -->
<!-- Pages: 1 -->
<svg width="615pt" height="980pt"
 viewBox="0.00 0.00 614.92 980.00" xmlns="http://www.w3.org/2000/svg" xmlns:xlink="http://www.w3.org/1999/xlink">
<g id="graph0" class="graph" transform="scale(1 1) rotate(0) translate(4 976)">
<polygon fill="white" stroke="none" points="-4,4 -4,-976 610.92,-976 610.92,4 -4,4"/>
<!-- r3_node_14 -->
<g id="node1" class="node">
<title>r3_node_14</title>
<ellipse fill="none" stroke="black" cx="124.93" cy="-954" rx="54.93" ry="18"/>
<text text-anchor="middle" x="124.93" y="-948.95" font-family="Times,serif" font-size="14.00">r3_node_14</text>
</g>
<!-- r3_node_17 -->
<g id="node2" class="node">
<title>r3_node_17</title>
<ellipse fill="none" stroke="black" cx="223.93" cy="-18" rx="54.93" ry="18"/>
<text text-anchor="middle" x="223.93" y="-12.95" font-family="Times,serif" font-size="14.00">r3_node_17</text>
</g>
<!-- r3_node_14&#45;&gt;r3_node_17 -->
<g id="edge1" class="edge">
<title>r3_node_14&#45;&gt;r3_node_17</title>
<path fill="none" stroke="black" d="M123.03,-935.96C120.37,-905.37 118.28,-839.88 141.93,-792 152.24,-771.14 166.84,-775.23 179.93,-756 218.76,-698.96 224.81,-679.74 237.93,-612 249.24,-553.68 215.61,-447.92 209.93,-432 191.64,-380.68 165.59,-376.74 151.93,-324 139.9,-277.53 149.6,-263.98 150.93,-216 152.72,-151.58 137.28,-128.69 167.93,-72 173.97,-60.85 183.2,-50.69 192.44,-42.32"/>
<polygon fill="black" stroke="black" points="194.7,-45 200.05,-35.85 190.17,-39.66 194.7,-45"/>
</g>
<!-- r3_node_3 -->
<g id="node3" class="node">
<title>r3_node_3</title>
<ellipse fill="none" stroke="black" cx="263.93" cy="-882" rx="50.33" ry="18"/>
<text text-anchor="middle" x="263.93" y="-876.95" font-family="Times,serif" font-size="14.00">r3_node_3</text>
</g>
<!-- r3_node_14&#45;&gt;r3_node_3 -->
<g id="edge2" class="edge">
<title>r3_node_14&#45;&gt;r3_node_3</title>
<path fill="none" stroke="black" d="M149.74,-937.64C169.88,-926.84 198.55,-912.36 222.18,-901.01"/>
<polygon fill="black" stroke="black" points="223.4,-904.31 230.93,-896.86 220.39,-897.99 223.4,-904.31"/>
</g>
<!-- r3_node_15 -->
<g id="node4" class="node">
<title>r3_node_15</title>
<ellipse fill="none" stroke="black" cx="426.93" cy="-450" rx="54.93" ry="18"/>
<text text-anchor="middle" x="426.93" y="-444.95" font-family="Times,serif" font-size="14.00">r3_node_15</text>
</g>
<!-- r3_node_14&#45;&gt;r3_node_15 -->
<g id="edge3" class="edge">
<title>r3_node_14&#45;&gt;r3_node_15</title>
<path fill="none" stroke="black" d="M137.37,-936.04C152.01,-916.9 177.79,-885.61 204.93,-864 230.77,-843.44 242.31,-846.09 269.93,-828 291.95,-813.59 349.11,-777.74 363.93,-756 423.38,-668.8 428.8,-537.28 428.02,-479.7"/>
<polygon fill="black" stroke="black" points="431.52,-479.7 427.8,-469.78 424.52,-479.86 431.52,-479.7"/>
</g>
<!-- r3_node_3&#45;&gt;r3_node_14 -->
<g id="edge56" class="edge">
<title>r3_node_3&#45;&gt;r3_node_14</title>
<path fill="none" stroke="black" d="M239.78,-898.01C219.98,-908.64 191.66,-922.97 168.03,-934.34"/>
<polygon fill="black" stroke="black" points="166.79,-931.06 159.27,-938.52 169.8,-937.38 166.79,-931.06"/>
</g>
<!-- r3_node_7 -->
<g id="node14" class="node">
<title>r3_node_7</title>
<ellipse fill="none" stroke="black" cx="350.93" cy="-162" rx="50.33" ry="18"/>
<text text-anchor="middle" x="350.93" y="-156.95" font-family="Times,serif" font-size="14.00">r3_node_7</text>
</g>
<!-- r3_node_3&#45;&gt;r3_node_7 -->
<g id="edge54" class="edge">
<title>r3_node_3&#45;&gt;r3_node_7</title>
<path fill="none" stroke="black" d="M278.05,-864.59C301.72,-842.24 348.48,-799.98 378.93,-756 513.74,-561.28 524.02,-487.18 551.93,-252 553.82,-236.11 561.77,-228.62 551.93,-216 534.17,-193.2 462.02,-178.67 409.16,-170.7"/>
<polygon fill="black" stroke="black" points="409.76,-167.25 399.36,-169.27 408.75,-174.18 409.76,-167.25"/>
</g>
<!-- r3_node_18 -->
<g id="node15" class="node">
<title>r3_node_18</title>
<ellipse fill="none" stroke="black" cx="474.93" cy="-90" rx="54.93" ry="18"/>
<text text-anchor="middle" x="474.93" y="-84.95" font-family="Times,serif" font-size="14.00">r3_node_18</text>
</g>
<!-- r3_node_3&#45;&gt;r3_node_18 -->
<g id="edge55" class="edge">
<title>r3_node_3&#45;&gt;r3_node_18</title>
<path fill="none" stroke="black" d="M296.45,-868.05C317.32,-858.79 344.28,-844.97 364.93,-828 479.94,-733.48 489.89,-681.56 535.93,-540 581,-401.44 637.68,-352.21 585.93,-216 569.82,-173.59 531.99,-136.36 504.98,-113.8"/>
<polygon fill="black" stroke="black" points="507.42,-111.28 497.46,-107.68 503.01,-116.71 507.42,-111.28"/>
</g>
<!-- r3_node_24 -->
<g id="node24" class="node">
<title>r3_node_24</title>
<ellipse fill="none" stroke="black" cx="205.93" cy="-810" rx="54.93" ry="18"/>
<text text-anchor="middle" x="205.93" y="-804.95" font-family="Times,serif" font-size="14.00">r3_node_24</text>
</g>
<!-- r3_node_3&#45;&gt;r3_node_24 -->
<g id="edge57" class="edge">
<title>r3_node_3&#45;&gt;r3_node_24</title>
<path fill="none" stroke="black" d="M245.01,-865.12C237.13,-856.77 228.22,-846.32 220.81,-836.84"/>
<polygon fill="black" stroke="black" points="223.71,-834.89 214.9,-829.01 218.12,-839.1 223.71,-834.89"/>
</g>
<!-- r3_node_4 -->
<g id="node11" class="node">
<title>r3_node_4</title>
<ellipse fill="none" stroke="black" cx="366.93" cy="-522" rx="50.33" ry="18"/>
<text text-anchor="middle" x="366.93" y="-516.95" font-family="Times,serif" font-size="14.00">r3_node_4</text>
</g>
<!-- r3_node_15&#45;&gt;r3_node_4 -->
<g id="edge28" class="edge">
<title>r3_node_15&#45;&gt;r3_node_4</title>
<path fill="none" stroke="black" d="M418.4,-467.8C411.89,-476.47 402.89,-487.21 394.16,-496.77"/>
<polygon fill="black" stroke="black" points="391.65,-494.33 387.35,-504.01 396.75,-499.13 391.65,-494.33"/>
</g>
<!-- r3_node_2 -->
<g id="node22" class="node">
<title>r3_node_2</title>
<ellipse fill="none" stroke="black" cx="263.93" cy="-378" rx="50.33" ry="18"/>
<text text-anchor="middle" x="263.93" y="-372.95" font-family="Times,serif" font-size="14.00">r3_node_2</text>
</g>
<!-- r3_node_15&#45;&gt;r3_node_2 -->
<g id="edge26" class="edge">
<title>r3_node_15&#45;&gt;r3_node_2</title>
<path fill="none" stroke="black" d="M391.27,-436C364.85,-425.32 329.05,-410.04 302.07,-397.99"/>
<polygon fill="black" stroke="black" points="303.78,-394.92 293.22,-394 300.9,-401.3 303.78,-394.92"/>
</g>
<!-- r3_node_5 -->
<g id="node23" class="node">
<title>r3_node_5</title>
<ellipse fill="none" stroke="black" cx="422.93" cy="-378" rx="50.33" ry="18"/>
<text text-anchor="middle" x="422.93" y="-372.95" font-family="Times,serif" font-size="14.00">r3_node_5</text>
</g>
<!-- r3_node_15&#45;&gt;r3_node_5 -->
<g id="edge27" class="edge">
<title>r3_node_15&#45;&gt;r3_node_5</title>
<path fill="none" stroke="black" d="M420.03,-431.7C418.86,-424.41 418.12,-415.73 417.92,-407.54"/>
<polygon fill="black" stroke="black" points="421.42,-407.65 418,-397.62 414.42,-407.59 421.42,-407.65"/>
</g>
<!-- r3_node_23 -->
<g id="node5" class="node">
<title>r3_node_23</title>
<ellipse fill="none" stroke="black" cx="214.93" cy="-234" rx="54.93" ry="18"/>
<text text-anchor="middle" x="214.93" y="-228.95" font-family="Times,serif" font-size="14.00">r3_node_23</text>
</g>
<!-- r3_node_22 -->
<g id="node6" class="node">
<title>r3_node_22</title>
<ellipse fill="none" stroke="black" cx="218.93" cy="-162" rx="54.93" ry="18"/>
<text text-anchor="middle" x="218.93" y="-156.95" font-family="Times,serif" font-size="14.00">r3_node_22</text>
</g>
<!-- r3_node_23&#45;&gt;r3_node_22 -->
<g id="edge4" class="edge">
<title>r3_node_23&#45;&gt;r3_node_22</title>
<path fill="none" stroke="black" d="M210.01,-215.7C209.67,-208.32 209.93,-199.52 210.68,-191.25"/>
<polygon fill="black" stroke="black" points="214.12,-191.96 211.88,-181.61 207.17,-191.1 214.12,-191.96"/>
</g>
<!-- r3_node_9 -->
<g id="node7" class="node">
<title>r3_node_9</title>
<ellipse fill="none" stroke="black" cx="379.93" cy="-306" rx="50.33" ry="18"/>
<text text-anchor="middle" x="379.93" y="-300.95" font-family="Times,serif" font-size="14.00">r3_node_9</text>
</g>
<!-- r3_node_23&#45;&gt;r3_node_9 -->
<g id="edge5" class="edge">
<title>r3_node_23&#45;&gt;r3_node_9</title>
<path fill="none" stroke="black" d="M251.01,-248.02C277.76,-258.71 314.04,-274 341.35,-286.06"/>
<polygon fill="black" stroke="black" points="339.77,-289.18 350.33,-290.05 342.62,-282.79 339.77,-289.18"/>
</g>
<!-- r3_node_22&#45;&gt;r3_node_23 -->
<g id="edge22" class="edge">
<title>r3_node_22&#45;&gt;r3_node_23</title>
<path fill="none" stroke="black" d="M223.85,-180.1C224.2,-187.45 223.95,-196.24 223.21,-204.53"/>
<polygon fill="black" stroke="black" points="219.76,-203.84 222.02,-214.19 226.71,-204.69 219.76,-203.84"/>
</g>
<!-- r3_node_10 -->
<g id="node13" class="node">
<title>r3_node_10</title>
<ellipse fill="none" stroke="black" cx="351.93" cy="-18" rx="54.93" ry="18"/>
<text text-anchor="middle" x="351.93" y="-12.95" font-family="Times,serif" font-size="14.00">r3_node_10</text>
</g>
<!-- r3_node_22&#45;&gt;r3_node_10 -->
<g id="edge21" class="edge">
<title>r3_node_22&#45;&gt;r3_node_10</title>
<path fill="none" stroke="black" d="M239.8,-145.07C254.2,-135.62 272.89,-122.64 286.93,-108 304.74,-89.44 319.91,-64.35 331.46,-45.54"/>
<polygon fill="black" stroke="black" points="334.39,-47.44 336.69,-37.1 328.44,-43.75 334.39,-47.44"/>
</g>
<!-- r3_node_28 -->
<g id="node21" class="node">
<title>r3_node_28</title>
<ellipse fill="none" stroke="black" cx="231.93" cy="-90" rx="54.93" ry="18"/>
<text text-anchor="middle" x="231.93" y="-84.95" font-family="Times,serif" font-size="14.00">r3_node_28</text>
</g>
<!-- r3_node_22&#45;&gt;r3_node_28 -->
<g id="edge23" class="edge">
<title>r3_node_22&#45;&gt;r3_node_28</title>
<path fill="none" stroke="black" d="M216.23,-143.7C216.84,-136.32 218.23,-127.52 220.05,-119.25"/>
<polygon fill="black" stroke="black" points="223.44,-120.12 222.49,-109.57 216.65,-118.41 223.44,-120.12"/>
</g>
<!-- r3_node_9&#45;&gt;r3_node_23 -->
<g id="edge43" class="edge">
<title>r3_node_9&#45;&gt;r3_node_23</title>
<path fill="none" stroke="black" d="M345.52,-292.65C318.8,-282 281.87,-266.44 254.04,-254.18"/>
<polygon fill="black" stroke="black" points="255.81,-251.13 245.25,-250.27 252.96,-257.53 255.81,-251.13"/>
</g>
<!-- r3_node_20 -->
<g id="node16" class="node">
<title>r3_node_20</title>
<ellipse fill="none" stroke="black" cx="359.93" cy="-234" rx="54.93" ry="18"/>
<text text-anchor="middle" x="359.93" y="-228.95" font-family="Times,serif" font-size="14.00">r3_node_20</text>
</g>
<!-- r3_node_9&#45;&gt;r3_node_20 -->
<g id="edge42" class="edge">
<title>r3_node_9&#45;&gt;r3_node_20</title>
<path fill="none" stroke="black" d="M369.21,-288.05C366.33,-280.68 363.54,-271.84 361.43,-263.51"/>
<polygon fill="black" stroke="black" points="364.85,-262.77 359.28,-253.75 358.02,-264.27 364.85,-262.77"/>
</g>
<!-- r3_node_9&#45;&gt;r3_node_5 -->
<g id="edge41" class="edge">
<title>r3_node_9&#45;&gt;r3_node_5</title>
<path fill="none" stroke="black" d="M395.64,-323.14C401.36,-331.01 407.57,-340.68 412.73,-349.64"/>
<polygon fill="black" stroke="black" points="409.63,-351.27 417.5,-358.37 415.78,-347.91 409.63,-351.27"/>
</g>
<!-- r3_node_21 -->
<g id="node8" class="node">
<title>r3_node_21</title>
<ellipse fill="none" stroke="black" cx="54.93" cy="-594" rx="54.93" ry="18"/>
<text text-anchor="middle" x="54.93" y="-588.95" font-family="Times,serif" font-size="14.00">r3_node_21</text>
</g>
<!-- r3_node_6 -->
<g id="node9" class="node">
<title>r3_node_6</title>
<ellipse fill="none" stroke="black" cx="145.93" cy="-522" rx="50.33" ry="18"/>
<text text-anchor="middle" x="145.93" y="-516.95" font-family="Times,serif" font-size="14.00">r3_node_6</text>
</g>
<!-- r3_node_21&#45;&gt;r3_node_6 -->
<g id="edge6" class="edge">
<title>r3_node_21&#45;&gt;r3_node_6</title>
<path fill="none" stroke="black" d="M70.66,-576.41C82.03,-566.86 97.63,-554.75 111.73,-544.48"/>
<polygon fill="black" stroke="black" points="113.4,-547.59 119.49,-538.92 109.33,-541.9 113.4,-547.59"/>
</g>
<!-- r3_node_27 -->
<g id="node10" class="node">
<title>r3_node_27</title>
<ellipse fill="none" stroke="black" cx="87.93" cy="-18" rx="54.93" ry="18"/>
<text text-anchor="middle" x="87.93" y="-12.95" font-family="Times,serif" font-size="14.00">r3_node_27</text>
</g>
<!-- r3_node_21&#45;&gt;r3_node_27 -->
<g id="edge7" class="edge">
<title>r3_node_21&#45;&gt;r3_node_27</title>
<path fill="none" stroke="black" d="M53.41,-575.51C52.7,-493.81 72.28,-149.5 83.14,-47.55"/>
<polygon fill="black" stroke="black" points="86.59,-48.19 84.25,-37.86 79.63,-47.4 86.59,-48.19"/>
</g>
<!-- r3_node_21&#45;&gt;r3_node_4 -->
<g id="edge8" class="edge">
<title>r3_node_21&#45;&gt;r3_node_4</title>
<path fill="none" stroke="black" d="M92.81,-580.49C98.85,-578.94 105.03,-577.4 110.93,-576 179.5,-559.69 259.32,-542.97 311.47,-532.78"/>
<polygon fill="black" stroke="black" points="311.85,-536.27 321,-530.94 310.52,-529.4 311.85,-536.27"/>
</g>
<!-- r3_node_16 -->
<g id="node12" class="node">
<title>r3_node_16</title>
<ellipse fill="none" stroke="black" cx="69.93" cy="-666" rx="54.93" ry="18"/>
<text text-anchor="middle" x="69.93" y="-660.95" font-family="Times,serif" font-size="14.00">r3_node_16</text>
</g>
<!-- r3_node_21&#45;&gt;r3_node_16 -->
<g id="edge9" class="edge">
<title>r3_node_21&#45;&gt;r3_node_16</title>
<path fill="none" stroke="black" d="M64.49,-612.1C66.84,-619.45 68.97,-628.24 70.48,-636.53"/>
<polygon fill="black" stroke="black" points="66.98,-636.82 71.92,-646.2 73.91,-635.79 66.98,-636.82"/>
</g>
<!-- r3_node_6&#45;&gt;r3_node_21 -->
<g id="edge25" class="edge">
<title>r3_node_6&#45;&gt;r3_node_21</title>
<path fill="none" stroke="black" d="M130.46,-539.38C119.13,-548.91 103.52,-561.03 89.38,-571.34"/>
<polygon fill="black" stroke="black" points="87.68,-568.26 81.59,-576.93 91.76,-573.95 87.68,-568.26"/>
</g>
<!-- r3_node_1 -->
<g id="node17" class="node">
<title>r3_node_1</title>
<ellipse fill="none" stroke="black" cx="150.93" cy="-450" rx="50.33" ry="18"/>
<text text-anchor="middle" x="150.93" y="-444.95" font-family="Times,serif" font-size="14.00">r3_node_1</text>
</g>
<!-- r3_node_6&#45;&gt;r3_node_1 -->
<g id="edge24" class="edge">
<title>r3_node_6&#45;&gt;r3_node_1</title>
<path fill="none" stroke="black" d="M141.25,-503.7C141.02,-496.32 141.41,-487.52 142.28,-479.25"/>
<polygon fill="black" stroke="black" points="145.71,-479.99 143.61,-469.6 138.78,-479.03 145.71,-479.99"/>
</g>
<!-- r3_node_27&#45;&gt;r3_node_21 -->
<g id="edge16" class="edge">
<title>r3_node_27&#45;&gt;r3_node_21</title>
<path fill="none" stroke="black" d="M89.45,-36.39C90.19,-117.96 70.56,-462.93 59.71,-564.66"/>
<polygon fill="black" stroke="black" points="56.26,-563.98 58.6,-574.32 63.21,-564.78 56.26,-563.98"/>
</g>
<!-- r3_node_4&#45;&gt;r3_node_15 -->
<g id="edge36" class="edge">
<title>r3_node_4&#45;&gt;r3_node_15</title>
<path fill="none" stroke="black" d="M375.58,-504.05C382.09,-495.38 391.08,-484.67 399.78,-475.15"/>
<polygon fill="black" stroke="black" points="402.27,-477.61 406.57,-467.93 397.17,-472.82 402.27,-477.61"/>
</g>
<!-- r3_node_4&#45;&gt;r3_node_23 -->
<g id="edge34" class="edge">
<title>r3_node_4&#45;&gt;r3_node_23</title>
<path fill="none" stroke="black" d="M364.66,-503.7C358.37,-461.97 337.24,-354.33 279.93,-288 270.34,-276.9 258.23,-266.32 247.06,-257.58"/>
<polygon fill="black" stroke="black" points="249.28,-254.86 239.19,-251.61 245.05,-260.44 249.28,-254.86"/>
</g>
<!-- r3_node_4&#45;&gt;r3_node_21 -->
<g id="edge37" class="edge">
<title>r3_node_4&#45;&gt;r3_node_21</title>
<path fill="none" stroke="black" d="M325.72,-532.63C278.11,-542.8 197.84,-559.6 128.93,-576 123.05,-577.4 116.88,-578.93 110.71,-580.48"/>
<polygon fill="black" stroke="black" points="109.96,-577.06 101.12,-582.9 111.68,-583.85 109.96,-577.06"/>
</g>
<!-- r3_node_4&#45;&gt;r3_node_24 -->
<g id="edge35" class="edge">
<title>r3_node_4&#45;&gt;r3_node_24</title>
<path fill="none" stroke="black" d="M368.25,-540.4C364.86,-558.35 355.82,-587.14 347.93,-612 337.78,-644.02 341.49,-654.77 324.93,-684 302.28,-724 265.32,-762.54 238.42,-786"/>
<polygon fill="black" stroke="black" points="236.25,-783.25 230.87,-792.38 240.77,-788.59 236.25,-783.25"/>
</g>
<!-- r3_node_16&#45;&gt;r3_node_21 -->
<g id="edge45" class="edge">
<title>r3_node_16&#45;&gt;r3_node_21</title>
<path fill="none" stroke="black" d="M60.42,-648.05C58.06,-640.68 55.91,-631.84 54.4,-623.51"/>
<polygon fill="black" stroke="black" points="57.88,-623.15 52.95,-613.77 50.96,-624.18 57.88,-623.15"/>
</g>
<!-- r3_node_12 -->
<g id="node18" class="node">
<title>r3_node_12</title>
<ellipse fill="none" stroke="black" cx="115.93" cy="-738" rx="54.93" ry="18"/>
<text text-anchor="middle" x="115.93" y="-732.95" font-family="Times,serif" font-size="14.00">r3_node_12</text>
</g>
<!-- r3_node_16&#45;&gt;r3_node_12 -->
<g id="edge46" class="edge">
<title>r3_node_16&#45;&gt;r3_node_12</title>
<path fill="none" stroke="black" d="M86.7,-683.62C92.69,-691.44 99.2,-700.97 104.66,-709.8"/>
<polygon fill="black" stroke="black" points="101.63,-711.55 109.71,-718.39 107.66,-708 101.63,-711.55"/>
</g>
<!-- r3_node_10&#45;&gt;r3_node_22 -->
<g id="edge10" class="edge">
<title>r3_node_10&#45;&gt;r3_node_22</title>
<path fill="none" stroke="black" d="M350.36,-36.16C343.23,-55.2 325.92,-86.13 304.93,-108 292.49,-120.97 276.4,-132.63 261.43,-141.7"/>
<polygon fill="black" stroke="black" points="260.01,-138.47 253.1,-146.51 263.51,-144.53 260.01,-138.47"/>
</g>
<!-- r3_node_7&#45;&gt;r3_node_3 -->
<g id="edge13" class="edge">
<title>r3_node_7&#45;&gt;r3_node_3</title>
<path fill="none" stroke="black" d="M399.26,-167.59C457.45,-174.55 549.54,-189.82 569.93,-216 579.77,-228.62 571.82,-236.11 569.93,-252 542.02,-487.18 531.74,-561.28 396.93,-756 368.83,-796.59 326.83,-835.72 297.39,-859.08"/>
<polygon fill="black" stroke="black" points="295.29,-856.28 289.51,-865.16 299.56,-861.82 295.29,-856.28"/>
</g>
<!-- r3_node_7&#45;&gt;r3_node_18 -->
<g id="edge11" class="edge">
<title>r3_node_7&#45;&gt;r3_node_18</title>
<path fill="none" stroke="black" d="M372.73,-145.46C389.71,-135.2 413.56,-121.65 434.01,-110.64"/>
<polygon fill="black" stroke="black" points="435.52,-113.8 442.7,-106.01 432.23,-107.62 435.52,-113.8"/>
</g>
<!-- r3_node_7&#45;&gt;r3_node_20 -->
<g id="edge12" class="edge">
<title>r3_node_7&#45;&gt;r3_node_20</title>
<path fill="none" stroke="black" d="M359.03,-180.1C360.72,-187.37 362.09,-196.04 362.89,-204.24"/>
<polygon fill="black" stroke="black" points="359.4,-204.43 363.53,-214.19 366.38,-203.98 359.4,-204.43"/>
</g>
<!-- r3_node_18&#45;&gt;r3_node_7 -->
<g id="edge31" class="edge">
<title>r3_node_18&#45;&gt;r3_node_7</title>
<path fill="none" stroke="black" d="M452.77,-106.76C435.57,-117.15 411.47,-130.82 390.97,-141.84"/>
<polygon fill="black" stroke="black" points="389.46,-138.68 382.27,-146.46 392.75,-144.86 389.46,-138.68"/>
</g>
<!-- r3_node_20&#45;&gt;r3_node_9 -->
<g id="edge14" class="edge">
<title>r3_node_20&#45;&gt;r3_node_9</title>
<path fill="none" stroke="black" d="M370.72,-252.1C373.59,-259.45 376.35,-268.24 378.44,-276.53"/>
<polygon fill="black" stroke="black" points="375.01,-277.21 380.58,-286.22 381.85,-275.7 375.01,-277.21"/>
</g>
<!-- r3_node_20&#45;&gt;r3_node_7 -->
<g id="edge15" class="edge">
<title>r3_node_20&#45;&gt;r3_node_7</title>
<path fill="none" stroke="black" d="M351.88,-216.05C350.15,-208.68 348.75,-199.84 347.95,-191.51"/>
<polygon fill="black" stroke="black" points="351.46,-191.54 347.34,-181.79 344.48,-191.99 351.46,-191.54"/>
</g>
<!-- r3_node_1&#45;&gt;r3_node_6 -->
<g id="edge17" class="edge">
<title>r3_node_1&#45;&gt;r3_node_6</title>
<path fill="none" stroke="black" d="M155.61,-468.1C155.85,-475.45 155.47,-484.24 154.61,-492.53"/>
<polygon fill="black" stroke="black" points="151.18,-491.82 153.29,-502.2 158.11,-492.76 151.18,-491.82"/>
</g>
<!-- r3_node_12&#45;&gt;r3_node_16 -->
<g id="edge18" class="edge">
<title>r3_node_12&#45;&gt;r3_node_16</title>
<path fill="none" stroke="black" d="M99.19,-720.41C93.07,-712.42 86.4,-702.64 80.87,-693.64"/>
<polygon fill="black" stroke="black" points="84.03,-692.13 75.96,-685.26 77.99,-695.66 84.03,-692.13"/>
</g>
<!-- r3_node_19 -->
<g id="node19" class="node">
<title>r3_node_19</title>
<ellipse fill="none" stroke="black" cx="215.93" cy="-306" rx="54.93" ry="18"/>
<text text-anchor="middle" x="215.93" y="-300.95" font-family="Times,serif" font-size="14.00">r3_node_19</text>
</g>
<!-- r3_node_12&#45;&gt;r3_node_19 -->
<g id="edge19" class="edge">
<title>r3_node_12&#45;&gt;r3_node_19</title>
<path fill="none" stroke="black" d="M134.76,-720.77C161.9,-699.82 209.95,-660.26 228.93,-612 234.79,-597.11 230.38,-591.93 228.93,-576 225.25,-535.5 199.62,-436.5 195.93,-396 194.49,-380.07 194.3,-375.92 195.93,-360 196.8,-351.61 198.4,-342.59 200.52,-334.42"/>
<polygon fill="black" stroke="black" points="203.81,-335.61 203.38,-325.02 197.12,-333.57 203.81,-335.61"/>
</g>
<!-- r3_node_8 -->
<g id="node20" class="node">
<title>r3_node_8</title>
<ellipse fill="none" stroke="black" cx="178.93" cy="-594" rx="50.33" ry="18"/>
<text text-anchor="middle" x="178.93" y="-588.95" font-family="Times,serif" font-size="14.00">r3_node_8</text>
</g>
<!-- r3_node_12&#45;&gt;r3_node_8 -->
<g id="edge20" class="edge">
<title>r3_node_12&#45;&gt;r3_node_8</title>
<path fill="none" stroke="black" d="M119.04,-719.59C127.33,-695.16 146.88,-650.49 161.62,-621.81"/>
<polygon fill="black" stroke="black" points="164.7,-623.48 166.29,-613.01 158.51,-620.2 164.7,-623.48"/>
</g>
<!-- r3_node_19&#45;&gt;r3_node_12 -->
<g id="edge33" class="edge">
<title>r3_node_19&#45;&gt;r3_node_12</title>
<path fill="none" stroke="black" d="M219.29,-324.05C218,-334.37 215.18,-347.85 213.93,-360 212.3,-375.92 212.49,-380.07 213.93,-396 217.62,-436.5 243.25,-535.5 246.93,-576 248.38,-591.93 252.79,-597.11 246.93,-612 229.28,-656.88 186.47,-694.24 154.42,-716.11"/>
<polygon fill="black" stroke="black" points="152.56,-713.14 146.12,-721.55 156.41,-718.99 152.56,-713.14"/>
</g>
<!-- r3_node_19&#45;&gt;r3_node_2 -->
<g id="edge32" class="edge">
<title>r3_node_19&#45;&gt;r3_node_2</title>
<path fill="none" stroke="black" d="M232.8,-323.14C239.14,-331.09 246.13,-340.89 251.97,-349.94"/>
<polygon fill="black" stroke="black" points="248.96,-351.73 257.19,-358.41 254.92,-348.06 248.96,-351.73"/>
</g>
<!-- r3_node_8&#45;&gt;r3_node_12 -->
<g id="edge44" class="edge">
<title>r3_node_8&#45;&gt;r3_node_12</title>
<path fill="none" stroke="black" d="M175.87,-612.27C167.63,-636.61 148.11,-681.24 133.35,-709.99"/>
<polygon fill="black" stroke="black" points="130.26,-708.34 128.67,-718.82 136.45,-711.62 130.26,-708.34"/>
</g>
<!-- r3_node_28&#45;&gt;r3_node_17 -->
<g id="edge30" class="edge">
<title>r3_node_28&#45;&gt;r3_node_17</title>
<path fill="none" stroke="black" d="M229.96,-71.7C229.12,-64.41 228.13,-55.73 227.2,-47.54"/>
<polygon fill="black" stroke="black" points="230.67,-47.15 226.06,-37.61 223.72,-47.94 230.67,-47.15"/>
</g>
<!-- r3_node_28&#45;&gt;r3_node_22 -->
<g id="edge29" class="edge">
<title>r3_node_28&#45;&gt;r3_node_22</title>
<path fill="none" stroke="black" d="M234.64,-108.28C234.02,-115.77 232.59,-124.75 230.73,-133.15"/>
<polygon fill="black" stroke="black" points="227.4,-132.03 228.33,-142.59 234.19,-133.76 227.4,-132.03"/>
</g>
<!-- r3_node_2&#45;&gt;r3_node_15 -->
<g id="edge48" class="edge">
<title>r3_node_2&#45;&gt;r3_node_15</title>
<path fill="none" stroke="black" d="M298.47,-391.55C324.74,-402.14 360.75,-417.5 388.02,-429.67"/>
<polygon fill="black" stroke="black" points="386.44,-432.79 397,-433.7 389.31,-426.41 386.44,-432.79"/>
</g>
<!-- r3_node_2&#45;&gt;r3_node_19 -->
<g id="edge47" class="edge">
<title>r3_node_2&#45;&gt;r3_node_19</title>
<path fill="none" stroke="black" d="M247,-360.76C240.63,-352.78 233.63,-342.95 227.79,-333.89"/>
<polygon fill="black" stroke="black" points="230.79,-332.1 222.57,-325.41 224.83,-335.76 230.79,-332.1"/>
</g>
<!-- r3_node_5&#45;&gt;r3_node_15 -->
<g id="edge39" class="edge">
<title>r3_node_5&#45;&gt;r3_node_15</title>
<path fill="none" stroke="black" d="M429.81,-396.1C430.98,-403.37 431.73,-412.04 431.94,-420.24"/>
<polygon fill="black" stroke="black" points="428.44,-420.16 431.87,-430.18 435.44,-420.21 428.44,-420.16"/>
</g>
<!-- r3_node_5&#45;&gt;r3_node_9 -->
<g id="edge40" class="edge">
<title>r3_node_5&#45;&gt;r3_node_9</title>
<path fill="none" stroke="black" d="M407.16,-360.76C401.42,-352.87 395.2,-343.16 390.03,-334.18"/>
<polygon fill="black" stroke="black" points="393.14,-332.56 385.28,-325.45 386.99,-335.91 393.14,-332.56"/>
</g>
<!-- r3_node_11 -->
<g id="node25" class="node">
<title>r3_node_11</title>
<ellipse fill="none" stroke="black" cx="496.93" cy="-234" rx="54.93" ry="18"/>
<text text-anchor="middle" x="496.93" y="-228.95" font-family="Times,serif" font-size="14.00">r3_node_11</text>
</g>
<!-- r3_node_5&#45;&gt;r3_node_11 -->
<g id="edge38" class="edge">
<title>r3_node_5&#45;&gt;r3_node_11</title>
<path fill="none" stroke="black" d="M427.39,-359.59C437.62,-335.05 460.79,-290.1 477.77,-261.43"/>
<polygon fill="black" stroke="black" points="480.71,-263.33 482.92,-252.96 474.73,-259.69 480.71,-263.33"/>
</g>
<!-- r3_node_24&#45;&gt;r3_node_3 -->
<g id="edge49" class="edge">
<title>r3_node_24&#45;&gt;r3_node_3</title>
<path fill="none" stroke="black" d="M225.25,-827.31C233.04,-835.58 241.77,-845.83 249.06,-855.15"/>
<polygon fill="black" stroke="black" points="246.05,-856.97 254.86,-862.85 251.63,-852.76 246.05,-856.97"/>
</g>
<!-- r3_node_24&#45;&gt;r3_node_4 -->
<g id="edge52" class="edge">
<title>r3_node_24&#45;&gt;r3_node_4</title>
<path fill="none" stroke="black" d="M218.76,-792.21C240.23,-769.78 282.14,-727.76 306.93,-684 323.49,-654.77 319.78,-644.02 329.93,-612 336.51,-591.26 343.9,-567.77 350.73,-550.14"/>
<polygon fill="black" stroke="black" points="353.87,-551.72 354.44,-541.14 347.39,-549.05 353.87,-551.72"/>
</g>
<!-- r3_node_24&#45;&gt;r3_node_20 -->
<g id="edge51" class="edge">
<title>r3_node_24&#45;&gt;r3_node_20</title>
<path fill="none" stroke="black" d="M238.5,-795.09C257.56,-785.88 281.26,-772.47 298.93,-756 411.45,-651.09 446.35,-615.24 490.93,-468 515.06,-388.3 496.25,-348.41 438.93,-288 427.13,-275.56 411.91,-264.5 397.99,-255.74"/>
<polygon fill="black" stroke="black" points="399.81,-252.75 389.44,-250.56 396.18,-258.73 399.81,-252.75"/>
</g>
<!-- r3_node_24&#45;&gt;r3_node_12 -->
<g id="edge50" class="edge">
<title>r3_node_24&#45;&gt;r3_node_12</title>
<path fill="none" stroke="black" d="M185.51,-793.12C173.63,-783.87 158.45,-772.07 145.3,-761.84"/>
<polygon fill="black" stroke="black" points="147.82,-759.37 137.78,-755.99 143.53,-764.89 147.82,-759.37"/>
</g>
<!-- r3_node_11&#45;&gt;r3_node_5 -->
<g id="edge53" class="edge">
<title>r3_node_11&#45;&gt;r3_node_5</title>
<path fill="none" stroke="black" d="M492.53,-252.27C482.36,-276.71 459.22,-321.63 442.22,-350.37"/>
<polygon fill="black" stroke="black" points="439.26,-348.5 437.05,-358.86 445.24,-352.13 439.26,-348.5"/>
</g>
</g>
</svg>
