<?xml version="1.0" encoding="UTF-8" standalone="no"?>
<!DOCTYPE svg PUBLIC "-//W3C//DTD SVG 1.1//EN"
 "http://www.w3.org/Graphics/SVG/1.1/DTD/svg11.dtd">
<!-- Generated by graphviz version 12.2.1 (20241206.2353)
 -->
<!-- Pages: 1 -->
<svg width="431pt" height="404pt"
 viewBox="0.00 0.00 430.66 404.00" xmlns="http://www.w3.org/2000/svg" xmlns:xlink="http://www.w3.org/1999/xlink">
<g id="graph0" class="graph" transform="scale(1 1) rotate(0) translate(4 400)">
<polygon fill="white" stroke="none" points="-4,4 -4,-400 426.66,-400 426.66,4 -4,4"/>
<!-- r1_node_8 -->
<g id="node1" class="node">
<title>r1_node_8</title>
<ellipse fill="none" stroke="black" cx="60.33" cy="-378" rx="50.33" ry="18"/>
<text text-anchor="middle" x="60.33" y="-372.95" font-family="Times,serif" font-size="14.00">r1_node_8</text>
</g>
<!-- r1_node_4 -->
<g id="node2" class="node">
<title>r1_node_4</title>
<ellipse fill="none" stroke="black" cx="60.33" cy="-306" rx="50.33" ry="18"/>
<text text-anchor="middle" x="60.33" y="-300.95" font-family="Times,serif" font-size="14.00">r1_node_4</text>
</g>
<!-- r1_node_8&#45;&gt;r1_node_4 -->
<g id="edge1" class="edge">
<title>r1_node_8&#45;&gt;r1_node_4</title>
<path fill="none" stroke="black" d="M54.41,-359.7C53.66,-352.41 53.42,-343.73 53.68,-335.54"/>
<polygon fill="black" stroke="black" points="57.17,-335.82 54.33,-325.61 50.18,-335.36 57.17,-335.82"/>
</g>
<!-- r1_node_4&#45;&gt;r1_node_8 -->
<g id="edge17" class="edge">
<title>r1_node_4&#45;&gt;r1_node_8</title>
<path fill="none" stroke="black" d="M66.22,-324.1C66.98,-331.37 67.24,-340.04 66.98,-348.24"/>
<polygon fill="black" stroke="black" points="63.49,-347.98 66.34,-358.19 70.48,-348.43 63.49,-347.98"/>
</g>
<!-- r1_node_9 -->
<g id="node3" class="node">
<title>r1_node_9</title>
<ellipse fill="none" stroke="black" cx="50.33" cy="-18" rx="50.33" ry="18"/>
<text text-anchor="middle" x="50.33" y="-12.95" font-family="Times,serif" font-size="14.00">r1_node_9</text>
</g>
<!-- r1_node_4&#45;&gt;r1_node_9 -->
<g id="edge18" class="edge">
<title>r1_node_4&#45;&gt;r1_node_9</title>
<path fill="none" stroke="black" d="M46.63,-288.54C42,-278.2 38.06,-264.5 36.33,-252 26.16,-178.73 33.06,-91.29 41.12,-47.28"/>
<polygon fill="black" stroke="black" points="44.54,-48.05 43.11,-37.55 37.68,-46.64 44.54,-48.05"/>
</g>
<!-- r1_node_6 -->
<g id="node6" class="node">
<title>r1_node_6</title>
<ellipse fill="none" stroke="black" cx="104.33" cy="-234" rx="50.33" ry="18"/>
<text text-anchor="middle" x="104.33" y="-228.95" font-family="Times,serif" font-size="14.00">r1_node_6</text>
</g>
<!-- r1_node_4&#45;&gt;r1_node_6 -->
<g id="edge19" class="edge">
<title>r1_node_4&#45;&gt;r1_node_6</title>
<path fill="none" stroke="black" d="M65.29,-287.7C69.6,-279.49 75.66,-269.52 81.79,-260.48"/>
<polygon fill="black" stroke="black" points="84.6,-262.57 87.52,-252.38 78.88,-258.53 84.6,-262.57"/>
</g>
<!-- r1_node_9&#45;&gt;r1_node_4 -->
<g id="edge2" class="edge">
<title>r1_node_9&#45;&gt;r1_node_4</title>
<path fill="none" stroke="black" d="M52.82,-36.36C52.47,-75.21 43.23,-172.05 54.33,-252 55.45,-260.05 57.47,-268.6 59.36,-276.43"/>
<polygon fill="black" stroke="black" points="55.94,-277.18 61.62,-286.12 62.75,-275.59 55.94,-277.18"/>
</g>
<!-- r1_node_7 -->
<g id="node4" class="node">
<title>r1_node_7</title>
<ellipse fill="none" stroke="black" cx="140.33" cy="-90" rx="50.33" ry="18"/>
<text text-anchor="middle" x="140.33" y="-84.95" font-family="Times,serif" font-size="14.00">r1_node_7</text>
</g>
<!-- r1_node_9&#45;&gt;r1_node_7 -->
<g id="edge3" class="edge">
<title>r1_node_9&#45;&gt;r1_node_7</title>
<path fill="none" stroke="black" d="M75.32,-34.04C88.12,-43.12 103.51,-54.89 116.18,-65.21"/>
<polygon fill="black" stroke="black" points="113.75,-67.74 123.67,-71.44 118.22,-62.36 113.75,-67.74"/>
</g>
<!-- r1_node_7&#45;&gt;r1_node_9 -->
<g id="edge6" class="edge">
<title>r1_node_7&#45;&gt;r1_node_9</title>
<path fill="none" stroke="black" d="M115.61,-74.15C102.76,-65.05 87.23,-53.18 74.48,-42.79"/>
<polygon fill="black" stroke="black" points="76.85,-40.21 66.92,-36.51 72.38,-45.59 76.85,-40.21"/>
</g>
<!-- r1_node_1 -->
<g id="node7" class="node">
<title>r1_node_1</title>
<ellipse fill="none" stroke="black" cx="108.33" cy="-162" rx="50.33" ry="18"/>
<text text-anchor="middle" x="108.33" y="-156.95" font-family="Times,serif" font-size="14.00">r1_node_1</text>
</g>
<!-- r1_node_7&#45;&gt;r1_node_1 -->
<g id="edge5" class="edge">
<title>r1_node_7&#45;&gt;r1_node_1</title>
<path fill="none" stroke="black" d="M138.28,-108.45C135.5,-116.27 131.42,-125.67 127.09,-134.34"/>
<polygon fill="black" stroke="black" points="124.05,-132.6 122.46,-143.07 130.24,-135.88 124.05,-132.6"/>
</g>
<!-- r1_node_5 -->
<g id="node5" class="node">
<title>r1_node_5</title>
<ellipse fill="none" stroke="black" cx="372.33" cy="-18" rx="50.33" ry="18"/>
<text text-anchor="middle" x="372.33" y="-12.95" font-family="Times,serif" font-size="14.00">r1_node_5</text>
</g>
<!-- r1_node_5&#45;&gt;r1_node_6 -->
<g id="edge4" class="edge">
<title>r1_node_5&#45;&gt;r1_node_6</title>
<path fill="none" stroke="black" d="M387.01,-35.69C397.13,-54.05 406.22,-84.11 396.33,-108 379.01,-149.81 363.7,-157.68 324.33,-180 274.96,-207.99 210.85,-221.38 164.49,-227.67"/>
<polygon fill="black" stroke="black" points="164.09,-224.19 154.61,-228.93 164.97,-231.14 164.09,-224.19"/>
</g>
<!-- r1_node_6&#45;&gt;r1_node_4 -->
<g id="edge16" class="edge">
<title>r1_node_6&#45;&gt;r1_node_4</title>
<path fill="none" stroke="black" d="M99.46,-252.12C95.16,-260.33 89.09,-270.32 82.95,-279.4"/>
<polygon fill="black" stroke="black" points="80.12,-277.34 77.21,-287.53 85.83,-281.38 80.12,-277.34"/>
</g>
<!-- r1_node_6&#45;&gt;r1_node_5 -->
<g id="edge13" class="edge">
<title>r1_node_6&#45;&gt;r1_node_5</title>
<path fill="none" stroke="black" d="M151.65,-227.44C194.35,-221.07 257.54,-207.66 306.33,-180 345.7,-157.68 361.01,-149.81 378.33,-108 386.35,-88.64 381.9,-65.23 377.1,-47.27"/>
<polygon fill="black" stroke="black" points="380.51,-46.49 374.43,-37.82 373.78,-48.39 380.51,-46.49"/>
</g>
<!-- r1_node_6&#45;&gt;r1_node_1 -->
<g id="edge15" class="edge">
<title>r1_node_6&#45;&gt;r1_node_1</title>
<path fill="none" stroke="black" d="M99.4,-215.7C99.06,-208.32 99.32,-199.52 100.08,-191.25"/>
<polygon fill="black" stroke="black" points="103.52,-191.96 101.27,-181.61 96.57,-191.1 103.52,-191.96"/>
</g>
<!-- r1_node_2 -->
<g id="node9" class="node">
<title>r1_node_2</title>
<ellipse fill="none" stroke="black" cx="256.33" cy="-162" rx="50.33" ry="18"/>
<text text-anchor="middle" x="256.33" y="-156.95" font-family="Times,serif" font-size="14.00">r1_node_2</text>
</g>
<!-- r1_node_6&#45;&gt;r1_node_2 -->
<g id="edge14" class="edge">
<title>r1_node_6&#45;&gt;r1_node_2</title>
<path fill="none" stroke="black" d="M130.58,-218.33C153.13,-207.3 185.92,-192.15 212.42,-180.49"/>
<polygon fill="black" stroke="black" points="213.81,-183.7 221.58,-176.49 211.01,-177.28 213.81,-183.7"/>
</g>
<!-- r1_node_1&#45;&gt;r1_node_7 -->
<g id="edge11" class="edge">
<title>r1_node_1&#45;&gt;r1_node_7</title>
<path fill="none" stroke="black" d="M110.32,-143.7C113.09,-135.87 117.18,-126.44 121.53,-117.73"/>
<polygon fill="black" stroke="black" points="124.59,-119.43 126.18,-108.96 118.4,-116.16 124.59,-119.43"/>
</g>
<!-- r1_node_1&#45;&gt;r1_node_6 -->
<g id="edge12" class="edge">
<title>r1_node_1&#45;&gt;r1_node_6</title>
<path fill="none" stroke="black" d="M113.25,-180.1C113.6,-187.45 113.34,-196.24 112.6,-204.53"/>
<polygon fill="black" stroke="black" points="109.16,-203.84 111.42,-214.19 116.11,-204.69 109.16,-203.84"/>
</g>
<!-- r1_node_10 -->
<g id="node8" class="node">
<title>r1_node_10</title>
<ellipse fill="none" stroke="black" cx="207.33" cy="-18" rx="54.93" ry="18"/>
<text text-anchor="middle" x="207.33" y="-12.95" font-family="Times,serif" font-size="14.00">r1_node_10</text>
</g>
<!-- r1_node_10&#45;&gt;r1_node_2 -->
<g id="edge7" class="edge">
<title>r1_node_10&#45;&gt;r1_node_2</title>
<path fill="none" stroke="black" d="M217.81,-36.11C228.6,-60.03 244,-103.76 252.06,-132.6"/>
<polygon fill="black" stroke="black" points="248.63,-133.34 254.55,-142.12 255.4,-131.56 248.63,-133.34"/>
</g>
<!-- r1_node_2&#45;&gt;r1_node_6 -->
<g id="edge9" class="edge">
<title>r1_node_2&#45;&gt;r1_node_6</title>
<path fill="none" stroke="black" d="M230.03,-177.7C207.45,-188.74 174.63,-203.9 148.12,-215.56"/>
<polygon fill="black" stroke="black" points="146.73,-212.35 138.96,-219.56 149.52,-218.77 146.73,-212.35"/>
</g>
<!-- r1_node_2&#45;&gt;r1_node_10 -->
<g id="edge10" class="edge">
<title>r1_node_2&#45;&gt;r1_node_10</title>
<path fill="none" stroke="black" d="M245.96,-144.15C235.16,-120.26 219.64,-76.23 211.57,-47.28"/>
<polygon fill="black" stroke="black" points="214.99,-46.52 209.07,-37.73 208.21,-48.29 214.99,-46.52"/>
</g>
<!-- r1_node_3 -->
<g id="node10" class="node">
<title>r1_node_3</title>
<ellipse fill="none" stroke="black" cx="328.33" cy="-90" rx="50.33" ry="18"/>
<text text-anchor="middle" x="328.33" y="-84.95" font-family="Times,serif" font-size="14.00">r1_node_3</text>
</g>
<!-- r1_node_2&#45;&gt;r1_node_3 -->
<g id="edge8" class="edge">
<title>r1_node_2&#45;&gt;r1_node_3</title>
<path fill="none" stroke="black" d="M267.88,-144.05C276.18,-135.05 287.53,-123.85 298.21,-114.07"/>
<polygon fill="black" stroke="black" points="300.32,-116.88 305.44,-107.6 295.65,-111.66 300.32,-116.88"/>
</g>
<!-- r1_node_3&#45;&gt;r1_node_2 -->
<g id="edge20" class="edge">
<title>r1_node_3&#45;&gt;r1_node_2</title>
<path fill="none" stroke="black" d="M316.76,-107.96C308.44,-116.98 297.07,-128.19 286.38,-137.99"/>
<polygon fill="black" stroke="black" points="284.27,-135.18 279.15,-144.46 288.94,-140.4 284.27,-135.18"/>
</g>
</g>
</svg>
