<?xml version="1.0" encoding="UTF-8" standalone="no"?>
<!DOCTYPE svg PUBLIC "-//W3C//DTD SVG 1.1//EN"
 "http://www.w3.org/Graphics/SVG/1.1/DTD/svg11.dtd">
<!-- Generated by graphviz version 12.2.1 (20241206.2353)
 -->
<!-- Pages: 1 -->
<svg width="977pt" height="476pt"
 viewBox="0.00 0.00 976.67 476.00" xmlns="http://www.w3.org/2000/svg" xmlns:xlink="http://www.w3.org/1999/xlink">
<g id="graph0" class="graph" transform="scale(1 1) rotate(0) translate(4 472)">
<polygon fill="white" stroke="none" points="-4,4 -4,-472 972.67,-472 972.67,4 -4,4"/>
<!-- r3_node_27 -->
<g id="node1" class="node">
<title>r3_node_27</title>
<ellipse fill="none" stroke="black" cx="71.33" cy="-450" rx="54.93" ry="18"/>
<text text-anchor="middle" x="71.33" y="-444.95" font-family="Times,serif" font-size="14.00">r3_node_27</text>
</g>
<!-- r3_node_21 -->
<g id="node2" class="node">
<title>r3_node_21</title>
<ellipse fill="none" stroke="black" cx="66.33" cy="-378" rx="54.93" ry="18"/>
<text text-anchor="middle" x="66.33" y="-372.95" font-family="Times,serif" font-size="14.00">r3_node_21</text>
</g>
<!-- r3_node_27&#45;&gt;r3_node_21 -->
<g id="edge1" class="edge">
<title>r3_node_27&#45;&gt;r3_node_21</title>
<path fill="none" stroke="black" d="M64.18,-431.7C62.9,-424.41 62.04,-415.73 61.72,-407.54"/>
<polygon fill="black" stroke="black" points="65.22,-407.6 61.66,-397.62 58.22,-407.64 65.22,-407.6"/>
</g>
<!-- r3_node_8 -->
<g id="node3" class="node">
<title>r3_node_8</title>
<ellipse fill="none" stroke="black" cx="212.33" cy="-162" rx="50.33" ry="18"/>
<text text-anchor="middle" x="212.33" y="-156.95" font-family="Times,serif" font-size="14.00">r3_node_8</text>
</g>
<!-- r3_node_27&#45;&gt;r3_node_8 -->
<g id="edge2" class="edge">
<title>r3_node_27&#45;&gt;r3_node_8</title>
<path fill="none" stroke="black" d="M87.6,-432.37C98.66,-422.98 112.48,-410.28 121.33,-396 165.01,-325.53 137.31,-292.05 170.33,-216 174.47,-206.46 180.14,-196.64 186.08,-188.07"/>
<polygon fill="black" stroke="black" points="188.76,-190.34 191.94,-180.23 183.15,-186.15 188.76,-190.34"/>
</g>
<!-- r3_node_2 -->
<g id="node4" class="node">
<title>r3_node_2</title>
<ellipse fill="none" stroke="black" cx="300.33" cy="-378" rx="50.33" ry="18"/>
<text text-anchor="middle" x="300.33" y="-372.95" font-family="Times,serif" font-size="14.00">r3_node_2</text>
</g>
<!-- r3_node_27&#45;&gt;r3_node_2 -->
<g id="edge3" class="edge">
<title>r3_node_27&#45;&gt;r3_node_2</title>
<path fill="none" stroke="black" d="M107.97,-436.16C146.54,-423.82 207.33,-405.22 250.29,-392.62"/>
<polygon fill="black" stroke="black" points="251.01,-396.06 259.63,-389.9 249.05,-389.34 251.01,-396.06"/>
</g>
<!-- r3_node_21&#45;&gt;r3_node_27 -->
<g id="edge38" class="edge">
<title>r3_node_21&#45;&gt;r3_node_27</title>
<path fill="none" stroke="black" d="M73.44,-396.1C74.72,-403.37 75.6,-412.04 75.93,-420.24"/>
<polygon fill="black" stroke="black" points="72.43,-420.21 76,-430.18 79.43,-420.16 72.43,-420.21"/>
</g>
<!-- r3_node_6 -->
<g id="node6" class="node">
<title>r3_node_6</title>
<ellipse fill="none" stroke="black" cx="50.33" cy="-306" rx="50.33" ry="18"/>
<text text-anchor="middle" x="50.33" y="-300.95" font-family="Times,serif" font-size="14.00">r3_node_6</text>
</g>
<!-- r3_node_21&#45;&gt;r3_node_6 -->
<g id="edge40" class="edge">
<title>r3_node_21&#45;&gt;r3_node_6</title>
<path fill="none" stroke="black" d="M56.58,-360.05C54.11,-352.68 51.83,-343.84 50.2,-335.51"/>
<polygon fill="black" stroke="black" points="53.67,-335.07 48.61,-325.77 46.77,-336.2 53.67,-335.07"/>
</g>
<!-- r3_node_4 -->
<g id="node15" class="node">
<title>r3_node_4</title>
<ellipse fill="none" stroke="black" cx="257.33" cy="-90" rx="50.33" ry="18"/>
<text text-anchor="middle" x="257.33" y="-84.95" font-family="Times,serif" font-size="14.00">r3_node_4</text>
</g>
<!-- r3_node_21&#45;&gt;r3_node_4 -->
<g id="edge39" class="edge">
<title>r3_node_21&#45;&gt;r3_node_4</title>
<path fill="none" stroke="black" d="M82.77,-360.69C91.84,-350.84 102.59,-337.59 109.33,-324 145.94,-250.23 102.21,-208.57 153.33,-144 167.12,-126.57 188.19,-114.35 207.76,-106.07"/>
<polygon fill="black" stroke="black" points="209,-109.34 217.02,-102.42 206.43,-102.83 209,-109.34"/>
</g>
<!-- r3_node_8&#45;&gt;r3_node_27 -->
<g id="edge43" class="edge">
<title>r3_node_8&#45;&gt;r3_node_27</title>
<path fill="none" stroke="black" d="M207.85,-179.96C202.1,-190.02 193.85,-203.27 188.33,-216 155.31,-292.05 183.01,-325.53 139.33,-396 131.9,-407.98 120.99,-418.85 109.98,-427.58"/>
<polygon fill="black" stroke="black" points="107.95,-424.73 102,-433.5 112.12,-430.35 107.95,-424.73"/>
</g>
<!-- r3_node_2&#45;&gt;r3_node_27 -->
<g id="edge10" class="edge">
<title>r3_node_2&#45;&gt;r3_node_27</title>
<path fill="none" stroke="black" d="M265.35,-391.31C227.62,-403.41 167.32,-421.87 123.9,-434.63"/>
<polygon fill="black" stroke="black" points="123.04,-431.24 114.42,-437.41 125,-437.96 123.04,-431.24"/>
</g>
<!-- r3_node_16 -->
<g id="node11" class="node">
<title>r3_node_16</title>
<ellipse fill="none" stroke="black" cx="576.33" cy="-306" rx="54.93" ry="18"/>
<text text-anchor="middle" x="576.33" y="-300.95" font-family="Times,serif" font-size="14.00">r3_node_16</text>
</g>
<!-- r3_node_2&#45;&gt;r3_node_16 -->
<g id="edge8" class="edge">
<title>r3_node_2&#45;&gt;r3_node_16</title>
<path fill="none" stroke="black" d="M338.51,-365.92C379.41,-355.33 445.83,-338.82 503.33,-324 508.82,-322.58 514.58,-321.08 520.35,-319.58"/>
<polygon fill="black" stroke="black" points="521.15,-322.99 529.96,-317.09 519.4,-316.21 521.15,-322.99"/>
</g>
<!-- r3_node_19 -->
<g id="node12" class="node">
<title>r3_node_19</title>
<ellipse fill="none" stroke="black" cx="320.33" cy="-306" rx="54.93" ry="18"/>
<text text-anchor="middle" x="320.33" y="-300.95" font-family="Times,serif" font-size="14.00">r3_node_19</text>
</g>
<!-- r3_node_2&#45;&gt;r3_node_19 -->
<g id="edge9" class="edge">
<title>r3_node_2&#45;&gt;r3_node_19</title>
<path fill="none" stroke="black" d="M299.36,-359.7C300.73,-352.15 303.08,-343.12 305.8,-334.68"/>
<polygon fill="black" stroke="black" points="309,-336.13 309.04,-325.53 302.4,-333.79 309,-336.13"/>
</g>
<!-- r3_node_15 -->
<g id="node13" class="node">
<title>r3_node_15</title>
<ellipse fill="none" stroke="black" cx="448.33" cy="-306" rx="54.93" ry="18"/>
<text text-anchor="middle" x="448.33" y="-300.95" font-family="Times,serif" font-size="14.00">r3_node_15</text>
</g>
<!-- r3_node_2&#45;&gt;r3_node_15 -->
<g id="edge11" class="edge">
<title>r3_node_2&#45;&gt;r3_node_15</title>
<path fill="none" stroke="black" d="M326.08,-362.15C347.62,-351.33 378.65,-336.59 404.11,-325.08"/>
<polygon fill="black" stroke="black" points="405.21,-328.42 412.9,-321.14 402.34,-322.04 405.21,-328.42"/>
</g>
<!-- r3_node_1 -->
<g id="node5" class="node">
<title>r3_node_1</title>
<ellipse fill="none" stroke="black" cx="97.33" cy="-90" rx="50.33" ry="18"/>
<text text-anchor="middle" x="97.33" y="-84.95" font-family="Times,serif" font-size="14.00">r3_node_1</text>
</g>
<!-- r3_node_1&#45;&gt;r3_node_6 -->
<g id="edge4" class="edge">
<title>r3_node_1&#45;&gt;r3_node_6</title>
<path fill="none" stroke="black" d="M97.43,-108.23C92.84,-145.09 74.07,-231.87 61.25,-276.86"/>
<polygon fill="black" stroke="black" points="57.91,-275.82 58.4,-286.4 64.62,-277.82 57.91,-275.82"/>
</g>
<!-- r3_node_6&#45;&gt;r3_node_21 -->
<g id="edge28" class="edge">
<title>r3_node_6&#45;&gt;r3_node_21</title>
<path fill="none" stroke="black" d="M60.13,-324.1C62.58,-331.45 64.84,-340.24 66.46,-348.53"/>
<polygon fill="black" stroke="black" points="62.98,-348.9 68.04,-358.2 69.89,-347.77 62.98,-348.9"/>
</g>
<!-- r3_node_6&#45;&gt;r3_node_1 -->
<g id="edge27" class="edge">
<title>r3_node_6&#45;&gt;r3_node_1</title>
<path fill="none" stroke="black" d="M50.22,-287.85C54.78,-251.07 73.55,-164.29 86.38,-119.24"/>
<polygon fill="black" stroke="black" points="89.72,-120.27 89.23,-109.68 83.02,-118.27 89.72,-120.27"/>
</g>
<!-- r3_node_20 -->
<g id="node7" class="node">
<title>r3_node_20</title>
<ellipse fill="none" stroke="black" cx="639.33" cy="-90" rx="54.93" ry="18"/>
<text text-anchor="middle" x="639.33" y="-84.95" font-family="Times,serif" font-size="14.00">r3_node_20</text>
</g>
<!-- r3_node_9 -->
<g id="node8" class="node">
<title>r3_node_9</title>
<ellipse fill="none" stroke="black" cx="450.33" cy="-18" rx="50.33" ry="18"/>
<text text-anchor="middle" x="450.33" y="-12.95" font-family="Times,serif" font-size="14.00">r3_node_9</text>
</g>
<!-- r3_node_20&#45;&gt;r3_node_9 -->
<g id="edge5" class="edge">
<title>r3_node_20&#45;&gt;r3_node_9</title>
<path fill="none" stroke="black" d="M603.78,-75.83C573.04,-64.45 528.43,-47.93 495.23,-35.63"/>
<polygon fill="black" stroke="black" points="496.46,-32.35 485.86,-32.16 494.03,-38.92 496.46,-32.35"/>
</g>
<!-- r3_node_7 -->
<g id="node9" class="node">
<title>r3_node_7</title>
<ellipse fill="none" stroke="black" cx="645.33" cy="-162" rx="50.33" ry="18"/>
<text text-anchor="middle" x="645.33" y="-156.95" font-family="Times,serif" font-size="14.00">r3_node_7</text>
</g>
<!-- r3_node_20&#45;&gt;r3_node_7 -->
<g id="edge6" class="edge">
<title>r3_node_20&#45;&gt;r3_node_7</title>
<path fill="none" stroke="black" d="M646.69,-108.1C648.07,-115.37 649.07,-124.04 649.52,-132.24"/>
<polygon fill="black" stroke="black" points="646.02,-132.26 649.73,-142.18 653.01,-132.11 646.02,-132.26"/>
</g>
<!-- r3_node_24 -->
<g id="node10" class="node">
<title>r3_node_24</title>
<ellipse fill="none" stroke="black" cx="327.33" cy="-18" rx="54.93" ry="18"/>
<text text-anchor="middle" x="327.33" y="-12.95" font-family="Times,serif" font-size="14.00">r3_node_24</text>
</g>
<!-- r3_node_20&#45;&gt;r3_node_24 -->
<g id="edge7" class="edge">
<title>r3_node_20&#45;&gt;r3_node_24</title>
<path fill="none" stroke="black" d="M596.45,-78.31C587.5,-76.16 578.12,-73.96 569.33,-72 490.54,-54.47 469.92,-54.37 391.33,-36 387.52,-35.11 383.59,-34.16 379.64,-33.17"/>
<polygon fill="black" stroke="black" points="380.57,-29.8 370.02,-30.71 378.84,-36.58 380.57,-29.8"/>
</g>
<!-- r3_node_7&#45;&gt;r3_node_20 -->
<g id="edge35" class="edge">
<title>r3_node_7&#45;&gt;r3_node_20</title>
<path fill="none" stroke="black" d="M638,-144.05C636.58,-136.68 635.57,-127.84 635.13,-119.51"/>
<polygon fill="black" stroke="black" points="638.63,-119.71 634.93,-109.79 631.63,-119.86 638.63,-119.71"/>
</g>
<!-- r3_node_18 -->
<g id="node18" class="node">
<title>r3_node_18</title>
<ellipse fill="none" stroke="black" cx="690.33" cy="-234" rx="54.93" ry="18"/>
<text text-anchor="middle" x="690.33" y="-228.95" font-family="Times,serif" font-size="14.00">r3_node_18</text>
</g>
<!-- r3_node_7&#45;&gt;r3_node_18 -->
<g id="edge37" class="edge">
<title>r3_node_7&#45;&gt;r3_node_18</title>
<path fill="none" stroke="black" d="M661.5,-179.14C667.5,-187.09 674.07,-196.89 679.52,-205.94"/>
<polygon fill="black" stroke="black" points="676.36,-207.45 684.37,-214.38 682.43,-203.97 676.36,-207.45"/>
</g>
<!-- r3_node_3 -->
<g id="node22" class="node">
<title>r3_node_3</title>
<ellipse fill="none" stroke="black" cx="510.33" cy="-90" rx="50.33" ry="18"/>
<text text-anchor="middle" x="510.33" y="-84.95" font-family="Times,serif" font-size="14.00">r3_node_3</text>
</g>
<!-- r3_node_7&#45;&gt;r3_node_3 -->
<g id="edge36" class="edge">
<title>r3_node_7&#45;&gt;r3_node_3</title>
<path fill="none" stroke="black" d="M617.68,-146.67C597.57,-136.24 570.11,-122 547.99,-110.53"/>
<polygon fill="black" stroke="black" points="549.77,-107.51 539.28,-106.01 546.55,-113.72 549.77,-107.51"/>
</g>
<!-- r3_node_16&#45;&gt;r3_node_2 -->
<g id="edge18" class="edge">
<title>r3_node_16&#45;&gt;r3_node_2</title>
<path fill="none" stroke="black" d="M538.79,-319.43C532.96,-320.98 527.01,-322.54 521.33,-324 464.43,-338.67 398.78,-354.99 353.81,-365.59"/>
<polygon fill="black" stroke="black" points="353.25,-362.13 344.31,-367.81 354.84,-368.94 353.25,-362.13"/>
</g>
<!-- r3_node_16&#45;&gt;r3_node_18 -->
<g id="edge19" class="edge">
<title>r3_node_16&#45;&gt;r3_node_18</title>
<path fill="none" stroke="black" d="M596.7,-288.94C611.87,-278.93 632.86,-265.96 651.18,-255.24"/>
<polygon fill="black" stroke="black" points="652.8,-258.34 659.71,-250.31 649.3,-252.28 652.8,-258.34"/>
</g>
<!-- r3_node_19&#45;&gt;r3_node_2 -->
<g id="edge25" class="edge">
<title>r3_node_19&#45;&gt;r3_node_2</title>
<path fill="none" stroke="black" d="M321.3,-324.28C319.92,-331.86 317.56,-340.95 314.82,-349.43"/>
<polygon fill="black" stroke="black" points="311.6,-348.03 311.55,-358.63 318.2,-350.37 311.6,-348.03"/>
</g>
<!-- r3_node_12 -->
<g id="node17" class="node">
<title>r3_node_12</title>
<ellipse fill="none" stroke="black" cx="277.33" cy="-234" rx="54.93" ry="18"/>
<text text-anchor="middle" x="277.33" y="-228.95" font-family="Times,serif" font-size="14.00">r3_node_12</text>
</g>
<!-- r3_node_19&#45;&gt;r3_node_12 -->
<g id="edge26" class="edge">
<title>r3_node_19&#45;&gt;r3_node_12</title>
<path fill="none" stroke="black" d="M304.3,-288.41C298.58,-280.51 292.4,-270.85 287.29,-261.94"/>
<polygon fill="black" stroke="black" points="290.44,-260.4 282.59,-253.29 284.29,-263.74 290.44,-260.4"/>
</g>
<!-- r3_node_15&#45;&gt;r3_node_2 -->
<g id="edge21" class="edge">
<title>r3_node_15&#45;&gt;r3_node_2</title>
<path fill="none" stroke="black" d="M422.02,-322.12C400.27,-333.05 369.1,-347.83 343.7,-359.3"/>
<polygon fill="black" stroke="black" points="342.29,-356.1 334.59,-363.38 345.15,-362.49 342.29,-356.1"/>
</g>
<!-- r3_node_15&#45;&gt;r3_node_4 -->
<g id="edge23" class="edge">
<title>r3_node_15&#45;&gt;r3_node_4</title>
<path fill="none" stroke="black" d="M435.51,-288.48C412.19,-258.7 360.84,-194.46 313.33,-144 304.05,-134.15 293.37,-123.82 283.84,-114.92"/>
<polygon fill="black" stroke="black" points="286.32,-112.44 276.6,-108.23 281.57,-117.59 286.32,-112.44"/>
</g>
<!-- r3_node_5 -->
<g id="node19" class="node">
<title>r3_node_5</title>
<ellipse fill="none" stroke="black" cx="461.33" cy="-162" rx="50.33" ry="18"/>
<text text-anchor="middle" x="461.33" y="-156.95" font-family="Times,serif" font-size="14.00">r3_node_5</text>
</g>
<!-- r3_node_15&#45;&gt;r3_node_5 -->
<g id="edge20" class="edge">
<title>r3_node_15&#45;&gt;r3_node_5</title>
<path fill="none" stroke="black" d="M445.31,-287.59C445,-263.61 448.68,-220.14 453.2,-191.42"/>
<polygon fill="black" stroke="black" points="456.64,-192.06 454.92,-181.6 449.74,-190.85 456.64,-192.06"/>
</g>
<!-- r3_node_14 -->
<g id="node20" class="node">
<title>r3_node_14</title>
<ellipse fill="none" stroke="black" cx="541.33" cy="-234" rx="54.93" ry="18"/>
<text text-anchor="middle" x="541.33" y="-228.95" font-family="Times,serif" font-size="14.00">r3_node_14</text>
</g>
<!-- r3_node_15&#45;&gt;r3_node_14 -->
<g id="edge22" class="edge">
<title>r3_node_15&#45;&gt;r3_node_14</title>
<path fill="none" stroke="black" d="M464.53,-288.41C476.09,-278.93 491.89,-266.92 506.21,-256.69"/>
<polygon fill="black" stroke="black" points="507.94,-259.76 514.11,-251.14 503.91,-254.03 507.94,-259.76"/>
</g>
<!-- r3_node_23 -->
<g id="node14" class="node">
<title>r3_node_23</title>
<ellipse fill="none" stroke="black" cx="202.33" cy="-450" rx="54.93" ry="18"/>
<text text-anchor="middle" x="202.33" y="-444.95" font-family="Times,serif" font-size="14.00">r3_node_23</text>
</g>
<!-- r3_node_23&#45;&gt;r3_node_9 -->
<g id="edge13" class="edge">
<title>r3_node_23&#45;&gt;r3_node_9</title>
<path fill="none" stroke="black" d="M252.98,-442.57C337.84,-430.09 512.04,-397.15 640.33,-324 660.54,-312.48 659.13,-301.14 678.33,-288 709.17,-266.88 734.34,-283.58 754.33,-252 771.07,-225.54 737.72,-102.07 703.33,-72 675.04,-47.27 575.52,-32.22 510.05,-24.76"/>
<polygon fill="black" stroke="black" points="510.48,-21.29 500.15,-23.67 509.71,-28.24 510.48,-21.29"/>
</g>
<!-- r3_node_23&#45;&gt;r3_node_4 -->
<g id="edge12" class="edge">
<title>r3_node_23&#45;&gt;r3_node_4</title>
<path fill="none" stroke="black" d="M198.06,-431.69C189,-390.82 171.89,-286.53 213.33,-216 228.7,-189.84 256.58,-206.51 271.33,-180 281.72,-161.32 277.03,-137.23 270.4,-118.82"/>
<polygon fill="black" stroke="black" points="273.67,-117.58 266.7,-109.6 267.17,-120.18 273.67,-117.58"/>
</g>
<!-- r3_node_22 -->
<g id="node16" class="node">
<title>r3_node_22</title>
<ellipse fill="none" stroke="black" cx="660.33" cy="-378" rx="54.93" ry="18"/>
<text text-anchor="middle" x="660.33" y="-372.95" font-family="Times,serif" font-size="14.00">r3_node_22</text>
</g>
<!-- r3_node_23&#45;&gt;r3_node_22 -->
<g id="edge14" class="edge">
<title>r3_node_23&#45;&gt;r3_node_22</title>
<path fill="none" stroke="black" d="M250.37,-440.97C334.27,-427.69 507.04,-401.28 599.28,-387.62"/>
<polygon fill="black" stroke="black" points="599.78,-391.09 609.16,-386.17 598.75,-384.16 599.78,-391.09"/>
</g>
<!-- r3_node_22&#45;&gt;r3_node_23 -->
<g id="edge44" class="edge">
<title>r3_node_22&#45;&gt;r3_node_23</title>
<path fill="none" stroke="black" d="M612.08,-387.06C528.16,-400.34 355.74,-426.7 263.54,-440.35"/>
<polygon fill="black" stroke="black" points="263.04,-436.89 253.66,-441.81 264.06,-443.81 263.04,-436.89"/>
</g>
<!-- r3_node_10 -->
<g id="node21" class="node">
<title>r3_node_10</title>
<ellipse fill="none" stroke="black" cx="846.33" cy="-18" rx="54.93" ry="18"/>
<text text-anchor="middle" x="846.33" y="-12.95" font-family="Times,serif" font-size="14.00">r3_node_10</text>
</g>
<!-- r3_node_22&#45;&gt;r3_node_10 -->
<g id="edge45" class="edge">
<title>r3_node_22&#45;&gt;r3_node_10</title>
<path fill="none" stroke="black" d="M714.33,-374.03C783.9,-369.05 898.77,-356.19 925.33,-324 995.12,-239.41 903.25,-102.05 863.09,-45.06"/>
<polygon fill="black" stroke="black" points="866.19,-43.38 857.55,-37.24 860.47,-47.42 866.19,-43.38"/>
</g>
<!-- r3_node_11 -->
<g id="node23" class="node">
<title>r3_node_11</title>
<ellipse fill="none" stroke="black" cx="870.33" cy="-306" rx="54.93" ry="18"/>
<text text-anchor="middle" x="870.33" y="-300.95" font-family="Times,serif" font-size="14.00">r3_node_11</text>
</g>
<!-- r3_node_22&#45;&gt;r3_node_11 -->
<g id="edge46" class="edge">
<title>r3_node_22&#45;&gt;r3_node_11</title>
<path fill="none" stroke="black" d="M694.89,-363.67C728.89,-351.78 781,-334.38 819.66,-322"/>
<polygon fill="black" stroke="black" points="820.27,-325.48 828.74,-319.11 818.15,-318.81 820.27,-325.48"/>
</g>
<!-- r3_node_28 -->
<g id="node25" class="node">
<title>r3_node_28</title>
<ellipse fill="none" stroke="black" cx="742.33" cy="-306" rx="54.93" ry="18"/>
<text text-anchor="middle" x="742.33" y="-300.95" font-family="Times,serif" font-size="14.00">r3_node_28</text>
</g>
<!-- r3_node_22&#45;&gt;r3_node_28 -->
<g id="edge47" class="edge">
<title>r3_node_22&#45;&gt;r3_node_28</title>
<path fill="none" stroke="black" d="M673.92,-360.41C683.74,-351.17 697.19,-339.54 709.63,-329.49"/>
<polygon fill="black" stroke="black" points="711.59,-332.4 717.25,-323.45 707.24,-326.92 711.59,-332.4"/>
</g>
<!-- r3_node_12&#45;&gt;r3_node_8 -->
<g id="edge16" class="edge">
<title>r3_node_12&#45;&gt;r3_node_8</title>
<path fill="none" stroke="black" d="M261.92,-216.41C253.99,-207.87 244.16,-197.28 235.34,-187.79"/>
<polygon fill="black" stroke="black" points="238.02,-185.53 228.65,-180.58 232.89,-190.29 238.02,-185.53"/>
</g>
<!-- r3_node_12&#45;&gt;r3_node_24 -->
<g id="edge15" class="edge">
<title>r3_node_12&#45;&gt;r3_node_24</title>
<path fill="none" stroke="black" d="M291.75,-216.56C299.56,-206.66 308.56,-193.41 313.33,-180 329.08,-135.7 330.21,-80.4 329.11,-47.49"/>
<polygon fill="black" stroke="black" points="332.61,-47.39 328.67,-37.56 325.62,-47.7 332.61,-47.39"/>
</g>
<!-- r3_node_12&#45;&gt;r3_node_19 -->
<g id="edge17" class="edge">
<title>r3_node_12&#45;&gt;r3_node_19</title>
<path fill="none" stroke="black" d="M293.38,-251.62C299.04,-259.44 305.14,-268.97 310.22,-277.8"/>
<polygon fill="black" stroke="black" points="307.03,-279.26 314.89,-286.37 313.18,-275.91 307.03,-279.26"/>
</g>
<!-- r3_node_18&#45;&gt;r3_node_7 -->
<g id="edge41" class="edge">
<title>r3_node_18&#45;&gt;r3_node_7</title>
<path fill="none" stroke="black" d="M673.82,-216.41C667.88,-208.51 661.42,-198.85 656.06,-189.94"/>
<polygon fill="black" stroke="black" points="659.1,-188.21 651.1,-181.27 653.03,-191.69 659.1,-188.21"/>
</g>
<!-- r3_node_18&#45;&gt;r3_node_16 -->
<g id="edge42" class="edge">
<title>r3_node_18&#45;&gt;r3_node_16</title>
<path fill="none" stroke="black" d="M670.12,-250.95C654.93,-260.99 633.82,-274.03 615.43,-284.79"/>
<polygon fill="black" stroke="black" points="613.76,-281.71 606.85,-289.74 617.26,-287.77 613.76,-281.71"/>
</g>
<!-- r3_node_5&#45;&gt;r3_node_9 -->
<g id="edge29" class="edge">
<title>r3_node_5&#45;&gt;r3_node_9</title>
<path fill="none" stroke="black" d="M457.32,-143.92C455.09,-133.59 452.53,-120.11 451.33,-108 449.34,-87.98 449.12,-65.31 449.38,-47.86"/>
<polygon fill="black" stroke="black" points="452.87,-48.03 449.59,-37.96 445.87,-47.88 452.87,-48.03"/>
</g>
<!-- r3_node_5&#45;&gt;r3_node_15 -->
<g id="edge30" class="edge">
<title>r3_node_5&#45;&gt;r3_node_15</title>
<path fill="none" stroke="black" d="M464.35,-180.19C464.68,-204.21 460.96,-248.11 456.4,-276.91"/>
<polygon fill="black" stroke="black" points="453.02,-275.93 454.74,-286.38 459.92,-277.14 453.02,-275.93"/>
</g>
<!-- r3_node_14&#45;&gt;r3_node_15 -->
<g id="edge48" class="edge">
<title>r3_node_14&#45;&gt;r3_node_15</title>
<path fill="none" stroke="black" d="M525.08,-251.63C513.49,-261.13 497.65,-273.16 483.33,-283.39"/>
<polygon fill="black" stroke="black" points="481.6,-280.33 475.42,-288.94 485.62,-286.06 481.6,-280.33"/>
</g>
<!-- r3_node_14&#45;&gt;r3_node_3 -->
<g id="edge50" class="edge">
<title>r3_node_14&#45;&gt;r3_node_3</title>
<path fill="none" stroke="black" d="M537.53,-215.59C532.27,-191.5 522.72,-147.75 516.45,-119.03"/>
<polygon fill="black" stroke="black" points="519.94,-118.61 514.39,-109.59 513.1,-120.11 519.94,-118.61"/>
</g>
<!-- r3_node_17 -->
<g id="node24" class="node">
<title>r3_node_17</title>
<ellipse fill="none" stroke="black" cx="670.33" cy="-18" rx="54.93" ry="18"/>
<text text-anchor="middle" x="670.33" y="-12.95" font-family="Times,serif" font-size="14.00">r3_node_17</text>
</g>
<!-- r3_node_14&#45;&gt;r3_node_17 -->
<g id="edge49" class="edge">
<title>r3_node_14&#45;&gt;r3_node_17</title>
<path fill="none" stroke="black" d="M587.81,-224.18C630.91,-214.95 690.42,-199.14 704.33,-180 709.9,-172.33 712.92,-104.68 703.33,-72 700.55,-62.54 695.58,-53.1 690.32,-44.87"/>
<polygon fill="black" stroke="black" points="693.3,-43.03 684.75,-36.76 687.53,-46.99 693.3,-43.03"/>
</g>
<!-- r3_node_10&#45;&gt;r3_node_22 -->
<g id="edge24" class="edge">
<title>r3_node_10&#45;&gt;r3_node_22</title>
<path fill="none" stroke="black" d="M864.03,-35.29C909.05,-84.56 1017.51,-234.09 943.33,-324 916.67,-356.3 801.07,-369.15 726.03,-374.08"/>
<polygon fill="black" stroke="black" points="726.09,-370.57 716.32,-374.69 726.52,-377.56 726.09,-370.57"/>
</g>
<!-- r3_node_11&#45;&gt;r3_node_22 -->
<g id="edge31" class="edge">
<title>r3_node_11&#45;&gt;r3_node_22</title>
<path fill="none" stroke="black" d="M835.65,-320.37C801.56,-332.29 749.33,-349.73 710.68,-362.1"/>
<polygon fill="black" stroke="black" points="710.08,-358.61 701.61,-364.98 712.2,-365.28 710.08,-358.61"/>
</g>
<!-- r3_node_11&#45;&gt;r3_node_17 -->
<g id="edge32" class="edge">
<title>r3_node_11&#45;&gt;r3_node_17</title>
<path fill="none" stroke="black" d="M864.99,-287.76C851.39,-246.16 811.85,-138.78 747.33,-72 735.62,-59.89 720.75,-48.88 707.2,-40.08"/>
<polygon fill="black" stroke="black" points="709.25,-37.23 698.92,-34.88 705.53,-43.16 709.25,-37.23"/>
</g>
<!-- r3_node_28&#45;&gt;r3_node_22 -->
<g id="edge34" class="edge">
<title>r3_node_28&#45;&gt;r3_node_22</title>
<path fill="none" stroke="black" d="M728.6,-323.71C718.8,-332.93 705.4,-344.51 693.02,-354.51"/>
<polygon fill="black" stroke="black" points="691.1,-351.57 685.43,-360.52 695.44,-357.06 691.1,-351.57"/>
</g>
<!-- r3_node_28&#45;&gt;r3_node_17 -->
<g id="edge33" class="edge">
<title>r3_node_28&#45;&gt;r3_node_17</title>
<path fill="none" stroke="black" d="M765.99,-289.33C777.79,-280.04 790.89,-267.13 797.33,-252 803.59,-237.28 801.22,-231.52 797.33,-216 779.69,-145.6 762.71,-130.91 720.33,-72 713.12,-61.99 704.16,-51.91 695.81,-43.28"/>
<polygon fill="black" stroke="black" points="698.36,-40.88 688.83,-36.25 693.39,-45.81 698.36,-40.88"/>
</g>
</g>
</svg>
