<?xml version="1.0" encoding="UTF-8" standalone="no"?>
<!DOCTYPE svg PUBLIC "-//W3C//DTD SVG 1.1//EN"
 "http://www.w3.org/Graphics/SVG/1.1/DTD/svg11.dtd">
<!-- Generated by graphviz version 12.2.1 (20241206.2353)
 -->
<!-- Pages: 1 -->
<svg width="729pt" height="116pt"
 viewBox="0.00 0.00 729.26 116.00" xmlns="http://www.w3.org/2000/svg" xmlns:xlink="http://www.w3.org/1999/xlink">
<g id="graph0" class="graph" transform="scale(1 1) rotate(0) translate(4 112)">
<polygon fill="white" stroke="none" points="-4,4 -4,-112 725.26,-112 725.26,4 -4,4"/>
<!-- r3_node_2 -->
<g id="node1" class="node">
<title>r3_node_2</title>
<ellipse fill="none" stroke="black" cx="50.33" cy="-18" rx="50.33" ry="18"/>
<text text-anchor="middle" x="50.33" y="-12.95" font-family="Times,serif" font-size="14.00">r3_node_2</text>
</g>
<!-- r3_node_5 -->
<g id="node2" class="node">
<title>r3_node_5</title>
<ellipse fill="none" stroke="black" cx="169.33" cy="-18" rx="50.33" ry="18"/>
<text text-anchor="middle" x="169.33" y="-12.95" font-family="Times,serif" font-size="14.00">r3_node_5</text>
</g>
<!-- r3_node_10 -->
<g id="node3" class="node">
<title>r3_node_10</title>
<ellipse fill="none" stroke="black" cx="292.33" cy="-18" rx="54.93" ry="18"/>
<text text-anchor="middle" x="292.33" y="-12.95" font-family="Times,serif" font-size="14.00">r3_node_10</text>
</g>
<!-- r3_node_7 -->
<g id="node4" class="node">
<title>r3_node_7</title>
<ellipse fill="none" stroke="black" cx="415.33" cy="-18" rx="50.33" ry="18"/>
<text text-anchor="middle" x="415.33" y="-12.95" font-family="Times,serif" font-size="14.00">r3_node_7</text>
</g>
<!-- r3_node_15 -->
<g id="node5" class="node">
<title>r3_node_15</title>
<ellipse fill="none" stroke="black" cx="538.33" cy="-18" rx="54.93" ry="18"/>
<text text-anchor="middle" x="538.33" y="-12.95" font-family="Times,serif" font-size="14.00">r3_node_15</text>
</g>
<!-- r3_node_14 -->
<g id="node6" class="node">
<title>r3_node_14</title>
<ellipse fill="none" stroke="black" cx="666.33" cy="-18" rx="54.93" ry="18"/>
<text text-anchor="middle" x="666.33" y="-12.95" font-family="Times,serif" font-size="14.00">r3_node_14</text>
</g>
<!-- r3_node_13 -->
<g id="node7" class="node">
<title>r3_node_13</title>
<ellipse fill="none" stroke="black" cx="109.33" cy="-90" rx="54.93" ry="18"/>
<text text-anchor="middle" x="109.33" y="-84.95" font-family="Times,serif" font-size="14.00">r3_node_13</text>
</g>
<!-- r3_node_13&#45;&gt;r3_node_2 -->
<g id="edge3" class="edge">
<title>r3_node_13&#45;&gt;r3_node_2</title>
<path fill="none" stroke="black" d="M95.35,-72.41C88.22,-63.95 79.4,-53.49 71.47,-44.08"/>
<polygon fill="black" stroke="black" points="74.31,-42.02 65.19,-36.63 68.95,-46.53 74.31,-42.02"/>
</g>
<!-- r3_node_13&#45;&gt;r3_node_5 -->
<g id="edge4" class="edge">
<title>r3_node_13&#45;&gt;r3_node_5</title>
<path fill="none" stroke="black" d="M123.55,-72.41C130.8,-63.95 139.76,-53.49 147.83,-44.08"/>
<polygon fill="black" stroke="black" points="150.38,-46.49 154.23,-36.62 145.06,-41.93 150.38,-46.49"/>
</g>
<!-- r3_node_13&#45;&gt;r3_node_10 -->
<g id="edge5" class="edge">
<title>r3_node_13&#45;&gt;r3_node_10</title>
<path fill="none" stroke="black" d="M144.18,-75.67C173.43,-64.48 215.43,-48.42 247.24,-36.25"/>
<polygon fill="black" stroke="black" points="248.1,-39.66 256.19,-32.82 245.6,-33.13 248.1,-39.66"/>
</g>
<!-- r3_node_13&#45;&gt;r3_node_7 -->
<g id="edge6" class="edge">
<title>r3_node_13&#45;&gt;r3_node_7</title>
<path fill="none" stroke="black" d="M155.53,-80.08C205.32,-70.24 286.78,-53.46 356.33,-36 359.68,-35.16 363.14,-34.26 366.61,-33.32"/>
<polygon fill="black" stroke="black" points="367.5,-36.71 376.2,-30.68 365.63,-29.96 367.5,-36.71"/>
</g>
<!-- r3_node_13&#45;&gt;r3_node_15 -->
<g id="edge1" class="edge">
<title>r3_node_13&#45;&gt;r3_node_15</title>
<path fill="none" stroke="black" d="M161.03,-83.4C232.06,-75.27 363.61,-58.67 474.33,-36 478.4,-35.17 482.59,-34.23 486.8,-33.24"/>
<polygon fill="black" stroke="black" points="487.53,-36.66 496.4,-30.87 485.85,-29.87 487.53,-36.66"/>
</g>
<!-- r3_node_13&#45;&gt;r3_node_14 -->
<g id="edge2" class="edge">
<title>r3_node_13&#45;&gt;r3_node_14</title>
<path fill="none" stroke="black" d="M163.34,-85.9C254.46,-80.06 444.26,-65.31 602.33,-36 606.59,-35.21 610.99,-34.28 615.39,-33.28"/>
<polygon fill="black" stroke="black" points="615.89,-36.76 624.78,-31 614.24,-29.95 615.89,-36.76"/>
</g>
</g>
</svg>
