<?xml version="1.0" encoding="UTF-8" standalone="no"?>
<!DOCTYPE svg PUBLIC "-//W3C//DTD SVG 1.1//EN"
 "http://www.w3.org/Graphics/SVG/1.1/DTD/svg11.dtd">
<!-- Generated by graphviz version 12.2.1 (20241206.2353)
 -->
<!-- Pages: 1 -->
<svg width="1604pt" height="476pt"
 viewBox="0.00 0.00 1604.07 476.00" xmlns="http://www.w3.org/2000/svg" xmlns:xlink="http://www.w3.org/1999/xlink">
<g id="graph0" class="graph" transform="scale(1 1) rotate(0) translate(4 472)">
<polygon fill="white" stroke="none" points="-4,4 -4,-472 1600.07,-472 1600.07,4 -4,4"/>
<!-- r3_node_23 -->
<g id="node1" class="node">
<title>r3_node_23</title>
<ellipse fill="none" stroke="black" cx="253.33" cy="-18" rx="54.93" ry="18"/>
<text text-anchor="middle" x="253.33" y="-12.95" font-family="Times,serif" font-size="14.00">r3_node_23</text>
</g>
<!-- r3_node_10 -->
<g id="node2" class="node">
<title>r3_node_10</title>
<ellipse fill="none" stroke="black" cx="363.33" cy="-234" rx="54.93" ry="18"/>
<text text-anchor="middle" x="363.33" y="-228.95" font-family="Times,serif" font-size="14.00">r3_node_10</text>
</g>
<!-- r3_node_5 -->
<g id="node3" class="node">
<title>r3_node_5</title>
<ellipse fill="none" stroke="black" cx="324.33" cy="-306" rx="50.33" ry="18"/>
<text text-anchor="middle" x="324.33" y="-300.95" font-family="Times,serif" font-size="14.00">r3_node_5</text>
</g>
<!-- r3_node_10&#45;&gt;r3_node_5 -->
<g id="edge1" class="edge">
<title>r3_node_10&#45;&gt;r3_node_5</title>
<path fill="none" stroke="black" d="M359.54,-252.45C355.9,-260.44 350.73,-270.08 345.41,-278.92"/>
<polygon fill="black" stroke="black" points="342.6,-276.81 340.22,-287.13 348.52,-280.55 342.6,-276.81"/>
</g>
<!-- r3_node_22 -->
<g id="node4" class="node">
<title>r3_node_22</title>
<ellipse fill="none" stroke="black" cx="281.33" cy="-162" rx="54.93" ry="18"/>
<text text-anchor="middle" x="281.33" y="-156.95" font-family="Times,serif" font-size="14.00">r3_node_22</text>
</g>
<!-- r3_node_10&#45;&gt;r3_node_22 -->
<g id="edge2" class="edge">
<title>r3_node_10&#45;&gt;r3_node_22</title>
<path fill="none" stroke="black" d="M344.31,-216.76C333.75,-207.75 320.44,-196.39 308.77,-186.43"/>
<polygon fill="black" stroke="black" points="311.27,-183.96 301.39,-180.13 306.73,-189.28 311.27,-183.96"/>
</g>
<!-- r3_node_28 -->
<g id="node5" class="node">
<title>r3_node_28</title>
<ellipse fill="none" stroke="black" cx="410.33" cy="-162" rx="54.93" ry="18"/>
<text text-anchor="middle" x="410.33" y="-156.95" font-family="Times,serif" font-size="14.00">r3_node_28</text>
</g>
<!-- r3_node_10&#45;&gt;r3_node_28 -->
<g id="edge3" class="edge">
<title>r3_node_10&#45;&gt;r3_node_28</title>
<path fill="none" stroke="black" d="M374.71,-216.05C380.13,-207.97 386.75,-198.12 392.8,-189.11"/>
<polygon fill="black" stroke="black" points="395.54,-191.3 398.21,-181.05 389.73,-187.4 395.54,-191.3"/>
</g>
<!-- r3_node_5&#45;&gt;r3_node_10 -->
<g id="edge20" class="edge">
<title>r3_node_5&#45;&gt;r3_node_10</title>
<path fill="none" stroke="black" d="M328.05,-287.7C331.68,-279.7 336.86,-270.02 342.2,-261.15"/>
<polygon fill="black" stroke="black" points="345.03,-263.23 347.41,-252.9 339.11,-259.49 345.03,-263.23"/>
</g>
<!-- r3_node_25 -->
<g id="node6" class="node">
<title>r3_node_25</title>
<ellipse fill="none" stroke="black" cx="113.33" cy="-18" rx="54.93" ry="18"/>
<text text-anchor="middle" x="113.33" y="-12.95" font-family="Times,serif" font-size="14.00">r3_node_25</text>
</g>
<!-- r3_node_5&#45;&gt;r3_node_25 -->
<g id="edge22" class="edge">
<title>r3_node_5&#45;&gt;r3_node_25</title>
<path fill="none" stroke="black" d="M358.57,-292.66C380.03,-283.72 407.32,-270.05 427.33,-252 466.2,-216.94 507.96,-184.12 474.33,-144 415.46,-73.78 357.58,-138.92 271.33,-108 224.8,-91.32 175.91,-61.62 145.06,-41.15"/>
<polygon fill="black" stroke="black" points="147.21,-38.38 136.96,-35.7 143.3,-44.18 147.21,-38.38"/>
</g>
<!-- r3_node_13 -->
<g id="node24" class="node">
<title>r3_node_13</title>
<ellipse fill="none" stroke="black" cx="306.33" cy="-450" rx="54.93" ry="18"/>
<text text-anchor="middle" x="306.33" y="-444.95" font-family="Times,serif" font-size="14.00">r3_node_13</text>
</g>
<!-- r3_node_5&#45;&gt;r3_node_13 -->
<g id="edge21" class="edge">
<title>r3_node_5&#45;&gt;r3_node_13</title>
<path fill="none" stroke="black" d="M332.03,-324.19C335.02,-342.2 335.26,-371.27 331.33,-396 329.96,-404.61 327.55,-413.78 324.61,-422.03"/>
<polygon fill="black" stroke="black" points="321.42,-420.58 320.89,-431.16 327.9,-423.22 321.42,-420.58"/>
</g>
<!-- r3_node_24 -->
<g id="node7" class="node">
<title>r3_node_24</title>
<ellipse fill="none" stroke="black" cx="963.33" cy="-234" rx="54.93" ry="18"/>
<text text-anchor="middle" x="963.33" y="-228.95" font-family="Times,serif" font-size="14.00">r3_node_24</text>
</g>
<!-- r3_node_17 -->
<g id="node8" class="node">
<title>r3_node_17</title>
<ellipse fill="none" stroke="black" cx="559.33" cy="-306" rx="54.93" ry="18"/>
<text text-anchor="middle" x="559.33" y="-300.95" font-family="Times,serif" font-size="14.00">r3_node_17</text>
</g>
<!-- r3_node_17&#45;&gt;r3_node_24 -->
<g id="edge5" class="edge">
<title>r3_node_17&#45;&gt;r3_node_24</title>
<path fill="none" stroke="black" d="M603.8,-295.2C615.65,-292.71 628.45,-290.15 640.33,-288 745.17,-269.05 772.38,-270.33 877.33,-252 886.81,-250.34 896.86,-248.47 906.61,-246.58"/>
<polygon fill="black" stroke="black" points="907.25,-250.02 916.39,-244.67 905.9,-243.15 907.25,-250.02"/>
</g>
<!-- r3_node_16 -->
<g id="node9" class="node">
<title>r3_node_16</title>
<ellipse fill="none" stroke="black" cx="525.33" cy="-378" rx="54.93" ry="18"/>
<text text-anchor="middle" x="525.33" y="-372.95" font-family="Times,serif" font-size="14.00">r3_node_16</text>
</g>
<!-- r3_node_17&#45;&gt;r3_node_16 -->
<g id="edge4" class="edge">
<title>r3_node_17&#45;&gt;r3_node_16</title>
<path fill="none" stroke="black" d="M556.78,-324.45C553.75,-332.36 549.34,-341.88 544.7,-350.63"/>
<polygon fill="black" stroke="black" points="541.79,-348.65 539.96,-359.09 547.9,-352.07 541.79,-348.65"/>
</g>
<!-- r3_node_27 -->
<g id="node10" class="node">
<title>r3_node_27</title>
<ellipse fill="none" stroke="black" cx="1279.33" cy="-162" rx="54.93" ry="18"/>
<text text-anchor="middle" x="1279.33" y="-156.95" font-family="Times,serif" font-size="14.00">r3_node_27</text>
</g>
<!-- r3_node_17&#45;&gt;r3_node_27 -->
<g id="edge6" class="edge">
<title>r3_node_17&#45;&gt;r3_node_27</title>
<path fill="none" stroke="black" d="M598.76,-293.06C661.76,-274.36 789.24,-238.01 899.33,-216 1009.92,-193.89 1140.44,-177.85 1216.16,-169.51"/>
<polygon fill="black" stroke="black" points="1216.31,-173.02 1225.87,-168.45 1215.55,-166.06 1216.31,-173.02"/>
</g>
<!-- r3_node_12 -->
<g id="node11" class="node">
<title>r3_node_12</title>
<ellipse fill="none" stroke="black" cx="606.33" cy="-234" rx="54.93" ry="18"/>
<text text-anchor="middle" x="606.33" y="-228.95" font-family="Times,serif" font-size="14.00">r3_node_12</text>
</g>
<!-- r3_node_17&#45;&gt;r3_node_12 -->
<g id="edge7" class="edge">
<title>r3_node_17&#45;&gt;r3_node_12</title>
<path fill="none" stroke="black" d="M565.03,-287.7C569.74,-279.4 576.32,-269.31 582.91,-260.19"/>
<polygon fill="black" stroke="black" points="585.58,-262.45 588.79,-252.35 579.99,-258.25 585.58,-262.45"/>
</g>
<!-- r3_node_16&#45;&gt;r3_node_25 -->
<g id="edge39" class="edge">
<title>r3_node_16&#45;&gt;r3_node_25</title>
<path fill="none" stroke="black" d="M512.94,-360.31C506.31,-350.33 498.81,-337.08 495.33,-324 474.74,-246.69 543.79,-206.88 494.33,-144 453.28,-91.81 412.72,-127.75 349.33,-108 312.7,-96.59 215.67,-59.11 158.06,-36.59"/>
<polygon fill="black" stroke="black" points="159.44,-33.37 148.85,-32.98 156.89,-39.89 159.44,-33.37"/>
</g>
<!-- r3_node_16&#45;&gt;r3_node_17 -->
<g id="edge38" class="edge">
<title>r3_node_16&#45;&gt;r3_node_17</title>
<path fill="none" stroke="black" d="M527.82,-359.7C530.84,-351.78 535.27,-342.23 539.92,-333.44"/>
<polygon fill="black" stroke="black" points="542.84,-335.38 544.67,-324.94 536.73,-331.96 542.84,-335.38"/>
</g>
<!-- r3_node_30 -->
<g id="node19" class="node">
<title>r3_node_30</title>
<ellipse fill="none" stroke="black" cx="1256.33" cy="-234" rx="54.93" ry="18"/>
<text text-anchor="middle" x="1256.33" y="-228.95" font-family="Times,serif" font-size="14.00">r3_node_30</text>
</g>
<!-- r3_node_16&#45;&gt;r3_node_30 -->
<g id="edge40" class="edge">
<title>r3_node_16&#45;&gt;r3_node_30</title>
<path fill="none" stroke="black" d="M566.45,-365.74C634.17,-347.49 773.62,-311.16 893.33,-288 998.24,-267.7 1121.55,-251.24 1194.08,-242.31"/>
<polygon fill="black" stroke="black" points="1194.27,-245.82 1203.78,-241.13 1193.42,-238.87 1194.27,-245.82"/>
</g>
<!-- r3_node_16&#45;&gt;r3_node_13 -->
<g id="edge37" class="edge">
<title>r3_node_16&#45;&gt;r3_node_13</title>
<path fill="none" stroke="black" d="M489.85,-392.07C454.04,-404.06 398.56,-421.82 357.92,-434.3"/>
<polygon fill="black" stroke="black" points="357.13,-430.89 348.59,-437.16 359.18,-437.58 357.13,-430.89"/>
</g>
<!-- r3_node_12&#45;&gt;r3_node_17 -->
<g id="edge10" class="edge">
<title>r3_node_12&#45;&gt;r3_node_17</title>
<path fill="none" stroke="black" d="M600.82,-251.96C596.18,-260.17 589.65,-270.22 583.09,-279.34"/>
<polygon fill="black" stroke="black" points="580.4,-277.09 577.21,-287.2 586,-281.29 580.4,-277.09"/>
</g>
<!-- r3_node_15 -->
<g id="node15" class="node">
<title>r3_node_15</title>
<ellipse fill="none" stroke="black" cx="690.33" cy="-162" rx="54.93" ry="18"/>
<text text-anchor="middle" x="690.33" y="-156.95" font-family="Times,serif" font-size="14.00">r3_node_15</text>
</g>
<!-- r3_node_12&#45;&gt;r3_node_15 -->
<g id="edge11" class="edge">
<title>r3_node_12&#45;&gt;r3_node_15</title>
<path fill="none" stroke="black" d="M620.39,-216.41C630.47,-207.17 644.26,-195.54 656.99,-185.49"/>
<polygon fill="black" stroke="black" points="659.04,-188.33 664.8,-179.44 654.75,-182.8 659.04,-188.33"/>
</g>
<!-- r3_node_29 -->
<g id="node16" class="node">
<title>r3_node_29</title>
<ellipse fill="none" stroke="black" cx="413.33" cy="-90" rx="54.93" ry="18"/>
<text text-anchor="middle" x="413.33" y="-84.95" font-family="Times,serif" font-size="14.00">r3_node_29</text>
</g>
<!-- r3_node_12&#45;&gt;r3_node_29 -->
<g id="edge12" class="edge">
<title>r3_node_12&#45;&gt;r3_node_29</title>
<path fill="none" stroke="black" d="M606.6,-215.56C605.94,-195.68 601.81,-163.42 583.33,-144 574.97,-135.22 512.98,-117.29 466.25,-104.72"/>
<polygon fill="black" stroke="black" points="467.37,-101.4 456.81,-102.2 465.57,-108.16 467.37,-101.4"/>
</g>
<!-- r3_node_20 -->
<g id="node12" class="node">
<title>r3_node_20</title>
<ellipse fill="none" stroke="black" cx="671.33" cy="-90" rx="54.93" ry="18"/>
<text text-anchor="middle" x="671.33" y="-84.95" font-family="Times,serif" font-size="14.00">r3_node_20</text>
</g>
<!-- r3_node_1 -->
<g id="node13" class="node">
<title>r3_node_1</title>
<ellipse fill="none" stroke="black" cx="865.33" cy="-450" rx="50.33" ry="18"/>
<text text-anchor="middle" x="865.33" y="-444.95" font-family="Times,serif" font-size="14.00">r3_node_1</text>
</g>
<!-- r3_node_1&#45;&gt;r3_node_27 -->
<g id="edge8" class="edge">
<title>r3_node_1&#45;&gt;r3_node_27</title>
<path fill="none" stroke="black" d="M915.11,-447.04C1045.85,-440.64 1392.78,-415.21 1449.33,-324 1457.81,-310.32 1463.73,-236.67 1448.33,-216 1434.81,-197.85 1380.97,-183.05 1337.64,-173.75"/>
<polygon fill="black" stroke="black" points="1338.59,-170.37 1328.08,-171.76 1337.16,-177.23 1338.59,-170.37"/>
</g>
<!-- r3_node_21 -->
<g id="node14" class="node">
<title>r3_node_21</title>
<ellipse fill="none" stroke="black" cx="534.33" cy="-18" rx="54.93" ry="18"/>
<text text-anchor="middle" x="534.33" y="-12.95" font-family="Times,serif" font-size="14.00">r3_node_21</text>
</g>
<!-- r3_node_1&#45;&gt;r3_node_21 -->
<g id="edge9" class="edge">
<title>r3_node_1&#45;&gt;r3_node_21</title>
<path fill="none" stroke="black" d="M915.92,-448.73C1067.33,-447.43 1509.3,-439.89 1555.33,-396 1613.27,-340.75 1603.47,-284.68 1562.33,-216 1462.49,-49.34 812.3,-23.65 600.74,-19.71"/>
<polygon fill="black" stroke="black" points="601.08,-16.21 591.02,-19.54 600.96,-23.21 601.08,-16.21"/>
</g>
<!-- r3_node_15&#45;&gt;r3_node_12 -->
<g id="edge48" class="edge">
<title>r3_node_15&#45;&gt;r3_node_12</title>
<path fill="none" stroke="black" d="M676.12,-179.71C666.06,-188.93 652.33,-200.51 639.66,-210.51"/>
<polygon fill="black" stroke="black" points="637.65,-207.65 631.89,-216.54 641.94,-213.18 637.65,-207.65"/>
</g>
<!-- r3_node_15&#45;&gt;r3_node_20 -->
<g id="edge47" class="edge">
<title>r3_node_15&#45;&gt;r3_node_20</title>
<path fill="none" stroke="black" d="M685.63,-143.7C683.61,-136.24 681.19,-127.32 678.92,-118.97"/>
<polygon fill="black" stroke="black" points="682.36,-118.3 676.37,-109.57 675.61,-120.13 682.36,-118.3"/>
</g>
<!-- r3_node_14 -->
<g id="node17" class="node">
<title>r3_node_14</title>
<ellipse fill="none" stroke="black" cx="1240.33" cy="-378" rx="54.93" ry="18"/>
<text text-anchor="middle" x="1240.33" y="-372.95" font-family="Times,serif" font-size="14.00">r3_node_14</text>
</g>
<!-- r3_node_14&#45;&gt;r3_node_27 -->
<g id="edge15" class="edge">
<title>r3_node_14&#45;&gt;r3_node_27</title>
<path fill="none" stroke="black" d="M1289.98,-370.09C1340.67,-361.9 1414.25,-346.46 1431.33,-324 1441.06,-311.2 1445.7,-238.47 1429.33,-216 1417.75,-200.1 1372.62,-185.49 1334.85,-175.65"/>
<polygon fill="black" stroke="black" points="1335.95,-172.31 1325.39,-173.25 1334.23,-179.1 1335.95,-172.31"/>
</g>
<!-- r3_node_14&#45;&gt;r3_node_20 -->
<g id="edge14" class="edge">
<title>r3_node_14&#45;&gt;r3_node_20</title>
<path fill="none" stroke="black" d="M1255.48,-360.37C1274.93,-337.8 1307.67,-295.27 1320.33,-252 1324.82,-236.64 1330.85,-228.06 1320.33,-216 1281.55,-171.55 1115.34,-190.68 1057.33,-180 987.77,-167.19 971.24,-159.91 902.33,-144 842.14,-130.11 773.11,-114.28 726.3,-103.57"/>
<polygon fill="black" stroke="black" points="727.19,-100.18 716.67,-101.36 725.63,-107.01 727.19,-100.18"/>
</g>
<!-- r3_node_8 -->
<g id="node18" class="node">
<title>r3_node_8</title>
<ellipse fill="none" stroke="black" cx="642.33" cy="-450" rx="50.33" ry="18"/>
<text text-anchor="middle" x="642.33" y="-444.95" font-family="Times,serif" font-size="14.00">r3_node_8</text>
</g>
<!-- r3_node_14&#45;&gt;r3_node_8 -->
<g id="edge13" class="edge">
<title>r3_node_14&#45;&gt;r3_node_8</title>
<path fill="none" stroke="black" d="M1200.44,-390.66C1191.26,-392.64 1181.52,-394.53 1172.33,-396 1014.87,-421.23 973.97,-415.78 815.33,-432 777.88,-435.83 735.64,-440.21 702.18,-443.56"/>
<polygon fill="black" stroke="black" points="701.84,-440.08 692.24,-444.56 702.54,-447.05 701.84,-440.08"/>
</g>
<!-- r3_node_14&#45;&gt;r3_node_30 -->
<g id="edge16" class="edge">
<title>r3_node_14&#45;&gt;r3_node_30</title>
<path fill="none" stroke="black" d="M1242.29,-359.59C1244.99,-335.61 1249.89,-292.14 1253.13,-263.42"/>
<polygon fill="black" stroke="black" points="1256.59,-263.94 1254.23,-253.61 1249.63,-263.16 1256.59,-263.94"/>
</g>
<!-- r3_node_8&#45;&gt;r3_node_24 -->
<g id="edge23" class="edge">
<title>r3_node_8&#45;&gt;r3_node_24</title>
<path fill="none" stroke="black" d="M684.24,-439.76C715.5,-431.57 758.33,-417.52 791.33,-396 846.63,-359.94 844.17,-332.08 893.33,-288 905.27,-277.3 919.21,-266.44 931.5,-257.36"/>
<polygon fill="black" stroke="black" points="933.26,-260.41 939.29,-251.69 929.14,-254.75 933.26,-260.41"/>
</g>
<!-- r3_node_8&#45;&gt;r3_node_14 -->
<g id="edge25" class="edge">
<title>r3_node_8&#45;&gt;r3_node_14</title>
<path fill="none" stroke="black" d="M689.48,-443.26C720.2,-439.94 761.02,-435.71 797.33,-432 955.97,-415.78 996.87,-421.23 1154.33,-396 1163.65,-394.51 1173.55,-392.58 1183.2,-390.57"/>
<polygon fill="black" stroke="black" points="1183.84,-394.01 1192.89,-388.5 1182.38,-387.16 1183.84,-394.01"/>
</g>
<!-- r3_node_8&#45;&gt;r3_node_30 -->
<g id="edge24" class="edge">
<title>r3_node_8&#45;&gt;r3_node_30</title>
<path fill="none" stroke="black" d="M686.96,-441.39C797.27,-422.09 1079.83,-369.55 1163.33,-324 1192.42,-308.13 1219.01,-280.78 1236.24,-260.58"/>
<polygon fill="black" stroke="black" points="1238.81,-262.96 1242.51,-253.03 1233.43,-258.49 1238.81,-262.96"/>
</g>
<!-- r3_node_19 -->
<g id="node22" class="node">
<title>r3_node_19</title>
<ellipse fill="none" stroke="black" cx="542.33" cy="-90" rx="54.93" ry="18"/>
<text text-anchor="middle" x="542.33" y="-84.95" font-family="Times,serif" font-size="14.00">r3_node_19</text>
</g>
<!-- r3_node_8&#45;&gt;r3_node_19 -->
<g id="edge26" class="edge">
<title>r3_node_8&#45;&gt;r3_node_19</title>
<path fill="none" stroke="black" d="M680.15,-437.75C773.91,-409.71 1010.33,-337.94 1021.33,-324 1051.09,-286.25 1055.49,-254.96 1027.33,-216 1012.38,-195.33 834.06,-150.25 809.33,-144 720.92,-121.64 696.4,-127.55 607.33,-108 603.09,-107.07 598.71,-106.05 594.33,-104.99"/>
<polygon fill="black" stroke="black" points="595.49,-101.67 584.94,-102.65 593.8,-108.47 595.49,-101.67"/>
</g>
<!-- r3_node_11 -->
<g id="node20" class="node">
<title>r3_node_11</title>
<ellipse fill="none" stroke="black" cx="727.33" cy="-378" rx="54.93" ry="18"/>
<text text-anchor="middle" x="727.33" y="-372.95" font-family="Times,serif" font-size="14.00">r3_node_11</text>
</g>
<!-- r3_node_18 -->
<g id="node21" class="node">
<title>r3_node_18</title>
<ellipse fill="none" stroke="black" cx="957.33" cy="-306" rx="54.93" ry="18"/>
<text text-anchor="middle" x="957.33" y="-300.95" font-family="Times,serif" font-size="14.00">r3_node_18</text>
</g>
<!-- r3_node_11&#45;&gt;r3_node_18 -->
<g id="edge17" class="edge">
<title>r3_node_11&#45;&gt;r3_node_18</title>
<path fill="none" stroke="black" d="M763.89,-364.24C802.03,-352.09 861.96,-333.83 905.07,-321.21"/>
<polygon fill="black" stroke="black" points="905.84,-324.64 914.46,-318.48 903.88,-317.91 905.84,-324.64"/>
</g>
<!-- r3_node_11&#45;&gt;r3_node_19 -->
<g id="edge18" class="edge">
<title>r3_node_11&#45;&gt;r3_node_19</title>
<path fill="none" stroke="black" d="M740.44,-360.22C771.17,-318.73 841.35,-209.9 787.33,-144 735.6,-80.91 686.83,-126.33 607.33,-108 603.28,-107.07 599.1,-106.07 594.91,-105.03"/>
<polygon fill="black" stroke="black" points="595.87,-101.66 585.32,-102.61 594.16,-108.45 595.87,-101.66"/>
</g>
<!-- r3_node_9 -->
<g id="node23" class="node">
<title>r3_node_9</title>
<ellipse fill="none" stroke="black" cx="476.33" cy="-450" rx="50.33" ry="18"/>
<text text-anchor="middle" x="476.33" y="-444.95" font-family="Times,serif" font-size="14.00">r3_node_9</text>
</g>
<!-- r3_node_11&#45;&gt;r3_node_9 -->
<g id="edge19" class="edge">
<title>r3_node_11&#45;&gt;r3_node_9</title>
<path fill="none" stroke="black" d="M689.01,-391.15C645.9,-403.72 575.87,-423.26 527.98,-436.09"/>
<polygon fill="black" stroke="black" points="527.13,-432.7 518.37,-438.66 528.94,-439.46 527.13,-432.7"/>
</g>
<!-- r3_node_18&#45;&gt;r3_node_20 -->
<g id="edge54" class="edge">
<title>r3_node_18&#45;&gt;r3_node_20</title>
<path fill="none" stroke="black" d="M987.62,-290.54C1002.5,-281.68 1018.98,-268.79 1027.33,-252 1034.45,-237.67 1036.55,-229.08 1027.33,-216 1018.12,-202.95 816.33,-137.24 720.73,-106.67"/>
<polygon fill="black" stroke="black" points="721.92,-103.38 711.33,-103.67 719.79,-110.05 721.92,-103.38"/>
</g>
<!-- r3_node_18&#45;&gt;r3_node_11 -->
<g id="edge53" class="edge">
<title>r3_node_18&#45;&gt;r3_node_11</title>
<path fill="none" stroke="black" d="M920.57,-319.82C882.45,-331.96 822.71,-350.16 779.69,-362.76"/>
<polygon fill="black" stroke="black" points="778.94,-359.33 770.31,-365.49 780.89,-366.05 778.94,-359.33"/>
</g>
<!-- r3_node_26 -->
<g id="node25" class="node">
<title>r3_node_26</title>
<ellipse fill="none" stroke="black" cx="946.33" cy="-90" rx="54.93" ry="18"/>
<text text-anchor="middle" x="946.33" y="-84.95" font-family="Times,serif" font-size="14.00">r3_node_26</text>
</g>
<!-- r3_node_18&#45;&gt;r3_node_26 -->
<g id="edge52" class="edge">
<title>r3_node_18&#45;&gt;r3_node_26</title>
<path fill="none" stroke="black" d="M1003.14,-295.68C1027.25,-288.2 1054.77,-274.99 1069.33,-252 1077.89,-238.48 1075.39,-230.81 1069.33,-216 1051.32,-172.02 1009.54,-135.19 979.67,-113.15"/>
<polygon fill="black" stroke="black" points="981.83,-110.4 971.67,-107.41 977.75,-116.08 981.83,-110.4"/>
</g>
<!-- r3_node_9&#45;&gt;r3_node_21 -->
<g id="edge50" class="edge">
<title>r3_node_9&#45;&gt;r3_node_21</title>
<path fill="none" stroke="black" d="M521.64,-441.73C602.48,-428.7 765.54,-402.17 791.33,-396 895.5,-371.06 942.64,-396.67 1021.33,-324 1046.67,-300.6 1043.76,-285.87 1050.33,-252 1053.37,-236.29 1058.81,-229.56 1050.33,-216 1009.51,-150.75 808.08,-97.12 735.33,-72 687.15,-55.37 630.96,-40.96 590.26,-31.38"/>
<polygon fill="black" stroke="black" points="591.22,-28.01 580.68,-29.15 589.63,-34.83 591.22,-28.01"/>
</g>
<!-- r3_node_9&#45;&gt;r3_node_29 -->
<g id="edge49" class="edge">
<title>r3_node_9&#45;&gt;r3_node_29</title>
<path fill="none" stroke="black" d="M512.67,-437.08C536.15,-428.2 566.47,-414.43 589.33,-396 693.55,-311.98 842.66,-244.6 754.33,-144 713.52,-97.52 539.04,-119.85 478.33,-108 474.01,-107.16 469.55,-106.19 465.09,-105.16"/>
<polygon fill="black" stroke="black" points="466.08,-101.8 455.53,-102.85 464.43,-108.6 466.08,-101.8"/>
</g>
<!-- r3_node_9&#45;&gt;r3_node_11 -->
<g id="edge51" class="edge">
<title>r3_node_9&#45;&gt;r3_node_11</title>
<path fill="none" stroke="black" d="M513.15,-437.28C555.44,-424.93 625.01,-405.51 673.39,-392.52"/>
<polygon fill="black" stroke="black" points="674.07,-395.96 682.83,-390 672.26,-389.2 674.07,-395.96"/>
</g>
<!-- r3_node_13&#45;&gt;r3_node_23 -->
<g id="edge32" class="edge">
<title>r3_node_13&#45;&gt;r3_node_23</title>
<path fill="none" stroke="black" d="M329.68,-433.29C395.89,-386.88 574.99,-247.14 494.33,-144 453.42,-91.7 407.74,-139.57 349.33,-108 319.68,-91.98 292.17,-64.65 274.26,-44.5"/>
<polygon fill="black" stroke="black" points="276.92,-42.22 267.73,-36.95 271.63,-46.8 276.92,-42.22"/>
</g>
<!-- r3_node_13&#45;&gt;r3_node_5 -->
<g id="edge31" class="edge">
<title>r3_node_13&#45;&gt;r3_node_5</title>
<path fill="none" stroke="black" d="M305,-431.61C307.39,-421.4 311.39,-408.15 313.33,-396 316.51,-376.01 316.96,-353.17 317.84,-335.64"/>
<polygon fill="black" stroke="black" points="321.33,-335.9 318.49,-325.7 314.35,-335.45 321.33,-335.9"/>
</g>
<!-- r3_node_13&#45;&gt;r3_node_16 -->
<g id="edge30" class="edge">
<title>r3_node_13&#45;&gt;r3_node_16</title>
<path fill="none" stroke="black" d="M341.62,-436C377.39,-424.01 432.93,-406.23 473.64,-393.73"/>
<polygon fill="black" stroke="black" points="474.45,-397.14 482.99,-390.87 472.4,-390.44 474.45,-397.14"/>
</g>
<!-- r3_node_7 -->
<g id="node26" class="node">
<title>r3_node_7</title>
<ellipse fill="none" stroke="black" cx="178.33" cy="-450" rx="50.33" ry="18"/>
<text text-anchor="middle" x="178.33" y="-444.95" font-family="Times,serif" font-size="14.00">r3_node_7</text>
</g>
<!-- r3_node_7&#45;&gt;r3_node_22 -->
<g id="edge27" class="edge">
<title>r3_node_7&#45;&gt;r3_node_22</title>
<path fill="none" stroke="black" d="M199.67,-433.38C210.73,-423.94 223.18,-410.87 229.33,-396 247.68,-351.64 221.81,-335.06 231.33,-288 238.43,-252.88 254.96,-214.99 267.07,-190.25"/>
<polygon fill="black" stroke="black" points="270.09,-192.04 271.44,-181.53 263.83,-188.91 270.09,-192.04"/>
</g>
<!-- r3_node_7&#45;&gt;r3_node_28 -->
<g id="edge29" class="edge">
<title>r3_node_7&#45;&gt;r3_node_28</title>
<path fill="none" stroke="black" d="M205.26,-434.6C219.72,-425.46 236.53,-412.29 246.33,-396 271.45,-354.23 250.57,-334.45 265.33,-288 276.04,-254.27 274.36,-241.08 299.33,-216 315.94,-199.31 338.84,-187.17 359.53,-178.75"/>
<polygon fill="black" stroke="black" points="360.61,-182.08 368.68,-175.22 358.09,-175.55 360.61,-182.08"/>
</g>
<!-- r3_node_4 -->
<g id="node27" class="node">
<title>r3_node_4</title>
<ellipse fill="none" stroke="black" cx="170.33" cy="-378" rx="50.33" ry="18"/>
<text text-anchor="middle" x="170.33" y="-372.95" font-family="Times,serif" font-size="14.00">r3_node_4</text>
</g>
<!-- r3_node_7&#45;&gt;r3_node_4 -->
<g id="edge28" class="edge">
<title>r3_node_7&#45;&gt;r3_node_4</title>
<path fill="none" stroke="black" d="M170.51,-432.05C168.89,-424.68 167.62,-415.84 166.94,-407.51"/>
<polygon fill="black" stroke="black" points="170.45,-407.6 166.46,-397.79 163.46,-407.95 170.45,-407.6"/>
</g>
<!-- r3_node_4&#45;&gt;r3_node_29 -->
<g id="edge43" class="edge">
<title>r3_node_4&#45;&gt;r3_node_29</title>
<path fill="none" stroke="black" d="M161.2,-359.88C156.32,-349.76 150.82,-336.51 148.33,-324 135.75,-260.88 181.99,-145.33 183.33,-144 206.64,-120.97 290.6,-106.03 350.33,-98.06"/>
<polygon fill="black" stroke="black" points="350.58,-101.55 360.05,-96.8 349.68,-94.61 350.58,-101.55"/>
</g>
<!-- r3_node_4&#45;&gt;r3_node_19 -->
<g id="edge41" class="edge">
<title>r3_node_4&#45;&gt;r3_node_19</title>
<path fill="none" stroke="black" d="M171.3,-359.66C174.41,-310.8 185.84,-173.61 217.33,-144 259.82,-104.04 420.12,-119.4 477.33,-108 481.64,-107.14 486.1,-106.16 490.56,-105.12"/>
<polygon fill="black" stroke="black" points="491.22,-108.57 500.11,-102.8 489.57,-101.76 491.22,-108.57"/>
</g>
<!-- r3_node_4&#45;&gt;r3_node_7 -->
<g id="edge42" class="edge">
<title>r3_node_4&#45;&gt;r3_node_7</title>
<path fill="none" stroke="black" d="M178.18,-396.1C179.77,-403.37 181.01,-412.04 181.69,-420.24"/>
<polygon fill="black" stroke="black" points="178.2,-420.37 182.19,-430.18 185.19,-420.02 178.2,-420.37"/>
</g>
<!-- r3_node_6 -->
<g id="node28" class="node">
<title>r3_node_6</title>
<ellipse fill="none" stroke="black" cx="1372.33" cy="-306" rx="50.33" ry="18"/>
<text text-anchor="middle" x="1372.33" y="-300.95" font-family="Times,serif" font-size="14.00">r3_node_6</text>
</g>
<!-- r3_node_6&#45;&gt;r3_node_20 -->
<g id="edge33" class="edge">
<title>r3_node_6&#45;&gt;r3_node_20</title>
<path fill="none" stroke="black" d="M1373.85,-287.62C1374.58,-267.48 1372.42,-234.67 1353.33,-216 1292.2,-156.21 1247.04,-201.68 1164.33,-180 1115.79,-167.28 1106.18,-155.46 1057.33,-144 945.83,-117.83 812.98,-103.1 735.79,-96.12"/>
<polygon fill="black" stroke="black" points="736.13,-92.63 725.86,-95.23 735.51,-99.6 736.13,-92.63"/>
</g>
<!-- r3_node_6&#45;&gt;r3_node_26 -->
<g id="edge34" class="edge">
<title>r3_node_6&#45;&gt;r3_node_26</title>
<path fill="none" stroke="black" d="M1383.47,-287.97C1394.68,-268.47 1408.11,-236.56 1391.33,-216 1340.84,-154.14 1288.61,-211.69 1215.33,-180 1189.86,-168.99 1189.59,-155.48 1164.33,-144 1114.09,-121.17 1052.7,-107.38 1007.88,-99.61"/>
<polygon fill="black" stroke="black" points="1008.5,-96.17 998.06,-97.97 1007.34,-103.07 1008.5,-96.17"/>
</g>
<!-- r3_node_2 -->
<g id="node29" class="node">
<title>r3_node_2</title>
<ellipse fill="none" stroke="black" cx="50.33" cy="-450" rx="50.33" ry="18"/>
<text text-anchor="middle" x="50.33" y="-444.95" font-family="Times,serif" font-size="14.00">r3_node_2</text>
</g>
<!-- r3_node_2&#45;&gt;r3_node_23 -->
<g id="edge35" class="edge">
<title>r3_node_2&#45;&gt;r3_node_23</title>
<path fill="none" stroke="black" d="M57.21,-431.84C61.35,-421.48 66.69,-408 71.33,-396 114.49,-284.36 110.6,-249.93 166.33,-144 185.56,-107.44 213.73,-68.94 232.76,-44.49"/>
<polygon fill="black" stroke="black" points="235.44,-46.74 238.87,-36.72 229.94,-42.41 235.44,-46.74"/>
</g>
<!-- r3_node_2&#45;&gt;r3_node_25 -->
<g id="edge36" class="edge">
<title>r3_node_2&#45;&gt;r3_node_25</title>
<path fill="none" stroke="black" d="M52.62,-431.6C56.52,-402.05 64.78,-340.21 72.33,-288 85,-200.29 101.12,-96.67 108.83,-47.56"/>
<polygon fill="black" stroke="black" points="112.27,-48.21 110.36,-37.79 105.35,-47.13 112.27,-48.21"/>
</g>
<!-- r3_node_3 -->
<g id="node30" class="node">
<title>r3_node_3</title>
<ellipse fill="none" stroke="black" cx="1496.33" cy="-378" rx="50.33" ry="18"/>
<text text-anchor="middle" x="1496.33" y="-372.95" font-family="Times,serif" font-size="14.00">r3_node_3</text>
</g>
<!-- r3_node_3&#45;&gt;r3_node_23 -->
<g id="edge45" class="edge">
<title>r3_node_3&#45;&gt;r3_node_23</title>
<path fill="none" stroke="black" d="M1518.18,-361.51C1529.49,-352.11 1542.18,-339.04 1548.33,-324 1555.75,-305.84 1552.97,-227.99 1544.33,-216 1518.89,-180.72 1492.47,-198.97 1453.33,-180 1424.66,-166.1 1421.19,-155.12 1391.33,-144 1350.95,-128.97 1053.07,-77.44 1010.33,-72 771.72,-41.61 710.23,-53.39 470.33,-36 418.95,-32.27 360.76,-27.7 317.58,-24.23"/>
<polygon fill="black" stroke="black" points="318.13,-20.76 307.89,-23.45 317.57,-27.74 318.13,-20.76"/>
</g>
<!-- r3_node_3&#45;&gt;r3_node_27 -->
<g id="edge44" class="edge">
<title>r3_node_3&#45;&gt;r3_node_27</title>
<path fill="none" stroke="black" d="M1503.99,-359.74C1516.96,-327.62 1538.72,-258.12 1505.33,-216 1499.99,-209.26 1401.37,-187.96 1336.18,-174.5"/>
<polygon fill="black" stroke="black" points="1337.21,-171.14 1326.71,-172.56 1335.8,-178 1337.21,-171.14"/>
</g>
<!-- r3_node_3&#45;&gt;r3_node_26 -->
<g id="edge46" class="edge">
<title>r3_node_3&#45;&gt;r3_node_26</title>
<path fill="none" stroke="black" d="M1511.6,-360.78C1519.77,-350.95 1529.02,-337.7 1533.33,-324 1540.14,-302.36 1531.66,-221.4 1527.33,-216 1493.53,-173.91 1461.17,-200.72 1411.33,-180 1379.75,-166.88 1375.9,-154.43 1343.33,-144 1282.79,-124.62 1106.25,-105.89 1010.27,-96.77"/>
<polygon fill="black" stroke="black" points="1010.76,-93.3 1000.48,-95.84 1010.11,-100.27 1010.76,-93.3"/>
</g>
</g>
</svg>
