<?xml version="1.0" encoding="UTF-8" standalone="no"?>
<!DOCTYPE svg PUBLIC "-//W3C//DTD SVG 1.1//EN"
 "http://www.w3.org/Graphics/SVG/1.1/DTD/svg11.dtd">
<!-- Generated by graphviz version 12.2.1 (20241206.2353)
 -->
<!-- Pages: 1 -->
<svg width="821pt" height="404pt"
 viewBox="0.00 0.00 821.26 404.00" xmlns="http://www.w3.org/2000/svg" xmlns:xlink="http://www.w3.org/1999/xlink">
<g id="graph0" class="graph" transform="scale(1 1) rotate(0) translate(4 400)">
<polygon fill="white" stroke="none" points="-4,4 -4,-400 817.26,-400 817.26,4 -4,4"/>
<!-- r2_node_12 -->
<g id="node1" class="node">
<title>r2_node_12</title>
<ellipse fill="none" stroke="black" cx="154.93" cy="-378" rx="54.93" ry="18"/>
<text text-anchor="middle" x="154.93" y="-372.95" font-family="Times,serif" font-size="14.00">r2_node_12</text>
</g>
<!-- r2_node_14 -->
<g id="node2" class="node">
<title>r2_node_14</title>
<ellipse fill="none" stroke="black" cx="54.93" cy="-18" rx="54.93" ry="18"/>
<text text-anchor="middle" x="54.93" y="-12.95" font-family="Times,serif" font-size="14.00">r2_node_14</text>
</g>
<!-- r2_node_12&#45;&gt;r2_node_14 -->
<g id="edge1" class="edge">
<title>r2_node_12&#45;&gt;r2_node_14</title>
<path fill="none" stroke="black" d="M147.17,-360.05C142.64,-349.76 137.03,-336.29 132.93,-324 99.66,-224.22 72.33,-102.1 60.82,-47.61"/>
<polygon fill="black" stroke="black" points="64.26,-47 58.79,-37.93 57.41,-48.44 64.26,-47"/>
</g>
<!-- r2_node_11 -->
<g id="node3" class="node">
<title>r2_node_11</title>
<ellipse fill="none" stroke="black" cx="196.93" cy="-306" rx="54.93" ry="18"/>
<text text-anchor="middle" x="196.93" y="-300.95" font-family="Times,serif" font-size="14.00">r2_node_11</text>
</g>
<!-- r2_node_12&#45;&gt;r2_node_11 -->
<g id="edge2" class="edge">
<title>r2_node_12&#45;&gt;r2_node_11</title>
<path fill="none" stroke="black" d="M159.4,-359.7C163.38,-351.7 168.97,-342.02 174.69,-333.15"/>
<polygon fill="black" stroke="black" points="177.58,-335.12 180.27,-324.88 171.78,-331.21 177.58,-335.12"/>
</g>
<!-- r2_node_1 -->
<g id="node4" class="node">
<title>r2_node_1</title>
<ellipse fill="none" stroke="black" cx="485.93" cy="-306" rx="50.33" ry="18"/>
<text text-anchor="middle" x="485.93" y="-300.95" font-family="Times,serif" font-size="14.00">r2_node_1</text>
</g>
<!-- r2_node_12&#45;&gt;r2_node_1 -->
<g id="edge3" class="edge">
<title>r2_node_12&#45;&gt;r2_node_1</title>
<path fill="none" stroke="black" d="M202.39,-368.52C255.93,-358.74 345.51,-341.72 421.93,-324 426.53,-322.93 431.3,-321.77 436.07,-320.57"/>
<polygon fill="black" stroke="black" points="436.83,-323.99 445.65,-318.11 435.09,-317.21 436.83,-323.99"/>
</g>
<!-- r2_node_6 -->
<g id="node5" class="node">
<title>r2_node_6</title>
<ellipse fill="none" stroke="black" cx="762.93" cy="-90" rx="50.33" ry="18"/>
<text text-anchor="middle" x="762.93" y="-84.95" font-family="Times,serif" font-size="14.00">r2_node_6</text>
</g>
<!-- r2_node_12&#45;&gt;r2_node_6 -->
<g id="edge4" class="edge">
<title>r2_node_12&#45;&gt;r2_node_6</title>
<path fill="none" stroke="black" d="M192.24,-364.47C244.56,-346.97 342.78,-314.39 426.93,-288 480.07,-271.34 497.19,-277.02 546.93,-252 622.49,-214 699.08,-149.36 737.54,-114.67"/>
<polygon fill="black" stroke="black" points="739.44,-117.67 744.48,-108.35 734.73,-112.5 739.44,-117.67"/>
</g>
<!-- r2_node_11&#45;&gt;r2_node_12 -->
<g id="edge9" class="edge">
<title>r2_node_11&#45;&gt;r2_node_12</title>
<path fill="none" stroke="black" d="M192.64,-323.96C188.62,-332.09 182.89,-342.01 177.05,-351.06"/>
<polygon fill="black" stroke="black" points="174.27,-348.91 171.57,-359.16 180.07,-352.83 174.27,-348.91"/>
</g>
<!-- r2_node_20 -->
<g id="node10" class="node">
<title>r2_node_20</title>
<ellipse fill="none" stroke="black" cx="213.93" cy="-234" rx="54.93" ry="18"/>
<text text-anchor="middle" x="213.93" y="-228.95" font-family="Times,serif" font-size="14.00">r2_node_20</text>
</g>
<!-- r2_node_11&#45;&gt;r2_node_20 -->
<g id="edge10" class="edge">
<title>r2_node_11&#45;&gt;r2_node_20</title>
<path fill="none" stroke="black" d="M195.22,-287.7C196.26,-280.24 198.19,-271.32 200.52,-262.97"/>
<polygon fill="black" stroke="black" points="203.82,-264.14 203.44,-253.55 197.13,-262.06 203.82,-264.14"/>
</g>
<!-- r2_node_16 -->
<g id="node11" class="node">
<title>r2_node_16</title>
<ellipse fill="none" stroke="black" cx="482.93" cy="-234" rx="54.93" ry="18"/>
<text text-anchor="middle" x="482.93" y="-228.95" font-family="Times,serif" font-size="14.00">r2_node_16</text>
</g>
<!-- r2_node_11&#45;&gt;r2_node_16 -->
<g id="edge11" class="edge">
<title>r2_node_11&#45;&gt;r2_node_16</title>
<path fill="none" stroke="black" d="M237.58,-293.51C279.76,-282.83 347.32,-266.45 405.93,-252 412.52,-250.38 419.47,-248.65 426.4,-246.95"/>
<polygon fill="black" stroke="black" points="426.86,-250.44 435.75,-244.67 425.2,-243.64 426.86,-250.44"/>
</g>
<!-- r2_node_29 -->
<g id="node12" class="node">
<title>r2_node_29</title>
<ellipse fill="none" stroke="black" cx="350.93" cy="-234" rx="54.93" ry="18"/>
<text text-anchor="middle" x="350.93" y="-228.95" font-family="Times,serif" font-size="14.00">r2_node_29</text>
</g>
<!-- r2_node_11&#45;&gt;r2_node_29 -->
<g id="edge12" class="edge">
<title>r2_node_11&#45;&gt;r2_node_29</title>
<path fill="none" stroke="black" d="M224.31,-289.98C246.9,-279.11 279.23,-264.36 305.62,-252.88"/>
<polygon fill="black" stroke="black" points="306.97,-256.11 314.77,-248.94 304.2,-249.68 306.97,-256.11"/>
</g>
<!-- r2_node_30 -->
<g id="node6" class="node">
<title>r2_node_30</title>
<ellipse fill="none" stroke="black" cx="563.93" cy="-90" rx="54.93" ry="18"/>
<text text-anchor="middle" x="563.93" y="-84.95" font-family="Times,serif" font-size="14.00">r2_node_30</text>
</g>
<!-- r2_node_30&#45;&gt;r2_node_14 -->
<g id="edge7" class="edge">
<title>r2_node_30&#45;&gt;r2_node_14</title>
<path fill="none" stroke="black" d="M516.25,-80.68C499.14,-77.79 479.69,-74.62 461.93,-72 338.25,-53.72 306.9,-52.23 182.93,-36 161.27,-33.16 137.55,-30.02 116.48,-27.22"/>
<polygon fill="black" stroke="black" points="116.95,-23.75 106.58,-25.9 116.03,-30.69 116.95,-23.75"/>
</g>
<!-- r2_node_5 -->
<g id="node7" class="node">
<title>r2_node_5</title>
<ellipse fill="none" stroke="black" cx="545.93" cy="-18" rx="50.33" ry="18"/>
<text text-anchor="middle" x="545.93" y="-12.95" font-family="Times,serif" font-size="14.00">r2_node_5</text>
</g>
<!-- r2_node_30&#45;&gt;r2_node_5 -->
<g id="edge5" class="edge">
<title>r2_node_30&#45;&gt;r2_node_5</title>
<path fill="none" stroke="black" d="M559.48,-71.7C557.59,-64.32 555.33,-55.52 553.2,-47.25"/>
<polygon fill="black" stroke="black" points="556.59,-46.38 550.71,-37.57 549.81,-48.13 556.59,-46.38"/>
</g>
<!-- r2_node_24 -->
<g id="node8" class="node">
<title>r2_node_24</title>
<ellipse fill="none" stroke="black" cx="406.93" cy="-18" rx="54.93" ry="18"/>
<text text-anchor="middle" x="406.93" y="-12.95" font-family="Times,serif" font-size="14.00">r2_node_24</text>
</g>
<!-- r2_node_30&#45;&gt;r2_node_24 -->
<g id="edge6" class="edge">
<title>r2_node_30&#45;&gt;r2_node_24</title>
<path fill="none" stroke="black" d="M532.54,-75C508.55,-64.31 475.25,-49.46 448.97,-37.74"/>
<polygon fill="black" stroke="black" points="450.48,-34.58 439.92,-33.71 447.63,-40.98 450.48,-34.58"/>
</g>
<!-- r2_node_18 -->
<g id="node9" class="node">
<title>r2_node_18</title>
<ellipse fill="none" stroke="black" cx="441.93" cy="-162" rx="54.93" ry="18"/>
<text text-anchor="middle" x="441.93" y="-156.95" font-family="Times,serif" font-size="14.00">r2_node_18</text>
</g>
<!-- r2_node_30&#45;&gt;r2_node_18 -->
<g id="edge8" class="edge">
<title>r2_node_30&#45;&gt;r2_node_18</title>
<path fill="none" stroke="black" d="M542.18,-106.78C525.6,-116.97 502.48,-130.32 482.56,-141.22"/>
<polygon fill="black" stroke="black" points="480.95,-138.11 473.82,-145.95 484.28,-144.27 480.95,-138.11"/>
</g>
<!-- r2_node_18&#45;&gt;r2_node_6 -->
<g id="edge17" class="edge">
<title>r2_node_18&#45;&gt;r2_node_6</title>
<path fill="none" stroke="black" d="M485.52,-150.71C495.2,-148.47 505.41,-146.13 514.93,-144 581.71,-129.09 658.8,-112.75 709.07,-102.21"/>
<polygon fill="black" stroke="black" points="709.76,-105.65 718.83,-100.17 708.33,-98.79 709.76,-105.65"/>
</g>
<!-- r2_node_18&#45;&gt;r2_node_30 -->
<g id="edge19" class="edge">
<title>r2_node_18&#45;&gt;r2_node_30</title>
<path fill="none" stroke="black" d="M463.86,-145.12C480.4,-134.95 503.41,-121.68 523.24,-110.82"/>
<polygon fill="black" stroke="black" points="524.81,-113.95 531.94,-106.11 521.48,-107.79 524.81,-113.95"/>
</g>
<!-- r2_node_18&#45;&gt;r2_node_29 -->
<g id="edge18" class="edge">
<title>r2_node_18&#45;&gt;r2_node_29</title>
<path fill="none" stroke="black" d="M426.16,-179.63C414.84,-189.13 399.35,-201.16 385.31,-211.39"/>
<polygon fill="black" stroke="black" points="383.68,-208.26 377.59,-216.93 387.76,-213.95 383.68,-208.26"/>
</g>
<!-- r2_node_20&#45;&gt;r2_node_11 -->
<g id="edge25" class="edge">
<title>r2_node_20&#45;&gt;r2_node_11</title>
<path fill="none" stroke="black" d="M215.65,-252.28C214.61,-259.77 212.66,-268.75 210.32,-277.15"/>
<polygon fill="black" stroke="black" points="207.01,-276.02 207.38,-286.61 213.69,-278.1 207.01,-276.02"/>
</g>
<!-- r2_node_19 -->
<g id="node15" class="node">
<title>r2_node_19</title>
<ellipse fill="none" stroke="black" cx="269.93" cy="-90" rx="54.93" ry="18"/>
<text text-anchor="middle" x="269.93" y="-84.95" font-family="Times,serif" font-size="14.00">r2_node_19</text>
</g>
<!-- r2_node_20&#45;&gt;r2_node_19 -->
<g id="edge26" class="edge">
<title>r2_node_20&#45;&gt;r2_node_19</title>
<path fill="none" stroke="black" d="M218.4,-215.61C223.3,-197.42 231.83,-168.22 241.93,-144 245.6,-135.22 250.22,-125.96 254.64,-117.67"/>
<polygon fill="black" stroke="black" points="257.58,-119.58 259.32,-109.13 251.44,-116.22 257.58,-119.58"/>
</g>
<!-- r2_node_28 -->
<g id="node18" class="node">
<title>r2_node_28</title>
<ellipse fill="none" stroke="black" cx="246.93" cy="-18" rx="54.93" ry="18"/>
<text text-anchor="middle" x="246.93" y="-12.95" font-family="Times,serif" font-size="14.00">r2_node_28</text>
</g>
<!-- r2_node_20&#45;&gt;r2_node_28 -->
<g id="edge27" class="edge">
<title>r2_node_20&#45;&gt;r2_node_28</title>
<path fill="none" stroke="black" d="M209.06,-215.97C201.34,-185.95 188.83,-122.05 205.93,-72 209.38,-61.92 215.6,-52.27 222.18,-44.04"/>
<polygon fill="black" stroke="black" points="224.76,-46.4 228.63,-36.54 219.46,-41.83 224.76,-46.4"/>
</g>
<!-- r2_node_16&#45;&gt;r2_node_11 -->
<g id="edge21" class="edge">
<title>r2_node_16&#45;&gt;r2_node_11</title>
<path fill="none" stroke="black" d="M443.93,-247.02C437.28,-248.7 430.43,-250.4 423.93,-252 366.11,-266.26 299.6,-282.39 253.48,-293.07"/>
<polygon fill="black" stroke="black" points="252.94,-289.6 243.98,-295.26 254.51,-296.43 252.94,-289.6"/>
</g>
<!-- r2_node_13 -->
<g id="node17" class="node">
<title>r2_node_13</title>
<ellipse fill="none" stroke="black" cx="578.93" cy="-162" rx="54.93" ry="18"/>
<text text-anchor="middle" x="578.93" y="-156.95" font-family="Times,serif" font-size="14.00">r2_node_13</text>
</g>
<!-- r2_node_16&#45;&gt;r2_node_13 -->
<g id="edge20" class="edge">
<title>r2_node_16&#45;&gt;r2_node_13</title>
<path fill="none" stroke="black" d="M499.84,-216.41C511.9,-206.86 528.36,-194.75 543.2,-184.48"/>
<polygon fill="black" stroke="black" points="545.11,-187.41 551.4,-178.89 541.16,-181.63 545.11,-187.41"/>
</g>
<!-- r2_node_29&#45;&gt;r2_node_11 -->
<g id="edge28" class="edge">
<title>r2_node_29&#45;&gt;r2_node_11</title>
<path fill="none" stroke="black" d="M323.63,-249.98C301.04,-260.86 268.66,-275.63 242.24,-287.12"/>
<polygon fill="black" stroke="black" points="240.88,-283.9 233.09,-291.07 243.66,-290.32 240.88,-283.9"/>
</g>
<!-- r2_node_29&#45;&gt;r2_node_18 -->
<g id="edge30" class="edge">
<title>r2_node_29&#45;&gt;r2_node_18</title>
<path fill="none" stroke="black" d="M366.66,-216.41C377.85,-207.02 393.12,-195.15 407.04,-184.99"/>
<polygon fill="black" stroke="black" points="409.08,-187.83 415.16,-179.16 404.99,-182.14 409.08,-187.83"/>
</g>
<!-- r2_node_4 -->
<g id="node13" class="node">
<title>r2_node_4</title>
<ellipse fill="none" stroke="black" cx="300.93" cy="-162" rx="50.33" ry="18"/>
<text text-anchor="middle" x="300.93" y="-156.95" font-family="Times,serif" font-size="14.00">r2_node_4</text>
</g>
<!-- r2_node_29&#45;&gt;r2_node_4 -->
<g id="edge29" class="edge">
<title>r2_node_29&#45;&gt;r2_node_4</title>
<path fill="none" stroke="black" d="M333.54,-216.76C326.87,-208.7 319.5,-198.74 313.36,-189.6"/>
<polygon fill="black" stroke="black" points="316.44,-187.92 308.09,-181.4 310.55,-191.7 316.44,-187.92"/>
</g>
<!-- r2_node_4&#45;&gt;r2_node_24 -->
<g id="edge16" class="edge">
<title>r2_node_4&#45;&gt;r2_node_24</title>
<path fill="none" stroke="black" d="M340.75,-150.51C386.01,-138.18 454.6,-118.13 461.93,-108 477.49,-86.5 457.37,-60.54 437.23,-42.23"/>
<polygon fill="black" stroke="black" points="439.71,-39.74 429.85,-35.87 435.14,-45.05 439.71,-39.74"/>
</g>
<!-- r2_node_4&#45;&gt;r2_node_29 -->
<g id="edge13" class="edge">
<title>r2_node_4&#45;&gt;r2_node_29</title>
<path fill="none" stroke="black" d="M318.26,-179.14C324.9,-187.18 332.25,-197.1 338.39,-206.23"/>
<polygon fill="black" stroke="black" points="335.31,-207.91 343.67,-214.42 341.2,-204.12 335.31,-207.91"/>
</g>
<!-- r2_node_10 -->
<g id="node14" class="node">
<title>r2_node_10</title>
<ellipse fill="none" stroke="black" cx="397.93" cy="-90" rx="54.93" ry="18"/>
<text text-anchor="middle" x="397.93" y="-84.95" font-family="Times,serif" font-size="14.00">r2_node_10</text>
</g>
<!-- r2_node_4&#45;&gt;r2_node_10 -->
<g id="edge14" class="edge">
<title>r2_node_4&#45;&gt;r2_node_10</title>
<path fill="none" stroke="black" d="M322.46,-145.46C335.56,-136.02 352.5,-123.79 367.01,-113.32"/>
<polygon fill="black" stroke="black" points="368.84,-116.31 374.9,-107.62 364.75,-110.63 368.84,-116.31"/>
</g>
<!-- r2_node_4&#45;&gt;r2_node_19 -->
<g id="edge15" class="edge">
<title>r2_node_4&#45;&gt;r2_node_19</title>
<path fill="none" stroke="black" d="M293.43,-144.05C290.05,-136.43 285.98,-127.23 282.18,-118.65"/>
<polygon fill="black" stroke="black" points="285.45,-117.39 278.2,-109.66 279.05,-120.22 285.45,-117.39"/>
</g>
<!-- r2_node_21 -->
<g id="node16" class="node">
<title>r2_node_21</title>
<ellipse fill="none" stroke="black" cx="676.93" cy="-18" rx="54.93" ry="18"/>
<text text-anchor="middle" x="676.93" y="-12.95" font-family="Times,serif" font-size="14.00">r2_node_21</text>
</g>
<!-- r2_node_13&#45;&gt;r2_node_5 -->
<g id="edge24" class="edge">
<title>r2_node_13&#45;&gt;r2_node_5</title>
<path fill="none" stroke="black" d="M599.81,-145.03C610.41,-135.56 622.22,-122.59 627.93,-108 633.77,-93.1 635.58,-86.05 627.93,-72 619.64,-56.76 604.86,-45.23 590.12,-36.89"/>
<polygon fill="black" stroke="black" points="591.82,-33.83 581.34,-32.31 588.59,-40.03 591.82,-33.83"/>
</g>
<!-- r2_node_13&#45;&gt;r2_node_16 -->
<g id="edge22" class="edge">
<title>r2_node_13&#45;&gt;r2_node_16</title>
<path fill="none" stroke="black" d="M562.29,-179.38C550.28,-188.91 533.8,-201.03 518.93,-211.34"/>
<polygon fill="black" stroke="black" points="516.98,-208.43 510.69,-216.96 520.93,-214.22 516.98,-208.43"/>
</g>
<!-- r2_node_13&#45;&gt;r2_node_21 -->
<g id="edge23" class="edge">
<title>r2_node_13&#45;&gt;r2_node_21</title>
<path fill="none" stroke="black" d="M604.06,-145.76C617.77,-136.36 634.09,-123.19 644.93,-108 657.9,-89.82 666.12,-65.84 670.98,-47.35"/>
<polygon fill="black" stroke="black" points="674.33,-48.4 673.29,-37.85 667.53,-46.75 674.33,-48.4"/>
</g>
</g>
</svg>
