<?xml version="1.0" encoding="UTF-8" standalone="no"?>
<!DOCTYPE svg PUBLIC "-//W3C//DTD SVG 1.1//EN"
 "http://www.w3.org/Graphics/SVG/1.1/DTD/svg11.dtd">
<!-- Generated by graphviz version 12.2.1 (20241206.2353)
 -->
<!-- Pages: 1 -->
<svg width="729pt" height="116pt"
 viewBox="0.00 0.00 729.26 116.00" xmlns="http://www.w3.org/2000/svg" xmlns:xlink="http://www.w3.org/1999/xlink">
<g id="graph0" class="graph" transform="scale(1 1) rotate(0) translate(4 112)">
<polygon fill="white" stroke="none" points="-4,4 -4,-112 725.26,-112 725.26,4 -4,4"/>
<!-- r1_node_11 -->
<g id="node1" class="node">
<title>r1_node_11</title>
<ellipse fill="none" stroke="black" cx="54.93" cy="-18" rx="54.93" ry="18"/>
<text text-anchor="middle" x="54.93" y="-12.95" font-family="Times,serif" font-size="14.00">r1_node_11</text>
</g>
<!-- r1_node_3 -->
<g id="node2" class="node">
<title>r1_node_3</title>
<ellipse fill="none" stroke="black" cx="177.93" cy="-18" rx="50.33" ry="18"/>
<text text-anchor="middle" x="177.93" y="-12.95" font-family="Times,serif" font-size="14.00">r1_node_3</text>
</g>
<!-- r1_node_7 -->
<g id="node3" class="node">
<title>r1_node_7</title>
<ellipse fill="none" stroke="black" cx="296.93" cy="-18" rx="50.33" ry="18"/>
<text text-anchor="middle" x="296.93" y="-12.95" font-family="Times,serif" font-size="14.00">r1_node_7</text>
</g>
<!-- r1_node_19 -->
<g id="node4" class="node">
<title>r1_node_19</title>
<ellipse fill="none" stroke="black" cx="115.93" cy="-90" rx="54.93" ry="18"/>
<text text-anchor="middle" x="115.93" y="-84.95" font-family="Times,serif" font-size="14.00">r1_node_19</text>
</g>
<!-- r1_node_19&#45;&gt;r1_node_11 -->
<g id="edge1" class="edge">
<title>r1_node_19&#45;&gt;r1_node_11</title>
<path fill="none" stroke="black" d="M101.48,-72.41C94.11,-63.95 84.99,-53.49 76.79,-44.08"/>
<polygon fill="black" stroke="black" points="79.49,-41.85 70.28,-36.61 74.21,-46.45 79.49,-41.85"/>
</g>
<!-- r1_node_19&#45;&gt;r1_node_3 -->
<g id="edge2" class="edge">
<title>r1_node_19&#45;&gt;r1_node_3</title>
<path fill="none" stroke="black" d="M130.63,-72.41C138.12,-63.95 147.38,-53.49 155.72,-44.08"/>
<polygon fill="black" stroke="black" points="158.33,-46.41 162.34,-36.6 153.09,-41.77 158.33,-46.41"/>
</g>
<!-- r1_node_19&#45;&gt;r1_node_7 -->
<g id="edge3" class="edge">
<title>r1_node_19&#45;&gt;r1_node_7</title>
<path fill="none" stroke="black" d="M150.4,-75.67C179.49,-64.42 221.3,-48.25 252.83,-36.06"/>
<polygon fill="black" stroke="black" points="254.03,-39.34 262.1,-32.47 251.51,-32.82 254.03,-39.34"/>
</g>
<!-- r1_node_18 -->
<g id="node5" class="node">
<title>r1_node_18</title>
<ellipse fill="none" stroke="black" cx="419.93" cy="-18" rx="54.93" ry="18"/>
<text text-anchor="middle" x="419.93" y="-12.95" font-family="Times,serif" font-size="14.00">r1_node_18</text>
</g>
<!-- r1_node_19&#45;&gt;r1_node_18 -->
<g id="edge4" class="edge">
<title>r1_node_19&#45;&gt;r1_node_18</title>
<path fill="none" stroke="black" d="M161.18,-79.6C209.53,-69.42 288.35,-52.43 355.93,-36 359.74,-35.08 363.66,-34.1 367.6,-33.09"/>
<polygon fill="black" stroke="black" points="368.41,-36.5 377.22,-30.61 366.66,-29.72 368.41,-36.5"/>
</g>
<!-- r1_node_12 -->
<g id="node6" class="node">
<title>r1_node_12</title>
<ellipse fill="none" stroke="black" cx="547.93" cy="-18" rx="54.93" ry="18"/>
<text text-anchor="middle" x="547.93" y="-12.95" font-family="Times,serif" font-size="14.00">r1_node_12</text>
</g>
<!-- r1_node_19&#45;&gt;r1_node_12 -->
<g id="edge5" class="edge">
<title>r1_node_19&#45;&gt;r1_node_12</title>
<path fill="none" stroke="black" d="M167.76,-83.47C239.3,-75.39 372.15,-58.82 483.93,-36 488,-35.17 492.2,-34.23 496.4,-33.24"/>
<polygon fill="black" stroke="black" points="497.14,-36.67 506.01,-30.87 495.46,-29.87 497.14,-36.67"/>
</g>
<!-- r1_node_2 -->
<g id="node7" class="node">
<title>r1_node_2</title>
<ellipse fill="none" stroke="black" cx="670.93" cy="-18" rx="50.33" ry="18"/>
<text text-anchor="middle" x="670.93" y="-12.95" font-family="Times,serif" font-size="14.00">r1_node_2</text>
</g>
<!-- r1_node_19&#45;&gt;r1_node_2 -->
<g id="edge6" class="edge">
<title>r1_node_19&#45;&gt;r1_node_2</title>
<path fill="none" stroke="black" d="M169.97,-86.31C261.61,-81.07 453.01,-67.14 611.93,-36 615.54,-35.29 619.25,-34.47 622.97,-33.57"/>
<polygon fill="black" stroke="black" points="623.77,-36.98 632.57,-31.08 622.01,-30.2 623.77,-36.98"/>
</g>
</g>
</svg>
