<?xml version="1.0" encoding="UTF-8" standalone="no"?>
<!DOCTYPE svg PUBLIC "-//W3C//DTD SVG 1.1//EN"
 "http://www.w3.org/Graphics/SVG/1.1/DTD/svg11.dtd">
<!-- Generated by graphviz version 12.2.1 (20241206.2353)
 -->
<!-- Pages: 1 -->
<svg width="549pt" height="332pt"
 viewBox="0.00 0.00 548.66 332.00" xmlns="http://www.w3.org/2000/svg" xmlns:xlink="http://www.w3.org/1999/xlink">
<g id="graph0" class="graph" transform="scale(1 1) rotate(0) translate(4 328)">
<polygon fill="white" stroke="none" points="-4,4 -4,-328 544.66,-328 544.66,4 -4,4"/>
<!-- r4_node_2 -->
<g id="node1" class="node">
<title>r4_node_2</title>
<ellipse fill="none" stroke="black" cx="96.33" cy="-306" rx="50.33" ry="18"/>
<text text-anchor="middle" x="96.33" y="-300.95" font-family="Times,serif" font-size="14.00">r4_node_2</text>
</g>
<!-- r4_node_1 -->
<g id="node2" class="node">
<title>r4_node_1</title>
<ellipse fill="none" stroke="black" cx="50.33" cy="-18" rx="50.33" ry="18"/>
<text text-anchor="middle" x="50.33" y="-12.95" font-family="Times,serif" font-size="14.00">r4_node_1</text>
</g>
<!-- r4_node_2&#45;&gt;r4_node_1 -->
<g id="edge1" class="edge">
<title>r4_node_2&#45;&gt;r4_node_1</title>
<path fill="none" stroke="black" d="M89.15,-288.11C85.08,-277.85 80.22,-264.37 77.33,-252 60.41,-179.69 53.9,-92.17 51.55,-47.8"/>
<polygon fill="black" stroke="black" points="55.05,-47.81 51.06,-37.99 48.06,-48.15 55.05,-47.81"/>
</g>
<!-- r4_node_9 -->
<g id="node3" class="node">
<title>r4_node_9</title>
<ellipse fill="none" stroke="black" cx="490.33" cy="-18" rx="50.33" ry="18"/>
<text text-anchor="middle" x="490.33" y="-12.95" font-family="Times,serif" font-size="14.00">r4_node_9</text>
</g>
<!-- r4_node_2&#45;&gt;r4_node_9 -->
<g id="edge2" class="edge">
<title>r4_node_2&#45;&gt;r4_node_9</title>
<path fill="none" stroke="black" d="M141.8,-297.97C227.28,-281.99 409.76,-234 481.33,-108 491.66,-89.81 493.61,-66.12 493.14,-47.75"/>
<polygon fill="black" stroke="black" points="496.64,-47.6 492.6,-37.81 489.65,-47.98 496.64,-47.6"/>
</g>
<!-- r4_node_8 -->
<g id="node4" class="node">
<title>r4_node_8</title>
<ellipse fill="none" stroke="black" cx="136.33" cy="-234" rx="50.33" ry="18"/>
<text text-anchor="middle" x="136.33" y="-228.95" font-family="Times,serif" font-size="14.00">r4_node_8</text>
</g>
<!-- r4_node_2&#45;&gt;r4_node_8 -->
<g id="edge3" class="edge">
<title>r4_node_2&#45;&gt;r4_node_8</title>
<path fill="none" stroke="black" d="M100.3,-287.7C104.05,-279.7 109.36,-270.02 114.83,-261.15"/>
<polygon fill="black" stroke="black" points="117.68,-263.19 120.16,-252.89 111.8,-259.39 117.68,-263.19"/>
</g>
<!-- r4_node_8&#45;&gt;r4_node_2 -->
<g id="edge9" class="edge">
<title>r4_node_8&#45;&gt;r4_node_2</title>
<path fill="none" stroke="black" d="M132.52,-251.96C128.77,-260 123.4,-269.79 117.88,-278.77"/>
<polygon fill="black" stroke="black" points="114.95,-276.84 112.47,-287.14 120.83,-280.64 114.95,-276.84"/>
</g>
<!-- r4_node_16 -->
<g id="node6" class="node">
<title>r4_node_16</title>
<ellipse fill="none" stroke="black" cx="147.33" cy="-162" rx="54.93" ry="18"/>
<text text-anchor="middle" x="147.33" y="-156.95" font-family="Times,serif" font-size="14.00">r4_node_16</text>
</g>
<!-- r4_node_8&#45;&gt;r4_node_16 -->
<g id="edge10" class="edge">
<title>r4_node_8&#45;&gt;r4_node_16</title>
<path fill="none" stroke="black" d="M133.13,-215.7C133.53,-208.32 134.67,-199.52 136.25,-191.25"/>
<polygon fill="black" stroke="black" points="139.65,-192.1 138.41,-181.58 132.82,-190.58 139.65,-192.1"/>
</g>
<!-- r4_node_11 -->
<g id="node8" class="node">
<title>r4_node_11</title>
<ellipse fill="none" stroke="black" cx="320.33" cy="-162" rx="54.93" ry="18"/>
<text text-anchor="middle" x="320.33" y="-156.95" font-family="Times,serif" font-size="14.00">r4_node_11</text>
</g>
<!-- r4_node_8&#45;&gt;r4_node_11 -->
<g id="edge11" class="edge">
<title>r4_node_8&#45;&gt;r4_node_11</title>
<path fill="none" stroke="black" d="M166.76,-219.34C195.38,-207.85 238.51,-191.4 271.84,-179.24"/>
<polygon fill="black" stroke="black" points="272.65,-182.67 280.86,-175.97 270.27,-176.09 272.65,-182.67"/>
</g>
<!-- r4_node_15 -->
<g id="node10" class="node">
<title>r4_node_15</title>
<ellipse fill="none" stroke="black" cx="257.33" cy="-90" rx="54.93" ry="18"/>
<text text-anchor="middle" x="257.33" y="-84.95" font-family="Times,serif" font-size="14.00">r4_node_15</text>
</g>
<!-- r4_node_8&#45;&gt;r4_node_15 -->
<g id="edge12" class="edge">
<title>r4_node_8&#45;&gt;r4_node_15</title>
<path fill="none" stroke="black" d="M163.06,-218.48C178.59,-209.06 197.72,-195.63 211.33,-180 227.1,-161.88 239.24,-137.41 247.08,-118.71"/>
<polygon fill="black" stroke="black" points="250.26,-120.18 250.74,-109.6 243.77,-117.58 250.26,-120.18"/>
</g>
<!-- r4_node_17 -->
<g id="node5" class="node">
<title>r4_node_17</title>
<ellipse fill="none" stroke="black" cx="211.33" cy="-18" rx="54.93" ry="18"/>
<text text-anchor="middle" x="211.33" y="-12.95" font-family="Times,serif" font-size="14.00">r4_node_17</text>
</g>
<!-- r4_node_16&#45;&gt;r4_node_8 -->
<g id="edge5" class="edge">
<title>r4_node_16&#45;&gt;r4_node_8</title>
<path fill="none" stroke="black" d="M150.53,-180.28C150.13,-187.69 148.98,-196.54 147.38,-204.86"/>
<polygon fill="black" stroke="black" points="143.98,-204.05 145.2,-214.58 150.81,-205.59 143.98,-204.05"/>
</g>
<!-- r4_node_7 -->
<g id="node7" class="node">
<title>r4_node_7</title>
<ellipse fill="none" stroke="black" cx="128.33" cy="-90" rx="50.33" ry="18"/>
<text text-anchor="middle" x="128.33" y="-84.95" font-family="Times,serif" font-size="14.00">r4_node_7</text>
</g>
<!-- r4_node_16&#45;&gt;r4_node_7 -->
<g id="edge4" class="edge">
<title>r4_node_16&#45;&gt;r4_node_7</title>
<path fill="none" stroke="black" d="M136.85,-144.05C134.07,-136.68 131.41,-127.84 129.42,-119.51"/>
<polygon fill="black" stroke="black" points="132.86,-118.84 127.41,-109.76 126,-120.26 132.86,-118.84"/>
</g>
<!-- r4_node_7&#45;&gt;r4_node_1 -->
<g id="edge17" class="edge">
<title>r4_node_7&#45;&gt;r4_node_1</title>
<path fill="none" stroke="black" d="M110.24,-72.76C100.29,-63.84 87.78,-52.61 76.76,-42.72"/>
<polygon fill="black" stroke="black" points="79.23,-40.23 69.45,-36.16 74.55,-45.44 79.23,-40.23"/>
</g>
<!-- r4_node_7&#45;&gt;r4_node_17 -->
<g id="edge18" class="edge">
<title>r4_node_7&#45;&gt;r4_node_17</title>
<path fill="none" stroke="black" d="M147.16,-73.12C157.83,-64.12 171.39,-52.68 183.29,-42.65"/>
<polygon fill="black" stroke="black" points="185.45,-45.41 190.84,-36.28 180.93,-40.05 185.45,-45.41"/>
</g>
<!-- r4_node_7&#45;&gt;r4_node_16 -->
<g id="edge16" class="edge">
<title>r4_node_7&#45;&gt;r4_node_16</title>
<path fill="none" stroke="black" d="M138.68,-107.62C141.53,-115.1 144.25,-124.14 146.27,-132.64"/>
<polygon fill="black" stroke="black" points="142.8,-133.13 148.24,-142.21 149.65,-131.71 142.8,-133.13"/>
</g>
<!-- r4_node_11&#45;&gt;r4_node_8 -->
<g id="edge7" class="edge">
<title>r4_node_11&#45;&gt;r4_node_8</title>
<path fill="none" stroke="black" d="M288.79,-177.11C259.8,-188.72 216.62,-205.17 183.55,-217.22"/>
<polygon fill="black" stroke="black" points="182.39,-213.92 174.18,-220.61 184.78,-220.5 182.39,-213.92"/>
</g>
<!-- r4_node_11&#45;&gt;r4_node_17 -->
<g id="edge8" class="edge">
<title>r4_node_11&#45;&gt;r4_node_17</title>
<path fill="none" stroke="black" d="M325.67,-143.79C330.5,-124.69 334.97,-93.72 321.33,-72 309.23,-52.74 287.95,-40.31 267.31,-32.38"/>
<polygon fill="black" stroke="black" points="268.65,-29.14 258.05,-29.13 266.33,-35.74 268.65,-29.14"/>
</g>
<!-- r4_node_4 -->
<g id="node9" class="node">
<title>r4_node_4</title>
<ellipse fill="none" stroke="black" cx="422.33" cy="-90" rx="50.33" ry="18"/>
<text text-anchor="middle" x="422.33" y="-84.95" font-family="Times,serif" font-size="14.00">r4_node_4</text>
</g>
<!-- r4_node_11&#45;&gt;r4_node_4 -->
<g id="edge6" class="edge">
<title>r4_node_11&#45;&gt;r4_node_4</title>
<path fill="none" stroke="black" d="M338.18,-144.76C351.53,-134.84 370.03,-122.05 386.34,-111.44"/>
<polygon fill="black" stroke="black" points="387.83,-114.64 394.36,-106.3 384.05,-108.75 387.83,-114.64"/>
</g>
<!-- r4_node_4&#45;&gt;r4_node_9 -->
<g id="edge13" class="edge">
<title>r4_node_4&#45;&gt;r4_node_9</title>
<path fill="none" stroke="black" d="M438.1,-72.76C446.6,-64.02 457.25,-53.05 466.71,-43.31"/>
<polygon fill="black" stroke="black" points="469.13,-45.84 473.59,-36.23 464.11,-40.97 469.13,-45.84"/>
</g>
<!-- r4_node_4&#45;&gt;r4_node_11 -->
<g id="edge14" class="edge">
<title>r4_node_4&#45;&gt;r4_node_11</title>
<path fill="none" stroke="black" d="M404.5,-107.21C391.48,-116.9 373.55,-129.31 357.53,-139.76"/>
<polygon fill="black" stroke="black" points="355.66,-136.81 349.14,-145.16 359.44,-142.7 355.66,-136.81"/>
</g>
<!-- r4_node_19 -->
<g id="node11" class="node">
<title>r4_node_19</title>
<ellipse fill="none" stroke="black" cx="358.33" cy="-18" rx="54.93" ry="18"/>
<text text-anchor="middle" x="358.33" y="-12.95" font-family="Times,serif" font-size="14.00">r4_node_19</text>
</g>
<!-- r4_node_4&#45;&gt;r4_node_19 -->
<g id="edge15" class="edge">
<title>r4_node_4&#45;&gt;r4_node_19</title>
<path fill="none" stroke="black" d="M407.16,-72.41C399.35,-63.87 389.67,-53.28 380.99,-43.79"/>
<polygon fill="black" stroke="black" points="383.74,-41.61 374.41,-36.59 378.57,-46.33 383.74,-41.61"/>
</g>
</g>
</svg>
