<?xml version="1.0" encoding="UTF-8" standalone="no"?>
<!DOCTYPE svg PUBLIC "-//W3C//DTD SVG 1.1//EN"
 "http://www.w3.org/Graphics/SVG/1.1/DTD/svg11.dtd">
<!-- Generated by graphviz version 12.2.1 (20241206.2353)
 -->
<!-- Pages: 1 -->
<svg width="730pt" height="692pt"
 viewBox="0.00 0.00 730.18 692.00" xmlns="http://www.w3.org/2000/svg" xmlns:xlink="http://www.w3.org/1999/xlink">
<g id="graph0" class="graph" transform="scale(1 1) rotate(0) translate(4 688)">
<polygon fill="white" stroke="none" points="-4,4 -4,-688 726.18,-688 726.18,4 -4,4"/>
<!-- r2_node_21 -->
<g id="node1" class="node">
<title>r2_node_21</title>
<ellipse fill="none" stroke="black" cx="110.33" cy="-18" rx="54.93" ry="18"/>
<text text-anchor="middle" x="110.33" y="-12.95" font-family="Times,serif" font-size="14.00">r2_node_21</text>
</g>
<!-- r2_node_19 -->
<g id="node2" class="node">
<title>r2_node_19</title>
<ellipse fill="none" stroke="black" cx="300.33" cy="-18" rx="54.93" ry="18"/>
<text text-anchor="middle" x="300.33" y="-12.95" font-family="Times,serif" font-size="14.00">r2_node_19</text>
</g>
<!-- r2_node_14 -->
<g id="node3" class="node">
<title>r2_node_14</title>
<ellipse fill="none" stroke="black" cx="540.33" cy="-306" rx="54.93" ry="18"/>
<text text-anchor="middle" x="540.33" y="-300.95" font-family="Times,serif" font-size="14.00">r2_node_14</text>
</g>
<!-- r2_node_22 -->
<g id="node4" class="node">
<title>r2_node_22</title>
<ellipse fill="none" stroke="black" cx="294.33" cy="-234" rx="54.93" ry="18"/>
<text text-anchor="middle" x="294.33" y="-228.95" font-family="Times,serif" font-size="14.00">r2_node_22</text>
</g>
<!-- r2_node_14&#45;&gt;r2_node_22 -->
<g id="edge1" class="edge">
<title>r2_node_14&#45;&gt;r2_node_22</title>
<path fill="none" stroke="black" d="M499.71,-293.44C457.47,-281.42 391.26,-262.58 345.48,-249.56"/>
<polygon fill="black" stroke="black" points="346.63,-246.24 336.06,-246.87 344.72,-252.98 346.63,-246.24"/>
</g>
<!-- r2_node_5 -->
<g id="node5" class="node">
<title>r2_node_5</title>
<ellipse fill="none" stroke="black" cx="375.33" cy="-522" rx="50.33" ry="18"/>
<text text-anchor="middle" x="375.33" y="-516.95" font-family="Times,serif" font-size="14.00">r2_node_5</text>
</g>
<!-- r2_node_14&#45;&gt;r2_node_5 -->
<g id="edge2" class="edge">
<title>r2_node_14&#45;&gt;r2_node_5</title>
<path fill="none" stroke="black" d="M560.31,-323.14C576.13,-341.28 593.07,-371.4 581.33,-396 559.41,-441.92 535.21,-440.62 492.33,-468 470.24,-482.1 443.86,-495.11 421.64,-504.71"/>
<polygon fill="black" stroke="black" points="420.36,-501.45 412.5,-508.56 423.08,-507.91 420.36,-501.45"/>
</g>
<!-- r2_node_2 -->
<g id="node6" class="node">
<title>r2_node_2</title>
<ellipse fill="none" stroke="black" cx="424.33" cy="-234" rx="50.33" ry="18"/>
<text text-anchor="middle" x="424.33" y="-228.95" font-family="Times,serif" font-size="14.00">r2_node_2</text>
</g>
<!-- r2_node_14&#45;&gt;r2_node_2 -->
<g id="edge3" class="edge">
<title>r2_node_14&#45;&gt;r2_node_2</title>
<path fill="none" stroke="black" d="M510.7,-290.5C493.36,-280.79 471.66,-267.83 454.28,-256.88"/>
<polygon fill="black" stroke="black" points="456.2,-253.95 445.88,-251.52 452.43,-259.85 456.2,-253.95"/>
</g>
<!-- r2_node_5&#45;&gt;r2_node_14 -->
<g id="edge42" class="edge">
<title>r2_node_5&#45;&gt;r2_node_14</title>
<path fill="none" stroke="black" d="M402.21,-506.4C422.68,-496.67 450.91,-482.95 474.33,-468 517.21,-440.62 541.41,-441.92 563.33,-396 572.96,-375.81 563.28,-351.9 553.46,-333.95"/>
<polygon fill="black" stroke="black" points="556.59,-332.37 548.57,-325.45 550.53,-335.86 556.59,-332.37"/>
</g>
<!-- r2_node_29 -->
<g id="node25" class="node">
<title>r2_node_29</title>
<ellipse fill="none" stroke="black" cx="603.33" cy="-18" rx="54.93" ry="18"/>
<text text-anchor="middle" x="603.33" y="-12.95" font-family="Times,serif" font-size="14.00">r2_node_29</text>
</g>
<!-- r2_node_5&#45;&gt;r2_node_29 -->
<g id="edge41" class="edge">
<title>r2_node_5&#45;&gt;r2_node_29</title>
<path fill="none" stroke="black" d="M419.9,-513.41C454.24,-505.99 501.7,-492.17 537.33,-468 571.8,-444.61 576.94,-432.33 597.33,-396 670.95,-264.8 770.61,-202.25 695.33,-72 685.86,-55.61 669.18,-43.84 652.6,-35.63"/>
<polygon fill="black" stroke="black" points="654.29,-32.55 643.74,-31.59 651.39,-38.92 654.29,-32.55"/>
</g>
<!-- r2_node_3 -->
<g id="node27" class="node">
<title>r2_node_3</title>
<ellipse fill="none" stroke="black" cx="424.33" cy="-450" rx="50.33" ry="18"/>
<text text-anchor="middle" x="424.33" y="-444.95" font-family="Times,serif" font-size="14.00">r2_node_3</text>
</g>
<!-- r2_node_5&#45;&gt;r2_node_3 -->
<g id="edge44" class="edge">
<title>r2_node_5&#45;&gt;r2_node_3</title>
<path fill="none" stroke="black" d="M381.52,-503.7C386.47,-495.4 393.34,-485.31 400.19,-476.19"/>
<polygon fill="black" stroke="black" points="402.92,-478.38 406.31,-468.34 397.4,-474.07 402.92,-478.38"/>
</g>
<!-- r2_node_6 -->
<g id="node29" class="node">
<title>r2_node_6</title>
<ellipse fill="none" stroke="black" cx="289.33" cy="-594" rx="50.33" ry="18"/>
<text text-anchor="middle" x="289.33" y="-588.95" font-family="Times,serif" font-size="14.00">r2_node_6</text>
</g>
<!-- r2_node_5&#45;&gt;r2_node_6 -->
<g id="edge43" class="edge">
<title>r2_node_5&#45;&gt;r2_node_6</title>
<path fill="none" stroke="black" d="M360.74,-539.63C350.2,-549.04 335.75,-560.93 322.55,-571.1"/>
<polygon fill="black" stroke="black" points="320.74,-568.08 314.87,-576.9 324.96,-573.66 320.74,-568.08"/>
</g>
<!-- r2_node_2&#45;&gt;r2_node_14 -->
<g id="edge15" class="edge">
<title>r2_node_2&#45;&gt;r2_node_14</title>
<path fill="none" stroke="black" d="M453.21,-249.09C470.62,-258.81 492.62,-271.94 510.23,-283.02"/>
<polygon fill="black" stroke="black" points="507.91,-285.7 518.22,-288.13 511.67,-279.8 507.91,-285.7"/>
</g>
<!-- r2_node_9 -->
<g id="node14" class="node">
<title>r2_node_9</title>
<ellipse fill="none" stroke="black" cx="421.33" cy="-162" rx="50.33" ry="18"/>
<text text-anchor="middle" x="421.33" y="-156.95" font-family="Times,serif" font-size="14.00">r2_node_9</text>
</g>
<!-- r2_node_2&#45;&gt;r2_node_9 -->
<g id="edge14" class="edge">
<title>r2_node_2&#45;&gt;r2_node_9</title>
<path fill="none" stroke="black" d="M417.67,-215.7C416.61,-208.41 415.99,-199.73 415.9,-191.54"/>
<polygon fill="black" stroke="black" points="419.4,-191.69 416.13,-181.62 412.4,-191.53 419.4,-191.69"/>
</g>
<!-- r2_node_7 -->
<g id="node16" class="node">
<title>r2_node_7</title>
<ellipse fill="none" stroke="black" cx="299.33" cy="-162" rx="50.33" ry="18"/>
<text text-anchor="middle" x="299.33" y="-156.95" font-family="Times,serif" font-size="14.00">r2_node_7</text>
</g>
<!-- r2_node_2&#45;&gt;r2_node_7 -->
<g id="edge13" class="edge">
<title>r2_node_2&#45;&gt;r2_node_7</title>
<path fill="none" stroke="black" d="M394.13,-219.17C375.05,-209.24 350.56,-195.67 331.19,-184.35"/>
<polygon fill="black" stroke="black" points="332.99,-181.36 322.6,-179.28 329.43,-187.38 332.99,-181.36"/>
</g>
<!-- r2_node_30 -->
<g id="node17" class="node">
<title>r2_node_30</title>
<ellipse fill="none" stroke="black" cx="459.33" cy="-18" rx="54.93" ry="18"/>
<text text-anchor="middle" x="459.33" y="-12.95" font-family="Times,serif" font-size="14.00">r2_node_30</text>
</g>
<!-- r2_node_2&#45;&gt;r2_node_30 -->
<g id="edge16" class="edge">
<title>r2_node_2&#45;&gt;r2_node_30</title>
<path fill="none" stroke="black" d="M459.84,-220.8C523.67,-198.08 653.46,-147.95 678.33,-108 686.78,-94.42 688.22,-84.57 678.33,-72 675.74,-68.71 578.92,-46.17 514.89,-31.57"/>
<polygon fill="black" stroke="black" points="515.74,-28.17 505.21,-29.36 514.19,-35 515.74,-28.17"/>
</g>
<!-- r2_node_12 -->
<g id="node7" class="node">
<title>r2_node_12</title>
<ellipse fill="none" stroke="black" cx="102.33" cy="-594" rx="54.93" ry="18"/>
<text text-anchor="middle" x="102.33" y="-588.95" font-family="Times,serif" font-size="14.00">r2_node_12</text>
</g>
<!-- r2_node_8 -->
<g id="node8" class="node">
<title>r2_node_8</title>
<ellipse fill="none" stroke="black" cx="50.33" cy="-666" rx="50.33" ry="18"/>
<text text-anchor="middle" x="50.33" y="-660.95" font-family="Times,serif" font-size="14.00">r2_node_8</text>
</g>
<!-- r2_node_12&#45;&gt;r2_node_8 -->
<g id="edge4" class="edge">
<title>r2_node_12&#45;&gt;r2_node_8</title>
<path fill="none" stroke="black" d="M95.5,-612.12C90.16,-620.5 82.75,-630.74 75.42,-639.98"/>
<polygon fill="black" stroke="black" points="72.8,-637.65 69.15,-647.6 78.21,-642.1 72.8,-637.65"/>
</g>
<!-- r2_node_20 -->
<g id="node9" class="node">
<title>r2_node_20</title>
<ellipse fill="none" stroke="black" cx="75.33" cy="-450" rx="54.93" ry="18"/>
<text text-anchor="middle" x="75.33" y="-444.95" font-family="Times,serif" font-size="14.00">r2_node_20</text>
</g>
<!-- r2_node_12&#45;&gt;r2_node_20 -->
<g id="edge5" class="edge">
<title>r2_node_12&#45;&gt;r2_node_20</title>
<path fill="none" stroke="black" d="M95.49,-576.09C91.61,-565.82 87.01,-552.34 84.33,-540 80.01,-520.12 77.75,-497.28 76.58,-479.72"/>
<polygon fill="black" stroke="black" points="80.07,-479.53 76,-469.75 73.09,-479.94 80.07,-479.53"/>
</g>
<!-- r2_node_17 -->
<g id="node10" class="node">
<title>r2_node_17</title>
<ellipse fill="none" stroke="black" cx="148.33" cy="-522" rx="54.93" ry="18"/>
<text text-anchor="middle" x="148.33" y="-516.95" font-family="Times,serif" font-size="14.00">r2_node_17</text>
</g>
<!-- r2_node_12&#45;&gt;r2_node_17 -->
<g id="edge6" class="edge">
<title>r2_node_12&#45;&gt;r2_node_17</title>
<path fill="none" stroke="black" d="M107.78,-575.7C112.26,-567.61 118.49,-557.81 124.79,-548.87"/>
<polygon fill="black" stroke="black" points="127.58,-550.98 130.67,-540.84 121.93,-546.84 127.58,-550.98"/>
</g>
<!-- r2_node_28 -->
<g id="node11" class="node">
<title>r2_node_28</title>
<ellipse fill="none" stroke="black" cx="532.33" cy="-522" rx="54.93" ry="18"/>
<text text-anchor="middle" x="532.33" y="-516.95" font-family="Times,serif" font-size="14.00">r2_node_28</text>
</g>
<!-- r2_node_12&#45;&gt;r2_node_28 -->
<g id="edge7" class="edge">
<title>r2_node_12&#45;&gt;r2_node_28</title>
<path fill="none" stroke="black" d="M151.3,-585.39C216.1,-575.28 333.86,-556.73 434.33,-540 447.11,-537.87 460.81,-535.53 473.8,-533.28"/>
<polygon fill="black" stroke="black" points="474.25,-536.76 483.5,-531.6 473.05,-529.86 474.25,-536.76"/>
</g>
<!-- r2_node_8&#45;&gt;r2_node_21 -->
<g id="edge45" class="edge">
<title>r2_node_8&#45;&gt;r2_node_21</title>
<path fill="none" stroke="black" d="M45.67,-647.78C36.76,-613.75 17.59,-535.35 11.33,-468 -3.75,-305.75 68.17,-116.76 97.93,-46.84"/>
<polygon fill="black" stroke="black" points="101.13,-48.25 101.88,-37.69 94.7,-45.48 101.13,-48.25"/>
</g>
<!-- r2_node_8&#45;&gt;r2_node_12 -->
<g id="edge47" class="edge">
<title>r2_node_8&#45;&gt;r2_node_12</title>
<path fill="none" stroke="black" d="M57.27,-647.7C62.63,-639.32 70.02,-629.1 77.34,-619.9"/>
<polygon fill="black" stroke="black" points="79.93,-622.26 83.58,-612.31 74.52,-617.81 79.93,-622.26"/>
</g>
<!-- r2_node_26 -->
<g id="node24" class="node">
<title>r2_node_26</title>
<ellipse fill="none" stroke="black" cx="150.33" cy="-378" rx="54.93" ry="18"/>
<text text-anchor="middle" x="150.33" y="-372.95" font-family="Times,serif" font-size="14.00">r2_node_26</text>
</g>
<!-- r2_node_8&#45;&gt;r2_node_26 -->
<g id="edge46" class="edge">
<title>r2_node_8&#45;&gt;r2_node_26</title>
<path fill="none" stroke="black" d="M87.44,-653.43C111.6,-644.66 142.87,-630.89 166.33,-612 228.64,-561.83 249.03,-543.89 274.33,-468 279.39,-452.82 283.14,-445.35 274.33,-432 259.9,-410.14 234.4,-397.27 210.27,-389.7"/>
<polygon fill="black" stroke="black" points="211.35,-386.37 200.77,-386.99 209.43,-393.1 211.35,-386.37"/>
</g>
<!-- r2_node_17&#45;&gt;r2_node_12 -->
<g id="edge12" class="edge">
<title>r2_node_17&#45;&gt;r2_node_12</title>
<path fill="none" stroke="black" d="M143.06,-539.96C138.54,-548.17 132.15,-558.22 125.72,-567.34"/>
<polygon fill="black" stroke="black" points="123.06,-565.06 119.96,-575.19 128.7,-569.2 123.06,-565.06"/>
</g>
<!-- r2_node_17&#45;&gt;r2_node_20 -->
<g id="edge11" class="edge">
<title>r2_node_17&#45;&gt;r2_node_20</title>
<path fill="none" stroke="black" d="M131.4,-504.76C122.25,-495.99 110.77,-484.99 100.59,-475.22"/>
<polygon fill="black" stroke="black" points="103.15,-472.83 93.51,-468.44 98.31,-477.88 103.15,-472.83"/>
</g>
<!-- r2_node_15 -->
<g id="node15" class="node">
<title>r2_node_15</title>
<ellipse fill="none" stroke="black" cx="210.33" cy="-450" rx="54.93" ry="18"/>
<text text-anchor="middle" x="210.33" y="-444.95" font-family="Times,serif" font-size="14.00">r2_node_15</text>
</g>
<!-- r2_node_17&#45;&gt;r2_node_15 -->
<g id="edge10" class="edge">
<title>r2_node_17&#45;&gt;r2_node_15</title>
<path fill="none" stroke="black" d="M157.46,-504.05C164.29,-495.29 173.71,-484.45 182.76,-474.86"/>
<polygon fill="black" stroke="black" points="185.05,-477.53 189.5,-467.92 180.02,-472.65 185.05,-477.53"/>
</g>
<!-- r2_node_27 -->
<g id="node12" class="node">
<title>r2_node_27</title>
<ellipse fill="none" stroke="black" cx="649.33" cy="-594" rx="54.93" ry="18"/>
<text text-anchor="middle" x="649.33" y="-588.95" font-family="Times,serif" font-size="14.00">r2_node_27</text>
</g>
<!-- r2_node_10 -->
<g id="node13" class="node">
<title>r2_node_10</title>
<ellipse fill="none" stroke="black" cx="496.33" cy="-90" rx="54.93" ry="18"/>
<text text-anchor="middle" x="496.33" y="-84.95" font-family="Times,serif" font-size="14.00">r2_node_10</text>
</g>
<!-- r2_node_10&#45;&gt;r2_node_19 -->
<g id="edge8" class="edge">
<title>r2_node_10&#45;&gt;r2_node_19</title>
<path fill="none" stroke="black" d="M460.38,-76.16C428.57,-64.8 381.94,-48.15 347.21,-35.74"/>
<polygon fill="black" stroke="black" points="348.4,-32.45 337.81,-32.39 346.05,-39.04 348.4,-32.45"/>
</g>
<!-- r2_node_10&#45;&gt;r2_node_9 -->
<g id="edge9" class="edge">
<title>r2_node_10&#45;&gt;r2_node_9</title>
<path fill="none" stroke="black" d="M484.03,-107.96C475.33,-116.98 463.48,-128.19 452.37,-137.99"/>
<polygon fill="black" stroke="black" points="450.13,-135.3 444.84,-144.48 454.7,-140.6 450.13,-135.3"/>
</g>
<!-- r2_node_9&#45;&gt;r2_node_2 -->
<g id="edge19" class="edge">
<title>r2_node_9&#45;&gt;r2_node_2</title>
<path fill="none" stroke="black" d="M427.96,-180.1C429.03,-187.37 429.65,-196.04 429.75,-204.24"/>
<polygon fill="black" stroke="black" points="426.25,-204.11 429.53,-214.18 433.25,-204.26 426.25,-204.11"/>
</g>
<!-- r2_node_9&#45;&gt;r2_node_10 -->
<g id="edge18" class="edge">
<title>r2_node_9&#45;&gt;r2_node_10</title>
<path fill="none" stroke="black" d="M433.6,-144.05C442.23,-135.12 453.96,-124.01 464.99,-114.28"/>
<polygon fill="black" stroke="black" points="467.19,-117 472.47,-107.82 462.61,-111.7 467.19,-117"/>
</g>
<!-- r2_node_1 -->
<g id="node19" class="node">
<title>r2_node_1</title>
<ellipse fill="none" stroke="black" cx="619.33" cy="-90" rx="50.33" ry="18"/>
<text text-anchor="middle" x="619.33" y="-84.95" font-family="Times,serif" font-size="14.00">r2_node_1</text>
</g>
<!-- r2_node_9&#45;&gt;r2_node_1 -->
<g id="edge17" class="edge">
<title>r2_node_9&#45;&gt;r2_node_1</title>
<path fill="none" stroke="black" d="M453.16,-147.83C485.2,-135.9 534.82,-118.34 571.55,-105.9"/>
<polygon fill="black" stroke="black" points="572.23,-109.36 580.59,-102.85 570,-102.73 572.23,-109.36"/>
</g>
<!-- r2_node_15&#45;&gt;r2_node_17 -->
<g id="edge36" class="edge">
<title>r2_node_15&#45;&gt;r2_node_17</title>
<path fill="none" stroke="black" d="M201.31,-467.8C194.49,-476.56 185.06,-487.43 175.97,-497.06"/>
<polygon fill="black" stroke="black" points="173.66,-494.42 169.21,-504.03 178.69,-499.29 173.66,-494.42"/>
</g>
<!-- r2_node_18 -->
<g id="node18" class="node">
<title>r2_node_18</title>
<ellipse fill="none" stroke="black" cx="309.33" cy="-378" rx="54.93" ry="18"/>
<text text-anchor="middle" x="309.33" y="-372.95" font-family="Times,serif" font-size="14.00">r2_node_18</text>
</g>
<!-- r2_node_15&#45;&gt;r2_node_18 -->
<g id="edge37" class="edge">
<title>r2_node_15&#45;&gt;r2_node_18</title>
<path fill="none" stroke="black" d="M232.79,-433.12C246.08,-423.72 263.12,-411.67 277.75,-401.33"/>
<polygon fill="black" stroke="black" points="279.57,-404.33 285.72,-395.7 275.53,-398.61 279.57,-404.33"/>
</g>
<!-- r2_node_15&#45;&gt;r2_node_26 -->
<g id="edge35" class="edge">
<title>r2_node_15&#45;&gt;r2_node_26</title>
<path fill="none" stroke="black" d="M196.11,-432.41C188.86,-423.95 179.89,-413.49 171.82,-404.08"/>
<polygon fill="black" stroke="black" points="174.6,-401.93 165.43,-396.62 169.28,-406.49 174.6,-401.93"/>
</g>
<!-- r2_node_7&#45;&gt;r2_node_21 -->
<g id="edge25" class="edge">
<title>r2_node_7&#45;&gt;r2_node_21</title>
<path fill="none" stroke="black" d="M321.35,-145.51C344.73,-127.18 375.81,-96.13 356.33,-72 344.66,-57.55 239.97,-38.91 170.97,-28.03"/>
<polygon fill="black" stroke="black" points="171.72,-24.6 161.3,-26.52 170.64,-31.52 171.72,-24.6"/>
</g>
<!-- r2_node_7&#45;&gt;r2_node_19 -->
<g id="edge24" class="edge">
<title>r2_node_7&#45;&gt;r2_node_19</title>
<path fill="none" stroke="black" d="M336.15,-149.42C355.66,-141.19 377.9,-127.99 389.33,-108 397.27,-94.11 397.23,-85.91 389.33,-72 380.29,-56.1 364.38,-44.46 348.49,-36.22"/>
<polygon fill="black" stroke="black" points="350.02,-33.07 339.49,-31.93 347.01,-39.39 350.02,-33.07"/>
</g>
<!-- r2_node_7&#45;&gt;r2_node_2 -->
<g id="edge27" class="edge">
<title>r2_node_7&#45;&gt;r2_node_2</title>
<path fill="none" stroke="black" d="M329.53,-176.83C348.59,-186.75 373.06,-200.31 392.42,-211.62"/>
<polygon fill="black" stroke="black" points="390.61,-214.62 401,-216.69 394.18,-208.59 390.61,-214.62"/>
</g>
<!-- r2_node_23 -->
<g id="node21" class="node">
<title>r2_node_23</title>
<ellipse fill="none" stroke="black" cx="292.33" cy="-90" rx="54.93" ry="18"/>
<text text-anchor="middle" x="292.33" y="-84.95" font-family="Times,serif" font-size="14.00">r2_node_23</text>
</g>
<!-- r2_node_7&#45;&gt;r2_node_23 -->
<g id="edge26" class="edge">
<title>r2_node_7&#45;&gt;r2_node_23</title>
<path fill="none" stroke="black" d="M297.6,-143.7C296.87,-136.41 296,-127.73 295.18,-119.54"/>
<polygon fill="black" stroke="black" points="298.67,-119.21 294.19,-109.61 291.7,-119.91 298.67,-119.21"/>
</g>
<!-- r2_node_1&#45;&gt;r2_node_9 -->
<g id="edge30" class="edge">
<title>r2_node_1&#45;&gt;r2_node_9</title>
<path fill="none" stroke="black" d="M587.44,-104.19C555.42,-116.11 505.89,-133.65 469.19,-146.08"/>
<polygon fill="black" stroke="black" points="468.52,-142.61 460.16,-149.11 470.75,-149.24 468.52,-142.61"/>
</g>
<!-- r2_node_1&#45;&gt;r2_node_30 -->
<g id="edge29" class="edge">
<title>r2_node_1&#45;&gt;r2_node_30</title>
<path fill="none" stroke="black" d="M588.48,-75.5C563.87,-64.74 529.12,-49.54 501.87,-37.61"/>
<polygon fill="black" stroke="black" points="503.4,-34.46 492.84,-33.66 500.6,-40.88 503.4,-34.46"/>
</g>
<!-- r2_node_1&#45;&gt;r2_node_29 -->
<g id="edge28" class="edge">
<title>r2_node_1&#45;&gt;r2_node_29</title>
<path fill="none" stroke="black" d="M615.37,-71.7C613.69,-64.32 611.68,-55.52 609.78,-47.25"/>
<polygon fill="black" stroke="black" points="613.21,-46.55 607.57,-37.58 606.39,-48.11 613.21,-46.55"/>
</g>
<!-- r2_node_16 -->
<g id="node20" class="node">
<title>r2_node_16</title>
<ellipse fill="none" stroke="black" cx="491.33" cy="-378" rx="54.93" ry="18"/>
<text text-anchor="middle" x="491.33" y="-372.95" font-family="Times,serif" font-size="14.00">r2_node_16</text>
</g>
<!-- r2_node_16&#45;&gt;r2_node_21 -->
<g id="edge20" class="edge">
<title>r2_node_16&#45;&gt;r2_node_21</title>
<path fill="none" stroke="black" d="M448.69,-366.22C439.98,-364.1 430.87,-361.93 422.33,-360 344.87,-342.5 306.71,-376.71 247.33,-324 159.45,-245.99 229.91,-171.45 167.33,-72 160.33,-60.88 150.42,-50.56 140.83,-42.04"/>
<polygon fill="black" stroke="black" points="143.25,-39.5 133.36,-35.72 138.74,-44.85 143.25,-39.5"/>
</g>
<!-- r2_node_16&#45;&gt;r2_node_23 -->
<g id="edge21" class="edge">
<title>r2_node_16&#45;&gt;r2_node_23</title>
<path fill="none" stroke="black" d="M448.85,-366.22C397.41,-352.98 316.01,-331.37 303.33,-324 263.93,-301.09 247.91,-294.04 230.33,-252 221.16,-230.08 237.35,-150.05 240.33,-144 245.66,-133.15 254.06,-123.15 262.57,-114.81"/>
<polygon fill="black" stroke="black" points="264.88,-117.44 269.88,-108.1 260.15,-112.28 264.88,-117.44"/>
</g>
<!-- r2_node_4 -->
<g id="node22" class="node">
<title>r2_node_4</title>
<ellipse fill="none" stroke="black" cx="384.33" cy="-666" rx="50.33" ry="18"/>
<text text-anchor="middle" x="384.33" y="-660.95" font-family="Times,serif" font-size="14.00">r2_node_4</text>
</g>
<!-- r2_node_4&#45;&gt;r2_node_28 -->
<g id="edge23" class="edge">
<title>r2_node_4&#45;&gt;r2_node_28</title>
<path fill="none" stroke="black" d="M427.99,-656.78C471.27,-647.64 533.12,-631.56 547.33,-612 560.18,-594.3 554.56,-569.44 546.78,-550.49"/>
<polygon fill="black" stroke="black" points="550.02,-549.16 542.71,-541.49 543.65,-552.05 550.02,-549.16"/>
</g>
<!-- r2_node_25 -->
<g id="node23" class="node">
<title>r2_node_25</title>
<ellipse fill="none" stroke="black" cx="483.33" cy="-594" rx="54.93" ry="18"/>
<text text-anchor="middle" x="483.33" y="-588.95" font-family="Times,serif" font-size="14.00">r2_node_25</text>
</g>
<!-- r2_node_4&#45;&gt;r2_node_25 -->
<g id="edge22" class="edge">
<title>r2_node_4&#45;&gt;r2_node_25</title>
<path fill="none" stroke="black" d="M406.3,-649.46C419.66,-640.02 436.95,-627.79 451.77,-617.32"/>
<polygon fill="black" stroke="black" points="453.7,-620.24 459.84,-611.61 449.65,-614.52 453.7,-620.24"/>
</g>
<!-- r2_node_11 -->
<g id="node26" class="node">
<title>r2_node_11</title>
<ellipse fill="none" stroke="black" cx="232.33" cy="-666" rx="54.93" ry="18"/>
<text text-anchor="middle" x="232.33" y="-660.95" font-family="Times,serif" font-size="14.00">r2_node_11</text>
</g>
<!-- r2_node_11&#45;&gt;r2_node_28 -->
<g id="edge31" class="edge">
<title>r2_node_11&#45;&gt;r2_node_28</title>
<path fill="none" stroke="black" d="M264,-650.95C287.41,-640.46 320,-625.65 348.33,-612 380.2,-596.65 387.53,-591.51 419.33,-576 442.98,-564.46 469.63,-551.94 491.11,-541.96"/>
<polygon fill="black" stroke="black" points="492.54,-545.16 500.14,-537.78 489.59,-538.81 492.54,-545.16"/>
</g>
<!-- r2_node_3&#45;&gt;r2_node_21 -->
<g id="edge32" class="edge">
<title>r2_node_3&#45;&gt;r2_node_21</title>
<path fill="none" stroke="black" d="M419.17,-431.71C412.17,-411.34 397.67,-378 373.33,-360 315.06,-316.93 268.2,-372.45 214.33,-324 132.02,-249.98 114.82,-108.17 111.25,-47.59"/>
<polygon fill="black" stroke="black" points="114.75,-47.6 110.76,-37.78 107.76,-47.94 114.75,-47.6"/>
</g>
<!-- r2_node_3&#45;&gt;r2_node_5 -->
<g id="edge34" class="edge">
<title>r2_node_3&#45;&gt;r2_node_5</title>
<path fill="none" stroke="black" d="M418.24,-468.12C413.3,-476.41 406.43,-486.53 399.56,-495.69"/>
<polygon fill="black" stroke="black" points="396.81,-493.53 393.42,-503.57 402.33,-497.83 396.81,-493.53"/>
</g>
<!-- r2_node_24 -->
<g id="node28" class="node">
<title>r2_node_24</title>
<ellipse fill="none" stroke="black" cx="367.33" cy="-306" rx="54.93" ry="18"/>
<text text-anchor="middle" x="367.33" y="-300.95" font-family="Times,serif" font-size="14.00">r2_node_24</text>
</g>
<!-- r2_node_3&#45;&gt;r2_node_24 -->
<g id="edge33" class="edge">
<title>r2_node_3&#45;&gt;r2_node_24</title>
<path fill="none" stroke="black" d="M463.45,-438.42C498.03,-428.18 544.6,-411.92 555.33,-396 564.27,-382.73 564.99,-372.76 555.33,-360 539.8,-339.49 476.67,-324.68 427.8,-316.01"/>
<polygon fill="black" stroke="black" points="428.61,-312.6 418.16,-314.36 427.43,-319.5 428.61,-312.6"/>
</g>
<!-- r2_node_6&#45;&gt;r2_node_5 -->
<g id="edge39" class="edge">
<title>r2_node_6&#45;&gt;r2_node_5</title>
<path fill="none" stroke="black" d="M303.87,-576.41C314.46,-566.95 329.01,-554.98 342.28,-544.77"/>
<polygon fill="black" stroke="black" points="344.11,-547.77 349.98,-538.95 339.9,-542.18 344.11,-547.77"/>
</g>
<!-- r2_node_6&#45;&gt;r2_node_18 -->
<g id="edge38" class="edge">
<title>r2_node_6&#45;&gt;r2_node_18</title>
<path fill="none" stroke="black" d="M294.26,-575.8C300.85,-551.87 312.16,-507.08 316.33,-468 318.03,-452.09 317.38,-447.97 316.33,-432 315.8,-424 314.83,-415.38 313.78,-407.45"/>
<polygon fill="black" stroke="black" points="317.26,-407.03 312.38,-397.63 310.33,-408.02 317.26,-407.03"/>
</g>
<!-- r2_node_13 -->
<g id="node30" class="node">
<title>r2_node_13</title>
<ellipse fill="none" stroke="black" cx="543.33" cy="-666" rx="54.93" ry="18"/>
<text text-anchor="middle" x="543.33" y="-660.95" font-family="Times,serif" font-size="14.00">r2_node_13</text>
</g>
<!-- r2_node_13&#45;&gt;r2_node_27 -->
<g id="edge40" class="edge">
<title>r2_node_13&#45;&gt;r2_node_27</title>
<path fill="none" stroke="black" d="M567.12,-649.29C581.57,-639.74 600.25,-627.41 616.14,-616.91"/>
<polygon fill="black" stroke="black" points="617.94,-619.92 624.36,-611.49 614.08,-614.08 617.94,-619.92"/>
</g>
</g>
</svg>
