<?xml version="1.0" encoding="UTF-8" standalone="no"?>
<!DOCTYPE svg PUBLIC "-//W3C//DTD SVG 1.1//EN"
 "http://www.w3.org/Graphics/SVG/1.1/DTD/svg11.dtd">
<!-- Generated by graphviz version 12.2.1 (20241206.2353)
 -->
<!-- Pages: 1 -->
<svg width="1023pt" height="404pt"
 viewBox="0.00 0.00 1022.87 404.00" xmlns="http://www.w3.org/2000/svg" xmlns:xlink="http://www.w3.org/1999/xlink">
<g id="graph0" class="graph" transform="scale(1 1) rotate(0) translate(4 400)">
<polygon fill="white" stroke="none" points="-4,4 -4,-400 1018.87,-400 1018.87,4 -4,4"/>
<!-- r3_node_18 -->
<g id="node1" class="node">
<title>r3_node_18</title>
<ellipse fill="none" stroke="black" cx="54.93" cy="-378" rx="54.93" ry="18"/>
<text text-anchor="middle" x="54.93" y="-372.95" font-family="Times,serif" font-size="14.00">r3_node_18</text>
</g>
<!-- r3_node_7 -->
<g id="node2" class="node">
<title>r3_node_7</title>
<ellipse fill="none" stroke="black" cx="116.93" cy="-306" rx="50.33" ry="18"/>
<text text-anchor="middle" x="116.93" y="-300.95" font-family="Times,serif" font-size="14.00">r3_node_7</text>
</g>
<!-- r3_node_18&#45;&gt;r3_node_7 -->
<g id="edge1" class="edge">
<title>r3_node_18&#45;&gt;r3_node_7</title>
<path fill="none" stroke="black" d="M64.06,-360.05C70.9,-351.29 80.31,-340.45 89.37,-330.86"/>
<polygon fill="black" stroke="black" points="91.65,-333.53 96.11,-323.92 86.63,-328.65 91.65,-333.53"/>
</g>
<!-- r3_node_8 -->
<g id="node3" class="node">
<title>r3_node_8</title>
<ellipse fill="none" stroke="black" cx="161.93" cy="-18" rx="50.33" ry="18"/>
<text text-anchor="middle" x="161.93" y="-12.95" font-family="Times,serif" font-size="14.00">r3_node_8</text>
</g>
<!-- r3_node_18&#45;&gt;r3_node_8 -->
<g id="edge2" class="edge">
<title>r3_node_18&#45;&gt;r3_node_8</title>
<path fill="none" stroke="black" d="M50.56,-359.83C39.06,-310.63 12.7,-166.6 70.93,-72 81.01,-55.63 98.17,-43.76 114.89,-35.46"/>
<polygon fill="black" stroke="black" points="116.16,-38.73 123.8,-31.38 113.25,-32.36 116.16,-38.73"/>
</g>
<!-- r3_node_7&#45;&gt;r3_node_18 -->
<g id="edge23" class="edge">
<title>r3_node_7&#45;&gt;r3_node_18</title>
<path fill="none" stroke="black" d="M107.92,-323.8C101.1,-332.56 91.66,-343.43 82.58,-353.06"/>
<polygon fill="black" stroke="black" points="80.27,-350.42 75.82,-360.03 85.29,-355.29 80.27,-350.42"/>
</g>
<!-- r3_node_3 -->
<g id="node8" class="node">
<title>r3_node_3</title>
<ellipse fill="none" stroke="black" cx="415.93" cy="-90" rx="50.33" ry="18"/>
<text text-anchor="middle" x="415.93" y="-84.95" font-family="Times,serif" font-size="14.00">r3_node_3</text>
</g>
<!-- r3_node_7&#45;&gt;r3_node_3 -->
<g id="edge21" class="edge">
<title>r3_node_7&#45;&gt;r3_node_3</title>
<path fill="none" stroke="black" d="M147.7,-291.33C204.56,-265.68 323.32,-210.25 356.93,-180 376.38,-162.5 392.31,-137.26 402.7,-118.12"/>
<polygon fill="black" stroke="black" points="405.79,-119.76 407.32,-109.28 399.58,-116.52 405.79,-119.76"/>
</g>
<!-- r3_node_6 -->
<g id="node11" class="node">
<title>r3_node_6</title>
<ellipse fill="none" stroke="black" cx="132.93" cy="-234" rx="50.33" ry="18"/>
<text text-anchor="middle" x="132.93" y="-228.95" font-family="Times,serif" font-size="14.00">r3_node_6</text>
</g>
<!-- r3_node_7&#45;&gt;r3_node_6 -->
<g id="edge22" class="edge">
<title>r3_node_7&#45;&gt;r3_node_6</title>
<path fill="none" stroke="black" d="M114.97,-287.7C115.91,-280.24 117.71,-271.32 119.91,-262.97"/>
<polygon fill="black" stroke="black" points="123.22,-264.14 122.7,-253.56 116.51,-262.15 123.22,-264.14"/>
</g>
<!-- r3_node_20 -->
<g id="node21" class="node">
<title>r3_node_20</title>
<ellipse fill="none" stroke="black" cx="371.93" cy="-234" rx="54.93" ry="18"/>
<text text-anchor="middle" x="371.93" y="-228.95" font-family="Times,serif" font-size="14.00">r3_node_20</text>
</g>
<!-- r3_node_7&#45;&gt;r3_node_20 -->
<g id="edge20" class="edge">
<title>r3_node_7&#45;&gt;r3_node_20</title>
<path fill="none" stroke="black" d="M153.88,-293.44C197,-281.05 268.49,-261.4 317.85,-248.35"/>
<polygon fill="black" stroke="black" points="318.71,-251.75 327.49,-245.82 316.93,-244.98 318.71,-251.75"/>
</g>
<!-- r3_node_15 -->
<g id="node4" class="node">
<title>r3_node_15</title>
<ellipse fill="none" stroke="black" cx="585.93" cy="-90" rx="54.93" ry="18"/>
<text text-anchor="middle" x="585.93" y="-84.95" font-family="Times,serif" font-size="14.00">r3_node_15</text>
</g>
<!-- r3_node_5 -->
<g id="node5" class="node">
<title>r3_node_5</title>
<ellipse fill="none" stroke="black" cx="185.93" cy="-378" rx="50.33" ry="18"/>
<text text-anchor="middle" x="185.93" y="-372.95" font-family="Times,serif" font-size="14.00">r3_node_5</text>
</g>
<!-- r3_node_5&#45;&gt;r3_node_15 -->
<g id="edge5" class="edge">
<title>r3_node_5&#45;&gt;r3_node_15</title>
<path fill="none" stroke="black" d="M203.79,-360.93C226.64,-341.15 268.14,-307.77 308.93,-288 423.75,-232.35 502.06,-284.73 574.93,-180 587.04,-162.6 589.38,-138.53 588.92,-119.81"/>
<polygon fill="black" stroke="black" points="592.42,-119.7 588.37,-109.91 585.43,-120.09 592.42,-119.7"/>
</g>
<!-- r3_node_9 -->
<g id="node6" class="node">
<title>r3_node_9</title>
<ellipse fill="none" stroke="black" cx="785.93" cy="-18" rx="50.33" ry="18"/>
<text text-anchor="middle" x="785.93" y="-12.95" font-family="Times,serif" font-size="14.00">r3_node_9</text>
</g>
<!-- r3_node_5&#45;&gt;r3_node_9 -->
<g id="edge3" class="edge">
<title>r3_node_5&#45;&gt;r3_node_9</title>
<path fill="none" stroke="black" d="M215.52,-363.1C237.37,-352.68 267.73,-337.9 293.93,-324 322.42,-308.89 326.88,-299.69 356.93,-288 424.46,-261.74 450.82,-283.79 515.93,-252 584.05,-218.74 580.77,-179.14 647.93,-144 699.54,-117 735.83,-152.04 773.93,-108 788.06,-91.67 790.42,-66.97 789.6,-47.73"/>
<polygon fill="black" stroke="black" points="793.09,-47.51 788.85,-37.81 786.11,-48.04 793.09,-47.51"/>
</g>
<!-- r3_node_11 -->
<g id="node7" class="node">
<title>r3_node_11</title>
<ellipse fill="none" stroke="black" cx="420.93" cy="-306" rx="54.93" ry="18"/>
<text text-anchor="middle" x="420.93" y="-300.95" font-family="Times,serif" font-size="14.00">r3_node_11</text>
</g>
<!-- r3_node_5&#45;&gt;r3_node_11 -->
<g id="edge4" class="edge">
<title>r3_node_5&#45;&gt;r3_node_11</title>
<path fill="none" stroke="black" d="M221.35,-364.89C260.38,-352.69 323.38,-333.9 368.2,-321.06"/>
<polygon fill="black" stroke="black" points="369.07,-324.45 377.72,-318.34 367.15,-317.72 369.07,-324.45"/>
</g>
<!-- r3_node_11&#45;&gt;r3_node_5 -->
<g id="edge10" class="edge">
<title>r3_node_11&#45;&gt;r3_node_5</title>
<path fill="none" stroke="black" d="M383.98,-319.6C344.25,-331.98 281.03,-350.83 236.68,-363.51"/>
<polygon fill="black" stroke="black" points="235.95,-360.08 227.29,-366.18 237.86,-366.81 235.95,-360.08"/>
</g>
<!-- r3_node_17 -->
<g id="node12" class="node">
<title>r3_node_17</title>
<ellipse fill="none" stroke="black" cx="880.93" cy="-90" rx="54.93" ry="18"/>
<text text-anchor="middle" x="880.93" y="-84.95" font-family="Times,serif" font-size="14.00">r3_node_17</text>
</g>
<!-- r3_node_11&#45;&gt;r3_node_17 -->
<g id="edge11" class="edge">
<title>r3_node_11&#45;&gt;r3_node_17</title>
<path fill="none" stroke="black" d="M468.26,-296.6C503.25,-288.88 551.04,-275.04 587.93,-252 644.2,-216.87 634.06,-178.13 690.93,-144 702.8,-136.88 775.43,-117.62 827.36,-104.39"/>
<polygon fill="black" stroke="black" points="828.12,-107.81 836.96,-101.96 826.4,-101.02 828.12,-107.81"/>
</g>
<!-- r3_node_22 -->
<g id="node13" class="node">
<title>r3_node_22</title>
<ellipse fill="none" stroke="black" cx="715.93" cy="-234" rx="54.93" ry="18"/>
<text text-anchor="middle" x="715.93" y="-228.95" font-family="Times,serif" font-size="14.00">r3_node_22</text>
</g>
<!-- r3_node_11&#45;&gt;r3_node_22 -->
<g id="edge12" class="edge">
<title>r3_node_11&#45;&gt;r3_node_22</title>
<path fill="none" stroke="black" d="M462.59,-293.91C514.2,-281.15 602.12,-260.27 659.67,-247.1"/>
<polygon fill="black" stroke="black" points="660.31,-250.55 669.28,-244.91 658.75,-243.72 660.31,-250.55"/>
</g>
<!-- r3_node_27 -->
<g id="node9" class="node">
<title>r3_node_27</title>
<ellipse fill="none" stroke="black" cx="291.93" cy="-90" rx="54.93" ry="18"/>
<text text-anchor="middle" x="291.93" y="-84.95" font-family="Times,serif" font-size="14.00">r3_node_27</text>
</g>
<!-- r3_node_14 -->
<g id="node10" class="node">
<title>r3_node_14</title>
<ellipse fill="none" stroke="black" cx="292.93" cy="-162" rx="54.93" ry="18"/>
<text text-anchor="middle" x="292.93" y="-156.95" font-family="Times,serif" font-size="14.00">r3_node_14</text>
</g>
<!-- r3_node_14&#45;&gt;r3_node_15 -->
<g id="edge7" class="edge">
<title>r3_node_14&#45;&gt;r3_node_15</title>
<path fill="none" stroke="black" d="M336.48,-150.6C388.38,-138.2 475.14,-117.47 531.44,-104.02"/>
<polygon fill="black" stroke="black" points="532.24,-107.43 541.15,-101.7 530.61,-100.62 532.24,-107.43"/>
</g>
<!-- r3_node_14&#45;&gt;r3_node_3 -->
<g id="edge9" class="edge">
<title>r3_node_14&#45;&gt;r3_node_3</title>
<path fill="none" stroke="black" d="M319.62,-145.81C337.35,-135.72 360.83,-122.36 380.17,-111.35"/>
<polygon fill="black" stroke="black" points="381.86,-114.42 388.82,-106.43 378.4,-108.33 381.86,-114.42"/>
</g>
<!-- r3_node_14&#45;&gt;r3_node_6 -->
<g id="edge6" class="edge">
<title>r3_node_14&#45;&gt;r3_node_6</title>
<path fill="none" stroke="black" d="M264.66,-177.83C240.39,-189.07 205.16,-204.52 177.18,-216.21"/>
<polygon fill="black" stroke="black" points="176.15,-212.84 168.25,-219.91 178.83,-219.31 176.15,-212.84"/>
</g>
<!-- r3_node_14&#45;&gt;r3_node_17 -->
<g id="edge8" class="edge">
<title>r3_node_14&#45;&gt;r3_node_17</title>
<path fill="none" stroke="black" d="M344.27,-155.33C374.21,-152.02 412.71,-147.77 446.93,-144 592.27,-127.98 629.03,-127.48 773.93,-108 789.46,-105.91 806.21,-103.38 821.74,-100.92"/>
<polygon fill="black" stroke="black" points="821.99,-104.43 831.31,-99.39 820.88,-97.52 821.99,-104.43"/>
</g>
<!-- r3_node_6&#45;&gt;r3_node_7 -->
<g id="edge28" class="edge">
<title>r3_node_6&#45;&gt;r3_node_7</title>
<path fill="none" stroke="black" d="M134.9,-252.28C133.96,-259.77 132.15,-268.75 129.92,-277.15"/>
<polygon fill="black" stroke="black" points="126.61,-276.02 127.12,-286.6 133.32,-278.01 126.61,-276.02"/>
</g>
<!-- r3_node_6&#45;&gt;r3_node_14 -->
<g id="edge27" class="edge">
<title>r3_node_6&#45;&gt;r3_node_14</title>
<path fill="none" stroke="black" d="M160.49,-218.5C184.32,-207.45 219.05,-192.21 247.03,-180.49"/>
<polygon fill="black" stroke="black" points="248.09,-183.84 255.98,-176.77 245.41,-177.37 248.09,-183.84"/>
</g>
<!-- r3_node_21 -->
<g id="node16" class="node">
<title>r3_node_21</title>
<ellipse fill="none" stroke="black" cx="148.93" cy="-162" rx="54.93" ry="18"/>
<text text-anchor="middle" x="148.93" y="-156.95" font-family="Times,serif" font-size="14.00">r3_node_21</text>
</g>
<!-- r3_node_6&#45;&gt;r3_node_21 -->
<g id="edge29" class="edge">
<title>r3_node_6&#45;&gt;r3_node_21</title>
<path fill="none" stroke="black" d="M130.97,-215.7C131.91,-208.24 133.71,-199.32 135.91,-190.97"/>
<polygon fill="black" stroke="black" points="139.22,-192.14 138.7,-181.56 132.51,-190.15 139.22,-192.14"/>
</g>
<!-- r3_node_1 -->
<g id="node24" class="node">
<title>r3_node_1</title>
<ellipse fill="none" stroke="black" cx="355.93" cy="-18" rx="50.33" ry="18"/>
<text text-anchor="middle" x="355.93" y="-12.95" font-family="Times,serif" font-size="14.00">r3_node_1</text>
</g>
<!-- r3_node_6&#45;&gt;r3_node_1 -->
<g id="edge26" class="edge">
<title>r3_node_6&#45;&gt;r3_node_1</title>
<path fill="none" stroke="black" d="M112.72,-217.17C102.28,-207.66 90.56,-194.59 84.93,-180 67.54,-134.89 64.16,-106.59 97.93,-72 111.88,-57.71 226.89,-38.25 298.57,-27.33"/>
<polygon fill="black" stroke="black" points="298.81,-30.83 308.18,-25.87 297.77,-23.91 298.81,-30.83"/>
</g>
<!-- r3_node_22&#45;&gt;r3_node_11 -->
<g id="edge38" class="edge">
<title>r3_node_22&#45;&gt;r3_node_11</title>
<path fill="none" stroke="black" d="M674.31,-246.08C622.72,-258.84 534.8,-279.71 477.24,-292.89"/>
<polygon fill="black" stroke="black" points="476.6,-289.44 467.63,-295.08 478.15,-296.27 476.6,-289.44"/>
</g>
<!-- r3_node_10 -->
<g id="node18" class="node">
<title>r3_node_10</title>
<ellipse fill="none" stroke="black" cx="959.93" cy="-18" rx="54.93" ry="18"/>
<text text-anchor="middle" x="959.93" y="-12.95" font-family="Times,serif" font-size="14.00">r3_node_10</text>
</g>
<!-- r3_node_22&#45;&gt;r3_node_10 -->
<g id="edge37" class="edge">
<title>r3_node_22&#45;&gt;r3_node_10</title>
<path fill="none" stroke="black" d="M766.83,-226.84C824.7,-219.19 913.98,-204.12 937.93,-180 972.2,-145.5 966.01,-83.87 961.25,-47.69"/>
<polygon fill="black" stroke="black" points="964.74,-47.42 959.95,-37.98 957.8,-48.35 964.74,-47.42"/>
</g>
<!-- r3_node_23 -->
<g id="node19" class="node">
<title>r3_node_23</title>
<ellipse fill="none" stroke="black" cx="754.93" cy="-162" rx="54.93" ry="18"/>
<text text-anchor="middle" x="754.93" y="-156.95" font-family="Times,serif" font-size="14.00">r3_node_23</text>
</g>
<!-- r3_node_22&#45;&gt;r3_node_23 -->
<g id="edge39" class="edge">
<title>r3_node_22&#45;&gt;r3_node_23</title>
<path fill="none" stroke="black" d="M719.66,-215.7C723.29,-207.7 728.47,-198.02 733.81,-189.15"/>
<polygon fill="black" stroke="black" points="736.64,-191.23 739.02,-180.9 730.72,-187.49 736.64,-191.23"/>
</g>
<!-- r3_node_28 -->
<g id="node22" class="node">
<title>r3_node_28</title>
<ellipse fill="none" stroke="black" cx="882.93" cy="-162" rx="54.93" ry="18"/>
<text text-anchor="middle" x="882.93" y="-156.95" font-family="Times,serif" font-size="14.00">r3_node_28</text>
</g>
<!-- r3_node_22&#45;&gt;r3_node_28 -->
<g id="edge40" class="edge">
<title>r3_node_22&#45;&gt;r3_node_28</title>
<path fill="none" stroke="black" d="M745.33,-218.33C770.57,-207.15 807.24,-191.74 836.43,-180.03"/>
<polygon fill="black" stroke="black" points="837.41,-183.4 845.41,-176.45 834.82,-176.9 837.41,-183.4"/>
</g>
<!-- r3_node_16 -->
<g id="node14" class="node">
<title>r3_node_16</title>
<ellipse fill="none" stroke="black" cx="161.93" cy="-90" rx="54.93" ry="18"/>
<text text-anchor="middle" x="161.93" y="-84.95" font-family="Times,serif" font-size="14.00">r3_node_16</text>
</g>
<!-- r3_node_12 -->
<g id="node15" class="node">
<title>r3_node_12</title>
<ellipse fill="none" stroke="black" cx="515.93" cy="-18" rx="54.93" ry="18"/>
<text text-anchor="middle" x="515.93" y="-12.95" font-family="Times,serif" font-size="14.00">r3_node_12</text>
</g>
<!-- r3_node_16&#45;&gt;r3_node_12 -->
<g id="edge13" class="edge">
<title>r3_node_16&#45;&gt;r3_node_12</title>
<path fill="none" stroke="black" d="M203.37,-77.85C211.49,-75.8 219.96,-73.76 227.93,-72 270.7,-62.57 386.34,-41.83 457.4,-29.27"/>
<polygon fill="black" stroke="black" points="457.68,-32.78 466.91,-27.59 456.46,-25.88 457.68,-32.78"/>
</g>
<!-- r3_node_16&#45;&gt;r3_node_21 -->
<g id="edge14" class="edge">
<title>r3_node_16&#45;&gt;r3_node_21</title>
<path fill="none" stroke="black" d="M164.64,-108.28C164.02,-115.77 162.59,-124.75 160.73,-133.15"/>
<polygon fill="black" stroke="black" points="157.4,-132.03 158.33,-142.59 164.19,-133.76 157.4,-132.03"/>
</g>
<!-- r3_node_2 -->
<g id="node17" class="node">
<title>r3_node_2</title>
<ellipse fill="none" stroke="black" cx="657.93" cy="-18" rx="50.33" ry="18"/>
<text text-anchor="middle" x="657.93" y="-12.95" font-family="Times,serif" font-size="14.00">r3_node_2</text>
</g>
<!-- r3_node_16&#45;&gt;r3_node_2 -->
<g id="edge15" class="edge">
<title>r3_node_16&#45;&gt;r3_node_2</title>
<path fill="none" stroke="black" d="M202.56,-77.52C210.91,-75.45 219.66,-73.48 227.93,-72 382.74,-44.31 424.64,-60.78 579.93,-36 588.31,-34.66 597.14,-32.99 605.72,-31.23"/>
<polygon fill="black" stroke="black" points="606.27,-34.69 615.33,-29.19 604.82,-27.84 606.27,-34.69"/>
</g>
<!-- r3_node_21&#45;&gt;r3_node_27 -->
<g id="edge31" class="edge">
<title>r3_node_21&#45;&gt;r3_node_27</title>
<path fill="none" stroke="black" d="M178.56,-146.5C199.85,-136.08 228.77,-121.92 252.08,-110.51"/>
<polygon fill="black" stroke="black" points="253.54,-113.69 260.98,-106.15 250.46,-107.4 253.54,-113.69"/>
</g>
<!-- r3_node_21&#45;&gt;r3_node_6 -->
<g id="edge30" class="edge">
<title>r3_node_21&#45;&gt;r3_node_6</title>
<path fill="none" stroke="black" d="M150.9,-180.28C149.96,-187.77 148.15,-196.75 145.92,-205.15"/>
<polygon fill="black" stroke="black" points="142.61,-204.02 143.12,-214.6 149.32,-206.01 142.61,-204.02"/>
</g>
<!-- r3_node_21&#45;&gt;r3_node_16 -->
<g id="edge33" class="edge">
<title>r3_node_21&#45;&gt;r3_node_16</title>
<path fill="none" stroke="black" d="M146.23,-143.7C146.84,-136.32 148.23,-127.52 150.05,-119.25"/>
<polygon fill="black" stroke="black" points="153.44,-120.12 152.49,-109.57 146.65,-118.41 153.44,-120.12"/>
</g>
<!-- r3_node_4 -->
<g id="node20" class="node">
<title>r3_node_4</title>
<ellipse fill="none" stroke="black" cx="714.93" cy="-90" rx="50.33" ry="18"/>
<text text-anchor="middle" x="714.93" y="-84.95" font-family="Times,serif" font-size="14.00">r3_node_4</text>
</g>
<!-- r3_node_21&#45;&gt;r3_node_4 -->
<g id="edge32" class="edge">
<title>r3_node_21&#45;&gt;r3_node_4</title>
<path fill="none" stroke="black" d="M192.35,-150.75C204.17,-148.24 217,-145.77 228.93,-144 414.69,-116.43 464.86,-139.87 649.93,-108 655.12,-107.11 660.5,-106 665.84,-104.78"/>
<polygon fill="black" stroke="black" points="666.31,-108.27 675.2,-102.52 664.66,-101.47 666.31,-108.27"/>
</g>
<!-- r3_node_10&#45;&gt;r3_node_22 -->
<g id="edge16" class="edge">
<title>r3_node_10&#45;&gt;r3_node_22</title>
<path fill="none" stroke="black" d="M969.84,-35.96C981.97,-68.84 994.27,-141.4 955.93,-180 931.95,-204.15 842.48,-219.22 779.76,-226.86"/>
<polygon fill="black" stroke="black" points="779.4,-223.38 769.88,-228.03 780.22,-230.33 779.4,-223.38"/>
</g>
<!-- r3_node_23&#45;&gt;r3_node_9 -->
<g id="edge19" class="edge">
<title>r3_node_23&#45;&gt;r3_node_9</title>
<path fill="none" stroke="black" d="M796.31,-149.79C851.86,-134.69 943.78,-109.52 944.93,-108 976.77,-66.07 900.03,-41.05 842.42,-28.67"/>
<polygon fill="black" stroke="black" points="843.18,-25.25 832.68,-26.66 841.77,-32.11 843.18,-25.25"/>
</g>
<!-- r3_node_23&#45;&gt;r3_node_22 -->
<g id="edge17" class="edge">
<title>r3_node_23&#45;&gt;r3_node_22</title>
<path fill="none" stroke="black" d="M751.14,-180.45C747.51,-188.44 742.34,-198.08 737.02,-206.92"/>
<polygon fill="black" stroke="black" points="734.21,-204.81 731.83,-215.13 740.13,-208.55 734.21,-204.81"/>
</g>
<!-- r3_node_23&#45;&gt;r3_node_4 -->
<g id="edge18" class="edge">
<title>r3_node_23&#45;&gt;r3_node_4</title>
<path fill="none" stroke="black" d="M745.25,-144.05C740.73,-136.14 735.24,-126.54 730.18,-117.69"/>
<polygon fill="black" stroke="black" points="733.28,-116.05 725.28,-109.1 727.2,-119.52 733.28,-116.05"/>
</g>
<!-- r3_node_20&#45;&gt;r3_node_7 -->
<g id="edge35" class="edge">
<title>r3_node_20&#45;&gt;r3_node_7</title>
<path fill="none" stroke="black" d="M333.25,-247.06C289.28,-259.67 217.51,-279.38 168.75,-292.24"/>
<polygon fill="black" stroke="black" points="168.05,-288.81 159.27,-294.73 169.83,-295.58 168.05,-288.81"/>
</g>
<!-- r3_node_20&#45;&gt;r3_node_9 -->
<g id="edge34" class="edge">
<title>r3_node_20&#45;&gt;r3_node_9</title>
<path fill="none" stroke="black" d="M385.22,-216.04C415.15,-178.33 487.85,-89.47 521.93,-72 600.36,-31.79 630.78,-54.55 716.93,-36 722.81,-34.73 728.96,-33.33 735.05,-31.9"/>
<polygon fill="black" stroke="black" points="735.52,-35.38 744.42,-29.64 733.88,-28.58 735.52,-35.38"/>
</g>
<!-- r3_node_24 -->
<g id="node23" class="node">
<title>r3_node_24</title>
<ellipse fill="none" stroke="black" cx="510.93" cy="-162" rx="54.93" ry="18"/>
<text text-anchor="middle" x="510.93" y="-156.95" font-family="Times,serif" font-size="14.00">r3_node_24</text>
</g>
<!-- r3_node_20&#45;&gt;r3_node_24 -->
<g id="edge36" class="edge">
<title>r3_node_20&#45;&gt;r3_node_24</title>
<path fill="none" stroke="black" d="M401.07,-218.33C421.55,-208.01 449.19,-194.1 471.62,-182.8"/>
<polygon fill="black" stroke="black" points="473.12,-185.96 480.48,-178.34 469.98,-179.71 473.12,-185.96"/>
</g>
<!-- r3_node_28&#45;&gt;r3_node_17 -->
<g id="edge25" class="edge">
<title>r3_node_28&#45;&gt;r3_node_17</title>
<path fill="none" stroke="black" d="M882.44,-143.7C882.23,-136.41 881.98,-127.73 881.75,-119.54"/>
<polygon fill="black" stroke="black" points="885.25,-119.51 881.47,-109.62 878.25,-119.71 885.25,-119.51"/>
</g>
<!-- r3_node_28&#45;&gt;r3_node_22 -->
<g id="edge24" class="edge">
<title>r3_node_28&#45;&gt;r3_node_22</title>
<path fill="none" stroke="black" d="M853.77,-177.57C828.49,-188.77 791.64,-204.25 762.34,-216.01"/>
<polygon fill="black" stroke="black" points="761.33,-212.65 753.33,-219.6 763.92,-219.15 761.33,-212.65"/>
</g>
</g>
</svg>
